G04 #@! TF.GenerationSoftware,KiCad,Pcbnew,(5.0.0)*
G04 #@! TF.CreationDate,2018-09-10T10:35:59+01:00*
G04 #@! TF.ProjectId,AquaHub,417175614875622E6B696361645F7063,rev?*
G04 #@! TF.SameCoordinates,Original*
G04 #@! TF.FileFunction,Paste,Top*
G04 #@! TF.FilePolarity,Positive*
%FSLAX46Y46*%
G04 Gerber Fmt 4.6, Leading zero omitted, Abs format (unit mm)*
G04 Created by KiCad (PCBNEW (5.0.0)) date 09/10/18 10:35:59*
%MOMM*%
%LPD*%
G01*
G04 APERTURE LIST*
%ADD10C,0.100000*%
%ADD11C,1.150000*%
%ADD12R,2.000000X1.500000*%
%ADD13R,2.000000X3.800000*%
%ADD14R,0.600000X1.550000*%
G04 APERTURE END LIST*
D10*
G04 #@! TO.C,R3*
G36*
X149699505Y-80216204D02*
X149723773Y-80219804D01*
X149747572Y-80225765D01*
X149770671Y-80234030D01*
X149792850Y-80244520D01*
X149813893Y-80257132D01*
X149833599Y-80271747D01*
X149851777Y-80288223D01*
X149868253Y-80306401D01*
X149882868Y-80326107D01*
X149895480Y-80347150D01*
X149905970Y-80369329D01*
X149914235Y-80392428D01*
X149920196Y-80416227D01*
X149923796Y-80440495D01*
X149925000Y-80464999D01*
X149925000Y-81115001D01*
X149923796Y-81139505D01*
X149920196Y-81163773D01*
X149914235Y-81187572D01*
X149905970Y-81210671D01*
X149895480Y-81232850D01*
X149882868Y-81253893D01*
X149868253Y-81273599D01*
X149851777Y-81291777D01*
X149833599Y-81308253D01*
X149813893Y-81322868D01*
X149792850Y-81335480D01*
X149770671Y-81345970D01*
X149747572Y-81354235D01*
X149723773Y-81360196D01*
X149699505Y-81363796D01*
X149675001Y-81365000D01*
X148774999Y-81365000D01*
X148750495Y-81363796D01*
X148726227Y-81360196D01*
X148702428Y-81354235D01*
X148679329Y-81345970D01*
X148657150Y-81335480D01*
X148636107Y-81322868D01*
X148616401Y-81308253D01*
X148598223Y-81291777D01*
X148581747Y-81273599D01*
X148567132Y-81253893D01*
X148554520Y-81232850D01*
X148544030Y-81210671D01*
X148535765Y-81187572D01*
X148529804Y-81163773D01*
X148526204Y-81139505D01*
X148525000Y-81115001D01*
X148525000Y-80464999D01*
X148526204Y-80440495D01*
X148529804Y-80416227D01*
X148535765Y-80392428D01*
X148544030Y-80369329D01*
X148554520Y-80347150D01*
X148567132Y-80326107D01*
X148581747Y-80306401D01*
X148598223Y-80288223D01*
X148616401Y-80271747D01*
X148636107Y-80257132D01*
X148657150Y-80244520D01*
X148679329Y-80234030D01*
X148702428Y-80225765D01*
X148726227Y-80219804D01*
X148750495Y-80216204D01*
X148774999Y-80215000D01*
X149675001Y-80215000D01*
X149699505Y-80216204D01*
X149699505Y-80216204D01*
G37*
D11*
X149225000Y-80790000D03*
D10*
G36*
X149699505Y-78166204D02*
X149723773Y-78169804D01*
X149747572Y-78175765D01*
X149770671Y-78184030D01*
X149792850Y-78194520D01*
X149813893Y-78207132D01*
X149833599Y-78221747D01*
X149851777Y-78238223D01*
X149868253Y-78256401D01*
X149882868Y-78276107D01*
X149895480Y-78297150D01*
X149905970Y-78319329D01*
X149914235Y-78342428D01*
X149920196Y-78366227D01*
X149923796Y-78390495D01*
X149925000Y-78414999D01*
X149925000Y-79065001D01*
X149923796Y-79089505D01*
X149920196Y-79113773D01*
X149914235Y-79137572D01*
X149905970Y-79160671D01*
X149895480Y-79182850D01*
X149882868Y-79203893D01*
X149868253Y-79223599D01*
X149851777Y-79241777D01*
X149833599Y-79258253D01*
X149813893Y-79272868D01*
X149792850Y-79285480D01*
X149770671Y-79295970D01*
X149747572Y-79304235D01*
X149723773Y-79310196D01*
X149699505Y-79313796D01*
X149675001Y-79315000D01*
X148774999Y-79315000D01*
X148750495Y-79313796D01*
X148726227Y-79310196D01*
X148702428Y-79304235D01*
X148679329Y-79295970D01*
X148657150Y-79285480D01*
X148636107Y-79272868D01*
X148616401Y-79258253D01*
X148598223Y-79241777D01*
X148581747Y-79223599D01*
X148567132Y-79203893D01*
X148554520Y-79182850D01*
X148544030Y-79160671D01*
X148535765Y-79137572D01*
X148529804Y-79113773D01*
X148526204Y-79089505D01*
X148525000Y-79065001D01*
X148525000Y-78414999D01*
X148526204Y-78390495D01*
X148529804Y-78366227D01*
X148535765Y-78342428D01*
X148544030Y-78319329D01*
X148554520Y-78297150D01*
X148567132Y-78276107D01*
X148581747Y-78256401D01*
X148598223Y-78238223D01*
X148616401Y-78221747D01*
X148636107Y-78207132D01*
X148657150Y-78194520D01*
X148679329Y-78184030D01*
X148702428Y-78175765D01*
X148726227Y-78169804D01*
X148750495Y-78166204D01*
X148774999Y-78165000D01*
X149675001Y-78165000D01*
X149699505Y-78166204D01*
X149699505Y-78166204D01*
G37*
D11*
X149225000Y-78740000D03*
G04 #@! TD*
D12*
G04 #@! TO.C,U3*
X89585000Y-99300000D03*
X89585000Y-103900000D03*
X89585000Y-101600000D03*
D13*
X95885000Y-101600000D03*
G04 #@! TD*
D14*
G04 #@! TO.C,U2*
X162187979Y-117809195D03*
X163457979Y-117809195D03*
X164727979Y-117809195D03*
X165997979Y-117809195D03*
X165997979Y-123209195D03*
X164727979Y-123209195D03*
X163457979Y-123209195D03*
X162187979Y-123209195D03*
G04 #@! TD*
D10*
G04 #@! TO.C,C1*
G36*
X169647484Y-117390399D02*
X169671752Y-117393999D01*
X169695551Y-117399960D01*
X169718650Y-117408225D01*
X169740829Y-117418715D01*
X169761872Y-117431327D01*
X169781578Y-117445942D01*
X169799756Y-117462418D01*
X169816232Y-117480596D01*
X169830847Y-117500302D01*
X169843459Y-117521345D01*
X169853949Y-117543524D01*
X169862214Y-117566623D01*
X169868175Y-117590422D01*
X169871775Y-117614690D01*
X169872979Y-117639194D01*
X169872979Y-118289196D01*
X169871775Y-118313700D01*
X169868175Y-118337968D01*
X169862214Y-118361767D01*
X169853949Y-118384866D01*
X169843459Y-118407045D01*
X169830847Y-118428088D01*
X169816232Y-118447794D01*
X169799756Y-118465972D01*
X169781578Y-118482448D01*
X169761872Y-118497063D01*
X169740829Y-118509675D01*
X169718650Y-118520165D01*
X169695551Y-118528430D01*
X169671752Y-118534391D01*
X169647484Y-118537991D01*
X169622980Y-118539195D01*
X168722978Y-118539195D01*
X168698474Y-118537991D01*
X168674206Y-118534391D01*
X168650407Y-118528430D01*
X168627308Y-118520165D01*
X168605129Y-118509675D01*
X168584086Y-118497063D01*
X168564380Y-118482448D01*
X168546202Y-118465972D01*
X168529726Y-118447794D01*
X168515111Y-118428088D01*
X168502499Y-118407045D01*
X168492009Y-118384866D01*
X168483744Y-118361767D01*
X168477783Y-118337968D01*
X168474183Y-118313700D01*
X168472979Y-118289196D01*
X168472979Y-117639194D01*
X168474183Y-117614690D01*
X168477783Y-117590422D01*
X168483744Y-117566623D01*
X168492009Y-117543524D01*
X168502499Y-117521345D01*
X168515111Y-117500302D01*
X168529726Y-117480596D01*
X168546202Y-117462418D01*
X168564380Y-117445942D01*
X168584086Y-117431327D01*
X168605129Y-117418715D01*
X168627308Y-117408225D01*
X168650407Y-117399960D01*
X168674206Y-117393999D01*
X168698474Y-117390399D01*
X168722978Y-117389195D01*
X169622980Y-117389195D01*
X169647484Y-117390399D01*
X169647484Y-117390399D01*
G37*
D11*
X169172979Y-117964195D03*
D10*
G36*
X169647484Y-115340399D02*
X169671752Y-115343999D01*
X169695551Y-115349960D01*
X169718650Y-115358225D01*
X169740829Y-115368715D01*
X169761872Y-115381327D01*
X169781578Y-115395942D01*
X169799756Y-115412418D01*
X169816232Y-115430596D01*
X169830847Y-115450302D01*
X169843459Y-115471345D01*
X169853949Y-115493524D01*
X169862214Y-115516623D01*
X169868175Y-115540422D01*
X169871775Y-115564690D01*
X169872979Y-115589194D01*
X169872979Y-116239196D01*
X169871775Y-116263700D01*
X169868175Y-116287968D01*
X169862214Y-116311767D01*
X169853949Y-116334866D01*
X169843459Y-116357045D01*
X169830847Y-116378088D01*
X169816232Y-116397794D01*
X169799756Y-116415972D01*
X169781578Y-116432448D01*
X169761872Y-116447063D01*
X169740829Y-116459675D01*
X169718650Y-116470165D01*
X169695551Y-116478430D01*
X169671752Y-116484391D01*
X169647484Y-116487991D01*
X169622980Y-116489195D01*
X168722978Y-116489195D01*
X168698474Y-116487991D01*
X168674206Y-116484391D01*
X168650407Y-116478430D01*
X168627308Y-116470165D01*
X168605129Y-116459675D01*
X168584086Y-116447063D01*
X168564380Y-116432448D01*
X168546202Y-116415972D01*
X168529726Y-116397794D01*
X168515111Y-116378088D01*
X168502499Y-116357045D01*
X168492009Y-116334866D01*
X168483744Y-116311767D01*
X168477783Y-116287968D01*
X168474183Y-116263700D01*
X168472979Y-116239196D01*
X168472979Y-115589194D01*
X168474183Y-115564690D01*
X168477783Y-115540422D01*
X168483744Y-115516623D01*
X168492009Y-115493524D01*
X168502499Y-115471345D01*
X168515111Y-115450302D01*
X168529726Y-115430596D01*
X168546202Y-115412418D01*
X168564380Y-115395942D01*
X168584086Y-115381327D01*
X168605129Y-115368715D01*
X168627308Y-115358225D01*
X168650407Y-115349960D01*
X168674206Y-115343999D01*
X168698474Y-115340399D01*
X168722978Y-115339195D01*
X169622980Y-115339195D01*
X169647484Y-115340399D01*
X169647484Y-115340399D01*
G37*
D11*
X169172979Y-115914195D03*
G04 #@! TD*
D10*
G04 #@! TO.C,C2*
G36*
X158852484Y-115340399D02*
X158876752Y-115343999D01*
X158900551Y-115349960D01*
X158923650Y-115358225D01*
X158945829Y-115368715D01*
X158966872Y-115381327D01*
X158986578Y-115395942D01*
X159004756Y-115412418D01*
X159021232Y-115430596D01*
X159035847Y-115450302D01*
X159048459Y-115471345D01*
X159058949Y-115493524D01*
X159067214Y-115516623D01*
X159073175Y-115540422D01*
X159076775Y-115564690D01*
X159077979Y-115589194D01*
X159077979Y-116239196D01*
X159076775Y-116263700D01*
X159073175Y-116287968D01*
X159067214Y-116311767D01*
X159058949Y-116334866D01*
X159048459Y-116357045D01*
X159035847Y-116378088D01*
X159021232Y-116397794D01*
X159004756Y-116415972D01*
X158986578Y-116432448D01*
X158966872Y-116447063D01*
X158945829Y-116459675D01*
X158923650Y-116470165D01*
X158900551Y-116478430D01*
X158876752Y-116484391D01*
X158852484Y-116487991D01*
X158827980Y-116489195D01*
X157927978Y-116489195D01*
X157903474Y-116487991D01*
X157879206Y-116484391D01*
X157855407Y-116478430D01*
X157832308Y-116470165D01*
X157810129Y-116459675D01*
X157789086Y-116447063D01*
X157769380Y-116432448D01*
X157751202Y-116415972D01*
X157734726Y-116397794D01*
X157720111Y-116378088D01*
X157707499Y-116357045D01*
X157697009Y-116334866D01*
X157688744Y-116311767D01*
X157682783Y-116287968D01*
X157679183Y-116263700D01*
X157677979Y-116239196D01*
X157677979Y-115589194D01*
X157679183Y-115564690D01*
X157682783Y-115540422D01*
X157688744Y-115516623D01*
X157697009Y-115493524D01*
X157707499Y-115471345D01*
X157720111Y-115450302D01*
X157734726Y-115430596D01*
X157751202Y-115412418D01*
X157769380Y-115395942D01*
X157789086Y-115381327D01*
X157810129Y-115368715D01*
X157832308Y-115358225D01*
X157855407Y-115349960D01*
X157879206Y-115343999D01*
X157903474Y-115340399D01*
X157927978Y-115339195D01*
X158827980Y-115339195D01*
X158852484Y-115340399D01*
X158852484Y-115340399D01*
G37*
D11*
X158377979Y-115914195D03*
D10*
G36*
X158852484Y-117390399D02*
X158876752Y-117393999D01*
X158900551Y-117399960D01*
X158923650Y-117408225D01*
X158945829Y-117418715D01*
X158966872Y-117431327D01*
X158986578Y-117445942D01*
X159004756Y-117462418D01*
X159021232Y-117480596D01*
X159035847Y-117500302D01*
X159048459Y-117521345D01*
X159058949Y-117543524D01*
X159067214Y-117566623D01*
X159073175Y-117590422D01*
X159076775Y-117614690D01*
X159077979Y-117639194D01*
X159077979Y-118289196D01*
X159076775Y-118313700D01*
X159073175Y-118337968D01*
X159067214Y-118361767D01*
X159058949Y-118384866D01*
X159048459Y-118407045D01*
X159035847Y-118428088D01*
X159021232Y-118447794D01*
X159004756Y-118465972D01*
X158986578Y-118482448D01*
X158966872Y-118497063D01*
X158945829Y-118509675D01*
X158923650Y-118520165D01*
X158900551Y-118528430D01*
X158876752Y-118534391D01*
X158852484Y-118537991D01*
X158827980Y-118539195D01*
X157927978Y-118539195D01*
X157903474Y-118537991D01*
X157879206Y-118534391D01*
X157855407Y-118528430D01*
X157832308Y-118520165D01*
X157810129Y-118509675D01*
X157789086Y-118497063D01*
X157769380Y-118482448D01*
X157751202Y-118465972D01*
X157734726Y-118447794D01*
X157720111Y-118428088D01*
X157707499Y-118407045D01*
X157697009Y-118384866D01*
X157688744Y-118361767D01*
X157682783Y-118337968D01*
X157679183Y-118313700D01*
X157677979Y-118289196D01*
X157677979Y-117639194D01*
X157679183Y-117614690D01*
X157682783Y-117590422D01*
X157688744Y-117566623D01*
X157697009Y-117543524D01*
X157707499Y-117521345D01*
X157720111Y-117500302D01*
X157734726Y-117480596D01*
X157751202Y-117462418D01*
X157769380Y-117445942D01*
X157789086Y-117431327D01*
X157810129Y-117418715D01*
X157832308Y-117408225D01*
X157855407Y-117399960D01*
X157879206Y-117393999D01*
X157903474Y-117390399D01*
X157927978Y-117389195D01*
X158827980Y-117389195D01*
X158852484Y-117390399D01*
X158852484Y-117390399D01*
G37*
D11*
X158377979Y-117964195D03*
G04 #@! TD*
D10*
G04 #@! TO.C,R1*
G36*
X165574505Y-113735399D02*
X165598773Y-113738999D01*
X165622572Y-113744960D01*
X165645671Y-113753225D01*
X165667850Y-113763715D01*
X165688893Y-113776327D01*
X165708599Y-113790942D01*
X165726777Y-113807418D01*
X165743253Y-113825596D01*
X165757868Y-113845302D01*
X165770480Y-113866345D01*
X165780970Y-113888524D01*
X165789235Y-113911623D01*
X165795196Y-113935422D01*
X165798796Y-113959690D01*
X165800000Y-113984194D01*
X165800000Y-114634196D01*
X165798796Y-114658700D01*
X165795196Y-114682968D01*
X165789235Y-114706767D01*
X165780970Y-114729866D01*
X165770480Y-114752045D01*
X165757868Y-114773088D01*
X165743253Y-114792794D01*
X165726777Y-114810972D01*
X165708599Y-114827448D01*
X165688893Y-114842063D01*
X165667850Y-114854675D01*
X165645671Y-114865165D01*
X165622572Y-114873430D01*
X165598773Y-114879391D01*
X165574505Y-114882991D01*
X165550001Y-114884195D01*
X164649999Y-114884195D01*
X164625495Y-114882991D01*
X164601227Y-114879391D01*
X164577428Y-114873430D01*
X164554329Y-114865165D01*
X164532150Y-114854675D01*
X164511107Y-114842063D01*
X164491401Y-114827448D01*
X164473223Y-114810972D01*
X164456747Y-114792794D01*
X164442132Y-114773088D01*
X164429520Y-114752045D01*
X164419030Y-114729866D01*
X164410765Y-114706767D01*
X164404804Y-114682968D01*
X164401204Y-114658700D01*
X164400000Y-114634196D01*
X164400000Y-113984194D01*
X164401204Y-113959690D01*
X164404804Y-113935422D01*
X164410765Y-113911623D01*
X164419030Y-113888524D01*
X164429520Y-113866345D01*
X164442132Y-113845302D01*
X164456747Y-113825596D01*
X164473223Y-113807418D01*
X164491401Y-113790942D01*
X164511107Y-113776327D01*
X164532150Y-113763715D01*
X164554329Y-113753225D01*
X164577428Y-113744960D01*
X164601227Y-113738999D01*
X164625495Y-113735399D01*
X164649999Y-113734195D01*
X165550001Y-113734195D01*
X165574505Y-113735399D01*
X165574505Y-113735399D01*
G37*
D11*
X165100000Y-114309195D03*
D10*
G36*
X165574505Y-111685399D02*
X165598773Y-111688999D01*
X165622572Y-111694960D01*
X165645671Y-111703225D01*
X165667850Y-111713715D01*
X165688893Y-111726327D01*
X165708599Y-111740942D01*
X165726777Y-111757418D01*
X165743253Y-111775596D01*
X165757868Y-111795302D01*
X165770480Y-111816345D01*
X165780970Y-111838524D01*
X165789235Y-111861623D01*
X165795196Y-111885422D01*
X165798796Y-111909690D01*
X165800000Y-111934194D01*
X165800000Y-112584196D01*
X165798796Y-112608700D01*
X165795196Y-112632968D01*
X165789235Y-112656767D01*
X165780970Y-112679866D01*
X165770480Y-112702045D01*
X165757868Y-112723088D01*
X165743253Y-112742794D01*
X165726777Y-112760972D01*
X165708599Y-112777448D01*
X165688893Y-112792063D01*
X165667850Y-112804675D01*
X165645671Y-112815165D01*
X165622572Y-112823430D01*
X165598773Y-112829391D01*
X165574505Y-112832991D01*
X165550001Y-112834195D01*
X164649999Y-112834195D01*
X164625495Y-112832991D01*
X164601227Y-112829391D01*
X164577428Y-112823430D01*
X164554329Y-112815165D01*
X164532150Y-112804675D01*
X164511107Y-112792063D01*
X164491401Y-112777448D01*
X164473223Y-112760972D01*
X164456747Y-112742794D01*
X164442132Y-112723088D01*
X164429520Y-112702045D01*
X164419030Y-112679866D01*
X164410765Y-112656767D01*
X164404804Y-112632968D01*
X164401204Y-112608700D01*
X164400000Y-112584196D01*
X164400000Y-111934194D01*
X164401204Y-111909690D01*
X164404804Y-111885422D01*
X164410765Y-111861623D01*
X164419030Y-111838524D01*
X164429520Y-111816345D01*
X164442132Y-111795302D01*
X164456747Y-111775596D01*
X164473223Y-111757418D01*
X164491401Y-111740942D01*
X164511107Y-111726327D01*
X164532150Y-111713715D01*
X164554329Y-111703225D01*
X164577428Y-111694960D01*
X164601227Y-111688999D01*
X164625495Y-111685399D01*
X164649999Y-111684195D01*
X165550001Y-111684195D01*
X165574505Y-111685399D01*
X165574505Y-111685399D01*
G37*
D11*
X165100000Y-112259195D03*
G04 #@! TD*
D10*
G04 #@! TO.C,R2*
G36*
X143349505Y-78166204D02*
X143373773Y-78169804D01*
X143397572Y-78175765D01*
X143420671Y-78184030D01*
X143442850Y-78194520D01*
X143463893Y-78207132D01*
X143483599Y-78221747D01*
X143501777Y-78238223D01*
X143518253Y-78256401D01*
X143532868Y-78276107D01*
X143545480Y-78297150D01*
X143555970Y-78319329D01*
X143564235Y-78342428D01*
X143570196Y-78366227D01*
X143573796Y-78390495D01*
X143575000Y-78414999D01*
X143575000Y-79065001D01*
X143573796Y-79089505D01*
X143570196Y-79113773D01*
X143564235Y-79137572D01*
X143555970Y-79160671D01*
X143545480Y-79182850D01*
X143532868Y-79203893D01*
X143518253Y-79223599D01*
X143501777Y-79241777D01*
X143483599Y-79258253D01*
X143463893Y-79272868D01*
X143442850Y-79285480D01*
X143420671Y-79295970D01*
X143397572Y-79304235D01*
X143373773Y-79310196D01*
X143349505Y-79313796D01*
X143325001Y-79315000D01*
X142424999Y-79315000D01*
X142400495Y-79313796D01*
X142376227Y-79310196D01*
X142352428Y-79304235D01*
X142329329Y-79295970D01*
X142307150Y-79285480D01*
X142286107Y-79272868D01*
X142266401Y-79258253D01*
X142248223Y-79241777D01*
X142231747Y-79223599D01*
X142217132Y-79203893D01*
X142204520Y-79182850D01*
X142194030Y-79160671D01*
X142185765Y-79137572D01*
X142179804Y-79113773D01*
X142176204Y-79089505D01*
X142175000Y-79065001D01*
X142175000Y-78414999D01*
X142176204Y-78390495D01*
X142179804Y-78366227D01*
X142185765Y-78342428D01*
X142194030Y-78319329D01*
X142204520Y-78297150D01*
X142217132Y-78276107D01*
X142231747Y-78256401D01*
X142248223Y-78238223D01*
X142266401Y-78221747D01*
X142286107Y-78207132D01*
X142307150Y-78194520D01*
X142329329Y-78184030D01*
X142352428Y-78175765D01*
X142376227Y-78169804D01*
X142400495Y-78166204D01*
X142424999Y-78165000D01*
X143325001Y-78165000D01*
X143349505Y-78166204D01*
X143349505Y-78166204D01*
G37*
D11*
X142875000Y-78740000D03*
D10*
G36*
X143349505Y-80216204D02*
X143373773Y-80219804D01*
X143397572Y-80225765D01*
X143420671Y-80234030D01*
X143442850Y-80244520D01*
X143463893Y-80257132D01*
X143483599Y-80271747D01*
X143501777Y-80288223D01*
X143518253Y-80306401D01*
X143532868Y-80326107D01*
X143545480Y-80347150D01*
X143555970Y-80369329D01*
X143564235Y-80392428D01*
X143570196Y-80416227D01*
X143573796Y-80440495D01*
X143575000Y-80464999D01*
X143575000Y-81115001D01*
X143573796Y-81139505D01*
X143570196Y-81163773D01*
X143564235Y-81187572D01*
X143555970Y-81210671D01*
X143545480Y-81232850D01*
X143532868Y-81253893D01*
X143518253Y-81273599D01*
X143501777Y-81291777D01*
X143483599Y-81308253D01*
X143463893Y-81322868D01*
X143442850Y-81335480D01*
X143420671Y-81345970D01*
X143397572Y-81354235D01*
X143373773Y-81360196D01*
X143349505Y-81363796D01*
X143325001Y-81365000D01*
X142424999Y-81365000D01*
X142400495Y-81363796D01*
X142376227Y-81360196D01*
X142352428Y-81354235D01*
X142329329Y-81345970D01*
X142307150Y-81335480D01*
X142286107Y-81322868D01*
X142266401Y-81308253D01*
X142248223Y-81291777D01*
X142231747Y-81273599D01*
X142217132Y-81253893D01*
X142204520Y-81232850D01*
X142194030Y-81210671D01*
X142185765Y-81187572D01*
X142179804Y-81163773D01*
X142176204Y-81139505D01*
X142175000Y-81115001D01*
X142175000Y-80464999D01*
X142176204Y-80440495D01*
X142179804Y-80416227D01*
X142185765Y-80392428D01*
X142194030Y-80369329D01*
X142204520Y-80347150D01*
X142217132Y-80326107D01*
X142231747Y-80306401D01*
X142248223Y-80288223D01*
X142266401Y-80271747D01*
X142286107Y-80257132D01*
X142307150Y-80244520D01*
X142329329Y-80234030D01*
X142352428Y-80225765D01*
X142376227Y-80219804D01*
X142400495Y-80216204D01*
X142424999Y-80215000D01*
X143325001Y-80215000D01*
X143349505Y-80216204D01*
X143349505Y-80216204D01*
G37*
D11*
X142875000Y-80790000D03*
G04 #@! TD*
M02*
