%TF.GenerationSoftware,KiCad,Pcbnew,(5.0.0)*%
%TF.CreationDate,2018-09-16T11:13:20+01:00*%
%TF.ProjectId,AquaHub,417175614875622E6B696361645F7063,rev?*%
%TF.SameCoordinates,Original*%
%TF.FileFunction,Paste,Top*%
%TF.FilePolarity,Positive*%
%FSLAX46Y46*%
G04 Gerber Fmt 4.6, Leading zero omitted, Abs format (unit mm)*
G04 Created by KiCad (PCBNEW (5.0.0)) date 09/16/18 11:13:20*
%MOMM*%
%LPD*%
G01*
G04 APERTURE LIST*
%ADD10C,0.080000*%
%ADD11C,0.200000*%
%ADD12C,0.150000*%
%ADD13C,1.150000*%
%ADD14R,1.600000X3.000000*%
%ADD15C,1.500000*%
%ADD16R,3.050000X2.750000*%
%ADD17R,2.200000X1.200000*%
%ADD18R,1.500000X0.600000*%
%ADD19R,0.600000X1.550000*%
%ADD20R,1.600000X3.500000*%
%ADD21R,6.000000X6.000000*%
%ADD22O,2.500000X0.900000*%
%ADD23O,0.900000X2.500000*%
%ADD24R,0.900000X0.800000*%
G04 APERTURE END LIST*
D10*
X55880000Y-104140000D02*
X55880000Y-102870000D01*
X66040000Y-104140000D02*
X55880000Y-104140000D01*
X66040000Y-102870000D02*
X66040000Y-104140000D01*
X55880000Y-102870000D02*
X66040000Y-102870000D01*
D11*
X50800000Y-102870000D02*
X47879000Y-102870000D01*
X50800000Y-106045000D02*
X50800000Y-102870000D01*
X146050000Y-115570000D02*
X146050000Y-118110000D01*
X140680000Y-77590000D02*
X140680000Y-75590000D01*
X148180000Y-75590000D02*
X148180000Y-77590000D01*
X148180000Y-77590000D02*
X208180000Y-77590000D01*
X208180000Y-75590000D02*
X148180000Y-75590000D01*
X208180000Y-53590000D02*
X208180000Y-75590000D01*
X38180000Y-53590000D02*
X208180000Y-53590000D01*
X38180000Y-75590000D02*
X38180000Y-53590000D01*
X140680000Y-75590000D02*
X38180000Y-75590000D01*
X48006000Y-118364000D02*
X47879000Y-102870000D01*
X146050000Y-118110000D02*
X48006000Y-118364000D01*
X50800000Y-115570000D02*
X146050000Y-115570000D01*
X50800000Y-106045000D02*
X50800000Y-115570000D01*
X38180000Y-153590000D02*
X208180000Y-153590000D01*
X38180000Y-77590000D02*
X38180000Y-153590000D01*
X140680000Y-77590000D02*
X38180000Y-77590000D01*
X208180000Y-77590000D02*
X208180000Y-153590000D01*
D12*
G36*
X146544505Y-100266204D02*
X146568773Y-100269804D01*
X146592572Y-100275765D01*
X146615671Y-100284030D01*
X146637850Y-100294520D01*
X146658893Y-100307132D01*
X146678599Y-100321747D01*
X146696777Y-100338223D01*
X146713253Y-100356401D01*
X146727868Y-100376107D01*
X146740480Y-100397150D01*
X146750970Y-100419329D01*
X146759235Y-100442428D01*
X146765196Y-100466227D01*
X146768796Y-100490495D01*
X146770000Y-100514999D01*
X146770000Y-101415001D01*
X146768796Y-101439505D01*
X146765196Y-101463773D01*
X146759235Y-101487572D01*
X146750970Y-101510671D01*
X146740480Y-101532850D01*
X146727868Y-101553893D01*
X146713253Y-101573599D01*
X146696777Y-101591777D01*
X146678599Y-101608253D01*
X146658893Y-101622868D01*
X146637850Y-101635480D01*
X146615671Y-101645970D01*
X146592572Y-101654235D01*
X146568773Y-101660196D01*
X146544505Y-101663796D01*
X146520001Y-101665000D01*
X145869999Y-101665000D01*
X145845495Y-101663796D01*
X145821227Y-101660196D01*
X145797428Y-101654235D01*
X145774329Y-101645970D01*
X145752150Y-101635480D01*
X145731107Y-101622868D01*
X145711401Y-101608253D01*
X145693223Y-101591777D01*
X145676747Y-101573599D01*
X145662132Y-101553893D01*
X145649520Y-101532850D01*
X145639030Y-101510671D01*
X145630765Y-101487572D01*
X145624804Y-101463773D01*
X145621204Y-101439505D01*
X145620000Y-101415001D01*
X145620000Y-100514999D01*
X145621204Y-100490495D01*
X145624804Y-100466227D01*
X145630765Y-100442428D01*
X145639030Y-100419329D01*
X145649520Y-100397150D01*
X145662132Y-100376107D01*
X145676747Y-100356401D01*
X145693223Y-100338223D01*
X145711401Y-100321747D01*
X145731107Y-100307132D01*
X145752150Y-100294520D01*
X145774329Y-100284030D01*
X145797428Y-100275765D01*
X145821227Y-100269804D01*
X145845495Y-100266204D01*
X145869999Y-100265000D01*
X146520001Y-100265000D01*
X146544505Y-100266204D01*
X146544505Y-100266204D01*
G37*
D13*
X146195000Y-100965000D03*
D12*
G36*
X144494505Y-100266204D02*
X144518773Y-100269804D01*
X144542572Y-100275765D01*
X144565671Y-100284030D01*
X144587850Y-100294520D01*
X144608893Y-100307132D01*
X144628599Y-100321747D01*
X144646777Y-100338223D01*
X144663253Y-100356401D01*
X144677868Y-100376107D01*
X144690480Y-100397150D01*
X144700970Y-100419329D01*
X144709235Y-100442428D01*
X144715196Y-100466227D01*
X144718796Y-100490495D01*
X144720000Y-100514999D01*
X144720000Y-101415001D01*
X144718796Y-101439505D01*
X144715196Y-101463773D01*
X144709235Y-101487572D01*
X144700970Y-101510671D01*
X144690480Y-101532850D01*
X144677868Y-101553893D01*
X144663253Y-101573599D01*
X144646777Y-101591777D01*
X144628599Y-101608253D01*
X144608893Y-101622868D01*
X144587850Y-101635480D01*
X144565671Y-101645970D01*
X144542572Y-101654235D01*
X144518773Y-101660196D01*
X144494505Y-101663796D01*
X144470001Y-101665000D01*
X143819999Y-101665000D01*
X143795495Y-101663796D01*
X143771227Y-101660196D01*
X143747428Y-101654235D01*
X143724329Y-101645970D01*
X143702150Y-101635480D01*
X143681107Y-101622868D01*
X143661401Y-101608253D01*
X143643223Y-101591777D01*
X143626747Y-101573599D01*
X143612132Y-101553893D01*
X143599520Y-101532850D01*
X143589030Y-101510671D01*
X143580765Y-101487572D01*
X143574804Y-101463773D01*
X143571204Y-101439505D01*
X143570000Y-101415001D01*
X143570000Y-100514999D01*
X143571204Y-100490495D01*
X143574804Y-100466227D01*
X143580765Y-100442428D01*
X143589030Y-100419329D01*
X143599520Y-100397150D01*
X143612132Y-100376107D01*
X143626747Y-100356401D01*
X143643223Y-100338223D01*
X143661401Y-100321747D01*
X143681107Y-100307132D01*
X143702150Y-100294520D01*
X143724329Y-100284030D01*
X143747428Y-100275765D01*
X143771227Y-100269804D01*
X143795495Y-100266204D01*
X143819999Y-100265000D01*
X144470001Y-100265000D01*
X144494505Y-100266204D01*
X144494505Y-100266204D01*
G37*
D13*
X144145000Y-100965000D03*
D12*
G36*
X144494505Y-98361204D02*
X144518773Y-98364804D01*
X144542572Y-98370765D01*
X144565671Y-98379030D01*
X144587850Y-98389520D01*
X144608893Y-98402132D01*
X144628599Y-98416747D01*
X144646777Y-98433223D01*
X144663253Y-98451401D01*
X144677868Y-98471107D01*
X144690480Y-98492150D01*
X144700970Y-98514329D01*
X144709235Y-98537428D01*
X144715196Y-98561227D01*
X144718796Y-98585495D01*
X144720000Y-98609999D01*
X144720000Y-99510001D01*
X144718796Y-99534505D01*
X144715196Y-99558773D01*
X144709235Y-99582572D01*
X144700970Y-99605671D01*
X144690480Y-99627850D01*
X144677868Y-99648893D01*
X144663253Y-99668599D01*
X144646777Y-99686777D01*
X144628599Y-99703253D01*
X144608893Y-99717868D01*
X144587850Y-99730480D01*
X144565671Y-99740970D01*
X144542572Y-99749235D01*
X144518773Y-99755196D01*
X144494505Y-99758796D01*
X144470001Y-99760000D01*
X143819999Y-99760000D01*
X143795495Y-99758796D01*
X143771227Y-99755196D01*
X143747428Y-99749235D01*
X143724329Y-99740970D01*
X143702150Y-99730480D01*
X143681107Y-99717868D01*
X143661401Y-99703253D01*
X143643223Y-99686777D01*
X143626747Y-99668599D01*
X143612132Y-99648893D01*
X143599520Y-99627850D01*
X143589030Y-99605671D01*
X143580765Y-99582572D01*
X143574804Y-99558773D01*
X143571204Y-99534505D01*
X143570000Y-99510001D01*
X143570000Y-98609999D01*
X143571204Y-98585495D01*
X143574804Y-98561227D01*
X143580765Y-98537428D01*
X143589030Y-98514329D01*
X143599520Y-98492150D01*
X143612132Y-98471107D01*
X143626747Y-98451401D01*
X143643223Y-98433223D01*
X143661401Y-98416747D01*
X143681107Y-98402132D01*
X143702150Y-98389520D01*
X143724329Y-98379030D01*
X143747428Y-98370765D01*
X143771227Y-98364804D01*
X143795495Y-98361204D01*
X143819999Y-98360000D01*
X144470001Y-98360000D01*
X144494505Y-98361204D01*
X144494505Y-98361204D01*
G37*
D13*
X144145000Y-99060000D03*
D12*
G36*
X146544505Y-98361204D02*
X146568773Y-98364804D01*
X146592572Y-98370765D01*
X146615671Y-98379030D01*
X146637850Y-98389520D01*
X146658893Y-98402132D01*
X146678599Y-98416747D01*
X146696777Y-98433223D01*
X146713253Y-98451401D01*
X146727868Y-98471107D01*
X146740480Y-98492150D01*
X146750970Y-98514329D01*
X146759235Y-98537428D01*
X146765196Y-98561227D01*
X146768796Y-98585495D01*
X146770000Y-98609999D01*
X146770000Y-99510001D01*
X146768796Y-99534505D01*
X146765196Y-99558773D01*
X146759235Y-99582572D01*
X146750970Y-99605671D01*
X146740480Y-99627850D01*
X146727868Y-99648893D01*
X146713253Y-99668599D01*
X146696777Y-99686777D01*
X146678599Y-99703253D01*
X146658893Y-99717868D01*
X146637850Y-99730480D01*
X146615671Y-99740970D01*
X146592572Y-99749235D01*
X146568773Y-99755196D01*
X146544505Y-99758796D01*
X146520001Y-99760000D01*
X145869999Y-99760000D01*
X145845495Y-99758796D01*
X145821227Y-99755196D01*
X145797428Y-99749235D01*
X145774329Y-99740970D01*
X145752150Y-99730480D01*
X145731107Y-99717868D01*
X145711401Y-99703253D01*
X145693223Y-99686777D01*
X145676747Y-99668599D01*
X145662132Y-99648893D01*
X145649520Y-99627850D01*
X145639030Y-99605671D01*
X145630765Y-99582572D01*
X145624804Y-99558773D01*
X145621204Y-99534505D01*
X145620000Y-99510001D01*
X145620000Y-98609999D01*
X145621204Y-98585495D01*
X145624804Y-98561227D01*
X145630765Y-98537428D01*
X145639030Y-98514329D01*
X145649520Y-98492150D01*
X145662132Y-98471107D01*
X145676747Y-98451401D01*
X145693223Y-98433223D01*
X145711401Y-98416747D01*
X145731107Y-98402132D01*
X145752150Y-98389520D01*
X145774329Y-98379030D01*
X145797428Y-98370765D01*
X145821227Y-98364804D01*
X145845495Y-98361204D01*
X145869999Y-98360000D01*
X146520001Y-98360000D01*
X146544505Y-98361204D01*
X146544505Y-98361204D01*
G37*
D13*
X146195000Y-99060000D03*
D12*
G36*
X146544505Y-96456204D02*
X146568773Y-96459804D01*
X146592572Y-96465765D01*
X146615671Y-96474030D01*
X146637850Y-96484520D01*
X146658893Y-96497132D01*
X146678599Y-96511747D01*
X146696777Y-96528223D01*
X146713253Y-96546401D01*
X146727868Y-96566107D01*
X146740480Y-96587150D01*
X146750970Y-96609329D01*
X146759235Y-96632428D01*
X146765196Y-96656227D01*
X146768796Y-96680495D01*
X146770000Y-96704999D01*
X146770000Y-97605001D01*
X146768796Y-97629505D01*
X146765196Y-97653773D01*
X146759235Y-97677572D01*
X146750970Y-97700671D01*
X146740480Y-97722850D01*
X146727868Y-97743893D01*
X146713253Y-97763599D01*
X146696777Y-97781777D01*
X146678599Y-97798253D01*
X146658893Y-97812868D01*
X146637850Y-97825480D01*
X146615671Y-97835970D01*
X146592572Y-97844235D01*
X146568773Y-97850196D01*
X146544505Y-97853796D01*
X146520001Y-97855000D01*
X145869999Y-97855000D01*
X145845495Y-97853796D01*
X145821227Y-97850196D01*
X145797428Y-97844235D01*
X145774329Y-97835970D01*
X145752150Y-97825480D01*
X145731107Y-97812868D01*
X145711401Y-97798253D01*
X145693223Y-97781777D01*
X145676747Y-97763599D01*
X145662132Y-97743893D01*
X145649520Y-97722850D01*
X145639030Y-97700671D01*
X145630765Y-97677572D01*
X145624804Y-97653773D01*
X145621204Y-97629505D01*
X145620000Y-97605001D01*
X145620000Y-96704999D01*
X145621204Y-96680495D01*
X145624804Y-96656227D01*
X145630765Y-96632428D01*
X145639030Y-96609329D01*
X145649520Y-96587150D01*
X145662132Y-96566107D01*
X145676747Y-96546401D01*
X145693223Y-96528223D01*
X145711401Y-96511747D01*
X145731107Y-96497132D01*
X145752150Y-96484520D01*
X145774329Y-96474030D01*
X145797428Y-96465765D01*
X145821227Y-96459804D01*
X145845495Y-96456204D01*
X145869999Y-96455000D01*
X146520001Y-96455000D01*
X146544505Y-96456204D01*
X146544505Y-96456204D01*
G37*
D13*
X146195000Y-97155000D03*
D12*
G36*
X144494505Y-96456204D02*
X144518773Y-96459804D01*
X144542572Y-96465765D01*
X144565671Y-96474030D01*
X144587850Y-96484520D01*
X144608893Y-96497132D01*
X144628599Y-96511747D01*
X144646777Y-96528223D01*
X144663253Y-96546401D01*
X144677868Y-96566107D01*
X144690480Y-96587150D01*
X144700970Y-96609329D01*
X144709235Y-96632428D01*
X144715196Y-96656227D01*
X144718796Y-96680495D01*
X144720000Y-96704999D01*
X144720000Y-97605001D01*
X144718796Y-97629505D01*
X144715196Y-97653773D01*
X144709235Y-97677572D01*
X144700970Y-97700671D01*
X144690480Y-97722850D01*
X144677868Y-97743893D01*
X144663253Y-97763599D01*
X144646777Y-97781777D01*
X144628599Y-97798253D01*
X144608893Y-97812868D01*
X144587850Y-97825480D01*
X144565671Y-97835970D01*
X144542572Y-97844235D01*
X144518773Y-97850196D01*
X144494505Y-97853796D01*
X144470001Y-97855000D01*
X143819999Y-97855000D01*
X143795495Y-97853796D01*
X143771227Y-97850196D01*
X143747428Y-97844235D01*
X143724329Y-97835970D01*
X143702150Y-97825480D01*
X143681107Y-97812868D01*
X143661401Y-97798253D01*
X143643223Y-97781777D01*
X143626747Y-97763599D01*
X143612132Y-97743893D01*
X143599520Y-97722850D01*
X143589030Y-97700671D01*
X143580765Y-97677572D01*
X143574804Y-97653773D01*
X143571204Y-97629505D01*
X143570000Y-97605001D01*
X143570000Y-96704999D01*
X143571204Y-96680495D01*
X143574804Y-96656227D01*
X143580765Y-96632428D01*
X143589030Y-96609329D01*
X143599520Y-96587150D01*
X143612132Y-96566107D01*
X143626747Y-96546401D01*
X143643223Y-96528223D01*
X143661401Y-96511747D01*
X143681107Y-96497132D01*
X143702150Y-96484520D01*
X143724329Y-96474030D01*
X143747428Y-96465765D01*
X143771227Y-96459804D01*
X143795495Y-96456204D01*
X143819999Y-96455000D01*
X144470001Y-96455000D01*
X144494505Y-96456204D01*
X144494505Y-96456204D01*
G37*
D13*
X144145000Y-97155000D03*
D12*
G36*
X144494505Y-94551204D02*
X144518773Y-94554804D01*
X144542572Y-94560765D01*
X144565671Y-94569030D01*
X144587850Y-94579520D01*
X144608893Y-94592132D01*
X144628599Y-94606747D01*
X144646777Y-94623223D01*
X144663253Y-94641401D01*
X144677868Y-94661107D01*
X144690480Y-94682150D01*
X144700970Y-94704329D01*
X144709235Y-94727428D01*
X144715196Y-94751227D01*
X144718796Y-94775495D01*
X144720000Y-94799999D01*
X144720000Y-95700001D01*
X144718796Y-95724505D01*
X144715196Y-95748773D01*
X144709235Y-95772572D01*
X144700970Y-95795671D01*
X144690480Y-95817850D01*
X144677868Y-95838893D01*
X144663253Y-95858599D01*
X144646777Y-95876777D01*
X144628599Y-95893253D01*
X144608893Y-95907868D01*
X144587850Y-95920480D01*
X144565671Y-95930970D01*
X144542572Y-95939235D01*
X144518773Y-95945196D01*
X144494505Y-95948796D01*
X144470001Y-95950000D01*
X143819999Y-95950000D01*
X143795495Y-95948796D01*
X143771227Y-95945196D01*
X143747428Y-95939235D01*
X143724329Y-95930970D01*
X143702150Y-95920480D01*
X143681107Y-95907868D01*
X143661401Y-95893253D01*
X143643223Y-95876777D01*
X143626747Y-95858599D01*
X143612132Y-95838893D01*
X143599520Y-95817850D01*
X143589030Y-95795671D01*
X143580765Y-95772572D01*
X143574804Y-95748773D01*
X143571204Y-95724505D01*
X143570000Y-95700001D01*
X143570000Y-94799999D01*
X143571204Y-94775495D01*
X143574804Y-94751227D01*
X143580765Y-94727428D01*
X143589030Y-94704329D01*
X143599520Y-94682150D01*
X143612132Y-94661107D01*
X143626747Y-94641401D01*
X143643223Y-94623223D01*
X143661401Y-94606747D01*
X143681107Y-94592132D01*
X143702150Y-94579520D01*
X143724329Y-94569030D01*
X143747428Y-94560765D01*
X143771227Y-94554804D01*
X143795495Y-94551204D01*
X143819999Y-94550000D01*
X144470001Y-94550000D01*
X144494505Y-94551204D01*
X144494505Y-94551204D01*
G37*
D13*
X144145000Y-95250000D03*
D12*
G36*
X146544505Y-94551204D02*
X146568773Y-94554804D01*
X146592572Y-94560765D01*
X146615671Y-94569030D01*
X146637850Y-94579520D01*
X146658893Y-94592132D01*
X146678599Y-94606747D01*
X146696777Y-94623223D01*
X146713253Y-94641401D01*
X146727868Y-94661107D01*
X146740480Y-94682150D01*
X146750970Y-94704329D01*
X146759235Y-94727428D01*
X146765196Y-94751227D01*
X146768796Y-94775495D01*
X146770000Y-94799999D01*
X146770000Y-95700001D01*
X146768796Y-95724505D01*
X146765196Y-95748773D01*
X146759235Y-95772572D01*
X146750970Y-95795671D01*
X146740480Y-95817850D01*
X146727868Y-95838893D01*
X146713253Y-95858599D01*
X146696777Y-95876777D01*
X146678599Y-95893253D01*
X146658893Y-95907868D01*
X146637850Y-95920480D01*
X146615671Y-95930970D01*
X146592572Y-95939235D01*
X146568773Y-95945196D01*
X146544505Y-95948796D01*
X146520001Y-95950000D01*
X145869999Y-95950000D01*
X145845495Y-95948796D01*
X145821227Y-95945196D01*
X145797428Y-95939235D01*
X145774329Y-95930970D01*
X145752150Y-95920480D01*
X145731107Y-95907868D01*
X145711401Y-95893253D01*
X145693223Y-95876777D01*
X145676747Y-95858599D01*
X145662132Y-95838893D01*
X145649520Y-95817850D01*
X145639030Y-95795671D01*
X145630765Y-95772572D01*
X145624804Y-95748773D01*
X145621204Y-95724505D01*
X145620000Y-95700001D01*
X145620000Y-94799999D01*
X145621204Y-94775495D01*
X145624804Y-94751227D01*
X145630765Y-94727428D01*
X145639030Y-94704329D01*
X145649520Y-94682150D01*
X145662132Y-94661107D01*
X145676747Y-94641401D01*
X145693223Y-94623223D01*
X145711401Y-94606747D01*
X145731107Y-94592132D01*
X145752150Y-94579520D01*
X145774329Y-94569030D01*
X145797428Y-94560765D01*
X145821227Y-94554804D01*
X145845495Y-94551204D01*
X145869999Y-94550000D01*
X146520001Y-94550000D01*
X146544505Y-94551204D01*
X146544505Y-94551204D01*
G37*
D13*
X146195000Y-95250000D03*
D12*
G36*
X149574505Y-100266204D02*
X149598773Y-100269804D01*
X149622572Y-100275765D01*
X149645671Y-100284030D01*
X149667850Y-100294520D01*
X149688893Y-100307132D01*
X149708599Y-100321747D01*
X149726777Y-100338223D01*
X149743253Y-100356401D01*
X149757868Y-100376107D01*
X149770480Y-100397150D01*
X149780970Y-100419329D01*
X149789235Y-100442428D01*
X149795196Y-100466227D01*
X149798796Y-100490495D01*
X149800000Y-100514999D01*
X149800000Y-101415001D01*
X149798796Y-101439505D01*
X149795196Y-101463773D01*
X149789235Y-101487572D01*
X149780970Y-101510671D01*
X149770480Y-101532850D01*
X149757868Y-101553893D01*
X149743253Y-101573599D01*
X149726777Y-101591777D01*
X149708599Y-101608253D01*
X149688893Y-101622868D01*
X149667850Y-101635480D01*
X149645671Y-101645970D01*
X149622572Y-101654235D01*
X149598773Y-101660196D01*
X149574505Y-101663796D01*
X149550001Y-101665000D01*
X148899999Y-101665000D01*
X148875495Y-101663796D01*
X148851227Y-101660196D01*
X148827428Y-101654235D01*
X148804329Y-101645970D01*
X148782150Y-101635480D01*
X148761107Y-101622868D01*
X148741401Y-101608253D01*
X148723223Y-101591777D01*
X148706747Y-101573599D01*
X148692132Y-101553893D01*
X148679520Y-101532850D01*
X148669030Y-101510671D01*
X148660765Y-101487572D01*
X148654804Y-101463773D01*
X148651204Y-101439505D01*
X148650000Y-101415001D01*
X148650000Y-100514999D01*
X148651204Y-100490495D01*
X148654804Y-100466227D01*
X148660765Y-100442428D01*
X148669030Y-100419329D01*
X148679520Y-100397150D01*
X148692132Y-100376107D01*
X148706747Y-100356401D01*
X148723223Y-100338223D01*
X148741401Y-100321747D01*
X148761107Y-100307132D01*
X148782150Y-100294520D01*
X148804329Y-100284030D01*
X148827428Y-100275765D01*
X148851227Y-100269804D01*
X148875495Y-100266204D01*
X148899999Y-100265000D01*
X149550001Y-100265000D01*
X149574505Y-100266204D01*
X149574505Y-100266204D01*
G37*
D13*
X149225000Y-100965000D03*
D12*
G36*
X151624505Y-100266204D02*
X151648773Y-100269804D01*
X151672572Y-100275765D01*
X151695671Y-100284030D01*
X151717850Y-100294520D01*
X151738893Y-100307132D01*
X151758599Y-100321747D01*
X151776777Y-100338223D01*
X151793253Y-100356401D01*
X151807868Y-100376107D01*
X151820480Y-100397150D01*
X151830970Y-100419329D01*
X151839235Y-100442428D01*
X151845196Y-100466227D01*
X151848796Y-100490495D01*
X151850000Y-100514999D01*
X151850000Y-101415001D01*
X151848796Y-101439505D01*
X151845196Y-101463773D01*
X151839235Y-101487572D01*
X151830970Y-101510671D01*
X151820480Y-101532850D01*
X151807868Y-101553893D01*
X151793253Y-101573599D01*
X151776777Y-101591777D01*
X151758599Y-101608253D01*
X151738893Y-101622868D01*
X151717850Y-101635480D01*
X151695671Y-101645970D01*
X151672572Y-101654235D01*
X151648773Y-101660196D01*
X151624505Y-101663796D01*
X151600001Y-101665000D01*
X150949999Y-101665000D01*
X150925495Y-101663796D01*
X150901227Y-101660196D01*
X150877428Y-101654235D01*
X150854329Y-101645970D01*
X150832150Y-101635480D01*
X150811107Y-101622868D01*
X150791401Y-101608253D01*
X150773223Y-101591777D01*
X150756747Y-101573599D01*
X150742132Y-101553893D01*
X150729520Y-101532850D01*
X150719030Y-101510671D01*
X150710765Y-101487572D01*
X150704804Y-101463773D01*
X150701204Y-101439505D01*
X150700000Y-101415001D01*
X150700000Y-100514999D01*
X150701204Y-100490495D01*
X150704804Y-100466227D01*
X150710765Y-100442428D01*
X150719030Y-100419329D01*
X150729520Y-100397150D01*
X150742132Y-100376107D01*
X150756747Y-100356401D01*
X150773223Y-100338223D01*
X150791401Y-100321747D01*
X150811107Y-100307132D01*
X150832150Y-100294520D01*
X150854329Y-100284030D01*
X150877428Y-100275765D01*
X150901227Y-100269804D01*
X150925495Y-100266204D01*
X150949999Y-100265000D01*
X151600001Y-100265000D01*
X151624505Y-100266204D01*
X151624505Y-100266204D01*
G37*
D13*
X151275000Y-100965000D03*
D12*
G36*
X151624505Y-98361204D02*
X151648773Y-98364804D01*
X151672572Y-98370765D01*
X151695671Y-98379030D01*
X151717850Y-98389520D01*
X151738893Y-98402132D01*
X151758599Y-98416747D01*
X151776777Y-98433223D01*
X151793253Y-98451401D01*
X151807868Y-98471107D01*
X151820480Y-98492150D01*
X151830970Y-98514329D01*
X151839235Y-98537428D01*
X151845196Y-98561227D01*
X151848796Y-98585495D01*
X151850000Y-98609999D01*
X151850000Y-99510001D01*
X151848796Y-99534505D01*
X151845196Y-99558773D01*
X151839235Y-99582572D01*
X151830970Y-99605671D01*
X151820480Y-99627850D01*
X151807868Y-99648893D01*
X151793253Y-99668599D01*
X151776777Y-99686777D01*
X151758599Y-99703253D01*
X151738893Y-99717868D01*
X151717850Y-99730480D01*
X151695671Y-99740970D01*
X151672572Y-99749235D01*
X151648773Y-99755196D01*
X151624505Y-99758796D01*
X151600001Y-99760000D01*
X150949999Y-99760000D01*
X150925495Y-99758796D01*
X150901227Y-99755196D01*
X150877428Y-99749235D01*
X150854329Y-99740970D01*
X150832150Y-99730480D01*
X150811107Y-99717868D01*
X150791401Y-99703253D01*
X150773223Y-99686777D01*
X150756747Y-99668599D01*
X150742132Y-99648893D01*
X150729520Y-99627850D01*
X150719030Y-99605671D01*
X150710765Y-99582572D01*
X150704804Y-99558773D01*
X150701204Y-99534505D01*
X150700000Y-99510001D01*
X150700000Y-98609999D01*
X150701204Y-98585495D01*
X150704804Y-98561227D01*
X150710765Y-98537428D01*
X150719030Y-98514329D01*
X150729520Y-98492150D01*
X150742132Y-98471107D01*
X150756747Y-98451401D01*
X150773223Y-98433223D01*
X150791401Y-98416747D01*
X150811107Y-98402132D01*
X150832150Y-98389520D01*
X150854329Y-98379030D01*
X150877428Y-98370765D01*
X150901227Y-98364804D01*
X150925495Y-98361204D01*
X150949999Y-98360000D01*
X151600001Y-98360000D01*
X151624505Y-98361204D01*
X151624505Y-98361204D01*
G37*
D13*
X151275000Y-99060000D03*
D12*
G36*
X149574505Y-98361204D02*
X149598773Y-98364804D01*
X149622572Y-98370765D01*
X149645671Y-98379030D01*
X149667850Y-98389520D01*
X149688893Y-98402132D01*
X149708599Y-98416747D01*
X149726777Y-98433223D01*
X149743253Y-98451401D01*
X149757868Y-98471107D01*
X149770480Y-98492150D01*
X149780970Y-98514329D01*
X149789235Y-98537428D01*
X149795196Y-98561227D01*
X149798796Y-98585495D01*
X149800000Y-98609999D01*
X149800000Y-99510001D01*
X149798796Y-99534505D01*
X149795196Y-99558773D01*
X149789235Y-99582572D01*
X149780970Y-99605671D01*
X149770480Y-99627850D01*
X149757868Y-99648893D01*
X149743253Y-99668599D01*
X149726777Y-99686777D01*
X149708599Y-99703253D01*
X149688893Y-99717868D01*
X149667850Y-99730480D01*
X149645671Y-99740970D01*
X149622572Y-99749235D01*
X149598773Y-99755196D01*
X149574505Y-99758796D01*
X149550001Y-99760000D01*
X148899999Y-99760000D01*
X148875495Y-99758796D01*
X148851227Y-99755196D01*
X148827428Y-99749235D01*
X148804329Y-99740970D01*
X148782150Y-99730480D01*
X148761107Y-99717868D01*
X148741401Y-99703253D01*
X148723223Y-99686777D01*
X148706747Y-99668599D01*
X148692132Y-99648893D01*
X148679520Y-99627850D01*
X148669030Y-99605671D01*
X148660765Y-99582572D01*
X148654804Y-99558773D01*
X148651204Y-99534505D01*
X148650000Y-99510001D01*
X148650000Y-98609999D01*
X148651204Y-98585495D01*
X148654804Y-98561227D01*
X148660765Y-98537428D01*
X148669030Y-98514329D01*
X148679520Y-98492150D01*
X148692132Y-98471107D01*
X148706747Y-98451401D01*
X148723223Y-98433223D01*
X148741401Y-98416747D01*
X148761107Y-98402132D01*
X148782150Y-98389520D01*
X148804329Y-98379030D01*
X148827428Y-98370765D01*
X148851227Y-98364804D01*
X148875495Y-98361204D01*
X148899999Y-98360000D01*
X149550001Y-98360000D01*
X149574505Y-98361204D01*
X149574505Y-98361204D01*
G37*
D13*
X149225000Y-99060000D03*
D12*
G36*
X149574505Y-96456204D02*
X149598773Y-96459804D01*
X149622572Y-96465765D01*
X149645671Y-96474030D01*
X149667850Y-96484520D01*
X149688893Y-96497132D01*
X149708599Y-96511747D01*
X149726777Y-96528223D01*
X149743253Y-96546401D01*
X149757868Y-96566107D01*
X149770480Y-96587150D01*
X149780970Y-96609329D01*
X149789235Y-96632428D01*
X149795196Y-96656227D01*
X149798796Y-96680495D01*
X149800000Y-96704999D01*
X149800000Y-97605001D01*
X149798796Y-97629505D01*
X149795196Y-97653773D01*
X149789235Y-97677572D01*
X149780970Y-97700671D01*
X149770480Y-97722850D01*
X149757868Y-97743893D01*
X149743253Y-97763599D01*
X149726777Y-97781777D01*
X149708599Y-97798253D01*
X149688893Y-97812868D01*
X149667850Y-97825480D01*
X149645671Y-97835970D01*
X149622572Y-97844235D01*
X149598773Y-97850196D01*
X149574505Y-97853796D01*
X149550001Y-97855000D01*
X148899999Y-97855000D01*
X148875495Y-97853796D01*
X148851227Y-97850196D01*
X148827428Y-97844235D01*
X148804329Y-97835970D01*
X148782150Y-97825480D01*
X148761107Y-97812868D01*
X148741401Y-97798253D01*
X148723223Y-97781777D01*
X148706747Y-97763599D01*
X148692132Y-97743893D01*
X148679520Y-97722850D01*
X148669030Y-97700671D01*
X148660765Y-97677572D01*
X148654804Y-97653773D01*
X148651204Y-97629505D01*
X148650000Y-97605001D01*
X148650000Y-96704999D01*
X148651204Y-96680495D01*
X148654804Y-96656227D01*
X148660765Y-96632428D01*
X148669030Y-96609329D01*
X148679520Y-96587150D01*
X148692132Y-96566107D01*
X148706747Y-96546401D01*
X148723223Y-96528223D01*
X148741401Y-96511747D01*
X148761107Y-96497132D01*
X148782150Y-96484520D01*
X148804329Y-96474030D01*
X148827428Y-96465765D01*
X148851227Y-96459804D01*
X148875495Y-96456204D01*
X148899999Y-96455000D01*
X149550001Y-96455000D01*
X149574505Y-96456204D01*
X149574505Y-96456204D01*
G37*
D13*
X149225000Y-97155000D03*
D12*
G36*
X151624505Y-96456204D02*
X151648773Y-96459804D01*
X151672572Y-96465765D01*
X151695671Y-96474030D01*
X151717850Y-96484520D01*
X151738893Y-96497132D01*
X151758599Y-96511747D01*
X151776777Y-96528223D01*
X151793253Y-96546401D01*
X151807868Y-96566107D01*
X151820480Y-96587150D01*
X151830970Y-96609329D01*
X151839235Y-96632428D01*
X151845196Y-96656227D01*
X151848796Y-96680495D01*
X151850000Y-96704999D01*
X151850000Y-97605001D01*
X151848796Y-97629505D01*
X151845196Y-97653773D01*
X151839235Y-97677572D01*
X151830970Y-97700671D01*
X151820480Y-97722850D01*
X151807868Y-97743893D01*
X151793253Y-97763599D01*
X151776777Y-97781777D01*
X151758599Y-97798253D01*
X151738893Y-97812868D01*
X151717850Y-97825480D01*
X151695671Y-97835970D01*
X151672572Y-97844235D01*
X151648773Y-97850196D01*
X151624505Y-97853796D01*
X151600001Y-97855000D01*
X150949999Y-97855000D01*
X150925495Y-97853796D01*
X150901227Y-97850196D01*
X150877428Y-97844235D01*
X150854329Y-97835970D01*
X150832150Y-97825480D01*
X150811107Y-97812868D01*
X150791401Y-97798253D01*
X150773223Y-97781777D01*
X150756747Y-97763599D01*
X150742132Y-97743893D01*
X150729520Y-97722850D01*
X150719030Y-97700671D01*
X150710765Y-97677572D01*
X150704804Y-97653773D01*
X150701204Y-97629505D01*
X150700000Y-97605001D01*
X150700000Y-96704999D01*
X150701204Y-96680495D01*
X150704804Y-96656227D01*
X150710765Y-96632428D01*
X150719030Y-96609329D01*
X150729520Y-96587150D01*
X150742132Y-96566107D01*
X150756747Y-96546401D01*
X150773223Y-96528223D01*
X150791401Y-96511747D01*
X150811107Y-96497132D01*
X150832150Y-96484520D01*
X150854329Y-96474030D01*
X150877428Y-96465765D01*
X150901227Y-96459804D01*
X150925495Y-96456204D01*
X150949999Y-96455000D01*
X151600001Y-96455000D01*
X151624505Y-96456204D01*
X151624505Y-96456204D01*
G37*
D13*
X151275000Y-97155000D03*
D12*
G36*
X151624505Y-94551204D02*
X151648773Y-94554804D01*
X151672572Y-94560765D01*
X151695671Y-94569030D01*
X151717850Y-94579520D01*
X151738893Y-94592132D01*
X151758599Y-94606747D01*
X151776777Y-94623223D01*
X151793253Y-94641401D01*
X151807868Y-94661107D01*
X151820480Y-94682150D01*
X151830970Y-94704329D01*
X151839235Y-94727428D01*
X151845196Y-94751227D01*
X151848796Y-94775495D01*
X151850000Y-94799999D01*
X151850000Y-95700001D01*
X151848796Y-95724505D01*
X151845196Y-95748773D01*
X151839235Y-95772572D01*
X151830970Y-95795671D01*
X151820480Y-95817850D01*
X151807868Y-95838893D01*
X151793253Y-95858599D01*
X151776777Y-95876777D01*
X151758599Y-95893253D01*
X151738893Y-95907868D01*
X151717850Y-95920480D01*
X151695671Y-95930970D01*
X151672572Y-95939235D01*
X151648773Y-95945196D01*
X151624505Y-95948796D01*
X151600001Y-95950000D01*
X150949999Y-95950000D01*
X150925495Y-95948796D01*
X150901227Y-95945196D01*
X150877428Y-95939235D01*
X150854329Y-95930970D01*
X150832150Y-95920480D01*
X150811107Y-95907868D01*
X150791401Y-95893253D01*
X150773223Y-95876777D01*
X150756747Y-95858599D01*
X150742132Y-95838893D01*
X150729520Y-95817850D01*
X150719030Y-95795671D01*
X150710765Y-95772572D01*
X150704804Y-95748773D01*
X150701204Y-95724505D01*
X150700000Y-95700001D01*
X150700000Y-94799999D01*
X150701204Y-94775495D01*
X150704804Y-94751227D01*
X150710765Y-94727428D01*
X150719030Y-94704329D01*
X150729520Y-94682150D01*
X150742132Y-94661107D01*
X150756747Y-94641401D01*
X150773223Y-94623223D01*
X150791401Y-94606747D01*
X150811107Y-94592132D01*
X150832150Y-94579520D01*
X150854329Y-94569030D01*
X150877428Y-94560765D01*
X150901227Y-94554804D01*
X150925495Y-94551204D01*
X150949999Y-94550000D01*
X151600001Y-94550000D01*
X151624505Y-94551204D01*
X151624505Y-94551204D01*
G37*
D13*
X151275000Y-95250000D03*
D12*
G36*
X149574505Y-94551204D02*
X149598773Y-94554804D01*
X149622572Y-94560765D01*
X149645671Y-94569030D01*
X149667850Y-94579520D01*
X149688893Y-94592132D01*
X149708599Y-94606747D01*
X149726777Y-94623223D01*
X149743253Y-94641401D01*
X149757868Y-94661107D01*
X149770480Y-94682150D01*
X149780970Y-94704329D01*
X149789235Y-94727428D01*
X149795196Y-94751227D01*
X149798796Y-94775495D01*
X149800000Y-94799999D01*
X149800000Y-95700001D01*
X149798796Y-95724505D01*
X149795196Y-95748773D01*
X149789235Y-95772572D01*
X149780970Y-95795671D01*
X149770480Y-95817850D01*
X149757868Y-95838893D01*
X149743253Y-95858599D01*
X149726777Y-95876777D01*
X149708599Y-95893253D01*
X149688893Y-95907868D01*
X149667850Y-95920480D01*
X149645671Y-95930970D01*
X149622572Y-95939235D01*
X149598773Y-95945196D01*
X149574505Y-95948796D01*
X149550001Y-95950000D01*
X148899999Y-95950000D01*
X148875495Y-95948796D01*
X148851227Y-95945196D01*
X148827428Y-95939235D01*
X148804329Y-95930970D01*
X148782150Y-95920480D01*
X148761107Y-95907868D01*
X148741401Y-95893253D01*
X148723223Y-95876777D01*
X148706747Y-95858599D01*
X148692132Y-95838893D01*
X148679520Y-95817850D01*
X148669030Y-95795671D01*
X148660765Y-95772572D01*
X148654804Y-95748773D01*
X148651204Y-95724505D01*
X148650000Y-95700001D01*
X148650000Y-94799999D01*
X148651204Y-94775495D01*
X148654804Y-94751227D01*
X148660765Y-94727428D01*
X148669030Y-94704329D01*
X148679520Y-94682150D01*
X148692132Y-94661107D01*
X148706747Y-94641401D01*
X148723223Y-94623223D01*
X148741401Y-94606747D01*
X148761107Y-94592132D01*
X148782150Y-94579520D01*
X148804329Y-94569030D01*
X148827428Y-94560765D01*
X148851227Y-94554804D01*
X148875495Y-94551204D01*
X148899999Y-94550000D01*
X149550001Y-94550000D01*
X149574505Y-94551204D01*
X149574505Y-94551204D01*
G37*
D13*
X149225000Y-95250000D03*
D14*
X116840000Y-86405000D03*
X116840000Y-90805000D03*
D12*
G36*
X162620504Y-79059204D02*
X162644773Y-79062804D01*
X162668571Y-79068765D01*
X162691671Y-79077030D01*
X162713849Y-79087520D01*
X162734893Y-79100133D01*
X162754598Y-79114747D01*
X162772777Y-79131223D01*
X162789253Y-79149402D01*
X162803867Y-79169107D01*
X162816480Y-79190151D01*
X162826970Y-79212329D01*
X162835235Y-79235429D01*
X162841196Y-79259227D01*
X162844796Y-79283496D01*
X162846000Y-79308000D01*
X162846000Y-80308000D01*
X162844796Y-80332504D01*
X162841196Y-80356773D01*
X162835235Y-80380571D01*
X162826970Y-80403671D01*
X162816480Y-80425849D01*
X162803867Y-80446893D01*
X162789253Y-80466598D01*
X162772777Y-80484777D01*
X162754598Y-80501253D01*
X162734893Y-80515867D01*
X162713849Y-80528480D01*
X162691671Y-80538970D01*
X162668571Y-80547235D01*
X162644773Y-80553196D01*
X162620504Y-80556796D01*
X162596000Y-80558000D01*
X160746000Y-80558000D01*
X160721496Y-80556796D01*
X160697227Y-80553196D01*
X160673429Y-80547235D01*
X160650329Y-80538970D01*
X160628151Y-80528480D01*
X160607107Y-80515867D01*
X160587402Y-80501253D01*
X160569223Y-80484777D01*
X160552747Y-80466598D01*
X160538133Y-80446893D01*
X160525520Y-80425849D01*
X160515030Y-80403671D01*
X160506765Y-80380571D01*
X160500804Y-80356773D01*
X160497204Y-80332504D01*
X160496000Y-80308000D01*
X160496000Y-79308000D01*
X160497204Y-79283496D01*
X160500804Y-79259227D01*
X160506765Y-79235429D01*
X160515030Y-79212329D01*
X160525520Y-79190151D01*
X160538133Y-79169107D01*
X160552747Y-79149402D01*
X160569223Y-79131223D01*
X160587402Y-79114747D01*
X160607107Y-79100133D01*
X160628151Y-79087520D01*
X160650329Y-79077030D01*
X160673429Y-79068765D01*
X160697227Y-79062804D01*
X160721496Y-79059204D01*
X160746000Y-79058000D01*
X162596000Y-79058000D01*
X162620504Y-79059204D01*
X162620504Y-79059204D01*
G37*
D15*
X161671000Y-79808000D03*
D12*
G36*
X162620504Y-82309204D02*
X162644773Y-82312804D01*
X162668571Y-82318765D01*
X162691671Y-82327030D01*
X162713849Y-82337520D01*
X162734893Y-82350133D01*
X162754598Y-82364747D01*
X162772777Y-82381223D01*
X162789253Y-82399402D01*
X162803867Y-82419107D01*
X162816480Y-82440151D01*
X162826970Y-82462329D01*
X162835235Y-82485429D01*
X162841196Y-82509227D01*
X162844796Y-82533496D01*
X162846000Y-82558000D01*
X162846000Y-83558000D01*
X162844796Y-83582504D01*
X162841196Y-83606773D01*
X162835235Y-83630571D01*
X162826970Y-83653671D01*
X162816480Y-83675849D01*
X162803867Y-83696893D01*
X162789253Y-83716598D01*
X162772777Y-83734777D01*
X162754598Y-83751253D01*
X162734893Y-83765867D01*
X162713849Y-83778480D01*
X162691671Y-83788970D01*
X162668571Y-83797235D01*
X162644773Y-83803196D01*
X162620504Y-83806796D01*
X162596000Y-83808000D01*
X160746000Y-83808000D01*
X160721496Y-83806796D01*
X160697227Y-83803196D01*
X160673429Y-83797235D01*
X160650329Y-83788970D01*
X160628151Y-83778480D01*
X160607107Y-83765867D01*
X160587402Y-83751253D01*
X160569223Y-83734777D01*
X160552747Y-83716598D01*
X160538133Y-83696893D01*
X160525520Y-83675849D01*
X160515030Y-83653671D01*
X160506765Y-83630571D01*
X160500804Y-83606773D01*
X160497204Y-83582504D01*
X160496000Y-83558000D01*
X160496000Y-82558000D01*
X160497204Y-82533496D01*
X160500804Y-82509227D01*
X160506765Y-82485429D01*
X160515030Y-82462329D01*
X160525520Y-82440151D01*
X160538133Y-82419107D01*
X160552747Y-82399402D01*
X160569223Y-82381223D01*
X160587402Y-82364747D01*
X160607107Y-82350133D01*
X160628151Y-82337520D01*
X160650329Y-82327030D01*
X160673429Y-82318765D01*
X160697227Y-82312804D01*
X160721496Y-82309204D01*
X160746000Y-82308000D01*
X162596000Y-82308000D01*
X162620504Y-82309204D01*
X162620504Y-82309204D01*
G37*
D15*
X161671000Y-83058000D03*
D16*
X107495000Y-101220000D03*
X110845000Y-98170000D03*
X107495000Y-98170000D03*
X110845000Y-101220000D03*
D17*
X102870000Y-101975000D03*
X102870000Y-99695000D03*
X102870000Y-97415000D03*
D18*
X172720000Y-59055000D03*
X172720000Y-60325000D03*
X172720000Y-61595000D03*
X172720000Y-62865000D03*
X172720000Y-64135000D03*
X172720000Y-65405000D03*
X172720000Y-66675000D03*
X172720000Y-67945000D03*
X163420000Y-67945000D03*
X163420000Y-66675000D03*
X163420000Y-65405000D03*
X163420000Y-64135000D03*
X163420000Y-62865000D03*
X163420000Y-61595000D03*
X163420000Y-60325000D03*
X163420000Y-59055000D03*
D12*
G36*
X192627505Y-120713204D02*
X192651773Y-120716804D01*
X192675572Y-120722765D01*
X192698671Y-120731030D01*
X192720850Y-120741520D01*
X192741893Y-120754132D01*
X192761599Y-120768747D01*
X192779777Y-120785223D01*
X192796253Y-120803401D01*
X192810868Y-120823107D01*
X192823480Y-120844150D01*
X192833970Y-120866329D01*
X192842235Y-120889428D01*
X192848196Y-120913227D01*
X192851796Y-120937495D01*
X192853000Y-120961999D01*
X192853000Y-121862001D01*
X192851796Y-121886505D01*
X192848196Y-121910773D01*
X192842235Y-121934572D01*
X192833970Y-121957671D01*
X192823480Y-121979850D01*
X192810868Y-122000893D01*
X192796253Y-122020599D01*
X192779777Y-122038777D01*
X192761599Y-122055253D01*
X192741893Y-122069868D01*
X192720850Y-122082480D01*
X192698671Y-122092970D01*
X192675572Y-122101235D01*
X192651773Y-122107196D01*
X192627505Y-122110796D01*
X192603001Y-122112000D01*
X191952999Y-122112000D01*
X191928495Y-122110796D01*
X191904227Y-122107196D01*
X191880428Y-122101235D01*
X191857329Y-122092970D01*
X191835150Y-122082480D01*
X191814107Y-122069868D01*
X191794401Y-122055253D01*
X191776223Y-122038777D01*
X191759747Y-122020599D01*
X191745132Y-122000893D01*
X191732520Y-121979850D01*
X191722030Y-121957671D01*
X191713765Y-121934572D01*
X191707804Y-121910773D01*
X191704204Y-121886505D01*
X191703000Y-121862001D01*
X191703000Y-120961999D01*
X191704204Y-120937495D01*
X191707804Y-120913227D01*
X191713765Y-120889428D01*
X191722030Y-120866329D01*
X191732520Y-120844150D01*
X191745132Y-120823107D01*
X191759747Y-120803401D01*
X191776223Y-120785223D01*
X191794401Y-120768747D01*
X191814107Y-120754132D01*
X191835150Y-120741520D01*
X191857329Y-120731030D01*
X191880428Y-120722765D01*
X191904227Y-120716804D01*
X191928495Y-120713204D01*
X191952999Y-120712000D01*
X192603001Y-120712000D01*
X192627505Y-120713204D01*
X192627505Y-120713204D01*
G37*
D13*
X192278000Y-121412000D03*
D12*
G36*
X194677505Y-120713204D02*
X194701773Y-120716804D01*
X194725572Y-120722765D01*
X194748671Y-120731030D01*
X194770850Y-120741520D01*
X194791893Y-120754132D01*
X194811599Y-120768747D01*
X194829777Y-120785223D01*
X194846253Y-120803401D01*
X194860868Y-120823107D01*
X194873480Y-120844150D01*
X194883970Y-120866329D01*
X194892235Y-120889428D01*
X194898196Y-120913227D01*
X194901796Y-120937495D01*
X194903000Y-120961999D01*
X194903000Y-121862001D01*
X194901796Y-121886505D01*
X194898196Y-121910773D01*
X194892235Y-121934572D01*
X194883970Y-121957671D01*
X194873480Y-121979850D01*
X194860868Y-122000893D01*
X194846253Y-122020599D01*
X194829777Y-122038777D01*
X194811599Y-122055253D01*
X194791893Y-122069868D01*
X194770850Y-122082480D01*
X194748671Y-122092970D01*
X194725572Y-122101235D01*
X194701773Y-122107196D01*
X194677505Y-122110796D01*
X194653001Y-122112000D01*
X194002999Y-122112000D01*
X193978495Y-122110796D01*
X193954227Y-122107196D01*
X193930428Y-122101235D01*
X193907329Y-122092970D01*
X193885150Y-122082480D01*
X193864107Y-122069868D01*
X193844401Y-122055253D01*
X193826223Y-122038777D01*
X193809747Y-122020599D01*
X193795132Y-122000893D01*
X193782520Y-121979850D01*
X193772030Y-121957671D01*
X193763765Y-121934572D01*
X193757804Y-121910773D01*
X193754204Y-121886505D01*
X193753000Y-121862001D01*
X193753000Y-120961999D01*
X193754204Y-120937495D01*
X193757804Y-120913227D01*
X193763765Y-120889428D01*
X193772030Y-120866329D01*
X193782520Y-120844150D01*
X193795132Y-120823107D01*
X193809747Y-120803401D01*
X193826223Y-120785223D01*
X193844401Y-120768747D01*
X193864107Y-120754132D01*
X193885150Y-120741520D01*
X193907329Y-120731030D01*
X193930428Y-120722765D01*
X193954227Y-120716804D01*
X193978495Y-120713204D01*
X194002999Y-120712000D01*
X194653001Y-120712000D01*
X194677505Y-120713204D01*
X194677505Y-120713204D01*
G37*
D13*
X194328000Y-121412000D03*
D19*
X153932979Y-117809195D03*
X155202979Y-117809195D03*
X156472979Y-117809195D03*
X157742979Y-117809195D03*
X157742979Y-123209195D03*
X156472979Y-123209195D03*
X155202979Y-123209195D03*
X153932979Y-123209195D03*
D18*
X159004000Y-100330000D03*
X159004000Y-99060000D03*
X159004000Y-97790000D03*
X159004000Y-96520000D03*
X159004000Y-95250000D03*
X159004000Y-93980000D03*
X159004000Y-92710000D03*
X159004000Y-91440000D03*
X164404000Y-91440000D03*
X164404000Y-92710000D03*
X164404000Y-93980000D03*
X164404000Y-95250000D03*
X164404000Y-96520000D03*
X164404000Y-97790000D03*
X164404000Y-99060000D03*
X164404000Y-100330000D03*
D12*
G36*
X158843505Y-80434204D02*
X158867773Y-80437804D01*
X158891572Y-80443765D01*
X158914671Y-80452030D01*
X158936850Y-80462520D01*
X158957893Y-80475132D01*
X158977599Y-80489747D01*
X158995777Y-80506223D01*
X159012253Y-80524401D01*
X159026868Y-80544107D01*
X159039480Y-80565150D01*
X159049970Y-80587329D01*
X159058235Y-80610428D01*
X159064196Y-80634227D01*
X159067796Y-80658495D01*
X159069000Y-80682999D01*
X159069000Y-81333001D01*
X159067796Y-81357505D01*
X159064196Y-81381773D01*
X159058235Y-81405572D01*
X159049970Y-81428671D01*
X159039480Y-81450850D01*
X159026868Y-81471893D01*
X159012253Y-81491599D01*
X158995777Y-81509777D01*
X158977599Y-81526253D01*
X158957893Y-81540868D01*
X158936850Y-81553480D01*
X158914671Y-81563970D01*
X158891572Y-81572235D01*
X158867773Y-81578196D01*
X158843505Y-81581796D01*
X158819001Y-81583000D01*
X157918999Y-81583000D01*
X157894495Y-81581796D01*
X157870227Y-81578196D01*
X157846428Y-81572235D01*
X157823329Y-81563970D01*
X157801150Y-81553480D01*
X157780107Y-81540868D01*
X157760401Y-81526253D01*
X157742223Y-81509777D01*
X157725747Y-81491599D01*
X157711132Y-81471893D01*
X157698520Y-81450850D01*
X157688030Y-81428671D01*
X157679765Y-81405572D01*
X157673804Y-81381773D01*
X157670204Y-81357505D01*
X157669000Y-81333001D01*
X157669000Y-80682999D01*
X157670204Y-80658495D01*
X157673804Y-80634227D01*
X157679765Y-80610428D01*
X157688030Y-80587329D01*
X157698520Y-80565150D01*
X157711132Y-80544107D01*
X157725747Y-80524401D01*
X157742223Y-80506223D01*
X157760401Y-80489747D01*
X157780107Y-80475132D01*
X157801150Y-80462520D01*
X157823329Y-80452030D01*
X157846428Y-80443765D01*
X157870227Y-80437804D01*
X157894495Y-80434204D01*
X157918999Y-80433000D01*
X158819001Y-80433000D01*
X158843505Y-80434204D01*
X158843505Y-80434204D01*
G37*
D13*
X158369000Y-81008000D03*
D12*
G36*
X158843505Y-82484204D02*
X158867773Y-82487804D01*
X158891572Y-82493765D01*
X158914671Y-82502030D01*
X158936850Y-82512520D01*
X158957893Y-82525132D01*
X158977599Y-82539747D01*
X158995777Y-82556223D01*
X159012253Y-82574401D01*
X159026868Y-82594107D01*
X159039480Y-82615150D01*
X159049970Y-82637329D01*
X159058235Y-82660428D01*
X159064196Y-82684227D01*
X159067796Y-82708495D01*
X159069000Y-82732999D01*
X159069000Y-83383001D01*
X159067796Y-83407505D01*
X159064196Y-83431773D01*
X159058235Y-83455572D01*
X159049970Y-83478671D01*
X159039480Y-83500850D01*
X159026868Y-83521893D01*
X159012253Y-83541599D01*
X158995777Y-83559777D01*
X158977599Y-83576253D01*
X158957893Y-83590868D01*
X158936850Y-83603480D01*
X158914671Y-83613970D01*
X158891572Y-83622235D01*
X158867773Y-83628196D01*
X158843505Y-83631796D01*
X158819001Y-83633000D01*
X157918999Y-83633000D01*
X157894495Y-83631796D01*
X157870227Y-83628196D01*
X157846428Y-83622235D01*
X157823329Y-83613970D01*
X157801150Y-83603480D01*
X157780107Y-83590868D01*
X157760401Y-83576253D01*
X157742223Y-83559777D01*
X157725747Y-83541599D01*
X157711132Y-83521893D01*
X157698520Y-83500850D01*
X157688030Y-83478671D01*
X157679765Y-83455572D01*
X157673804Y-83431773D01*
X157670204Y-83407505D01*
X157669000Y-83383001D01*
X157669000Y-82732999D01*
X157670204Y-82708495D01*
X157673804Y-82684227D01*
X157679765Y-82660428D01*
X157688030Y-82637329D01*
X157698520Y-82615150D01*
X157711132Y-82594107D01*
X157725747Y-82574401D01*
X157742223Y-82556223D01*
X157760401Y-82539747D01*
X157780107Y-82525132D01*
X157801150Y-82512520D01*
X157823329Y-82502030D01*
X157846428Y-82493765D01*
X157870227Y-82487804D01*
X157894495Y-82484204D01*
X157918999Y-82483000D01*
X158819001Y-82483000D01*
X158843505Y-82484204D01*
X158843505Y-82484204D01*
G37*
D13*
X158369000Y-83058000D03*
D12*
G36*
X154763505Y-108521204D02*
X154787773Y-108524804D01*
X154811572Y-108530765D01*
X154834671Y-108539030D01*
X154856850Y-108549520D01*
X154877893Y-108562132D01*
X154897599Y-108576747D01*
X154915777Y-108593223D01*
X154932253Y-108611401D01*
X154946868Y-108631107D01*
X154959480Y-108652150D01*
X154969970Y-108674329D01*
X154978235Y-108697428D01*
X154984196Y-108721227D01*
X154987796Y-108745495D01*
X154989000Y-108769999D01*
X154989000Y-109670001D01*
X154987796Y-109694505D01*
X154984196Y-109718773D01*
X154978235Y-109742572D01*
X154969970Y-109765671D01*
X154959480Y-109787850D01*
X154946868Y-109808893D01*
X154932253Y-109828599D01*
X154915777Y-109846777D01*
X154897599Y-109863253D01*
X154877893Y-109877868D01*
X154856850Y-109890480D01*
X154834671Y-109900970D01*
X154811572Y-109909235D01*
X154787773Y-109915196D01*
X154763505Y-109918796D01*
X154739001Y-109920000D01*
X154088999Y-109920000D01*
X154064495Y-109918796D01*
X154040227Y-109915196D01*
X154016428Y-109909235D01*
X153993329Y-109900970D01*
X153971150Y-109890480D01*
X153950107Y-109877868D01*
X153930401Y-109863253D01*
X153912223Y-109846777D01*
X153895747Y-109828599D01*
X153881132Y-109808893D01*
X153868520Y-109787850D01*
X153858030Y-109765671D01*
X153849765Y-109742572D01*
X153843804Y-109718773D01*
X153840204Y-109694505D01*
X153839000Y-109670001D01*
X153839000Y-108769999D01*
X153840204Y-108745495D01*
X153843804Y-108721227D01*
X153849765Y-108697428D01*
X153858030Y-108674329D01*
X153868520Y-108652150D01*
X153881132Y-108631107D01*
X153895747Y-108611401D01*
X153912223Y-108593223D01*
X153930401Y-108576747D01*
X153950107Y-108562132D01*
X153971150Y-108549520D01*
X153993329Y-108539030D01*
X154016428Y-108530765D01*
X154040227Y-108524804D01*
X154064495Y-108521204D01*
X154088999Y-108520000D01*
X154739001Y-108520000D01*
X154763505Y-108521204D01*
X154763505Y-108521204D01*
G37*
D13*
X154414000Y-109220000D03*
D12*
G36*
X156813505Y-108521204D02*
X156837773Y-108524804D01*
X156861572Y-108530765D01*
X156884671Y-108539030D01*
X156906850Y-108549520D01*
X156927893Y-108562132D01*
X156947599Y-108576747D01*
X156965777Y-108593223D01*
X156982253Y-108611401D01*
X156996868Y-108631107D01*
X157009480Y-108652150D01*
X157019970Y-108674329D01*
X157028235Y-108697428D01*
X157034196Y-108721227D01*
X157037796Y-108745495D01*
X157039000Y-108769999D01*
X157039000Y-109670001D01*
X157037796Y-109694505D01*
X157034196Y-109718773D01*
X157028235Y-109742572D01*
X157019970Y-109765671D01*
X157009480Y-109787850D01*
X156996868Y-109808893D01*
X156982253Y-109828599D01*
X156965777Y-109846777D01*
X156947599Y-109863253D01*
X156927893Y-109877868D01*
X156906850Y-109890480D01*
X156884671Y-109900970D01*
X156861572Y-109909235D01*
X156837773Y-109915196D01*
X156813505Y-109918796D01*
X156789001Y-109920000D01*
X156138999Y-109920000D01*
X156114495Y-109918796D01*
X156090227Y-109915196D01*
X156066428Y-109909235D01*
X156043329Y-109900970D01*
X156021150Y-109890480D01*
X156000107Y-109877868D01*
X155980401Y-109863253D01*
X155962223Y-109846777D01*
X155945747Y-109828599D01*
X155931132Y-109808893D01*
X155918520Y-109787850D01*
X155908030Y-109765671D01*
X155899765Y-109742572D01*
X155893804Y-109718773D01*
X155890204Y-109694505D01*
X155889000Y-109670001D01*
X155889000Y-108769999D01*
X155890204Y-108745495D01*
X155893804Y-108721227D01*
X155899765Y-108697428D01*
X155908030Y-108674329D01*
X155918520Y-108652150D01*
X155931132Y-108631107D01*
X155945747Y-108611401D01*
X155962223Y-108593223D01*
X155980401Y-108576747D01*
X156000107Y-108562132D01*
X156021150Y-108549520D01*
X156043329Y-108539030D01*
X156066428Y-108530765D01*
X156090227Y-108524804D01*
X156114495Y-108521204D01*
X156138999Y-108520000D01*
X156789001Y-108520000D01*
X156813505Y-108521204D01*
X156813505Y-108521204D01*
G37*
D13*
X156464000Y-109220000D03*
D12*
G36*
X156813505Y-113601204D02*
X156837773Y-113604804D01*
X156861572Y-113610765D01*
X156884671Y-113619030D01*
X156906850Y-113629520D01*
X156927893Y-113642132D01*
X156947599Y-113656747D01*
X156965777Y-113673223D01*
X156982253Y-113691401D01*
X156996868Y-113711107D01*
X157009480Y-113732150D01*
X157019970Y-113754329D01*
X157028235Y-113777428D01*
X157034196Y-113801227D01*
X157037796Y-113825495D01*
X157039000Y-113849999D01*
X157039000Y-114750001D01*
X157037796Y-114774505D01*
X157034196Y-114798773D01*
X157028235Y-114822572D01*
X157019970Y-114845671D01*
X157009480Y-114867850D01*
X156996868Y-114888893D01*
X156982253Y-114908599D01*
X156965777Y-114926777D01*
X156947599Y-114943253D01*
X156927893Y-114957868D01*
X156906850Y-114970480D01*
X156884671Y-114980970D01*
X156861572Y-114989235D01*
X156837773Y-114995196D01*
X156813505Y-114998796D01*
X156789001Y-115000000D01*
X156138999Y-115000000D01*
X156114495Y-114998796D01*
X156090227Y-114995196D01*
X156066428Y-114989235D01*
X156043329Y-114980970D01*
X156021150Y-114970480D01*
X156000107Y-114957868D01*
X155980401Y-114943253D01*
X155962223Y-114926777D01*
X155945747Y-114908599D01*
X155931132Y-114888893D01*
X155918520Y-114867850D01*
X155908030Y-114845671D01*
X155899765Y-114822572D01*
X155893804Y-114798773D01*
X155890204Y-114774505D01*
X155889000Y-114750001D01*
X155889000Y-113849999D01*
X155890204Y-113825495D01*
X155893804Y-113801227D01*
X155899765Y-113777428D01*
X155908030Y-113754329D01*
X155918520Y-113732150D01*
X155931132Y-113711107D01*
X155945747Y-113691401D01*
X155962223Y-113673223D01*
X155980401Y-113656747D01*
X156000107Y-113642132D01*
X156021150Y-113629520D01*
X156043329Y-113619030D01*
X156066428Y-113610765D01*
X156090227Y-113604804D01*
X156114495Y-113601204D01*
X156138999Y-113600000D01*
X156789001Y-113600000D01*
X156813505Y-113601204D01*
X156813505Y-113601204D01*
G37*
D13*
X156464000Y-114300000D03*
D12*
G36*
X154763505Y-113601204D02*
X154787773Y-113604804D01*
X154811572Y-113610765D01*
X154834671Y-113619030D01*
X154856850Y-113629520D01*
X154877893Y-113642132D01*
X154897599Y-113656747D01*
X154915777Y-113673223D01*
X154932253Y-113691401D01*
X154946868Y-113711107D01*
X154959480Y-113732150D01*
X154969970Y-113754329D01*
X154978235Y-113777428D01*
X154984196Y-113801227D01*
X154987796Y-113825495D01*
X154989000Y-113849999D01*
X154989000Y-114750001D01*
X154987796Y-114774505D01*
X154984196Y-114798773D01*
X154978235Y-114822572D01*
X154969970Y-114845671D01*
X154959480Y-114867850D01*
X154946868Y-114888893D01*
X154932253Y-114908599D01*
X154915777Y-114926777D01*
X154897599Y-114943253D01*
X154877893Y-114957868D01*
X154856850Y-114970480D01*
X154834671Y-114980970D01*
X154811572Y-114989235D01*
X154787773Y-114995196D01*
X154763505Y-114998796D01*
X154739001Y-115000000D01*
X154088999Y-115000000D01*
X154064495Y-114998796D01*
X154040227Y-114995196D01*
X154016428Y-114989235D01*
X153993329Y-114980970D01*
X153971150Y-114970480D01*
X153950107Y-114957868D01*
X153930401Y-114943253D01*
X153912223Y-114926777D01*
X153895747Y-114908599D01*
X153881132Y-114888893D01*
X153868520Y-114867850D01*
X153858030Y-114845671D01*
X153849765Y-114822572D01*
X153843804Y-114798773D01*
X153840204Y-114774505D01*
X153839000Y-114750001D01*
X153839000Y-113849999D01*
X153840204Y-113825495D01*
X153843804Y-113801227D01*
X153849765Y-113777428D01*
X153858030Y-113754329D01*
X153868520Y-113732150D01*
X153881132Y-113711107D01*
X153895747Y-113691401D01*
X153912223Y-113673223D01*
X153930401Y-113656747D01*
X153950107Y-113642132D01*
X153971150Y-113629520D01*
X153993329Y-113619030D01*
X154016428Y-113610765D01*
X154040227Y-113604804D01*
X154064495Y-113601204D01*
X154088999Y-113600000D01*
X154739001Y-113600000D01*
X154763505Y-113601204D01*
X154763505Y-113601204D01*
G37*
D13*
X154414000Y-114300000D03*
D12*
G36*
X156813505Y-111061204D02*
X156837773Y-111064804D01*
X156861572Y-111070765D01*
X156884671Y-111079030D01*
X156906850Y-111089520D01*
X156927893Y-111102132D01*
X156947599Y-111116747D01*
X156965777Y-111133223D01*
X156982253Y-111151401D01*
X156996868Y-111171107D01*
X157009480Y-111192150D01*
X157019970Y-111214329D01*
X157028235Y-111237428D01*
X157034196Y-111261227D01*
X157037796Y-111285495D01*
X157039000Y-111309999D01*
X157039000Y-112210001D01*
X157037796Y-112234505D01*
X157034196Y-112258773D01*
X157028235Y-112282572D01*
X157019970Y-112305671D01*
X157009480Y-112327850D01*
X156996868Y-112348893D01*
X156982253Y-112368599D01*
X156965777Y-112386777D01*
X156947599Y-112403253D01*
X156927893Y-112417868D01*
X156906850Y-112430480D01*
X156884671Y-112440970D01*
X156861572Y-112449235D01*
X156837773Y-112455196D01*
X156813505Y-112458796D01*
X156789001Y-112460000D01*
X156138999Y-112460000D01*
X156114495Y-112458796D01*
X156090227Y-112455196D01*
X156066428Y-112449235D01*
X156043329Y-112440970D01*
X156021150Y-112430480D01*
X156000107Y-112417868D01*
X155980401Y-112403253D01*
X155962223Y-112386777D01*
X155945747Y-112368599D01*
X155931132Y-112348893D01*
X155918520Y-112327850D01*
X155908030Y-112305671D01*
X155899765Y-112282572D01*
X155893804Y-112258773D01*
X155890204Y-112234505D01*
X155889000Y-112210001D01*
X155889000Y-111309999D01*
X155890204Y-111285495D01*
X155893804Y-111261227D01*
X155899765Y-111237428D01*
X155908030Y-111214329D01*
X155918520Y-111192150D01*
X155931132Y-111171107D01*
X155945747Y-111151401D01*
X155962223Y-111133223D01*
X155980401Y-111116747D01*
X156000107Y-111102132D01*
X156021150Y-111089520D01*
X156043329Y-111079030D01*
X156066428Y-111070765D01*
X156090227Y-111064804D01*
X156114495Y-111061204D01*
X156138999Y-111060000D01*
X156789001Y-111060000D01*
X156813505Y-111061204D01*
X156813505Y-111061204D01*
G37*
D13*
X156464000Y-111760000D03*
D12*
G36*
X154763505Y-111061204D02*
X154787773Y-111064804D01*
X154811572Y-111070765D01*
X154834671Y-111079030D01*
X154856850Y-111089520D01*
X154877893Y-111102132D01*
X154897599Y-111116747D01*
X154915777Y-111133223D01*
X154932253Y-111151401D01*
X154946868Y-111171107D01*
X154959480Y-111192150D01*
X154969970Y-111214329D01*
X154978235Y-111237428D01*
X154984196Y-111261227D01*
X154987796Y-111285495D01*
X154989000Y-111309999D01*
X154989000Y-112210001D01*
X154987796Y-112234505D01*
X154984196Y-112258773D01*
X154978235Y-112282572D01*
X154969970Y-112305671D01*
X154959480Y-112327850D01*
X154946868Y-112348893D01*
X154932253Y-112368599D01*
X154915777Y-112386777D01*
X154897599Y-112403253D01*
X154877893Y-112417868D01*
X154856850Y-112430480D01*
X154834671Y-112440970D01*
X154811572Y-112449235D01*
X154787773Y-112455196D01*
X154763505Y-112458796D01*
X154739001Y-112460000D01*
X154088999Y-112460000D01*
X154064495Y-112458796D01*
X154040227Y-112455196D01*
X154016428Y-112449235D01*
X153993329Y-112440970D01*
X153971150Y-112430480D01*
X153950107Y-112417868D01*
X153930401Y-112403253D01*
X153912223Y-112386777D01*
X153895747Y-112368599D01*
X153881132Y-112348893D01*
X153868520Y-112327850D01*
X153858030Y-112305671D01*
X153849765Y-112282572D01*
X153843804Y-112258773D01*
X153840204Y-112234505D01*
X153839000Y-112210001D01*
X153839000Y-111309999D01*
X153840204Y-111285495D01*
X153843804Y-111261227D01*
X153849765Y-111237428D01*
X153858030Y-111214329D01*
X153868520Y-111192150D01*
X153881132Y-111171107D01*
X153895747Y-111151401D01*
X153912223Y-111133223D01*
X153930401Y-111116747D01*
X153950107Y-111102132D01*
X153971150Y-111089520D01*
X153993329Y-111079030D01*
X154016428Y-111070765D01*
X154040227Y-111064804D01*
X154064495Y-111061204D01*
X154088999Y-111060000D01*
X154739001Y-111060000D01*
X154763505Y-111061204D01*
X154763505Y-111061204D01*
G37*
D13*
X154414000Y-111760000D03*
D12*
G36*
X194659505Y-123253204D02*
X194683773Y-123256804D01*
X194707572Y-123262765D01*
X194730671Y-123271030D01*
X194752850Y-123281520D01*
X194773893Y-123294132D01*
X194793599Y-123308747D01*
X194811777Y-123325223D01*
X194828253Y-123343401D01*
X194842868Y-123363107D01*
X194855480Y-123384150D01*
X194865970Y-123406329D01*
X194874235Y-123429428D01*
X194880196Y-123453227D01*
X194883796Y-123477495D01*
X194885000Y-123501999D01*
X194885000Y-124402001D01*
X194883796Y-124426505D01*
X194880196Y-124450773D01*
X194874235Y-124474572D01*
X194865970Y-124497671D01*
X194855480Y-124519850D01*
X194842868Y-124540893D01*
X194828253Y-124560599D01*
X194811777Y-124578777D01*
X194793599Y-124595253D01*
X194773893Y-124609868D01*
X194752850Y-124622480D01*
X194730671Y-124632970D01*
X194707572Y-124641235D01*
X194683773Y-124647196D01*
X194659505Y-124650796D01*
X194635001Y-124652000D01*
X193984999Y-124652000D01*
X193960495Y-124650796D01*
X193936227Y-124647196D01*
X193912428Y-124641235D01*
X193889329Y-124632970D01*
X193867150Y-124622480D01*
X193846107Y-124609868D01*
X193826401Y-124595253D01*
X193808223Y-124578777D01*
X193791747Y-124560599D01*
X193777132Y-124540893D01*
X193764520Y-124519850D01*
X193754030Y-124497671D01*
X193745765Y-124474572D01*
X193739804Y-124450773D01*
X193736204Y-124426505D01*
X193735000Y-124402001D01*
X193735000Y-123501999D01*
X193736204Y-123477495D01*
X193739804Y-123453227D01*
X193745765Y-123429428D01*
X193754030Y-123406329D01*
X193764520Y-123384150D01*
X193777132Y-123363107D01*
X193791747Y-123343401D01*
X193808223Y-123325223D01*
X193826401Y-123308747D01*
X193846107Y-123294132D01*
X193867150Y-123281520D01*
X193889329Y-123271030D01*
X193912428Y-123262765D01*
X193936227Y-123256804D01*
X193960495Y-123253204D01*
X193984999Y-123252000D01*
X194635001Y-123252000D01*
X194659505Y-123253204D01*
X194659505Y-123253204D01*
G37*
D13*
X194310000Y-123952000D03*
D12*
G36*
X192609505Y-123253204D02*
X192633773Y-123256804D01*
X192657572Y-123262765D01*
X192680671Y-123271030D01*
X192702850Y-123281520D01*
X192723893Y-123294132D01*
X192743599Y-123308747D01*
X192761777Y-123325223D01*
X192778253Y-123343401D01*
X192792868Y-123363107D01*
X192805480Y-123384150D01*
X192815970Y-123406329D01*
X192824235Y-123429428D01*
X192830196Y-123453227D01*
X192833796Y-123477495D01*
X192835000Y-123501999D01*
X192835000Y-124402001D01*
X192833796Y-124426505D01*
X192830196Y-124450773D01*
X192824235Y-124474572D01*
X192815970Y-124497671D01*
X192805480Y-124519850D01*
X192792868Y-124540893D01*
X192778253Y-124560599D01*
X192761777Y-124578777D01*
X192743599Y-124595253D01*
X192723893Y-124609868D01*
X192702850Y-124622480D01*
X192680671Y-124632970D01*
X192657572Y-124641235D01*
X192633773Y-124647196D01*
X192609505Y-124650796D01*
X192585001Y-124652000D01*
X191934999Y-124652000D01*
X191910495Y-124650796D01*
X191886227Y-124647196D01*
X191862428Y-124641235D01*
X191839329Y-124632970D01*
X191817150Y-124622480D01*
X191796107Y-124609868D01*
X191776401Y-124595253D01*
X191758223Y-124578777D01*
X191741747Y-124560599D01*
X191727132Y-124540893D01*
X191714520Y-124519850D01*
X191704030Y-124497671D01*
X191695765Y-124474572D01*
X191689804Y-124450773D01*
X191686204Y-124426505D01*
X191685000Y-124402001D01*
X191685000Y-123501999D01*
X191686204Y-123477495D01*
X191689804Y-123453227D01*
X191695765Y-123429428D01*
X191704030Y-123406329D01*
X191714520Y-123384150D01*
X191727132Y-123363107D01*
X191741747Y-123343401D01*
X191758223Y-123325223D01*
X191776401Y-123308747D01*
X191796107Y-123294132D01*
X191817150Y-123281520D01*
X191839329Y-123271030D01*
X191862428Y-123262765D01*
X191886227Y-123256804D01*
X191910495Y-123253204D01*
X191934999Y-123252000D01*
X192585001Y-123252000D01*
X192609505Y-123253204D01*
X192609505Y-123253204D01*
G37*
D13*
X192260000Y-123952000D03*
D20*
X97155000Y-85725000D03*
X97155000Y-91125000D03*
X99695000Y-97630000D03*
X99695000Y-103030000D03*
D14*
X116840000Y-97835000D03*
X116840000Y-102235000D03*
D16*
X107315000Y-90170000D03*
X110665000Y-87120000D03*
X107315000Y-87120000D03*
X110665000Y-90170000D03*
D17*
X102690000Y-90925000D03*
X102690000Y-88645000D03*
X102690000Y-86365000D03*
D21*
X180404000Y-87710000D03*
D22*
X171704000Y-80010000D03*
X171704000Y-81280000D03*
X171704000Y-82550000D03*
X171704000Y-83820000D03*
X171704000Y-85090000D03*
X171704000Y-86360000D03*
X171704000Y-87630000D03*
X171704000Y-88900000D03*
X171704000Y-90170000D03*
X171704000Y-91440000D03*
X171704000Y-92710000D03*
X171704000Y-93980000D03*
X171704000Y-95250000D03*
X171704000Y-96520000D03*
D23*
X174989000Y-98010000D03*
X176259000Y-98010000D03*
X177529000Y-98010000D03*
X178799000Y-98010000D03*
X180069000Y-98010000D03*
X181339000Y-98010000D03*
X182609000Y-98010000D03*
X183879000Y-98010000D03*
X185149000Y-98010000D03*
X186419000Y-98010000D03*
D22*
X189704000Y-96520000D03*
X189704000Y-95250000D03*
X189704000Y-93980000D03*
X189704000Y-92710000D03*
X189704000Y-91440000D03*
X189704000Y-90170000D03*
X189704000Y-88900000D03*
X189704000Y-87630000D03*
X189704000Y-86360000D03*
X189704000Y-85090000D03*
X189704000Y-83820000D03*
X189704000Y-82550000D03*
X189704000Y-81280000D03*
X189704000Y-80010000D03*
D12*
G36*
X192609505Y-134429204D02*
X192633773Y-134432804D01*
X192657572Y-134438765D01*
X192680671Y-134447030D01*
X192702850Y-134457520D01*
X192723893Y-134470132D01*
X192743599Y-134484747D01*
X192761777Y-134501223D01*
X192778253Y-134519401D01*
X192792868Y-134539107D01*
X192805480Y-134560150D01*
X192815970Y-134582329D01*
X192824235Y-134605428D01*
X192830196Y-134629227D01*
X192833796Y-134653495D01*
X192835000Y-134677999D01*
X192835000Y-135578001D01*
X192833796Y-135602505D01*
X192830196Y-135626773D01*
X192824235Y-135650572D01*
X192815970Y-135673671D01*
X192805480Y-135695850D01*
X192792868Y-135716893D01*
X192778253Y-135736599D01*
X192761777Y-135754777D01*
X192743599Y-135771253D01*
X192723893Y-135785868D01*
X192702850Y-135798480D01*
X192680671Y-135808970D01*
X192657572Y-135817235D01*
X192633773Y-135823196D01*
X192609505Y-135826796D01*
X192585001Y-135828000D01*
X191934999Y-135828000D01*
X191910495Y-135826796D01*
X191886227Y-135823196D01*
X191862428Y-135817235D01*
X191839329Y-135808970D01*
X191817150Y-135798480D01*
X191796107Y-135785868D01*
X191776401Y-135771253D01*
X191758223Y-135754777D01*
X191741747Y-135736599D01*
X191727132Y-135716893D01*
X191714520Y-135695850D01*
X191704030Y-135673671D01*
X191695765Y-135650572D01*
X191689804Y-135626773D01*
X191686204Y-135602505D01*
X191685000Y-135578001D01*
X191685000Y-134677999D01*
X191686204Y-134653495D01*
X191689804Y-134629227D01*
X191695765Y-134605428D01*
X191704030Y-134582329D01*
X191714520Y-134560150D01*
X191727132Y-134539107D01*
X191741747Y-134519401D01*
X191758223Y-134501223D01*
X191776401Y-134484747D01*
X191796107Y-134470132D01*
X191817150Y-134457520D01*
X191839329Y-134447030D01*
X191862428Y-134438765D01*
X191886227Y-134432804D01*
X191910495Y-134429204D01*
X191934999Y-134428000D01*
X192585001Y-134428000D01*
X192609505Y-134429204D01*
X192609505Y-134429204D01*
G37*
D13*
X192260000Y-135128000D03*
D12*
G36*
X194659505Y-134429204D02*
X194683773Y-134432804D01*
X194707572Y-134438765D01*
X194730671Y-134447030D01*
X194752850Y-134457520D01*
X194773893Y-134470132D01*
X194793599Y-134484747D01*
X194811777Y-134501223D01*
X194828253Y-134519401D01*
X194842868Y-134539107D01*
X194855480Y-134560150D01*
X194865970Y-134582329D01*
X194874235Y-134605428D01*
X194880196Y-134629227D01*
X194883796Y-134653495D01*
X194885000Y-134677999D01*
X194885000Y-135578001D01*
X194883796Y-135602505D01*
X194880196Y-135626773D01*
X194874235Y-135650572D01*
X194865970Y-135673671D01*
X194855480Y-135695850D01*
X194842868Y-135716893D01*
X194828253Y-135736599D01*
X194811777Y-135754777D01*
X194793599Y-135771253D01*
X194773893Y-135785868D01*
X194752850Y-135798480D01*
X194730671Y-135808970D01*
X194707572Y-135817235D01*
X194683773Y-135823196D01*
X194659505Y-135826796D01*
X194635001Y-135828000D01*
X193984999Y-135828000D01*
X193960495Y-135826796D01*
X193936227Y-135823196D01*
X193912428Y-135817235D01*
X193889329Y-135808970D01*
X193867150Y-135798480D01*
X193846107Y-135785868D01*
X193826401Y-135771253D01*
X193808223Y-135754777D01*
X193791747Y-135736599D01*
X193777132Y-135716893D01*
X193764520Y-135695850D01*
X193754030Y-135673671D01*
X193745765Y-135650572D01*
X193739804Y-135626773D01*
X193736204Y-135602505D01*
X193735000Y-135578001D01*
X193735000Y-134677999D01*
X193736204Y-134653495D01*
X193739804Y-134629227D01*
X193745765Y-134605428D01*
X193754030Y-134582329D01*
X193764520Y-134560150D01*
X193777132Y-134539107D01*
X193791747Y-134519401D01*
X193808223Y-134501223D01*
X193826401Y-134484747D01*
X193846107Y-134470132D01*
X193867150Y-134457520D01*
X193889329Y-134447030D01*
X193912428Y-134438765D01*
X193936227Y-134432804D01*
X193960495Y-134429204D01*
X193984999Y-134428000D01*
X194635001Y-134428000D01*
X194659505Y-134429204D01*
X194659505Y-134429204D01*
G37*
D13*
X194310000Y-135128000D03*
D12*
G36*
X168368505Y-82756204D02*
X168392773Y-82759804D01*
X168416572Y-82765765D01*
X168439671Y-82774030D01*
X168461850Y-82784520D01*
X168482893Y-82797132D01*
X168502599Y-82811747D01*
X168520777Y-82828223D01*
X168537253Y-82846401D01*
X168551868Y-82866107D01*
X168564480Y-82887150D01*
X168574970Y-82909329D01*
X168583235Y-82932428D01*
X168589196Y-82956227D01*
X168592796Y-82980495D01*
X168594000Y-83004999D01*
X168594000Y-83655001D01*
X168592796Y-83679505D01*
X168589196Y-83703773D01*
X168583235Y-83727572D01*
X168574970Y-83750671D01*
X168564480Y-83772850D01*
X168551868Y-83793893D01*
X168537253Y-83813599D01*
X168520777Y-83831777D01*
X168502599Y-83848253D01*
X168482893Y-83862868D01*
X168461850Y-83875480D01*
X168439671Y-83885970D01*
X168416572Y-83894235D01*
X168392773Y-83900196D01*
X168368505Y-83903796D01*
X168344001Y-83905000D01*
X167443999Y-83905000D01*
X167419495Y-83903796D01*
X167395227Y-83900196D01*
X167371428Y-83894235D01*
X167348329Y-83885970D01*
X167326150Y-83875480D01*
X167305107Y-83862868D01*
X167285401Y-83848253D01*
X167267223Y-83831777D01*
X167250747Y-83813599D01*
X167236132Y-83793893D01*
X167223520Y-83772850D01*
X167213030Y-83750671D01*
X167204765Y-83727572D01*
X167198804Y-83703773D01*
X167195204Y-83679505D01*
X167194000Y-83655001D01*
X167194000Y-83004999D01*
X167195204Y-82980495D01*
X167198804Y-82956227D01*
X167204765Y-82932428D01*
X167213030Y-82909329D01*
X167223520Y-82887150D01*
X167236132Y-82866107D01*
X167250747Y-82846401D01*
X167267223Y-82828223D01*
X167285401Y-82811747D01*
X167305107Y-82797132D01*
X167326150Y-82784520D01*
X167348329Y-82774030D01*
X167371428Y-82765765D01*
X167395227Y-82759804D01*
X167419495Y-82756204D01*
X167443999Y-82755000D01*
X168344001Y-82755000D01*
X168368505Y-82756204D01*
X168368505Y-82756204D01*
G37*
D13*
X167894000Y-83330000D03*
D12*
G36*
X168368505Y-80706204D02*
X168392773Y-80709804D01*
X168416572Y-80715765D01*
X168439671Y-80724030D01*
X168461850Y-80734520D01*
X168482893Y-80747132D01*
X168502599Y-80761747D01*
X168520777Y-80778223D01*
X168537253Y-80796401D01*
X168551868Y-80816107D01*
X168564480Y-80837150D01*
X168574970Y-80859329D01*
X168583235Y-80882428D01*
X168589196Y-80906227D01*
X168592796Y-80930495D01*
X168594000Y-80954999D01*
X168594000Y-81605001D01*
X168592796Y-81629505D01*
X168589196Y-81653773D01*
X168583235Y-81677572D01*
X168574970Y-81700671D01*
X168564480Y-81722850D01*
X168551868Y-81743893D01*
X168537253Y-81763599D01*
X168520777Y-81781777D01*
X168502599Y-81798253D01*
X168482893Y-81812868D01*
X168461850Y-81825480D01*
X168439671Y-81835970D01*
X168416572Y-81844235D01*
X168392773Y-81850196D01*
X168368505Y-81853796D01*
X168344001Y-81855000D01*
X167443999Y-81855000D01*
X167419495Y-81853796D01*
X167395227Y-81850196D01*
X167371428Y-81844235D01*
X167348329Y-81835970D01*
X167326150Y-81825480D01*
X167305107Y-81812868D01*
X167285401Y-81798253D01*
X167267223Y-81781777D01*
X167250747Y-81763599D01*
X167236132Y-81743893D01*
X167223520Y-81722850D01*
X167213030Y-81700671D01*
X167204765Y-81677572D01*
X167198804Y-81653773D01*
X167195204Y-81629505D01*
X167194000Y-81605001D01*
X167194000Y-80954999D01*
X167195204Y-80930495D01*
X167198804Y-80906227D01*
X167204765Y-80882428D01*
X167213030Y-80859329D01*
X167223520Y-80837150D01*
X167236132Y-80816107D01*
X167250747Y-80796401D01*
X167267223Y-80778223D01*
X167285401Y-80761747D01*
X167305107Y-80747132D01*
X167326150Y-80734520D01*
X167348329Y-80724030D01*
X167371428Y-80715765D01*
X167395227Y-80709804D01*
X167419495Y-80706204D01*
X167443999Y-80705000D01*
X168344001Y-80705000D01*
X168368505Y-80706204D01*
X168368505Y-80706204D01*
G37*
D13*
X167894000Y-81280000D03*
D12*
G36*
X195800505Y-100518204D02*
X195824773Y-100521804D01*
X195848572Y-100527765D01*
X195871671Y-100536030D01*
X195893850Y-100546520D01*
X195914893Y-100559132D01*
X195934599Y-100573747D01*
X195952777Y-100590223D01*
X195969253Y-100608401D01*
X195983868Y-100628107D01*
X195996480Y-100649150D01*
X196006970Y-100671329D01*
X196015235Y-100694428D01*
X196021196Y-100718227D01*
X196024796Y-100742495D01*
X196026000Y-100766999D01*
X196026000Y-101417001D01*
X196024796Y-101441505D01*
X196021196Y-101465773D01*
X196015235Y-101489572D01*
X196006970Y-101512671D01*
X195996480Y-101534850D01*
X195983868Y-101555893D01*
X195969253Y-101575599D01*
X195952777Y-101593777D01*
X195934599Y-101610253D01*
X195914893Y-101624868D01*
X195893850Y-101637480D01*
X195871671Y-101647970D01*
X195848572Y-101656235D01*
X195824773Y-101662196D01*
X195800505Y-101665796D01*
X195776001Y-101667000D01*
X194875999Y-101667000D01*
X194851495Y-101665796D01*
X194827227Y-101662196D01*
X194803428Y-101656235D01*
X194780329Y-101647970D01*
X194758150Y-101637480D01*
X194737107Y-101624868D01*
X194717401Y-101610253D01*
X194699223Y-101593777D01*
X194682747Y-101575599D01*
X194668132Y-101555893D01*
X194655520Y-101534850D01*
X194645030Y-101512671D01*
X194636765Y-101489572D01*
X194630804Y-101465773D01*
X194627204Y-101441505D01*
X194626000Y-101417001D01*
X194626000Y-100766999D01*
X194627204Y-100742495D01*
X194630804Y-100718227D01*
X194636765Y-100694428D01*
X194645030Y-100671329D01*
X194655520Y-100649150D01*
X194668132Y-100628107D01*
X194682747Y-100608401D01*
X194699223Y-100590223D01*
X194717401Y-100573747D01*
X194737107Y-100559132D01*
X194758150Y-100546520D01*
X194780329Y-100536030D01*
X194803428Y-100527765D01*
X194827227Y-100521804D01*
X194851495Y-100518204D01*
X194875999Y-100517000D01*
X195776001Y-100517000D01*
X195800505Y-100518204D01*
X195800505Y-100518204D01*
G37*
D13*
X195326000Y-101092000D03*
D12*
G36*
X195800505Y-102568204D02*
X195824773Y-102571804D01*
X195848572Y-102577765D01*
X195871671Y-102586030D01*
X195893850Y-102596520D01*
X195914893Y-102609132D01*
X195934599Y-102623747D01*
X195952777Y-102640223D01*
X195969253Y-102658401D01*
X195983868Y-102678107D01*
X195996480Y-102699150D01*
X196006970Y-102721329D01*
X196015235Y-102744428D01*
X196021196Y-102768227D01*
X196024796Y-102792495D01*
X196026000Y-102816999D01*
X196026000Y-103467001D01*
X196024796Y-103491505D01*
X196021196Y-103515773D01*
X196015235Y-103539572D01*
X196006970Y-103562671D01*
X195996480Y-103584850D01*
X195983868Y-103605893D01*
X195969253Y-103625599D01*
X195952777Y-103643777D01*
X195934599Y-103660253D01*
X195914893Y-103674868D01*
X195893850Y-103687480D01*
X195871671Y-103697970D01*
X195848572Y-103706235D01*
X195824773Y-103712196D01*
X195800505Y-103715796D01*
X195776001Y-103717000D01*
X194875999Y-103717000D01*
X194851495Y-103715796D01*
X194827227Y-103712196D01*
X194803428Y-103706235D01*
X194780329Y-103697970D01*
X194758150Y-103687480D01*
X194737107Y-103674868D01*
X194717401Y-103660253D01*
X194699223Y-103643777D01*
X194682747Y-103625599D01*
X194668132Y-103605893D01*
X194655520Y-103584850D01*
X194645030Y-103562671D01*
X194636765Y-103539572D01*
X194630804Y-103515773D01*
X194627204Y-103491505D01*
X194626000Y-103467001D01*
X194626000Y-102816999D01*
X194627204Y-102792495D01*
X194630804Y-102768227D01*
X194636765Y-102744428D01*
X194645030Y-102721329D01*
X194655520Y-102699150D01*
X194668132Y-102678107D01*
X194682747Y-102658401D01*
X194699223Y-102640223D01*
X194717401Y-102623747D01*
X194737107Y-102609132D01*
X194758150Y-102596520D01*
X194780329Y-102586030D01*
X194803428Y-102577765D01*
X194827227Y-102571804D01*
X194851495Y-102568204D01*
X194875999Y-102567000D01*
X195776001Y-102567000D01*
X195800505Y-102568204D01*
X195800505Y-102568204D01*
G37*
D13*
X195326000Y-103142000D03*
D24*
X179070000Y-108204000D03*
X179070000Y-106304000D03*
X177070000Y-107254000D03*
D12*
G36*
X174972505Y-107630204D02*
X174996773Y-107633804D01*
X175020572Y-107639765D01*
X175043671Y-107648030D01*
X175065850Y-107658520D01*
X175086893Y-107671132D01*
X175106599Y-107685747D01*
X175124777Y-107702223D01*
X175141253Y-107720401D01*
X175155868Y-107740107D01*
X175168480Y-107761150D01*
X175178970Y-107783329D01*
X175187235Y-107806428D01*
X175193196Y-107830227D01*
X175196796Y-107854495D01*
X175198000Y-107878999D01*
X175198000Y-108529001D01*
X175196796Y-108553505D01*
X175193196Y-108577773D01*
X175187235Y-108601572D01*
X175178970Y-108624671D01*
X175168480Y-108646850D01*
X175155868Y-108667893D01*
X175141253Y-108687599D01*
X175124777Y-108705777D01*
X175106599Y-108722253D01*
X175086893Y-108736868D01*
X175065850Y-108749480D01*
X175043671Y-108759970D01*
X175020572Y-108768235D01*
X174996773Y-108774196D01*
X174972505Y-108777796D01*
X174948001Y-108779000D01*
X174047999Y-108779000D01*
X174023495Y-108777796D01*
X173999227Y-108774196D01*
X173975428Y-108768235D01*
X173952329Y-108759970D01*
X173930150Y-108749480D01*
X173909107Y-108736868D01*
X173889401Y-108722253D01*
X173871223Y-108705777D01*
X173854747Y-108687599D01*
X173840132Y-108667893D01*
X173827520Y-108646850D01*
X173817030Y-108624671D01*
X173808765Y-108601572D01*
X173802804Y-108577773D01*
X173799204Y-108553505D01*
X173798000Y-108529001D01*
X173798000Y-107878999D01*
X173799204Y-107854495D01*
X173802804Y-107830227D01*
X173808765Y-107806428D01*
X173817030Y-107783329D01*
X173827520Y-107761150D01*
X173840132Y-107740107D01*
X173854747Y-107720401D01*
X173871223Y-107702223D01*
X173889401Y-107685747D01*
X173909107Y-107671132D01*
X173930150Y-107658520D01*
X173952329Y-107648030D01*
X173975428Y-107639765D01*
X173999227Y-107633804D01*
X174023495Y-107630204D01*
X174047999Y-107629000D01*
X174948001Y-107629000D01*
X174972505Y-107630204D01*
X174972505Y-107630204D01*
G37*
D13*
X174498000Y-108204000D03*
D12*
G36*
X174972505Y-105580204D02*
X174996773Y-105583804D01*
X175020572Y-105589765D01*
X175043671Y-105598030D01*
X175065850Y-105608520D01*
X175086893Y-105621132D01*
X175106599Y-105635747D01*
X175124777Y-105652223D01*
X175141253Y-105670401D01*
X175155868Y-105690107D01*
X175168480Y-105711150D01*
X175178970Y-105733329D01*
X175187235Y-105756428D01*
X175193196Y-105780227D01*
X175196796Y-105804495D01*
X175198000Y-105828999D01*
X175198000Y-106479001D01*
X175196796Y-106503505D01*
X175193196Y-106527773D01*
X175187235Y-106551572D01*
X175178970Y-106574671D01*
X175168480Y-106596850D01*
X175155868Y-106617893D01*
X175141253Y-106637599D01*
X175124777Y-106655777D01*
X175106599Y-106672253D01*
X175086893Y-106686868D01*
X175065850Y-106699480D01*
X175043671Y-106709970D01*
X175020572Y-106718235D01*
X174996773Y-106724196D01*
X174972505Y-106727796D01*
X174948001Y-106729000D01*
X174047999Y-106729000D01*
X174023495Y-106727796D01*
X173999227Y-106724196D01*
X173975428Y-106718235D01*
X173952329Y-106709970D01*
X173930150Y-106699480D01*
X173909107Y-106686868D01*
X173889401Y-106672253D01*
X173871223Y-106655777D01*
X173854747Y-106637599D01*
X173840132Y-106617893D01*
X173827520Y-106596850D01*
X173817030Y-106574671D01*
X173808765Y-106551572D01*
X173802804Y-106527773D01*
X173799204Y-106503505D01*
X173798000Y-106479001D01*
X173798000Y-105828999D01*
X173799204Y-105804495D01*
X173802804Y-105780227D01*
X173808765Y-105756428D01*
X173817030Y-105733329D01*
X173827520Y-105711150D01*
X173840132Y-105690107D01*
X173854747Y-105670401D01*
X173871223Y-105652223D01*
X173889401Y-105635747D01*
X173909107Y-105621132D01*
X173930150Y-105608520D01*
X173952329Y-105598030D01*
X173975428Y-105589765D01*
X173999227Y-105583804D01*
X174023495Y-105580204D01*
X174047999Y-105579000D01*
X174948001Y-105579000D01*
X174972505Y-105580204D01*
X174972505Y-105580204D01*
G37*
D13*
X174498000Y-106154000D03*
D12*
G36*
X172686505Y-105580204D02*
X172710773Y-105583804D01*
X172734572Y-105589765D01*
X172757671Y-105598030D01*
X172779850Y-105608520D01*
X172800893Y-105621132D01*
X172820599Y-105635747D01*
X172838777Y-105652223D01*
X172855253Y-105670401D01*
X172869868Y-105690107D01*
X172882480Y-105711150D01*
X172892970Y-105733329D01*
X172901235Y-105756428D01*
X172907196Y-105780227D01*
X172910796Y-105804495D01*
X172912000Y-105828999D01*
X172912000Y-106479001D01*
X172910796Y-106503505D01*
X172907196Y-106527773D01*
X172901235Y-106551572D01*
X172892970Y-106574671D01*
X172882480Y-106596850D01*
X172869868Y-106617893D01*
X172855253Y-106637599D01*
X172838777Y-106655777D01*
X172820599Y-106672253D01*
X172800893Y-106686868D01*
X172779850Y-106699480D01*
X172757671Y-106709970D01*
X172734572Y-106718235D01*
X172710773Y-106724196D01*
X172686505Y-106727796D01*
X172662001Y-106729000D01*
X171761999Y-106729000D01*
X171737495Y-106727796D01*
X171713227Y-106724196D01*
X171689428Y-106718235D01*
X171666329Y-106709970D01*
X171644150Y-106699480D01*
X171623107Y-106686868D01*
X171603401Y-106672253D01*
X171585223Y-106655777D01*
X171568747Y-106637599D01*
X171554132Y-106617893D01*
X171541520Y-106596850D01*
X171531030Y-106574671D01*
X171522765Y-106551572D01*
X171516804Y-106527773D01*
X171513204Y-106503505D01*
X171512000Y-106479001D01*
X171512000Y-105828999D01*
X171513204Y-105804495D01*
X171516804Y-105780227D01*
X171522765Y-105756428D01*
X171531030Y-105733329D01*
X171541520Y-105711150D01*
X171554132Y-105690107D01*
X171568747Y-105670401D01*
X171585223Y-105652223D01*
X171603401Y-105635747D01*
X171623107Y-105621132D01*
X171644150Y-105608520D01*
X171666329Y-105598030D01*
X171689428Y-105589765D01*
X171713227Y-105583804D01*
X171737495Y-105580204D01*
X171761999Y-105579000D01*
X172662001Y-105579000D01*
X172686505Y-105580204D01*
X172686505Y-105580204D01*
G37*
D13*
X172212000Y-106154000D03*
D12*
G36*
X172686505Y-107630204D02*
X172710773Y-107633804D01*
X172734572Y-107639765D01*
X172757671Y-107648030D01*
X172779850Y-107658520D01*
X172800893Y-107671132D01*
X172820599Y-107685747D01*
X172838777Y-107702223D01*
X172855253Y-107720401D01*
X172869868Y-107740107D01*
X172882480Y-107761150D01*
X172892970Y-107783329D01*
X172901235Y-107806428D01*
X172907196Y-107830227D01*
X172910796Y-107854495D01*
X172912000Y-107878999D01*
X172912000Y-108529001D01*
X172910796Y-108553505D01*
X172907196Y-108577773D01*
X172901235Y-108601572D01*
X172892970Y-108624671D01*
X172882480Y-108646850D01*
X172869868Y-108667893D01*
X172855253Y-108687599D01*
X172838777Y-108705777D01*
X172820599Y-108722253D01*
X172800893Y-108736868D01*
X172779850Y-108749480D01*
X172757671Y-108759970D01*
X172734572Y-108768235D01*
X172710773Y-108774196D01*
X172686505Y-108777796D01*
X172662001Y-108779000D01*
X171761999Y-108779000D01*
X171737495Y-108777796D01*
X171713227Y-108774196D01*
X171689428Y-108768235D01*
X171666329Y-108759970D01*
X171644150Y-108749480D01*
X171623107Y-108736868D01*
X171603401Y-108722253D01*
X171585223Y-108705777D01*
X171568747Y-108687599D01*
X171554132Y-108667893D01*
X171541520Y-108646850D01*
X171531030Y-108624671D01*
X171522765Y-108601572D01*
X171516804Y-108577773D01*
X171513204Y-108553505D01*
X171512000Y-108529001D01*
X171512000Y-107878999D01*
X171513204Y-107854495D01*
X171516804Y-107830227D01*
X171522765Y-107806428D01*
X171531030Y-107783329D01*
X171541520Y-107761150D01*
X171554132Y-107740107D01*
X171568747Y-107720401D01*
X171585223Y-107702223D01*
X171603401Y-107685747D01*
X171623107Y-107671132D01*
X171644150Y-107658520D01*
X171666329Y-107648030D01*
X171689428Y-107639765D01*
X171713227Y-107633804D01*
X171737495Y-107630204D01*
X171761999Y-107629000D01*
X172662001Y-107629000D01*
X172686505Y-107630204D01*
X172686505Y-107630204D01*
G37*
D13*
X172212000Y-108204000D03*
D12*
G36*
X159986505Y-60259204D02*
X160010773Y-60262804D01*
X160034572Y-60268765D01*
X160057671Y-60277030D01*
X160079850Y-60287520D01*
X160100893Y-60300132D01*
X160120599Y-60314747D01*
X160138777Y-60331223D01*
X160155253Y-60349401D01*
X160169868Y-60369107D01*
X160182480Y-60390150D01*
X160192970Y-60412329D01*
X160201235Y-60435428D01*
X160207196Y-60459227D01*
X160210796Y-60483495D01*
X160212000Y-60507999D01*
X160212000Y-61158001D01*
X160210796Y-61182505D01*
X160207196Y-61206773D01*
X160201235Y-61230572D01*
X160192970Y-61253671D01*
X160182480Y-61275850D01*
X160169868Y-61296893D01*
X160155253Y-61316599D01*
X160138777Y-61334777D01*
X160120599Y-61351253D01*
X160100893Y-61365868D01*
X160079850Y-61378480D01*
X160057671Y-61388970D01*
X160034572Y-61397235D01*
X160010773Y-61403196D01*
X159986505Y-61406796D01*
X159962001Y-61408000D01*
X159061999Y-61408000D01*
X159037495Y-61406796D01*
X159013227Y-61403196D01*
X158989428Y-61397235D01*
X158966329Y-61388970D01*
X158944150Y-61378480D01*
X158923107Y-61365868D01*
X158903401Y-61351253D01*
X158885223Y-61334777D01*
X158868747Y-61316599D01*
X158854132Y-61296893D01*
X158841520Y-61275850D01*
X158831030Y-61253671D01*
X158822765Y-61230572D01*
X158816804Y-61206773D01*
X158813204Y-61182505D01*
X158812000Y-61158001D01*
X158812000Y-60507999D01*
X158813204Y-60483495D01*
X158816804Y-60459227D01*
X158822765Y-60435428D01*
X158831030Y-60412329D01*
X158841520Y-60390150D01*
X158854132Y-60369107D01*
X158868747Y-60349401D01*
X158885223Y-60331223D01*
X158903401Y-60314747D01*
X158923107Y-60300132D01*
X158944150Y-60287520D01*
X158966329Y-60277030D01*
X158989428Y-60268765D01*
X159013227Y-60262804D01*
X159037495Y-60259204D01*
X159061999Y-60258000D01*
X159962001Y-60258000D01*
X159986505Y-60259204D01*
X159986505Y-60259204D01*
G37*
D13*
X159512000Y-60833000D03*
D12*
G36*
X159986505Y-58209204D02*
X160010773Y-58212804D01*
X160034572Y-58218765D01*
X160057671Y-58227030D01*
X160079850Y-58237520D01*
X160100893Y-58250132D01*
X160120599Y-58264747D01*
X160138777Y-58281223D01*
X160155253Y-58299401D01*
X160169868Y-58319107D01*
X160182480Y-58340150D01*
X160192970Y-58362329D01*
X160201235Y-58385428D01*
X160207196Y-58409227D01*
X160210796Y-58433495D01*
X160212000Y-58457999D01*
X160212000Y-59108001D01*
X160210796Y-59132505D01*
X160207196Y-59156773D01*
X160201235Y-59180572D01*
X160192970Y-59203671D01*
X160182480Y-59225850D01*
X160169868Y-59246893D01*
X160155253Y-59266599D01*
X160138777Y-59284777D01*
X160120599Y-59301253D01*
X160100893Y-59315868D01*
X160079850Y-59328480D01*
X160057671Y-59338970D01*
X160034572Y-59347235D01*
X160010773Y-59353196D01*
X159986505Y-59356796D01*
X159962001Y-59358000D01*
X159061999Y-59358000D01*
X159037495Y-59356796D01*
X159013227Y-59353196D01*
X158989428Y-59347235D01*
X158966329Y-59338970D01*
X158944150Y-59328480D01*
X158923107Y-59315868D01*
X158903401Y-59301253D01*
X158885223Y-59284777D01*
X158868747Y-59266599D01*
X158854132Y-59246893D01*
X158841520Y-59225850D01*
X158831030Y-59203671D01*
X158822765Y-59180572D01*
X158816804Y-59156773D01*
X158813204Y-59132505D01*
X158812000Y-59108001D01*
X158812000Y-58457999D01*
X158813204Y-58433495D01*
X158816804Y-58409227D01*
X158822765Y-58385428D01*
X158831030Y-58362329D01*
X158841520Y-58340150D01*
X158854132Y-58319107D01*
X158868747Y-58299401D01*
X158885223Y-58281223D01*
X158903401Y-58264747D01*
X158923107Y-58250132D01*
X158944150Y-58237520D01*
X158966329Y-58227030D01*
X158989428Y-58218765D01*
X159013227Y-58212804D01*
X159037495Y-58209204D01*
X159061999Y-58208000D01*
X159962001Y-58208000D01*
X159986505Y-58209204D01*
X159986505Y-58209204D01*
G37*
D13*
X159512000Y-58783000D03*
D12*
G36*
X144494505Y-90741204D02*
X144518773Y-90744804D01*
X144542572Y-90750765D01*
X144565671Y-90759030D01*
X144587850Y-90769520D01*
X144608893Y-90782132D01*
X144628599Y-90796747D01*
X144646777Y-90813223D01*
X144663253Y-90831401D01*
X144677868Y-90851107D01*
X144690480Y-90872150D01*
X144700970Y-90894329D01*
X144709235Y-90917428D01*
X144715196Y-90941227D01*
X144718796Y-90965495D01*
X144720000Y-90989999D01*
X144720000Y-91890001D01*
X144718796Y-91914505D01*
X144715196Y-91938773D01*
X144709235Y-91962572D01*
X144700970Y-91985671D01*
X144690480Y-92007850D01*
X144677868Y-92028893D01*
X144663253Y-92048599D01*
X144646777Y-92066777D01*
X144628599Y-92083253D01*
X144608893Y-92097868D01*
X144587850Y-92110480D01*
X144565671Y-92120970D01*
X144542572Y-92129235D01*
X144518773Y-92135196D01*
X144494505Y-92138796D01*
X144470001Y-92140000D01*
X143819999Y-92140000D01*
X143795495Y-92138796D01*
X143771227Y-92135196D01*
X143747428Y-92129235D01*
X143724329Y-92120970D01*
X143702150Y-92110480D01*
X143681107Y-92097868D01*
X143661401Y-92083253D01*
X143643223Y-92066777D01*
X143626747Y-92048599D01*
X143612132Y-92028893D01*
X143599520Y-92007850D01*
X143589030Y-91985671D01*
X143580765Y-91962572D01*
X143574804Y-91938773D01*
X143571204Y-91914505D01*
X143570000Y-91890001D01*
X143570000Y-90989999D01*
X143571204Y-90965495D01*
X143574804Y-90941227D01*
X143580765Y-90917428D01*
X143589030Y-90894329D01*
X143599520Y-90872150D01*
X143612132Y-90851107D01*
X143626747Y-90831401D01*
X143643223Y-90813223D01*
X143661401Y-90796747D01*
X143681107Y-90782132D01*
X143702150Y-90769520D01*
X143724329Y-90759030D01*
X143747428Y-90750765D01*
X143771227Y-90744804D01*
X143795495Y-90741204D01*
X143819999Y-90740000D01*
X144470001Y-90740000D01*
X144494505Y-90741204D01*
X144494505Y-90741204D01*
G37*
D13*
X144145000Y-91440000D03*
D12*
G36*
X146544505Y-90741204D02*
X146568773Y-90744804D01*
X146592572Y-90750765D01*
X146615671Y-90759030D01*
X146637850Y-90769520D01*
X146658893Y-90782132D01*
X146678599Y-90796747D01*
X146696777Y-90813223D01*
X146713253Y-90831401D01*
X146727868Y-90851107D01*
X146740480Y-90872150D01*
X146750970Y-90894329D01*
X146759235Y-90917428D01*
X146765196Y-90941227D01*
X146768796Y-90965495D01*
X146770000Y-90989999D01*
X146770000Y-91890001D01*
X146768796Y-91914505D01*
X146765196Y-91938773D01*
X146759235Y-91962572D01*
X146750970Y-91985671D01*
X146740480Y-92007850D01*
X146727868Y-92028893D01*
X146713253Y-92048599D01*
X146696777Y-92066777D01*
X146678599Y-92083253D01*
X146658893Y-92097868D01*
X146637850Y-92110480D01*
X146615671Y-92120970D01*
X146592572Y-92129235D01*
X146568773Y-92135196D01*
X146544505Y-92138796D01*
X146520001Y-92140000D01*
X145869999Y-92140000D01*
X145845495Y-92138796D01*
X145821227Y-92135196D01*
X145797428Y-92129235D01*
X145774329Y-92120970D01*
X145752150Y-92110480D01*
X145731107Y-92097868D01*
X145711401Y-92083253D01*
X145693223Y-92066777D01*
X145676747Y-92048599D01*
X145662132Y-92028893D01*
X145649520Y-92007850D01*
X145639030Y-91985671D01*
X145630765Y-91962572D01*
X145624804Y-91938773D01*
X145621204Y-91914505D01*
X145620000Y-91890001D01*
X145620000Y-90989999D01*
X145621204Y-90965495D01*
X145624804Y-90941227D01*
X145630765Y-90917428D01*
X145639030Y-90894329D01*
X145649520Y-90872150D01*
X145662132Y-90851107D01*
X145676747Y-90831401D01*
X145693223Y-90813223D01*
X145711401Y-90796747D01*
X145731107Y-90782132D01*
X145752150Y-90769520D01*
X145774329Y-90759030D01*
X145797428Y-90750765D01*
X145821227Y-90744804D01*
X145845495Y-90741204D01*
X145869999Y-90740000D01*
X146520001Y-90740000D01*
X146544505Y-90741204D01*
X146544505Y-90741204D01*
G37*
D13*
X146195000Y-91440000D03*
D12*
G36*
X146544505Y-92646204D02*
X146568773Y-92649804D01*
X146592572Y-92655765D01*
X146615671Y-92664030D01*
X146637850Y-92674520D01*
X146658893Y-92687132D01*
X146678599Y-92701747D01*
X146696777Y-92718223D01*
X146713253Y-92736401D01*
X146727868Y-92756107D01*
X146740480Y-92777150D01*
X146750970Y-92799329D01*
X146759235Y-92822428D01*
X146765196Y-92846227D01*
X146768796Y-92870495D01*
X146770000Y-92894999D01*
X146770000Y-93795001D01*
X146768796Y-93819505D01*
X146765196Y-93843773D01*
X146759235Y-93867572D01*
X146750970Y-93890671D01*
X146740480Y-93912850D01*
X146727868Y-93933893D01*
X146713253Y-93953599D01*
X146696777Y-93971777D01*
X146678599Y-93988253D01*
X146658893Y-94002868D01*
X146637850Y-94015480D01*
X146615671Y-94025970D01*
X146592572Y-94034235D01*
X146568773Y-94040196D01*
X146544505Y-94043796D01*
X146520001Y-94045000D01*
X145869999Y-94045000D01*
X145845495Y-94043796D01*
X145821227Y-94040196D01*
X145797428Y-94034235D01*
X145774329Y-94025970D01*
X145752150Y-94015480D01*
X145731107Y-94002868D01*
X145711401Y-93988253D01*
X145693223Y-93971777D01*
X145676747Y-93953599D01*
X145662132Y-93933893D01*
X145649520Y-93912850D01*
X145639030Y-93890671D01*
X145630765Y-93867572D01*
X145624804Y-93843773D01*
X145621204Y-93819505D01*
X145620000Y-93795001D01*
X145620000Y-92894999D01*
X145621204Y-92870495D01*
X145624804Y-92846227D01*
X145630765Y-92822428D01*
X145639030Y-92799329D01*
X145649520Y-92777150D01*
X145662132Y-92756107D01*
X145676747Y-92736401D01*
X145693223Y-92718223D01*
X145711401Y-92701747D01*
X145731107Y-92687132D01*
X145752150Y-92674520D01*
X145774329Y-92664030D01*
X145797428Y-92655765D01*
X145821227Y-92649804D01*
X145845495Y-92646204D01*
X145869999Y-92645000D01*
X146520001Y-92645000D01*
X146544505Y-92646204D01*
X146544505Y-92646204D01*
G37*
D13*
X146195000Y-93345000D03*
D12*
G36*
X144494505Y-92646204D02*
X144518773Y-92649804D01*
X144542572Y-92655765D01*
X144565671Y-92664030D01*
X144587850Y-92674520D01*
X144608893Y-92687132D01*
X144628599Y-92701747D01*
X144646777Y-92718223D01*
X144663253Y-92736401D01*
X144677868Y-92756107D01*
X144690480Y-92777150D01*
X144700970Y-92799329D01*
X144709235Y-92822428D01*
X144715196Y-92846227D01*
X144718796Y-92870495D01*
X144720000Y-92894999D01*
X144720000Y-93795001D01*
X144718796Y-93819505D01*
X144715196Y-93843773D01*
X144709235Y-93867572D01*
X144700970Y-93890671D01*
X144690480Y-93912850D01*
X144677868Y-93933893D01*
X144663253Y-93953599D01*
X144646777Y-93971777D01*
X144628599Y-93988253D01*
X144608893Y-94002868D01*
X144587850Y-94015480D01*
X144565671Y-94025970D01*
X144542572Y-94034235D01*
X144518773Y-94040196D01*
X144494505Y-94043796D01*
X144470001Y-94045000D01*
X143819999Y-94045000D01*
X143795495Y-94043796D01*
X143771227Y-94040196D01*
X143747428Y-94034235D01*
X143724329Y-94025970D01*
X143702150Y-94015480D01*
X143681107Y-94002868D01*
X143661401Y-93988253D01*
X143643223Y-93971777D01*
X143626747Y-93953599D01*
X143612132Y-93933893D01*
X143599520Y-93912850D01*
X143589030Y-93890671D01*
X143580765Y-93867572D01*
X143574804Y-93843773D01*
X143571204Y-93819505D01*
X143570000Y-93795001D01*
X143570000Y-92894999D01*
X143571204Y-92870495D01*
X143574804Y-92846227D01*
X143580765Y-92822428D01*
X143589030Y-92799329D01*
X143599520Y-92777150D01*
X143612132Y-92756107D01*
X143626747Y-92736401D01*
X143643223Y-92718223D01*
X143661401Y-92701747D01*
X143681107Y-92687132D01*
X143702150Y-92674520D01*
X143724329Y-92664030D01*
X143747428Y-92655765D01*
X143771227Y-92649804D01*
X143795495Y-92646204D01*
X143819999Y-92645000D01*
X144470001Y-92645000D01*
X144494505Y-92646204D01*
X144494505Y-92646204D01*
G37*
D13*
X144145000Y-93345000D03*
D12*
G36*
X151624505Y-90741204D02*
X151648773Y-90744804D01*
X151672572Y-90750765D01*
X151695671Y-90759030D01*
X151717850Y-90769520D01*
X151738893Y-90782132D01*
X151758599Y-90796747D01*
X151776777Y-90813223D01*
X151793253Y-90831401D01*
X151807868Y-90851107D01*
X151820480Y-90872150D01*
X151830970Y-90894329D01*
X151839235Y-90917428D01*
X151845196Y-90941227D01*
X151848796Y-90965495D01*
X151850000Y-90989999D01*
X151850000Y-91890001D01*
X151848796Y-91914505D01*
X151845196Y-91938773D01*
X151839235Y-91962572D01*
X151830970Y-91985671D01*
X151820480Y-92007850D01*
X151807868Y-92028893D01*
X151793253Y-92048599D01*
X151776777Y-92066777D01*
X151758599Y-92083253D01*
X151738893Y-92097868D01*
X151717850Y-92110480D01*
X151695671Y-92120970D01*
X151672572Y-92129235D01*
X151648773Y-92135196D01*
X151624505Y-92138796D01*
X151600001Y-92140000D01*
X150949999Y-92140000D01*
X150925495Y-92138796D01*
X150901227Y-92135196D01*
X150877428Y-92129235D01*
X150854329Y-92120970D01*
X150832150Y-92110480D01*
X150811107Y-92097868D01*
X150791401Y-92083253D01*
X150773223Y-92066777D01*
X150756747Y-92048599D01*
X150742132Y-92028893D01*
X150729520Y-92007850D01*
X150719030Y-91985671D01*
X150710765Y-91962572D01*
X150704804Y-91938773D01*
X150701204Y-91914505D01*
X150700000Y-91890001D01*
X150700000Y-90989999D01*
X150701204Y-90965495D01*
X150704804Y-90941227D01*
X150710765Y-90917428D01*
X150719030Y-90894329D01*
X150729520Y-90872150D01*
X150742132Y-90851107D01*
X150756747Y-90831401D01*
X150773223Y-90813223D01*
X150791401Y-90796747D01*
X150811107Y-90782132D01*
X150832150Y-90769520D01*
X150854329Y-90759030D01*
X150877428Y-90750765D01*
X150901227Y-90744804D01*
X150925495Y-90741204D01*
X150949999Y-90740000D01*
X151600001Y-90740000D01*
X151624505Y-90741204D01*
X151624505Y-90741204D01*
G37*
D13*
X151275000Y-91440000D03*
D12*
G36*
X149574505Y-90741204D02*
X149598773Y-90744804D01*
X149622572Y-90750765D01*
X149645671Y-90759030D01*
X149667850Y-90769520D01*
X149688893Y-90782132D01*
X149708599Y-90796747D01*
X149726777Y-90813223D01*
X149743253Y-90831401D01*
X149757868Y-90851107D01*
X149770480Y-90872150D01*
X149780970Y-90894329D01*
X149789235Y-90917428D01*
X149795196Y-90941227D01*
X149798796Y-90965495D01*
X149800000Y-90989999D01*
X149800000Y-91890001D01*
X149798796Y-91914505D01*
X149795196Y-91938773D01*
X149789235Y-91962572D01*
X149780970Y-91985671D01*
X149770480Y-92007850D01*
X149757868Y-92028893D01*
X149743253Y-92048599D01*
X149726777Y-92066777D01*
X149708599Y-92083253D01*
X149688893Y-92097868D01*
X149667850Y-92110480D01*
X149645671Y-92120970D01*
X149622572Y-92129235D01*
X149598773Y-92135196D01*
X149574505Y-92138796D01*
X149550001Y-92140000D01*
X148899999Y-92140000D01*
X148875495Y-92138796D01*
X148851227Y-92135196D01*
X148827428Y-92129235D01*
X148804329Y-92120970D01*
X148782150Y-92110480D01*
X148761107Y-92097868D01*
X148741401Y-92083253D01*
X148723223Y-92066777D01*
X148706747Y-92048599D01*
X148692132Y-92028893D01*
X148679520Y-92007850D01*
X148669030Y-91985671D01*
X148660765Y-91962572D01*
X148654804Y-91938773D01*
X148651204Y-91914505D01*
X148650000Y-91890001D01*
X148650000Y-90989999D01*
X148651204Y-90965495D01*
X148654804Y-90941227D01*
X148660765Y-90917428D01*
X148669030Y-90894329D01*
X148679520Y-90872150D01*
X148692132Y-90851107D01*
X148706747Y-90831401D01*
X148723223Y-90813223D01*
X148741401Y-90796747D01*
X148761107Y-90782132D01*
X148782150Y-90769520D01*
X148804329Y-90759030D01*
X148827428Y-90750765D01*
X148851227Y-90744804D01*
X148875495Y-90741204D01*
X148899999Y-90740000D01*
X149550001Y-90740000D01*
X149574505Y-90741204D01*
X149574505Y-90741204D01*
G37*
D13*
X149225000Y-91440000D03*
D12*
G36*
X149574505Y-92646204D02*
X149598773Y-92649804D01*
X149622572Y-92655765D01*
X149645671Y-92664030D01*
X149667850Y-92674520D01*
X149688893Y-92687132D01*
X149708599Y-92701747D01*
X149726777Y-92718223D01*
X149743253Y-92736401D01*
X149757868Y-92756107D01*
X149770480Y-92777150D01*
X149780970Y-92799329D01*
X149789235Y-92822428D01*
X149795196Y-92846227D01*
X149798796Y-92870495D01*
X149800000Y-92894999D01*
X149800000Y-93795001D01*
X149798796Y-93819505D01*
X149795196Y-93843773D01*
X149789235Y-93867572D01*
X149780970Y-93890671D01*
X149770480Y-93912850D01*
X149757868Y-93933893D01*
X149743253Y-93953599D01*
X149726777Y-93971777D01*
X149708599Y-93988253D01*
X149688893Y-94002868D01*
X149667850Y-94015480D01*
X149645671Y-94025970D01*
X149622572Y-94034235D01*
X149598773Y-94040196D01*
X149574505Y-94043796D01*
X149550001Y-94045000D01*
X148899999Y-94045000D01*
X148875495Y-94043796D01*
X148851227Y-94040196D01*
X148827428Y-94034235D01*
X148804329Y-94025970D01*
X148782150Y-94015480D01*
X148761107Y-94002868D01*
X148741401Y-93988253D01*
X148723223Y-93971777D01*
X148706747Y-93953599D01*
X148692132Y-93933893D01*
X148679520Y-93912850D01*
X148669030Y-93890671D01*
X148660765Y-93867572D01*
X148654804Y-93843773D01*
X148651204Y-93819505D01*
X148650000Y-93795001D01*
X148650000Y-92894999D01*
X148651204Y-92870495D01*
X148654804Y-92846227D01*
X148660765Y-92822428D01*
X148669030Y-92799329D01*
X148679520Y-92777150D01*
X148692132Y-92756107D01*
X148706747Y-92736401D01*
X148723223Y-92718223D01*
X148741401Y-92701747D01*
X148761107Y-92687132D01*
X148782150Y-92674520D01*
X148804329Y-92664030D01*
X148827428Y-92655765D01*
X148851227Y-92649804D01*
X148875495Y-92646204D01*
X148899999Y-92645000D01*
X149550001Y-92645000D01*
X149574505Y-92646204D01*
X149574505Y-92646204D01*
G37*
D13*
X149225000Y-93345000D03*
D12*
G36*
X151624505Y-92646204D02*
X151648773Y-92649804D01*
X151672572Y-92655765D01*
X151695671Y-92664030D01*
X151717850Y-92674520D01*
X151738893Y-92687132D01*
X151758599Y-92701747D01*
X151776777Y-92718223D01*
X151793253Y-92736401D01*
X151807868Y-92756107D01*
X151820480Y-92777150D01*
X151830970Y-92799329D01*
X151839235Y-92822428D01*
X151845196Y-92846227D01*
X151848796Y-92870495D01*
X151850000Y-92894999D01*
X151850000Y-93795001D01*
X151848796Y-93819505D01*
X151845196Y-93843773D01*
X151839235Y-93867572D01*
X151830970Y-93890671D01*
X151820480Y-93912850D01*
X151807868Y-93933893D01*
X151793253Y-93953599D01*
X151776777Y-93971777D01*
X151758599Y-93988253D01*
X151738893Y-94002868D01*
X151717850Y-94015480D01*
X151695671Y-94025970D01*
X151672572Y-94034235D01*
X151648773Y-94040196D01*
X151624505Y-94043796D01*
X151600001Y-94045000D01*
X150949999Y-94045000D01*
X150925495Y-94043796D01*
X150901227Y-94040196D01*
X150877428Y-94034235D01*
X150854329Y-94025970D01*
X150832150Y-94015480D01*
X150811107Y-94002868D01*
X150791401Y-93988253D01*
X150773223Y-93971777D01*
X150756747Y-93953599D01*
X150742132Y-93933893D01*
X150729520Y-93912850D01*
X150719030Y-93890671D01*
X150710765Y-93867572D01*
X150704804Y-93843773D01*
X150701204Y-93819505D01*
X150700000Y-93795001D01*
X150700000Y-92894999D01*
X150701204Y-92870495D01*
X150704804Y-92846227D01*
X150710765Y-92822428D01*
X150719030Y-92799329D01*
X150729520Y-92777150D01*
X150742132Y-92756107D01*
X150756747Y-92736401D01*
X150773223Y-92718223D01*
X150791401Y-92701747D01*
X150811107Y-92687132D01*
X150832150Y-92674520D01*
X150854329Y-92664030D01*
X150877428Y-92655765D01*
X150901227Y-92649804D01*
X150925495Y-92646204D01*
X150949999Y-92645000D01*
X151600001Y-92645000D01*
X151624505Y-92646204D01*
X151624505Y-92646204D01*
G37*
D13*
X151275000Y-93345000D03*
M02*
