%TF.GenerationSoftware,KiCad,Pcbnew,(5.0.0)*%
%TF.CreationDate,2018-09-16T11:13:21+01:00*%
%TF.ProjectId,AquaHub,417175614875622E6B696361645F7063,rev?*%
%TF.SameCoordinates,Original*%
%TF.FileFunction,Soldermask,Top*%
%TF.FilePolarity,Negative*%
%FSLAX46Y46*%
G04 Gerber Fmt 4.6, Leading zero omitted, Abs format (unit mm)*
G04 Created by KiCad (PCBNEW (5.0.0)) date 09/16/18 11:13:21*
%MOMM*%
%LPD*%
G01*
G04 APERTURE LIST*
%ADD10C,0.080000*%
%ADD11C,0.200000*%
%ADD12C,0.150000*%
%ADD13C,1.550000*%
%ADD14R,2.400000X2.400000*%
%ADD15C,2.400000*%
%ADD16C,2.900000*%
%ADD17O,2.100000X2.100000*%
%ADD18R,2.100000X2.100000*%
%ADD19O,1.470000X2.200000*%
%ADD20R,1.470000X2.200000*%
%ADD21O,2.127200X2.127200*%
%ADD22R,2.127200X2.127200*%
%ADD23R,2.000000X3.400000*%
%ADD24C,1.900000*%
%ADD25C,2.200000*%
%ADD26R,6.800000X6.200000*%
%ADD27R,2.600000X1.600000*%
%ADD28R,1.900000X1.000000*%
%ADD29R,1.000000X1.950000*%
%ADD30C,4.700000*%
%ADD31C,1.400000*%
%ADD32R,2.000000X3.900000*%
%ADD33C,3.000000*%
%ADD34R,3.000000X3.000000*%
%ADD35R,6.400000X6.400000*%
%ADD36O,2.900000X1.300000*%
%ADD37O,1.300000X2.900000*%
%ADD38C,3.200000*%
%ADD39R,1.300000X1.200000*%
%ADD40C,3.180000*%
G04 APERTURE END LIST*
D10*
X55880000Y-104140000D02*
X55880000Y-102870000D01*
X66040000Y-104140000D02*
X55880000Y-104140000D01*
X66040000Y-102870000D02*
X66040000Y-104140000D01*
X55880000Y-102870000D02*
X66040000Y-102870000D01*
D11*
X50800000Y-102870000D02*
X47879000Y-102870000D01*
X50800000Y-106045000D02*
X50800000Y-102870000D01*
X146050000Y-115570000D02*
X146050000Y-118110000D01*
X140680000Y-77590000D02*
X140680000Y-75590000D01*
X148180000Y-75590000D02*
X148180000Y-77590000D01*
X148180000Y-77590000D02*
X208180000Y-77590000D01*
X208180000Y-75590000D02*
X148180000Y-75590000D01*
X208180000Y-53590000D02*
X208180000Y-75590000D01*
X38180000Y-53590000D02*
X208180000Y-53590000D01*
X38180000Y-75590000D02*
X38180000Y-53590000D01*
X140680000Y-75590000D02*
X38180000Y-75590000D01*
X48006000Y-118364000D02*
X47879000Y-102870000D01*
X146050000Y-118110000D02*
X48006000Y-118364000D01*
X50800000Y-115570000D02*
X146050000Y-115570000D01*
X50800000Y-106045000D02*
X50800000Y-115570000D01*
X38180000Y-153590000D02*
X208180000Y-153590000D01*
X38180000Y-77590000D02*
X38180000Y-153590000D01*
X140680000Y-77590000D02*
X38180000Y-77590000D01*
X208180000Y-77590000D02*
X208180000Y-153590000D01*
D12*
G36*
X146666071Y-100066623D02*
X146698781Y-100071475D01*
X146730857Y-100079509D01*
X146761991Y-100090649D01*
X146791884Y-100104787D01*
X146820247Y-100121787D01*
X146846807Y-100141485D01*
X146871308Y-100163692D01*
X146893515Y-100188193D01*
X146913213Y-100214753D01*
X146930213Y-100243116D01*
X146944351Y-100273009D01*
X146955491Y-100304143D01*
X146963525Y-100336219D01*
X146968377Y-100368929D01*
X146970000Y-100401956D01*
X146970000Y-101528044D01*
X146968377Y-101561071D01*
X146963525Y-101593781D01*
X146955491Y-101625857D01*
X146944351Y-101656991D01*
X146930213Y-101686884D01*
X146913213Y-101715247D01*
X146893515Y-101741807D01*
X146871308Y-101766308D01*
X146846807Y-101788515D01*
X146820247Y-101808213D01*
X146791884Y-101825213D01*
X146761991Y-101839351D01*
X146730857Y-101850491D01*
X146698781Y-101858525D01*
X146666071Y-101863377D01*
X146633044Y-101865000D01*
X145756956Y-101865000D01*
X145723929Y-101863377D01*
X145691219Y-101858525D01*
X145659143Y-101850491D01*
X145628009Y-101839351D01*
X145598116Y-101825213D01*
X145569753Y-101808213D01*
X145543193Y-101788515D01*
X145518692Y-101766308D01*
X145496485Y-101741807D01*
X145476787Y-101715247D01*
X145459787Y-101686884D01*
X145445649Y-101656991D01*
X145434509Y-101625857D01*
X145426475Y-101593781D01*
X145421623Y-101561071D01*
X145420000Y-101528044D01*
X145420000Y-100401956D01*
X145421623Y-100368929D01*
X145426475Y-100336219D01*
X145434509Y-100304143D01*
X145445649Y-100273009D01*
X145459787Y-100243116D01*
X145476787Y-100214753D01*
X145496485Y-100188193D01*
X145518692Y-100163692D01*
X145543193Y-100141485D01*
X145569753Y-100121787D01*
X145598116Y-100104787D01*
X145628009Y-100090649D01*
X145659143Y-100079509D01*
X145691219Y-100071475D01*
X145723929Y-100066623D01*
X145756956Y-100065000D01*
X146633044Y-100065000D01*
X146666071Y-100066623D01*
X146666071Y-100066623D01*
G37*
D13*
X146195000Y-100965000D03*
D12*
G36*
X144616071Y-100066623D02*
X144648781Y-100071475D01*
X144680857Y-100079509D01*
X144711991Y-100090649D01*
X144741884Y-100104787D01*
X144770247Y-100121787D01*
X144796807Y-100141485D01*
X144821308Y-100163692D01*
X144843515Y-100188193D01*
X144863213Y-100214753D01*
X144880213Y-100243116D01*
X144894351Y-100273009D01*
X144905491Y-100304143D01*
X144913525Y-100336219D01*
X144918377Y-100368929D01*
X144920000Y-100401956D01*
X144920000Y-101528044D01*
X144918377Y-101561071D01*
X144913525Y-101593781D01*
X144905491Y-101625857D01*
X144894351Y-101656991D01*
X144880213Y-101686884D01*
X144863213Y-101715247D01*
X144843515Y-101741807D01*
X144821308Y-101766308D01*
X144796807Y-101788515D01*
X144770247Y-101808213D01*
X144741884Y-101825213D01*
X144711991Y-101839351D01*
X144680857Y-101850491D01*
X144648781Y-101858525D01*
X144616071Y-101863377D01*
X144583044Y-101865000D01*
X143706956Y-101865000D01*
X143673929Y-101863377D01*
X143641219Y-101858525D01*
X143609143Y-101850491D01*
X143578009Y-101839351D01*
X143548116Y-101825213D01*
X143519753Y-101808213D01*
X143493193Y-101788515D01*
X143468692Y-101766308D01*
X143446485Y-101741807D01*
X143426787Y-101715247D01*
X143409787Y-101686884D01*
X143395649Y-101656991D01*
X143384509Y-101625857D01*
X143376475Y-101593781D01*
X143371623Y-101561071D01*
X143370000Y-101528044D01*
X143370000Y-100401956D01*
X143371623Y-100368929D01*
X143376475Y-100336219D01*
X143384509Y-100304143D01*
X143395649Y-100273009D01*
X143409787Y-100243116D01*
X143426787Y-100214753D01*
X143446485Y-100188193D01*
X143468692Y-100163692D01*
X143493193Y-100141485D01*
X143519753Y-100121787D01*
X143548116Y-100104787D01*
X143578009Y-100090649D01*
X143609143Y-100079509D01*
X143641219Y-100071475D01*
X143673929Y-100066623D01*
X143706956Y-100065000D01*
X144583044Y-100065000D01*
X144616071Y-100066623D01*
X144616071Y-100066623D01*
G37*
D13*
X144145000Y-100965000D03*
D12*
G36*
X144616071Y-98161623D02*
X144648781Y-98166475D01*
X144680857Y-98174509D01*
X144711991Y-98185649D01*
X144741884Y-98199787D01*
X144770247Y-98216787D01*
X144796807Y-98236485D01*
X144821308Y-98258692D01*
X144843515Y-98283193D01*
X144863213Y-98309753D01*
X144880213Y-98338116D01*
X144894351Y-98368009D01*
X144905491Y-98399143D01*
X144913525Y-98431219D01*
X144918377Y-98463929D01*
X144920000Y-98496956D01*
X144920000Y-99623044D01*
X144918377Y-99656071D01*
X144913525Y-99688781D01*
X144905491Y-99720857D01*
X144894351Y-99751991D01*
X144880213Y-99781884D01*
X144863213Y-99810247D01*
X144843515Y-99836807D01*
X144821308Y-99861308D01*
X144796807Y-99883515D01*
X144770247Y-99903213D01*
X144741884Y-99920213D01*
X144711991Y-99934351D01*
X144680857Y-99945491D01*
X144648781Y-99953525D01*
X144616071Y-99958377D01*
X144583044Y-99960000D01*
X143706956Y-99960000D01*
X143673929Y-99958377D01*
X143641219Y-99953525D01*
X143609143Y-99945491D01*
X143578009Y-99934351D01*
X143548116Y-99920213D01*
X143519753Y-99903213D01*
X143493193Y-99883515D01*
X143468692Y-99861308D01*
X143446485Y-99836807D01*
X143426787Y-99810247D01*
X143409787Y-99781884D01*
X143395649Y-99751991D01*
X143384509Y-99720857D01*
X143376475Y-99688781D01*
X143371623Y-99656071D01*
X143370000Y-99623044D01*
X143370000Y-98496956D01*
X143371623Y-98463929D01*
X143376475Y-98431219D01*
X143384509Y-98399143D01*
X143395649Y-98368009D01*
X143409787Y-98338116D01*
X143426787Y-98309753D01*
X143446485Y-98283193D01*
X143468692Y-98258692D01*
X143493193Y-98236485D01*
X143519753Y-98216787D01*
X143548116Y-98199787D01*
X143578009Y-98185649D01*
X143609143Y-98174509D01*
X143641219Y-98166475D01*
X143673929Y-98161623D01*
X143706956Y-98160000D01*
X144583044Y-98160000D01*
X144616071Y-98161623D01*
X144616071Y-98161623D01*
G37*
D13*
X144145000Y-99060000D03*
D12*
G36*
X146666071Y-98161623D02*
X146698781Y-98166475D01*
X146730857Y-98174509D01*
X146761991Y-98185649D01*
X146791884Y-98199787D01*
X146820247Y-98216787D01*
X146846807Y-98236485D01*
X146871308Y-98258692D01*
X146893515Y-98283193D01*
X146913213Y-98309753D01*
X146930213Y-98338116D01*
X146944351Y-98368009D01*
X146955491Y-98399143D01*
X146963525Y-98431219D01*
X146968377Y-98463929D01*
X146970000Y-98496956D01*
X146970000Y-99623044D01*
X146968377Y-99656071D01*
X146963525Y-99688781D01*
X146955491Y-99720857D01*
X146944351Y-99751991D01*
X146930213Y-99781884D01*
X146913213Y-99810247D01*
X146893515Y-99836807D01*
X146871308Y-99861308D01*
X146846807Y-99883515D01*
X146820247Y-99903213D01*
X146791884Y-99920213D01*
X146761991Y-99934351D01*
X146730857Y-99945491D01*
X146698781Y-99953525D01*
X146666071Y-99958377D01*
X146633044Y-99960000D01*
X145756956Y-99960000D01*
X145723929Y-99958377D01*
X145691219Y-99953525D01*
X145659143Y-99945491D01*
X145628009Y-99934351D01*
X145598116Y-99920213D01*
X145569753Y-99903213D01*
X145543193Y-99883515D01*
X145518692Y-99861308D01*
X145496485Y-99836807D01*
X145476787Y-99810247D01*
X145459787Y-99781884D01*
X145445649Y-99751991D01*
X145434509Y-99720857D01*
X145426475Y-99688781D01*
X145421623Y-99656071D01*
X145420000Y-99623044D01*
X145420000Y-98496956D01*
X145421623Y-98463929D01*
X145426475Y-98431219D01*
X145434509Y-98399143D01*
X145445649Y-98368009D01*
X145459787Y-98338116D01*
X145476787Y-98309753D01*
X145496485Y-98283193D01*
X145518692Y-98258692D01*
X145543193Y-98236485D01*
X145569753Y-98216787D01*
X145598116Y-98199787D01*
X145628009Y-98185649D01*
X145659143Y-98174509D01*
X145691219Y-98166475D01*
X145723929Y-98161623D01*
X145756956Y-98160000D01*
X146633044Y-98160000D01*
X146666071Y-98161623D01*
X146666071Y-98161623D01*
G37*
D13*
X146195000Y-99060000D03*
D12*
G36*
X146666071Y-96256623D02*
X146698781Y-96261475D01*
X146730857Y-96269509D01*
X146761991Y-96280649D01*
X146791884Y-96294787D01*
X146820247Y-96311787D01*
X146846807Y-96331485D01*
X146871308Y-96353692D01*
X146893515Y-96378193D01*
X146913213Y-96404753D01*
X146930213Y-96433116D01*
X146944351Y-96463009D01*
X146955491Y-96494143D01*
X146963525Y-96526219D01*
X146968377Y-96558929D01*
X146970000Y-96591956D01*
X146970000Y-97718044D01*
X146968377Y-97751071D01*
X146963525Y-97783781D01*
X146955491Y-97815857D01*
X146944351Y-97846991D01*
X146930213Y-97876884D01*
X146913213Y-97905247D01*
X146893515Y-97931807D01*
X146871308Y-97956308D01*
X146846807Y-97978515D01*
X146820247Y-97998213D01*
X146791884Y-98015213D01*
X146761991Y-98029351D01*
X146730857Y-98040491D01*
X146698781Y-98048525D01*
X146666071Y-98053377D01*
X146633044Y-98055000D01*
X145756956Y-98055000D01*
X145723929Y-98053377D01*
X145691219Y-98048525D01*
X145659143Y-98040491D01*
X145628009Y-98029351D01*
X145598116Y-98015213D01*
X145569753Y-97998213D01*
X145543193Y-97978515D01*
X145518692Y-97956308D01*
X145496485Y-97931807D01*
X145476787Y-97905247D01*
X145459787Y-97876884D01*
X145445649Y-97846991D01*
X145434509Y-97815857D01*
X145426475Y-97783781D01*
X145421623Y-97751071D01*
X145420000Y-97718044D01*
X145420000Y-96591956D01*
X145421623Y-96558929D01*
X145426475Y-96526219D01*
X145434509Y-96494143D01*
X145445649Y-96463009D01*
X145459787Y-96433116D01*
X145476787Y-96404753D01*
X145496485Y-96378193D01*
X145518692Y-96353692D01*
X145543193Y-96331485D01*
X145569753Y-96311787D01*
X145598116Y-96294787D01*
X145628009Y-96280649D01*
X145659143Y-96269509D01*
X145691219Y-96261475D01*
X145723929Y-96256623D01*
X145756956Y-96255000D01*
X146633044Y-96255000D01*
X146666071Y-96256623D01*
X146666071Y-96256623D01*
G37*
D13*
X146195000Y-97155000D03*
D12*
G36*
X144616071Y-96256623D02*
X144648781Y-96261475D01*
X144680857Y-96269509D01*
X144711991Y-96280649D01*
X144741884Y-96294787D01*
X144770247Y-96311787D01*
X144796807Y-96331485D01*
X144821308Y-96353692D01*
X144843515Y-96378193D01*
X144863213Y-96404753D01*
X144880213Y-96433116D01*
X144894351Y-96463009D01*
X144905491Y-96494143D01*
X144913525Y-96526219D01*
X144918377Y-96558929D01*
X144920000Y-96591956D01*
X144920000Y-97718044D01*
X144918377Y-97751071D01*
X144913525Y-97783781D01*
X144905491Y-97815857D01*
X144894351Y-97846991D01*
X144880213Y-97876884D01*
X144863213Y-97905247D01*
X144843515Y-97931807D01*
X144821308Y-97956308D01*
X144796807Y-97978515D01*
X144770247Y-97998213D01*
X144741884Y-98015213D01*
X144711991Y-98029351D01*
X144680857Y-98040491D01*
X144648781Y-98048525D01*
X144616071Y-98053377D01*
X144583044Y-98055000D01*
X143706956Y-98055000D01*
X143673929Y-98053377D01*
X143641219Y-98048525D01*
X143609143Y-98040491D01*
X143578009Y-98029351D01*
X143548116Y-98015213D01*
X143519753Y-97998213D01*
X143493193Y-97978515D01*
X143468692Y-97956308D01*
X143446485Y-97931807D01*
X143426787Y-97905247D01*
X143409787Y-97876884D01*
X143395649Y-97846991D01*
X143384509Y-97815857D01*
X143376475Y-97783781D01*
X143371623Y-97751071D01*
X143370000Y-97718044D01*
X143370000Y-96591956D01*
X143371623Y-96558929D01*
X143376475Y-96526219D01*
X143384509Y-96494143D01*
X143395649Y-96463009D01*
X143409787Y-96433116D01*
X143426787Y-96404753D01*
X143446485Y-96378193D01*
X143468692Y-96353692D01*
X143493193Y-96331485D01*
X143519753Y-96311787D01*
X143548116Y-96294787D01*
X143578009Y-96280649D01*
X143609143Y-96269509D01*
X143641219Y-96261475D01*
X143673929Y-96256623D01*
X143706956Y-96255000D01*
X144583044Y-96255000D01*
X144616071Y-96256623D01*
X144616071Y-96256623D01*
G37*
D13*
X144145000Y-97155000D03*
D12*
G36*
X144616071Y-94351623D02*
X144648781Y-94356475D01*
X144680857Y-94364509D01*
X144711991Y-94375649D01*
X144741884Y-94389787D01*
X144770247Y-94406787D01*
X144796807Y-94426485D01*
X144821308Y-94448692D01*
X144843515Y-94473193D01*
X144863213Y-94499753D01*
X144880213Y-94528116D01*
X144894351Y-94558009D01*
X144905491Y-94589143D01*
X144913525Y-94621219D01*
X144918377Y-94653929D01*
X144920000Y-94686956D01*
X144920000Y-95813044D01*
X144918377Y-95846071D01*
X144913525Y-95878781D01*
X144905491Y-95910857D01*
X144894351Y-95941991D01*
X144880213Y-95971884D01*
X144863213Y-96000247D01*
X144843515Y-96026807D01*
X144821308Y-96051308D01*
X144796807Y-96073515D01*
X144770247Y-96093213D01*
X144741884Y-96110213D01*
X144711991Y-96124351D01*
X144680857Y-96135491D01*
X144648781Y-96143525D01*
X144616071Y-96148377D01*
X144583044Y-96150000D01*
X143706956Y-96150000D01*
X143673929Y-96148377D01*
X143641219Y-96143525D01*
X143609143Y-96135491D01*
X143578009Y-96124351D01*
X143548116Y-96110213D01*
X143519753Y-96093213D01*
X143493193Y-96073515D01*
X143468692Y-96051308D01*
X143446485Y-96026807D01*
X143426787Y-96000247D01*
X143409787Y-95971884D01*
X143395649Y-95941991D01*
X143384509Y-95910857D01*
X143376475Y-95878781D01*
X143371623Y-95846071D01*
X143370000Y-95813044D01*
X143370000Y-94686956D01*
X143371623Y-94653929D01*
X143376475Y-94621219D01*
X143384509Y-94589143D01*
X143395649Y-94558009D01*
X143409787Y-94528116D01*
X143426787Y-94499753D01*
X143446485Y-94473193D01*
X143468692Y-94448692D01*
X143493193Y-94426485D01*
X143519753Y-94406787D01*
X143548116Y-94389787D01*
X143578009Y-94375649D01*
X143609143Y-94364509D01*
X143641219Y-94356475D01*
X143673929Y-94351623D01*
X143706956Y-94350000D01*
X144583044Y-94350000D01*
X144616071Y-94351623D01*
X144616071Y-94351623D01*
G37*
D13*
X144145000Y-95250000D03*
D12*
G36*
X146666071Y-94351623D02*
X146698781Y-94356475D01*
X146730857Y-94364509D01*
X146761991Y-94375649D01*
X146791884Y-94389787D01*
X146820247Y-94406787D01*
X146846807Y-94426485D01*
X146871308Y-94448692D01*
X146893515Y-94473193D01*
X146913213Y-94499753D01*
X146930213Y-94528116D01*
X146944351Y-94558009D01*
X146955491Y-94589143D01*
X146963525Y-94621219D01*
X146968377Y-94653929D01*
X146970000Y-94686956D01*
X146970000Y-95813044D01*
X146968377Y-95846071D01*
X146963525Y-95878781D01*
X146955491Y-95910857D01*
X146944351Y-95941991D01*
X146930213Y-95971884D01*
X146913213Y-96000247D01*
X146893515Y-96026807D01*
X146871308Y-96051308D01*
X146846807Y-96073515D01*
X146820247Y-96093213D01*
X146791884Y-96110213D01*
X146761991Y-96124351D01*
X146730857Y-96135491D01*
X146698781Y-96143525D01*
X146666071Y-96148377D01*
X146633044Y-96150000D01*
X145756956Y-96150000D01*
X145723929Y-96148377D01*
X145691219Y-96143525D01*
X145659143Y-96135491D01*
X145628009Y-96124351D01*
X145598116Y-96110213D01*
X145569753Y-96093213D01*
X145543193Y-96073515D01*
X145518692Y-96051308D01*
X145496485Y-96026807D01*
X145476787Y-96000247D01*
X145459787Y-95971884D01*
X145445649Y-95941991D01*
X145434509Y-95910857D01*
X145426475Y-95878781D01*
X145421623Y-95846071D01*
X145420000Y-95813044D01*
X145420000Y-94686956D01*
X145421623Y-94653929D01*
X145426475Y-94621219D01*
X145434509Y-94589143D01*
X145445649Y-94558009D01*
X145459787Y-94528116D01*
X145476787Y-94499753D01*
X145496485Y-94473193D01*
X145518692Y-94448692D01*
X145543193Y-94426485D01*
X145569753Y-94406787D01*
X145598116Y-94389787D01*
X145628009Y-94375649D01*
X145659143Y-94364509D01*
X145691219Y-94356475D01*
X145723929Y-94351623D01*
X145756956Y-94350000D01*
X146633044Y-94350000D01*
X146666071Y-94351623D01*
X146666071Y-94351623D01*
G37*
D13*
X146195000Y-95250000D03*
D12*
G36*
X149696071Y-100066623D02*
X149728781Y-100071475D01*
X149760857Y-100079509D01*
X149791991Y-100090649D01*
X149821884Y-100104787D01*
X149850247Y-100121787D01*
X149876807Y-100141485D01*
X149901308Y-100163692D01*
X149923515Y-100188193D01*
X149943213Y-100214753D01*
X149960213Y-100243116D01*
X149974351Y-100273009D01*
X149985491Y-100304143D01*
X149993525Y-100336219D01*
X149998377Y-100368929D01*
X150000000Y-100401956D01*
X150000000Y-101528044D01*
X149998377Y-101561071D01*
X149993525Y-101593781D01*
X149985491Y-101625857D01*
X149974351Y-101656991D01*
X149960213Y-101686884D01*
X149943213Y-101715247D01*
X149923515Y-101741807D01*
X149901308Y-101766308D01*
X149876807Y-101788515D01*
X149850247Y-101808213D01*
X149821884Y-101825213D01*
X149791991Y-101839351D01*
X149760857Y-101850491D01*
X149728781Y-101858525D01*
X149696071Y-101863377D01*
X149663044Y-101865000D01*
X148786956Y-101865000D01*
X148753929Y-101863377D01*
X148721219Y-101858525D01*
X148689143Y-101850491D01*
X148658009Y-101839351D01*
X148628116Y-101825213D01*
X148599753Y-101808213D01*
X148573193Y-101788515D01*
X148548692Y-101766308D01*
X148526485Y-101741807D01*
X148506787Y-101715247D01*
X148489787Y-101686884D01*
X148475649Y-101656991D01*
X148464509Y-101625857D01*
X148456475Y-101593781D01*
X148451623Y-101561071D01*
X148450000Y-101528044D01*
X148450000Y-100401956D01*
X148451623Y-100368929D01*
X148456475Y-100336219D01*
X148464509Y-100304143D01*
X148475649Y-100273009D01*
X148489787Y-100243116D01*
X148506787Y-100214753D01*
X148526485Y-100188193D01*
X148548692Y-100163692D01*
X148573193Y-100141485D01*
X148599753Y-100121787D01*
X148628116Y-100104787D01*
X148658009Y-100090649D01*
X148689143Y-100079509D01*
X148721219Y-100071475D01*
X148753929Y-100066623D01*
X148786956Y-100065000D01*
X149663044Y-100065000D01*
X149696071Y-100066623D01*
X149696071Y-100066623D01*
G37*
D13*
X149225000Y-100965000D03*
D12*
G36*
X151746071Y-100066623D02*
X151778781Y-100071475D01*
X151810857Y-100079509D01*
X151841991Y-100090649D01*
X151871884Y-100104787D01*
X151900247Y-100121787D01*
X151926807Y-100141485D01*
X151951308Y-100163692D01*
X151973515Y-100188193D01*
X151993213Y-100214753D01*
X152010213Y-100243116D01*
X152024351Y-100273009D01*
X152035491Y-100304143D01*
X152043525Y-100336219D01*
X152048377Y-100368929D01*
X152050000Y-100401956D01*
X152050000Y-101528044D01*
X152048377Y-101561071D01*
X152043525Y-101593781D01*
X152035491Y-101625857D01*
X152024351Y-101656991D01*
X152010213Y-101686884D01*
X151993213Y-101715247D01*
X151973515Y-101741807D01*
X151951308Y-101766308D01*
X151926807Y-101788515D01*
X151900247Y-101808213D01*
X151871884Y-101825213D01*
X151841991Y-101839351D01*
X151810857Y-101850491D01*
X151778781Y-101858525D01*
X151746071Y-101863377D01*
X151713044Y-101865000D01*
X150836956Y-101865000D01*
X150803929Y-101863377D01*
X150771219Y-101858525D01*
X150739143Y-101850491D01*
X150708009Y-101839351D01*
X150678116Y-101825213D01*
X150649753Y-101808213D01*
X150623193Y-101788515D01*
X150598692Y-101766308D01*
X150576485Y-101741807D01*
X150556787Y-101715247D01*
X150539787Y-101686884D01*
X150525649Y-101656991D01*
X150514509Y-101625857D01*
X150506475Y-101593781D01*
X150501623Y-101561071D01*
X150500000Y-101528044D01*
X150500000Y-100401956D01*
X150501623Y-100368929D01*
X150506475Y-100336219D01*
X150514509Y-100304143D01*
X150525649Y-100273009D01*
X150539787Y-100243116D01*
X150556787Y-100214753D01*
X150576485Y-100188193D01*
X150598692Y-100163692D01*
X150623193Y-100141485D01*
X150649753Y-100121787D01*
X150678116Y-100104787D01*
X150708009Y-100090649D01*
X150739143Y-100079509D01*
X150771219Y-100071475D01*
X150803929Y-100066623D01*
X150836956Y-100065000D01*
X151713044Y-100065000D01*
X151746071Y-100066623D01*
X151746071Y-100066623D01*
G37*
D13*
X151275000Y-100965000D03*
D12*
G36*
X151746071Y-98161623D02*
X151778781Y-98166475D01*
X151810857Y-98174509D01*
X151841991Y-98185649D01*
X151871884Y-98199787D01*
X151900247Y-98216787D01*
X151926807Y-98236485D01*
X151951308Y-98258692D01*
X151973515Y-98283193D01*
X151993213Y-98309753D01*
X152010213Y-98338116D01*
X152024351Y-98368009D01*
X152035491Y-98399143D01*
X152043525Y-98431219D01*
X152048377Y-98463929D01*
X152050000Y-98496956D01*
X152050000Y-99623044D01*
X152048377Y-99656071D01*
X152043525Y-99688781D01*
X152035491Y-99720857D01*
X152024351Y-99751991D01*
X152010213Y-99781884D01*
X151993213Y-99810247D01*
X151973515Y-99836807D01*
X151951308Y-99861308D01*
X151926807Y-99883515D01*
X151900247Y-99903213D01*
X151871884Y-99920213D01*
X151841991Y-99934351D01*
X151810857Y-99945491D01*
X151778781Y-99953525D01*
X151746071Y-99958377D01*
X151713044Y-99960000D01*
X150836956Y-99960000D01*
X150803929Y-99958377D01*
X150771219Y-99953525D01*
X150739143Y-99945491D01*
X150708009Y-99934351D01*
X150678116Y-99920213D01*
X150649753Y-99903213D01*
X150623193Y-99883515D01*
X150598692Y-99861308D01*
X150576485Y-99836807D01*
X150556787Y-99810247D01*
X150539787Y-99781884D01*
X150525649Y-99751991D01*
X150514509Y-99720857D01*
X150506475Y-99688781D01*
X150501623Y-99656071D01*
X150500000Y-99623044D01*
X150500000Y-98496956D01*
X150501623Y-98463929D01*
X150506475Y-98431219D01*
X150514509Y-98399143D01*
X150525649Y-98368009D01*
X150539787Y-98338116D01*
X150556787Y-98309753D01*
X150576485Y-98283193D01*
X150598692Y-98258692D01*
X150623193Y-98236485D01*
X150649753Y-98216787D01*
X150678116Y-98199787D01*
X150708009Y-98185649D01*
X150739143Y-98174509D01*
X150771219Y-98166475D01*
X150803929Y-98161623D01*
X150836956Y-98160000D01*
X151713044Y-98160000D01*
X151746071Y-98161623D01*
X151746071Y-98161623D01*
G37*
D13*
X151275000Y-99060000D03*
D12*
G36*
X149696071Y-98161623D02*
X149728781Y-98166475D01*
X149760857Y-98174509D01*
X149791991Y-98185649D01*
X149821884Y-98199787D01*
X149850247Y-98216787D01*
X149876807Y-98236485D01*
X149901308Y-98258692D01*
X149923515Y-98283193D01*
X149943213Y-98309753D01*
X149960213Y-98338116D01*
X149974351Y-98368009D01*
X149985491Y-98399143D01*
X149993525Y-98431219D01*
X149998377Y-98463929D01*
X150000000Y-98496956D01*
X150000000Y-99623044D01*
X149998377Y-99656071D01*
X149993525Y-99688781D01*
X149985491Y-99720857D01*
X149974351Y-99751991D01*
X149960213Y-99781884D01*
X149943213Y-99810247D01*
X149923515Y-99836807D01*
X149901308Y-99861308D01*
X149876807Y-99883515D01*
X149850247Y-99903213D01*
X149821884Y-99920213D01*
X149791991Y-99934351D01*
X149760857Y-99945491D01*
X149728781Y-99953525D01*
X149696071Y-99958377D01*
X149663044Y-99960000D01*
X148786956Y-99960000D01*
X148753929Y-99958377D01*
X148721219Y-99953525D01*
X148689143Y-99945491D01*
X148658009Y-99934351D01*
X148628116Y-99920213D01*
X148599753Y-99903213D01*
X148573193Y-99883515D01*
X148548692Y-99861308D01*
X148526485Y-99836807D01*
X148506787Y-99810247D01*
X148489787Y-99781884D01*
X148475649Y-99751991D01*
X148464509Y-99720857D01*
X148456475Y-99688781D01*
X148451623Y-99656071D01*
X148450000Y-99623044D01*
X148450000Y-98496956D01*
X148451623Y-98463929D01*
X148456475Y-98431219D01*
X148464509Y-98399143D01*
X148475649Y-98368009D01*
X148489787Y-98338116D01*
X148506787Y-98309753D01*
X148526485Y-98283193D01*
X148548692Y-98258692D01*
X148573193Y-98236485D01*
X148599753Y-98216787D01*
X148628116Y-98199787D01*
X148658009Y-98185649D01*
X148689143Y-98174509D01*
X148721219Y-98166475D01*
X148753929Y-98161623D01*
X148786956Y-98160000D01*
X149663044Y-98160000D01*
X149696071Y-98161623D01*
X149696071Y-98161623D01*
G37*
D13*
X149225000Y-99060000D03*
D12*
G36*
X149696071Y-96256623D02*
X149728781Y-96261475D01*
X149760857Y-96269509D01*
X149791991Y-96280649D01*
X149821884Y-96294787D01*
X149850247Y-96311787D01*
X149876807Y-96331485D01*
X149901308Y-96353692D01*
X149923515Y-96378193D01*
X149943213Y-96404753D01*
X149960213Y-96433116D01*
X149974351Y-96463009D01*
X149985491Y-96494143D01*
X149993525Y-96526219D01*
X149998377Y-96558929D01*
X150000000Y-96591956D01*
X150000000Y-97718044D01*
X149998377Y-97751071D01*
X149993525Y-97783781D01*
X149985491Y-97815857D01*
X149974351Y-97846991D01*
X149960213Y-97876884D01*
X149943213Y-97905247D01*
X149923515Y-97931807D01*
X149901308Y-97956308D01*
X149876807Y-97978515D01*
X149850247Y-97998213D01*
X149821884Y-98015213D01*
X149791991Y-98029351D01*
X149760857Y-98040491D01*
X149728781Y-98048525D01*
X149696071Y-98053377D01*
X149663044Y-98055000D01*
X148786956Y-98055000D01*
X148753929Y-98053377D01*
X148721219Y-98048525D01*
X148689143Y-98040491D01*
X148658009Y-98029351D01*
X148628116Y-98015213D01*
X148599753Y-97998213D01*
X148573193Y-97978515D01*
X148548692Y-97956308D01*
X148526485Y-97931807D01*
X148506787Y-97905247D01*
X148489787Y-97876884D01*
X148475649Y-97846991D01*
X148464509Y-97815857D01*
X148456475Y-97783781D01*
X148451623Y-97751071D01*
X148450000Y-97718044D01*
X148450000Y-96591956D01*
X148451623Y-96558929D01*
X148456475Y-96526219D01*
X148464509Y-96494143D01*
X148475649Y-96463009D01*
X148489787Y-96433116D01*
X148506787Y-96404753D01*
X148526485Y-96378193D01*
X148548692Y-96353692D01*
X148573193Y-96331485D01*
X148599753Y-96311787D01*
X148628116Y-96294787D01*
X148658009Y-96280649D01*
X148689143Y-96269509D01*
X148721219Y-96261475D01*
X148753929Y-96256623D01*
X148786956Y-96255000D01*
X149663044Y-96255000D01*
X149696071Y-96256623D01*
X149696071Y-96256623D01*
G37*
D13*
X149225000Y-97155000D03*
D12*
G36*
X151746071Y-96256623D02*
X151778781Y-96261475D01*
X151810857Y-96269509D01*
X151841991Y-96280649D01*
X151871884Y-96294787D01*
X151900247Y-96311787D01*
X151926807Y-96331485D01*
X151951308Y-96353692D01*
X151973515Y-96378193D01*
X151993213Y-96404753D01*
X152010213Y-96433116D01*
X152024351Y-96463009D01*
X152035491Y-96494143D01*
X152043525Y-96526219D01*
X152048377Y-96558929D01*
X152050000Y-96591956D01*
X152050000Y-97718044D01*
X152048377Y-97751071D01*
X152043525Y-97783781D01*
X152035491Y-97815857D01*
X152024351Y-97846991D01*
X152010213Y-97876884D01*
X151993213Y-97905247D01*
X151973515Y-97931807D01*
X151951308Y-97956308D01*
X151926807Y-97978515D01*
X151900247Y-97998213D01*
X151871884Y-98015213D01*
X151841991Y-98029351D01*
X151810857Y-98040491D01*
X151778781Y-98048525D01*
X151746071Y-98053377D01*
X151713044Y-98055000D01*
X150836956Y-98055000D01*
X150803929Y-98053377D01*
X150771219Y-98048525D01*
X150739143Y-98040491D01*
X150708009Y-98029351D01*
X150678116Y-98015213D01*
X150649753Y-97998213D01*
X150623193Y-97978515D01*
X150598692Y-97956308D01*
X150576485Y-97931807D01*
X150556787Y-97905247D01*
X150539787Y-97876884D01*
X150525649Y-97846991D01*
X150514509Y-97815857D01*
X150506475Y-97783781D01*
X150501623Y-97751071D01*
X150500000Y-97718044D01*
X150500000Y-96591956D01*
X150501623Y-96558929D01*
X150506475Y-96526219D01*
X150514509Y-96494143D01*
X150525649Y-96463009D01*
X150539787Y-96433116D01*
X150556787Y-96404753D01*
X150576485Y-96378193D01*
X150598692Y-96353692D01*
X150623193Y-96331485D01*
X150649753Y-96311787D01*
X150678116Y-96294787D01*
X150708009Y-96280649D01*
X150739143Y-96269509D01*
X150771219Y-96261475D01*
X150803929Y-96256623D01*
X150836956Y-96255000D01*
X151713044Y-96255000D01*
X151746071Y-96256623D01*
X151746071Y-96256623D01*
G37*
D13*
X151275000Y-97155000D03*
D12*
G36*
X151746071Y-94351623D02*
X151778781Y-94356475D01*
X151810857Y-94364509D01*
X151841991Y-94375649D01*
X151871884Y-94389787D01*
X151900247Y-94406787D01*
X151926807Y-94426485D01*
X151951308Y-94448692D01*
X151973515Y-94473193D01*
X151993213Y-94499753D01*
X152010213Y-94528116D01*
X152024351Y-94558009D01*
X152035491Y-94589143D01*
X152043525Y-94621219D01*
X152048377Y-94653929D01*
X152050000Y-94686956D01*
X152050000Y-95813044D01*
X152048377Y-95846071D01*
X152043525Y-95878781D01*
X152035491Y-95910857D01*
X152024351Y-95941991D01*
X152010213Y-95971884D01*
X151993213Y-96000247D01*
X151973515Y-96026807D01*
X151951308Y-96051308D01*
X151926807Y-96073515D01*
X151900247Y-96093213D01*
X151871884Y-96110213D01*
X151841991Y-96124351D01*
X151810857Y-96135491D01*
X151778781Y-96143525D01*
X151746071Y-96148377D01*
X151713044Y-96150000D01*
X150836956Y-96150000D01*
X150803929Y-96148377D01*
X150771219Y-96143525D01*
X150739143Y-96135491D01*
X150708009Y-96124351D01*
X150678116Y-96110213D01*
X150649753Y-96093213D01*
X150623193Y-96073515D01*
X150598692Y-96051308D01*
X150576485Y-96026807D01*
X150556787Y-96000247D01*
X150539787Y-95971884D01*
X150525649Y-95941991D01*
X150514509Y-95910857D01*
X150506475Y-95878781D01*
X150501623Y-95846071D01*
X150500000Y-95813044D01*
X150500000Y-94686956D01*
X150501623Y-94653929D01*
X150506475Y-94621219D01*
X150514509Y-94589143D01*
X150525649Y-94558009D01*
X150539787Y-94528116D01*
X150556787Y-94499753D01*
X150576485Y-94473193D01*
X150598692Y-94448692D01*
X150623193Y-94426485D01*
X150649753Y-94406787D01*
X150678116Y-94389787D01*
X150708009Y-94375649D01*
X150739143Y-94364509D01*
X150771219Y-94356475D01*
X150803929Y-94351623D01*
X150836956Y-94350000D01*
X151713044Y-94350000D01*
X151746071Y-94351623D01*
X151746071Y-94351623D01*
G37*
D13*
X151275000Y-95250000D03*
D12*
G36*
X149696071Y-94351623D02*
X149728781Y-94356475D01*
X149760857Y-94364509D01*
X149791991Y-94375649D01*
X149821884Y-94389787D01*
X149850247Y-94406787D01*
X149876807Y-94426485D01*
X149901308Y-94448692D01*
X149923515Y-94473193D01*
X149943213Y-94499753D01*
X149960213Y-94528116D01*
X149974351Y-94558009D01*
X149985491Y-94589143D01*
X149993525Y-94621219D01*
X149998377Y-94653929D01*
X150000000Y-94686956D01*
X150000000Y-95813044D01*
X149998377Y-95846071D01*
X149993525Y-95878781D01*
X149985491Y-95910857D01*
X149974351Y-95941991D01*
X149960213Y-95971884D01*
X149943213Y-96000247D01*
X149923515Y-96026807D01*
X149901308Y-96051308D01*
X149876807Y-96073515D01*
X149850247Y-96093213D01*
X149821884Y-96110213D01*
X149791991Y-96124351D01*
X149760857Y-96135491D01*
X149728781Y-96143525D01*
X149696071Y-96148377D01*
X149663044Y-96150000D01*
X148786956Y-96150000D01*
X148753929Y-96148377D01*
X148721219Y-96143525D01*
X148689143Y-96135491D01*
X148658009Y-96124351D01*
X148628116Y-96110213D01*
X148599753Y-96093213D01*
X148573193Y-96073515D01*
X148548692Y-96051308D01*
X148526485Y-96026807D01*
X148506787Y-96000247D01*
X148489787Y-95971884D01*
X148475649Y-95941991D01*
X148464509Y-95910857D01*
X148456475Y-95878781D01*
X148451623Y-95846071D01*
X148450000Y-95813044D01*
X148450000Y-94686956D01*
X148451623Y-94653929D01*
X148456475Y-94621219D01*
X148464509Y-94589143D01*
X148475649Y-94558009D01*
X148489787Y-94528116D01*
X148506787Y-94499753D01*
X148526485Y-94473193D01*
X148548692Y-94448692D01*
X148573193Y-94426485D01*
X148599753Y-94406787D01*
X148628116Y-94389787D01*
X148658009Y-94375649D01*
X148689143Y-94364509D01*
X148721219Y-94356475D01*
X148753929Y-94351623D01*
X148786956Y-94350000D01*
X149663044Y-94350000D01*
X149696071Y-94351623D01*
X149696071Y-94351623D01*
G37*
D13*
X149225000Y-95250000D03*
D14*
X58293000Y-100584000D03*
D15*
X63373000Y-100584000D03*
X88773000Y-82804000D03*
X88773000Y-100584000D03*
X83693000Y-82804000D03*
X87430000Y-72840000D03*
X82930000Y-72840000D03*
X87430000Y-66340000D03*
X82930000Y-66340000D03*
D16*
X136525000Y-133350000D03*
X136525000Y-128350000D03*
X136525000Y-108350000D03*
X144025000Y-108350000D03*
X144025000Y-128350000D03*
X144025000Y-133350000D03*
X102990000Y-133350000D03*
X102990000Y-128350000D03*
X102990000Y-108350000D03*
X110490000Y-108350000D03*
X110490000Y-128350000D03*
X110490000Y-133350000D03*
X86480000Y-133350000D03*
X86480000Y-128350000D03*
X86480000Y-108350000D03*
X93980000Y-108350000D03*
X93980000Y-128350000D03*
X93980000Y-133350000D03*
D17*
X194691000Y-97663000D03*
D18*
X194691000Y-95123000D03*
D19*
X131990000Y-59590000D03*
X130720000Y-59590000D03*
X129450000Y-59590000D03*
D20*
X128180000Y-59590000D03*
D21*
X144780000Y-84328000D03*
X144780000Y-81788000D03*
X147320000Y-84328000D03*
X147320000Y-81788000D03*
X149860000Y-84328000D03*
D22*
X149860000Y-81788000D03*
D23*
X116840000Y-86405000D03*
X116840000Y-90805000D03*
D12*
G36*
X162760372Y-78859525D02*
X162791112Y-78864085D01*
X162821257Y-78871636D01*
X162850516Y-78882105D01*
X162878609Y-78895392D01*
X162905264Y-78911368D01*
X162930224Y-78929880D01*
X162953250Y-78950750D01*
X162974120Y-78973776D01*
X162992632Y-78998736D01*
X163008608Y-79025391D01*
X163021895Y-79053484D01*
X163032364Y-79082743D01*
X163039915Y-79112888D01*
X163044475Y-79143628D01*
X163046000Y-79174667D01*
X163046000Y-80441333D01*
X163044475Y-80472372D01*
X163039915Y-80503112D01*
X163032364Y-80533257D01*
X163021895Y-80562516D01*
X163008608Y-80590609D01*
X162992632Y-80617264D01*
X162974120Y-80642224D01*
X162953250Y-80665250D01*
X162930224Y-80686120D01*
X162905264Y-80704632D01*
X162878609Y-80720608D01*
X162850516Y-80733895D01*
X162821257Y-80744364D01*
X162791112Y-80751915D01*
X162760372Y-80756475D01*
X162729333Y-80758000D01*
X160612667Y-80758000D01*
X160581628Y-80756475D01*
X160550888Y-80751915D01*
X160520743Y-80744364D01*
X160491484Y-80733895D01*
X160463391Y-80720608D01*
X160436736Y-80704632D01*
X160411776Y-80686120D01*
X160388750Y-80665250D01*
X160367880Y-80642224D01*
X160349368Y-80617264D01*
X160333392Y-80590609D01*
X160320105Y-80562516D01*
X160309636Y-80533257D01*
X160302085Y-80503112D01*
X160297525Y-80472372D01*
X160296000Y-80441333D01*
X160296000Y-79174667D01*
X160297525Y-79143628D01*
X160302085Y-79112888D01*
X160309636Y-79082743D01*
X160320105Y-79053484D01*
X160333392Y-79025391D01*
X160349368Y-78998736D01*
X160367880Y-78973776D01*
X160388750Y-78950750D01*
X160411776Y-78929880D01*
X160436736Y-78911368D01*
X160463391Y-78895392D01*
X160491484Y-78882105D01*
X160520743Y-78871636D01*
X160550888Y-78864085D01*
X160581628Y-78859525D01*
X160612667Y-78858000D01*
X162729333Y-78858000D01*
X162760372Y-78859525D01*
X162760372Y-78859525D01*
G37*
D24*
X161671000Y-79808000D03*
D12*
G36*
X162760372Y-82109525D02*
X162791112Y-82114085D01*
X162821257Y-82121636D01*
X162850516Y-82132105D01*
X162878609Y-82145392D01*
X162905264Y-82161368D01*
X162930224Y-82179880D01*
X162953250Y-82200750D01*
X162974120Y-82223776D01*
X162992632Y-82248736D01*
X163008608Y-82275391D01*
X163021895Y-82303484D01*
X163032364Y-82332743D01*
X163039915Y-82362888D01*
X163044475Y-82393628D01*
X163046000Y-82424667D01*
X163046000Y-83691333D01*
X163044475Y-83722372D01*
X163039915Y-83753112D01*
X163032364Y-83783257D01*
X163021895Y-83812516D01*
X163008608Y-83840609D01*
X162992632Y-83867264D01*
X162974120Y-83892224D01*
X162953250Y-83915250D01*
X162930224Y-83936120D01*
X162905264Y-83954632D01*
X162878609Y-83970608D01*
X162850516Y-83983895D01*
X162821257Y-83994364D01*
X162791112Y-84001915D01*
X162760372Y-84006475D01*
X162729333Y-84008000D01*
X160612667Y-84008000D01*
X160581628Y-84006475D01*
X160550888Y-84001915D01*
X160520743Y-83994364D01*
X160491484Y-83983895D01*
X160463391Y-83970608D01*
X160436736Y-83954632D01*
X160411776Y-83936120D01*
X160388750Y-83915250D01*
X160367880Y-83892224D01*
X160349368Y-83867264D01*
X160333392Y-83840609D01*
X160320105Y-83812516D01*
X160309636Y-83783257D01*
X160302085Y-83753112D01*
X160297525Y-83722372D01*
X160296000Y-83691333D01*
X160296000Y-82424667D01*
X160297525Y-82393628D01*
X160302085Y-82362888D01*
X160309636Y-82332743D01*
X160320105Y-82303484D01*
X160333392Y-82275391D01*
X160349368Y-82248736D01*
X160367880Y-82223776D01*
X160388750Y-82200750D01*
X160411776Y-82179880D01*
X160436736Y-82161368D01*
X160463391Y-82145392D01*
X160491484Y-82132105D01*
X160520743Y-82121636D01*
X160550888Y-82114085D01*
X160581628Y-82109525D01*
X160612667Y-82108000D01*
X162729333Y-82108000D01*
X162760372Y-82109525D01*
X162760372Y-82109525D01*
G37*
D24*
X161671000Y-83058000D03*
D25*
X49805000Y-99575000D03*
X52705000Y-92075000D03*
D26*
X109170000Y-99695000D03*
D27*
X102870000Y-101975000D03*
X102870000Y-99695000D03*
X102870000Y-97415000D03*
D21*
X180975000Y-66040000D03*
X183515000Y-66040000D03*
X180975000Y-63500000D03*
X183515000Y-63500000D03*
X180975000Y-60960000D03*
D22*
X183515000Y-60960000D03*
D28*
X172720000Y-59055000D03*
X172720000Y-60325000D03*
X172720000Y-61595000D03*
X172720000Y-62865000D03*
X172720000Y-64135000D03*
X172720000Y-65405000D03*
X172720000Y-66675000D03*
X172720000Y-67945000D03*
X163420000Y-67945000D03*
X163420000Y-66675000D03*
X163420000Y-65405000D03*
X163420000Y-64135000D03*
X163420000Y-62865000D03*
X163420000Y-61595000D03*
X163420000Y-60325000D03*
X163420000Y-59055000D03*
D12*
G36*
X192749071Y-120513623D02*
X192781781Y-120518475D01*
X192813857Y-120526509D01*
X192844991Y-120537649D01*
X192874884Y-120551787D01*
X192903247Y-120568787D01*
X192929807Y-120588485D01*
X192954308Y-120610692D01*
X192976515Y-120635193D01*
X192996213Y-120661753D01*
X193013213Y-120690116D01*
X193027351Y-120720009D01*
X193038491Y-120751143D01*
X193046525Y-120783219D01*
X193051377Y-120815929D01*
X193053000Y-120848956D01*
X193053000Y-121975044D01*
X193051377Y-122008071D01*
X193046525Y-122040781D01*
X193038491Y-122072857D01*
X193027351Y-122103991D01*
X193013213Y-122133884D01*
X192996213Y-122162247D01*
X192976515Y-122188807D01*
X192954308Y-122213308D01*
X192929807Y-122235515D01*
X192903247Y-122255213D01*
X192874884Y-122272213D01*
X192844991Y-122286351D01*
X192813857Y-122297491D01*
X192781781Y-122305525D01*
X192749071Y-122310377D01*
X192716044Y-122312000D01*
X191839956Y-122312000D01*
X191806929Y-122310377D01*
X191774219Y-122305525D01*
X191742143Y-122297491D01*
X191711009Y-122286351D01*
X191681116Y-122272213D01*
X191652753Y-122255213D01*
X191626193Y-122235515D01*
X191601692Y-122213308D01*
X191579485Y-122188807D01*
X191559787Y-122162247D01*
X191542787Y-122133884D01*
X191528649Y-122103991D01*
X191517509Y-122072857D01*
X191509475Y-122040781D01*
X191504623Y-122008071D01*
X191503000Y-121975044D01*
X191503000Y-120848956D01*
X191504623Y-120815929D01*
X191509475Y-120783219D01*
X191517509Y-120751143D01*
X191528649Y-120720009D01*
X191542787Y-120690116D01*
X191559787Y-120661753D01*
X191579485Y-120635193D01*
X191601692Y-120610692D01*
X191626193Y-120588485D01*
X191652753Y-120568787D01*
X191681116Y-120551787D01*
X191711009Y-120537649D01*
X191742143Y-120526509D01*
X191774219Y-120518475D01*
X191806929Y-120513623D01*
X191839956Y-120512000D01*
X192716044Y-120512000D01*
X192749071Y-120513623D01*
X192749071Y-120513623D01*
G37*
D13*
X192278000Y-121412000D03*
D12*
G36*
X194799071Y-120513623D02*
X194831781Y-120518475D01*
X194863857Y-120526509D01*
X194894991Y-120537649D01*
X194924884Y-120551787D01*
X194953247Y-120568787D01*
X194979807Y-120588485D01*
X195004308Y-120610692D01*
X195026515Y-120635193D01*
X195046213Y-120661753D01*
X195063213Y-120690116D01*
X195077351Y-120720009D01*
X195088491Y-120751143D01*
X195096525Y-120783219D01*
X195101377Y-120815929D01*
X195103000Y-120848956D01*
X195103000Y-121975044D01*
X195101377Y-122008071D01*
X195096525Y-122040781D01*
X195088491Y-122072857D01*
X195077351Y-122103991D01*
X195063213Y-122133884D01*
X195046213Y-122162247D01*
X195026515Y-122188807D01*
X195004308Y-122213308D01*
X194979807Y-122235515D01*
X194953247Y-122255213D01*
X194924884Y-122272213D01*
X194894991Y-122286351D01*
X194863857Y-122297491D01*
X194831781Y-122305525D01*
X194799071Y-122310377D01*
X194766044Y-122312000D01*
X193889956Y-122312000D01*
X193856929Y-122310377D01*
X193824219Y-122305525D01*
X193792143Y-122297491D01*
X193761009Y-122286351D01*
X193731116Y-122272213D01*
X193702753Y-122255213D01*
X193676193Y-122235515D01*
X193651692Y-122213308D01*
X193629485Y-122188807D01*
X193609787Y-122162247D01*
X193592787Y-122133884D01*
X193578649Y-122103991D01*
X193567509Y-122072857D01*
X193559475Y-122040781D01*
X193554623Y-122008071D01*
X193553000Y-121975044D01*
X193553000Y-120848956D01*
X193554623Y-120815929D01*
X193559475Y-120783219D01*
X193567509Y-120751143D01*
X193578649Y-120720009D01*
X193592787Y-120690116D01*
X193609787Y-120661753D01*
X193629485Y-120635193D01*
X193651692Y-120610692D01*
X193676193Y-120588485D01*
X193702753Y-120568787D01*
X193731116Y-120551787D01*
X193761009Y-120537649D01*
X193792143Y-120526509D01*
X193824219Y-120518475D01*
X193856929Y-120513623D01*
X193889956Y-120512000D01*
X194766044Y-120512000D01*
X194799071Y-120513623D01*
X194799071Y-120513623D01*
G37*
D13*
X194328000Y-121412000D03*
D15*
X132430000Y-72840000D03*
X127930000Y-72840000D03*
X132430000Y-66340000D03*
X127930000Y-66340000D03*
X72430000Y-72840000D03*
X67930000Y-72840000D03*
X72430000Y-66340000D03*
X67930000Y-66340000D03*
D17*
X202819000Y-126492000D03*
X202819000Y-123952000D03*
D18*
X202819000Y-121412000D03*
D29*
X153932979Y-117809195D03*
X155202979Y-117809195D03*
X156472979Y-117809195D03*
X157742979Y-117809195D03*
X157742979Y-123209195D03*
X156472979Y-123209195D03*
X155202979Y-123209195D03*
X153932979Y-123209195D03*
D30*
X43180000Y-82590000D03*
X43180000Y-148590000D03*
X203200000Y-82590000D03*
X203200000Y-148590000D03*
D28*
X159004000Y-100330000D03*
X159004000Y-99060000D03*
X159004000Y-97790000D03*
X159004000Y-96520000D03*
X159004000Y-95250000D03*
X159004000Y-93980000D03*
X159004000Y-92710000D03*
X159004000Y-91440000D03*
X164404000Y-91440000D03*
X164404000Y-92710000D03*
X164404000Y-93980000D03*
X164404000Y-95250000D03*
X164404000Y-96520000D03*
X164404000Y-97790000D03*
X164404000Y-99060000D03*
X164404000Y-100330000D03*
D12*
G36*
X158965071Y-80234623D02*
X158997781Y-80239475D01*
X159029857Y-80247509D01*
X159060991Y-80258649D01*
X159090884Y-80272787D01*
X159119247Y-80289787D01*
X159145807Y-80309485D01*
X159170308Y-80331692D01*
X159192515Y-80356193D01*
X159212213Y-80382753D01*
X159229213Y-80411116D01*
X159243351Y-80441009D01*
X159254491Y-80472143D01*
X159262525Y-80504219D01*
X159267377Y-80536929D01*
X159269000Y-80569956D01*
X159269000Y-81446044D01*
X159267377Y-81479071D01*
X159262525Y-81511781D01*
X159254491Y-81543857D01*
X159243351Y-81574991D01*
X159229213Y-81604884D01*
X159212213Y-81633247D01*
X159192515Y-81659807D01*
X159170308Y-81684308D01*
X159145807Y-81706515D01*
X159119247Y-81726213D01*
X159090884Y-81743213D01*
X159060991Y-81757351D01*
X159029857Y-81768491D01*
X158997781Y-81776525D01*
X158965071Y-81781377D01*
X158932044Y-81783000D01*
X157805956Y-81783000D01*
X157772929Y-81781377D01*
X157740219Y-81776525D01*
X157708143Y-81768491D01*
X157677009Y-81757351D01*
X157647116Y-81743213D01*
X157618753Y-81726213D01*
X157592193Y-81706515D01*
X157567692Y-81684308D01*
X157545485Y-81659807D01*
X157525787Y-81633247D01*
X157508787Y-81604884D01*
X157494649Y-81574991D01*
X157483509Y-81543857D01*
X157475475Y-81511781D01*
X157470623Y-81479071D01*
X157469000Y-81446044D01*
X157469000Y-80569956D01*
X157470623Y-80536929D01*
X157475475Y-80504219D01*
X157483509Y-80472143D01*
X157494649Y-80441009D01*
X157508787Y-80411116D01*
X157525787Y-80382753D01*
X157545485Y-80356193D01*
X157567692Y-80331692D01*
X157592193Y-80309485D01*
X157618753Y-80289787D01*
X157647116Y-80272787D01*
X157677009Y-80258649D01*
X157708143Y-80247509D01*
X157740219Y-80239475D01*
X157772929Y-80234623D01*
X157805956Y-80233000D01*
X158932044Y-80233000D01*
X158965071Y-80234623D01*
X158965071Y-80234623D01*
G37*
D13*
X158369000Y-81008000D03*
D12*
G36*
X158965071Y-82284623D02*
X158997781Y-82289475D01*
X159029857Y-82297509D01*
X159060991Y-82308649D01*
X159090884Y-82322787D01*
X159119247Y-82339787D01*
X159145807Y-82359485D01*
X159170308Y-82381692D01*
X159192515Y-82406193D01*
X159212213Y-82432753D01*
X159229213Y-82461116D01*
X159243351Y-82491009D01*
X159254491Y-82522143D01*
X159262525Y-82554219D01*
X159267377Y-82586929D01*
X159269000Y-82619956D01*
X159269000Y-83496044D01*
X159267377Y-83529071D01*
X159262525Y-83561781D01*
X159254491Y-83593857D01*
X159243351Y-83624991D01*
X159229213Y-83654884D01*
X159212213Y-83683247D01*
X159192515Y-83709807D01*
X159170308Y-83734308D01*
X159145807Y-83756515D01*
X159119247Y-83776213D01*
X159090884Y-83793213D01*
X159060991Y-83807351D01*
X159029857Y-83818491D01*
X158997781Y-83826525D01*
X158965071Y-83831377D01*
X158932044Y-83833000D01*
X157805956Y-83833000D01*
X157772929Y-83831377D01*
X157740219Y-83826525D01*
X157708143Y-83818491D01*
X157677009Y-83807351D01*
X157647116Y-83793213D01*
X157618753Y-83776213D01*
X157592193Y-83756515D01*
X157567692Y-83734308D01*
X157545485Y-83709807D01*
X157525787Y-83683247D01*
X157508787Y-83654884D01*
X157494649Y-83624991D01*
X157483509Y-83593857D01*
X157475475Y-83561781D01*
X157470623Y-83529071D01*
X157469000Y-83496044D01*
X157469000Y-82619956D01*
X157470623Y-82586929D01*
X157475475Y-82554219D01*
X157483509Y-82522143D01*
X157494649Y-82491009D01*
X157508787Y-82461116D01*
X157525787Y-82432753D01*
X157545485Y-82406193D01*
X157567692Y-82381692D01*
X157592193Y-82359485D01*
X157618753Y-82339787D01*
X157647116Y-82322787D01*
X157677009Y-82308649D01*
X157708143Y-82297509D01*
X157740219Y-82289475D01*
X157772929Y-82284623D01*
X157805956Y-82283000D01*
X158932044Y-82283000D01*
X158965071Y-82284623D01*
X158965071Y-82284623D01*
G37*
D13*
X158369000Y-83058000D03*
D12*
G36*
X154885071Y-108321623D02*
X154917781Y-108326475D01*
X154949857Y-108334509D01*
X154980991Y-108345649D01*
X155010884Y-108359787D01*
X155039247Y-108376787D01*
X155065807Y-108396485D01*
X155090308Y-108418692D01*
X155112515Y-108443193D01*
X155132213Y-108469753D01*
X155149213Y-108498116D01*
X155163351Y-108528009D01*
X155174491Y-108559143D01*
X155182525Y-108591219D01*
X155187377Y-108623929D01*
X155189000Y-108656956D01*
X155189000Y-109783044D01*
X155187377Y-109816071D01*
X155182525Y-109848781D01*
X155174491Y-109880857D01*
X155163351Y-109911991D01*
X155149213Y-109941884D01*
X155132213Y-109970247D01*
X155112515Y-109996807D01*
X155090308Y-110021308D01*
X155065807Y-110043515D01*
X155039247Y-110063213D01*
X155010884Y-110080213D01*
X154980991Y-110094351D01*
X154949857Y-110105491D01*
X154917781Y-110113525D01*
X154885071Y-110118377D01*
X154852044Y-110120000D01*
X153975956Y-110120000D01*
X153942929Y-110118377D01*
X153910219Y-110113525D01*
X153878143Y-110105491D01*
X153847009Y-110094351D01*
X153817116Y-110080213D01*
X153788753Y-110063213D01*
X153762193Y-110043515D01*
X153737692Y-110021308D01*
X153715485Y-109996807D01*
X153695787Y-109970247D01*
X153678787Y-109941884D01*
X153664649Y-109911991D01*
X153653509Y-109880857D01*
X153645475Y-109848781D01*
X153640623Y-109816071D01*
X153639000Y-109783044D01*
X153639000Y-108656956D01*
X153640623Y-108623929D01*
X153645475Y-108591219D01*
X153653509Y-108559143D01*
X153664649Y-108528009D01*
X153678787Y-108498116D01*
X153695787Y-108469753D01*
X153715485Y-108443193D01*
X153737692Y-108418692D01*
X153762193Y-108396485D01*
X153788753Y-108376787D01*
X153817116Y-108359787D01*
X153847009Y-108345649D01*
X153878143Y-108334509D01*
X153910219Y-108326475D01*
X153942929Y-108321623D01*
X153975956Y-108320000D01*
X154852044Y-108320000D01*
X154885071Y-108321623D01*
X154885071Y-108321623D01*
G37*
D13*
X154414000Y-109220000D03*
D12*
G36*
X156935071Y-108321623D02*
X156967781Y-108326475D01*
X156999857Y-108334509D01*
X157030991Y-108345649D01*
X157060884Y-108359787D01*
X157089247Y-108376787D01*
X157115807Y-108396485D01*
X157140308Y-108418692D01*
X157162515Y-108443193D01*
X157182213Y-108469753D01*
X157199213Y-108498116D01*
X157213351Y-108528009D01*
X157224491Y-108559143D01*
X157232525Y-108591219D01*
X157237377Y-108623929D01*
X157239000Y-108656956D01*
X157239000Y-109783044D01*
X157237377Y-109816071D01*
X157232525Y-109848781D01*
X157224491Y-109880857D01*
X157213351Y-109911991D01*
X157199213Y-109941884D01*
X157182213Y-109970247D01*
X157162515Y-109996807D01*
X157140308Y-110021308D01*
X157115807Y-110043515D01*
X157089247Y-110063213D01*
X157060884Y-110080213D01*
X157030991Y-110094351D01*
X156999857Y-110105491D01*
X156967781Y-110113525D01*
X156935071Y-110118377D01*
X156902044Y-110120000D01*
X156025956Y-110120000D01*
X155992929Y-110118377D01*
X155960219Y-110113525D01*
X155928143Y-110105491D01*
X155897009Y-110094351D01*
X155867116Y-110080213D01*
X155838753Y-110063213D01*
X155812193Y-110043515D01*
X155787692Y-110021308D01*
X155765485Y-109996807D01*
X155745787Y-109970247D01*
X155728787Y-109941884D01*
X155714649Y-109911991D01*
X155703509Y-109880857D01*
X155695475Y-109848781D01*
X155690623Y-109816071D01*
X155689000Y-109783044D01*
X155689000Y-108656956D01*
X155690623Y-108623929D01*
X155695475Y-108591219D01*
X155703509Y-108559143D01*
X155714649Y-108528009D01*
X155728787Y-108498116D01*
X155745787Y-108469753D01*
X155765485Y-108443193D01*
X155787692Y-108418692D01*
X155812193Y-108396485D01*
X155838753Y-108376787D01*
X155867116Y-108359787D01*
X155897009Y-108345649D01*
X155928143Y-108334509D01*
X155960219Y-108326475D01*
X155992929Y-108321623D01*
X156025956Y-108320000D01*
X156902044Y-108320000D01*
X156935071Y-108321623D01*
X156935071Y-108321623D01*
G37*
D13*
X156464000Y-109220000D03*
D12*
G36*
X156935071Y-113401623D02*
X156967781Y-113406475D01*
X156999857Y-113414509D01*
X157030991Y-113425649D01*
X157060884Y-113439787D01*
X157089247Y-113456787D01*
X157115807Y-113476485D01*
X157140308Y-113498692D01*
X157162515Y-113523193D01*
X157182213Y-113549753D01*
X157199213Y-113578116D01*
X157213351Y-113608009D01*
X157224491Y-113639143D01*
X157232525Y-113671219D01*
X157237377Y-113703929D01*
X157239000Y-113736956D01*
X157239000Y-114863044D01*
X157237377Y-114896071D01*
X157232525Y-114928781D01*
X157224491Y-114960857D01*
X157213351Y-114991991D01*
X157199213Y-115021884D01*
X157182213Y-115050247D01*
X157162515Y-115076807D01*
X157140308Y-115101308D01*
X157115807Y-115123515D01*
X157089247Y-115143213D01*
X157060884Y-115160213D01*
X157030991Y-115174351D01*
X156999857Y-115185491D01*
X156967781Y-115193525D01*
X156935071Y-115198377D01*
X156902044Y-115200000D01*
X156025956Y-115200000D01*
X155992929Y-115198377D01*
X155960219Y-115193525D01*
X155928143Y-115185491D01*
X155897009Y-115174351D01*
X155867116Y-115160213D01*
X155838753Y-115143213D01*
X155812193Y-115123515D01*
X155787692Y-115101308D01*
X155765485Y-115076807D01*
X155745787Y-115050247D01*
X155728787Y-115021884D01*
X155714649Y-114991991D01*
X155703509Y-114960857D01*
X155695475Y-114928781D01*
X155690623Y-114896071D01*
X155689000Y-114863044D01*
X155689000Y-113736956D01*
X155690623Y-113703929D01*
X155695475Y-113671219D01*
X155703509Y-113639143D01*
X155714649Y-113608009D01*
X155728787Y-113578116D01*
X155745787Y-113549753D01*
X155765485Y-113523193D01*
X155787692Y-113498692D01*
X155812193Y-113476485D01*
X155838753Y-113456787D01*
X155867116Y-113439787D01*
X155897009Y-113425649D01*
X155928143Y-113414509D01*
X155960219Y-113406475D01*
X155992929Y-113401623D01*
X156025956Y-113400000D01*
X156902044Y-113400000D01*
X156935071Y-113401623D01*
X156935071Y-113401623D01*
G37*
D13*
X156464000Y-114300000D03*
D12*
G36*
X154885071Y-113401623D02*
X154917781Y-113406475D01*
X154949857Y-113414509D01*
X154980991Y-113425649D01*
X155010884Y-113439787D01*
X155039247Y-113456787D01*
X155065807Y-113476485D01*
X155090308Y-113498692D01*
X155112515Y-113523193D01*
X155132213Y-113549753D01*
X155149213Y-113578116D01*
X155163351Y-113608009D01*
X155174491Y-113639143D01*
X155182525Y-113671219D01*
X155187377Y-113703929D01*
X155189000Y-113736956D01*
X155189000Y-114863044D01*
X155187377Y-114896071D01*
X155182525Y-114928781D01*
X155174491Y-114960857D01*
X155163351Y-114991991D01*
X155149213Y-115021884D01*
X155132213Y-115050247D01*
X155112515Y-115076807D01*
X155090308Y-115101308D01*
X155065807Y-115123515D01*
X155039247Y-115143213D01*
X155010884Y-115160213D01*
X154980991Y-115174351D01*
X154949857Y-115185491D01*
X154917781Y-115193525D01*
X154885071Y-115198377D01*
X154852044Y-115200000D01*
X153975956Y-115200000D01*
X153942929Y-115198377D01*
X153910219Y-115193525D01*
X153878143Y-115185491D01*
X153847009Y-115174351D01*
X153817116Y-115160213D01*
X153788753Y-115143213D01*
X153762193Y-115123515D01*
X153737692Y-115101308D01*
X153715485Y-115076807D01*
X153695787Y-115050247D01*
X153678787Y-115021884D01*
X153664649Y-114991991D01*
X153653509Y-114960857D01*
X153645475Y-114928781D01*
X153640623Y-114896071D01*
X153639000Y-114863044D01*
X153639000Y-113736956D01*
X153640623Y-113703929D01*
X153645475Y-113671219D01*
X153653509Y-113639143D01*
X153664649Y-113608009D01*
X153678787Y-113578116D01*
X153695787Y-113549753D01*
X153715485Y-113523193D01*
X153737692Y-113498692D01*
X153762193Y-113476485D01*
X153788753Y-113456787D01*
X153817116Y-113439787D01*
X153847009Y-113425649D01*
X153878143Y-113414509D01*
X153910219Y-113406475D01*
X153942929Y-113401623D01*
X153975956Y-113400000D01*
X154852044Y-113400000D01*
X154885071Y-113401623D01*
X154885071Y-113401623D01*
G37*
D13*
X154414000Y-114300000D03*
D12*
G36*
X156935071Y-110861623D02*
X156967781Y-110866475D01*
X156999857Y-110874509D01*
X157030991Y-110885649D01*
X157060884Y-110899787D01*
X157089247Y-110916787D01*
X157115807Y-110936485D01*
X157140308Y-110958692D01*
X157162515Y-110983193D01*
X157182213Y-111009753D01*
X157199213Y-111038116D01*
X157213351Y-111068009D01*
X157224491Y-111099143D01*
X157232525Y-111131219D01*
X157237377Y-111163929D01*
X157239000Y-111196956D01*
X157239000Y-112323044D01*
X157237377Y-112356071D01*
X157232525Y-112388781D01*
X157224491Y-112420857D01*
X157213351Y-112451991D01*
X157199213Y-112481884D01*
X157182213Y-112510247D01*
X157162515Y-112536807D01*
X157140308Y-112561308D01*
X157115807Y-112583515D01*
X157089247Y-112603213D01*
X157060884Y-112620213D01*
X157030991Y-112634351D01*
X156999857Y-112645491D01*
X156967781Y-112653525D01*
X156935071Y-112658377D01*
X156902044Y-112660000D01*
X156025956Y-112660000D01*
X155992929Y-112658377D01*
X155960219Y-112653525D01*
X155928143Y-112645491D01*
X155897009Y-112634351D01*
X155867116Y-112620213D01*
X155838753Y-112603213D01*
X155812193Y-112583515D01*
X155787692Y-112561308D01*
X155765485Y-112536807D01*
X155745787Y-112510247D01*
X155728787Y-112481884D01*
X155714649Y-112451991D01*
X155703509Y-112420857D01*
X155695475Y-112388781D01*
X155690623Y-112356071D01*
X155689000Y-112323044D01*
X155689000Y-111196956D01*
X155690623Y-111163929D01*
X155695475Y-111131219D01*
X155703509Y-111099143D01*
X155714649Y-111068009D01*
X155728787Y-111038116D01*
X155745787Y-111009753D01*
X155765485Y-110983193D01*
X155787692Y-110958692D01*
X155812193Y-110936485D01*
X155838753Y-110916787D01*
X155867116Y-110899787D01*
X155897009Y-110885649D01*
X155928143Y-110874509D01*
X155960219Y-110866475D01*
X155992929Y-110861623D01*
X156025956Y-110860000D01*
X156902044Y-110860000D01*
X156935071Y-110861623D01*
X156935071Y-110861623D01*
G37*
D13*
X156464000Y-111760000D03*
D12*
G36*
X154885071Y-110861623D02*
X154917781Y-110866475D01*
X154949857Y-110874509D01*
X154980991Y-110885649D01*
X155010884Y-110899787D01*
X155039247Y-110916787D01*
X155065807Y-110936485D01*
X155090308Y-110958692D01*
X155112515Y-110983193D01*
X155132213Y-111009753D01*
X155149213Y-111038116D01*
X155163351Y-111068009D01*
X155174491Y-111099143D01*
X155182525Y-111131219D01*
X155187377Y-111163929D01*
X155189000Y-111196956D01*
X155189000Y-112323044D01*
X155187377Y-112356071D01*
X155182525Y-112388781D01*
X155174491Y-112420857D01*
X155163351Y-112451991D01*
X155149213Y-112481884D01*
X155132213Y-112510247D01*
X155112515Y-112536807D01*
X155090308Y-112561308D01*
X155065807Y-112583515D01*
X155039247Y-112603213D01*
X155010884Y-112620213D01*
X154980991Y-112634351D01*
X154949857Y-112645491D01*
X154917781Y-112653525D01*
X154885071Y-112658377D01*
X154852044Y-112660000D01*
X153975956Y-112660000D01*
X153942929Y-112658377D01*
X153910219Y-112653525D01*
X153878143Y-112645491D01*
X153847009Y-112634351D01*
X153817116Y-112620213D01*
X153788753Y-112603213D01*
X153762193Y-112583515D01*
X153737692Y-112561308D01*
X153715485Y-112536807D01*
X153695787Y-112510247D01*
X153678787Y-112481884D01*
X153664649Y-112451991D01*
X153653509Y-112420857D01*
X153645475Y-112388781D01*
X153640623Y-112356071D01*
X153639000Y-112323044D01*
X153639000Y-111196956D01*
X153640623Y-111163929D01*
X153645475Y-111131219D01*
X153653509Y-111099143D01*
X153664649Y-111068009D01*
X153678787Y-111038116D01*
X153695787Y-111009753D01*
X153715485Y-110983193D01*
X153737692Y-110958692D01*
X153762193Y-110936485D01*
X153788753Y-110916787D01*
X153817116Y-110899787D01*
X153847009Y-110885649D01*
X153878143Y-110874509D01*
X153910219Y-110866475D01*
X153942929Y-110861623D01*
X153975956Y-110860000D01*
X154852044Y-110860000D01*
X154885071Y-110861623D01*
X154885071Y-110861623D01*
G37*
D13*
X154414000Y-111760000D03*
D12*
G36*
X194781071Y-123053623D02*
X194813781Y-123058475D01*
X194845857Y-123066509D01*
X194876991Y-123077649D01*
X194906884Y-123091787D01*
X194935247Y-123108787D01*
X194961807Y-123128485D01*
X194986308Y-123150692D01*
X195008515Y-123175193D01*
X195028213Y-123201753D01*
X195045213Y-123230116D01*
X195059351Y-123260009D01*
X195070491Y-123291143D01*
X195078525Y-123323219D01*
X195083377Y-123355929D01*
X195085000Y-123388956D01*
X195085000Y-124515044D01*
X195083377Y-124548071D01*
X195078525Y-124580781D01*
X195070491Y-124612857D01*
X195059351Y-124643991D01*
X195045213Y-124673884D01*
X195028213Y-124702247D01*
X195008515Y-124728807D01*
X194986308Y-124753308D01*
X194961807Y-124775515D01*
X194935247Y-124795213D01*
X194906884Y-124812213D01*
X194876991Y-124826351D01*
X194845857Y-124837491D01*
X194813781Y-124845525D01*
X194781071Y-124850377D01*
X194748044Y-124852000D01*
X193871956Y-124852000D01*
X193838929Y-124850377D01*
X193806219Y-124845525D01*
X193774143Y-124837491D01*
X193743009Y-124826351D01*
X193713116Y-124812213D01*
X193684753Y-124795213D01*
X193658193Y-124775515D01*
X193633692Y-124753308D01*
X193611485Y-124728807D01*
X193591787Y-124702247D01*
X193574787Y-124673884D01*
X193560649Y-124643991D01*
X193549509Y-124612857D01*
X193541475Y-124580781D01*
X193536623Y-124548071D01*
X193535000Y-124515044D01*
X193535000Y-123388956D01*
X193536623Y-123355929D01*
X193541475Y-123323219D01*
X193549509Y-123291143D01*
X193560649Y-123260009D01*
X193574787Y-123230116D01*
X193591787Y-123201753D01*
X193611485Y-123175193D01*
X193633692Y-123150692D01*
X193658193Y-123128485D01*
X193684753Y-123108787D01*
X193713116Y-123091787D01*
X193743009Y-123077649D01*
X193774143Y-123066509D01*
X193806219Y-123058475D01*
X193838929Y-123053623D01*
X193871956Y-123052000D01*
X194748044Y-123052000D01*
X194781071Y-123053623D01*
X194781071Y-123053623D01*
G37*
D13*
X194310000Y-123952000D03*
D12*
G36*
X192731071Y-123053623D02*
X192763781Y-123058475D01*
X192795857Y-123066509D01*
X192826991Y-123077649D01*
X192856884Y-123091787D01*
X192885247Y-123108787D01*
X192911807Y-123128485D01*
X192936308Y-123150692D01*
X192958515Y-123175193D01*
X192978213Y-123201753D01*
X192995213Y-123230116D01*
X193009351Y-123260009D01*
X193020491Y-123291143D01*
X193028525Y-123323219D01*
X193033377Y-123355929D01*
X193035000Y-123388956D01*
X193035000Y-124515044D01*
X193033377Y-124548071D01*
X193028525Y-124580781D01*
X193020491Y-124612857D01*
X193009351Y-124643991D01*
X192995213Y-124673884D01*
X192978213Y-124702247D01*
X192958515Y-124728807D01*
X192936308Y-124753308D01*
X192911807Y-124775515D01*
X192885247Y-124795213D01*
X192856884Y-124812213D01*
X192826991Y-124826351D01*
X192795857Y-124837491D01*
X192763781Y-124845525D01*
X192731071Y-124850377D01*
X192698044Y-124852000D01*
X191821956Y-124852000D01*
X191788929Y-124850377D01*
X191756219Y-124845525D01*
X191724143Y-124837491D01*
X191693009Y-124826351D01*
X191663116Y-124812213D01*
X191634753Y-124795213D01*
X191608193Y-124775515D01*
X191583692Y-124753308D01*
X191561485Y-124728807D01*
X191541787Y-124702247D01*
X191524787Y-124673884D01*
X191510649Y-124643991D01*
X191499509Y-124612857D01*
X191491475Y-124580781D01*
X191486623Y-124548071D01*
X191485000Y-124515044D01*
X191485000Y-123388956D01*
X191486623Y-123355929D01*
X191491475Y-123323219D01*
X191499509Y-123291143D01*
X191510649Y-123260009D01*
X191524787Y-123230116D01*
X191541787Y-123201753D01*
X191561485Y-123175193D01*
X191583692Y-123150692D01*
X191608193Y-123128485D01*
X191634753Y-123108787D01*
X191663116Y-123091787D01*
X191693009Y-123077649D01*
X191724143Y-123066509D01*
X191756219Y-123058475D01*
X191788929Y-123053623D01*
X191821956Y-123052000D01*
X192698044Y-123052000D01*
X192731071Y-123053623D01*
X192731071Y-123053623D01*
G37*
D13*
X192260000Y-123952000D03*
D19*
X116990000Y-59590000D03*
X115720000Y-59590000D03*
X114450000Y-59590000D03*
D20*
X113180000Y-59590000D03*
D19*
X101990000Y-59590000D03*
X100720000Y-59590000D03*
X99450000Y-59590000D03*
D20*
X98180000Y-59590000D03*
D19*
X86990000Y-59590000D03*
X85720000Y-59590000D03*
X84450000Y-59590000D03*
D20*
X83180000Y-59590000D03*
D19*
X71990000Y-59590000D03*
X70720000Y-59590000D03*
X69450000Y-59590000D03*
D20*
X68180000Y-59590000D03*
D19*
X56990000Y-59590000D03*
X55720000Y-59590000D03*
X54450000Y-59590000D03*
D20*
X53180000Y-59590000D03*
D16*
X204180000Y-64590000D03*
X42180000Y-64590000D03*
D15*
X117430000Y-72840000D03*
X112930000Y-72840000D03*
X117430000Y-66340000D03*
X112930000Y-66340000D03*
X102430000Y-72840000D03*
X97930000Y-72840000D03*
X102430000Y-66340000D03*
X97930000Y-66340000D03*
X57430000Y-72840000D03*
X52930000Y-72840000D03*
X57430000Y-66340000D03*
X52930000Y-66340000D03*
D31*
X147320000Y-76590000D03*
X145415000Y-76590000D03*
X143510000Y-76590000D03*
X141605000Y-76590000D03*
D32*
X97155000Y-85725000D03*
X97155000Y-91125000D03*
X99695000Y-97630000D03*
X99695000Y-103030000D03*
D23*
X116840000Y-97835000D03*
X116840000Y-102235000D03*
D26*
X108990000Y-88645000D03*
D27*
X102690000Y-90925000D03*
X102690000Y-88645000D03*
X102690000Y-86365000D03*
D33*
X92884000Y-140335000D03*
D34*
X87884000Y-140335000D03*
D33*
X109521000Y-140335000D03*
D34*
X104521000Y-140335000D03*
D33*
X126158000Y-140335000D03*
D34*
X121158000Y-140335000D03*
D33*
X59610000Y-140335000D03*
D34*
X54610000Y-140335000D03*
D35*
X180404000Y-87710000D03*
D36*
X171704000Y-80010000D03*
X171704000Y-81280000D03*
X171704000Y-82550000D03*
X171704000Y-83820000D03*
X171704000Y-85090000D03*
X171704000Y-86360000D03*
X171704000Y-87630000D03*
X171704000Y-88900000D03*
X171704000Y-90170000D03*
X171704000Y-91440000D03*
X171704000Y-92710000D03*
X171704000Y-93980000D03*
X171704000Y-95250000D03*
X171704000Y-96520000D03*
D37*
X174989000Y-98010000D03*
X176259000Y-98010000D03*
X177529000Y-98010000D03*
X178799000Y-98010000D03*
X180069000Y-98010000D03*
X181339000Y-98010000D03*
X182609000Y-98010000D03*
X183879000Y-98010000D03*
X185149000Y-98010000D03*
X186419000Y-98010000D03*
D36*
X189704000Y-96520000D03*
X189704000Y-95250000D03*
X189704000Y-93980000D03*
X189704000Y-92710000D03*
X189704000Y-91440000D03*
X189704000Y-90170000D03*
X189704000Y-88900000D03*
X189704000Y-87630000D03*
X189704000Y-86360000D03*
X189704000Y-85090000D03*
X189704000Y-83820000D03*
X189704000Y-82550000D03*
X189704000Y-81280000D03*
X189704000Y-80010000D03*
D33*
X76247000Y-140335000D03*
D34*
X71247000Y-140335000D03*
D33*
X142795000Y-140335000D03*
D34*
X137795000Y-140335000D03*
D38*
X123825000Y-95885000D03*
X123825000Y-91440000D03*
X123825000Y-86995000D03*
X123825000Y-100330000D03*
D17*
X202819000Y-137668000D03*
X202819000Y-135128000D03*
D18*
X202819000Y-132588000D03*
D12*
G36*
X192731071Y-134229623D02*
X192763781Y-134234475D01*
X192795857Y-134242509D01*
X192826991Y-134253649D01*
X192856884Y-134267787D01*
X192885247Y-134284787D01*
X192911807Y-134304485D01*
X192936308Y-134326692D01*
X192958515Y-134351193D01*
X192978213Y-134377753D01*
X192995213Y-134406116D01*
X193009351Y-134436009D01*
X193020491Y-134467143D01*
X193028525Y-134499219D01*
X193033377Y-134531929D01*
X193035000Y-134564956D01*
X193035000Y-135691044D01*
X193033377Y-135724071D01*
X193028525Y-135756781D01*
X193020491Y-135788857D01*
X193009351Y-135819991D01*
X192995213Y-135849884D01*
X192978213Y-135878247D01*
X192958515Y-135904807D01*
X192936308Y-135929308D01*
X192911807Y-135951515D01*
X192885247Y-135971213D01*
X192856884Y-135988213D01*
X192826991Y-136002351D01*
X192795857Y-136013491D01*
X192763781Y-136021525D01*
X192731071Y-136026377D01*
X192698044Y-136028000D01*
X191821956Y-136028000D01*
X191788929Y-136026377D01*
X191756219Y-136021525D01*
X191724143Y-136013491D01*
X191693009Y-136002351D01*
X191663116Y-135988213D01*
X191634753Y-135971213D01*
X191608193Y-135951515D01*
X191583692Y-135929308D01*
X191561485Y-135904807D01*
X191541787Y-135878247D01*
X191524787Y-135849884D01*
X191510649Y-135819991D01*
X191499509Y-135788857D01*
X191491475Y-135756781D01*
X191486623Y-135724071D01*
X191485000Y-135691044D01*
X191485000Y-134564956D01*
X191486623Y-134531929D01*
X191491475Y-134499219D01*
X191499509Y-134467143D01*
X191510649Y-134436009D01*
X191524787Y-134406116D01*
X191541787Y-134377753D01*
X191561485Y-134351193D01*
X191583692Y-134326692D01*
X191608193Y-134304485D01*
X191634753Y-134284787D01*
X191663116Y-134267787D01*
X191693009Y-134253649D01*
X191724143Y-134242509D01*
X191756219Y-134234475D01*
X191788929Y-134229623D01*
X191821956Y-134228000D01*
X192698044Y-134228000D01*
X192731071Y-134229623D01*
X192731071Y-134229623D01*
G37*
D13*
X192260000Y-135128000D03*
D12*
G36*
X194781071Y-134229623D02*
X194813781Y-134234475D01*
X194845857Y-134242509D01*
X194876991Y-134253649D01*
X194906884Y-134267787D01*
X194935247Y-134284787D01*
X194961807Y-134304485D01*
X194986308Y-134326692D01*
X195008515Y-134351193D01*
X195028213Y-134377753D01*
X195045213Y-134406116D01*
X195059351Y-134436009D01*
X195070491Y-134467143D01*
X195078525Y-134499219D01*
X195083377Y-134531929D01*
X195085000Y-134564956D01*
X195085000Y-135691044D01*
X195083377Y-135724071D01*
X195078525Y-135756781D01*
X195070491Y-135788857D01*
X195059351Y-135819991D01*
X195045213Y-135849884D01*
X195028213Y-135878247D01*
X195008515Y-135904807D01*
X194986308Y-135929308D01*
X194961807Y-135951515D01*
X194935247Y-135971213D01*
X194906884Y-135988213D01*
X194876991Y-136002351D01*
X194845857Y-136013491D01*
X194813781Y-136021525D01*
X194781071Y-136026377D01*
X194748044Y-136028000D01*
X193871956Y-136028000D01*
X193838929Y-136026377D01*
X193806219Y-136021525D01*
X193774143Y-136013491D01*
X193743009Y-136002351D01*
X193713116Y-135988213D01*
X193684753Y-135971213D01*
X193658193Y-135951515D01*
X193633692Y-135929308D01*
X193611485Y-135904807D01*
X193591787Y-135878247D01*
X193574787Y-135849884D01*
X193560649Y-135819991D01*
X193549509Y-135788857D01*
X193541475Y-135756781D01*
X193536623Y-135724071D01*
X193535000Y-135691044D01*
X193535000Y-134564956D01*
X193536623Y-134531929D01*
X193541475Y-134499219D01*
X193549509Y-134467143D01*
X193560649Y-134436009D01*
X193574787Y-134406116D01*
X193591787Y-134377753D01*
X193611485Y-134351193D01*
X193633692Y-134326692D01*
X193658193Y-134304485D01*
X193684753Y-134284787D01*
X193713116Y-134267787D01*
X193743009Y-134253649D01*
X193774143Y-134242509D01*
X193806219Y-134234475D01*
X193838929Y-134229623D01*
X193871956Y-134228000D01*
X194748044Y-134228000D01*
X194781071Y-134229623D01*
X194781071Y-134229623D01*
G37*
D13*
X194310000Y-135128000D03*
D33*
X171243000Y-140335000D03*
D34*
X166243000Y-140335000D03*
D12*
G36*
X168490071Y-82556623D02*
X168522781Y-82561475D01*
X168554857Y-82569509D01*
X168585991Y-82580649D01*
X168615884Y-82594787D01*
X168644247Y-82611787D01*
X168670807Y-82631485D01*
X168695308Y-82653692D01*
X168717515Y-82678193D01*
X168737213Y-82704753D01*
X168754213Y-82733116D01*
X168768351Y-82763009D01*
X168779491Y-82794143D01*
X168787525Y-82826219D01*
X168792377Y-82858929D01*
X168794000Y-82891956D01*
X168794000Y-83768044D01*
X168792377Y-83801071D01*
X168787525Y-83833781D01*
X168779491Y-83865857D01*
X168768351Y-83896991D01*
X168754213Y-83926884D01*
X168737213Y-83955247D01*
X168717515Y-83981807D01*
X168695308Y-84006308D01*
X168670807Y-84028515D01*
X168644247Y-84048213D01*
X168615884Y-84065213D01*
X168585991Y-84079351D01*
X168554857Y-84090491D01*
X168522781Y-84098525D01*
X168490071Y-84103377D01*
X168457044Y-84105000D01*
X167330956Y-84105000D01*
X167297929Y-84103377D01*
X167265219Y-84098525D01*
X167233143Y-84090491D01*
X167202009Y-84079351D01*
X167172116Y-84065213D01*
X167143753Y-84048213D01*
X167117193Y-84028515D01*
X167092692Y-84006308D01*
X167070485Y-83981807D01*
X167050787Y-83955247D01*
X167033787Y-83926884D01*
X167019649Y-83896991D01*
X167008509Y-83865857D01*
X167000475Y-83833781D01*
X166995623Y-83801071D01*
X166994000Y-83768044D01*
X166994000Y-82891956D01*
X166995623Y-82858929D01*
X167000475Y-82826219D01*
X167008509Y-82794143D01*
X167019649Y-82763009D01*
X167033787Y-82733116D01*
X167050787Y-82704753D01*
X167070485Y-82678193D01*
X167092692Y-82653692D01*
X167117193Y-82631485D01*
X167143753Y-82611787D01*
X167172116Y-82594787D01*
X167202009Y-82580649D01*
X167233143Y-82569509D01*
X167265219Y-82561475D01*
X167297929Y-82556623D01*
X167330956Y-82555000D01*
X168457044Y-82555000D01*
X168490071Y-82556623D01*
X168490071Y-82556623D01*
G37*
D13*
X167894000Y-83330000D03*
D12*
G36*
X168490071Y-80506623D02*
X168522781Y-80511475D01*
X168554857Y-80519509D01*
X168585991Y-80530649D01*
X168615884Y-80544787D01*
X168644247Y-80561787D01*
X168670807Y-80581485D01*
X168695308Y-80603692D01*
X168717515Y-80628193D01*
X168737213Y-80654753D01*
X168754213Y-80683116D01*
X168768351Y-80713009D01*
X168779491Y-80744143D01*
X168787525Y-80776219D01*
X168792377Y-80808929D01*
X168794000Y-80841956D01*
X168794000Y-81718044D01*
X168792377Y-81751071D01*
X168787525Y-81783781D01*
X168779491Y-81815857D01*
X168768351Y-81846991D01*
X168754213Y-81876884D01*
X168737213Y-81905247D01*
X168717515Y-81931807D01*
X168695308Y-81956308D01*
X168670807Y-81978515D01*
X168644247Y-81998213D01*
X168615884Y-82015213D01*
X168585991Y-82029351D01*
X168554857Y-82040491D01*
X168522781Y-82048525D01*
X168490071Y-82053377D01*
X168457044Y-82055000D01*
X167330956Y-82055000D01*
X167297929Y-82053377D01*
X167265219Y-82048525D01*
X167233143Y-82040491D01*
X167202009Y-82029351D01*
X167172116Y-82015213D01*
X167143753Y-81998213D01*
X167117193Y-81978515D01*
X167092692Y-81956308D01*
X167070485Y-81931807D01*
X167050787Y-81905247D01*
X167033787Y-81876884D01*
X167019649Y-81846991D01*
X167008509Y-81815857D01*
X167000475Y-81783781D01*
X166995623Y-81751071D01*
X166994000Y-81718044D01*
X166994000Y-80841956D01*
X166995623Y-80808929D01*
X167000475Y-80776219D01*
X167008509Y-80744143D01*
X167019649Y-80713009D01*
X167033787Y-80683116D01*
X167050787Y-80654753D01*
X167070485Y-80628193D01*
X167092692Y-80603692D01*
X167117193Y-80581485D01*
X167143753Y-80561787D01*
X167172116Y-80544787D01*
X167202009Y-80530649D01*
X167233143Y-80519509D01*
X167265219Y-80511475D01*
X167297929Y-80506623D01*
X167330956Y-80505000D01*
X168457044Y-80505000D01*
X168490071Y-80506623D01*
X168490071Y-80506623D01*
G37*
D13*
X167894000Y-81280000D03*
D12*
G36*
X195922071Y-100318623D02*
X195954781Y-100323475D01*
X195986857Y-100331509D01*
X196017991Y-100342649D01*
X196047884Y-100356787D01*
X196076247Y-100373787D01*
X196102807Y-100393485D01*
X196127308Y-100415692D01*
X196149515Y-100440193D01*
X196169213Y-100466753D01*
X196186213Y-100495116D01*
X196200351Y-100525009D01*
X196211491Y-100556143D01*
X196219525Y-100588219D01*
X196224377Y-100620929D01*
X196226000Y-100653956D01*
X196226000Y-101530044D01*
X196224377Y-101563071D01*
X196219525Y-101595781D01*
X196211491Y-101627857D01*
X196200351Y-101658991D01*
X196186213Y-101688884D01*
X196169213Y-101717247D01*
X196149515Y-101743807D01*
X196127308Y-101768308D01*
X196102807Y-101790515D01*
X196076247Y-101810213D01*
X196047884Y-101827213D01*
X196017991Y-101841351D01*
X195986857Y-101852491D01*
X195954781Y-101860525D01*
X195922071Y-101865377D01*
X195889044Y-101867000D01*
X194762956Y-101867000D01*
X194729929Y-101865377D01*
X194697219Y-101860525D01*
X194665143Y-101852491D01*
X194634009Y-101841351D01*
X194604116Y-101827213D01*
X194575753Y-101810213D01*
X194549193Y-101790515D01*
X194524692Y-101768308D01*
X194502485Y-101743807D01*
X194482787Y-101717247D01*
X194465787Y-101688884D01*
X194451649Y-101658991D01*
X194440509Y-101627857D01*
X194432475Y-101595781D01*
X194427623Y-101563071D01*
X194426000Y-101530044D01*
X194426000Y-100653956D01*
X194427623Y-100620929D01*
X194432475Y-100588219D01*
X194440509Y-100556143D01*
X194451649Y-100525009D01*
X194465787Y-100495116D01*
X194482787Y-100466753D01*
X194502485Y-100440193D01*
X194524692Y-100415692D01*
X194549193Y-100393485D01*
X194575753Y-100373787D01*
X194604116Y-100356787D01*
X194634009Y-100342649D01*
X194665143Y-100331509D01*
X194697219Y-100323475D01*
X194729929Y-100318623D01*
X194762956Y-100317000D01*
X195889044Y-100317000D01*
X195922071Y-100318623D01*
X195922071Y-100318623D01*
G37*
D13*
X195326000Y-101092000D03*
D12*
G36*
X195922071Y-102368623D02*
X195954781Y-102373475D01*
X195986857Y-102381509D01*
X196017991Y-102392649D01*
X196047884Y-102406787D01*
X196076247Y-102423787D01*
X196102807Y-102443485D01*
X196127308Y-102465692D01*
X196149515Y-102490193D01*
X196169213Y-102516753D01*
X196186213Y-102545116D01*
X196200351Y-102575009D01*
X196211491Y-102606143D01*
X196219525Y-102638219D01*
X196224377Y-102670929D01*
X196226000Y-102703956D01*
X196226000Y-103580044D01*
X196224377Y-103613071D01*
X196219525Y-103645781D01*
X196211491Y-103677857D01*
X196200351Y-103708991D01*
X196186213Y-103738884D01*
X196169213Y-103767247D01*
X196149515Y-103793807D01*
X196127308Y-103818308D01*
X196102807Y-103840515D01*
X196076247Y-103860213D01*
X196047884Y-103877213D01*
X196017991Y-103891351D01*
X195986857Y-103902491D01*
X195954781Y-103910525D01*
X195922071Y-103915377D01*
X195889044Y-103917000D01*
X194762956Y-103917000D01*
X194729929Y-103915377D01*
X194697219Y-103910525D01*
X194665143Y-103902491D01*
X194634009Y-103891351D01*
X194604116Y-103877213D01*
X194575753Y-103860213D01*
X194549193Y-103840515D01*
X194524692Y-103818308D01*
X194502485Y-103793807D01*
X194482787Y-103767247D01*
X194465787Y-103738884D01*
X194451649Y-103708991D01*
X194440509Y-103677857D01*
X194432475Y-103645781D01*
X194427623Y-103613071D01*
X194426000Y-103580044D01*
X194426000Y-102703956D01*
X194427623Y-102670929D01*
X194432475Y-102638219D01*
X194440509Y-102606143D01*
X194451649Y-102575009D01*
X194465787Y-102545116D01*
X194482787Y-102516753D01*
X194502485Y-102490193D01*
X194524692Y-102465692D01*
X194549193Y-102443485D01*
X194575753Y-102423787D01*
X194604116Y-102406787D01*
X194634009Y-102392649D01*
X194665143Y-102381509D01*
X194697219Y-102373475D01*
X194729929Y-102368623D01*
X194762956Y-102367000D01*
X195889044Y-102367000D01*
X195922071Y-102368623D01*
X195922071Y-102368623D01*
G37*
D13*
X195326000Y-103142000D03*
D17*
X202819000Y-103124000D03*
X202819000Y-100584000D03*
X202819000Y-98044000D03*
X202819000Y-95504000D03*
X202819000Y-92964000D03*
D18*
X202819000Y-90424000D03*
D16*
X53460000Y-133350000D03*
X53460000Y-128350000D03*
X53460000Y-108350000D03*
X60960000Y-108350000D03*
X60960000Y-128350000D03*
X60960000Y-133350000D03*
X69970000Y-133350000D03*
X69970000Y-128350000D03*
X69970000Y-108350000D03*
X77470000Y-108350000D03*
X77470000Y-128350000D03*
X77470000Y-133350000D03*
X119754000Y-133350000D03*
X119754000Y-128350000D03*
X119754000Y-108350000D03*
X127254000Y-108350000D03*
X127254000Y-128350000D03*
X127254000Y-133350000D03*
D19*
X156990000Y-59590000D03*
X155720000Y-59590000D03*
X154450000Y-59590000D03*
D20*
X153180000Y-59590000D03*
D39*
X179070000Y-108204000D03*
X179070000Y-106304000D03*
X177070000Y-107254000D03*
D12*
G36*
X175094071Y-107430623D02*
X175126781Y-107435475D01*
X175158857Y-107443509D01*
X175189991Y-107454649D01*
X175219884Y-107468787D01*
X175248247Y-107485787D01*
X175274807Y-107505485D01*
X175299308Y-107527692D01*
X175321515Y-107552193D01*
X175341213Y-107578753D01*
X175358213Y-107607116D01*
X175372351Y-107637009D01*
X175383491Y-107668143D01*
X175391525Y-107700219D01*
X175396377Y-107732929D01*
X175398000Y-107765956D01*
X175398000Y-108642044D01*
X175396377Y-108675071D01*
X175391525Y-108707781D01*
X175383491Y-108739857D01*
X175372351Y-108770991D01*
X175358213Y-108800884D01*
X175341213Y-108829247D01*
X175321515Y-108855807D01*
X175299308Y-108880308D01*
X175274807Y-108902515D01*
X175248247Y-108922213D01*
X175219884Y-108939213D01*
X175189991Y-108953351D01*
X175158857Y-108964491D01*
X175126781Y-108972525D01*
X175094071Y-108977377D01*
X175061044Y-108979000D01*
X173934956Y-108979000D01*
X173901929Y-108977377D01*
X173869219Y-108972525D01*
X173837143Y-108964491D01*
X173806009Y-108953351D01*
X173776116Y-108939213D01*
X173747753Y-108922213D01*
X173721193Y-108902515D01*
X173696692Y-108880308D01*
X173674485Y-108855807D01*
X173654787Y-108829247D01*
X173637787Y-108800884D01*
X173623649Y-108770991D01*
X173612509Y-108739857D01*
X173604475Y-108707781D01*
X173599623Y-108675071D01*
X173598000Y-108642044D01*
X173598000Y-107765956D01*
X173599623Y-107732929D01*
X173604475Y-107700219D01*
X173612509Y-107668143D01*
X173623649Y-107637009D01*
X173637787Y-107607116D01*
X173654787Y-107578753D01*
X173674485Y-107552193D01*
X173696692Y-107527692D01*
X173721193Y-107505485D01*
X173747753Y-107485787D01*
X173776116Y-107468787D01*
X173806009Y-107454649D01*
X173837143Y-107443509D01*
X173869219Y-107435475D01*
X173901929Y-107430623D01*
X173934956Y-107429000D01*
X175061044Y-107429000D01*
X175094071Y-107430623D01*
X175094071Y-107430623D01*
G37*
D13*
X174498000Y-108204000D03*
D12*
G36*
X175094071Y-105380623D02*
X175126781Y-105385475D01*
X175158857Y-105393509D01*
X175189991Y-105404649D01*
X175219884Y-105418787D01*
X175248247Y-105435787D01*
X175274807Y-105455485D01*
X175299308Y-105477692D01*
X175321515Y-105502193D01*
X175341213Y-105528753D01*
X175358213Y-105557116D01*
X175372351Y-105587009D01*
X175383491Y-105618143D01*
X175391525Y-105650219D01*
X175396377Y-105682929D01*
X175398000Y-105715956D01*
X175398000Y-106592044D01*
X175396377Y-106625071D01*
X175391525Y-106657781D01*
X175383491Y-106689857D01*
X175372351Y-106720991D01*
X175358213Y-106750884D01*
X175341213Y-106779247D01*
X175321515Y-106805807D01*
X175299308Y-106830308D01*
X175274807Y-106852515D01*
X175248247Y-106872213D01*
X175219884Y-106889213D01*
X175189991Y-106903351D01*
X175158857Y-106914491D01*
X175126781Y-106922525D01*
X175094071Y-106927377D01*
X175061044Y-106929000D01*
X173934956Y-106929000D01*
X173901929Y-106927377D01*
X173869219Y-106922525D01*
X173837143Y-106914491D01*
X173806009Y-106903351D01*
X173776116Y-106889213D01*
X173747753Y-106872213D01*
X173721193Y-106852515D01*
X173696692Y-106830308D01*
X173674485Y-106805807D01*
X173654787Y-106779247D01*
X173637787Y-106750884D01*
X173623649Y-106720991D01*
X173612509Y-106689857D01*
X173604475Y-106657781D01*
X173599623Y-106625071D01*
X173598000Y-106592044D01*
X173598000Y-105715956D01*
X173599623Y-105682929D01*
X173604475Y-105650219D01*
X173612509Y-105618143D01*
X173623649Y-105587009D01*
X173637787Y-105557116D01*
X173654787Y-105528753D01*
X173674485Y-105502193D01*
X173696692Y-105477692D01*
X173721193Y-105455485D01*
X173747753Y-105435787D01*
X173776116Y-105418787D01*
X173806009Y-105404649D01*
X173837143Y-105393509D01*
X173869219Y-105385475D01*
X173901929Y-105380623D01*
X173934956Y-105379000D01*
X175061044Y-105379000D01*
X175094071Y-105380623D01*
X175094071Y-105380623D01*
G37*
D13*
X174498000Y-106154000D03*
D12*
G36*
X172808071Y-105380623D02*
X172840781Y-105385475D01*
X172872857Y-105393509D01*
X172903991Y-105404649D01*
X172933884Y-105418787D01*
X172962247Y-105435787D01*
X172988807Y-105455485D01*
X173013308Y-105477692D01*
X173035515Y-105502193D01*
X173055213Y-105528753D01*
X173072213Y-105557116D01*
X173086351Y-105587009D01*
X173097491Y-105618143D01*
X173105525Y-105650219D01*
X173110377Y-105682929D01*
X173112000Y-105715956D01*
X173112000Y-106592044D01*
X173110377Y-106625071D01*
X173105525Y-106657781D01*
X173097491Y-106689857D01*
X173086351Y-106720991D01*
X173072213Y-106750884D01*
X173055213Y-106779247D01*
X173035515Y-106805807D01*
X173013308Y-106830308D01*
X172988807Y-106852515D01*
X172962247Y-106872213D01*
X172933884Y-106889213D01*
X172903991Y-106903351D01*
X172872857Y-106914491D01*
X172840781Y-106922525D01*
X172808071Y-106927377D01*
X172775044Y-106929000D01*
X171648956Y-106929000D01*
X171615929Y-106927377D01*
X171583219Y-106922525D01*
X171551143Y-106914491D01*
X171520009Y-106903351D01*
X171490116Y-106889213D01*
X171461753Y-106872213D01*
X171435193Y-106852515D01*
X171410692Y-106830308D01*
X171388485Y-106805807D01*
X171368787Y-106779247D01*
X171351787Y-106750884D01*
X171337649Y-106720991D01*
X171326509Y-106689857D01*
X171318475Y-106657781D01*
X171313623Y-106625071D01*
X171312000Y-106592044D01*
X171312000Y-105715956D01*
X171313623Y-105682929D01*
X171318475Y-105650219D01*
X171326509Y-105618143D01*
X171337649Y-105587009D01*
X171351787Y-105557116D01*
X171368787Y-105528753D01*
X171388485Y-105502193D01*
X171410692Y-105477692D01*
X171435193Y-105455485D01*
X171461753Y-105435787D01*
X171490116Y-105418787D01*
X171520009Y-105404649D01*
X171551143Y-105393509D01*
X171583219Y-105385475D01*
X171615929Y-105380623D01*
X171648956Y-105379000D01*
X172775044Y-105379000D01*
X172808071Y-105380623D01*
X172808071Y-105380623D01*
G37*
D13*
X172212000Y-106154000D03*
D12*
G36*
X172808071Y-107430623D02*
X172840781Y-107435475D01*
X172872857Y-107443509D01*
X172903991Y-107454649D01*
X172933884Y-107468787D01*
X172962247Y-107485787D01*
X172988807Y-107505485D01*
X173013308Y-107527692D01*
X173035515Y-107552193D01*
X173055213Y-107578753D01*
X173072213Y-107607116D01*
X173086351Y-107637009D01*
X173097491Y-107668143D01*
X173105525Y-107700219D01*
X173110377Y-107732929D01*
X173112000Y-107765956D01*
X173112000Y-108642044D01*
X173110377Y-108675071D01*
X173105525Y-108707781D01*
X173097491Y-108739857D01*
X173086351Y-108770991D01*
X173072213Y-108800884D01*
X173055213Y-108829247D01*
X173035515Y-108855807D01*
X173013308Y-108880308D01*
X172988807Y-108902515D01*
X172962247Y-108922213D01*
X172933884Y-108939213D01*
X172903991Y-108953351D01*
X172872857Y-108964491D01*
X172840781Y-108972525D01*
X172808071Y-108977377D01*
X172775044Y-108979000D01*
X171648956Y-108979000D01*
X171615929Y-108977377D01*
X171583219Y-108972525D01*
X171551143Y-108964491D01*
X171520009Y-108953351D01*
X171490116Y-108939213D01*
X171461753Y-108922213D01*
X171435193Y-108902515D01*
X171410692Y-108880308D01*
X171388485Y-108855807D01*
X171368787Y-108829247D01*
X171351787Y-108800884D01*
X171337649Y-108770991D01*
X171326509Y-108739857D01*
X171318475Y-108707781D01*
X171313623Y-108675071D01*
X171312000Y-108642044D01*
X171312000Y-107765956D01*
X171313623Y-107732929D01*
X171318475Y-107700219D01*
X171326509Y-107668143D01*
X171337649Y-107637009D01*
X171351787Y-107607116D01*
X171368787Y-107578753D01*
X171388485Y-107552193D01*
X171410692Y-107527692D01*
X171435193Y-107505485D01*
X171461753Y-107485787D01*
X171490116Y-107468787D01*
X171520009Y-107454649D01*
X171551143Y-107443509D01*
X171583219Y-107435475D01*
X171615929Y-107430623D01*
X171648956Y-107429000D01*
X172775044Y-107429000D01*
X172808071Y-107430623D01*
X172808071Y-107430623D01*
G37*
D13*
X172212000Y-108204000D03*
D12*
G36*
X160108071Y-60059623D02*
X160140781Y-60064475D01*
X160172857Y-60072509D01*
X160203991Y-60083649D01*
X160233884Y-60097787D01*
X160262247Y-60114787D01*
X160288807Y-60134485D01*
X160313308Y-60156692D01*
X160335515Y-60181193D01*
X160355213Y-60207753D01*
X160372213Y-60236116D01*
X160386351Y-60266009D01*
X160397491Y-60297143D01*
X160405525Y-60329219D01*
X160410377Y-60361929D01*
X160412000Y-60394956D01*
X160412000Y-61271044D01*
X160410377Y-61304071D01*
X160405525Y-61336781D01*
X160397491Y-61368857D01*
X160386351Y-61399991D01*
X160372213Y-61429884D01*
X160355213Y-61458247D01*
X160335515Y-61484807D01*
X160313308Y-61509308D01*
X160288807Y-61531515D01*
X160262247Y-61551213D01*
X160233884Y-61568213D01*
X160203991Y-61582351D01*
X160172857Y-61593491D01*
X160140781Y-61601525D01*
X160108071Y-61606377D01*
X160075044Y-61608000D01*
X158948956Y-61608000D01*
X158915929Y-61606377D01*
X158883219Y-61601525D01*
X158851143Y-61593491D01*
X158820009Y-61582351D01*
X158790116Y-61568213D01*
X158761753Y-61551213D01*
X158735193Y-61531515D01*
X158710692Y-61509308D01*
X158688485Y-61484807D01*
X158668787Y-61458247D01*
X158651787Y-61429884D01*
X158637649Y-61399991D01*
X158626509Y-61368857D01*
X158618475Y-61336781D01*
X158613623Y-61304071D01*
X158612000Y-61271044D01*
X158612000Y-60394956D01*
X158613623Y-60361929D01*
X158618475Y-60329219D01*
X158626509Y-60297143D01*
X158637649Y-60266009D01*
X158651787Y-60236116D01*
X158668787Y-60207753D01*
X158688485Y-60181193D01*
X158710692Y-60156692D01*
X158735193Y-60134485D01*
X158761753Y-60114787D01*
X158790116Y-60097787D01*
X158820009Y-60083649D01*
X158851143Y-60072509D01*
X158883219Y-60064475D01*
X158915929Y-60059623D01*
X158948956Y-60058000D01*
X160075044Y-60058000D01*
X160108071Y-60059623D01*
X160108071Y-60059623D01*
G37*
D13*
X159512000Y-60833000D03*
D12*
G36*
X160108071Y-58009623D02*
X160140781Y-58014475D01*
X160172857Y-58022509D01*
X160203991Y-58033649D01*
X160233884Y-58047787D01*
X160262247Y-58064787D01*
X160288807Y-58084485D01*
X160313308Y-58106692D01*
X160335515Y-58131193D01*
X160355213Y-58157753D01*
X160372213Y-58186116D01*
X160386351Y-58216009D01*
X160397491Y-58247143D01*
X160405525Y-58279219D01*
X160410377Y-58311929D01*
X160412000Y-58344956D01*
X160412000Y-59221044D01*
X160410377Y-59254071D01*
X160405525Y-59286781D01*
X160397491Y-59318857D01*
X160386351Y-59349991D01*
X160372213Y-59379884D01*
X160355213Y-59408247D01*
X160335515Y-59434807D01*
X160313308Y-59459308D01*
X160288807Y-59481515D01*
X160262247Y-59501213D01*
X160233884Y-59518213D01*
X160203991Y-59532351D01*
X160172857Y-59543491D01*
X160140781Y-59551525D01*
X160108071Y-59556377D01*
X160075044Y-59558000D01*
X158948956Y-59558000D01*
X158915929Y-59556377D01*
X158883219Y-59551525D01*
X158851143Y-59543491D01*
X158820009Y-59532351D01*
X158790116Y-59518213D01*
X158761753Y-59501213D01*
X158735193Y-59481515D01*
X158710692Y-59459308D01*
X158688485Y-59434807D01*
X158668787Y-59408247D01*
X158651787Y-59379884D01*
X158637649Y-59349991D01*
X158626509Y-59318857D01*
X158618475Y-59286781D01*
X158613623Y-59254071D01*
X158612000Y-59221044D01*
X158612000Y-58344956D01*
X158613623Y-58311929D01*
X158618475Y-58279219D01*
X158626509Y-58247143D01*
X158637649Y-58216009D01*
X158651787Y-58186116D01*
X158668787Y-58157753D01*
X158688485Y-58131193D01*
X158710692Y-58106692D01*
X158735193Y-58084485D01*
X158761753Y-58064787D01*
X158790116Y-58047787D01*
X158820009Y-58033649D01*
X158851143Y-58022509D01*
X158883219Y-58014475D01*
X158915929Y-58009623D01*
X158948956Y-58008000D01*
X160075044Y-58008000D01*
X160108071Y-58009623D01*
X160108071Y-58009623D01*
G37*
D13*
X159512000Y-58783000D03*
D40*
X170180000Y-120255000D03*
X166780000Y-120255000D03*
X170180000Y-130175000D03*
X166780000Y-130175000D03*
D12*
G36*
X144616071Y-90541623D02*
X144648781Y-90546475D01*
X144680857Y-90554509D01*
X144711991Y-90565649D01*
X144741884Y-90579787D01*
X144770247Y-90596787D01*
X144796807Y-90616485D01*
X144821308Y-90638692D01*
X144843515Y-90663193D01*
X144863213Y-90689753D01*
X144880213Y-90718116D01*
X144894351Y-90748009D01*
X144905491Y-90779143D01*
X144913525Y-90811219D01*
X144918377Y-90843929D01*
X144920000Y-90876956D01*
X144920000Y-92003044D01*
X144918377Y-92036071D01*
X144913525Y-92068781D01*
X144905491Y-92100857D01*
X144894351Y-92131991D01*
X144880213Y-92161884D01*
X144863213Y-92190247D01*
X144843515Y-92216807D01*
X144821308Y-92241308D01*
X144796807Y-92263515D01*
X144770247Y-92283213D01*
X144741884Y-92300213D01*
X144711991Y-92314351D01*
X144680857Y-92325491D01*
X144648781Y-92333525D01*
X144616071Y-92338377D01*
X144583044Y-92340000D01*
X143706956Y-92340000D01*
X143673929Y-92338377D01*
X143641219Y-92333525D01*
X143609143Y-92325491D01*
X143578009Y-92314351D01*
X143548116Y-92300213D01*
X143519753Y-92283213D01*
X143493193Y-92263515D01*
X143468692Y-92241308D01*
X143446485Y-92216807D01*
X143426787Y-92190247D01*
X143409787Y-92161884D01*
X143395649Y-92131991D01*
X143384509Y-92100857D01*
X143376475Y-92068781D01*
X143371623Y-92036071D01*
X143370000Y-92003044D01*
X143370000Y-90876956D01*
X143371623Y-90843929D01*
X143376475Y-90811219D01*
X143384509Y-90779143D01*
X143395649Y-90748009D01*
X143409787Y-90718116D01*
X143426787Y-90689753D01*
X143446485Y-90663193D01*
X143468692Y-90638692D01*
X143493193Y-90616485D01*
X143519753Y-90596787D01*
X143548116Y-90579787D01*
X143578009Y-90565649D01*
X143609143Y-90554509D01*
X143641219Y-90546475D01*
X143673929Y-90541623D01*
X143706956Y-90540000D01*
X144583044Y-90540000D01*
X144616071Y-90541623D01*
X144616071Y-90541623D01*
G37*
D13*
X144145000Y-91440000D03*
D12*
G36*
X146666071Y-90541623D02*
X146698781Y-90546475D01*
X146730857Y-90554509D01*
X146761991Y-90565649D01*
X146791884Y-90579787D01*
X146820247Y-90596787D01*
X146846807Y-90616485D01*
X146871308Y-90638692D01*
X146893515Y-90663193D01*
X146913213Y-90689753D01*
X146930213Y-90718116D01*
X146944351Y-90748009D01*
X146955491Y-90779143D01*
X146963525Y-90811219D01*
X146968377Y-90843929D01*
X146970000Y-90876956D01*
X146970000Y-92003044D01*
X146968377Y-92036071D01*
X146963525Y-92068781D01*
X146955491Y-92100857D01*
X146944351Y-92131991D01*
X146930213Y-92161884D01*
X146913213Y-92190247D01*
X146893515Y-92216807D01*
X146871308Y-92241308D01*
X146846807Y-92263515D01*
X146820247Y-92283213D01*
X146791884Y-92300213D01*
X146761991Y-92314351D01*
X146730857Y-92325491D01*
X146698781Y-92333525D01*
X146666071Y-92338377D01*
X146633044Y-92340000D01*
X145756956Y-92340000D01*
X145723929Y-92338377D01*
X145691219Y-92333525D01*
X145659143Y-92325491D01*
X145628009Y-92314351D01*
X145598116Y-92300213D01*
X145569753Y-92283213D01*
X145543193Y-92263515D01*
X145518692Y-92241308D01*
X145496485Y-92216807D01*
X145476787Y-92190247D01*
X145459787Y-92161884D01*
X145445649Y-92131991D01*
X145434509Y-92100857D01*
X145426475Y-92068781D01*
X145421623Y-92036071D01*
X145420000Y-92003044D01*
X145420000Y-90876956D01*
X145421623Y-90843929D01*
X145426475Y-90811219D01*
X145434509Y-90779143D01*
X145445649Y-90748009D01*
X145459787Y-90718116D01*
X145476787Y-90689753D01*
X145496485Y-90663193D01*
X145518692Y-90638692D01*
X145543193Y-90616485D01*
X145569753Y-90596787D01*
X145598116Y-90579787D01*
X145628009Y-90565649D01*
X145659143Y-90554509D01*
X145691219Y-90546475D01*
X145723929Y-90541623D01*
X145756956Y-90540000D01*
X146633044Y-90540000D01*
X146666071Y-90541623D01*
X146666071Y-90541623D01*
G37*
D13*
X146195000Y-91440000D03*
D12*
G36*
X146666071Y-92446623D02*
X146698781Y-92451475D01*
X146730857Y-92459509D01*
X146761991Y-92470649D01*
X146791884Y-92484787D01*
X146820247Y-92501787D01*
X146846807Y-92521485D01*
X146871308Y-92543692D01*
X146893515Y-92568193D01*
X146913213Y-92594753D01*
X146930213Y-92623116D01*
X146944351Y-92653009D01*
X146955491Y-92684143D01*
X146963525Y-92716219D01*
X146968377Y-92748929D01*
X146970000Y-92781956D01*
X146970000Y-93908044D01*
X146968377Y-93941071D01*
X146963525Y-93973781D01*
X146955491Y-94005857D01*
X146944351Y-94036991D01*
X146930213Y-94066884D01*
X146913213Y-94095247D01*
X146893515Y-94121807D01*
X146871308Y-94146308D01*
X146846807Y-94168515D01*
X146820247Y-94188213D01*
X146791884Y-94205213D01*
X146761991Y-94219351D01*
X146730857Y-94230491D01*
X146698781Y-94238525D01*
X146666071Y-94243377D01*
X146633044Y-94245000D01*
X145756956Y-94245000D01*
X145723929Y-94243377D01*
X145691219Y-94238525D01*
X145659143Y-94230491D01*
X145628009Y-94219351D01*
X145598116Y-94205213D01*
X145569753Y-94188213D01*
X145543193Y-94168515D01*
X145518692Y-94146308D01*
X145496485Y-94121807D01*
X145476787Y-94095247D01*
X145459787Y-94066884D01*
X145445649Y-94036991D01*
X145434509Y-94005857D01*
X145426475Y-93973781D01*
X145421623Y-93941071D01*
X145420000Y-93908044D01*
X145420000Y-92781956D01*
X145421623Y-92748929D01*
X145426475Y-92716219D01*
X145434509Y-92684143D01*
X145445649Y-92653009D01*
X145459787Y-92623116D01*
X145476787Y-92594753D01*
X145496485Y-92568193D01*
X145518692Y-92543692D01*
X145543193Y-92521485D01*
X145569753Y-92501787D01*
X145598116Y-92484787D01*
X145628009Y-92470649D01*
X145659143Y-92459509D01*
X145691219Y-92451475D01*
X145723929Y-92446623D01*
X145756956Y-92445000D01*
X146633044Y-92445000D01*
X146666071Y-92446623D01*
X146666071Y-92446623D01*
G37*
D13*
X146195000Y-93345000D03*
D12*
G36*
X144616071Y-92446623D02*
X144648781Y-92451475D01*
X144680857Y-92459509D01*
X144711991Y-92470649D01*
X144741884Y-92484787D01*
X144770247Y-92501787D01*
X144796807Y-92521485D01*
X144821308Y-92543692D01*
X144843515Y-92568193D01*
X144863213Y-92594753D01*
X144880213Y-92623116D01*
X144894351Y-92653009D01*
X144905491Y-92684143D01*
X144913525Y-92716219D01*
X144918377Y-92748929D01*
X144920000Y-92781956D01*
X144920000Y-93908044D01*
X144918377Y-93941071D01*
X144913525Y-93973781D01*
X144905491Y-94005857D01*
X144894351Y-94036991D01*
X144880213Y-94066884D01*
X144863213Y-94095247D01*
X144843515Y-94121807D01*
X144821308Y-94146308D01*
X144796807Y-94168515D01*
X144770247Y-94188213D01*
X144741884Y-94205213D01*
X144711991Y-94219351D01*
X144680857Y-94230491D01*
X144648781Y-94238525D01*
X144616071Y-94243377D01*
X144583044Y-94245000D01*
X143706956Y-94245000D01*
X143673929Y-94243377D01*
X143641219Y-94238525D01*
X143609143Y-94230491D01*
X143578009Y-94219351D01*
X143548116Y-94205213D01*
X143519753Y-94188213D01*
X143493193Y-94168515D01*
X143468692Y-94146308D01*
X143446485Y-94121807D01*
X143426787Y-94095247D01*
X143409787Y-94066884D01*
X143395649Y-94036991D01*
X143384509Y-94005857D01*
X143376475Y-93973781D01*
X143371623Y-93941071D01*
X143370000Y-93908044D01*
X143370000Y-92781956D01*
X143371623Y-92748929D01*
X143376475Y-92716219D01*
X143384509Y-92684143D01*
X143395649Y-92653009D01*
X143409787Y-92623116D01*
X143426787Y-92594753D01*
X143446485Y-92568193D01*
X143468692Y-92543692D01*
X143493193Y-92521485D01*
X143519753Y-92501787D01*
X143548116Y-92484787D01*
X143578009Y-92470649D01*
X143609143Y-92459509D01*
X143641219Y-92451475D01*
X143673929Y-92446623D01*
X143706956Y-92445000D01*
X144583044Y-92445000D01*
X144616071Y-92446623D01*
X144616071Y-92446623D01*
G37*
D13*
X144145000Y-93345000D03*
D12*
G36*
X151746071Y-90541623D02*
X151778781Y-90546475D01*
X151810857Y-90554509D01*
X151841991Y-90565649D01*
X151871884Y-90579787D01*
X151900247Y-90596787D01*
X151926807Y-90616485D01*
X151951308Y-90638692D01*
X151973515Y-90663193D01*
X151993213Y-90689753D01*
X152010213Y-90718116D01*
X152024351Y-90748009D01*
X152035491Y-90779143D01*
X152043525Y-90811219D01*
X152048377Y-90843929D01*
X152050000Y-90876956D01*
X152050000Y-92003044D01*
X152048377Y-92036071D01*
X152043525Y-92068781D01*
X152035491Y-92100857D01*
X152024351Y-92131991D01*
X152010213Y-92161884D01*
X151993213Y-92190247D01*
X151973515Y-92216807D01*
X151951308Y-92241308D01*
X151926807Y-92263515D01*
X151900247Y-92283213D01*
X151871884Y-92300213D01*
X151841991Y-92314351D01*
X151810857Y-92325491D01*
X151778781Y-92333525D01*
X151746071Y-92338377D01*
X151713044Y-92340000D01*
X150836956Y-92340000D01*
X150803929Y-92338377D01*
X150771219Y-92333525D01*
X150739143Y-92325491D01*
X150708009Y-92314351D01*
X150678116Y-92300213D01*
X150649753Y-92283213D01*
X150623193Y-92263515D01*
X150598692Y-92241308D01*
X150576485Y-92216807D01*
X150556787Y-92190247D01*
X150539787Y-92161884D01*
X150525649Y-92131991D01*
X150514509Y-92100857D01*
X150506475Y-92068781D01*
X150501623Y-92036071D01*
X150500000Y-92003044D01*
X150500000Y-90876956D01*
X150501623Y-90843929D01*
X150506475Y-90811219D01*
X150514509Y-90779143D01*
X150525649Y-90748009D01*
X150539787Y-90718116D01*
X150556787Y-90689753D01*
X150576485Y-90663193D01*
X150598692Y-90638692D01*
X150623193Y-90616485D01*
X150649753Y-90596787D01*
X150678116Y-90579787D01*
X150708009Y-90565649D01*
X150739143Y-90554509D01*
X150771219Y-90546475D01*
X150803929Y-90541623D01*
X150836956Y-90540000D01*
X151713044Y-90540000D01*
X151746071Y-90541623D01*
X151746071Y-90541623D01*
G37*
D13*
X151275000Y-91440000D03*
D12*
G36*
X149696071Y-90541623D02*
X149728781Y-90546475D01*
X149760857Y-90554509D01*
X149791991Y-90565649D01*
X149821884Y-90579787D01*
X149850247Y-90596787D01*
X149876807Y-90616485D01*
X149901308Y-90638692D01*
X149923515Y-90663193D01*
X149943213Y-90689753D01*
X149960213Y-90718116D01*
X149974351Y-90748009D01*
X149985491Y-90779143D01*
X149993525Y-90811219D01*
X149998377Y-90843929D01*
X150000000Y-90876956D01*
X150000000Y-92003044D01*
X149998377Y-92036071D01*
X149993525Y-92068781D01*
X149985491Y-92100857D01*
X149974351Y-92131991D01*
X149960213Y-92161884D01*
X149943213Y-92190247D01*
X149923515Y-92216807D01*
X149901308Y-92241308D01*
X149876807Y-92263515D01*
X149850247Y-92283213D01*
X149821884Y-92300213D01*
X149791991Y-92314351D01*
X149760857Y-92325491D01*
X149728781Y-92333525D01*
X149696071Y-92338377D01*
X149663044Y-92340000D01*
X148786956Y-92340000D01*
X148753929Y-92338377D01*
X148721219Y-92333525D01*
X148689143Y-92325491D01*
X148658009Y-92314351D01*
X148628116Y-92300213D01*
X148599753Y-92283213D01*
X148573193Y-92263515D01*
X148548692Y-92241308D01*
X148526485Y-92216807D01*
X148506787Y-92190247D01*
X148489787Y-92161884D01*
X148475649Y-92131991D01*
X148464509Y-92100857D01*
X148456475Y-92068781D01*
X148451623Y-92036071D01*
X148450000Y-92003044D01*
X148450000Y-90876956D01*
X148451623Y-90843929D01*
X148456475Y-90811219D01*
X148464509Y-90779143D01*
X148475649Y-90748009D01*
X148489787Y-90718116D01*
X148506787Y-90689753D01*
X148526485Y-90663193D01*
X148548692Y-90638692D01*
X148573193Y-90616485D01*
X148599753Y-90596787D01*
X148628116Y-90579787D01*
X148658009Y-90565649D01*
X148689143Y-90554509D01*
X148721219Y-90546475D01*
X148753929Y-90541623D01*
X148786956Y-90540000D01*
X149663044Y-90540000D01*
X149696071Y-90541623D01*
X149696071Y-90541623D01*
G37*
D13*
X149225000Y-91440000D03*
D12*
G36*
X149696071Y-92446623D02*
X149728781Y-92451475D01*
X149760857Y-92459509D01*
X149791991Y-92470649D01*
X149821884Y-92484787D01*
X149850247Y-92501787D01*
X149876807Y-92521485D01*
X149901308Y-92543692D01*
X149923515Y-92568193D01*
X149943213Y-92594753D01*
X149960213Y-92623116D01*
X149974351Y-92653009D01*
X149985491Y-92684143D01*
X149993525Y-92716219D01*
X149998377Y-92748929D01*
X150000000Y-92781956D01*
X150000000Y-93908044D01*
X149998377Y-93941071D01*
X149993525Y-93973781D01*
X149985491Y-94005857D01*
X149974351Y-94036991D01*
X149960213Y-94066884D01*
X149943213Y-94095247D01*
X149923515Y-94121807D01*
X149901308Y-94146308D01*
X149876807Y-94168515D01*
X149850247Y-94188213D01*
X149821884Y-94205213D01*
X149791991Y-94219351D01*
X149760857Y-94230491D01*
X149728781Y-94238525D01*
X149696071Y-94243377D01*
X149663044Y-94245000D01*
X148786956Y-94245000D01*
X148753929Y-94243377D01*
X148721219Y-94238525D01*
X148689143Y-94230491D01*
X148658009Y-94219351D01*
X148628116Y-94205213D01*
X148599753Y-94188213D01*
X148573193Y-94168515D01*
X148548692Y-94146308D01*
X148526485Y-94121807D01*
X148506787Y-94095247D01*
X148489787Y-94066884D01*
X148475649Y-94036991D01*
X148464509Y-94005857D01*
X148456475Y-93973781D01*
X148451623Y-93941071D01*
X148450000Y-93908044D01*
X148450000Y-92781956D01*
X148451623Y-92748929D01*
X148456475Y-92716219D01*
X148464509Y-92684143D01*
X148475649Y-92653009D01*
X148489787Y-92623116D01*
X148506787Y-92594753D01*
X148526485Y-92568193D01*
X148548692Y-92543692D01*
X148573193Y-92521485D01*
X148599753Y-92501787D01*
X148628116Y-92484787D01*
X148658009Y-92470649D01*
X148689143Y-92459509D01*
X148721219Y-92451475D01*
X148753929Y-92446623D01*
X148786956Y-92445000D01*
X149663044Y-92445000D01*
X149696071Y-92446623D01*
X149696071Y-92446623D01*
G37*
D13*
X149225000Y-93345000D03*
D12*
G36*
X151746071Y-92446623D02*
X151778781Y-92451475D01*
X151810857Y-92459509D01*
X151841991Y-92470649D01*
X151871884Y-92484787D01*
X151900247Y-92501787D01*
X151926807Y-92521485D01*
X151951308Y-92543692D01*
X151973515Y-92568193D01*
X151993213Y-92594753D01*
X152010213Y-92623116D01*
X152024351Y-92653009D01*
X152035491Y-92684143D01*
X152043525Y-92716219D01*
X152048377Y-92748929D01*
X152050000Y-92781956D01*
X152050000Y-93908044D01*
X152048377Y-93941071D01*
X152043525Y-93973781D01*
X152035491Y-94005857D01*
X152024351Y-94036991D01*
X152010213Y-94066884D01*
X151993213Y-94095247D01*
X151973515Y-94121807D01*
X151951308Y-94146308D01*
X151926807Y-94168515D01*
X151900247Y-94188213D01*
X151871884Y-94205213D01*
X151841991Y-94219351D01*
X151810857Y-94230491D01*
X151778781Y-94238525D01*
X151746071Y-94243377D01*
X151713044Y-94245000D01*
X150836956Y-94245000D01*
X150803929Y-94243377D01*
X150771219Y-94238525D01*
X150739143Y-94230491D01*
X150708009Y-94219351D01*
X150678116Y-94205213D01*
X150649753Y-94188213D01*
X150623193Y-94168515D01*
X150598692Y-94146308D01*
X150576485Y-94121807D01*
X150556787Y-94095247D01*
X150539787Y-94066884D01*
X150525649Y-94036991D01*
X150514509Y-94005857D01*
X150506475Y-93973781D01*
X150501623Y-93941071D01*
X150500000Y-93908044D01*
X150500000Y-92781956D01*
X150501623Y-92748929D01*
X150506475Y-92716219D01*
X150514509Y-92684143D01*
X150525649Y-92653009D01*
X150539787Y-92623116D01*
X150556787Y-92594753D01*
X150576485Y-92568193D01*
X150598692Y-92543692D01*
X150623193Y-92521485D01*
X150649753Y-92501787D01*
X150678116Y-92484787D01*
X150708009Y-92470649D01*
X150739143Y-92459509D01*
X150771219Y-92451475D01*
X150803929Y-92446623D01*
X150836956Y-92445000D01*
X151713044Y-92445000D01*
X151746071Y-92446623D01*
X151746071Y-92446623D01*
G37*
D13*
X151275000Y-93345000D03*
M02*
