%TF.GenerationSoftware,KiCad,Pcbnew,(5.0.0)*%
%TF.CreationDate,2018-09-12T13:39:33+01:00*%
%TF.ProjectId,AquaHub,417175614875622E6B696361645F7063,rev?*%
%TF.SameCoordinates,Original*%
%TF.FileFunction,Legend,Top*%
%TF.FilePolarity,Positive*%
%FSLAX46Y46*%
G04 Gerber Fmt 4.6, Leading zero omitted, Abs format (unit mm)*
G04 Created by KiCad (PCBNEW (5.0.0)) date 09/12/18 13:39:33*
%MOMM*%
%LPD*%
G01*
G04 APERTURE LIST*
%ADD10C,0.300000*%
%ADD11C,0.200000*%
%ADD12C,0.150000*%
%ADD13C,0.120000*%
%ADD14C,0.010000*%
G04 APERTURE END LIST*
D10*
X86992857Y-68195000D02*
X87707142Y-68195000D01*
X86850000Y-68623571D02*
X87350000Y-67123571D01*
X87850000Y-68623571D01*
X88992857Y-67623571D02*
X88992857Y-69123571D01*
X88992857Y-68552142D02*
X88850000Y-68623571D01*
X88564285Y-68623571D01*
X88421428Y-68552142D01*
X88350000Y-68480714D01*
X88278571Y-68337857D01*
X88278571Y-67909285D01*
X88350000Y-67766428D01*
X88421428Y-67695000D01*
X88564285Y-67623571D01*
X88850000Y-67623571D01*
X88992857Y-67695000D01*
X90350000Y-67623571D02*
X90350000Y-68623571D01*
X89707142Y-67623571D02*
X89707142Y-68409285D01*
X89778571Y-68552142D01*
X89921428Y-68623571D01*
X90135714Y-68623571D01*
X90278571Y-68552142D01*
X90350000Y-68480714D01*
X91707142Y-68623571D02*
X91707142Y-67837857D01*
X91635714Y-67695000D01*
X91492857Y-67623571D01*
X91207142Y-67623571D01*
X91064285Y-67695000D01*
X91707142Y-68552142D02*
X91564285Y-68623571D01*
X91207142Y-68623571D01*
X91064285Y-68552142D01*
X90992857Y-68409285D01*
X90992857Y-68266428D01*
X91064285Y-68123571D01*
X91207142Y-68052142D01*
X91564285Y-68052142D01*
X91707142Y-67980714D01*
X92421428Y-68623571D02*
X92421428Y-67123571D01*
X92421428Y-67837857D02*
X93278571Y-67837857D01*
X93278571Y-68623571D02*
X93278571Y-67123571D01*
X94635714Y-67623571D02*
X94635714Y-68623571D01*
X93992857Y-67623571D02*
X93992857Y-68409285D01*
X94064285Y-68552142D01*
X94207142Y-68623571D01*
X94421428Y-68623571D01*
X94564285Y-68552142D01*
X94635714Y-68480714D01*
X95350000Y-68623571D02*
X95350000Y-67123571D01*
X95350000Y-67695000D02*
X95492857Y-67623571D01*
X95778571Y-67623571D01*
X95921428Y-67695000D01*
X95992857Y-67766428D01*
X96064285Y-67909285D01*
X96064285Y-68337857D01*
X95992857Y-68480714D01*
X95921428Y-68552142D01*
X95778571Y-68623571D01*
X95492857Y-68623571D01*
X95350000Y-68552142D01*
X97849999Y-68623571D02*
X97849999Y-67123571D01*
X98421428Y-67123571D01*
X98564285Y-67195000D01*
X98635714Y-67266428D01*
X98707142Y-67409285D01*
X98707142Y-67623571D01*
X98635714Y-67766428D01*
X98564285Y-67837857D01*
X98421428Y-67909285D01*
X97849999Y-67909285D01*
X99564285Y-68623571D02*
X99421428Y-68552142D01*
X99349999Y-68480714D01*
X99278571Y-68337857D01*
X99278571Y-67909285D01*
X99349999Y-67766428D01*
X99421428Y-67695000D01*
X99564285Y-67623571D01*
X99778571Y-67623571D01*
X99921428Y-67695000D01*
X99992857Y-67766428D01*
X100064285Y-67909285D01*
X100064285Y-68337857D01*
X99992857Y-68480714D01*
X99921428Y-68552142D01*
X99778571Y-68623571D01*
X99564285Y-68623571D01*
X100564285Y-67623571D02*
X100849999Y-68623571D01*
X101135714Y-67909285D01*
X101421428Y-68623571D01*
X101707142Y-67623571D01*
X102849999Y-68552142D02*
X102707142Y-68623571D01*
X102421428Y-68623571D01*
X102278571Y-68552142D01*
X102207142Y-68409285D01*
X102207142Y-67837857D01*
X102278571Y-67695000D01*
X102421428Y-67623571D01*
X102707142Y-67623571D01*
X102849999Y-67695000D01*
X102921428Y-67837857D01*
X102921428Y-67980714D01*
X102207142Y-68123571D01*
X103564285Y-68623571D02*
X103564285Y-67623571D01*
X103564285Y-67909285D02*
X103635714Y-67766428D01*
X103707142Y-67695000D01*
X103849999Y-67623571D01*
X103992857Y-67623571D01*
X104992857Y-67837857D02*
X105207142Y-67909285D01*
X105278571Y-67980714D01*
X105349999Y-68123571D01*
X105349999Y-68337857D01*
X105278571Y-68480714D01*
X105207142Y-68552142D01*
X105064285Y-68623571D01*
X104492857Y-68623571D01*
X104492857Y-67123571D01*
X104992857Y-67123571D01*
X105135714Y-67195000D01*
X105207142Y-67266428D01*
X105278571Y-67409285D01*
X105278571Y-67552142D01*
X105207142Y-67695000D01*
X105135714Y-67766428D01*
X104992857Y-67837857D01*
X104492857Y-67837857D01*
X106207142Y-68623571D02*
X106064285Y-68552142D01*
X105992857Y-68480714D01*
X105921428Y-68337857D01*
X105921428Y-67909285D01*
X105992857Y-67766428D01*
X106064285Y-67695000D01*
X106207142Y-67623571D01*
X106421428Y-67623571D01*
X106564285Y-67695000D01*
X106635714Y-67766428D01*
X106707142Y-67909285D01*
X106707142Y-68337857D01*
X106635714Y-68480714D01*
X106564285Y-68552142D01*
X106421428Y-68623571D01*
X106207142Y-68623571D01*
X107992857Y-68623571D02*
X107992857Y-67837857D01*
X107921428Y-67695000D01*
X107778571Y-67623571D01*
X107492857Y-67623571D01*
X107350000Y-67695000D01*
X107992857Y-68552142D02*
X107850000Y-68623571D01*
X107492857Y-68623571D01*
X107350000Y-68552142D01*
X107278571Y-68409285D01*
X107278571Y-68266428D01*
X107350000Y-68123571D01*
X107492857Y-68052142D01*
X107850000Y-68052142D01*
X107992857Y-67980714D01*
X108707142Y-68623571D02*
X108707142Y-67623571D01*
X108707142Y-67909285D02*
X108778571Y-67766428D01*
X108850000Y-67695000D01*
X108992857Y-67623571D01*
X109135714Y-67623571D01*
X110278571Y-68623571D02*
X110278571Y-67123571D01*
X110278571Y-68552142D02*
X110135714Y-68623571D01*
X109850000Y-68623571D01*
X109707142Y-68552142D01*
X109635714Y-68480714D01*
X109564285Y-68337857D01*
X109564285Y-67909285D01*
X109635714Y-67766428D01*
X109707142Y-67695000D01*
X109850000Y-67623571D01*
X110135714Y-67623571D01*
X110278571Y-67695000D01*
X111992857Y-67623571D02*
X112350000Y-68623571D01*
X112707142Y-67623571D01*
X114064285Y-68623571D02*
X113207142Y-68623571D01*
X113635714Y-68623571D02*
X113635714Y-67123571D01*
X113492857Y-67337857D01*
X113350000Y-67480714D01*
X113207142Y-67552142D01*
X114707142Y-68480714D02*
X114778571Y-68552142D01*
X114707142Y-68623571D01*
X114635714Y-68552142D01*
X114707142Y-68480714D01*
X114707142Y-68623571D01*
X115707142Y-67123571D02*
X115850000Y-67123571D01*
X115992857Y-67195000D01*
X116064285Y-67266428D01*
X116135714Y-67409285D01*
X116207142Y-67695000D01*
X116207142Y-68052142D01*
X116135714Y-68337857D01*
X116064285Y-68480714D01*
X115992857Y-68552142D01*
X115850000Y-68623571D01*
X115707142Y-68623571D01*
X115564285Y-68552142D01*
X115492857Y-68480714D01*
X115421428Y-68337857D01*
X115350000Y-68052142D01*
X115350000Y-67695000D01*
X115421428Y-67409285D01*
X115492857Y-67266428D01*
X115564285Y-67195000D01*
X115707142Y-67123571D01*
D11*
X191770000Y-146050000D02*
X191770000Y-153670000D01*
X175260000Y-146050000D02*
X175260000Y-153670000D01*
D10*
X176907857Y-149601904D02*
X177265000Y-149720952D01*
X177860238Y-149720952D01*
X178098333Y-149601904D01*
X178217380Y-149482857D01*
X178336428Y-149244761D01*
X178336428Y-149006666D01*
X178217380Y-148768571D01*
X178098333Y-148649523D01*
X177860238Y-148530476D01*
X177384047Y-148411428D01*
X177145952Y-148292380D01*
X177026904Y-148173333D01*
X176907857Y-147935238D01*
X176907857Y-147697142D01*
X177026904Y-147459047D01*
X177145952Y-147340000D01*
X177384047Y-147220952D01*
X177979285Y-147220952D01*
X178336428Y-147340000D01*
X179407857Y-147220952D02*
X179407857Y-149244761D01*
X179526904Y-149482857D01*
X179645952Y-149601904D01*
X179884047Y-149720952D01*
X180360238Y-149720952D01*
X180598333Y-149601904D01*
X180717380Y-149482857D01*
X180836428Y-149244761D01*
X180836428Y-147220952D01*
X182026904Y-149720952D02*
X182026904Y-147220952D01*
X182979285Y-147220952D01*
X183217380Y-147340000D01*
X183336428Y-147459047D01*
X183455476Y-147697142D01*
X183455476Y-148054285D01*
X183336428Y-148292380D01*
X183217380Y-148411428D01*
X182979285Y-148530476D01*
X182026904Y-148530476D01*
X184526904Y-149720952D02*
X184526904Y-147220952D01*
X185479285Y-147220952D01*
X185717380Y-147340000D01*
X185836428Y-147459047D01*
X185955476Y-147697142D01*
X185955476Y-148054285D01*
X185836428Y-148292380D01*
X185717380Y-148411428D01*
X185479285Y-148530476D01*
X184526904Y-148530476D01*
X188217380Y-149720952D02*
X187026904Y-149720952D01*
X187026904Y-147220952D01*
X189526904Y-148530476D02*
X189526904Y-149720952D01*
X188693571Y-147220952D02*
X189526904Y-148530476D01*
X190360238Y-147220952D01*
D11*
X55118000Y-106680000D02*
X48006000Y-106680000D01*
X55118000Y-109728000D02*
X55118000Y-106680000D01*
X51054000Y-109728000D02*
X55118000Y-109728000D01*
X146050000Y-115570000D02*
X146050000Y-118110000D01*
X140335000Y-63500000D02*
X140335000Y-60960000D01*
X148590000Y-60960000D02*
X148590000Y-63500000D01*
X148590000Y-63500000D02*
X208280000Y-63500000D01*
X208280000Y-60960000D02*
X148590000Y-60960000D01*
X208280000Y-37465000D02*
X208280000Y-60960000D01*
X38100000Y-37465000D02*
X208280000Y-37465000D01*
X38100000Y-60960000D02*
X38100000Y-37465000D01*
X140335000Y-60960000D02*
X38100000Y-60960000D01*
D10*
X178006428Y-152443571D02*
X178006428Y-150943571D01*
X178863571Y-152443571D01*
X178863571Y-150943571D01*
X183193571Y-151657857D02*
X183693571Y-151657857D01*
X183907857Y-152443571D02*
X183193571Y-152443571D01*
X183193571Y-150943571D01*
X183907857Y-150943571D01*
X189059285Y-152443571D02*
X188345000Y-152443571D01*
X188345000Y-150943571D01*
X195627380Y-77200238D02*
X195627380Y-79200238D01*
X194770238Y-77295476D02*
X194484523Y-77200238D01*
X194008333Y-77200238D01*
X193817857Y-77295476D01*
X193722619Y-77390714D01*
X193627380Y-77581190D01*
X193627380Y-77771666D01*
X193722619Y-77962142D01*
X193817857Y-78057380D01*
X194008333Y-78152619D01*
X194389285Y-78247857D01*
X194579761Y-78343095D01*
X194675000Y-78438333D01*
X194770238Y-78628809D01*
X194770238Y-78819285D01*
X194675000Y-79009761D01*
X194579761Y-79105000D01*
X194389285Y-79200238D01*
X193913095Y-79200238D01*
X193627380Y-79105000D01*
X192770238Y-77200238D02*
X192770238Y-79200238D01*
X192008333Y-79200238D01*
X191817857Y-79105000D01*
X191722619Y-79009761D01*
X191627380Y-78819285D01*
X191627380Y-78533571D01*
X191722619Y-78343095D01*
X191817857Y-78247857D01*
X192008333Y-78152619D01*
X192770238Y-78152619D01*
X189678571Y-72687142D02*
X191178571Y-72187142D01*
X189678571Y-71687142D01*
X191035714Y-70330000D02*
X191107142Y-70401428D01*
X191178571Y-70615714D01*
X191178571Y-70758571D01*
X191107142Y-70972857D01*
X190964285Y-71115714D01*
X190821428Y-71187142D01*
X190535714Y-71258571D01*
X190321428Y-71258571D01*
X190035714Y-71187142D01*
X189892857Y-71115714D01*
X189750000Y-70972857D01*
X189678571Y-70758571D01*
X189678571Y-70615714D01*
X189750000Y-70401428D01*
X189821428Y-70330000D01*
X191035714Y-68830000D02*
X191107142Y-68901428D01*
X191178571Y-69115714D01*
X191178571Y-69258571D01*
X191107142Y-69472857D01*
X190964285Y-69615714D01*
X190821428Y-69687142D01*
X190535714Y-69758571D01*
X190321428Y-69758571D01*
X190035714Y-69687142D01*
X189892857Y-69615714D01*
X189750000Y-69472857D01*
X189678571Y-69258571D01*
X189678571Y-69115714D01*
X189750000Y-68901428D01*
X189821428Y-68830000D01*
X192218571Y-72687142D02*
X192218571Y-71830000D01*
X193718571Y-72258571D02*
X192218571Y-72258571D01*
X192218571Y-71472857D02*
X193718571Y-70472857D01*
X192218571Y-70472857D02*
X193718571Y-71472857D01*
X196258571Y-71615714D02*
X195544285Y-72115714D01*
X196258571Y-72472857D02*
X194758571Y-72472857D01*
X194758571Y-71901428D01*
X194830000Y-71758571D01*
X194901428Y-71687142D01*
X195044285Y-71615714D01*
X195258571Y-71615714D01*
X195401428Y-71687142D01*
X195472857Y-71758571D01*
X195544285Y-71901428D01*
X195544285Y-72472857D01*
X194758571Y-71115714D02*
X196258571Y-70115714D01*
X194758571Y-70115714D02*
X196258571Y-71115714D01*
X197370000Y-71687142D02*
X197298571Y-71830000D01*
X197298571Y-72044285D01*
X197370000Y-72258571D01*
X197512857Y-72401428D01*
X197655714Y-72472857D01*
X197941428Y-72544285D01*
X198155714Y-72544285D01*
X198441428Y-72472857D01*
X198584285Y-72401428D01*
X198727142Y-72258571D01*
X198798571Y-72044285D01*
X198798571Y-71901428D01*
X198727142Y-71687142D01*
X198655714Y-71615714D01*
X198155714Y-71615714D01*
X198155714Y-71901428D01*
X198798571Y-70972857D02*
X197298571Y-70972857D01*
X198798571Y-70115714D01*
X197298571Y-70115714D01*
X198798571Y-69401428D02*
X197298571Y-69401428D01*
X197298571Y-69044285D01*
X197370000Y-68830000D01*
X197512857Y-68687142D01*
X197655714Y-68615714D01*
X197941428Y-68544285D01*
X198155714Y-68544285D01*
X198441428Y-68615714D01*
X198584285Y-68687142D01*
X198727142Y-68830000D01*
X198798571Y-69044285D01*
X198798571Y-69401428D01*
D11*
X48006000Y-118364000D02*
X48006000Y-106680000D01*
X146050000Y-118110000D02*
X48006000Y-118364000D01*
X51054000Y-115316000D02*
X146050000Y-115570000D01*
X51054000Y-109728000D02*
X51054000Y-115316000D01*
X38100000Y-153670000D02*
X208280000Y-153670000D01*
X38100000Y-63500000D02*
X38100000Y-153670000D01*
X140335000Y-63500000D02*
X38100000Y-63500000D01*
X208280000Y-63500000D02*
X208280000Y-153670000D01*
D12*
X46050000Y-88710000D02*
X39950000Y-88710000D01*
X46050000Y-104210000D02*
X39950000Y-104210000D01*
X46050000Y-88710000D02*
X46050000Y-104210000D01*
X39950000Y-88710000D02*
X39950000Y-104210000D01*
D13*
X97845000Y-96245000D02*
X96345000Y-96245000D01*
X96345000Y-96245000D02*
X96345000Y-96515000D01*
X96345000Y-96515000D02*
X93515000Y-96515000D01*
X97845000Y-103145000D02*
X96345000Y-103145000D01*
X96345000Y-103145000D02*
X96345000Y-102875000D01*
X96345000Y-102875000D02*
X95245000Y-102875000D01*
X148515000Y-79503748D02*
X148515000Y-80026252D01*
X149935000Y-79503748D02*
X149935000Y-80026252D01*
X172605000Y-71275000D02*
X172605000Y-73815000D01*
X172605000Y-71275000D02*
X170065000Y-71275000D01*
X172355000Y-71525000D02*
X172355000Y-80875000D01*
X156575000Y-71525000D02*
X172355000Y-71525000D01*
X156575000Y-80875000D02*
X156575000Y-71525000D01*
X172355000Y-80875000D02*
X156575000Y-80875000D01*
X115550000Y-45530000D02*
X115550000Y-45995000D01*
X115550000Y-42905000D02*
X115550000Y-43370000D01*
X120364479Y-45530429D02*
G75*
G02X115855316Y-45530000I-2254479J1080429D01*
G01*
X120364479Y-43369571D02*
G75*
G03X115855316Y-43370000I-2254479J-1080429D01*
G01*
X120897815Y-45530827D02*
G75*
G02X115550000Y-45994830I-2787815J1080827D01*
G01*
X120897815Y-43369173D02*
G75*
G03X115550000Y-42905170I-2787815J-1080827D01*
G01*
X114515000Y-51800000D02*
X114515000Y-56300000D01*
X118515000Y-50550000D02*
X117015000Y-50550000D01*
X121015000Y-56300000D02*
X121015000Y-51800000D01*
X117015000Y-57550000D02*
X118515000Y-57550000D01*
X66365000Y-57550000D02*
X67865000Y-57550000D01*
X70365000Y-56300000D02*
X70365000Y-51800000D01*
X67865000Y-50550000D02*
X66365000Y-50550000D01*
X63865000Y-51800000D02*
X63865000Y-56300000D01*
X84373344Y-104675739D02*
X84373344Y-85447320D01*
X81452344Y-107647320D02*
X84373344Y-104675320D01*
X50673344Y-85447320D02*
X84373344Y-85447320D01*
X50673344Y-107647320D02*
X50673344Y-85447320D01*
X81452344Y-107647320D02*
X50673344Y-107647320D01*
X148650000Y-73600000D02*
X148650000Y-74930000D01*
X147320000Y-73600000D02*
X148650000Y-73600000D01*
X146050000Y-73600000D02*
X146050000Y-76260000D01*
X146050000Y-76260000D02*
X140910000Y-76260000D01*
X146050000Y-73600000D02*
X140910000Y-73600000D01*
X140910000Y-73600000D02*
X140910000Y-76260000D01*
D12*
X55118000Y-113030000D02*
X53340000Y-113030000D01*
X59182000Y-113030000D02*
X60960000Y-113030000D01*
X55118000Y-113030000D02*
G75*
G02X56134000Y-113030000I508000J0D01*
G01*
X56134000Y-113030000D02*
G75*
G02X57150000Y-113030000I508000J0D01*
G01*
X57150000Y-113030000D02*
G75*
G02X58166000Y-113030000I508000J0D01*
G01*
X58166000Y-113030000D02*
G75*
G02X59182000Y-113030000I508000J0D01*
G01*
X52070000Y-114300000D02*
X62230000Y-114300000D01*
X52070000Y-132080000D02*
X52070000Y-111760000D01*
X62230000Y-132080000D02*
X52070000Y-132080000D01*
X62230000Y-111760000D02*
X62230000Y-132080000D01*
X52070000Y-111760000D02*
X62230000Y-111760000D01*
X71628000Y-113030000D02*
X69850000Y-113030000D01*
X75692000Y-113030000D02*
X77470000Y-113030000D01*
X71628000Y-113030000D02*
G75*
G02X72644000Y-113030000I508000J0D01*
G01*
X72644000Y-113030000D02*
G75*
G02X73660000Y-113030000I508000J0D01*
G01*
X73660000Y-113030000D02*
G75*
G02X74676000Y-113030000I508000J0D01*
G01*
X74676000Y-113030000D02*
G75*
G02X75692000Y-113030000I508000J0D01*
G01*
X68580000Y-114300000D02*
X78740000Y-114300000D01*
X68580000Y-132080000D02*
X68580000Y-111760000D01*
X78740000Y-132080000D02*
X68580000Y-132080000D01*
X78740000Y-111760000D02*
X78740000Y-132080000D01*
X68580000Y-111760000D02*
X78740000Y-111760000D01*
X88138000Y-113030000D02*
X86360000Y-113030000D01*
X92202000Y-113030000D02*
X93980000Y-113030000D01*
X88138000Y-113030000D02*
G75*
G02X89154000Y-113030000I508000J0D01*
G01*
X89154000Y-113030000D02*
G75*
G02X90170000Y-113030000I508000J0D01*
G01*
X90170000Y-113030000D02*
G75*
G02X91186000Y-113030000I508000J0D01*
G01*
X91186000Y-113030000D02*
G75*
G02X92202000Y-113030000I508000J0D01*
G01*
X85090000Y-114300000D02*
X95250000Y-114300000D01*
X85090000Y-132080000D02*
X85090000Y-111760000D01*
X95250000Y-132080000D02*
X85090000Y-132080000D01*
X95250000Y-111760000D02*
X95250000Y-132080000D01*
X85090000Y-111760000D02*
X95250000Y-111760000D01*
X104648000Y-112776000D02*
X102870000Y-112776000D01*
X108712000Y-112776000D02*
X110490000Y-112776000D01*
X104648000Y-112776000D02*
G75*
G02X105664000Y-112776000I508000J0D01*
G01*
X105664000Y-112776000D02*
G75*
G02X106680000Y-112776000I508000J0D01*
G01*
X106680000Y-112776000D02*
G75*
G02X107696000Y-112776000I508000J0D01*
G01*
X107696000Y-112776000D02*
G75*
G02X108712000Y-112776000I508000J0D01*
G01*
X101600000Y-114046000D02*
X111760000Y-114046000D01*
X101600000Y-131826000D02*
X101600000Y-111506000D01*
X111760000Y-131826000D02*
X101600000Y-131826000D01*
X111760000Y-111506000D02*
X111760000Y-131826000D01*
X101600000Y-111506000D02*
X111760000Y-111506000D01*
X121412000Y-112776000D02*
X119634000Y-112776000D01*
X125476000Y-112776000D02*
X127254000Y-112776000D01*
X121412000Y-112776000D02*
G75*
G02X122428000Y-112776000I508000J0D01*
G01*
X122428000Y-112776000D02*
G75*
G02X123444000Y-112776000I508000J0D01*
G01*
X123444000Y-112776000D02*
G75*
G02X124460000Y-112776000I508000J0D01*
G01*
X124460000Y-112776000D02*
G75*
G02X125476000Y-112776000I508000J0D01*
G01*
X118364000Y-114046000D02*
X128524000Y-114046000D01*
X118364000Y-131826000D02*
X118364000Y-111506000D01*
X128524000Y-131826000D02*
X118364000Y-131826000D01*
X128524000Y-111506000D02*
X128524000Y-131826000D01*
X118364000Y-111506000D02*
X128524000Y-111506000D01*
X138303000Y-112776000D02*
X136525000Y-112776000D01*
X142367000Y-112776000D02*
X144145000Y-112776000D01*
X138303000Y-112776000D02*
G75*
G02X139319000Y-112776000I508000J0D01*
G01*
X139319000Y-112776000D02*
G75*
G02X140335000Y-112776000I508000J0D01*
G01*
X140335000Y-112776000D02*
G75*
G02X141351000Y-112776000I508000J0D01*
G01*
X141351000Y-112776000D02*
G75*
G02X142367000Y-112776000I508000J0D01*
G01*
X135255000Y-114046000D02*
X145415000Y-114046000D01*
X135255000Y-131826000D02*
X135255000Y-111506000D01*
X145415000Y-131826000D02*
X135255000Y-131826000D01*
X145415000Y-111506000D02*
X145415000Y-131826000D01*
X135255000Y-111506000D02*
X145415000Y-111506000D01*
X161567979Y-122584195D02*
X161567979Y-123984195D01*
X166667979Y-122584195D02*
X166667979Y-118434195D01*
X161517979Y-122584195D02*
X161517979Y-118434195D01*
X166667979Y-122584195D02*
X166522979Y-122584195D01*
X166667979Y-118434195D02*
X166522979Y-118434195D01*
X161517979Y-118434195D02*
X161662979Y-118434195D01*
X161517979Y-122584195D02*
X161567979Y-122584195D01*
D13*
X195640000Y-73600000D02*
X195640000Y-74930000D01*
X194310000Y-73600000D02*
X195640000Y-73600000D01*
X193040000Y-73600000D02*
X193040000Y-76260000D01*
X193040000Y-76260000D02*
X185360000Y-76260000D01*
X193040000Y-73600000D02*
X185360000Y-73600000D01*
X185360000Y-73600000D02*
X185360000Y-76260000D01*
X163813748Y-112470000D02*
X164336252Y-112470000D01*
X163813748Y-111050000D02*
X164336252Y-111050000D01*
X159087979Y-117200447D02*
X159087979Y-116677943D01*
X157667979Y-117200447D02*
X157667979Y-116677943D01*
X163813748Y-115010000D02*
X164336252Y-115010000D01*
X163813748Y-113590000D02*
X164336252Y-113590000D01*
X143585000Y-80026252D02*
X143585000Y-79503748D01*
X142165000Y-80026252D02*
X142165000Y-79503748D01*
X102850000Y-45530000D02*
X102850000Y-45995000D01*
X102850000Y-42905000D02*
X102850000Y-43370000D01*
X107664479Y-45530429D02*
G75*
G02X103155316Y-45530000I-2254479J1080429D01*
G01*
X107664479Y-43369571D02*
G75*
G03X103155316Y-43370000I-2254479J-1080429D01*
G01*
X108197815Y-45530827D02*
G75*
G02X102850000Y-45994830I-2787815J1080827D01*
G01*
X108197815Y-43369173D02*
G75*
G03X102850000Y-42905170I-2787815J-1080827D01*
G01*
X90150000Y-45530000D02*
X90150000Y-45995000D01*
X90150000Y-42905000D02*
X90150000Y-43370000D01*
X94964479Y-45530429D02*
G75*
G02X90455316Y-45530000I-2254479J1080429D01*
G01*
X94964479Y-43369571D02*
G75*
G03X90455316Y-43370000I-2254479J-1080429D01*
G01*
X95497815Y-45530827D02*
G75*
G02X90150000Y-45994830I-2787815J1080827D01*
G01*
X95497815Y-43369173D02*
G75*
G03X90150000Y-42905170I-2787815J-1080827D01*
G01*
X77450000Y-45530000D02*
X77450000Y-45995000D01*
X77450000Y-42905000D02*
X77450000Y-43370000D01*
X82264479Y-45530429D02*
G75*
G02X77755316Y-45530000I-2254479J1080429D01*
G01*
X82264479Y-43369571D02*
G75*
G03X77755316Y-43370000I-2254479J-1080429D01*
G01*
X82797815Y-45530827D02*
G75*
G02X77450000Y-45994830I-2787815J1080827D01*
G01*
X82797815Y-43369173D02*
G75*
G03X77450000Y-42905170I-2787815J-1080827D01*
G01*
X64750000Y-45530000D02*
X64750000Y-45995000D01*
X64750000Y-42905000D02*
X64750000Y-43370000D01*
X69564479Y-45530429D02*
G75*
G02X65055316Y-45530000I-2254479J1080429D01*
G01*
X69564479Y-43369571D02*
G75*
G03X65055316Y-43370000I-2254479J-1080429D01*
G01*
X70097815Y-45530827D02*
G75*
G02X64750000Y-45994830I-2787815J1080827D01*
G01*
X70097815Y-43369173D02*
G75*
G03X64750000Y-42905170I-2787815J-1080827D01*
G01*
X52050000Y-45530000D02*
X52050000Y-45995000D01*
X52050000Y-42905000D02*
X52050000Y-43370000D01*
X56864479Y-45530429D02*
G75*
G02X52355316Y-45530000I-2254479J1080429D01*
G01*
X56864479Y-43369571D02*
G75*
G03X52355316Y-43370000I-2254479J-1080429D01*
G01*
X57397815Y-45530827D02*
G75*
G02X52050000Y-45994830I-2787815J1080827D01*
G01*
X57397815Y-43369173D02*
G75*
G03X52050000Y-42905170I-2787815J-1080827D01*
G01*
X101965000Y-51800000D02*
X101965000Y-56300000D01*
X105965000Y-50550000D02*
X104465000Y-50550000D01*
X108465000Y-56300000D02*
X108465000Y-51800000D01*
X104465000Y-57550000D02*
X105965000Y-57550000D01*
X91765000Y-57550000D02*
X93265000Y-57550000D01*
X95765000Y-56300000D02*
X95765000Y-51800000D01*
X93265000Y-50550000D02*
X91765000Y-50550000D01*
X89265000Y-51800000D02*
X89265000Y-56300000D01*
X76415000Y-51800000D02*
X76415000Y-56300000D01*
X80415000Y-50550000D02*
X78915000Y-50550000D01*
X82915000Y-56300000D02*
X82915000Y-51800000D01*
X78915000Y-57550000D02*
X80415000Y-57550000D01*
X54205000Y-57550000D02*
X55705000Y-57550000D01*
X58205000Y-56300000D02*
X58205000Y-51800000D01*
X55705000Y-50550000D02*
X54205000Y-50550000D01*
X51705000Y-51800000D02*
X51705000Y-56300000D01*
X86658750Y-92468750D02*
X87446250Y-92468750D01*
X87052500Y-92862500D02*
X87052500Y-92075000D01*
X91245563Y-91835000D02*
X92310000Y-90770563D01*
X86554437Y-91835000D02*
X85490000Y-90770563D01*
X86554437Y-91835000D02*
X87840000Y-91835000D01*
X91245563Y-91835000D02*
X89960000Y-91835000D01*
X92310000Y-90770563D02*
X92310000Y-85015000D01*
X85490000Y-90770563D02*
X85490000Y-85015000D01*
X85490000Y-85015000D02*
X87840000Y-85015000D01*
X92310000Y-85015000D02*
X89960000Y-85015000D01*
X92310000Y-96445000D02*
X89960000Y-96445000D01*
X85490000Y-96445000D02*
X87840000Y-96445000D01*
X85490000Y-102200563D02*
X85490000Y-96445000D01*
X92310000Y-102200563D02*
X92310000Y-96445000D01*
X91245563Y-103265000D02*
X89960000Y-103265000D01*
X86554437Y-103265000D02*
X87840000Y-103265000D01*
X86554437Y-103265000D02*
X85490000Y-102200563D01*
X91245563Y-103265000D02*
X92310000Y-102200563D01*
X87052500Y-104292500D02*
X87052500Y-103505000D01*
X86658750Y-103898750D02*
X87446250Y-103898750D01*
X106587500Y-91917500D02*
X107212500Y-91917500D01*
X106900000Y-92230000D02*
X106900000Y-91605000D01*
X110280563Y-91365000D02*
X111345000Y-90300563D01*
X106889437Y-91365000D02*
X105825000Y-90300563D01*
X106889437Y-91365000D02*
X107525000Y-91365000D01*
X110280563Y-91365000D02*
X109645000Y-91365000D01*
X111345000Y-90300563D02*
X111345000Y-85845000D01*
X105825000Y-90300563D02*
X105825000Y-85845000D01*
X105825000Y-85845000D02*
X107525000Y-85845000D01*
X111345000Y-85845000D02*
X109645000Y-85845000D01*
X111345000Y-97275000D02*
X109645000Y-97275000D01*
X105825000Y-97275000D02*
X107525000Y-97275000D01*
X105825000Y-101730563D02*
X105825000Y-97275000D01*
X111345000Y-101730563D02*
X111345000Y-97275000D01*
X110280563Y-102795000D02*
X109645000Y-102795000D01*
X106889437Y-102795000D02*
X107525000Y-102795000D01*
X106889437Y-102795000D02*
X105825000Y-101730563D01*
X110280563Y-102795000D02*
X111345000Y-101730563D01*
X106900000Y-103660000D02*
X106900000Y-103035000D01*
X106587500Y-103347500D02*
X107212500Y-103347500D01*
X96165000Y-91825000D02*
X95065000Y-91825000D01*
X96165000Y-92095000D02*
X96165000Y-91825000D01*
X97665000Y-92095000D02*
X96165000Y-92095000D01*
X96165000Y-85465000D02*
X93335000Y-85465000D01*
X96165000Y-85195000D02*
X96165000Y-85465000D01*
X97665000Y-85195000D02*
X96165000Y-85195000D01*
X85084000Y-145635000D02*
X85484000Y-145635000D01*
X85084000Y-144995000D02*
X85084000Y-145635000D01*
X91626000Y-141327000D02*
X91231000Y-141723000D01*
X94272000Y-138681000D02*
X93892000Y-139061000D01*
X91877000Y-141609000D02*
X91497000Y-141989000D01*
X94538000Y-138947000D02*
X94143000Y-139343000D01*
X86336000Y-141616000D02*
X86230000Y-141723000D01*
X89272000Y-138681000D02*
X89165000Y-138788000D01*
X86602000Y-141882000D02*
X86496000Y-141989000D01*
X89538000Y-138947000D02*
X89431000Y-139054000D01*
X95444000Y-136275000D02*
X95444000Y-145395000D01*
X85324000Y-136275000D02*
X85324000Y-145395000D01*
X85324000Y-145395000D02*
X95444000Y-145395000D01*
X85324000Y-136275000D02*
X95444000Y-136275000D01*
X85324000Y-143835000D02*
X95444000Y-143835000D01*
X85324000Y-144935000D02*
X95444000Y-144935000D01*
X95064000Y-140335000D02*
G75*
G03X95064000Y-140335000I-2180000J0D01*
G01*
X90064000Y-140335000D02*
G75*
G03X90064000Y-140335000I-2180000J0D01*
G01*
X106701000Y-140335000D02*
G75*
G03X106701000Y-140335000I-2180000J0D01*
G01*
X111701000Y-140335000D02*
G75*
G03X111701000Y-140335000I-2180000J0D01*
G01*
X101961000Y-144935000D02*
X112081000Y-144935000D01*
X101961000Y-143835000D02*
X112081000Y-143835000D01*
X101961000Y-136275000D02*
X112081000Y-136275000D01*
X101961000Y-145395000D02*
X112081000Y-145395000D01*
X101961000Y-136275000D02*
X101961000Y-145395000D01*
X112081000Y-136275000D02*
X112081000Y-145395000D01*
X106175000Y-138947000D02*
X106068000Y-139054000D01*
X103239000Y-141882000D02*
X103133000Y-141989000D01*
X105909000Y-138681000D02*
X105802000Y-138788000D01*
X102973000Y-141616000D02*
X102867000Y-141723000D01*
X111175000Y-138947000D02*
X110780000Y-139343000D01*
X108514000Y-141609000D02*
X108134000Y-141989000D01*
X110909000Y-138681000D02*
X110529000Y-139061000D01*
X108263000Y-141327000D02*
X107868000Y-141723000D01*
X101721000Y-144995000D02*
X101721000Y-145635000D01*
X101721000Y-145635000D02*
X102121000Y-145635000D01*
X118358000Y-145635000D02*
X118758000Y-145635000D01*
X118358000Y-144995000D02*
X118358000Y-145635000D01*
X124900000Y-141327000D02*
X124505000Y-141723000D01*
X127546000Y-138681000D02*
X127166000Y-139061000D01*
X125151000Y-141609000D02*
X124771000Y-141989000D01*
X127812000Y-138947000D02*
X127417000Y-139343000D01*
X119610000Y-141616000D02*
X119504000Y-141723000D01*
X122546000Y-138681000D02*
X122439000Y-138788000D01*
X119876000Y-141882000D02*
X119770000Y-141989000D01*
X122812000Y-138947000D02*
X122705000Y-139054000D01*
X128718000Y-136275000D02*
X128718000Y-145395000D01*
X118598000Y-136275000D02*
X118598000Y-145395000D01*
X118598000Y-145395000D02*
X128718000Y-145395000D01*
X118598000Y-136275000D02*
X128718000Y-136275000D01*
X118598000Y-143835000D02*
X128718000Y-143835000D01*
X118598000Y-144935000D02*
X128718000Y-144935000D01*
X128338000Y-140335000D02*
G75*
G03X128338000Y-140335000I-2180000J0D01*
G01*
X123338000Y-140335000D02*
G75*
G03X123338000Y-140335000I-2180000J0D01*
G01*
X51810000Y-145635000D02*
X52210000Y-145635000D01*
X51810000Y-144995000D02*
X51810000Y-145635000D01*
X58352000Y-141327000D02*
X57957000Y-141723000D01*
X60998000Y-138681000D02*
X60618000Y-139061000D01*
X58603000Y-141609000D02*
X58223000Y-141989000D01*
X61264000Y-138947000D02*
X60869000Y-139343000D01*
X53062000Y-141616000D02*
X52956000Y-141723000D01*
X55998000Y-138681000D02*
X55891000Y-138788000D01*
X53328000Y-141882000D02*
X53222000Y-141989000D01*
X56264000Y-138947000D02*
X56157000Y-139054000D01*
X62170000Y-136275000D02*
X62170000Y-145395000D01*
X52050000Y-136275000D02*
X52050000Y-145395000D01*
X52050000Y-145395000D02*
X62170000Y-145395000D01*
X52050000Y-136275000D02*
X62170000Y-136275000D01*
X52050000Y-143835000D02*
X62170000Y-143835000D01*
X52050000Y-144935000D02*
X62170000Y-144935000D01*
X61790000Y-140335000D02*
G75*
G03X61790000Y-140335000I-2180000J0D01*
G01*
X56790000Y-140335000D02*
G75*
G03X56790000Y-140335000I-2180000J0D01*
G01*
X180615000Y-140335000D02*
G75*
G03X180615000Y-140335000I-2180000J0D01*
G01*
X185615000Y-140335000D02*
G75*
G03X185615000Y-140335000I-2180000J0D01*
G01*
X190615000Y-140335000D02*
G75*
G03X190615000Y-140335000I-2180000J0D01*
G01*
X175875000Y-144935000D02*
X190995000Y-144935000D01*
X175875000Y-143835000D02*
X190995000Y-143835000D01*
X175875000Y-136275000D02*
X190995000Y-136275000D01*
X175875000Y-145395000D02*
X190995000Y-145395000D01*
X175875000Y-136275000D02*
X175875000Y-145395000D01*
X190995000Y-136275000D02*
X190995000Y-145395000D01*
X180089000Y-138947000D02*
X179982000Y-139054000D01*
X177153000Y-141882000D02*
X177047000Y-141989000D01*
X179823000Y-138681000D02*
X179716000Y-138788000D01*
X176887000Y-141616000D02*
X176781000Y-141723000D01*
X185089000Y-138947000D02*
X184694000Y-139343000D01*
X182428000Y-141609000D02*
X182048000Y-141989000D01*
X184823000Y-138681000D02*
X184443000Y-139061000D01*
X182177000Y-141327000D02*
X181782000Y-141723000D01*
X190089000Y-138947000D02*
X189694000Y-139343000D01*
X187428000Y-141609000D02*
X187048000Y-141989000D01*
X189823000Y-138681000D02*
X189443000Y-139061000D01*
X187177000Y-141327000D02*
X186782000Y-141723000D01*
X175635000Y-144995000D02*
X175635000Y-145635000D01*
X175635000Y-145635000D02*
X176035000Y-145635000D01*
X68447000Y-145635000D02*
X68847000Y-145635000D01*
X68447000Y-144995000D02*
X68447000Y-145635000D01*
X74989000Y-141327000D02*
X74594000Y-141723000D01*
X77635000Y-138681000D02*
X77255000Y-139061000D01*
X75240000Y-141609000D02*
X74860000Y-141989000D01*
X77901000Y-138947000D02*
X77506000Y-139343000D01*
X69699000Y-141616000D02*
X69593000Y-141723000D01*
X72635000Y-138681000D02*
X72528000Y-138788000D01*
X69965000Y-141882000D02*
X69859000Y-141989000D01*
X72901000Y-138947000D02*
X72794000Y-139054000D01*
X78807000Y-136275000D02*
X78807000Y-145395000D01*
X68687000Y-136275000D02*
X68687000Y-145395000D01*
X68687000Y-145395000D02*
X78807000Y-145395000D01*
X68687000Y-136275000D02*
X78807000Y-136275000D01*
X68687000Y-143835000D02*
X78807000Y-143835000D01*
X68687000Y-144935000D02*
X78807000Y-144935000D01*
X78427000Y-140335000D02*
G75*
G03X78427000Y-140335000I-2180000J0D01*
G01*
X73427000Y-140335000D02*
G75*
G03X73427000Y-140335000I-2180000J0D01*
G01*
X139975000Y-140335000D02*
G75*
G03X139975000Y-140335000I-2180000J0D01*
G01*
X144975000Y-140335000D02*
G75*
G03X144975000Y-140335000I-2180000J0D01*
G01*
X135235000Y-144935000D02*
X145355000Y-144935000D01*
X135235000Y-143835000D02*
X145355000Y-143835000D01*
X135235000Y-136275000D02*
X145355000Y-136275000D01*
X135235000Y-145395000D02*
X145355000Y-145395000D01*
X135235000Y-136275000D02*
X135235000Y-145395000D01*
X145355000Y-136275000D02*
X145355000Y-145395000D01*
X139449000Y-138947000D02*
X139342000Y-139054000D01*
X136513000Y-141882000D02*
X136407000Y-141989000D01*
X139183000Y-138681000D02*
X139076000Y-138788000D01*
X136247000Y-141616000D02*
X136141000Y-141723000D01*
X144449000Y-138947000D02*
X144054000Y-139343000D01*
X141788000Y-141609000D02*
X141408000Y-141989000D01*
X144183000Y-138681000D02*
X143803000Y-139061000D01*
X141537000Y-141327000D02*
X141142000Y-141723000D01*
X134995000Y-144995000D02*
X134995000Y-145635000D01*
X134995000Y-145635000D02*
X135395000Y-145635000D01*
X157755000Y-140335000D02*
G75*
G03X157755000Y-140335000I-2180000J0D01*
G01*
X162755000Y-140335000D02*
G75*
G03X162755000Y-140335000I-2180000J0D01*
G01*
X167755000Y-140335000D02*
G75*
G03X167755000Y-140335000I-2180000J0D01*
G01*
X153015000Y-144935000D02*
X168135000Y-144935000D01*
X153015000Y-143835000D02*
X168135000Y-143835000D01*
X153015000Y-136275000D02*
X168135000Y-136275000D01*
X153015000Y-145395000D02*
X168135000Y-145395000D01*
X153015000Y-136275000D02*
X153015000Y-145395000D01*
X168135000Y-136275000D02*
X168135000Y-145395000D01*
X157229000Y-138947000D02*
X157122000Y-139054000D01*
X154293000Y-141882000D02*
X154187000Y-141989000D01*
X156963000Y-138681000D02*
X156856000Y-138788000D01*
X154027000Y-141616000D02*
X153921000Y-141723000D01*
X162229000Y-138947000D02*
X161834000Y-139343000D01*
X159568000Y-141609000D02*
X159188000Y-141989000D01*
X161963000Y-138681000D02*
X161583000Y-139061000D01*
X159317000Y-141327000D02*
X158922000Y-141723000D01*
X167229000Y-138947000D02*
X166834000Y-139343000D01*
X164568000Y-141609000D02*
X164188000Y-141989000D01*
X166963000Y-138681000D02*
X166583000Y-139061000D01*
X164317000Y-141327000D02*
X163922000Y-141723000D01*
X152775000Y-144995000D02*
X152775000Y-145635000D01*
X152775000Y-145635000D02*
X153175000Y-145635000D01*
X184210000Y-71100000D02*
X183909493Y-71100000D01*
X183120507Y-71100000D02*
X182820000Y-71100000D01*
X184210000Y-71975000D02*
X184210000Y-71100000D01*
X182820000Y-71975000D02*
X182820000Y-71100000D01*
X184210000Y-71975000D02*
X184123276Y-71975000D01*
X182906724Y-71975000D02*
X182820000Y-71975000D01*
X184210000Y-72660000D02*
X184210000Y-73345000D01*
X184210000Y-73345000D02*
X183515000Y-73345000D01*
D14*
G36*
X75676170Y-71468172D02*
X75788752Y-72065363D01*
X76204166Y-72236610D01*
X76619579Y-72407857D01*
X77117937Y-72068978D01*
X77257503Y-71974622D01*
X77383663Y-71890375D01*
X77490530Y-71820083D01*
X77572217Y-71767592D01*
X77622836Y-71736749D01*
X77636621Y-71730098D01*
X77661455Y-71747203D01*
X77714523Y-71794489D01*
X77789875Y-71865917D01*
X77881564Y-71955445D01*
X77983642Y-72057034D01*
X78090161Y-72164643D01*
X78195171Y-72272232D01*
X78292726Y-72373760D01*
X78376877Y-72463186D01*
X78441675Y-72534471D01*
X78481173Y-72581573D01*
X78490615Y-72597337D01*
X78477026Y-72626398D01*
X78438928Y-72690066D01*
X78380329Y-72782112D01*
X78305232Y-72896309D01*
X78217644Y-73026429D01*
X78166889Y-73100646D01*
X78074380Y-73236167D01*
X77992175Y-73358461D01*
X77924265Y-73461440D01*
X77874635Y-73539018D01*
X77847275Y-73585106D01*
X77843164Y-73594792D01*
X77852484Y-73622319D01*
X77877889Y-73686473D01*
X77915546Y-73778235D01*
X77961621Y-73888584D01*
X78012281Y-74008500D01*
X78063694Y-74128964D01*
X78112024Y-74240954D01*
X78153441Y-74335452D01*
X78184109Y-74403437D01*
X78200197Y-74435888D01*
X78201146Y-74437165D01*
X78226407Y-74443362D01*
X78293681Y-74457185D01*
X78395995Y-74477277D01*
X78526376Y-74502279D01*
X78677851Y-74530831D01*
X78766229Y-74547296D01*
X78928087Y-74578114D01*
X79074284Y-74607439D01*
X79197422Y-74633666D01*
X79290104Y-74655191D01*
X79344936Y-74670410D01*
X79355958Y-74675238D01*
X79366754Y-74707919D01*
X79375464Y-74781730D01*
X79382095Y-74888037D01*
X79386653Y-75018212D01*
X79389144Y-75163621D01*
X79389573Y-75315635D01*
X79387946Y-75465622D01*
X79384270Y-75604951D01*
X79378550Y-75724990D01*
X79370793Y-75817110D01*
X79361003Y-75872677D01*
X79355131Y-75884245D01*
X79320034Y-75898110D01*
X79245663Y-75917933D01*
X79141858Y-75941384D01*
X79018454Y-75966136D01*
X78975376Y-75974143D01*
X78767682Y-76012186D01*
X78603619Y-76042824D01*
X78477765Y-76067274D01*
X78384700Y-76086754D01*
X78319002Y-76102481D01*
X78275252Y-76115673D01*
X78248027Y-76127549D01*
X78231907Y-76139325D01*
X78229652Y-76141653D01*
X78207138Y-76179145D01*
X78172793Y-76252110D01*
X78130046Y-76351612D01*
X78082327Y-76468718D01*
X78033065Y-76594493D01*
X77985690Y-76720002D01*
X77943630Y-76836310D01*
X77910315Y-76934484D01*
X77889176Y-77005588D01*
X77883640Y-77040687D01*
X77884101Y-77041917D01*
X77902858Y-77070606D01*
X77945411Y-77133730D01*
X78007288Y-77224718D01*
X78084017Y-77337000D01*
X78171126Y-77464005D01*
X78195934Y-77500098D01*
X78284388Y-77630948D01*
X78362223Y-77750336D01*
X78425201Y-77851407D01*
X78469080Y-77927304D01*
X78489620Y-77971172D01*
X78490615Y-77976562D01*
X78473357Y-78004889D01*
X78425671Y-78061006D01*
X78353685Y-78138882D01*
X78263532Y-78232485D01*
X78161340Y-78335786D01*
X78053241Y-78442751D01*
X77945363Y-78547351D01*
X77843839Y-78643554D01*
X77754797Y-78725329D01*
X77684368Y-78786645D01*
X77638682Y-78821471D01*
X77626044Y-78827157D01*
X77596626Y-78813765D01*
X77536396Y-78777644D01*
X77455165Y-78724881D01*
X77392665Y-78682412D01*
X77279420Y-78604485D01*
X77145309Y-78512729D01*
X77010790Y-78421120D01*
X76938468Y-78372091D01*
X76693673Y-78206515D01*
X76488186Y-78317620D01*
X76394571Y-78366293D01*
X76314965Y-78404126D01*
X76261102Y-78425703D01*
X76247392Y-78428706D01*
X76230905Y-78406538D01*
X76198380Y-78343894D01*
X76152244Y-78246554D01*
X76094925Y-78120294D01*
X76028851Y-77970895D01*
X75956450Y-77804133D01*
X75880151Y-77625787D01*
X75802381Y-77441636D01*
X75725569Y-77257457D01*
X75652141Y-77079030D01*
X75584527Y-76912132D01*
X75525155Y-76762542D01*
X75476451Y-76636038D01*
X75440845Y-76538399D01*
X75420765Y-76475402D01*
X75417535Y-76453766D01*
X75443131Y-76426169D01*
X75499174Y-76381370D01*
X75573946Y-76328679D01*
X75580222Y-76324510D01*
X75773480Y-76169814D01*
X75929309Y-75989336D01*
X76046359Y-75788847D01*
X76123280Y-75574119D01*
X76158721Y-75350922D01*
X76151332Y-75125026D01*
X76099762Y-74902204D01*
X76002661Y-74688224D01*
X75974093Y-74641409D01*
X75825503Y-74452363D01*
X75649962Y-74300557D01*
X75453545Y-74186779D01*
X75242328Y-74111820D01*
X75022388Y-74076467D01*
X74799798Y-74081512D01*
X74580636Y-74127744D01*
X74370977Y-74215951D01*
X74176896Y-74346924D01*
X74116861Y-74400082D01*
X73964070Y-74566484D01*
X73852732Y-74741657D01*
X73776358Y-74938011D01*
X73733822Y-75132462D01*
X73723321Y-75351087D01*
X73758336Y-75570797D01*
X73835308Y-75784165D01*
X73950682Y-75983767D01*
X74100901Y-76162174D01*
X74282408Y-76311962D01*
X74306262Y-76327751D01*
X74381836Y-76379457D01*
X74439286Y-76424257D01*
X74466752Y-76452862D01*
X74467152Y-76453766D01*
X74461255Y-76484709D01*
X74437880Y-76554936D01*
X74399456Y-76658670D01*
X74348412Y-76790135D01*
X74287177Y-76943552D01*
X74218179Y-77113146D01*
X74143849Y-77293138D01*
X74066613Y-77477753D01*
X73988903Y-77661213D01*
X73913146Y-77837741D01*
X73841772Y-78001559D01*
X73777209Y-78146892D01*
X73721887Y-78267962D01*
X73678235Y-78358992D01*
X73648681Y-78414205D01*
X73636779Y-78428706D01*
X73600412Y-78417414D01*
X73532365Y-78387130D01*
X73444372Y-78343265D01*
X73395986Y-78317620D01*
X73190498Y-78206515D01*
X72945703Y-78372091D01*
X72820741Y-78456915D01*
X72683930Y-78550261D01*
X72555724Y-78638153D01*
X72491506Y-78682412D01*
X72401186Y-78743063D01*
X72324706Y-78791126D01*
X72272042Y-78820515D01*
X72254937Y-78826727D01*
X72230040Y-78809968D01*
X72174940Y-78763181D01*
X72094978Y-78691225D01*
X71995496Y-78598957D01*
X71881835Y-78491235D01*
X71809950Y-78422071D01*
X71684186Y-78298502D01*
X71575498Y-78187979D01*
X71488280Y-78095230D01*
X71426924Y-78024982D01*
X71395826Y-77981965D01*
X71392843Y-77973235D01*
X71406688Y-77940029D01*
X71444947Y-77872887D01*
X71503377Y-77778608D01*
X71577732Y-77663990D01*
X71663770Y-77535828D01*
X71688238Y-77500098D01*
X71777390Y-77370234D01*
X71857373Y-77253314D01*
X71923715Y-77155907D01*
X71971946Y-77084584D01*
X71997592Y-77045915D01*
X72000070Y-77041917D01*
X71996364Y-77011100D01*
X71976696Y-76943344D01*
X71944495Y-76847584D01*
X71903190Y-76732754D01*
X71856210Y-76607789D01*
X71806984Y-76481624D01*
X71758943Y-76363193D01*
X71715516Y-76261430D01*
X71680131Y-76185271D01*
X71656219Y-76143649D01*
X71654519Y-76141653D01*
X71639897Y-76129758D01*
X71615200Y-76117995D01*
X71575007Y-76105146D01*
X71513898Y-76089994D01*
X71426452Y-76071321D01*
X71307247Y-76047910D01*
X71150862Y-76018542D01*
X70951878Y-75982000D01*
X70908795Y-75974143D01*
X70781106Y-75949472D01*
X70669788Y-75925338D01*
X70584680Y-75904069D01*
X70535618Y-75887993D01*
X70529040Y-75884245D01*
X70518199Y-75851018D01*
X70509388Y-75776766D01*
X70502611Y-75670121D01*
X70497875Y-75539712D01*
X70495185Y-75394172D01*
X70494548Y-75242131D01*
X70495969Y-75092221D01*
X70499455Y-74953073D01*
X70505011Y-74833317D01*
X70512643Y-74741586D01*
X70522357Y-74686511D01*
X70528213Y-74675238D01*
X70560815Y-74663868D01*
X70635053Y-74645369D01*
X70743531Y-74621347D01*
X70878852Y-74593407D01*
X71033620Y-74563153D01*
X71117943Y-74547296D01*
X71277931Y-74517389D01*
X71420602Y-74490295D01*
X71538983Y-74467376D01*
X71626100Y-74449988D01*
X71674980Y-74439492D01*
X71683025Y-74437165D01*
X71696622Y-74410931D01*
X71725364Y-74347740D01*
X71765420Y-74256622D01*
X71812959Y-74146602D01*
X71864150Y-74026710D01*
X71915161Y-73905972D01*
X71962161Y-73793416D01*
X72001319Y-73698071D01*
X72028804Y-73628962D01*
X72040784Y-73595119D01*
X72041007Y-73593640D01*
X72027426Y-73566942D01*
X71989350Y-73505505D01*
X71930782Y-73415434D01*
X71855723Y-73302835D01*
X71768175Y-73173815D01*
X71717282Y-73099706D01*
X71624544Y-72963822D01*
X71542176Y-72840454D01*
X71474196Y-72735842D01*
X71424623Y-72656228D01*
X71397477Y-72607852D01*
X71393556Y-72597007D01*
X71410410Y-72571765D01*
X71457003Y-72517869D01*
X71527384Y-72441358D01*
X71615600Y-72348268D01*
X71715700Y-72244640D01*
X71821733Y-72136509D01*
X71927746Y-72029915D01*
X72027787Y-71930895D01*
X72115905Y-71845487D01*
X72186148Y-71779730D01*
X72232563Y-71739661D01*
X72248091Y-71730098D01*
X72273374Y-71743545D01*
X72333846Y-71781320D01*
X72423627Y-71839580D01*
X72536838Y-71914479D01*
X72667599Y-72002170D01*
X72766235Y-72068978D01*
X73264592Y-72407857D01*
X73680006Y-72236610D01*
X74095419Y-72065363D01*
X74208001Y-71468172D01*
X74320584Y-70870980D01*
X75563587Y-70870980D01*
X75676170Y-71468172D01*
X75676170Y-71468172D01*
G37*
X75676170Y-71468172D02*
X75788752Y-72065363D01*
X76204166Y-72236610D01*
X76619579Y-72407857D01*
X77117937Y-72068978D01*
X77257503Y-71974622D01*
X77383663Y-71890375D01*
X77490530Y-71820083D01*
X77572217Y-71767592D01*
X77622836Y-71736749D01*
X77636621Y-71730098D01*
X77661455Y-71747203D01*
X77714523Y-71794489D01*
X77789875Y-71865917D01*
X77881564Y-71955445D01*
X77983642Y-72057034D01*
X78090161Y-72164643D01*
X78195171Y-72272232D01*
X78292726Y-72373760D01*
X78376877Y-72463186D01*
X78441675Y-72534471D01*
X78481173Y-72581573D01*
X78490615Y-72597337D01*
X78477026Y-72626398D01*
X78438928Y-72690066D01*
X78380329Y-72782112D01*
X78305232Y-72896309D01*
X78217644Y-73026429D01*
X78166889Y-73100646D01*
X78074380Y-73236167D01*
X77992175Y-73358461D01*
X77924265Y-73461440D01*
X77874635Y-73539018D01*
X77847275Y-73585106D01*
X77843164Y-73594792D01*
X77852484Y-73622319D01*
X77877889Y-73686473D01*
X77915546Y-73778235D01*
X77961621Y-73888584D01*
X78012281Y-74008500D01*
X78063694Y-74128964D01*
X78112024Y-74240954D01*
X78153441Y-74335452D01*
X78184109Y-74403437D01*
X78200197Y-74435888D01*
X78201146Y-74437165D01*
X78226407Y-74443362D01*
X78293681Y-74457185D01*
X78395995Y-74477277D01*
X78526376Y-74502279D01*
X78677851Y-74530831D01*
X78766229Y-74547296D01*
X78928087Y-74578114D01*
X79074284Y-74607439D01*
X79197422Y-74633666D01*
X79290104Y-74655191D01*
X79344936Y-74670410D01*
X79355958Y-74675238D01*
X79366754Y-74707919D01*
X79375464Y-74781730D01*
X79382095Y-74888037D01*
X79386653Y-75018212D01*
X79389144Y-75163621D01*
X79389573Y-75315635D01*
X79387946Y-75465622D01*
X79384270Y-75604951D01*
X79378550Y-75724990D01*
X79370793Y-75817110D01*
X79361003Y-75872677D01*
X79355131Y-75884245D01*
X79320034Y-75898110D01*
X79245663Y-75917933D01*
X79141858Y-75941384D01*
X79018454Y-75966136D01*
X78975376Y-75974143D01*
X78767682Y-76012186D01*
X78603619Y-76042824D01*
X78477765Y-76067274D01*
X78384700Y-76086754D01*
X78319002Y-76102481D01*
X78275252Y-76115673D01*
X78248027Y-76127549D01*
X78231907Y-76139325D01*
X78229652Y-76141653D01*
X78207138Y-76179145D01*
X78172793Y-76252110D01*
X78130046Y-76351612D01*
X78082327Y-76468718D01*
X78033065Y-76594493D01*
X77985690Y-76720002D01*
X77943630Y-76836310D01*
X77910315Y-76934484D01*
X77889176Y-77005588D01*
X77883640Y-77040687D01*
X77884101Y-77041917D01*
X77902858Y-77070606D01*
X77945411Y-77133730D01*
X78007288Y-77224718D01*
X78084017Y-77337000D01*
X78171126Y-77464005D01*
X78195934Y-77500098D01*
X78284388Y-77630948D01*
X78362223Y-77750336D01*
X78425201Y-77851407D01*
X78469080Y-77927304D01*
X78489620Y-77971172D01*
X78490615Y-77976562D01*
X78473357Y-78004889D01*
X78425671Y-78061006D01*
X78353685Y-78138882D01*
X78263532Y-78232485D01*
X78161340Y-78335786D01*
X78053241Y-78442751D01*
X77945363Y-78547351D01*
X77843839Y-78643554D01*
X77754797Y-78725329D01*
X77684368Y-78786645D01*
X77638682Y-78821471D01*
X77626044Y-78827157D01*
X77596626Y-78813765D01*
X77536396Y-78777644D01*
X77455165Y-78724881D01*
X77392665Y-78682412D01*
X77279420Y-78604485D01*
X77145309Y-78512729D01*
X77010790Y-78421120D01*
X76938468Y-78372091D01*
X76693673Y-78206515D01*
X76488186Y-78317620D01*
X76394571Y-78366293D01*
X76314965Y-78404126D01*
X76261102Y-78425703D01*
X76247392Y-78428706D01*
X76230905Y-78406538D01*
X76198380Y-78343894D01*
X76152244Y-78246554D01*
X76094925Y-78120294D01*
X76028851Y-77970895D01*
X75956450Y-77804133D01*
X75880151Y-77625787D01*
X75802381Y-77441636D01*
X75725569Y-77257457D01*
X75652141Y-77079030D01*
X75584527Y-76912132D01*
X75525155Y-76762542D01*
X75476451Y-76636038D01*
X75440845Y-76538399D01*
X75420765Y-76475402D01*
X75417535Y-76453766D01*
X75443131Y-76426169D01*
X75499174Y-76381370D01*
X75573946Y-76328679D01*
X75580222Y-76324510D01*
X75773480Y-76169814D01*
X75929309Y-75989336D01*
X76046359Y-75788847D01*
X76123280Y-75574119D01*
X76158721Y-75350922D01*
X76151332Y-75125026D01*
X76099762Y-74902204D01*
X76002661Y-74688224D01*
X75974093Y-74641409D01*
X75825503Y-74452363D01*
X75649962Y-74300557D01*
X75453545Y-74186779D01*
X75242328Y-74111820D01*
X75022388Y-74076467D01*
X74799798Y-74081512D01*
X74580636Y-74127744D01*
X74370977Y-74215951D01*
X74176896Y-74346924D01*
X74116861Y-74400082D01*
X73964070Y-74566484D01*
X73852732Y-74741657D01*
X73776358Y-74938011D01*
X73733822Y-75132462D01*
X73723321Y-75351087D01*
X73758336Y-75570797D01*
X73835308Y-75784165D01*
X73950682Y-75983767D01*
X74100901Y-76162174D01*
X74282408Y-76311962D01*
X74306262Y-76327751D01*
X74381836Y-76379457D01*
X74439286Y-76424257D01*
X74466752Y-76452862D01*
X74467152Y-76453766D01*
X74461255Y-76484709D01*
X74437880Y-76554936D01*
X74399456Y-76658670D01*
X74348412Y-76790135D01*
X74287177Y-76943552D01*
X74218179Y-77113146D01*
X74143849Y-77293138D01*
X74066613Y-77477753D01*
X73988903Y-77661213D01*
X73913146Y-77837741D01*
X73841772Y-78001559D01*
X73777209Y-78146892D01*
X73721887Y-78267962D01*
X73678235Y-78358992D01*
X73648681Y-78414205D01*
X73636779Y-78428706D01*
X73600412Y-78417414D01*
X73532365Y-78387130D01*
X73444372Y-78343265D01*
X73395986Y-78317620D01*
X73190498Y-78206515D01*
X72945703Y-78372091D01*
X72820741Y-78456915D01*
X72683930Y-78550261D01*
X72555724Y-78638153D01*
X72491506Y-78682412D01*
X72401186Y-78743063D01*
X72324706Y-78791126D01*
X72272042Y-78820515D01*
X72254937Y-78826727D01*
X72230040Y-78809968D01*
X72174940Y-78763181D01*
X72094978Y-78691225D01*
X71995496Y-78598957D01*
X71881835Y-78491235D01*
X71809950Y-78422071D01*
X71684186Y-78298502D01*
X71575498Y-78187979D01*
X71488280Y-78095230D01*
X71426924Y-78024982D01*
X71395826Y-77981965D01*
X71392843Y-77973235D01*
X71406688Y-77940029D01*
X71444947Y-77872887D01*
X71503377Y-77778608D01*
X71577732Y-77663990D01*
X71663770Y-77535828D01*
X71688238Y-77500098D01*
X71777390Y-77370234D01*
X71857373Y-77253314D01*
X71923715Y-77155907D01*
X71971946Y-77084584D01*
X71997592Y-77045915D01*
X72000070Y-77041917D01*
X71996364Y-77011100D01*
X71976696Y-76943344D01*
X71944495Y-76847584D01*
X71903190Y-76732754D01*
X71856210Y-76607789D01*
X71806984Y-76481624D01*
X71758943Y-76363193D01*
X71715516Y-76261430D01*
X71680131Y-76185271D01*
X71656219Y-76143649D01*
X71654519Y-76141653D01*
X71639897Y-76129758D01*
X71615200Y-76117995D01*
X71575007Y-76105146D01*
X71513898Y-76089994D01*
X71426452Y-76071321D01*
X71307247Y-76047910D01*
X71150862Y-76018542D01*
X70951878Y-75982000D01*
X70908795Y-75974143D01*
X70781106Y-75949472D01*
X70669788Y-75925338D01*
X70584680Y-75904069D01*
X70535618Y-75887993D01*
X70529040Y-75884245D01*
X70518199Y-75851018D01*
X70509388Y-75776766D01*
X70502611Y-75670121D01*
X70497875Y-75539712D01*
X70495185Y-75394172D01*
X70494548Y-75242131D01*
X70495969Y-75092221D01*
X70499455Y-74953073D01*
X70505011Y-74833317D01*
X70512643Y-74741586D01*
X70522357Y-74686511D01*
X70528213Y-74675238D01*
X70560815Y-74663868D01*
X70635053Y-74645369D01*
X70743531Y-74621347D01*
X70878852Y-74593407D01*
X71033620Y-74563153D01*
X71117943Y-74547296D01*
X71277931Y-74517389D01*
X71420602Y-74490295D01*
X71538983Y-74467376D01*
X71626100Y-74449988D01*
X71674980Y-74439492D01*
X71683025Y-74437165D01*
X71696622Y-74410931D01*
X71725364Y-74347740D01*
X71765420Y-74256622D01*
X71812959Y-74146602D01*
X71864150Y-74026710D01*
X71915161Y-73905972D01*
X71962161Y-73793416D01*
X72001319Y-73698071D01*
X72028804Y-73628962D01*
X72040784Y-73595119D01*
X72041007Y-73593640D01*
X72027426Y-73566942D01*
X71989350Y-73505505D01*
X71930782Y-73415434D01*
X71855723Y-73302835D01*
X71768175Y-73173815D01*
X71717282Y-73099706D01*
X71624544Y-72963822D01*
X71542176Y-72840454D01*
X71474196Y-72735842D01*
X71424623Y-72656228D01*
X71397477Y-72607852D01*
X71393556Y-72597007D01*
X71410410Y-72571765D01*
X71457003Y-72517869D01*
X71527384Y-72441358D01*
X71615600Y-72348268D01*
X71715700Y-72244640D01*
X71821733Y-72136509D01*
X71927746Y-72029915D01*
X72027787Y-71930895D01*
X72115905Y-71845487D01*
X72186148Y-71779730D01*
X72232563Y-71739661D01*
X72248091Y-71730098D01*
X72273374Y-71743545D01*
X72333846Y-71781320D01*
X72423627Y-71839580D01*
X72536838Y-71914479D01*
X72667599Y-72002170D01*
X72766235Y-72068978D01*
X73264592Y-72407857D01*
X73680006Y-72236610D01*
X74095419Y-72065363D01*
X74208001Y-71468172D01*
X74320584Y-70870980D01*
X75563587Y-70870980D01*
X75676170Y-71468172D01*
G36*
X78493272Y-79722472D02*
X78578925Y-79748641D01*
X78634072Y-79781707D01*
X78652036Y-79807855D01*
X78647092Y-79838852D01*
X78615007Y-79887547D01*
X78587878Y-79922035D01*
X78531952Y-79984383D01*
X78489934Y-80010615D01*
X78454115Y-80008903D01*
X78347859Y-79981863D01*
X78269824Y-79983091D01*
X78206455Y-80013735D01*
X78185181Y-80031670D01*
X78117086Y-80094779D01*
X78117086Y-80918922D01*
X77843164Y-80918922D01*
X77843164Y-79723628D01*
X77980125Y-79723628D01*
X78062354Y-79726879D01*
X78104779Y-79738426D01*
X78117080Y-79760952D01*
X78117086Y-79761620D01*
X78122895Y-79785215D01*
X78149166Y-79782138D01*
X78185566Y-79765115D01*
X78260746Y-79733439D01*
X78321793Y-79714381D01*
X78400343Y-79709496D01*
X78493272Y-79722472D01*
X78493272Y-79722472D01*
G37*
X78493272Y-79722472D02*
X78578925Y-79748641D01*
X78634072Y-79781707D01*
X78652036Y-79807855D01*
X78647092Y-79838852D01*
X78615007Y-79887547D01*
X78587878Y-79922035D01*
X78531952Y-79984383D01*
X78489934Y-80010615D01*
X78454115Y-80008903D01*
X78347859Y-79981863D01*
X78269824Y-79983091D01*
X78206455Y-80013735D01*
X78185181Y-80031670D01*
X78117086Y-80094779D01*
X78117086Y-80918922D01*
X77843164Y-80918922D01*
X77843164Y-79723628D01*
X77980125Y-79723628D01*
X78062354Y-79726879D01*
X78104779Y-79738426D01*
X78117080Y-79760952D01*
X78117086Y-79761620D01*
X78122895Y-79785215D01*
X78149166Y-79782138D01*
X78185566Y-79765115D01*
X78260746Y-79733439D01*
X78321793Y-79714381D01*
X78400343Y-79709496D01*
X78493272Y-79722472D01*
G36*
X73436395Y-79744199D02*
X73498371Y-79773802D01*
X73558394Y-79816561D01*
X73604121Y-79865775D01*
X73637428Y-79928544D01*
X73660190Y-80011971D01*
X73674282Y-80123159D01*
X73681577Y-80269209D01*
X73683953Y-80457223D01*
X73683990Y-80476912D01*
X73684537Y-80918922D01*
X73410615Y-80918922D01*
X73410615Y-80511435D01*
X73410420Y-80360471D01*
X73409071Y-80251056D01*
X73405423Y-80174933D01*
X73398331Y-80123848D01*
X73386648Y-80089545D01*
X73369229Y-80063768D01*
X73344964Y-80038298D01*
X73260070Y-79983571D01*
X73167396Y-79973416D01*
X73079108Y-80008017D01*
X73048405Y-80033770D01*
X73025864Y-80057982D01*
X73009681Y-80083912D01*
X72998803Y-80119708D01*
X72992177Y-80173519D01*
X72988750Y-80253493D01*
X72987469Y-80367779D01*
X72987282Y-80506907D01*
X72987282Y-80918922D01*
X72713360Y-80918922D01*
X72713360Y-79723628D01*
X72850321Y-79723628D01*
X72932551Y-79726879D01*
X72974975Y-79738426D01*
X72987276Y-79760952D01*
X72987282Y-79761620D01*
X72992989Y-79783681D01*
X73018162Y-79781177D01*
X73068213Y-79756937D01*
X73181729Y-79721271D01*
X73311580Y-79717305D01*
X73436395Y-79744199D01*
X73436395Y-79744199D01*
G37*
X73436395Y-79744199D02*
X73498371Y-79773802D01*
X73558394Y-79816561D01*
X73604121Y-79865775D01*
X73637428Y-79928544D01*
X73660190Y-80011971D01*
X73674282Y-80123159D01*
X73681577Y-80269209D01*
X73683953Y-80457223D01*
X73683990Y-80476912D01*
X73684537Y-80918922D01*
X73410615Y-80918922D01*
X73410615Y-80511435D01*
X73410420Y-80360471D01*
X73409071Y-80251056D01*
X73405423Y-80174933D01*
X73398331Y-80123848D01*
X73386648Y-80089545D01*
X73369229Y-80063768D01*
X73344964Y-80038298D01*
X73260070Y-79983571D01*
X73167396Y-79973416D01*
X73079108Y-80008017D01*
X73048405Y-80033770D01*
X73025864Y-80057982D01*
X73009681Y-80083912D01*
X72998803Y-80119708D01*
X72992177Y-80173519D01*
X72988750Y-80253493D01*
X72987469Y-80367779D01*
X72987282Y-80506907D01*
X72987282Y-80918922D01*
X72713360Y-80918922D01*
X72713360Y-79723628D01*
X72850321Y-79723628D01*
X72932551Y-79726879D01*
X72974975Y-79738426D01*
X72987276Y-79760952D01*
X72987282Y-79761620D01*
X72992989Y-79783681D01*
X73018162Y-79781177D01*
X73068213Y-79756937D01*
X73181729Y-79721271D01*
X73311580Y-79717305D01*
X73436395Y-79744199D01*
G36*
X80232922Y-79719355D02*
X80296686Y-79734845D01*
X80418935Y-79791569D01*
X80523469Y-79878202D01*
X80595815Y-79982074D01*
X80605754Y-80005396D01*
X80619389Y-80066484D01*
X80628933Y-80156853D01*
X80632184Y-80248190D01*
X80632184Y-80420882D01*
X80271105Y-80420882D01*
X80122181Y-80421445D01*
X80017267Y-80424864D01*
X79950572Y-80433731D01*
X79916301Y-80450641D01*
X79908663Y-80478189D01*
X79921864Y-80518968D01*
X79945512Y-80566683D01*
X80011478Y-80646314D01*
X80103147Y-80685987D01*
X80215190Y-80684695D01*
X80342107Y-80641514D01*
X80451793Y-80588224D01*
X80542808Y-80660191D01*
X80633823Y-80732157D01*
X80548198Y-80811269D01*
X80433885Y-80886017D01*
X80293301Y-80931084D01*
X80142084Y-80943696D01*
X79995871Y-80921079D01*
X79972282Y-80913405D01*
X79843776Y-80846296D01*
X79748186Y-80746247D01*
X79683496Y-80610271D01*
X79647692Y-80435380D01*
X79647275Y-80431632D01*
X79644069Y-80241032D01*
X79657028Y-80173035D01*
X79910027Y-80173035D01*
X79933262Y-80183491D01*
X79996345Y-80191500D01*
X80089341Y-80196073D01*
X80148273Y-80196765D01*
X80258172Y-80196332D01*
X80326887Y-80193578D01*
X80363040Y-80186321D01*
X80375250Y-80172376D01*
X80372139Y-80149562D01*
X80369529Y-80140735D01*
X80324979Y-80057800D01*
X80254914Y-79990960D01*
X80193081Y-79961589D01*
X80110936Y-79963362D01*
X80027697Y-79999990D01*
X79957873Y-80060634D01*
X79915972Y-80134456D01*
X79910027Y-80173035D01*
X79657028Y-80173035D01*
X79676020Y-80073395D01*
X79739408Y-79932711D01*
X79830513Y-79822974D01*
X79945613Y-79748174D01*
X80080990Y-79712304D01*
X80232922Y-79719355D01*
X80232922Y-79719355D01*
G37*
X80232922Y-79719355D02*
X80296686Y-79734845D01*
X80418935Y-79791569D01*
X80523469Y-79878202D01*
X80595815Y-79982074D01*
X80605754Y-80005396D01*
X80619389Y-80066484D01*
X80628933Y-80156853D01*
X80632184Y-80248190D01*
X80632184Y-80420882D01*
X80271105Y-80420882D01*
X80122181Y-80421445D01*
X80017267Y-80424864D01*
X79950572Y-80433731D01*
X79916301Y-80450641D01*
X79908663Y-80478189D01*
X79921864Y-80518968D01*
X79945512Y-80566683D01*
X80011478Y-80646314D01*
X80103147Y-80685987D01*
X80215190Y-80684695D01*
X80342107Y-80641514D01*
X80451793Y-80588224D01*
X80542808Y-80660191D01*
X80633823Y-80732157D01*
X80548198Y-80811269D01*
X80433885Y-80886017D01*
X80293301Y-80931084D01*
X80142084Y-80943696D01*
X79995871Y-80921079D01*
X79972282Y-80913405D01*
X79843776Y-80846296D01*
X79748186Y-80746247D01*
X79683496Y-80610271D01*
X79647692Y-80435380D01*
X79647275Y-80431632D01*
X79644069Y-80241032D01*
X79657028Y-80173035D01*
X79910027Y-80173035D01*
X79933262Y-80183491D01*
X79996345Y-80191500D01*
X80089341Y-80196073D01*
X80148273Y-80196765D01*
X80258172Y-80196332D01*
X80326887Y-80193578D01*
X80363040Y-80186321D01*
X80375250Y-80172376D01*
X80372139Y-80149562D01*
X80369529Y-80140735D01*
X80324979Y-80057800D01*
X80254914Y-79990960D01*
X80193081Y-79961589D01*
X80110936Y-79963362D01*
X80027697Y-79999990D01*
X79957873Y-80060634D01*
X79915972Y-80134456D01*
X79910027Y-80173035D01*
X79657028Y-80173035D01*
X79676020Y-80073395D01*
X79739408Y-79932711D01*
X79830513Y-79822974D01*
X79945613Y-79748174D01*
X80080990Y-79712304D01*
X80232922Y-79719355D01*
G36*
X79320611Y-79734056D02*
X79464891Y-79795348D01*
X79510334Y-79825185D01*
X79568414Y-79871036D01*
X79604873Y-79907089D01*
X79611203Y-79918832D01*
X79593328Y-79944889D01*
X79547585Y-79989105D01*
X79510963Y-80019965D01*
X79410723Y-80100520D01*
X79331570Y-80033918D01*
X79270404Y-79990921D01*
X79210764Y-79976079D01*
X79142507Y-79979704D01*
X79034117Y-80006652D01*
X78959507Y-80062587D01*
X78914165Y-80153014D01*
X78893582Y-80283435D01*
X78893577Y-80283517D01*
X78895357Y-80429290D01*
X78923022Y-80536245D01*
X78978206Y-80609064D01*
X79015827Y-80633723D01*
X79115740Y-80664431D01*
X79222457Y-80664449D01*
X79315304Y-80634655D01*
X79337282Y-80620098D01*
X79392400Y-80582914D01*
X79435494Y-80576820D01*
X79481970Y-80604496D01*
X79533351Y-80654205D01*
X79614681Y-80738116D01*
X79524384Y-80812546D01*
X79384871Y-80896549D01*
X79227547Y-80937947D01*
X79063138Y-80934950D01*
X78955166Y-80907500D01*
X78828966Y-80839620D01*
X78728036Y-80732831D01*
X78682183Y-80657451D01*
X78645045Y-80549297D01*
X78626462Y-80412318D01*
X78626319Y-80263864D01*
X78644500Y-80121281D01*
X78680890Y-80001918D01*
X78686622Y-79989680D01*
X78771500Y-79869655D01*
X78886417Y-79782267D01*
X79022294Y-79729329D01*
X79170052Y-79712654D01*
X79320611Y-79734056D01*
X79320611Y-79734056D01*
G37*
X79320611Y-79734056D02*
X79464891Y-79795348D01*
X79510334Y-79825185D01*
X79568414Y-79871036D01*
X79604873Y-79907089D01*
X79611203Y-79918832D01*
X79593328Y-79944889D01*
X79547585Y-79989105D01*
X79510963Y-80019965D01*
X79410723Y-80100520D01*
X79331570Y-80033918D01*
X79270404Y-79990921D01*
X79210764Y-79976079D01*
X79142507Y-79979704D01*
X79034117Y-80006652D01*
X78959507Y-80062587D01*
X78914165Y-80153014D01*
X78893582Y-80283435D01*
X78893577Y-80283517D01*
X78895357Y-80429290D01*
X78923022Y-80536245D01*
X78978206Y-80609064D01*
X79015827Y-80633723D01*
X79115740Y-80664431D01*
X79222457Y-80664449D01*
X79315304Y-80634655D01*
X79337282Y-80620098D01*
X79392400Y-80582914D01*
X79435494Y-80576820D01*
X79481970Y-80604496D01*
X79533351Y-80654205D01*
X79614681Y-80738116D01*
X79524384Y-80812546D01*
X79384871Y-80896549D01*
X79227547Y-80937947D01*
X79063138Y-80934950D01*
X78955166Y-80907500D01*
X78828966Y-80839620D01*
X78728036Y-80732831D01*
X78682183Y-80657451D01*
X78645045Y-80549297D01*
X78626462Y-80412318D01*
X78626319Y-80263864D01*
X78644500Y-80121281D01*
X78680890Y-80001918D01*
X78686622Y-79989680D01*
X78771500Y-79869655D01*
X78886417Y-79782267D01*
X79022294Y-79729329D01*
X79170052Y-79712654D01*
X79320611Y-79734056D01*
G36*
X76896889Y-80111245D02*
X76899243Y-80293879D01*
X76907842Y-80432600D01*
X76924995Y-80533147D01*
X76953009Y-80601254D01*
X76994192Y-80642659D01*
X77050852Y-80663097D01*
X77121007Y-80668318D01*
X77194483Y-80662468D01*
X77250292Y-80641093D01*
X77290744Y-80598458D01*
X77318144Y-80528825D01*
X77334802Y-80426460D01*
X77343024Y-80285624D01*
X77345125Y-80111245D01*
X77345125Y-79723628D01*
X77619046Y-79723628D01*
X77619046Y-80918922D01*
X77482086Y-80918922D01*
X77399519Y-80915576D01*
X77357003Y-80903826D01*
X77345125Y-80881520D01*
X77337971Y-80861654D01*
X77309500Y-80865857D01*
X77252111Y-80893971D01*
X77120580Y-80937342D01*
X76981073Y-80934270D01*
X76847400Y-80887174D01*
X76783743Y-80849971D01*
X76735188Y-80809691D01*
X76699716Y-80759291D01*
X76675309Y-80691729D01*
X76659948Y-80599965D01*
X76651617Y-80476955D01*
X76648297Y-80315659D01*
X76647870Y-80190928D01*
X76647870Y-79723628D01*
X76896889Y-79723628D01*
X76896889Y-80111245D01*
X76896889Y-80111245D01*
G37*
X76896889Y-80111245D02*
X76899243Y-80293879D01*
X76907842Y-80432600D01*
X76924995Y-80533147D01*
X76953009Y-80601254D01*
X76994192Y-80642659D01*
X77050852Y-80663097D01*
X77121007Y-80668318D01*
X77194483Y-80662468D01*
X77250292Y-80641093D01*
X77290744Y-80598458D01*
X77318144Y-80528825D01*
X77334802Y-80426460D01*
X77343024Y-80285624D01*
X77345125Y-80111245D01*
X77345125Y-79723628D01*
X77619046Y-79723628D01*
X77619046Y-80918922D01*
X77482086Y-80918922D01*
X77399519Y-80915576D01*
X77357003Y-80903826D01*
X77345125Y-80881520D01*
X77337971Y-80861654D01*
X77309500Y-80865857D01*
X77252111Y-80893971D01*
X77120580Y-80937342D01*
X76981073Y-80934270D01*
X76847400Y-80887174D01*
X76783743Y-80849971D01*
X76735188Y-80809691D01*
X76699716Y-80759291D01*
X76675309Y-80691729D01*
X76659948Y-80599965D01*
X76651617Y-80476955D01*
X76648297Y-80315659D01*
X76647870Y-80190928D01*
X76647870Y-79723628D01*
X76896889Y-79723628D01*
X76896889Y-80111245D01*
G36*
X76139182Y-79738364D02*
X76265137Y-79806959D01*
X76363682Y-79915245D01*
X76410113Y-80003315D01*
X76430047Y-80081101D01*
X76442963Y-80191993D01*
X76448498Y-80319738D01*
X76446289Y-80448084D01*
X76435972Y-80560779D01*
X76423921Y-80620969D01*
X76383269Y-80703311D01*
X76312865Y-80790770D01*
X76228017Y-80867251D01*
X76144032Y-80916655D01*
X76141984Y-80917439D01*
X76037769Y-80939027D01*
X75914262Y-80939562D01*
X75796896Y-80919908D01*
X75751577Y-80904155D01*
X75634855Y-80837966D01*
X75551259Y-80751246D01*
X75496336Y-80636438D01*
X75465630Y-80485982D01*
X75458682Y-80407173D01*
X75459568Y-80308145D01*
X75726497Y-80308145D01*
X75735489Y-80452645D01*
X75761371Y-80562760D01*
X75802503Y-80633116D01*
X75831807Y-80653235D01*
X75906886Y-80667265D01*
X75996129Y-80663111D01*
X76073285Y-80642922D01*
X76093518Y-80631815D01*
X76146900Y-80567123D01*
X76182135Y-80468119D01*
X76197133Y-80347632D01*
X76189807Y-80218494D01*
X76173434Y-80140775D01*
X76126425Y-80050771D01*
X76052217Y-79994509D01*
X75962844Y-79975057D01*
X75870342Y-79995481D01*
X75799288Y-80045437D01*
X75761947Y-80086655D01*
X75740153Y-80127281D01*
X75729765Y-80182264D01*
X75726641Y-80266549D01*
X75726497Y-80308145D01*
X75459568Y-80308145D01*
X75460565Y-80196874D01*
X75494815Y-80024423D01*
X75561437Y-79889814D01*
X75660434Y-79793040D01*
X75791810Y-79734094D01*
X75820020Y-79727259D01*
X75989561Y-79711213D01*
X76139182Y-79738364D01*
X76139182Y-79738364D01*
G37*
X76139182Y-79738364D02*
X76265137Y-79806959D01*
X76363682Y-79915245D01*
X76410113Y-80003315D01*
X76430047Y-80081101D01*
X76442963Y-80191993D01*
X76448498Y-80319738D01*
X76446289Y-80448084D01*
X76435972Y-80560779D01*
X76423921Y-80620969D01*
X76383269Y-80703311D01*
X76312865Y-80790770D01*
X76228017Y-80867251D01*
X76144032Y-80916655D01*
X76141984Y-80917439D01*
X76037769Y-80939027D01*
X75914262Y-80939562D01*
X75796896Y-80919908D01*
X75751577Y-80904155D01*
X75634855Y-80837966D01*
X75551259Y-80751246D01*
X75496336Y-80636438D01*
X75465630Y-80485982D01*
X75458682Y-80407173D01*
X75459568Y-80308145D01*
X75726497Y-80308145D01*
X75735489Y-80452645D01*
X75761371Y-80562760D01*
X75802503Y-80633116D01*
X75831807Y-80653235D01*
X75906886Y-80667265D01*
X75996129Y-80663111D01*
X76073285Y-80642922D01*
X76093518Y-80631815D01*
X76146900Y-80567123D01*
X76182135Y-80468119D01*
X76197133Y-80347632D01*
X76189807Y-80218494D01*
X76173434Y-80140775D01*
X76126425Y-80050771D01*
X76052217Y-79994509D01*
X75962844Y-79975057D01*
X75870342Y-79995481D01*
X75799288Y-80045437D01*
X75761947Y-80086655D01*
X75740153Y-80127281D01*
X75729765Y-80182264D01*
X75726641Y-80266549D01*
X75726497Y-80308145D01*
X75459568Y-80308145D01*
X75460565Y-80196874D01*
X75494815Y-80024423D01*
X75561437Y-79889814D01*
X75660434Y-79793040D01*
X75791810Y-79734094D01*
X75820020Y-79727259D01*
X75989561Y-79711213D01*
X76139182Y-79738364D01*
G36*
X74957394Y-79719345D02*
X75051694Y-79737229D01*
X75149525Y-79774633D01*
X75159978Y-79779402D01*
X75234166Y-79818412D01*
X75285545Y-79854664D01*
X75302152Y-79877887D01*
X75286337Y-79915761D01*
X75247923Y-79971644D01*
X75230872Y-79992505D01*
X75160604Y-80074618D01*
X75070014Y-80021168D01*
X74983799Y-79985561D01*
X74884184Y-79966529D01*
X74788654Y-79965326D01*
X74714696Y-79983210D01*
X74696947Y-79994373D01*
X74663147Y-80045553D01*
X74659039Y-80104509D01*
X74684331Y-80150567D01*
X74699291Y-80159499D01*
X74744121Y-80170592D01*
X74822921Y-80183630D01*
X74920061Y-80196088D01*
X74937981Y-80198042D01*
X75094000Y-80225030D01*
X75207158Y-80270873D01*
X75282204Y-80339803D01*
X75323888Y-80436054D01*
X75336873Y-80553617D01*
X75318934Y-80687254D01*
X75260685Y-80792195D01*
X75161890Y-80868630D01*
X75022317Y-80916748D01*
X74867380Y-80935732D01*
X74741033Y-80935504D01*
X74638548Y-80918262D01*
X74568556Y-80894457D01*
X74480118Y-80852978D01*
X74398389Y-80804842D01*
X74369340Y-80783655D01*
X74294635Y-80722676D01*
X74384733Y-80631508D01*
X74474831Y-80540339D01*
X74577267Y-80608128D01*
X74680009Y-80659042D01*
X74789722Y-80685673D01*
X74895186Y-80688483D01*
X74985181Y-80667935D01*
X75048489Y-80624493D01*
X75068931Y-80587838D01*
X75065864Y-80529053D01*
X75015069Y-80484099D01*
X74916683Y-80453057D01*
X74808891Y-80438710D01*
X74643000Y-80411337D01*
X74519759Y-80359693D01*
X74437521Y-80282266D01*
X74394636Y-80177544D01*
X74388695Y-80053387D01*
X74418041Y-79923702D01*
X74484944Y-79825677D01*
X74590006Y-79758866D01*
X74733825Y-79722820D01*
X74840373Y-79715754D01*
X74957394Y-79719345D01*
X74957394Y-79719345D01*
G37*
X74957394Y-79719345D02*
X75051694Y-79737229D01*
X75149525Y-79774633D01*
X75159978Y-79779402D01*
X75234166Y-79818412D01*
X75285545Y-79854664D01*
X75302152Y-79877887D01*
X75286337Y-79915761D01*
X75247923Y-79971644D01*
X75230872Y-79992505D01*
X75160604Y-80074618D01*
X75070014Y-80021168D01*
X74983799Y-79985561D01*
X74884184Y-79966529D01*
X74788654Y-79965326D01*
X74714696Y-79983210D01*
X74696947Y-79994373D01*
X74663147Y-80045553D01*
X74659039Y-80104509D01*
X74684331Y-80150567D01*
X74699291Y-80159499D01*
X74744121Y-80170592D01*
X74822921Y-80183630D01*
X74920061Y-80196088D01*
X74937981Y-80198042D01*
X75094000Y-80225030D01*
X75207158Y-80270873D01*
X75282204Y-80339803D01*
X75323888Y-80436054D01*
X75336873Y-80553617D01*
X75318934Y-80687254D01*
X75260685Y-80792195D01*
X75161890Y-80868630D01*
X75022317Y-80916748D01*
X74867380Y-80935732D01*
X74741033Y-80935504D01*
X74638548Y-80918262D01*
X74568556Y-80894457D01*
X74480118Y-80852978D01*
X74398389Y-80804842D01*
X74369340Y-80783655D01*
X74294635Y-80722676D01*
X74384733Y-80631508D01*
X74474831Y-80540339D01*
X74577267Y-80608128D01*
X74680009Y-80659042D01*
X74789722Y-80685673D01*
X74895186Y-80688483D01*
X74985181Y-80667935D01*
X75048489Y-80624493D01*
X75068931Y-80587838D01*
X75065864Y-80529053D01*
X75015069Y-80484099D01*
X74916683Y-80453057D01*
X74808891Y-80438710D01*
X74643000Y-80411337D01*
X74519759Y-80359693D01*
X74437521Y-80282266D01*
X74394636Y-80177544D01*
X74388695Y-80053387D01*
X74418041Y-79923702D01*
X74484944Y-79825677D01*
X74590006Y-79758866D01*
X74733825Y-79722820D01*
X74840373Y-79715754D01*
X74957394Y-79719345D01*
G36*
X72242839Y-79751354D02*
X72267654Y-79763037D01*
X72353541Y-79825951D01*
X72434756Y-79917769D01*
X72495399Y-80018868D01*
X72512647Y-80065349D01*
X72528384Y-80148376D01*
X72537768Y-80248713D01*
X72538907Y-80290147D01*
X72539046Y-80420882D01*
X71786588Y-80420882D01*
X71802628Y-80489363D01*
X71841998Y-80570355D01*
X71910829Y-80640351D01*
X71992716Y-80685441D01*
X72044898Y-80694804D01*
X72115664Y-80683441D01*
X72200095Y-80654943D01*
X72228777Y-80641831D01*
X72334844Y-80588858D01*
X72425363Y-80657901D01*
X72477596Y-80704597D01*
X72505388Y-80743140D01*
X72506795Y-80754452D01*
X72481967Y-80781868D01*
X72427552Y-80823532D01*
X72378163Y-80856037D01*
X72244887Y-80914468D01*
X72095474Y-80940915D01*
X71947386Y-80934039D01*
X71829340Y-80898096D01*
X71707653Y-80821101D01*
X71621175Y-80719728D01*
X71567076Y-80588570D01*
X71542526Y-80422224D01*
X71540349Y-80346108D01*
X71549062Y-80171685D01*
X71550132Y-80166611D01*
X71799462Y-80166611D01*
X71806329Y-80182968D01*
X71834552Y-80191988D01*
X71892762Y-80195854D01*
X71989593Y-80196749D01*
X72026878Y-80196765D01*
X72140318Y-80195413D01*
X72212257Y-80190505D01*
X72250948Y-80180760D01*
X72264640Y-80164899D01*
X72265125Y-80159805D01*
X72249498Y-80119326D01*
X72210388Y-80062621D01*
X72193574Y-80042766D01*
X72131154Y-79986611D01*
X72066088Y-79964532D01*
X72031032Y-79962686D01*
X71936193Y-79985766D01*
X71856662Y-80047759D01*
X71806212Y-80137802D01*
X71805318Y-80140735D01*
X71799462Y-80166611D01*
X71550132Y-80166611D01*
X71578034Y-80034343D01*
X71630225Y-79924461D01*
X71694056Y-79846461D01*
X71812068Y-79761882D01*
X71950793Y-79716686D01*
X72098345Y-79712600D01*
X72242839Y-79751354D01*
X72242839Y-79751354D01*
G37*
X72242839Y-79751354D02*
X72267654Y-79763037D01*
X72353541Y-79825951D01*
X72434756Y-79917769D01*
X72495399Y-80018868D01*
X72512647Y-80065349D01*
X72528384Y-80148376D01*
X72537768Y-80248713D01*
X72538907Y-80290147D01*
X72539046Y-80420882D01*
X71786588Y-80420882D01*
X71802628Y-80489363D01*
X71841998Y-80570355D01*
X71910829Y-80640351D01*
X71992716Y-80685441D01*
X72044898Y-80694804D01*
X72115664Y-80683441D01*
X72200095Y-80654943D01*
X72228777Y-80641831D01*
X72334844Y-80588858D01*
X72425363Y-80657901D01*
X72477596Y-80704597D01*
X72505388Y-80743140D01*
X72506795Y-80754452D01*
X72481967Y-80781868D01*
X72427552Y-80823532D01*
X72378163Y-80856037D01*
X72244887Y-80914468D01*
X72095474Y-80940915D01*
X71947386Y-80934039D01*
X71829340Y-80898096D01*
X71707653Y-80821101D01*
X71621175Y-80719728D01*
X71567076Y-80588570D01*
X71542526Y-80422224D01*
X71540349Y-80346108D01*
X71549062Y-80171685D01*
X71550132Y-80166611D01*
X71799462Y-80166611D01*
X71806329Y-80182968D01*
X71834552Y-80191988D01*
X71892762Y-80195854D01*
X71989593Y-80196749D01*
X72026878Y-80196765D01*
X72140318Y-80195413D01*
X72212257Y-80190505D01*
X72250948Y-80180760D01*
X72264640Y-80164899D01*
X72265125Y-80159805D01*
X72249498Y-80119326D01*
X72210388Y-80062621D01*
X72193574Y-80042766D01*
X72131154Y-79986611D01*
X72066088Y-79964532D01*
X72031032Y-79962686D01*
X71936193Y-79985766D01*
X71856662Y-80047759D01*
X71806212Y-80137802D01*
X71805318Y-80140735D01*
X71799462Y-80166611D01*
X71550132Y-80166611D01*
X71578034Y-80034343D01*
X71630225Y-79924461D01*
X71694056Y-79846461D01*
X71812068Y-79761882D01*
X71950793Y-79716686D01*
X72098345Y-79712600D01*
X72242839Y-79751354D01*
G36*
X69902882Y-79736568D02*
X70033157Y-79794163D01*
X70132054Y-79890334D01*
X70199717Y-80025229D01*
X70236290Y-80198996D01*
X70238911Y-80226126D01*
X70240965Y-80417408D01*
X70214334Y-80585073D01*
X70160636Y-80720967D01*
X70131882Y-80764681D01*
X70031726Y-80857198D01*
X69904172Y-80917119D01*
X69761472Y-80941985D01*
X69615875Y-80929339D01*
X69505197Y-80890391D01*
X69410019Y-80824755D01*
X69332229Y-80738699D01*
X69330884Y-80736685D01*
X69299292Y-80683570D01*
X69278762Y-80630160D01*
X69266330Y-80562754D01*
X69259032Y-80467653D01*
X69255817Y-80389666D01*
X69254479Y-80318944D01*
X69503449Y-80318944D01*
X69505882Y-80389348D01*
X69514715Y-80483068D01*
X69530299Y-80543214D01*
X69558401Y-80586006D01*
X69584721Y-80611002D01*
X69678027Y-80663338D01*
X69775655Y-80670333D01*
X69866577Y-80632676D01*
X69912037Y-80590479D01*
X69944797Y-80547956D01*
X69963958Y-80507267D01*
X69972368Y-80454314D01*
X69972872Y-80374997D01*
X69970280Y-80301950D01*
X69964706Y-80197601D01*
X69955869Y-80129920D01*
X69939942Y-80085774D01*
X69913097Y-80052031D01*
X69891824Y-80032746D01*
X69802841Y-79982086D01*
X69706846Y-79979560D01*
X69626354Y-80009567D01*
X69557688Y-80072231D01*
X69516779Y-80175168D01*
X69503449Y-80318944D01*
X69254479Y-80318944D01*
X69252881Y-80234582D01*
X69257895Y-80118600D01*
X69272918Y-80031367D01*
X69300011Y-79962530D01*
X69341235Y-79901737D01*
X69356520Y-79883686D01*
X69452089Y-79793746D01*
X69554596Y-79741211D01*
X69679956Y-79719201D01*
X69741085Y-79717402D01*
X69902882Y-79736568D01*
X69902882Y-79736568D01*
G37*
X69902882Y-79736568D02*
X70033157Y-79794163D01*
X70132054Y-79890334D01*
X70199717Y-80025229D01*
X70236290Y-80198996D01*
X70238911Y-80226126D01*
X70240965Y-80417408D01*
X70214334Y-80585073D01*
X70160636Y-80720967D01*
X70131882Y-80764681D01*
X70031726Y-80857198D01*
X69904172Y-80917119D01*
X69761472Y-80941985D01*
X69615875Y-80929339D01*
X69505197Y-80890391D01*
X69410019Y-80824755D01*
X69332229Y-80738699D01*
X69330884Y-80736685D01*
X69299292Y-80683570D01*
X69278762Y-80630160D01*
X69266330Y-80562754D01*
X69259032Y-80467653D01*
X69255817Y-80389666D01*
X69254479Y-80318944D01*
X69503449Y-80318944D01*
X69505882Y-80389348D01*
X69514715Y-80483068D01*
X69530299Y-80543214D01*
X69558401Y-80586006D01*
X69584721Y-80611002D01*
X69678027Y-80663338D01*
X69775655Y-80670333D01*
X69866577Y-80632676D01*
X69912037Y-80590479D01*
X69944797Y-80547956D01*
X69963958Y-80507267D01*
X69972368Y-80454314D01*
X69972872Y-80374997D01*
X69970280Y-80301950D01*
X69964706Y-80197601D01*
X69955869Y-80129920D01*
X69939942Y-80085774D01*
X69913097Y-80052031D01*
X69891824Y-80032746D01*
X69802841Y-79982086D01*
X69706846Y-79979560D01*
X69626354Y-80009567D01*
X69557688Y-80072231D01*
X69516779Y-80175168D01*
X69503449Y-80318944D01*
X69254479Y-80318944D01*
X69252881Y-80234582D01*
X69257895Y-80118600D01*
X69272918Y-80031367D01*
X69300011Y-79962530D01*
X69341235Y-79901737D01*
X69356520Y-79883686D01*
X69452089Y-79793746D01*
X69554596Y-79741211D01*
X69679956Y-79719201D01*
X69741085Y-79717402D01*
X69902882Y-79736568D01*
G36*
X78954942Y-81597784D02*
X79073972Y-81628731D01*
X79173656Y-81692600D01*
X79221923Y-81740313D01*
X79301043Y-81853106D01*
X79346387Y-81983950D01*
X79361965Y-82144792D01*
X79362045Y-82157794D01*
X79362184Y-82288530D01*
X78609726Y-82288530D01*
X78625765Y-82357010D01*
X78654726Y-82419031D01*
X78705413Y-82483654D01*
X78716014Y-82493971D01*
X78807129Y-82549805D01*
X78911035Y-82559275D01*
X79030635Y-82522540D01*
X79050909Y-82512647D01*
X79113091Y-82482574D01*
X79154741Y-82465440D01*
X79162008Y-82463855D01*
X79187375Y-82479242D01*
X79235755Y-82516887D01*
X79260314Y-82537459D01*
X79311205Y-82584714D01*
X79327916Y-82615917D01*
X79316318Y-82644620D01*
X79310118Y-82652468D01*
X79268128Y-82686819D01*
X79198841Y-82728565D01*
X79150517Y-82752935D01*
X79013346Y-82795873D01*
X78861482Y-82809786D01*
X78717659Y-82793300D01*
X78677380Y-82781496D01*
X78552713Y-82714689D01*
X78460306Y-82611892D01*
X78399625Y-82472105D01*
X78370133Y-82294330D01*
X78366895Y-82201373D01*
X78376349Y-82066033D01*
X78615125Y-82066033D01*
X78638219Y-82076038D01*
X78700297Y-82083888D01*
X78790549Y-82088521D01*
X78851693Y-82089314D01*
X78961675Y-82088549D01*
X79031092Y-82084970D01*
X79069173Y-82076649D01*
X79085150Y-82061657D01*
X79088262Y-82039903D01*
X79066913Y-81972892D01*
X79013164Y-81906664D01*
X78942457Y-81855832D01*
X78871724Y-81835038D01*
X78775651Y-81853484D01*
X78692484Y-81906811D01*
X78634821Y-81983677D01*
X78615125Y-82066033D01*
X78376349Y-82066033D01*
X78380663Y-82004291D01*
X78423155Y-81847271D01*
X78495270Y-81729069D01*
X78597908Y-81648440D01*
X78731967Y-81604139D01*
X78804592Y-81595607D01*
X78954942Y-81597784D01*
X78954942Y-81597784D01*
G37*
X78954942Y-81597784D02*
X79073972Y-81628731D01*
X79173656Y-81692600D01*
X79221923Y-81740313D01*
X79301043Y-81853106D01*
X79346387Y-81983950D01*
X79361965Y-82144792D01*
X79362045Y-82157794D01*
X79362184Y-82288530D01*
X78609726Y-82288530D01*
X78625765Y-82357010D01*
X78654726Y-82419031D01*
X78705413Y-82483654D01*
X78716014Y-82493971D01*
X78807129Y-82549805D01*
X78911035Y-82559275D01*
X79030635Y-82522540D01*
X79050909Y-82512647D01*
X79113091Y-82482574D01*
X79154741Y-82465440D01*
X79162008Y-82463855D01*
X79187375Y-82479242D01*
X79235755Y-82516887D01*
X79260314Y-82537459D01*
X79311205Y-82584714D01*
X79327916Y-82615917D01*
X79316318Y-82644620D01*
X79310118Y-82652468D01*
X79268128Y-82686819D01*
X79198841Y-82728565D01*
X79150517Y-82752935D01*
X79013346Y-82795873D01*
X78861482Y-82809786D01*
X78717659Y-82793300D01*
X78677380Y-82781496D01*
X78552713Y-82714689D01*
X78460306Y-82611892D01*
X78399625Y-82472105D01*
X78370133Y-82294330D01*
X78366895Y-82201373D01*
X78376349Y-82066033D01*
X78615125Y-82066033D01*
X78638219Y-82076038D01*
X78700297Y-82083888D01*
X78790549Y-82088521D01*
X78851693Y-82089314D01*
X78961675Y-82088549D01*
X79031092Y-82084970D01*
X79069173Y-82076649D01*
X79085150Y-82061657D01*
X79088262Y-82039903D01*
X79066913Y-81972892D01*
X79013164Y-81906664D01*
X78942457Y-81855832D01*
X78871724Y-81835038D01*
X78775651Y-81853484D01*
X78692484Y-81906811D01*
X78634821Y-81983677D01*
X78615125Y-82066033D01*
X78376349Y-82066033D01*
X78380663Y-82004291D01*
X78423155Y-81847271D01*
X78495270Y-81729069D01*
X78597908Y-81648440D01*
X78731967Y-81604139D01*
X78804592Y-81595607D01*
X78954942Y-81597784D01*
G36*
X78168081Y-81590883D02*
X78263812Y-81609755D01*
X78318312Y-81637699D01*
X78375643Y-81684123D01*
X78294076Y-81787111D01*
X78243785Y-81849479D01*
X78209636Y-81879907D01*
X78175698Y-81884555D01*
X78126041Y-81869586D01*
X78102731Y-81861117D01*
X78007698Y-81848622D01*
X77920667Y-81875406D01*
X77856773Y-81935915D01*
X77846394Y-81955208D01*
X77835091Y-82006314D01*
X77826367Y-82100500D01*
X77820632Y-82231089D01*
X77818295Y-82391405D01*
X77818262Y-82414211D01*
X77818262Y-82811471D01*
X77544340Y-82811471D01*
X77544340Y-81591275D01*
X77681301Y-81591275D01*
X77760273Y-81593337D01*
X77801414Y-81602513D01*
X77816627Y-81623290D01*
X77818262Y-81642886D01*
X77818262Y-81694497D01*
X77883875Y-81642886D01*
X77959110Y-81607675D01*
X78060179Y-81590265D01*
X78168081Y-81590883D01*
X78168081Y-81590883D01*
G37*
X78168081Y-81590883D02*
X78263812Y-81609755D01*
X78318312Y-81637699D01*
X78375643Y-81684123D01*
X78294076Y-81787111D01*
X78243785Y-81849479D01*
X78209636Y-81879907D01*
X78175698Y-81884555D01*
X78126041Y-81869586D01*
X78102731Y-81861117D01*
X78007698Y-81848622D01*
X77920667Y-81875406D01*
X77856773Y-81935915D01*
X77846394Y-81955208D01*
X77835091Y-82006314D01*
X77826367Y-82100500D01*
X77820632Y-82231089D01*
X77818295Y-82391405D01*
X77818262Y-82414211D01*
X77818262Y-82811471D01*
X77544340Y-82811471D01*
X77544340Y-81591275D01*
X77681301Y-81591275D01*
X77760273Y-81593337D01*
X77801414Y-81602513D01*
X77816627Y-81623290D01*
X77818262Y-81642886D01*
X77818262Y-81694497D01*
X77883875Y-81642886D01*
X77959110Y-81607675D01*
X78060179Y-81590265D01*
X78168081Y-81590883D01*
G36*
X76986094Y-81598669D02*
X77091055Y-81624163D01*
X77121396Y-81637669D01*
X77180208Y-81673046D01*
X77225344Y-81712890D01*
X77258741Y-81764120D01*
X77282336Y-81833654D01*
X77298068Y-81928409D01*
X77307874Y-82055305D01*
X77313692Y-82221258D01*
X77315901Y-82332108D01*
X77324031Y-82811471D01*
X77185166Y-82811471D01*
X77100922Y-82807938D01*
X77057519Y-82795866D01*
X77046301Y-82775594D01*
X77040379Y-82753674D01*
X77013901Y-82757865D01*
X76977821Y-82775441D01*
X76887497Y-82802382D01*
X76771412Y-82809642D01*
X76649315Y-82797767D01*
X76540956Y-82767305D01*
X76531237Y-82763077D01*
X76432203Y-82693505D01*
X76366916Y-82596789D01*
X76336875Y-82483738D01*
X76339170Y-82443122D01*
X76584268Y-82443122D01*
X76605864Y-82497782D01*
X76669894Y-82536952D01*
X76773200Y-82557974D01*
X76828409Y-82560766D01*
X76920417Y-82553620D01*
X76981576Y-82525848D01*
X76996497Y-82512647D01*
X77036922Y-82440829D01*
X77046301Y-82375686D01*
X77046301Y-82288530D01*
X76924904Y-82288530D01*
X76783788Y-82295722D01*
X76684808Y-82318345D01*
X76622268Y-82357964D01*
X76608266Y-82375628D01*
X76584268Y-82443122D01*
X76339170Y-82443122D01*
X76343576Y-82365157D01*
X76388515Y-82251855D01*
X76449831Y-82175285D01*
X76486967Y-82142181D01*
X76523322Y-82120425D01*
X76570625Y-82107161D01*
X76640608Y-82099528D01*
X76744999Y-82094670D01*
X76786405Y-82093273D01*
X77046301Y-82084780D01*
X77045920Y-82006116D01*
X77035854Y-81923428D01*
X76999464Y-81873431D01*
X76925946Y-81841489D01*
X76923974Y-81840920D01*
X76819740Y-81828361D01*
X76717743Y-81844766D01*
X76641940Y-81884657D01*
X76611525Y-81904354D01*
X76578767Y-81901629D01*
X76528356Y-81873091D01*
X76498754Y-81852950D01*
X76440853Y-81809919D01*
X76404987Y-81777662D01*
X76399232Y-81768427D01*
X76422930Y-81720636D01*
X76492948Y-81663562D01*
X76523360Y-81644305D01*
X76610790Y-81611140D01*
X76728618Y-81592350D01*
X76859501Y-81588129D01*
X76986094Y-81598669D01*
X76986094Y-81598669D01*
G37*
X76986094Y-81598669D02*
X77091055Y-81624163D01*
X77121396Y-81637669D01*
X77180208Y-81673046D01*
X77225344Y-81712890D01*
X77258741Y-81764120D01*
X77282336Y-81833654D01*
X77298068Y-81928409D01*
X77307874Y-82055305D01*
X77313692Y-82221258D01*
X77315901Y-82332108D01*
X77324031Y-82811471D01*
X77185166Y-82811471D01*
X77100922Y-82807938D01*
X77057519Y-82795866D01*
X77046301Y-82775594D01*
X77040379Y-82753674D01*
X77013901Y-82757865D01*
X76977821Y-82775441D01*
X76887497Y-82802382D01*
X76771412Y-82809642D01*
X76649315Y-82797767D01*
X76540956Y-82767305D01*
X76531237Y-82763077D01*
X76432203Y-82693505D01*
X76366916Y-82596789D01*
X76336875Y-82483738D01*
X76339170Y-82443122D01*
X76584268Y-82443122D01*
X76605864Y-82497782D01*
X76669894Y-82536952D01*
X76773200Y-82557974D01*
X76828409Y-82560766D01*
X76920417Y-82553620D01*
X76981576Y-82525848D01*
X76996497Y-82512647D01*
X77036922Y-82440829D01*
X77046301Y-82375686D01*
X77046301Y-82288530D01*
X76924904Y-82288530D01*
X76783788Y-82295722D01*
X76684808Y-82318345D01*
X76622268Y-82357964D01*
X76608266Y-82375628D01*
X76584268Y-82443122D01*
X76339170Y-82443122D01*
X76343576Y-82365157D01*
X76388515Y-82251855D01*
X76449831Y-82175285D01*
X76486967Y-82142181D01*
X76523322Y-82120425D01*
X76570625Y-82107161D01*
X76640608Y-82099528D01*
X76744999Y-82094670D01*
X76786405Y-82093273D01*
X77046301Y-82084780D01*
X77045920Y-82006116D01*
X77035854Y-81923428D01*
X76999464Y-81873431D01*
X76925946Y-81841489D01*
X76923974Y-81840920D01*
X76819740Y-81828361D01*
X76717743Y-81844766D01*
X76641940Y-81884657D01*
X76611525Y-81904354D01*
X76578767Y-81901629D01*
X76528356Y-81873091D01*
X76498754Y-81852950D01*
X76440853Y-81809919D01*
X76404987Y-81777662D01*
X76399232Y-81768427D01*
X76422930Y-81720636D01*
X76492948Y-81663562D01*
X76523360Y-81644305D01*
X76610790Y-81611140D01*
X76728618Y-81592350D01*
X76859501Y-81588129D01*
X76986094Y-81598669D01*
G36*
X75487163Y-81596332D02*
X75585649Y-81603726D01*
X75714411Y-81989706D01*
X75843172Y-82375686D01*
X75883546Y-82238726D01*
X75907842Y-82154083D01*
X75939802Y-82039697D01*
X75974314Y-81913963D01*
X75992563Y-81846520D01*
X76061206Y-81591275D01*
X76344408Y-81591275D01*
X76259757Y-81858971D01*
X76218070Y-81990638D01*
X76167709Y-82149458D01*
X76115116Y-82315128D01*
X76068165Y-82462843D01*
X75961224Y-82799020D01*
X75730296Y-82814044D01*
X75667685Y-82607316D01*
X75629073Y-82478896D01*
X75586935Y-82337322D01*
X75550107Y-82212285D01*
X75548653Y-82207309D01*
X75521146Y-82122586D01*
X75496877Y-82064778D01*
X75479878Y-82042918D01*
X75476385Y-82045446D01*
X75464125Y-82079336D01*
X75440830Y-82151930D01*
X75409335Y-82254101D01*
X75372477Y-82376720D01*
X75352534Y-82444167D01*
X75244530Y-82811471D01*
X75015314Y-82811471D01*
X74832074Y-82232500D01*
X74780598Y-82070091D01*
X74733705Y-81922602D01*
X74693612Y-81796960D01*
X74662532Y-81700095D01*
X74642680Y-81638934D01*
X74636646Y-81621065D01*
X74641423Y-81602768D01*
X74678932Y-81594755D01*
X74756990Y-81595557D01*
X74769209Y-81596163D01*
X74913961Y-81603726D01*
X75008765Y-81952353D01*
X75043612Y-82079497D01*
X75074752Y-82191265D01*
X75099444Y-82277953D01*
X75114947Y-82329856D01*
X75117811Y-82338318D01*
X75129681Y-82328587D01*
X75153618Y-82278172D01*
X75186874Y-82193935D01*
X75226699Y-82082741D01*
X75260365Y-81982297D01*
X75388676Y-81588939D01*
X75487163Y-81596332D01*
X75487163Y-81596332D01*
G37*
X75487163Y-81596332D02*
X75585649Y-81603726D01*
X75714411Y-81989706D01*
X75843172Y-82375686D01*
X75883546Y-82238726D01*
X75907842Y-82154083D01*
X75939802Y-82039697D01*
X75974314Y-81913963D01*
X75992563Y-81846520D01*
X76061206Y-81591275D01*
X76344408Y-81591275D01*
X76259757Y-81858971D01*
X76218070Y-81990638D01*
X76167709Y-82149458D01*
X76115116Y-82315128D01*
X76068165Y-82462843D01*
X75961224Y-82799020D01*
X75730296Y-82814044D01*
X75667685Y-82607316D01*
X75629073Y-82478896D01*
X75586935Y-82337322D01*
X75550107Y-82212285D01*
X75548653Y-82207309D01*
X75521146Y-82122586D01*
X75496877Y-82064778D01*
X75479878Y-82042918D01*
X75476385Y-82045446D01*
X75464125Y-82079336D01*
X75440830Y-82151930D01*
X75409335Y-82254101D01*
X75372477Y-82376720D01*
X75352534Y-82444167D01*
X75244530Y-82811471D01*
X75015314Y-82811471D01*
X74832074Y-82232500D01*
X74780598Y-82070091D01*
X74733705Y-81922602D01*
X74693612Y-81796960D01*
X74662532Y-81700095D01*
X74642680Y-81638934D01*
X74636646Y-81621065D01*
X74641423Y-81602768D01*
X74678932Y-81594755D01*
X74756990Y-81595557D01*
X74769209Y-81596163D01*
X74913961Y-81603726D01*
X75008765Y-81952353D01*
X75043612Y-82079497D01*
X75074752Y-82191265D01*
X75099444Y-82277953D01*
X75114947Y-82329856D01*
X75117811Y-82338318D01*
X75129681Y-82328587D01*
X75153618Y-82278172D01*
X75186874Y-82193935D01*
X75226699Y-82082741D01*
X75260365Y-81982297D01*
X75388676Y-81588939D01*
X75487163Y-81596332D01*
G36*
X74531203Y-82811471D02*
X74394242Y-82811471D01*
X74314746Y-82809140D01*
X74273343Y-82799488D01*
X74258436Y-82778525D01*
X74257282Y-82764351D01*
X74254768Y-82735927D01*
X74238915Y-82730475D01*
X74197256Y-82747998D01*
X74164859Y-82764351D01*
X74040484Y-82803103D01*
X73905281Y-82805346D01*
X73795361Y-82776444D01*
X73693001Y-82706619D01*
X73614975Y-82603555D01*
X73572249Y-82481989D01*
X73571161Y-82475192D01*
X73564813Y-82401032D01*
X73561656Y-82294570D01*
X73561910Y-82214052D01*
X73833924Y-82214052D01*
X73840225Y-82321070D01*
X73854560Y-82409278D01*
X73873966Y-82459090D01*
X73947381Y-82527162D01*
X74034549Y-82551564D01*
X74124439Y-82531831D01*
X74201252Y-82472968D01*
X74230343Y-82433379D01*
X74247352Y-82386138D01*
X74255319Y-82317181D01*
X74257282Y-82213607D01*
X74253769Y-82111039D01*
X74244492Y-82020921D01*
X74231341Y-81960613D01*
X74229149Y-81955208D01*
X74176113Y-81890940D01*
X74098702Y-81855656D01*
X74012089Y-81849959D01*
X73931442Y-81874453D01*
X73871932Y-81929742D01*
X73865759Y-81940743D01*
X73846436Y-82007827D01*
X73835909Y-82104284D01*
X73833924Y-82214052D01*
X73561910Y-82214052D01*
X73562039Y-82173225D01*
X73563829Y-82107918D01*
X73576008Y-81946355D01*
X73601320Y-81825053D01*
X73643428Y-81735379D01*
X73705994Y-81668699D01*
X73766735Y-81629557D01*
X73851599Y-81602040D01*
X73957150Y-81592603D01*
X74065233Y-81600290D01*
X74157693Y-81624146D01*
X74206545Y-81652685D01*
X74257282Y-81698601D01*
X74257282Y-81118137D01*
X74531203Y-81118137D01*
X74531203Y-82811471D01*
X74531203Y-82811471D01*
G37*
X74531203Y-82811471D02*
X74394242Y-82811471D01*
X74314746Y-82809140D01*
X74273343Y-82799488D01*
X74258436Y-82778525D01*
X74257282Y-82764351D01*
X74254768Y-82735927D01*
X74238915Y-82730475D01*
X74197256Y-82747998D01*
X74164859Y-82764351D01*
X74040484Y-82803103D01*
X73905281Y-82805346D01*
X73795361Y-82776444D01*
X73693001Y-82706619D01*
X73614975Y-82603555D01*
X73572249Y-82481989D01*
X73571161Y-82475192D01*
X73564813Y-82401032D01*
X73561656Y-82294570D01*
X73561910Y-82214052D01*
X73833924Y-82214052D01*
X73840225Y-82321070D01*
X73854560Y-82409278D01*
X73873966Y-82459090D01*
X73947381Y-82527162D01*
X74034549Y-82551564D01*
X74124439Y-82531831D01*
X74201252Y-82472968D01*
X74230343Y-82433379D01*
X74247352Y-82386138D01*
X74255319Y-82317181D01*
X74257282Y-82213607D01*
X74253769Y-82111039D01*
X74244492Y-82020921D01*
X74231341Y-81960613D01*
X74229149Y-81955208D01*
X74176113Y-81890940D01*
X74098702Y-81855656D01*
X74012089Y-81849959D01*
X73931442Y-81874453D01*
X73871932Y-81929742D01*
X73865759Y-81940743D01*
X73846436Y-82007827D01*
X73835909Y-82104284D01*
X73833924Y-82214052D01*
X73561910Y-82214052D01*
X73562039Y-82173225D01*
X73563829Y-82107918D01*
X73576008Y-81946355D01*
X73601320Y-81825053D01*
X73643428Y-81735379D01*
X73705994Y-81668699D01*
X73766735Y-81629557D01*
X73851599Y-81602040D01*
X73957150Y-81592603D01*
X74065233Y-81600290D01*
X74157693Y-81624146D01*
X74206545Y-81652685D01*
X74257282Y-81698601D01*
X74257282Y-81118137D01*
X74531203Y-81118137D01*
X74531203Y-82811471D01*
G36*
X72962399Y-81593921D02*
X72999665Y-81605091D01*
X73011678Y-81629633D01*
X73012184Y-81640712D01*
X73014339Y-81671572D01*
X73029186Y-81676417D01*
X73069292Y-81655260D01*
X73093115Y-81640806D01*
X73168273Y-81609850D01*
X73258041Y-81594544D01*
X73352164Y-81593367D01*
X73440389Y-81604799D01*
X73512461Y-81627320D01*
X73558127Y-81659409D01*
X73567133Y-81699545D01*
X73562588Y-81710415D01*
X73529456Y-81755534D01*
X73478080Y-81811026D01*
X73468787Y-81819996D01*
X73419817Y-81861245D01*
X73377566Y-81874572D01*
X73318476Y-81865271D01*
X73294804Y-81859090D01*
X73221139Y-81844246D01*
X73169345Y-81850921D01*
X73125604Y-81874465D01*
X73085537Y-81906061D01*
X73056027Y-81945798D01*
X73035519Y-82001252D01*
X73022459Y-82080003D01*
X73015291Y-82189629D01*
X73012459Y-82337706D01*
X73012184Y-82427111D01*
X73012184Y-82811471D01*
X72763164Y-82811471D01*
X72763164Y-81591275D01*
X72887674Y-81591275D01*
X72962399Y-81593921D01*
X72962399Y-81593921D01*
G37*
X72962399Y-81593921D02*
X72999665Y-81605091D01*
X73011678Y-81629633D01*
X73012184Y-81640712D01*
X73014339Y-81671572D01*
X73029186Y-81676417D01*
X73069292Y-81655260D01*
X73093115Y-81640806D01*
X73168273Y-81609850D01*
X73258041Y-81594544D01*
X73352164Y-81593367D01*
X73440389Y-81604799D01*
X73512461Y-81627320D01*
X73558127Y-81659409D01*
X73567133Y-81699545D01*
X73562588Y-81710415D01*
X73529456Y-81755534D01*
X73478080Y-81811026D01*
X73468787Y-81819996D01*
X73419817Y-81861245D01*
X73377566Y-81874572D01*
X73318476Y-81865271D01*
X73294804Y-81859090D01*
X73221139Y-81844246D01*
X73169345Y-81850921D01*
X73125604Y-81874465D01*
X73085537Y-81906061D01*
X73056027Y-81945798D01*
X73035519Y-82001252D01*
X73022459Y-82080003D01*
X73015291Y-82189629D01*
X73012459Y-82337706D01*
X73012184Y-82427111D01*
X73012184Y-82811471D01*
X72763164Y-82811471D01*
X72763164Y-81591275D01*
X72887674Y-81591275D01*
X72962399Y-81593921D01*
G36*
X72188355Y-81600922D02*
X72305505Y-81632180D01*
X72394686Y-81688837D01*
X72457619Y-81763045D01*
X72477183Y-81794716D01*
X72491627Y-81827891D01*
X72501724Y-81870329D01*
X72508250Y-81929788D01*
X72511977Y-82014029D01*
X72513681Y-82130810D01*
X72514135Y-82287890D01*
X72514144Y-82329565D01*
X72514144Y-82811471D01*
X72394615Y-82811471D01*
X72318374Y-82806131D01*
X72262001Y-82792604D01*
X72247877Y-82784262D01*
X72209265Y-82769864D01*
X72169827Y-82784262D01*
X72104897Y-82802237D01*
X72010580Y-82809472D01*
X71906042Y-82806333D01*
X71810446Y-82793186D01*
X71754635Y-82776318D01*
X71646633Y-82706986D01*
X71579138Y-82610772D01*
X71548794Y-82482844D01*
X71548512Y-82479559D01*
X71551175Y-82422808D01*
X71791988Y-82422808D01*
X71813040Y-82487358D01*
X71847332Y-82523686D01*
X71916167Y-82551162D01*
X72007025Y-82562129D01*
X72099677Y-82556731D01*
X72173891Y-82535110D01*
X72194684Y-82521239D01*
X72231016Y-82457143D01*
X72240223Y-82384278D01*
X72240223Y-82288530D01*
X72102462Y-82288530D01*
X71971588Y-82298605D01*
X71872376Y-82327148D01*
X71810658Y-82371639D01*
X71791988Y-82422808D01*
X71551175Y-82422808D01*
X71555071Y-82339790D01*
X71601169Y-82229282D01*
X71687835Y-82145712D01*
X71699814Y-82138110D01*
X71751290Y-82113357D01*
X71815003Y-82098368D01*
X71904070Y-82091082D01*
X72009880Y-82089407D01*
X72240223Y-82089314D01*
X72240223Y-81992755D01*
X72230452Y-81917836D01*
X72205519Y-81867644D01*
X72202600Y-81864972D01*
X72147116Y-81843015D01*
X72063362Y-81834505D01*
X71970802Y-81838687D01*
X71888905Y-81854809D01*
X71840308Y-81878990D01*
X71813976Y-81898359D01*
X71786170Y-81902057D01*
X71747796Y-81886188D01*
X71689760Y-81846855D01*
X71602966Y-81780164D01*
X71595000Y-81773916D01*
X71599082Y-81750800D01*
X71633136Y-81712352D01*
X71684895Y-81669627D01*
X71742090Y-81633679D01*
X71760060Y-81625191D01*
X71825607Y-81608252D01*
X71921655Y-81596170D01*
X72028964Y-81591323D01*
X72033982Y-81591313D01*
X72188355Y-81600922D01*
X72188355Y-81600922D01*
G37*
X72188355Y-81600922D02*
X72305505Y-81632180D01*
X72394686Y-81688837D01*
X72457619Y-81763045D01*
X72477183Y-81794716D01*
X72491627Y-81827891D01*
X72501724Y-81870329D01*
X72508250Y-81929788D01*
X72511977Y-82014029D01*
X72513681Y-82130810D01*
X72514135Y-82287890D01*
X72514144Y-82329565D01*
X72514144Y-82811471D01*
X72394615Y-82811471D01*
X72318374Y-82806131D01*
X72262001Y-82792604D01*
X72247877Y-82784262D01*
X72209265Y-82769864D01*
X72169827Y-82784262D01*
X72104897Y-82802237D01*
X72010580Y-82809472D01*
X71906042Y-82806333D01*
X71810446Y-82793186D01*
X71754635Y-82776318D01*
X71646633Y-82706986D01*
X71579138Y-82610772D01*
X71548794Y-82482844D01*
X71548512Y-82479559D01*
X71551175Y-82422808D01*
X71791988Y-82422808D01*
X71813040Y-82487358D01*
X71847332Y-82523686D01*
X71916167Y-82551162D01*
X72007025Y-82562129D01*
X72099677Y-82556731D01*
X72173891Y-82535110D01*
X72194684Y-82521239D01*
X72231016Y-82457143D01*
X72240223Y-82384278D01*
X72240223Y-82288530D01*
X72102462Y-82288530D01*
X71971588Y-82298605D01*
X71872376Y-82327148D01*
X71810658Y-82371639D01*
X71791988Y-82422808D01*
X71551175Y-82422808D01*
X71555071Y-82339790D01*
X71601169Y-82229282D01*
X71687835Y-82145712D01*
X71699814Y-82138110D01*
X71751290Y-82113357D01*
X71815003Y-82098368D01*
X71904070Y-82091082D01*
X72009880Y-82089407D01*
X72240223Y-82089314D01*
X72240223Y-81992755D01*
X72230452Y-81917836D01*
X72205519Y-81867644D01*
X72202600Y-81864972D01*
X72147116Y-81843015D01*
X72063362Y-81834505D01*
X71970802Y-81838687D01*
X71888905Y-81854809D01*
X71840308Y-81878990D01*
X71813976Y-81898359D01*
X71786170Y-81902057D01*
X71747796Y-81886188D01*
X71689760Y-81846855D01*
X71602966Y-81780164D01*
X71595000Y-81773916D01*
X71599082Y-81750800D01*
X71633136Y-81712352D01*
X71684895Y-81669627D01*
X71742090Y-81633679D01*
X71760060Y-81625191D01*
X71825607Y-81608252D01*
X71921655Y-81596170D01*
X72028964Y-81591323D01*
X72033982Y-81591313D01*
X72188355Y-81600922D01*
G36*
X71149544Y-79744560D02*
X71202047Y-79770499D01*
X71266793Y-79815700D01*
X71313982Y-79864991D01*
X71346300Y-79926885D01*
X71366432Y-80009896D01*
X71377065Y-80122538D01*
X71380882Y-80273324D01*
X71381105Y-80338149D01*
X71380453Y-80480221D01*
X71377747Y-80581757D01*
X71371859Y-80652015D01*
X71361662Y-80700256D01*
X71346029Y-80735738D01*
X71329763Y-80759943D01*
X71225930Y-80862929D01*
X71103656Y-80924874D01*
X70971749Y-80943506D01*
X70839019Y-80916549D01*
X70796968Y-80897486D01*
X70696301Y-80845015D01*
X70696301Y-81667259D01*
X70769770Y-81629267D01*
X70866576Y-81599872D01*
X70985563Y-81592342D01*
X71104380Y-81606245D01*
X71194108Y-81637476D01*
X71268534Y-81696954D01*
X71332125Y-81782066D01*
X71336906Y-81790805D01*
X71357072Y-81831966D01*
X71371800Y-81873454D01*
X71381938Y-81923713D01*
X71388334Y-81991184D01*
X71391836Y-82084309D01*
X71393293Y-82211531D01*
X71393556Y-82354701D01*
X71393556Y-82811471D01*
X71119635Y-82811471D01*
X71119635Y-81969231D01*
X71043018Y-81904763D01*
X70963428Y-81853194D01*
X70888057Y-81843818D01*
X70812268Y-81867947D01*
X70771876Y-81891574D01*
X70741814Y-81925227D01*
X70720432Y-81976087D01*
X70706085Y-82051334D01*
X70697125Y-82158146D01*
X70691905Y-82303704D01*
X70690066Y-82400588D01*
X70683850Y-82799020D01*
X70553115Y-82806547D01*
X70422380Y-82814073D01*
X70422380Y-80341582D01*
X70696301Y-80341582D01*
X70703285Y-80479423D01*
X70726817Y-80575107D01*
X70770770Y-80634641D01*
X70839017Y-80664029D01*
X70907968Y-80669902D01*
X70986021Y-80663154D01*
X71037824Y-80636594D01*
X71070218Y-80601499D01*
X71095719Y-80563752D01*
X71110900Y-80521700D01*
X71117654Y-80462779D01*
X71117876Y-80374428D01*
X71115603Y-80300448D01*
X71110384Y-80189000D01*
X71102614Y-80115833D01*
X71089530Y-80069422D01*
X71068367Y-80038244D01*
X71048395Y-80020223D01*
X70964949Y-79980925D01*
X70866186Y-79974579D01*
X70809476Y-79988116D01*
X70753327Y-80036233D01*
X70716134Y-80129833D01*
X70698107Y-80268254D01*
X70696301Y-80341582D01*
X70422380Y-80341582D01*
X70422380Y-79723628D01*
X70559340Y-79723628D01*
X70641570Y-79726879D01*
X70683995Y-79738426D01*
X70696296Y-79760952D01*
X70696301Y-79761620D01*
X70702009Y-79783681D01*
X70727182Y-79781176D01*
X70777233Y-79756935D01*
X70893854Y-79719851D01*
X71025064Y-79715953D01*
X71149544Y-79744560D01*
X71149544Y-79744560D01*
G37*
X71149544Y-79744560D02*
X71202047Y-79770499D01*
X71266793Y-79815700D01*
X71313982Y-79864991D01*
X71346300Y-79926885D01*
X71366432Y-80009896D01*
X71377065Y-80122538D01*
X71380882Y-80273324D01*
X71381105Y-80338149D01*
X71380453Y-80480221D01*
X71377747Y-80581757D01*
X71371859Y-80652015D01*
X71361662Y-80700256D01*
X71346029Y-80735738D01*
X71329763Y-80759943D01*
X71225930Y-80862929D01*
X71103656Y-80924874D01*
X70971749Y-80943506D01*
X70839019Y-80916549D01*
X70796968Y-80897486D01*
X70696301Y-80845015D01*
X70696301Y-81667259D01*
X70769770Y-81629267D01*
X70866576Y-81599872D01*
X70985563Y-81592342D01*
X71104380Y-81606245D01*
X71194108Y-81637476D01*
X71268534Y-81696954D01*
X71332125Y-81782066D01*
X71336906Y-81790805D01*
X71357072Y-81831966D01*
X71371800Y-81873454D01*
X71381938Y-81923713D01*
X71388334Y-81991184D01*
X71391836Y-82084309D01*
X71393293Y-82211531D01*
X71393556Y-82354701D01*
X71393556Y-82811471D01*
X71119635Y-82811471D01*
X71119635Y-81969231D01*
X71043018Y-81904763D01*
X70963428Y-81853194D01*
X70888057Y-81843818D01*
X70812268Y-81867947D01*
X70771876Y-81891574D01*
X70741814Y-81925227D01*
X70720432Y-81976087D01*
X70706085Y-82051334D01*
X70697125Y-82158146D01*
X70691905Y-82303704D01*
X70690066Y-82400588D01*
X70683850Y-82799020D01*
X70553115Y-82806547D01*
X70422380Y-82814073D01*
X70422380Y-80341582D01*
X70696301Y-80341582D01*
X70703285Y-80479423D01*
X70726817Y-80575107D01*
X70770770Y-80634641D01*
X70839017Y-80664029D01*
X70907968Y-80669902D01*
X70986021Y-80663154D01*
X71037824Y-80636594D01*
X71070218Y-80601499D01*
X71095719Y-80563752D01*
X71110900Y-80521700D01*
X71117654Y-80462779D01*
X71117876Y-80374428D01*
X71115603Y-80300448D01*
X71110384Y-80189000D01*
X71102614Y-80115833D01*
X71089530Y-80069422D01*
X71068367Y-80038244D01*
X71048395Y-80020223D01*
X70964949Y-79980925D01*
X70866186Y-79974579D01*
X70809476Y-79988116D01*
X70753327Y-80036233D01*
X70716134Y-80129833D01*
X70698107Y-80268254D01*
X70696301Y-80341582D01*
X70422380Y-80341582D01*
X70422380Y-79723628D01*
X70559340Y-79723628D01*
X70641570Y-79726879D01*
X70683995Y-79738426D01*
X70696296Y-79760952D01*
X70696301Y-79761620D01*
X70702009Y-79783681D01*
X70727182Y-79781176D01*
X70777233Y-79756935D01*
X70893854Y-79719851D01*
X71025064Y-79715953D01*
X71149544Y-79744560D01*
G36*
X80777464Y-68002150D02*
X80779006Y-68332052D01*
X80780566Y-68614981D01*
X80782261Y-68854761D01*
X80784208Y-69055219D01*
X80786523Y-69220181D01*
X80789322Y-69353472D01*
X80792724Y-69458918D01*
X80796844Y-69540345D01*
X80801799Y-69601580D01*
X80807707Y-69646447D01*
X80814683Y-69678774D01*
X80822845Y-69702385D01*
X80829802Y-69716650D01*
X80874904Y-69799200D01*
X80060800Y-69799200D01*
X80060800Y-69723000D01*
X80057441Y-69669452D01*
X80049351Y-69646804D01*
X80049227Y-69646800D01*
X80023109Y-69659784D01*
X79970726Y-69692537D01*
X79943903Y-69710421D01*
X79811603Y-69777647D01*
X79651937Y-69824589D01*
X79483022Y-69848338D01*
X79322977Y-69845984D01*
X79222600Y-69826247D01*
X79038538Y-69744939D01*
X78873410Y-69623200D01*
X78738517Y-69470510D01*
X78677155Y-69368694D01*
X78609731Y-69211029D01*
X78565855Y-69044951D01*
X78542714Y-68856403D01*
X78537241Y-68669913D01*
X78538002Y-68656200D01*
X79338136Y-68656200D01*
X79342634Y-68831895D01*
X79356249Y-68965414D01*
X79381477Y-69064949D01*
X79420812Y-69138691D01*
X79476751Y-69194831D01*
X79509016Y-69217170D01*
X79615421Y-69255164D01*
X79741144Y-69252176D01*
X79876203Y-69208728D01*
X79900499Y-69196773D01*
X79997300Y-69146557D01*
X80004142Y-68597487D01*
X80010985Y-68048416D01*
X79943891Y-68004454D01*
X79880360Y-67977707D01*
X79790668Y-67957044D01*
X79732633Y-67950065D01*
X79644255Y-67946970D01*
X79585291Y-67957095D01*
X79534985Y-67985683D01*
X79508927Y-68006568D01*
X79441583Y-68080167D01*
X79392664Y-68175737D01*
X79360341Y-68300234D01*
X79342787Y-68460611D01*
X79338136Y-68656200D01*
X78538002Y-68656200D01*
X78553675Y-68373965D01*
X78601542Y-68114134D01*
X78680171Y-67891509D01*
X78788889Y-67707180D01*
X78927025Y-67562237D01*
X79093906Y-67457768D01*
X79288860Y-67394864D01*
X79328170Y-67387835D01*
X79443703Y-67379575D01*
X79571063Y-67386429D01*
X79697661Y-67405852D01*
X79810912Y-67435299D01*
X79898228Y-67472225D01*
X79946262Y-67512815D01*
X79967127Y-67537282D01*
X79983170Y-67532192D01*
X79994925Y-67493657D01*
X80002924Y-67417788D01*
X80007702Y-67300701D01*
X80009793Y-67138506D01*
X80010000Y-67048670D01*
X80009477Y-66874573D01*
X80007469Y-66743217D01*
X80003311Y-66646550D01*
X79996343Y-66576519D01*
X79985901Y-66525073D01*
X79971322Y-66484158D01*
X79961938Y-66464470D01*
X79913876Y-66370200D01*
X80770228Y-66370200D01*
X80777464Y-68002150D01*
X80777464Y-68002150D01*
G37*
X80777464Y-68002150D02*
X80779006Y-68332052D01*
X80780566Y-68614981D01*
X80782261Y-68854761D01*
X80784208Y-69055219D01*
X80786523Y-69220181D01*
X80789322Y-69353472D01*
X80792724Y-69458918D01*
X80796844Y-69540345D01*
X80801799Y-69601580D01*
X80807707Y-69646447D01*
X80814683Y-69678774D01*
X80822845Y-69702385D01*
X80829802Y-69716650D01*
X80874904Y-69799200D01*
X80060800Y-69799200D01*
X80060800Y-69723000D01*
X80057441Y-69669452D01*
X80049351Y-69646804D01*
X80049227Y-69646800D01*
X80023109Y-69659784D01*
X79970726Y-69692537D01*
X79943903Y-69710421D01*
X79811603Y-69777647D01*
X79651937Y-69824589D01*
X79483022Y-69848338D01*
X79322977Y-69845984D01*
X79222600Y-69826247D01*
X79038538Y-69744939D01*
X78873410Y-69623200D01*
X78738517Y-69470510D01*
X78677155Y-69368694D01*
X78609731Y-69211029D01*
X78565855Y-69044951D01*
X78542714Y-68856403D01*
X78537241Y-68669913D01*
X78538002Y-68656200D01*
X79338136Y-68656200D01*
X79342634Y-68831895D01*
X79356249Y-68965414D01*
X79381477Y-69064949D01*
X79420812Y-69138691D01*
X79476751Y-69194831D01*
X79509016Y-69217170D01*
X79615421Y-69255164D01*
X79741144Y-69252176D01*
X79876203Y-69208728D01*
X79900499Y-69196773D01*
X79997300Y-69146557D01*
X80004142Y-68597487D01*
X80010985Y-68048416D01*
X79943891Y-68004454D01*
X79880360Y-67977707D01*
X79790668Y-67957044D01*
X79732633Y-67950065D01*
X79644255Y-67946970D01*
X79585291Y-67957095D01*
X79534985Y-67985683D01*
X79508927Y-68006568D01*
X79441583Y-68080167D01*
X79392664Y-68175737D01*
X79360341Y-68300234D01*
X79342787Y-68460611D01*
X79338136Y-68656200D01*
X78538002Y-68656200D01*
X78553675Y-68373965D01*
X78601542Y-68114134D01*
X78680171Y-67891509D01*
X78788889Y-67707180D01*
X78927025Y-67562237D01*
X79093906Y-67457768D01*
X79288860Y-67394864D01*
X79328170Y-67387835D01*
X79443703Y-67379575D01*
X79571063Y-67386429D01*
X79697661Y-67405852D01*
X79810912Y-67435299D01*
X79898228Y-67472225D01*
X79946262Y-67512815D01*
X79967127Y-67537282D01*
X79983170Y-67532192D01*
X79994925Y-67493657D01*
X80002924Y-67417788D01*
X80007702Y-67300701D01*
X80009793Y-67138506D01*
X80010000Y-67048670D01*
X80009477Y-66874573D01*
X80007469Y-66743217D01*
X80003311Y-66646550D01*
X79996343Y-66576519D01*
X79985901Y-66525073D01*
X79971322Y-66484158D01*
X79961938Y-66464470D01*
X79913876Y-66370200D01*
X80770228Y-66370200D01*
X80777464Y-68002150D01*
G36*
X77557620Y-67397359D02*
X77733576Y-67437264D01*
X77852513Y-67481895D01*
X77945098Y-67537778D01*
X78027779Y-67611360D01*
X78080917Y-67666188D01*
X78124396Y-67717829D01*
X78159291Y-67771992D01*
X78186676Y-67834387D01*
X78207624Y-67910723D01*
X78223209Y-68006710D01*
X78234504Y-68128058D01*
X78242585Y-68280475D01*
X78248523Y-68469670D01*
X78253394Y-68701355D01*
X78255549Y-68822477D01*
X78259807Y-69054434D01*
X78263930Y-69241051D01*
X78268276Y-69387785D01*
X78273203Y-69500095D01*
X78279068Y-69583437D01*
X78286231Y-69643269D01*
X78295049Y-69685049D01*
X78305880Y-69714234D01*
X78315135Y-69730527D01*
X78360171Y-69799200D01*
X77549418Y-69799200D01*
X77533500Y-69645698D01*
X77434102Y-69713483D01*
X77277946Y-69792254D01*
X77097092Y-69838178D01*
X76907295Y-69849137D01*
X76724309Y-69823011D01*
X76690834Y-69813436D01*
X76504429Y-69731112D01*
X76353520Y-69613585D01*
X76240652Y-69464321D01*
X76168375Y-69286786D01*
X76139235Y-69084443D01*
X76138788Y-69062600D01*
X76139452Y-69033545D01*
X76867707Y-69033545D01*
X76871963Y-69122884D01*
X76882090Y-69153502D01*
X76944779Y-69234089D01*
X77039723Y-69288481D01*
X77153327Y-69312352D01*
X77271996Y-69301378D01*
X77309596Y-69289508D01*
X77396783Y-69247968D01*
X77452424Y-69195366D01*
X77482894Y-69120280D01*
X77494566Y-69011289D01*
X77495400Y-68956572D01*
X77495400Y-68757800D01*
X77329484Y-68757800D01*
X77165747Y-68772824D01*
X77027128Y-68815733D01*
X76931676Y-68876555D01*
X76889069Y-68943298D01*
X76867707Y-69033545D01*
X76139452Y-69033545D01*
X76141403Y-68948273D01*
X76155051Y-68860974D01*
X76184550Y-68777311D01*
X76207882Y-68727215D01*
X76312223Y-68570636D01*
X76456604Y-68444758D01*
X76640369Y-68349878D01*
X76862862Y-68286291D01*
X77123426Y-68254295D01*
X77263794Y-68250241D01*
X77502088Y-68249800D01*
X77488196Y-68146228D01*
X77452262Y-68032960D01*
X77380344Y-67954507D01*
X77273724Y-67911163D01*
X77133687Y-67903223D01*
X76961516Y-67930980D01*
X76784509Y-67985144D01*
X76700051Y-68012413D01*
X76635058Y-68027373D01*
X76603195Y-68026908D01*
X76602862Y-68026589D01*
X76585276Y-67994872D01*
X76555180Y-67928912D01*
X76517902Y-67841745D01*
X76478773Y-67746404D01*
X76443122Y-67655925D01*
X76416280Y-67583340D01*
X76403575Y-67541685D01*
X76403200Y-67538302D01*
X76424990Y-67519617D01*
X76468447Y-67513200D01*
X76520031Y-67507037D01*
X76606850Y-67490424D01*
X76715103Y-67466175D01*
X76792297Y-67447173D01*
X77058096Y-67396360D01*
X77316776Y-67379718D01*
X77557620Y-67397359D01*
X77557620Y-67397359D01*
G37*
X77557620Y-67397359D02*
X77733576Y-67437264D01*
X77852513Y-67481895D01*
X77945098Y-67537778D01*
X78027779Y-67611360D01*
X78080917Y-67666188D01*
X78124396Y-67717829D01*
X78159291Y-67771992D01*
X78186676Y-67834387D01*
X78207624Y-67910723D01*
X78223209Y-68006710D01*
X78234504Y-68128058D01*
X78242585Y-68280475D01*
X78248523Y-68469670D01*
X78253394Y-68701355D01*
X78255549Y-68822477D01*
X78259807Y-69054434D01*
X78263930Y-69241051D01*
X78268276Y-69387785D01*
X78273203Y-69500095D01*
X78279068Y-69583437D01*
X78286231Y-69643269D01*
X78295049Y-69685049D01*
X78305880Y-69714234D01*
X78315135Y-69730527D01*
X78360171Y-69799200D01*
X77549418Y-69799200D01*
X77533500Y-69645698D01*
X77434102Y-69713483D01*
X77277946Y-69792254D01*
X77097092Y-69838178D01*
X76907295Y-69849137D01*
X76724309Y-69823011D01*
X76690834Y-69813436D01*
X76504429Y-69731112D01*
X76353520Y-69613585D01*
X76240652Y-69464321D01*
X76168375Y-69286786D01*
X76139235Y-69084443D01*
X76138788Y-69062600D01*
X76139452Y-69033545D01*
X76867707Y-69033545D01*
X76871963Y-69122884D01*
X76882090Y-69153502D01*
X76944779Y-69234089D01*
X77039723Y-69288481D01*
X77153327Y-69312352D01*
X77271996Y-69301378D01*
X77309596Y-69289508D01*
X77396783Y-69247968D01*
X77452424Y-69195366D01*
X77482894Y-69120280D01*
X77494566Y-69011289D01*
X77495400Y-68956572D01*
X77495400Y-68757800D01*
X77329484Y-68757800D01*
X77165747Y-68772824D01*
X77027128Y-68815733D01*
X76931676Y-68876555D01*
X76889069Y-68943298D01*
X76867707Y-69033545D01*
X76139452Y-69033545D01*
X76141403Y-68948273D01*
X76155051Y-68860974D01*
X76184550Y-68777311D01*
X76207882Y-68727215D01*
X76312223Y-68570636D01*
X76456604Y-68444758D01*
X76640369Y-68349878D01*
X76862862Y-68286291D01*
X77123426Y-68254295D01*
X77263794Y-68250241D01*
X77502088Y-68249800D01*
X77488196Y-68146228D01*
X77452262Y-68032960D01*
X77380344Y-67954507D01*
X77273724Y-67911163D01*
X77133687Y-67903223D01*
X76961516Y-67930980D01*
X76784509Y-67985144D01*
X76700051Y-68012413D01*
X76635058Y-68027373D01*
X76603195Y-68026908D01*
X76602862Y-68026589D01*
X76585276Y-67994872D01*
X76555180Y-67928912D01*
X76517902Y-67841745D01*
X76478773Y-67746404D01*
X76443122Y-67655925D01*
X76416280Y-67583340D01*
X76403575Y-67541685D01*
X76403200Y-67538302D01*
X76424990Y-67519617D01*
X76468447Y-67513200D01*
X76520031Y-67507037D01*
X76606850Y-67490424D01*
X76715103Y-67466175D01*
X76792297Y-67447173D01*
X77058096Y-67396360D01*
X77316776Y-67379718D01*
X77557620Y-67397359D01*
G36*
X75474676Y-66551341D02*
X75515911Y-66561143D01*
X75586879Y-66583829D01*
X75682173Y-66619963D01*
X75789521Y-66664187D01*
X75896653Y-66711147D01*
X75991298Y-66755487D01*
X76061185Y-66791851D01*
X76092064Y-66812598D01*
X76082374Y-66835582D01*
X76050036Y-66890508D01*
X76001464Y-66967651D01*
X75943074Y-67057288D01*
X75881281Y-67149695D01*
X75822502Y-67235151D01*
X75773152Y-67303930D01*
X75740677Y-67345159D01*
X75712236Y-67342624D01*
X75660081Y-67312335D01*
X75616407Y-67278312D01*
X75471298Y-67186226D01*
X75306487Y-67140559D01*
X75148098Y-67139284D01*
X74977398Y-67179902D01*
X74833259Y-67263127D01*
X74716245Y-67387925D01*
X74626919Y-67553260D01*
X74565843Y-67758097D01*
X74533581Y-68001401D01*
X74530426Y-68275200D01*
X74551867Y-68522826D01*
X74596984Y-68728741D01*
X74667630Y-68897105D01*
X74765657Y-69032080D01*
X74892917Y-69137826D01*
X74922579Y-69156151D01*
X74999773Y-69196415D01*
X75071238Y-69217876D01*
X75159027Y-69225676D01*
X75222100Y-69226009D01*
X75381817Y-69210354D01*
X75520547Y-69162392D01*
X75654625Y-69075613D01*
X75704846Y-69033663D01*
X75759092Y-68989162D01*
X75795414Y-68965225D01*
X75803055Y-68963969D01*
X75825216Y-68997288D01*
X75864498Y-69061333D01*
X75915230Y-69146348D01*
X75971743Y-69242575D01*
X76028366Y-69340257D01*
X76079431Y-69429636D01*
X76119265Y-69500956D01*
X76142201Y-69544460D01*
X76145453Y-69553180D01*
X76120218Y-69566554D01*
X76062344Y-69597253D01*
X75984062Y-69638786D01*
X75979457Y-69641230D01*
X75817147Y-69721612D01*
X75674212Y-69776928D01*
X75532272Y-69811986D01*
X75372947Y-69831593D01*
X75222100Y-69839340D01*
X75029285Y-69840569D01*
X74877250Y-69831113D01*
X74786436Y-69815565D01*
X74554201Y-69730718D01*
X74341159Y-69601718D01*
X74151366Y-69432906D01*
X73988878Y-69228623D01*
X73857752Y-68993209D01*
X73762044Y-68731005D01*
X73757548Y-68714632D01*
X73721250Y-68528026D01*
X73702345Y-68313920D01*
X73700823Y-68090257D01*
X73716669Y-67874982D01*
X73749872Y-67686040D01*
X73758297Y-67654044D01*
X73860061Y-67380435D01*
X74002732Y-67134468D01*
X74183804Y-66919653D01*
X74400770Y-66739495D01*
X74422000Y-66725082D01*
X74599644Y-66632504D01*
X74807698Y-66566748D01*
X75032198Y-66529907D01*
X75259178Y-66524073D01*
X75474676Y-66551341D01*
X75474676Y-66551341D01*
G37*
X75474676Y-66551341D02*
X75515911Y-66561143D01*
X75586879Y-66583829D01*
X75682173Y-66619963D01*
X75789521Y-66664187D01*
X75896653Y-66711147D01*
X75991298Y-66755487D01*
X76061185Y-66791851D01*
X76092064Y-66812598D01*
X76082374Y-66835582D01*
X76050036Y-66890508D01*
X76001464Y-66967651D01*
X75943074Y-67057288D01*
X75881281Y-67149695D01*
X75822502Y-67235151D01*
X75773152Y-67303930D01*
X75740677Y-67345159D01*
X75712236Y-67342624D01*
X75660081Y-67312335D01*
X75616407Y-67278312D01*
X75471298Y-67186226D01*
X75306487Y-67140559D01*
X75148098Y-67139284D01*
X74977398Y-67179902D01*
X74833259Y-67263127D01*
X74716245Y-67387925D01*
X74626919Y-67553260D01*
X74565843Y-67758097D01*
X74533581Y-68001401D01*
X74530426Y-68275200D01*
X74551867Y-68522826D01*
X74596984Y-68728741D01*
X74667630Y-68897105D01*
X74765657Y-69032080D01*
X74892917Y-69137826D01*
X74922579Y-69156151D01*
X74999773Y-69196415D01*
X75071238Y-69217876D01*
X75159027Y-69225676D01*
X75222100Y-69226009D01*
X75381817Y-69210354D01*
X75520547Y-69162392D01*
X75654625Y-69075613D01*
X75704846Y-69033663D01*
X75759092Y-68989162D01*
X75795414Y-68965225D01*
X75803055Y-68963969D01*
X75825216Y-68997288D01*
X75864498Y-69061333D01*
X75915230Y-69146348D01*
X75971743Y-69242575D01*
X76028366Y-69340257D01*
X76079431Y-69429636D01*
X76119265Y-69500956D01*
X76142201Y-69544460D01*
X76145453Y-69553180D01*
X76120218Y-69566554D01*
X76062344Y-69597253D01*
X75984062Y-69638786D01*
X75979457Y-69641230D01*
X75817147Y-69721612D01*
X75674212Y-69776928D01*
X75532272Y-69811986D01*
X75372947Y-69831593D01*
X75222100Y-69839340D01*
X75029285Y-69840569D01*
X74877250Y-69831113D01*
X74786436Y-69815565D01*
X74554201Y-69730718D01*
X74341159Y-69601718D01*
X74151366Y-69432906D01*
X73988878Y-69228623D01*
X73857752Y-68993209D01*
X73762044Y-68731005D01*
X73757548Y-68714632D01*
X73721250Y-68528026D01*
X73702345Y-68313920D01*
X73700823Y-68090257D01*
X73716669Y-67874982D01*
X73749872Y-67686040D01*
X73758297Y-67654044D01*
X73860061Y-67380435D01*
X74002732Y-67134468D01*
X74183804Y-66919653D01*
X74400770Y-66739495D01*
X74422000Y-66725082D01*
X74599644Y-66632504D01*
X74807698Y-66566748D01*
X75032198Y-66529907D01*
X75259178Y-66524073D01*
X75474676Y-66551341D01*
G36*
X73381363Y-65987699D02*
X73403155Y-65994976D01*
X73421586Y-66011420D01*
X73436935Y-66040197D01*
X73449481Y-66084474D01*
X73459505Y-66147418D01*
X73467283Y-66232194D01*
X73473096Y-66341971D01*
X73477223Y-66479914D01*
X73479943Y-66649191D01*
X73481535Y-66852968D01*
X73482277Y-67094411D01*
X73482450Y-67376687D01*
X73482332Y-67702964D01*
X73482203Y-68076407D01*
X73482200Y-68135500D01*
X73482122Y-68510884D01*
X73481849Y-68838711D01*
X73481318Y-69122221D01*
X73480469Y-69364658D01*
X73479240Y-69569261D01*
X73477569Y-69739274D01*
X73475395Y-69877939D01*
X73472657Y-69988496D01*
X73469292Y-70074188D01*
X73465241Y-70138257D01*
X73460441Y-70183944D01*
X73454831Y-70214492D01*
X73448349Y-70233141D01*
X73442285Y-70241885D01*
X73431209Y-70248992D01*
X73411001Y-70255213D01*
X73378490Y-70260606D01*
X73330503Y-70265229D01*
X73263867Y-70269140D01*
X73175410Y-70272396D01*
X73061960Y-70275056D01*
X72920344Y-70277175D01*
X72747390Y-70278813D01*
X72539924Y-70280028D01*
X72294776Y-70280876D01*
X72008771Y-70281415D01*
X71678739Y-70281703D01*
X71301505Y-70281798D01*
X71246999Y-70281800D01*
X70863176Y-70281726D01*
X70526980Y-70281467D01*
X70235239Y-70280965D01*
X69984781Y-70280162D01*
X69772432Y-70279000D01*
X69595021Y-70277422D01*
X69449375Y-70275371D01*
X69332322Y-70272787D01*
X69240688Y-70269615D01*
X69171303Y-70265795D01*
X69120992Y-70261271D01*
X69086584Y-70255985D01*
X69064907Y-70249879D01*
X69052787Y-70242895D01*
X69051714Y-70241885D01*
X69044465Y-70230627D01*
X69038138Y-70210152D01*
X69032672Y-70177219D01*
X69028006Y-70128586D01*
X69024078Y-70061011D01*
X69020826Y-69971252D01*
X69018190Y-69856068D01*
X69016107Y-69712217D01*
X69014517Y-69536456D01*
X69013358Y-69325544D01*
X69012568Y-69076239D01*
X69012086Y-68785300D01*
X69011851Y-68449484D01*
X69011800Y-68135500D01*
X69011877Y-67760115D01*
X69012150Y-67432288D01*
X69012681Y-67148778D01*
X69013530Y-66906341D01*
X69014759Y-66701738D01*
X69015948Y-66580729D01*
X69291199Y-66580729D01*
X69301637Y-66605638D01*
X69327944Y-66659844D01*
X69341999Y-66687699D01*
X69352932Y-66710774D01*
X69362174Y-66736420D01*
X69369867Y-66768859D01*
X69376152Y-66812308D01*
X69381172Y-66870988D01*
X69385068Y-66949117D01*
X69387983Y-67050917D01*
X69390057Y-67180605D01*
X69391434Y-67342401D01*
X69392254Y-67540525D01*
X69392659Y-67779197D01*
X69392791Y-68062635D01*
X69392799Y-68199290D01*
X69392439Y-68462726D01*
X69391402Y-68711037D01*
X69389756Y-68939556D01*
X69387568Y-69143618D01*
X69384903Y-69318558D01*
X69381830Y-69459711D01*
X69378415Y-69562410D01*
X69374724Y-69621991D01*
X69372224Y-69635370D01*
X69347800Y-69675136D01*
X69321968Y-69729350D01*
X69292289Y-69799200D01*
X69818794Y-69798811D01*
X69973967Y-69797849D01*
X70108350Y-69795381D01*
X70214999Y-69791674D01*
X70286970Y-69786992D01*
X70317319Y-69781600D01*
X70317094Y-69779761D01*
X70287145Y-69745826D01*
X70251332Y-69687626D01*
X70247244Y-69679811D01*
X70232318Y-69642521D01*
X70221307Y-69592267D01*
X70213669Y-69521556D01*
X70208866Y-69422898D01*
X70206356Y-69288800D01*
X70205601Y-69111772D01*
X70205600Y-69101961D01*
X70206833Y-68924347D01*
X70210396Y-68781876D01*
X70216078Y-68678727D01*
X70223672Y-68619078D01*
X70230414Y-68605400D01*
X70259914Y-68624770D01*
X70297641Y-68671744D01*
X70299915Y-68675250D01*
X70340493Y-68732268D01*
X70374699Y-68770500D01*
X70405147Y-68807632D01*
X70445083Y-68869966D01*
X70458671Y-68893833D01*
X70500820Y-68960930D01*
X70563527Y-69049720D01*
X70634592Y-69143064D01*
X70648542Y-69160533D01*
X70756661Y-69303344D01*
X70847138Y-69439967D01*
X70915389Y-69562349D01*
X70956831Y-69662440D01*
X70967600Y-69720923D01*
X70967600Y-69799200D01*
X72094055Y-69799200D01*
X72081929Y-69785488D01*
X72237600Y-69785488D01*
X72261699Y-69789757D01*
X72328796Y-69793485D01*
X72431089Y-69796448D01*
X72560778Y-69798426D01*
X72710061Y-69799196D01*
X72720200Y-69799200D01*
X72896967Y-69798408D01*
X73028101Y-69795806D01*
X73118747Y-69791056D01*
X73174050Y-69783818D01*
X73199156Y-69773752D01*
X73201992Y-69767450D01*
X73187038Y-69723554D01*
X73163892Y-69686395D01*
X73154698Y-69667692D01*
X73147102Y-69635195D01*
X73140959Y-69584498D01*
X73136127Y-69511196D01*
X73132464Y-69410883D01*
X73129826Y-69279154D01*
X73128070Y-69111604D01*
X73127053Y-68903827D01*
X73126633Y-68651418D01*
X73126600Y-68537045D01*
X73126600Y-67437000D01*
X72261695Y-67437000D01*
X72300447Y-67511938D01*
X72310478Y-67537815D01*
X72318667Y-67576092D01*
X72325192Y-67631607D01*
X72330226Y-67709197D01*
X72333947Y-67813700D01*
X72336529Y-67949954D01*
X72338148Y-68122797D01*
X72338979Y-68337067D01*
X72339200Y-68579750D01*
X72339086Y-68831440D01*
X72338585Y-69037511D01*
X72337455Y-69203147D01*
X72335455Y-69333527D01*
X72332345Y-69433835D01*
X72327883Y-69509251D01*
X72321829Y-69564957D01*
X72313941Y-69606135D01*
X72303979Y-69637967D01*
X72291701Y-69665635D01*
X72288400Y-69672200D01*
X72257490Y-69735636D01*
X72239480Y-69778110D01*
X72237600Y-69785488D01*
X72081929Y-69785488D01*
X72032477Y-69729570D01*
X71988555Y-69680266D01*
X71960373Y-69649290D01*
X71958200Y-69647020D01*
X71900445Y-69583905D01*
X71828963Y-69499689D01*
X71753897Y-69407065D01*
X71685391Y-69318725D01*
X71633588Y-69247361D01*
X71613376Y-69215547D01*
X71573155Y-69151584D01*
X71509662Y-69060299D01*
X71431804Y-68953680D01*
X71348487Y-68843715D01*
X71268617Y-68742390D01*
X71206273Y-68667607D01*
X71145829Y-68590548D01*
X71089159Y-68506943D01*
X71084978Y-68500050D01*
X70957637Y-68301936D01*
X70861994Y-68171356D01*
X70792036Y-68080212D01*
X70873468Y-67992760D01*
X70943660Y-67913661D01*
X71033715Y-67806892D01*
X71133057Y-67685451D01*
X71231107Y-67562339D01*
X71317289Y-67450555D01*
X71346151Y-67411815D01*
X71650941Y-67031892D01*
X71890279Y-66774787D01*
X72089059Y-66573400D01*
X71543747Y-66573400D01*
X71358550Y-66573523D01*
X71217998Y-66574861D01*
X71115937Y-66578867D01*
X71046212Y-66586993D01*
X71002669Y-66600691D01*
X70979153Y-66621416D01*
X70969511Y-66650618D01*
X70967586Y-66689751D01*
X70967600Y-66709390D01*
X70952012Y-66762842D01*
X70912941Y-66830121D01*
X70895299Y-66853362D01*
X70836652Y-66930668D01*
X70773890Y-67021586D01*
X70751802Y-67056000D01*
X70708552Y-67122764D01*
X70674912Y-67169931D01*
X70663239Y-67183000D01*
X70633445Y-67212339D01*
X70584245Y-67268018D01*
X70524522Y-67339108D01*
X70463162Y-67414681D01*
X70409047Y-67483808D01*
X70371063Y-67535561D01*
X70358000Y-67558483D01*
X70341182Y-67587974D01*
X70299146Y-67635717D01*
X70281799Y-67652900D01*
X70205599Y-67725904D01*
X70205600Y-67306088D01*
X70207193Y-67123302D01*
X70212895Y-66980476D01*
X70224093Y-66866840D01*
X70242172Y-66771629D01*
X70268518Y-66684075D01*
X70294164Y-66617850D01*
X70297394Y-66602771D01*
X70288649Y-66591538D01*
X70261705Y-66583591D01*
X70210338Y-66578367D01*
X70128324Y-66575303D01*
X70009439Y-66573838D01*
X69847460Y-66573410D01*
X69801917Y-66573400D01*
X69647083Y-66573746D01*
X69511122Y-66574712D01*
X69401617Y-66576190D01*
X69326151Y-66578071D01*
X69292308Y-66580245D01*
X69291199Y-66580729D01*
X69015948Y-66580729D01*
X69016430Y-66531725D01*
X69018604Y-66393060D01*
X69021342Y-66282503D01*
X69024707Y-66196811D01*
X69028758Y-66132742D01*
X69033558Y-66087055D01*
X69039168Y-66056507D01*
X69045650Y-66037858D01*
X69051714Y-66029114D01*
X69064178Y-66020934D01*
X69086437Y-66013938D01*
X69122191Y-66008034D01*
X69175141Y-66003133D01*
X69248988Y-65999144D01*
X69347431Y-65995978D01*
X69474173Y-65993544D01*
X69632913Y-65991752D01*
X69827353Y-65990511D01*
X70061193Y-65989733D01*
X70338135Y-65989326D01*
X70661878Y-65989200D01*
X72288400Y-65989200D01*
X72288400Y-66085418D01*
X72308479Y-66201335D01*
X72361525Y-66320000D01*
X72436754Y-66420991D01*
X72489006Y-66465244D01*
X72602546Y-66512370D01*
X72733500Y-66522636D01*
X72867628Y-66498918D01*
X72990690Y-66444089D01*
X73088448Y-66361023D01*
X73103800Y-66341147D01*
X73150806Y-66240428D01*
X73172439Y-66124877D01*
X73183690Y-65989199D01*
X73293030Y-65989200D01*
X73326580Y-65987977D01*
X73355931Y-65986421D01*
X73381363Y-65987699D01*
X73381363Y-65987699D01*
G37*
X73381363Y-65987699D02*
X73403155Y-65994976D01*
X73421586Y-66011420D01*
X73436935Y-66040197D01*
X73449481Y-66084474D01*
X73459505Y-66147418D01*
X73467283Y-66232194D01*
X73473096Y-66341971D01*
X73477223Y-66479914D01*
X73479943Y-66649191D01*
X73481535Y-66852968D01*
X73482277Y-67094411D01*
X73482450Y-67376687D01*
X73482332Y-67702964D01*
X73482203Y-68076407D01*
X73482200Y-68135500D01*
X73482122Y-68510884D01*
X73481849Y-68838711D01*
X73481318Y-69122221D01*
X73480469Y-69364658D01*
X73479240Y-69569261D01*
X73477569Y-69739274D01*
X73475395Y-69877939D01*
X73472657Y-69988496D01*
X73469292Y-70074188D01*
X73465241Y-70138257D01*
X73460441Y-70183944D01*
X73454831Y-70214492D01*
X73448349Y-70233141D01*
X73442285Y-70241885D01*
X73431209Y-70248992D01*
X73411001Y-70255213D01*
X73378490Y-70260606D01*
X73330503Y-70265229D01*
X73263867Y-70269140D01*
X73175410Y-70272396D01*
X73061960Y-70275056D01*
X72920344Y-70277175D01*
X72747390Y-70278813D01*
X72539924Y-70280028D01*
X72294776Y-70280876D01*
X72008771Y-70281415D01*
X71678739Y-70281703D01*
X71301505Y-70281798D01*
X71246999Y-70281800D01*
X70863176Y-70281726D01*
X70526980Y-70281467D01*
X70235239Y-70280965D01*
X69984781Y-70280162D01*
X69772432Y-70279000D01*
X69595021Y-70277422D01*
X69449375Y-70275371D01*
X69332322Y-70272787D01*
X69240688Y-70269615D01*
X69171303Y-70265795D01*
X69120992Y-70261271D01*
X69086584Y-70255985D01*
X69064907Y-70249879D01*
X69052787Y-70242895D01*
X69051714Y-70241885D01*
X69044465Y-70230627D01*
X69038138Y-70210152D01*
X69032672Y-70177219D01*
X69028006Y-70128586D01*
X69024078Y-70061011D01*
X69020826Y-69971252D01*
X69018190Y-69856068D01*
X69016107Y-69712217D01*
X69014517Y-69536456D01*
X69013358Y-69325544D01*
X69012568Y-69076239D01*
X69012086Y-68785300D01*
X69011851Y-68449484D01*
X69011800Y-68135500D01*
X69011877Y-67760115D01*
X69012150Y-67432288D01*
X69012681Y-67148778D01*
X69013530Y-66906341D01*
X69014759Y-66701738D01*
X69015948Y-66580729D01*
X69291199Y-66580729D01*
X69301637Y-66605638D01*
X69327944Y-66659844D01*
X69341999Y-66687699D01*
X69352932Y-66710774D01*
X69362174Y-66736420D01*
X69369867Y-66768859D01*
X69376152Y-66812308D01*
X69381172Y-66870988D01*
X69385068Y-66949117D01*
X69387983Y-67050917D01*
X69390057Y-67180605D01*
X69391434Y-67342401D01*
X69392254Y-67540525D01*
X69392659Y-67779197D01*
X69392791Y-68062635D01*
X69392799Y-68199290D01*
X69392439Y-68462726D01*
X69391402Y-68711037D01*
X69389756Y-68939556D01*
X69387568Y-69143618D01*
X69384903Y-69318558D01*
X69381830Y-69459711D01*
X69378415Y-69562410D01*
X69374724Y-69621991D01*
X69372224Y-69635370D01*
X69347800Y-69675136D01*
X69321968Y-69729350D01*
X69292289Y-69799200D01*
X69818794Y-69798811D01*
X69973967Y-69797849D01*
X70108350Y-69795381D01*
X70214999Y-69791674D01*
X70286970Y-69786992D01*
X70317319Y-69781600D01*
X70317094Y-69779761D01*
X70287145Y-69745826D01*
X70251332Y-69687626D01*
X70247244Y-69679811D01*
X70232318Y-69642521D01*
X70221307Y-69592267D01*
X70213669Y-69521556D01*
X70208866Y-69422898D01*
X70206356Y-69288800D01*
X70205601Y-69111772D01*
X70205600Y-69101961D01*
X70206833Y-68924347D01*
X70210396Y-68781876D01*
X70216078Y-68678727D01*
X70223672Y-68619078D01*
X70230414Y-68605400D01*
X70259914Y-68624770D01*
X70297641Y-68671744D01*
X70299915Y-68675250D01*
X70340493Y-68732268D01*
X70374699Y-68770500D01*
X70405147Y-68807632D01*
X70445083Y-68869966D01*
X70458671Y-68893833D01*
X70500820Y-68960930D01*
X70563527Y-69049720D01*
X70634592Y-69143064D01*
X70648542Y-69160533D01*
X70756661Y-69303344D01*
X70847138Y-69439967D01*
X70915389Y-69562349D01*
X70956831Y-69662440D01*
X70967600Y-69720923D01*
X70967600Y-69799200D01*
X72094055Y-69799200D01*
X72081929Y-69785488D01*
X72237600Y-69785488D01*
X72261699Y-69789757D01*
X72328796Y-69793485D01*
X72431089Y-69796448D01*
X72560778Y-69798426D01*
X72710061Y-69799196D01*
X72720200Y-69799200D01*
X72896967Y-69798408D01*
X73028101Y-69795806D01*
X73118747Y-69791056D01*
X73174050Y-69783818D01*
X73199156Y-69773752D01*
X73201992Y-69767450D01*
X73187038Y-69723554D01*
X73163892Y-69686395D01*
X73154698Y-69667692D01*
X73147102Y-69635195D01*
X73140959Y-69584498D01*
X73136127Y-69511196D01*
X73132464Y-69410883D01*
X73129826Y-69279154D01*
X73128070Y-69111604D01*
X73127053Y-68903827D01*
X73126633Y-68651418D01*
X73126600Y-68537045D01*
X73126600Y-67437000D01*
X72261695Y-67437000D01*
X72300447Y-67511938D01*
X72310478Y-67537815D01*
X72318667Y-67576092D01*
X72325192Y-67631607D01*
X72330226Y-67709197D01*
X72333947Y-67813700D01*
X72336529Y-67949954D01*
X72338148Y-68122797D01*
X72338979Y-68337067D01*
X72339200Y-68579750D01*
X72339086Y-68831440D01*
X72338585Y-69037511D01*
X72337455Y-69203147D01*
X72335455Y-69333527D01*
X72332345Y-69433835D01*
X72327883Y-69509251D01*
X72321829Y-69564957D01*
X72313941Y-69606135D01*
X72303979Y-69637967D01*
X72291701Y-69665635D01*
X72288400Y-69672200D01*
X72257490Y-69735636D01*
X72239480Y-69778110D01*
X72237600Y-69785488D01*
X72081929Y-69785488D01*
X72032477Y-69729570D01*
X71988555Y-69680266D01*
X71960373Y-69649290D01*
X71958200Y-69647020D01*
X71900445Y-69583905D01*
X71828963Y-69499689D01*
X71753897Y-69407065D01*
X71685391Y-69318725D01*
X71633588Y-69247361D01*
X71613376Y-69215547D01*
X71573155Y-69151584D01*
X71509662Y-69060299D01*
X71431804Y-68953680D01*
X71348487Y-68843715D01*
X71268617Y-68742390D01*
X71206273Y-68667607D01*
X71145829Y-68590548D01*
X71089159Y-68506943D01*
X71084978Y-68500050D01*
X70957637Y-68301936D01*
X70861994Y-68171356D01*
X70792036Y-68080212D01*
X70873468Y-67992760D01*
X70943660Y-67913661D01*
X71033715Y-67806892D01*
X71133057Y-67685451D01*
X71231107Y-67562339D01*
X71317289Y-67450555D01*
X71346151Y-67411815D01*
X71650941Y-67031892D01*
X71890279Y-66774787D01*
X72089059Y-66573400D01*
X71543747Y-66573400D01*
X71358550Y-66573523D01*
X71217998Y-66574861D01*
X71115937Y-66578867D01*
X71046212Y-66586993D01*
X71002669Y-66600691D01*
X70979153Y-66621416D01*
X70969511Y-66650618D01*
X70967586Y-66689751D01*
X70967600Y-66709390D01*
X70952012Y-66762842D01*
X70912941Y-66830121D01*
X70895299Y-66853362D01*
X70836652Y-66930668D01*
X70773890Y-67021586D01*
X70751802Y-67056000D01*
X70708552Y-67122764D01*
X70674912Y-67169931D01*
X70663239Y-67183000D01*
X70633445Y-67212339D01*
X70584245Y-67268018D01*
X70524522Y-67339108D01*
X70463162Y-67414681D01*
X70409047Y-67483808D01*
X70371063Y-67535561D01*
X70358000Y-67558483D01*
X70341182Y-67587974D01*
X70299146Y-67635717D01*
X70281799Y-67652900D01*
X70205599Y-67725904D01*
X70205600Y-67306088D01*
X70207193Y-67123302D01*
X70212895Y-66980476D01*
X70224093Y-66866840D01*
X70242172Y-66771629D01*
X70268518Y-66684075D01*
X70294164Y-66617850D01*
X70297394Y-66602771D01*
X70288649Y-66591538D01*
X70261705Y-66583591D01*
X70210338Y-66578367D01*
X70128324Y-66575303D01*
X70009439Y-66573838D01*
X69847460Y-66573410D01*
X69801917Y-66573400D01*
X69647083Y-66573746D01*
X69511122Y-66574712D01*
X69401617Y-66576190D01*
X69326151Y-66578071D01*
X69292308Y-66580245D01*
X69291199Y-66580729D01*
X69015948Y-66580729D01*
X69016430Y-66531725D01*
X69018604Y-66393060D01*
X69021342Y-66282503D01*
X69024707Y-66196811D01*
X69028758Y-66132742D01*
X69033558Y-66087055D01*
X69039168Y-66056507D01*
X69045650Y-66037858D01*
X69051714Y-66029114D01*
X69064178Y-66020934D01*
X69086437Y-66013938D01*
X69122191Y-66008034D01*
X69175141Y-66003133D01*
X69248988Y-65999144D01*
X69347431Y-65995978D01*
X69474173Y-65993544D01*
X69632913Y-65991752D01*
X69827353Y-65990511D01*
X70061193Y-65989733D01*
X70338135Y-65989326D01*
X70661878Y-65989200D01*
X72288400Y-65989200D01*
X72288400Y-66085418D01*
X72308479Y-66201335D01*
X72361525Y-66320000D01*
X72436754Y-66420991D01*
X72489006Y-66465244D01*
X72602546Y-66512370D01*
X72733500Y-66522636D01*
X72867628Y-66498918D01*
X72990690Y-66444089D01*
X73088448Y-66361023D01*
X73103800Y-66341147D01*
X73150806Y-66240428D01*
X73172439Y-66124877D01*
X73183690Y-65989199D01*
X73293030Y-65989200D01*
X73326580Y-65987977D01*
X73355931Y-65986421D01*
X73381363Y-65987699D01*
D12*
X42457761Y-87955380D02*
X42124428Y-87479190D01*
X41886333Y-87955380D02*
X41886333Y-86955380D01*
X42267285Y-86955380D01*
X42362523Y-87003000D01*
X42410142Y-87050619D01*
X42457761Y-87145857D01*
X42457761Y-87288714D01*
X42410142Y-87383952D01*
X42362523Y-87431571D01*
X42267285Y-87479190D01*
X41886333Y-87479190D01*
X42743476Y-86955380D02*
X43076809Y-87955380D01*
X43410142Y-86955380D01*
X44267285Y-87955380D02*
X43695857Y-87955380D01*
X43981571Y-87955380D02*
X43981571Y-86955380D01*
X43886333Y-87098238D01*
X43791095Y-87193476D01*
X43695857Y-87241095D01*
X98053095Y-103719380D02*
X98053095Y-104528904D01*
X98100714Y-104624142D01*
X98148333Y-104671761D01*
X98243571Y-104719380D01*
X98434047Y-104719380D01*
X98529285Y-104671761D01*
X98576904Y-104624142D01*
X98624523Y-104528904D01*
X98624523Y-103719380D01*
X99005476Y-103719380D02*
X99624523Y-103719380D01*
X99291190Y-104100333D01*
X99434047Y-104100333D01*
X99529285Y-104147952D01*
X99576904Y-104195571D01*
X99624523Y-104290809D01*
X99624523Y-104528904D01*
X99576904Y-104624142D01*
X99529285Y-104671761D01*
X99434047Y-104719380D01*
X99148333Y-104719380D01*
X99053095Y-104671761D01*
X99005476Y-104624142D01*
X149058333Y-83002380D02*
X148725000Y-82526190D01*
X148486904Y-83002380D02*
X148486904Y-82002380D01*
X148867857Y-82002380D01*
X148963095Y-82050000D01*
X149010714Y-82097619D01*
X149058333Y-82192857D01*
X149058333Y-82335714D01*
X149010714Y-82430952D01*
X148963095Y-82478571D01*
X148867857Y-82526190D01*
X148486904Y-82526190D01*
X149391666Y-82002380D02*
X150010714Y-82002380D01*
X149677380Y-82383333D01*
X149820238Y-82383333D01*
X149915476Y-82430952D01*
X149963095Y-82478571D01*
X150010714Y-82573809D01*
X150010714Y-82811904D01*
X149963095Y-82907142D01*
X149915476Y-82954761D01*
X149820238Y-83002380D01*
X149534523Y-83002380D01*
X149439285Y-82954761D01*
X149391666Y-82907142D01*
X173061380Y-77009523D02*
X173775666Y-77009523D01*
X173918523Y-77057142D01*
X174013761Y-77152380D01*
X174061380Y-77295238D01*
X174061380Y-77390476D01*
X174061380Y-76009523D02*
X174061380Y-76580952D01*
X174061380Y-76295238D02*
X173061380Y-76295238D01*
X173204238Y-76390476D01*
X173299476Y-76485714D01*
X173347095Y-76580952D01*
X174061380Y-75057142D02*
X174061380Y-75628571D01*
X174061380Y-75342857D02*
X173061380Y-75342857D01*
X173204238Y-75438095D01*
X173299476Y-75533333D01*
X173347095Y-75628571D01*
X117371904Y-40942380D02*
X117371904Y-39942380D01*
X117610000Y-39942380D01*
X117752857Y-39990000D01*
X117848095Y-40085238D01*
X117895714Y-40180476D01*
X117943333Y-40370952D01*
X117943333Y-40513809D01*
X117895714Y-40704285D01*
X117848095Y-40799523D01*
X117752857Y-40894761D01*
X117610000Y-40942380D01*
X117371904Y-40942380D01*
X118895714Y-40942380D02*
X118324285Y-40942380D01*
X118610000Y-40942380D02*
X118610000Y-39942380D01*
X118514761Y-40085238D01*
X118419523Y-40180476D01*
X118324285Y-40228095D01*
X122419761Y-55383333D02*
X122467380Y-55240476D01*
X122467380Y-55002380D01*
X122419761Y-54907142D01*
X122372142Y-54859523D01*
X122276904Y-54811904D01*
X122181666Y-54811904D01*
X122086428Y-54859523D01*
X122038809Y-54907142D01*
X121991190Y-55002380D01*
X121943571Y-55192857D01*
X121895952Y-55288095D01*
X121848333Y-55335714D01*
X121753095Y-55383333D01*
X121657857Y-55383333D01*
X121562619Y-55335714D01*
X121515000Y-55288095D01*
X121467380Y-55192857D01*
X121467380Y-54954761D01*
X121515000Y-54811904D01*
X121467380Y-54478571D02*
X122467380Y-54240476D01*
X121753095Y-54050000D01*
X122467380Y-53859523D01*
X121467380Y-53621428D01*
X122467380Y-52716666D02*
X122467380Y-53288095D01*
X122467380Y-53002380D02*
X121467380Y-53002380D01*
X121610238Y-53097619D01*
X121705476Y-53192857D01*
X121753095Y-53288095D01*
X71769761Y-55383333D02*
X71817380Y-55240476D01*
X71817380Y-55002380D01*
X71769761Y-54907142D01*
X71722142Y-54859523D01*
X71626904Y-54811904D01*
X71531666Y-54811904D01*
X71436428Y-54859523D01*
X71388809Y-54907142D01*
X71341190Y-55002380D01*
X71293571Y-55192857D01*
X71245952Y-55288095D01*
X71198333Y-55335714D01*
X71103095Y-55383333D01*
X71007857Y-55383333D01*
X70912619Y-55335714D01*
X70865000Y-55288095D01*
X70817380Y-55192857D01*
X70817380Y-54954761D01*
X70865000Y-54811904D01*
X70817380Y-54478571D02*
X71817380Y-54240476D01*
X71103095Y-54050000D01*
X71817380Y-53859523D01*
X70817380Y-53621428D01*
X70817380Y-52764285D02*
X70817380Y-53240476D01*
X71293571Y-53288095D01*
X71245952Y-53240476D01*
X71198333Y-53145238D01*
X71198333Y-52907142D01*
X71245952Y-52811904D01*
X71293571Y-52764285D01*
X71388809Y-52716666D01*
X71626904Y-52716666D01*
X71722142Y-52764285D01*
X71769761Y-52811904D01*
X71817380Y-52907142D01*
X71817380Y-53145238D01*
X71769761Y-53240476D01*
X71722142Y-53288095D01*
X52655476Y-83907380D02*
X52988809Y-84907380D01*
X53322142Y-83907380D01*
X54179285Y-84907380D02*
X53607857Y-84907380D01*
X53893571Y-84907380D02*
X53893571Y-83907380D01*
X53798333Y-84050238D01*
X53703095Y-84145476D01*
X53607857Y-84193095D01*
X149102380Y-75263333D02*
X149816666Y-75263333D01*
X149959523Y-75310952D01*
X150054761Y-75406190D01*
X150102380Y-75549047D01*
X150102380Y-75644285D01*
X150102380Y-74739523D02*
X150102380Y-74549047D01*
X150054761Y-74453809D01*
X150007142Y-74406190D01*
X149864285Y-74310952D01*
X149673809Y-74263333D01*
X149292857Y-74263333D01*
X149197619Y-74310952D01*
X149150000Y-74358571D01*
X149102380Y-74453809D01*
X149102380Y-74644285D01*
X149150000Y-74739523D01*
X149197619Y-74787142D01*
X149292857Y-74834761D01*
X149530952Y-74834761D01*
X149626190Y-74787142D01*
X149673809Y-74739523D01*
X149721428Y-74644285D01*
X149721428Y-74453809D01*
X149673809Y-74358571D01*
X149626190Y-74310952D01*
X149530952Y-74263333D01*
X56411904Y-133802380D02*
X56411904Y-132802380D01*
X56983333Y-133802380D02*
X56554761Y-133230952D01*
X56983333Y-132802380D02*
X56411904Y-133373809D01*
X57935714Y-133802380D02*
X57364285Y-133802380D01*
X57650000Y-133802380D02*
X57650000Y-132802380D01*
X57554761Y-132945238D01*
X57459523Y-133040476D01*
X57364285Y-133088095D01*
X72921904Y-133802380D02*
X72921904Y-132802380D01*
X73493333Y-133802380D02*
X73064761Y-133230952D01*
X73493333Y-132802380D02*
X72921904Y-133373809D01*
X73874285Y-132897619D02*
X73921904Y-132850000D01*
X74017142Y-132802380D01*
X74255238Y-132802380D01*
X74350476Y-132850000D01*
X74398095Y-132897619D01*
X74445714Y-132992857D01*
X74445714Y-133088095D01*
X74398095Y-133230952D01*
X73826666Y-133802380D01*
X74445714Y-133802380D01*
X89431904Y-133802380D02*
X89431904Y-132802380D01*
X90003333Y-133802380D02*
X89574761Y-133230952D01*
X90003333Y-132802380D02*
X89431904Y-133373809D01*
X90336666Y-132802380D02*
X90955714Y-132802380D01*
X90622380Y-133183333D01*
X90765238Y-133183333D01*
X90860476Y-133230952D01*
X90908095Y-133278571D01*
X90955714Y-133373809D01*
X90955714Y-133611904D01*
X90908095Y-133707142D01*
X90860476Y-133754761D01*
X90765238Y-133802380D01*
X90479523Y-133802380D01*
X90384285Y-133754761D01*
X90336666Y-133707142D01*
X105941904Y-133548380D02*
X105941904Y-132548380D01*
X106513333Y-133548380D02*
X106084761Y-132976952D01*
X106513333Y-132548380D02*
X105941904Y-133119809D01*
X107370476Y-132881714D02*
X107370476Y-133548380D01*
X107132380Y-132500761D02*
X106894285Y-133215047D01*
X107513333Y-133215047D01*
X122705904Y-133548380D02*
X122705904Y-132548380D01*
X123277333Y-133548380D02*
X122848761Y-132976952D01*
X123277333Y-132548380D02*
X122705904Y-133119809D01*
X124182095Y-132548380D02*
X123705904Y-132548380D01*
X123658285Y-133024571D01*
X123705904Y-132976952D01*
X123801142Y-132929333D01*
X124039238Y-132929333D01*
X124134476Y-132976952D01*
X124182095Y-133024571D01*
X124229714Y-133119809D01*
X124229714Y-133357904D01*
X124182095Y-133453142D01*
X124134476Y-133500761D01*
X124039238Y-133548380D01*
X123801142Y-133548380D01*
X123705904Y-133500761D01*
X123658285Y-133453142D01*
X139596904Y-133548380D02*
X139596904Y-132548380D01*
X140168333Y-133548380D02*
X139739761Y-132976952D01*
X140168333Y-132548380D02*
X139596904Y-133119809D01*
X141025476Y-132548380D02*
X140835000Y-132548380D01*
X140739761Y-132596000D01*
X140692142Y-132643619D01*
X140596904Y-132786476D01*
X140549285Y-132976952D01*
X140549285Y-133357904D01*
X140596904Y-133453142D01*
X140644523Y-133500761D01*
X140739761Y-133548380D01*
X140930238Y-133548380D01*
X141025476Y-133500761D01*
X141073095Y-133453142D01*
X141120714Y-133357904D01*
X141120714Y-133119809D01*
X141073095Y-133024571D01*
X141025476Y-132976952D01*
X140930238Y-132929333D01*
X140739761Y-132929333D01*
X140644523Y-132976952D01*
X140596904Y-133024571D01*
X140549285Y-133119809D01*
X163703095Y-124547380D02*
X163703095Y-125356904D01*
X163750714Y-125452142D01*
X163798333Y-125499761D01*
X163893571Y-125547380D01*
X164084047Y-125547380D01*
X164179285Y-125499761D01*
X164226904Y-125452142D01*
X164274523Y-125356904D01*
X164274523Y-124547380D01*
X164703095Y-124642619D02*
X164750714Y-124595000D01*
X164845952Y-124547380D01*
X165084047Y-124547380D01*
X165179285Y-124595000D01*
X165226904Y-124642619D01*
X165274523Y-124737857D01*
X165274523Y-124833095D01*
X165226904Y-124975952D01*
X164655476Y-125547380D01*
X165274523Y-125547380D01*
X196092380Y-75739523D02*
X196806666Y-75739523D01*
X196949523Y-75787142D01*
X197044761Y-75882380D01*
X197092380Y-76025238D01*
X197092380Y-76120476D01*
X197092380Y-74739523D02*
X197092380Y-75310952D01*
X197092380Y-75025238D02*
X196092380Y-75025238D01*
X196235238Y-75120476D01*
X196330476Y-75215714D01*
X196378095Y-75310952D01*
X196092380Y-74120476D02*
X196092380Y-74025238D01*
X196140000Y-73930000D01*
X196187619Y-73882380D01*
X196282857Y-73834761D01*
X196473333Y-73787142D01*
X196711428Y-73787142D01*
X196901904Y-73834761D01*
X196997142Y-73882380D01*
X197044761Y-73930000D01*
X197092380Y-74025238D01*
X197092380Y-74120476D01*
X197044761Y-74215714D01*
X196997142Y-74263333D01*
X196901904Y-74310952D01*
X196711428Y-74358571D01*
X196473333Y-74358571D01*
X196282857Y-74310952D01*
X196187619Y-74263333D01*
X196140000Y-74215714D01*
X196092380Y-74120476D01*
X166838333Y-112117142D02*
X166790714Y-112164761D01*
X166647857Y-112212380D01*
X166552619Y-112212380D01*
X166409761Y-112164761D01*
X166314523Y-112069523D01*
X166266904Y-111974285D01*
X166219285Y-111783809D01*
X166219285Y-111640952D01*
X166266904Y-111450476D01*
X166314523Y-111355238D01*
X166409761Y-111260000D01*
X166552619Y-111212380D01*
X166647857Y-111212380D01*
X166790714Y-111260000D01*
X166838333Y-111307619D01*
X167790714Y-112212380D02*
X167219285Y-112212380D01*
X167505000Y-112212380D02*
X167505000Y-111212380D01*
X167409761Y-111355238D01*
X167314523Y-111450476D01*
X167219285Y-111498095D01*
X157085121Y-117105861D02*
X157132740Y-117153480D01*
X157180359Y-117296337D01*
X157180359Y-117391575D01*
X157132740Y-117534433D01*
X157037502Y-117629671D01*
X156942264Y-117677290D01*
X156751788Y-117724909D01*
X156608931Y-117724909D01*
X156418455Y-117677290D01*
X156323217Y-117629671D01*
X156227979Y-117534433D01*
X156180359Y-117391575D01*
X156180359Y-117296337D01*
X156227979Y-117153480D01*
X156275598Y-117105861D01*
X156275598Y-116724909D02*
X156227979Y-116677290D01*
X156180359Y-116582052D01*
X156180359Y-116343956D01*
X156227979Y-116248718D01*
X156275598Y-116201099D01*
X156370836Y-116153480D01*
X156466074Y-116153480D01*
X156608931Y-116201099D01*
X157180359Y-116772528D01*
X157180359Y-116153480D01*
X166838333Y-114752380D02*
X166505000Y-114276190D01*
X166266904Y-114752380D02*
X166266904Y-113752380D01*
X166647857Y-113752380D01*
X166743095Y-113800000D01*
X166790714Y-113847619D01*
X166838333Y-113942857D01*
X166838333Y-114085714D01*
X166790714Y-114180952D01*
X166743095Y-114228571D01*
X166647857Y-114276190D01*
X166266904Y-114276190D01*
X167790714Y-114752380D02*
X167219285Y-114752380D01*
X167505000Y-114752380D02*
X167505000Y-113752380D01*
X167409761Y-113895238D01*
X167314523Y-113990476D01*
X167219285Y-114038095D01*
X142708333Y-83002380D02*
X142375000Y-82526190D01*
X142136904Y-83002380D02*
X142136904Y-82002380D01*
X142517857Y-82002380D01*
X142613095Y-82050000D01*
X142660714Y-82097619D01*
X142708333Y-82192857D01*
X142708333Y-82335714D01*
X142660714Y-82430952D01*
X142613095Y-82478571D01*
X142517857Y-82526190D01*
X142136904Y-82526190D01*
X143089285Y-82097619D02*
X143136904Y-82050000D01*
X143232142Y-82002380D01*
X143470238Y-82002380D01*
X143565476Y-82050000D01*
X143613095Y-82097619D01*
X143660714Y-82192857D01*
X143660714Y-82288095D01*
X143613095Y-82430952D01*
X143041666Y-83002380D01*
X143660714Y-83002380D01*
X104671904Y-40942380D02*
X104671904Y-39942380D01*
X104910000Y-39942380D01*
X105052857Y-39990000D01*
X105148095Y-40085238D01*
X105195714Y-40180476D01*
X105243333Y-40370952D01*
X105243333Y-40513809D01*
X105195714Y-40704285D01*
X105148095Y-40799523D01*
X105052857Y-40894761D01*
X104910000Y-40942380D01*
X104671904Y-40942380D01*
X105624285Y-40037619D02*
X105671904Y-39990000D01*
X105767142Y-39942380D01*
X106005238Y-39942380D01*
X106100476Y-39990000D01*
X106148095Y-40037619D01*
X106195714Y-40132857D01*
X106195714Y-40228095D01*
X106148095Y-40370952D01*
X105576666Y-40942380D01*
X106195714Y-40942380D01*
X91971904Y-40942380D02*
X91971904Y-39942380D01*
X92210000Y-39942380D01*
X92352857Y-39990000D01*
X92448095Y-40085238D01*
X92495714Y-40180476D01*
X92543333Y-40370952D01*
X92543333Y-40513809D01*
X92495714Y-40704285D01*
X92448095Y-40799523D01*
X92352857Y-40894761D01*
X92210000Y-40942380D01*
X91971904Y-40942380D01*
X92876666Y-39942380D02*
X93495714Y-39942380D01*
X93162380Y-40323333D01*
X93305238Y-40323333D01*
X93400476Y-40370952D01*
X93448095Y-40418571D01*
X93495714Y-40513809D01*
X93495714Y-40751904D01*
X93448095Y-40847142D01*
X93400476Y-40894761D01*
X93305238Y-40942380D01*
X93019523Y-40942380D01*
X92924285Y-40894761D01*
X92876666Y-40847142D01*
X79271904Y-40942380D02*
X79271904Y-39942380D01*
X79510000Y-39942380D01*
X79652857Y-39990000D01*
X79748095Y-40085238D01*
X79795714Y-40180476D01*
X79843333Y-40370952D01*
X79843333Y-40513809D01*
X79795714Y-40704285D01*
X79748095Y-40799523D01*
X79652857Y-40894761D01*
X79510000Y-40942380D01*
X79271904Y-40942380D01*
X80700476Y-40275714D02*
X80700476Y-40942380D01*
X80462380Y-39894761D02*
X80224285Y-40609047D01*
X80843333Y-40609047D01*
X66571904Y-40942380D02*
X66571904Y-39942380D01*
X66810000Y-39942380D01*
X66952857Y-39990000D01*
X67048095Y-40085238D01*
X67095714Y-40180476D01*
X67143333Y-40370952D01*
X67143333Y-40513809D01*
X67095714Y-40704285D01*
X67048095Y-40799523D01*
X66952857Y-40894761D01*
X66810000Y-40942380D01*
X66571904Y-40942380D01*
X68048095Y-39942380D02*
X67571904Y-39942380D01*
X67524285Y-40418571D01*
X67571904Y-40370952D01*
X67667142Y-40323333D01*
X67905238Y-40323333D01*
X68000476Y-40370952D01*
X68048095Y-40418571D01*
X68095714Y-40513809D01*
X68095714Y-40751904D01*
X68048095Y-40847142D01*
X68000476Y-40894761D01*
X67905238Y-40942380D01*
X67667142Y-40942380D01*
X67571904Y-40894761D01*
X67524285Y-40847142D01*
X53871904Y-40942380D02*
X53871904Y-39942380D01*
X54110000Y-39942380D01*
X54252857Y-39990000D01*
X54348095Y-40085238D01*
X54395714Y-40180476D01*
X54443333Y-40370952D01*
X54443333Y-40513809D01*
X54395714Y-40704285D01*
X54348095Y-40799523D01*
X54252857Y-40894761D01*
X54110000Y-40942380D01*
X53871904Y-40942380D01*
X55300476Y-39942380D02*
X55110000Y-39942380D01*
X55014761Y-39990000D01*
X54967142Y-40037619D01*
X54871904Y-40180476D01*
X54824285Y-40370952D01*
X54824285Y-40751904D01*
X54871904Y-40847142D01*
X54919523Y-40894761D01*
X55014761Y-40942380D01*
X55205238Y-40942380D01*
X55300476Y-40894761D01*
X55348095Y-40847142D01*
X55395714Y-40751904D01*
X55395714Y-40513809D01*
X55348095Y-40418571D01*
X55300476Y-40370952D01*
X55205238Y-40323333D01*
X55014761Y-40323333D01*
X54919523Y-40370952D01*
X54871904Y-40418571D01*
X54824285Y-40513809D01*
X109869761Y-55383333D02*
X109917380Y-55240476D01*
X109917380Y-55002380D01*
X109869761Y-54907142D01*
X109822142Y-54859523D01*
X109726904Y-54811904D01*
X109631666Y-54811904D01*
X109536428Y-54859523D01*
X109488809Y-54907142D01*
X109441190Y-55002380D01*
X109393571Y-55192857D01*
X109345952Y-55288095D01*
X109298333Y-55335714D01*
X109203095Y-55383333D01*
X109107857Y-55383333D01*
X109012619Y-55335714D01*
X108965000Y-55288095D01*
X108917380Y-55192857D01*
X108917380Y-54954761D01*
X108965000Y-54811904D01*
X108917380Y-54478571D02*
X109917380Y-54240476D01*
X109203095Y-54050000D01*
X109917380Y-53859523D01*
X108917380Y-53621428D01*
X109012619Y-53288095D02*
X108965000Y-53240476D01*
X108917380Y-53145238D01*
X108917380Y-52907142D01*
X108965000Y-52811904D01*
X109012619Y-52764285D01*
X109107857Y-52716666D01*
X109203095Y-52716666D01*
X109345952Y-52764285D01*
X109917380Y-53335714D01*
X109917380Y-52716666D01*
X97169761Y-55383333D02*
X97217380Y-55240476D01*
X97217380Y-55002380D01*
X97169761Y-54907142D01*
X97122142Y-54859523D01*
X97026904Y-54811904D01*
X96931666Y-54811904D01*
X96836428Y-54859523D01*
X96788809Y-54907142D01*
X96741190Y-55002380D01*
X96693571Y-55192857D01*
X96645952Y-55288095D01*
X96598333Y-55335714D01*
X96503095Y-55383333D01*
X96407857Y-55383333D01*
X96312619Y-55335714D01*
X96265000Y-55288095D01*
X96217380Y-55192857D01*
X96217380Y-54954761D01*
X96265000Y-54811904D01*
X96217380Y-54478571D02*
X97217380Y-54240476D01*
X96503095Y-54050000D01*
X97217380Y-53859523D01*
X96217380Y-53621428D01*
X96217380Y-53335714D02*
X96217380Y-52716666D01*
X96598333Y-53050000D01*
X96598333Y-52907142D01*
X96645952Y-52811904D01*
X96693571Y-52764285D01*
X96788809Y-52716666D01*
X97026904Y-52716666D01*
X97122142Y-52764285D01*
X97169761Y-52811904D01*
X97217380Y-52907142D01*
X97217380Y-53192857D01*
X97169761Y-53288095D01*
X97122142Y-53335714D01*
X84319761Y-55383333D02*
X84367380Y-55240476D01*
X84367380Y-55002380D01*
X84319761Y-54907142D01*
X84272142Y-54859523D01*
X84176904Y-54811904D01*
X84081666Y-54811904D01*
X83986428Y-54859523D01*
X83938809Y-54907142D01*
X83891190Y-55002380D01*
X83843571Y-55192857D01*
X83795952Y-55288095D01*
X83748333Y-55335714D01*
X83653095Y-55383333D01*
X83557857Y-55383333D01*
X83462619Y-55335714D01*
X83415000Y-55288095D01*
X83367380Y-55192857D01*
X83367380Y-54954761D01*
X83415000Y-54811904D01*
X83367380Y-54478571D02*
X84367380Y-54240476D01*
X83653095Y-54050000D01*
X84367380Y-53859523D01*
X83367380Y-53621428D01*
X83700714Y-52811904D02*
X84367380Y-52811904D01*
X83319761Y-53050000D02*
X84034047Y-53288095D01*
X84034047Y-52669047D01*
X59609761Y-55383333D02*
X59657380Y-55240476D01*
X59657380Y-55002380D01*
X59609761Y-54907142D01*
X59562142Y-54859523D01*
X59466904Y-54811904D01*
X59371666Y-54811904D01*
X59276428Y-54859523D01*
X59228809Y-54907142D01*
X59181190Y-55002380D01*
X59133571Y-55192857D01*
X59085952Y-55288095D01*
X59038333Y-55335714D01*
X58943095Y-55383333D01*
X58847857Y-55383333D01*
X58752619Y-55335714D01*
X58705000Y-55288095D01*
X58657380Y-55192857D01*
X58657380Y-54954761D01*
X58705000Y-54811904D01*
X58657380Y-54478571D02*
X59657380Y-54240476D01*
X58943095Y-54050000D01*
X59657380Y-53859523D01*
X58657380Y-53621428D01*
X58657380Y-52811904D02*
X58657380Y-53002380D01*
X58705000Y-53097619D01*
X58752619Y-53145238D01*
X58895476Y-53240476D01*
X59085952Y-53288095D01*
X59466904Y-53288095D01*
X59562142Y-53240476D01*
X59609761Y-53192857D01*
X59657380Y-53097619D01*
X59657380Y-52907142D01*
X59609761Y-52811904D01*
X59562142Y-52764285D01*
X59466904Y-52716666D01*
X59228809Y-52716666D01*
X59133571Y-52764285D01*
X59085952Y-52811904D01*
X59038333Y-52907142D01*
X59038333Y-53097619D01*
X59085952Y-53192857D01*
X59133571Y-53240476D01*
X59228809Y-53288095D01*
X88733333Y-82907142D02*
X88685714Y-82954761D01*
X88542857Y-83002380D01*
X88447619Y-83002380D01*
X88304761Y-82954761D01*
X88209523Y-82859523D01*
X88161904Y-82764285D01*
X88114285Y-82573809D01*
X88114285Y-82430952D01*
X88161904Y-82240476D01*
X88209523Y-82145238D01*
X88304761Y-82050000D01*
X88447619Y-82002380D01*
X88542857Y-82002380D01*
X88685714Y-82050000D01*
X88733333Y-82097619D01*
X89638095Y-82002380D02*
X89161904Y-82002380D01*
X89114285Y-82478571D01*
X89161904Y-82430952D01*
X89257142Y-82383333D01*
X89495238Y-82383333D01*
X89590476Y-82430952D01*
X89638095Y-82478571D01*
X89685714Y-82573809D01*
X89685714Y-82811904D01*
X89638095Y-82907142D01*
X89590476Y-82954761D01*
X89495238Y-83002380D01*
X89257142Y-83002380D01*
X89161904Y-82954761D01*
X89114285Y-82907142D01*
X88733333Y-105767142D02*
X88685714Y-105814761D01*
X88542857Y-105862380D01*
X88447619Y-105862380D01*
X88304761Y-105814761D01*
X88209523Y-105719523D01*
X88161904Y-105624285D01*
X88114285Y-105433809D01*
X88114285Y-105290952D01*
X88161904Y-105100476D01*
X88209523Y-105005238D01*
X88304761Y-104910000D01*
X88447619Y-104862380D01*
X88542857Y-104862380D01*
X88685714Y-104910000D01*
X88733333Y-104957619D01*
X89590476Y-104862380D02*
X89400000Y-104862380D01*
X89304761Y-104910000D01*
X89257142Y-104957619D01*
X89161904Y-105100476D01*
X89114285Y-105290952D01*
X89114285Y-105671904D01*
X89161904Y-105767142D01*
X89209523Y-105814761D01*
X89304761Y-105862380D01*
X89495238Y-105862380D01*
X89590476Y-105814761D01*
X89638095Y-105767142D01*
X89685714Y-105671904D01*
X89685714Y-105433809D01*
X89638095Y-105338571D01*
X89590476Y-105290952D01*
X89495238Y-105243333D01*
X89304761Y-105243333D01*
X89209523Y-105290952D01*
X89161904Y-105338571D01*
X89114285Y-105433809D01*
X108418333Y-83542142D02*
X108370714Y-83589761D01*
X108227857Y-83637380D01*
X108132619Y-83637380D01*
X107989761Y-83589761D01*
X107894523Y-83494523D01*
X107846904Y-83399285D01*
X107799285Y-83208809D01*
X107799285Y-83065952D01*
X107846904Y-82875476D01*
X107894523Y-82780238D01*
X107989761Y-82685000D01*
X108132619Y-82637380D01*
X108227857Y-82637380D01*
X108370714Y-82685000D01*
X108418333Y-82732619D01*
X108751666Y-82637380D02*
X109418333Y-82637380D01*
X108989761Y-83637380D01*
X108418333Y-105767142D02*
X108370714Y-105814761D01*
X108227857Y-105862380D01*
X108132619Y-105862380D01*
X107989761Y-105814761D01*
X107894523Y-105719523D01*
X107846904Y-105624285D01*
X107799285Y-105433809D01*
X107799285Y-105290952D01*
X107846904Y-105100476D01*
X107894523Y-105005238D01*
X107989761Y-104910000D01*
X108132619Y-104862380D01*
X108227857Y-104862380D01*
X108370714Y-104910000D01*
X108418333Y-104957619D01*
X108989761Y-105290952D02*
X108894523Y-105243333D01*
X108846904Y-105195714D01*
X108799285Y-105100476D01*
X108799285Y-105052857D01*
X108846904Y-104957619D01*
X108894523Y-104910000D01*
X108989761Y-104862380D01*
X109180238Y-104862380D01*
X109275476Y-104910000D01*
X109323095Y-104957619D01*
X109370714Y-105052857D01*
X109370714Y-105100476D01*
X109323095Y-105195714D01*
X109275476Y-105243333D01*
X109180238Y-105290952D01*
X108989761Y-105290952D01*
X108894523Y-105338571D01*
X108846904Y-105386190D01*
X108799285Y-105481428D01*
X108799285Y-105671904D01*
X108846904Y-105767142D01*
X108894523Y-105814761D01*
X108989761Y-105862380D01*
X109180238Y-105862380D01*
X109275476Y-105814761D01*
X109323095Y-105767142D01*
X109370714Y-105671904D01*
X109370714Y-105481428D01*
X109323095Y-105386190D01*
X109275476Y-105338571D01*
X109180238Y-105290952D01*
X97917095Y-83597380D02*
X97917095Y-84406904D01*
X97964714Y-84502142D01*
X98012333Y-84549761D01*
X98107571Y-84597380D01*
X98298047Y-84597380D01*
X98393285Y-84549761D01*
X98440904Y-84502142D01*
X98488523Y-84406904D01*
X98488523Y-83597380D01*
X99440904Y-83597380D02*
X98964714Y-83597380D01*
X98917095Y-84073571D01*
X98964714Y-84025952D01*
X99059952Y-83978333D01*
X99298047Y-83978333D01*
X99393285Y-84025952D01*
X99440904Y-84073571D01*
X99488523Y-84168809D01*
X99488523Y-84406904D01*
X99440904Y-84502142D01*
X99393285Y-84549761D01*
X99298047Y-84597380D01*
X99059952Y-84597380D01*
X98964714Y-84549761D01*
X98917095Y-84502142D01*
X90050666Y-134727380D02*
X90050666Y-135441666D01*
X90003047Y-135584523D01*
X89907809Y-135679761D01*
X89764952Y-135727380D01*
X89669714Y-135727380D01*
X90431619Y-134727380D02*
X91050666Y-134727380D01*
X90717333Y-135108333D01*
X90860190Y-135108333D01*
X90955428Y-135155952D01*
X91003047Y-135203571D01*
X91050666Y-135298809D01*
X91050666Y-135536904D01*
X91003047Y-135632142D01*
X90955428Y-135679761D01*
X90860190Y-135727380D01*
X90574476Y-135727380D01*
X90479238Y-135679761D01*
X90431619Y-135632142D01*
X106687666Y-134727380D02*
X106687666Y-135441666D01*
X106640047Y-135584523D01*
X106544809Y-135679761D01*
X106401952Y-135727380D01*
X106306714Y-135727380D01*
X107592428Y-135060714D02*
X107592428Y-135727380D01*
X107354333Y-134679761D02*
X107116238Y-135394047D01*
X107735285Y-135394047D01*
X123324666Y-134727380D02*
X123324666Y-135441666D01*
X123277047Y-135584523D01*
X123181809Y-135679761D01*
X123038952Y-135727380D01*
X122943714Y-135727380D01*
X124277047Y-134727380D02*
X123800857Y-134727380D01*
X123753238Y-135203571D01*
X123800857Y-135155952D01*
X123896095Y-135108333D01*
X124134190Y-135108333D01*
X124229428Y-135155952D01*
X124277047Y-135203571D01*
X124324666Y-135298809D01*
X124324666Y-135536904D01*
X124277047Y-135632142D01*
X124229428Y-135679761D01*
X124134190Y-135727380D01*
X123896095Y-135727380D01*
X123800857Y-135679761D01*
X123753238Y-135632142D01*
X56776666Y-134727380D02*
X56776666Y-135441666D01*
X56729047Y-135584523D01*
X56633809Y-135679761D01*
X56490952Y-135727380D01*
X56395714Y-135727380D01*
X57776666Y-135727380D02*
X57205238Y-135727380D01*
X57490952Y-135727380D02*
X57490952Y-134727380D01*
X57395714Y-134870238D01*
X57300476Y-134965476D01*
X57205238Y-135013095D01*
X183101666Y-134727380D02*
X183101666Y-135441666D01*
X183054047Y-135584523D01*
X182958809Y-135679761D01*
X182815952Y-135727380D01*
X182720714Y-135727380D01*
X183720714Y-135155952D02*
X183625476Y-135108333D01*
X183577857Y-135060714D01*
X183530238Y-134965476D01*
X183530238Y-134917857D01*
X183577857Y-134822619D01*
X183625476Y-134775000D01*
X183720714Y-134727380D01*
X183911190Y-134727380D01*
X184006428Y-134775000D01*
X184054047Y-134822619D01*
X184101666Y-134917857D01*
X184101666Y-134965476D01*
X184054047Y-135060714D01*
X184006428Y-135108333D01*
X183911190Y-135155952D01*
X183720714Y-135155952D01*
X183625476Y-135203571D01*
X183577857Y-135251190D01*
X183530238Y-135346428D01*
X183530238Y-135536904D01*
X183577857Y-135632142D01*
X183625476Y-135679761D01*
X183720714Y-135727380D01*
X183911190Y-135727380D01*
X184006428Y-135679761D01*
X184054047Y-135632142D01*
X184101666Y-135536904D01*
X184101666Y-135346428D01*
X184054047Y-135251190D01*
X184006428Y-135203571D01*
X183911190Y-135155952D01*
X73413666Y-134727380D02*
X73413666Y-135441666D01*
X73366047Y-135584523D01*
X73270809Y-135679761D01*
X73127952Y-135727380D01*
X73032714Y-135727380D01*
X73842238Y-134822619D02*
X73889857Y-134775000D01*
X73985095Y-134727380D01*
X74223190Y-134727380D01*
X74318428Y-134775000D01*
X74366047Y-134822619D01*
X74413666Y-134917857D01*
X74413666Y-135013095D01*
X74366047Y-135155952D01*
X73794619Y-135727380D01*
X74413666Y-135727380D01*
X139961666Y-134727380D02*
X139961666Y-135441666D01*
X139914047Y-135584523D01*
X139818809Y-135679761D01*
X139675952Y-135727380D01*
X139580714Y-135727380D01*
X140866428Y-134727380D02*
X140675952Y-134727380D01*
X140580714Y-134775000D01*
X140533095Y-134822619D01*
X140437857Y-134965476D01*
X140390238Y-135155952D01*
X140390238Y-135536904D01*
X140437857Y-135632142D01*
X140485476Y-135679761D01*
X140580714Y-135727380D01*
X140771190Y-135727380D01*
X140866428Y-135679761D01*
X140914047Y-135632142D01*
X140961666Y-135536904D01*
X140961666Y-135298809D01*
X140914047Y-135203571D01*
X140866428Y-135155952D01*
X140771190Y-135108333D01*
X140580714Y-135108333D01*
X140485476Y-135155952D01*
X140437857Y-135203571D01*
X140390238Y-135298809D01*
X160241666Y-134727380D02*
X160241666Y-135441666D01*
X160194047Y-135584523D01*
X160098809Y-135679761D01*
X159955952Y-135727380D01*
X159860714Y-135727380D01*
X160622619Y-134727380D02*
X161289285Y-134727380D01*
X160860714Y-135727380D01*
X182705476Y-73672380D02*
X182705476Y-74386666D01*
X182657857Y-74529523D01*
X182562619Y-74624761D01*
X182419761Y-74672380D01*
X182324523Y-74672380D01*
X183705476Y-74672380D02*
X183134047Y-74672380D01*
X183419761Y-74672380D02*
X183419761Y-73672380D01*
X183324523Y-73815238D01*
X183229285Y-73910476D01*
X183134047Y-73958095D01*
X184038809Y-73672380D02*
X184657857Y-73672380D01*
X184324523Y-74053333D01*
X184467380Y-74053333D01*
X184562619Y-74100952D01*
X184610238Y-74148571D01*
X184657857Y-74243809D01*
X184657857Y-74481904D01*
X184610238Y-74577142D01*
X184562619Y-74624761D01*
X184467380Y-74672380D01*
X184181666Y-74672380D01*
X184086428Y-74624761D01*
X184038809Y-74577142D01*
M02*
