%TF.GenerationSoftware,KiCad,Pcbnew,(6.0.0-rc1-dev-714-g3024ded91)*%
%TF.CreationDate,2018-10-09T21:15:08+01:00*%
%TF.ProjectId,AquaHub,417175614875622E6B696361645F7063,rev?*%
%TF.SameCoordinates,Original*%
%TF.FileFunction,Copper,L2,Bot,Signal*%
%TF.FilePolarity,Positive*%
%FSLAX46Y46*%
G04 Gerber Fmt 4.6, Leading zero omitted, Abs format (unit mm)*
G04 Created by KiCad (PCBNEW (6.0.0-rc1-dev-714-g3024ded91)) date 10/09/18 21:15:08*
%MOMM*%
%LPD*%
G01*
G04 APERTURE LIST*
%ADD10C,0.080000*%
%ADD11C,0.200000*%
%ADD12C,2.200000*%
%ADD13C,2.500000*%
%ADD14R,2.500000X2.500000*%
%ADD15O,1.700000X1.700000*%
%ADD16R,1.700000X1.700000*%
%ADD17C,2.600000*%
%ADD18R,2.600000X2.600000*%
%ADD19O,1.070000X1.800000*%
%ADD20R,1.070000X1.800000*%
%ADD21O,1.727200X1.727200*%
%ADD22R,1.727200X1.727200*%
%ADD23C,1.800000*%
%ADD24C,2.800000*%
%ADD25C,2.780000*%
%ADD26C,2.000000*%
%ADD27R,2.000000X2.000000*%
%ADD28R,4.000000X2.500000*%
%ADD29C,0.150000*%
%ADD30C,0.800000*%
%ADD31C,2.100000*%
%ADD32C,1.000000*%
%ADD33C,0.152400*%
%ADD34C,2.000000*%
%ADD35C,0.254000*%
%ADD36C,0.350000*%
G04 APERTURE END LIST*
D10*
X55880000Y-104140000D02*
X55880000Y-102870000D01*
X66040000Y-104140000D02*
X55880000Y-104140000D01*
X66040000Y-102870000D02*
X66040000Y-104140000D01*
X55880000Y-102870000D02*
X66040000Y-102870000D01*
D11*
X50800000Y-102870000D02*
X47879000Y-102870000D01*
X50800000Y-106045000D02*
X50800000Y-102870000D01*
X146050000Y-115570000D02*
X146050000Y-118110000D01*
X140680000Y-77590000D02*
X140680000Y-75590000D01*
X148180000Y-75590000D02*
X148180000Y-77590000D01*
X148180000Y-77590000D02*
X208180000Y-77590000D01*
X208180000Y-75590000D02*
X148180000Y-75590000D01*
X208180000Y-53590000D02*
X208180000Y-75590000D01*
X38180000Y-53590000D02*
X208180000Y-53590000D01*
X38180000Y-75590000D02*
X38180000Y-53590000D01*
X140680000Y-75590000D02*
X38180000Y-75590000D01*
X48006000Y-118364000D02*
X47879000Y-102870000D01*
X146050000Y-118110000D02*
X48006000Y-118364000D01*
X50800000Y-115570000D02*
X146050000Y-115570000D01*
X50800000Y-106045000D02*
X50800000Y-115570000D01*
X38180000Y-153590000D02*
X208180000Y-153590000D01*
X38180000Y-77590000D02*
X38180000Y-153590000D01*
X140680000Y-77590000D02*
X38180000Y-77590000D01*
X208180000Y-77590000D02*
X208180000Y-153590000D01*
D12*
X112700000Y-72100000D03*
X117700000Y-72100000D03*
X112700000Y-67100000D03*
X117700000Y-67100000D03*
X82700000Y-72100000D03*
X87700000Y-72100000D03*
X82700000Y-67100000D03*
X87700000Y-67100000D03*
D13*
X136525000Y-133350000D03*
X136525000Y-128350000D03*
X136525000Y-108350000D03*
X144025000Y-108350000D03*
X144025000Y-128350000D03*
D14*
X144025000Y-133350000D03*
D13*
X53460000Y-133350000D03*
X53460000Y-128350000D03*
X53460000Y-108350000D03*
X60960000Y-108350000D03*
X60960000Y-128350000D03*
D14*
X60960000Y-133350000D03*
D15*
X202819000Y-125603000D03*
X202819000Y-123063000D03*
D16*
X202819000Y-120523000D03*
D17*
X171243000Y-140335000D03*
D18*
X166243000Y-140335000D03*
D17*
X142795000Y-140335000D03*
D18*
X137795000Y-140335000D03*
D17*
X76247000Y-140335000D03*
D18*
X71247000Y-140335000D03*
D17*
X59610000Y-140335000D03*
D18*
X54610000Y-140335000D03*
D17*
X126158000Y-140335000D03*
D18*
X121158000Y-140335000D03*
D17*
X109521000Y-140335000D03*
D18*
X104521000Y-140335000D03*
D17*
X92884000Y-140335000D03*
D18*
X87884000Y-140335000D03*
D15*
X195580000Y-97663000D03*
D16*
X195580000Y-95123000D03*
D19*
X131990000Y-59590000D03*
X130720000Y-59590000D03*
X129450000Y-59590000D03*
D20*
X128180000Y-59590000D03*
D21*
X144780000Y-84328000D03*
X144780000Y-81788000D03*
X147320000Y-84328000D03*
X147320000Y-81788000D03*
X149860000Y-84328000D03*
D22*
X149860000Y-81788000D03*
D23*
X49805000Y-99575000D03*
X52705000Y-92075000D03*
D15*
X202819000Y-114427000D03*
X202819000Y-111887000D03*
D16*
X202819000Y-109347000D03*
D19*
X116990000Y-59590000D03*
X115720000Y-59590000D03*
X114450000Y-59590000D03*
D20*
X113180000Y-59590000D03*
D19*
X101990000Y-59590000D03*
X100720000Y-59590000D03*
X99450000Y-59590000D03*
D20*
X98180000Y-59590000D03*
D19*
X86990000Y-59590000D03*
X85720000Y-59590000D03*
X84450000Y-59590000D03*
D20*
X83180000Y-59590000D03*
D19*
X71990000Y-59590000D03*
X70720000Y-59590000D03*
X69450000Y-59590000D03*
D20*
X68180000Y-59590000D03*
D19*
X56990000Y-59590000D03*
X55720000Y-59590000D03*
X54450000Y-59590000D03*
D20*
X53180000Y-59590000D03*
D24*
X123825000Y-95885000D03*
X123825000Y-91440000D03*
X123825000Y-86995000D03*
X123825000Y-100330000D03*
D15*
X202819000Y-103124000D03*
X202819000Y-100584000D03*
X202819000Y-98044000D03*
X202819000Y-95504000D03*
X202819000Y-92964000D03*
D16*
X202819000Y-90424000D03*
D19*
X156990000Y-59590000D03*
X155720000Y-59590000D03*
X154450000Y-59590000D03*
D20*
X153180000Y-59590000D03*
D25*
X166780000Y-130175000D03*
X170180000Y-130175000D03*
X166780000Y-120255000D03*
X170180000Y-120255000D03*
D26*
X83693000Y-82804000D03*
X88773000Y-100584000D03*
X88773000Y-82804000D03*
X63373000Y-100584000D03*
D27*
X58293000Y-100584000D03*
D28*
X152330000Y-65590000D03*
X158430000Y-65590000D03*
D13*
X69970000Y-133350000D03*
X69970000Y-128350000D03*
X69970000Y-108350000D03*
X77470000Y-108350000D03*
X77470000Y-128350000D03*
D14*
X77470000Y-133350000D03*
D13*
X86480000Y-133350000D03*
X86480000Y-128350000D03*
X86480000Y-108350000D03*
X93980000Y-108350000D03*
X93980000Y-128350000D03*
D14*
X93980000Y-133350000D03*
D13*
X102990000Y-133350000D03*
X102990000Y-128350000D03*
X102990000Y-108350000D03*
X110490000Y-108350000D03*
X110490000Y-128350000D03*
D14*
X110490000Y-133350000D03*
D13*
X119754000Y-133350000D03*
X119754000Y-128350000D03*
X119754000Y-108350000D03*
X127254000Y-108350000D03*
X127254000Y-128350000D03*
D14*
X127254000Y-133350000D03*
D12*
X127700000Y-72100000D03*
X132700000Y-72100000D03*
X127700000Y-67100000D03*
X132700000Y-67100000D03*
X97700000Y-72100000D03*
X102700000Y-72100000D03*
X97700000Y-67100000D03*
X102700000Y-67100000D03*
X67700000Y-72100000D03*
X72700000Y-72100000D03*
X67700000Y-67100000D03*
X72700000Y-67100000D03*
X52700000Y-72100000D03*
X57700000Y-72100000D03*
X52700000Y-67100000D03*
X57700000Y-67100000D03*
D27*
X193040000Y-135001000D03*
D26*
X198040000Y-135001000D03*
D29*
G36*
X182841603Y-59310963D02*
X182861018Y-59313843D01*
X182880057Y-59318612D01*
X182898537Y-59325224D01*
X182916279Y-59333616D01*
X182933114Y-59343706D01*
X182948879Y-59355398D01*
X182963421Y-59368579D01*
X182976602Y-59383121D01*
X182988294Y-59398886D01*
X182998384Y-59415721D01*
X183006776Y-59433463D01*
X183013388Y-59451943D01*
X183018157Y-59470982D01*
X183021037Y-59490397D01*
X183022000Y-59510000D01*
X183022000Y-59910000D01*
X183021037Y-59929603D01*
X183018157Y-59949018D01*
X183013388Y-59968057D01*
X183006776Y-59986537D01*
X182998384Y-60004279D01*
X182988294Y-60021114D01*
X182976602Y-60036879D01*
X182963421Y-60051421D01*
X182948879Y-60064602D01*
X182933114Y-60076294D01*
X182916279Y-60086384D01*
X182898537Y-60094776D01*
X182880057Y-60101388D01*
X182861018Y-60106157D01*
X182841603Y-60109037D01*
X182822000Y-60110000D01*
X181922000Y-60110000D01*
X181902397Y-60109037D01*
X181882982Y-60106157D01*
X181863943Y-60101388D01*
X181845463Y-60094776D01*
X181827721Y-60086384D01*
X181810886Y-60076294D01*
X181795121Y-60064602D01*
X181780579Y-60051421D01*
X181767398Y-60036879D01*
X181755706Y-60021114D01*
X181745616Y-60004279D01*
X181737224Y-59986537D01*
X181730612Y-59968057D01*
X181725843Y-59949018D01*
X181722963Y-59929603D01*
X181722000Y-59910000D01*
X181722000Y-59510000D01*
X181722963Y-59490397D01*
X181725843Y-59470982D01*
X181730612Y-59451943D01*
X181737224Y-59433463D01*
X181745616Y-59415721D01*
X181755706Y-59398886D01*
X181767398Y-59383121D01*
X181780579Y-59368579D01*
X181795121Y-59355398D01*
X181810886Y-59343706D01*
X181827721Y-59333616D01*
X181845463Y-59325224D01*
X181863943Y-59318612D01*
X181882982Y-59313843D01*
X181902397Y-59310963D01*
X181922000Y-59310000D01*
X182822000Y-59310000D01*
X182841603Y-59310963D01*
X182841603Y-59310963D01*
G37*
D30*
X182372000Y-59710000D03*
D29*
G36*
X182841603Y-60560963D02*
X182861018Y-60563843D01*
X182880057Y-60568612D01*
X182898537Y-60575224D01*
X182916279Y-60583616D01*
X182933114Y-60593706D01*
X182948879Y-60605398D01*
X182963421Y-60618579D01*
X182976602Y-60633121D01*
X182988294Y-60648886D01*
X182998384Y-60665721D01*
X183006776Y-60683463D01*
X183013388Y-60701943D01*
X183018157Y-60720982D01*
X183021037Y-60740397D01*
X183022000Y-60760000D01*
X183022000Y-61160000D01*
X183021037Y-61179603D01*
X183018157Y-61199018D01*
X183013388Y-61218057D01*
X183006776Y-61236537D01*
X182998384Y-61254279D01*
X182988294Y-61271114D01*
X182976602Y-61286879D01*
X182963421Y-61301421D01*
X182948879Y-61314602D01*
X182933114Y-61326294D01*
X182916279Y-61336384D01*
X182898537Y-61344776D01*
X182880057Y-61351388D01*
X182861018Y-61356157D01*
X182841603Y-61359037D01*
X182822000Y-61360000D01*
X181922000Y-61360000D01*
X181902397Y-61359037D01*
X181882982Y-61356157D01*
X181863943Y-61351388D01*
X181845463Y-61344776D01*
X181827721Y-61336384D01*
X181810886Y-61326294D01*
X181795121Y-61314602D01*
X181780579Y-61301421D01*
X181767398Y-61286879D01*
X181755706Y-61271114D01*
X181745616Y-61254279D01*
X181737224Y-61236537D01*
X181730612Y-61218057D01*
X181725843Y-61199018D01*
X181722963Y-61179603D01*
X181722000Y-61160000D01*
X181722000Y-60760000D01*
X181722963Y-60740397D01*
X181725843Y-60720982D01*
X181730612Y-60701943D01*
X181737224Y-60683463D01*
X181745616Y-60665721D01*
X181755706Y-60648886D01*
X181767398Y-60633121D01*
X181780579Y-60618579D01*
X181795121Y-60605398D01*
X181810886Y-60593706D01*
X181827721Y-60583616D01*
X181845463Y-60575224D01*
X181863943Y-60568612D01*
X181882982Y-60563843D01*
X181902397Y-60560963D01*
X181922000Y-60560000D01*
X182822000Y-60560000D01*
X182841603Y-60560963D01*
X182841603Y-60560963D01*
G37*
D30*
X182372000Y-60960000D03*
D29*
G36*
X182841603Y-61810963D02*
X182861018Y-61813843D01*
X182880057Y-61818612D01*
X182898537Y-61825224D01*
X182916279Y-61833616D01*
X182933114Y-61843706D01*
X182948879Y-61855398D01*
X182963421Y-61868579D01*
X182976602Y-61883121D01*
X182988294Y-61898886D01*
X182998384Y-61915721D01*
X183006776Y-61933463D01*
X183013388Y-61951943D01*
X183018157Y-61970982D01*
X183021037Y-61990397D01*
X183022000Y-62010000D01*
X183022000Y-62410000D01*
X183021037Y-62429603D01*
X183018157Y-62449018D01*
X183013388Y-62468057D01*
X183006776Y-62486537D01*
X182998384Y-62504279D01*
X182988294Y-62521114D01*
X182976602Y-62536879D01*
X182963421Y-62551421D01*
X182948879Y-62564602D01*
X182933114Y-62576294D01*
X182916279Y-62586384D01*
X182898537Y-62594776D01*
X182880057Y-62601388D01*
X182861018Y-62606157D01*
X182841603Y-62609037D01*
X182822000Y-62610000D01*
X181922000Y-62610000D01*
X181902397Y-62609037D01*
X181882982Y-62606157D01*
X181863943Y-62601388D01*
X181845463Y-62594776D01*
X181827721Y-62586384D01*
X181810886Y-62576294D01*
X181795121Y-62564602D01*
X181780579Y-62551421D01*
X181767398Y-62536879D01*
X181755706Y-62521114D01*
X181745616Y-62504279D01*
X181737224Y-62486537D01*
X181730612Y-62468057D01*
X181725843Y-62449018D01*
X181722963Y-62429603D01*
X181722000Y-62410000D01*
X181722000Y-62010000D01*
X181722963Y-61990397D01*
X181725843Y-61970982D01*
X181730612Y-61951943D01*
X181737224Y-61933463D01*
X181745616Y-61915721D01*
X181755706Y-61898886D01*
X181767398Y-61883121D01*
X181780579Y-61868579D01*
X181795121Y-61855398D01*
X181810886Y-61843706D01*
X181827721Y-61833616D01*
X181845463Y-61825224D01*
X181863943Y-61818612D01*
X181882982Y-61813843D01*
X181902397Y-61810963D01*
X181922000Y-61810000D01*
X182822000Y-61810000D01*
X182841603Y-61810963D01*
X182841603Y-61810963D01*
G37*
D30*
X182372000Y-62210000D03*
D29*
G36*
X182841603Y-63060963D02*
X182861018Y-63063843D01*
X182880057Y-63068612D01*
X182898537Y-63075224D01*
X182916279Y-63083616D01*
X182933114Y-63093706D01*
X182948879Y-63105398D01*
X182963421Y-63118579D01*
X182976602Y-63133121D01*
X182988294Y-63148886D01*
X182998384Y-63165721D01*
X183006776Y-63183463D01*
X183013388Y-63201943D01*
X183018157Y-63220982D01*
X183021037Y-63240397D01*
X183022000Y-63260000D01*
X183022000Y-63660000D01*
X183021037Y-63679603D01*
X183018157Y-63699018D01*
X183013388Y-63718057D01*
X183006776Y-63736537D01*
X182998384Y-63754279D01*
X182988294Y-63771114D01*
X182976602Y-63786879D01*
X182963421Y-63801421D01*
X182948879Y-63814602D01*
X182933114Y-63826294D01*
X182916279Y-63836384D01*
X182898537Y-63844776D01*
X182880057Y-63851388D01*
X182861018Y-63856157D01*
X182841603Y-63859037D01*
X182822000Y-63860000D01*
X181922000Y-63860000D01*
X181902397Y-63859037D01*
X181882982Y-63856157D01*
X181863943Y-63851388D01*
X181845463Y-63844776D01*
X181827721Y-63836384D01*
X181810886Y-63826294D01*
X181795121Y-63814602D01*
X181780579Y-63801421D01*
X181767398Y-63786879D01*
X181755706Y-63771114D01*
X181745616Y-63754279D01*
X181737224Y-63736537D01*
X181730612Y-63718057D01*
X181725843Y-63699018D01*
X181722963Y-63679603D01*
X181722000Y-63660000D01*
X181722000Y-63260000D01*
X181722963Y-63240397D01*
X181725843Y-63220982D01*
X181730612Y-63201943D01*
X181737224Y-63183463D01*
X181745616Y-63165721D01*
X181755706Y-63148886D01*
X181767398Y-63133121D01*
X181780579Y-63118579D01*
X181795121Y-63105398D01*
X181810886Y-63093706D01*
X181827721Y-63083616D01*
X181845463Y-63075224D01*
X181863943Y-63068612D01*
X181882982Y-63063843D01*
X181902397Y-63060963D01*
X181922000Y-63060000D01*
X182822000Y-63060000D01*
X182841603Y-63060963D01*
X182841603Y-63060963D01*
G37*
D30*
X182372000Y-63460000D03*
D29*
G36*
X182841603Y-64310963D02*
X182861018Y-64313843D01*
X182880057Y-64318612D01*
X182898537Y-64325224D01*
X182916279Y-64333616D01*
X182933114Y-64343706D01*
X182948879Y-64355398D01*
X182963421Y-64368579D01*
X182976602Y-64383121D01*
X182988294Y-64398886D01*
X182998384Y-64415721D01*
X183006776Y-64433463D01*
X183013388Y-64451943D01*
X183018157Y-64470982D01*
X183021037Y-64490397D01*
X183022000Y-64510000D01*
X183022000Y-64910000D01*
X183021037Y-64929603D01*
X183018157Y-64949018D01*
X183013388Y-64968057D01*
X183006776Y-64986537D01*
X182998384Y-65004279D01*
X182988294Y-65021114D01*
X182976602Y-65036879D01*
X182963421Y-65051421D01*
X182948879Y-65064602D01*
X182933114Y-65076294D01*
X182916279Y-65086384D01*
X182898537Y-65094776D01*
X182880057Y-65101388D01*
X182861018Y-65106157D01*
X182841603Y-65109037D01*
X182822000Y-65110000D01*
X181922000Y-65110000D01*
X181902397Y-65109037D01*
X181882982Y-65106157D01*
X181863943Y-65101388D01*
X181845463Y-65094776D01*
X181827721Y-65086384D01*
X181810886Y-65076294D01*
X181795121Y-65064602D01*
X181780579Y-65051421D01*
X181767398Y-65036879D01*
X181755706Y-65021114D01*
X181745616Y-65004279D01*
X181737224Y-64986537D01*
X181730612Y-64968057D01*
X181725843Y-64949018D01*
X181722963Y-64929603D01*
X181722000Y-64910000D01*
X181722000Y-64510000D01*
X181722963Y-64490397D01*
X181725843Y-64470982D01*
X181730612Y-64451943D01*
X181737224Y-64433463D01*
X181745616Y-64415721D01*
X181755706Y-64398886D01*
X181767398Y-64383121D01*
X181780579Y-64368579D01*
X181795121Y-64355398D01*
X181810886Y-64343706D01*
X181827721Y-64333616D01*
X181845463Y-64325224D01*
X181863943Y-64318612D01*
X181882982Y-64313843D01*
X181902397Y-64310963D01*
X181922000Y-64310000D01*
X182822000Y-64310000D01*
X182841603Y-64310963D01*
X182841603Y-64310963D01*
G37*
D30*
X182372000Y-64710000D03*
D29*
G36*
X182841603Y-65560963D02*
X182861018Y-65563843D01*
X182880057Y-65568612D01*
X182898537Y-65575224D01*
X182916279Y-65583616D01*
X182933114Y-65593706D01*
X182948879Y-65605398D01*
X182963421Y-65618579D01*
X182976602Y-65633121D01*
X182988294Y-65648886D01*
X182998384Y-65665721D01*
X183006776Y-65683463D01*
X183013388Y-65701943D01*
X183018157Y-65720982D01*
X183021037Y-65740397D01*
X183022000Y-65760000D01*
X183022000Y-66160000D01*
X183021037Y-66179603D01*
X183018157Y-66199018D01*
X183013388Y-66218057D01*
X183006776Y-66236537D01*
X182998384Y-66254279D01*
X182988294Y-66271114D01*
X182976602Y-66286879D01*
X182963421Y-66301421D01*
X182948879Y-66314602D01*
X182933114Y-66326294D01*
X182916279Y-66336384D01*
X182898537Y-66344776D01*
X182880057Y-66351388D01*
X182861018Y-66356157D01*
X182841603Y-66359037D01*
X182822000Y-66360000D01*
X181922000Y-66360000D01*
X181902397Y-66359037D01*
X181882982Y-66356157D01*
X181863943Y-66351388D01*
X181845463Y-66344776D01*
X181827721Y-66336384D01*
X181810886Y-66326294D01*
X181795121Y-66314602D01*
X181780579Y-66301421D01*
X181767398Y-66286879D01*
X181755706Y-66271114D01*
X181745616Y-66254279D01*
X181737224Y-66236537D01*
X181730612Y-66218057D01*
X181725843Y-66199018D01*
X181722963Y-66179603D01*
X181722000Y-66160000D01*
X181722000Y-65760000D01*
X181722963Y-65740397D01*
X181725843Y-65720982D01*
X181730612Y-65701943D01*
X181737224Y-65683463D01*
X181745616Y-65665721D01*
X181755706Y-65648886D01*
X181767398Y-65633121D01*
X181780579Y-65618579D01*
X181795121Y-65605398D01*
X181810886Y-65593706D01*
X181827721Y-65583616D01*
X181845463Y-65575224D01*
X181863943Y-65568612D01*
X181882982Y-65563843D01*
X181902397Y-65560963D01*
X181922000Y-65560000D01*
X182822000Y-65560000D01*
X182841603Y-65560963D01*
X182841603Y-65560963D01*
G37*
D30*
X182372000Y-65960000D03*
D29*
G36*
X186396504Y-56111204D02*
X186420773Y-56114804D01*
X186444571Y-56120765D01*
X186467671Y-56129030D01*
X186489849Y-56139520D01*
X186510893Y-56152133D01*
X186530598Y-56166747D01*
X186548777Y-56183223D01*
X186565253Y-56201402D01*
X186579867Y-56221107D01*
X186592480Y-56242151D01*
X186602970Y-56264329D01*
X186611235Y-56287429D01*
X186617196Y-56311227D01*
X186620796Y-56335496D01*
X186622000Y-56360000D01*
X186622000Y-57960000D01*
X186620796Y-57984504D01*
X186617196Y-58008773D01*
X186611235Y-58032571D01*
X186602970Y-58055671D01*
X186592480Y-58077849D01*
X186579867Y-58098893D01*
X186565253Y-58118598D01*
X186548777Y-58136777D01*
X186530598Y-58153253D01*
X186510893Y-58167867D01*
X186489849Y-58180480D01*
X186467671Y-58190970D01*
X186444571Y-58199235D01*
X186420773Y-58205196D01*
X186396504Y-58208796D01*
X186372000Y-58210000D01*
X183872000Y-58210000D01*
X183847496Y-58208796D01*
X183823227Y-58205196D01*
X183799429Y-58199235D01*
X183776329Y-58190970D01*
X183754151Y-58180480D01*
X183733107Y-58167867D01*
X183713402Y-58153253D01*
X183695223Y-58136777D01*
X183678747Y-58118598D01*
X183664133Y-58098893D01*
X183651520Y-58077849D01*
X183641030Y-58055671D01*
X183632765Y-58032571D01*
X183626804Y-58008773D01*
X183623204Y-57984504D01*
X183622000Y-57960000D01*
X183622000Y-56360000D01*
X183623204Y-56335496D01*
X183626804Y-56311227D01*
X183632765Y-56287429D01*
X183641030Y-56264329D01*
X183651520Y-56242151D01*
X183664133Y-56221107D01*
X183678747Y-56201402D01*
X183695223Y-56183223D01*
X183713402Y-56166747D01*
X183733107Y-56152133D01*
X183754151Y-56139520D01*
X183776329Y-56129030D01*
X183799429Y-56120765D01*
X183823227Y-56114804D01*
X183847496Y-56111204D01*
X183872000Y-56110000D01*
X186372000Y-56110000D01*
X186396504Y-56111204D01*
X186396504Y-56111204D01*
G37*
D31*
X185122000Y-57160000D03*
D29*
G36*
X186396504Y-67461204D02*
X186420773Y-67464804D01*
X186444571Y-67470765D01*
X186467671Y-67479030D01*
X186489849Y-67489520D01*
X186510893Y-67502133D01*
X186530598Y-67516747D01*
X186548777Y-67533223D01*
X186565253Y-67551402D01*
X186579867Y-67571107D01*
X186592480Y-67592151D01*
X186602970Y-67614329D01*
X186611235Y-67637429D01*
X186617196Y-67661227D01*
X186620796Y-67685496D01*
X186622000Y-67710000D01*
X186622000Y-69310000D01*
X186620796Y-69334504D01*
X186617196Y-69358773D01*
X186611235Y-69382571D01*
X186602970Y-69405671D01*
X186592480Y-69427849D01*
X186579867Y-69448893D01*
X186565253Y-69468598D01*
X186548777Y-69486777D01*
X186530598Y-69503253D01*
X186510893Y-69517867D01*
X186489849Y-69530480D01*
X186467671Y-69540970D01*
X186444571Y-69549235D01*
X186420773Y-69555196D01*
X186396504Y-69558796D01*
X186372000Y-69560000D01*
X183872000Y-69560000D01*
X183847496Y-69558796D01*
X183823227Y-69555196D01*
X183799429Y-69549235D01*
X183776329Y-69540970D01*
X183754151Y-69530480D01*
X183733107Y-69517867D01*
X183713402Y-69503253D01*
X183695223Y-69486777D01*
X183678747Y-69468598D01*
X183664133Y-69448893D01*
X183651520Y-69427849D01*
X183641030Y-69405671D01*
X183632765Y-69382571D01*
X183626804Y-69358773D01*
X183623204Y-69334504D01*
X183622000Y-69310000D01*
X183622000Y-67710000D01*
X183623204Y-67685496D01*
X183626804Y-67661227D01*
X183632765Y-67637429D01*
X183641030Y-67614329D01*
X183651520Y-67592151D01*
X183664133Y-67571107D01*
X183678747Y-67551402D01*
X183695223Y-67533223D01*
X183713402Y-67516747D01*
X183733107Y-67502133D01*
X183754151Y-67489520D01*
X183776329Y-67479030D01*
X183799429Y-67470765D01*
X183823227Y-67464804D01*
X183847496Y-67461204D01*
X183872000Y-67460000D01*
X186372000Y-67460000D01*
X186396504Y-67461204D01*
X186396504Y-67461204D01*
G37*
D31*
X185122000Y-68510000D03*
D32*
X115062000Y-83820000D03*
X156591003Y-81025997D03*
X192659012Y-80010000D03*
X175006000Y-100203000D03*
X174117000Y-80010000D03*
X160020000Y-109220000D03*
X161290000Y-60325000D03*
X103504984Y-95250000D03*
X120015000Y-95885002D03*
X179895500Y-65976500D03*
X184912000Y-65976500D03*
X186055000Y-103505000D03*
X160575969Y-88104241D03*
X156083000Y-88025210D03*
X189230000Y-103505000D03*
X179895500Y-60960000D03*
X175006000Y-62865000D03*
X186944000Y-88900000D03*
X179895500Y-62230000D03*
X186817000Y-82550000D03*
X179895500Y-64706500D03*
X186817000Y-86360000D03*
X179895500Y-63436500D03*
X161820643Y-108054357D03*
X163195000Y-106680000D03*
X177165000Y-102235000D03*
X186055000Y-100965000D03*
X189230000Y-100965000D03*
X175006000Y-102235000D03*
X192277972Y-92710000D03*
X192278006Y-97917000D03*
X187325000Y-93980000D03*
X186055000Y-102235000D03*
X155003500Y-91186002D03*
X144970500Y-91186000D03*
X155003500Y-93090994D03*
X143700500Y-93091000D03*
X155003500Y-94995998D03*
X142748000Y-94932500D03*
X155003500Y-96901010D03*
X142748000Y-96901000D03*
X155003500Y-98806010D03*
X143700500Y-98806000D03*
X155003500Y-100711016D03*
X144970500Y-100711000D03*
X193294000Y-105410000D03*
X193294000Y-95250000D03*
D33*
X120650000Y-83820000D02*
X123825000Y-86995000D01*
X115062000Y-83820000D02*
X120650000Y-83820000D01*
X149860000Y-80264000D02*
X149860000Y-81788000D01*
X148209000Y-79629000D02*
X149225000Y-79629000D01*
X149225000Y-79629000D02*
X149860000Y-80264000D01*
X149860000Y-81788000D02*
X155829000Y-81788000D01*
X155829000Y-81788000D02*
X156591003Y-81025997D01*
X160020000Y-107315010D02*
X160020000Y-109220000D01*
X175006000Y-100203000D02*
X167132010Y-100203000D01*
X167132010Y-100203000D02*
X160020000Y-107315010D01*
X161290000Y-58801000D02*
X161290000Y-60325000D01*
X154450000Y-57720000D02*
X154450000Y-59055000D01*
X69450000Y-57170000D02*
X69450000Y-59590000D01*
X69370000Y-57090000D02*
X69450000Y-57170000D01*
X84450000Y-57170000D02*
X84450000Y-59590000D01*
X84430000Y-57150000D02*
X84450000Y-57170000D01*
X114450000Y-57170000D02*
X114450000Y-59590000D01*
X114430000Y-57150000D02*
X114450000Y-57170000D01*
X129450000Y-57210000D02*
X129450000Y-59590000D01*
X129430000Y-57190000D02*
X129450000Y-57210000D01*
X129430000Y-57190000D02*
X129430000Y-57090000D01*
X153980000Y-57090000D02*
X129430000Y-57090000D01*
X154450000Y-57720000D02*
X154450000Y-57560000D01*
X154450000Y-57560000D02*
X153980000Y-57090000D01*
X114430000Y-57090000D02*
X114430000Y-57150000D01*
X129430000Y-57090000D02*
X114430000Y-57090000D01*
X99430000Y-59590000D02*
X99450000Y-59590000D01*
X99430000Y-57150000D02*
X99430000Y-59590000D01*
X99430000Y-57090000D02*
X99430000Y-57150000D01*
X114430000Y-57090000D02*
X99430000Y-57090000D01*
X84430000Y-57150000D02*
X84430000Y-57090000D01*
X99370000Y-57090000D02*
X84430000Y-57090000D01*
X99430000Y-57150000D02*
X99370000Y-57090000D01*
X84430000Y-57090000D02*
X69370000Y-57090000D01*
X154450000Y-63367600D02*
X154450000Y-59590000D01*
X153180000Y-64637600D02*
X154450000Y-63367600D01*
X153180000Y-65590000D02*
X153180000Y-64637600D01*
X154450000Y-57620000D02*
X154450000Y-57720000D01*
X155047000Y-57023000D02*
X154450000Y-57620000D01*
X161290000Y-58801000D02*
X159512000Y-57023000D01*
X159512000Y-57023000D02*
X155047000Y-57023000D01*
X88900000Y-82931000D02*
X88773000Y-82804000D01*
X115062000Y-83820000D02*
X114173000Y-82931000D01*
X114173000Y-82931000D02*
X88900000Y-82931000D01*
X204597000Y-120523000D02*
X202819000Y-120523000D01*
X199644000Y-93599000D02*
X202819000Y-90424000D01*
X199644000Y-96901000D02*
X199644000Y-93599000D01*
X198882000Y-97663000D02*
X199644000Y-96901000D01*
X195580000Y-97790000D02*
X195707000Y-97663000D01*
X195707000Y-97663000D02*
X198882000Y-97663000D01*
X129540000Y-86995000D02*
X123825000Y-86995000D01*
X148209000Y-79629000D02*
X136906000Y-79629000D01*
X136906000Y-79629000D02*
X129540000Y-86995000D01*
X204978000Y-120142000D02*
X204597000Y-120523000D01*
X204978000Y-109728000D02*
X204978000Y-120142000D01*
X202819000Y-109347000D02*
X204597000Y-109347000D01*
X204597000Y-109347000D02*
X204978000Y-109728000D01*
X204978000Y-108966000D02*
X204597000Y-109347000D01*
X204978000Y-91186000D02*
X204978000Y-108966000D01*
X202819000Y-90424000D02*
X204216000Y-90424000D01*
X204216000Y-90424000D02*
X204978000Y-91186000D01*
X194564000Y-80010000D02*
X192659012Y-80010000D01*
X202819000Y-90424000D02*
X202819000Y-88265000D01*
X202819000Y-88265000D02*
X194564000Y-80010000D01*
X190754000Y-109347000D02*
X202819000Y-109347000D01*
X160020000Y-109220000D02*
X160147000Y-109347000D01*
X54680000Y-57090000D02*
X69370000Y-57090000D01*
X54430000Y-57340000D02*
X54680000Y-57090000D01*
X54430000Y-65370000D02*
X54430000Y-57340000D01*
X52700000Y-72100000D02*
X52700000Y-67100000D01*
X52700000Y-67100000D02*
X54430000Y-65370000D01*
X67700000Y-67100000D02*
X67700000Y-72100000D01*
X69450000Y-59590000D02*
X69450000Y-65350000D01*
X69450000Y-65350000D02*
X67700000Y-67100000D01*
X129450000Y-59590000D02*
X129450000Y-65350000D01*
X129450000Y-65350000D02*
X127700000Y-67100000D01*
X114450000Y-59590000D02*
X114450000Y-65350000D01*
X114450000Y-65350000D02*
X112700000Y-67100000D01*
X99450000Y-59590000D02*
X99450000Y-65350000D01*
X99450000Y-65350000D02*
X97700000Y-67100000D01*
X84450000Y-59590000D02*
X84450000Y-65350000D01*
X84450000Y-65350000D02*
X82700000Y-67100000D01*
X127700000Y-67100000D02*
X127700000Y-72100000D01*
X112700000Y-67100000D02*
X112700000Y-72100000D01*
X97700000Y-67100000D02*
X97700000Y-72100000D01*
X82700000Y-67100000D02*
X82700000Y-72100000D01*
X160147000Y-109347000D02*
X188404500Y-109347000D01*
X188404500Y-109347000D02*
X190754000Y-109347000D01*
X180677500Y-59710000D02*
X182372000Y-59710000D01*
X178371500Y-57404000D02*
X180677500Y-59710000D01*
X173101000Y-57404000D02*
X178371500Y-57404000D01*
X173092999Y-57412001D02*
X173101000Y-57404000D01*
X161290000Y-58801000D02*
X162678999Y-57412001D01*
X162678999Y-57412001D02*
X173092999Y-57412001D01*
X186202000Y-59710000D02*
X182372000Y-59710000D01*
X187134500Y-60642500D02*
X186202000Y-59710000D01*
X187134500Y-70040500D02*
X187134500Y-60642500D01*
X146939000Y-79629000D02*
X146304000Y-78994000D01*
X148209000Y-79629000D02*
X146939000Y-79629000D01*
X146304000Y-78994000D02*
X146304000Y-71247000D01*
X146304000Y-71247000D02*
X147066000Y-70485000D01*
X186690000Y-70485000D02*
X187134500Y-70040500D01*
X152336500Y-66998900D02*
X152336500Y-70485000D01*
X152330000Y-66992400D02*
X152336500Y-66998900D01*
X152330000Y-65590000D02*
X152330000Y-66992400D01*
X147066000Y-70485000D02*
X152336500Y-70485000D01*
X152336500Y-70485000D02*
X186690000Y-70485000D01*
X155720000Y-62777600D02*
X155720000Y-59590000D01*
X157580000Y-64637600D02*
X155720000Y-62777600D01*
X157580000Y-65590000D02*
X157580000Y-64637600D01*
X182372000Y-65960000D02*
X179912000Y-65960000D01*
X179912000Y-65960000D02*
X179895500Y-65976500D01*
X182388500Y-65976500D02*
X182372000Y-65960000D01*
X184912000Y-65976500D02*
X182388500Y-65976500D01*
X160575969Y-88104241D02*
X156162031Y-88104241D01*
X156162031Y-88104241D02*
X156083000Y-88025210D01*
X186055000Y-103505000D02*
X189230000Y-103505000D01*
X182372000Y-60960000D02*
X179895500Y-60960000D01*
X175641000Y-62230000D02*
X175006000Y-62865000D01*
X146456401Y-82651599D02*
X147320000Y-81788000D01*
X146050000Y-83058000D02*
X146456401Y-82651599D01*
X146050000Y-85217000D02*
X146050000Y-83058000D01*
X147574000Y-86741000D02*
X146050000Y-85217000D01*
X186944000Y-88900000D02*
X184785000Y-86741000D01*
X184785000Y-86741000D02*
X147574000Y-86741000D01*
X179895500Y-62230000D02*
X175641000Y-62230000D01*
X182245000Y-62230000D02*
X179895500Y-62230000D01*
X132700000Y-67100000D02*
X132700000Y-72100000D01*
X117700000Y-67100000D02*
X117700000Y-72100000D01*
X102700000Y-67100000D02*
X102700000Y-72100000D01*
X87700000Y-67100000D02*
X87700000Y-72100000D01*
X72700000Y-67100000D02*
X72700000Y-72100000D01*
X57700000Y-72100000D02*
X57700000Y-67100000D01*
X186817000Y-83947000D02*
X186817000Y-82550000D01*
X146177000Y-80391000D02*
X147701000Y-80391000D01*
X144780000Y-81788000D02*
X146177000Y-80391000D01*
X147701000Y-80391000D02*
X148590000Y-81280000D01*
X148590000Y-81280000D02*
X148590000Y-85598000D01*
X184756411Y-86007589D02*
X186817000Y-83947000D01*
X148590000Y-85598000D02*
X148999589Y-86007589D01*
X148999589Y-86007589D02*
X184756411Y-86007589D01*
X182372000Y-64710000D02*
X179899000Y-64710000D01*
X179899000Y-64710000D02*
X179895500Y-64706500D01*
X148130686Y-86360000D02*
X186817000Y-86360000D01*
X147320000Y-84328000D02*
X147320000Y-85549314D01*
X147320000Y-85549314D02*
X148130686Y-86360000D01*
X182372000Y-63460000D02*
X179919000Y-63460000D01*
X179919000Y-63460000D02*
X179895500Y-63436500D01*
X161820643Y-108054357D02*
X163195000Y-106680000D01*
X186055000Y-100965000D02*
X189230000Y-100965000D01*
X177165000Y-102235000D02*
X175006000Y-102235000D01*
X192277972Y-92710000D02*
X192277972Y-97916966D01*
X192277972Y-97916966D02*
X192278006Y-97917000D01*
X184531000Y-100711000D02*
X186055000Y-102235000D01*
X187325000Y-93980000D02*
X184531000Y-96774000D01*
X184531000Y-96774000D02*
X184531000Y-100711000D01*
D34*
X136525000Y-123190000D02*
X119754000Y-123190000D01*
X166116000Y-140462000D02*
X166243000Y-140335000D01*
X157480000Y-140335000D02*
X166243000Y-140335000D01*
X151257000Y-134112000D02*
X157480000Y-140335000D01*
X151257000Y-127000000D02*
X151257000Y-134112000D01*
X147447000Y-123190000D02*
X151257000Y-127000000D01*
X53460000Y-128350000D02*
X53460000Y-123190000D01*
X53460000Y-123190000D02*
X69970000Y-123190000D01*
X69970000Y-128350000D02*
X69970000Y-123190000D01*
X86480000Y-123190000D02*
X69970000Y-123190000D01*
X86480000Y-128350000D02*
X86480000Y-123190000D01*
X102990000Y-123190000D02*
X86480000Y-123190000D01*
X102990000Y-128350000D02*
X102990000Y-123190000D01*
X102990000Y-123190000D02*
X119754000Y-123190000D01*
X119754000Y-128350000D02*
X119754000Y-123190000D01*
X136525000Y-128350000D02*
X136525000Y-123190000D01*
X136525000Y-123190000D02*
X147447000Y-123190000D01*
X63373000Y-98806000D02*
X63373000Y-100584000D01*
X61214000Y-96647000D02*
X63373000Y-98806000D01*
X49805000Y-99575000D02*
X52733000Y-96647000D01*
X52733000Y-96647000D02*
X61214000Y-96647000D01*
X47625000Y-99568000D02*
X49784000Y-99568000D01*
X46355000Y-100838000D02*
X47625000Y-99568000D01*
X46355000Y-122301000D02*
X46355000Y-100838000D01*
X53460000Y-123190000D02*
X47244000Y-123190000D01*
X47244000Y-123190000D02*
X46355000Y-122301000D01*
X54610000Y-140335000D02*
X53467000Y-133350000D01*
X71247000Y-140335000D02*
X69977000Y-133350000D01*
X87884000Y-140335000D02*
X86360000Y-133350000D01*
X104521000Y-140335000D02*
X102997000Y-133350000D01*
X121158000Y-140335000D02*
X119888000Y-133477000D01*
X137795000Y-140335000D02*
X136525000Y-133350000D01*
D33*
X155003500Y-91186000D02*
X144970500Y-91186000D01*
X155003500Y-93091000D02*
X143700500Y-93091000D01*
X142748000Y-94932500D02*
X155003500Y-94996000D01*
X155003500Y-96901000D02*
X142748000Y-96901000D01*
X155003500Y-98806000D02*
X143700500Y-98806000D01*
X155003500Y-100711000D02*
X144970500Y-100711000D01*
X193294000Y-105410000D02*
X193294000Y-95250000D01*
D35*
G36*
X207445000Y-79989606D02*
X207445001Y-142895393D01*
X206322394Y-144018000D01*
X188012606Y-144018000D01*
X186817000Y-142822394D01*
X186817000Y-134001000D01*
X191392560Y-134001000D01*
X191392560Y-136001000D01*
X191441843Y-136248765D01*
X191582191Y-136458809D01*
X191792235Y-136599157D01*
X192040000Y-136648440D01*
X194040000Y-136648440D01*
X194287765Y-136599157D01*
X194497809Y-136458809D01*
X194638157Y-136248765D01*
X194687440Y-136001000D01*
X194687440Y-134675778D01*
X196405000Y-134675778D01*
X196405000Y-135326222D01*
X196653914Y-135927153D01*
X197113847Y-136387086D01*
X197714778Y-136636000D01*
X198365222Y-136636000D01*
X198966153Y-136387086D01*
X199426086Y-135927153D01*
X199675000Y-135326222D01*
X199675000Y-134675778D01*
X199426086Y-134074847D01*
X198966153Y-133614914D01*
X198365222Y-133366000D01*
X197714778Y-133366000D01*
X197113847Y-133614914D01*
X196653914Y-134074847D01*
X196405000Y-134675778D01*
X194687440Y-134675778D01*
X194687440Y-134001000D01*
X194638157Y-133753235D01*
X194497809Y-133543191D01*
X194287765Y-133402843D01*
X194040000Y-133353560D01*
X192040000Y-133353560D01*
X191792235Y-133402843D01*
X191582191Y-133543191D01*
X191441843Y-133753235D01*
X191392560Y-134001000D01*
X186817000Y-134001000D01*
X186817000Y-123063000D01*
X201304908Y-123063000D01*
X201420161Y-123642418D01*
X201748375Y-124133625D01*
X202046761Y-124333000D01*
X201748375Y-124532375D01*
X201420161Y-125023582D01*
X201304908Y-125603000D01*
X201420161Y-126182418D01*
X201748375Y-126673625D01*
X202239582Y-127001839D01*
X202672744Y-127088000D01*
X202965256Y-127088000D01*
X203398418Y-127001839D01*
X203889625Y-126673625D01*
X204217839Y-126182418D01*
X204333092Y-125603000D01*
X204217839Y-125023582D01*
X203889625Y-124532375D01*
X203591239Y-124333000D01*
X203889625Y-124133625D01*
X204217839Y-123642418D01*
X204333092Y-123063000D01*
X204217839Y-122483582D01*
X203889625Y-121992375D01*
X203867967Y-121977904D01*
X204028698Y-121911327D01*
X204207327Y-121732699D01*
X204304000Y-121499310D01*
X204304000Y-120808750D01*
X204145250Y-120650000D01*
X202946000Y-120650000D01*
X202946000Y-120670000D01*
X202692000Y-120670000D01*
X202692000Y-120650000D01*
X201492750Y-120650000D01*
X201334000Y-120808750D01*
X201334000Y-121499310D01*
X201430673Y-121732699D01*
X201609302Y-121911327D01*
X201770033Y-121977904D01*
X201748375Y-121992375D01*
X201420161Y-122483582D01*
X201304908Y-123063000D01*
X186817000Y-123063000D01*
X186817000Y-119546690D01*
X201334000Y-119546690D01*
X201334000Y-120237250D01*
X201492750Y-120396000D01*
X202692000Y-120396000D01*
X202692000Y-119196750D01*
X202946000Y-119196750D01*
X202946000Y-120396000D01*
X204145250Y-120396000D01*
X204304000Y-120237250D01*
X204304000Y-119546690D01*
X204207327Y-119313301D01*
X204028698Y-119134673D01*
X203795309Y-119038000D01*
X203104750Y-119038000D01*
X202946000Y-119196750D01*
X202692000Y-119196750D01*
X202533250Y-119038000D01*
X201842691Y-119038000D01*
X201609302Y-119134673D01*
X201430673Y-119313301D01*
X201334000Y-119546690D01*
X186817000Y-119546690D01*
X186817000Y-116840000D01*
X186807333Y-116791399D01*
X186779803Y-116750197D01*
X185509803Y-115480197D01*
X185468601Y-115452667D01*
X185420000Y-115443000D01*
X146774137Y-115443000D01*
X146742354Y-115283217D01*
X146579905Y-115040095D01*
X146336783Y-114877646D01*
X146122388Y-114835000D01*
X146050000Y-114820601D01*
X145977612Y-114835000D01*
X94694606Y-114835000D01*
X94107000Y-114247394D01*
X94107000Y-111887000D01*
X201304908Y-111887000D01*
X201420161Y-112466418D01*
X201748375Y-112957625D01*
X202046761Y-113157000D01*
X201748375Y-113356375D01*
X201420161Y-113847582D01*
X201304908Y-114427000D01*
X201420161Y-115006418D01*
X201748375Y-115497625D01*
X202239582Y-115825839D01*
X202672744Y-115912000D01*
X202965256Y-115912000D01*
X203398418Y-115825839D01*
X203889625Y-115497625D01*
X204217839Y-115006418D01*
X204333092Y-114427000D01*
X204217839Y-113847582D01*
X203889625Y-113356375D01*
X203591239Y-113157000D01*
X203889625Y-112957625D01*
X204217839Y-112466418D01*
X204333092Y-111887000D01*
X204217839Y-111307582D01*
X203889625Y-110816375D01*
X203867967Y-110801904D01*
X204028698Y-110735327D01*
X204207327Y-110556699D01*
X204304000Y-110323310D01*
X204304000Y-109632750D01*
X204145250Y-109474000D01*
X202946000Y-109474000D01*
X202946000Y-109494000D01*
X202692000Y-109494000D01*
X202692000Y-109474000D01*
X201492750Y-109474000D01*
X201334000Y-109632750D01*
X201334000Y-110323310D01*
X201430673Y-110556699D01*
X201609302Y-110735327D01*
X201770033Y-110801904D01*
X201748375Y-110816375D01*
X201420161Y-111307582D01*
X201304908Y-111887000D01*
X94107000Y-111887000D01*
X94107000Y-110235000D01*
X94354950Y-110235000D01*
X95047767Y-109948026D01*
X95578026Y-109417767D01*
X95865000Y-108724950D01*
X95865000Y-107975050D01*
X101105000Y-107975050D01*
X101105000Y-108724950D01*
X101391974Y-109417767D01*
X101922233Y-109948026D01*
X102615050Y-110235000D01*
X103364950Y-110235000D01*
X104057767Y-109948026D01*
X104588026Y-109417767D01*
X104875000Y-108724950D01*
X104875000Y-107975050D01*
X108605000Y-107975050D01*
X108605000Y-108724950D01*
X108891974Y-109417767D01*
X109422233Y-109948026D01*
X110115050Y-110235000D01*
X110864950Y-110235000D01*
X111557767Y-109948026D01*
X112088026Y-109417767D01*
X112375000Y-108724950D01*
X112375000Y-107975050D01*
X117869000Y-107975050D01*
X117869000Y-108724950D01*
X118155974Y-109417767D01*
X118686233Y-109948026D01*
X119379050Y-110235000D01*
X120128950Y-110235000D01*
X120821767Y-109948026D01*
X121352026Y-109417767D01*
X121639000Y-108724950D01*
X121639000Y-107975050D01*
X125369000Y-107975050D01*
X125369000Y-108724950D01*
X125655974Y-109417767D01*
X126186233Y-109948026D01*
X126879050Y-110235000D01*
X127628950Y-110235000D01*
X128321767Y-109948026D01*
X128852026Y-109417767D01*
X129139000Y-108724950D01*
X129139000Y-107975050D01*
X134640000Y-107975050D01*
X134640000Y-108724950D01*
X134926974Y-109417767D01*
X135457233Y-109948026D01*
X136150050Y-110235000D01*
X136899950Y-110235000D01*
X137592767Y-109948026D01*
X138123026Y-109417767D01*
X138410000Y-108724950D01*
X138410000Y-107975050D01*
X142140000Y-107975050D01*
X142140000Y-108724950D01*
X142426974Y-109417767D01*
X142957233Y-109948026D01*
X143650050Y-110235000D01*
X144399950Y-110235000D01*
X145092767Y-109948026D01*
X145623026Y-109417767D01*
X145910000Y-108724950D01*
X145910000Y-107975050D01*
X145849335Y-107828591D01*
X160685643Y-107828591D01*
X160685643Y-108280123D01*
X160858436Y-108697283D01*
X161177717Y-109016564D01*
X161594877Y-109189357D01*
X162046409Y-109189357D01*
X162463569Y-109016564D01*
X162782850Y-108697283D01*
X162918128Y-108370690D01*
X201334000Y-108370690D01*
X201334000Y-109061250D01*
X201492750Y-109220000D01*
X202692000Y-109220000D01*
X202692000Y-108020750D01*
X202946000Y-108020750D01*
X202946000Y-109220000D01*
X204145250Y-109220000D01*
X204304000Y-109061250D01*
X204304000Y-108370690D01*
X204207327Y-108137301D01*
X204028698Y-107958673D01*
X203795309Y-107862000D01*
X203104750Y-107862000D01*
X202946000Y-108020750D01*
X202692000Y-108020750D01*
X202533250Y-107862000D01*
X201842691Y-107862000D01*
X201609302Y-107958673D01*
X201430673Y-108137301D01*
X201334000Y-108370690D01*
X162918128Y-108370690D01*
X162955643Y-108280123D01*
X162955643Y-107925145D01*
X163065789Y-107815000D01*
X163420766Y-107815000D01*
X163837926Y-107642207D01*
X164157207Y-107322926D01*
X164330000Y-106905766D01*
X164330000Y-106454234D01*
X164157207Y-106037074D01*
X163837926Y-105717793D01*
X163420766Y-105545000D01*
X162969234Y-105545000D01*
X162552074Y-105717793D01*
X162232793Y-106037074D01*
X162060000Y-106454234D01*
X162060000Y-106809211D01*
X161949855Y-106919357D01*
X161594877Y-106919357D01*
X161177717Y-107092150D01*
X160858436Y-107411431D01*
X160685643Y-107828591D01*
X145849335Y-107828591D01*
X145623026Y-107282233D01*
X145092767Y-106751974D01*
X144399950Y-106465000D01*
X143650050Y-106465000D01*
X142957233Y-106751974D01*
X142426974Y-107282233D01*
X142140000Y-107975050D01*
X138410000Y-107975050D01*
X138123026Y-107282233D01*
X137592767Y-106751974D01*
X136899950Y-106465000D01*
X136150050Y-106465000D01*
X135457233Y-106751974D01*
X134926974Y-107282233D01*
X134640000Y-107975050D01*
X129139000Y-107975050D01*
X128852026Y-107282233D01*
X128321767Y-106751974D01*
X127628950Y-106465000D01*
X126879050Y-106465000D01*
X126186233Y-106751974D01*
X125655974Y-107282233D01*
X125369000Y-107975050D01*
X121639000Y-107975050D01*
X121352026Y-107282233D01*
X120821767Y-106751974D01*
X120128950Y-106465000D01*
X119379050Y-106465000D01*
X118686233Y-106751974D01*
X118155974Y-107282233D01*
X117869000Y-107975050D01*
X112375000Y-107975050D01*
X112088026Y-107282233D01*
X111557767Y-106751974D01*
X110864950Y-106465000D01*
X110115050Y-106465000D01*
X109422233Y-106751974D01*
X108891974Y-107282233D01*
X108605000Y-107975050D01*
X104875000Y-107975050D01*
X104588026Y-107282233D01*
X104057767Y-106751974D01*
X103364950Y-106465000D01*
X102615050Y-106465000D01*
X101922233Y-106751974D01*
X101391974Y-107282233D01*
X101105000Y-107975050D01*
X95865000Y-107975050D01*
X95578026Y-107282233D01*
X95047767Y-106751974D01*
X94354950Y-106465000D01*
X94107000Y-106465000D01*
X94107000Y-99925213D01*
X121790000Y-99925213D01*
X121790000Y-100734787D01*
X122099810Y-101482735D01*
X122672265Y-102055190D01*
X123420213Y-102365000D01*
X124229787Y-102365000D01*
X124977735Y-102055190D01*
X125023691Y-102009234D01*
X173871000Y-102009234D01*
X173871000Y-102460766D01*
X174043793Y-102877926D01*
X174363074Y-103197207D01*
X174780234Y-103370000D01*
X175231766Y-103370000D01*
X175648926Y-103197207D01*
X175899933Y-102946200D01*
X176271067Y-102946200D01*
X176522074Y-103197207D01*
X176939234Y-103370000D01*
X177390766Y-103370000D01*
X177807926Y-103197207D01*
X178127207Y-102877926D01*
X178300000Y-102460766D01*
X178300000Y-102009234D01*
X178127207Y-101592074D01*
X177807926Y-101272793D01*
X177390766Y-101100000D01*
X176939234Y-101100000D01*
X176522074Y-101272793D01*
X176271067Y-101523800D01*
X175899933Y-101523800D01*
X175648926Y-101272793D01*
X175231766Y-101100000D01*
X174780234Y-101100000D01*
X174363074Y-101272793D01*
X174043793Y-101592074D01*
X173871000Y-102009234D01*
X125023691Y-102009234D01*
X125550190Y-101482735D01*
X125860000Y-100734787D01*
X125860000Y-99925213D01*
X125550190Y-99177265D01*
X124977735Y-98604810D01*
X124229787Y-98295000D01*
X123420213Y-98295000D01*
X122672265Y-98604810D01*
X122099810Y-99177265D01*
X121790000Y-99925213D01*
X94107000Y-99925213D01*
X94107000Y-96520000D01*
X94097333Y-96471399D01*
X94069803Y-96430197D01*
X93119819Y-95480213D01*
X121790000Y-95480213D01*
X121790000Y-96289787D01*
X122099810Y-97037735D01*
X122672265Y-97610190D01*
X123420213Y-97920000D01*
X124229787Y-97920000D01*
X124977735Y-97610190D01*
X125550190Y-97037735D01*
X125860000Y-96289787D01*
X125860000Y-95480213D01*
X125550190Y-94732265D01*
X125524659Y-94706734D01*
X141613000Y-94706734D01*
X141613000Y-95158266D01*
X141785793Y-95575426D01*
X142105074Y-95894707D01*
X142158291Y-95916750D01*
X142105074Y-95938793D01*
X141785793Y-96258074D01*
X141613000Y-96675234D01*
X141613000Y-97126766D01*
X141785793Y-97543926D01*
X142105074Y-97863207D01*
X142522234Y-98036000D01*
X142865367Y-98036000D01*
X142738293Y-98163074D01*
X142565500Y-98580234D01*
X142565500Y-99031766D01*
X142738293Y-99448926D01*
X143057574Y-99768207D01*
X143474734Y-99941000D01*
X143926266Y-99941000D01*
X144283223Y-99793144D01*
X144008293Y-100068074D01*
X143835500Y-100485234D01*
X143835500Y-100936766D01*
X144008293Y-101353926D01*
X144327574Y-101673207D01*
X144744734Y-101846000D01*
X145196266Y-101846000D01*
X145613426Y-101673207D01*
X145864433Y-101422200D01*
X154109551Y-101422200D01*
X154360574Y-101673223D01*
X154777734Y-101846016D01*
X155229266Y-101846016D01*
X155646426Y-101673223D01*
X155965707Y-101353942D01*
X156138500Y-100936782D01*
X156138500Y-100485250D01*
X155965707Y-100068090D01*
X155656130Y-99758513D01*
X155965707Y-99448936D01*
X156138500Y-99031776D01*
X156138500Y-98580244D01*
X155965707Y-98163084D01*
X155656133Y-97853510D01*
X155965707Y-97543936D01*
X156138500Y-97126776D01*
X156138500Y-96774000D01*
X183805868Y-96774000D01*
X183819800Y-96844042D01*
X183819801Y-100640954D01*
X183805868Y-100711000D01*
X183861065Y-100988496D01*
X183978576Y-101164364D01*
X183978579Y-101164367D01*
X184018255Y-101223746D01*
X184077634Y-101263422D01*
X184920000Y-102105789D01*
X184920000Y-102460766D01*
X185089510Y-102870000D01*
X184920000Y-103279234D01*
X184920000Y-103730766D01*
X185092793Y-104147926D01*
X185412074Y-104467207D01*
X185829234Y-104640000D01*
X186280766Y-104640000D01*
X186697926Y-104467207D01*
X186948933Y-104216200D01*
X188336067Y-104216200D01*
X188587074Y-104467207D01*
X189004234Y-104640000D01*
X189455766Y-104640000D01*
X189872926Y-104467207D01*
X190192207Y-104147926D01*
X190365000Y-103730766D01*
X190365000Y-103279234D01*
X190192207Y-102862074D01*
X189872926Y-102542793D01*
X189455766Y-102370000D01*
X189004234Y-102370000D01*
X188587074Y-102542793D01*
X188336067Y-102793800D01*
X187052053Y-102793800D01*
X187190000Y-102460766D01*
X187190000Y-102009234D01*
X187052053Y-101676200D01*
X188336067Y-101676200D01*
X188587074Y-101927207D01*
X189004234Y-102100000D01*
X189455766Y-102100000D01*
X189872926Y-101927207D01*
X190192207Y-101607926D01*
X190365000Y-101190766D01*
X190365000Y-100739234D01*
X190192207Y-100322074D01*
X189872926Y-100002793D01*
X189455766Y-99830000D01*
X189004234Y-99830000D01*
X188587074Y-100002793D01*
X188336067Y-100253800D01*
X186948933Y-100253800D01*
X186697926Y-100002793D01*
X186280766Y-99830000D01*
X185829234Y-99830000D01*
X185412074Y-100002793D01*
X185242200Y-100172667D01*
X185242200Y-97068588D01*
X187195789Y-95115000D01*
X187550766Y-95115000D01*
X187967926Y-94942207D01*
X188287207Y-94622926D01*
X188460000Y-94205766D01*
X188460000Y-93754234D01*
X188287207Y-93337074D01*
X187967926Y-93017793D01*
X187550766Y-92845000D01*
X187099234Y-92845000D01*
X186682074Y-93017793D01*
X186362793Y-93337074D01*
X186190000Y-93754234D01*
X186190000Y-94109211D01*
X184077634Y-96221578D01*
X184018254Y-96261255D01*
X183978578Y-96320634D01*
X183978576Y-96320636D01*
X183933395Y-96388254D01*
X183861064Y-96496505D01*
X183819800Y-96703955D01*
X183819800Y-96703959D01*
X183805868Y-96774000D01*
X156138500Y-96774000D01*
X156138500Y-96675244D01*
X155965707Y-96258084D01*
X155656127Y-95948504D01*
X155965707Y-95638924D01*
X156138500Y-95221764D01*
X156138500Y-94770232D01*
X155965707Y-94353072D01*
X155656131Y-94043496D01*
X155965707Y-93733920D01*
X156138500Y-93316760D01*
X156138500Y-92865228D01*
X155980688Y-92484234D01*
X191142972Y-92484234D01*
X191142972Y-92935766D01*
X191315765Y-93352926D01*
X191566772Y-93603933D01*
X191566773Y-97023100D01*
X191315799Y-97274074D01*
X191143006Y-97691234D01*
X191143006Y-98142766D01*
X191315799Y-98559926D01*
X191635080Y-98879207D01*
X192052240Y-99052000D01*
X192503772Y-99052000D01*
X192582801Y-99019265D01*
X192582800Y-104516067D01*
X192331793Y-104767074D01*
X192159000Y-105184234D01*
X192159000Y-105635766D01*
X192331793Y-106052926D01*
X192651074Y-106372207D01*
X193068234Y-106545000D01*
X193519766Y-106545000D01*
X193936926Y-106372207D01*
X194256207Y-106052926D01*
X194429000Y-105635766D01*
X194429000Y-105184234D01*
X194256207Y-104767074D01*
X194005200Y-104516067D01*
X194005200Y-98019890D01*
X194138524Y-98019890D01*
X194308355Y-98429924D01*
X194698642Y-98858183D01*
X195223108Y-99104486D01*
X195453000Y-98983819D01*
X195453000Y-97790000D01*
X195707000Y-97790000D01*
X195707000Y-98983819D01*
X195936892Y-99104486D01*
X196461358Y-98858183D01*
X196851645Y-98429924D01*
X197021476Y-98019890D01*
X196900155Y-97790000D01*
X195707000Y-97790000D01*
X195453000Y-97790000D01*
X194259845Y-97790000D01*
X194138524Y-98019890D01*
X194005200Y-98019890D01*
X194005200Y-96143933D01*
X194098085Y-96051048D01*
X194131843Y-96220765D01*
X194272191Y-96430809D01*
X194482235Y-96571157D01*
X194585708Y-96591739D01*
X194308355Y-96896076D01*
X194138524Y-97306110D01*
X194259845Y-97536000D01*
X195453000Y-97536000D01*
X195453000Y-97516000D01*
X195707000Y-97516000D01*
X195707000Y-97536000D01*
X196900155Y-97536000D01*
X197021476Y-97306110D01*
X196851645Y-96896076D01*
X196574292Y-96591739D01*
X196677765Y-96571157D01*
X196887809Y-96430809D01*
X197028157Y-96220765D01*
X197077440Y-95973000D01*
X197077440Y-94273000D01*
X197028157Y-94025235D01*
X196887809Y-93815191D01*
X196677765Y-93674843D01*
X196430000Y-93625560D01*
X194730000Y-93625560D01*
X194482235Y-93674843D01*
X194272191Y-93815191D01*
X194131843Y-94025235D01*
X194082560Y-94273000D01*
X194082560Y-94433427D01*
X193936926Y-94287793D01*
X193519766Y-94115000D01*
X193068234Y-94115000D01*
X192989172Y-94147748D01*
X192989172Y-93603933D01*
X193240179Y-93352926D01*
X193401277Y-92964000D01*
X201304908Y-92964000D01*
X201420161Y-93543418D01*
X201748375Y-94034625D01*
X202046761Y-94234000D01*
X201748375Y-94433375D01*
X201420161Y-94924582D01*
X201304908Y-95504000D01*
X201420161Y-96083418D01*
X201748375Y-96574625D01*
X202046761Y-96774000D01*
X201748375Y-96973375D01*
X201420161Y-97464582D01*
X201304908Y-98044000D01*
X201420161Y-98623418D01*
X201748375Y-99114625D01*
X202046761Y-99314000D01*
X201748375Y-99513375D01*
X201420161Y-100004582D01*
X201304908Y-100584000D01*
X201420161Y-101163418D01*
X201748375Y-101654625D01*
X202046761Y-101854000D01*
X201748375Y-102053375D01*
X201420161Y-102544582D01*
X201304908Y-103124000D01*
X201420161Y-103703418D01*
X201748375Y-104194625D01*
X202239582Y-104522839D01*
X202672744Y-104609000D01*
X202965256Y-104609000D01*
X203398418Y-104522839D01*
X203889625Y-104194625D01*
X204217839Y-103703418D01*
X204333092Y-103124000D01*
X204217839Y-102544582D01*
X203889625Y-102053375D01*
X203591239Y-101854000D01*
X203889625Y-101654625D01*
X204217839Y-101163418D01*
X204333092Y-100584000D01*
X204217839Y-100004582D01*
X203889625Y-99513375D01*
X203591239Y-99314000D01*
X203889625Y-99114625D01*
X204217839Y-98623418D01*
X204333092Y-98044000D01*
X204217839Y-97464582D01*
X203889625Y-96973375D01*
X203591239Y-96774000D01*
X203889625Y-96574625D01*
X204217839Y-96083418D01*
X204333092Y-95504000D01*
X204217839Y-94924582D01*
X203889625Y-94433375D01*
X203591239Y-94234000D01*
X203889625Y-94034625D01*
X204217839Y-93543418D01*
X204333092Y-92964000D01*
X204217839Y-92384582D01*
X203889625Y-91893375D01*
X203867967Y-91878904D01*
X204028698Y-91812327D01*
X204207327Y-91633699D01*
X204304000Y-91400310D01*
X204304000Y-90709750D01*
X204145250Y-90551000D01*
X202946000Y-90551000D01*
X202946000Y-90571000D01*
X202692000Y-90571000D01*
X202692000Y-90551000D01*
X201492750Y-90551000D01*
X201334000Y-90709750D01*
X201334000Y-91400310D01*
X201430673Y-91633699D01*
X201609302Y-91812327D01*
X201770033Y-91878904D01*
X201748375Y-91893375D01*
X201420161Y-92384582D01*
X201304908Y-92964000D01*
X193401277Y-92964000D01*
X193412972Y-92935766D01*
X193412972Y-92484234D01*
X193240179Y-92067074D01*
X192920898Y-91747793D01*
X192503738Y-91575000D01*
X192052206Y-91575000D01*
X191635046Y-91747793D01*
X191315765Y-92067074D01*
X191142972Y-92484234D01*
X155980688Y-92484234D01*
X155965707Y-92448068D01*
X155656137Y-92138498D01*
X155965707Y-91828928D01*
X156138500Y-91411768D01*
X156138500Y-90960236D01*
X155965707Y-90543076D01*
X155646426Y-90223795D01*
X155229266Y-90051002D01*
X154777734Y-90051002D01*
X154360574Y-90223795D01*
X154109569Y-90474800D01*
X145864433Y-90474800D01*
X145613426Y-90223793D01*
X145196266Y-90051000D01*
X144744734Y-90051000D01*
X144327574Y-90223793D01*
X144008293Y-90543074D01*
X143835500Y-90960234D01*
X143835500Y-91411766D01*
X144008293Y-91828926D01*
X144283223Y-92103856D01*
X143926266Y-91956000D01*
X143474734Y-91956000D01*
X143057574Y-92128793D01*
X142738293Y-92448074D01*
X142565500Y-92865234D01*
X142565500Y-93316766D01*
X142738293Y-93733926D01*
X142801867Y-93797500D01*
X142522234Y-93797500D01*
X142105074Y-93970293D01*
X141785793Y-94289574D01*
X141613000Y-94706734D01*
X125524659Y-94706734D01*
X124977735Y-94159810D01*
X124229787Y-93850000D01*
X123420213Y-93850000D01*
X122672265Y-94159810D01*
X122099810Y-94732265D01*
X121790000Y-95480213D01*
X93119819Y-95480213D01*
X92799803Y-95160197D01*
X92758601Y-95132667D01*
X92710000Y-95123000D01*
X82602606Y-95123000D01*
X81407000Y-93927394D01*
X81407000Y-91035213D01*
X121790000Y-91035213D01*
X121790000Y-91844787D01*
X122099810Y-92592735D01*
X122672265Y-93165190D01*
X123420213Y-93475000D01*
X124229787Y-93475000D01*
X124977735Y-93165190D01*
X125550190Y-92592735D01*
X125860000Y-91844787D01*
X125860000Y-91035213D01*
X125550190Y-90287265D01*
X124977735Y-89714810D01*
X124229787Y-89405000D01*
X123420213Y-89405000D01*
X122672265Y-89714810D01*
X122099810Y-90287265D01*
X121790000Y-91035213D01*
X81407000Y-91035213D01*
X81407000Y-88436724D01*
X122562882Y-88436724D01*
X122710455Y-88745106D01*
X123465031Y-89038405D01*
X124274409Y-89020614D01*
X124939545Y-88745106D01*
X125087118Y-88436724D01*
X123825000Y-87174605D01*
X122562882Y-88436724D01*
X81407000Y-88436724D01*
X81407000Y-86635031D01*
X121781595Y-86635031D01*
X121799386Y-87444409D01*
X122074894Y-88109545D01*
X122383276Y-88257118D01*
X123645395Y-86995000D01*
X124004605Y-86995000D01*
X125266724Y-88257118D01*
X125575106Y-88109545D01*
X125868405Y-87354969D01*
X125850614Y-86545591D01*
X125575106Y-85880455D01*
X125266724Y-85732882D01*
X124004605Y-86995000D01*
X123645395Y-86995000D01*
X122383276Y-85732882D01*
X122074894Y-85880455D01*
X121781595Y-86635031D01*
X81407000Y-86635031D01*
X81407000Y-85553276D01*
X122562882Y-85553276D01*
X123825000Y-86815395D01*
X125087118Y-85553276D01*
X124939545Y-85244894D01*
X124184969Y-84951595D01*
X123375591Y-84969386D01*
X122710455Y-85244894D01*
X122562882Y-85553276D01*
X81407000Y-85553276D01*
X81407000Y-82478778D01*
X82058000Y-82478778D01*
X82058000Y-83129222D01*
X82306914Y-83730153D01*
X82766847Y-84190086D01*
X83367778Y-84439000D01*
X84018222Y-84439000D01*
X84619153Y-84190086D01*
X84852707Y-83956532D01*
X87800073Y-83956532D01*
X87898736Y-84223387D01*
X88508461Y-84449908D01*
X89158460Y-84425856D01*
X89647264Y-84223387D01*
X89745927Y-83956532D01*
X88773000Y-82983605D01*
X87800073Y-83956532D01*
X84852707Y-83956532D01*
X85079086Y-83730153D01*
X85328000Y-83129222D01*
X85328000Y-82539461D01*
X87127092Y-82539461D01*
X87151144Y-83189460D01*
X87353613Y-83678264D01*
X87620468Y-83776927D01*
X88593395Y-82804000D01*
X88952605Y-82804000D01*
X89925532Y-83776927D01*
X90192387Y-83678264D01*
X90418908Y-83068539D01*
X90394856Y-82418540D01*
X90192387Y-81929736D01*
X89925532Y-81831073D01*
X88952605Y-82804000D01*
X88593395Y-82804000D01*
X87620468Y-81831073D01*
X87353613Y-81929736D01*
X87127092Y-82539461D01*
X85328000Y-82539461D01*
X85328000Y-82478778D01*
X85079086Y-81877847D01*
X84852707Y-81651468D01*
X87800073Y-81651468D01*
X88773000Y-82624395D01*
X89609395Y-81788000D01*
X143252041Y-81788000D01*
X143368350Y-82372725D01*
X143699570Y-82868430D01*
X143983281Y-83058000D01*
X143699570Y-83247570D01*
X143368350Y-83743275D01*
X143252041Y-84328000D01*
X143368350Y-84912725D01*
X143699570Y-85408430D01*
X144195275Y-85739650D01*
X144632402Y-85826600D01*
X144927598Y-85826600D01*
X145364725Y-85739650D01*
X145488576Y-85656895D01*
X145497576Y-85670364D01*
X145497578Y-85670366D01*
X145537254Y-85729745D01*
X145596634Y-85769422D01*
X147021578Y-87194367D01*
X147061254Y-87253746D01*
X147120633Y-87293422D01*
X147120635Y-87293424D01*
X147296502Y-87410935D01*
X147296503Y-87410935D01*
X147296504Y-87410936D01*
X147503954Y-87452200D01*
X147503957Y-87452200D01*
X147573999Y-87466132D01*
X147644041Y-87452200D01*
X155091833Y-87452200D01*
X154948000Y-87799444D01*
X154948000Y-88250976D01*
X155120793Y-88668136D01*
X155440074Y-88987417D01*
X155857234Y-89160210D01*
X156308766Y-89160210D01*
X156725926Y-88987417D01*
X156897902Y-88815441D01*
X159682036Y-88815441D01*
X159933043Y-89066448D01*
X160350203Y-89239241D01*
X160801735Y-89239241D01*
X161218895Y-89066448D01*
X161538176Y-88747167D01*
X161710969Y-88330007D01*
X161710969Y-87878475D01*
X161538176Y-87461315D01*
X161529061Y-87452200D01*
X184490412Y-87452200D01*
X185809000Y-88770789D01*
X185809000Y-89125766D01*
X185981793Y-89542926D01*
X186301074Y-89862207D01*
X186718234Y-90035000D01*
X187169766Y-90035000D01*
X187586926Y-89862207D01*
X187906207Y-89542926D01*
X187945654Y-89447690D01*
X201334000Y-89447690D01*
X201334000Y-90138250D01*
X201492750Y-90297000D01*
X202692000Y-90297000D01*
X202692000Y-89097750D01*
X202946000Y-89097750D01*
X202946000Y-90297000D01*
X204145250Y-90297000D01*
X204304000Y-90138250D01*
X204304000Y-89447690D01*
X204207327Y-89214301D01*
X204028698Y-89035673D01*
X203795309Y-88939000D01*
X203104750Y-88939000D01*
X202946000Y-89097750D01*
X202692000Y-89097750D01*
X202533250Y-88939000D01*
X201842691Y-88939000D01*
X201609302Y-89035673D01*
X201430673Y-89214301D01*
X201334000Y-89447690D01*
X187945654Y-89447690D01*
X188079000Y-89125766D01*
X188079000Y-88674234D01*
X187906207Y-88257074D01*
X187586926Y-87937793D01*
X187169766Y-87765000D01*
X186814789Y-87765000D01*
X186511947Y-87462158D01*
X186591234Y-87495000D01*
X187042766Y-87495000D01*
X187459926Y-87322207D01*
X187779207Y-87002926D01*
X187952000Y-86585766D01*
X187952000Y-86134234D01*
X187779207Y-85717074D01*
X187459926Y-85397793D01*
X187042766Y-85225000D01*
X186591234Y-85225000D01*
X186511947Y-85257842D01*
X187270369Y-84499420D01*
X187329745Y-84459746D01*
X187369420Y-84400369D01*
X187369424Y-84400365D01*
X187486935Y-84224497D01*
X187486936Y-84224496D01*
X187528200Y-84017046D01*
X187528200Y-84017042D01*
X187542132Y-83947000D01*
X187528200Y-83876958D01*
X187528200Y-83443933D01*
X187779207Y-83192926D01*
X187952000Y-82775766D01*
X187952000Y-82324234D01*
X187832622Y-82036029D01*
X200415000Y-82036029D01*
X200415000Y-83143971D01*
X200838991Y-84167576D01*
X201622424Y-84951009D01*
X202646029Y-85375000D01*
X203753971Y-85375000D01*
X204777576Y-84951009D01*
X205561009Y-84167576D01*
X205985000Y-83143971D01*
X205985000Y-82036029D01*
X205561009Y-81012424D01*
X204777576Y-80228991D01*
X203753971Y-79805000D01*
X202646029Y-79805000D01*
X201622424Y-80228991D01*
X200838991Y-81012424D01*
X200415000Y-82036029D01*
X187832622Y-82036029D01*
X187779207Y-81907074D01*
X187459926Y-81587793D01*
X187042766Y-81415000D01*
X186591234Y-81415000D01*
X186174074Y-81587793D01*
X185854793Y-81907074D01*
X185682000Y-82324234D01*
X185682000Y-82775766D01*
X185854793Y-83192926D01*
X186105800Y-83443933D01*
X186105800Y-83652411D01*
X184461823Y-85296389D01*
X151015294Y-85296389D01*
X151271650Y-84912725D01*
X151387959Y-84328000D01*
X151271650Y-83743275D01*
X150941234Y-83248773D01*
X151083299Y-83189927D01*
X151261927Y-83011298D01*
X151358600Y-82777909D01*
X151358600Y-82073750D01*
X151199850Y-81915000D01*
X149987000Y-81915000D01*
X149987000Y-81935000D01*
X149733000Y-81935000D01*
X149733000Y-81915000D01*
X149713000Y-81915000D01*
X149713000Y-81661000D01*
X149733000Y-81661000D01*
X149733000Y-80448150D01*
X149987000Y-80448150D01*
X149987000Y-81661000D01*
X151199850Y-81661000D01*
X151358600Y-81502250D01*
X151358600Y-80798091D01*
X151261927Y-80564702D01*
X151083299Y-80386073D01*
X150849910Y-80289400D01*
X150145750Y-80289400D01*
X149987000Y-80448150D01*
X149733000Y-80448150D01*
X149574250Y-80289400D01*
X148870090Y-80289400D01*
X148682776Y-80366988D01*
X148253424Y-79937636D01*
X148213746Y-79878254D01*
X147978496Y-79721064D01*
X147771046Y-79679800D01*
X147771041Y-79679800D01*
X147701000Y-79665868D01*
X147630959Y-79679800D01*
X146247041Y-79679800D01*
X146176999Y-79665868D01*
X146106957Y-79679800D01*
X146106954Y-79679800D01*
X145899504Y-79721064D01*
X145899503Y-79721065D01*
X145899502Y-79721065D01*
X145723635Y-79838576D01*
X145723633Y-79838578D01*
X145664254Y-79878254D01*
X145624578Y-79937633D01*
X145215537Y-80346675D01*
X144927598Y-80289400D01*
X144632402Y-80289400D01*
X144195275Y-80376350D01*
X143699570Y-80707570D01*
X143368350Y-81203275D01*
X143252041Y-81788000D01*
X89609395Y-81788000D01*
X89745927Y-81651468D01*
X89647264Y-81384613D01*
X89037539Y-81158092D01*
X88387540Y-81182144D01*
X87898736Y-81384613D01*
X87800073Y-81651468D01*
X84852707Y-81651468D01*
X84619153Y-81417914D01*
X84018222Y-81169000D01*
X83367778Y-81169000D01*
X82766847Y-81417914D01*
X82306914Y-81877847D01*
X82058000Y-82478778D01*
X81407000Y-82478778D01*
X81407000Y-80062606D01*
X82602606Y-78867000D01*
X206322394Y-78867000D01*
X207445000Y-79989606D01*
X207445000Y-79989606D01*
G37*
X207445000Y-79989606D02*
X207445001Y-142895393D01*
X206322394Y-144018000D01*
X188012606Y-144018000D01*
X186817000Y-142822394D01*
X186817000Y-134001000D01*
X191392560Y-134001000D01*
X191392560Y-136001000D01*
X191441843Y-136248765D01*
X191582191Y-136458809D01*
X191792235Y-136599157D01*
X192040000Y-136648440D01*
X194040000Y-136648440D01*
X194287765Y-136599157D01*
X194497809Y-136458809D01*
X194638157Y-136248765D01*
X194687440Y-136001000D01*
X194687440Y-134675778D01*
X196405000Y-134675778D01*
X196405000Y-135326222D01*
X196653914Y-135927153D01*
X197113847Y-136387086D01*
X197714778Y-136636000D01*
X198365222Y-136636000D01*
X198966153Y-136387086D01*
X199426086Y-135927153D01*
X199675000Y-135326222D01*
X199675000Y-134675778D01*
X199426086Y-134074847D01*
X198966153Y-133614914D01*
X198365222Y-133366000D01*
X197714778Y-133366000D01*
X197113847Y-133614914D01*
X196653914Y-134074847D01*
X196405000Y-134675778D01*
X194687440Y-134675778D01*
X194687440Y-134001000D01*
X194638157Y-133753235D01*
X194497809Y-133543191D01*
X194287765Y-133402843D01*
X194040000Y-133353560D01*
X192040000Y-133353560D01*
X191792235Y-133402843D01*
X191582191Y-133543191D01*
X191441843Y-133753235D01*
X191392560Y-134001000D01*
X186817000Y-134001000D01*
X186817000Y-123063000D01*
X201304908Y-123063000D01*
X201420161Y-123642418D01*
X201748375Y-124133625D01*
X202046761Y-124333000D01*
X201748375Y-124532375D01*
X201420161Y-125023582D01*
X201304908Y-125603000D01*
X201420161Y-126182418D01*
X201748375Y-126673625D01*
X202239582Y-127001839D01*
X202672744Y-127088000D01*
X202965256Y-127088000D01*
X203398418Y-127001839D01*
X203889625Y-126673625D01*
X204217839Y-126182418D01*
X204333092Y-125603000D01*
X204217839Y-125023582D01*
X203889625Y-124532375D01*
X203591239Y-124333000D01*
X203889625Y-124133625D01*
X204217839Y-123642418D01*
X204333092Y-123063000D01*
X204217839Y-122483582D01*
X203889625Y-121992375D01*
X203867967Y-121977904D01*
X204028698Y-121911327D01*
X204207327Y-121732699D01*
X204304000Y-121499310D01*
X204304000Y-120808750D01*
X204145250Y-120650000D01*
X202946000Y-120650000D01*
X202946000Y-120670000D01*
X202692000Y-120670000D01*
X202692000Y-120650000D01*
X201492750Y-120650000D01*
X201334000Y-120808750D01*
X201334000Y-121499310D01*
X201430673Y-121732699D01*
X201609302Y-121911327D01*
X201770033Y-121977904D01*
X201748375Y-121992375D01*
X201420161Y-122483582D01*
X201304908Y-123063000D01*
X186817000Y-123063000D01*
X186817000Y-119546690D01*
X201334000Y-119546690D01*
X201334000Y-120237250D01*
X201492750Y-120396000D01*
X202692000Y-120396000D01*
X202692000Y-119196750D01*
X202946000Y-119196750D01*
X202946000Y-120396000D01*
X204145250Y-120396000D01*
X204304000Y-120237250D01*
X204304000Y-119546690D01*
X204207327Y-119313301D01*
X204028698Y-119134673D01*
X203795309Y-119038000D01*
X203104750Y-119038000D01*
X202946000Y-119196750D01*
X202692000Y-119196750D01*
X202533250Y-119038000D01*
X201842691Y-119038000D01*
X201609302Y-119134673D01*
X201430673Y-119313301D01*
X201334000Y-119546690D01*
X186817000Y-119546690D01*
X186817000Y-116840000D01*
X186807333Y-116791399D01*
X186779803Y-116750197D01*
X185509803Y-115480197D01*
X185468601Y-115452667D01*
X185420000Y-115443000D01*
X146774137Y-115443000D01*
X146742354Y-115283217D01*
X146579905Y-115040095D01*
X146336783Y-114877646D01*
X146122388Y-114835000D01*
X146050000Y-114820601D01*
X145977612Y-114835000D01*
X94694606Y-114835000D01*
X94107000Y-114247394D01*
X94107000Y-111887000D01*
X201304908Y-111887000D01*
X201420161Y-112466418D01*
X201748375Y-112957625D01*
X202046761Y-113157000D01*
X201748375Y-113356375D01*
X201420161Y-113847582D01*
X201304908Y-114427000D01*
X201420161Y-115006418D01*
X201748375Y-115497625D01*
X202239582Y-115825839D01*
X202672744Y-115912000D01*
X202965256Y-115912000D01*
X203398418Y-115825839D01*
X203889625Y-115497625D01*
X204217839Y-115006418D01*
X204333092Y-114427000D01*
X204217839Y-113847582D01*
X203889625Y-113356375D01*
X203591239Y-113157000D01*
X203889625Y-112957625D01*
X204217839Y-112466418D01*
X204333092Y-111887000D01*
X204217839Y-111307582D01*
X203889625Y-110816375D01*
X203867967Y-110801904D01*
X204028698Y-110735327D01*
X204207327Y-110556699D01*
X204304000Y-110323310D01*
X204304000Y-109632750D01*
X204145250Y-109474000D01*
X202946000Y-109474000D01*
X202946000Y-109494000D01*
X202692000Y-109494000D01*
X202692000Y-109474000D01*
X201492750Y-109474000D01*
X201334000Y-109632750D01*
X201334000Y-110323310D01*
X201430673Y-110556699D01*
X201609302Y-110735327D01*
X201770033Y-110801904D01*
X201748375Y-110816375D01*
X201420161Y-111307582D01*
X201304908Y-111887000D01*
X94107000Y-111887000D01*
X94107000Y-110235000D01*
X94354950Y-110235000D01*
X95047767Y-109948026D01*
X95578026Y-109417767D01*
X95865000Y-108724950D01*
X95865000Y-107975050D01*
X101105000Y-107975050D01*
X101105000Y-108724950D01*
X101391974Y-109417767D01*
X101922233Y-109948026D01*
X102615050Y-110235000D01*
X103364950Y-110235000D01*
X104057767Y-109948026D01*
X104588026Y-109417767D01*
X104875000Y-108724950D01*
X104875000Y-107975050D01*
X108605000Y-107975050D01*
X108605000Y-108724950D01*
X108891974Y-109417767D01*
X109422233Y-109948026D01*
X110115050Y-110235000D01*
X110864950Y-110235000D01*
X111557767Y-109948026D01*
X112088026Y-109417767D01*
X112375000Y-108724950D01*
X112375000Y-107975050D01*
X117869000Y-107975050D01*
X117869000Y-108724950D01*
X118155974Y-109417767D01*
X118686233Y-109948026D01*
X119379050Y-110235000D01*
X120128950Y-110235000D01*
X120821767Y-109948026D01*
X121352026Y-109417767D01*
X121639000Y-108724950D01*
X121639000Y-107975050D01*
X125369000Y-107975050D01*
X125369000Y-108724950D01*
X125655974Y-109417767D01*
X126186233Y-109948026D01*
X126879050Y-110235000D01*
X127628950Y-110235000D01*
X128321767Y-109948026D01*
X128852026Y-109417767D01*
X129139000Y-108724950D01*
X129139000Y-107975050D01*
X134640000Y-107975050D01*
X134640000Y-108724950D01*
X134926974Y-109417767D01*
X135457233Y-109948026D01*
X136150050Y-110235000D01*
X136899950Y-110235000D01*
X137592767Y-109948026D01*
X138123026Y-109417767D01*
X138410000Y-108724950D01*
X138410000Y-107975050D01*
X142140000Y-107975050D01*
X142140000Y-108724950D01*
X142426974Y-109417767D01*
X142957233Y-109948026D01*
X143650050Y-110235000D01*
X144399950Y-110235000D01*
X145092767Y-109948026D01*
X145623026Y-109417767D01*
X145910000Y-108724950D01*
X145910000Y-107975050D01*
X145849335Y-107828591D01*
X160685643Y-107828591D01*
X160685643Y-108280123D01*
X160858436Y-108697283D01*
X161177717Y-109016564D01*
X161594877Y-109189357D01*
X162046409Y-109189357D01*
X162463569Y-109016564D01*
X162782850Y-108697283D01*
X162918128Y-108370690D01*
X201334000Y-108370690D01*
X201334000Y-109061250D01*
X201492750Y-109220000D01*
X202692000Y-109220000D01*
X202692000Y-108020750D01*
X202946000Y-108020750D01*
X202946000Y-109220000D01*
X204145250Y-109220000D01*
X204304000Y-109061250D01*
X204304000Y-108370690D01*
X204207327Y-108137301D01*
X204028698Y-107958673D01*
X203795309Y-107862000D01*
X203104750Y-107862000D01*
X202946000Y-108020750D01*
X202692000Y-108020750D01*
X202533250Y-107862000D01*
X201842691Y-107862000D01*
X201609302Y-107958673D01*
X201430673Y-108137301D01*
X201334000Y-108370690D01*
X162918128Y-108370690D01*
X162955643Y-108280123D01*
X162955643Y-107925145D01*
X163065789Y-107815000D01*
X163420766Y-107815000D01*
X163837926Y-107642207D01*
X164157207Y-107322926D01*
X164330000Y-106905766D01*
X164330000Y-106454234D01*
X164157207Y-106037074D01*
X163837926Y-105717793D01*
X163420766Y-105545000D01*
X162969234Y-105545000D01*
X162552074Y-105717793D01*
X162232793Y-106037074D01*
X162060000Y-106454234D01*
X162060000Y-106809211D01*
X161949855Y-106919357D01*
X161594877Y-106919357D01*
X161177717Y-107092150D01*
X160858436Y-107411431D01*
X160685643Y-107828591D01*
X145849335Y-107828591D01*
X145623026Y-107282233D01*
X145092767Y-106751974D01*
X144399950Y-106465000D01*
X143650050Y-106465000D01*
X142957233Y-106751974D01*
X142426974Y-107282233D01*
X142140000Y-107975050D01*
X138410000Y-107975050D01*
X138123026Y-107282233D01*
X137592767Y-106751974D01*
X136899950Y-106465000D01*
X136150050Y-106465000D01*
X135457233Y-106751974D01*
X134926974Y-107282233D01*
X134640000Y-107975050D01*
X129139000Y-107975050D01*
X128852026Y-107282233D01*
X128321767Y-106751974D01*
X127628950Y-106465000D01*
X126879050Y-106465000D01*
X126186233Y-106751974D01*
X125655974Y-107282233D01*
X125369000Y-107975050D01*
X121639000Y-107975050D01*
X121352026Y-107282233D01*
X120821767Y-106751974D01*
X120128950Y-106465000D01*
X119379050Y-106465000D01*
X118686233Y-106751974D01*
X118155974Y-107282233D01*
X117869000Y-107975050D01*
X112375000Y-107975050D01*
X112088026Y-107282233D01*
X111557767Y-106751974D01*
X110864950Y-106465000D01*
X110115050Y-106465000D01*
X109422233Y-106751974D01*
X108891974Y-107282233D01*
X108605000Y-107975050D01*
X104875000Y-107975050D01*
X104588026Y-107282233D01*
X104057767Y-106751974D01*
X103364950Y-106465000D01*
X102615050Y-106465000D01*
X101922233Y-106751974D01*
X101391974Y-107282233D01*
X101105000Y-107975050D01*
X95865000Y-107975050D01*
X95578026Y-107282233D01*
X95047767Y-106751974D01*
X94354950Y-106465000D01*
X94107000Y-106465000D01*
X94107000Y-99925213D01*
X121790000Y-99925213D01*
X121790000Y-100734787D01*
X122099810Y-101482735D01*
X122672265Y-102055190D01*
X123420213Y-102365000D01*
X124229787Y-102365000D01*
X124977735Y-102055190D01*
X125023691Y-102009234D01*
X173871000Y-102009234D01*
X173871000Y-102460766D01*
X174043793Y-102877926D01*
X174363074Y-103197207D01*
X174780234Y-103370000D01*
X175231766Y-103370000D01*
X175648926Y-103197207D01*
X175899933Y-102946200D01*
X176271067Y-102946200D01*
X176522074Y-103197207D01*
X176939234Y-103370000D01*
X177390766Y-103370000D01*
X177807926Y-103197207D01*
X178127207Y-102877926D01*
X178300000Y-102460766D01*
X178300000Y-102009234D01*
X178127207Y-101592074D01*
X177807926Y-101272793D01*
X177390766Y-101100000D01*
X176939234Y-101100000D01*
X176522074Y-101272793D01*
X176271067Y-101523800D01*
X175899933Y-101523800D01*
X175648926Y-101272793D01*
X175231766Y-101100000D01*
X174780234Y-101100000D01*
X174363074Y-101272793D01*
X174043793Y-101592074D01*
X173871000Y-102009234D01*
X125023691Y-102009234D01*
X125550190Y-101482735D01*
X125860000Y-100734787D01*
X125860000Y-99925213D01*
X125550190Y-99177265D01*
X124977735Y-98604810D01*
X124229787Y-98295000D01*
X123420213Y-98295000D01*
X122672265Y-98604810D01*
X122099810Y-99177265D01*
X121790000Y-99925213D01*
X94107000Y-99925213D01*
X94107000Y-96520000D01*
X94097333Y-96471399D01*
X94069803Y-96430197D01*
X93119819Y-95480213D01*
X121790000Y-95480213D01*
X121790000Y-96289787D01*
X122099810Y-97037735D01*
X122672265Y-97610190D01*
X123420213Y-97920000D01*
X124229787Y-97920000D01*
X124977735Y-97610190D01*
X125550190Y-97037735D01*
X125860000Y-96289787D01*
X125860000Y-95480213D01*
X125550190Y-94732265D01*
X125524659Y-94706734D01*
X141613000Y-94706734D01*
X141613000Y-95158266D01*
X141785793Y-95575426D01*
X142105074Y-95894707D01*
X142158291Y-95916750D01*
X142105074Y-95938793D01*
X141785793Y-96258074D01*
X141613000Y-96675234D01*
X141613000Y-97126766D01*
X141785793Y-97543926D01*
X142105074Y-97863207D01*
X142522234Y-98036000D01*
X142865367Y-98036000D01*
X142738293Y-98163074D01*
X142565500Y-98580234D01*
X142565500Y-99031766D01*
X142738293Y-99448926D01*
X143057574Y-99768207D01*
X143474734Y-99941000D01*
X143926266Y-99941000D01*
X144283223Y-99793144D01*
X144008293Y-100068074D01*
X143835500Y-100485234D01*
X143835500Y-100936766D01*
X144008293Y-101353926D01*
X144327574Y-101673207D01*
X144744734Y-101846000D01*
X145196266Y-101846000D01*
X145613426Y-101673207D01*
X145864433Y-101422200D01*
X154109551Y-101422200D01*
X154360574Y-101673223D01*
X154777734Y-101846016D01*
X155229266Y-101846016D01*
X155646426Y-101673223D01*
X155965707Y-101353942D01*
X156138500Y-100936782D01*
X156138500Y-100485250D01*
X155965707Y-100068090D01*
X155656130Y-99758513D01*
X155965707Y-99448936D01*
X156138500Y-99031776D01*
X156138500Y-98580244D01*
X155965707Y-98163084D01*
X155656133Y-97853510D01*
X155965707Y-97543936D01*
X156138500Y-97126776D01*
X156138500Y-96774000D01*
X183805868Y-96774000D01*
X183819800Y-96844042D01*
X183819801Y-100640954D01*
X183805868Y-100711000D01*
X183861065Y-100988496D01*
X183978576Y-101164364D01*
X183978579Y-101164367D01*
X184018255Y-101223746D01*
X184077634Y-101263422D01*
X184920000Y-102105789D01*
X184920000Y-102460766D01*
X185089510Y-102870000D01*
X184920000Y-103279234D01*
X184920000Y-103730766D01*
X185092793Y-104147926D01*
X185412074Y-104467207D01*
X185829234Y-104640000D01*
X186280766Y-104640000D01*
X186697926Y-104467207D01*
X186948933Y-104216200D01*
X188336067Y-104216200D01*
X188587074Y-104467207D01*
X189004234Y-104640000D01*
X189455766Y-104640000D01*
X189872926Y-104467207D01*
X190192207Y-104147926D01*
X190365000Y-103730766D01*
X190365000Y-103279234D01*
X190192207Y-102862074D01*
X189872926Y-102542793D01*
X189455766Y-102370000D01*
X189004234Y-102370000D01*
X188587074Y-102542793D01*
X188336067Y-102793800D01*
X187052053Y-102793800D01*
X187190000Y-102460766D01*
X187190000Y-102009234D01*
X187052053Y-101676200D01*
X188336067Y-101676200D01*
X188587074Y-101927207D01*
X189004234Y-102100000D01*
X189455766Y-102100000D01*
X189872926Y-101927207D01*
X190192207Y-101607926D01*
X190365000Y-101190766D01*
X190365000Y-100739234D01*
X190192207Y-100322074D01*
X189872926Y-100002793D01*
X189455766Y-99830000D01*
X189004234Y-99830000D01*
X188587074Y-100002793D01*
X188336067Y-100253800D01*
X186948933Y-100253800D01*
X186697926Y-100002793D01*
X186280766Y-99830000D01*
X185829234Y-99830000D01*
X185412074Y-100002793D01*
X185242200Y-100172667D01*
X185242200Y-97068588D01*
X187195789Y-95115000D01*
X187550766Y-95115000D01*
X187967926Y-94942207D01*
X188287207Y-94622926D01*
X188460000Y-94205766D01*
X188460000Y-93754234D01*
X188287207Y-93337074D01*
X187967926Y-93017793D01*
X187550766Y-92845000D01*
X187099234Y-92845000D01*
X186682074Y-93017793D01*
X186362793Y-93337074D01*
X186190000Y-93754234D01*
X186190000Y-94109211D01*
X184077634Y-96221578D01*
X184018254Y-96261255D01*
X183978578Y-96320634D01*
X183978576Y-96320636D01*
X183933395Y-96388254D01*
X183861064Y-96496505D01*
X183819800Y-96703955D01*
X183819800Y-96703959D01*
X183805868Y-96774000D01*
X156138500Y-96774000D01*
X156138500Y-96675244D01*
X155965707Y-96258084D01*
X155656127Y-95948504D01*
X155965707Y-95638924D01*
X156138500Y-95221764D01*
X156138500Y-94770232D01*
X155965707Y-94353072D01*
X155656131Y-94043496D01*
X155965707Y-93733920D01*
X156138500Y-93316760D01*
X156138500Y-92865228D01*
X155980688Y-92484234D01*
X191142972Y-92484234D01*
X191142972Y-92935766D01*
X191315765Y-93352926D01*
X191566772Y-93603933D01*
X191566773Y-97023100D01*
X191315799Y-97274074D01*
X191143006Y-97691234D01*
X191143006Y-98142766D01*
X191315799Y-98559926D01*
X191635080Y-98879207D01*
X192052240Y-99052000D01*
X192503772Y-99052000D01*
X192582801Y-99019265D01*
X192582800Y-104516067D01*
X192331793Y-104767074D01*
X192159000Y-105184234D01*
X192159000Y-105635766D01*
X192331793Y-106052926D01*
X192651074Y-106372207D01*
X193068234Y-106545000D01*
X193519766Y-106545000D01*
X193936926Y-106372207D01*
X194256207Y-106052926D01*
X194429000Y-105635766D01*
X194429000Y-105184234D01*
X194256207Y-104767074D01*
X194005200Y-104516067D01*
X194005200Y-98019890D01*
X194138524Y-98019890D01*
X194308355Y-98429924D01*
X194698642Y-98858183D01*
X195223108Y-99104486D01*
X195453000Y-98983819D01*
X195453000Y-97790000D01*
X195707000Y-97790000D01*
X195707000Y-98983819D01*
X195936892Y-99104486D01*
X196461358Y-98858183D01*
X196851645Y-98429924D01*
X197021476Y-98019890D01*
X196900155Y-97790000D01*
X195707000Y-97790000D01*
X195453000Y-97790000D01*
X194259845Y-97790000D01*
X194138524Y-98019890D01*
X194005200Y-98019890D01*
X194005200Y-96143933D01*
X194098085Y-96051048D01*
X194131843Y-96220765D01*
X194272191Y-96430809D01*
X194482235Y-96571157D01*
X194585708Y-96591739D01*
X194308355Y-96896076D01*
X194138524Y-97306110D01*
X194259845Y-97536000D01*
X195453000Y-97536000D01*
X195453000Y-97516000D01*
X195707000Y-97516000D01*
X195707000Y-97536000D01*
X196900155Y-97536000D01*
X197021476Y-97306110D01*
X196851645Y-96896076D01*
X196574292Y-96591739D01*
X196677765Y-96571157D01*
X196887809Y-96430809D01*
X197028157Y-96220765D01*
X197077440Y-95973000D01*
X197077440Y-94273000D01*
X197028157Y-94025235D01*
X196887809Y-93815191D01*
X196677765Y-93674843D01*
X196430000Y-93625560D01*
X194730000Y-93625560D01*
X194482235Y-93674843D01*
X194272191Y-93815191D01*
X194131843Y-94025235D01*
X194082560Y-94273000D01*
X194082560Y-94433427D01*
X193936926Y-94287793D01*
X193519766Y-94115000D01*
X193068234Y-94115000D01*
X192989172Y-94147748D01*
X192989172Y-93603933D01*
X193240179Y-93352926D01*
X193401277Y-92964000D01*
X201304908Y-92964000D01*
X201420161Y-93543418D01*
X201748375Y-94034625D01*
X202046761Y-94234000D01*
X201748375Y-94433375D01*
X201420161Y-94924582D01*
X201304908Y-95504000D01*
X201420161Y-96083418D01*
X201748375Y-96574625D01*
X202046761Y-96774000D01*
X201748375Y-96973375D01*
X201420161Y-97464582D01*
X201304908Y-98044000D01*
X201420161Y-98623418D01*
X201748375Y-99114625D01*
X202046761Y-99314000D01*
X201748375Y-99513375D01*
X201420161Y-100004582D01*
X201304908Y-100584000D01*
X201420161Y-101163418D01*
X201748375Y-101654625D01*
X202046761Y-101854000D01*
X201748375Y-102053375D01*
X201420161Y-102544582D01*
X201304908Y-103124000D01*
X201420161Y-103703418D01*
X201748375Y-104194625D01*
X202239582Y-104522839D01*
X202672744Y-104609000D01*
X202965256Y-104609000D01*
X203398418Y-104522839D01*
X203889625Y-104194625D01*
X204217839Y-103703418D01*
X204333092Y-103124000D01*
X204217839Y-102544582D01*
X203889625Y-102053375D01*
X203591239Y-101854000D01*
X203889625Y-101654625D01*
X204217839Y-101163418D01*
X204333092Y-100584000D01*
X204217839Y-100004582D01*
X203889625Y-99513375D01*
X203591239Y-99314000D01*
X203889625Y-99114625D01*
X204217839Y-98623418D01*
X204333092Y-98044000D01*
X204217839Y-97464582D01*
X203889625Y-96973375D01*
X203591239Y-96774000D01*
X203889625Y-96574625D01*
X204217839Y-96083418D01*
X204333092Y-95504000D01*
X204217839Y-94924582D01*
X203889625Y-94433375D01*
X203591239Y-94234000D01*
X203889625Y-94034625D01*
X204217839Y-93543418D01*
X204333092Y-92964000D01*
X204217839Y-92384582D01*
X203889625Y-91893375D01*
X203867967Y-91878904D01*
X204028698Y-91812327D01*
X204207327Y-91633699D01*
X204304000Y-91400310D01*
X204304000Y-90709750D01*
X204145250Y-90551000D01*
X202946000Y-90551000D01*
X202946000Y-90571000D01*
X202692000Y-90571000D01*
X202692000Y-90551000D01*
X201492750Y-90551000D01*
X201334000Y-90709750D01*
X201334000Y-91400310D01*
X201430673Y-91633699D01*
X201609302Y-91812327D01*
X201770033Y-91878904D01*
X201748375Y-91893375D01*
X201420161Y-92384582D01*
X201304908Y-92964000D01*
X193401277Y-92964000D01*
X193412972Y-92935766D01*
X193412972Y-92484234D01*
X193240179Y-92067074D01*
X192920898Y-91747793D01*
X192503738Y-91575000D01*
X192052206Y-91575000D01*
X191635046Y-91747793D01*
X191315765Y-92067074D01*
X191142972Y-92484234D01*
X155980688Y-92484234D01*
X155965707Y-92448068D01*
X155656137Y-92138498D01*
X155965707Y-91828928D01*
X156138500Y-91411768D01*
X156138500Y-90960236D01*
X155965707Y-90543076D01*
X155646426Y-90223795D01*
X155229266Y-90051002D01*
X154777734Y-90051002D01*
X154360574Y-90223795D01*
X154109569Y-90474800D01*
X145864433Y-90474800D01*
X145613426Y-90223793D01*
X145196266Y-90051000D01*
X144744734Y-90051000D01*
X144327574Y-90223793D01*
X144008293Y-90543074D01*
X143835500Y-90960234D01*
X143835500Y-91411766D01*
X144008293Y-91828926D01*
X144283223Y-92103856D01*
X143926266Y-91956000D01*
X143474734Y-91956000D01*
X143057574Y-92128793D01*
X142738293Y-92448074D01*
X142565500Y-92865234D01*
X142565500Y-93316766D01*
X142738293Y-93733926D01*
X142801867Y-93797500D01*
X142522234Y-93797500D01*
X142105074Y-93970293D01*
X141785793Y-94289574D01*
X141613000Y-94706734D01*
X125524659Y-94706734D01*
X124977735Y-94159810D01*
X124229787Y-93850000D01*
X123420213Y-93850000D01*
X122672265Y-94159810D01*
X122099810Y-94732265D01*
X121790000Y-95480213D01*
X93119819Y-95480213D01*
X92799803Y-95160197D01*
X92758601Y-95132667D01*
X92710000Y-95123000D01*
X82602606Y-95123000D01*
X81407000Y-93927394D01*
X81407000Y-91035213D01*
X121790000Y-91035213D01*
X121790000Y-91844787D01*
X122099810Y-92592735D01*
X122672265Y-93165190D01*
X123420213Y-93475000D01*
X124229787Y-93475000D01*
X124977735Y-93165190D01*
X125550190Y-92592735D01*
X125860000Y-91844787D01*
X125860000Y-91035213D01*
X125550190Y-90287265D01*
X124977735Y-89714810D01*
X124229787Y-89405000D01*
X123420213Y-89405000D01*
X122672265Y-89714810D01*
X122099810Y-90287265D01*
X121790000Y-91035213D01*
X81407000Y-91035213D01*
X81407000Y-88436724D01*
X122562882Y-88436724D01*
X122710455Y-88745106D01*
X123465031Y-89038405D01*
X124274409Y-89020614D01*
X124939545Y-88745106D01*
X125087118Y-88436724D01*
X123825000Y-87174605D01*
X122562882Y-88436724D01*
X81407000Y-88436724D01*
X81407000Y-86635031D01*
X121781595Y-86635031D01*
X121799386Y-87444409D01*
X122074894Y-88109545D01*
X122383276Y-88257118D01*
X123645395Y-86995000D01*
X124004605Y-86995000D01*
X125266724Y-88257118D01*
X125575106Y-88109545D01*
X125868405Y-87354969D01*
X125850614Y-86545591D01*
X125575106Y-85880455D01*
X125266724Y-85732882D01*
X124004605Y-86995000D01*
X123645395Y-86995000D01*
X122383276Y-85732882D01*
X122074894Y-85880455D01*
X121781595Y-86635031D01*
X81407000Y-86635031D01*
X81407000Y-85553276D01*
X122562882Y-85553276D01*
X123825000Y-86815395D01*
X125087118Y-85553276D01*
X124939545Y-85244894D01*
X124184969Y-84951595D01*
X123375591Y-84969386D01*
X122710455Y-85244894D01*
X122562882Y-85553276D01*
X81407000Y-85553276D01*
X81407000Y-82478778D01*
X82058000Y-82478778D01*
X82058000Y-83129222D01*
X82306914Y-83730153D01*
X82766847Y-84190086D01*
X83367778Y-84439000D01*
X84018222Y-84439000D01*
X84619153Y-84190086D01*
X84852707Y-83956532D01*
X87800073Y-83956532D01*
X87898736Y-84223387D01*
X88508461Y-84449908D01*
X89158460Y-84425856D01*
X89647264Y-84223387D01*
X89745927Y-83956532D01*
X88773000Y-82983605D01*
X87800073Y-83956532D01*
X84852707Y-83956532D01*
X85079086Y-83730153D01*
X85328000Y-83129222D01*
X85328000Y-82539461D01*
X87127092Y-82539461D01*
X87151144Y-83189460D01*
X87353613Y-83678264D01*
X87620468Y-83776927D01*
X88593395Y-82804000D01*
X88952605Y-82804000D01*
X89925532Y-83776927D01*
X90192387Y-83678264D01*
X90418908Y-83068539D01*
X90394856Y-82418540D01*
X90192387Y-81929736D01*
X89925532Y-81831073D01*
X88952605Y-82804000D01*
X88593395Y-82804000D01*
X87620468Y-81831073D01*
X87353613Y-81929736D01*
X87127092Y-82539461D01*
X85328000Y-82539461D01*
X85328000Y-82478778D01*
X85079086Y-81877847D01*
X84852707Y-81651468D01*
X87800073Y-81651468D01*
X88773000Y-82624395D01*
X89609395Y-81788000D01*
X143252041Y-81788000D01*
X143368350Y-82372725D01*
X143699570Y-82868430D01*
X143983281Y-83058000D01*
X143699570Y-83247570D01*
X143368350Y-83743275D01*
X143252041Y-84328000D01*
X143368350Y-84912725D01*
X143699570Y-85408430D01*
X144195275Y-85739650D01*
X144632402Y-85826600D01*
X144927598Y-85826600D01*
X145364725Y-85739650D01*
X145488576Y-85656895D01*
X145497576Y-85670364D01*
X145497578Y-85670366D01*
X145537254Y-85729745D01*
X145596634Y-85769422D01*
X147021578Y-87194367D01*
X147061254Y-87253746D01*
X147120633Y-87293422D01*
X147120635Y-87293424D01*
X147296502Y-87410935D01*
X147296503Y-87410935D01*
X147296504Y-87410936D01*
X147503954Y-87452200D01*
X147503957Y-87452200D01*
X147573999Y-87466132D01*
X147644041Y-87452200D01*
X155091833Y-87452200D01*
X154948000Y-87799444D01*
X154948000Y-88250976D01*
X155120793Y-88668136D01*
X155440074Y-88987417D01*
X155857234Y-89160210D01*
X156308766Y-89160210D01*
X156725926Y-88987417D01*
X156897902Y-88815441D01*
X159682036Y-88815441D01*
X159933043Y-89066448D01*
X160350203Y-89239241D01*
X160801735Y-89239241D01*
X161218895Y-89066448D01*
X161538176Y-88747167D01*
X161710969Y-88330007D01*
X161710969Y-87878475D01*
X161538176Y-87461315D01*
X161529061Y-87452200D01*
X184490412Y-87452200D01*
X185809000Y-88770789D01*
X185809000Y-89125766D01*
X185981793Y-89542926D01*
X186301074Y-89862207D01*
X186718234Y-90035000D01*
X187169766Y-90035000D01*
X187586926Y-89862207D01*
X187906207Y-89542926D01*
X187945654Y-89447690D01*
X201334000Y-89447690D01*
X201334000Y-90138250D01*
X201492750Y-90297000D01*
X202692000Y-90297000D01*
X202692000Y-89097750D01*
X202946000Y-89097750D01*
X202946000Y-90297000D01*
X204145250Y-90297000D01*
X204304000Y-90138250D01*
X204304000Y-89447690D01*
X204207327Y-89214301D01*
X204028698Y-89035673D01*
X203795309Y-88939000D01*
X203104750Y-88939000D01*
X202946000Y-89097750D01*
X202692000Y-89097750D01*
X202533250Y-88939000D01*
X201842691Y-88939000D01*
X201609302Y-89035673D01*
X201430673Y-89214301D01*
X201334000Y-89447690D01*
X187945654Y-89447690D01*
X188079000Y-89125766D01*
X188079000Y-88674234D01*
X187906207Y-88257074D01*
X187586926Y-87937793D01*
X187169766Y-87765000D01*
X186814789Y-87765000D01*
X186511947Y-87462158D01*
X186591234Y-87495000D01*
X187042766Y-87495000D01*
X187459926Y-87322207D01*
X187779207Y-87002926D01*
X187952000Y-86585766D01*
X187952000Y-86134234D01*
X187779207Y-85717074D01*
X187459926Y-85397793D01*
X187042766Y-85225000D01*
X186591234Y-85225000D01*
X186511947Y-85257842D01*
X187270369Y-84499420D01*
X187329745Y-84459746D01*
X187369420Y-84400369D01*
X187369424Y-84400365D01*
X187486935Y-84224497D01*
X187486936Y-84224496D01*
X187528200Y-84017046D01*
X187528200Y-84017042D01*
X187542132Y-83947000D01*
X187528200Y-83876958D01*
X187528200Y-83443933D01*
X187779207Y-83192926D01*
X187952000Y-82775766D01*
X187952000Y-82324234D01*
X187832622Y-82036029D01*
X200415000Y-82036029D01*
X200415000Y-83143971D01*
X200838991Y-84167576D01*
X201622424Y-84951009D01*
X202646029Y-85375000D01*
X203753971Y-85375000D01*
X204777576Y-84951009D01*
X205561009Y-84167576D01*
X205985000Y-83143971D01*
X205985000Y-82036029D01*
X205561009Y-81012424D01*
X204777576Y-80228991D01*
X203753971Y-79805000D01*
X202646029Y-79805000D01*
X201622424Y-80228991D01*
X200838991Y-81012424D01*
X200415000Y-82036029D01*
X187832622Y-82036029D01*
X187779207Y-81907074D01*
X187459926Y-81587793D01*
X187042766Y-81415000D01*
X186591234Y-81415000D01*
X186174074Y-81587793D01*
X185854793Y-81907074D01*
X185682000Y-82324234D01*
X185682000Y-82775766D01*
X185854793Y-83192926D01*
X186105800Y-83443933D01*
X186105800Y-83652411D01*
X184461823Y-85296389D01*
X151015294Y-85296389D01*
X151271650Y-84912725D01*
X151387959Y-84328000D01*
X151271650Y-83743275D01*
X150941234Y-83248773D01*
X151083299Y-83189927D01*
X151261927Y-83011298D01*
X151358600Y-82777909D01*
X151358600Y-82073750D01*
X151199850Y-81915000D01*
X149987000Y-81915000D01*
X149987000Y-81935000D01*
X149733000Y-81935000D01*
X149733000Y-81915000D01*
X149713000Y-81915000D01*
X149713000Y-81661000D01*
X149733000Y-81661000D01*
X149733000Y-80448150D01*
X149987000Y-80448150D01*
X149987000Y-81661000D01*
X151199850Y-81661000D01*
X151358600Y-81502250D01*
X151358600Y-80798091D01*
X151261927Y-80564702D01*
X151083299Y-80386073D01*
X150849910Y-80289400D01*
X150145750Y-80289400D01*
X149987000Y-80448150D01*
X149733000Y-80448150D01*
X149574250Y-80289400D01*
X148870090Y-80289400D01*
X148682776Y-80366988D01*
X148253424Y-79937636D01*
X148213746Y-79878254D01*
X147978496Y-79721064D01*
X147771046Y-79679800D01*
X147771041Y-79679800D01*
X147701000Y-79665868D01*
X147630959Y-79679800D01*
X146247041Y-79679800D01*
X146176999Y-79665868D01*
X146106957Y-79679800D01*
X146106954Y-79679800D01*
X145899504Y-79721064D01*
X145899503Y-79721065D01*
X145899502Y-79721065D01*
X145723635Y-79838576D01*
X145723633Y-79838578D01*
X145664254Y-79878254D01*
X145624578Y-79937633D01*
X145215537Y-80346675D01*
X144927598Y-80289400D01*
X144632402Y-80289400D01*
X144195275Y-80376350D01*
X143699570Y-80707570D01*
X143368350Y-81203275D01*
X143252041Y-81788000D01*
X89609395Y-81788000D01*
X89745927Y-81651468D01*
X89647264Y-81384613D01*
X89037539Y-81158092D01*
X88387540Y-81182144D01*
X87898736Y-81384613D01*
X87800073Y-81651468D01*
X84852707Y-81651468D01*
X84619153Y-81417914D01*
X84018222Y-81169000D01*
X83367778Y-81169000D01*
X82766847Y-81417914D01*
X82306914Y-81877847D01*
X82058000Y-82478778D01*
X81407000Y-82478778D01*
X81407000Y-80062606D01*
X82602606Y-78867000D01*
X206322394Y-78867000D01*
X207445000Y-79989606D01*
G36*
X206883000Y-74168000D02*
X39497000Y-74168000D01*
X39497000Y-73324868D01*
X51654737Y-73324868D01*
X51765641Y-73602099D01*
X52411593Y-73845323D01*
X53101453Y-73822836D01*
X53634359Y-73602099D01*
X53745263Y-73324868D01*
X52700000Y-72279605D01*
X51654737Y-73324868D01*
X39497000Y-73324868D01*
X39497000Y-71811593D01*
X50954677Y-71811593D01*
X50977164Y-72501453D01*
X51197901Y-73034359D01*
X51475132Y-73145263D01*
X52520395Y-72100000D01*
X52879605Y-72100000D01*
X53924868Y-73145263D01*
X54202099Y-73034359D01*
X54445323Y-72388407D01*
X54422836Y-71698547D01*
X54202099Y-71165641D01*
X53924868Y-71054737D01*
X52879605Y-72100000D01*
X52520395Y-72100000D01*
X51475132Y-71054737D01*
X51197901Y-71165641D01*
X50954677Y-71811593D01*
X39497000Y-71811593D01*
X39497000Y-70875132D01*
X51654737Y-70875132D01*
X52700000Y-71920395D01*
X53745263Y-70875132D01*
X53634359Y-70597901D01*
X52988407Y-70354677D01*
X52298547Y-70377164D01*
X51765641Y-70597901D01*
X51654737Y-70875132D01*
X39497000Y-70875132D01*
X39497000Y-68324868D01*
X51654737Y-68324868D01*
X51765641Y-68602099D01*
X52411593Y-68845323D01*
X53101453Y-68822836D01*
X53634359Y-68602099D01*
X53745263Y-68324868D01*
X52700000Y-67279605D01*
X51654737Y-68324868D01*
X39497000Y-68324868D01*
X39497000Y-66811593D01*
X50954677Y-66811593D01*
X50977164Y-67501453D01*
X51197901Y-68034359D01*
X51475132Y-68145263D01*
X52520395Y-67100000D01*
X52879605Y-67100000D01*
X53924868Y-68145263D01*
X54202099Y-68034359D01*
X54445323Y-67388407D01*
X54424673Y-66754887D01*
X55965000Y-66754887D01*
X55965000Y-67445113D01*
X56229138Y-68082799D01*
X56717201Y-68570862D01*
X56988801Y-68683362D01*
X56988800Y-70516638D01*
X56717201Y-70629138D01*
X56229138Y-71117201D01*
X55965000Y-71754887D01*
X55965000Y-72445113D01*
X56229138Y-73082799D01*
X56717201Y-73570862D01*
X57354887Y-73835000D01*
X58045113Y-73835000D01*
X58682799Y-73570862D01*
X58928793Y-73324868D01*
X66654737Y-73324868D01*
X66765641Y-73602099D01*
X67411593Y-73845323D01*
X68101453Y-73822836D01*
X68634359Y-73602099D01*
X68745263Y-73324868D01*
X67700000Y-72279605D01*
X66654737Y-73324868D01*
X58928793Y-73324868D01*
X59170862Y-73082799D01*
X59435000Y-72445113D01*
X59435000Y-71811593D01*
X65954677Y-71811593D01*
X65977164Y-72501453D01*
X66197901Y-73034359D01*
X66475132Y-73145263D01*
X67520395Y-72100000D01*
X67879605Y-72100000D01*
X68924868Y-73145263D01*
X69202099Y-73034359D01*
X69445323Y-72388407D01*
X69422836Y-71698547D01*
X69202099Y-71165641D01*
X68924868Y-71054737D01*
X67879605Y-72100000D01*
X67520395Y-72100000D01*
X66475132Y-71054737D01*
X66197901Y-71165641D01*
X65954677Y-71811593D01*
X59435000Y-71811593D01*
X59435000Y-71754887D01*
X59170862Y-71117201D01*
X58928793Y-70875132D01*
X66654737Y-70875132D01*
X67700000Y-71920395D01*
X68745263Y-70875132D01*
X68634359Y-70597901D01*
X67988407Y-70354677D01*
X67298547Y-70377164D01*
X66765641Y-70597901D01*
X66654737Y-70875132D01*
X58928793Y-70875132D01*
X58682799Y-70629138D01*
X58411200Y-70516638D01*
X58411200Y-68683362D01*
X58682799Y-68570862D01*
X58928793Y-68324868D01*
X66654737Y-68324868D01*
X66765641Y-68602099D01*
X67411593Y-68845323D01*
X68101453Y-68822836D01*
X68634359Y-68602099D01*
X68745263Y-68324868D01*
X67700000Y-67279605D01*
X66654737Y-68324868D01*
X58928793Y-68324868D01*
X59170862Y-68082799D01*
X59435000Y-67445113D01*
X59435000Y-66811593D01*
X65954677Y-66811593D01*
X65977164Y-67501453D01*
X66197901Y-68034359D01*
X66475132Y-68145263D01*
X67520395Y-67100000D01*
X67879605Y-67100000D01*
X68924868Y-68145263D01*
X69202099Y-68034359D01*
X69445323Y-67388407D01*
X69424673Y-66754887D01*
X70965000Y-66754887D01*
X70965000Y-67445113D01*
X71229138Y-68082799D01*
X71717201Y-68570862D01*
X71988800Y-68683362D01*
X71988801Y-70516638D01*
X71717201Y-70629138D01*
X71229138Y-71117201D01*
X70965000Y-71754887D01*
X70965000Y-72445113D01*
X71229138Y-73082799D01*
X71717201Y-73570862D01*
X72354887Y-73835000D01*
X73045113Y-73835000D01*
X73682799Y-73570862D01*
X73928793Y-73324868D01*
X81654737Y-73324868D01*
X81765641Y-73602099D01*
X82411593Y-73845323D01*
X83101453Y-73822836D01*
X83634359Y-73602099D01*
X83745263Y-73324868D01*
X82700000Y-72279605D01*
X81654737Y-73324868D01*
X73928793Y-73324868D01*
X74170862Y-73082799D01*
X74435000Y-72445113D01*
X74435000Y-71811593D01*
X80954677Y-71811593D01*
X80977164Y-72501453D01*
X81197901Y-73034359D01*
X81475132Y-73145263D01*
X82520395Y-72100000D01*
X82879605Y-72100000D01*
X83924868Y-73145263D01*
X84202099Y-73034359D01*
X84445323Y-72388407D01*
X84422836Y-71698547D01*
X84202099Y-71165641D01*
X83924868Y-71054737D01*
X82879605Y-72100000D01*
X82520395Y-72100000D01*
X81475132Y-71054737D01*
X81197901Y-71165641D01*
X80954677Y-71811593D01*
X74435000Y-71811593D01*
X74435000Y-71754887D01*
X74170862Y-71117201D01*
X73928793Y-70875132D01*
X81654737Y-70875132D01*
X82700000Y-71920395D01*
X83745263Y-70875132D01*
X83634359Y-70597901D01*
X82988407Y-70354677D01*
X82298547Y-70377164D01*
X81765641Y-70597901D01*
X81654737Y-70875132D01*
X73928793Y-70875132D01*
X73682799Y-70629138D01*
X73411200Y-70516638D01*
X73411200Y-68683362D01*
X73682799Y-68570862D01*
X73928793Y-68324868D01*
X81654737Y-68324868D01*
X81765641Y-68602099D01*
X82411593Y-68845323D01*
X83101453Y-68822836D01*
X83634359Y-68602099D01*
X83745263Y-68324868D01*
X82700000Y-67279605D01*
X81654737Y-68324868D01*
X73928793Y-68324868D01*
X74170862Y-68082799D01*
X74435000Y-67445113D01*
X74435000Y-66811593D01*
X80954677Y-66811593D01*
X80977164Y-67501453D01*
X81197901Y-68034359D01*
X81475132Y-68145263D01*
X82520395Y-67100000D01*
X82879605Y-67100000D01*
X83924868Y-68145263D01*
X84202099Y-68034359D01*
X84445323Y-67388407D01*
X84424673Y-66754887D01*
X85965000Y-66754887D01*
X85965000Y-67445113D01*
X86229138Y-68082799D01*
X86717201Y-68570862D01*
X86988800Y-68683362D01*
X86988801Y-70516638D01*
X86717201Y-70629138D01*
X86229138Y-71117201D01*
X85965000Y-71754887D01*
X85965000Y-72445113D01*
X86229138Y-73082799D01*
X86717201Y-73570862D01*
X87354887Y-73835000D01*
X88045113Y-73835000D01*
X88682799Y-73570862D01*
X88928793Y-73324868D01*
X96654737Y-73324868D01*
X96765641Y-73602099D01*
X97411593Y-73845323D01*
X98101453Y-73822836D01*
X98634359Y-73602099D01*
X98745263Y-73324868D01*
X97700000Y-72279605D01*
X96654737Y-73324868D01*
X88928793Y-73324868D01*
X89170862Y-73082799D01*
X89435000Y-72445113D01*
X89435000Y-71811593D01*
X95954677Y-71811593D01*
X95977164Y-72501453D01*
X96197901Y-73034359D01*
X96475132Y-73145263D01*
X97520395Y-72100000D01*
X97879605Y-72100000D01*
X98924868Y-73145263D01*
X99202099Y-73034359D01*
X99445323Y-72388407D01*
X99422836Y-71698547D01*
X99202099Y-71165641D01*
X98924868Y-71054737D01*
X97879605Y-72100000D01*
X97520395Y-72100000D01*
X96475132Y-71054737D01*
X96197901Y-71165641D01*
X95954677Y-71811593D01*
X89435000Y-71811593D01*
X89435000Y-71754887D01*
X89170862Y-71117201D01*
X88928793Y-70875132D01*
X96654737Y-70875132D01*
X97700000Y-71920395D01*
X98745263Y-70875132D01*
X98634359Y-70597901D01*
X97988407Y-70354677D01*
X97298547Y-70377164D01*
X96765641Y-70597901D01*
X96654737Y-70875132D01*
X88928793Y-70875132D01*
X88682799Y-70629138D01*
X88411200Y-70516638D01*
X88411200Y-68683362D01*
X88682799Y-68570862D01*
X88928793Y-68324868D01*
X96654737Y-68324868D01*
X96765641Y-68602099D01*
X97411593Y-68845323D01*
X98101453Y-68822836D01*
X98634359Y-68602099D01*
X98745263Y-68324868D01*
X97700000Y-67279605D01*
X96654737Y-68324868D01*
X88928793Y-68324868D01*
X89170862Y-68082799D01*
X89435000Y-67445113D01*
X89435000Y-66811593D01*
X95954677Y-66811593D01*
X95977164Y-67501453D01*
X96197901Y-68034359D01*
X96475132Y-68145263D01*
X97520395Y-67100000D01*
X97879605Y-67100000D01*
X98924868Y-68145263D01*
X99202099Y-68034359D01*
X99445323Y-67388407D01*
X99424673Y-66754887D01*
X100965000Y-66754887D01*
X100965000Y-67445113D01*
X101229138Y-68082799D01*
X101717201Y-68570862D01*
X101988800Y-68683362D01*
X101988801Y-70516638D01*
X101717201Y-70629138D01*
X101229138Y-71117201D01*
X100965000Y-71754887D01*
X100965000Y-72445113D01*
X101229138Y-73082799D01*
X101717201Y-73570862D01*
X102354887Y-73835000D01*
X103045113Y-73835000D01*
X103682799Y-73570862D01*
X103928793Y-73324868D01*
X111654737Y-73324868D01*
X111765641Y-73602099D01*
X112411593Y-73845323D01*
X113101453Y-73822836D01*
X113634359Y-73602099D01*
X113745263Y-73324868D01*
X112700000Y-72279605D01*
X111654737Y-73324868D01*
X103928793Y-73324868D01*
X104170862Y-73082799D01*
X104435000Y-72445113D01*
X104435000Y-71811593D01*
X110954677Y-71811593D01*
X110977164Y-72501453D01*
X111197901Y-73034359D01*
X111475132Y-73145263D01*
X112520395Y-72100000D01*
X112879605Y-72100000D01*
X113924868Y-73145263D01*
X114202099Y-73034359D01*
X114445323Y-72388407D01*
X114422836Y-71698547D01*
X114202099Y-71165641D01*
X113924868Y-71054737D01*
X112879605Y-72100000D01*
X112520395Y-72100000D01*
X111475132Y-71054737D01*
X111197901Y-71165641D01*
X110954677Y-71811593D01*
X104435000Y-71811593D01*
X104435000Y-71754887D01*
X104170862Y-71117201D01*
X103928793Y-70875132D01*
X111654737Y-70875132D01*
X112700000Y-71920395D01*
X113745263Y-70875132D01*
X113634359Y-70597901D01*
X112988407Y-70354677D01*
X112298547Y-70377164D01*
X111765641Y-70597901D01*
X111654737Y-70875132D01*
X103928793Y-70875132D01*
X103682799Y-70629138D01*
X103411200Y-70516638D01*
X103411200Y-68683362D01*
X103682799Y-68570862D01*
X103928793Y-68324868D01*
X111654737Y-68324868D01*
X111765641Y-68602099D01*
X112411593Y-68845323D01*
X113101453Y-68822836D01*
X113634359Y-68602099D01*
X113745263Y-68324868D01*
X112700000Y-67279605D01*
X111654737Y-68324868D01*
X103928793Y-68324868D01*
X104170862Y-68082799D01*
X104435000Y-67445113D01*
X104435000Y-66811593D01*
X110954677Y-66811593D01*
X110977164Y-67501453D01*
X111197901Y-68034359D01*
X111475132Y-68145263D01*
X112520395Y-67100000D01*
X112879605Y-67100000D01*
X113924868Y-68145263D01*
X114202099Y-68034359D01*
X114445323Y-67388407D01*
X114424673Y-66754887D01*
X115965000Y-66754887D01*
X115965000Y-67445113D01*
X116229138Y-68082799D01*
X116717201Y-68570862D01*
X116988800Y-68683362D01*
X116988801Y-70516638D01*
X116717201Y-70629138D01*
X116229138Y-71117201D01*
X115965000Y-71754887D01*
X115965000Y-72445113D01*
X116229138Y-73082799D01*
X116717201Y-73570862D01*
X117354887Y-73835000D01*
X118045113Y-73835000D01*
X118682799Y-73570862D01*
X118928793Y-73324868D01*
X126654737Y-73324868D01*
X126765641Y-73602099D01*
X127411593Y-73845323D01*
X128101453Y-73822836D01*
X128634359Y-73602099D01*
X128745263Y-73324868D01*
X127700000Y-72279605D01*
X126654737Y-73324868D01*
X118928793Y-73324868D01*
X119170862Y-73082799D01*
X119435000Y-72445113D01*
X119435000Y-71811593D01*
X125954677Y-71811593D01*
X125977164Y-72501453D01*
X126197901Y-73034359D01*
X126475132Y-73145263D01*
X127520395Y-72100000D01*
X127879605Y-72100000D01*
X128924868Y-73145263D01*
X129202099Y-73034359D01*
X129445323Y-72388407D01*
X129422836Y-71698547D01*
X129202099Y-71165641D01*
X128924868Y-71054737D01*
X127879605Y-72100000D01*
X127520395Y-72100000D01*
X126475132Y-71054737D01*
X126197901Y-71165641D01*
X125954677Y-71811593D01*
X119435000Y-71811593D01*
X119435000Y-71754887D01*
X119170862Y-71117201D01*
X118928793Y-70875132D01*
X126654737Y-70875132D01*
X127700000Y-71920395D01*
X128745263Y-70875132D01*
X128634359Y-70597901D01*
X127988407Y-70354677D01*
X127298547Y-70377164D01*
X126765641Y-70597901D01*
X126654737Y-70875132D01*
X118928793Y-70875132D01*
X118682799Y-70629138D01*
X118411200Y-70516638D01*
X118411200Y-68683362D01*
X118682799Y-68570862D01*
X118928793Y-68324868D01*
X126654737Y-68324868D01*
X126765641Y-68602099D01*
X127411593Y-68845323D01*
X128101453Y-68822836D01*
X128634359Y-68602099D01*
X128745263Y-68324868D01*
X127700000Y-67279605D01*
X126654737Y-68324868D01*
X118928793Y-68324868D01*
X119170862Y-68082799D01*
X119435000Y-67445113D01*
X119435000Y-66811593D01*
X125954677Y-66811593D01*
X125977164Y-67501453D01*
X126197901Y-68034359D01*
X126475132Y-68145263D01*
X127520395Y-67100000D01*
X127879605Y-67100000D01*
X128924868Y-68145263D01*
X129202099Y-68034359D01*
X129445323Y-67388407D01*
X129424673Y-66754887D01*
X130965000Y-66754887D01*
X130965000Y-67445113D01*
X131229138Y-68082799D01*
X131717201Y-68570862D01*
X131988800Y-68683362D01*
X131988801Y-70516638D01*
X131717201Y-70629138D01*
X131229138Y-71117201D01*
X130965000Y-71754887D01*
X130965000Y-72445113D01*
X131229138Y-73082799D01*
X131717201Y-73570862D01*
X132354887Y-73835000D01*
X133045113Y-73835000D01*
X133682799Y-73570862D01*
X134170862Y-73082799D01*
X134435000Y-72445113D01*
X134435000Y-71754887D01*
X134170862Y-71117201D01*
X133682799Y-70629138D01*
X133411200Y-70516638D01*
X133411200Y-68683362D01*
X133682799Y-68570862D01*
X134170862Y-68082799D01*
X134435000Y-67445113D01*
X134435000Y-66754887D01*
X134170862Y-66117201D01*
X133929411Y-65875750D01*
X149695000Y-65875750D01*
X149695000Y-66966310D01*
X149791673Y-67199699D01*
X149970302Y-67378327D01*
X150203691Y-67475000D01*
X152044250Y-67475000D01*
X152203000Y-67316250D01*
X152203000Y-65717000D01*
X152457000Y-65717000D01*
X152457000Y-67316250D01*
X152615750Y-67475000D01*
X154456309Y-67475000D01*
X154689698Y-67378327D01*
X154868327Y-67199699D01*
X154965000Y-66966310D01*
X154965000Y-65875750D01*
X154806250Y-65717000D01*
X152457000Y-65717000D01*
X152203000Y-65717000D01*
X149853750Y-65717000D01*
X149695000Y-65875750D01*
X133929411Y-65875750D01*
X133682799Y-65629138D01*
X133045113Y-65365000D01*
X132354887Y-65365000D01*
X131717201Y-65629138D01*
X131229138Y-66117201D01*
X130965000Y-66754887D01*
X129424673Y-66754887D01*
X129422836Y-66698547D01*
X129202099Y-66165641D01*
X128924868Y-66054737D01*
X127879605Y-67100000D01*
X127520395Y-67100000D01*
X126475132Y-66054737D01*
X126197901Y-66165641D01*
X125954677Y-66811593D01*
X119435000Y-66811593D01*
X119435000Y-66754887D01*
X119170862Y-66117201D01*
X118928793Y-65875132D01*
X126654737Y-65875132D01*
X127700000Y-66920395D01*
X128745263Y-65875132D01*
X128634359Y-65597901D01*
X127988407Y-65354677D01*
X127298547Y-65377164D01*
X126765641Y-65597901D01*
X126654737Y-65875132D01*
X118928793Y-65875132D01*
X118682799Y-65629138D01*
X118045113Y-65365000D01*
X117354887Y-65365000D01*
X116717201Y-65629138D01*
X116229138Y-66117201D01*
X115965000Y-66754887D01*
X114424673Y-66754887D01*
X114422836Y-66698547D01*
X114202099Y-66165641D01*
X113924868Y-66054737D01*
X112879605Y-67100000D01*
X112520395Y-67100000D01*
X111475132Y-66054737D01*
X111197901Y-66165641D01*
X110954677Y-66811593D01*
X104435000Y-66811593D01*
X104435000Y-66754887D01*
X104170862Y-66117201D01*
X103928793Y-65875132D01*
X111654737Y-65875132D01*
X112700000Y-66920395D01*
X113745263Y-65875132D01*
X113634359Y-65597901D01*
X112988407Y-65354677D01*
X112298547Y-65377164D01*
X111765641Y-65597901D01*
X111654737Y-65875132D01*
X103928793Y-65875132D01*
X103682799Y-65629138D01*
X103045113Y-65365000D01*
X102354887Y-65365000D01*
X101717201Y-65629138D01*
X101229138Y-66117201D01*
X100965000Y-66754887D01*
X99424673Y-66754887D01*
X99422836Y-66698547D01*
X99202099Y-66165641D01*
X98924868Y-66054737D01*
X97879605Y-67100000D01*
X97520395Y-67100000D01*
X96475132Y-66054737D01*
X96197901Y-66165641D01*
X95954677Y-66811593D01*
X89435000Y-66811593D01*
X89435000Y-66754887D01*
X89170862Y-66117201D01*
X88928793Y-65875132D01*
X96654737Y-65875132D01*
X97700000Y-66920395D01*
X98745263Y-65875132D01*
X98634359Y-65597901D01*
X97988407Y-65354677D01*
X97298547Y-65377164D01*
X96765641Y-65597901D01*
X96654737Y-65875132D01*
X88928793Y-65875132D01*
X88682799Y-65629138D01*
X88045113Y-65365000D01*
X87354887Y-65365000D01*
X86717201Y-65629138D01*
X86229138Y-66117201D01*
X85965000Y-66754887D01*
X84424673Y-66754887D01*
X84422836Y-66698547D01*
X84202099Y-66165641D01*
X83924868Y-66054737D01*
X82879605Y-67100000D01*
X82520395Y-67100000D01*
X81475132Y-66054737D01*
X81197901Y-66165641D01*
X80954677Y-66811593D01*
X74435000Y-66811593D01*
X74435000Y-66754887D01*
X74170862Y-66117201D01*
X73928793Y-65875132D01*
X81654737Y-65875132D01*
X82700000Y-66920395D01*
X83745263Y-65875132D01*
X83634359Y-65597901D01*
X82988407Y-65354677D01*
X82298547Y-65377164D01*
X81765641Y-65597901D01*
X81654737Y-65875132D01*
X73928793Y-65875132D01*
X73682799Y-65629138D01*
X73045113Y-65365000D01*
X72354887Y-65365000D01*
X71717201Y-65629138D01*
X71229138Y-66117201D01*
X70965000Y-66754887D01*
X69424673Y-66754887D01*
X69422836Y-66698547D01*
X69202099Y-66165641D01*
X68924868Y-66054737D01*
X67879605Y-67100000D01*
X67520395Y-67100000D01*
X66475132Y-66054737D01*
X66197901Y-66165641D01*
X65954677Y-66811593D01*
X59435000Y-66811593D01*
X59435000Y-66754887D01*
X59170862Y-66117201D01*
X58928793Y-65875132D01*
X66654737Y-65875132D01*
X67700000Y-66920395D01*
X68745263Y-65875132D01*
X68634359Y-65597901D01*
X67988407Y-65354677D01*
X67298547Y-65377164D01*
X66765641Y-65597901D01*
X66654737Y-65875132D01*
X58928793Y-65875132D01*
X58682799Y-65629138D01*
X58045113Y-65365000D01*
X57354887Y-65365000D01*
X56717201Y-65629138D01*
X56229138Y-66117201D01*
X55965000Y-66754887D01*
X54424673Y-66754887D01*
X54422836Y-66698547D01*
X54202099Y-66165641D01*
X53924868Y-66054737D01*
X52879605Y-67100000D01*
X52520395Y-67100000D01*
X51475132Y-66054737D01*
X51197901Y-66165641D01*
X50954677Y-66811593D01*
X39497000Y-66811593D01*
X39497000Y-64215050D01*
X40295000Y-64215050D01*
X40295000Y-64964950D01*
X40581974Y-65657767D01*
X41112233Y-66188026D01*
X41805050Y-66475000D01*
X42554950Y-66475000D01*
X43247767Y-66188026D01*
X43560661Y-65875132D01*
X51654737Y-65875132D01*
X52700000Y-66920395D01*
X53745263Y-65875132D01*
X53634359Y-65597901D01*
X52988407Y-65354677D01*
X52298547Y-65377164D01*
X51765641Y-65597901D01*
X51654737Y-65875132D01*
X43560661Y-65875132D01*
X43778026Y-65657767D01*
X44065000Y-64964950D01*
X44065000Y-64215050D01*
X44064437Y-64213690D01*
X149695000Y-64213690D01*
X149695000Y-65304250D01*
X149853750Y-65463000D01*
X152203000Y-65463000D01*
X152203000Y-63863750D01*
X152457000Y-63863750D01*
X152457000Y-65463000D01*
X154806250Y-65463000D01*
X154965000Y-65304250D01*
X154965000Y-64213690D01*
X154868327Y-63980301D01*
X154689698Y-63801673D01*
X154456309Y-63705000D01*
X152615750Y-63705000D01*
X152457000Y-63863750D01*
X152203000Y-63863750D01*
X152044250Y-63705000D01*
X150203691Y-63705000D01*
X149970302Y-63801673D01*
X149791673Y-63980301D01*
X149695000Y-64213690D01*
X44064437Y-64213690D01*
X43778026Y-63522233D01*
X43247767Y-62991974D01*
X42554950Y-62705000D01*
X41805050Y-62705000D01*
X41112233Y-62991974D01*
X40581974Y-63522233D01*
X40295000Y-64215050D01*
X39497000Y-64215050D01*
X39497000Y-58690000D01*
X51997560Y-58690000D01*
X51997560Y-60490000D01*
X52046843Y-60737765D01*
X52187191Y-60947809D01*
X52397235Y-61088157D01*
X52645000Y-61137440D01*
X53715000Y-61137440D01*
X53962765Y-61088157D01*
X54042736Y-61034722D01*
X54142617Y-61083900D01*
X54323000Y-60958244D01*
X54323000Y-60688280D01*
X54362440Y-60490000D01*
X54362440Y-59109770D01*
X54550000Y-59109770D01*
X54550000Y-60070231D01*
X54577000Y-60205969D01*
X54577000Y-60958244D01*
X54757383Y-61083900D01*
X55071850Y-60929066D01*
X55263490Y-61057115D01*
X55720000Y-61147921D01*
X56176511Y-61057115D01*
X56355001Y-60937853D01*
X56533490Y-61057115D01*
X56990000Y-61147921D01*
X57446511Y-61057115D01*
X57833523Y-60798523D01*
X58092115Y-60411511D01*
X58160000Y-60070230D01*
X58160000Y-59109769D01*
X58092115Y-58768489D01*
X58039671Y-58690000D01*
X66997560Y-58690000D01*
X66997560Y-60490000D01*
X67046843Y-60737765D01*
X67187191Y-60947809D01*
X67397235Y-61088157D01*
X67645000Y-61137440D01*
X68715000Y-61137440D01*
X68962765Y-61088157D01*
X69042736Y-61034722D01*
X69142617Y-61083900D01*
X69323000Y-60958244D01*
X69323000Y-60688280D01*
X69362440Y-60490000D01*
X69362440Y-59109770D01*
X69550000Y-59109770D01*
X69550000Y-60070231D01*
X69577000Y-60205969D01*
X69577000Y-60958244D01*
X69757383Y-61083900D01*
X70071850Y-60929066D01*
X70263490Y-61057115D01*
X70720000Y-61147921D01*
X71176511Y-61057115D01*
X71355001Y-60937853D01*
X71533490Y-61057115D01*
X71990000Y-61147921D01*
X72446511Y-61057115D01*
X72833523Y-60798523D01*
X73092115Y-60411511D01*
X73160000Y-60070230D01*
X73160000Y-59109769D01*
X73092115Y-58768489D01*
X73039671Y-58690000D01*
X81997560Y-58690000D01*
X81997560Y-60490000D01*
X82046843Y-60737765D01*
X82187191Y-60947809D01*
X82397235Y-61088157D01*
X82645000Y-61137440D01*
X83715000Y-61137440D01*
X83962765Y-61088157D01*
X84042736Y-61034722D01*
X84142617Y-61083900D01*
X84323000Y-60958244D01*
X84323000Y-60688280D01*
X84362440Y-60490000D01*
X84362440Y-59109770D01*
X84550000Y-59109770D01*
X84550000Y-60070231D01*
X84577000Y-60205969D01*
X84577000Y-60958244D01*
X84757383Y-61083900D01*
X85071850Y-60929066D01*
X85263490Y-61057115D01*
X85720000Y-61147921D01*
X86176511Y-61057115D01*
X86355001Y-60937853D01*
X86533490Y-61057115D01*
X86990000Y-61147921D01*
X87446511Y-61057115D01*
X87833523Y-60798523D01*
X88092115Y-60411511D01*
X88160000Y-60070230D01*
X88160000Y-59109769D01*
X88092115Y-58768489D01*
X88039671Y-58690000D01*
X96997560Y-58690000D01*
X96997560Y-60490000D01*
X97046843Y-60737765D01*
X97187191Y-60947809D01*
X97397235Y-61088157D01*
X97645000Y-61137440D01*
X98715000Y-61137440D01*
X98962765Y-61088157D01*
X99042736Y-61034722D01*
X99142617Y-61083900D01*
X99323000Y-60958244D01*
X99323000Y-60688280D01*
X99362440Y-60490000D01*
X99362440Y-59109770D01*
X99550000Y-59109770D01*
X99550000Y-60070231D01*
X99577000Y-60205969D01*
X99577000Y-60958244D01*
X99757383Y-61083900D01*
X100071850Y-60929066D01*
X100263490Y-61057115D01*
X100720000Y-61147921D01*
X101176511Y-61057115D01*
X101355001Y-60937853D01*
X101533490Y-61057115D01*
X101990000Y-61147921D01*
X102446511Y-61057115D01*
X102833523Y-60798523D01*
X103092115Y-60411511D01*
X103160000Y-60070230D01*
X103160000Y-59109769D01*
X103092115Y-58768489D01*
X103039671Y-58690000D01*
X111997560Y-58690000D01*
X111997560Y-60490000D01*
X112046843Y-60737765D01*
X112187191Y-60947809D01*
X112397235Y-61088157D01*
X112645000Y-61137440D01*
X113715000Y-61137440D01*
X113962765Y-61088157D01*
X114042736Y-61034722D01*
X114142617Y-61083900D01*
X114323000Y-60958244D01*
X114323000Y-60688280D01*
X114362440Y-60490000D01*
X114362440Y-59109770D01*
X114550000Y-59109770D01*
X114550000Y-60070231D01*
X114577000Y-60205969D01*
X114577000Y-60958244D01*
X114757383Y-61083900D01*
X115071850Y-60929066D01*
X115263490Y-61057115D01*
X115720000Y-61147921D01*
X116176511Y-61057115D01*
X116355001Y-60937853D01*
X116533490Y-61057115D01*
X116990000Y-61147921D01*
X117446511Y-61057115D01*
X117833523Y-60798523D01*
X118092115Y-60411511D01*
X118160000Y-60070230D01*
X118160000Y-59109769D01*
X118092115Y-58768489D01*
X118039671Y-58690000D01*
X126997560Y-58690000D01*
X126997560Y-60490000D01*
X127046843Y-60737765D01*
X127187191Y-60947809D01*
X127397235Y-61088157D01*
X127645000Y-61137440D01*
X128715000Y-61137440D01*
X128962765Y-61088157D01*
X129042736Y-61034722D01*
X129142617Y-61083900D01*
X129323000Y-60958244D01*
X129323000Y-60688280D01*
X129362440Y-60490000D01*
X129362440Y-59109770D01*
X129550000Y-59109770D01*
X129550000Y-60070231D01*
X129577000Y-60205969D01*
X129577000Y-60958244D01*
X129757383Y-61083900D01*
X130071850Y-60929066D01*
X130263490Y-61057115D01*
X130720000Y-61147921D01*
X131176511Y-61057115D01*
X131355001Y-60937853D01*
X131533490Y-61057115D01*
X131990000Y-61147921D01*
X132446511Y-61057115D01*
X132833523Y-60798523D01*
X133092115Y-60411511D01*
X133160000Y-60070230D01*
X133160000Y-59109769D01*
X133092115Y-58768489D01*
X133039671Y-58690000D01*
X151997560Y-58690000D01*
X151997560Y-60490000D01*
X152046843Y-60737765D01*
X152187191Y-60947809D01*
X152397235Y-61088157D01*
X152645000Y-61137440D01*
X153715000Y-61137440D01*
X153962765Y-61088157D01*
X154042736Y-61034722D01*
X154142617Y-61083900D01*
X154323000Y-60958244D01*
X154323000Y-60688280D01*
X154362440Y-60490000D01*
X154362440Y-59109770D01*
X154550000Y-59109770D01*
X154550000Y-60070231D01*
X154577000Y-60205969D01*
X154577000Y-60958244D01*
X154757383Y-61083900D01*
X155008801Y-60960109D01*
X155008800Y-62707558D01*
X154994868Y-62777600D01*
X155008800Y-62847641D01*
X155008800Y-62847645D01*
X155050064Y-63055095D01*
X155050065Y-63055096D01*
X155167576Y-63230964D01*
X155167578Y-63230966D01*
X155207254Y-63290345D01*
X155266634Y-63330022D01*
X155910752Y-63974140D01*
X155831843Y-64092235D01*
X155782560Y-64340000D01*
X155782560Y-66840000D01*
X155831843Y-67087765D01*
X155972191Y-67297809D01*
X156182235Y-67438157D01*
X156430000Y-67487440D01*
X160430000Y-67487440D01*
X160677765Y-67438157D01*
X160887809Y-67297809D01*
X161028157Y-67087765D01*
X161077440Y-66840000D01*
X161077440Y-64340000D01*
X161028157Y-64092235D01*
X160887809Y-63882191D01*
X160677765Y-63741843D01*
X160430000Y-63692560D01*
X157640749Y-63692560D01*
X156587423Y-62639234D01*
X173871000Y-62639234D01*
X173871000Y-63090766D01*
X174043793Y-63507926D01*
X174363074Y-63827207D01*
X174780234Y-64000000D01*
X175231766Y-64000000D01*
X175648926Y-63827207D01*
X175968207Y-63507926D01*
X176141000Y-63090766D01*
X176141000Y-62941200D01*
X178872144Y-62941200D01*
X178760500Y-63210734D01*
X178760500Y-63662266D01*
X178930010Y-64071500D01*
X178760500Y-64480734D01*
X178760500Y-64932266D01*
X178930010Y-65341500D01*
X178760500Y-65750734D01*
X178760500Y-66202266D01*
X178933293Y-66619426D01*
X179252574Y-66938707D01*
X179669734Y-67111500D01*
X180121266Y-67111500D01*
X180538426Y-66938707D01*
X180805933Y-66671200D01*
X181263949Y-66671200D01*
X181322769Y-66759231D01*
X181597699Y-66942932D01*
X181922000Y-67007440D01*
X182822000Y-67007440D01*
X183146301Y-66942932D01*
X183421231Y-66759231D01*
X183469026Y-66687700D01*
X184018067Y-66687700D01*
X184142927Y-66812560D01*
X183872000Y-66812560D01*
X183528565Y-66880874D01*
X183237414Y-67075414D01*
X183042874Y-67366565D01*
X182974560Y-67710000D01*
X182974560Y-69310000D01*
X183042874Y-69653435D01*
X183237414Y-69944586D01*
X183528565Y-70139126D01*
X183872000Y-70207440D01*
X186372000Y-70207440D01*
X186715435Y-70139126D01*
X187006586Y-69944586D01*
X187201126Y-69653435D01*
X187269440Y-69310000D01*
X187269440Y-67710000D01*
X187201126Y-67366565D01*
X187006586Y-67075414D01*
X186715435Y-66880874D01*
X186372000Y-66812560D01*
X185681073Y-66812560D01*
X185874207Y-66619426D01*
X186047000Y-66202266D01*
X186047000Y-65750734D01*
X185874207Y-65333574D01*
X185554926Y-65014293D01*
X185137766Y-64841500D01*
X184686234Y-64841500D01*
X184269074Y-65014293D01*
X184018067Y-65265300D01*
X183584219Y-65265300D01*
X183604932Y-65234301D01*
X183669440Y-64910000D01*
X183669440Y-64510000D01*
X183610771Y-64215050D01*
X202295000Y-64215050D01*
X202295000Y-64964950D01*
X202581974Y-65657767D01*
X203112233Y-66188026D01*
X203805050Y-66475000D01*
X204554950Y-66475000D01*
X205247767Y-66188026D01*
X205778026Y-65657767D01*
X206065000Y-64964950D01*
X206065000Y-64215050D01*
X205778026Y-63522233D01*
X205247767Y-62991974D01*
X204554950Y-62705000D01*
X203805050Y-62705000D01*
X203112233Y-62991974D01*
X202581974Y-63522233D01*
X202295000Y-64215050D01*
X183610771Y-64215050D01*
X183604932Y-64185699D01*
X183537648Y-64085000D01*
X183604932Y-63984301D01*
X183669440Y-63660000D01*
X183669440Y-63260000D01*
X183604932Y-62935699D01*
X183537648Y-62835000D01*
X183604932Y-62734301D01*
X183669440Y-62410000D01*
X183669440Y-62010000D01*
X183604932Y-61685699D01*
X183537648Y-61585000D01*
X183604932Y-61484301D01*
X183669440Y-61160000D01*
X183669440Y-60760000D01*
X183604932Y-60435699D01*
X183586090Y-60407500D01*
X183657000Y-60236309D01*
X183657000Y-59995750D01*
X183498250Y-59837000D01*
X182499000Y-59837000D01*
X182499000Y-59857000D01*
X182245000Y-59857000D01*
X182245000Y-59837000D01*
X181245750Y-59837000D01*
X181087000Y-59995750D01*
X181087000Y-60236309D01*
X181092174Y-60248800D01*
X180789433Y-60248800D01*
X180538426Y-59997793D01*
X180121266Y-59825000D01*
X179669734Y-59825000D01*
X179252574Y-59997793D01*
X178933293Y-60317074D01*
X178760500Y-60734234D01*
X178760500Y-61185766D01*
X178898447Y-61518800D01*
X175711042Y-61518800D01*
X175641000Y-61504868D01*
X175570958Y-61518800D01*
X175570954Y-61518800D01*
X175363504Y-61560064D01*
X175363502Y-61560065D01*
X175363503Y-61560065D01*
X175187635Y-61677576D01*
X175187633Y-61677578D01*
X175128254Y-61717254D01*
X175119737Y-61730000D01*
X174780234Y-61730000D01*
X174363074Y-61902793D01*
X174043793Y-62222074D01*
X173871000Y-62639234D01*
X156587423Y-62639234D01*
X156431200Y-62483012D01*
X156431200Y-60988767D01*
X156533490Y-61057115D01*
X156990000Y-61147921D01*
X157446511Y-61057115D01*
X157833523Y-60798523D01*
X158092115Y-60411511D01*
X158160000Y-60070230D01*
X158160000Y-59183691D01*
X181087000Y-59183691D01*
X181087000Y-59424250D01*
X181245750Y-59583000D01*
X182245000Y-59583000D01*
X182245000Y-58833750D01*
X182499000Y-58833750D01*
X182499000Y-59583000D01*
X183498250Y-59583000D01*
X183657000Y-59424250D01*
X183657000Y-59183691D01*
X183560327Y-58950302D01*
X183381699Y-58771673D01*
X183148310Y-58675000D01*
X182657750Y-58675000D01*
X182499000Y-58833750D01*
X182245000Y-58833750D01*
X182086250Y-58675000D01*
X181595690Y-58675000D01*
X181362301Y-58771673D01*
X181183673Y-58950302D01*
X181087000Y-59183691D01*
X158160000Y-59183691D01*
X158160000Y-59109769D01*
X158092115Y-58768489D01*
X157833523Y-58381477D01*
X157446510Y-58122885D01*
X156990000Y-58032079D01*
X156533489Y-58122885D01*
X156355000Y-58242147D01*
X156176510Y-58122885D01*
X155720000Y-58032079D01*
X155263489Y-58122885D01*
X155071849Y-58250934D01*
X154757383Y-58096100D01*
X154577000Y-58221756D01*
X154577000Y-58974032D01*
X154550000Y-59109770D01*
X154362440Y-59109770D01*
X154362440Y-58690000D01*
X154323000Y-58491720D01*
X154323000Y-58221756D01*
X154142617Y-58096100D01*
X154042736Y-58145278D01*
X153962765Y-58091843D01*
X153715000Y-58042560D01*
X152645000Y-58042560D01*
X152397235Y-58091843D01*
X152187191Y-58232191D01*
X152046843Y-58442235D01*
X151997560Y-58690000D01*
X133039671Y-58690000D01*
X132833523Y-58381477D01*
X132446510Y-58122885D01*
X131990000Y-58032079D01*
X131533489Y-58122885D01*
X131355000Y-58242147D01*
X131176510Y-58122885D01*
X130720000Y-58032079D01*
X130263489Y-58122885D01*
X130071849Y-58250934D01*
X129757383Y-58096100D01*
X129577000Y-58221756D01*
X129577000Y-58974032D01*
X129550000Y-59109770D01*
X129362440Y-59109770D01*
X129362440Y-58690000D01*
X129323000Y-58491720D01*
X129323000Y-58221756D01*
X129142617Y-58096100D01*
X129042736Y-58145278D01*
X128962765Y-58091843D01*
X128715000Y-58042560D01*
X127645000Y-58042560D01*
X127397235Y-58091843D01*
X127187191Y-58232191D01*
X127046843Y-58442235D01*
X126997560Y-58690000D01*
X118039671Y-58690000D01*
X117833523Y-58381477D01*
X117446510Y-58122885D01*
X116990000Y-58032079D01*
X116533489Y-58122885D01*
X116355000Y-58242147D01*
X116176510Y-58122885D01*
X115720000Y-58032079D01*
X115263489Y-58122885D01*
X115071849Y-58250934D01*
X114757383Y-58096100D01*
X114577000Y-58221756D01*
X114577000Y-58974032D01*
X114550000Y-59109770D01*
X114362440Y-59109770D01*
X114362440Y-58690000D01*
X114323000Y-58491720D01*
X114323000Y-58221756D01*
X114142617Y-58096100D01*
X114042736Y-58145278D01*
X113962765Y-58091843D01*
X113715000Y-58042560D01*
X112645000Y-58042560D01*
X112397235Y-58091843D01*
X112187191Y-58232191D01*
X112046843Y-58442235D01*
X111997560Y-58690000D01*
X103039671Y-58690000D01*
X102833523Y-58381477D01*
X102446510Y-58122885D01*
X101990000Y-58032079D01*
X101533489Y-58122885D01*
X101355000Y-58242147D01*
X101176510Y-58122885D01*
X100720000Y-58032079D01*
X100263489Y-58122885D01*
X100071849Y-58250934D01*
X99757383Y-58096100D01*
X99577000Y-58221756D01*
X99577000Y-58974032D01*
X99550000Y-59109770D01*
X99362440Y-59109770D01*
X99362440Y-58690000D01*
X99323000Y-58491720D01*
X99323000Y-58221756D01*
X99142617Y-58096100D01*
X99042736Y-58145278D01*
X98962765Y-58091843D01*
X98715000Y-58042560D01*
X97645000Y-58042560D01*
X97397235Y-58091843D01*
X97187191Y-58232191D01*
X97046843Y-58442235D01*
X96997560Y-58690000D01*
X88039671Y-58690000D01*
X87833523Y-58381477D01*
X87446510Y-58122885D01*
X86990000Y-58032079D01*
X86533489Y-58122885D01*
X86355000Y-58242147D01*
X86176510Y-58122885D01*
X85720000Y-58032079D01*
X85263489Y-58122885D01*
X85071849Y-58250934D01*
X84757383Y-58096100D01*
X84577000Y-58221756D01*
X84577000Y-58974032D01*
X84550000Y-59109770D01*
X84362440Y-59109770D01*
X84362440Y-58690000D01*
X84323000Y-58491720D01*
X84323000Y-58221756D01*
X84142617Y-58096100D01*
X84042736Y-58145278D01*
X83962765Y-58091843D01*
X83715000Y-58042560D01*
X82645000Y-58042560D01*
X82397235Y-58091843D01*
X82187191Y-58232191D01*
X82046843Y-58442235D01*
X81997560Y-58690000D01*
X73039671Y-58690000D01*
X72833523Y-58381477D01*
X72446510Y-58122885D01*
X71990000Y-58032079D01*
X71533489Y-58122885D01*
X71355000Y-58242147D01*
X71176510Y-58122885D01*
X70720000Y-58032079D01*
X70263489Y-58122885D01*
X70071849Y-58250934D01*
X69757383Y-58096100D01*
X69577000Y-58221756D01*
X69577000Y-58974032D01*
X69550000Y-59109770D01*
X69362440Y-59109770D01*
X69362440Y-58690000D01*
X69323000Y-58491720D01*
X69323000Y-58221756D01*
X69142617Y-58096100D01*
X69042736Y-58145278D01*
X68962765Y-58091843D01*
X68715000Y-58042560D01*
X67645000Y-58042560D01*
X67397235Y-58091843D01*
X67187191Y-58232191D01*
X67046843Y-58442235D01*
X66997560Y-58690000D01*
X58039671Y-58690000D01*
X57833523Y-58381477D01*
X57446510Y-58122885D01*
X56990000Y-58032079D01*
X56533489Y-58122885D01*
X56355000Y-58242147D01*
X56176510Y-58122885D01*
X55720000Y-58032079D01*
X55263489Y-58122885D01*
X55071849Y-58250934D01*
X54757383Y-58096100D01*
X54577000Y-58221756D01*
X54577000Y-58974032D01*
X54550000Y-59109770D01*
X54362440Y-59109770D01*
X54362440Y-58690000D01*
X54323000Y-58491720D01*
X54323000Y-58221756D01*
X54142617Y-58096100D01*
X54042736Y-58145278D01*
X53962765Y-58091843D01*
X53715000Y-58042560D01*
X52645000Y-58042560D01*
X52397235Y-58091843D01*
X52187191Y-58232191D01*
X52046843Y-58442235D01*
X51997560Y-58690000D01*
X39497000Y-58690000D01*
X39497000Y-56360000D01*
X182974560Y-56360000D01*
X182974560Y-57960000D01*
X183042874Y-58303435D01*
X183237414Y-58594586D01*
X183528565Y-58789126D01*
X183872000Y-58857440D01*
X186372000Y-58857440D01*
X186715435Y-58789126D01*
X187006586Y-58594586D01*
X187201126Y-58303435D01*
X187269440Y-57960000D01*
X187269440Y-56360000D01*
X187201126Y-56016565D01*
X187006586Y-55725414D01*
X186715435Y-55530874D01*
X186372000Y-55462560D01*
X183872000Y-55462560D01*
X183528565Y-55530874D01*
X183237414Y-55725414D01*
X183042874Y-56016565D01*
X182974560Y-56360000D01*
X39497000Y-56360000D01*
X39497000Y-54737000D01*
X206883000Y-54737000D01*
X206883000Y-74168000D01*
X206883000Y-74168000D01*
G37*
X206883000Y-74168000D02*
X39497000Y-74168000D01*
X39497000Y-73324868D01*
X51654737Y-73324868D01*
X51765641Y-73602099D01*
X52411593Y-73845323D01*
X53101453Y-73822836D01*
X53634359Y-73602099D01*
X53745263Y-73324868D01*
X52700000Y-72279605D01*
X51654737Y-73324868D01*
X39497000Y-73324868D01*
X39497000Y-71811593D01*
X50954677Y-71811593D01*
X50977164Y-72501453D01*
X51197901Y-73034359D01*
X51475132Y-73145263D01*
X52520395Y-72100000D01*
X52879605Y-72100000D01*
X53924868Y-73145263D01*
X54202099Y-73034359D01*
X54445323Y-72388407D01*
X54422836Y-71698547D01*
X54202099Y-71165641D01*
X53924868Y-71054737D01*
X52879605Y-72100000D01*
X52520395Y-72100000D01*
X51475132Y-71054737D01*
X51197901Y-71165641D01*
X50954677Y-71811593D01*
X39497000Y-71811593D01*
X39497000Y-70875132D01*
X51654737Y-70875132D01*
X52700000Y-71920395D01*
X53745263Y-70875132D01*
X53634359Y-70597901D01*
X52988407Y-70354677D01*
X52298547Y-70377164D01*
X51765641Y-70597901D01*
X51654737Y-70875132D01*
X39497000Y-70875132D01*
X39497000Y-68324868D01*
X51654737Y-68324868D01*
X51765641Y-68602099D01*
X52411593Y-68845323D01*
X53101453Y-68822836D01*
X53634359Y-68602099D01*
X53745263Y-68324868D01*
X52700000Y-67279605D01*
X51654737Y-68324868D01*
X39497000Y-68324868D01*
X39497000Y-66811593D01*
X50954677Y-66811593D01*
X50977164Y-67501453D01*
X51197901Y-68034359D01*
X51475132Y-68145263D01*
X52520395Y-67100000D01*
X52879605Y-67100000D01*
X53924868Y-68145263D01*
X54202099Y-68034359D01*
X54445323Y-67388407D01*
X54424673Y-66754887D01*
X55965000Y-66754887D01*
X55965000Y-67445113D01*
X56229138Y-68082799D01*
X56717201Y-68570862D01*
X56988801Y-68683362D01*
X56988800Y-70516638D01*
X56717201Y-70629138D01*
X56229138Y-71117201D01*
X55965000Y-71754887D01*
X55965000Y-72445113D01*
X56229138Y-73082799D01*
X56717201Y-73570862D01*
X57354887Y-73835000D01*
X58045113Y-73835000D01*
X58682799Y-73570862D01*
X58928793Y-73324868D01*
X66654737Y-73324868D01*
X66765641Y-73602099D01*
X67411593Y-73845323D01*
X68101453Y-73822836D01*
X68634359Y-73602099D01*
X68745263Y-73324868D01*
X67700000Y-72279605D01*
X66654737Y-73324868D01*
X58928793Y-73324868D01*
X59170862Y-73082799D01*
X59435000Y-72445113D01*
X59435000Y-71811593D01*
X65954677Y-71811593D01*
X65977164Y-72501453D01*
X66197901Y-73034359D01*
X66475132Y-73145263D01*
X67520395Y-72100000D01*
X67879605Y-72100000D01*
X68924868Y-73145263D01*
X69202099Y-73034359D01*
X69445323Y-72388407D01*
X69422836Y-71698547D01*
X69202099Y-71165641D01*
X68924868Y-71054737D01*
X67879605Y-72100000D01*
X67520395Y-72100000D01*
X66475132Y-71054737D01*
X66197901Y-71165641D01*
X65954677Y-71811593D01*
X59435000Y-71811593D01*
X59435000Y-71754887D01*
X59170862Y-71117201D01*
X58928793Y-70875132D01*
X66654737Y-70875132D01*
X67700000Y-71920395D01*
X68745263Y-70875132D01*
X68634359Y-70597901D01*
X67988407Y-70354677D01*
X67298547Y-70377164D01*
X66765641Y-70597901D01*
X66654737Y-70875132D01*
X58928793Y-70875132D01*
X58682799Y-70629138D01*
X58411200Y-70516638D01*
X58411200Y-68683362D01*
X58682799Y-68570862D01*
X58928793Y-68324868D01*
X66654737Y-68324868D01*
X66765641Y-68602099D01*
X67411593Y-68845323D01*
X68101453Y-68822836D01*
X68634359Y-68602099D01*
X68745263Y-68324868D01*
X67700000Y-67279605D01*
X66654737Y-68324868D01*
X58928793Y-68324868D01*
X59170862Y-68082799D01*
X59435000Y-67445113D01*
X59435000Y-66811593D01*
X65954677Y-66811593D01*
X65977164Y-67501453D01*
X66197901Y-68034359D01*
X66475132Y-68145263D01*
X67520395Y-67100000D01*
X67879605Y-67100000D01*
X68924868Y-68145263D01*
X69202099Y-68034359D01*
X69445323Y-67388407D01*
X69424673Y-66754887D01*
X70965000Y-66754887D01*
X70965000Y-67445113D01*
X71229138Y-68082799D01*
X71717201Y-68570862D01*
X71988800Y-68683362D01*
X71988801Y-70516638D01*
X71717201Y-70629138D01*
X71229138Y-71117201D01*
X70965000Y-71754887D01*
X70965000Y-72445113D01*
X71229138Y-73082799D01*
X71717201Y-73570862D01*
X72354887Y-73835000D01*
X73045113Y-73835000D01*
X73682799Y-73570862D01*
X73928793Y-73324868D01*
X81654737Y-73324868D01*
X81765641Y-73602099D01*
X82411593Y-73845323D01*
X83101453Y-73822836D01*
X83634359Y-73602099D01*
X83745263Y-73324868D01*
X82700000Y-72279605D01*
X81654737Y-73324868D01*
X73928793Y-73324868D01*
X74170862Y-73082799D01*
X74435000Y-72445113D01*
X74435000Y-71811593D01*
X80954677Y-71811593D01*
X80977164Y-72501453D01*
X81197901Y-73034359D01*
X81475132Y-73145263D01*
X82520395Y-72100000D01*
X82879605Y-72100000D01*
X83924868Y-73145263D01*
X84202099Y-73034359D01*
X84445323Y-72388407D01*
X84422836Y-71698547D01*
X84202099Y-71165641D01*
X83924868Y-71054737D01*
X82879605Y-72100000D01*
X82520395Y-72100000D01*
X81475132Y-71054737D01*
X81197901Y-71165641D01*
X80954677Y-71811593D01*
X74435000Y-71811593D01*
X74435000Y-71754887D01*
X74170862Y-71117201D01*
X73928793Y-70875132D01*
X81654737Y-70875132D01*
X82700000Y-71920395D01*
X83745263Y-70875132D01*
X83634359Y-70597901D01*
X82988407Y-70354677D01*
X82298547Y-70377164D01*
X81765641Y-70597901D01*
X81654737Y-70875132D01*
X73928793Y-70875132D01*
X73682799Y-70629138D01*
X73411200Y-70516638D01*
X73411200Y-68683362D01*
X73682799Y-68570862D01*
X73928793Y-68324868D01*
X81654737Y-68324868D01*
X81765641Y-68602099D01*
X82411593Y-68845323D01*
X83101453Y-68822836D01*
X83634359Y-68602099D01*
X83745263Y-68324868D01*
X82700000Y-67279605D01*
X81654737Y-68324868D01*
X73928793Y-68324868D01*
X74170862Y-68082799D01*
X74435000Y-67445113D01*
X74435000Y-66811593D01*
X80954677Y-66811593D01*
X80977164Y-67501453D01*
X81197901Y-68034359D01*
X81475132Y-68145263D01*
X82520395Y-67100000D01*
X82879605Y-67100000D01*
X83924868Y-68145263D01*
X84202099Y-68034359D01*
X84445323Y-67388407D01*
X84424673Y-66754887D01*
X85965000Y-66754887D01*
X85965000Y-67445113D01*
X86229138Y-68082799D01*
X86717201Y-68570862D01*
X86988800Y-68683362D01*
X86988801Y-70516638D01*
X86717201Y-70629138D01*
X86229138Y-71117201D01*
X85965000Y-71754887D01*
X85965000Y-72445113D01*
X86229138Y-73082799D01*
X86717201Y-73570862D01*
X87354887Y-73835000D01*
X88045113Y-73835000D01*
X88682799Y-73570862D01*
X88928793Y-73324868D01*
X96654737Y-73324868D01*
X96765641Y-73602099D01*
X97411593Y-73845323D01*
X98101453Y-73822836D01*
X98634359Y-73602099D01*
X98745263Y-73324868D01*
X97700000Y-72279605D01*
X96654737Y-73324868D01*
X88928793Y-73324868D01*
X89170862Y-73082799D01*
X89435000Y-72445113D01*
X89435000Y-71811593D01*
X95954677Y-71811593D01*
X95977164Y-72501453D01*
X96197901Y-73034359D01*
X96475132Y-73145263D01*
X97520395Y-72100000D01*
X97879605Y-72100000D01*
X98924868Y-73145263D01*
X99202099Y-73034359D01*
X99445323Y-72388407D01*
X99422836Y-71698547D01*
X99202099Y-71165641D01*
X98924868Y-71054737D01*
X97879605Y-72100000D01*
X97520395Y-72100000D01*
X96475132Y-71054737D01*
X96197901Y-71165641D01*
X95954677Y-71811593D01*
X89435000Y-71811593D01*
X89435000Y-71754887D01*
X89170862Y-71117201D01*
X88928793Y-70875132D01*
X96654737Y-70875132D01*
X97700000Y-71920395D01*
X98745263Y-70875132D01*
X98634359Y-70597901D01*
X97988407Y-70354677D01*
X97298547Y-70377164D01*
X96765641Y-70597901D01*
X96654737Y-70875132D01*
X88928793Y-70875132D01*
X88682799Y-70629138D01*
X88411200Y-70516638D01*
X88411200Y-68683362D01*
X88682799Y-68570862D01*
X88928793Y-68324868D01*
X96654737Y-68324868D01*
X96765641Y-68602099D01*
X97411593Y-68845323D01*
X98101453Y-68822836D01*
X98634359Y-68602099D01*
X98745263Y-68324868D01*
X97700000Y-67279605D01*
X96654737Y-68324868D01*
X88928793Y-68324868D01*
X89170862Y-68082799D01*
X89435000Y-67445113D01*
X89435000Y-66811593D01*
X95954677Y-66811593D01*
X95977164Y-67501453D01*
X96197901Y-68034359D01*
X96475132Y-68145263D01*
X97520395Y-67100000D01*
X97879605Y-67100000D01*
X98924868Y-68145263D01*
X99202099Y-68034359D01*
X99445323Y-67388407D01*
X99424673Y-66754887D01*
X100965000Y-66754887D01*
X100965000Y-67445113D01*
X101229138Y-68082799D01*
X101717201Y-68570862D01*
X101988800Y-68683362D01*
X101988801Y-70516638D01*
X101717201Y-70629138D01*
X101229138Y-71117201D01*
X100965000Y-71754887D01*
X100965000Y-72445113D01*
X101229138Y-73082799D01*
X101717201Y-73570862D01*
X102354887Y-73835000D01*
X103045113Y-73835000D01*
X103682799Y-73570862D01*
X103928793Y-73324868D01*
X111654737Y-73324868D01*
X111765641Y-73602099D01*
X112411593Y-73845323D01*
X113101453Y-73822836D01*
X113634359Y-73602099D01*
X113745263Y-73324868D01*
X112700000Y-72279605D01*
X111654737Y-73324868D01*
X103928793Y-73324868D01*
X104170862Y-73082799D01*
X104435000Y-72445113D01*
X104435000Y-71811593D01*
X110954677Y-71811593D01*
X110977164Y-72501453D01*
X111197901Y-73034359D01*
X111475132Y-73145263D01*
X112520395Y-72100000D01*
X112879605Y-72100000D01*
X113924868Y-73145263D01*
X114202099Y-73034359D01*
X114445323Y-72388407D01*
X114422836Y-71698547D01*
X114202099Y-71165641D01*
X113924868Y-71054737D01*
X112879605Y-72100000D01*
X112520395Y-72100000D01*
X111475132Y-71054737D01*
X111197901Y-71165641D01*
X110954677Y-71811593D01*
X104435000Y-71811593D01*
X104435000Y-71754887D01*
X104170862Y-71117201D01*
X103928793Y-70875132D01*
X111654737Y-70875132D01*
X112700000Y-71920395D01*
X113745263Y-70875132D01*
X113634359Y-70597901D01*
X112988407Y-70354677D01*
X112298547Y-70377164D01*
X111765641Y-70597901D01*
X111654737Y-70875132D01*
X103928793Y-70875132D01*
X103682799Y-70629138D01*
X103411200Y-70516638D01*
X103411200Y-68683362D01*
X103682799Y-68570862D01*
X103928793Y-68324868D01*
X111654737Y-68324868D01*
X111765641Y-68602099D01*
X112411593Y-68845323D01*
X113101453Y-68822836D01*
X113634359Y-68602099D01*
X113745263Y-68324868D01*
X112700000Y-67279605D01*
X111654737Y-68324868D01*
X103928793Y-68324868D01*
X104170862Y-68082799D01*
X104435000Y-67445113D01*
X104435000Y-66811593D01*
X110954677Y-66811593D01*
X110977164Y-67501453D01*
X111197901Y-68034359D01*
X111475132Y-68145263D01*
X112520395Y-67100000D01*
X112879605Y-67100000D01*
X113924868Y-68145263D01*
X114202099Y-68034359D01*
X114445323Y-67388407D01*
X114424673Y-66754887D01*
X115965000Y-66754887D01*
X115965000Y-67445113D01*
X116229138Y-68082799D01*
X116717201Y-68570862D01*
X116988800Y-68683362D01*
X116988801Y-70516638D01*
X116717201Y-70629138D01*
X116229138Y-71117201D01*
X115965000Y-71754887D01*
X115965000Y-72445113D01*
X116229138Y-73082799D01*
X116717201Y-73570862D01*
X117354887Y-73835000D01*
X118045113Y-73835000D01*
X118682799Y-73570862D01*
X118928793Y-73324868D01*
X126654737Y-73324868D01*
X126765641Y-73602099D01*
X127411593Y-73845323D01*
X128101453Y-73822836D01*
X128634359Y-73602099D01*
X128745263Y-73324868D01*
X127700000Y-72279605D01*
X126654737Y-73324868D01*
X118928793Y-73324868D01*
X119170862Y-73082799D01*
X119435000Y-72445113D01*
X119435000Y-71811593D01*
X125954677Y-71811593D01*
X125977164Y-72501453D01*
X126197901Y-73034359D01*
X126475132Y-73145263D01*
X127520395Y-72100000D01*
X127879605Y-72100000D01*
X128924868Y-73145263D01*
X129202099Y-73034359D01*
X129445323Y-72388407D01*
X129422836Y-71698547D01*
X129202099Y-71165641D01*
X128924868Y-71054737D01*
X127879605Y-72100000D01*
X127520395Y-72100000D01*
X126475132Y-71054737D01*
X126197901Y-71165641D01*
X125954677Y-71811593D01*
X119435000Y-71811593D01*
X119435000Y-71754887D01*
X119170862Y-71117201D01*
X118928793Y-70875132D01*
X126654737Y-70875132D01*
X127700000Y-71920395D01*
X128745263Y-70875132D01*
X128634359Y-70597901D01*
X127988407Y-70354677D01*
X127298547Y-70377164D01*
X126765641Y-70597901D01*
X126654737Y-70875132D01*
X118928793Y-70875132D01*
X118682799Y-70629138D01*
X118411200Y-70516638D01*
X118411200Y-68683362D01*
X118682799Y-68570862D01*
X118928793Y-68324868D01*
X126654737Y-68324868D01*
X126765641Y-68602099D01*
X127411593Y-68845323D01*
X128101453Y-68822836D01*
X128634359Y-68602099D01*
X128745263Y-68324868D01*
X127700000Y-67279605D01*
X126654737Y-68324868D01*
X118928793Y-68324868D01*
X119170862Y-68082799D01*
X119435000Y-67445113D01*
X119435000Y-66811593D01*
X125954677Y-66811593D01*
X125977164Y-67501453D01*
X126197901Y-68034359D01*
X126475132Y-68145263D01*
X127520395Y-67100000D01*
X127879605Y-67100000D01*
X128924868Y-68145263D01*
X129202099Y-68034359D01*
X129445323Y-67388407D01*
X129424673Y-66754887D01*
X130965000Y-66754887D01*
X130965000Y-67445113D01*
X131229138Y-68082799D01*
X131717201Y-68570862D01*
X131988800Y-68683362D01*
X131988801Y-70516638D01*
X131717201Y-70629138D01*
X131229138Y-71117201D01*
X130965000Y-71754887D01*
X130965000Y-72445113D01*
X131229138Y-73082799D01*
X131717201Y-73570862D01*
X132354887Y-73835000D01*
X133045113Y-73835000D01*
X133682799Y-73570862D01*
X134170862Y-73082799D01*
X134435000Y-72445113D01*
X134435000Y-71754887D01*
X134170862Y-71117201D01*
X133682799Y-70629138D01*
X133411200Y-70516638D01*
X133411200Y-68683362D01*
X133682799Y-68570862D01*
X134170862Y-68082799D01*
X134435000Y-67445113D01*
X134435000Y-66754887D01*
X134170862Y-66117201D01*
X133929411Y-65875750D01*
X149695000Y-65875750D01*
X149695000Y-66966310D01*
X149791673Y-67199699D01*
X149970302Y-67378327D01*
X150203691Y-67475000D01*
X152044250Y-67475000D01*
X152203000Y-67316250D01*
X152203000Y-65717000D01*
X152457000Y-65717000D01*
X152457000Y-67316250D01*
X152615750Y-67475000D01*
X154456309Y-67475000D01*
X154689698Y-67378327D01*
X154868327Y-67199699D01*
X154965000Y-66966310D01*
X154965000Y-65875750D01*
X154806250Y-65717000D01*
X152457000Y-65717000D01*
X152203000Y-65717000D01*
X149853750Y-65717000D01*
X149695000Y-65875750D01*
X133929411Y-65875750D01*
X133682799Y-65629138D01*
X133045113Y-65365000D01*
X132354887Y-65365000D01*
X131717201Y-65629138D01*
X131229138Y-66117201D01*
X130965000Y-66754887D01*
X129424673Y-66754887D01*
X129422836Y-66698547D01*
X129202099Y-66165641D01*
X128924868Y-66054737D01*
X127879605Y-67100000D01*
X127520395Y-67100000D01*
X126475132Y-66054737D01*
X126197901Y-66165641D01*
X125954677Y-66811593D01*
X119435000Y-66811593D01*
X119435000Y-66754887D01*
X119170862Y-66117201D01*
X118928793Y-65875132D01*
X126654737Y-65875132D01*
X127700000Y-66920395D01*
X128745263Y-65875132D01*
X128634359Y-65597901D01*
X127988407Y-65354677D01*
X127298547Y-65377164D01*
X126765641Y-65597901D01*
X126654737Y-65875132D01*
X118928793Y-65875132D01*
X118682799Y-65629138D01*
X118045113Y-65365000D01*
X117354887Y-65365000D01*
X116717201Y-65629138D01*
X116229138Y-66117201D01*
X115965000Y-66754887D01*
X114424673Y-66754887D01*
X114422836Y-66698547D01*
X114202099Y-66165641D01*
X113924868Y-66054737D01*
X112879605Y-67100000D01*
X112520395Y-67100000D01*
X111475132Y-66054737D01*
X111197901Y-66165641D01*
X110954677Y-66811593D01*
X104435000Y-66811593D01*
X104435000Y-66754887D01*
X104170862Y-66117201D01*
X103928793Y-65875132D01*
X111654737Y-65875132D01*
X112700000Y-66920395D01*
X113745263Y-65875132D01*
X113634359Y-65597901D01*
X112988407Y-65354677D01*
X112298547Y-65377164D01*
X111765641Y-65597901D01*
X111654737Y-65875132D01*
X103928793Y-65875132D01*
X103682799Y-65629138D01*
X103045113Y-65365000D01*
X102354887Y-65365000D01*
X101717201Y-65629138D01*
X101229138Y-66117201D01*
X100965000Y-66754887D01*
X99424673Y-66754887D01*
X99422836Y-66698547D01*
X99202099Y-66165641D01*
X98924868Y-66054737D01*
X97879605Y-67100000D01*
X97520395Y-67100000D01*
X96475132Y-66054737D01*
X96197901Y-66165641D01*
X95954677Y-66811593D01*
X89435000Y-66811593D01*
X89435000Y-66754887D01*
X89170862Y-66117201D01*
X88928793Y-65875132D01*
X96654737Y-65875132D01*
X97700000Y-66920395D01*
X98745263Y-65875132D01*
X98634359Y-65597901D01*
X97988407Y-65354677D01*
X97298547Y-65377164D01*
X96765641Y-65597901D01*
X96654737Y-65875132D01*
X88928793Y-65875132D01*
X88682799Y-65629138D01*
X88045113Y-65365000D01*
X87354887Y-65365000D01*
X86717201Y-65629138D01*
X86229138Y-66117201D01*
X85965000Y-66754887D01*
X84424673Y-66754887D01*
X84422836Y-66698547D01*
X84202099Y-66165641D01*
X83924868Y-66054737D01*
X82879605Y-67100000D01*
X82520395Y-67100000D01*
X81475132Y-66054737D01*
X81197901Y-66165641D01*
X80954677Y-66811593D01*
X74435000Y-66811593D01*
X74435000Y-66754887D01*
X74170862Y-66117201D01*
X73928793Y-65875132D01*
X81654737Y-65875132D01*
X82700000Y-66920395D01*
X83745263Y-65875132D01*
X83634359Y-65597901D01*
X82988407Y-65354677D01*
X82298547Y-65377164D01*
X81765641Y-65597901D01*
X81654737Y-65875132D01*
X73928793Y-65875132D01*
X73682799Y-65629138D01*
X73045113Y-65365000D01*
X72354887Y-65365000D01*
X71717201Y-65629138D01*
X71229138Y-66117201D01*
X70965000Y-66754887D01*
X69424673Y-66754887D01*
X69422836Y-66698547D01*
X69202099Y-66165641D01*
X68924868Y-66054737D01*
X67879605Y-67100000D01*
X67520395Y-67100000D01*
X66475132Y-66054737D01*
X66197901Y-66165641D01*
X65954677Y-66811593D01*
X59435000Y-66811593D01*
X59435000Y-66754887D01*
X59170862Y-66117201D01*
X58928793Y-65875132D01*
X66654737Y-65875132D01*
X67700000Y-66920395D01*
X68745263Y-65875132D01*
X68634359Y-65597901D01*
X67988407Y-65354677D01*
X67298547Y-65377164D01*
X66765641Y-65597901D01*
X66654737Y-65875132D01*
X58928793Y-65875132D01*
X58682799Y-65629138D01*
X58045113Y-65365000D01*
X57354887Y-65365000D01*
X56717201Y-65629138D01*
X56229138Y-66117201D01*
X55965000Y-66754887D01*
X54424673Y-66754887D01*
X54422836Y-66698547D01*
X54202099Y-66165641D01*
X53924868Y-66054737D01*
X52879605Y-67100000D01*
X52520395Y-67100000D01*
X51475132Y-66054737D01*
X51197901Y-66165641D01*
X50954677Y-66811593D01*
X39497000Y-66811593D01*
X39497000Y-64215050D01*
X40295000Y-64215050D01*
X40295000Y-64964950D01*
X40581974Y-65657767D01*
X41112233Y-66188026D01*
X41805050Y-66475000D01*
X42554950Y-66475000D01*
X43247767Y-66188026D01*
X43560661Y-65875132D01*
X51654737Y-65875132D01*
X52700000Y-66920395D01*
X53745263Y-65875132D01*
X53634359Y-65597901D01*
X52988407Y-65354677D01*
X52298547Y-65377164D01*
X51765641Y-65597901D01*
X51654737Y-65875132D01*
X43560661Y-65875132D01*
X43778026Y-65657767D01*
X44065000Y-64964950D01*
X44065000Y-64215050D01*
X44064437Y-64213690D01*
X149695000Y-64213690D01*
X149695000Y-65304250D01*
X149853750Y-65463000D01*
X152203000Y-65463000D01*
X152203000Y-63863750D01*
X152457000Y-63863750D01*
X152457000Y-65463000D01*
X154806250Y-65463000D01*
X154965000Y-65304250D01*
X154965000Y-64213690D01*
X154868327Y-63980301D01*
X154689698Y-63801673D01*
X154456309Y-63705000D01*
X152615750Y-63705000D01*
X152457000Y-63863750D01*
X152203000Y-63863750D01*
X152044250Y-63705000D01*
X150203691Y-63705000D01*
X149970302Y-63801673D01*
X149791673Y-63980301D01*
X149695000Y-64213690D01*
X44064437Y-64213690D01*
X43778026Y-63522233D01*
X43247767Y-62991974D01*
X42554950Y-62705000D01*
X41805050Y-62705000D01*
X41112233Y-62991974D01*
X40581974Y-63522233D01*
X40295000Y-64215050D01*
X39497000Y-64215050D01*
X39497000Y-58690000D01*
X51997560Y-58690000D01*
X51997560Y-60490000D01*
X52046843Y-60737765D01*
X52187191Y-60947809D01*
X52397235Y-61088157D01*
X52645000Y-61137440D01*
X53715000Y-61137440D01*
X53962765Y-61088157D01*
X54042736Y-61034722D01*
X54142617Y-61083900D01*
X54323000Y-60958244D01*
X54323000Y-60688280D01*
X54362440Y-60490000D01*
X54362440Y-59109770D01*
X54550000Y-59109770D01*
X54550000Y-60070231D01*
X54577000Y-60205969D01*
X54577000Y-60958244D01*
X54757383Y-61083900D01*
X55071850Y-60929066D01*
X55263490Y-61057115D01*
X55720000Y-61147921D01*
X56176511Y-61057115D01*
X56355001Y-60937853D01*
X56533490Y-61057115D01*
X56990000Y-61147921D01*
X57446511Y-61057115D01*
X57833523Y-60798523D01*
X58092115Y-60411511D01*
X58160000Y-60070230D01*
X58160000Y-59109769D01*
X58092115Y-58768489D01*
X58039671Y-58690000D01*
X66997560Y-58690000D01*
X66997560Y-60490000D01*
X67046843Y-60737765D01*
X67187191Y-60947809D01*
X67397235Y-61088157D01*
X67645000Y-61137440D01*
X68715000Y-61137440D01*
X68962765Y-61088157D01*
X69042736Y-61034722D01*
X69142617Y-61083900D01*
X69323000Y-60958244D01*
X69323000Y-60688280D01*
X69362440Y-60490000D01*
X69362440Y-59109770D01*
X69550000Y-59109770D01*
X69550000Y-60070231D01*
X69577000Y-60205969D01*
X69577000Y-60958244D01*
X69757383Y-61083900D01*
X70071850Y-60929066D01*
X70263490Y-61057115D01*
X70720000Y-61147921D01*
X71176511Y-61057115D01*
X71355001Y-60937853D01*
X71533490Y-61057115D01*
X71990000Y-61147921D01*
X72446511Y-61057115D01*
X72833523Y-60798523D01*
X73092115Y-60411511D01*
X73160000Y-60070230D01*
X73160000Y-59109769D01*
X73092115Y-58768489D01*
X73039671Y-58690000D01*
X81997560Y-58690000D01*
X81997560Y-60490000D01*
X82046843Y-60737765D01*
X82187191Y-60947809D01*
X82397235Y-61088157D01*
X82645000Y-61137440D01*
X83715000Y-61137440D01*
X83962765Y-61088157D01*
X84042736Y-61034722D01*
X84142617Y-61083900D01*
X84323000Y-60958244D01*
X84323000Y-60688280D01*
X84362440Y-60490000D01*
X84362440Y-59109770D01*
X84550000Y-59109770D01*
X84550000Y-60070231D01*
X84577000Y-60205969D01*
X84577000Y-60958244D01*
X84757383Y-61083900D01*
X85071850Y-60929066D01*
X85263490Y-61057115D01*
X85720000Y-61147921D01*
X86176511Y-61057115D01*
X86355001Y-60937853D01*
X86533490Y-61057115D01*
X86990000Y-61147921D01*
X87446511Y-61057115D01*
X87833523Y-60798523D01*
X88092115Y-60411511D01*
X88160000Y-60070230D01*
X88160000Y-59109769D01*
X88092115Y-58768489D01*
X88039671Y-58690000D01*
X96997560Y-58690000D01*
X96997560Y-60490000D01*
X97046843Y-60737765D01*
X97187191Y-60947809D01*
X97397235Y-61088157D01*
X97645000Y-61137440D01*
X98715000Y-61137440D01*
X98962765Y-61088157D01*
X99042736Y-61034722D01*
X99142617Y-61083900D01*
X99323000Y-60958244D01*
X99323000Y-60688280D01*
X99362440Y-60490000D01*
X99362440Y-59109770D01*
X99550000Y-59109770D01*
X99550000Y-60070231D01*
X99577000Y-60205969D01*
X99577000Y-60958244D01*
X99757383Y-61083900D01*
X100071850Y-60929066D01*
X100263490Y-61057115D01*
X100720000Y-61147921D01*
X101176511Y-61057115D01*
X101355001Y-60937853D01*
X101533490Y-61057115D01*
X101990000Y-61147921D01*
X102446511Y-61057115D01*
X102833523Y-60798523D01*
X103092115Y-60411511D01*
X103160000Y-60070230D01*
X103160000Y-59109769D01*
X103092115Y-58768489D01*
X103039671Y-58690000D01*
X111997560Y-58690000D01*
X111997560Y-60490000D01*
X112046843Y-60737765D01*
X112187191Y-60947809D01*
X112397235Y-61088157D01*
X112645000Y-61137440D01*
X113715000Y-61137440D01*
X113962765Y-61088157D01*
X114042736Y-61034722D01*
X114142617Y-61083900D01*
X114323000Y-60958244D01*
X114323000Y-60688280D01*
X114362440Y-60490000D01*
X114362440Y-59109770D01*
X114550000Y-59109770D01*
X114550000Y-60070231D01*
X114577000Y-60205969D01*
X114577000Y-60958244D01*
X114757383Y-61083900D01*
X115071850Y-60929066D01*
X115263490Y-61057115D01*
X115720000Y-61147921D01*
X116176511Y-61057115D01*
X116355001Y-60937853D01*
X116533490Y-61057115D01*
X116990000Y-61147921D01*
X117446511Y-61057115D01*
X117833523Y-60798523D01*
X118092115Y-60411511D01*
X118160000Y-60070230D01*
X118160000Y-59109769D01*
X118092115Y-58768489D01*
X118039671Y-58690000D01*
X126997560Y-58690000D01*
X126997560Y-60490000D01*
X127046843Y-60737765D01*
X127187191Y-60947809D01*
X127397235Y-61088157D01*
X127645000Y-61137440D01*
X128715000Y-61137440D01*
X128962765Y-61088157D01*
X129042736Y-61034722D01*
X129142617Y-61083900D01*
X129323000Y-60958244D01*
X129323000Y-60688280D01*
X129362440Y-60490000D01*
X129362440Y-59109770D01*
X129550000Y-59109770D01*
X129550000Y-60070231D01*
X129577000Y-60205969D01*
X129577000Y-60958244D01*
X129757383Y-61083900D01*
X130071850Y-60929066D01*
X130263490Y-61057115D01*
X130720000Y-61147921D01*
X131176511Y-61057115D01*
X131355001Y-60937853D01*
X131533490Y-61057115D01*
X131990000Y-61147921D01*
X132446511Y-61057115D01*
X132833523Y-60798523D01*
X133092115Y-60411511D01*
X133160000Y-60070230D01*
X133160000Y-59109769D01*
X133092115Y-58768489D01*
X133039671Y-58690000D01*
X151997560Y-58690000D01*
X151997560Y-60490000D01*
X152046843Y-60737765D01*
X152187191Y-60947809D01*
X152397235Y-61088157D01*
X152645000Y-61137440D01*
X153715000Y-61137440D01*
X153962765Y-61088157D01*
X154042736Y-61034722D01*
X154142617Y-61083900D01*
X154323000Y-60958244D01*
X154323000Y-60688280D01*
X154362440Y-60490000D01*
X154362440Y-59109770D01*
X154550000Y-59109770D01*
X154550000Y-60070231D01*
X154577000Y-60205969D01*
X154577000Y-60958244D01*
X154757383Y-61083900D01*
X155008801Y-60960109D01*
X155008800Y-62707558D01*
X154994868Y-62777600D01*
X155008800Y-62847641D01*
X155008800Y-62847645D01*
X155050064Y-63055095D01*
X155050065Y-63055096D01*
X155167576Y-63230964D01*
X155167578Y-63230966D01*
X155207254Y-63290345D01*
X155266634Y-63330022D01*
X155910752Y-63974140D01*
X155831843Y-64092235D01*
X155782560Y-64340000D01*
X155782560Y-66840000D01*
X155831843Y-67087765D01*
X155972191Y-67297809D01*
X156182235Y-67438157D01*
X156430000Y-67487440D01*
X160430000Y-67487440D01*
X160677765Y-67438157D01*
X160887809Y-67297809D01*
X161028157Y-67087765D01*
X161077440Y-66840000D01*
X161077440Y-64340000D01*
X161028157Y-64092235D01*
X160887809Y-63882191D01*
X160677765Y-63741843D01*
X160430000Y-63692560D01*
X157640749Y-63692560D01*
X156587423Y-62639234D01*
X173871000Y-62639234D01*
X173871000Y-63090766D01*
X174043793Y-63507926D01*
X174363074Y-63827207D01*
X174780234Y-64000000D01*
X175231766Y-64000000D01*
X175648926Y-63827207D01*
X175968207Y-63507926D01*
X176141000Y-63090766D01*
X176141000Y-62941200D01*
X178872144Y-62941200D01*
X178760500Y-63210734D01*
X178760500Y-63662266D01*
X178930010Y-64071500D01*
X178760500Y-64480734D01*
X178760500Y-64932266D01*
X178930010Y-65341500D01*
X178760500Y-65750734D01*
X178760500Y-66202266D01*
X178933293Y-66619426D01*
X179252574Y-66938707D01*
X179669734Y-67111500D01*
X180121266Y-67111500D01*
X180538426Y-66938707D01*
X180805933Y-66671200D01*
X181263949Y-66671200D01*
X181322769Y-66759231D01*
X181597699Y-66942932D01*
X181922000Y-67007440D01*
X182822000Y-67007440D01*
X183146301Y-66942932D01*
X183421231Y-66759231D01*
X183469026Y-66687700D01*
X184018067Y-66687700D01*
X184142927Y-66812560D01*
X183872000Y-66812560D01*
X183528565Y-66880874D01*
X183237414Y-67075414D01*
X183042874Y-67366565D01*
X182974560Y-67710000D01*
X182974560Y-69310000D01*
X183042874Y-69653435D01*
X183237414Y-69944586D01*
X183528565Y-70139126D01*
X183872000Y-70207440D01*
X186372000Y-70207440D01*
X186715435Y-70139126D01*
X187006586Y-69944586D01*
X187201126Y-69653435D01*
X187269440Y-69310000D01*
X187269440Y-67710000D01*
X187201126Y-67366565D01*
X187006586Y-67075414D01*
X186715435Y-66880874D01*
X186372000Y-66812560D01*
X185681073Y-66812560D01*
X185874207Y-66619426D01*
X186047000Y-66202266D01*
X186047000Y-65750734D01*
X185874207Y-65333574D01*
X185554926Y-65014293D01*
X185137766Y-64841500D01*
X184686234Y-64841500D01*
X184269074Y-65014293D01*
X184018067Y-65265300D01*
X183584219Y-65265300D01*
X183604932Y-65234301D01*
X183669440Y-64910000D01*
X183669440Y-64510000D01*
X183610771Y-64215050D01*
X202295000Y-64215050D01*
X202295000Y-64964950D01*
X202581974Y-65657767D01*
X203112233Y-66188026D01*
X203805050Y-66475000D01*
X204554950Y-66475000D01*
X205247767Y-66188026D01*
X205778026Y-65657767D01*
X206065000Y-64964950D01*
X206065000Y-64215050D01*
X205778026Y-63522233D01*
X205247767Y-62991974D01*
X204554950Y-62705000D01*
X203805050Y-62705000D01*
X203112233Y-62991974D01*
X202581974Y-63522233D01*
X202295000Y-64215050D01*
X183610771Y-64215050D01*
X183604932Y-64185699D01*
X183537648Y-64085000D01*
X183604932Y-63984301D01*
X183669440Y-63660000D01*
X183669440Y-63260000D01*
X183604932Y-62935699D01*
X183537648Y-62835000D01*
X183604932Y-62734301D01*
X183669440Y-62410000D01*
X183669440Y-62010000D01*
X183604932Y-61685699D01*
X183537648Y-61585000D01*
X183604932Y-61484301D01*
X183669440Y-61160000D01*
X183669440Y-60760000D01*
X183604932Y-60435699D01*
X183586090Y-60407500D01*
X183657000Y-60236309D01*
X183657000Y-59995750D01*
X183498250Y-59837000D01*
X182499000Y-59837000D01*
X182499000Y-59857000D01*
X182245000Y-59857000D01*
X182245000Y-59837000D01*
X181245750Y-59837000D01*
X181087000Y-59995750D01*
X181087000Y-60236309D01*
X181092174Y-60248800D01*
X180789433Y-60248800D01*
X180538426Y-59997793D01*
X180121266Y-59825000D01*
X179669734Y-59825000D01*
X179252574Y-59997793D01*
X178933293Y-60317074D01*
X178760500Y-60734234D01*
X178760500Y-61185766D01*
X178898447Y-61518800D01*
X175711042Y-61518800D01*
X175641000Y-61504868D01*
X175570958Y-61518800D01*
X175570954Y-61518800D01*
X175363504Y-61560064D01*
X175363502Y-61560065D01*
X175363503Y-61560065D01*
X175187635Y-61677576D01*
X175187633Y-61677578D01*
X175128254Y-61717254D01*
X175119737Y-61730000D01*
X174780234Y-61730000D01*
X174363074Y-61902793D01*
X174043793Y-62222074D01*
X173871000Y-62639234D01*
X156587423Y-62639234D01*
X156431200Y-62483012D01*
X156431200Y-60988767D01*
X156533490Y-61057115D01*
X156990000Y-61147921D01*
X157446511Y-61057115D01*
X157833523Y-60798523D01*
X158092115Y-60411511D01*
X158160000Y-60070230D01*
X158160000Y-59183691D01*
X181087000Y-59183691D01*
X181087000Y-59424250D01*
X181245750Y-59583000D01*
X182245000Y-59583000D01*
X182245000Y-58833750D01*
X182499000Y-58833750D01*
X182499000Y-59583000D01*
X183498250Y-59583000D01*
X183657000Y-59424250D01*
X183657000Y-59183691D01*
X183560327Y-58950302D01*
X183381699Y-58771673D01*
X183148310Y-58675000D01*
X182657750Y-58675000D01*
X182499000Y-58833750D01*
X182245000Y-58833750D01*
X182086250Y-58675000D01*
X181595690Y-58675000D01*
X181362301Y-58771673D01*
X181183673Y-58950302D01*
X181087000Y-59183691D01*
X158160000Y-59183691D01*
X158160000Y-59109769D01*
X158092115Y-58768489D01*
X157833523Y-58381477D01*
X157446510Y-58122885D01*
X156990000Y-58032079D01*
X156533489Y-58122885D01*
X156355000Y-58242147D01*
X156176510Y-58122885D01*
X155720000Y-58032079D01*
X155263489Y-58122885D01*
X155071849Y-58250934D01*
X154757383Y-58096100D01*
X154577000Y-58221756D01*
X154577000Y-58974032D01*
X154550000Y-59109770D01*
X154362440Y-59109770D01*
X154362440Y-58690000D01*
X154323000Y-58491720D01*
X154323000Y-58221756D01*
X154142617Y-58096100D01*
X154042736Y-58145278D01*
X153962765Y-58091843D01*
X153715000Y-58042560D01*
X152645000Y-58042560D01*
X152397235Y-58091843D01*
X152187191Y-58232191D01*
X152046843Y-58442235D01*
X151997560Y-58690000D01*
X133039671Y-58690000D01*
X132833523Y-58381477D01*
X132446510Y-58122885D01*
X131990000Y-58032079D01*
X131533489Y-58122885D01*
X131355000Y-58242147D01*
X131176510Y-58122885D01*
X130720000Y-58032079D01*
X130263489Y-58122885D01*
X130071849Y-58250934D01*
X129757383Y-58096100D01*
X129577000Y-58221756D01*
X129577000Y-58974032D01*
X129550000Y-59109770D01*
X129362440Y-59109770D01*
X129362440Y-58690000D01*
X129323000Y-58491720D01*
X129323000Y-58221756D01*
X129142617Y-58096100D01*
X129042736Y-58145278D01*
X128962765Y-58091843D01*
X128715000Y-58042560D01*
X127645000Y-58042560D01*
X127397235Y-58091843D01*
X127187191Y-58232191D01*
X127046843Y-58442235D01*
X126997560Y-58690000D01*
X118039671Y-58690000D01*
X117833523Y-58381477D01*
X117446510Y-58122885D01*
X116990000Y-58032079D01*
X116533489Y-58122885D01*
X116355000Y-58242147D01*
X116176510Y-58122885D01*
X115720000Y-58032079D01*
X115263489Y-58122885D01*
X115071849Y-58250934D01*
X114757383Y-58096100D01*
X114577000Y-58221756D01*
X114577000Y-58974032D01*
X114550000Y-59109770D01*
X114362440Y-59109770D01*
X114362440Y-58690000D01*
X114323000Y-58491720D01*
X114323000Y-58221756D01*
X114142617Y-58096100D01*
X114042736Y-58145278D01*
X113962765Y-58091843D01*
X113715000Y-58042560D01*
X112645000Y-58042560D01*
X112397235Y-58091843D01*
X112187191Y-58232191D01*
X112046843Y-58442235D01*
X111997560Y-58690000D01*
X103039671Y-58690000D01*
X102833523Y-58381477D01*
X102446510Y-58122885D01*
X101990000Y-58032079D01*
X101533489Y-58122885D01*
X101355000Y-58242147D01*
X101176510Y-58122885D01*
X100720000Y-58032079D01*
X100263489Y-58122885D01*
X100071849Y-58250934D01*
X99757383Y-58096100D01*
X99577000Y-58221756D01*
X99577000Y-58974032D01*
X99550000Y-59109770D01*
X99362440Y-59109770D01*
X99362440Y-58690000D01*
X99323000Y-58491720D01*
X99323000Y-58221756D01*
X99142617Y-58096100D01*
X99042736Y-58145278D01*
X98962765Y-58091843D01*
X98715000Y-58042560D01*
X97645000Y-58042560D01*
X97397235Y-58091843D01*
X97187191Y-58232191D01*
X97046843Y-58442235D01*
X96997560Y-58690000D01*
X88039671Y-58690000D01*
X87833523Y-58381477D01*
X87446510Y-58122885D01*
X86990000Y-58032079D01*
X86533489Y-58122885D01*
X86355000Y-58242147D01*
X86176510Y-58122885D01*
X85720000Y-58032079D01*
X85263489Y-58122885D01*
X85071849Y-58250934D01*
X84757383Y-58096100D01*
X84577000Y-58221756D01*
X84577000Y-58974032D01*
X84550000Y-59109770D01*
X84362440Y-59109770D01*
X84362440Y-58690000D01*
X84323000Y-58491720D01*
X84323000Y-58221756D01*
X84142617Y-58096100D01*
X84042736Y-58145278D01*
X83962765Y-58091843D01*
X83715000Y-58042560D01*
X82645000Y-58042560D01*
X82397235Y-58091843D01*
X82187191Y-58232191D01*
X82046843Y-58442235D01*
X81997560Y-58690000D01*
X73039671Y-58690000D01*
X72833523Y-58381477D01*
X72446510Y-58122885D01*
X71990000Y-58032079D01*
X71533489Y-58122885D01*
X71355000Y-58242147D01*
X71176510Y-58122885D01*
X70720000Y-58032079D01*
X70263489Y-58122885D01*
X70071849Y-58250934D01*
X69757383Y-58096100D01*
X69577000Y-58221756D01*
X69577000Y-58974032D01*
X69550000Y-59109770D01*
X69362440Y-59109770D01*
X69362440Y-58690000D01*
X69323000Y-58491720D01*
X69323000Y-58221756D01*
X69142617Y-58096100D01*
X69042736Y-58145278D01*
X68962765Y-58091843D01*
X68715000Y-58042560D01*
X67645000Y-58042560D01*
X67397235Y-58091843D01*
X67187191Y-58232191D01*
X67046843Y-58442235D01*
X66997560Y-58690000D01*
X58039671Y-58690000D01*
X57833523Y-58381477D01*
X57446510Y-58122885D01*
X56990000Y-58032079D01*
X56533489Y-58122885D01*
X56355000Y-58242147D01*
X56176510Y-58122885D01*
X55720000Y-58032079D01*
X55263489Y-58122885D01*
X55071849Y-58250934D01*
X54757383Y-58096100D01*
X54577000Y-58221756D01*
X54577000Y-58974032D01*
X54550000Y-59109770D01*
X54362440Y-59109770D01*
X54362440Y-58690000D01*
X54323000Y-58491720D01*
X54323000Y-58221756D01*
X54142617Y-58096100D01*
X54042736Y-58145278D01*
X53962765Y-58091843D01*
X53715000Y-58042560D01*
X52645000Y-58042560D01*
X52397235Y-58091843D01*
X52187191Y-58232191D01*
X52046843Y-58442235D01*
X51997560Y-58690000D01*
X39497000Y-58690000D01*
X39497000Y-56360000D01*
X182974560Y-56360000D01*
X182974560Y-57960000D01*
X183042874Y-58303435D01*
X183237414Y-58594586D01*
X183528565Y-58789126D01*
X183872000Y-58857440D01*
X186372000Y-58857440D01*
X186715435Y-58789126D01*
X187006586Y-58594586D01*
X187201126Y-58303435D01*
X187269440Y-57960000D01*
X187269440Y-56360000D01*
X187201126Y-56016565D01*
X187006586Y-55725414D01*
X186715435Y-55530874D01*
X186372000Y-55462560D01*
X183872000Y-55462560D01*
X183528565Y-55530874D01*
X183237414Y-55725414D01*
X183042874Y-56016565D01*
X182974560Y-56360000D01*
X39497000Y-56360000D01*
X39497000Y-54737000D01*
X206883000Y-54737000D01*
X206883000Y-74168000D01*
D36*
X115062000Y-83820000D03*
X156591003Y-81025997D03*
X192659012Y-80010000D03*
X175006000Y-100203000D03*
X174117000Y-80010000D03*
X160020000Y-109220000D03*
X161290000Y-60325000D03*
X103504984Y-95250000D03*
X120015000Y-95885002D03*
X179895500Y-65976500D03*
X184912000Y-65976500D03*
X186055000Y-103505000D03*
X160575969Y-88104241D03*
X156083000Y-88025210D03*
X189230000Y-103505000D03*
X179895500Y-60960000D03*
X175006000Y-62865000D03*
X186944000Y-88900000D03*
X179895500Y-62230000D03*
X186817000Y-82550000D03*
X179895500Y-64706500D03*
X186817000Y-86360000D03*
X179895500Y-63436500D03*
X161820643Y-108054357D03*
X163195000Y-106680000D03*
X177165000Y-102235000D03*
X186055000Y-100965000D03*
X189230000Y-100965000D03*
X175006000Y-102235000D03*
X192277972Y-92710000D03*
X192278006Y-97917000D03*
X187325000Y-93980000D03*
X186055000Y-102235000D03*
X155003500Y-91186002D03*
X144970500Y-91186000D03*
X155003500Y-93090994D03*
X143700500Y-93091000D03*
X155003500Y-94995998D03*
X142748000Y-94932500D03*
X155003500Y-96901010D03*
X142748000Y-96901000D03*
X155003500Y-98806010D03*
X143700500Y-98806000D03*
X155003500Y-100711016D03*
X144970500Y-100711000D03*
X193294000Y-105410000D03*
X193294000Y-95250000D03*
X112700000Y-72100000D03*
X117700000Y-72100000D03*
X112700000Y-67100000D03*
X117700000Y-67100000D03*
X82700000Y-72100000D03*
X87700000Y-72100000D03*
X82700000Y-67100000D03*
X87700000Y-67100000D03*
X136525000Y-133350000D03*
X136525000Y-128350000D03*
X136525000Y-108350000D03*
X144025000Y-108350000D03*
X144025000Y-128350000D03*
X144025000Y-133350000D03*
X53460000Y-133350000D03*
X53460000Y-128350000D03*
X53460000Y-108350000D03*
X60960000Y-108350000D03*
X60960000Y-128350000D03*
X60960000Y-133350000D03*
X202819000Y-125603000D03*
X202819000Y-123063000D03*
X202819000Y-120523000D03*
X171243000Y-140335000D03*
X166243000Y-140335000D03*
X142795000Y-140335000D03*
X137795000Y-140335000D03*
X76247000Y-140335000D03*
X71247000Y-140335000D03*
X59610000Y-140335000D03*
X54610000Y-140335000D03*
X126158000Y-140335000D03*
X121158000Y-140335000D03*
X109521000Y-140335000D03*
X104521000Y-140335000D03*
X92884000Y-140335000D03*
X87884000Y-140335000D03*
X195580000Y-97663000D03*
X195580000Y-95123000D03*
X131990000Y-59590000D03*
X130720000Y-59590000D03*
X129450000Y-59590000D03*
X128180000Y-59590000D03*
X144780000Y-84328000D03*
X144780000Y-81788000D03*
X147320000Y-84328000D03*
X147320000Y-81788000D03*
X149860000Y-84328000D03*
X149860000Y-81788000D03*
X49805000Y-99575000D03*
X52705000Y-92075000D03*
X202819000Y-114427000D03*
X202819000Y-111887000D03*
X202819000Y-109347000D03*
X43180000Y-82590000D03*
X43180000Y-148590000D03*
X203200000Y-82590000D03*
X203200000Y-148590000D03*
X116990000Y-59590000D03*
X115720000Y-59590000D03*
X114450000Y-59590000D03*
X113180000Y-59590000D03*
X101990000Y-59590000D03*
X100720000Y-59590000D03*
X99450000Y-59590000D03*
X98180000Y-59590000D03*
X86990000Y-59590000D03*
X85720000Y-59590000D03*
X84450000Y-59590000D03*
X83180000Y-59590000D03*
X71990000Y-59590000D03*
X70720000Y-59590000D03*
X69450000Y-59590000D03*
X68180000Y-59590000D03*
X56990000Y-59590000D03*
X55720000Y-59590000D03*
X54450000Y-59590000D03*
X53180000Y-59590000D03*
X204180000Y-64590000D03*
X42180000Y-64590000D03*
X147320000Y-76590000D03*
X145415000Y-76590000D03*
X143510000Y-76590000D03*
X141605000Y-76590000D03*
X123825000Y-95885000D03*
X123825000Y-91440000D03*
X123825000Y-86995000D03*
X123825000Y-100330000D03*
X202819000Y-103124000D03*
X202819000Y-100584000D03*
X202819000Y-98044000D03*
X202819000Y-95504000D03*
X202819000Y-92964000D03*
X202819000Y-90424000D03*
X156990000Y-59590000D03*
X155720000Y-59590000D03*
X154450000Y-59590000D03*
X153180000Y-59590000D03*
X166780000Y-130175000D03*
X170180000Y-130175000D03*
X166780000Y-120255000D03*
X170180000Y-120255000D03*
X83693000Y-82804000D03*
X88773000Y-100584000D03*
X88773000Y-82804000D03*
X63373000Y-100584000D03*
X58293000Y-100584000D03*
X69970000Y-133350000D03*
X69970000Y-128350000D03*
X69970000Y-108350000D03*
X77470000Y-108350000D03*
X77470000Y-128350000D03*
X77470000Y-133350000D03*
X86480000Y-133350000D03*
X86480000Y-128350000D03*
X86480000Y-108350000D03*
X93980000Y-108350000D03*
X93980000Y-128350000D03*
X93980000Y-133350000D03*
X102990000Y-133350000D03*
X102990000Y-128350000D03*
X102990000Y-108350000D03*
X110490000Y-108350000D03*
X110490000Y-128350000D03*
X110490000Y-133350000D03*
X119754000Y-133350000D03*
X119754000Y-128350000D03*
X119754000Y-108350000D03*
X127254000Y-108350000D03*
X127254000Y-128350000D03*
X127254000Y-133350000D03*
X127700000Y-72100000D03*
X132700000Y-72100000D03*
X127700000Y-67100000D03*
X132700000Y-67100000D03*
X97700000Y-72100000D03*
X102700000Y-72100000D03*
X97700000Y-67100000D03*
X102700000Y-67100000D03*
X67700000Y-72100000D03*
X72700000Y-72100000D03*
X67700000Y-67100000D03*
X72700000Y-67100000D03*
X52700000Y-72100000D03*
X57700000Y-72100000D03*
X52700000Y-67100000D03*
X57700000Y-67100000D03*
X193040000Y-135001000D03*
X198040000Y-135001000D03*
M02*
