%TF.GenerationSoftware,KiCad,Pcbnew,(5.0.0)*%
%TF.CreationDate,2018-09-14T20:48:28+01:00*%
%TF.ProjectId,AquaHub,417175614875622E6B696361645F7063,rev?*%
%TF.SameCoordinates,Original*%
%TF.FileFunction,Copper,L2,Bot,Signal*%
%TF.FilePolarity,Positive*%
%FSLAX46Y46*%
G04 Gerber Fmt 4.6, Leading zero omitted, Abs format (unit mm)*
G04 Created by KiCad (PCBNEW (5.0.0)) date 09/14/18 20:48:28*
%MOMM*%
%LPD*%
G01*
G04 APERTURE LIST*
%ADD10C,0.200000*%
%ADD11R,1.700000X1.700000*%
%ADD12O,1.700000X1.700000*%
%ADD13O,1.070000X1.800000*%
%ADD14R,1.070000X1.800000*%
%ADD15O,1.727200X1.727200*%
%ADD16R,1.727200X1.727200*%
%ADD17C,1.800000*%
%ADD18C,2.000000*%
%ADD19R,2.000000X2.000000*%
%ADD20C,1.524000*%
%ADD21C,2.600000*%
%ADD22R,2.600000X2.600000*%
%ADD23C,2.800000*%
%ADD24C,1.000000*%
%ADD25C,0.152400*%
%ADD26C,2.000000*%
%ADD27C,0.254000*%
%ADD28C,0.350000*%
G04 APERTURE END LIST*
D10*
X55118000Y-106680000D02*
X48006000Y-106680000D01*
X55118000Y-109728000D02*
X55118000Y-106680000D01*
X51054000Y-109728000D02*
X55118000Y-109728000D01*
X146050000Y-115570000D02*
X146050000Y-118110000D01*
X140335000Y-78105000D02*
X140335000Y-75565000D01*
X148590000Y-75565000D02*
X148590000Y-78105000D01*
X148590000Y-78105000D02*
X208280000Y-78105000D01*
X208280000Y-75565000D02*
X148590000Y-75565000D01*
X208280000Y-52070000D02*
X208280000Y-75565000D01*
X38100000Y-52070000D02*
X208280000Y-52070000D01*
X38100000Y-75565000D02*
X38100000Y-52070000D01*
X140335000Y-75565000D02*
X38100000Y-75565000D01*
X48006000Y-118364000D02*
X48006000Y-106680000D01*
X146050000Y-118110000D02*
X48006000Y-118364000D01*
X51054000Y-115316000D02*
X146050000Y-115570000D01*
X51054000Y-109728000D02*
X51054000Y-115316000D01*
X38100000Y-153670000D02*
X208280000Y-153670000D01*
X38100000Y-78105000D02*
X38100000Y-153670000D01*
X140335000Y-78105000D02*
X38100000Y-78105000D01*
X208280000Y-78105000D02*
X208280000Y-153670000D01*
D11*
X194691000Y-95123000D03*
D12*
X194691000Y-97663000D03*
D13*
X120015000Y-59055000D03*
X118745000Y-59055000D03*
X117475000Y-59055000D03*
D14*
X116205000Y-59055000D03*
D15*
X144780000Y-84328000D03*
X144780000Y-81788000D03*
X147320000Y-84328000D03*
X147320000Y-81788000D03*
X149860000Y-84328000D03*
D16*
X149860000Y-81788000D03*
D17*
X49805000Y-104020000D03*
X52705000Y-96520000D03*
D16*
X153035000Y-60960000D03*
D15*
X150495000Y-60960000D03*
X153035000Y-63500000D03*
X150495000Y-63500000D03*
X153035000Y-66040000D03*
X150495000Y-66040000D03*
D18*
X115515000Y-65405000D03*
X120015000Y-65405000D03*
X115515000Y-71905000D03*
X120015000Y-71905000D03*
X69365000Y-71905000D03*
X64865000Y-71905000D03*
X69365000Y-65405000D03*
X64865000Y-65405000D03*
X89708344Y-88927320D03*
X89707344Y-96547320D03*
X61720000Y-88927320D03*
D19*
X61720000Y-104140000D03*
D12*
X202819000Y-126492000D03*
X202819000Y-123952000D03*
D11*
X202819000Y-121412000D03*
D20*
X60960000Y-113030000D03*
X60960000Y-120650000D03*
X60960000Y-125730000D03*
X60960000Y-130810000D03*
X53340000Y-130810000D03*
X53340000Y-125730000D03*
X53340000Y-120650000D03*
X53340000Y-113030000D03*
X77470000Y-113030000D03*
X77470000Y-120650000D03*
X77470000Y-125730000D03*
X77470000Y-130810000D03*
X69850000Y-130810000D03*
X69850000Y-125730000D03*
X69850000Y-120650000D03*
X69850000Y-113030000D03*
X93980000Y-113030000D03*
X93980000Y-120650000D03*
X93980000Y-125730000D03*
X93980000Y-130810000D03*
X86360000Y-130810000D03*
X86360000Y-125730000D03*
X86360000Y-120650000D03*
X86360000Y-113030000D03*
X110490000Y-112776000D03*
X110490000Y-120396000D03*
X110490000Y-125476000D03*
X110490000Y-130556000D03*
X102870000Y-130556000D03*
X102870000Y-125476000D03*
X102870000Y-120396000D03*
X102870000Y-112776000D03*
X127254000Y-112776000D03*
X127254000Y-120396000D03*
X127254000Y-125476000D03*
X127254000Y-130556000D03*
X119634000Y-130556000D03*
X119634000Y-125476000D03*
X119634000Y-120396000D03*
X119634000Y-112776000D03*
X144145000Y-112776000D03*
X144145000Y-120396000D03*
X144145000Y-125476000D03*
X144145000Y-130556000D03*
X136525000Y-130556000D03*
X136525000Y-125476000D03*
X136525000Y-120396000D03*
X136525000Y-112776000D03*
D13*
X107315000Y-59055000D03*
X106045000Y-59055000D03*
X104775000Y-59055000D03*
D14*
X103505000Y-59055000D03*
D13*
X94615000Y-59055000D03*
X93345000Y-59055000D03*
X92075000Y-59055000D03*
D14*
X90805000Y-59055000D03*
D13*
X81915000Y-59055000D03*
X80645000Y-59055000D03*
X79375000Y-59055000D03*
D14*
X78105000Y-59055000D03*
D13*
X69215000Y-59055000D03*
X67945000Y-59055000D03*
X66675000Y-59055000D03*
D14*
X65405000Y-59055000D03*
D13*
X56515000Y-59055000D03*
X55245000Y-59055000D03*
X53975000Y-59055000D03*
D14*
X52705000Y-59055000D03*
D18*
X102965000Y-65405000D03*
X107465000Y-65405000D03*
X102965000Y-71905000D03*
X107465000Y-71905000D03*
X94765000Y-71905000D03*
X90265000Y-71905000D03*
X94765000Y-65405000D03*
X90265000Y-65405000D03*
X77415000Y-65405000D03*
X81915000Y-65405000D03*
X77415000Y-71905000D03*
X81915000Y-71905000D03*
X57205000Y-71905000D03*
X52705000Y-71905000D03*
X57205000Y-65405000D03*
X52705000Y-65405000D03*
D21*
X92884000Y-140335000D03*
D22*
X87884000Y-140335000D03*
X104521000Y-140335000D03*
D21*
X109521000Y-140335000D03*
X126158000Y-140335000D03*
D22*
X121158000Y-140335000D03*
D21*
X59610000Y-140335000D03*
D22*
X54610000Y-140335000D03*
D21*
X76247000Y-140335000D03*
D22*
X71247000Y-140335000D03*
X137795000Y-140335000D03*
D21*
X142795000Y-140335000D03*
D23*
X123825000Y-95885000D03*
X123825000Y-91440000D03*
X123825000Y-86995000D03*
X123825000Y-100330000D03*
D11*
X202819000Y-132588000D03*
D12*
X202819000Y-135128000D03*
X202819000Y-137668000D03*
D22*
X166243000Y-140335000D03*
D21*
X171243000Y-140335000D03*
D11*
X202819000Y-90424000D03*
D12*
X202819000Y-92964000D03*
X202819000Y-95504000D03*
X202819000Y-98044000D03*
X202819000Y-100584000D03*
X202819000Y-103124000D03*
D24*
X115062000Y-83820000D03*
X131318000Y-57150000D03*
X156591003Y-81025997D03*
X174989000Y-83312000D03*
X175006000Y-80010000D03*
X161671000Y-109220000D03*
X170053000Y-99568000D03*
X192659012Y-80010000D03*
X156083000Y-88011000D03*
X160575969Y-88104241D03*
X150495000Y-58278800D03*
X144526000Y-62865000D03*
X155433800Y-63500000D03*
X164352210Y-85090000D03*
X164338000Y-87629994D03*
X153035000Y-68453000D03*
X151765000Y-69342000D03*
X164352210Y-86360000D03*
X194310000Y-127635000D03*
X194310000Y-125715800D03*
D25*
X79375000Y-57785000D02*
X79375000Y-59055000D01*
X116840000Y-57150000D02*
X105410000Y-57150000D01*
X54610000Y-57150000D02*
X53975000Y-57785000D01*
X104775000Y-57785000D02*
X104775000Y-59055000D01*
X79375000Y-57785000D02*
X78740000Y-57150000D01*
X67310000Y-57150000D02*
X66675000Y-57785000D01*
X80010000Y-57150000D02*
X79375000Y-57785000D01*
X66675000Y-57785000D02*
X66040000Y-57150000D01*
X105410000Y-57150000D02*
X104775000Y-57785000D01*
X53975000Y-57785000D02*
X53975000Y-59055000D01*
X92075000Y-57785000D02*
X91440000Y-57150000D01*
X91440000Y-57150000D02*
X80010000Y-57150000D01*
X92075000Y-57785000D02*
X92075000Y-59055000D01*
X117475000Y-57785000D02*
X116840000Y-57150000D01*
X66040000Y-57150000D02*
X54610000Y-57150000D01*
X104775000Y-57785000D02*
X104140000Y-57150000D01*
X66675000Y-57785000D02*
X66675000Y-59055000D01*
X78740000Y-57150000D02*
X67310000Y-57150000D01*
X92710000Y-57150000D02*
X92075000Y-57785000D01*
X117475000Y-59055000D02*
X117475000Y-57785000D01*
X104140000Y-57150000D02*
X92710000Y-57150000D01*
X77415000Y-71905000D02*
X77415000Y-65405000D01*
X90265000Y-71905000D02*
X90265000Y-65405000D01*
X102965000Y-71905000D02*
X102965000Y-65405000D01*
X115515000Y-71905000D02*
X115515000Y-65405000D01*
X117475000Y-63445000D02*
X117475000Y-59055000D01*
X115515000Y-65405000D02*
X117475000Y-63445000D01*
X53975000Y-64135000D02*
X53975000Y-59055000D01*
X52705000Y-65405000D02*
X53975000Y-64135000D01*
X52705000Y-71905000D02*
X52705000Y-65405000D01*
X64865000Y-71905000D02*
X64865000Y-65405000D01*
X66675000Y-63595000D02*
X66675000Y-59055000D01*
X64865000Y-65405000D02*
X66675000Y-63595000D01*
X79375000Y-63445000D02*
X79375000Y-59055000D01*
X77415000Y-65405000D02*
X79375000Y-63445000D01*
X92075000Y-63595000D02*
X92075000Y-59055000D01*
X90265000Y-65405000D02*
X92075000Y-63595000D01*
X104775000Y-63595000D02*
X104775000Y-59055000D01*
X102965000Y-65405000D02*
X104775000Y-63595000D01*
X117475000Y-57785000D02*
X118110000Y-57150000D01*
X118110000Y-57150000D02*
X131318000Y-57150000D01*
X153035000Y-57785000D02*
X153035000Y-60960000D01*
X131318000Y-57150000D02*
X152400000Y-57150000D01*
X152400000Y-57150000D02*
X153035000Y-57785000D01*
X120650000Y-83820000D02*
X123825000Y-86995000D01*
X115062000Y-83820000D02*
X120650000Y-83820000D01*
X89708344Y-84535656D02*
X89708344Y-88927320D01*
X91313000Y-82931000D02*
X89708344Y-84535656D01*
X115062000Y-83820000D02*
X114173000Y-82931000D01*
X114173000Y-82931000D02*
X91313000Y-82931000D01*
X148209000Y-79629000D02*
X131191000Y-79629000D01*
X131191000Y-79629000D02*
X123825000Y-86995000D01*
X149860000Y-80264000D02*
X149860000Y-81788000D01*
X148209000Y-79629000D02*
X149225000Y-79629000D01*
X149225000Y-79629000D02*
X149860000Y-80264000D01*
X146939000Y-79629000D02*
X148209000Y-79629000D01*
X146304000Y-78994000D02*
X146939000Y-79629000D01*
X153035000Y-60960000D02*
X154940000Y-60960000D01*
X154940000Y-60960000D02*
X156210000Y-62230000D01*
X156210000Y-62230000D02*
X156210000Y-66675000D01*
X156210000Y-66675000D02*
X152527000Y-70358000D01*
X152527000Y-70358000D02*
X148463000Y-70358000D01*
X148463000Y-70358000D02*
X146304000Y-72517000D01*
X146304000Y-78994000D02*
X146304000Y-72517000D01*
X201041000Y-119634000D02*
X202819000Y-121412000D01*
X149860000Y-81788000D02*
X155829000Y-81788000D01*
X156091004Y-81525996D02*
X156591003Y-81025997D01*
X155829000Y-81788000D02*
X156091004Y-81525996D01*
X174989000Y-80027000D02*
X175006000Y-80010000D01*
X174989000Y-83312000D02*
X174989000Y-80027000D01*
X190627000Y-109220000D02*
X201041000Y-119634000D01*
X161671000Y-109220000D02*
X190627000Y-109220000D01*
X170053000Y-100838000D02*
X161671000Y-109220000D01*
X170053000Y-99568000D02*
X170053000Y-100838000D01*
X199644000Y-93599000D02*
X202819000Y-90424000D01*
X199644000Y-96901000D02*
X199644000Y-93599000D01*
X194691000Y-97663000D02*
X198882000Y-97663000D01*
X198882000Y-97663000D02*
X199644000Y-96901000D01*
X203962000Y-121412000D02*
X202819000Y-121412000D01*
X204851000Y-92456000D02*
X202819000Y-90424000D01*
X203962000Y-121412000D02*
X204851000Y-120523000D01*
X204851000Y-120523000D02*
X204851000Y-92456000D01*
X204470000Y-132588000D02*
X202819000Y-132588000D01*
X204851000Y-132207000D02*
X204470000Y-132588000D01*
X203962000Y-121412000D02*
X204851000Y-122301000D01*
X204851000Y-122301000D02*
X204851000Y-132207000D01*
X202819000Y-90424000D02*
X202819000Y-89421600D01*
X202819000Y-89421600D02*
X193407400Y-80010000D01*
X193407400Y-80010000D02*
X193366118Y-80010000D01*
X193366118Y-80010000D02*
X192659012Y-80010000D01*
X160482728Y-88011000D02*
X160575969Y-88104241D01*
X156083000Y-88011000D02*
X160482728Y-88011000D01*
X150495000Y-58278800D02*
X150495000Y-60960000D01*
X145161000Y-62230000D02*
X144526000Y-62865000D01*
X153035000Y-63500000D02*
X151765000Y-62230000D01*
X151765000Y-62230000D02*
X145161000Y-62230000D01*
X155433800Y-63500000D02*
X153035000Y-63500000D01*
X163463210Y-85979000D02*
X164352210Y-85090000D01*
X149225000Y-85979000D02*
X163463210Y-85979000D01*
X148590000Y-85344000D02*
X149225000Y-85979000D01*
X147320000Y-81788000D02*
X148590000Y-83058000D01*
X148590000Y-83058000D02*
X148590000Y-85344000D01*
X120015000Y-71905000D02*
X120015000Y-65405000D01*
X107465000Y-71905000D02*
X107465000Y-65405000D01*
X94765000Y-71905000D02*
X94765000Y-65405000D01*
X81915000Y-71905000D02*
X81915000Y-65405000D01*
X69365000Y-71905000D02*
X69365000Y-65405000D01*
X57205000Y-71905000D02*
X57205000Y-65405000D01*
X145643599Y-82651599D02*
X145542000Y-82550000D01*
X145542000Y-82550000D02*
X144780000Y-81788000D01*
X153035000Y-68453000D02*
X153035000Y-66040000D01*
X163434804Y-86726798D02*
X164338000Y-87629994D01*
X147061415Y-86726798D02*
X163434804Y-86726798D01*
X146050000Y-85715383D02*
X147061415Y-86726798D01*
X145542000Y-82550000D02*
X146050000Y-83058000D01*
X146050000Y-83058000D02*
X146050000Y-85715383D01*
X151765000Y-64770000D02*
X150495000Y-63500000D01*
X151765000Y-69342000D02*
X151765000Y-64770000D01*
X147320000Y-84328000D02*
X147320000Y-85549314D01*
X147320000Y-85549314D02*
X148130686Y-86360000D01*
X148130686Y-86360000D02*
X164352210Y-86360000D01*
D26*
X135890000Y-123190000D02*
X119634000Y-123190000D01*
X119634000Y-123190000D02*
X102362000Y-123190000D01*
X48260000Y-104140000D02*
X61720000Y-104140000D01*
X136525000Y-122555000D02*
X135890000Y-123190000D01*
X136525000Y-120396000D02*
X136525000Y-122555000D01*
X119634000Y-120396000D02*
X119634000Y-123190000D01*
X102870000Y-122682000D02*
X102362000Y-123190000D01*
X102870000Y-120396000D02*
X102870000Y-122682000D01*
X86360000Y-123190000D02*
X102362000Y-123190000D01*
X86360000Y-120650000D02*
X86360000Y-123190000D01*
X69850000Y-120650000D02*
X69850000Y-123190000D01*
X86360000Y-123190000D02*
X69850000Y-123190000D01*
X53340000Y-120650000D02*
X53340000Y-123190000D01*
X69850000Y-123190000D02*
X53340000Y-123190000D01*
X47244000Y-123190000D02*
X53340000Y-123190000D01*
X46355000Y-122301000D02*
X47244000Y-123190000D01*
X46355000Y-106045000D02*
X46355000Y-122301000D01*
X48260000Y-104140000D02*
X46355000Y-106045000D01*
X166116000Y-140462000D02*
X166243000Y-140335000D01*
X157480000Y-140335000D02*
X166243000Y-140335000D01*
X151257000Y-134112000D02*
X157480000Y-140335000D01*
X151257000Y-127000000D02*
X151257000Y-134112000D01*
X135890000Y-123190000D02*
X147447000Y-123190000D01*
X147447000Y-123190000D02*
X151257000Y-127000000D01*
D25*
X194310000Y-127635000D02*
X194310000Y-125715800D01*
D27*
G36*
X207518000Y-80062606D02*
X207518000Y-140917394D01*
X206322395Y-142113000D01*
X188012606Y-142113000D01*
X186817000Y-140917394D01*
X186817000Y-135128000D01*
X201304908Y-135128000D01*
X201420161Y-135707418D01*
X201748375Y-136198625D01*
X202046761Y-136398000D01*
X201748375Y-136597375D01*
X201420161Y-137088582D01*
X201304908Y-137668000D01*
X201420161Y-138247418D01*
X201748375Y-138738625D01*
X202239582Y-139066839D01*
X202672744Y-139153000D01*
X202965256Y-139153000D01*
X203398418Y-139066839D01*
X203889625Y-138738625D01*
X204217839Y-138247418D01*
X204333092Y-137668000D01*
X204217839Y-137088582D01*
X203889625Y-136597375D01*
X203591239Y-136398000D01*
X203889625Y-136198625D01*
X204217839Y-135707418D01*
X204333092Y-135128000D01*
X204217839Y-134548582D01*
X203889625Y-134057375D01*
X203867967Y-134042904D01*
X204028698Y-133976327D01*
X204207327Y-133797699D01*
X204304000Y-133564310D01*
X204304000Y-132873750D01*
X204145250Y-132715000D01*
X202946000Y-132715000D01*
X202946000Y-132735000D01*
X202692000Y-132735000D01*
X202692000Y-132715000D01*
X201492750Y-132715000D01*
X201334000Y-132873750D01*
X201334000Y-133564310D01*
X201430673Y-133797699D01*
X201609302Y-133976327D01*
X201770033Y-134042904D01*
X201748375Y-134057375D01*
X201420161Y-134548582D01*
X201304908Y-135128000D01*
X186817000Y-135128000D01*
X186817000Y-131611690D01*
X201334000Y-131611690D01*
X201334000Y-132302250D01*
X201492750Y-132461000D01*
X202692000Y-132461000D01*
X202692000Y-131261750D01*
X202946000Y-131261750D01*
X202946000Y-132461000D01*
X204145250Y-132461000D01*
X204304000Y-132302250D01*
X204304000Y-131611690D01*
X204207327Y-131378301D01*
X204028698Y-131199673D01*
X203795309Y-131103000D01*
X203104750Y-131103000D01*
X202946000Y-131261750D01*
X202692000Y-131261750D01*
X202533250Y-131103000D01*
X201842691Y-131103000D01*
X201609302Y-131199673D01*
X201430673Y-131378301D01*
X201334000Y-131611690D01*
X186817000Y-131611690D01*
X186817000Y-125490034D01*
X193175000Y-125490034D01*
X193175000Y-125941566D01*
X193347793Y-126358726D01*
X193598801Y-126609734D01*
X193598800Y-126741067D01*
X193347793Y-126992074D01*
X193175000Y-127409234D01*
X193175000Y-127860766D01*
X193347793Y-128277926D01*
X193667074Y-128597207D01*
X194084234Y-128770000D01*
X194535766Y-128770000D01*
X194952926Y-128597207D01*
X195272207Y-128277926D01*
X195445000Y-127860766D01*
X195445000Y-127409234D01*
X195272207Y-126992074D01*
X195021200Y-126741067D01*
X195021200Y-126609733D01*
X195272207Y-126358726D01*
X195445000Y-125941566D01*
X195445000Y-125490034D01*
X195272207Y-125072874D01*
X194952926Y-124753593D01*
X194535766Y-124580800D01*
X194084234Y-124580800D01*
X193667074Y-124753593D01*
X193347793Y-125072874D01*
X193175000Y-125490034D01*
X186817000Y-125490034D01*
X186817000Y-123952000D01*
X201304908Y-123952000D01*
X201420161Y-124531418D01*
X201748375Y-125022625D01*
X202046761Y-125222000D01*
X201748375Y-125421375D01*
X201420161Y-125912582D01*
X201304908Y-126492000D01*
X201420161Y-127071418D01*
X201748375Y-127562625D01*
X202239582Y-127890839D01*
X202672744Y-127977000D01*
X202965256Y-127977000D01*
X203398418Y-127890839D01*
X203889625Y-127562625D01*
X204217839Y-127071418D01*
X204333092Y-126492000D01*
X204217839Y-125912582D01*
X203889625Y-125421375D01*
X203591239Y-125222000D01*
X203889625Y-125022625D01*
X204217839Y-124531418D01*
X204333092Y-123952000D01*
X204217839Y-123372582D01*
X203889625Y-122881375D01*
X203867967Y-122866904D01*
X204028698Y-122800327D01*
X204207327Y-122621699D01*
X204304000Y-122388310D01*
X204304000Y-121697750D01*
X204145250Y-121539000D01*
X202946000Y-121539000D01*
X202946000Y-121559000D01*
X202692000Y-121559000D01*
X202692000Y-121539000D01*
X201492750Y-121539000D01*
X201334000Y-121697750D01*
X201334000Y-122388310D01*
X201430673Y-122621699D01*
X201609302Y-122800327D01*
X201770033Y-122866904D01*
X201748375Y-122881375D01*
X201420161Y-123372582D01*
X201304908Y-123952000D01*
X186817000Y-123952000D01*
X186817000Y-120435690D01*
X201334000Y-120435690D01*
X201334000Y-121126250D01*
X201492750Y-121285000D01*
X202692000Y-121285000D01*
X202692000Y-120085750D01*
X202946000Y-120085750D01*
X202946000Y-121285000D01*
X204145250Y-121285000D01*
X204304000Y-121126250D01*
X204304000Y-120435690D01*
X204207327Y-120202301D01*
X204028698Y-120023673D01*
X203795309Y-119927000D01*
X203104750Y-119927000D01*
X202946000Y-120085750D01*
X202692000Y-120085750D01*
X202533250Y-119927000D01*
X201842691Y-119927000D01*
X201609302Y-120023673D01*
X201430673Y-120202301D01*
X201334000Y-120435690D01*
X186817000Y-120435690D01*
X186817000Y-116840000D01*
X186807333Y-116791399D01*
X186779803Y-116750197D01*
X185509803Y-115480197D01*
X185468601Y-115452667D01*
X185420000Y-115443000D01*
X146774137Y-115443000D01*
X146771047Y-115427467D01*
X146743118Y-115285070D01*
X146742554Y-115284220D01*
X146742354Y-115283217D01*
X146661593Y-115162350D01*
X146581320Y-115041514D01*
X146580473Y-115040945D01*
X146579905Y-115040095D01*
X146459107Y-114959381D01*
X146338633Y-114878416D01*
X146337632Y-114878214D01*
X146336782Y-114877646D01*
X146194091Y-114849263D01*
X146124353Y-114835197D01*
X146123365Y-114835194D01*
X146050000Y-114820601D01*
X145978581Y-114834807D01*
X82459577Y-114664971D01*
X81407000Y-113612394D01*
X81407000Y-112752119D01*
X84963000Y-112752119D01*
X84963000Y-113307881D01*
X85175680Y-113821337D01*
X85568663Y-114214320D01*
X86082119Y-114427000D01*
X86637881Y-114427000D01*
X87151337Y-114214320D01*
X87544320Y-113821337D01*
X87757000Y-113307881D01*
X87757000Y-112752119D01*
X92583000Y-112752119D01*
X92583000Y-113307881D01*
X92795680Y-113821337D01*
X93188663Y-114214320D01*
X93702119Y-114427000D01*
X94257881Y-114427000D01*
X94771337Y-114214320D01*
X95164320Y-113821337D01*
X95377000Y-113307881D01*
X95377000Y-112752119D01*
X95271790Y-112498119D01*
X101473000Y-112498119D01*
X101473000Y-113053881D01*
X101685680Y-113567337D01*
X102078663Y-113960320D01*
X102592119Y-114173000D01*
X103147881Y-114173000D01*
X103661337Y-113960320D01*
X104054320Y-113567337D01*
X104267000Y-113053881D01*
X104267000Y-112498119D01*
X109093000Y-112498119D01*
X109093000Y-113053881D01*
X109305680Y-113567337D01*
X109698663Y-113960320D01*
X110212119Y-114173000D01*
X110767881Y-114173000D01*
X111281337Y-113960320D01*
X111674320Y-113567337D01*
X111887000Y-113053881D01*
X111887000Y-112498119D01*
X118237000Y-112498119D01*
X118237000Y-113053881D01*
X118449680Y-113567337D01*
X118842663Y-113960320D01*
X119356119Y-114173000D01*
X119911881Y-114173000D01*
X120425337Y-113960320D01*
X120818320Y-113567337D01*
X121031000Y-113053881D01*
X121031000Y-112498119D01*
X125857000Y-112498119D01*
X125857000Y-113053881D01*
X126069680Y-113567337D01*
X126462663Y-113960320D01*
X126976119Y-114173000D01*
X127531881Y-114173000D01*
X128045337Y-113960320D01*
X128438320Y-113567337D01*
X128651000Y-113053881D01*
X128651000Y-112498119D01*
X135128000Y-112498119D01*
X135128000Y-113053881D01*
X135340680Y-113567337D01*
X135733663Y-113960320D01*
X136247119Y-114173000D01*
X136802881Y-114173000D01*
X137316337Y-113960320D01*
X137709320Y-113567337D01*
X137922000Y-113053881D01*
X137922000Y-112498119D01*
X142748000Y-112498119D01*
X142748000Y-113053881D01*
X142960680Y-113567337D01*
X143353663Y-113960320D01*
X143867119Y-114173000D01*
X144422881Y-114173000D01*
X144936337Y-113960320D01*
X145329320Y-113567337D01*
X145542000Y-113053881D01*
X145542000Y-112498119D01*
X145329320Y-111984663D01*
X144936337Y-111591680D01*
X144422881Y-111379000D01*
X143867119Y-111379000D01*
X143353663Y-111591680D01*
X142960680Y-111984663D01*
X142748000Y-112498119D01*
X137922000Y-112498119D01*
X137709320Y-111984663D01*
X137316337Y-111591680D01*
X136802881Y-111379000D01*
X136247119Y-111379000D01*
X135733663Y-111591680D01*
X135340680Y-111984663D01*
X135128000Y-112498119D01*
X128651000Y-112498119D01*
X128438320Y-111984663D01*
X128045337Y-111591680D01*
X127531881Y-111379000D01*
X126976119Y-111379000D01*
X126462663Y-111591680D01*
X126069680Y-111984663D01*
X125857000Y-112498119D01*
X121031000Y-112498119D01*
X120818320Y-111984663D01*
X120425337Y-111591680D01*
X119911881Y-111379000D01*
X119356119Y-111379000D01*
X118842663Y-111591680D01*
X118449680Y-111984663D01*
X118237000Y-112498119D01*
X111887000Y-112498119D01*
X111674320Y-111984663D01*
X111281337Y-111591680D01*
X110767881Y-111379000D01*
X110212119Y-111379000D01*
X109698663Y-111591680D01*
X109305680Y-111984663D01*
X109093000Y-112498119D01*
X104267000Y-112498119D01*
X104054320Y-111984663D01*
X103661337Y-111591680D01*
X103147881Y-111379000D01*
X102592119Y-111379000D01*
X102078663Y-111591680D01*
X101685680Y-111984663D01*
X101473000Y-112498119D01*
X95271790Y-112498119D01*
X95164320Y-112238663D01*
X94771337Y-111845680D01*
X94257881Y-111633000D01*
X93702119Y-111633000D01*
X93188663Y-111845680D01*
X92795680Y-112238663D01*
X92583000Y-112752119D01*
X87757000Y-112752119D01*
X87544320Y-112238663D01*
X87151337Y-111845680D01*
X86637881Y-111633000D01*
X86082119Y-111633000D01*
X85568663Y-111845680D01*
X85175680Y-112238663D01*
X84963000Y-112752119D01*
X81407000Y-112752119D01*
X81407000Y-99925213D01*
X121790000Y-99925213D01*
X121790000Y-100734787D01*
X122099810Y-101482735D01*
X122672265Y-102055190D01*
X123420213Y-102365000D01*
X124229787Y-102365000D01*
X124977735Y-102055190D01*
X125550190Y-101482735D01*
X125860000Y-100734787D01*
X125860000Y-99925213D01*
X125550190Y-99177265D01*
X124977735Y-98604810D01*
X124229787Y-98295000D01*
X123420213Y-98295000D01*
X122672265Y-98604810D01*
X122099810Y-99177265D01*
X121790000Y-99925213D01*
X81407000Y-99925213D01*
X81407000Y-96222098D01*
X88072344Y-96222098D01*
X88072344Y-96872542D01*
X88321258Y-97473473D01*
X88781191Y-97933406D01*
X89382122Y-98182320D01*
X90032566Y-98182320D01*
X90424706Y-98019890D01*
X193249524Y-98019890D01*
X193419355Y-98429924D01*
X193809642Y-98858183D01*
X194334108Y-99104486D01*
X194564000Y-98983819D01*
X194564000Y-97790000D01*
X194818000Y-97790000D01*
X194818000Y-98983819D01*
X195047892Y-99104486D01*
X195572358Y-98858183D01*
X195962645Y-98429924D01*
X196132476Y-98019890D01*
X196011155Y-97790000D01*
X194818000Y-97790000D01*
X194564000Y-97790000D01*
X193370845Y-97790000D01*
X193249524Y-98019890D01*
X90424706Y-98019890D01*
X90633497Y-97933406D01*
X91093430Y-97473473D01*
X91342344Y-96872542D01*
X91342344Y-96222098D01*
X91093430Y-95621167D01*
X90952476Y-95480213D01*
X121790000Y-95480213D01*
X121790000Y-96289787D01*
X122099810Y-97037735D01*
X122672265Y-97610190D01*
X123420213Y-97920000D01*
X124229787Y-97920000D01*
X124977735Y-97610190D01*
X125550190Y-97037735D01*
X125860000Y-96289787D01*
X125860000Y-95480213D01*
X125550190Y-94732265D01*
X125090925Y-94273000D01*
X193193560Y-94273000D01*
X193193560Y-95973000D01*
X193242843Y-96220765D01*
X193383191Y-96430809D01*
X193593235Y-96571157D01*
X193696708Y-96591739D01*
X193419355Y-96896076D01*
X193249524Y-97306110D01*
X193370845Y-97536000D01*
X194564000Y-97536000D01*
X194564000Y-97516000D01*
X194818000Y-97516000D01*
X194818000Y-97536000D01*
X196011155Y-97536000D01*
X196132476Y-97306110D01*
X195962645Y-96896076D01*
X195685292Y-96591739D01*
X195788765Y-96571157D01*
X195998809Y-96430809D01*
X196139157Y-96220765D01*
X196188440Y-95973000D01*
X196188440Y-94273000D01*
X196139157Y-94025235D01*
X195998809Y-93815191D01*
X195788765Y-93674843D01*
X195541000Y-93625560D01*
X193841000Y-93625560D01*
X193593235Y-93674843D01*
X193383191Y-93815191D01*
X193242843Y-94025235D01*
X193193560Y-94273000D01*
X125090925Y-94273000D01*
X124977735Y-94159810D01*
X124229787Y-93850000D01*
X123420213Y-93850000D01*
X122672265Y-94159810D01*
X122099810Y-94732265D01*
X121790000Y-95480213D01*
X90952476Y-95480213D01*
X90633497Y-95161234D01*
X90032566Y-94912320D01*
X89382122Y-94912320D01*
X88781191Y-95161234D01*
X88321258Y-95621167D01*
X88072344Y-96222098D01*
X81407000Y-96222098D01*
X81407000Y-91035213D01*
X121790000Y-91035213D01*
X121790000Y-91844787D01*
X122099810Y-92592735D01*
X122672265Y-93165190D01*
X123420213Y-93475000D01*
X124229787Y-93475000D01*
X124977735Y-93165190D01*
X125178925Y-92964000D01*
X201304908Y-92964000D01*
X201420161Y-93543418D01*
X201748375Y-94034625D01*
X202046761Y-94234000D01*
X201748375Y-94433375D01*
X201420161Y-94924582D01*
X201304908Y-95504000D01*
X201420161Y-96083418D01*
X201748375Y-96574625D01*
X202046761Y-96774000D01*
X201748375Y-96973375D01*
X201420161Y-97464582D01*
X201304908Y-98044000D01*
X201420161Y-98623418D01*
X201748375Y-99114625D01*
X202046761Y-99314000D01*
X201748375Y-99513375D01*
X201420161Y-100004582D01*
X201304908Y-100584000D01*
X201420161Y-101163418D01*
X201748375Y-101654625D01*
X202046761Y-101854000D01*
X201748375Y-102053375D01*
X201420161Y-102544582D01*
X201304908Y-103124000D01*
X201420161Y-103703418D01*
X201748375Y-104194625D01*
X202239582Y-104522839D01*
X202672744Y-104609000D01*
X202965256Y-104609000D01*
X203398418Y-104522839D01*
X203889625Y-104194625D01*
X204217839Y-103703418D01*
X204333092Y-103124000D01*
X204217839Y-102544582D01*
X203889625Y-102053375D01*
X203591239Y-101854000D01*
X203889625Y-101654625D01*
X204217839Y-101163418D01*
X204333092Y-100584000D01*
X204217839Y-100004582D01*
X203889625Y-99513375D01*
X203591239Y-99314000D01*
X203889625Y-99114625D01*
X204217839Y-98623418D01*
X204333092Y-98044000D01*
X204217839Y-97464582D01*
X203889625Y-96973375D01*
X203591239Y-96774000D01*
X203889625Y-96574625D01*
X204217839Y-96083418D01*
X204333092Y-95504000D01*
X204217839Y-94924582D01*
X203889625Y-94433375D01*
X203591239Y-94234000D01*
X203889625Y-94034625D01*
X204217839Y-93543418D01*
X204333092Y-92964000D01*
X204217839Y-92384582D01*
X203889625Y-91893375D01*
X203867967Y-91878904D01*
X204028698Y-91812327D01*
X204207327Y-91633699D01*
X204304000Y-91400310D01*
X204304000Y-90709750D01*
X204145250Y-90551000D01*
X202946000Y-90551000D01*
X202946000Y-90571000D01*
X202692000Y-90571000D01*
X202692000Y-90551000D01*
X201492750Y-90551000D01*
X201334000Y-90709750D01*
X201334000Y-91400310D01*
X201430673Y-91633699D01*
X201609302Y-91812327D01*
X201770033Y-91878904D01*
X201748375Y-91893375D01*
X201420161Y-92384582D01*
X201304908Y-92964000D01*
X125178925Y-92964000D01*
X125550190Y-92592735D01*
X125860000Y-91844787D01*
X125860000Y-91035213D01*
X125550190Y-90287265D01*
X124977735Y-89714810D01*
X124332850Y-89447690D01*
X201334000Y-89447690D01*
X201334000Y-90138250D01*
X201492750Y-90297000D01*
X202692000Y-90297000D01*
X202692000Y-89097750D01*
X202946000Y-89097750D01*
X202946000Y-90297000D01*
X204145250Y-90297000D01*
X204304000Y-90138250D01*
X204304000Y-89447690D01*
X204207327Y-89214301D01*
X204028698Y-89035673D01*
X203795309Y-88939000D01*
X203104750Y-88939000D01*
X202946000Y-89097750D01*
X202692000Y-89097750D01*
X202533250Y-88939000D01*
X201842691Y-88939000D01*
X201609302Y-89035673D01*
X201430673Y-89214301D01*
X201334000Y-89447690D01*
X124332850Y-89447690D01*
X124229787Y-89405000D01*
X123420213Y-89405000D01*
X122672265Y-89714810D01*
X122099810Y-90287265D01*
X121790000Y-91035213D01*
X81407000Y-91035213D01*
X81407000Y-90079852D01*
X88735417Y-90079852D01*
X88834080Y-90346707D01*
X89443805Y-90573228D01*
X90093804Y-90549176D01*
X90582608Y-90346707D01*
X90681271Y-90079852D01*
X89708344Y-89106925D01*
X88735417Y-90079852D01*
X81407000Y-90079852D01*
X81407000Y-88662781D01*
X88062436Y-88662781D01*
X88086488Y-89312780D01*
X88288957Y-89801584D01*
X88555812Y-89900247D01*
X89528739Y-88927320D01*
X89887949Y-88927320D01*
X90860876Y-89900247D01*
X91127731Y-89801584D01*
X91354252Y-89191859D01*
X91330200Y-88541860D01*
X91286652Y-88436724D01*
X122562882Y-88436724D01*
X122710455Y-88745106D01*
X123465031Y-89038405D01*
X124274409Y-89020614D01*
X124939545Y-88745106D01*
X125087118Y-88436724D01*
X123825000Y-87174605D01*
X122562882Y-88436724D01*
X91286652Y-88436724D01*
X91127731Y-88053056D01*
X90860876Y-87954393D01*
X89887949Y-88927320D01*
X89528739Y-88927320D01*
X88555812Y-87954393D01*
X88288957Y-88053056D01*
X88062436Y-88662781D01*
X81407000Y-88662781D01*
X81407000Y-87774788D01*
X88735417Y-87774788D01*
X89708344Y-88747715D01*
X90681271Y-87774788D01*
X90582608Y-87507933D01*
X89972883Y-87281412D01*
X89322884Y-87305464D01*
X88834080Y-87507933D01*
X88735417Y-87774788D01*
X81407000Y-87774788D01*
X81407000Y-86635031D01*
X121781595Y-86635031D01*
X121799386Y-87444409D01*
X122074894Y-88109545D01*
X122383276Y-88257118D01*
X123645395Y-86995000D01*
X124004605Y-86995000D01*
X125266724Y-88257118D01*
X125575106Y-88109545D01*
X125868405Y-87354969D01*
X125850614Y-86545591D01*
X125575106Y-85880455D01*
X125266724Y-85732882D01*
X124004605Y-86995000D01*
X123645395Y-86995000D01*
X122383276Y-85732882D01*
X122074894Y-85880455D01*
X121781595Y-86635031D01*
X81407000Y-86635031D01*
X81407000Y-85553276D01*
X122562882Y-85553276D01*
X123825000Y-86815395D01*
X125087118Y-85553276D01*
X124939545Y-85244894D01*
X124184969Y-84951595D01*
X123375591Y-84969386D01*
X122710455Y-85244894D01*
X122562882Y-85553276D01*
X81407000Y-85553276D01*
X81407000Y-81788000D01*
X143252041Y-81788000D01*
X143368350Y-82372725D01*
X143699570Y-82868430D01*
X143983281Y-83058000D01*
X143699570Y-83247570D01*
X143368350Y-83743275D01*
X143252041Y-84328000D01*
X143368350Y-84912725D01*
X143699570Y-85408430D01*
X144195275Y-85739650D01*
X144632402Y-85826600D01*
X144927598Y-85826600D01*
X145331028Y-85746353D01*
X145380065Y-85992879D01*
X145497576Y-86168747D01*
X145497579Y-86168750D01*
X145537255Y-86228129D01*
X145596634Y-86267805D01*
X146508993Y-87180165D01*
X146548669Y-87239544D01*
X146608048Y-87279220D01*
X146608050Y-87279222D01*
X146672382Y-87322207D01*
X146783919Y-87396734D01*
X146991369Y-87437998D01*
X146991373Y-87437998D01*
X147061415Y-87451930D01*
X147131457Y-87437998D01*
X155091830Y-87437998D01*
X154948000Y-87785234D01*
X154948000Y-88236766D01*
X155120793Y-88653926D01*
X155440074Y-88973207D01*
X155857234Y-89146000D01*
X156308766Y-89146000D01*
X156725926Y-88973207D01*
X156976933Y-88722200D01*
X159603420Y-88722200D01*
X159613762Y-88747167D01*
X159933043Y-89066448D01*
X160350203Y-89239241D01*
X160801735Y-89239241D01*
X161218895Y-89066448D01*
X161538176Y-88747167D01*
X161710969Y-88330007D01*
X161710969Y-87878475D01*
X161538176Y-87461315D01*
X161514859Y-87437998D01*
X163140216Y-87437998D01*
X163203000Y-87500782D01*
X163203000Y-87855760D01*
X163375793Y-88272920D01*
X163695074Y-88592201D01*
X164112234Y-88764994D01*
X164563766Y-88764994D01*
X164980926Y-88592201D01*
X165300207Y-88272920D01*
X165473000Y-87855760D01*
X165473000Y-87404228D01*
X165309014Y-87008329D01*
X165314417Y-87002926D01*
X165487210Y-86585766D01*
X165487210Y-86134234D01*
X165317700Y-85725000D01*
X165487210Y-85315766D01*
X165487210Y-84864234D01*
X165314417Y-84447074D01*
X164995136Y-84127793D01*
X164577976Y-83955000D01*
X164126444Y-83955000D01*
X163709284Y-84127793D01*
X163390003Y-84447074D01*
X163217210Y-84864234D01*
X163217210Y-85219212D01*
X163168622Y-85267800D01*
X151034396Y-85267800D01*
X151271650Y-84912725D01*
X151387959Y-84328000D01*
X151271650Y-83743275D01*
X150941234Y-83248773D01*
X151083299Y-83189927D01*
X151261927Y-83011298D01*
X151358600Y-82777909D01*
X151358600Y-82631029D01*
X200415000Y-82631029D01*
X200415000Y-83738971D01*
X200838991Y-84762576D01*
X201622424Y-85546009D01*
X202646029Y-85970000D01*
X203753971Y-85970000D01*
X204777576Y-85546009D01*
X205561009Y-84762576D01*
X205985000Y-83738971D01*
X205985000Y-82631029D01*
X205561009Y-81607424D01*
X204777576Y-80823991D01*
X203753971Y-80400000D01*
X202646029Y-80400000D01*
X201622424Y-80823991D01*
X200838991Y-81607424D01*
X200415000Y-82631029D01*
X151358600Y-82631029D01*
X151358600Y-82073750D01*
X151199850Y-81915000D01*
X149987000Y-81915000D01*
X149987000Y-81935000D01*
X149733000Y-81935000D01*
X149733000Y-81915000D01*
X149713000Y-81915000D01*
X149713000Y-81661000D01*
X149733000Y-81661000D01*
X149733000Y-80448150D01*
X149987000Y-80448150D01*
X149987000Y-81661000D01*
X151199850Y-81661000D01*
X151358600Y-81502250D01*
X151358600Y-80798091D01*
X151261927Y-80564702D01*
X151083299Y-80386073D01*
X150849910Y-80289400D01*
X150145750Y-80289400D01*
X149987000Y-80448150D01*
X149733000Y-80448150D01*
X149574250Y-80289400D01*
X148870090Y-80289400D01*
X148636701Y-80386073D01*
X148458073Y-80564702D01*
X148399228Y-80706767D01*
X147904725Y-80376350D01*
X147467598Y-80289400D01*
X147172402Y-80289400D01*
X146735275Y-80376350D01*
X146239570Y-80707570D01*
X146050000Y-80991281D01*
X145860430Y-80707570D01*
X145364725Y-80376350D01*
X144927598Y-80289400D01*
X144632402Y-80289400D01*
X144195275Y-80376350D01*
X143699570Y-80707570D01*
X143368350Y-81203275D01*
X143252041Y-81788000D01*
X81407000Y-81788000D01*
X81407000Y-80062606D01*
X82602606Y-78867000D01*
X206322394Y-78867000D01*
X207518000Y-80062606D01*
X207518000Y-80062606D01*
G37*
X207518000Y-80062606D02*
X207518000Y-140917394D01*
X206322395Y-142113000D01*
X188012606Y-142113000D01*
X186817000Y-140917394D01*
X186817000Y-135128000D01*
X201304908Y-135128000D01*
X201420161Y-135707418D01*
X201748375Y-136198625D01*
X202046761Y-136398000D01*
X201748375Y-136597375D01*
X201420161Y-137088582D01*
X201304908Y-137668000D01*
X201420161Y-138247418D01*
X201748375Y-138738625D01*
X202239582Y-139066839D01*
X202672744Y-139153000D01*
X202965256Y-139153000D01*
X203398418Y-139066839D01*
X203889625Y-138738625D01*
X204217839Y-138247418D01*
X204333092Y-137668000D01*
X204217839Y-137088582D01*
X203889625Y-136597375D01*
X203591239Y-136398000D01*
X203889625Y-136198625D01*
X204217839Y-135707418D01*
X204333092Y-135128000D01*
X204217839Y-134548582D01*
X203889625Y-134057375D01*
X203867967Y-134042904D01*
X204028698Y-133976327D01*
X204207327Y-133797699D01*
X204304000Y-133564310D01*
X204304000Y-132873750D01*
X204145250Y-132715000D01*
X202946000Y-132715000D01*
X202946000Y-132735000D01*
X202692000Y-132735000D01*
X202692000Y-132715000D01*
X201492750Y-132715000D01*
X201334000Y-132873750D01*
X201334000Y-133564310D01*
X201430673Y-133797699D01*
X201609302Y-133976327D01*
X201770033Y-134042904D01*
X201748375Y-134057375D01*
X201420161Y-134548582D01*
X201304908Y-135128000D01*
X186817000Y-135128000D01*
X186817000Y-131611690D01*
X201334000Y-131611690D01*
X201334000Y-132302250D01*
X201492750Y-132461000D01*
X202692000Y-132461000D01*
X202692000Y-131261750D01*
X202946000Y-131261750D01*
X202946000Y-132461000D01*
X204145250Y-132461000D01*
X204304000Y-132302250D01*
X204304000Y-131611690D01*
X204207327Y-131378301D01*
X204028698Y-131199673D01*
X203795309Y-131103000D01*
X203104750Y-131103000D01*
X202946000Y-131261750D01*
X202692000Y-131261750D01*
X202533250Y-131103000D01*
X201842691Y-131103000D01*
X201609302Y-131199673D01*
X201430673Y-131378301D01*
X201334000Y-131611690D01*
X186817000Y-131611690D01*
X186817000Y-125490034D01*
X193175000Y-125490034D01*
X193175000Y-125941566D01*
X193347793Y-126358726D01*
X193598801Y-126609734D01*
X193598800Y-126741067D01*
X193347793Y-126992074D01*
X193175000Y-127409234D01*
X193175000Y-127860766D01*
X193347793Y-128277926D01*
X193667074Y-128597207D01*
X194084234Y-128770000D01*
X194535766Y-128770000D01*
X194952926Y-128597207D01*
X195272207Y-128277926D01*
X195445000Y-127860766D01*
X195445000Y-127409234D01*
X195272207Y-126992074D01*
X195021200Y-126741067D01*
X195021200Y-126609733D01*
X195272207Y-126358726D01*
X195445000Y-125941566D01*
X195445000Y-125490034D01*
X195272207Y-125072874D01*
X194952926Y-124753593D01*
X194535766Y-124580800D01*
X194084234Y-124580800D01*
X193667074Y-124753593D01*
X193347793Y-125072874D01*
X193175000Y-125490034D01*
X186817000Y-125490034D01*
X186817000Y-123952000D01*
X201304908Y-123952000D01*
X201420161Y-124531418D01*
X201748375Y-125022625D01*
X202046761Y-125222000D01*
X201748375Y-125421375D01*
X201420161Y-125912582D01*
X201304908Y-126492000D01*
X201420161Y-127071418D01*
X201748375Y-127562625D01*
X202239582Y-127890839D01*
X202672744Y-127977000D01*
X202965256Y-127977000D01*
X203398418Y-127890839D01*
X203889625Y-127562625D01*
X204217839Y-127071418D01*
X204333092Y-126492000D01*
X204217839Y-125912582D01*
X203889625Y-125421375D01*
X203591239Y-125222000D01*
X203889625Y-125022625D01*
X204217839Y-124531418D01*
X204333092Y-123952000D01*
X204217839Y-123372582D01*
X203889625Y-122881375D01*
X203867967Y-122866904D01*
X204028698Y-122800327D01*
X204207327Y-122621699D01*
X204304000Y-122388310D01*
X204304000Y-121697750D01*
X204145250Y-121539000D01*
X202946000Y-121539000D01*
X202946000Y-121559000D01*
X202692000Y-121559000D01*
X202692000Y-121539000D01*
X201492750Y-121539000D01*
X201334000Y-121697750D01*
X201334000Y-122388310D01*
X201430673Y-122621699D01*
X201609302Y-122800327D01*
X201770033Y-122866904D01*
X201748375Y-122881375D01*
X201420161Y-123372582D01*
X201304908Y-123952000D01*
X186817000Y-123952000D01*
X186817000Y-120435690D01*
X201334000Y-120435690D01*
X201334000Y-121126250D01*
X201492750Y-121285000D01*
X202692000Y-121285000D01*
X202692000Y-120085750D01*
X202946000Y-120085750D01*
X202946000Y-121285000D01*
X204145250Y-121285000D01*
X204304000Y-121126250D01*
X204304000Y-120435690D01*
X204207327Y-120202301D01*
X204028698Y-120023673D01*
X203795309Y-119927000D01*
X203104750Y-119927000D01*
X202946000Y-120085750D01*
X202692000Y-120085750D01*
X202533250Y-119927000D01*
X201842691Y-119927000D01*
X201609302Y-120023673D01*
X201430673Y-120202301D01*
X201334000Y-120435690D01*
X186817000Y-120435690D01*
X186817000Y-116840000D01*
X186807333Y-116791399D01*
X186779803Y-116750197D01*
X185509803Y-115480197D01*
X185468601Y-115452667D01*
X185420000Y-115443000D01*
X146774137Y-115443000D01*
X146771047Y-115427467D01*
X146743118Y-115285070D01*
X146742554Y-115284220D01*
X146742354Y-115283217D01*
X146661593Y-115162350D01*
X146581320Y-115041514D01*
X146580473Y-115040945D01*
X146579905Y-115040095D01*
X146459107Y-114959381D01*
X146338633Y-114878416D01*
X146337632Y-114878214D01*
X146336782Y-114877646D01*
X146194091Y-114849263D01*
X146124353Y-114835197D01*
X146123365Y-114835194D01*
X146050000Y-114820601D01*
X145978581Y-114834807D01*
X82459577Y-114664971D01*
X81407000Y-113612394D01*
X81407000Y-112752119D01*
X84963000Y-112752119D01*
X84963000Y-113307881D01*
X85175680Y-113821337D01*
X85568663Y-114214320D01*
X86082119Y-114427000D01*
X86637881Y-114427000D01*
X87151337Y-114214320D01*
X87544320Y-113821337D01*
X87757000Y-113307881D01*
X87757000Y-112752119D01*
X92583000Y-112752119D01*
X92583000Y-113307881D01*
X92795680Y-113821337D01*
X93188663Y-114214320D01*
X93702119Y-114427000D01*
X94257881Y-114427000D01*
X94771337Y-114214320D01*
X95164320Y-113821337D01*
X95377000Y-113307881D01*
X95377000Y-112752119D01*
X95271790Y-112498119D01*
X101473000Y-112498119D01*
X101473000Y-113053881D01*
X101685680Y-113567337D01*
X102078663Y-113960320D01*
X102592119Y-114173000D01*
X103147881Y-114173000D01*
X103661337Y-113960320D01*
X104054320Y-113567337D01*
X104267000Y-113053881D01*
X104267000Y-112498119D01*
X109093000Y-112498119D01*
X109093000Y-113053881D01*
X109305680Y-113567337D01*
X109698663Y-113960320D01*
X110212119Y-114173000D01*
X110767881Y-114173000D01*
X111281337Y-113960320D01*
X111674320Y-113567337D01*
X111887000Y-113053881D01*
X111887000Y-112498119D01*
X118237000Y-112498119D01*
X118237000Y-113053881D01*
X118449680Y-113567337D01*
X118842663Y-113960320D01*
X119356119Y-114173000D01*
X119911881Y-114173000D01*
X120425337Y-113960320D01*
X120818320Y-113567337D01*
X121031000Y-113053881D01*
X121031000Y-112498119D01*
X125857000Y-112498119D01*
X125857000Y-113053881D01*
X126069680Y-113567337D01*
X126462663Y-113960320D01*
X126976119Y-114173000D01*
X127531881Y-114173000D01*
X128045337Y-113960320D01*
X128438320Y-113567337D01*
X128651000Y-113053881D01*
X128651000Y-112498119D01*
X135128000Y-112498119D01*
X135128000Y-113053881D01*
X135340680Y-113567337D01*
X135733663Y-113960320D01*
X136247119Y-114173000D01*
X136802881Y-114173000D01*
X137316337Y-113960320D01*
X137709320Y-113567337D01*
X137922000Y-113053881D01*
X137922000Y-112498119D01*
X142748000Y-112498119D01*
X142748000Y-113053881D01*
X142960680Y-113567337D01*
X143353663Y-113960320D01*
X143867119Y-114173000D01*
X144422881Y-114173000D01*
X144936337Y-113960320D01*
X145329320Y-113567337D01*
X145542000Y-113053881D01*
X145542000Y-112498119D01*
X145329320Y-111984663D01*
X144936337Y-111591680D01*
X144422881Y-111379000D01*
X143867119Y-111379000D01*
X143353663Y-111591680D01*
X142960680Y-111984663D01*
X142748000Y-112498119D01*
X137922000Y-112498119D01*
X137709320Y-111984663D01*
X137316337Y-111591680D01*
X136802881Y-111379000D01*
X136247119Y-111379000D01*
X135733663Y-111591680D01*
X135340680Y-111984663D01*
X135128000Y-112498119D01*
X128651000Y-112498119D01*
X128438320Y-111984663D01*
X128045337Y-111591680D01*
X127531881Y-111379000D01*
X126976119Y-111379000D01*
X126462663Y-111591680D01*
X126069680Y-111984663D01*
X125857000Y-112498119D01*
X121031000Y-112498119D01*
X120818320Y-111984663D01*
X120425337Y-111591680D01*
X119911881Y-111379000D01*
X119356119Y-111379000D01*
X118842663Y-111591680D01*
X118449680Y-111984663D01*
X118237000Y-112498119D01*
X111887000Y-112498119D01*
X111674320Y-111984663D01*
X111281337Y-111591680D01*
X110767881Y-111379000D01*
X110212119Y-111379000D01*
X109698663Y-111591680D01*
X109305680Y-111984663D01*
X109093000Y-112498119D01*
X104267000Y-112498119D01*
X104054320Y-111984663D01*
X103661337Y-111591680D01*
X103147881Y-111379000D01*
X102592119Y-111379000D01*
X102078663Y-111591680D01*
X101685680Y-111984663D01*
X101473000Y-112498119D01*
X95271790Y-112498119D01*
X95164320Y-112238663D01*
X94771337Y-111845680D01*
X94257881Y-111633000D01*
X93702119Y-111633000D01*
X93188663Y-111845680D01*
X92795680Y-112238663D01*
X92583000Y-112752119D01*
X87757000Y-112752119D01*
X87544320Y-112238663D01*
X87151337Y-111845680D01*
X86637881Y-111633000D01*
X86082119Y-111633000D01*
X85568663Y-111845680D01*
X85175680Y-112238663D01*
X84963000Y-112752119D01*
X81407000Y-112752119D01*
X81407000Y-99925213D01*
X121790000Y-99925213D01*
X121790000Y-100734787D01*
X122099810Y-101482735D01*
X122672265Y-102055190D01*
X123420213Y-102365000D01*
X124229787Y-102365000D01*
X124977735Y-102055190D01*
X125550190Y-101482735D01*
X125860000Y-100734787D01*
X125860000Y-99925213D01*
X125550190Y-99177265D01*
X124977735Y-98604810D01*
X124229787Y-98295000D01*
X123420213Y-98295000D01*
X122672265Y-98604810D01*
X122099810Y-99177265D01*
X121790000Y-99925213D01*
X81407000Y-99925213D01*
X81407000Y-96222098D01*
X88072344Y-96222098D01*
X88072344Y-96872542D01*
X88321258Y-97473473D01*
X88781191Y-97933406D01*
X89382122Y-98182320D01*
X90032566Y-98182320D01*
X90424706Y-98019890D01*
X193249524Y-98019890D01*
X193419355Y-98429924D01*
X193809642Y-98858183D01*
X194334108Y-99104486D01*
X194564000Y-98983819D01*
X194564000Y-97790000D01*
X194818000Y-97790000D01*
X194818000Y-98983819D01*
X195047892Y-99104486D01*
X195572358Y-98858183D01*
X195962645Y-98429924D01*
X196132476Y-98019890D01*
X196011155Y-97790000D01*
X194818000Y-97790000D01*
X194564000Y-97790000D01*
X193370845Y-97790000D01*
X193249524Y-98019890D01*
X90424706Y-98019890D01*
X90633497Y-97933406D01*
X91093430Y-97473473D01*
X91342344Y-96872542D01*
X91342344Y-96222098D01*
X91093430Y-95621167D01*
X90952476Y-95480213D01*
X121790000Y-95480213D01*
X121790000Y-96289787D01*
X122099810Y-97037735D01*
X122672265Y-97610190D01*
X123420213Y-97920000D01*
X124229787Y-97920000D01*
X124977735Y-97610190D01*
X125550190Y-97037735D01*
X125860000Y-96289787D01*
X125860000Y-95480213D01*
X125550190Y-94732265D01*
X125090925Y-94273000D01*
X193193560Y-94273000D01*
X193193560Y-95973000D01*
X193242843Y-96220765D01*
X193383191Y-96430809D01*
X193593235Y-96571157D01*
X193696708Y-96591739D01*
X193419355Y-96896076D01*
X193249524Y-97306110D01*
X193370845Y-97536000D01*
X194564000Y-97536000D01*
X194564000Y-97516000D01*
X194818000Y-97516000D01*
X194818000Y-97536000D01*
X196011155Y-97536000D01*
X196132476Y-97306110D01*
X195962645Y-96896076D01*
X195685292Y-96591739D01*
X195788765Y-96571157D01*
X195998809Y-96430809D01*
X196139157Y-96220765D01*
X196188440Y-95973000D01*
X196188440Y-94273000D01*
X196139157Y-94025235D01*
X195998809Y-93815191D01*
X195788765Y-93674843D01*
X195541000Y-93625560D01*
X193841000Y-93625560D01*
X193593235Y-93674843D01*
X193383191Y-93815191D01*
X193242843Y-94025235D01*
X193193560Y-94273000D01*
X125090925Y-94273000D01*
X124977735Y-94159810D01*
X124229787Y-93850000D01*
X123420213Y-93850000D01*
X122672265Y-94159810D01*
X122099810Y-94732265D01*
X121790000Y-95480213D01*
X90952476Y-95480213D01*
X90633497Y-95161234D01*
X90032566Y-94912320D01*
X89382122Y-94912320D01*
X88781191Y-95161234D01*
X88321258Y-95621167D01*
X88072344Y-96222098D01*
X81407000Y-96222098D01*
X81407000Y-91035213D01*
X121790000Y-91035213D01*
X121790000Y-91844787D01*
X122099810Y-92592735D01*
X122672265Y-93165190D01*
X123420213Y-93475000D01*
X124229787Y-93475000D01*
X124977735Y-93165190D01*
X125178925Y-92964000D01*
X201304908Y-92964000D01*
X201420161Y-93543418D01*
X201748375Y-94034625D01*
X202046761Y-94234000D01*
X201748375Y-94433375D01*
X201420161Y-94924582D01*
X201304908Y-95504000D01*
X201420161Y-96083418D01*
X201748375Y-96574625D01*
X202046761Y-96774000D01*
X201748375Y-96973375D01*
X201420161Y-97464582D01*
X201304908Y-98044000D01*
X201420161Y-98623418D01*
X201748375Y-99114625D01*
X202046761Y-99314000D01*
X201748375Y-99513375D01*
X201420161Y-100004582D01*
X201304908Y-100584000D01*
X201420161Y-101163418D01*
X201748375Y-101654625D01*
X202046761Y-101854000D01*
X201748375Y-102053375D01*
X201420161Y-102544582D01*
X201304908Y-103124000D01*
X201420161Y-103703418D01*
X201748375Y-104194625D01*
X202239582Y-104522839D01*
X202672744Y-104609000D01*
X202965256Y-104609000D01*
X203398418Y-104522839D01*
X203889625Y-104194625D01*
X204217839Y-103703418D01*
X204333092Y-103124000D01*
X204217839Y-102544582D01*
X203889625Y-102053375D01*
X203591239Y-101854000D01*
X203889625Y-101654625D01*
X204217839Y-101163418D01*
X204333092Y-100584000D01*
X204217839Y-100004582D01*
X203889625Y-99513375D01*
X203591239Y-99314000D01*
X203889625Y-99114625D01*
X204217839Y-98623418D01*
X204333092Y-98044000D01*
X204217839Y-97464582D01*
X203889625Y-96973375D01*
X203591239Y-96774000D01*
X203889625Y-96574625D01*
X204217839Y-96083418D01*
X204333092Y-95504000D01*
X204217839Y-94924582D01*
X203889625Y-94433375D01*
X203591239Y-94234000D01*
X203889625Y-94034625D01*
X204217839Y-93543418D01*
X204333092Y-92964000D01*
X204217839Y-92384582D01*
X203889625Y-91893375D01*
X203867967Y-91878904D01*
X204028698Y-91812327D01*
X204207327Y-91633699D01*
X204304000Y-91400310D01*
X204304000Y-90709750D01*
X204145250Y-90551000D01*
X202946000Y-90551000D01*
X202946000Y-90571000D01*
X202692000Y-90571000D01*
X202692000Y-90551000D01*
X201492750Y-90551000D01*
X201334000Y-90709750D01*
X201334000Y-91400310D01*
X201430673Y-91633699D01*
X201609302Y-91812327D01*
X201770033Y-91878904D01*
X201748375Y-91893375D01*
X201420161Y-92384582D01*
X201304908Y-92964000D01*
X125178925Y-92964000D01*
X125550190Y-92592735D01*
X125860000Y-91844787D01*
X125860000Y-91035213D01*
X125550190Y-90287265D01*
X124977735Y-89714810D01*
X124332850Y-89447690D01*
X201334000Y-89447690D01*
X201334000Y-90138250D01*
X201492750Y-90297000D01*
X202692000Y-90297000D01*
X202692000Y-89097750D01*
X202946000Y-89097750D01*
X202946000Y-90297000D01*
X204145250Y-90297000D01*
X204304000Y-90138250D01*
X204304000Y-89447690D01*
X204207327Y-89214301D01*
X204028698Y-89035673D01*
X203795309Y-88939000D01*
X203104750Y-88939000D01*
X202946000Y-89097750D01*
X202692000Y-89097750D01*
X202533250Y-88939000D01*
X201842691Y-88939000D01*
X201609302Y-89035673D01*
X201430673Y-89214301D01*
X201334000Y-89447690D01*
X124332850Y-89447690D01*
X124229787Y-89405000D01*
X123420213Y-89405000D01*
X122672265Y-89714810D01*
X122099810Y-90287265D01*
X121790000Y-91035213D01*
X81407000Y-91035213D01*
X81407000Y-90079852D01*
X88735417Y-90079852D01*
X88834080Y-90346707D01*
X89443805Y-90573228D01*
X90093804Y-90549176D01*
X90582608Y-90346707D01*
X90681271Y-90079852D01*
X89708344Y-89106925D01*
X88735417Y-90079852D01*
X81407000Y-90079852D01*
X81407000Y-88662781D01*
X88062436Y-88662781D01*
X88086488Y-89312780D01*
X88288957Y-89801584D01*
X88555812Y-89900247D01*
X89528739Y-88927320D01*
X89887949Y-88927320D01*
X90860876Y-89900247D01*
X91127731Y-89801584D01*
X91354252Y-89191859D01*
X91330200Y-88541860D01*
X91286652Y-88436724D01*
X122562882Y-88436724D01*
X122710455Y-88745106D01*
X123465031Y-89038405D01*
X124274409Y-89020614D01*
X124939545Y-88745106D01*
X125087118Y-88436724D01*
X123825000Y-87174605D01*
X122562882Y-88436724D01*
X91286652Y-88436724D01*
X91127731Y-88053056D01*
X90860876Y-87954393D01*
X89887949Y-88927320D01*
X89528739Y-88927320D01*
X88555812Y-87954393D01*
X88288957Y-88053056D01*
X88062436Y-88662781D01*
X81407000Y-88662781D01*
X81407000Y-87774788D01*
X88735417Y-87774788D01*
X89708344Y-88747715D01*
X90681271Y-87774788D01*
X90582608Y-87507933D01*
X89972883Y-87281412D01*
X89322884Y-87305464D01*
X88834080Y-87507933D01*
X88735417Y-87774788D01*
X81407000Y-87774788D01*
X81407000Y-86635031D01*
X121781595Y-86635031D01*
X121799386Y-87444409D01*
X122074894Y-88109545D01*
X122383276Y-88257118D01*
X123645395Y-86995000D01*
X124004605Y-86995000D01*
X125266724Y-88257118D01*
X125575106Y-88109545D01*
X125868405Y-87354969D01*
X125850614Y-86545591D01*
X125575106Y-85880455D01*
X125266724Y-85732882D01*
X124004605Y-86995000D01*
X123645395Y-86995000D01*
X122383276Y-85732882D01*
X122074894Y-85880455D01*
X121781595Y-86635031D01*
X81407000Y-86635031D01*
X81407000Y-85553276D01*
X122562882Y-85553276D01*
X123825000Y-86815395D01*
X125087118Y-85553276D01*
X124939545Y-85244894D01*
X124184969Y-84951595D01*
X123375591Y-84969386D01*
X122710455Y-85244894D01*
X122562882Y-85553276D01*
X81407000Y-85553276D01*
X81407000Y-81788000D01*
X143252041Y-81788000D01*
X143368350Y-82372725D01*
X143699570Y-82868430D01*
X143983281Y-83058000D01*
X143699570Y-83247570D01*
X143368350Y-83743275D01*
X143252041Y-84328000D01*
X143368350Y-84912725D01*
X143699570Y-85408430D01*
X144195275Y-85739650D01*
X144632402Y-85826600D01*
X144927598Y-85826600D01*
X145331028Y-85746353D01*
X145380065Y-85992879D01*
X145497576Y-86168747D01*
X145497579Y-86168750D01*
X145537255Y-86228129D01*
X145596634Y-86267805D01*
X146508993Y-87180165D01*
X146548669Y-87239544D01*
X146608048Y-87279220D01*
X146608050Y-87279222D01*
X146672382Y-87322207D01*
X146783919Y-87396734D01*
X146991369Y-87437998D01*
X146991373Y-87437998D01*
X147061415Y-87451930D01*
X147131457Y-87437998D01*
X155091830Y-87437998D01*
X154948000Y-87785234D01*
X154948000Y-88236766D01*
X155120793Y-88653926D01*
X155440074Y-88973207D01*
X155857234Y-89146000D01*
X156308766Y-89146000D01*
X156725926Y-88973207D01*
X156976933Y-88722200D01*
X159603420Y-88722200D01*
X159613762Y-88747167D01*
X159933043Y-89066448D01*
X160350203Y-89239241D01*
X160801735Y-89239241D01*
X161218895Y-89066448D01*
X161538176Y-88747167D01*
X161710969Y-88330007D01*
X161710969Y-87878475D01*
X161538176Y-87461315D01*
X161514859Y-87437998D01*
X163140216Y-87437998D01*
X163203000Y-87500782D01*
X163203000Y-87855760D01*
X163375793Y-88272920D01*
X163695074Y-88592201D01*
X164112234Y-88764994D01*
X164563766Y-88764994D01*
X164980926Y-88592201D01*
X165300207Y-88272920D01*
X165473000Y-87855760D01*
X165473000Y-87404228D01*
X165309014Y-87008329D01*
X165314417Y-87002926D01*
X165487210Y-86585766D01*
X165487210Y-86134234D01*
X165317700Y-85725000D01*
X165487210Y-85315766D01*
X165487210Y-84864234D01*
X165314417Y-84447074D01*
X164995136Y-84127793D01*
X164577976Y-83955000D01*
X164126444Y-83955000D01*
X163709284Y-84127793D01*
X163390003Y-84447074D01*
X163217210Y-84864234D01*
X163217210Y-85219212D01*
X163168622Y-85267800D01*
X151034396Y-85267800D01*
X151271650Y-84912725D01*
X151387959Y-84328000D01*
X151271650Y-83743275D01*
X150941234Y-83248773D01*
X151083299Y-83189927D01*
X151261927Y-83011298D01*
X151358600Y-82777909D01*
X151358600Y-82631029D01*
X200415000Y-82631029D01*
X200415000Y-83738971D01*
X200838991Y-84762576D01*
X201622424Y-85546009D01*
X202646029Y-85970000D01*
X203753971Y-85970000D01*
X204777576Y-85546009D01*
X205561009Y-84762576D01*
X205985000Y-83738971D01*
X205985000Y-82631029D01*
X205561009Y-81607424D01*
X204777576Y-80823991D01*
X203753971Y-80400000D01*
X202646029Y-80400000D01*
X201622424Y-80823991D01*
X200838991Y-81607424D01*
X200415000Y-82631029D01*
X151358600Y-82631029D01*
X151358600Y-82073750D01*
X151199850Y-81915000D01*
X149987000Y-81915000D01*
X149987000Y-81935000D01*
X149733000Y-81935000D01*
X149733000Y-81915000D01*
X149713000Y-81915000D01*
X149713000Y-81661000D01*
X149733000Y-81661000D01*
X149733000Y-80448150D01*
X149987000Y-80448150D01*
X149987000Y-81661000D01*
X151199850Y-81661000D01*
X151358600Y-81502250D01*
X151358600Y-80798091D01*
X151261927Y-80564702D01*
X151083299Y-80386073D01*
X150849910Y-80289400D01*
X150145750Y-80289400D01*
X149987000Y-80448150D01*
X149733000Y-80448150D01*
X149574250Y-80289400D01*
X148870090Y-80289400D01*
X148636701Y-80386073D01*
X148458073Y-80564702D01*
X148399228Y-80706767D01*
X147904725Y-80376350D01*
X147467598Y-80289400D01*
X147172402Y-80289400D01*
X146735275Y-80376350D01*
X146239570Y-80707570D01*
X146050000Y-80991281D01*
X145860430Y-80707570D01*
X145364725Y-80376350D01*
X144927598Y-80289400D01*
X144632402Y-80289400D01*
X144195275Y-80376350D01*
X143699570Y-80707570D01*
X143368350Y-81203275D01*
X143252041Y-81788000D01*
X81407000Y-81788000D01*
X81407000Y-80062606D01*
X82602606Y-78867000D01*
X206322394Y-78867000D01*
X207518000Y-80062606D01*
G36*
X206883000Y-74168000D02*
X39497000Y-74168000D01*
X39497000Y-73057532D01*
X51732073Y-73057532D01*
X51830736Y-73324387D01*
X52440461Y-73550908D01*
X53090460Y-73526856D01*
X53579264Y-73324387D01*
X53677927Y-73057532D01*
X52705000Y-72084605D01*
X51732073Y-73057532D01*
X39497000Y-73057532D01*
X39497000Y-71640461D01*
X51059092Y-71640461D01*
X51083144Y-72290460D01*
X51285613Y-72779264D01*
X51552468Y-72877927D01*
X52525395Y-71905000D01*
X52884605Y-71905000D01*
X53857532Y-72877927D01*
X54124387Y-72779264D01*
X54350908Y-72169539D01*
X54326856Y-71519540D01*
X54124387Y-71030736D01*
X53857532Y-70932073D01*
X52884605Y-71905000D01*
X52525395Y-71905000D01*
X51552468Y-70932073D01*
X51285613Y-71030736D01*
X51059092Y-71640461D01*
X39497000Y-71640461D01*
X39497000Y-70752468D01*
X51732073Y-70752468D01*
X52705000Y-71725395D01*
X53677927Y-70752468D01*
X53579264Y-70485613D01*
X52969539Y-70259092D01*
X52319540Y-70283144D01*
X51830736Y-70485613D01*
X51732073Y-70752468D01*
X39497000Y-70752468D01*
X39497000Y-66557532D01*
X51732073Y-66557532D01*
X51830736Y-66824387D01*
X52440461Y-67050908D01*
X53090460Y-67026856D01*
X53579264Y-66824387D01*
X53677927Y-66557532D01*
X52705000Y-65584605D01*
X51732073Y-66557532D01*
X39497000Y-66557532D01*
X39497000Y-63760050D01*
X40025000Y-63760050D01*
X40025000Y-64509950D01*
X40311974Y-65202767D01*
X40842233Y-65733026D01*
X41535050Y-66020000D01*
X42284950Y-66020000D01*
X42977767Y-65733026D01*
X43508026Y-65202767D01*
X43533833Y-65140461D01*
X51059092Y-65140461D01*
X51083144Y-65790460D01*
X51285613Y-66279264D01*
X51552468Y-66377927D01*
X52525395Y-65405000D01*
X52884605Y-65405000D01*
X53857532Y-66377927D01*
X54124387Y-66279264D01*
X54350908Y-65669539D01*
X54329085Y-65079778D01*
X55570000Y-65079778D01*
X55570000Y-65730222D01*
X55818914Y-66331153D01*
X56278847Y-66791086D01*
X56493801Y-66880123D01*
X56493800Y-70429877D01*
X56278847Y-70518914D01*
X55818914Y-70978847D01*
X55570000Y-71579778D01*
X55570000Y-72230222D01*
X55818914Y-72831153D01*
X56278847Y-73291086D01*
X56879778Y-73540000D01*
X57530222Y-73540000D01*
X58131153Y-73291086D01*
X58364707Y-73057532D01*
X63892073Y-73057532D01*
X63990736Y-73324387D01*
X64600461Y-73550908D01*
X65250460Y-73526856D01*
X65739264Y-73324387D01*
X65837927Y-73057532D01*
X64865000Y-72084605D01*
X63892073Y-73057532D01*
X58364707Y-73057532D01*
X58591086Y-72831153D01*
X58840000Y-72230222D01*
X58840000Y-71640461D01*
X63219092Y-71640461D01*
X63243144Y-72290460D01*
X63445613Y-72779264D01*
X63712468Y-72877927D01*
X64685395Y-71905000D01*
X65044605Y-71905000D01*
X66017532Y-72877927D01*
X66284387Y-72779264D01*
X66510908Y-72169539D01*
X66486856Y-71519540D01*
X66284387Y-71030736D01*
X66017532Y-70932073D01*
X65044605Y-71905000D01*
X64685395Y-71905000D01*
X63712468Y-70932073D01*
X63445613Y-71030736D01*
X63219092Y-71640461D01*
X58840000Y-71640461D01*
X58840000Y-71579778D01*
X58591086Y-70978847D01*
X58364707Y-70752468D01*
X63892073Y-70752468D01*
X64865000Y-71725395D01*
X65837927Y-70752468D01*
X65739264Y-70485613D01*
X65129539Y-70259092D01*
X64479540Y-70283144D01*
X63990736Y-70485613D01*
X63892073Y-70752468D01*
X58364707Y-70752468D01*
X58131153Y-70518914D01*
X57916200Y-70429877D01*
X57916200Y-66880123D01*
X58131153Y-66791086D01*
X58364707Y-66557532D01*
X63892073Y-66557532D01*
X63990736Y-66824387D01*
X64600461Y-67050908D01*
X65250460Y-67026856D01*
X65739264Y-66824387D01*
X65837927Y-66557532D01*
X64865000Y-65584605D01*
X63892073Y-66557532D01*
X58364707Y-66557532D01*
X58591086Y-66331153D01*
X58840000Y-65730222D01*
X58840000Y-65140461D01*
X63219092Y-65140461D01*
X63243144Y-65790460D01*
X63445613Y-66279264D01*
X63712468Y-66377927D01*
X64685395Y-65405000D01*
X65044605Y-65405000D01*
X66017532Y-66377927D01*
X66284387Y-66279264D01*
X66510908Y-65669539D01*
X66489085Y-65079778D01*
X67730000Y-65079778D01*
X67730000Y-65730222D01*
X67978914Y-66331153D01*
X68438847Y-66791086D01*
X68653801Y-66880123D01*
X68653800Y-70429877D01*
X68438847Y-70518914D01*
X67978914Y-70978847D01*
X67730000Y-71579778D01*
X67730000Y-72230222D01*
X67978914Y-72831153D01*
X68438847Y-73291086D01*
X69039778Y-73540000D01*
X69690222Y-73540000D01*
X70291153Y-73291086D01*
X70524707Y-73057532D01*
X76442073Y-73057532D01*
X76540736Y-73324387D01*
X77150461Y-73550908D01*
X77800460Y-73526856D01*
X78289264Y-73324387D01*
X78387927Y-73057532D01*
X77415000Y-72084605D01*
X76442073Y-73057532D01*
X70524707Y-73057532D01*
X70751086Y-72831153D01*
X71000000Y-72230222D01*
X71000000Y-71640461D01*
X75769092Y-71640461D01*
X75793144Y-72290460D01*
X75995613Y-72779264D01*
X76262468Y-72877927D01*
X77235395Y-71905000D01*
X77594605Y-71905000D01*
X78567532Y-72877927D01*
X78834387Y-72779264D01*
X79060908Y-72169539D01*
X79036856Y-71519540D01*
X78834387Y-71030736D01*
X78567532Y-70932073D01*
X77594605Y-71905000D01*
X77235395Y-71905000D01*
X76262468Y-70932073D01*
X75995613Y-71030736D01*
X75769092Y-71640461D01*
X71000000Y-71640461D01*
X71000000Y-71579778D01*
X70751086Y-70978847D01*
X70524707Y-70752468D01*
X76442073Y-70752468D01*
X77415000Y-71725395D01*
X78387927Y-70752468D01*
X78289264Y-70485613D01*
X77679539Y-70259092D01*
X77029540Y-70283144D01*
X76540736Y-70485613D01*
X76442073Y-70752468D01*
X70524707Y-70752468D01*
X70291153Y-70518914D01*
X70076200Y-70429877D01*
X70076200Y-66880123D01*
X70291153Y-66791086D01*
X70524707Y-66557532D01*
X76442073Y-66557532D01*
X76540736Y-66824387D01*
X77150461Y-67050908D01*
X77800460Y-67026856D01*
X78289264Y-66824387D01*
X78387927Y-66557532D01*
X77415000Y-65584605D01*
X76442073Y-66557532D01*
X70524707Y-66557532D01*
X70751086Y-66331153D01*
X71000000Y-65730222D01*
X71000000Y-65140461D01*
X75769092Y-65140461D01*
X75793144Y-65790460D01*
X75995613Y-66279264D01*
X76262468Y-66377927D01*
X77235395Y-65405000D01*
X77594605Y-65405000D01*
X78567532Y-66377927D01*
X78834387Y-66279264D01*
X79060908Y-65669539D01*
X79039085Y-65079778D01*
X80280000Y-65079778D01*
X80280000Y-65730222D01*
X80528914Y-66331153D01*
X80988847Y-66791086D01*
X81203801Y-66880123D01*
X81203800Y-70429877D01*
X80988847Y-70518914D01*
X80528914Y-70978847D01*
X80280000Y-71579778D01*
X80280000Y-72230222D01*
X80528914Y-72831153D01*
X80988847Y-73291086D01*
X81589778Y-73540000D01*
X82240222Y-73540000D01*
X82841153Y-73291086D01*
X83074707Y-73057532D01*
X89292073Y-73057532D01*
X89390736Y-73324387D01*
X90000461Y-73550908D01*
X90650460Y-73526856D01*
X91139264Y-73324387D01*
X91237927Y-73057532D01*
X90265000Y-72084605D01*
X89292073Y-73057532D01*
X83074707Y-73057532D01*
X83301086Y-72831153D01*
X83550000Y-72230222D01*
X83550000Y-71640461D01*
X88619092Y-71640461D01*
X88643144Y-72290460D01*
X88845613Y-72779264D01*
X89112468Y-72877927D01*
X90085395Y-71905000D01*
X90444605Y-71905000D01*
X91417532Y-72877927D01*
X91684387Y-72779264D01*
X91910908Y-72169539D01*
X91886856Y-71519540D01*
X91684387Y-71030736D01*
X91417532Y-70932073D01*
X90444605Y-71905000D01*
X90085395Y-71905000D01*
X89112468Y-70932073D01*
X88845613Y-71030736D01*
X88619092Y-71640461D01*
X83550000Y-71640461D01*
X83550000Y-71579778D01*
X83301086Y-70978847D01*
X83074707Y-70752468D01*
X89292073Y-70752468D01*
X90265000Y-71725395D01*
X91237927Y-70752468D01*
X91139264Y-70485613D01*
X90529539Y-70259092D01*
X89879540Y-70283144D01*
X89390736Y-70485613D01*
X89292073Y-70752468D01*
X83074707Y-70752468D01*
X82841153Y-70518914D01*
X82626200Y-70429877D01*
X82626200Y-66880123D01*
X82841153Y-66791086D01*
X83074707Y-66557532D01*
X89292073Y-66557532D01*
X89390736Y-66824387D01*
X90000461Y-67050908D01*
X90650460Y-67026856D01*
X91139264Y-66824387D01*
X91237927Y-66557532D01*
X90265000Y-65584605D01*
X89292073Y-66557532D01*
X83074707Y-66557532D01*
X83301086Y-66331153D01*
X83550000Y-65730222D01*
X83550000Y-65140461D01*
X88619092Y-65140461D01*
X88643144Y-65790460D01*
X88845613Y-66279264D01*
X89112468Y-66377927D01*
X90085395Y-65405000D01*
X90444605Y-65405000D01*
X91417532Y-66377927D01*
X91684387Y-66279264D01*
X91910908Y-65669539D01*
X91889085Y-65079778D01*
X93130000Y-65079778D01*
X93130000Y-65730222D01*
X93378914Y-66331153D01*
X93838847Y-66791086D01*
X94053801Y-66880123D01*
X94053800Y-70429877D01*
X93838847Y-70518914D01*
X93378914Y-70978847D01*
X93130000Y-71579778D01*
X93130000Y-72230222D01*
X93378914Y-72831153D01*
X93838847Y-73291086D01*
X94439778Y-73540000D01*
X95090222Y-73540000D01*
X95691153Y-73291086D01*
X95924707Y-73057532D01*
X101992073Y-73057532D01*
X102090736Y-73324387D01*
X102700461Y-73550908D01*
X103350460Y-73526856D01*
X103839264Y-73324387D01*
X103937927Y-73057532D01*
X102965000Y-72084605D01*
X101992073Y-73057532D01*
X95924707Y-73057532D01*
X96151086Y-72831153D01*
X96400000Y-72230222D01*
X96400000Y-71640461D01*
X101319092Y-71640461D01*
X101343144Y-72290460D01*
X101545613Y-72779264D01*
X101812468Y-72877927D01*
X102785395Y-71905000D01*
X103144605Y-71905000D01*
X104117532Y-72877927D01*
X104384387Y-72779264D01*
X104610908Y-72169539D01*
X104586856Y-71519540D01*
X104384387Y-71030736D01*
X104117532Y-70932073D01*
X103144605Y-71905000D01*
X102785395Y-71905000D01*
X101812468Y-70932073D01*
X101545613Y-71030736D01*
X101319092Y-71640461D01*
X96400000Y-71640461D01*
X96400000Y-71579778D01*
X96151086Y-70978847D01*
X95924707Y-70752468D01*
X101992073Y-70752468D01*
X102965000Y-71725395D01*
X103937927Y-70752468D01*
X103839264Y-70485613D01*
X103229539Y-70259092D01*
X102579540Y-70283144D01*
X102090736Y-70485613D01*
X101992073Y-70752468D01*
X95924707Y-70752468D01*
X95691153Y-70518914D01*
X95476200Y-70429877D01*
X95476200Y-66880123D01*
X95691153Y-66791086D01*
X95924707Y-66557532D01*
X101992073Y-66557532D01*
X102090736Y-66824387D01*
X102700461Y-67050908D01*
X103350460Y-67026856D01*
X103839264Y-66824387D01*
X103937927Y-66557532D01*
X102965000Y-65584605D01*
X101992073Y-66557532D01*
X95924707Y-66557532D01*
X96151086Y-66331153D01*
X96400000Y-65730222D01*
X96400000Y-65140461D01*
X101319092Y-65140461D01*
X101343144Y-65790460D01*
X101545613Y-66279264D01*
X101812468Y-66377927D01*
X102785395Y-65405000D01*
X103144605Y-65405000D01*
X104117532Y-66377927D01*
X104384387Y-66279264D01*
X104610908Y-65669539D01*
X104589085Y-65079778D01*
X105830000Y-65079778D01*
X105830000Y-65730222D01*
X106078914Y-66331153D01*
X106538847Y-66791086D01*
X106753801Y-66880123D01*
X106753800Y-70429877D01*
X106538847Y-70518914D01*
X106078914Y-70978847D01*
X105830000Y-71579778D01*
X105830000Y-72230222D01*
X106078914Y-72831153D01*
X106538847Y-73291086D01*
X107139778Y-73540000D01*
X107790222Y-73540000D01*
X108391153Y-73291086D01*
X108624707Y-73057532D01*
X114542073Y-73057532D01*
X114640736Y-73324387D01*
X115250461Y-73550908D01*
X115900460Y-73526856D01*
X116389264Y-73324387D01*
X116487927Y-73057532D01*
X115515000Y-72084605D01*
X114542073Y-73057532D01*
X108624707Y-73057532D01*
X108851086Y-72831153D01*
X109100000Y-72230222D01*
X109100000Y-71640461D01*
X113869092Y-71640461D01*
X113893144Y-72290460D01*
X114095613Y-72779264D01*
X114362468Y-72877927D01*
X115335395Y-71905000D01*
X115694605Y-71905000D01*
X116667532Y-72877927D01*
X116934387Y-72779264D01*
X117160908Y-72169539D01*
X117136856Y-71519540D01*
X116934387Y-71030736D01*
X116667532Y-70932073D01*
X115694605Y-71905000D01*
X115335395Y-71905000D01*
X114362468Y-70932073D01*
X114095613Y-71030736D01*
X113869092Y-71640461D01*
X109100000Y-71640461D01*
X109100000Y-71579778D01*
X108851086Y-70978847D01*
X108624707Y-70752468D01*
X114542073Y-70752468D01*
X115515000Y-71725395D01*
X116487927Y-70752468D01*
X116389264Y-70485613D01*
X115779539Y-70259092D01*
X115129540Y-70283144D01*
X114640736Y-70485613D01*
X114542073Y-70752468D01*
X108624707Y-70752468D01*
X108391153Y-70518914D01*
X108176200Y-70429877D01*
X108176200Y-66880123D01*
X108391153Y-66791086D01*
X108624707Y-66557532D01*
X114542073Y-66557532D01*
X114640736Y-66824387D01*
X115250461Y-67050908D01*
X115900460Y-67026856D01*
X116389264Y-66824387D01*
X116487927Y-66557532D01*
X115515000Y-65584605D01*
X114542073Y-66557532D01*
X108624707Y-66557532D01*
X108851086Y-66331153D01*
X109100000Y-65730222D01*
X109100000Y-65140461D01*
X113869092Y-65140461D01*
X113893144Y-65790460D01*
X114095613Y-66279264D01*
X114362468Y-66377927D01*
X115335395Y-65405000D01*
X115694605Y-65405000D01*
X116667532Y-66377927D01*
X116934387Y-66279264D01*
X117160908Y-65669539D01*
X117139085Y-65079778D01*
X118380000Y-65079778D01*
X118380000Y-65730222D01*
X118628914Y-66331153D01*
X119088847Y-66791086D01*
X119303801Y-66880123D01*
X119303800Y-70429877D01*
X119088847Y-70518914D01*
X118628914Y-70978847D01*
X118380000Y-71579778D01*
X118380000Y-72230222D01*
X118628914Y-72831153D01*
X119088847Y-73291086D01*
X119689778Y-73540000D01*
X120340222Y-73540000D01*
X120941153Y-73291086D01*
X121401086Y-72831153D01*
X121650000Y-72230222D01*
X121650000Y-71579778D01*
X121401086Y-70978847D01*
X120941153Y-70518914D01*
X120726200Y-70429877D01*
X120726200Y-66880123D01*
X120941153Y-66791086D01*
X121401086Y-66331153D01*
X121650000Y-65730222D01*
X121650000Y-65079778D01*
X121401086Y-64478847D01*
X120941153Y-64018914D01*
X120340222Y-63770000D01*
X119689778Y-63770000D01*
X119088847Y-64018914D01*
X118628914Y-64478847D01*
X118380000Y-65079778D01*
X117139085Y-65079778D01*
X117136856Y-65019540D01*
X116934387Y-64530736D01*
X116667532Y-64432073D01*
X115694605Y-65405000D01*
X115335395Y-65405000D01*
X114362468Y-64432073D01*
X114095613Y-64530736D01*
X113869092Y-65140461D01*
X109100000Y-65140461D01*
X109100000Y-65079778D01*
X108851086Y-64478847D01*
X108624707Y-64252468D01*
X114542073Y-64252468D01*
X115515000Y-65225395D01*
X116487927Y-64252468D01*
X116389264Y-63985613D01*
X115779539Y-63759092D01*
X115129540Y-63783144D01*
X114640736Y-63985613D01*
X114542073Y-64252468D01*
X108624707Y-64252468D01*
X108391153Y-64018914D01*
X107790222Y-63770000D01*
X107139778Y-63770000D01*
X106538847Y-64018914D01*
X106078914Y-64478847D01*
X105830000Y-65079778D01*
X104589085Y-65079778D01*
X104586856Y-65019540D01*
X104384387Y-64530736D01*
X104117532Y-64432073D01*
X103144605Y-65405000D01*
X102785395Y-65405000D01*
X101812468Y-64432073D01*
X101545613Y-64530736D01*
X101319092Y-65140461D01*
X96400000Y-65140461D01*
X96400000Y-65079778D01*
X96151086Y-64478847D01*
X95924707Y-64252468D01*
X101992073Y-64252468D01*
X102965000Y-65225395D01*
X103937927Y-64252468D01*
X103839264Y-63985613D01*
X103229539Y-63759092D01*
X102579540Y-63783144D01*
X102090736Y-63985613D01*
X101992073Y-64252468D01*
X95924707Y-64252468D01*
X95691153Y-64018914D01*
X95090222Y-63770000D01*
X94439778Y-63770000D01*
X93838847Y-64018914D01*
X93378914Y-64478847D01*
X93130000Y-65079778D01*
X91889085Y-65079778D01*
X91886856Y-65019540D01*
X91684387Y-64530736D01*
X91417532Y-64432073D01*
X90444605Y-65405000D01*
X90085395Y-65405000D01*
X89112468Y-64432073D01*
X88845613Y-64530736D01*
X88619092Y-65140461D01*
X83550000Y-65140461D01*
X83550000Y-65079778D01*
X83301086Y-64478847D01*
X83074707Y-64252468D01*
X89292073Y-64252468D01*
X90265000Y-65225395D01*
X91237927Y-64252468D01*
X91139264Y-63985613D01*
X90529539Y-63759092D01*
X89879540Y-63783144D01*
X89390736Y-63985613D01*
X89292073Y-64252468D01*
X83074707Y-64252468D01*
X82841153Y-64018914D01*
X82240222Y-63770000D01*
X81589778Y-63770000D01*
X80988847Y-64018914D01*
X80528914Y-64478847D01*
X80280000Y-65079778D01*
X79039085Y-65079778D01*
X79036856Y-65019540D01*
X78834387Y-64530736D01*
X78567532Y-64432073D01*
X77594605Y-65405000D01*
X77235395Y-65405000D01*
X76262468Y-64432073D01*
X75995613Y-64530736D01*
X75769092Y-65140461D01*
X71000000Y-65140461D01*
X71000000Y-65079778D01*
X70751086Y-64478847D01*
X70524707Y-64252468D01*
X76442073Y-64252468D01*
X77415000Y-65225395D01*
X78387927Y-64252468D01*
X78289264Y-63985613D01*
X77679539Y-63759092D01*
X77029540Y-63783144D01*
X76540736Y-63985613D01*
X76442073Y-64252468D01*
X70524707Y-64252468D01*
X70291153Y-64018914D01*
X69690222Y-63770000D01*
X69039778Y-63770000D01*
X68438847Y-64018914D01*
X67978914Y-64478847D01*
X67730000Y-65079778D01*
X66489085Y-65079778D01*
X66486856Y-65019540D01*
X66284387Y-64530736D01*
X66017532Y-64432073D01*
X65044605Y-65405000D01*
X64685395Y-65405000D01*
X63712468Y-64432073D01*
X63445613Y-64530736D01*
X63219092Y-65140461D01*
X58840000Y-65140461D01*
X58840000Y-65079778D01*
X58591086Y-64478847D01*
X58364707Y-64252468D01*
X63892073Y-64252468D01*
X64865000Y-65225395D01*
X65837927Y-64252468D01*
X65739264Y-63985613D01*
X65129539Y-63759092D01*
X64479540Y-63783144D01*
X63990736Y-63985613D01*
X63892073Y-64252468D01*
X58364707Y-64252468D01*
X58131153Y-64018914D01*
X57530222Y-63770000D01*
X56879778Y-63770000D01*
X56278847Y-64018914D01*
X55818914Y-64478847D01*
X55570000Y-65079778D01*
X54329085Y-65079778D01*
X54326856Y-65019540D01*
X54124387Y-64530736D01*
X53857532Y-64432073D01*
X52884605Y-65405000D01*
X52525395Y-65405000D01*
X51552468Y-64432073D01*
X51285613Y-64530736D01*
X51059092Y-65140461D01*
X43533833Y-65140461D01*
X43795000Y-64509950D01*
X43795000Y-64252468D01*
X51732073Y-64252468D01*
X52705000Y-65225395D01*
X53677927Y-64252468D01*
X53579264Y-63985613D01*
X52969539Y-63759092D01*
X52319540Y-63783144D01*
X51830736Y-63985613D01*
X51732073Y-64252468D01*
X43795000Y-64252468D01*
X43795000Y-63760050D01*
X43508026Y-63067233D01*
X43080027Y-62639234D01*
X143391000Y-62639234D01*
X143391000Y-63090766D01*
X143563793Y-63507926D01*
X143883074Y-63827207D01*
X144300234Y-64000000D01*
X144751766Y-64000000D01*
X145168926Y-63827207D01*
X145488207Y-63507926D01*
X145661000Y-63090766D01*
X145661000Y-62941200D01*
X149078193Y-62941200D01*
X148967041Y-63500000D01*
X149083350Y-64084725D01*
X149414570Y-64580430D01*
X149698281Y-64770000D01*
X149414570Y-64959570D01*
X149083350Y-65455275D01*
X148967041Y-66040000D01*
X149083350Y-66624725D01*
X149414570Y-67120430D01*
X149910275Y-67451650D01*
X150347402Y-67538600D01*
X150642598Y-67538600D01*
X151053800Y-67456807D01*
X151053800Y-68448067D01*
X150802793Y-68699074D01*
X150630000Y-69116234D01*
X150630000Y-69567766D01*
X150802793Y-69984926D01*
X151122074Y-70304207D01*
X151539234Y-70477000D01*
X151990766Y-70477000D01*
X152407926Y-70304207D01*
X152727207Y-69984926D01*
X152891619Y-69588000D01*
X153260766Y-69588000D01*
X153677926Y-69415207D01*
X153997207Y-69095926D01*
X154170000Y-68678766D01*
X154170000Y-68227234D01*
X153997207Y-67810074D01*
X153746200Y-67559067D01*
X153746200Y-67367142D01*
X154115430Y-67120430D01*
X154446650Y-66624725D01*
X154562959Y-66040000D01*
X154446650Y-65455275D01*
X154115430Y-64959570D01*
X153831719Y-64770000D01*
X154115430Y-64580430D01*
X154362142Y-64211200D01*
X154539867Y-64211200D01*
X154790874Y-64462207D01*
X155208034Y-64635000D01*
X155659566Y-64635000D01*
X156076726Y-64462207D01*
X156396007Y-64142926D01*
X156554599Y-63760050D01*
X202585000Y-63760050D01*
X202585000Y-64509950D01*
X202871974Y-65202767D01*
X203402233Y-65733026D01*
X204095050Y-66020000D01*
X204844950Y-66020000D01*
X205537767Y-65733026D01*
X206068026Y-65202767D01*
X206355000Y-64509950D01*
X206355000Y-63760050D01*
X206068026Y-63067233D01*
X205537767Y-62536974D01*
X204844950Y-62250000D01*
X204095050Y-62250000D01*
X203402233Y-62536974D01*
X202871974Y-63067233D01*
X202585000Y-63760050D01*
X156554599Y-63760050D01*
X156568800Y-63725766D01*
X156568800Y-63274234D01*
X156396007Y-62857074D01*
X156076726Y-62537793D01*
X155659566Y-62365000D01*
X155208034Y-62365000D01*
X154790874Y-62537793D01*
X154539867Y-62788800D01*
X154362142Y-62788800D01*
X154116233Y-62420772D01*
X154258298Y-62361927D01*
X154436927Y-62183299D01*
X154533600Y-61949910D01*
X154533600Y-61245750D01*
X154374850Y-61087000D01*
X153162000Y-61087000D01*
X153162000Y-61107000D01*
X152908000Y-61107000D01*
X152908000Y-61087000D01*
X152888000Y-61087000D01*
X152888000Y-60833000D01*
X152908000Y-60833000D01*
X152908000Y-59620150D01*
X153162000Y-59620150D01*
X153162000Y-60833000D01*
X154374850Y-60833000D01*
X154533600Y-60674250D01*
X154533600Y-59970090D01*
X154436927Y-59736701D01*
X154258298Y-59558073D01*
X154024909Y-59461400D01*
X153320750Y-59461400D01*
X153162000Y-59620150D01*
X152908000Y-59620150D01*
X152749250Y-59461400D01*
X152045091Y-59461400D01*
X151811702Y-59558073D01*
X151633073Y-59736701D01*
X151574227Y-59878766D01*
X151206200Y-59632858D01*
X151206200Y-59172733D01*
X151457207Y-58921726D01*
X151630000Y-58504566D01*
X151630000Y-58053034D01*
X151457207Y-57635874D01*
X151137926Y-57316593D01*
X150720766Y-57143800D01*
X150269234Y-57143800D01*
X149852074Y-57316593D01*
X149532793Y-57635874D01*
X149360000Y-58053034D01*
X149360000Y-58504566D01*
X149532793Y-58921726D01*
X149783800Y-59172733D01*
X149783801Y-59632858D01*
X149414570Y-59879570D01*
X149083350Y-60375275D01*
X148967041Y-60960000D01*
X149078193Y-61518800D01*
X145231042Y-61518800D01*
X145161000Y-61504868D01*
X145090958Y-61518800D01*
X145090954Y-61518800D01*
X144883504Y-61560064D01*
X144883502Y-61560065D01*
X144883503Y-61560065D01*
X144707635Y-61677576D01*
X144707633Y-61677578D01*
X144648254Y-61717254D01*
X144639737Y-61730000D01*
X144300234Y-61730000D01*
X143883074Y-61902793D01*
X143563793Y-62222074D01*
X143391000Y-62639234D01*
X43080027Y-62639234D01*
X42977767Y-62536974D01*
X42284950Y-62250000D01*
X41535050Y-62250000D01*
X40842233Y-62536974D01*
X40311974Y-63067233D01*
X40025000Y-63760050D01*
X39497000Y-63760050D01*
X39497000Y-58155000D01*
X51522560Y-58155000D01*
X51522560Y-59955000D01*
X51571843Y-60202765D01*
X51712191Y-60412809D01*
X51922235Y-60553157D01*
X52170000Y-60602440D01*
X53240000Y-60602440D01*
X53487765Y-60553157D01*
X53567736Y-60499722D01*
X53667617Y-60548900D01*
X53848000Y-60423244D01*
X53848000Y-60153280D01*
X53887440Y-59955000D01*
X53887440Y-58574770D01*
X54075000Y-58574770D01*
X54075000Y-59535231D01*
X54102000Y-59670969D01*
X54102000Y-60423244D01*
X54282383Y-60548900D01*
X54596850Y-60394066D01*
X54788490Y-60522115D01*
X55245000Y-60612921D01*
X55701511Y-60522115D01*
X55880001Y-60402853D01*
X56058490Y-60522115D01*
X56515000Y-60612921D01*
X56971511Y-60522115D01*
X57358523Y-60263523D01*
X57617115Y-59876511D01*
X57685000Y-59535230D01*
X57685000Y-58574769D01*
X57617115Y-58233489D01*
X57564671Y-58155000D01*
X64222560Y-58155000D01*
X64222560Y-59955000D01*
X64271843Y-60202765D01*
X64412191Y-60412809D01*
X64622235Y-60553157D01*
X64870000Y-60602440D01*
X65940000Y-60602440D01*
X66187765Y-60553157D01*
X66267736Y-60499722D01*
X66367617Y-60548900D01*
X66548000Y-60423244D01*
X66548000Y-60153280D01*
X66587440Y-59955000D01*
X66587440Y-58574770D01*
X66775000Y-58574770D01*
X66775000Y-59535231D01*
X66802000Y-59670969D01*
X66802000Y-60423244D01*
X66982383Y-60548900D01*
X67296850Y-60394066D01*
X67488490Y-60522115D01*
X67945000Y-60612921D01*
X68401511Y-60522115D01*
X68580001Y-60402853D01*
X68758490Y-60522115D01*
X69215000Y-60612921D01*
X69671511Y-60522115D01*
X70058523Y-60263523D01*
X70317115Y-59876511D01*
X70385000Y-59535230D01*
X70385000Y-58574769D01*
X70317115Y-58233489D01*
X70264671Y-58155000D01*
X76922560Y-58155000D01*
X76922560Y-59955000D01*
X76971843Y-60202765D01*
X77112191Y-60412809D01*
X77322235Y-60553157D01*
X77570000Y-60602440D01*
X78640000Y-60602440D01*
X78887765Y-60553157D01*
X78967736Y-60499722D01*
X79067617Y-60548900D01*
X79248000Y-60423244D01*
X79248000Y-60153280D01*
X79287440Y-59955000D01*
X79287440Y-58574770D01*
X79475000Y-58574770D01*
X79475000Y-59535231D01*
X79502000Y-59670969D01*
X79502000Y-60423244D01*
X79682383Y-60548900D01*
X79996850Y-60394066D01*
X80188490Y-60522115D01*
X80645000Y-60612921D01*
X81101511Y-60522115D01*
X81280001Y-60402853D01*
X81458490Y-60522115D01*
X81915000Y-60612921D01*
X82371511Y-60522115D01*
X82758523Y-60263523D01*
X83017115Y-59876511D01*
X83085000Y-59535230D01*
X83085000Y-58574769D01*
X83017115Y-58233489D01*
X82964671Y-58155000D01*
X89622560Y-58155000D01*
X89622560Y-59955000D01*
X89671843Y-60202765D01*
X89812191Y-60412809D01*
X90022235Y-60553157D01*
X90270000Y-60602440D01*
X91340000Y-60602440D01*
X91587765Y-60553157D01*
X91667736Y-60499722D01*
X91767617Y-60548900D01*
X91948000Y-60423244D01*
X91948000Y-60153280D01*
X91987440Y-59955000D01*
X91987440Y-58574770D01*
X92175000Y-58574770D01*
X92175000Y-59535231D01*
X92202000Y-59670969D01*
X92202000Y-60423244D01*
X92382383Y-60548900D01*
X92696850Y-60394066D01*
X92888490Y-60522115D01*
X93345000Y-60612921D01*
X93801511Y-60522115D01*
X93980001Y-60402853D01*
X94158490Y-60522115D01*
X94615000Y-60612921D01*
X95071511Y-60522115D01*
X95458523Y-60263523D01*
X95717115Y-59876511D01*
X95785000Y-59535230D01*
X95785000Y-58574769D01*
X95717115Y-58233489D01*
X95664671Y-58155000D01*
X102322560Y-58155000D01*
X102322560Y-59955000D01*
X102371843Y-60202765D01*
X102512191Y-60412809D01*
X102722235Y-60553157D01*
X102970000Y-60602440D01*
X104040000Y-60602440D01*
X104287765Y-60553157D01*
X104367736Y-60499722D01*
X104467617Y-60548900D01*
X104648000Y-60423244D01*
X104648000Y-60153280D01*
X104687440Y-59955000D01*
X104687440Y-58574770D01*
X104875000Y-58574770D01*
X104875000Y-59535231D01*
X104902000Y-59670969D01*
X104902000Y-60423244D01*
X105082383Y-60548900D01*
X105396850Y-60394066D01*
X105588490Y-60522115D01*
X106045000Y-60612921D01*
X106501511Y-60522115D01*
X106680001Y-60402853D01*
X106858490Y-60522115D01*
X107315000Y-60612921D01*
X107771511Y-60522115D01*
X108158523Y-60263523D01*
X108417115Y-59876511D01*
X108485000Y-59535230D01*
X108485000Y-58574769D01*
X108417115Y-58233489D01*
X108364671Y-58155000D01*
X115022560Y-58155000D01*
X115022560Y-59955000D01*
X115071843Y-60202765D01*
X115212191Y-60412809D01*
X115422235Y-60553157D01*
X115670000Y-60602440D01*
X116740000Y-60602440D01*
X116987765Y-60553157D01*
X117067736Y-60499722D01*
X117167617Y-60548900D01*
X117348000Y-60423244D01*
X117348000Y-60153280D01*
X117387440Y-59955000D01*
X117387440Y-58574770D01*
X117575000Y-58574770D01*
X117575000Y-59535231D01*
X117602000Y-59670969D01*
X117602000Y-60423244D01*
X117782383Y-60548900D01*
X118096850Y-60394066D01*
X118288490Y-60522115D01*
X118745000Y-60612921D01*
X119201511Y-60522115D01*
X119380001Y-60402853D01*
X119558490Y-60522115D01*
X120015000Y-60612921D01*
X120471511Y-60522115D01*
X120858523Y-60263523D01*
X121117115Y-59876511D01*
X121185000Y-59535230D01*
X121185000Y-58574769D01*
X121117115Y-58233489D01*
X120858523Y-57846477D01*
X120471510Y-57587885D01*
X120015000Y-57497079D01*
X119558489Y-57587885D01*
X119380000Y-57707147D01*
X119201510Y-57587885D01*
X118745000Y-57497079D01*
X118288489Y-57587885D01*
X118096849Y-57715934D01*
X117782383Y-57561100D01*
X117602000Y-57686756D01*
X117602000Y-58439032D01*
X117575000Y-58574770D01*
X117387440Y-58574770D01*
X117387440Y-58155000D01*
X117348000Y-57956720D01*
X117348000Y-57686756D01*
X117167617Y-57561100D01*
X117067736Y-57610278D01*
X116987765Y-57556843D01*
X116740000Y-57507560D01*
X115670000Y-57507560D01*
X115422235Y-57556843D01*
X115212191Y-57697191D01*
X115071843Y-57907235D01*
X115022560Y-58155000D01*
X108364671Y-58155000D01*
X108158523Y-57846477D01*
X107771510Y-57587885D01*
X107315000Y-57497079D01*
X106858489Y-57587885D01*
X106680000Y-57707147D01*
X106501510Y-57587885D01*
X106045000Y-57497079D01*
X105588489Y-57587885D01*
X105396849Y-57715934D01*
X105082383Y-57561100D01*
X104902000Y-57686756D01*
X104902000Y-58439032D01*
X104875000Y-58574770D01*
X104687440Y-58574770D01*
X104687440Y-58155000D01*
X104648000Y-57956720D01*
X104648000Y-57686756D01*
X104467617Y-57561100D01*
X104367736Y-57610278D01*
X104287765Y-57556843D01*
X104040000Y-57507560D01*
X102970000Y-57507560D01*
X102722235Y-57556843D01*
X102512191Y-57697191D01*
X102371843Y-57907235D01*
X102322560Y-58155000D01*
X95664671Y-58155000D01*
X95458523Y-57846477D01*
X95071510Y-57587885D01*
X94615000Y-57497079D01*
X94158489Y-57587885D01*
X93980000Y-57707147D01*
X93801510Y-57587885D01*
X93345000Y-57497079D01*
X92888489Y-57587885D01*
X92696849Y-57715934D01*
X92382383Y-57561100D01*
X92202000Y-57686756D01*
X92202000Y-58439032D01*
X92175000Y-58574770D01*
X91987440Y-58574770D01*
X91987440Y-58155000D01*
X91948000Y-57956720D01*
X91948000Y-57686756D01*
X91767617Y-57561100D01*
X91667736Y-57610278D01*
X91587765Y-57556843D01*
X91340000Y-57507560D01*
X90270000Y-57507560D01*
X90022235Y-57556843D01*
X89812191Y-57697191D01*
X89671843Y-57907235D01*
X89622560Y-58155000D01*
X82964671Y-58155000D01*
X82758523Y-57846477D01*
X82371510Y-57587885D01*
X81915000Y-57497079D01*
X81458489Y-57587885D01*
X81280000Y-57707147D01*
X81101510Y-57587885D01*
X80645000Y-57497079D01*
X80188489Y-57587885D01*
X79996849Y-57715934D01*
X79682383Y-57561100D01*
X79502000Y-57686756D01*
X79502000Y-58439032D01*
X79475000Y-58574770D01*
X79287440Y-58574770D01*
X79287440Y-58155000D01*
X79248000Y-57956720D01*
X79248000Y-57686756D01*
X79067617Y-57561100D01*
X78967736Y-57610278D01*
X78887765Y-57556843D01*
X78640000Y-57507560D01*
X77570000Y-57507560D01*
X77322235Y-57556843D01*
X77112191Y-57697191D01*
X76971843Y-57907235D01*
X76922560Y-58155000D01*
X70264671Y-58155000D01*
X70058523Y-57846477D01*
X69671510Y-57587885D01*
X69215000Y-57497079D01*
X68758489Y-57587885D01*
X68580000Y-57707147D01*
X68401510Y-57587885D01*
X67945000Y-57497079D01*
X67488489Y-57587885D01*
X67296849Y-57715934D01*
X66982383Y-57561100D01*
X66802000Y-57686756D01*
X66802000Y-58439032D01*
X66775000Y-58574770D01*
X66587440Y-58574770D01*
X66587440Y-58155000D01*
X66548000Y-57956720D01*
X66548000Y-57686756D01*
X66367617Y-57561100D01*
X66267736Y-57610278D01*
X66187765Y-57556843D01*
X65940000Y-57507560D01*
X64870000Y-57507560D01*
X64622235Y-57556843D01*
X64412191Y-57697191D01*
X64271843Y-57907235D01*
X64222560Y-58155000D01*
X57564671Y-58155000D01*
X57358523Y-57846477D01*
X56971510Y-57587885D01*
X56515000Y-57497079D01*
X56058489Y-57587885D01*
X55880000Y-57707147D01*
X55701510Y-57587885D01*
X55245000Y-57497079D01*
X54788489Y-57587885D01*
X54596849Y-57715934D01*
X54282383Y-57561100D01*
X54102000Y-57686756D01*
X54102000Y-58439032D01*
X54075000Y-58574770D01*
X53887440Y-58574770D01*
X53887440Y-58155000D01*
X53848000Y-57956720D01*
X53848000Y-57686756D01*
X53667617Y-57561100D01*
X53567736Y-57610278D01*
X53487765Y-57556843D01*
X53240000Y-57507560D01*
X52170000Y-57507560D01*
X51922235Y-57556843D01*
X51712191Y-57697191D01*
X51571843Y-57907235D01*
X51522560Y-58155000D01*
X39497000Y-58155000D01*
X39497000Y-53467000D01*
X206883000Y-53467000D01*
X206883000Y-74168000D01*
X206883000Y-74168000D01*
G37*
X206883000Y-74168000D02*
X39497000Y-74168000D01*
X39497000Y-73057532D01*
X51732073Y-73057532D01*
X51830736Y-73324387D01*
X52440461Y-73550908D01*
X53090460Y-73526856D01*
X53579264Y-73324387D01*
X53677927Y-73057532D01*
X52705000Y-72084605D01*
X51732073Y-73057532D01*
X39497000Y-73057532D01*
X39497000Y-71640461D01*
X51059092Y-71640461D01*
X51083144Y-72290460D01*
X51285613Y-72779264D01*
X51552468Y-72877927D01*
X52525395Y-71905000D01*
X52884605Y-71905000D01*
X53857532Y-72877927D01*
X54124387Y-72779264D01*
X54350908Y-72169539D01*
X54326856Y-71519540D01*
X54124387Y-71030736D01*
X53857532Y-70932073D01*
X52884605Y-71905000D01*
X52525395Y-71905000D01*
X51552468Y-70932073D01*
X51285613Y-71030736D01*
X51059092Y-71640461D01*
X39497000Y-71640461D01*
X39497000Y-70752468D01*
X51732073Y-70752468D01*
X52705000Y-71725395D01*
X53677927Y-70752468D01*
X53579264Y-70485613D01*
X52969539Y-70259092D01*
X52319540Y-70283144D01*
X51830736Y-70485613D01*
X51732073Y-70752468D01*
X39497000Y-70752468D01*
X39497000Y-66557532D01*
X51732073Y-66557532D01*
X51830736Y-66824387D01*
X52440461Y-67050908D01*
X53090460Y-67026856D01*
X53579264Y-66824387D01*
X53677927Y-66557532D01*
X52705000Y-65584605D01*
X51732073Y-66557532D01*
X39497000Y-66557532D01*
X39497000Y-63760050D01*
X40025000Y-63760050D01*
X40025000Y-64509950D01*
X40311974Y-65202767D01*
X40842233Y-65733026D01*
X41535050Y-66020000D01*
X42284950Y-66020000D01*
X42977767Y-65733026D01*
X43508026Y-65202767D01*
X43533833Y-65140461D01*
X51059092Y-65140461D01*
X51083144Y-65790460D01*
X51285613Y-66279264D01*
X51552468Y-66377927D01*
X52525395Y-65405000D01*
X52884605Y-65405000D01*
X53857532Y-66377927D01*
X54124387Y-66279264D01*
X54350908Y-65669539D01*
X54329085Y-65079778D01*
X55570000Y-65079778D01*
X55570000Y-65730222D01*
X55818914Y-66331153D01*
X56278847Y-66791086D01*
X56493801Y-66880123D01*
X56493800Y-70429877D01*
X56278847Y-70518914D01*
X55818914Y-70978847D01*
X55570000Y-71579778D01*
X55570000Y-72230222D01*
X55818914Y-72831153D01*
X56278847Y-73291086D01*
X56879778Y-73540000D01*
X57530222Y-73540000D01*
X58131153Y-73291086D01*
X58364707Y-73057532D01*
X63892073Y-73057532D01*
X63990736Y-73324387D01*
X64600461Y-73550908D01*
X65250460Y-73526856D01*
X65739264Y-73324387D01*
X65837927Y-73057532D01*
X64865000Y-72084605D01*
X63892073Y-73057532D01*
X58364707Y-73057532D01*
X58591086Y-72831153D01*
X58840000Y-72230222D01*
X58840000Y-71640461D01*
X63219092Y-71640461D01*
X63243144Y-72290460D01*
X63445613Y-72779264D01*
X63712468Y-72877927D01*
X64685395Y-71905000D01*
X65044605Y-71905000D01*
X66017532Y-72877927D01*
X66284387Y-72779264D01*
X66510908Y-72169539D01*
X66486856Y-71519540D01*
X66284387Y-71030736D01*
X66017532Y-70932073D01*
X65044605Y-71905000D01*
X64685395Y-71905000D01*
X63712468Y-70932073D01*
X63445613Y-71030736D01*
X63219092Y-71640461D01*
X58840000Y-71640461D01*
X58840000Y-71579778D01*
X58591086Y-70978847D01*
X58364707Y-70752468D01*
X63892073Y-70752468D01*
X64865000Y-71725395D01*
X65837927Y-70752468D01*
X65739264Y-70485613D01*
X65129539Y-70259092D01*
X64479540Y-70283144D01*
X63990736Y-70485613D01*
X63892073Y-70752468D01*
X58364707Y-70752468D01*
X58131153Y-70518914D01*
X57916200Y-70429877D01*
X57916200Y-66880123D01*
X58131153Y-66791086D01*
X58364707Y-66557532D01*
X63892073Y-66557532D01*
X63990736Y-66824387D01*
X64600461Y-67050908D01*
X65250460Y-67026856D01*
X65739264Y-66824387D01*
X65837927Y-66557532D01*
X64865000Y-65584605D01*
X63892073Y-66557532D01*
X58364707Y-66557532D01*
X58591086Y-66331153D01*
X58840000Y-65730222D01*
X58840000Y-65140461D01*
X63219092Y-65140461D01*
X63243144Y-65790460D01*
X63445613Y-66279264D01*
X63712468Y-66377927D01*
X64685395Y-65405000D01*
X65044605Y-65405000D01*
X66017532Y-66377927D01*
X66284387Y-66279264D01*
X66510908Y-65669539D01*
X66489085Y-65079778D01*
X67730000Y-65079778D01*
X67730000Y-65730222D01*
X67978914Y-66331153D01*
X68438847Y-66791086D01*
X68653801Y-66880123D01*
X68653800Y-70429877D01*
X68438847Y-70518914D01*
X67978914Y-70978847D01*
X67730000Y-71579778D01*
X67730000Y-72230222D01*
X67978914Y-72831153D01*
X68438847Y-73291086D01*
X69039778Y-73540000D01*
X69690222Y-73540000D01*
X70291153Y-73291086D01*
X70524707Y-73057532D01*
X76442073Y-73057532D01*
X76540736Y-73324387D01*
X77150461Y-73550908D01*
X77800460Y-73526856D01*
X78289264Y-73324387D01*
X78387927Y-73057532D01*
X77415000Y-72084605D01*
X76442073Y-73057532D01*
X70524707Y-73057532D01*
X70751086Y-72831153D01*
X71000000Y-72230222D01*
X71000000Y-71640461D01*
X75769092Y-71640461D01*
X75793144Y-72290460D01*
X75995613Y-72779264D01*
X76262468Y-72877927D01*
X77235395Y-71905000D01*
X77594605Y-71905000D01*
X78567532Y-72877927D01*
X78834387Y-72779264D01*
X79060908Y-72169539D01*
X79036856Y-71519540D01*
X78834387Y-71030736D01*
X78567532Y-70932073D01*
X77594605Y-71905000D01*
X77235395Y-71905000D01*
X76262468Y-70932073D01*
X75995613Y-71030736D01*
X75769092Y-71640461D01*
X71000000Y-71640461D01*
X71000000Y-71579778D01*
X70751086Y-70978847D01*
X70524707Y-70752468D01*
X76442073Y-70752468D01*
X77415000Y-71725395D01*
X78387927Y-70752468D01*
X78289264Y-70485613D01*
X77679539Y-70259092D01*
X77029540Y-70283144D01*
X76540736Y-70485613D01*
X76442073Y-70752468D01*
X70524707Y-70752468D01*
X70291153Y-70518914D01*
X70076200Y-70429877D01*
X70076200Y-66880123D01*
X70291153Y-66791086D01*
X70524707Y-66557532D01*
X76442073Y-66557532D01*
X76540736Y-66824387D01*
X77150461Y-67050908D01*
X77800460Y-67026856D01*
X78289264Y-66824387D01*
X78387927Y-66557532D01*
X77415000Y-65584605D01*
X76442073Y-66557532D01*
X70524707Y-66557532D01*
X70751086Y-66331153D01*
X71000000Y-65730222D01*
X71000000Y-65140461D01*
X75769092Y-65140461D01*
X75793144Y-65790460D01*
X75995613Y-66279264D01*
X76262468Y-66377927D01*
X77235395Y-65405000D01*
X77594605Y-65405000D01*
X78567532Y-66377927D01*
X78834387Y-66279264D01*
X79060908Y-65669539D01*
X79039085Y-65079778D01*
X80280000Y-65079778D01*
X80280000Y-65730222D01*
X80528914Y-66331153D01*
X80988847Y-66791086D01*
X81203801Y-66880123D01*
X81203800Y-70429877D01*
X80988847Y-70518914D01*
X80528914Y-70978847D01*
X80280000Y-71579778D01*
X80280000Y-72230222D01*
X80528914Y-72831153D01*
X80988847Y-73291086D01*
X81589778Y-73540000D01*
X82240222Y-73540000D01*
X82841153Y-73291086D01*
X83074707Y-73057532D01*
X89292073Y-73057532D01*
X89390736Y-73324387D01*
X90000461Y-73550908D01*
X90650460Y-73526856D01*
X91139264Y-73324387D01*
X91237927Y-73057532D01*
X90265000Y-72084605D01*
X89292073Y-73057532D01*
X83074707Y-73057532D01*
X83301086Y-72831153D01*
X83550000Y-72230222D01*
X83550000Y-71640461D01*
X88619092Y-71640461D01*
X88643144Y-72290460D01*
X88845613Y-72779264D01*
X89112468Y-72877927D01*
X90085395Y-71905000D01*
X90444605Y-71905000D01*
X91417532Y-72877927D01*
X91684387Y-72779264D01*
X91910908Y-72169539D01*
X91886856Y-71519540D01*
X91684387Y-71030736D01*
X91417532Y-70932073D01*
X90444605Y-71905000D01*
X90085395Y-71905000D01*
X89112468Y-70932073D01*
X88845613Y-71030736D01*
X88619092Y-71640461D01*
X83550000Y-71640461D01*
X83550000Y-71579778D01*
X83301086Y-70978847D01*
X83074707Y-70752468D01*
X89292073Y-70752468D01*
X90265000Y-71725395D01*
X91237927Y-70752468D01*
X91139264Y-70485613D01*
X90529539Y-70259092D01*
X89879540Y-70283144D01*
X89390736Y-70485613D01*
X89292073Y-70752468D01*
X83074707Y-70752468D01*
X82841153Y-70518914D01*
X82626200Y-70429877D01*
X82626200Y-66880123D01*
X82841153Y-66791086D01*
X83074707Y-66557532D01*
X89292073Y-66557532D01*
X89390736Y-66824387D01*
X90000461Y-67050908D01*
X90650460Y-67026856D01*
X91139264Y-66824387D01*
X91237927Y-66557532D01*
X90265000Y-65584605D01*
X89292073Y-66557532D01*
X83074707Y-66557532D01*
X83301086Y-66331153D01*
X83550000Y-65730222D01*
X83550000Y-65140461D01*
X88619092Y-65140461D01*
X88643144Y-65790460D01*
X88845613Y-66279264D01*
X89112468Y-66377927D01*
X90085395Y-65405000D01*
X90444605Y-65405000D01*
X91417532Y-66377927D01*
X91684387Y-66279264D01*
X91910908Y-65669539D01*
X91889085Y-65079778D01*
X93130000Y-65079778D01*
X93130000Y-65730222D01*
X93378914Y-66331153D01*
X93838847Y-66791086D01*
X94053801Y-66880123D01*
X94053800Y-70429877D01*
X93838847Y-70518914D01*
X93378914Y-70978847D01*
X93130000Y-71579778D01*
X93130000Y-72230222D01*
X93378914Y-72831153D01*
X93838847Y-73291086D01*
X94439778Y-73540000D01*
X95090222Y-73540000D01*
X95691153Y-73291086D01*
X95924707Y-73057532D01*
X101992073Y-73057532D01*
X102090736Y-73324387D01*
X102700461Y-73550908D01*
X103350460Y-73526856D01*
X103839264Y-73324387D01*
X103937927Y-73057532D01*
X102965000Y-72084605D01*
X101992073Y-73057532D01*
X95924707Y-73057532D01*
X96151086Y-72831153D01*
X96400000Y-72230222D01*
X96400000Y-71640461D01*
X101319092Y-71640461D01*
X101343144Y-72290460D01*
X101545613Y-72779264D01*
X101812468Y-72877927D01*
X102785395Y-71905000D01*
X103144605Y-71905000D01*
X104117532Y-72877927D01*
X104384387Y-72779264D01*
X104610908Y-72169539D01*
X104586856Y-71519540D01*
X104384387Y-71030736D01*
X104117532Y-70932073D01*
X103144605Y-71905000D01*
X102785395Y-71905000D01*
X101812468Y-70932073D01*
X101545613Y-71030736D01*
X101319092Y-71640461D01*
X96400000Y-71640461D01*
X96400000Y-71579778D01*
X96151086Y-70978847D01*
X95924707Y-70752468D01*
X101992073Y-70752468D01*
X102965000Y-71725395D01*
X103937927Y-70752468D01*
X103839264Y-70485613D01*
X103229539Y-70259092D01*
X102579540Y-70283144D01*
X102090736Y-70485613D01*
X101992073Y-70752468D01*
X95924707Y-70752468D01*
X95691153Y-70518914D01*
X95476200Y-70429877D01*
X95476200Y-66880123D01*
X95691153Y-66791086D01*
X95924707Y-66557532D01*
X101992073Y-66557532D01*
X102090736Y-66824387D01*
X102700461Y-67050908D01*
X103350460Y-67026856D01*
X103839264Y-66824387D01*
X103937927Y-66557532D01*
X102965000Y-65584605D01*
X101992073Y-66557532D01*
X95924707Y-66557532D01*
X96151086Y-66331153D01*
X96400000Y-65730222D01*
X96400000Y-65140461D01*
X101319092Y-65140461D01*
X101343144Y-65790460D01*
X101545613Y-66279264D01*
X101812468Y-66377927D01*
X102785395Y-65405000D01*
X103144605Y-65405000D01*
X104117532Y-66377927D01*
X104384387Y-66279264D01*
X104610908Y-65669539D01*
X104589085Y-65079778D01*
X105830000Y-65079778D01*
X105830000Y-65730222D01*
X106078914Y-66331153D01*
X106538847Y-66791086D01*
X106753801Y-66880123D01*
X106753800Y-70429877D01*
X106538847Y-70518914D01*
X106078914Y-70978847D01*
X105830000Y-71579778D01*
X105830000Y-72230222D01*
X106078914Y-72831153D01*
X106538847Y-73291086D01*
X107139778Y-73540000D01*
X107790222Y-73540000D01*
X108391153Y-73291086D01*
X108624707Y-73057532D01*
X114542073Y-73057532D01*
X114640736Y-73324387D01*
X115250461Y-73550908D01*
X115900460Y-73526856D01*
X116389264Y-73324387D01*
X116487927Y-73057532D01*
X115515000Y-72084605D01*
X114542073Y-73057532D01*
X108624707Y-73057532D01*
X108851086Y-72831153D01*
X109100000Y-72230222D01*
X109100000Y-71640461D01*
X113869092Y-71640461D01*
X113893144Y-72290460D01*
X114095613Y-72779264D01*
X114362468Y-72877927D01*
X115335395Y-71905000D01*
X115694605Y-71905000D01*
X116667532Y-72877927D01*
X116934387Y-72779264D01*
X117160908Y-72169539D01*
X117136856Y-71519540D01*
X116934387Y-71030736D01*
X116667532Y-70932073D01*
X115694605Y-71905000D01*
X115335395Y-71905000D01*
X114362468Y-70932073D01*
X114095613Y-71030736D01*
X113869092Y-71640461D01*
X109100000Y-71640461D01*
X109100000Y-71579778D01*
X108851086Y-70978847D01*
X108624707Y-70752468D01*
X114542073Y-70752468D01*
X115515000Y-71725395D01*
X116487927Y-70752468D01*
X116389264Y-70485613D01*
X115779539Y-70259092D01*
X115129540Y-70283144D01*
X114640736Y-70485613D01*
X114542073Y-70752468D01*
X108624707Y-70752468D01*
X108391153Y-70518914D01*
X108176200Y-70429877D01*
X108176200Y-66880123D01*
X108391153Y-66791086D01*
X108624707Y-66557532D01*
X114542073Y-66557532D01*
X114640736Y-66824387D01*
X115250461Y-67050908D01*
X115900460Y-67026856D01*
X116389264Y-66824387D01*
X116487927Y-66557532D01*
X115515000Y-65584605D01*
X114542073Y-66557532D01*
X108624707Y-66557532D01*
X108851086Y-66331153D01*
X109100000Y-65730222D01*
X109100000Y-65140461D01*
X113869092Y-65140461D01*
X113893144Y-65790460D01*
X114095613Y-66279264D01*
X114362468Y-66377927D01*
X115335395Y-65405000D01*
X115694605Y-65405000D01*
X116667532Y-66377927D01*
X116934387Y-66279264D01*
X117160908Y-65669539D01*
X117139085Y-65079778D01*
X118380000Y-65079778D01*
X118380000Y-65730222D01*
X118628914Y-66331153D01*
X119088847Y-66791086D01*
X119303801Y-66880123D01*
X119303800Y-70429877D01*
X119088847Y-70518914D01*
X118628914Y-70978847D01*
X118380000Y-71579778D01*
X118380000Y-72230222D01*
X118628914Y-72831153D01*
X119088847Y-73291086D01*
X119689778Y-73540000D01*
X120340222Y-73540000D01*
X120941153Y-73291086D01*
X121401086Y-72831153D01*
X121650000Y-72230222D01*
X121650000Y-71579778D01*
X121401086Y-70978847D01*
X120941153Y-70518914D01*
X120726200Y-70429877D01*
X120726200Y-66880123D01*
X120941153Y-66791086D01*
X121401086Y-66331153D01*
X121650000Y-65730222D01*
X121650000Y-65079778D01*
X121401086Y-64478847D01*
X120941153Y-64018914D01*
X120340222Y-63770000D01*
X119689778Y-63770000D01*
X119088847Y-64018914D01*
X118628914Y-64478847D01*
X118380000Y-65079778D01*
X117139085Y-65079778D01*
X117136856Y-65019540D01*
X116934387Y-64530736D01*
X116667532Y-64432073D01*
X115694605Y-65405000D01*
X115335395Y-65405000D01*
X114362468Y-64432073D01*
X114095613Y-64530736D01*
X113869092Y-65140461D01*
X109100000Y-65140461D01*
X109100000Y-65079778D01*
X108851086Y-64478847D01*
X108624707Y-64252468D01*
X114542073Y-64252468D01*
X115515000Y-65225395D01*
X116487927Y-64252468D01*
X116389264Y-63985613D01*
X115779539Y-63759092D01*
X115129540Y-63783144D01*
X114640736Y-63985613D01*
X114542073Y-64252468D01*
X108624707Y-64252468D01*
X108391153Y-64018914D01*
X107790222Y-63770000D01*
X107139778Y-63770000D01*
X106538847Y-64018914D01*
X106078914Y-64478847D01*
X105830000Y-65079778D01*
X104589085Y-65079778D01*
X104586856Y-65019540D01*
X104384387Y-64530736D01*
X104117532Y-64432073D01*
X103144605Y-65405000D01*
X102785395Y-65405000D01*
X101812468Y-64432073D01*
X101545613Y-64530736D01*
X101319092Y-65140461D01*
X96400000Y-65140461D01*
X96400000Y-65079778D01*
X96151086Y-64478847D01*
X95924707Y-64252468D01*
X101992073Y-64252468D01*
X102965000Y-65225395D01*
X103937927Y-64252468D01*
X103839264Y-63985613D01*
X103229539Y-63759092D01*
X102579540Y-63783144D01*
X102090736Y-63985613D01*
X101992073Y-64252468D01*
X95924707Y-64252468D01*
X95691153Y-64018914D01*
X95090222Y-63770000D01*
X94439778Y-63770000D01*
X93838847Y-64018914D01*
X93378914Y-64478847D01*
X93130000Y-65079778D01*
X91889085Y-65079778D01*
X91886856Y-65019540D01*
X91684387Y-64530736D01*
X91417532Y-64432073D01*
X90444605Y-65405000D01*
X90085395Y-65405000D01*
X89112468Y-64432073D01*
X88845613Y-64530736D01*
X88619092Y-65140461D01*
X83550000Y-65140461D01*
X83550000Y-65079778D01*
X83301086Y-64478847D01*
X83074707Y-64252468D01*
X89292073Y-64252468D01*
X90265000Y-65225395D01*
X91237927Y-64252468D01*
X91139264Y-63985613D01*
X90529539Y-63759092D01*
X89879540Y-63783144D01*
X89390736Y-63985613D01*
X89292073Y-64252468D01*
X83074707Y-64252468D01*
X82841153Y-64018914D01*
X82240222Y-63770000D01*
X81589778Y-63770000D01*
X80988847Y-64018914D01*
X80528914Y-64478847D01*
X80280000Y-65079778D01*
X79039085Y-65079778D01*
X79036856Y-65019540D01*
X78834387Y-64530736D01*
X78567532Y-64432073D01*
X77594605Y-65405000D01*
X77235395Y-65405000D01*
X76262468Y-64432073D01*
X75995613Y-64530736D01*
X75769092Y-65140461D01*
X71000000Y-65140461D01*
X71000000Y-65079778D01*
X70751086Y-64478847D01*
X70524707Y-64252468D01*
X76442073Y-64252468D01*
X77415000Y-65225395D01*
X78387927Y-64252468D01*
X78289264Y-63985613D01*
X77679539Y-63759092D01*
X77029540Y-63783144D01*
X76540736Y-63985613D01*
X76442073Y-64252468D01*
X70524707Y-64252468D01*
X70291153Y-64018914D01*
X69690222Y-63770000D01*
X69039778Y-63770000D01*
X68438847Y-64018914D01*
X67978914Y-64478847D01*
X67730000Y-65079778D01*
X66489085Y-65079778D01*
X66486856Y-65019540D01*
X66284387Y-64530736D01*
X66017532Y-64432073D01*
X65044605Y-65405000D01*
X64685395Y-65405000D01*
X63712468Y-64432073D01*
X63445613Y-64530736D01*
X63219092Y-65140461D01*
X58840000Y-65140461D01*
X58840000Y-65079778D01*
X58591086Y-64478847D01*
X58364707Y-64252468D01*
X63892073Y-64252468D01*
X64865000Y-65225395D01*
X65837927Y-64252468D01*
X65739264Y-63985613D01*
X65129539Y-63759092D01*
X64479540Y-63783144D01*
X63990736Y-63985613D01*
X63892073Y-64252468D01*
X58364707Y-64252468D01*
X58131153Y-64018914D01*
X57530222Y-63770000D01*
X56879778Y-63770000D01*
X56278847Y-64018914D01*
X55818914Y-64478847D01*
X55570000Y-65079778D01*
X54329085Y-65079778D01*
X54326856Y-65019540D01*
X54124387Y-64530736D01*
X53857532Y-64432073D01*
X52884605Y-65405000D01*
X52525395Y-65405000D01*
X51552468Y-64432073D01*
X51285613Y-64530736D01*
X51059092Y-65140461D01*
X43533833Y-65140461D01*
X43795000Y-64509950D01*
X43795000Y-64252468D01*
X51732073Y-64252468D01*
X52705000Y-65225395D01*
X53677927Y-64252468D01*
X53579264Y-63985613D01*
X52969539Y-63759092D01*
X52319540Y-63783144D01*
X51830736Y-63985613D01*
X51732073Y-64252468D01*
X43795000Y-64252468D01*
X43795000Y-63760050D01*
X43508026Y-63067233D01*
X43080027Y-62639234D01*
X143391000Y-62639234D01*
X143391000Y-63090766D01*
X143563793Y-63507926D01*
X143883074Y-63827207D01*
X144300234Y-64000000D01*
X144751766Y-64000000D01*
X145168926Y-63827207D01*
X145488207Y-63507926D01*
X145661000Y-63090766D01*
X145661000Y-62941200D01*
X149078193Y-62941200D01*
X148967041Y-63500000D01*
X149083350Y-64084725D01*
X149414570Y-64580430D01*
X149698281Y-64770000D01*
X149414570Y-64959570D01*
X149083350Y-65455275D01*
X148967041Y-66040000D01*
X149083350Y-66624725D01*
X149414570Y-67120430D01*
X149910275Y-67451650D01*
X150347402Y-67538600D01*
X150642598Y-67538600D01*
X151053800Y-67456807D01*
X151053800Y-68448067D01*
X150802793Y-68699074D01*
X150630000Y-69116234D01*
X150630000Y-69567766D01*
X150802793Y-69984926D01*
X151122074Y-70304207D01*
X151539234Y-70477000D01*
X151990766Y-70477000D01*
X152407926Y-70304207D01*
X152727207Y-69984926D01*
X152891619Y-69588000D01*
X153260766Y-69588000D01*
X153677926Y-69415207D01*
X153997207Y-69095926D01*
X154170000Y-68678766D01*
X154170000Y-68227234D01*
X153997207Y-67810074D01*
X153746200Y-67559067D01*
X153746200Y-67367142D01*
X154115430Y-67120430D01*
X154446650Y-66624725D01*
X154562959Y-66040000D01*
X154446650Y-65455275D01*
X154115430Y-64959570D01*
X153831719Y-64770000D01*
X154115430Y-64580430D01*
X154362142Y-64211200D01*
X154539867Y-64211200D01*
X154790874Y-64462207D01*
X155208034Y-64635000D01*
X155659566Y-64635000D01*
X156076726Y-64462207D01*
X156396007Y-64142926D01*
X156554599Y-63760050D01*
X202585000Y-63760050D01*
X202585000Y-64509950D01*
X202871974Y-65202767D01*
X203402233Y-65733026D01*
X204095050Y-66020000D01*
X204844950Y-66020000D01*
X205537767Y-65733026D01*
X206068026Y-65202767D01*
X206355000Y-64509950D01*
X206355000Y-63760050D01*
X206068026Y-63067233D01*
X205537767Y-62536974D01*
X204844950Y-62250000D01*
X204095050Y-62250000D01*
X203402233Y-62536974D01*
X202871974Y-63067233D01*
X202585000Y-63760050D01*
X156554599Y-63760050D01*
X156568800Y-63725766D01*
X156568800Y-63274234D01*
X156396007Y-62857074D01*
X156076726Y-62537793D01*
X155659566Y-62365000D01*
X155208034Y-62365000D01*
X154790874Y-62537793D01*
X154539867Y-62788800D01*
X154362142Y-62788800D01*
X154116233Y-62420772D01*
X154258298Y-62361927D01*
X154436927Y-62183299D01*
X154533600Y-61949910D01*
X154533600Y-61245750D01*
X154374850Y-61087000D01*
X153162000Y-61087000D01*
X153162000Y-61107000D01*
X152908000Y-61107000D01*
X152908000Y-61087000D01*
X152888000Y-61087000D01*
X152888000Y-60833000D01*
X152908000Y-60833000D01*
X152908000Y-59620150D01*
X153162000Y-59620150D01*
X153162000Y-60833000D01*
X154374850Y-60833000D01*
X154533600Y-60674250D01*
X154533600Y-59970090D01*
X154436927Y-59736701D01*
X154258298Y-59558073D01*
X154024909Y-59461400D01*
X153320750Y-59461400D01*
X153162000Y-59620150D01*
X152908000Y-59620150D01*
X152749250Y-59461400D01*
X152045091Y-59461400D01*
X151811702Y-59558073D01*
X151633073Y-59736701D01*
X151574227Y-59878766D01*
X151206200Y-59632858D01*
X151206200Y-59172733D01*
X151457207Y-58921726D01*
X151630000Y-58504566D01*
X151630000Y-58053034D01*
X151457207Y-57635874D01*
X151137926Y-57316593D01*
X150720766Y-57143800D01*
X150269234Y-57143800D01*
X149852074Y-57316593D01*
X149532793Y-57635874D01*
X149360000Y-58053034D01*
X149360000Y-58504566D01*
X149532793Y-58921726D01*
X149783800Y-59172733D01*
X149783801Y-59632858D01*
X149414570Y-59879570D01*
X149083350Y-60375275D01*
X148967041Y-60960000D01*
X149078193Y-61518800D01*
X145231042Y-61518800D01*
X145161000Y-61504868D01*
X145090958Y-61518800D01*
X145090954Y-61518800D01*
X144883504Y-61560064D01*
X144883502Y-61560065D01*
X144883503Y-61560065D01*
X144707635Y-61677576D01*
X144707633Y-61677578D01*
X144648254Y-61717254D01*
X144639737Y-61730000D01*
X144300234Y-61730000D01*
X143883074Y-61902793D01*
X143563793Y-62222074D01*
X143391000Y-62639234D01*
X43080027Y-62639234D01*
X42977767Y-62536974D01*
X42284950Y-62250000D01*
X41535050Y-62250000D01*
X40842233Y-62536974D01*
X40311974Y-63067233D01*
X40025000Y-63760050D01*
X39497000Y-63760050D01*
X39497000Y-58155000D01*
X51522560Y-58155000D01*
X51522560Y-59955000D01*
X51571843Y-60202765D01*
X51712191Y-60412809D01*
X51922235Y-60553157D01*
X52170000Y-60602440D01*
X53240000Y-60602440D01*
X53487765Y-60553157D01*
X53567736Y-60499722D01*
X53667617Y-60548900D01*
X53848000Y-60423244D01*
X53848000Y-60153280D01*
X53887440Y-59955000D01*
X53887440Y-58574770D01*
X54075000Y-58574770D01*
X54075000Y-59535231D01*
X54102000Y-59670969D01*
X54102000Y-60423244D01*
X54282383Y-60548900D01*
X54596850Y-60394066D01*
X54788490Y-60522115D01*
X55245000Y-60612921D01*
X55701511Y-60522115D01*
X55880001Y-60402853D01*
X56058490Y-60522115D01*
X56515000Y-60612921D01*
X56971511Y-60522115D01*
X57358523Y-60263523D01*
X57617115Y-59876511D01*
X57685000Y-59535230D01*
X57685000Y-58574769D01*
X57617115Y-58233489D01*
X57564671Y-58155000D01*
X64222560Y-58155000D01*
X64222560Y-59955000D01*
X64271843Y-60202765D01*
X64412191Y-60412809D01*
X64622235Y-60553157D01*
X64870000Y-60602440D01*
X65940000Y-60602440D01*
X66187765Y-60553157D01*
X66267736Y-60499722D01*
X66367617Y-60548900D01*
X66548000Y-60423244D01*
X66548000Y-60153280D01*
X66587440Y-59955000D01*
X66587440Y-58574770D01*
X66775000Y-58574770D01*
X66775000Y-59535231D01*
X66802000Y-59670969D01*
X66802000Y-60423244D01*
X66982383Y-60548900D01*
X67296850Y-60394066D01*
X67488490Y-60522115D01*
X67945000Y-60612921D01*
X68401511Y-60522115D01*
X68580001Y-60402853D01*
X68758490Y-60522115D01*
X69215000Y-60612921D01*
X69671511Y-60522115D01*
X70058523Y-60263523D01*
X70317115Y-59876511D01*
X70385000Y-59535230D01*
X70385000Y-58574769D01*
X70317115Y-58233489D01*
X70264671Y-58155000D01*
X76922560Y-58155000D01*
X76922560Y-59955000D01*
X76971843Y-60202765D01*
X77112191Y-60412809D01*
X77322235Y-60553157D01*
X77570000Y-60602440D01*
X78640000Y-60602440D01*
X78887765Y-60553157D01*
X78967736Y-60499722D01*
X79067617Y-60548900D01*
X79248000Y-60423244D01*
X79248000Y-60153280D01*
X79287440Y-59955000D01*
X79287440Y-58574770D01*
X79475000Y-58574770D01*
X79475000Y-59535231D01*
X79502000Y-59670969D01*
X79502000Y-60423244D01*
X79682383Y-60548900D01*
X79996850Y-60394066D01*
X80188490Y-60522115D01*
X80645000Y-60612921D01*
X81101511Y-60522115D01*
X81280001Y-60402853D01*
X81458490Y-60522115D01*
X81915000Y-60612921D01*
X82371511Y-60522115D01*
X82758523Y-60263523D01*
X83017115Y-59876511D01*
X83085000Y-59535230D01*
X83085000Y-58574769D01*
X83017115Y-58233489D01*
X82964671Y-58155000D01*
X89622560Y-58155000D01*
X89622560Y-59955000D01*
X89671843Y-60202765D01*
X89812191Y-60412809D01*
X90022235Y-60553157D01*
X90270000Y-60602440D01*
X91340000Y-60602440D01*
X91587765Y-60553157D01*
X91667736Y-60499722D01*
X91767617Y-60548900D01*
X91948000Y-60423244D01*
X91948000Y-60153280D01*
X91987440Y-59955000D01*
X91987440Y-58574770D01*
X92175000Y-58574770D01*
X92175000Y-59535231D01*
X92202000Y-59670969D01*
X92202000Y-60423244D01*
X92382383Y-60548900D01*
X92696850Y-60394066D01*
X92888490Y-60522115D01*
X93345000Y-60612921D01*
X93801511Y-60522115D01*
X93980001Y-60402853D01*
X94158490Y-60522115D01*
X94615000Y-60612921D01*
X95071511Y-60522115D01*
X95458523Y-60263523D01*
X95717115Y-59876511D01*
X95785000Y-59535230D01*
X95785000Y-58574769D01*
X95717115Y-58233489D01*
X95664671Y-58155000D01*
X102322560Y-58155000D01*
X102322560Y-59955000D01*
X102371843Y-60202765D01*
X102512191Y-60412809D01*
X102722235Y-60553157D01*
X102970000Y-60602440D01*
X104040000Y-60602440D01*
X104287765Y-60553157D01*
X104367736Y-60499722D01*
X104467617Y-60548900D01*
X104648000Y-60423244D01*
X104648000Y-60153280D01*
X104687440Y-59955000D01*
X104687440Y-58574770D01*
X104875000Y-58574770D01*
X104875000Y-59535231D01*
X104902000Y-59670969D01*
X104902000Y-60423244D01*
X105082383Y-60548900D01*
X105396850Y-60394066D01*
X105588490Y-60522115D01*
X106045000Y-60612921D01*
X106501511Y-60522115D01*
X106680001Y-60402853D01*
X106858490Y-60522115D01*
X107315000Y-60612921D01*
X107771511Y-60522115D01*
X108158523Y-60263523D01*
X108417115Y-59876511D01*
X108485000Y-59535230D01*
X108485000Y-58574769D01*
X108417115Y-58233489D01*
X108364671Y-58155000D01*
X115022560Y-58155000D01*
X115022560Y-59955000D01*
X115071843Y-60202765D01*
X115212191Y-60412809D01*
X115422235Y-60553157D01*
X115670000Y-60602440D01*
X116740000Y-60602440D01*
X116987765Y-60553157D01*
X117067736Y-60499722D01*
X117167617Y-60548900D01*
X117348000Y-60423244D01*
X117348000Y-60153280D01*
X117387440Y-59955000D01*
X117387440Y-58574770D01*
X117575000Y-58574770D01*
X117575000Y-59535231D01*
X117602000Y-59670969D01*
X117602000Y-60423244D01*
X117782383Y-60548900D01*
X118096850Y-60394066D01*
X118288490Y-60522115D01*
X118745000Y-60612921D01*
X119201511Y-60522115D01*
X119380001Y-60402853D01*
X119558490Y-60522115D01*
X120015000Y-60612921D01*
X120471511Y-60522115D01*
X120858523Y-60263523D01*
X121117115Y-59876511D01*
X121185000Y-59535230D01*
X121185000Y-58574769D01*
X121117115Y-58233489D01*
X120858523Y-57846477D01*
X120471510Y-57587885D01*
X120015000Y-57497079D01*
X119558489Y-57587885D01*
X119380000Y-57707147D01*
X119201510Y-57587885D01*
X118745000Y-57497079D01*
X118288489Y-57587885D01*
X118096849Y-57715934D01*
X117782383Y-57561100D01*
X117602000Y-57686756D01*
X117602000Y-58439032D01*
X117575000Y-58574770D01*
X117387440Y-58574770D01*
X117387440Y-58155000D01*
X117348000Y-57956720D01*
X117348000Y-57686756D01*
X117167617Y-57561100D01*
X117067736Y-57610278D01*
X116987765Y-57556843D01*
X116740000Y-57507560D01*
X115670000Y-57507560D01*
X115422235Y-57556843D01*
X115212191Y-57697191D01*
X115071843Y-57907235D01*
X115022560Y-58155000D01*
X108364671Y-58155000D01*
X108158523Y-57846477D01*
X107771510Y-57587885D01*
X107315000Y-57497079D01*
X106858489Y-57587885D01*
X106680000Y-57707147D01*
X106501510Y-57587885D01*
X106045000Y-57497079D01*
X105588489Y-57587885D01*
X105396849Y-57715934D01*
X105082383Y-57561100D01*
X104902000Y-57686756D01*
X104902000Y-58439032D01*
X104875000Y-58574770D01*
X104687440Y-58574770D01*
X104687440Y-58155000D01*
X104648000Y-57956720D01*
X104648000Y-57686756D01*
X104467617Y-57561100D01*
X104367736Y-57610278D01*
X104287765Y-57556843D01*
X104040000Y-57507560D01*
X102970000Y-57507560D01*
X102722235Y-57556843D01*
X102512191Y-57697191D01*
X102371843Y-57907235D01*
X102322560Y-58155000D01*
X95664671Y-58155000D01*
X95458523Y-57846477D01*
X95071510Y-57587885D01*
X94615000Y-57497079D01*
X94158489Y-57587885D01*
X93980000Y-57707147D01*
X93801510Y-57587885D01*
X93345000Y-57497079D01*
X92888489Y-57587885D01*
X92696849Y-57715934D01*
X92382383Y-57561100D01*
X92202000Y-57686756D01*
X92202000Y-58439032D01*
X92175000Y-58574770D01*
X91987440Y-58574770D01*
X91987440Y-58155000D01*
X91948000Y-57956720D01*
X91948000Y-57686756D01*
X91767617Y-57561100D01*
X91667736Y-57610278D01*
X91587765Y-57556843D01*
X91340000Y-57507560D01*
X90270000Y-57507560D01*
X90022235Y-57556843D01*
X89812191Y-57697191D01*
X89671843Y-57907235D01*
X89622560Y-58155000D01*
X82964671Y-58155000D01*
X82758523Y-57846477D01*
X82371510Y-57587885D01*
X81915000Y-57497079D01*
X81458489Y-57587885D01*
X81280000Y-57707147D01*
X81101510Y-57587885D01*
X80645000Y-57497079D01*
X80188489Y-57587885D01*
X79996849Y-57715934D01*
X79682383Y-57561100D01*
X79502000Y-57686756D01*
X79502000Y-58439032D01*
X79475000Y-58574770D01*
X79287440Y-58574770D01*
X79287440Y-58155000D01*
X79248000Y-57956720D01*
X79248000Y-57686756D01*
X79067617Y-57561100D01*
X78967736Y-57610278D01*
X78887765Y-57556843D01*
X78640000Y-57507560D01*
X77570000Y-57507560D01*
X77322235Y-57556843D01*
X77112191Y-57697191D01*
X76971843Y-57907235D01*
X76922560Y-58155000D01*
X70264671Y-58155000D01*
X70058523Y-57846477D01*
X69671510Y-57587885D01*
X69215000Y-57497079D01*
X68758489Y-57587885D01*
X68580000Y-57707147D01*
X68401510Y-57587885D01*
X67945000Y-57497079D01*
X67488489Y-57587885D01*
X67296849Y-57715934D01*
X66982383Y-57561100D01*
X66802000Y-57686756D01*
X66802000Y-58439032D01*
X66775000Y-58574770D01*
X66587440Y-58574770D01*
X66587440Y-58155000D01*
X66548000Y-57956720D01*
X66548000Y-57686756D01*
X66367617Y-57561100D01*
X66267736Y-57610278D01*
X66187765Y-57556843D01*
X65940000Y-57507560D01*
X64870000Y-57507560D01*
X64622235Y-57556843D01*
X64412191Y-57697191D01*
X64271843Y-57907235D01*
X64222560Y-58155000D01*
X57564671Y-58155000D01*
X57358523Y-57846477D01*
X56971510Y-57587885D01*
X56515000Y-57497079D01*
X56058489Y-57587885D01*
X55880000Y-57707147D01*
X55701510Y-57587885D01*
X55245000Y-57497079D01*
X54788489Y-57587885D01*
X54596849Y-57715934D01*
X54282383Y-57561100D01*
X54102000Y-57686756D01*
X54102000Y-58439032D01*
X54075000Y-58574770D01*
X53887440Y-58574770D01*
X53887440Y-58155000D01*
X53848000Y-57956720D01*
X53848000Y-57686756D01*
X53667617Y-57561100D01*
X53567736Y-57610278D01*
X53487765Y-57556843D01*
X53240000Y-57507560D01*
X52170000Y-57507560D01*
X51922235Y-57556843D01*
X51712191Y-57697191D01*
X51571843Y-57907235D01*
X51522560Y-58155000D01*
X39497000Y-58155000D01*
X39497000Y-53467000D01*
X206883000Y-53467000D01*
X206883000Y-74168000D01*
D28*
X115062000Y-83820000D03*
X131318000Y-57150000D03*
X156591003Y-81025997D03*
X174989000Y-83312000D03*
X175006000Y-80010000D03*
X161671000Y-109220000D03*
X170053000Y-99568000D03*
X192659012Y-80010000D03*
X156083000Y-88011000D03*
X160575969Y-88104241D03*
X150495000Y-58278800D03*
X144526000Y-62865000D03*
X155433800Y-63500000D03*
X164352210Y-85090000D03*
X164338000Y-87629994D03*
X153035000Y-68453000D03*
X151765000Y-69342000D03*
X164352210Y-86360000D03*
X194310000Y-127635000D03*
X194310000Y-125715800D03*
X194691000Y-95123000D03*
X194691000Y-97663000D03*
X120015000Y-59055000D03*
X118745000Y-59055000D03*
X117475000Y-59055000D03*
X116205000Y-59055000D03*
X144780000Y-84328000D03*
X144780000Y-81788000D03*
X147320000Y-84328000D03*
X147320000Y-81788000D03*
X149860000Y-84328000D03*
X149860000Y-81788000D03*
X49805000Y-104020000D03*
X52705000Y-96520000D03*
X153035000Y-60960000D03*
X150495000Y-60960000D03*
X153035000Y-63500000D03*
X150495000Y-63500000D03*
X153035000Y-66040000D03*
X150495000Y-66040000D03*
X115515000Y-65405000D03*
X120015000Y-65405000D03*
X115515000Y-71905000D03*
X120015000Y-71905000D03*
X69365000Y-71905000D03*
X64865000Y-71905000D03*
X69365000Y-65405000D03*
X64865000Y-65405000D03*
X89708344Y-88927320D03*
X89707344Y-96547320D03*
X61720000Y-88927320D03*
X61720000Y-104140000D03*
X202819000Y-126492000D03*
X202819000Y-123952000D03*
X202819000Y-121412000D03*
X60960000Y-113030000D03*
X60960000Y-120650000D03*
X60960000Y-125730000D03*
X60960000Y-130810000D03*
X53340000Y-130810000D03*
X53340000Y-125730000D03*
X53340000Y-120650000D03*
X53340000Y-113030000D03*
X77470000Y-113030000D03*
X77470000Y-120650000D03*
X77470000Y-125730000D03*
X77470000Y-130810000D03*
X69850000Y-130810000D03*
X69850000Y-125730000D03*
X69850000Y-120650000D03*
X69850000Y-113030000D03*
X93980000Y-113030000D03*
X93980000Y-120650000D03*
X93980000Y-125730000D03*
X93980000Y-130810000D03*
X86360000Y-130810000D03*
X86360000Y-125730000D03*
X86360000Y-120650000D03*
X86360000Y-113030000D03*
X110490000Y-112776000D03*
X110490000Y-120396000D03*
X110490000Y-125476000D03*
X110490000Y-130556000D03*
X102870000Y-130556000D03*
X102870000Y-125476000D03*
X102870000Y-120396000D03*
X102870000Y-112776000D03*
X127254000Y-112776000D03*
X127254000Y-120396000D03*
X127254000Y-125476000D03*
X127254000Y-130556000D03*
X119634000Y-130556000D03*
X119634000Y-125476000D03*
X119634000Y-120396000D03*
X119634000Y-112776000D03*
X144145000Y-112776000D03*
X144145000Y-120396000D03*
X144145000Y-125476000D03*
X144145000Y-130556000D03*
X136525000Y-130556000D03*
X136525000Y-125476000D03*
X136525000Y-120396000D03*
X136525000Y-112776000D03*
X43180000Y-83185000D03*
X43180000Y-148590000D03*
X203200000Y-83185000D03*
X203200000Y-148590000D03*
X107315000Y-59055000D03*
X106045000Y-59055000D03*
X104775000Y-59055000D03*
X103505000Y-59055000D03*
X94615000Y-59055000D03*
X93345000Y-59055000D03*
X92075000Y-59055000D03*
X90805000Y-59055000D03*
X81915000Y-59055000D03*
X80645000Y-59055000D03*
X79375000Y-59055000D03*
X78105000Y-59055000D03*
X69215000Y-59055000D03*
X67945000Y-59055000D03*
X66675000Y-59055000D03*
X65405000Y-59055000D03*
X56515000Y-59055000D03*
X55245000Y-59055000D03*
X53975000Y-59055000D03*
X52705000Y-59055000D03*
X204470000Y-64135000D03*
X41910000Y-64135000D03*
X102965000Y-65405000D03*
X107465000Y-65405000D03*
X102965000Y-71905000D03*
X107465000Y-71905000D03*
X94765000Y-71905000D03*
X90265000Y-71905000D03*
X94765000Y-65405000D03*
X90265000Y-65405000D03*
X77415000Y-65405000D03*
X81915000Y-65405000D03*
X77415000Y-71905000D03*
X81915000Y-71905000D03*
X57205000Y-71905000D03*
X52705000Y-71905000D03*
X57205000Y-65405000D03*
X52705000Y-65405000D03*
X147320000Y-76835000D03*
X145415000Y-76835000D03*
X143510000Y-76835000D03*
X141605000Y-76835000D03*
X92884000Y-140335000D03*
X87884000Y-140335000D03*
X104521000Y-140335000D03*
X109521000Y-140335000D03*
X126158000Y-140335000D03*
X121158000Y-140335000D03*
X59610000Y-140335000D03*
X54610000Y-140335000D03*
X76247000Y-140335000D03*
X71247000Y-140335000D03*
X137795000Y-140335000D03*
X142795000Y-140335000D03*
X123825000Y-95885000D03*
X123825000Y-91440000D03*
X123825000Y-86995000D03*
X123825000Y-100330000D03*
X202819000Y-132588000D03*
X202819000Y-135128000D03*
X202819000Y-137668000D03*
X166243000Y-140335000D03*
X171243000Y-140335000D03*
X202819000Y-90424000D03*
X202819000Y-92964000D03*
X202819000Y-95504000D03*
X202819000Y-98044000D03*
X202819000Y-100584000D03*
X202819000Y-103124000D03*
M02*
