M48
;DRILL file {KiCad (6.0.0-rc1-dev-904-g29e0e6921)} date 15/10/2018 14:12:55
;FORMAT={-:-/ absolute / inch / decimal}
FMAT,2
INCH
T1C0.0157
T2C0.0197
T3C0.0315
T4C0.0354
T5C0.0394
T6C0.0400
T7C0.0433
T8C0.0512
T9C0.0551
T10C0.0630
T11C0.0701
%
G90
G05
M72
T1
X3.076Y-2.42
X3.242Y-2.42
X3.53Y-1.98
X3.69Y-2.716
X5.78Y-1.445
X6.515Y-1.75
X6.515Y-1.8
X6.515Y-2.1032
X6.58Y-3.035
X6.58Y-3.132
X6.63Y-3.1931
X6.6649Y-3.1008
X6.67Y-2.3939
X6.67Y-2.5172
X6.705Y-1.8
X6.7325Y-3.1626
X6.7575Y-2.7401
X6.8775Y-3.11
X6.91Y-2.005
X6.9675Y-2.8876
X7.055Y-1.945
X7.0754Y-3.5741
X7.116Y-2.528
X7.1631Y-3.525
X7.165Y-2.185
X7.184Y-2.512
X7.214Y-2.104
X7.2875Y-3.0875
X7.41Y-3.09
X7.445Y-3.05
X7.605Y-2.62
X7.76Y-3.07
X7.95Y-2.29
X8.05Y-2.945
X8.05Y-3.0
X8.125Y-4.27
X8.39Y-2.325
X8.435Y-3.07
X8.485Y-2.325
X8.6494Y-2.995
X8.78Y-2.995
X8.78Y-3.0756
X9.0089Y-2.8732
T2
X7.3448Y-1.7926
X7.4196Y-1.7926
T3
X3.6654Y-5.075
X3.7795Y-4.7798
T4
X3.7402Y-1.5748
X3.7402Y-1.6748
X6.1024Y-1.5748
X6.1024Y-1.6748
X7.68Y-1.5748
X7.68Y-1.6748
X2.9528Y-1.5748
X2.9528Y-1.6748
X5.315Y-1.5748
X5.315Y-1.6748
X4.5276Y-1.5748
X4.5276Y-1.6748
X6.8898Y-1.5748
X6.8898Y-1.6748
T5
X8.9392Y-2.2915
X8.9392Y-2.3915
X8.9392Y-2.4915
X8.9392Y-2.5915
X8.9392Y-2.6915
X8.9392Y-2.7915
X3.2756Y-2.878
X3.2756Y-3.0748
X2.66Y-3.8
X2.66Y-4.0
X3.36Y-3.8
X3.36Y-4.8
X3.36Y-5.0
X7.58Y-2.395
X7.58Y-2.495
X7.8304Y-1.4474
X7.9304Y-1.4474
X8.0304Y-1.4474
T6
X6.94Y-3.635
X6.94Y-3.735
X7.04Y-3.635
X7.04Y-3.735
X7.14Y-3.635
X7.14Y-3.735
X7.24Y-3.635
X7.24Y-3.735
X7.34Y-3.635
X7.34Y-3.735
X6.9375Y-3.1675
X6.9375Y-3.2675
X7.0375Y-3.1675
X7.0375Y-3.2675
X7.1375Y-3.1675
X7.1375Y-3.2675
X7.2375Y-3.1675
X7.2375Y-3.2675
X7.3375Y-3.1675
X7.3375Y-3.2675
T7
X7.5787Y-2.0669
X7.5787Y-2.2638
X7.7756Y-2.0669
X7.7756Y-2.2638
X6.0039Y-2.0669
X6.0039Y-2.2638
X6.2008Y-2.0669
X6.2008Y-2.2638
X4.4291Y-2.0669
X4.4291Y-2.2638
X4.626Y-2.0669
X4.626Y-2.2638
X6.7913Y-2.0669
X6.7913Y-2.2638
X6.9882Y-2.0669
X6.9882Y-2.2638
X5.2165Y-2.0669
X5.2165Y-2.2638
X5.4134Y-2.0669
X5.4134Y-2.2638
X3.6417Y-2.0669
X3.6417Y-2.2638
X3.8386Y-2.0669
X3.8386Y-2.2638
T8
X4.6948Y-5.4463
X4.8916Y-5.4463
X6.6598Y-5.4463
X6.8566Y-5.4463
X7.3148Y-5.4463
X7.5116Y-5.4463
X8.4348Y-5.4463
X8.6316Y-5.4463
X5.3498Y-5.4463
X5.5466Y-5.4463
X6.0048Y-5.4463
X6.2016Y-5.4463
X4.0398Y-5.4463
X4.2366Y-5.4463
T9
X5.2945Y-4.187
X5.2945Y-4.9744
X5.2945Y-5.1713
X5.5898Y-4.187
X5.5898Y-4.9744
X5.5898Y-5.1713
X5.9445Y-4.187
X5.9445Y-4.9744
X5.9445Y-5.1713
X6.2398Y-4.187
X6.2398Y-4.9744
X6.2398Y-5.1713
X4.6445Y-4.187
X4.6445Y-4.9744
X4.6445Y-5.1713
X4.9398Y-4.187
X4.9398Y-4.9744
X4.9398Y-5.1713
X6.6045Y-4.187
X6.6045Y-4.9744
X6.6045Y-5.1713
X6.8998Y-4.187
X6.8998Y-4.9744
X6.8998Y-5.1713
X3.9945Y-4.187
X3.9945Y-4.9744
X3.9945Y-5.1713
X4.2898Y-4.187
X4.2898Y-4.9744
X4.2898Y-5.1713
X7.2648Y-4.187
X7.2648Y-4.9744
X7.2648Y-5.1713
X7.56Y-4.187
X7.56Y-4.9744
X7.56Y-5.1713
T10
X4.0394Y-3.0703
X5.2181Y-2.897
X5.2181Y-3.0703
X4.0394Y-2.897
X6.4056Y-2.897
X6.4056Y-3.0703
T11
X8.4559Y-4.6557
X8.4559Y-5.0463
X8.5898Y-4.6557
X8.5898Y-5.0463
T0
M30
