%TF.GenerationSoftware,KiCad,Pcbnew,(6.0.0-rc1-dev-714-g3024ded91)*%
%TF.CreationDate,2018-10-09T21:15:08+01:00*%
%TF.ProjectId,AquaHub,417175614875622E6B696361645F7063,rev?*%
%TF.SameCoordinates,Original*%
%TF.FileFunction,Soldermask,Bot*%
%TF.FilePolarity,Negative*%
%FSLAX46Y46*%
G04 Gerber Fmt 4.6, Leading zero omitted, Abs format (unit mm)*
G04 Created by KiCad (PCBNEW (6.0.0-rc1-dev-714-g3024ded91)) date 10/09/18 21:15:08*
%MOMM*%
%LPD*%
G01*
G04 APERTURE LIST*
%ADD10C,0.080000*%
%ADD11C,0.200000*%
%ADD12C,0.150000*%
G04 APERTURE END LIST*
D10*
X55880000Y-104140000D02*
X55880000Y-102870000D01*
X66040000Y-104140000D02*
X55880000Y-104140000D01*
X66040000Y-102870000D02*
X66040000Y-104140000D01*
X55880000Y-102870000D02*
X66040000Y-102870000D01*
D11*
X50800000Y-102870000D02*
X47879000Y-102870000D01*
X50800000Y-106045000D02*
X50800000Y-102870000D01*
X146050000Y-115570000D02*
X146050000Y-118110000D01*
X140680000Y-77590000D02*
X140680000Y-75590000D01*
X148180000Y-75590000D02*
X148180000Y-77590000D01*
X148180000Y-77590000D02*
X208180000Y-77590000D01*
X208180000Y-75590000D02*
X148180000Y-75590000D01*
X208180000Y-53590000D02*
X208180000Y-75590000D01*
X38180000Y-53590000D02*
X208180000Y-53590000D01*
X38180000Y-75590000D02*
X38180000Y-53590000D01*
X140680000Y-75590000D02*
X38180000Y-75590000D01*
X48006000Y-118364000D02*
X47879000Y-102870000D01*
X146050000Y-118110000D02*
X48006000Y-118364000D01*
X50800000Y-115570000D02*
X146050000Y-115570000D01*
X50800000Y-106045000D02*
X50800000Y-115570000D01*
X38180000Y-153590000D02*
X208180000Y-153590000D01*
X38180000Y-77590000D02*
X38180000Y-153590000D01*
X140680000Y-77590000D02*
X38180000Y-77590000D01*
X208180000Y-77590000D02*
X208180000Y-153590000D01*
D12*
G36*
X203544959Y-146262577D02*
X203885470Y-146330309D01*
X204313143Y-146507457D01*
X204698038Y-146764636D01*
X205025364Y-147091962D01*
X205282543Y-147476857D01*
X205459691Y-147904530D01*
X205550000Y-148358545D01*
X205550000Y-148821455D01*
X205459691Y-149275470D01*
X205282543Y-149703143D01*
X205025364Y-150088038D01*
X204698038Y-150415364D01*
X204313143Y-150672543D01*
X203885470Y-150849691D01*
X203544959Y-150917423D01*
X203431456Y-150940000D01*
X202968544Y-150940000D01*
X202855041Y-150917423D01*
X202514530Y-150849691D01*
X202086857Y-150672543D01*
X201701962Y-150415364D01*
X201374636Y-150088038D01*
X201117457Y-149703143D01*
X200940309Y-149275470D01*
X200850000Y-148821455D01*
X200850000Y-148358545D01*
X200940309Y-147904530D01*
X201117457Y-147476857D01*
X201374636Y-147091962D01*
X201701962Y-146764636D01*
X202086857Y-146507457D01*
X202514530Y-146330309D01*
X202855041Y-146262577D01*
X202968544Y-146240000D01*
X203431456Y-146240000D01*
X203544959Y-146262577D01*
X203544959Y-146262577D01*
G37*
G36*
X43524959Y-146262577D02*
X43865470Y-146330309D01*
X44293143Y-146507457D01*
X44678038Y-146764636D01*
X45005364Y-147091962D01*
X45262543Y-147476857D01*
X45439691Y-147904530D01*
X45530000Y-148358545D01*
X45530000Y-148821455D01*
X45439691Y-149275470D01*
X45262543Y-149703143D01*
X45005364Y-150088038D01*
X44678038Y-150415364D01*
X44293143Y-150672543D01*
X43865470Y-150849691D01*
X43524959Y-150917423D01*
X43411456Y-150940000D01*
X42948544Y-150940000D01*
X42835041Y-150917423D01*
X42494530Y-150849691D01*
X42066857Y-150672543D01*
X41681962Y-150415364D01*
X41354636Y-150088038D01*
X41097457Y-149703143D01*
X40920309Y-149275470D01*
X40830000Y-148821455D01*
X40830000Y-148358545D01*
X40920309Y-147904530D01*
X41097457Y-147476857D01*
X41354636Y-147091962D01*
X41681962Y-146764636D01*
X42066857Y-146507457D01*
X42494530Y-146330309D01*
X42835041Y-146262577D01*
X42948544Y-146240000D01*
X43411456Y-146240000D01*
X43524959Y-146262577D01*
X43524959Y-146262577D01*
G37*
G36*
X89384000Y-141835000D02*
X86384000Y-141835000D01*
X86384000Y-138835000D01*
X89384000Y-138835000D01*
X89384000Y-141835000D01*
X89384000Y-141835000D01*
G37*
G36*
X72747000Y-141835000D02*
X69747000Y-141835000D01*
X69747000Y-138835000D01*
X72747000Y-138835000D01*
X72747000Y-141835000D01*
X72747000Y-141835000D01*
G37*
G36*
X171583935Y-138873429D02*
X171680534Y-138892644D01*
X171953517Y-139005717D01*
X172195920Y-139167687D01*
X172199197Y-139169876D01*
X172408124Y-139378803D01*
X172572284Y-139624485D01*
X172685356Y-139897467D01*
X172743000Y-140187261D01*
X172743000Y-140482739D01*
X172685356Y-140772533D01*
X172572284Y-141045515D01*
X172408124Y-141291197D01*
X172199197Y-141500124D01*
X172199194Y-141500126D01*
X171953517Y-141664283D01*
X171680534Y-141777356D01*
X171583935Y-141796571D01*
X171390739Y-141835000D01*
X171095261Y-141835000D01*
X170902065Y-141796571D01*
X170805466Y-141777356D01*
X170532483Y-141664283D01*
X170286806Y-141500126D01*
X170286803Y-141500124D01*
X170077876Y-141291197D01*
X169913716Y-141045515D01*
X169800644Y-140772533D01*
X169743000Y-140482739D01*
X169743000Y-140187261D01*
X169800644Y-139897467D01*
X169913716Y-139624485D01*
X170077876Y-139378803D01*
X170286803Y-139169876D01*
X170290080Y-139167687D01*
X170532483Y-139005717D01*
X170805466Y-138892644D01*
X170902065Y-138873429D01*
X171095261Y-138835000D01*
X171390739Y-138835000D01*
X171583935Y-138873429D01*
X171583935Y-138873429D01*
G37*
G36*
X167743000Y-141835000D02*
X164743000Y-141835000D01*
X164743000Y-138835000D01*
X167743000Y-138835000D01*
X167743000Y-141835000D01*
X167743000Y-141835000D01*
G37*
G36*
X143135935Y-138873429D02*
X143232534Y-138892644D01*
X143505517Y-139005717D01*
X143747920Y-139167687D01*
X143751197Y-139169876D01*
X143960124Y-139378803D01*
X144124284Y-139624485D01*
X144237356Y-139897467D01*
X144295000Y-140187261D01*
X144295000Y-140482739D01*
X144237356Y-140772533D01*
X144124284Y-141045515D01*
X143960124Y-141291197D01*
X143751197Y-141500124D01*
X143751194Y-141500126D01*
X143505517Y-141664283D01*
X143232534Y-141777356D01*
X143135935Y-141796571D01*
X142942739Y-141835000D01*
X142647261Y-141835000D01*
X142454065Y-141796571D01*
X142357466Y-141777356D01*
X142084483Y-141664283D01*
X141838806Y-141500126D01*
X141838803Y-141500124D01*
X141629876Y-141291197D01*
X141465716Y-141045515D01*
X141352644Y-140772533D01*
X141295000Y-140482739D01*
X141295000Y-140187261D01*
X141352644Y-139897467D01*
X141465716Y-139624485D01*
X141629876Y-139378803D01*
X141838803Y-139169876D01*
X141842080Y-139167687D01*
X142084483Y-139005717D01*
X142357466Y-138892644D01*
X142454065Y-138873429D01*
X142647261Y-138835000D01*
X142942739Y-138835000D01*
X143135935Y-138873429D01*
X143135935Y-138873429D01*
G37*
G36*
X76587935Y-138873429D02*
X76684534Y-138892644D01*
X76957517Y-139005717D01*
X77199920Y-139167687D01*
X77203197Y-139169876D01*
X77412124Y-139378803D01*
X77576284Y-139624485D01*
X77689356Y-139897467D01*
X77747000Y-140187261D01*
X77747000Y-140482739D01*
X77689356Y-140772533D01*
X77576284Y-141045515D01*
X77412124Y-141291197D01*
X77203197Y-141500124D01*
X77203194Y-141500126D01*
X76957517Y-141664283D01*
X76684534Y-141777356D01*
X76587935Y-141796571D01*
X76394739Y-141835000D01*
X76099261Y-141835000D01*
X75906065Y-141796571D01*
X75809466Y-141777356D01*
X75536483Y-141664283D01*
X75290806Y-141500126D01*
X75290803Y-141500124D01*
X75081876Y-141291197D01*
X74917716Y-141045515D01*
X74804644Y-140772533D01*
X74747000Y-140482739D01*
X74747000Y-140187261D01*
X74804644Y-139897467D01*
X74917716Y-139624485D01*
X75081876Y-139378803D01*
X75290803Y-139169876D01*
X75294080Y-139167687D01*
X75536483Y-139005717D01*
X75809466Y-138892644D01*
X75906065Y-138873429D01*
X76099261Y-138835000D01*
X76394739Y-138835000D01*
X76587935Y-138873429D01*
X76587935Y-138873429D01*
G37*
G36*
X139295000Y-141835000D02*
X136295000Y-141835000D01*
X136295000Y-138835000D01*
X139295000Y-138835000D01*
X139295000Y-141835000D01*
X139295000Y-141835000D01*
G37*
G36*
X59950935Y-138873429D02*
X60047534Y-138892644D01*
X60320517Y-139005717D01*
X60562920Y-139167687D01*
X60566197Y-139169876D01*
X60775124Y-139378803D01*
X60939284Y-139624485D01*
X61052356Y-139897467D01*
X61110000Y-140187261D01*
X61110000Y-140482739D01*
X61052356Y-140772533D01*
X60939284Y-141045515D01*
X60775124Y-141291197D01*
X60566197Y-141500124D01*
X60566194Y-141500126D01*
X60320517Y-141664283D01*
X60047534Y-141777356D01*
X59950935Y-141796571D01*
X59757739Y-141835000D01*
X59462261Y-141835000D01*
X59269065Y-141796571D01*
X59172466Y-141777356D01*
X58899483Y-141664283D01*
X58653806Y-141500126D01*
X58653803Y-141500124D01*
X58444876Y-141291197D01*
X58280716Y-141045515D01*
X58167644Y-140772533D01*
X58110000Y-140482739D01*
X58110000Y-140187261D01*
X58167644Y-139897467D01*
X58280716Y-139624485D01*
X58444876Y-139378803D01*
X58653803Y-139169876D01*
X58657080Y-139167687D01*
X58899483Y-139005717D01*
X59172466Y-138892644D01*
X59269065Y-138873429D01*
X59462261Y-138835000D01*
X59757739Y-138835000D01*
X59950935Y-138873429D01*
X59950935Y-138873429D01*
G37*
G36*
X126498935Y-138873429D02*
X126595534Y-138892644D01*
X126868517Y-139005717D01*
X127110920Y-139167687D01*
X127114197Y-139169876D01*
X127323124Y-139378803D01*
X127487284Y-139624485D01*
X127600356Y-139897467D01*
X127658000Y-140187261D01*
X127658000Y-140482739D01*
X127600356Y-140772533D01*
X127487284Y-141045515D01*
X127323124Y-141291197D01*
X127114197Y-141500124D01*
X127114194Y-141500126D01*
X126868517Y-141664283D01*
X126595534Y-141777356D01*
X126498935Y-141796571D01*
X126305739Y-141835000D01*
X126010261Y-141835000D01*
X125817065Y-141796571D01*
X125720466Y-141777356D01*
X125447483Y-141664283D01*
X125201806Y-141500126D01*
X125201803Y-141500124D01*
X124992876Y-141291197D01*
X124828716Y-141045515D01*
X124715644Y-140772533D01*
X124658000Y-140482739D01*
X124658000Y-140187261D01*
X124715644Y-139897467D01*
X124828716Y-139624485D01*
X124992876Y-139378803D01*
X125201803Y-139169876D01*
X125205080Y-139167687D01*
X125447483Y-139005717D01*
X125720466Y-138892644D01*
X125817065Y-138873429D01*
X126010261Y-138835000D01*
X126305739Y-138835000D01*
X126498935Y-138873429D01*
X126498935Y-138873429D01*
G37*
G36*
X122658000Y-141835000D02*
X119658000Y-141835000D01*
X119658000Y-138835000D01*
X122658000Y-138835000D01*
X122658000Y-141835000D01*
X122658000Y-141835000D01*
G37*
G36*
X109861935Y-138873429D02*
X109958534Y-138892644D01*
X110231517Y-139005717D01*
X110473920Y-139167687D01*
X110477197Y-139169876D01*
X110686124Y-139378803D01*
X110850284Y-139624485D01*
X110963356Y-139897467D01*
X111021000Y-140187261D01*
X111021000Y-140482739D01*
X110963356Y-140772533D01*
X110850284Y-141045515D01*
X110686124Y-141291197D01*
X110477197Y-141500124D01*
X110477194Y-141500126D01*
X110231517Y-141664283D01*
X109958534Y-141777356D01*
X109861935Y-141796571D01*
X109668739Y-141835000D01*
X109373261Y-141835000D01*
X109180065Y-141796571D01*
X109083466Y-141777356D01*
X108810483Y-141664283D01*
X108564806Y-141500126D01*
X108564803Y-141500124D01*
X108355876Y-141291197D01*
X108191716Y-141045515D01*
X108078644Y-140772533D01*
X108021000Y-140482739D01*
X108021000Y-140187261D01*
X108078644Y-139897467D01*
X108191716Y-139624485D01*
X108355876Y-139378803D01*
X108564803Y-139169876D01*
X108568080Y-139167687D01*
X108810483Y-139005717D01*
X109083466Y-138892644D01*
X109180065Y-138873429D01*
X109373261Y-138835000D01*
X109668739Y-138835000D01*
X109861935Y-138873429D01*
X109861935Y-138873429D01*
G37*
G36*
X106021000Y-141835000D02*
X103021000Y-141835000D01*
X103021000Y-138835000D01*
X106021000Y-138835000D01*
X106021000Y-141835000D01*
X106021000Y-141835000D01*
G37*
G36*
X93224935Y-138873429D02*
X93321534Y-138892644D01*
X93594517Y-139005717D01*
X93836920Y-139167687D01*
X93840197Y-139169876D01*
X94049124Y-139378803D01*
X94213284Y-139624485D01*
X94326356Y-139897467D01*
X94384000Y-140187261D01*
X94384000Y-140482739D01*
X94326356Y-140772533D01*
X94213284Y-141045515D01*
X94049124Y-141291197D01*
X93840197Y-141500124D01*
X93840194Y-141500126D01*
X93594517Y-141664283D01*
X93321534Y-141777356D01*
X93224935Y-141796571D01*
X93031739Y-141835000D01*
X92736261Y-141835000D01*
X92543065Y-141796571D01*
X92446466Y-141777356D01*
X92173483Y-141664283D01*
X91927806Y-141500126D01*
X91927803Y-141500124D01*
X91718876Y-141291197D01*
X91554716Y-141045515D01*
X91441644Y-140772533D01*
X91384000Y-140482739D01*
X91384000Y-140187261D01*
X91441644Y-139897467D01*
X91554716Y-139624485D01*
X91718876Y-139378803D01*
X91927803Y-139169876D01*
X91931080Y-139167687D01*
X92173483Y-139005717D01*
X92446466Y-138892644D01*
X92543065Y-138873429D01*
X92736261Y-138835000D01*
X93031739Y-138835000D01*
X93224935Y-138873429D01*
X93224935Y-138873429D01*
G37*
G36*
X56110000Y-141835000D02*
X53110000Y-141835000D01*
X53110000Y-138835000D01*
X56110000Y-138835000D01*
X56110000Y-141835000D01*
X56110000Y-141835000D01*
G37*
G36*
X194240000Y-136201000D02*
X191840000Y-136201000D01*
X191840000Y-133801000D01*
X194240000Y-133801000D01*
X194240000Y-136201000D01*
X194240000Y-136201000D01*
G37*
G36*
X198390026Y-133847115D02*
X198608412Y-133937573D01*
X198804958Y-134068901D01*
X198972099Y-134236042D01*
X199103427Y-134432588D01*
X199193885Y-134650974D01*
X199240000Y-134882809D01*
X199240000Y-135119191D01*
X199193885Y-135351026D01*
X199103427Y-135569412D01*
X198972099Y-135765958D01*
X198804958Y-135933099D01*
X198608412Y-136064427D01*
X198390026Y-136154885D01*
X198158191Y-136201000D01*
X197921809Y-136201000D01*
X197689974Y-136154885D01*
X197471588Y-136064427D01*
X197275042Y-135933099D01*
X197107901Y-135765958D01*
X196976573Y-135569412D01*
X196886115Y-135351026D01*
X196840000Y-135119191D01*
X196840000Y-134882809D01*
X196886115Y-134650974D01*
X196976573Y-134432588D01*
X197107901Y-134236042D01*
X197275042Y-134068901D01*
X197471588Y-133937573D01*
X197689974Y-133847115D01*
X197921809Y-133801000D01*
X198158191Y-133801000D01*
X198390026Y-133847115D01*
X198390026Y-133847115D01*
G37*
G36*
X78920000Y-134800000D02*
X76020000Y-134800000D01*
X76020000Y-131900000D01*
X78920000Y-131900000D01*
X78920000Y-134800000D01*
X78920000Y-134800000D01*
G37*
G36*
X70392947Y-131955722D02*
X70656833Y-132065027D01*
X70894324Y-132223713D01*
X71096287Y-132425676D01*
X71254973Y-132663167D01*
X71364278Y-132927053D01*
X71420000Y-133207186D01*
X71420000Y-133492814D01*
X71364278Y-133772947D01*
X71254973Y-134036833D01*
X71096287Y-134274324D01*
X70894324Y-134476287D01*
X70656833Y-134634973D01*
X70392947Y-134744278D01*
X70112814Y-134800000D01*
X69827186Y-134800000D01*
X69547053Y-134744278D01*
X69283167Y-134634973D01*
X69045676Y-134476287D01*
X68843713Y-134274324D01*
X68685027Y-134036833D01*
X68575722Y-133772947D01*
X68520000Y-133492814D01*
X68520000Y-133207186D01*
X68575722Y-132927053D01*
X68685027Y-132663167D01*
X68843713Y-132425676D01*
X69045676Y-132223713D01*
X69283167Y-132065027D01*
X69547053Y-131955722D01*
X69827186Y-131900000D01*
X70112814Y-131900000D01*
X70392947Y-131955722D01*
X70392947Y-131955722D01*
G37*
G36*
X86902947Y-131955722D02*
X87166833Y-132065027D01*
X87404324Y-132223713D01*
X87606287Y-132425676D01*
X87764973Y-132663167D01*
X87874278Y-132927053D01*
X87930000Y-133207186D01*
X87930000Y-133492814D01*
X87874278Y-133772947D01*
X87764973Y-134036833D01*
X87606287Y-134274324D01*
X87404324Y-134476287D01*
X87166833Y-134634973D01*
X86902947Y-134744278D01*
X86622814Y-134800000D01*
X86337186Y-134800000D01*
X86057053Y-134744278D01*
X85793167Y-134634973D01*
X85555676Y-134476287D01*
X85353713Y-134274324D01*
X85195027Y-134036833D01*
X85085722Y-133772947D01*
X85030000Y-133492814D01*
X85030000Y-133207186D01*
X85085722Y-132927053D01*
X85195027Y-132663167D01*
X85353713Y-132425676D01*
X85555676Y-132223713D01*
X85793167Y-132065027D01*
X86057053Y-131955722D01*
X86337186Y-131900000D01*
X86622814Y-131900000D01*
X86902947Y-131955722D01*
X86902947Y-131955722D01*
G37*
G36*
X95430000Y-134800000D02*
X92530000Y-134800000D01*
X92530000Y-131900000D01*
X95430000Y-131900000D01*
X95430000Y-134800000D01*
X95430000Y-134800000D01*
G37*
G36*
X103412947Y-131955722D02*
X103676833Y-132065027D01*
X103914324Y-132223713D01*
X104116287Y-132425676D01*
X104274973Y-132663167D01*
X104384278Y-132927053D01*
X104440000Y-133207186D01*
X104440000Y-133492814D01*
X104384278Y-133772947D01*
X104274973Y-134036833D01*
X104116287Y-134274324D01*
X103914324Y-134476287D01*
X103676833Y-134634973D01*
X103412947Y-134744278D01*
X103132814Y-134800000D01*
X102847186Y-134800000D01*
X102567053Y-134744278D01*
X102303167Y-134634973D01*
X102065676Y-134476287D01*
X101863713Y-134274324D01*
X101705027Y-134036833D01*
X101595722Y-133772947D01*
X101540000Y-133492814D01*
X101540000Y-133207186D01*
X101595722Y-132927053D01*
X101705027Y-132663167D01*
X101863713Y-132425676D01*
X102065676Y-132223713D01*
X102303167Y-132065027D01*
X102567053Y-131955722D01*
X102847186Y-131900000D01*
X103132814Y-131900000D01*
X103412947Y-131955722D01*
X103412947Y-131955722D01*
G37*
G36*
X120176947Y-131955722D02*
X120440833Y-132065027D01*
X120678324Y-132223713D01*
X120880287Y-132425676D01*
X121038973Y-132663167D01*
X121148278Y-132927053D01*
X121204000Y-133207186D01*
X121204000Y-133492814D01*
X121148278Y-133772947D01*
X121038973Y-134036833D01*
X120880287Y-134274324D01*
X120678324Y-134476287D01*
X120440833Y-134634973D01*
X120176947Y-134744278D01*
X119896814Y-134800000D01*
X119611186Y-134800000D01*
X119331053Y-134744278D01*
X119067167Y-134634973D01*
X118829676Y-134476287D01*
X118627713Y-134274324D01*
X118469027Y-134036833D01*
X118359722Y-133772947D01*
X118304000Y-133492814D01*
X118304000Y-133207186D01*
X118359722Y-132927053D01*
X118469027Y-132663167D01*
X118627713Y-132425676D01*
X118829676Y-132223713D01*
X119067167Y-132065027D01*
X119331053Y-131955722D01*
X119611186Y-131900000D01*
X119896814Y-131900000D01*
X120176947Y-131955722D01*
X120176947Y-131955722D01*
G37*
G36*
X62410000Y-134800000D02*
X59510000Y-134800000D01*
X59510000Y-131900000D01*
X62410000Y-131900000D01*
X62410000Y-134800000D01*
X62410000Y-134800000D01*
G37*
G36*
X111940000Y-134800000D02*
X109040000Y-134800000D01*
X109040000Y-131900000D01*
X111940000Y-131900000D01*
X111940000Y-134800000D01*
X111940000Y-134800000D01*
G37*
G36*
X136947947Y-131955722D02*
X137211833Y-132065027D01*
X137449324Y-132223713D01*
X137651287Y-132425676D01*
X137809973Y-132663167D01*
X137919278Y-132927053D01*
X137975000Y-133207186D01*
X137975000Y-133492814D01*
X137919278Y-133772947D01*
X137809973Y-134036833D01*
X137651287Y-134274324D01*
X137449324Y-134476287D01*
X137211833Y-134634973D01*
X136947947Y-134744278D01*
X136667814Y-134800000D01*
X136382186Y-134800000D01*
X136102053Y-134744278D01*
X135838167Y-134634973D01*
X135600676Y-134476287D01*
X135398713Y-134274324D01*
X135240027Y-134036833D01*
X135130722Y-133772947D01*
X135075000Y-133492814D01*
X135075000Y-133207186D01*
X135130722Y-132927053D01*
X135240027Y-132663167D01*
X135398713Y-132425676D01*
X135600676Y-132223713D01*
X135838167Y-132065027D01*
X136102053Y-131955722D01*
X136382186Y-131900000D01*
X136667814Y-131900000D01*
X136947947Y-131955722D01*
X136947947Y-131955722D01*
G37*
G36*
X145475000Y-134800000D02*
X142575000Y-134800000D01*
X142575000Y-131900000D01*
X145475000Y-131900000D01*
X145475000Y-134800000D01*
X145475000Y-134800000D01*
G37*
G36*
X128704000Y-134800000D02*
X125804000Y-134800000D01*
X125804000Y-131900000D01*
X128704000Y-131900000D01*
X128704000Y-134800000D01*
X128704000Y-134800000D01*
G37*
G36*
X53882947Y-131955722D02*
X54146833Y-132065027D01*
X54384324Y-132223713D01*
X54586287Y-132425676D01*
X54744973Y-132663167D01*
X54854278Y-132927053D01*
X54910000Y-133207186D01*
X54910000Y-133492814D01*
X54854278Y-133772947D01*
X54744973Y-134036833D01*
X54586287Y-134274324D01*
X54384324Y-134476287D01*
X54146833Y-134634973D01*
X53882947Y-134744278D01*
X53602814Y-134800000D01*
X53317186Y-134800000D01*
X53037053Y-134744278D01*
X52773167Y-134634973D01*
X52535676Y-134476287D01*
X52333713Y-134274324D01*
X52175027Y-134036833D01*
X52065722Y-133772947D01*
X52010000Y-133492814D01*
X52010000Y-133207186D01*
X52065722Y-132927053D01*
X52175027Y-132663167D01*
X52333713Y-132425676D01*
X52535676Y-132223713D01*
X52773167Y-132065027D01*
X53037053Y-131955722D01*
X53317186Y-131900000D01*
X53602814Y-131900000D01*
X53882947Y-131955722D01*
X53882947Y-131955722D01*
G37*
G36*
X167141391Y-128625735D02*
X167243786Y-128646103D01*
X167363643Y-128695750D01*
X167533146Y-128765960D01*
X167793569Y-128939969D01*
X168015031Y-129161431D01*
X168189040Y-129421854D01*
X168259250Y-129591357D01*
X168308897Y-129711214D01*
X168315474Y-129744278D01*
X168357402Y-129955064D01*
X168364515Y-129978514D01*
X168376066Y-130000124D01*
X168391612Y-130019066D01*
X168410554Y-130034612D01*
X168432165Y-130046163D01*
X168455614Y-130053276D01*
X168480000Y-130055678D01*
X168504386Y-130053276D01*
X168527836Y-130046163D01*
X168549446Y-130034612D01*
X168568388Y-130019066D01*
X168583934Y-130000124D01*
X168595485Y-129978513D01*
X168602598Y-129955064D01*
X168644526Y-129744278D01*
X168651103Y-129711214D01*
X168700750Y-129591357D01*
X168770960Y-129421854D01*
X168944969Y-129161431D01*
X169166431Y-128939969D01*
X169426854Y-128765960D01*
X169596357Y-128695750D01*
X169716214Y-128646103D01*
X169818609Y-128625735D01*
X170023397Y-128585000D01*
X170336603Y-128585000D01*
X170541391Y-128625735D01*
X170643786Y-128646103D01*
X170763643Y-128695750D01*
X170933146Y-128765960D01*
X171193569Y-128939969D01*
X171415031Y-129161431D01*
X171589040Y-129421854D01*
X171708897Y-129711215D01*
X171770000Y-130018397D01*
X171770000Y-130331603D01*
X171708897Y-130638785D01*
X171589040Y-130928146D01*
X171415031Y-131188569D01*
X171193569Y-131410031D01*
X170933146Y-131584040D01*
X170763643Y-131654250D01*
X170643786Y-131703897D01*
X170541391Y-131724265D01*
X170336603Y-131765000D01*
X170023397Y-131765000D01*
X169818609Y-131724265D01*
X169716214Y-131703897D01*
X169596357Y-131654250D01*
X169426854Y-131584040D01*
X169166431Y-131410031D01*
X168944969Y-131188569D01*
X168770960Y-130928146D01*
X168651103Y-130638785D01*
X168602598Y-130394936D01*
X168595485Y-130371486D01*
X168583934Y-130349876D01*
X168568388Y-130330934D01*
X168549446Y-130315388D01*
X168527835Y-130303837D01*
X168504386Y-130296724D01*
X168480000Y-130294322D01*
X168455614Y-130296724D01*
X168432164Y-130303837D01*
X168410554Y-130315388D01*
X168391612Y-130330934D01*
X168376066Y-130349876D01*
X168364515Y-130371487D01*
X168357402Y-130394936D01*
X168308897Y-130638785D01*
X168189040Y-130928146D01*
X168015031Y-131188569D01*
X167793569Y-131410031D01*
X167533146Y-131584040D01*
X167363643Y-131654250D01*
X167243786Y-131703897D01*
X167141391Y-131724265D01*
X166936603Y-131765000D01*
X166623397Y-131765000D01*
X166418609Y-131724265D01*
X166316214Y-131703897D01*
X166196357Y-131654250D01*
X166026854Y-131584040D01*
X165766431Y-131410031D01*
X165544969Y-131188569D01*
X165370960Y-130928146D01*
X165251103Y-130638785D01*
X165190000Y-130331603D01*
X165190000Y-130018397D01*
X165251103Y-129711215D01*
X165370960Y-129421854D01*
X165544969Y-129161431D01*
X165766431Y-128939969D01*
X166026854Y-128765960D01*
X166196357Y-128695750D01*
X166316214Y-128646103D01*
X166418609Y-128625735D01*
X166623397Y-128585000D01*
X166936603Y-128585000D01*
X167141391Y-128625735D01*
X167141391Y-128625735D01*
G37*
G36*
X70392947Y-126955722D02*
X70656833Y-127065027D01*
X70894324Y-127223713D01*
X71096287Y-127425676D01*
X71254973Y-127663167D01*
X71364278Y-127927053D01*
X71420000Y-128207186D01*
X71420000Y-128492814D01*
X71364278Y-128772947D01*
X71254973Y-129036833D01*
X71096287Y-129274324D01*
X70894324Y-129476287D01*
X70656833Y-129634973D01*
X70392947Y-129744278D01*
X70112814Y-129800000D01*
X69827186Y-129800000D01*
X69547053Y-129744278D01*
X69283167Y-129634973D01*
X69045676Y-129476287D01*
X68843713Y-129274324D01*
X68685027Y-129036833D01*
X68575722Y-128772947D01*
X68520000Y-128492814D01*
X68520000Y-128207186D01*
X68575722Y-127927053D01*
X68685027Y-127663167D01*
X68843713Y-127425676D01*
X69045676Y-127223713D01*
X69283167Y-127065027D01*
X69547053Y-126955722D01*
X69827186Y-126900000D01*
X70112814Y-126900000D01*
X70392947Y-126955722D01*
X70392947Y-126955722D01*
G37*
G36*
X120176947Y-126955722D02*
X120440833Y-127065027D01*
X120678324Y-127223713D01*
X120880287Y-127425676D01*
X121038973Y-127663167D01*
X121148278Y-127927053D01*
X121204000Y-128207186D01*
X121204000Y-128492814D01*
X121148278Y-128772947D01*
X121038973Y-129036833D01*
X120880287Y-129274324D01*
X120678324Y-129476287D01*
X120440833Y-129634973D01*
X120176947Y-129744278D01*
X119896814Y-129800000D01*
X119611186Y-129800000D01*
X119331053Y-129744278D01*
X119067167Y-129634973D01*
X118829676Y-129476287D01*
X118627713Y-129274324D01*
X118469027Y-129036833D01*
X118359722Y-128772947D01*
X118304000Y-128492814D01*
X118304000Y-128207186D01*
X118359722Y-127927053D01*
X118469027Y-127663167D01*
X118627713Y-127425676D01*
X118829676Y-127223713D01*
X119067167Y-127065027D01*
X119331053Y-126955722D01*
X119611186Y-126900000D01*
X119896814Y-126900000D01*
X120176947Y-126955722D01*
X120176947Y-126955722D01*
G37*
G36*
X144447947Y-126955722D02*
X144711833Y-127065027D01*
X144949324Y-127223713D01*
X145151287Y-127425676D01*
X145309973Y-127663167D01*
X145419278Y-127927053D01*
X145475000Y-128207186D01*
X145475000Y-128492814D01*
X145419278Y-128772947D01*
X145309973Y-129036833D01*
X145151287Y-129274324D01*
X144949324Y-129476287D01*
X144711833Y-129634973D01*
X144447947Y-129744278D01*
X144167814Y-129800000D01*
X143882186Y-129800000D01*
X143602053Y-129744278D01*
X143338167Y-129634973D01*
X143100676Y-129476287D01*
X142898713Y-129274324D01*
X142740027Y-129036833D01*
X142630722Y-128772947D01*
X142575000Y-128492814D01*
X142575000Y-128207186D01*
X142630722Y-127927053D01*
X142740027Y-127663167D01*
X142898713Y-127425676D01*
X143100676Y-127223713D01*
X143338167Y-127065027D01*
X143602053Y-126955722D01*
X143882186Y-126900000D01*
X144167814Y-126900000D01*
X144447947Y-126955722D01*
X144447947Y-126955722D01*
G37*
G36*
X136947947Y-126955722D02*
X137211833Y-127065027D01*
X137449324Y-127223713D01*
X137651287Y-127425676D01*
X137809973Y-127663167D01*
X137919278Y-127927053D01*
X137975000Y-128207186D01*
X137975000Y-128492814D01*
X137919278Y-128772947D01*
X137809973Y-129036833D01*
X137651287Y-129274324D01*
X137449324Y-129476287D01*
X137211833Y-129634973D01*
X136947947Y-129744278D01*
X136667814Y-129800000D01*
X136382186Y-129800000D01*
X136102053Y-129744278D01*
X135838167Y-129634973D01*
X135600676Y-129476287D01*
X135398713Y-129274324D01*
X135240027Y-129036833D01*
X135130722Y-128772947D01*
X135075000Y-128492814D01*
X135075000Y-128207186D01*
X135130722Y-127927053D01*
X135240027Y-127663167D01*
X135398713Y-127425676D01*
X135600676Y-127223713D01*
X135838167Y-127065027D01*
X136102053Y-126955722D01*
X136382186Y-126900000D01*
X136667814Y-126900000D01*
X136947947Y-126955722D01*
X136947947Y-126955722D01*
G37*
G36*
X110912947Y-126955722D02*
X111176833Y-127065027D01*
X111414324Y-127223713D01*
X111616287Y-127425676D01*
X111774973Y-127663167D01*
X111884278Y-127927053D01*
X111940000Y-128207186D01*
X111940000Y-128492814D01*
X111884278Y-128772947D01*
X111774973Y-129036833D01*
X111616287Y-129274324D01*
X111414324Y-129476287D01*
X111176833Y-129634973D01*
X110912947Y-129744278D01*
X110632814Y-129800000D01*
X110347186Y-129800000D01*
X110067053Y-129744278D01*
X109803167Y-129634973D01*
X109565676Y-129476287D01*
X109363713Y-129274324D01*
X109205027Y-129036833D01*
X109095722Y-128772947D01*
X109040000Y-128492814D01*
X109040000Y-128207186D01*
X109095722Y-127927053D01*
X109205027Y-127663167D01*
X109363713Y-127425676D01*
X109565676Y-127223713D01*
X109803167Y-127065027D01*
X110067053Y-126955722D01*
X110347186Y-126900000D01*
X110632814Y-126900000D01*
X110912947Y-126955722D01*
X110912947Y-126955722D01*
G37*
G36*
X127676947Y-126955722D02*
X127940833Y-127065027D01*
X128178324Y-127223713D01*
X128380287Y-127425676D01*
X128538973Y-127663167D01*
X128648278Y-127927053D01*
X128704000Y-128207186D01*
X128704000Y-128492814D01*
X128648278Y-128772947D01*
X128538973Y-129036833D01*
X128380287Y-129274324D01*
X128178324Y-129476287D01*
X127940833Y-129634973D01*
X127676947Y-129744278D01*
X127396814Y-129800000D01*
X127111186Y-129800000D01*
X126831053Y-129744278D01*
X126567167Y-129634973D01*
X126329676Y-129476287D01*
X126127713Y-129274324D01*
X125969027Y-129036833D01*
X125859722Y-128772947D01*
X125804000Y-128492814D01*
X125804000Y-128207186D01*
X125859722Y-127927053D01*
X125969027Y-127663167D01*
X126127713Y-127425676D01*
X126329676Y-127223713D01*
X126567167Y-127065027D01*
X126831053Y-126955722D01*
X127111186Y-126900000D01*
X127396814Y-126900000D01*
X127676947Y-126955722D01*
X127676947Y-126955722D01*
G37*
G36*
X53882947Y-126955722D02*
X54146833Y-127065027D01*
X54384324Y-127223713D01*
X54586287Y-127425676D01*
X54744973Y-127663167D01*
X54854278Y-127927053D01*
X54910000Y-128207186D01*
X54910000Y-128492814D01*
X54854278Y-128772947D01*
X54744973Y-129036833D01*
X54586287Y-129274324D01*
X54384324Y-129476287D01*
X54146833Y-129634973D01*
X53882947Y-129744278D01*
X53602814Y-129800000D01*
X53317186Y-129800000D01*
X53037053Y-129744278D01*
X52773167Y-129634973D01*
X52535676Y-129476287D01*
X52333713Y-129274324D01*
X52175027Y-129036833D01*
X52065722Y-128772947D01*
X52010000Y-128492814D01*
X52010000Y-128207186D01*
X52065722Y-127927053D01*
X52175027Y-127663167D01*
X52333713Y-127425676D01*
X52535676Y-127223713D01*
X52773167Y-127065027D01*
X53037053Y-126955722D01*
X53317186Y-126900000D01*
X53602814Y-126900000D01*
X53882947Y-126955722D01*
X53882947Y-126955722D01*
G37*
G36*
X103412947Y-126955722D02*
X103676833Y-127065027D01*
X103914324Y-127223713D01*
X104116287Y-127425676D01*
X104274973Y-127663167D01*
X104384278Y-127927053D01*
X104440000Y-128207186D01*
X104440000Y-128492814D01*
X104384278Y-128772947D01*
X104274973Y-129036833D01*
X104116287Y-129274324D01*
X103914324Y-129476287D01*
X103676833Y-129634973D01*
X103412947Y-129744278D01*
X103132814Y-129800000D01*
X102847186Y-129800000D01*
X102567053Y-129744278D01*
X102303167Y-129634973D01*
X102065676Y-129476287D01*
X101863713Y-129274324D01*
X101705027Y-129036833D01*
X101595722Y-128772947D01*
X101540000Y-128492814D01*
X101540000Y-128207186D01*
X101595722Y-127927053D01*
X101705027Y-127663167D01*
X101863713Y-127425676D01*
X102065676Y-127223713D01*
X102303167Y-127065027D01*
X102567053Y-126955722D01*
X102847186Y-126900000D01*
X103132814Y-126900000D01*
X103412947Y-126955722D01*
X103412947Y-126955722D01*
G37*
G36*
X94402947Y-126955722D02*
X94666833Y-127065027D01*
X94904324Y-127223713D01*
X95106287Y-127425676D01*
X95264973Y-127663167D01*
X95374278Y-127927053D01*
X95430000Y-128207186D01*
X95430000Y-128492814D01*
X95374278Y-128772947D01*
X95264973Y-129036833D01*
X95106287Y-129274324D01*
X94904324Y-129476287D01*
X94666833Y-129634973D01*
X94402947Y-129744278D01*
X94122814Y-129800000D01*
X93837186Y-129800000D01*
X93557053Y-129744278D01*
X93293167Y-129634973D01*
X93055676Y-129476287D01*
X92853713Y-129274324D01*
X92695027Y-129036833D01*
X92585722Y-128772947D01*
X92530000Y-128492814D01*
X92530000Y-128207186D01*
X92585722Y-127927053D01*
X92695027Y-127663167D01*
X92853713Y-127425676D01*
X93055676Y-127223713D01*
X93293167Y-127065027D01*
X93557053Y-126955722D01*
X93837186Y-126900000D01*
X94122814Y-126900000D01*
X94402947Y-126955722D01*
X94402947Y-126955722D01*
G37*
G36*
X61382947Y-126955722D02*
X61646833Y-127065027D01*
X61884324Y-127223713D01*
X62086287Y-127425676D01*
X62244973Y-127663167D01*
X62354278Y-127927053D01*
X62410000Y-128207186D01*
X62410000Y-128492814D01*
X62354278Y-128772947D01*
X62244973Y-129036833D01*
X62086287Y-129274324D01*
X61884324Y-129476287D01*
X61646833Y-129634973D01*
X61382947Y-129744278D01*
X61102814Y-129800000D01*
X60817186Y-129800000D01*
X60537053Y-129744278D01*
X60273167Y-129634973D01*
X60035676Y-129476287D01*
X59833713Y-129274324D01*
X59675027Y-129036833D01*
X59565722Y-128772947D01*
X59510000Y-128492814D01*
X59510000Y-128207186D01*
X59565722Y-127927053D01*
X59675027Y-127663167D01*
X59833713Y-127425676D01*
X60035676Y-127223713D01*
X60273167Y-127065027D01*
X60537053Y-126955722D01*
X60817186Y-126900000D01*
X61102814Y-126900000D01*
X61382947Y-126955722D01*
X61382947Y-126955722D01*
G37*
G36*
X86902947Y-126955722D02*
X87166833Y-127065027D01*
X87404324Y-127223713D01*
X87606287Y-127425676D01*
X87764973Y-127663167D01*
X87874278Y-127927053D01*
X87930000Y-128207186D01*
X87930000Y-128492814D01*
X87874278Y-128772947D01*
X87764973Y-129036833D01*
X87606287Y-129274324D01*
X87404324Y-129476287D01*
X87166833Y-129634973D01*
X86902947Y-129744278D01*
X86622814Y-129800000D01*
X86337186Y-129800000D01*
X86057053Y-129744278D01*
X85793167Y-129634973D01*
X85555676Y-129476287D01*
X85353713Y-129274324D01*
X85195027Y-129036833D01*
X85085722Y-128772947D01*
X85030000Y-128492814D01*
X85030000Y-128207186D01*
X85085722Y-127927053D01*
X85195027Y-127663167D01*
X85353713Y-127425676D01*
X85555676Y-127223713D01*
X85793167Y-127065027D01*
X86057053Y-126955722D01*
X86337186Y-126900000D01*
X86622814Y-126900000D01*
X86902947Y-126955722D01*
X86902947Y-126955722D01*
G37*
G36*
X77892947Y-126955722D02*
X78156833Y-127065027D01*
X78394324Y-127223713D01*
X78596287Y-127425676D01*
X78754973Y-127663167D01*
X78864278Y-127927053D01*
X78920000Y-128207186D01*
X78920000Y-128492814D01*
X78864278Y-128772947D01*
X78754973Y-129036833D01*
X78596287Y-129274324D01*
X78394324Y-129476287D01*
X78156833Y-129634973D01*
X77892947Y-129744278D01*
X77612814Y-129800000D01*
X77327186Y-129800000D01*
X77047053Y-129744278D01*
X76783167Y-129634973D01*
X76545676Y-129476287D01*
X76343713Y-129274324D01*
X76185027Y-129036833D01*
X76075722Y-128772947D01*
X76020000Y-128492814D01*
X76020000Y-128207186D01*
X76075722Y-127927053D01*
X76185027Y-127663167D01*
X76343713Y-127425676D01*
X76545676Y-127223713D01*
X76783167Y-127065027D01*
X77047053Y-126955722D01*
X77327186Y-126900000D01*
X77612814Y-126900000D01*
X77892947Y-126955722D01*
X77892947Y-126955722D01*
G37*
G36*
X202947707Y-124560597D02*
X203024836Y-124568193D01*
X203156787Y-124608220D01*
X203222763Y-124628233D01*
X203405172Y-124725733D01*
X203565054Y-124856946D01*
X203696267Y-125016828D01*
X203793767Y-125199237D01*
X203793767Y-125199238D01*
X203853807Y-125397164D01*
X203874080Y-125603000D01*
X203853807Y-125808836D01*
X203813780Y-125940787D01*
X203793767Y-126006763D01*
X203696267Y-126189172D01*
X203565054Y-126349054D01*
X203405172Y-126480267D01*
X203222763Y-126577767D01*
X203156787Y-126597780D01*
X203024836Y-126637807D01*
X202947707Y-126645403D01*
X202870580Y-126653000D01*
X202767420Y-126653000D01*
X202690293Y-126645403D01*
X202613164Y-126637807D01*
X202481213Y-126597780D01*
X202415237Y-126577767D01*
X202232828Y-126480267D01*
X202072946Y-126349054D01*
X201941733Y-126189172D01*
X201844233Y-126006763D01*
X201824220Y-125940787D01*
X201784193Y-125808836D01*
X201763920Y-125603000D01*
X201784193Y-125397164D01*
X201844233Y-125199238D01*
X201844233Y-125199237D01*
X201941733Y-125016828D01*
X202072946Y-124856946D01*
X202232828Y-124725733D01*
X202415237Y-124628233D01*
X202481213Y-124608220D01*
X202613164Y-124568193D01*
X202690293Y-124560597D01*
X202767420Y-124553000D01*
X202870580Y-124553000D01*
X202947707Y-124560597D01*
X202947707Y-124560597D01*
G37*
G36*
X202947707Y-122020596D02*
X203024836Y-122028193D01*
X203156787Y-122068220D01*
X203222763Y-122088233D01*
X203405172Y-122185733D01*
X203565054Y-122316946D01*
X203696267Y-122476828D01*
X203793767Y-122659237D01*
X203793767Y-122659238D01*
X203853807Y-122857164D01*
X203874080Y-123063000D01*
X203853807Y-123268836D01*
X203813780Y-123400787D01*
X203793767Y-123466763D01*
X203696267Y-123649172D01*
X203565054Y-123809054D01*
X203405172Y-123940267D01*
X203222763Y-124037767D01*
X203156787Y-124057780D01*
X203024836Y-124097807D01*
X202947707Y-124105404D01*
X202870580Y-124113000D01*
X202767420Y-124113000D01*
X202690293Y-124105404D01*
X202613164Y-124097807D01*
X202481213Y-124057780D01*
X202415237Y-124037767D01*
X202232828Y-123940267D01*
X202072946Y-123809054D01*
X201941733Y-123649172D01*
X201844233Y-123466763D01*
X201824220Y-123400787D01*
X201784193Y-123268836D01*
X201763920Y-123063000D01*
X201784193Y-122857164D01*
X201844233Y-122659238D01*
X201844233Y-122659237D01*
X201941733Y-122476828D01*
X202072946Y-122316946D01*
X202232828Y-122185733D01*
X202415237Y-122088233D01*
X202481213Y-122068220D01*
X202613164Y-122028193D01*
X202690293Y-122020596D01*
X202767420Y-122013000D01*
X202870580Y-122013000D01*
X202947707Y-122020596D01*
X202947707Y-122020596D01*
G37*
G36*
X167141391Y-118705735D02*
X167243786Y-118726103D01*
X167363643Y-118775750D01*
X167533146Y-118845960D01*
X167793569Y-119019969D01*
X168015031Y-119241431D01*
X168189040Y-119501854D01*
X168308897Y-119791215D01*
X168357402Y-120035064D01*
X168364515Y-120058514D01*
X168376066Y-120080124D01*
X168391612Y-120099066D01*
X168410554Y-120114612D01*
X168432165Y-120126163D01*
X168455614Y-120133276D01*
X168480000Y-120135678D01*
X168504386Y-120133276D01*
X168527836Y-120126163D01*
X168549446Y-120114612D01*
X168568388Y-120099066D01*
X168583934Y-120080124D01*
X168595485Y-120058513D01*
X168602598Y-120035064D01*
X168651103Y-119791215D01*
X168770960Y-119501854D01*
X168944969Y-119241431D01*
X169166431Y-119019969D01*
X169426854Y-118845960D01*
X169596357Y-118775750D01*
X169716214Y-118726103D01*
X169818609Y-118705735D01*
X170023397Y-118665000D01*
X170336603Y-118665000D01*
X170541391Y-118705735D01*
X170643786Y-118726103D01*
X170763643Y-118775750D01*
X170933146Y-118845960D01*
X171193569Y-119019969D01*
X171415031Y-119241431D01*
X171589040Y-119501854D01*
X171708897Y-119791215D01*
X171770000Y-120098397D01*
X171770000Y-120411603D01*
X171708897Y-120718785D01*
X171589040Y-121008146D01*
X171415031Y-121268569D01*
X171193569Y-121490031D01*
X170933146Y-121664040D01*
X170763643Y-121734250D01*
X170643786Y-121783897D01*
X170541391Y-121804265D01*
X170336603Y-121845000D01*
X170023397Y-121845000D01*
X169818609Y-121804265D01*
X169716214Y-121783897D01*
X169596357Y-121734250D01*
X169426854Y-121664040D01*
X169166431Y-121490031D01*
X168944969Y-121268569D01*
X168770960Y-121008146D01*
X168651103Y-120718785D01*
X168602598Y-120474936D01*
X168595485Y-120451486D01*
X168583934Y-120429876D01*
X168568388Y-120410934D01*
X168549446Y-120395388D01*
X168527835Y-120383837D01*
X168504386Y-120376724D01*
X168480000Y-120374322D01*
X168455614Y-120376724D01*
X168432164Y-120383837D01*
X168410554Y-120395388D01*
X168391612Y-120410934D01*
X168376066Y-120429876D01*
X168364515Y-120451487D01*
X168357402Y-120474936D01*
X168308897Y-120718785D01*
X168189040Y-121008146D01*
X168015031Y-121268569D01*
X167793569Y-121490031D01*
X167533146Y-121664040D01*
X167363643Y-121734250D01*
X167243786Y-121783897D01*
X167141391Y-121804265D01*
X166936603Y-121845000D01*
X166623397Y-121845000D01*
X166418609Y-121804265D01*
X166316214Y-121783897D01*
X166196357Y-121734250D01*
X166026854Y-121664040D01*
X165766431Y-121490031D01*
X165544969Y-121268569D01*
X165370960Y-121008146D01*
X165251103Y-120718785D01*
X165190000Y-120411603D01*
X165190000Y-120098397D01*
X165251103Y-119791215D01*
X165370960Y-119501854D01*
X165544969Y-119241431D01*
X165766431Y-119019969D01*
X166026854Y-118845960D01*
X166196357Y-118775750D01*
X166316214Y-118726103D01*
X166418609Y-118705735D01*
X166623397Y-118665000D01*
X166936603Y-118665000D01*
X167141391Y-118705735D01*
X167141391Y-118705735D01*
G37*
G36*
X203869000Y-121573000D02*
X201769000Y-121573000D01*
X201769000Y-119473000D01*
X203869000Y-119473000D01*
X203869000Y-121573000D01*
X203869000Y-121573000D01*
G37*
G36*
X202947707Y-113384596D02*
X203024836Y-113392193D01*
X203156787Y-113432220D01*
X203222763Y-113452233D01*
X203405172Y-113549733D01*
X203565054Y-113680946D01*
X203696267Y-113840828D01*
X203793767Y-114023237D01*
X203793767Y-114023238D01*
X203853807Y-114221164D01*
X203874080Y-114427000D01*
X203853807Y-114632836D01*
X203813780Y-114764787D01*
X203793767Y-114830763D01*
X203696267Y-115013172D01*
X203565054Y-115173054D01*
X203405172Y-115304267D01*
X203222763Y-115401767D01*
X203156787Y-115421780D01*
X203024836Y-115461807D01*
X202947707Y-115469404D01*
X202870580Y-115477000D01*
X202767420Y-115477000D01*
X202690293Y-115469404D01*
X202613164Y-115461807D01*
X202481213Y-115421780D01*
X202415237Y-115401767D01*
X202232828Y-115304267D01*
X202072946Y-115173054D01*
X201941733Y-115013172D01*
X201844233Y-114830763D01*
X201824220Y-114764787D01*
X201784193Y-114632836D01*
X201763920Y-114427000D01*
X201784193Y-114221164D01*
X201844233Y-114023238D01*
X201844233Y-114023237D01*
X201941733Y-113840828D01*
X202072946Y-113680946D01*
X202232828Y-113549733D01*
X202415237Y-113452233D01*
X202481213Y-113432220D01*
X202613164Y-113392193D01*
X202690293Y-113384596D01*
X202767420Y-113377000D01*
X202870580Y-113377000D01*
X202947707Y-113384596D01*
X202947707Y-113384596D01*
G37*
G36*
X202947707Y-110844596D02*
X203024836Y-110852193D01*
X203156787Y-110892220D01*
X203222763Y-110912233D01*
X203405172Y-111009733D01*
X203565054Y-111140946D01*
X203696267Y-111300828D01*
X203793767Y-111483237D01*
X203793767Y-111483238D01*
X203853807Y-111681164D01*
X203874080Y-111887000D01*
X203853807Y-112092836D01*
X203813780Y-112224787D01*
X203793767Y-112290763D01*
X203696267Y-112473172D01*
X203565054Y-112633054D01*
X203405172Y-112764267D01*
X203222763Y-112861767D01*
X203156787Y-112881780D01*
X203024836Y-112921807D01*
X202947707Y-112929403D01*
X202870580Y-112937000D01*
X202767420Y-112937000D01*
X202690293Y-112929403D01*
X202613164Y-112921807D01*
X202481213Y-112881780D01*
X202415237Y-112861767D01*
X202232828Y-112764267D01*
X202072946Y-112633054D01*
X201941733Y-112473172D01*
X201844233Y-112290763D01*
X201824220Y-112224787D01*
X201784193Y-112092836D01*
X201763920Y-111887000D01*
X201784193Y-111681164D01*
X201844233Y-111483238D01*
X201844233Y-111483237D01*
X201941733Y-111300828D01*
X202072946Y-111140946D01*
X202232828Y-111009733D01*
X202415237Y-110912233D01*
X202481213Y-110892220D01*
X202613164Y-110852193D01*
X202690293Y-110844596D01*
X202767420Y-110837000D01*
X202870580Y-110837000D01*
X202947707Y-110844596D01*
X202947707Y-110844596D01*
G37*
G36*
X203869000Y-110397000D02*
X201769000Y-110397000D01*
X201769000Y-108297000D01*
X203869000Y-108297000D01*
X203869000Y-110397000D01*
X203869000Y-110397000D01*
G37*
G36*
X103412947Y-106955722D02*
X103676833Y-107065027D01*
X103914324Y-107223713D01*
X104116287Y-107425676D01*
X104274973Y-107663167D01*
X104384278Y-107927053D01*
X104440000Y-108207186D01*
X104440000Y-108492814D01*
X104384278Y-108772947D01*
X104274973Y-109036833D01*
X104116287Y-109274324D01*
X103914324Y-109476287D01*
X103676833Y-109634973D01*
X103412947Y-109744278D01*
X103132814Y-109800000D01*
X102847186Y-109800000D01*
X102567053Y-109744278D01*
X102303167Y-109634973D01*
X102065676Y-109476287D01*
X101863713Y-109274324D01*
X101705027Y-109036833D01*
X101595722Y-108772947D01*
X101540000Y-108492814D01*
X101540000Y-108207186D01*
X101595722Y-107927053D01*
X101705027Y-107663167D01*
X101863713Y-107425676D01*
X102065676Y-107223713D01*
X102303167Y-107065027D01*
X102567053Y-106955722D01*
X102847186Y-106900000D01*
X103132814Y-106900000D01*
X103412947Y-106955722D01*
X103412947Y-106955722D01*
G37*
G36*
X144447947Y-106955722D02*
X144711833Y-107065027D01*
X144949324Y-107223713D01*
X145151287Y-107425676D01*
X145309973Y-107663167D01*
X145419278Y-107927053D01*
X145475000Y-108207186D01*
X145475000Y-108492814D01*
X145419278Y-108772947D01*
X145309973Y-109036833D01*
X145151287Y-109274324D01*
X144949324Y-109476287D01*
X144711833Y-109634973D01*
X144447947Y-109744278D01*
X144167814Y-109800000D01*
X143882186Y-109800000D01*
X143602053Y-109744278D01*
X143338167Y-109634973D01*
X143100676Y-109476287D01*
X142898713Y-109274324D01*
X142740027Y-109036833D01*
X142630722Y-108772947D01*
X142575000Y-108492814D01*
X142575000Y-108207186D01*
X142630722Y-107927053D01*
X142740027Y-107663167D01*
X142898713Y-107425676D01*
X143100676Y-107223713D01*
X143338167Y-107065027D01*
X143602053Y-106955722D01*
X143882186Y-106900000D01*
X144167814Y-106900000D01*
X144447947Y-106955722D01*
X144447947Y-106955722D01*
G37*
G36*
X136947947Y-106955722D02*
X137211833Y-107065027D01*
X137449324Y-107223713D01*
X137651287Y-107425676D01*
X137809973Y-107663167D01*
X137919278Y-107927053D01*
X137975000Y-108207186D01*
X137975000Y-108492814D01*
X137919278Y-108772947D01*
X137809973Y-109036833D01*
X137651287Y-109274324D01*
X137449324Y-109476287D01*
X137211833Y-109634973D01*
X136947947Y-109744278D01*
X136667814Y-109800000D01*
X136382186Y-109800000D01*
X136102053Y-109744278D01*
X135838167Y-109634973D01*
X135600676Y-109476287D01*
X135398713Y-109274324D01*
X135240027Y-109036833D01*
X135130722Y-108772947D01*
X135075000Y-108492814D01*
X135075000Y-108207186D01*
X135130722Y-107927053D01*
X135240027Y-107663167D01*
X135398713Y-107425676D01*
X135600676Y-107223713D01*
X135838167Y-107065027D01*
X136102053Y-106955722D01*
X136382186Y-106900000D01*
X136667814Y-106900000D01*
X136947947Y-106955722D01*
X136947947Y-106955722D01*
G37*
G36*
X127676947Y-106955722D02*
X127940833Y-107065027D01*
X128178324Y-107223713D01*
X128380287Y-107425676D01*
X128538973Y-107663167D01*
X128648278Y-107927053D01*
X128704000Y-108207186D01*
X128704000Y-108492814D01*
X128648278Y-108772947D01*
X128538973Y-109036833D01*
X128380287Y-109274324D01*
X128178324Y-109476287D01*
X127940833Y-109634973D01*
X127676947Y-109744278D01*
X127396814Y-109800000D01*
X127111186Y-109800000D01*
X126831053Y-109744278D01*
X126567167Y-109634973D01*
X126329676Y-109476287D01*
X126127713Y-109274324D01*
X125969027Y-109036833D01*
X125859722Y-108772947D01*
X125804000Y-108492814D01*
X125804000Y-108207186D01*
X125859722Y-107927053D01*
X125969027Y-107663167D01*
X126127713Y-107425676D01*
X126329676Y-107223713D01*
X126567167Y-107065027D01*
X126831053Y-106955722D01*
X127111186Y-106900000D01*
X127396814Y-106900000D01*
X127676947Y-106955722D01*
X127676947Y-106955722D01*
G37*
G36*
X120176947Y-106955722D02*
X120440833Y-107065027D01*
X120678324Y-107223713D01*
X120880287Y-107425676D01*
X121038973Y-107663167D01*
X121148278Y-107927053D01*
X121204000Y-108207186D01*
X121204000Y-108492814D01*
X121148278Y-108772947D01*
X121038973Y-109036833D01*
X120880287Y-109274324D01*
X120678324Y-109476287D01*
X120440833Y-109634973D01*
X120176947Y-109744278D01*
X119896814Y-109800000D01*
X119611186Y-109800000D01*
X119331053Y-109744278D01*
X119067167Y-109634973D01*
X118829676Y-109476287D01*
X118627713Y-109274324D01*
X118469027Y-109036833D01*
X118359722Y-108772947D01*
X118304000Y-108492814D01*
X118304000Y-108207186D01*
X118359722Y-107927053D01*
X118469027Y-107663167D01*
X118627713Y-107425676D01*
X118829676Y-107223713D01*
X119067167Y-107065027D01*
X119331053Y-106955722D01*
X119611186Y-106900000D01*
X119896814Y-106900000D01*
X120176947Y-106955722D01*
X120176947Y-106955722D01*
G37*
G36*
X70392947Y-106955722D02*
X70656833Y-107065027D01*
X70894324Y-107223713D01*
X71096287Y-107425676D01*
X71254973Y-107663167D01*
X71364278Y-107927053D01*
X71420000Y-108207186D01*
X71420000Y-108492814D01*
X71364278Y-108772947D01*
X71254973Y-109036833D01*
X71096287Y-109274324D01*
X70894324Y-109476287D01*
X70656833Y-109634973D01*
X70392947Y-109744278D01*
X70112814Y-109800000D01*
X69827186Y-109800000D01*
X69547053Y-109744278D01*
X69283167Y-109634973D01*
X69045676Y-109476287D01*
X68843713Y-109274324D01*
X68685027Y-109036833D01*
X68575722Y-108772947D01*
X68520000Y-108492814D01*
X68520000Y-108207186D01*
X68575722Y-107927053D01*
X68685027Y-107663167D01*
X68843713Y-107425676D01*
X69045676Y-107223713D01*
X69283167Y-107065027D01*
X69547053Y-106955722D01*
X69827186Y-106900000D01*
X70112814Y-106900000D01*
X70392947Y-106955722D01*
X70392947Y-106955722D01*
G37*
G36*
X61382947Y-106955722D02*
X61646833Y-107065027D01*
X61884324Y-107223713D01*
X62086287Y-107425676D01*
X62244973Y-107663167D01*
X62354278Y-107927053D01*
X62410000Y-108207186D01*
X62410000Y-108492814D01*
X62354278Y-108772947D01*
X62244973Y-109036833D01*
X62086287Y-109274324D01*
X61884324Y-109476287D01*
X61646833Y-109634973D01*
X61382947Y-109744278D01*
X61102814Y-109800000D01*
X60817186Y-109800000D01*
X60537053Y-109744278D01*
X60273167Y-109634973D01*
X60035676Y-109476287D01*
X59833713Y-109274324D01*
X59675027Y-109036833D01*
X59565722Y-108772947D01*
X59510000Y-108492814D01*
X59510000Y-108207186D01*
X59565722Y-107927053D01*
X59675027Y-107663167D01*
X59833713Y-107425676D01*
X60035676Y-107223713D01*
X60273167Y-107065027D01*
X60537053Y-106955722D01*
X60817186Y-106900000D01*
X61102814Y-106900000D01*
X61382947Y-106955722D01*
X61382947Y-106955722D01*
G37*
G36*
X110912947Y-106955722D02*
X111176833Y-107065027D01*
X111414324Y-107223713D01*
X111616287Y-107425676D01*
X111774973Y-107663167D01*
X111884278Y-107927053D01*
X111940000Y-108207186D01*
X111940000Y-108492814D01*
X111884278Y-108772947D01*
X111774973Y-109036833D01*
X111616287Y-109274324D01*
X111414324Y-109476287D01*
X111176833Y-109634973D01*
X110912947Y-109744278D01*
X110632814Y-109800000D01*
X110347186Y-109800000D01*
X110067053Y-109744278D01*
X109803167Y-109634973D01*
X109565676Y-109476287D01*
X109363713Y-109274324D01*
X109205027Y-109036833D01*
X109095722Y-108772947D01*
X109040000Y-108492814D01*
X109040000Y-108207186D01*
X109095722Y-107927053D01*
X109205027Y-107663167D01*
X109363713Y-107425676D01*
X109565676Y-107223713D01*
X109803167Y-107065027D01*
X110067053Y-106955722D01*
X110347186Y-106900000D01*
X110632814Y-106900000D01*
X110912947Y-106955722D01*
X110912947Y-106955722D01*
G37*
G36*
X53882947Y-106955722D02*
X54146833Y-107065027D01*
X54384324Y-107223713D01*
X54586287Y-107425676D01*
X54744973Y-107663167D01*
X54854278Y-107927053D01*
X54910000Y-108207186D01*
X54910000Y-108492814D01*
X54854278Y-108772947D01*
X54744973Y-109036833D01*
X54586287Y-109274324D01*
X54384324Y-109476287D01*
X54146833Y-109634973D01*
X53882947Y-109744278D01*
X53602814Y-109800000D01*
X53317186Y-109800000D01*
X53037053Y-109744278D01*
X52773167Y-109634973D01*
X52535676Y-109476287D01*
X52333713Y-109274324D01*
X52175027Y-109036833D01*
X52065722Y-108772947D01*
X52010000Y-108492814D01*
X52010000Y-108207186D01*
X52065722Y-107927053D01*
X52175027Y-107663167D01*
X52333713Y-107425676D01*
X52535676Y-107223713D01*
X52773167Y-107065027D01*
X53037053Y-106955722D01*
X53317186Y-106900000D01*
X53602814Y-106900000D01*
X53882947Y-106955722D01*
X53882947Y-106955722D01*
G37*
G36*
X86902947Y-106955722D02*
X87166833Y-107065027D01*
X87404324Y-107223713D01*
X87606287Y-107425676D01*
X87764973Y-107663167D01*
X87874278Y-107927053D01*
X87930000Y-108207186D01*
X87930000Y-108492814D01*
X87874278Y-108772947D01*
X87764973Y-109036833D01*
X87606287Y-109274324D01*
X87404324Y-109476287D01*
X87166833Y-109634973D01*
X86902947Y-109744278D01*
X86622814Y-109800000D01*
X86337186Y-109800000D01*
X86057053Y-109744278D01*
X85793167Y-109634973D01*
X85555676Y-109476287D01*
X85353713Y-109274324D01*
X85195027Y-109036833D01*
X85085722Y-108772947D01*
X85030000Y-108492814D01*
X85030000Y-108207186D01*
X85085722Y-107927053D01*
X85195027Y-107663167D01*
X85353713Y-107425676D01*
X85555676Y-107223713D01*
X85793167Y-107065027D01*
X86057053Y-106955722D01*
X86337186Y-106900000D01*
X86622814Y-106900000D01*
X86902947Y-106955722D01*
X86902947Y-106955722D01*
G37*
G36*
X94402947Y-106955722D02*
X94666833Y-107065027D01*
X94904324Y-107223713D01*
X95106287Y-107425676D01*
X95264973Y-107663167D01*
X95374278Y-107927053D01*
X95430000Y-108207186D01*
X95430000Y-108492814D01*
X95374278Y-108772947D01*
X95264973Y-109036833D01*
X95106287Y-109274324D01*
X94904324Y-109476287D01*
X94666833Y-109634973D01*
X94402947Y-109744278D01*
X94122814Y-109800000D01*
X93837186Y-109800000D01*
X93557053Y-109744278D01*
X93293167Y-109634973D01*
X93055676Y-109476287D01*
X92853713Y-109274324D01*
X92695027Y-109036833D01*
X92585722Y-108772947D01*
X92530000Y-108492814D01*
X92530000Y-108207186D01*
X92585722Y-107927053D01*
X92695027Y-107663167D01*
X92853713Y-107425676D01*
X93055676Y-107223713D01*
X93293167Y-107065027D01*
X93557053Y-106955722D01*
X93837186Y-106900000D01*
X94122814Y-106900000D01*
X94402947Y-106955722D01*
X94402947Y-106955722D01*
G37*
G36*
X77892947Y-106955722D02*
X78156833Y-107065027D01*
X78394324Y-107223713D01*
X78596287Y-107425676D01*
X78754973Y-107663167D01*
X78864278Y-107927053D01*
X78920000Y-108207186D01*
X78920000Y-108492814D01*
X78864278Y-108772947D01*
X78754973Y-109036833D01*
X78596287Y-109274324D01*
X78394324Y-109476287D01*
X78156833Y-109634973D01*
X77892947Y-109744278D01*
X77612814Y-109800000D01*
X77327186Y-109800000D01*
X77047053Y-109744278D01*
X76783167Y-109634973D01*
X76545676Y-109476287D01*
X76343713Y-109274324D01*
X76185027Y-109036833D01*
X76075722Y-108772947D01*
X76020000Y-108492814D01*
X76020000Y-108207186D01*
X76075722Y-107927053D01*
X76185027Y-107663167D01*
X76343713Y-107425676D01*
X76545676Y-107223713D01*
X76783167Y-107065027D01*
X77047053Y-106955722D01*
X77327186Y-106900000D01*
X77612814Y-106900000D01*
X77892947Y-106955722D01*
X77892947Y-106955722D01*
G37*
G36*
X202947707Y-102081596D02*
X203024836Y-102089193D01*
X203156787Y-102129220D01*
X203222763Y-102149233D01*
X203405172Y-102246733D01*
X203565054Y-102377946D01*
X203696267Y-102537828D01*
X203793767Y-102720237D01*
X203793767Y-102720238D01*
X203853807Y-102918164D01*
X203874080Y-103124000D01*
X203853807Y-103329836D01*
X203813780Y-103461787D01*
X203793767Y-103527763D01*
X203696267Y-103710172D01*
X203565054Y-103870054D01*
X203405172Y-104001267D01*
X203222763Y-104098767D01*
X203156787Y-104118780D01*
X203024836Y-104158807D01*
X202947707Y-104166403D01*
X202870580Y-104174000D01*
X202767420Y-104174000D01*
X202690293Y-104166403D01*
X202613164Y-104158807D01*
X202481213Y-104118780D01*
X202415237Y-104098767D01*
X202232828Y-104001267D01*
X202072946Y-103870054D01*
X201941733Y-103710172D01*
X201844233Y-103527763D01*
X201824220Y-103461787D01*
X201784193Y-103329836D01*
X201763920Y-103124000D01*
X201784193Y-102918164D01*
X201844233Y-102720238D01*
X201844233Y-102720237D01*
X201941733Y-102537828D01*
X202072946Y-102377946D01*
X202232828Y-102246733D01*
X202415237Y-102149233D01*
X202481213Y-102129220D01*
X202613164Y-102089193D01*
X202690293Y-102081597D01*
X202767420Y-102074000D01*
X202870580Y-102074000D01*
X202947707Y-102081596D01*
X202947707Y-102081596D01*
G37*
G36*
X124291703Y-98791486D02*
X124582883Y-98912097D01*
X124844944Y-99087201D01*
X125067799Y-99310056D01*
X125242903Y-99572117D01*
X125363514Y-99863297D01*
X125425000Y-100172412D01*
X125425000Y-100487588D01*
X125363514Y-100796703D01*
X125242903Y-101087883D01*
X125067799Y-101349944D01*
X124844944Y-101572799D01*
X124582883Y-101747903D01*
X124291703Y-101868514D01*
X123982588Y-101930000D01*
X123667412Y-101930000D01*
X123358297Y-101868514D01*
X123067117Y-101747903D01*
X122805056Y-101572799D01*
X122582201Y-101349944D01*
X122407097Y-101087883D01*
X122286486Y-100796703D01*
X122225000Y-100487588D01*
X122225000Y-100172412D01*
X122286486Y-99863297D01*
X122407097Y-99572117D01*
X122582201Y-99310056D01*
X122805056Y-99087201D01*
X123067117Y-98912097D01*
X123358297Y-98791486D01*
X123667412Y-98730000D01*
X123982588Y-98730000D01*
X124291703Y-98791486D01*
X124291703Y-98791486D01*
G37*
G36*
X89123026Y-99430115D02*
X89341412Y-99520573D01*
X89537958Y-99651901D01*
X89705099Y-99819042D01*
X89836427Y-100015588D01*
X89926885Y-100233974D01*
X89973000Y-100465809D01*
X89973000Y-100702191D01*
X89926885Y-100934026D01*
X89836427Y-101152412D01*
X89705099Y-101348958D01*
X89537958Y-101516099D01*
X89341412Y-101647427D01*
X89123026Y-101737885D01*
X88891191Y-101784000D01*
X88654809Y-101784000D01*
X88422974Y-101737885D01*
X88204588Y-101647427D01*
X88008042Y-101516099D01*
X87840901Y-101348958D01*
X87709573Y-101152412D01*
X87619115Y-100934026D01*
X87573000Y-100702191D01*
X87573000Y-100465809D01*
X87619115Y-100233974D01*
X87709573Y-100015588D01*
X87840901Y-99819042D01*
X88008042Y-99651901D01*
X88204588Y-99520573D01*
X88422974Y-99430115D01*
X88654809Y-99384000D01*
X88891191Y-99384000D01*
X89123026Y-99430115D01*
X89123026Y-99430115D01*
G37*
G36*
X59493000Y-101784000D02*
X57093000Y-101784000D01*
X57093000Y-99384000D01*
X59493000Y-99384000D01*
X59493000Y-101784000D01*
X59493000Y-101784000D01*
G37*
G36*
X63723026Y-99430115D02*
X63941412Y-99520573D01*
X64137958Y-99651901D01*
X64305099Y-99819042D01*
X64436427Y-100015588D01*
X64526885Y-100233974D01*
X64573000Y-100465809D01*
X64573000Y-100702191D01*
X64526885Y-100934026D01*
X64436427Y-101152412D01*
X64305099Y-101348958D01*
X64137958Y-101516099D01*
X63941412Y-101647427D01*
X63723026Y-101737885D01*
X63491191Y-101784000D01*
X63254809Y-101784000D01*
X63022974Y-101737885D01*
X62804588Y-101647427D01*
X62608042Y-101516099D01*
X62440901Y-101348958D01*
X62309573Y-101152412D01*
X62219115Y-100934026D01*
X62173000Y-100702191D01*
X62173000Y-100465809D01*
X62219115Y-100233974D01*
X62309573Y-100015588D01*
X62440901Y-99819042D01*
X62608042Y-99651901D01*
X62804588Y-99520573D01*
X63022974Y-99430115D01*
X63254809Y-99384000D01*
X63491191Y-99384000D01*
X63723026Y-99430115D01*
X63723026Y-99430115D01*
G37*
G36*
X202947707Y-99541596D02*
X203024836Y-99549193D01*
X203156787Y-99589220D01*
X203222763Y-99609233D01*
X203405172Y-99706733D01*
X203565054Y-99837946D01*
X203696267Y-99997828D01*
X203793767Y-100180237D01*
X203793767Y-100180238D01*
X203853807Y-100378164D01*
X203874080Y-100584000D01*
X203853807Y-100789836D01*
X203813780Y-100921787D01*
X203793767Y-100987763D01*
X203696267Y-101170172D01*
X203565054Y-101330054D01*
X203405172Y-101461267D01*
X203222763Y-101558767D01*
X203176505Y-101572799D01*
X203024836Y-101618807D01*
X202947707Y-101626404D01*
X202870580Y-101634000D01*
X202767420Y-101634000D01*
X202690293Y-101626404D01*
X202613164Y-101618807D01*
X202461495Y-101572799D01*
X202415237Y-101558767D01*
X202232828Y-101461267D01*
X202072946Y-101330054D01*
X201941733Y-101170172D01*
X201844233Y-100987763D01*
X201824220Y-100921787D01*
X201784193Y-100789836D01*
X201763920Y-100584000D01*
X201784193Y-100378164D01*
X201844233Y-100180238D01*
X201844233Y-100180237D01*
X201941733Y-99997828D01*
X202072946Y-99837946D01*
X202232828Y-99706733D01*
X202415237Y-99609233D01*
X202481213Y-99589220D01*
X202613164Y-99549193D01*
X202690293Y-99541596D01*
X202767420Y-99534000D01*
X202870580Y-99534000D01*
X202947707Y-99541596D01*
X202947707Y-99541596D01*
G37*
G36*
X50125857Y-98517272D02*
X50326042Y-98600191D01*
X50506213Y-98720578D01*
X50659422Y-98873787D01*
X50659424Y-98873790D01*
X50659425Y-98873791D01*
X50756295Y-99018767D01*
X50779809Y-99053958D01*
X50862728Y-99254143D01*
X50905000Y-99466658D01*
X50905000Y-99683342D01*
X50862728Y-99895857D01*
X50779809Y-100096042D01*
X50779807Y-100096045D01*
X50687646Y-100233974D01*
X50659422Y-100276213D01*
X50506213Y-100429422D01*
X50506210Y-100429424D01*
X50506209Y-100429425D01*
X50451755Y-100465810D01*
X50326042Y-100549809D01*
X50125857Y-100632728D01*
X49913342Y-100675000D01*
X49696658Y-100675000D01*
X49484143Y-100632728D01*
X49283958Y-100549809D01*
X49158245Y-100465810D01*
X49103791Y-100429425D01*
X49103790Y-100429424D01*
X49103787Y-100429422D01*
X48950578Y-100276213D01*
X48922355Y-100233974D01*
X48830193Y-100096045D01*
X48830191Y-100096042D01*
X48747272Y-99895857D01*
X48705000Y-99683342D01*
X48705000Y-99466658D01*
X48747272Y-99254143D01*
X48830191Y-99053958D01*
X48853705Y-99018767D01*
X48950575Y-98873791D01*
X48950576Y-98873790D01*
X48950578Y-98873787D01*
X49103787Y-98720578D01*
X49283958Y-98600191D01*
X49484143Y-98517272D01*
X49696658Y-98475000D01*
X49913342Y-98475000D01*
X50125857Y-98517272D01*
X50125857Y-98517272D01*
G37*
G36*
X202947707Y-97001597D02*
X203024836Y-97009193D01*
X203156787Y-97049220D01*
X203222763Y-97069233D01*
X203405172Y-97166733D01*
X203565054Y-97297946D01*
X203696267Y-97457828D01*
X203793767Y-97640237D01*
X203793767Y-97640238D01*
X203853807Y-97838164D01*
X203874080Y-98044000D01*
X203853807Y-98249836D01*
X203813780Y-98381787D01*
X203793767Y-98447763D01*
X203696267Y-98630172D01*
X203565054Y-98790054D01*
X203405172Y-98921267D01*
X203222763Y-99018767D01*
X203156787Y-99038780D01*
X203024836Y-99078807D01*
X202947707Y-99086403D01*
X202870580Y-99094000D01*
X202767420Y-99094000D01*
X202690293Y-99086404D01*
X202613164Y-99078807D01*
X202481213Y-99038780D01*
X202415237Y-99018767D01*
X202232828Y-98921267D01*
X202072946Y-98790054D01*
X201941733Y-98630172D01*
X201844233Y-98447763D01*
X201824220Y-98381787D01*
X201784193Y-98249836D01*
X201763920Y-98044000D01*
X201784193Y-97838164D01*
X201844233Y-97640238D01*
X201844233Y-97640237D01*
X201941733Y-97457828D01*
X202072946Y-97297946D01*
X202232828Y-97166733D01*
X202415237Y-97069233D01*
X202481213Y-97049220D01*
X202613164Y-97009193D01*
X202690293Y-97001597D01*
X202767420Y-96994000D01*
X202870580Y-96994000D01*
X202947707Y-97001597D01*
X202947707Y-97001597D01*
G37*
G36*
X195708707Y-96620597D02*
X195785836Y-96628193D01*
X195917787Y-96668220D01*
X195983763Y-96688233D01*
X196166172Y-96785733D01*
X196326054Y-96916946D01*
X196457267Y-97076828D01*
X196554767Y-97259237D01*
X196554767Y-97259238D01*
X196614807Y-97457164D01*
X196635080Y-97663000D01*
X196614807Y-97868836D01*
X196574780Y-98000787D01*
X196554767Y-98066763D01*
X196457267Y-98249172D01*
X196326054Y-98409054D01*
X196166172Y-98540267D01*
X195983763Y-98637767D01*
X195917787Y-98657780D01*
X195785836Y-98697807D01*
X195708707Y-98705404D01*
X195631580Y-98713000D01*
X195528420Y-98713000D01*
X195451293Y-98705404D01*
X195374164Y-98697807D01*
X195242213Y-98657780D01*
X195176237Y-98637767D01*
X194993828Y-98540267D01*
X194833946Y-98409054D01*
X194702733Y-98249172D01*
X194605233Y-98066763D01*
X194585220Y-98000787D01*
X194545193Y-97868836D01*
X194524920Y-97663000D01*
X194545193Y-97457164D01*
X194605233Y-97259238D01*
X194605233Y-97259237D01*
X194702733Y-97076828D01*
X194833946Y-96916946D01*
X194993828Y-96785733D01*
X195176237Y-96688233D01*
X195242213Y-96668220D01*
X195374164Y-96628193D01*
X195451293Y-96620597D01*
X195528420Y-96613000D01*
X195631580Y-96613000D01*
X195708707Y-96620597D01*
X195708707Y-96620597D01*
G37*
G36*
X124291703Y-94346486D02*
X124582883Y-94467097D01*
X124844944Y-94642201D01*
X125067799Y-94865056D01*
X125242903Y-95127117D01*
X125363514Y-95418297D01*
X125425000Y-95727412D01*
X125425000Y-96042588D01*
X125363514Y-96351703D01*
X125242903Y-96642883D01*
X125067799Y-96904944D01*
X124844944Y-97127799D01*
X124582883Y-97302903D01*
X124291703Y-97423514D01*
X123982588Y-97485000D01*
X123667412Y-97485000D01*
X123358297Y-97423514D01*
X123067117Y-97302903D01*
X122805056Y-97127799D01*
X122582201Y-96904944D01*
X122407097Y-96642883D01*
X122286486Y-96351703D01*
X122225000Y-96042588D01*
X122225000Y-95727412D01*
X122286486Y-95418297D01*
X122407097Y-95127117D01*
X122582201Y-94865056D01*
X122805056Y-94642201D01*
X123067117Y-94467097D01*
X123358297Y-94346486D01*
X123667412Y-94285000D01*
X123982588Y-94285000D01*
X124291703Y-94346486D01*
X124291703Y-94346486D01*
G37*
G36*
X202947707Y-94461596D02*
X203024836Y-94469193D01*
X203156787Y-94509220D01*
X203222763Y-94529233D01*
X203405172Y-94626733D01*
X203565054Y-94757946D01*
X203696267Y-94917828D01*
X203793767Y-95100237D01*
X203801921Y-95127117D01*
X203853807Y-95298164D01*
X203874080Y-95504000D01*
X203853807Y-95709836D01*
X203813780Y-95841787D01*
X203793767Y-95907763D01*
X203696267Y-96090172D01*
X203565054Y-96250054D01*
X203405172Y-96381267D01*
X203222763Y-96478767D01*
X203156787Y-96498780D01*
X203024836Y-96538807D01*
X202947707Y-96546403D01*
X202870580Y-96554000D01*
X202767420Y-96554000D01*
X202690293Y-96546403D01*
X202613164Y-96538807D01*
X202481213Y-96498780D01*
X202415237Y-96478767D01*
X202232828Y-96381267D01*
X202072946Y-96250054D01*
X201941733Y-96090172D01*
X201844233Y-95907763D01*
X201824220Y-95841787D01*
X201784193Y-95709836D01*
X201763920Y-95504000D01*
X201784193Y-95298164D01*
X201836079Y-95127117D01*
X201844233Y-95100237D01*
X201941733Y-94917828D01*
X202072946Y-94757946D01*
X202232828Y-94626733D01*
X202415237Y-94529233D01*
X202481213Y-94509220D01*
X202613164Y-94469193D01*
X202690293Y-94461596D01*
X202767420Y-94454000D01*
X202870580Y-94454000D01*
X202947707Y-94461596D01*
X202947707Y-94461596D01*
G37*
G36*
X196630000Y-96173000D02*
X194530000Y-96173000D01*
X194530000Y-94073000D01*
X196630000Y-94073000D01*
X196630000Y-96173000D01*
X196630000Y-96173000D01*
G37*
G36*
X202947707Y-91921597D02*
X203024836Y-91929193D01*
X203148342Y-91966658D01*
X203222763Y-91989233D01*
X203405172Y-92086733D01*
X203565054Y-92217946D01*
X203696267Y-92377828D01*
X203793767Y-92560237D01*
X203793767Y-92560238D01*
X203853807Y-92758164D01*
X203874080Y-92964000D01*
X203853807Y-93169836D01*
X203813780Y-93301787D01*
X203793767Y-93367763D01*
X203696267Y-93550172D01*
X203565054Y-93710054D01*
X203405172Y-93841267D01*
X203222763Y-93938767D01*
X203156787Y-93958780D01*
X203024836Y-93998807D01*
X202947707Y-94006403D01*
X202870580Y-94014000D01*
X202767420Y-94014000D01*
X202690293Y-94006404D01*
X202613164Y-93998807D01*
X202481213Y-93958780D01*
X202415237Y-93938767D01*
X202232828Y-93841267D01*
X202072946Y-93710054D01*
X201941733Y-93550172D01*
X201844233Y-93367763D01*
X201824220Y-93301787D01*
X201784193Y-93169836D01*
X201763920Y-92964000D01*
X201784193Y-92758164D01*
X201844233Y-92560238D01*
X201844233Y-92560237D01*
X201941733Y-92377828D01*
X202072946Y-92217946D01*
X202232828Y-92086733D01*
X202415237Y-91989233D01*
X202489658Y-91966658D01*
X202613164Y-91929193D01*
X202690293Y-91921597D01*
X202767420Y-91914000D01*
X202870580Y-91914000D01*
X202947707Y-91921597D01*
X202947707Y-91921597D01*
G37*
G36*
X53025857Y-91017272D02*
X53226042Y-91100191D01*
X53406213Y-91220578D01*
X53559422Y-91373787D01*
X53679809Y-91553958D01*
X53762728Y-91754143D01*
X53805000Y-91966658D01*
X53805000Y-92183342D01*
X53762728Y-92395857D01*
X53679809Y-92596042D01*
X53559422Y-92776213D01*
X53406213Y-92929422D01*
X53406210Y-92929424D01*
X53406209Y-92929425D01*
X53332742Y-92978514D01*
X53226042Y-93049809D01*
X53025857Y-93132728D01*
X52813342Y-93175000D01*
X52596658Y-93175000D01*
X52384143Y-93132728D01*
X52183958Y-93049809D01*
X52077258Y-92978514D01*
X52003791Y-92929425D01*
X52003790Y-92929424D01*
X52003787Y-92929422D01*
X51850578Y-92776213D01*
X51730191Y-92596042D01*
X51647272Y-92395857D01*
X51605000Y-92183342D01*
X51605000Y-91966658D01*
X51647272Y-91754143D01*
X51730191Y-91553958D01*
X51850578Y-91373787D01*
X52003787Y-91220578D01*
X52183958Y-91100191D01*
X52384143Y-91017272D01*
X52596658Y-90975000D01*
X52813342Y-90975000D01*
X53025857Y-91017272D01*
X53025857Y-91017272D01*
G37*
G36*
X124291703Y-89901486D02*
X124582883Y-90022097D01*
X124844944Y-90197201D01*
X125067799Y-90420056D01*
X125242903Y-90682117D01*
X125363514Y-90973297D01*
X125425000Y-91282412D01*
X125425000Y-91597588D01*
X125363514Y-91906703D01*
X125242903Y-92197883D01*
X125067799Y-92459944D01*
X124844944Y-92682799D01*
X124582883Y-92857903D01*
X124291703Y-92978514D01*
X123982588Y-93040000D01*
X123667412Y-93040000D01*
X123358297Y-92978514D01*
X123067117Y-92857903D01*
X122805056Y-92682799D01*
X122582201Y-92459944D01*
X122407097Y-92197883D01*
X122286486Y-91906703D01*
X122225000Y-91597588D01*
X122225000Y-91282412D01*
X122286486Y-90973297D01*
X122407097Y-90682117D01*
X122582201Y-90420056D01*
X122805056Y-90197201D01*
X123067117Y-90022097D01*
X123358297Y-89901486D01*
X123667412Y-89840000D01*
X123982588Y-89840000D01*
X124291703Y-89901486D01*
X124291703Y-89901486D01*
G37*
G36*
X203869000Y-91474000D02*
X201769000Y-91474000D01*
X201769000Y-89374000D01*
X203869000Y-89374000D01*
X203869000Y-91474000D01*
X203869000Y-91474000D01*
G37*
G36*
X124291703Y-85456486D02*
X124582883Y-85577097D01*
X124844944Y-85752201D01*
X125067799Y-85975056D01*
X125242903Y-86237117D01*
X125363514Y-86528297D01*
X125425000Y-86837412D01*
X125425000Y-87152588D01*
X125363514Y-87461703D01*
X125242903Y-87752883D01*
X125067799Y-88014944D01*
X124844944Y-88237799D01*
X124582883Y-88412903D01*
X124291703Y-88533514D01*
X123982588Y-88595000D01*
X123667412Y-88595000D01*
X123358297Y-88533514D01*
X123067117Y-88412903D01*
X122805056Y-88237799D01*
X122582201Y-88014944D01*
X122407097Y-87752883D01*
X122286486Y-87461703D01*
X122225000Y-87152588D01*
X122225000Y-86837412D01*
X122286486Y-86528297D01*
X122407097Y-86237117D01*
X122582201Y-85975056D01*
X122805056Y-85752201D01*
X123067117Y-85577097D01*
X123358297Y-85456486D01*
X123667412Y-85395000D01*
X123982588Y-85395000D01*
X124291703Y-85456486D01*
X124291703Y-85456486D01*
G37*
G36*
X144988503Y-83279789D02*
X145188991Y-83340607D01*
X145373764Y-83439369D01*
X145535718Y-83572282D01*
X145668631Y-83734236D01*
X145767393Y-83919009D01*
X145828211Y-84119497D01*
X145848746Y-84328000D01*
X145828211Y-84536503D01*
X145767393Y-84736991D01*
X145668631Y-84921764D01*
X145535718Y-85083718D01*
X145373764Y-85216631D01*
X145188991Y-85315393D01*
X144988503Y-85376211D01*
X144832251Y-85391600D01*
X144727749Y-85391600D01*
X144571497Y-85376211D01*
X144371009Y-85315393D01*
X144186236Y-85216631D01*
X144024282Y-85083718D01*
X143891369Y-84921764D01*
X143792607Y-84736991D01*
X143731789Y-84536503D01*
X143711254Y-84328000D01*
X143731789Y-84119497D01*
X143792607Y-83919009D01*
X143891369Y-83734236D01*
X144024282Y-83572282D01*
X144186236Y-83439369D01*
X144371009Y-83340607D01*
X144571497Y-83279789D01*
X144727749Y-83264400D01*
X144832251Y-83264400D01*
X144988503Y-83279789D01*
X144988503Y-83279789D01*
G37*
G36*
X147528503Y-83279789D02*
X147728991Y-83340607D01*
X147913764Y-83439369D01*
X148075718Y-83572282D01*
X148208631Y-83734236D01*
X148307393Y-83919009D01*
X148368211Y-84119497D01*
X148388746Y-84328000D01*
X148368211Y-84536503D01*
X148307393Y-84736991D01*
X148208631Y-84921764D01*
X148075718Y-85083718D01*
X147913764Y-85216631D01*
X147728991Y-85315393D01*
X147528503Y-85376211D01*
X147372251Y-85391600D01*
X147267749Y-85391600D01*
X147111497Y-85376211D01*
X146911009Y-85315393D01*
X146726236Y-85216631D01*
X146564282Y-85083718D01*
X146431369Y-84921764D01*
X146332607Y-84736991D01*
X146271789Y-84536503D01*
X146251254Y-84328000D01*
X146271789Y-84119497D01*
X146332607Y-83919009D01*
X146431369Y-83734236D01*
X146564282Y-83572282D01*
X146726236Y-83439369D01*
X146911009Y-83340607D01*
X147111497Y-83279789D01*
X147267749Y-83264400D01*
X147372251Y-83264400D01*
X147528503Y-83279789D01*
X147528503Y-83279789D01*
G37*
G36*
X150068503Y-83279789D02*
X150268991Y-83340607D01*
X150453764Y-83439369D01*
X150615718Y-83572282D01*
X150748631Y-83734236D01*
X150847393Y-83919009D01*
X150908211Y-84119497D01*
X150928746Y-84328000D01*
X150908211Y-84536503D01*
X150847393Y-84736991D01*
X150748631Y-84921764D01*
X150615718Y-85083718D01*
X150453764Y-85216631D01*
X150268991Y-85315393D01*
X150068503Y-85376211D01*
X149912251Y-85391600D01*
X149807749Y-85391600D01*
X149651497Y-85376211D01*
X149451009Y-85315393D01*
X149266236Y-85216631D01*
X149104282Y-85083718D01*
X148971369Y-84921764D01*
X148872607Y-84736991D01*
X148811789Y-84536503D01*
X148791254Y-84328000D01*
X148811789Y-84119497D01*
X148872607Y-83919009D01*
X148971369Y-83734236D01*
X149104282Y-83572282D01*
X149266236Y-83439369D01*
X149451009Y-83340607D01*
X149651497Y-83279789D01*
X149807749Y-83264400D01*
X149912251Y-83264400D01*
X150068503Y-83279789D01*
X150068503Y-83279789D01*
G37*
G36*
X203544959Y-80262577D02*
X203885470Y-80330309D01*
X204313143Y-80507457D01*
X204698038Y-80764636D01*
X205025364Y-81091962D01*
X205282543Y-81476857D01*
X205459691Y-81904530D01*
X205550000Y-82358545D01*
X205550000Y-82821455D01*
X205459691Y-83275470D01*
X205282543Y-83703143D01*
X205025364Y-84088038D01*
X204698038Y-84415364D01*
X204313143Y-84672543D01*
X203885470Y-84849691D01*
X203544959Y-84917423D01*
X203431456Y-84940000D01*
X202968544Y-84940000D01*
X202855041Y-84917423D01*
X202514530Y-84849691D01*
X202086857Y-84672543D01*
X201701962Y-84415364D01*
X201374636Y-84088038D01*
X201117457Y-83703143D01*
X200940309Y-83275470D01*
X200850000Y-82821455D01*
X200850000Y-82358545D01*
X200940309Y-81904530D01*
X201117457Y-81476857D01*
X201374636Y-81091962D01*
X201701962Y-80764636D01*
X202086857Y-80507457D01*
X202514530Y-80330309D01*
X202855041Y-80262577D01*
X202968544Y-80240000D01*
X203431456Y-80240000D01*
X203544959Y-80262577D01*
X203544959Y-80262577D01*
G37*
G36*
X43524959Y-80262577D02*
X43865470Y-80330309D01*
X44293143Y-80507457D01*
X44678038Y-80764636D01*
X45005364Y-81091962D01*
X45262543Y-81476857D01*
X45439691Y-81904530D01*
X45530000Y-82358545D01*
X45530000Y-82821455D01*
X45439691Y-83275470D01*
X45262543Y-83703143D01*
X45005364Y-84088038D01*
X44678038Y-84415364D01*
X44293143Y-84672543D01*
X43865470Y-84849691D01*
X43524959Y-84917423D01*
X43411456Y-84940000D01*
X42948544Y-84940000D01*
X42835041Y-84917423D01*
X42494530Y-84849691D01*
X42066857Y-84672543D01*
X41681962Y-84415364D01*
X41354636Y-84088038D01*
X41097457Y-83703143D01*
X40920309Y-83275470D01*
X40830000Y-82821455D01*
X40830000Y-82358545D01*
X40920309Y-81904530D01*
X41097457Y-81476857D01*
X41354636Y-81091962D01*
X41681962Y-80764636D01*
X42066857Y-80507457D01*
X42494530Y-80330309D01*
X42835041Y-80262577D01*
X42948544Y-80240000D01*
X43411456Y-80240000D01*
X43524959Y-80262577D01*
X43524959Y-80262577D01*
G37*
G36*
X89123026Y-81650115D02*
X89341412Y-81740573D01*
X89537958Y-81871901D01*
X89705099Y-82039042D01*
X89836427Y-82235588D01*
X89926885Y-82453974D01*
X89973000Y-82685809D01*
X89973000Y-82922191D01*
X89926885Y-83154026D01*
X89836427Y-83372412D01*
X89705099Y-83568958D01*
X89537958Y-83736099D01*
X89341412Y-83867427D01*
X89123026Y-83957885D01*
X88891191Y-84004000D01*
X88654809Y-84004000D01*
X88422974Y-83957885D01*
X88204588Y-83867427D01*
X88008042Y-83736099D01*
X87840901Y-83568958D01*
X87709573Y-83372412D01*
X87619115Y-83154026D01*
X87573000Y-82922191D01*
X87573000Y-82685809D01*
X87619115Y-82453974D01*
X87709573Y-82235588D01*
X87840901Y-82039042D01*
X88008042Y-81871901D01*
X88204588Y-81740573D01*
X88422974Y-81650115D01*
X88654809Y-81604000D01*
X88891191Y-81604000D01*
X89123026Y-81650115D01*
X89123026Y-81650115D01*
G37*
G36*
X84043026Y-81650115D02*
X84261412Y-81740573D01*
X84457958Y-81871901D01*
X84625099Y-82039042D01*
X84756427Y-82235588D01*
X84846885Y-82453974D01*
X84893000Y-82685809D01*
X84893000Y-82922191D01*
X84846885Y-83154026D01*
X84756427Y-83372412D01*
X84625099Y-83568958D01*
X84457958Y-83736099D01*
X84261412Y-83867427D01*
X84043026Y-83957885D01*
X83811191Y-84004000D01*
X83574809Y-84004000D01*
X83342974Y-83957885D01*
X83124588Y-83867427D01*
X82928042Y-83736099D01*
X82760901Y-83568958D01*
X82629573Y-83372412D01*
X82539115Y-83154026D01*
X82493000Y-82922191D01*
X82493000Y-82685809D01*
X82539115Y-82453974D01*
X82629573Y-82235588D01*
X82760901Y-82039042D01*
X82928042Y-81871901D01*
X83124588Y-81740573D01*
X83342974Y-81650115D01*
X83574809Y-81604000D01*
X83811191Y-81604000D01*
X84043026Y-81650115D01*
X84043026Y-81650115D01*
G37*
G36*
X147528503Y-80739789D02*
X147728991Y-80800607D01*
X147913764Y-80899369D01*
X148075718Y-81032282D01*
X148208631Y-81194236D01*
X148307393Y-81379009D01*
X148368211Y-81579497D01*
X148388746Y-81788000D01*
X148368211Y-81996503D01*
X148307393Y-82196991D01*
X148208631Y-82381764D01*
X148075718Y-82543718D01*
X147913764Y-82676631D01*
X147728991Y-82775393D01*
X147528503Y-82836211D01*
X147372251Y-82851600D01*
X147267749Y-82851600D01*
X147111497Y-82836211D01*
X146911009Y-82775393D01*
X146726236Y-82676631D01*
X146564282Y-82543718D01*
X146431369Y-82381764D01*
X146332607Y-82196991D01*
X146271789Y-81996503D01*
X146251254Y-81788000D01*
X146271789Y-81579497D01*
X146332607Y-81379009D01*
X146431369Y-81194236D01*
X146564282Y-81032282D01*
X146726236Y-80899369D01*
X146911009Y-80800607D01*
X147111497Y-80739789D01*
X147267749Y-80724400D01*
X147372251Y-80724400D01*
X147528503Y-80739789D01*
X147528503Y-80739789D01*
G37*
G36*
X144988503Y-80739789D02*
X145188991Y-80800607D01*
X145373764Y-80899369D01*
X145535718Y-81032282D01*
X145668631Y-81194236D01*
X145767393Y-81379009D01*
X145828211Y-81579497D01*
X145848746Y-81788000D01*
X145828211Y-81996503D01*
X145767393Y-82196991D01*
X145668631Y-82381764D01*
X145535718Y-82543718D01*
X145373764Y-82676631D01*
X145188991Y-82775393D01*
X144988503Y-82836211D01*
X144832251Y-82851600D01*
X144727749Y-82851600D01*
X144571497Y-82836211D01*
X144371009Y-82775393D01*
X144186236Y-82676631D01*
X144024282Y-82543718D01*
X143891369Y-82381764D01*
X143792607Y-82196991D01*
X143731789Y-81996503D01*
X143711254Y-81788000D01*
X143731789Y-81579497D01*
X143792607Y-81379009D01*
X143891369Y-81194236D01*
X144024282Y-81032282D01*
X144186236Y-80899369D01*
X144371009Y-80800607D01*
X144571497Y-80739789D01*
X144727749Y-80724400D01*
X144832251Y-80724400D01*
X144988503Y-80739789D01*
X144988503Y-80739789D01*
G37*
G36*
X150923600Y-82851600D02*
X148796400Y-82851600D01*
X148796400Y-80724400D01*
X150923600Y-80724400D01*
X150923600Y-82851600D01*
X150923600Y-82851600D01*
G37*
G36*
X145619183Y-75916900D02*
X145746574Y-75969668D01*
X145861225Y-76046275D01*
X145958725Y-76143775D01*
X146035332Y-76258426D01*
X146088100Y-76385817D01*
X146115000Y-76521055D01*
X146115000Y-76658945D01*
X146088100Y-76794183D01*
X146035332Y-76921574D01*
X145958725Y-77036225D01*
X145861225Y-77133725D01*
X145746574Y-77210332D01*
X145619183Y-77263100D01*
X145483945Y-77290000D01*
X145346055Y-77290000D01*
X145210817Y-77263100D01*
X145083426Y-77210332D01*
X144968775Y-77133725D01*
X144871275Y-77036225D01*
X144794668Y-76921574D01*
X144741900Y-76794183D01*
X144715000Y-76658945D01*
X144715000Y-76521055D01*
X144741900Y-76385817D01*
X144794668Y-76258426D01*
X144871275Y-76143775D01*
X144968775Y-76046275D01*
X145083426Y-75969668D01*
X145210817Y-75916900D01*
X145346055Y-75890000D01*
X145483945Y-75890000D01*
X145619183Y-75916900D01*
X145619183Y-75916900D01*
G37*
G36*
X143714183Y-75916900D02*
X143841574Y-75969668D01*
X143956225Y-76046275D01*
X144053725Y-76143775D01*
X144130332Y-76258426D01*
X144183100Y-76385817D01*
X144210000Y-76521055D01*
X144210000Y-76658945D01*
X144183100Y-76794183D01*
X144130332Y-76921574D01*
X144053725Y-77036225D01*
X143956225Y-77133725D01*
X143841574Y-77210332D01*
X143714183Y-77263100D01*
X143578945Y-77290000D01*
X143441055Y-77290000D01*
X143305817Y-77263100D01*
X143178426Y-77210332D01*
X143063775Y-77133725D01*
X142966275Y-77036225D01*
X142889668Y-76921574D01*
X142836900Y-76794183D01*
X142810000Y-76658945D01*
X142810000Y-76521055D01*
X142836900Y-76385817D01*
X142889668Y-76258426D01*
X142966275Y-76143775D01*
X143063775Y-76046275D01*
X143178426Y-75969668D01*
X143305817Y-75916900D01*
X143441055Y-75890000D01*
X143578945Y-75890000D01*
X143714183Y-75916900D01*
X143714183Y-75916900D01*
G37*
G36*
X141809183Y-75916900D02*
X141936574Y-75969668D01*
X142051225Y-76046275D01*
X142148725Y-76143775D01*
X142225332Y-76258426D01*
X142278100Y-76385817D01*
X142305000Y-76521055D01*
X142305000Y-76658945D01*
X142278100Y-76794183D01*
X142225332Y-76921574D01*
X142148725Y-77036225D01*
X142051225Y-77133725D01*
X141936574Y-77210332D01*
X141809183Y-77263100D01*
X141673945Y-77290000D01*
X141536055Y-77290000D01*
X141400817Y-77263100D01*
X141273426Y-77210332D01*
X141158775Y-77133725D01*
X141061275Y-77036225D01*
X140984668Y-76921574D01*
X140931900Y-76794183D01*
X140905000Y-76658945D01*
X140905000Y-76521055D01*
X140931900Y-76385817D01*
X140984668Y-76258426D01*
X141061275Y-76143775D01*
X141158775Y-76046275D01*
X141273426Y-75969668D01*
X141400817Y-75916900D01*
X141536055Y-75890000D01*
X141673945Y-75890000D01*
X141809183Y-75916900D01*
X141809183Y-75916900D01*
G37*
G36*
X147524183Y-75916900D02*
X147651574Y-75969668D01*
X147766225Y-76046275D01*
X147863725Y-76143775D01*
X147940332Y-76258426D01*
X147993100Y-76385817D01*
X148020000Y-76521055D01*
X148020000Y-76658945D01*
X147993100Y-76794183D01*
X147940332Y-76921574D01*
X147863725Y-77036225D01*
X147766225Y-77133725D01*
X147651574Y-77210332D01*
X147524183Y-77263100D01*
X147388945Y-77290000D01*
X147251055Y-77290000D01*
X147115817Y-77263100D01*
X146988426Y-77210332D01*
X146873775Y-77133725D01*
X146776275Y-77036225D01*
X146699668Y-76921574D01*
X146646900Y-76794183D01*
X146620000Y-76658945D01*
X146620000Y-76521055D01*
X146646900Y-76385817D01*
X146699668Y-76258426D01*
X146776275Y-76143775D01*
X146873775Y-76046275D01*
X146988426Y-75969668D01*
X147115817Y-75916900D01*
X147251055Y-75890000D01*
X147388945Y-75890000D01*
X147524183Y-75916900D01*
X147524183Y-75916900D01*
G37*
G36*
X98079196Y-70849958D02*
X98315780Y-70947954D01*
X98528705Y-71090226D01*
X98709774Y-71271295D01*
X98852046Y-71484220D01*
X98950042Y-71720804D01*
X99000000Y-71971960D01*
X99000000Y-72228040D01*
X98950042Y-72479196D01*
X98852046Y-72715780D01*
X98709774Y-72928705D01*
X98528705Y-73109774D01*
X98315780Y-73252046D01*
X98079196Y-73350042D01*
X97828040Y-73400000D01*
X97571960Y-73400000D01*
X97320804Y-73350042D01*
X97084220Y-73252046D01*
X96871295Y-73109774D01*
X96690226Y-72928705D01*
X96547954Y-72715780D01*
X96449958Y-72479196D01*
X96400000Y-72228040D01*
X96400000Y-71971960D01*
X96449958Y-71720804D01*
X96547954Y-71484220D01*
X96690226Y-71271295D01*
X96871295Y-71090226D01*
X97084220Y-70947954D01*
X97320804Y-70849958D01*
X97571960Y-70800000D01*
X97828040Y-70800000D01*
X98079196Y-70849958D01*
X98079196Y-70849958D01*
G37*
G36*
X58079196Y-70849958D02*
X58315780Y-70947954D01*
X58528705Y-71090226D01*
X58709774Y-71271295D01*
X58852046Y-71484220D01*
X58950042Y-71720804D01*
X59000000Y-71971960D01*
X59000000Y-72228040D01*
X58950042Y-72479196D01*
X58852046Y-72715780D01*
X58709774Y-72928705D01*
X58528705Y-73109774D01*
X58315780Y-73252046D01*
X58079196Y-73350042D01*
X57828040Y-73400000D01*
X57571960Y-73400000D01*
X57320804Y-73350042D01*
X57084220Y-73252046D01*
X56871295Y-73109774D01*
X56690226Y-72928705D01*
X56547954Y-72715780D01*
X56449958Y-72479196D01*
X56400000Y-72228040D01*
X56400000Y-71971960D01*
X56449958Y-71720804D01*
X56547954Y-71484220D01*
X56690226Y-71271295D01*
X56871295Y-71090226D01*
X57084220Y-70947954D01*
X57320804Y-70849958D01*
X57571960Y-70800000D01*
X57828040Y-70800000D01*
X58079196Y-70849958D01*
X58079196Y-70849958D01*
G37*
G36*
X53079196Y-70849958D02*
X53315780Y-70947954D01*
X53528705Y-71090226D01*
X53709774Y-71271295D01*
X53852046Y-71484220D01*
X53950042Y-71720804D01*
X54000000Y-71971960D01*
X54000000Y-72228040D01*
X53950042Y-72479196D01*
X53852046Y-72715780D01*
X53709774Y-72928705D01*
X53528705Y-73109774D01*
X53315780Y-73252046D01*
X53079196Y-73350042D01*
X52828040Y-73400000D01*
X52571960Y-73400000D01*
X52320804Y-73350042D01*
X52084220Y-73252046D01*
X51871295Y-73109774D01*
X51690226Y-72928705D01*
X51547954Y-72715780D01*
X51449958Y-72479196D01*
X51400000Y-72228040D01*
X51400000Y-71971960D01*
X51449958Y-71720804D01*
X51547954Y-71484220D01*
X51690226Y-71271295D01*
X51871295Y-71090226D01*
X52084220Y-70947954D01*
X52320804Y-70849958D01*
X52571960Y-70800000D01*
X52828040Y-70800000D01*
X53079196Y-70849958D01*
X53079196Y-70849958D01*
G37*
G36*
X73079196Y-70849958D02*
X73315780Y-70947954D01*
X73528705Y-71090226D01*
X73709774Y-71271295D01*
X73852046Y-71484220D01*
X73950042Y-71720804D01*
X74000000Y-71971960D01*
X74000000Y-72228040D01*
X73950042Y-72479196D01*
X73852046Y-72715780D01*
X73709774Y-72928705D01*
X73528705Y-73109774D01*
X73315780Y-73252046D01*
X73079196Y-73350042D01*
X72828040Y-73400000D01*
X72571960Y-73400000D01*
X72320804Y-73350042D01*
X72084220Y-73252046D01*
X71871295Y-73109774D01*
X71690226Y-72928705D01*
X71547954Y-72715780D01*
X71449958Y-72479196D01*
X71400000Y-72228040D01*
X71400000Y-71971960D01*
X71449958Y-71720804D01*
X71547954Y-71484220D01*
X71690226Y-71271295D01*
X71871295Y-71090226D01*
X72084220Y-70947954D01*
X72320804Y-70849958D01*
X72571960Y-70800000D01*
X72828040Y-70800000D01*
X73079196Y-70849958D01*
X73079196Y-70849958D01*
G37*
G36*
X103079196Y-70849958D02*
X103315780Y-70947954D01*
X103528705Y-71090226D01*
X103709774Y-71271295D01*
X103852046Y-71484220D01*
X103950042Y-71720804D01*
X104000000Y-71971960D01*
X104000000Y-72228040D01*
X103950042Y-72479196D01*
X103852046Y-72715780D01*
X103709774Y-72928705D01*
X103528705Y-73109774D01*
X103315780Y-73252046D01*
X103079196Y-73350042D01*
X102828040Y-73400000D01*
X102571960Y-73400000D01*
X102320804Y-73350042D01*
X102084220Y-73252046D01*
X101871295Y-73109774D01*
X101690226Y-72928705D01*
X101547954Y-72715780D01*
X101449958Y-72479196D01*
X101400000Y-72228040D01*
X101400000Y-71971960D01*
X101449958Y-71720804D01*
X101547954Y-71484220D01*
X101690226Y-71271295D01*
X101871295Y-71090226D01*
X102084220Y-70947954D01*
X102320804Y-70849958D01*
X102571960Y-70800000D01*
X102828040Y-70800000D01*
X103079196Y-70849958D01*
X103079196Y-70849958D01*
G37*
G36*
X88079196Y-70849958D02*
X88315780Y-70947954D01*
X88528705Y-71090226D01*
X88709774Y-71271295D01*
X88852046Y-71484220D01*
X88950042Y-71720804D01*
X89000000Y-71971960D01*
X89000000Y-72228040D01*
X88950042Y-72479196D01*
X88852046Y-72715780D01*
X88709774Y-72928705D01*
X88528705Y-73109774D01*
X88315780Y-73252046D01*
X88079196Y-73350042D01*
X87828040Y-73400000D01*
X87571960Y-73400000D01*
X87320804Y-73350042D01*
X87084220Y-73252046D01*
X86871295Y-73109774D01*
X86690226Y-72928705D01*
X86547954Y-72715780D01*
X86449958Y-72479196D01*
X86400000Y-72228040D01*
X86400000Y-71971960D01*
X86449958Y-71720804D01*
X86547954Y-71484220D01*
X86690226Y-71271295D01*
X86871295Y-71090226D01*
X87084220Y-70947954D01*
X87320804Y-70849958D01*
X87571960Y-70800000D01*
X87828040Y-70800000D01*
X88079196Y-70849958D01*
X88079196Y-70849958D01*
G37*
G36*
X83079196Y-70849958D02*
X83315780Y-70947954D01*
X83528705Y-71090226D01*
X83709774Y-71271295D01*
X83852046Y-71484220D01*
X83950042Y-71720804D01*
X84000000Y-71971960D01*
X84000000Y-72228040D01*
X83950042Y-72479196D01*
X83852046Y-72715780D01*
X83709774Y-72928705D01*
X83528705Y-73109774D01*
X83315780Y-73252046D01*
X83079196Y-73350042D01*
X82828040Y-73400000D01*
X82571960Y-73400000D01*
X82320804Y-73350042D01*
X82084220Y-73252046D01*
X81871295Y-73109774D01*
X81690226Y-72928705D01*
X81547954Y-72715780D01*
X81449958Y-72479196D01*
X81400000Y-72228040D01*
X81400000Y-71971960D01*
X81449958Y-71720804D01*
X81547954Y-71484220D01*
X81690226Y-71271295D01*
X81871295Y-71090226D01*
X82084220Y-70947954D01*
X82320804Y-70849958D01*
X82571960Y-70800000D01*
X82828040Y-70800000D01*
X83079196Y-70849958D01*
X83079196Y-70849958D01*
G37*
G36*
X113079196Y-70849958D02*
X113315780Y-70947954D01*
X113528705Y-71090226D01*
X113709774Y-71271295D01*
X113852046Y-71484220D01*
X113950042Y-71720804D01*
X114000000Y-71971960D01*
X114000000Y-72228040D01*
X113950042Y-72479196D01*
X113852046Y-72715780D01*
X113709774Y-72928705D01*
X113528705Y-73109774D01*
X113315780Y-73252046D01*
X113079196Y-73350042D01*
X112828040Y-73400000D01*
X112571960Y-73400000D01*
X112320804Y-73350042D01*
X112084220Y-73252046D01*
X111871295Y-73109774D01*
X111690226Y-72928705D01*
X111547954Y-72715780D01*
X111449958Y-72479196D01*
X111400000Y-72228040D01*
X111400000Y-71971960D01*
X111449958Y-71720804D01*
X111547954Y-71484220D01*
X111690226Y-71271295D01*
X111871295Y-71090226D01*
X112084220Y-70947954D01*
X112320804Y-70849958D01*
X112571960Y-70800000D01*
X112828040Y-70800000D01*
X113079196Y-70849958D01*
X113079196Y-70849958D01*
G37*
G36*
X118079196Y-70849958D02*
X118315780Y-70947954D01*
X118528705Y-71090226D01*
X118709774Y-71271295D01*
X118852046Y-71484220D01*
X118950042Y-71720804D01*
X119000000Y-71971960D01*
X119000000Y-72228040D01*
X118950042Y-72479196D01*
X118852046Y-72715780D01*
X118709774Y-72928705D01*
X118528705Y-73109774D01*
X118315780Y-73252046D01*
X118079196Y-73350042D01*
X117828040Y-73400000D01*
X117571960Y-73400000D01*
X117320804Y-73350042D01*
X117084220Y-73252046D01*
X116871295Y-73109774D01*
X116690226Y-72928705D01*
X116547954Y-72715780D01*
X116449958Y-72479196D01*
X116400000Y-72228040D01*
X116400000Y-71971960D01*
X116449958Y-71720804D01*
X116547954Y-71484220D01*
X116690226Y-71271295D01*
X116871295Y-71090226D01*
X117084220Y-70947954D01*
X117320804Y-70849958D01*
X117571960Y-70800000D01*
X117828040Y-70800000D01*
X118079196Y-70849958D01*
X118079196Y-70849958D01*
G37*
G36*
X128079196Y-70849958D02*
X128315780Y-70947954D01*
X128528705Y-71090226D01*
X128709774Y-71271295D01*
X128852046Y-71484220D01*
X128950042Y-71720804D01*
X129000000Y-71971960D01*
X129000000Y-72228040D01*
X128950042Y-72479196D01*
X128852046Y-72715780D01*
X128709774Y-72928705D01*
X128528705Y-73109774D01*
X128315780Y-73252046D01*
X128079196Y-73350042D01*
X127828040Y-73400000D01*
X127571960Y-73400000D01*
X127320804Y-73350042D01*
X127084220Y-73252046D01*
X126871295Y-73109774D01*
X126690226Y-72928705D01*
X126547954Y-72715780D01*
X126449958Y-72479196D01*
X126400000Y-72228040D01*
X126400000Y-71971960D01*
X126449958Y-71720804D01*
X126547954Y-71484220D01*
X126690226Y-71271295D01*
X126871295Y-71090226D01*
X127084220Y-70947954D01*
X127320804Y-70849958D01*
X127571960Y-70800000D01*
X127828040Y-70800000D01*
X128079196Y-70849958D01*
X128079196Y-70849958D01*
G37*
G36*
X133079196Y-70849958D02*
X133315780Y-70947954D01*
X133528705Y-71090226D01*
X133709774Y-71271295D01*
X133852046Y-71484220D01*
X133950042Y-71720804D01*
X134000000Y-71971960D01*
X134000000Y-72228040D01*
X133950042Y-72479196D01*
X133852046Y-72715780D01*
X133709774Y-72928705D01*
X133528705Y-73109774D01*
X133315780Y-73252046D01*
X133079196Y-73350042D01*
X132828040Y-73400000D01*
X132571960Y-73400000D01*
X132320804Y-73350042D01*
X132084220Y-73252046D01*
X131871295Y-73109774D01*
X131690226Y-72928705D01*
X131547954Y-72715780D01*
X131449958Y-72479196D01*
X131400000Y-72228040D01*
X131400000Y-71971960D01*
X131449958Y-71720804D01*
X131547954Y-71484220D01*
X131690226Y-71271295D01*
X131871295Y-71090226D01*
X132084220Y-70947954D01*
X132320804Y-70849958D01*
X132571960Y-70800000D01*
X132828040Y-70800000D01*
X133079196Y-70849958D01*
X133079196Y-70849958D01*
G37*
G36*
X68079196Y-70849958D02*
X68315780Y-70947954D01*
X68528705Y-71090226D01*
X68709774Y-71271295D01*
X68852046Y-71484220D01*
X68950042Y-71720804D01*
X69000000Y-71971960D01*
X69000000Y-72228040D01*
X68950042Y-72479196D01*
X68852046Y-72715780D01*
X68709774Y-72928705D01*
X68528705Y-73109774D01*
X68315780Y-73252046D01*
X68079196Y-73350042D01*
X67828040Y-73400000D01*
X67571960Y-73400000D01*
X67320804Y-73350042D01*
X67084220Y-73252046D01*
X66871295Y-73109774D01*
X66690226Y-72928705D01*
X66547954Y-72715780D01*
X66449958Y-72479196D01*
X66400000Y-72228040D01*
X66400000Y-71971960D01*
X66449958Y-71720804D01*
X66547954Y-71484220D01*
X66690226Y-71271295D01*
X66871295Y-71090226D01*
X67084220Y-70947954D01*
X67320804Y-70849958D01*
X67571960Y-70800000D01*
X67828040Y-70800000D01*
X68079196Y-70849958D01*
X68079196Y-70849958D01*
G37*
G36*
X186658983Y-67264482D02*
X186696833Y-67275963D01*
X186731723Y-67294613D01*
X186762296Y-67319704D01*
X186787387Y-67350277D01*
X186806037Y-67385167D01*
X186817518Y-67423017D01*
X186822000Y-67468523D01*
X186822000Y-69551477D01*
X186817518Y-69596983D01*
X186806037Y-69634833D01*
X186787387Y-69669723D01*
X186762296Y-69700296D01*
X186731723Y-69725387D01*
X186696833Y-69744037D01*
X186658983Y-69755518D01*
X186613477Y-69760000D01*
X183630523Y-69760000D01*
X183585017Y-69755518D01*
X183547167Y-69744037D01*
X183512277Y-69725387D01*
X183481704Y-69700296D01*
X183456613Y-69669723D01*
X183437963Y-69634833D01*
X183426482Y-69596983D01*
X183422000Y-69551477D01*
X183422000Y-67468523D01*
X183426482Y-67423017D01*
X183437963Y-67385167D01*
X183456613Y-67350277D01*
X183481704Y-67319704D01*
X183512277Y-67294613D01*
X183547167Y-67275963D01*
X183585017Y-67264482D01*
X183630523Y-67260000D01*
X186613477Y-67260000D01*
X186658983Y-67264482D01*
X186658983Y-67264482D01*
G37*
G36*
X133079196Y-65849958D02*
X133315780Y-65947954D01*
X133528705Y-66090226D01*
X133709774Y-66271295D01*
X133852046Y-66484220D01*
X133950042Y-66720804D01*
X134000000Y-66971960D01*
X134000000Y-67228040D01*
X133950042Y-67479196D01*
X133852046Y-67715780D01*
X133709774Y-67928705D01*
X133528705Y-68109774D01*
X133315780Y-68252046D01*
X133079196Y-68350042D01*
X132828040Y-68400000D01*
X132571960Y-68400000D01*
X132320804Y-68350042D01*
X132084220Y-68252046D01*
X131871295Y-68109774D01*
X131690226Y-67928705D01*
X131547954Y-67715780D01*
X131449958Y-67479196D01*
X131400000Y-67228040D01*
X131400000Y-66971960D01*
X131449958Y-66720804D01*
X131547954Y-66484220D01*
X131690226Y-66271295D01*
X131871295Y-66090226D01*
X132084220Y-65947954D01*
X132320804Y-65849958D01*
X132571960Y-65800000D01*
X132828040Y-65800000D01*
X133079196Y-65849958D01*
X133079196Y-65849958D01*
G37*
G36*
X118079196Y-65849958D02*
X118315780Y-65947954D01*
X118528705Y-66090226D01*
X118709774Y-66271295D01*
X118852046Y-66484220D01*
X118950042Y-66720804D01*
X119000000Y-66971960D01*
X119000000Y-67228040D01*
X118950042Y-67479196D01*
X118852046Y-67715780D01*
X118709774Y-67928705D01*
X118528705Y-68109774D01*
X118315780Y-68252046D01*
X118079196Y-68350042D01*
X117828040Y-68400000D01*
X117571960Y-68400000D01*
X117320804Y-68350042D01*
X117084220Y-68252046D01*
X116871295Y-68109774D01*
X116690226Y-67928705D01*
X116547954Y-67715780D01*
X116449958Y-67479196D01*
X116400000Y-67228040D01*
X116400000Y-66971960D01*
X116449958Y-66720804D01*
X116547954Y-66484220D01*
X116690226Y-66271295D01*
X116871295Y-66090226D01*
X117084220Y-65947954D01*
X117320804Y-65849958D01*
X117571960Y-65800000D01*
X117828040Y-65800000D01*
X118079196Y-65849958D01*
X118079196Y-65849958D01*
G37*
G36*
X113079196Y-65849958D02*
X113315780Y-65947954D01*
X113528705Y-66090226D01*
X113709774Y-66271295D01*
X113852046Y-66484220D01*
X113950042Y-66720804D01*
X114000000Y-66971960D01*
X114000000Y-67228040D01*
X113950042Y-67479196D01*
X113852046Y-67715780D01*
X113709774Y-67928705D01*
X113528705Y-68109774D01*
X113315780Y-68252046D01*
X113079196Y-68350042D01*
X112828040Y-68400000D01*
X112571960Y-68400000D01*
X112320804Y-68350042D01*
X112084220Y-68252046D01*
X111871295Y-68109774D01*
X111690226Y-67928705D01*
X111547954Y-67715780D01*
X111449958Y-67479196D01*
X111400000Y-67228040D01*
X111400000Y-66971960D01*
X111449958Y-66720804D01*
X111547954Y-66484220D01*
X111690226Y-66271295D01*
X111871295Y-66090226D01*
X112084220Y-65947954D01*
X112320804Y-65849958D01*
X112571960Y-65800000D01*
X112828040Y-65800000D01*
X113079196Y-65849958D01*
X113079196Y-65849958D01*
G37*
G36*
X103079196Y-65849958D02*
X103315780Y-65947954D01*
X103528705Y-66090226D01*
X103709774Y-66271295D01*
X103852046Y-66484220D01*
X103950042Y-66720804D01*
X104000000Y-66971960D01*
X104000000Y-67228040D01*
X103950042Y-67479196D01*
X103852046Y-67715780D01*
X103709774Y-67928705D01*
X103528705Y-68109774D01*
X103315780Y-68252046D01*
X103079196Y-68350042D01*
X102828040Y-68400000D01*
X102571960Y-68400000D01*
X102320804Y-68350042D01*
X102084220Y-68252046D01*
X101871295Y-68109774D01*
X101690226Y-67928705D01*
X101547954Y-67715780D01*
X101449958Y-67479196D01*
X101400000Y-67228040D01*
X101400000Y-66971960D01*
X101449958Y-66720804D01*
X101547954Y-66484220D01*
X101690226Y-66271295D01*
X101871295Y-66090226D01*
X102084220Y-65947954D01*
X102320804Y-65849958D01*
X102571960Y-65800000D01*
X102828040Y-65800000D01*
X103079196Y-65849958D01*
X103079196Y-65849958D01*
G37*
G36*
X98079196Y-65849958D02*
X98315780Y-65947954D01*
X98528705Y-66090226D01*
X98709774Y-66271295D01*
X98852046Y-66484220D01*
X98950042Y-66720804D01*
X99000000Y-66971960D01*
X99000000Y-67228040D01*
X98950042Y-67479196D01*
X98852046Y-67715780D01*
X98709774Y-67928705D01*
X98528705Y-68109774D01*
X98315780Y-68252046D01*
X98079196Y-68350042D01*
X97828040Y-68400000D01*
X97571960Y-68400000D01*
X97320804Y-68350042D01*
X97084220Y-68252046D01*
X96871295Y-68109774D01*
X96690226Y-67928705D01*
X96547954Y-67715780D01*
X96449958Y-67479196D01*
X96400000Y-67228040D01*
X96400000Y-66971960D01*
X96449958Y-66720804D01*
X96547954Y-66484220D01*
X96690226Y-66271295D01*
X96871295Y-66090226D01*
X97084220Y-65947954D01*
X97320804Y-65849958D01*
X97571960Y-65800000D01*
X97828040Y-65800000D01*
X98079196Y-65849958D01*
X98079196Y-65849958D01*
G37*
G36*
X88079196Y-65849958D02*
X88315780Y-65947954D01*
X88528705Y-66090226D01*
X88709774Y-66271295D01*
X88852046Y-66484220D01*
X88950042Y-66720804D01*
X89000000Y-66971960D01*
X89000000Y-67228040D01*
X88950042Y-67479196D01*
X88852046Y-67715780D01*
X88709774Y-67928705D01*
X88528705Y-68109774D01*
X88315780Y-68252046D01*
X88079196Y-68350042D01*
X87828040Y-68400000D01*
X87571960Y-68400000D01*
X87320804Y-68350042D01*
X87084220Y-68252046D01*
X86871295Y-68109774D01*
X86690226Y-67928705D01*
X86547954Y-67715780D01*
X86449958Y-67479196D01*
X86400000Y-67228040D01*
X86400000Y-66971960D01*
X86449958Y-66720804D01*
X86547954Y-66484220D01*
X86690226Y-66271295D01*
X86871295Y-66090226D01*
X87084220Y-65947954D01*
X87320804Y-65849958D01*
X87571960Y-65800000D01*
X87828040Y-65800000D01*
X88079196Y-65849958D01*
X88079196Y-65849958D01*
G37*
G36*
X128079196Y-65849958D02*
X128315780Y-65947954D01*
X128528705Y-66090226D01*
X128709774Y-66271295D01*
X128852046Y-66484220D01*
X128950042Y-66720804D01*
X129000000Y-66971960D01*
X129000000Y-67228040D01*
X128950042Y-67479196D01*
X128852046Y-67715780D01*
X128709774Y-67928705D01*
X128528705Y-68109774D01*
X128315780Y-68252046D01*
X128079196Y-68350042D01*
X127828040Y-68400000D01*
X127571960Y-68400000D01*
X127320804Y-68350042D01*
X127084220Y-68252046D01*
X126871295Y-68109774D01*
X126690226Y-67928705D01*
X126547954Y-67715780D01*
X126449958Y-67479196D01*
X126400000Y-67228040D01*
X126400000Y-66971960D01*
X126449958Y-66720804D01*
X126547954Y-66484220D01*
X126690226Y-66271295D01*
X126871295Y-66090226D01*
X127084220Y-65947954D01*
X127320804Y-65849958D01*
X127571960Y-65800000D01*
X127828040Y-65800000D01*
X128079196Y-65849958D01*
X128079196Y-65849958D01*
G37*
G36*
X68079196Y-65849958D02*
X68315780Y-65947954D01*
X68528705Y-66090226D01*
X68709774Y-66271295D01*
X68852046Y-66484220D01*
X68950042Y-66720804D01*
X69000000Y-66971960D01*
X69000000Y-67228040D01*
X68950042Y-67479196D01*
X68852046Y-67715780D01*
X68709774Y-67928705D01*
X68528705Y-68109774D01*
X68315780Y-68252046D01*
X68079196Y-68350042D01*
X67828040Y-68400000D01*
X67571960Y-68400000D01*
X67320804Y-68350042D01*
X67084220Y-68252046D01*
X66871295Y-68109774D01*
X66690226Y-67928705D01*
X66547954Y-67715780D01*
X66449958Y-67479196D01*
X66400000Y-67228040D01*
X66400000Y-66971960D01*
X66449958Y-66720804D01*
X66547954Y-66484220D01*
X66690226Y-66271295D01*
X66871295Y-66090226D01*
X67084220Y-65947954D01*
X67320804Y-65849958D01*
X67571960Y-65800000D01*
X67828040Y-65800000D01*
X68079196Y-65849958D01*
X68079196Y-65849958D01*
G37*
G36*
X58079196Y-65849958D02*
X58315780Y-65947954D01*
X58528705Y-66090226D01*
X58709774Y-66271295D01*
X58852046Y-66484220D01*
X58950042Y-66720804D01*
X59000000Y-66971960D01*
X59000000Y-67228040D01*
X58950042Y-67479196D01*
X58852046Y-67715780D01*
X58709774Y-67928705D01*
X58528705Y-68109774D01*
X58315780Y-68252046D01*
X58079196Y-68350042D01*
X57828040Y-68400000D01*
X57571960Y-68400000D01*
X57320804Y-68350042D01*
X57084220Y-68252046D01*
X56871295Y-68109774D01*
X56690226Y-67928705D01*
X56547954Y-67715780D01*
X56449958Y-67479196D01*
X56400000Y-67228040D01*
X56400000Y-66971960D01*
X56449958Y-66720804D01*
X56547954Y-66484220D01*
X56690226Y-66271295D01*
X56871295Y-66090226D01*
X57084220Y-65947954D01*
X57320804Y-65849958D01*
X57571960Y-65800000D01*
X57828040Y-65800000D01*
X58079196Y-65849958D01*
X58079196Y-65849958D01*
G37*
G36*
X53079196Y-65849958D02*
X53315780Y-65947954D01*
X53528705Y-66090226D01*
X53709774Y-66271295D01*
X53852046Y-66484220D01*
X53950042Y-66720804D01*
X54000000Y-66971960D01*
X54000000Y-67228040D01*
X53950042Y-67479196D01*
X53852046Y-67715780D01*
X53709774Y-67928705D01*
X53528705Y-68109774D01*
X53315780Y-68252046D01*
X53079196Y-68350042D01*
X52828040Y-68400000D01*
X52571960Y-68400000D01*
X52320804Y-68350042D01*
X52084220Y-68252046D01*
X51871295Y-68109774D01*
X51690226Y-67928705D01*
X51547954Y-67715780D01*
X51449958Y-67479196D01*
X51400000Y-67228040D01*
X51400000Y-66971960D01*
X51449958Y-66720804D01*
X51547954Y-66484220D01*
X51690226Y-66271295D01*
X51871295Y-66090226D01*
X52084220Y-65947954D01*
X52320804Y-65849958D01*
X52571960Y-65800000D01*
X52828040Y-65800000D01*
X53079196Y-65849958D01*
X53079196Y-65849958D01*
G37*
G36*
X73079196Y-65849958D02*
X73315780Y-65947954D01*
X73528705Y-66090226D01*
X73709774Y-66271295D01*
X73852046Y-66484220D01*
X73950042Y-66720804D01*
X74000000Y-66971960D01*
X74000000Y-67228040D01*
X73950042Y-67479196D01*
X73852046Y-67715780D01*
X73709774Y-67928705D01*
X73528705Y-68109774D01*
X73315780Y-68252046D01*
X73079196Y-68350042D01*
X72828040Y-68400000D01*
X72571960Y-68400000D01*
X72320804Y-68350042D01*
X72084220Y-68252046D01*
X71871295Y-68109774D01*
X71690226Y-67928705D01*
X71547954Y-67715780D01*
X71449958Y-67479196D01*
X71400000Y-67228040D01*
X71400000Y-66971960D01*
X71449958Y-66720804D01*
X71547954Y-66484220D01*
X71690226Y-66271295D01*
X71871295Y-66090226D01*
X72084220Y-65947954D01*
X72320804Y-65849958D01*
X72571960Y-65800000D01*
X72828040Y-65800000D01*
X73079196Y-65849958D01*
X73079196Y-65849958D01*
G37*
G36*
X83079196Y-65849958D02*
X83315780Y-65947954D01*
X83528705Y-66090226D01*
X83709774Y-66271295D01*
X83852046Y-66484220D01*
X83950042Y-66720804D01*
X84000000Y-66971960D01*
X84000000Y-67228040D01*
X83950042Y-67479196D01*
X83852046Y-67715780D01*
X83709774Y-67928705D01*
X83528705Y-68109774D01*
X83315780Y-68252046D01*
X83079196Y-68350042D01*
X82828040Y-68400000D01*
X82571960Y-68400000D01*
X82320804Y-68350042D01*
X82084220Y-68252046D01*
X81871295Y-68109774D01*
X81690226Y-67928705D01*
X81547954Y-67715780D01*
X81449958Y-67479196D01*
X81400000Y-67228040D01*
X81400000Y-66971960D01*
X81449958Y-66720804D01*
X81547954Y-66484220D01*
X81690226Y-66271295D01*
X81871295Y-66090226D01*
X82084220Y-65947954D01*
X82320804Y-65849958D01*
X82571960Y-65800000D01*
X82828040Y-65800000D01*
X83079196Y-65849958D01*
X83079196Y-65849958D01*
G37*
G36*
X160630000Y-67040000D02*
X156230000Y-67040000D01*
X156230000Y-64140000D01*
X160630000Y-64140000D01*
X160630000Y-67040000D01*
X160630000Y-67040000D01*
G37*
G36*
X154530000Y-67040000D02*
X150130000Y-67040000D01*
X150130000Y-64140000D01*
X154530000Y-64140000D01*
X154530000Y-67040000D01*
X154530000Y-67040000D01*
G37*
G36*
X183030717Y-59115156D02*
X183075156Y-59128637D01*
X183116109Y-59150527D01*
X183152010Y-59179990D01*
X183181473Y-59215891D01*
X183203363Y-59256844D01*
X183216844Y-59301283D01*
X183222000Y-59353640D01*
X183222000Y-60066360D01*
X183216844Y-60118717D01*
X183203363Y-60163156D01*
X183181473Y-60204109D01*
X183150371Y-60242007D01*
X183136676Y-60255701D01*
X183123063Y-60276076D01*
X183113685Y-60298715D01*
X183108905Y-60322748D01*
X183108905Y-60347252D01*
X183113686Y-60371286D01*
X183123063Y-60393925D01*
X183136677Y-60414299D01*
X183150370Y-60427992D01*
X183181473Y-60465891D01*
X183203363Y-60506844D01*
X183216844Y-60551283D01*
X183222000Y-60603640D01*
X183222000Y-61316360D01*
X183216844Y-61368717D01*
X183203363Y-61413156D01*
X183181473Y-61454109D01*
X183150371Y-61492007D01*
X183136676Y-61505701D01*
X183123063Y-61526076D01*
X183113685Y-61548715D01*
X183108905Y-61572748D01*
X183108905Y-61597252D01*
X183113686Y-61621286D01*
X183123063Y-61643925D01*
X183136677Y-61664299D01*
X183150370Y-61677992D01*
X183181473Y-61715891D01*
X183203363Y-61756844D01*
X183216844Y-61801283D01*
X183222000Y-61853640D01*
X183222000Y-62566360D01*
X183216844Y-62618717D01*
X183203363Y-62663156D01*
X183181473Y-62704109D01*
X183150371Y-62742007D01*
X183136676Y-62755701D01*
X183123063Y-62776076D01*
X183113685Y-62798715D01*
X183108905Y-62822748D01*
X183108905Y-62847252D01*
X183113686Y-62871286D01*
X183123063Y-62893925D01*
X183136677Y-62914299D01*
X183150370Y-62927992D01*
X183181473Y-62965891D01*
X183203363Y-63006844D01*
X183216844Y-63051283D01*
X183222000Y-63103640D01*
X183222000Y-63816360D01*
X183216844Y-63868717D01*
X183203363Y-63913156D01*
X183181473Y-63954109D01*
X183150371Y-63992007D01*
X183136676Y-64005701D01*
X183123063Y-64026076D01*
X183113685Y-64048715D01*
X183108905Y-64072748D01*
X183108905Y-64097252D01*
X183113686Y-64121286D01*
X183123063Y-64143925D01*
X183136677Y-64164299D01*
X183150370Y-64177992D01*
X183181473Y-64215891D01*
X183203363Y-64256844D01*
X183216844Y-64301283D01*
X183222000Y-64353640D01*
X183222000Y-65066360D01*
X183216844Y-65118717D01*
X183203363Y-65163156D01*
X183181473Y-65204109D01*
X183150371Y-65242007D01*
X183136676Y-65255701D01*
X183123063Y-65276076D01*
X183113685Y-65298715D01*
X183108905Y-65322748D01*
X183108905Y-65347252D01*
X183113686Y-65371286D01*
X183123063Y-65393925D01*
X183136677Y-65414299D01*
X183150370Y-65427992D01*
X183181473Y-65465891D01*
X183203363Y-65506844D01*
X183216844Y-65551283D01*
X183222000Y-65603640D01*
X183222000Y-66316360D01*
X183216844Y-66368717D01*
X183203363Y-66413156D01*
X183181473Y-66454109D01*
X183152010Y-66490010D01*
X183116109Y-66519473D01*
X183075156Y-66541363D01*
X183030717Y-66554844D01*
X182978360Y-66560000D01*
X181765640Y-66560000D01*
X181713283Y-66554844D01*
X181668844Y-66541363D01*
X181627891Y-66519473D01*
X181591990Y-66490010D01*
X181562527Y-66454109D01*
X181540637Y-66413156D01*
X181527156Y-66368717D01*
X181522000Y-66316360D01*
X181522000Y-65603640D01*
X181527156Y-65551283D01*
X181540637Y-65506844D01*
X181562527Y-65465891D01*
X181593629Y-65427993D01*
X181607324Y-65414299D01*
X181620937Y-65393924D01*
X181630315Y-65371285D01*
X181635095Y-65347252D01*
X181635095Y-65322748D01*
X181630314Y-65298714D01*
X181620937Y-65276075D01*
X181607323Y-65255701D01*
X181593630Y-65242008D01*
X181562527Y-65204109D01*
X181540637Y-65163156D01*
X181527156Y-65118717D01*
X181522000Y-65066360D01*
X181522000Y-64353640D01*
X181527156Y-64301283D01*
X181540637Y-64256844D01*
X181562527Y-64215891D01*
X181593629Y-64177993D01*
X181607324Y-64164299D01*
X181620937Y-64143924D01*
X181630315Y-64121285D01*
X181635095Y-64097252D01*
X181635095Y-64072748D01*
X181630314Y-64048714D01*
X181620937Y-64026075D01*
X181607323Y-64005701D01*
X181593630Y-63992008D01*
X181562527Y-63954109D01*
X181540637Y-63913156D01*
X181527156Y-63868717D01*
X181522000Y-63816360D01*
X181522000Y-63103640D01*
X181527156Y-63051283D01*
X181540637Y-63006844D01*
X181562527Y-62965891D01*
X181593629Y-62927993D01*
X181607324Y-62914299D01*
X181620937Y-62893924D01*
X181630315Y-62871285D01*
X181635095Y-62847252D01*
X181635095Y-62822748D01*
X181630314Y-62798714D01*
X181620937Y-62776075D01*
X181607323Y-62755701D01*
X181593630Y-62742008D01*
X181562527Y-62704109D01*
X181540637Y-62663156D01*
X181527156Y-62618717D01*
X181522000Y-62566360D01*
X181522000Y-61853640D01*
X181527156Y-61801283D01*
X181540637Y-61756844D01*
X181562527Y-61715891D01*
X181593629Y-61677993D01*
X181607324Y-61664299D01*
X181620937Y-61643924D01*
X181630315Y-61621285D01*
X181635095Y-61597252D01*
X181635095Y-61572748D01*
X181630314Y-61548714D01*
X181620937Y-61526075D01*
X181607323Y-61505701D01*
X181593630Y-61492008D01*
X181562527Y-61454109D01*
X181540637Y-61413156D01*
X181527156Y-61368717D01*
X181522000Y-61316360D01*
X181522000Y-60603640D01*
X181527156Y-60551283D01*
X181540637Y-60506844D01*
X181562527Y-60465891D01*
X181593629Y-60427993D01*
X181607324Y-60414299D01*
X181620937Y-60393924D01*
X181630315Y-60371285D01*
X181635095Y-60347252D01*
X181635095Y-60322748D01*
X181630314Y-60298714D01*
X181620937Y-60276075D01*
X181607323Y-60255701D01*
X181593630Y-60242008D01*
X181562527Y-60204109D01*
X181540637Y-60163156D01*
X181527156Y-60118717D01*
X181522000Y-60066360D01*
X181522000Y-59353640D01*
X181527156Y-59301283D01*
X181540637Y-59256844D01*
X181562527Y-59215891D01*
X181591990Y-59179990D01*
X181627891Y-59150527D01*
X181668844Y-59128637D01*
X181713283Y-59115156D01*
X181765640Y-59110000D01*
X182978360Y-59110000D01*
X183030717Y-59115156D01*
X183030717Y-59115156D01*
G37*
G36*
X42602947Y-63195722D02*
X42866833Y-63305027D01*
X43104324Y-63463713D01*
X43306287Y-63665676D01*
X43464973Y-63903167D01*
X43574278Y-64167053D01*
X43630000Y-64447186D01*
X43630000Y-64732814D01*
X43574278Y-65012947D01*
X43464973Y-65276833D01*
X43306287Y-65514324D01*
X43104324Y-65716287D01*
X42866833Y-65874973D01*
X42602947Y-65984278D01*
X42322814Y-66040000D01*
X42037186Y-66040000D01*
X41757053Y-65984278D01*
X41493167Y-65874973D01*
X41255676Y-65716287D01*
X41053713Y-65514324D01*
X40895027Y-65276833D01*
X40785722Y-65012947D01*
X40730000Y-64732814D01*
X40730000Y-64447186D01*
X40785722Y-64167053D01*
X40895027Y-63903167D01*
X41053713Y-63665676D01*
X41255676Y-63463713D01*
X41493167Y-63305027D01*
X41757053Y-63195722D01*
X42037186Y-63140000D01*
X42322814Y-63140000D01*
X42602947Y-63195722D01*
X42602947Y-63195722D01*
G37*
G36*
X204602947Y-63195722D02*
X204866833Y-63305027D01*
X205104324Y-63463713D01*
X205306287Y-63665676D01*
X205464973Y-63903167D01*
X205574278Y-64167053D01*
X205630000Y-64447186D01*
X205630000Y-64732814D01*
X205574278Y-65012947D01*
X205464973Y-65276833D01*
X205306287Y-65514324D01*
X205104324Y-65716287D01*
X204866833Y-65874973D01*
X204602947Y-65984278D01*
X204322814Y-66040000D01*
X204037186Y-66040000D01*
X203757053Y-65984278D01*
X203493167Y-65874973D01*
X203255676Y-65716287D01*
X203053713Y-65514324D01*
X202895027Y-65276833D01*
X202785722Y-65012947D01*
X202730000Y-64732814D01*
X202730000Y-64447186D01*
X202785722Y-64167053D01*
X202895027Y-63903167D01*
X203053713Y-63665676D01*
X203255676Y-63463713D01*
X203493167Y-63305027D01*
X203757053Y-63195722D01*
X204037186Y-63140000D01*
X204322814Y-63140000D01*
X204602947Y-63195722D01*
X204602947Y-63195722D01*
G37*
G36*
X84594084Y-58500635D02*
X84686449Y-58528654D01*
X84732633Y-58542663D01*
X84860321Y-58610914D01*
X84972236Y-58702760D01*
X84988374Y-58722424D01*
X85005701Y-58739751D01*
X85026076Y-58753364D01*
X85048715Y-58762742D01*
X85072748Y-58767522D01*
X85097253Y-58767522D01*
X85121286Y-58762741D01*
X85143925Y-58753364D01*
X85164300Y-58739750D01*
X85181626Y-58722424D01*
X85197764Y-58702760D01*
X85309679Y-58610914D01*
X85309678Y-58610914D01*
X85309680Y-58610913D01*
X85369116Y-58579144D01*
X85437366Y-58542663D01*
X85483550Y-58528654D01*
X85575915Y-58500635D01*
X85683895Y-58490000D01*
X85719999Y-58486444D01*
X85720000Y-58486444D01*
X85864084Y-58500635D01*
X85956449Y-58528654D01*
X86002633Y-58542663D01*
X86130321Y-58610914D01*
X86242236Y-58702760D01*
X86258374Y-58722424D01*
X86275701Y-58739751D01*
X86296076Y-58753364D01*
X86318715Y-58762742D01*
X86342748Y-58767522D01*
X86367253Y-58767522D01*
X86391286Y-58762741D01*
X86413925Y-58753364D01*
X86434300Y-58739750D01*
X86451626Y-58722424D01*
X86467764Y-58702760D01*
X86579679Y-58610914D01*
X86579678Y-58610914D01*
X86579680Y-58610913D01*
X86639116Y-58579144D01*
X86707366Y-58542663D01*
X86753550Y-58528654D01*
X86845915Y-58500635D01*
X86953895Y-58490000D01*
X86989999Y-58486444D01*
X86990000Y-58486444D01*
X87134084Y-58500635D01*
X87226449Y-58528654D01*
X87272633Y-58542663D01*
X87400321Y-58610914D01*
X87512238Y-58702762D01*
X87561462Y-58762742D01*
X87604087Y-58814680D01*
X87635856Y-58874116D01*
X87672337Y-58942366D01*
X87686346Y-58988550D01*
X87714365Y-59080915D01*
X87725000Y-59188895D01*
X87725000Y-59991105D01*
X87714365Y-60099085D01*
X87686346Y-60191450D01*
X87672337Y-60237634D01*
X87651789Y-60276076D01*
X87604087Y-60365320D01*
X87512238Y-60477238D01*
X87400320Y-60569087D01*
X87367563Y-60586596D01*
X87272634Y-60637337D01*
X87226450Y-60651346D01*
X87134085Y-60679365D01*
X87038028Y-60688826D01*
X86990001Y-60693556D01*
X86990000Y-60693556D01*
X86845916Y-60679365D01*
X86753551Y-60651346D01*
X86707367Y-60637337D01*
X86612438Y-60586596D01*
X86579681Y-60569087D01*
X86467763Y-60477238D01*
X86451626Y-60457575D01*
X86434301Y-60440250D01*
X86413927Y-60426636D01*
X86391288Y-60417258D01*
X86367255Y-60412477D01*
X86342750Y-60412477D01*
X86318717Y-60417257D01*
X86296078Y-60426634D01*
X86275703Y-60440248D01*
X86258375Y-60457575D01*
X86242238Y-60477238D01*
X86130320Y-60569087D01*
X86097563Y-60586596D01*
X86002634Y-60637337D01*
X85956450Y-60651346D01*
X85864085Y-60679365D01*
X85768028Y-60688826D01*
X85720001Y-60693556D01*
X85720000Y-60693556D01*
X85575916Y-60679365D01*
X85483551Y-60651346D01*
X85437367Y-60637337D01*
X85342438Y-60586596D01*
X85309681Y-60569087D01*
X85197763Y-60477238D01*
X85181626Y-60457575D01*
X85164301Y-60440250D01*
X85143927Y-60426636D01*
X85121288Y-60417258D01*
X85097255Y-60412477D01*
X85072750Y-60412477D01*
X85048717Y-60417257D01*
X85026078Y-60426634D01*
X85005703Y-60440248D01*
X84988375Y-60457575D01*
X84972238Y-60477238D01*
X84860320Y-60569087D01*
X84827563Y-60586596D01*
X84732634Y-60637337D01*
X84686450Y-60651346D01*
X84594085Y-60679365D01*
X84498028Y-60688826D01*
X84450001Y-60693556D01*
X84450000Y-60693556D01*
X84305916Y-60679365D01*
X84203416Y-60648272D01*
X84167364Y-60637336D01*
X84098924Y-60600754D01*
X84076285Y-60591376D01*
X84052252Y-60586596D01*
X84027748Y-60586596D01*
X84003714Y-60591377D01*
X83981075Y-60600754D01*
X83960701Y-60614368D01*
X83943373Y-60631695D01*
X83929760Y-60652070D01*
X83920382Y-60674709D01*
X83918114Y-60690000D01*
X82445000Y-60690000D01*
X82445000Y-58490000D01*
X83917068Y-58490000D01*
X83917402Y-58493392D01*
X83924515Y-58516841D01*
X83936066Y-58538452D01*
X83951612Y-58557394D01*
X83970554Y-58572940D01*
X83992165Y-58584491D01*
X84015614Y-58591604D01*
X84040000Y-58594006D01*
X84064386Y-58591604D01*
X84087835Y-58584491D01*
X84098925Y-58579246D01*
X84167366Y-58542663D01*
X84213550Y-58528654D01*
X84305915Y-58500635D01*
X84413895Y-58490000D01*
X84449999Y-58486444D01*
X84450000Y-58486444D01*
X84594084Y-58500635D01*
X84594084Y-58500635D01*
G37*
G36*
X69594084Y-58500635D02*
X69686449Y-58528654D01*
X69732633Y-58542663D01*
X69860321Y-58610914D01*
X69972236Y-58702760D01*
X69988374Y-58722424D01*
X70005701Y-58739751D01*
X70026076Y-58753364D01*
X70048715Y-58762742D01*
X70072748Y-58767522D01*
X70097253Y-58767522D01*
X70121286Y-58762741D01*
X70143925Y-58753364D01*
X70164300Y-58739750D01*
X70181626Y-58722424D01*
X70197764Y-58702760D01*
X70309679Y-58610914D01*
X70309678Y-58610914D01*
X70309680Y-58610913D01*
X70369116Y-58579144D01*
X70437366Y-58542663D01*
X70483550Y-58528654D01*
X70575915Y-58500635D01*
X70683895Y-58490000D01*
X70719999Y-58486444D01*
X70720000Y-58486444D01*
X70864084Y-58500635D01*
X70956449Y-58528654D01*
X71002633Y-58542663D01*
X71130321Y-58610914D01*
X71242236Y-58702760D01*
X71258374Y-58722424D01*
X71275701Y-58739751D01*
X71296076Y-58753364D01*
X71318715Y-58762742D01*
X71342748Y-58767522D01*
X71367253Y-58767522D01*
X71391286Y-58762741D01*
X71413925Y-58753364D01*
X71434300Y-58739750D01*
X71451626Y-58722424D01*
X71467764Y-58702760D01*
X71579679Y-58610914D01*
X71579678Y-58610914D01*
X71579680Y-58610913D01*
X71639116Y-58579144D01*
X71707366Y-58542663D01*
X71753550Y-58528654D01*
X71845915Y-58500635D01*
X71953895Y-58490000D01*
X71989999Y-58486444D01*
X71990000Y-58486444D01*
X72134084Y-58500635D01*
X72226449Y-58528654D01*
X72272633Y-58542663D01*
X72400321Y-58610914D01*
X72512238Y-58702762D01*
X72561462Y-58762742D01*
X72604087Y-58814680D01*
X72635856Y-58874116D01*
X72672337Y-58942366D01*
X72686346Y-58988550D01*
X72714365Y-59080915D01*
X72725000Y-59188895D01*
X72725000Y-59991105D01*
X72714365Y-60099085D01*
X72686346Y-60191450D01*
X72672337Y-60237634D01*
X72651789Y-60276076D01*
X72604087Y-60365320D01*
X72512238Y-60477238D01*
X72400320Y-60569087D01*
X72367563Y-60586596D01*
X72272634Y-60637337D01*
X72226450Y-60651346D01*
X72134085Y-60679365D01*
X72038028Y-60688826D01*
X71990001Y-60693556D01*
X71990000Y-60693556D01*
X71845916Y-60679365D01*
X71753551Y-60651346D01*
X71707367Y-60637337D01*
X71612438Y-60586596D01*
X71579681Y-60569087D01*
X71467763Y-60477238D01*
X71451626Y-60457575D01*
X71434301Y-60440250D01*
X71413927Y-60426636D01*
X71391288Y-60417258D01*
X71367255Y-60412477D01*
X71342750Y-60412477D01*
X71318717Y-60417257D01*
X71296078Y-60426634D01*
X71275703Y-60440248D01*
X71258375Y-60457575D01*
X71242238Y-60477238D01*
X71130320Y-60569087D01*
X71097563Y-60586596D01*
X71002634Y-60637337D01*
X70956450Y-60651346D01*
X70864085Y-60679365D01*
X70768028Y-60688826D01*
X70720001Y-60693556D01*
X70720000Y-60693556D01*
X70575916Y-60679365D01*
X70483551Y-60651346D01*
X70437367Y-60637337D01*
X70342438Y-60586596D01*
X70309681Y-60569087D01*
X70197763Y-60477238D01*
X70181626Y-60457575D01*
X70164301Y-60440250D01*
X70143927Y-60426636D01*
X70121288Y-60417258D01*
X70097255Y-60412477D01*
X70072750Y-60412477D01*
X70048717Y-60417257D01*
X70026078Y-60426634D01*
X70005703Y-60440248D01*
X69988375Y-60457575D01*
X69972238Y-60477238D01*
X69860320Y-60569087D01*
X69827563Y-60586596D01*
X69732634Y-60637337D01*
X69686450Y-60651346D01*
X69594085Y-60679365D01*
X69498028Y-60688826D01*
X69450001Y-60693556D01*
X69450000Y-60693556D01*
X69305916Y-60679365D01*
X69203416Y-60648272D01*
X69167364Y-60637336D01*
X69098924Y-60600754D01*
X69076285Y-60591376D01*
X69052252Y-60586596D01*
X69027748Y-60586596D01*
X69003714Y-60591377D01*
X68981075Y-60600754D01*
X68960701Y-60614368D01*
X68943373Y-60631695D01*
X68929760Y-60652070D01*
X68920382Y-60674709D01*
X68918114Y-60690000D01*
X67445000Y-60690000D01*
X67445000Y-58490000D01*
X68917068Y-58490000D01*
X68917402Y-58493392D01*
X68924515Y-58516841D01*
X68936066Y-58538452D01*
X68951612Y-58557394D01*
X68970554Y-58572940D01*
X68992165Y-58584491D01*
X69015614Y-58591604D01*
X69040000Y-58594006D01*
X69064386Y-58591604D01*
X69087835Y-58584491D01*
X69098925Y-58579246D01*
X69167366Y-58542663D01*
X69213550Y-58528654D01*
X69305915Y-58500635D01*
X69413895Y-58490000D01*
X69449999Y-58486444D01*
X69450000Y-58486444D01*
X69594084Y-58500635D01*
X69594084Y-58500635D01*
G37*
G36*
X99594084Y-58500635D02*
X99686449Y-58528654D01*
X99732633Y-58542663D01*
X99860321Y-58610914D01*
X99972236Y-58702760D01*
X99988374Y-58722424D01*
X100005701Y-58739751D01*
X100026076Y-58753364D01*
X100048715Y-58762742D01*
X100072748Y-58767522D01*
X100097253Y-58767522D01*
X100121286Y-58762741D01*
X100143925Y-58753364D01*
X100164300Y-58739750D01*
X100181626Y-58722424D01*
X100197764Y-58702760D01*
X100309679Y-58610914D01*
X100309678Y-58610914D01*
X100309680Y-58610913D01*
X100369116Y-58579144D01*
X100437366Y-58542663D01*
X100483550Y-58528654D01*
X100575915Y-58500635D01*
X100683895Y-58490000D01*
X100719999Y-58486444D01*
X100720000Y-58486444D01*
X100864084Y-58500635D01*
X100956449Y-58528654D01*
X101002633Y-58542663D01*
X101130321Y-58610914D01*
X101242236Y-58702760D01*
X101258374Y-58722424D01*
X101275701Y-58739751D01*
X101296076Y-58753364D01*
X101318715Y-58762742D01*
X101342748Y-58767522D01*
X101367253Y-58767522D01*
X101391286Y-58762741D01*
X101413925Y-58753364D01*
X101434300Y-58739750D01*
X101451626Y-58722424D01*
X101467764Y-58702760D01*
X101579679Y-58610914D01*
X101579678Y-58610914D01*
X101579680Y-58610913D01*
X101639116Y-58579144D01*
X101707366Y-58542663D01*
X101753550Y-58528654D01*
X101845915Y-58500635D01*
X101953895Y-58490000D01*
X101989999Y-58486444D01*
X101990000Y-58486444D01*
X102134084Y-58500635D01*
X102226449Y-58528654D01*
X102272633Y-58542663D01*
X102400321Y-58610914D01*
X102512238Y-58702762D01*
X102561462Y-58762742D01*
X102604087Y-58814680D01*
X102635856Y-58874116D01*
X102672337Y-58942366D01*
X102686346Y-58988550D01*
X102714365Y-59080915D01*
X102725000Y-59188895D01*
X102725000Y-59991105D01*
X102714365Y-60099085D01*
X102686346Y-60191450D01*
X102672337Y-60237634D01*
X102651789Y-60276076D01*
X102604087Y-60365320D01*
X102512238Y-60477238D01*
X102400320Y-60569087D01*
X102367563Y-60586596D01*
X102272634Y-60637337D01*
X102226450Y-60651346D01*
X102134085Y-60679365D01*
X102038028Y-60688826D01*
X101990001Y-60693556D01*
X101990000Y-60693556D01*
X101845916Y-60679365D01*
X101753551Y-60651346D01*
X101707367Y-60637337D01*
X101612438Y-60586596D01*
X101579681Y-60569087D01*
X101467763Y-60477238D01*
X101451626Y-60457575D01*
X101434301Y-60440250D01*
X101413927Y-60426636D01*
X101391288Y-60417258D01*
X101367255Y-60412477D01*
X101342750Y-60412477D01*
X101318717Y-60417257D01*
X101296078Y-60426634D01*
X101275703Y-60440248D01*
X101258375Y-60457575D01*
X101242238Y-60477238D01*
X101130320Y-60569087D01*
X101097563Y-60586596D01*
X101002634Y-60637337D01*
X100956450Y-60651346D01*
X100864085Y-60679365D01*
X100768028Y-60688826D01*
X100720001Y-60693556D01*
X100720000Y-60693556D01*
X100575916Y-60679365D01*
X100483551Y-60651346D01*
X100437367Y-60637337D01*
X100342438Y-60586596D01*
X100309681Y-60569087D01*
X100197763Y-60477238D01*
X100181626Y-60457575D01*
X100164301Y-60440250D01*
X100143927Y-60426636D01*
X100121288Y-60417258D01*
X100097255Y-60412477D01*
X100072750Y-60412477D01*
X100048717Y-60417257D01*
X100026078Y-60426634D01*
X100005703Y-60440248D01*
X99988375Y-60457575D01*
X99972238Y-60477238D01*
X99860320Y-60569087D01*
X99827563Y-60586596D01*
X99732634Y-60637337D01*
X99686450Y-60651346D01*
X99594085Y-60679365D01*
X99498028Y-60688826D01*
X99450001Y-60693556D01*
X99450000Y-60693556D01*
X99305916Y-60679365D01*
X99203416Y-60648272D01*
X99167364Y-60637336D01*
X99098924Y-60600754D01*
X99076285Y-60591376D01*
X99052252Y-60586596D01*
X99027748Y-60586596D01*
X99003714Y-60591377D01*
X98981075Y-60600754D01*
X98960701Y-60614368D01*
X98943373Y-60631695D01*
X98929760Y-60652070D01*
X98920382Y-60674709D01*
X98918114Y-60690000D01*
X97445000Y-60690000D01*
X97445000Y-58490000D01*
X98917068Y-58490000D01*
X98917402Y-58493392D01*
X98924515Y-58516841D01*
X98936066Y-58538452D01*
X98951612Y-58557394D01*
X98970554Y-58572940D01*
X98992165Y-58584491D01*
X99015614Y-58591604D01*
X99040000Y-58594006D01*
X99064386Y-58591604D01*
X99087835Y-58584491D01*
X99098925Y-58579246D01*
X99167366Y-58542663D01*
X99213550Y-58528654D01*
X99305915Y-58500635D01*
X99413895Y-58490000D01*
X99449999Y-58486444D01*
X99450000Y-58486444D01*
X99594084Y-58500635D01*
X99594084Y-58500635D01*
G37*
G36*
X129594084Y-58500635D02*
X129686449Y-58528654D01*
X129732633Y-58542663D01*
X129860321Y-58610914D01*
X129972236Y-58702760D01*
X129988374Y-58722424D01*
X130005701Y-58739751D01*
X130026076Y-58753364D01*
X130048715Y-58762742D01*
X130072748Y-58767522D01*
X130097253Y-58767522D01*
X130121286Y-58762741D01*
X130143925Y-58753364D01*
X130164300Y-58739750D01*
X130181626Y-58722424D01*
X130197764Y-58702760D01*
X130309679Y-58610914D01*
X130309678Y-58610914D01*
X130309680Y-58610913D01*
X130369116Y-58579144D01*
X130437366Y-58542663D01*
X130483550Y-58528654D01*
X130575915Y-58500635D01*
X130683895Y-58490000D01*
X130719999Y-58486444D01*
X130720000Y-58486444D01*
X130864084Y-58500635D01*
X130956449Y-58528654D01*
X131002633Y-58542663D01*
X131130321Y-58610914D01*
X131242236Y-58702760D01*
X131258374Y-58722424D01*
X131275701Y-58739751D01*
X131296076Y-58753364D01*
X131318715Y-58762742D01*
X131342748Y-58767522D01*
X131367253Y-58767522D01*
X131391286Y-58762741D01*
X131413925Y-58753364D01*
X131434300Y-58739750D01*
X131451626Y-58722424D01*
X131467764Y-58702760D01*
X131579679Y-58610914D01*
X131579678Y-58610914D01*
X131579680Y-58610913D01*
X131639116Y-58579144D01*
X131707366Y-58542663D01*
X131753550Y-58528654D01*
X131845915Y-58500635D01*
X131953895Y-58490000D01*
X131989999Y-58486444D01*
X131990000Y-58486444D01*
X132134084Y-58500635D01*
X132226449Y-58528654D01*
X132272633Y-58542663D01*
X132400321Y-58610914D01*
X132512238Y-58702762D01*
X132561462Y-58762742D01*
X132604087Y-58814680D01*
X132635856Y-58874116D01*
X132672337Y-58942366D01*
X132686346Y-58988550D01*
X132714365Y-59080915D01*
X132725000Y-59188895D01*
X132725000Y-59991105D01*
X132714365Y-60099085D01*
X132686346Y-60191450D01*
X132672337Y-60237634D01*
X132651789Y-60276076D01*
X132604087Y-60365320D01*
X132512238Y-60477238D01*
X132400320Y-60569087D01*
X132367563Y-60586596D01*
X132272634Y-60637337D01*
X132226450Y-60651346D01*
X132134085Y-60679365D01*
X132038028Y-60688826D01*
X131990001Y-60693556D01*
X131990000Y-60693556D01*
X131845916Y-60679365D01*
X131753551Y-60651346D01*
X131707367Y-60637337D01*
X131612438Y-60586596D01*
X131579681Y-60569087D01*
X131467763Y-60477238D01*
X131451626Y-60457575D01*
X131434301Y-60440250D01*
X131413927Y-60426636D01*
X131391288Y-60417258D01*
X131367255Y-60412477D01*
X131342750Y-60412477D01*
X131318717Y-60417257D01*
X131296078Y-60426634D01*
X131275703Y-60440248D01*
X131258375Y-60457575D01*
X131242238Y-60477238D01*
X131130320Y-60569087D01*
X131097563Y-60586596D01*
X131002634Y-60637337D01*
X130956450Y-60651346D01*
X130864085Y-60679365D01*
X130768028Y-60688826D01*
X130720001Y-60693556D01*
X130720000Y-60693556D01*
X130575916Y-60679365D01*
X130483551Y-60651346D01*
X130437367Y-60637337D01*
X130342438Y-60586596D01*
X130309681Y-60569087D01*
X130197763Y-60477238D01*
X130181626Y-60457575D01*
X130164301Y-60440250D01*
X130143927Y-60426636D01*
X130121288Y-60417258D01*
X130097255Y-60412477D01*
X130072750Y-60412477D01*
X130048717Y-60417257D01*
X130026078Y-60426634D01*
X130005703Y-60440248D01*
X129988375Y-60457575D01*
X129972238Y-60477238D01*
X129860320Y-60569087D01*
X129827563Y-60586596D01*
X129732634Y-60637337D01*
X129686450Y-60651346D01*
X129594085Y-60679365D01*
X129498028Y-60688826D01*
X129450001Y-60693556D01*
X129450000Y-60693556D01*
X129305916Y-60679365D01*
X129203416Y-60648272D01*
X129167364Y-60637336D01*
X129098924Y-60600754D01*
X129076285Y-60591376D01*
X129052252Y-60586596D01*
X129027748Y-60586596D01*
X129003714Y-60591377D01*
X128981075Y-60600754D01*
X128960701Y-60614368D01*
X128943373Y-60631695D01*
X128929760Y-60652070D01*
X128920382Y-60674709D01*
X128918114Y-60690000D01*
X127445000Y-60690000D01*
X127445000Y-58490000D01*
X128917068Y-58490000D01*
X128917402Y-58493392D01*
X128924515Y-58516841D01*
X128936066Y-58538452D01*
X128951612Y-58557394D01*
X128970554Y-58572940D01*
X128992165Y-58584491D01*
X129015614Y-58591604D01*
X129040000Y-58594006D01*
X129064386Y-58591604D01*
X129087835Y-58584491D01*
X129098925Y-58579246D01*
X129167366Y-58542663D01*
X129213550Y-58528654D01*
X129305915Y-58500635D01*
X129413895Y-58490000D01*
X129449999Y-58486444D01*
X129450000Y-58486444D01*
X129594084Y-58500635D01*
X129594084Y-58500635D01*
G37*
G36*
X54594084Y-58500635D02*
X54686449Y-58528654D01*
X54732633Y-58542663D01*
X54860321Y-58610914D01*
X54972236Y-58702760D01*
X54988374Y-58722424D01*
X55005701Y-58739751D01*
X55026076Y-58753364D01*
X55048715Y-58762742D01*
X55072748Y-58767522D01*
X55097253Y-58767522D01*
X55121286Y-58762741D01*
X55143925Y-58753364D01*
X55164300Y-58739750D01*
X55181626Y-58722424D01*
X55197764Y-58702760D01*
X55309679Y-58610914D01*
X55309678Y-58610914D01*
X55309680Y-58610913D01*
X55369116Y-58579144D01*
X55437366Y-58542663D01*
X55483550Y-58528654D01*
X55575915Y-58500635D01*
X55683895Y-58490000D01*
X55719999Y-58486444D01*
X55720000Y-58486444D01*
X55864084Y-58500635D01*
X55956449Y-58528654D01*
X56002633Y-58542663D01*
X56130321Y-58610914D01*
X56242236Y-58702760D01*
X56258374Y-58722424D01*
X56275701Y-58739751D01*
X56296076Y-58753364D01*
X56318715Y-58762742D01*
X56342748Y-58767522D01*
X56367253Y-58767522D01*
X56391286Y-58762741D01*
X56413925Y-58753364D01*
X56434300Y-58739750D01*
X56451626Y-58722424D01*
X56467764Y-58702760D01*
X56579679Y-58610914D01*
X56579678Y-58610914D01*
X56579680Y-58610913D01*
X56639116Y-58579144D01*
X56707366Y-58542663D01*
X56753550Y-58528654D01*
X56845915Y-58500635D01*
X56953895Y-58490000D01*
X56989999Y-58486444D01*
X56990000Y-58486444D01*
X57134084Y-58500635D01*
X57226449Y-58528654D01*
X57272633Y-58542663D01*
X57400321Y-58610914D01*
X57512238Y-58702762D01*
X57561462Y-58762742D01*
X57604087Y-58814680D01*
X57635856Y-58874116D01*
X57672337Y-58942366D01*
X57686346Y-58988550D01*
X57714365Y-59080915D01*
X57725000Y-59188895D01*
X57725000Y-59991105D01*
X57714365Y-60099085D01*
X57686346Y-60191450D01*
X57672337Y-60237634D01*
X57651789Y-60276076D01*
X57604087Y-60365320D01*
X57512238Y-60477238D01*
X57400320Y-60569087D01*
X57367563Y-60586596D01*
X57272634Y-60637337D01*
X57226450Y-60651346D01*
X57134085Y-60679365D01*
X57038028Y-60688826D01*
X56990001Y-60693556D01*
X56990000Y-60693556D01*
X56845916Y-60679365D01*
X56753551Y-60651346D01*
X56707367Y-60637337D01*
X56612438Y-60586596D01*
X56579681Y-60569087D01*
X56467763Y-60477238D01*
X56451626Y-60457575D01*
X56434301Y-60440250D01*
X56413927Y-60426636D01*
X56391288Y-60417258D01*
X56367255Y-60412477D01*
X56342750Y-60412477D01*
X56318717Y-60417257D01*
X56296078Y-60426634D01*
X56275703Y-60440248D01*
X56258375Y-60457575D01*
X56242238Y-60477238D01*
X56130320Y-60569087D01*
X56097563Y-60586596D01*
X56002634Y-60637337D01*
X55956450Y-60651346D01*
X55864085Y-60679365D01*
X55768028Y-60688826D01*
X55720001Y-60693556D01*
X55720000Y-60693556D01*
X55575916Y-60679365D01*
X55483551Y-60651346D01*
X55437367Y-60637337D01*
X55342438Y-60586596D01*
X55309681Y-60569087D01*
X55197763Y-60477238D01*
X55181626Y-60457575D01*
X55164301Y-60440250D01*
X55143927Y-60426636D01*
X55121288Y-60417258D01*
X55097255Y-60412477D01*
X55072750Y-60412477D01*
X55048717Y-60417257D01*
X55026078Y-60426634D01*
X55005703Y-60440248D01*
X54988375Y-60457575D01*
X54972238Y-60477238D01*
X54860320Y-60569087D01*
X54827563Y-60586596D01*
X54732634Y-60637337D01*
X54686450Y-60651346D01*
X54594085Y-60679365D01*
X54498028Y-60688826D01*
X54450001Y-60693556D01*
X54450000Y-60693556D01*
X54305916Y-60679365D01*
X54203416Y-60648272D01*
X54167364Y-60637336D01*
X54098924Y-60600754D01*
X54076285Y-60591376D01*
X54052252Y-60586596D01*
X54027748Y-60586596D01*
X54003714Y-60591377D01*
X53981075Y-60600754D01*
X53960701Y-60614368D01*
X53943373Y-60631695D01*
X53929760Y-60652070D01*
X53920382Y-60674709D01*
X53918114Y-60690000D01*
X52445000Y-60690000D01*
X52445000Y-58490000D01*
X53917068Y-58490000D01*
X53917402Y-58493392D01*
X53924515Y-58516841D01*
X53936066Y-58538452D01*
X53951612Y-58557394D01*
X53970554Y-58572940D01*
X53992165Y-58584491D01*
X54015614Y-58591604D01*
X54040000Y-58594006D01*
X54064386Y-58591604D01*
X54087835Y-58584491D01*
X54098925Y-58579246D01*
X54167366Y-58542663D01*
X54213550Y-58528654D01*
X54305915Y-58500635D01*
X54413895Y-58490000D01*
X54449999Y-58486444D01*
X54450000Y-58486444D01*
X54594084Y-58500635D01*
X54594084Y-58500635D01*
G37*
G36*
X154594084Y-58500635D02*
X154686449Y-58528654D01*
X154732633Y-58542663D01*
X154860321Y-58610914D01*
X154972236Y-58702760D01*
X154988374Y-58722424D01*
X155005701Y-58739751D01*
X155026076Y-58753364D01*
X155048715Y-58762742D01*
X155072748Y-58767522D01*
X155097253Y-58767522D01*
X155121286Y-58762741D01*
X155143925Y-58753364D01*
X155164300Y-58739750D01*
X155181626Y-58722424D01*
X155197764Y-58702760D01*
X155309679Y-58610914D01*
X155309678Y-58610914D01*
X155309680Y-58610913D01*
X155369116Y-58579144D01*
X155437366Y-58542663D01*
X155483550Y-58528654D01*
X155575915Y-58500635D01*
X155683895Y-58490000D01*
X155719999Y-58486444D01*
X155720000Y-58486444D01*
X155864084Y-58500635D01*
X155956449Y-58528654D01*
X156002633Y-58542663D01*
X156130321Y-58610914D01*
X156242236Y-58702760D01*
X156258374Y-58722424D01*
X156275701Y-58739751D01*
X156296076Y-58753364D01*
X156318715Y-58762742D01*
X156342748Y-58767522D01*
X156367253Y-58767522D01*
X156391286Y-58762741D01*
X156413925Y-58753364D01*
X156434300Y-58739750D01*
X156451626Y-58722424D01*
X156467764Y-58702760D01*
X156579679Y-58610914D01*
X156579678Y-58610914D01*
X156579680Y-58610913D01*
X156639116Y-58579144D01*
X156707366Y-58542663D01*
X156753550Y-58528654D01*
X156845915Y-58500635D01*
X156953895Y-58490000D01*
X156989999Y-58486444D01*
X156990000Y-58486444D01*
X157134084Y-58500635D01*
X157226449Y-58528654D01*
X157272633Y-58542663D01*
X157400321Y-58610914D01*
X157512238Y-58702762D01*
X157561462Y-58762742D01*
X157604087Y-58814680D01*
X157635856Y-58874116D01*
X157672337Y-58942366D01*
X157686346Y-58988550D01*
X157714365Y-59080915D01*
X157725000Y-59188895D01*
X157725000Y-59991105D01*
X157714365Y-60099085D01*
X157686346Y-60191450D01*
X157672337Y-60237634D01*
X157651789Y-60276076D01*
X157604087Y-60365320D01*
X157512238Y-60477238D01*
X157400320Y-60569087D01*
X157367563Y-60586596D01*
X157272634Y-60637337D01*
X157226450Y-60651346D01*
X157134085Y-60679365D01*
X157038028Y-60688826D01*
X156990001Y-60693556D01*
X156990000Y-60693556D01*
X156845916Y-60679365D01*
X156753551Y-60651346D01*
X156707367Y-60637337D01*
X156612438Y-60586596D01*
X156579681Y-60569087D01*
X156467763Y-60477238D01*
X156451626Y-60457575D01*
X156434301Y-60440250D01*
X156413927Y-60426636D01*
X156391288Y-60417258D01*
X156367255Y-60412477D01*
X156342750Y-60412477D01*
X156318717Y-60417257D01*
X156296078Y-60426634D01*
X156275703Y-60440248D01*
X156258375Y-60457575D01*
X156242238Y-60477238D01*
X156130320Y-60569087D01*
X156097563Y-60586596D01*
X156002634Y-60637337D01*
X155956450Y-60651346D01*
X155864085Y-60679365D01*
X155768028Y-60688826D01*
X155720001Y-60693556D01*
X155720000Y-60693556D01*
X155575916Y-60679365D01*
X155483551Y-60651346D01*
X155437367Y-60637337D01*
X155342438Y-60586596D01*
X155309681Y-60569087D01*
X155197763Y-60477238D01*
X155181626Y-60457575D01*
X155164301Y-60440250D01*
X155143927Y-60426636D01*
X155121288Y-60417258D01*
X155097255Y-60412477D01*
X155072750Y-60412477D01*
X155048717Y-60417257D01*
X155026078Y-60426634D01*
X155005703Y-60440248D01*
X154988375Y-60457575D01*
X154972238Y-60477238D01*
X154860320Y-60569087D01*
X154827563Y-60586596D01*
X154732634Y-60637337D01*
X154686450Y-60651346D01*
X154594085Y-60679365D01*
X154498028Y-60688826D01*
X154450001Y-60693556D01*
X154450000Y-60693556D01*
X154305916Y-60679365D01*
X154203416Y-60648272D01*
X154167364Y-60637336D01*
X154098924Y-60600754D01*
X154076285Y-60591376D01*
X154052252Y-60586596D01*
X154027748Y-60586596D01*
X154003714Y-60591377D01*
X153981075Y-60600754D01*
X153960701Y-60614368D01*
X153943373Y-60631695D01*
X153929760Y-60652070D01*
X153920382Y-60674709D01*
X153918114Y-60690000D01*
X152445000Y-60690000D01*
X152445000Y-58490000D01*
X153917068Y-58490000D01*
X153917402Y-58493392D01*
X153924515Y-58516841D01*
X153936066Y-58538452D01*
X153951612Y-58557394D01*
X153970554Y-58572940D01*
X153992165Y-58584491D01*
X154015614Y-58591604D01*
X154040000Y-58594006D01*
X154064386Y-58591604D01*
X154087835Y-58584491D01*
X154098925Y-58579246D01*
X154167366Y-58542663D01*
X154213550Y-58528654D01*
X154305915Y-58500635D01*
X154413895Y-58490000D01*
X154449999Y-58486444D01*
X154450000Y-58486444D01*
X154594084Y-58500635D01*
X154594084Y-58500635D01*
G37*
G36*
X114594084Y-58500635D02*
X114686449Y-58528654D01*
X114732633Y-58542663D01*
X114860321Y-58610914D01*
X114972236Y-58702760D01*
X114988374Y-58722424D01*
X115005701Y-58739751D01*
X115026076Y-58753364D01*
X115048715Y-58762742D01*
X115072748Y-58767522D01*
X115097253Y-58767522D01*
X115121286Y-58762741D01*
X115143925Y-58753364D01*
X115164300Y-58739750D01*
X115181626Y-58722424D01*
X115197764Y-58702760D01*
X115309679Y-58610914D01*
X115309678Y-58610914D01*
X115309680Y-58610913D01*
X115369116Y-58579144D01*
X115437366Y-58542663D01*
X115483550Y-58528654D01*
X115575915Y-58500635D01*
X115683895Y-58490000D01*
X115719999Y-58486444D01*
X115720000Y-58486444D01*
X115864084Y-58500635D01*
X115956449Y-58528654D01*
X116002633Y-58542663D01*
X116130321Y-58610914D01*
X116242236Y-58702760D01*
X116258374Y-58722424D01*
X116275701Y-58739751D01*
X116296076Y-58753364D01*
X116318715Y-58762742D01*
X116342748Y-58767522D01*
X116367253Y-58767522D01*
X116391286Y-58762741D01*
X116413925Y-58753364D01*
X116434300Y-58739750D01*
X116451626Y-58722424D01*
X116467764Y-58702760D01*
X116579679Y-58610914D01*
X116579678Y-58610914D01*
X116579680Y-58610913D01*
X116639116Y-58579144D01*
X116707366Y-58542663D01*
X116753550Y-58528654D01*
X116845915Y-58500635D01*
X116953895Y-58490000D01*
X116989999Y-58486444D01*
X116990000Y-58486444D01*
X117134084Y-58500635D01*
X117226449Y-58528654D01*
X117272633Y-58542663D01*
X117400321Y-58610914D01*
X117512238Y-58702762D01*
X117561462Y-58762742D01*
X117604087Y-58814680D01*
X117635856Y-58874116D01*
X117672337Y-58942366D01*
X117686346Y-58988550D01*
X117714365Y-59080915D01*
X117725000Y-59188895D01*
X117725000Y-59991105D01*
X117714365Y-60099085D01*
X117686346Y-60191450D01*
X117672337Y-60237634D01*
X117651789Y-60276076D01*
X117604087Y-60365320D01*
X117512238Y-60477238D01*
X117400320Y-60569087D01*
X117367563Y-60586596D01*
X117272634Y-60637337D01*
X117226450Y-60651346D01*
X117134085Y-60679365D01*
X117038028Y-60688826D01*
X116990001Y-60693556D01*
X116990000Y-60693556D01*
X116845916Y-60679365D01*
X116753551Y-60651346D01*
X116707367Y-60637337D01*
X116612438Y-60586596D01*
X116579681Y-60569087D01*
X116467763Y-60477238D01*
X116451626Y-60457575D01*
X116434301Y-60440250D01*
X116413927Y-60426636D01*
X116391288Y-60417258D01*
X116367255Y-60412477D01*
X116342750Y-60412477D01*
X116318717Y-60417257D01*
X116296078Y-60426634D01*
X116275703Y-60440248D01*
X116258375Y-60457575D01*
X116242238Y-60477238D01*
X116130320Y-60569087D01*
X116097563Y-60586596D01*
X116002634Y-60637337D01*
X115956450Y-60651346D01*
X115864085Y-60679365D01*
X115768028Y-60688826D01*
X115720001Y-60693556D01*
X115720000Y-60693556D01*
X115575916Y-60679365D01*
X115483551Y-60651346D01*
X115437367Y-60637337D01*
X115342438Y-60586596D01*
X115309681Y-60569087D01*
X115197763Y-60477238D01*
X115181626Y-60457575D01*
X115164301Y-60440250D01*
X115143927Y-60426636D01*
X115121288Y-60417258D01*
X115097255Y-60412477D01*
X115072750Y-60412477D01*
X115048717Y-60417257D01*
X115026078Y-60426634D01*
X115005703Y-60440248D01*
X114988375Y-60457575D01*
X114972238Y-60477238D01*
X114860320Y-60569087D01*
X114827563Y-60586596D01*
X114732634Y-60637337D01*
X114686450Y-60651346D01*
X114594085Y-60679365D01*
X114498028Y-60688826D01*
X114450001Y-60693556D01*
X114450000Y-60693556D01*
X114305916Y-60679365D01*
X114203416Y-60648272D01*
X114167364Y-60637336D01*
X114098924Y-60600754D01*
X114076285Y-60591376D01*
X114052252Y-60586596D01*
X114027748Y-60586596D01*
X114003714Y-60591377D01*
X113981075Y-60600754D01*
X113960701Y-60614368D01*
X113943373Y-60631695D01*
X113929760Y-60652070D01*
X113920382Y-60674709D01*
X113918114Y-60690000D01*
X112445000Y-60690000D01*
X112445000Y-58490000D01*
X113917068Y-58490000D01*
X113917402Y-58493392D01*
X113924515Y-58516841D01*
X113936066Y-58538452D01*
X113951612Y-58557394D01*
X113970554Y-58572940D01*
X113992165Y-58584491D01*
X114015614Y-58591604D01*
X114040000Y-58594006D01*
X114064386Y-58591604D01*
X114087835Y-58584491D01*
X114098925Y-58579246D01*
X114167366Y-58542663D01*
X114213550Y-58528654D01*
X114305915Y-58500635D01*
X114413895Y-58490000D01*
X114449999Y-58486444D01*
X114450000Y-58486444D01*
X114594084Y-58500635D01*
X114594084Y-58500635D01*
G37*
G36*
X186658983Y-55914482D02*
X186696833Y-55925963D01*
X186731723Y-55944613D01*
X186762296Y-55969704D01*
X186787387Y-56000277D01*
X186806037Y-56035167D01*
X186817518Y-56073017D01*
X186822000Y-56118523D01*
X186822000Y-58201477D01*
X186817518Y-58246983D01*
X186806037Y-58284833D01*
X186787387Y-58319723D01*
X186762296Y-58350296D01*
X186731723Y-58375387D01*
X186696833Y-58394037D01*
X186658983Y-58405518D01*
X186613477Y-58410000D01*
X183630523Y-58410000D01*
X183585017Y-58405518D01*
X183547167Y-58394037D01*
X183512277Y-58375387D01*
X183481704Y-58350296D01*
X183456613Y-58319723D01*
X183437963Y-58284833D01*
X183426482Y-58246983D01*
X183422000Y-58201477D01*
X183422000Y-56118523D01*
X183426482Y-56073017D01*
X183437963Y-56035167D01*
X183456613Y-56000277D01*
X183481704Y-55969704D01*
X183512277Y-55944613D01*
X183547167Y-55925963D01*
X183585017Y-55914482D01*
X183630523Y-55910000D01*
X186613477Y-55910000D01*
X186658983Y-55914482D01*
X186658983Y-55914482D01*
G37*
M02*
