%TF.GenerationSoftware,KiCad,Pcbnew,(5.0.0)*%
%TF.CreationDate,2018-09-13T00:54:13+01:00*%
%TF.ProjectId,AquaHub,417175614875622E6B696361645F7063,rev?*%
%TF.SameCoordinates,Original*%
%TF.FileFunction,Paste,Top*%
%TF.FilePolarity,Positive*%
%FSLAX46Y46*%
G04 Gerber Fmt 4.6, Leading zero omitted, Abs format (unit mm)*
G04 Created by KiCad (PCBNEW (5.0.0)) date 09/13/18 00:54:13*
%MOMM*%
%LPD*%
G01*
G04 APERTURE LIST*
%ADD10C,0.200000*%
%ADD11R,1.600000X3.000000*%
%ADD12C,0.150000*%
%ADD13C,1.500000*%
%ADD14R,2.200000X1.200000*%
%ADD15R,3.050000X2.750000*%
%ADD16R,1.500000X0.600000*%
%ADD17C,1.150000*%
%ADD18R,0.600000X1.550000*%
%ADD19R,1.600000X3.500000*%
%ADD20O,2.500000X0.900000*%
%ADD21O,0.900000X2.500000*%
%ADD22R,6.000000X6.000000*%
%ADD23R,4.750000X3.000000*%
G04 APERTURE END LIST*
D10*
X55118000Y-106680000D02*
X48006000Y-106680000D01*
X55118000Y-109728000D02*
X55118000Y-106680000D01*
X51054000Y-109728000D02*
X55118000Y-109728000D01*
X146050000Y-115570000D02*
X146050000Y-118110000D01*
X140335000Y-78105000D02*
X140335000Y-75565000D01*
X148590000Y-75565000D02*
X148590000Y-78105000D01*
X148590000Y-78105000D02*
X208280000Y-78105000D01*
X208280000Y-75565000D02*
X148590000Y-75565000D01*
X208280000Y-52070000D02*
X208280000Y-75565000D01*
X38100000Y-52070000D02*
X208280000Y-52070000D01*
X38100000Y-75565000D02*
X38100000Y-52070000D01*
X140335000Y-75565000D02*
X38100000Y-75565000D01*
X48006000Y-118364000D02*
X48006000Y-106680000D01*
X146050000Y-118110000D02*
X48006000Y-118364000D01*
X51054000Y-115316000D02*
X146050000Y-115570000D01*
X51054000Y-109728000D02*
X51054000Y-115316000D01*
X38100000Y-153670000D02*
X208280000Y-153670000D01*
X38100000Y-78105000D02*
X38100000Y-153670000D01*
X140335000Y-78105000D02*
X38100000Y-78105000D01*
X208280000Y-78105000D02*
X208280000Y-153670000D01*
D11*
X116840000Y-86405000D03*
X116840000Y-90805000D03*
D12*
G36*
X168081504Y-79515204D02*
X168105773Y-79518804D01*
X168129571Y-79524765D01*
X168152671Y-79533030D01*
X168174849Y-79543520D01*
X168195893Y-79556133D01*
X168215598Y-79570747D01*
X168233777Y-79587223D01*
X168250253Y-79605402D01*
X168264867Y-79625107D01*
X168277480Y-79646151D01*
X168287970Y-79668329D01*
X168296235Y-79691429D01*
X168302196Y-79715227D01*
X168305796Y-79739496D01*
X168307000Y-79764000D01*
X168307000Y-80764000D01*
X168305796Y-80788504D01*
X168302196Y-80812773D01*
X168296235Y-80836571D01*
X168287970Y-80859671D01*
X168277480Y-80881849D01*
X168264867Y-80902893D01*
X168250253Y-80922598D01*
X168233777Y-80940777D01*
X168215598Y-80957253D01*
X168195893Y-80971867D01*
X168174849Y-80984480D01*
X168152671Y-80994970D01*
X168129571Y-81003235D01*
X168105773Y-81009196D01*
X168081504Y-81012796D01*
X168057000Y-81014000D01*
X166207000Y-81014000D01*
X166182496Y-81012796D01*
X166158227Y-81009196D01*
X166134429Y-81003235D01*
X166111329Y-80994970D01*
X166089151Y-80984480D01*
X166068107Y-80971867D01*
X166048402Y-80957253D01*
X166030223Y-80940777D01*
X166013747Y-80922598D01*
X165999133Y-80902893D01*
X165986520Y-80881849D01*
X165976030Y-80859671D01*
X165967765Y-80836571D01*
X165961804Y-80812773D01*
X165958204Y-80788504D01*
X165957000Y-80764000D01*
X165957000Y-79764000D01*
X165958204Y-79739496D01*
X165961804Y-79715227D01*
X165967765Y-79691429D01*
X165976030Y-79668329D01*
X165986520Y-79646151D01*
X165999133Y-79625107D01*
X166013747Y-79605402D01*
X166030223Y-79587223D01*
X166048402Y-79570747D01*
X166068107Y-79556133D01*
X166089151Y-79543520D01*
X166111329Y-79533030D01*
X166134429Y-79524765D01*
X166158227Y-79518804D01*
X166182496Y-79515204D01*
X166207000Y-79514000D01*
X168057000Y-79514000D01*
X168081504Y-79515204D01*
X168081504Y-79515204D01*
G37*
D13*
X167132000Y-80264000D03*
D12*
G36*
X168081504Y-82765204D02*
X168105773Y-82768804D01*
X168129571Y-82774765D01*
X168152671Y-82783030D01*
X168174849Y-82793520D01*
X168195893Y-82806133D01*
X168215598Y-82820747D01*
X168233777Y-82837223D01*
X168250253Y-82855402D01*
X168264867Y-82875107D01*
X168277480Y-82896151D01*
X168287970Y-82918329D01*
X168296235Y-82941429D01*
X168302196Y-82965227D01*
X168305796Y-82989496D01*
X168307000Y-83014000D01*
X168307000Y-84014000D01*
X168305796Y-84038504D01*
X168302196Y-84062773D01*
X168296235Y-84086571D01*
X168287970Y-84109671D01*
X168277480Y-84131849D01*
X168264867Y-84152893D01*
X168250253Y-84172598D01*
X168233777Y-84190777D01*
X168215598Y-84207253D01*
X168195893Y-84221867D01*
X168174849Y-84234480D01*
X168152671Y-84244970D01*
X168129571Y-84253235D01*
X168105773Y-84259196D01*
X168081504Y-84262796D01*
X168057000Y-84264000D01*
X166207000Y-84264000D01*
X166182496Y-84262796D01*
X166158227Y-84259196D01*
X166134429Y-84253235D01*
X166111329Y-84244970D01*
X166089151Y-84234480D01*
X166068107Y-84221867D01*
X166048402Y-84207253D01*
X166030223Y-84190777D01*
X166013747Y-84172598D01*
X165999133Y-84152893D01*
X165986520Y-84131849D01*
X165976030Y-84109671D01*
X165967765Y-84086571D01*
X165961804Y-84062773D01*
X165958204Y-84038504D01*
X165957000Y-84014000D01*
X165957000Y-83014000D01*
X165958204Y-82989496D01*
X165961804Y-82965227D01*
X165967765Y-82941429D01*
X165976030Y-82918329D01*
X165986520Y-82896151D01*
X165999133Y-82875107D01*
X166013747Y-82855402D01*
X166030223Y-82837223D01*
X166048402Y-82820747D01*
X166068107Y-82806133D01*
X166089151Y-82793520D01*
X166111329Y-82783030D01*
X166134429Y-82774765D01*
X166158227Y-82768804D01*
X166182496Y-82765204D01*
X166207000Y-82764000D01*
X168057000Y-82764000D01*
X168081504Y-82765204D01*
X168081504Y-82765204D01*
G37*
D13*
X167132000Y-83514000D03*
D14*
X102870000Y-97415000D03*
X102870000Y-99695000D03*
X102870000Y-101975000D03*
D15*
X110845000Y-101220000D03*
X107495000Y-98170000D03*
X110845000Y-98170000D03*
X107495000Y-101220000D03*
D16*
X133067000Y-59055000D03*
X133067000Y-60325000D03*
X133067000Y-61595000D03*
X133067000Y-62865000D03*
X133067000Y-64135000D03*
X133067000Y-65405000D03*
X133067000Y-66675000D03*
X133067000Y-67945000D03*
X142367000Y-67945000D03*
X142367000Y-66675000D03*
X142367000Y-65405000D03*
X142367000Y-64135000D03*
X142367000Y-62865000D03*
X142367000Y-61595000D03*
X142367000Y-60325000D03*
X142367000Y-59055000D03*
D12*
G36*
X192627505Y-111823204D02*
X192651773Y-111826804D01*
X192675572Y-111832765D01*
X192698671Y-111841030D01*
X192720850Y-111851520D01*
X192741893Y-111864132D01*
X192761599Y-111878747D01*
X192779777Y-111895223D01*
X192796253Y-111913401D01*
X192810868Y-111933107D01*
X192823480Y-111954150D01*
X192833970Y-111976329D01*
X192842235Y-111999428D01*
X192848196Y-112023227D01*
X192851796Y-112047495D01*
X192853000Y-112071999D01*
X192853000Y-112972001D01*
X192851796Y-112996505D01*
X192848196Y-113020773D01*
X192842235Y-113044572D01*
X192833970Y-113067671D01*
X192823480Y-113089850D01*
X192810868Y-113110893D01*
X192796253Y-113130599D01*
X192779777Y-113148777D01*
X192761599Y-113165253D01*
X192741893Y-113179868D01*
X192720850Y-113192480D01*
X192698671Y-113202970D01*
X192675572Y-113211235D01*
X192651773Y-113217196D01*
X192627505Y-113220796D01*
X192603001Y-113222000D01*
X191952999Y-113222000D01*
X191928495Y-113220796D01*
X191904227Y-113217196D01*
X191880428Y-113211235D01*
X191857329Y-113202970D01*
X191835150Y-113192480D01*
X191814107Y-113179868D01*
X191794401Y-113165253D01*
X191776223Y-113148777D01*
X191759747Y-113130599D01*
X191745132Y-113110893D01*
X191732520Y-113089850D01*
X191722030Y-113067671D01*
X191713765Y-113044572D01*
X191707804Y-113020773D01*
X191704204Y-112996505D01*
X191703000Y-112972001D01*
X191703000Y-112071999D01*
X191704204Y-112047495D01*
X191707804Y-112023227D01*
X191713765Y-111999428D01*
X191722030Y-111976329D01*
X191732520Y-111954150D01*
X191745132Y-111933107D01*
X191759747Y-111913401D01*
X191776223Y-111895223D01*
X191794401Y-111878747D01*
X191814107Y-111864132D01*
X191835150Y-111851520D01*
X191857329Y-111841030D01*
X191880428Y-111832765D01*
X191904227Y-111826804D01*
X191928495Y-111823204D01*
X191952999Y-111822000D01*
X192603001Y-111822000D01*
X192627505Y-111823204D01*
X192627505Y-111823204D01*
G37*
D17*
X192278000Y-112522000D03*
D12*
G36*
X194677505Y-111823204D02*
X194701773Y-111826804D01*
X194725572Y-111832765D01*
X194748671Y-111841030D01*
X194770850Y-111851520D01*
X194791893Y-111864132D01*
X194811599Y-111878747D01*
X194829777Y-111895223D01*
X194846253Y-111913401D01*
X194860868Y-111933107D01*
X194873480Y-111954150D01*
X194883970Y-111976329D01*
X194892235Y-111999428D01*
X194898196Y-112023227D01*
X194901796Y-112047495D01*
X194903000Y-112071999D01*
X194903000Y-112972001D01*
X194901796Y-112996505D01*
X194898196Y-113020773D01*
X194892235Y-113044572D01*
X194883970Y-113067671D01*
X194873480Y-113089850D01*
X194860868Y-113110893D01*
X194846253Y-113130599D01*
X194829777Y-113148777D01*
X194811599Y-113165253D01*
X194791893Y-113179868D01*
X194770850Y-113192480D01*
X194748671Y-113202970D01*
X194725572Y-113211235D01*
X194701773Y-113217196D01*
X194677505Y-113220796D01*
X194653001Y-113222000D01*
X194002999Y-113222000D01*
X193978495Y-113220796D01*
X193954227Y-113217196D01*
X193930428Y-113211235D01*
X193907329Y-113202970D01*
X193885150Y-113192480D01*
X193864107Y-113179868D01*
X193844401Y-113165253D01*
X193826223Y-113148777D01*
X193809747Y-113130599D01*
X193795132Y-113110893D01*
X193782520Y-113089850D01*
X193772030Y-113067671D01*
X193763765Y-113044572D01*
X193757804Y-113020773D01*
X193754204Y-112996505D01*
X193753000Y-112972001D01*
X193753000Y-112071999D01*
X193754204Y-112047495D01*
X193757804Y-112023227D01*
X193763765Y-111999428D01*
X193772030Y-111976329D01*
X193782520Y-111954150D01*
X193795132Y-111933107D01*
X193809747Y-111913401D01*
X193826223Y-111895223D01*
X193844401Y-111878747D01*
X193864107Y-111864132D01*
X193885150Y-111851520D01*
X193907329Y-111841030D01*
X193930428Y-111832765D01*
X193954227Y-111826804D01*
X193978495Y-111823204D01*
X194002999Y-111822000D01*
X194653001Y-111822000D01*
X194677505Y-111823204D01*
X194677505Y-111823204D01*
G37*
D17*
X194328000Y-112522000D03*
D18*
X162187979Y-117809195D03*
X163457979Y-117809195D03*
X164727979Y-117809195D03*
X165997979Y-117809195D03*
X165997979Y-123209195D03*
X164727979Y-123209195D03*
X163457979Y-123209195D03*
X162187979Y-123209195D03*
D16*
X159004000Y-100330000D03*
X159004000Y-99060000D03*
X159004000Y-97790000D03*
X159004000Y-96520000D03*
X159004000Y-95250000D03*
X159004000Y-93980000D03*
X159004000Y-92710000D03*
X159004000Y-91440000D03*
X164404000Y-91440000D03*
X164404000Y-92710000D03*
X164404000Y-93980000D03*
X164404000Y-95250000D03*
X164404000Y-96520000D03*
X164404000Y-97790000D03*
X164404000Y-99060000D03*
X164404000Y-100330000D03*
D12*
G36*
X164050505Y-80452204D02*
X164074773Y-80455804D01*
X164098572Y-80461765D01*
X164121671Y-80470030D01*
X164143850Y-80480520D01*
X164164893Y-80493132D01*
X164184599Y-80507747D01*
X164202777Y-80524223D01*
X164219253Y-80542401D01*
X164233868Y-80562107D01*
X164246480Y-80583150D01*
X164256970Y-80605329D01*
X164265235Y-80628428D01*
X164271196Y-80652227D01*
X164274796Y-80676495D01*
X164276000Y-80700999D01*
X164276000Y-81351001D01*
X164274796Y-81375505D01*
X164271196Y-81399773D01*
X164265235Y-81423572D01*
X164256970Y-81446671D01*
X164246480Y-81468850D01*
X164233868Y-81489893D01*
X164219253Y-81509599D01*
X164202777Y-81527777D01*
X164184599Y-81544253D01*
X164164893Y-81558868D01*
X164143850Y-81571480D01*
X164121671Y-81581970D01*
X164098572Y-81590235D01*
X164074773Y-81596196D01*
X164050505Y-81599796D01*
X164026001Y-81601000D01*
X163125999Y-81601000D01*
X163101495Y-81599796D01*
X163077227Y-81596196D01*
X163053428Y-81590235D01*
X163030329Y-81581970D01*
X163008150Y-81571480D01*
X162987107Y-81558868D01*
X162967401Y-81544253D01*
X162949223Y-81527777D01*
X162932747Y-81509599D01*
X162918132Y-81489893D01*
X162905520Y-81468850D01*
X162895030Y-81446671D01*
X162886765Y-81423572D01*
X162880804Y-81399773D01*
X162877204Y-81375505D01*
X162876000Y-81351001D01*
X162876000Y-80700999D01*
X162877204Y-80676495D01*
X162880804Y-80652227D01*
X162886765Y-80628428D01*
X162895030Y-80605329D01*
X162905520Y-80583150D01*
X162918132Y-80562107D01*
X162932747Y-80542401D01*
X162949223Y-80524223D01*
X162967401Y-80507747D01*
X162987107Y-80493132D01*
X163008150Y-80480520D01*
X163030329Y-80470030D01*
X163053428Y-80461765D01*
X163077227Y-80455804D01*
X163101495Y-80452204D01*
X163125999Y-80451000D01*
X164026001Y-80451000D01*
X164050505Y-80452204D01*
X164050505Y-80452204D01*
G37*
D17*
X163576000Y-81026000D03*
D12*
G36*
X164050505Y-82502204D02*
X164074773Y-82505804D01*
X164098572Y-82511765D01*
X164121671Y-82520030D01*
X164143850Y-82530520D01*
X164164893Y-82543132D01*
X164184599Y-82557747D01*
X164202777Y-82574223D01*
X164219253Y-82592401D01*
X164233868Y-82612107D01*
X164246480Y-82633150D01*
X164256970Y-82655329D01*
X164265235Y-82678428D01*
X164271196Y-82702227D01*
X164274796Y-82726495D01*
X164276000Y-82750999D01*
X164276000Y-83401001D01*
X164274796Y-83425505D01*
X164271196Y-83449773D01*
X164265235Y-83473572D01*
X164256970Y-83496671D01*
X164246480Y-83518850D01*
X164233868Y-83539893D01*
X164219253Y-83559599D01*
X164202777Y-83577777D01*
X164184599Y-83594253D01*
X164164893Y-83608868D01*
X164143850Y-83621480D01*
X164121671Y-83631970D01*
X164098572Y-83640235D01*
X164074773Y-83646196D01*
X164050505Y-83649796D01*
X164026001Y-83651000D01*
X163125999Y-83651000D01*
X163101495Y-83649796D01*
X163077227Y-83646196D01*
X163053428Y-83640235D01*
X163030329Y-83631970D01*
X163008150Y-83621480D01*
X162987107Y-83608868D01*
X162967401Y-83594253D01*
X162949223Y-83577777D01*
X162932747Y-83559599D01*
X162918132Y-83539893D01*
X162905520Y-83518850D01*
X162895030Y-83496671D01*
X162886765Y-83473572D01*
X162880804Y-83449773D01*
X162877204Y-83425505D01*
X162876000Y-83401001D01*
X162876000Y-82750999D01*
X162877204Y-82726495D01*
X162880804Y-82702227D01*
X162886765Y-82678428D01*
X162895030Y-82655329D01*
X162905520Y-82633150D01*
X162918132Y-82612107D01*
X162932747Y-82592401D01*
X162949223Y-82574223D01*
X162967401Y-82557747D01*
X162987107Y-82543132D01*
X163008150Y-82530520D01*
X163030329Y-82520030D01*
X163053428Y-82511765D01*
X163077227Y-82505804D01*
X163101495Y-82502204D01*
X163125999Y-82501000D01*
X164026001Y-82501000D01*
X164050505Y-82502204D01*
X164050505Y-82502204D01*
G37*
D17*
X163576000Y-83076000D03*
D12*
G36*
X165068505Y-108521204D02*
X165092773Y-108524804D01*
X165116572Y-108530765D01*
X165139671Y-108539030D01*
X165161850Y-108549520D01*
X165182893Y-108562132D01*
X165202599Y-108576747D01*
X165220777Y-108593223D01*
X165237253Y-108611401D01*
X165251868Y-108631107D01*
X165264480Y-108652150D01*
X165274970Y-108674329D01*
X165283235Y-108697428D01*
X165289196Y-108721227D01*
X165292796Y-108745495D01*
X165294000Y-108769999D01*
X165294000Y-109670001D01*
X165292796Y-109694505D01*
X165289196Y-109718773D01*
X165283235Y-109742572D01*
X165274970Y-109765671D01*
X165264480Y-109787850D01*
X165251868Y-109808893D01*
X165237253Y-109828599D01*
X165220777Y-109846777D01*
X165202599Y-109863253D01*
X165182893Y-109877868D01*
X165161850Y-109890480D01*
X165139671Y-109900970D01*
X165116572Y-109909235D01*
X165092773Y-109915196D01*
X165068505Y-109918796D01*
X165044001Y-109920000D01*
X164393999Y-109920000D01*
X164369495Y-109918796D01*
X164345227Y-109915196D01*
X164321428Y-109909235D01*
X164298329Y-109900970D01*
X164276150Y-109890480D01*
X164255107Y-109877868D01*
X164235401Y-109863253D01*
X164217223Y-109846777D01*
X164200747Y-109828599D01*
X164186132Y-109808893D01*
X164173520Y-109787850D01*
X164163030Y-109765671D01*
X164154765Y-109742572D01*
X164148804Y-109718773D01*
X164145204Y-109694505D01*
X164144000Y-109670001D01*
X164144000Y-108769999D01*
X164145204Y-108745495D01*
X164148804Y-108721227D01*
X164154765Y-108697428D01*
X164163030Y-108674329D01*
X164173520Y-108652150D01*
X164186132Y-108631107D01*
X164200747Y-108611401D01*
X164217223Y-108593223D01*
X164235401Y-108576747D01*
X164255107Y-108562132D01*
X164276150Y-108549520D01*
X164298329Y-108539030D01*
X164321428Y-108530765D01*
X164345227Y-108524804D01*
X164369495Y-108521204D01*
X164393999Y-108520000D01*
X165044001Y-108520000D01*
X165068505Y-108521204D01*
X165068505Y-108521204D01*
G37*
D17*
X164719000Y-109220000D03*
D12*
G36*
X163018505Y-108521204D02*
X163042773Y-108524804D01*
X163066572Y-108530765D01*
X163089671Y-108539030D01*
X163111850Y-108549520D01*
X163132893Y-108562132D01*
X163152599Y-108576747D01*
X163170777Y-108593223D01*
X163187253Y-108611401D01*
X163201868Y-108631107D01*
X163214480Y-108652150D01*
X163224970Y-108674329D01*
X163233235Y-108697428D01*
X163239196Y-108721227D01*
X163242796Y-108745495D01*
X163244000Y-108769999D01*
X163244000Y-109670001D01*
X163242796Y-109694505D01*
X163239196Y-109718773D01*
X163233235Y-109742572D01*
X163224970Y-109765671D01*
X163214480Y-109787850D01*
X163201868Y-109808893D01*
X163187253Y-109828599D01*
X163170777Y-109846777D01*
X163152599Y-109863253D01*
X163132893Y-109877868D01*
X163111850Y-109890480D01*
X163089671Y-109900970D01*
X163066572Y-109909235D01*
X163042773Y-109915196D01*
X163018505Y-109918796D01*
X162994001Y-109920000D01*
X162343999Y-109920000D01*
X162319495Y-109918796D01*
X162295227Y-109915196D01*
X162271428Y-109909235D01*
X162248329Y-109900970D01*
X162226150Y-109890480D01*
X162205107Y-109877868D01*
X162185401Y-109863253D01*
X162167223Y-109846777D01*
X162150747Y-109828599D01*
X162136132Y-109808893D01*
X162123520Y-109787850D01*
X162113030Y-109765671D01*
X162104765Y-109742572D01*
X162098804Y-109718773D01*
X162095204Y-109694505D01*
X162094000Y-109670001D01*
X162094000Y-108769999D01*
X162095204Y-108745495D01*
X162098804Y-108721227D01*
X162104765Y-108697428D01*
X162113030Y-108674329D01*
X162123520Y-108652150D01*
X162136132Y-108631107D01*
X162150747Y-108611401D01*
X162167223Y-108593223D01*
X162185401Y-108576747D01*
X162205107Y-108562132D01*
X162226150Y-108549520D01*
X162248329Y-108539030D01*
X162271428Y-108530765D01*
X162295227Y-108524804D01*
X162319495Y-108521204D01*
X162343999Y-108520000D01*
X162994001Y-108520000D01*
X163018505Y-108521204D01*
X163018505Y-108521204D01*
G37*
D17*
X162669000Y-109220000D03*
D12*
G36*
X165068505Y-113601204D02*
X165092773Y-113604804D01*
X165116572Y-113610765D01*
X165139671Y-113619030D01*
X165161850Y-113629520D01*
X165182893Y-113642132D01*
X165202599Y-113656747D01*
X165220777Y-113673223D01*
X165237253Y-113691401D01*
X165251868Y-113711107D01*
X165264480Y-113732150D01*
X165274970Y-113754329D01*
X165283235Y-113777428D01*
X165289196Y-113801227D01*
X165292796Y-113825495D01*
X165294000Y-113849999D01*
X165294000Y-114750001D01*
X165292796Y-114774505D01*
X165289196Y-114798773D01*
X165283235Y-114822572D01*
X165274970Y-114845671D01*
X165264480Y-114867850D01*
X165251868Y-114888893D01*
X165237253Y-114908599D01*
X165220777Y-114926777D01*
X165202599Y-114943253D01*
X165182893Y-114957868D01*
X165161850Y-114970480D01*
X165139671Y-114980970D01*
X165116572Y-114989235D01*
X165092773Y-114995196D01*
X165068505Y-114998796D01*
X165044001Y-115000000D01*
X164393999Y-115000000D01*
X164369495Y-114998796D01*
X164345227Y-114995196D01*
X164321428Y-114989235D01*
X164298329Y-114980970D01*
X164276150Y-114970480D01*
X164255107Y-114957868D01*
X164235401Y-114943253D01*
X164217223Y-114926777D01*
X164200747Y-114908599D01*
X164186132Y-114888893D01*
X164173520Y-114867850D01*
X164163030Y-114845671D01*
X164154765Y-114822572D01*
X164148804Y-114798773D01*
X164145204Y-114774505D01*
X164144000Y-114750001D01*
X164144000Y-113849999D01*
X164145204Y-113825495D01*
X164148804Y-113801227D01*
X164154765Y-113777428D01*
X164163030Y-113754329D01*
X164173520Y-113732150D01*
X164186132Y-113711107D01*
X164200747Y-113691401D01*
X164217223Y-113673223D01*
X164235401Y-113656747D01*
X164255107Y-113642132D01*
X164276150Y-113629520D01*
X164298329Y-113619030D01*
X164321428Y-113610765D01*
X164345227Y-113604804D01*
X164369495Y-113601204D01*
X164393999Y-113600000D01*
X165044001Y-113600000D01*
X165068505Y-113601204D01*
X165068505Y-113601204D01*
G37*
D17*
X164719000Y-114300000D03*
D12*
G36*
X163018505Y-113601204D02*
X163042773Y-113604804D01*
X163066572Y-113610765D01*
X163089671Y-113619030D01*
X163111850Y-113629520D01*
X163132893Y-113642132D01*
X163152599Y-113656747D01*
X163170777Y-113673223D01*
X163187253Y-113691401D01*
X163201868Y-113711107D01*
X163214480Y-113732150D01*
X163224970Y-113754329D01*
X163233235Y-113777428D01*
X163239196Y-113801227D01*
X163242796Y-113825495D01*
X163244000Y-113849999D01*
X163244000Y-114750001D01*
X163242796Y-114774505D01*
X163239196Y-114798773D01*
X163233235Y-114822572D01*
X163224970Y-114845671D01*
X163214480Y-114867850D01*
X163201868Y-114888893D01*
X163187253Y-114908599D01*
X163170777Y-114926777D01*
X163152599Y-114943253D01*
X163132893Y-114957868D01*
X163111850Y-114970480D01*
X163089671Y-114980970D01*
X163066572Y-114989235D01*
X163042773Y-114995196D01*
X163018505Y-114998796D01*
X162994001Y-115000000D01*
X162343999Y-115000000D01*
X162319495Y-114998796D01*
X162295227Y-114995196D01*
X162271428Y-114989235D01*
X162248329Y-114980970D01*
X162226150Y-114970480D01*
X162205107Y-114957868D01*
X162185401Y-114943253D01*
X162167223Y-114926777D01*
X162150747Y-114908599D01*
X162136132Y-114888893D01*
X162123520Y-114867850D01*
X162113030Y-114845671D01*
X162104765Y-114822572D01*
X162098804Y-114798773D01*
X162095204Y-114774505D01*
X162094000Y-114750001D01*
X162094000Y-113849999D01*
X162095204Y-113825495D01*
X162098804Y-113801227D01*
X162104765Y-113777428D01*
X162113030Y-113754329D01*
X162123520Y-113732150D01*
X162136132Y-113711107D01*
X162150747Y-113691401D01*
X162167223Y-113673223D01*
X162185401Y-113656747D01*
X162205107Y-113642132D01*
X162226150Y-113629520D01*
X162248329Y-113619030D01*
X162271428Y-113610765D01*
X162295227Y-113604804D01*
X162319495Y-113601204D01*
X162343999Y-113600000D01*
X162994001Y-113600000D01*
X163018505Y-113601204D01*
X163018505Y-113601204D01*
G37*
D17*
X162669000Y-114300000D03*
D12*
G36*
X165068505Y-111061204D02*
X165092773Y-111064804D01*
X165116572Y-111070765D01*
X165139671Y-111079030D01*
X165161850Y-111089520D01*
X165182893Y-111102132D01*
X165202599Y-111116747D01*
X165220777Y-111133223D01*
X165237253Y-111151401D01*
X165251868Y-111171107D01*
X165264480Y-111192150D01*
X165274970Y-111214329D01*
X165283235Y-111237428D01*
X165289196Y-111261227D01*
X165292796Y-111285495D01*
X165294000Y-111309999D01*
X165294000Y-112210001D01*
X165292796Y-112234505D01*
X165289196Y-112258773D01*
X165283235Y-112282572D01*
X165274970Y-112305671D01*
X165264480Y-112327850D01*
X165251868Y-112348893D01*
X165237253Y-112368599D01*
X165220777Y-112386777D01*
X165202599Y-112403253D01*
X165182893Y-112417868D01*
X165161850Y-112430480D01*
X165139671Y-112440970D01*
X165116572Y-112449235D01*
X165092773Y-112455196D01*
X165068505Y-112458796D01*
X165044001Y-112460000D01*
X164393999Y-112460000D01*
X164369495Y-112458796D01*
X164345227Y-112455196D01*
X164321428Y-112449235D01*
X164298329Y-112440970D01*
X164276150Y-112430480D01*
X164255107Y-112417868D01*
X164235401Y-112403253D01*
X164217223Y-112386777D01*
X164200747Y-112368599D01*
X164186132Y-112348893D01*
X164173520Y-112327850D01*
X164163030Y-112305671D01*
X164154765Y-112282572D01*
X164148804Y-112258773D01*
X164145204Y-112234505D01*
X164144000Y-112210001D01*
X164144000Y-111309999D01*
X164145204Y-111285495D01*
X164148804Y-111261227D01*
X164154765Y-111237428D01*
X164163030Y-111214329D01*
X164173520Y-111192150D01*
X164186132Y-111171107D01*
X164200747Y-111151401D01*
X164217223Y-111133223D01*
X164235401Y-111116747D01*
X164255107Y-111102132D01*
X164276150Y-111089520D01*
X164298329Y-111079030D01*
X164321428Y-111070765D01*
X164345227Y-111064804D01*
X164369495Y-111061204D01*
X164393999Y-111060000D01*
X165044001Y-111060000D01*
X165068505Y-111061204D01*
X165068505Y-111061204D01*
G37*
D17*
X164719000Y-111760000D03*
D12*
G36*
X163018505Y-111061204D02*
X163042773Y-111064804D01*
X163066572Y-111070765D01*
X163089671Y-111079030D01*
X163111850Y-111089520D01*
X163132893Y-111102132D01*
X163152599Y-111116747D01*
X163170777Y-111133223D01*
X163187253Y-111151401D01*
X163201868Y-111171107D01*
X163214480Y-111192150D01*
X163224970Y-111214329D01*
X163233235Y-111237428D01*
X163239196Y-111261227D01*
X163242796Y-111285495D01*
X163244000Y-111309999D01*
X163244000Y-112210001D01*
X163242796Y-112234505D01*
X163239196Y-112258773D01*
X163233235Y-112282572D01*
X163224970Y-112305671D01*
X163214480Y-112327850D01*
X163201868Y-112348893D01*
X163187253Y-112368599D01*
X163170777Y-112386777D01*
X163152599Y-112403253D01*
X163132893Y-112417868D01*
X163111850Y-112430480D01*
X163089671Y-112440970D01*
X163066572Y-112449235D01*
X163042773Y-112455196D01*
X163018505Y-112458796D01*
X162994001Y-112460000D01*
X162343999Y-112460000D01*
X162319495Y-112458796D01*
X162295227Y-112455196D01*
X162271428Y-112449235D01*
X162248329Y-112440970D01*
X162226150Y-112430480D01*
X162205107Y-112417868D01*
X162185401Y-112403253D01*
X162167223Y-112386777D01*
X162150747Y-112368599D01*
X162136132Y-112348893D01*
X162123520Y-112327850D01*
X162113030Y-112305671D01*
X162104765Y-112282572D01*
X162098804Y-112258773D01*
X162095204Y-112234505D01*
X162094000Y-112210001D01*
X162094000Y-111309999D01*
X162095204Y-111285495D01*
X162098804Y-111261227D01*
X162104765Y-111237428D01*
X162113030Y-111214329D01*
X162123520Y-111192150D01*
X162136132Y-111171107D01*
X162150747Y-111151401D01*
X162167223Y-111133223D01*
X162185401Y-111116747D01*
X162205107Y-111102132D01*
X162226150Y-111089520D01*
X162248329Y-111079030D01*
X162271428Y-111070765D01*
X162295227Y-111064804D01*
X162319495Y-111061204D01*
X162343999Y-111060000D01*
X162994001Y-111060000D01*
X163018505Y-111061204D01*
X163018505Y-111061204D01*
G37*
D17*
X162669000Y-111760000D03*
D12*
G36*
X194659505Y-114363204D02*
X194683773Y-114366804D01*
X194707572Y-114372765D01*
X194730671Y-114381030D01*
X194752850Y-114391520D01*
X194773893Y-114404132D01*
X194793599Y-114418747D01*
X194811777Y-114435223D01*
X194828253Y-114453401D01*
X194842868Y-114473107D01*
X194855480Y-114494150D01*
X194865970Y-114516329D01*
X194874235Y-114539428D01*
X194880196Y-114563227D01*
X194883796Y-114587495D01*
X194885000Y-114611999D01*
X194885000Y-115512001D01*
X194883796Y-115536505D01*
X194880196Y-115560773D01*
X194874235Y-115584572D01*
X194865970Y-115607671D01*
X194855480Y-115629850D01*
X194842868Y-115650893D01*
X194828253Y-115670599D01*
X194811777Y-115688777D01*
X194793599Y-115705253D01*
X194773893Y-115719868D01*
X194752850Y-115732480D01*
X194730671Y-115742970D01*
X194707572Y-115751235D01*
X194683773Y-115757196D01*
X194659505Y-115760796D01*
X194635001Y-115762000D01*
X193984999Y-115762000D01*
X193960495Y-115760796D01*
X193936227Y-115757196D01*
X193912428Y-115751235D01*
X193889329Y-115742970D01*
X193867150Y-115732480D01*
X193846107Y-115719868D01*
X193826401Y-115705253D01*
X193808223Y-115688777D01*
X193791747Y-115670599D01*
X193777132Y-115650893D01*
X193764520Y-115629850D01*
X193754030Y-115607671D01*
X193745765Y-115584572D01*
X193739804Y-115560773D01*
X193736204Y-115536505D01*
X193735000Y-115512001D01*
X193735000Y-114611999D01*
X193736204Y-114587495D01*
X193739804Y-114563227D01*
X193745765Y-114539428D01*
X193754030Y-114516329D01*
X193764520Y-114494150D01*
X193777132Y-114473107D01*
X193791747Y-114453401D01*
X193808223Y-114435223D01*
X193826401Y-114418747D01*
X193846107Y-114404132D01*
X193867150Y-114391520D01*
X193889329Y-114381030D01*
X193912428Y-114372765D01*
X193936227Y-114366804D01*
X193960495Y-114363204D01*
X193984999Y-114362000D01*
X194635001Y-114362000D01*
X194659505Y-114363204D01*
X194659505Y-114363204D01*
G37*
D17*
X194310000Y-115062000D03*
D12*
G36*
X192609505Y-114363204D02*
X192633773Y-114366804D01*
X192657572Y-114372765D01*
X192680671Y-114381030D01*
X192702850Y-114391520D01*
X192723893Y-114404132D01*
X192743599Y-114418747D01*
X192761777Y-114435223D01*
X192778253Y-114453401D01*
X192792868Y-114473107D01*
X192805480Y-114494150D01*
X192815970Y-114516329D01*
X192824235Y-114539428D01*
X192830196Y-114563227D01*
X192833796Y-114587495D01*
X192835000Y-114611999D01*
X192835000Y-115512001D01*
X192833796Y-115536505D01*
X192830196Y-115560773D01*
X192824235Y-115584572D01*
X192815970Y-115607671D01*
X192805480Y-115629850D01*
X192792868Y-115650893D01*
X192778253Y-115670599D01*
X192761777Y-115688777D01*
X192743599Y-115705253D01*
X192723893Y-115719868D01*
X192702850Y-115732480D01*
X192680671Y-115742970D01*
X192657572Y-115751235D01*
X192633773Y-115757196D01*
X192609505Y-115760796D01*
X192585001Y-115762000D01*
X191934999Y-115762000D01*
X191910495Y-115760796D01*
X191886227Y-115757196D01*
X191862428Y-115751235D01*
X191839329Y-115742970D01*
X191817150Y-115732480D01*
X191796107Y-115719868D01*
X191776401Y-115705253D01*
X191758223Y-115688777D01*
X191741747Y-115670599D01*
X191727132Y-115650893D01*
X191714520Y-115629850D01*
X191704030Y-115607671D01*
X191695765Y-115584572D01*
X191689804Y-115560773D01*
X191686204Y-115536505D01*
X191685000Y-115512001D01*
X191685000Y-114611999D01*
X191686204Y-114587495D01*
X191689804Y-114563227D01*
X191695765Y-114539428D01*
X191704030Y-114516329D01*
X191714520Y-114494150D01*
X191727132Y-114473107D01*
X191741747Y-114453401D01*
X191758223Y-114435223D01*
X191776401Y-114418747D01*
X191796107Y-114404132D01*
X191817150Y-114391520D01*
X191839329Y-114381030D01*
X191862428Y-114372765D01*
X191886227Y-114366804D01*
X191910495Y-114363204D01*
X191934999Y-114362000D01*
X192585001Y-114362000D01*
X192609505Y-114363204D01*
X192609505Y-114363204D01*
G37*
D17*
X192260000Y-115062000D03*
D19*
X97155000Y-85725000D03*
X97155000Y-91125000D03*
X97155000Y-102555000D03*
X97155000Y-97155000D03*
D11*
X116840000Y-102235000D03*
X116840000Y-97835000D03*
D15*
X107315000Y-90170000D03*
X110665000Y-87120000D03*
X107315000Y-87120000D03*
X110665000Y-90170000D03*
D14*
X102690000Y-90925000D03*
X102690000Y-88645000D03*
X102690000Y-86365000D03*
D20*
X189704000Y-80010000D03*
X189704000Y-81280000D03*
X189704000Y-82550000D03*
X189704000Y-83820000D03*
X189704000Y-85090000D03*
X189704000Y-86360000D03*
X189704000Y-87630000D03*
X189704000Y-88900000D03*
X189704000Y-90170000D03*
X189704000Y-91440000D03*
X189704000Y-92710000D03*
X189704000Y-93980000D03*
X189704000Y-95250000D03*
X189704000Y-96520000D03*
D21*
X186419000Y-98010000D03*
X185149000Y-98010000D03*
X183879000Y-98010000D03*
X182609000Y-98010000D03*
X181339000Y-98010000D03*
X180069000Y-98010000D03*
X178799000Y-98010000D03*
X177529000Y-98010000D03*
X176259000Y-98010000D03*
X174989000Y-98010000D03*
D20*
X171704000Y-96520000D03*
X171704000Y-95250000D03*
X171704000Y-93980000D03*
X171704000Y-92710000D03*
X171704000Y-91440000D03*
X171704000Y-90170000D03*
X171704000Y-88900000D03*
X171704000Y-87630000D03*
X171704000Y-86360000D03*
X171704000Y-85090000D03*
X171704000Y-83820000D03*
X171704000Y-82550000D03*
X171704000Y-81280000D03*
X171704000Y-80010000D03*
D22*
X180404000Y-87710000D03*
D23*
X178435000Y-123190000D03*
X178435000Y-131690000D03*
M02*
