%TF.GenerationSoftware,KiCad,Pcbnew,(5.0.0)*%
%TF.CreationDate,2018-09-17T09:03:25+01:00*%
%TF.ProjectId,AquaHub,417175614875622E6B696361645F7063,rev?*%
%TF.SameCoordinates,Original*%
%TF.FileFunction,Soldermask,Top*%
%TF.FilePolarity,Negative*%
%FSLAX46Y46*%
G04 Gerber Fmt 4.6, Leading zero omitted, Abs format (unit mm)*
G04 Created by KiCad (PCBNEW (5.0.0)) date 09/17/18 09:03:25*
%MOMM*%
%LPD*%
G01*
G04 APERTURE LIST*
%ADD10C,0.080000*%
%ADD11C,0.200000*%
%ADD12R,1.400000X0.900000*%
%ADD13R,0.900000X1.700000*%
%ADD14O,2.100000X2.100000*%
%ADD15R,2.100000X2.100000*%
%ADD16C,3.000000*%
%ADD17R,3.000000X3.000000*%
%ADD18C,2.400000*%
%ADD19R,2.400000X2.400000*%
%ADD20C,2.900000*%
%ADD21O,1.470000X2.200000*%
%ADD22R,1.470000X2.200000*%
%ADD23O,2.127200X2.127200*%
%ADD24R,2.127200X2.127200*%
%ADD25R,2.000000X3.400000*%
%ADD26C,0.150000*%
%ADD27C,1.900000*%
%ADD28C,2.200000*%
%ADD29R,6.800000X6.200000*%
%ADD30R,2.600000X1.600000*%
%ADD31R,1.900000X1.000000*%
%ADD32C,1.550000*%
%ADD33R,1.000000X1.950000*%
%ADD34C,4.700000*%
%ADD35C,1.400000*%
%ADD36R,2.000000X3.900000*%
%ADD37R,6.400000X6.400000*%
%ADD38O,2.900000X1.300000*%
%ADD39O,1.300000X2.900000*%
%ADD40C,3.200000*%
%ADD41R,1.300000X1.200000*%
%ADD42C,3.180000*%
%ADD43C,1.350000*%
G04 APERTURE END LIST*
D10*
X55880000Y-104140000D02*
X55880000Y-102870000D01*
X66040000Y-104140000D02*
X55880000Y-104140000D01*
X66040000Y-102870000D02*
X66040000Y-104140000D01*
X55880000Y-102870000D02*
X66040000Y-102870000D01*
D11*
X50800000Y-102870000D02*
X47879000Y-102870000D01*
X50800000Y-106045000D02*
X50800000Y-102870000D01*
X146050000Y-115570000D02*
X146050000Y-118110000D01*
X140680000Y-77590000D02*
X140680000Y-75590000D01*
X148180000Y-75590000D02*
X148180000Y-77590000D01*
X148180000Y-77590000D02*
X208180000Y-77590000D01*
X208180000Y-75590000D02*
X148180000Y-75590000D01*
X208180000Y-53590000D02*
X208180000Y-75590000D01*
X38180000Y-53590000D02*
X208180000Y-53590000D01*
X38180000Y-75590000D02*
X38180000Y-53590000D01*
X140680000Y-75590000D02*
X38180000Y-75590000D01*
X48006000Y-118364000D02*
X47879000Y-102870000D01*
X146050000Y-118110000D02*
X48006000Y-118364000D01*
X50800000Y-115570000D02*
X146050000Y-115570000D01*
X50800000Y-106045000D02*
X50800000Y-115570000D01*
X38180000Y-153590000D02*
X208180000Y-153590000D01*
X38180000Y-77590000D02*
X38180000Y-153590000D01*
X140680000Y-77590000D02*
X38180000Y-77590000D01*
X208180000Y-77590000D02*
X208180000Y-153590000D01*
D12*
X144247000Y-97112000D03*
X148147000Y-97112000D03*
D13*
X147447000Y-98212000D03*
X146647000Y-98212000D03*
X145847000Y-98212000D03*
X145047000Y-98212000D03*
X145047000Y-96012000D03*
X145847000Y-96012000D03*
X146647000Y-96012000D03*
X147447000Y-96012000D03*
D14*
X202819000Y-125603000D03*
X202819000Y-123063000D03*
D15*
X202819000Y-120523000D03*
D16*
X171243000Y-140335000D03*
D17*
X166243000Y-140335000D03*
D16*
X142795000Y-140335000D03*
D17*
X137795000Y-140335000D03*
D16*
X76247000Y-140335000D03*
D17*
X71247000Y-140335000D03*
D16*
X59610000Y-140335000D03*
D17*
X54610000Y-140335000D03*
D16*
X126158000Y-140335000D03*
D17*
X121158000Y-140335000D03*
D16*
X109521000Y-140335000D03*
D17*
X104521000Y-140335000D03*
D16*
X92884000Y-140335000D03*
D17*
X87884000Y-140335000D03*
D18*
X83693000Y-82804000D03*
X88773000Y-100584000D03*
X88773000Y-82804000D03*
X63373000Y-100584000D03*
D19*
X58293000Y-100584000D03*
D18*
X87430000Y-72840000D03*
X82930000Y-72840000D03*
X87430000Y-66340000D03*
X82930000Y-66340000D03*
D20*
X136525000Y-133350000D03*
X136525000Y-128350000D03*
X136525000Y-108350000D03*
X144025000Y-108350000D03*
X144025000Y-128350000D03*
X144025000Y-133350000D03*
X102990000Y-133350000D03*
X102990000Y-128350000D03*
X102990000Y-108350000D03*
X110490000Y-108350000D03*
X110490000Y-128350000D03*
X110490000Y-133350000D03*
X86480000Y-133350000D03*
X86480000Y-128350000D03*
X86480000Y-108350000D03*
X93980000Y-108350000D03*
X93980000Y-128350000D03*
X93980000Y-133350000D03*
D14*
X195580000Y-97663000D03*
D15*
X195580000Y-95123000D03*
D21*
X131990000Y-59590000D03*
X130720000Y-59590000D03*
X129450000Y-59590000D03*
D22*
X128180000Y-59590000D03*
D23*
X144780000Y-84328000D03*
X144780000Y-81788000D03*
X147320000Y-84328000D03*
X147320000Y-81788000D03*
X149860000Y-84328000D03*
D24*
X149860000Y-81788000D03*
D25*
X116840000Y-86405000D03*
X116840000Y-90805000D03*
D26*
G36*
X162760372Y-78859525D02*
X162791112Y-78864085D01*
X162821257Y-78871636D01*
X162850516Y-78882105D01*
X162878609Y-78895392D01*
X162905264Y-78911368D01*
X162930224Y-78929880D01*
X162953250Y-78950750D01*
X162974120Y-78973776D01*
X162992632Y-78998736D01*
X163008608Y-79025391D01*
X163021895Y-79053484D01*
X163032364Y-79082743D01*
X163039915Y-79112888D01*
X163044475Y-79143628D01*
X163046000Y-79174667D01*
X163046000Y-80441333D01*
X163044475Y-80472372D01*
X163039915Y-80503112D01*
X163032364Y-80533257D01*
X163021895Y-80562516D01*
X163008608Y-80590609D01*
X162992632Y-80617264D01*
X162974120Y-80642224D01*
X162953250Y-80665250D01*
X162930224Y-80686120D01*
X162905264Y-80704632D01*
X162878609Y-80720608D01*
X162850516Y-80733895D01*
X162821257Y-80744364D01*
X162791112Y-80751915D01*
X162760372Y-80756475D01*
X162729333Y-80758000D01*
X160612667Y-80758000D01*
X160581628Y-80756475D01*
X160550888Y-80751915D01*
X160520743Y-80744364D01*
X160491484Y-80733895D01*
X160463391Y-80720608D01*
X160436736Y-80704632D01*
X160411776Y-80686120D01*
X160388750Y-80665250D01*
X160367880Y-80642224D01*
X160349368Y-80617264D01*
X160333392Y-80590609D01*
X160320105Y-80562516D01*
X160309636Y-80533257D01*
X160302085Y-80503112D01*
X160297525Y-80472372D01*
X160296000Y-80441333D01*
X160296000Y-79174667D01*
X160297525Y-79143628D01*
X160302085Y-79112888D01*
X160309636Y-79082743D01*
X160320105Y-79053484D01*
X160333392Y-79025391D01*
X160349368Y-78998736D01*
X160367880Y-78973776D01*
X160388750Y-78950750D01*
X160411776Y-78929880D01*
X160436736Y-78911368D01*
X160463391Y-78895392D01*
X160491484Y-78882105D01*
X160520743Y-78871636D01*
X160550888Y-78864085D01*
X160581628Y-78859525D01*
X160612667Y-78858000D01*
X162729333Y-78858000D01*
X162760372Y-78859525D01*
X162760372Y-78859525D01*
G37*
D27*
X161671000Y-79808000D03*
D26*
G36*
X162760372Y-82109525D02*
X162791112Y-82114085D01*
X162821257Y-82121636D01*
X162850516Y-82132105D01*
X162878609Y-82145392D01*
X162905264Y-82161368D01*
X162930224Y-82179880D01*
X162953250Y-82200750D01*
X162974120Y-82223776D01*
X162992632Y-82248736D01*
X163008608Y-82275391D01*
X163021895Y-82303484D01*
X163032364Y-82332743D01*
X163039915Y-82362888D01*
X163044475Y-82393628D01*
X163046000Y-82424667D01*
X163046000Y-83691333D01*
X163044475Y-83722372D01*
X163039915Y-83753112D01*
X163032364Y-83783257D01*
X163021895Y-83812516D01*
X163008608Y-83840609D01*
X162992632Y-83867264D01*
X162974120Y-83892224D01*
X162953250Y-83915250D01*
X162930224Y-83936120D01*
X162905264Y-83954632D01*
X162878609Y-83970608D01*
X162850516Y-83983895D01*
X162821257Y-83994364D01*
X162791112Y-84001915D01*
X162760372Y-84006475D01*
X162729333Y-84008000D01*
X160612667Y-84008000D01*
X160581628Y-84006475D01*
X160550888Y-84001915D01*
X160520743Y-83994364D01*
X160491484Y-83983895D01*
X160463391Y-83970608D01*
X160436736Y-83954632D01*
X160411776Y-83936120D01*
X160388750Y-83915250D01*
X160367880Y-83892224D01*
X160349368Y-83867264D01*
X160333392Y-83840609D01*
X160320105Y-83812516D01*
X160309636Y-83783257D01*
X160302085Y-83753112D01*
X160297525Y-83722372D01*
X160296000Y-83691333D01*
X160296000Y-82424667D01*
X160297525Y-82393628D01*
X160302085Y-82362888D01*
X160309636Y-82332743D01*
X160320105Y-82303484D01*
X160333392Y-82275391D01*
X160349368Y-82248736D01*
X160367880Y-82223776D01*
X160388750Y-82200750D01*
X160411776Y-82179880D01*
X160436736Y-82161368D01*
X160463391Y-82145392D01*
X160491484Y-82132105D01*
X160520743Y-82121636D01*
X160550888Y-82114085D01*
X160581628Y-82109525D01*
X160612667Y-82108000D01*
X162729333Y-82108000D01*
X162760372Y-82109525D01*
X162760372Y-82109525D01*
G37*
D27*
X161671000Y-83058000D03*
D28*
X49805000Y-99575000D03*
X52705000Y-92075000D03*
D29*
X109855000Y-99695000D03*
D30*
X103555000Y-101975000D03*
X103555000Y-99695000D03*
X103555000Y-97415000D03*
D23*
X180975000Y-66040000D03*
X183515000Y-66040000D03*
X180975000Y-63500000D03*
X183515000Y-63500000D03*
X180975000Y-60960000D03*
D24*
X183515000Y-60960000D03*
D31*
X172720000Y-59055000D03*
X172720000Y-60325000D03*
X172720000Y-61595000D03*
X172720000Y-62865000D03*
X172720000Y-64135000D03*
X172720000Y-65405000D03*
X172720000Y-66675000D03*
X172720000Y-67945000D03*
X163420000Y-67945000D03*
X163420000Y-66675000D03*
X163420000Y-65405000D03*
X163420000Y-64135000D03*
X163420000Y-62865000D03*
X163420000Y-61595000D03*
X163420000Y-60325000D03*
X163420000Y-59055000D03*
D26*
G36*
X192749071Y-108448623D02*
X192781781Y-108453475D01*
X192813857Y-108461509D01*
X192844991Y-108472649D01*
X192874884Y-108486787D01*
X192903247Y-108503787D01*
X192929807Y-108523485D01*
X192954308Y-108545692D01*
X192976515Y-108570193D01*
X192996213Y-108596753D01*
X193013213Y-108625116D01*
X193027351Y-108655009D01*
X193038491Y-108686143D01*
X193046525Y-108718219D01*
X193051377Y-108750929D01*
X193053000Y-108783956D01*
X193053000Y-109910044D01*
X193051377Y-109943071D01*
X193046525Y-109975781D01*
X193038491Y-110007857D01*
X193027351Y-110038991D01*
X193013213Y-110068884D01*
X192996213Y-110097247D01*
X192976515Y-110123807D01*
X192954308Y-110148308D01*
X192929807Y-110170515D01*
X192903247Y-110190213D01*
X192874884Y-110207213D01*
X192844991Y-110221351D01*
X192813857Y-110232491D01*
X192781781Y-110240525D01*
X192749071Y-110245377D01*
X192716044Y-110247000D01*
X191839956Y-110247000D01*
X191806929Y-110245377D01*
X191774219Y-110240525D01*
X191742143Y-110232491D01*
X191711009Y-110221351D01*
X191681116Y-110207213D01*
X191652753Y-110190213D01*
X191626193Y-110170515D01*
X191601692Y-110148308D01*
X191579485Y-110123807D01*
X191559787Y-110097247D01*
X191542787Y-110068884D01*
X191528649Y-110038991D01*
X191517509Y-110007857D01*
X191509475Y-109975781D01*
X191504623Y-109943071D01*
X191503000Y-109910044D01*
X191503000Y-108783956D01*
X191504623Y-108750929D01*
X191509475Y-108718219D01*
X191517509Y-108686143D01*
X191528649Y-108655009D01*
X191542787Y-108625116D01*
X191559787Y-108596753D01*
X191579485Y-108570193D01*
X191601692Y-108545692D01*
X191626193Y-108523485D01*
X191652753Y-108503787D01*
X191681116Y-108486787D01*
X191711009Y-108472649D01*
X191742143Y-108461509D01*
X191774219Y-108453475D01*
X191806929Y-108448623D01*
X191839956Y-108447000D01*
X192716044Y-108447000D01*
X192749071Y-108448623D01*
X192749071Y-108448623D01*
G37*
D32*
X192278000Y-109347000D03*
D26*
G36*
X194799071Y-108448623D02*
X194831781Y-108453475D01*
X194863857Y-108461509D01*
X194894991Y-108472649D01*
X194924884Y-108486787D01*
X194953247Y-108503787D01*
X194979807Y-108523485D01*
X195004308Y-108545692D01*
X195026515Y-108570193D01*
X195046213Y-108596753D01*
X195063213Y-108625116D01*
X195077351Y-108655009D01*
X195088491Y-108686143D01*
X195096525Y-108718219D01*
X195101377Y-108750929D01*
X195103000Y-108783956D01*
X195103000Y-109910044D01*
X195101377Y-109943071D01*
X195096525Y-109975781D01*
X195088491Y-110007857D01*
X195077351Y-110038991D01*
X195063213Y-110068884D01*
X195046213Y-110097247D01*
X195026515Y-110123807D01*
X195004308Y-110148308D01*
X194979807Y-110170515D01*
X194953247Y-110190213D01*
X194924884Y-110207213D01*
X194894991Y-110221351D01*
X194863857Y-110232491D01*
X194831781Y-110240525D01*
X194799071Y-110245377D01*
X194766044Y-110247000D01*
X193889956Y-110247000D01*
X193856929Y-110245377D01*
X193824219Y-110240525D01*
X193792143Y-110232491D01*
X193761009Y-110221351D01*
X193731116Y-110207213D01*
X193702753Y-110190213D01*
X193676193Y-110170515D01*
X193651692Y-110148308D01*
X193629485Y-110123807D01*
X193609787Y-110097247D01*
X193592787Y-110068884D01*
X193578649Y-110038991D01*
X193567509Y-110007857D01*
X193559475Y-109975781D01*
X193554623Y-109943071D01*
X193553000Y-109910044D01*
X193553000Y-108783956D01*
X193554623Y-108750929D01*
X193559475Y-108718219D01*
X193567509Y-108686143D01*
X193578649Y-108655009D01*
X193592787Y-108625116D01*
X193609787Y-108596753D01*
X193629485Y-108570193D01*
X193651692Y-108545692D01*
X193676193Y-108523485D01*
X193702753Y-108503787D01*
X193731116Y-108486787D01*
X193761009Y-108472649D01*
X193792143Y-108461509D01*
X193824219Y-108453475D01*
X193856929Y-108448623D01*
X193889956Y-108447000D01*
X194766044Y-108447000D01*
X194799071Y-108448623D01*
X194799071Y-108448623D01*
G37*
D32*
X194328000Y-109347000D03*
D18*
X132430000Y-72840000D03*
X127930000Y-72840000D03*
X132430000Y-66340000D03*
X127930000Y-66340000D03*
X72430000Y-72840000D03*
X67930000Y-72840000D03*
X72430000Y-66340000D03*
X67930000Y-66340000D03*
D14*
X202819000Y-114427000D03*
X202819000Y-111887000D03*
D15*
X202819000Y-109347000D03*
D33*
X153932979Y-117809195D03*
X155202979Y-117809195D03*
X156472979Y-117809195D03*
X157742979Y-117809195D03*
X157742979Y-123209195D03*
X156472979Y-123209195D03*
X155202979Y-123209195D03*
X153932979Y-123209195D03*
D34*
X43180000Y-82590000D03*
X43180000Y-148590000D03*
X203200000Y-82590000D03*
X203200000Y-148590000D03*
D31*
X159004000Y-100330000D03*
X159004000Y-99060000D03*
X159004000Y-97790000D03*
X159004000Y-96520000D03*
X159004000Y-95250000D03*
X159004000Y-93980000D03*
X159004000Y-92710000D03*
X159004000Y-91440000D03*
X164404000Y-91440000D03*
X164404000Y-92710000D03*
X164404000Y-93980000D03*
X164404000Y-95250000D03*
X164404000Y-96520000D03*
X164404000Y-97790000D03*
X164404000Y-99060000D03*
X164404000Y-100330000D03*
D26*
G36*
X158965071Y-80234623D02*
X158997781Y-80239475D01*
X159029857Y-80247509D01*
X159060991Y-80258649D01*
X159090884Y-80272787D01*
X159119247Y-80289787D01*
X159145807Y-80309485D01*
X159170308Y-80331692D01*
X159192515Y-80356193D01*
X159212213Y-80382753D01*
X159229213Y-80411116D01*
X159243351Y-80441009D01*
X159254491Y-80472143D01*
X159262525Y-80504219D01*
X159267377Y-80536929D01*
X159269000Y-80569956D01*
X159269000Y-81446044D01*
X159267377Y-81479071D01*
X159262525Y-81511781D01*
X159254491Y-81543857D01*
X159243351Y-81574991D01*
X159229213Y-81604884D01*
X159212213Y-81633247D01*
X159192515Y-81659807D01*
X159170308Y-81684308D01*
X159145807Y-81706515D01*
X159119247Y-81726213D01*
X159090884Y-81743213D01*
X159060991Y-81757351D01*
X159029857Y-81768491D01*
X158997781Y-81776525D01*
X158965071Y-81781377D01*
X158932044Y-81783000D01*
X157805956Y-81783000D01*
X157772929Y-81781377D01*
X157740219Y-81776525D01*
X157708143Y-81768491D01*
X157677009Y-81757351D01*
X157647116Y-81743213D01*
X157618753Y-81726213D01*
X157592193Y-81706515D01*
X157567692Y-81684308D01*
X157545485Y-81659807D01*
X157525787Y-81633247D01*
X157508787Y-81604884D01*
X157494649Y-81574991D01*
X157483509Y-81543857D01*
X157475475Y-81511781D01*
X157470623Y-81479071D01*
X157469000Y-81446044D01*
X157469000Y-80569956D01*
X157470623Y-80536929D01*
X157475475Y-80504219D01*
X157483509Y-80472143D01*
X157494649Y-80441009D01*
X157508787Y-80411116D01*
X157525787Y-80382753D01*
X157545485Y-80356193D01*
X157567692Y-80331692D01*
X157592193Y-80309485D01*
X157618753Y-80289787D01*
X157647116Y-80272787D01*
X157677009Y-80258649D01*
X157708143Y-80247509D01*
X157740219Y-80239475D01*
X157772929Y-80234623D01*
X157805956Y-80233000D01*
X158932044Y-80233000D01*
X158965071Y-80234623D01*
X158965071Y-80234623D01*
G37*
D32*
X158369000Y-81008000D03*
D26*
G36*
X158965071Y-82284623D02*
X158997781Y-82289475D01*
X159029857Y-82297509D01*
X159060991Y-82308649D01*
X159090884Y-82322787D01*
X159119247Y-82339787D01*
X159145807Y-82359485D01*
X159170308Y-82381692D01*
X159192515Y-82406193D01*
X159212213Y-82432753D01*
X159229213Y-82461116D01*
X159243351Y-82491009D01*
X159254491Y-82522143D01*
X159262525Y-82554219D01*
X159267377Y-82586929D01*
X159269000Y-82619956D01*
X159269000Y-83496044D01*
X159267377Y-83529071D01*
X159262525Y-83561781D01*
X159254491Y-83593857D01*
X159243351Y-83624991D01*
X159229213Y-83654884D01*
X159212213Y-83683247D01*
X159192515Y-83709807D01*
X159170308Y-83734308D01*
X159145807Y-83756515D01*
X159119247Y-83776213D01*
X159090884Y-83793213D01*
X159060991Y-83807351D01*
X159029857Y-83818491D01*
X158997781Y-83826525D01*
X158965071Y-83831377D01*
X158932044Y-83833000D01*
X157805956Y-83833000D01*
X157772929Y-83831377D01*
X157740219Y-83826525D01*
X157708143Y-83818491D01*
X157677009Y-83807351D01*
X157647116Y-83793213D01*
X157618753Y-83776213D01*
X157592193Y-83756515D01*
X157567692Y-83734308D01*
X157545485Y-83709807D01*
X157525787Y-83683247D01*
X157508787Y-83654884D01*
X157494649Y-83624991D01*
X157483509Y-83593857D01*
X157475475Y-83561781D01*
X157470623Y-83529071D01*
X157469000Y-83496044D01*
X157469000Y-82619956D01*
X157470623Y-82586929D01*
X157475475Y-82554219D01*
X157483509Y-82522143D01*
X157494649Y-82491009D01*
X157508787Y-82461116D01*
X157525787Y-82432753D01*
X157545485Y-82406193D01*
X157567692Y-82381692D01*
X157592193Y-82359485D01*
X157618753Y-82339787D01*
X157647116Y-82322787D01*
X157677009Y-82308649D01*
X157708143Y-82297509D01*
X157740219Y-82289475D01*
X157772929Y-82284623D01*
X157805956Y-82283000D01*
X158932044Y-82283000D01*
X158965071Y-82284623D01*
X158965071Y-82284623D01*
G37*
D32*
X158369000Y-83058000D03*
D26*
G36*
X156935071Y-110861623D02*
X156967781Y-110866475D01*
X156999857Y-110874509D01*
X157030991Y-110885649D01*
X157060884Y-110899787D01*
X157089247Y-110916787D01*
X157115807Y-110936485D01*
X157140308Y-110958692D01*
X157162515Y-110983193D01*
X157182213Y-111009753D01*
X157199213Y-111038116D01*
X157213351Y-111068009D01*
X157224491Y-111099143D01*
X157232525Y-111131219D01*
X157237377Y-111163929D01*
X157239000Y-111196956D01*
X157239000Y-112323044D01*
X157237377Y-112356071D01*
X157232525Y-112388781D01*
X157224491Y-112420857D01*
X157213351Y-112451991D01*
X157199213Y-112481884D01*
X157182213Y-112510247D01*
X157162515Y-112536807D01*
X157140308Y-112561308D01*
X157115807Y-112583515D01*
X157089247Y-112603213D01*
X157060884Y-112620213D01*
X157030991Y-112634351D01*
X156999857Y-112645491D01*
X156967781Y-112653525D01*
X156935071Y-112658377D01*
X156902044Y-112660000D01*
X156025956Y-112660000D01*
X155992929Y-112658377D01*
X155960219Y-112653525D01*
X155928143Y-112645491D01*
X155897009Y-112634351D01*
X155867116Y-112620213D01*
X155838753Y-112603213D01*
X155812193Y-112583515D01*
X155787692Y-112561308D01*
X155765485Y-112536807D01*
X155745787Y-112510247D01*
X155728787Y-112481884D01*
X155714649Y-112451991D01*
X155703509Y-112420857D01*
X155695475Y-112388781D01*
X155690623Y-112356071D01*
X155689000Y-112323044D01*
X155689000Y-111196956D01*
X155690623Y-111163929D01*
X155695475Y-111131219D01*
X155703509Y-111099143D01*
X155714649Y-111068009D01*
X155728787Y-111038116D01*
X155745787Y-111009753D01*
X155765485Y-110983193D01*
X155787692Y-110958692D01*
X155812193Y-110936485D01*
X155838753Y-110916787D01*
X155867116Y-110899787D01*
X155897009Y-110885649D01*
X155928143Y-110874509D01*
X155960219Y-110866475D01*
X155992929Y-110861623D01*
X156025956Y-110860000D01*
X156902044Y-110860000D01*
X156935071Y-110861623D01*
X156935071Y-110861623D01*
G37*
D32*
X156464000Y-111760000D03*
D26*
G36*
X154885071Y-110861623D02*
X154917781Y-110866475D01*
X154949857Y-110874509D01*
X154980991Y-110885649D01*
X155010884Y-110899787D01*
X155039247Y-110916787D01*
X155065807Y-110936485D01*
X155090308Y-110958692D01*
X155112515Y-110983193D01*
X155132213Y-111009753D01*
X155149213Y-111038116D01*
X155163351Y-111068009D01*
X155174491Y-111099143D01*
X155182525Y-111131219D01*
X155187377Y-111163929D01*
X155189000Y-111196956D01*
X155189000Y-112323044D01*
X155187377Y-112356071D01*
X155182525Y-112388781D01*
X155174491Y-112420857D01*
X155163351Y-112451991D01*
X155149213Y-112481884D01*
X155132213Y-112510247D01*
X155112515Y-112536807D01*
X155090308Y-112561308D01*
X155065807Y-112583515D01*
X155039247Y-112603213D01*
X155010884Y-112620213D01*
X154980991Y-112634351D01*
X154949857Y-112645491D01*
X154917781Y-112653525D01*
X154885071Y-112658377D01*
X154852044Y-112660000D01*
X153975956Y-112660000D01*
X153942929Y-112658377D01*
X153910219Y-112653525D01*
X153878143Y-112645491D01*
X153847009Y-112634351D01*
X153817116Y-112620213D01*
X153788753Y-112603213D01*
X153762193Y-112583515D01*
X153737692Y-112561308D01*
X153715485Y-112536807D01*
X153695787Y-112510247D01*
X153678787Y-112481884D01*
X153664649Y-112451991D01*
X153653509Y-112420857D01*
X153645475Y-112388781D01*
X153640623Y-112356071D01*
X153639000Y-112323044D01*
X153639000Y-111196956D01*
X153640623Y-111163929D01*
X153645475Y-111131219D01*
X153653509Y-111099143D01*
X153664649Y-111068009D01*
X153678787Y-111038116D01*
X153695787Y-111009753D01*
X153715485Y-110983193D01*
X153737692Y-110958692D01*
X153762193Y-110936485D01*
X153788753Y-110916787D01*
X153817116Y-110899787D01*
X153847009Y-110885649D01*
X153878143Y-110874509D01*
X153910219Y-110866475D01*
X153942929Y-110861623D01*
X153975956Y-110860000D01*
X154852044Y-110860000D01*
X154885071Y-110861623D01*
X154885071Y-110861623D01*
G37*
D32*
X154414000Y-111760000D03*
D26*
G36*
X194781071Y-110988623D02*
X194813781Y-110993475D01*
X194845857Y-111001509D01*
X194876991Y-111012649D01*
X194906884Y-111026787D01*
X194935247Y-111043787D01*
X194961807Y-111063485D01*
X194986308Y-111085692D01*
X195008515Y-111110193D01*
X195028213Y-111136753D01*
X195045213Y-111165116D01*
X195059351Y-111195009D01*
X195070491Y-111226143D01*
X195078525Y-111258219D01*
X195083377Y-111290929D01*
X195085000Y-111323956D01*
X195085000Y-112450044D01*
X195083377Y-112483071D01*
X195078525Y-112515781D01*
X195070491Y-112547857D01*
X195059351Y-112578991D01*
X195045213Y-112608884D01*
X195028213Y-112637247D01*
X195008515Y-112663807D01*
X194986308Y-112688308D01*
X194961807Y-112710515D01*
X194935247Y-112730213D01*
X194906884Y-112747213D01*
X194876991Y-112761351D01*
X194845857Y-112772491D01*
X194813781Y-112780525D01*
X194781071Y-112785377D01*
X194748044Y-112787000D01*
X193871956Y-112787000D01*
X193838929Y-112785377D01*
X193806219Y-112780525D01*
X193774143Y-112772491D01*
X193743009Y-112761351D01*
X193713116Y-112747213D01*
X193684753Y-112730213D01*
X193658193Y-112710515D01*
X193633692Y-112688308D01*
X193611485Y-112663807D01*
X193591787Y-112637247D01*
X193574787Y-112608884D01*
X193560649Y-112578991D01*
X193549509Y-112547857D01*
X193541475Y-112515781D01*
X193536623Y-112483071D01*
X193535000Y-112450044D01*
X193535000Y-111323956D01*
X193536623Y-111290929D01*
X193541475Y-111258219D01*
X193549509Y-111226143D01*
X193560649Y-111195009D01*
X193574787Y-111165116D01*
X193591787Y-111136753D01*
X193611485Y-111110193D01*
X193633692Y-111085692D01*
X193658193Y-111063485D01*
X193684753Y-111043787D01*
X193713116Y-111026787D01*
X193743009Y-111012649D01*
X193774143Y-111001509D01*
X193806219Y-110993475D01*
X193838929Y-110988623D01*
X193871956Y-110987000D01*
X194748044Y-110987000D01*
X194781071Y-110988623D01*
X194781071Y-110988623D01*
G37*
D32*
X194310000Y-111887000D03*
D26*
G36*
X192731071Y-110988623D02*
X192763781Y-110993475D01*
X192795857Y-111001509D01*
X192826991Y-111012649D01*
X192856884Y-111026787D01*
X192885247Y-111043787D01*
X192911807Y-111063485D01*
X192936308Y-111085692D01*
X192958515Y-111110193D01*
X192978213Y-111136753D01*
X192995213Y-111165116D01*
X193009351Y-111195009D01*
X193020491Y-111226143D01*
X193028525Y-111258219D01*
X193033377Y-111290929D01*
X193035000Y-111323956D01*
X193035000Y-112450044D01*
X193033377Y-112483071D01*
X193028525Y-112515781D01*
X193020491Y-112547857D01*
X193009351Y-112578991D01*
X192995213Y-112608884D01*
X192978213Y-112637247D01*
X192958515Y-112663807D01*
X192936308Y-112688308D01*
X192911807Y-112710515D01*
X192885247Y-112730213D01*
X192856884Y-112747213D01*
X192826991Y-112761351D01*
X192795857Y-112772491D01*
X192763781Y-112780525D01*
X192731071Y-112785377D01*
X192698044Y-112787000D01*
X191821956Y-112787000D01*
X191788929Y-112785377D01*
X191756219Y-112780525D01*
X191724143Y-112772491D01*
X191693009Y-112761351D01*
X191663116Y-112747213D01*
X191634753Y-112730213D01*
X191608193Y-112710515D01*
X191583692Y-112688308D01*
X191561485Y-112663807D01*
X191541787Y-112637247D01*
X191524787Y-112608884D01*
X191510649Y-112578991D01*
X191499509Y-112547857D01*
X191491475Y-112515781D01*
X191486623Y-112483071D01*
X191485000Y-112450044D01*
X191485000Y-111323956D01*
X191486623Y-111290929D01*
X191491475Y-111258219D01*
X191499509Y-111226143D01*
X191510649Y-111195009D01*
X191524787Y-111165116D01*
X191541787Y-111136753D01*
X191561485Y-111110193D01*
X191583692Y-111085692D01*
X191608193Y-111063485D01*
X191634753Y-111043787D01*
X191663116Y-111026787D01*
X191693009Y-111012649D01*
X191724143Y-111001509D01*
X191756219Y-110993475D01*
X191788929Y-110988623D01*
X191821956Y-110987000D01*
X192698044Y-110987000D01*
X192731071Y-110988623D01*
X192731071Y-110988623D01*
G37*
D32*
X192260000Y-111887000D03*
D21*
X116990000Y-59590000D03*
X115720000Y-59590000D03*
X114450000Y-59590000D03*
D22*
X113180000Y-59590000D03*
D21*
X101990000Y-59590000D03*
X100720000Y-59590000D03*
X99450000Y-59590000D03*
D22*
X98180000Y-59590000D03*
D21*
X86990000Y-59590000D03*
X85720000Y-59590000D03*
X84450000Y-59590000D03*
D22*
X83180000Y-59590000D03*
D21*
X71990000Y-59590000D03*
X70720000Y-59590000D03*
X69450000Y-59590000D03*
D22*
X68180000Y-59590000D03*
D21*
X56990000Y-59590000D03*
X55720000Y-59590000D03*
X54450000Y-59590000D03*
D22*
X53180000Y-59590000D03*
D20*
X204180000Y-64590000D03*
X42180000Y-64590000D03*
D18*
X117430000Y-72840000D03*
X112930000Y-72840000D03*
X117430000Y-66340000D03*
X112930000Y-66340000D03*
X102430000Y-72840000D03*
X97930000Y-72840000D03*
X102430000Y-66340000D03*
X97930000Y-66340000D03*
X57430000Y-72840000D03*
X52930000Y-72840000D03*
X57430000Y-66340000D03*
X52930000Y-66340000D03*
D35*
X147320000Y-76590000D03*
X145415000Y-76590000D03*
X143510000Y-76590000D03*
X141605000Y-76590000D03*
D36*
X97790000Y-85725000D03*
X97790000Y-91125000D03*
X97790000Y-97155000D03*
X97790000Y-102555000D03*
D25*
X116840000Y-97835000D03*
X116840000Y-102235000D03*
D29*
X109855000Y-88645000D03*
D30*
X103555000Y-90925000D03*
X103555000Y-88645000D03*
X103555000Y-86365000D03*
D37*
X180404000Y-87710000D03*
D38*
X171704000Y-80010000D03*
X171704000Y-81280000D03*
X171704000Y-82550000D03*
X171704000Y-83820000D03*
X171704000Y-85090000D03*
X171704000Y-86360000D03*
X171704000Y-87630000D03*
X171704000Y-88900000D03*
X171704000Y-90170000D03*
X171704000Y-91440000D03*
X171704000Y-92710000D03*
X171704000Y-93980000D03*
X171704000Y-95250000D03*
X171704000Y-96520000D03*
D39*
X174989000Y-98010000D03*
X176259000Y-98010000D03*
X177529000Y-98010000D03*
X178799000Y-98010000D03*
X180069000Y-98010000D03*
X181339000Y-98010000D03*
X182609000Y-98010000D03*
X183879000Y-98010000D03*
X185149000Y-98010000D03*
X186419000Y-98010000D03*
D38*
X189704000Y-96520000D03*
X189704000Y-95250000D03*
X189704000Y-93980000D03*
X189704000Y-92710000D03*
X189704000Y-91440000D03*
X189704000Y-90170000D03*
X189704000Y-88900000D03*
X189704000Y-87630000D03*
X189704000Y-86360000D03*
X189704000Y-85090000D03*
X189704000Y-83820000D03*
X189704000Y-82550000D03*
X189704000Y-81280000D03*
X189704000Y-80010000D03*
D40*
X123825000Y-95885000D03*
X123825000Y-91440000D03*
X123825000Y-86995000D03*
X123825000Y-100330000D03*
D26*
G36*
X192731071Y-122164623D02*
X192763781Y-122169475D01*
X192795857Y-122177509D01*
X192826991Y-122188649D01*
X192856884Y-122202787D01*
X192885247Y-122219787D01*
X192911807Y-122239485D01*
X192936308Y-122261692D01*
X192958515Y-122286193D01*
X192978213Y-122312753D01*
X192995213Y-122341116D01*
X193009351Y-122371009D01*
X193020491Y-122402143D01*
X193028525Y-122434219D01*
X193033377Y-122466929D01*
X193035000Y-122499956D01*
X193035000Y-123626044D01*
X193033377Y-123659071D01*
X193028525Y-123691781D01*
X193020491Y-123723857D01*
X193009351Y-123754991D01*
X192995213Y-123784884D01*
X192978213Y-123813247D01*
X192958515Y-123839807D01*
X192936308Y-123864308D01*
X192911807Y-123886515D01*
X192885247Y-123906213D01*
X192856884Y-123923213D01*
X192826991Y-123937351D01*
X192795857Y-123948491D01*
X192763781Y-123956525D01*
X192731071Y-123961377D01*
X192698044Y-123963000D01*
X191821956Y-123963000D01*
X191788929Y-123961377D01*
X191756219Y-123956525D01*
X191724143Y-123948491D01*
X191693009Y-123937351D01*
X191663116Y-123923213D01*
X191634753Y-123906213D01*
X191608193Y-123886515D01*
X191583692Y-123864308D01*
X191561485Y-123839807D01*
X191541787Y-123813247D01*
X191524787Y-123784884D01*
X191510649Y-123754991D01*
X191499509Y-123723857D01*
X191491475Y-123691781D01*
X191486623Y-123659071D01*
X191485000Y-123626044D01*
X191485000Y-122499956D01*
X191486623Y-122466929D01*
X191491475Y-122434219D01*
X191499509Y-122402143D01*
X191510649Y-122371009D01*
X191524787Y-122341116D01*
X191541787Y-122312753D01*
X191561485Y-122286193D01*
X191583692Y-122261692D01*
X191608193Y-122239485D01*
X191634753Y-122219787D01*
X191663116Y-122202787D01*
X191693009Y-122188649D01*
X191724143Y-122177509D01*
X191756219Y-122169475D01*
X191788929Y-122164623D01*
X191821956Y-122163000D01*
X192698044Y-122163000D01*
X192731071Y-122164623D01*
X192731071Y-122164623D01*
G37*
D32*
X192260000Y-123063000D03*
D26*
G36*
X194781071Y-122164623D02*
X194813781Y-122169475D01*
X194845857Y-122177509D01*
X194876991Y-122188649D01*
X194906884Y-122202787D01*
X194935247Y-122219787D01*
X194961807Y-122239485D01*
X194986308Y-122261692D01*
X195008515Y-122286193D01*
X195028213Y-122312753D01*
X195045213Y-122341116D01*
X195059351Y-122371009D01*
X195070491Y-122402143D01*
X195078525Y-122434219D01*
X195083377Y-122466929D01*
X195085000Y-122499956D01*
X195085000Y-123626044D01*
X195083377Y-123659071D01*
X195078525Y-123691781D01*
X195070491Y-123723857D01*
X195059351Y-123754991D01*
X195045213Y-123784884D01*
X195028213Y-123813247D01*
X195008515Y-123839807D01*
X194986308Y-123864308D01*
X194961807Y-123886515D01*
X194935247Y-123906213D01*
X194906884Y-123923213D01*
X194876991Y-123937351D01*
X194845857Y-123948491D01*
X194813781Y-123956525D01*
X194781071Y-123961377D01*
X194748044Y-123963000D01*
X193871956Y-123963000D01*
X193838929Y-123961377D01*
X193806219Y-123956525D01*
X193774143Y-123948491D01*
X193743009Y-123937351D01*
X193713116Y-123923213D01*
X193684753Y-123906213D01*
X193658193Y-123886515D01*
X193633692Y-123864308D01*
X193611485Y-123839807D01*
X193591787Y-123813247D01*
X193574787Y-123784884D01*
X193560649Y-123754991D01*
X193549509Y-123723857D01*
X193541475Y-123691781D01*
X193536623Y-123659071D01*
X193535000Y-123626044D01*
X193535000Y-122499956D01*
X193536623Y-122466929D01*
X193541475Y-122434219D01*
X193549509Y-122402143D01*
X193560649Y-122371009D01*
X193574787Y-122341116D01*
X193591787Y-122312753D01*
X193611485Y-122286193D01*
X193633692Y-122261692D01*
X193658193Y-122239485D01*
X193684753Y-122219787D01*
X193713116Y-122202787D01*
X193743009Y-122188649D01*
X193774143Y-122177509D01*
X193806219Y-122169475D01*
X193838929Y-122164623D01*
X193871956Y-122163000D01*
X194748044Y-122163000D01*
X194781071Y-122164623D01*
X194781071Y-122164623D01*
G37*
D32*
X194310000Y-123063000D03*
D26*
G36*
X168490071Y-82556623D02*
X168522781Y-82561475D01*
X168554857Y-82569509D01*
X168585991Y-82580649D01*
X168615884Y-82594787D01*
X168644247Y-82611787D01*
X168670807Y-82631485D01*
X168695308Y-82653692D01*
X168717515Y-82678193D01*
X168737213Y-82704753D01*
X168754213Y-82733116D01*
X168768351Y-82763009D01*
X168779491Y-82794143D01*
X168787525Y-82826219D01*
X168792377Y-82858929D01*
X168794000Y-82891956D01*
X168794000Y-83768044D01*
X168792377Y-83801071D01*
X168787525Y-83833781D01*
X168779491Y-83865857D01*
X168768351Y-83896991D01*
X168754213Y-83926884D01*
X168737213Y-83955247D01*
X168717515Y-83981807D01*
X168695308Y-84006308D01*
X168670807Y-84028515D01*
X168644247Y-84048213D01*
X168615884Y-84065213D01*
X168585991Y-84079351D01*
X168554857Y-84090491D01*
X168522781Y-84098525D01*
X168490071Y-84103377D01*
X168457044Y-84105000D01*
X167330956Y-84105000D01*
X167297929Y-84103377D01*
X167265219Y-84098525D01*
X167233143Y-84090491D01*
X167202009Y-84079351D01*
X167172116Y-84065213D01*
X167143753Y-84048213D01*
X167117193Y-84028515D01*
X167092692Y-84006308D01*
X167070485Y-83981807D01*
X167050787Y-83955247D01*
X167033787Y-83926884D01*
X167019649Y-83896991D01*
X167008509Y-83865857D01*
X167000475Y-83833781D01*
X166995623Y-83801071D01*
X166994000Y-83768044D01*
X166994000Y-82891956D01*
X166995623Y-82858929D01*
X167000475Y-82826219D01*
X167008509Y-82794143D01*
X167019649Y-82763009D01*
X167033787Y-82733116D01*
X167050787Y-82704753D01*
X167070485Y-82678193D01*
X167092692Y-82653692D01*
X167117193Y-82631485D01*
X167143753Y-82611787D01*
X167172116Y-82594787D01*
X167202009Y-82580649D01*
X167233143Y-82569509D01*
X167265219Y-82561475D01*
X167297929Y-82556623D01*
X167330956Y-82555000D01*
X168457044Y-82555000D01*
X168490071Y-82556623D01*
X168490071Y-82556623D01*
G37*
D32*
X167894000Y-83330000D03*
D26*
G36*
X168490071Y-80506623D02*
X168522781Y-80511475D01*
X168554857Y-80519509D01*
X168585991Y-80530649D01*
X168615884Y-80544787D01*
X168644247Y-80561787D01*
X168670807Y-80581485D01*
X168695308Y-80603692D01*
X168717515Y-80628193D01*
X168737213Y-80654753D01*
X168754213Y-80683116D01*
X168768351Y-80713009D01*
X168779491Y-80744143D01*
X168787525Y-80776219D01*
X168792377Y-80808929D01*
X168794000Y-80841956D01*
X168794000Y-81718044D01*
X168792377Y-81751071D01*
X168787525Y-81783781D01*
X168779491Y-81815857D01*
X168768351Y-81846991D01*
X168754213Y-81876884D01*
X168737213Y-81905247D01*
X168717515Y-81931807D01*
X168695308Y-81956308D01*
X168670807Y-81978515D01*
X168644247Y-81998213D01*
X168615884Y-82015213D01*
X168585991Y-82029351D01*
X168554857Y-82040491D01*
X168522781Y-82048525D01*
X168490071Y-82053377D01*
X168457044Y-82055000D01*
X167330956Y-82055000D01*
X167297929Y-82053377D01*
X167265219Y-82048525D01*
X167233143Y-82040491D01*
X167202009Y-82029351D01*
X167172116Y-82015213D01*
X167143753Y-81998213D01*
X167117193Y-81978515D01*
X167092692Y-81956308D01*
X167070485Y-81931807D01*
X167050787Y-81905247D01*
X167033787Y-81876884D01*
X167019649Y-81846991D01*
X167008509Y-81815857D01*
X167000475Y-81783781D01*
X166995623Y-81751071D01*
X166994000Y-81718044D01*
X166994000Y-80841956D01*
X166995623Y-80808929D01*
X167000475Y-80776219D01*
X167008509Y-80744143D01*
X167019649Y-80713009D01*
X167033787Y-80683116D01*
X167050787Y-80654753D01*
X167070485Y-80628193D01*
X167092692Y-80603692D01*
X167117193Y-80581485D01*
X167143753Y-80561787D01*
X167172116Y-80544787D01*
X167202009Y-80530649D01*
X167233143Y-80519509D01*
X167265219Y-80511475D01*
X167297929Y-80506623D01*
X167330956Y-80505000D01*
X168457044Y-80505000D01*
X168490071Y-80506623D01*
X168490071Y-80506623D01*
G37*
D32*
X167894000Y-81280000D03*
D26*
G36*
X195922071Y-100318623D02*
X195954781Y-100323475D01*
X195986857Y-100331509D01*
X196017991Y-100342649D01*
X196047884Y-100356787D01*
X196076247Y-100373787D01*
X196102807Y-100393485D01*
X196127308Y-100415692D01*
X196149515Y-100440193D01*
X196169213Y-100466753D01*
X196186213Y-100495116D01*
X196200351Y-100525009D01*
X196211491Y-100556143D01*
X196219525Y-100588219D01*
X196224377Y-100620929D01*
X196226000Y-100653956D01*
X196226000Y-101530044D01*
X196224377Y-101563071D01*
X196219525Y-101595781D01*
X196211491Y-101627857D01*
X196200351Y-101658991D01*
X196186213Y-101688884D01*
X196169213Y-101717247D01*
X196149515Y-101743807D01*
X196127308Y-101768308D01*
X196102807Y-101790515D01*
X196076247Y-101810213D01*
X196047884Y-101827213D01*
X196017991Y-101841351D01*
X195986857Y-101852491D01*
X195954781Y-101860525D01*
X195922071Y-101865377D01*
X195889044Y-101867000D01*
X194762956Y-101867000D01*
X194729929Y-101865377D01*
X194697219Y-101860525D01*
X194665143Y-101852491D01*
X194634009Y-101841351D01*
X194604116Y-101827213D01*
X194575753Y-101810213D01*
X194549193Y-101790515D01*
X194524692Y-101768308D01*
X194502485Y-101743807D01*
X194482787Y-101717247D01*
X194465787Y-101688884D01*
X194451649Y-101658991D01*
X194440509Y-101627857D01*
X194432475Y-101595781D01*
X194427623Y-101563071D01*
X194426000Y-101530044D01*
X194426000Y-100653956D01*
X194427623Y-100620929D01*
X194432475Y-100588219D01*
X194440509Y-100556143D01*
X194451649Y-100525009D01*
X194465787Y-100495116D01*
X194482787Y-100466753D01*
X194502485Y-100440193D01*
X194524692Y-100415692D01*
X194549193Y-100393485D01*
X194575753Y-100373787D01*
X194604116Y-100356787D01*
X194634009Y-100342649D01*
X194665143Y-100331509D01*
X194697219Y-100323475D01*
X194729929Y-100318623D01*
X194762956Y-100317000D01*
X195889044Y-100317000D01*
X195922071Y-100318623D01*
X195922071Y-100318623D01*
G37*
D32*
X195326000Y-101092000D03*
D26*
G36*
X195922071Y-102368623D02*
X195954781Y-102373475D01*
X195986857Y-102381509D01*
X196017991Y-102392649D01*
X196047884Y-102406787D01*
X196076247Y-102423787D01*
X196102807Y-102443485D01*
X196127308Y-102465692D01*
X196149515Y-102490193D01*
X196169213Y-102516753D01*
X196186213Y-102545116D01*
X196200351Y-102575009D01*
X196211491Y-102606143D01*
X196219525Y-102638219D01*
X196224377Y-102670929D01*
X196226000Y-102703956D01*
X196226000Y-103580044D01*
X196224377Y-103613071D01*
X196219525Y-103645781D01*
X196211491Y-103677857D01*
X196200351Y-103708991D01*
X196186213Y-103738884D01*
X196169213Y-103767247D01*
X196149515Y-103793807D01*
X196127308Y-103818308D01*
X196102807Y-103840515D01*
X196076247Y-103860213D01*
X196047884Y-103877213D01*
X196017991Y-103891351D01*
X195986857Y-103902491D01*
X195954781Y-103910525D01*
X195922071Y-103915377D01*
X195889044Y-103917000D01*
X194762956Y-103917000D01*
X194729929Y-103915377D01*
X194697219Y-103910525D01*
X194665143Y-103902491D01*
X194634009Y-103891351D01*
X194604116Y-103877213D01*
X194575753Y-103860213D01*
X194549193Y-103840515D01*
X194524692Y-103818308D01*
X194502485Y-103793807D01*
X194482787Y-103767247D01*
X194465787Y-103738884D01*
X194451649Y-103708991D01*
X194440509Y-103677857D01*
X194432475Y-103645781D01*
X194427623Y-103613071D01*
X194426000Y-103580044D01*
X194426000Y-102703956D01*
X194427623Y-102670929D01*
X194432475Y-102638219D01*
X194440509Y-102606143D01*
X194451649Y-102575009D01*
X194465787Y-102545116D01*
X194482787Y-102516753D01*
X194502485Y-102490193D01*
X194524692Y-102465692D01*
X194549193Y-102443485D01*
X194575753Y-102423787D01*
X194604116Y-102406787D01*
X194634009Y-102392649D01*
X194665143Y-102381509D01*
X194697219Y-102373475D01*
X194729929Y-102368623D01*
X194762956Y-102367000D01*
X195889044Y-102367000D01*
X195922071Y-102368623D01*
X195922071Y-102368623D01*
G37*
D32*
X195326000Y-103142000D03*
D14*
X202819000Y-103124000D03*
X202819000Y-100584000D03*
X202819000Y-98044000D03*
X202819000Y-95504000D03*
X202819000Y-92964000D03*
D15*
X202819000Y-90424000D03*
D20*
X53460000Y-133350000D03*
X53460000Y-128350000D03*
X53460000Y-108350000D03*
X60960000Y-108350000D03*
X60960000Y-128350000D03*
X60960000Y-133350000D03*
X69970000Y-133350000D03*
X69970000Y-128350000D03*
X69970000Y-108350000D03*
X77470000Y-108350000D03*
X77470000Y-128350000D03*
X77470000Y-133350000D03*
X119754000Y-133350000D03*
X119754000Y-128350000D03*
X119754000Y-108350000D03*
X127254000Y-108350000D03*
X127254000Y-128350000D03*
X127254000Y-133350000D03*
D21*
X156990000Y-59590000D03*
X155720000Y-59590000D03*
X154450000Y-59590000D03*
D22*
X153180000Y-59590000D03*
D41*
X177070000Y-107254000D03*
X179070000Y-106304000D03*
X179070000Y-108204000D03*
D26*
G36*
X175094071Y-105380623D02*
X175126781Y-105385475D01*
X175158857Y-105393509D01*
X175189991Y-105404649D01*
X175219884Y-105418787D01*
X175248247Y-105435787D01*
X175274807Y-105455485D01*
X175299308Y-105477692D01*
X175321515Y-105502193D01*
X175341213Y-105528753D01*
X175358213Y-105557116D01*
X175372351Y-105587009D01*
X175383491Y-105618143D01*
X175391525Y-105650219D01*
X175396377Y-105682929D01*
X175398000Y-105715956D01*
X175398000Y-106592044D01*
X175396377Y-106625071D01*
X175391525Y-106657781D01*
X175383491Y-106689857D01*
X175372351Y-106720991D01*
X175358213Y-106750884D01*
X175341213Y-106779247D01*
X175321515Y-106805807D01*
X175299308Y-106830308D01*
X175274807Y-106852515D01*
X175248247Y-106872213D01*
X175219884Y-106889213D01*
X175189991Y-106903351D01*
X175158857Y-106914491D01*
X175126781Y-106922525D01*
X175094071Y-106927377D01*
X175061044Y-106929000D01*
X173934956Y-106929000D01*
X173901929Y-106927377D01*
X173869219Y-106922525D01*
X173837143Y-106914491D01*
X173806009Y-106903351D01*
X173776116Y-106889213D01*
X173747753Y-106872213D01*
X173721193Y-106852515D01*
X173696692Y-106830308D01*
X173674485Y-106805807D01*
X173654787Y-106779247D01*
X173637787Y-106750884D01*
X173623649Y-106720991D01*
X173612509Y-106689857D01*
X173604475Y-106657781D01*
X173599623Y-106625071D01*
X173598000Y-106592044D01*
X173598000Y-105715956D01*
X173599623Y-105682929D01*
X173604475Y-105650219D01*
X173612509Y-105618143D01*
X173623649Y-105587009D01*
X173637787Y-105557116D01*
X173654787Y-105528753D01*
X173674485Y-105502193D01*
X173696692Y-105477692D01*
X173721193Y-105455485D01*
X173747753Y-105435787D01*
X173776116Y-105418787D01*
X173806009Y-105404649D01*
X173837143Y-105393509D01*
X173869219Y-105385475D01*
X173901929Y-105380623D01*
X173934956Y-105379000D01*
X175061044Y-105379000D01*
X175094071Y-105380623D01*
X175094071Y-105380623D01*
G37*
D32*
X174498000Y-106154000D03*
D26*
G36*
X175094071Y-107430623D02*
X175126781Y-107435475D01*
X175158857Y-107443509D01*
X175189991Y-107454649D01*
X175219884Y-107468787D01*
X175248247Y-107485787D01*
X175274807Y-107505485D01*
X175299308Y-107527692D01*
X175321515Y-107552193D01*
X175341213Y-107578753D01*
X175358213Y-107607116D01*
X175372351Y-107637009D01*
X175383491Y-107668143D01*
X175391525Y-107700219D01*
X175396377Y-107732929D01*
X175398000Y-107765956D01*
X175398000Y-108642044D01*
X175396377Y-108675071D01*
X175391525Y-108707781D01*
X175383491Y-108739857D01*
X175372351Y-108770991D01*
X175358213Y-108800884D01*
X175341213Y-108829247D01*
X175321515Y-108855807D01*
X175299308Y-108880308D01*
X175274807Y-108902515D01*
X175248247Y-108922213D01*
X175219884Y-108939213D01*
X175189991Y-108953351D01*
X175158857Y-108964491D01*
X175126781Y-108972525D01*
X175094071Y-108977377D01*
X175061044Y-108979000D01*
X173934956Y-108979000D01*
X173901929Y-108977377D01*
X173869219Y-108972525D01*
X173837143Y-108964491D01*
X173806009Y-108953351D01*
X173776116Y-108939213D01*
X173747753Y-108922213D01*
X173721193Y-108902515D01*
X173696692Y-108880308D01*
X173674485Y-108855807D01*
X173654787Y-108829247D01*
X173637787Y-108800884D01*
X173623649Y-108770991D01*
X173612509Y-108739857D01*
X173604475Y-108707781D01*
X173599623Y-108675071D01*
X173598000Y-108642044D01*
X173598000Y-107765956D01*
X173599623Y-107732929D01*
X173604475Y-107700219D01*
X173612509Y-107668143D01*
X173623649Y-107637009D01*
X173637787Y-107607116D01*
X173654787Y-107578753D01*
X173674485Y-107552193D01*
X173696692Y-107527692D01*
X173721193Y-107505485D01*
X173747753Y-107485787D01*
X173776116Y-107468787D01*
X173806009Y-107454649D01*
X173837143Y-107443509D01*
X173869219Y-107435475D01*
X173901929Y-107430623D01*
X173934956Y-107429000D01*
X175061044Y-107429000D01*
X175094071Y-107430623D01*
X175094071Y-107430623D01*
G37*
D32*
X174498000Y-108204000D03*
D26*
G36*
X172808071Y-105380623D02*
X172840781Y-105385475D01*
X172872857Y-105393509D01*
X172903991Y-105404649D01*
X172933884Y-105418787D01*
X172962247Y-105435787D01*
X172988807Y-105455485D01*
X173013308Y-105477692D01*
X173035515Y-105502193D01*
X173055213Y-105528753D01*
X173072213Y-105557116D01*
X173086351Y-105587009D01*
X173097491Y-105618143D01*
X173105525Y-105650219D01*
X173110377Y-105682929D01*
X173112000Y-105715956D01*
X173112000Y-106592044D01*
X173110377Y-106625071D01*
X173105525Y-106657781D01*
X173097491Y-106689857D01*
X173086351Y-106720991D01*
X173072213Y-106750884D01*
X173055213Y-106779247D01*
X173035515Y-106805807D01*
X173013308Y-106830308D01*
X172988807Y-106852515D01*
X172962247Y-106872213D01*
X172933884Y-106889213D01*
X172903991Y-106903351D01*
X172872857Y-106914491D01*
X172840781Y-106922525D01*
X172808071Y-106927377D01*
X172775044Y-106929000D01*
X171648956Y-106929000D01*
X171615929Y-106927377D01*
X171583219Y-106922525D01*
X171551143Y-106914491D01*
X171520009Y-106903351D01*
X171490116Y-106889213D01*
X171461753Y-106872213D01*
X171435193Y-106852515D01*
X171410692Y-106830308D01*
X171388485Y-106805807D01*
X171368787Y-106779247D01*
X171351787Y-106750884D01*
X171337649Y-106720991D01*
X171326509Y-106689857D01*
X171318475Y-106657781D01*
X171313623Y-106625071D01*
X171312000Y-106592044D01*
X171312000Y-105715956D01*
X171313623Y-105682929D01*
X171318475Y-105650219D01*
X171326509Y-105618143D01*
X171337649Y-105587009D01*
X171351787Y-105557116D01*
X171368787Y-105528753D01*
X171388485Y-105502193D01*
X171410692Y-105477692D01*
X171435193Y-105455485D01*
X171461753Y-105435787D01*
X171490116Y-105418787D01*
X171520009Y-105404649D01*
X171551143Y-105393509D01*
X171583219Y-105385475D01*
X171615929Y-105380623D01*
X171648956Y-105379000D01*
X172775044Y-105379000D01*
X172808071Y-105380623D01*
X172808071Y-105380623D01*
G37*
D32*
X172212000Y-106154000D03*
D26*
G36*
X172808071Y-107430623D02*
X172840781Y-107435475D01*
X172872857Y-107443509D01*
X172903991Y-107454649D01*
X172933884Y-107468787D01*
X172962247Y-107485787D01*
X172988807Y-107505485D01*
X173013308Y-107527692D01*
X173035515Y-107552193D01*
X173055213Y-107578753D01*
X173072213Y-107607116D01*
X173086351Y-107637009D01*
X173097491Y-107668143D01*
X173105525Y-107700219D01*
X173110377Y-107732929D01*
X173112000Y-107765956D01*
X173112000Y-108642044D01*
X173110377Y-108675071D01*
X173105525Y-108707781D01*
X173097491Y-108739857D01*
X173086351Y-108770991D01*
X173072213Y-108800884D01*
X173055213Y-108829247D01*
X173035515Y-108855807D01*
X173013308Y-108880308D01*
X172988807Y-108902515D01*
X172962247Y-108922213D01*
X172933884Y-108939213D01*
X172903991Y-108953351D01*
X172872857Y-108964491D01*
X172840781Y-108972525D01*
X172808071Y-108977377D01*
X172775044Y-108979000D01*
X171648956Y-108979000D01*
X171615929Y-108977377D01*
X171583219Y-108972525D01*
X171551143Y-108964491D01*
X171520009Y-108953351D01*
X171490116Y-108939213D01*
X171461753Y-108922213D01*
X171435193Y-108902515D01*
X171410692Y-108880308D01*
X171388485Y-108855807D01*
X171368787Y-108829247D01*
X171351787Y-108800884D01*
X171337649Y-108770991D01*
X171326509Y-108739857D01*
X171318475Y-108707781D01*
X171313623Y-108675071D01*
X171312000Y-108642044D01*
X171312000Y-107765956D01*
X171313623Y-107732929D01*
X171318475Y-107700219D01*
X171326509Y-107668143D01*
X171337649Y-107637009D01*
X171351787Y-107607116D01*
X171368787Y-107578753D01*
X171388485Y-107552193D01*
X171410692Y-107527692D01*
X171435193Y-107505485D01*
X171461753Y-107485787D01*
X171490116Y-107468787D01*
X171520009Y-107454649D01*
X171551143Y-107443509D01*
X171583219Y-107435475D01*
X171615929Y-107430623D01*
X171648956Y-107429000D01*
X172775044Y-107429000D01*
X172808071Y-107430623D01*
X172808071Y-107430623D01*
G37*
D32*
X172212000Y-108204000D03*
D26*
G36*
X160108071Y-58009623D02*
X160140781Y-58014475D01*
X160172857Y-58022509D01*
X160203991Y-58033649D01*
X160233884Y-58047787D01*
X160262247Y-58064787D01*
X160288807Y-58084485D01*
X160313308Y-58106692D01*
X160335515Y-58131193D01*
X160355213Y-58157753D01*
X160372213Y-58186116D01*
X160386351Y-58216009D01*
X160397491Y-58247143D01*
X160405525Y-58279219D01*
X160410377Y-58311929D01*
X160412000Y-58344956D01*
X160412000Y-59221044D01*
X160410377Y-59254071D01*
X160405525Y-59286781D01*
X160397491Y-59318857D01*
X160386351Y-59349991D01*
X160372213Y-59379884D01*
X160355213Y-59408247D01*
X160335515Y-59434807D01*
X160313308Y-59459308D01*
X160288807Y-59481515D01*
X160262247Y-59501213D01*
X160233884Y-59518213D01*
X160203991Y-59532351D01*
X160172857Y-59543491D01*
X160140781Y-59551525D01*
X160108071Y-59556377D01*
X160075044Y-59558000D01*
X158948956Y-59558000D01*
X158915929Y-59556377D01*
X158883219Y-59551525D01*
X158851143Y-59543491D01*
X158820009Y-59532351D01*
X158790116Y-59518213D01*
X158761753Y-59501213D01*
X158735193Y-59481515D01*
X158710692Y-59459308D01*
X158688485Y-59434807D01*
X158668787Y-59408247D01*
X158651787Y-59379884D01*
X158637649Y-59349991D01*
X158626509Y-59318857D01*
X158618475Y-59286781D01*
X158613623Y-59254071D01*
X158612000Y-59221044D01*
X158612000Y-58344956D01*
X158613623Y-58311929D01*
X158618475Y-58279219D01*
X158626509Y-58247143D01*
X158637649Y-58216009D01*
X158651787Y-58186116D01*
X158668787Y-58157753D01*
X158688485Y-58131193D01*
X158710692Y-58106692D01*
X158735193Y-58084485D01*
X158761753Y-58064787D01*
X158790116Y-58047787D01*
X158820009Y-58033649D01*
X158851143Y-58022509D01*
X158883219Y-58014475D01*
X158915929Y-58009623D01*
X158948956Y-58008000D01*
X160075044Y-58008000D01*
X160108071Y-58009623D01*
X160108071Y-58009623D01*
G37*
D32*
X159512000Y-58783000D03*
D26*
G36*
X160108071Y-60059623D02*
X160140781Y-60064475D01*
X160172857Y-60072509D01*
X160203991Y-60083649D01*
X160233884Y-60097787D01*
X160262247Y-60114787D01*
X160288807Y-60134485D01*
X160313308Y-60156692D01*
X160335515Y-60181193D01*
X160355213Y-60207753D01*
X160372213Y-60236116D01*
X160386351Y-60266009D01*
X160397491Y-60297143D01*
X160405525Y-60329219D01*
X160410377Y-60361929D01*
X160412000Y-60394956D01*
X160412000Y-61271044D01*
X160410377Y-61304071D01*
X160405525Y-61336781D01*
X160397491Y-61368857D01*
X160386351Y-61399991D01*
X160372213Y-61429884D01*
X160355213Y-61458247D01*
X160335515Y-61484807D01*
X160313308Y-61509308D01*
X160288807Y-61531515D01*
X160262247Y-61551213D01*
X160233884Y-61568213D01*
X160203991Y-61582351D01*
X160172857Y-61593491D01*
X160140781Y-61601525D01*
X160108071Y-61606377D01*
X160075044Y-61608000D01*
X158948956Y-61608000D01*
X158915929Y-61606377D01*
X158883219Y-61601525D01*
X158851143Y-61593491D01*
X158820009Y-61582351D01*
X158790116Y-61568213D01*
X158761753Y-61551213D01*
X158735193Y-61531515D01*
X158710692Y-61509308D01*
X158688485Y-61484807D01*
X158668787Y-61458247D01*
X158651787Y-61429884D01*
X158637649Y-61399991D01*
X158626509Y-61368857D01*
X158618475Y-61336781D01*
X158613623Y-61304071D01*
X158612000Y-61271044D01*
X158612000Y-60394956D01*
X158613623Y-60361929D01*
X158618475Y-60329219D01*
X158626509Y-60297143D01*
X158637649Y-60266009D01*
X158651787Y-60236116D01*
X158668787Y-60207753D01*
X158688485Y-60181193D01*
X158710692Y-60156692D01*
X158735193Y-60134485D01*
X158761753Y-60114787D01*
X158790116Y-60097787D01*
X158820009Y-60083649D01*
X158851143Y-60072509D01*
X158883219Y-60064475D01*
X158915929Y-60059623D01*
X158948956Y-60058000D01*
X160075044Y-60058000D01*
X160108071Y-60059623D01*
X160108071Y-60059623D01*
G37*
D32*
X159512000Y-60833000D03*
D42*
X166780000Y-130175000D03*
X170180000Y-130175000D03*
X166780000Y-120255000D03*
X170180000Y-120255000D03*
D19*
X193040000Y-137160000D03*
D18*
X200640000Y-137160000D03*
D26*
G36*
X154984581Y-108546625D02*
X155017343Y-108551485D01*
X155049471Y-108559533D01*
X155080656Y-108570691D01*
X155110596Y-108584852D01*
X155139005Y-108601879D01*
X155165608Y-108621609D01*
X155190149Y-108643851D01*
X155212391Y-108668392D01*
X155232121Y-108694995D01*
X155249148Y-108723404D01*
X155263309Y-108753344D01*
X155274467Y-108784529D01*
X155282515Y-108816657D01*
X155287375Y-108849419D01*
X155289000Y-108882500D01*
X155289000Y-109557500D01*
X155287375Y-109590581D01*
X155282515Y-109623343D01*
X155274467Y-109655471D01*
X155263309Y-109686656D01*
X155249148Y-109716596D01*
X155232121Y-109745005D01*
X155212391Y-109771608D01*
X155190149Y-109796149D01*
X155165608Y-109818391D01*
X155139005Y-109838121D01*
X155110596Y-109855148D01*
X155080656Y-109869309D01*
X155049471Y-109880467D01*
X155017343Y-109888515D01*
X154984581Y-109893375D01*
X154951500Y-109895000D01*
X154176500Y-109895000D01*
X154143419Y-109893375D01*
X154110657Y-109888515D01*
X154078529Y-109880467D01*
X154047344Y-109869309D01*
X154017404Y-109855148D01*
X153988995Y-109838121D01*
X153962392Y-109818391D01*
X153937851Y-109796149D01*
X153915609Y-109771608D01*
X153895879Y-109745005D01*
X153878852Y-109716596D01*
X153864691Y-109686656D01*
X153853533Y-109655471D01*
X153845485Y-109623343D01*
X153840625Y-109590581D01*
X153839000Y-109557500D01*
X153839000Y-108882500D01*
X153840625Y-108849419D01*
X153845485Y-108816657D01*
X153853533Y-108784529D01*
X153864691Y-108753344D01*
X153878852Y-108723404D01*
X153895879Y-108694995D01*
X153915609Y-108668392D01*
X153937851Y-108643851D01*
X153962392Y-108621609D01*
X153988995Y-108601879D01*
X154017404Y-108584852D01*
X154047344Y-108570691D01*
X154078529Y-108559533D01*
X154110657Y-108551485D01*
X154143419Y-108546625D01*
X154176500Y-108545000D01*
X154951500Y-108545000D01*
X154984581Y-108546625D01*
X154984581Y-108546625D01*
G37*
D43*
X154564000Y-109220000D03*
D26*
G36*
X156734581Y-108546625D02*
X156767343Y-108551485D01*
X156799471Y-108559533D01*
X156830656Y-108570691D01*
X156860596Y-108584852D01*
X156889005Y-108601879D01*
X156915608Y-108621609D01*
X156940149Y-108643851D01*
X156962391Y-108668392D01*
X156982121Y-108694995D01*
X156999148Y-108723404D01*
X157013309Y-108753344D01*
X157024467Y-108784529D01*
X157032515Y-108816657D01*
X157037375Y-108849419D01*
X157039000Y-108882500D01*
X157039000Y-109557500D01*
X157037375Y-109590581D01*
X157032515Y-109623343D01*
X157024467Y-109655471D01*
X157013309Y-109686656D01*
X156999148Y-109716596D01*
X156982121Y-109745005D01*
X156962391Y-109771608D01*
X156940149Y-109796149D01*
X156915608Y-109818391D01*
X156889005Y-109838121D01*
X156860596Y-109855148D01*
X156830656Y-109869309D01*
X156799471Y-109880467D01*
X156767343Y-109888515D01*
X156734581Y-109893375D01*
X156701500Y-109895000D01*
X155926500Y-109895000D01*
X155893419Y-109893375D01*
X155860657Y-109888515D01*
X155828529Y-109880467D01*
X155797344Y-109869309D01*
X155767404Y-109855148D01*
X155738995Y-109838121D01*
X155712392Y-109818391D01*
X155687851Y-109796149D01*
X155665609Y-109771608D01*
X155645879Y-109745005D01*
X155628852Y-109716596D01*
X155614691Y-109686656D01*
X155603533Y-109655471D01*
X155595485Y-109623343D01*
X155590625Y-109590581D01*
X155589000Y-109557500D01*
X155589000Y-108882500D01*
X155590625Y-108849419D01*
X155595485Y-108816657D01*
X155603533Y-108784529D01*
X155614691Y-108753344D01*
X155628852Y-108723404D01*
X155645879Y-108694995D01*
X155665609Y-108668392D01*
X155687851Y-108643851D01*
X155712392Y-108621609D01*
X155738995Y-108601879D01*
X155767404Y-108584852D01*
X155797344Y-108570691D01*
X155828529Y-108559533D01*
X155860657Y-108551485D01*
X155893419Y-108546625D01*
X155926500Y-108545000D01*
X156701500Y-108545000D01*
X156734581Y-108546625D01*
X156734581Y-108546625D01*
G37*
D43*
X156314000Y-109220000D03*
D26*
G36*
X154984581Y-113626625D02*
X155017343Y-113631485D01*
X155049471Y-113639533D01*
X155080656Y-113650691D01*
X155110596Y-113664852D01*
X155139005Y-113681879D01*
X155165608Y-113701609D01*
X155190149Y-113723851D01*
X155212391Y-113748392D01*
X155232121Y-113774995D01*
X155249148Y-113803404D01*
X155263309Y-113833344D01*
X155274467Y-113864529D01*
X155282515Y-113896657D01*
X155287375Y-113929419D01*
X155289000Y-113962500D01*
X155289000Y-114637500D01*
X155287375Y-114670581D01*
X155282515Y-114703343D01*
X155274467Y-114735471D01*
X155263309Y-114766656D01*
X155249148Y-114796596D01*
X155232121Y-114825005D01*
X155212391Y-114851608D01*
X155190149Y-114876149D01*
X155165608Y-114898391D01*
X155139005Y-114918121D01*
X155110596Y-114935148D01*
X155080656Y-114949309D01*
X155049471Y-114960467D01*
X155017343Y-114968515D01*
X154984581Y-114973375D01*
X154951500Y-114975000D01*
X154176500Y-114975000D01*
X154143419Y-114973375D01*
X154110657Y-114968515D01*
X154078529Y-114960467D01*
X154047344Y-114949309D01*
X154017404Y-114935148D01*
X153988995Y-114918121D01*
X153962392Y-114898391D01*
X153937851Y-114876149D01*
X153915609Y-114851608D01*
X153895879Y-114825005D01*
X153878852Y-114796596D01*
X153864691Y-114766656D01*
X153853533Y-114735471D01*
X153845485Y-114703343D01*
X153840625Y-114670581D01*
X153839000Y-114637500D01*
X153839000Y-113962500D01*
X153840625Y-113929419D01*
X153845485Y-113896657D01*
X153853533Y-113864529D01*
X153864691Y-113833344D01*
X153878852Y-113803404D01*
X153895879Y-113774995D01*
X153915609Y-113748392D01*
X153937851Y-113723851D01*
X153962392Y-113701609D01*
X153988995Y-113681879D01*
X154017404Y-113664852D01*
X154047344Y-113650691D01*
X154078529Y-113639533D01*
X154110657Y-113631485D01*
X154143419Y-113626625D01*
X154176500Y-113625000D01*
X154951500Y-113625000D01*
X154984581Y-113626625D01*
X154984581Y-113626625D01*
G37*
D43*
X154564000Y-114300000D03*
D26*
G36*
X156734581Y-113626625D02*
X156767343Y-113631485D01*
X156799471Y-113639533D01*
X156830656Y-113650691D01*
X156860596Y-113664852D01*
X156889005Y-113681879D01*
X156915608Y-113701609D01*
X156940149Y-113723851D01*
X156962391Y-113748392D01*
X156982121Y-113774995D01*
X156999148Y-113803404D01*
X157013309Y-113833344D01*
X157024467Y-113864529D01*
X157032515Y-113896657D01*
X157037375Y-113929419D01*
X157039000Y-113962500D01*
X157039000Y-114637500D01*
X157037375Y-114670581D01*
X157032515Y-114703343D01*
X157024467Y-114735471D01*
X157013309Y-114766656D01*
X156999148Y-114796596D01*
X156982121Y-114825005D01*
X156962391Y-114851608D01*
X156940149Y-114876149D01*
X156915608Y-114898391D01*
X156889005Y-114918121D01*
X156860596Y-114935148D01*
X156830656Y-114949309D01*
X156799471Y-114960467D01*
X156767343Y-114968515D01*
X156734581Y-114973375D01*
X156701500Y-114975000D01*
X155926500Y-114975000D01*
X155893419Y-114973375D01*
X155860657Y-114968515D01*
X155828529Y-114960467D01*
X155797344Y-114949309D01*
X155767404Y-114935148D01*
X155738995Y-114918121D01*
X155712392Y-114898391D01*
X155687851Y-114876149D01*
X155665609Y-114851608D01*
X155645879Y-114825005D01*
X155628852Y-114796596D01*
X155614691Y-114766656D01*
X155603533Y-114735471D01*
X155595485Y-114703343D01*
X155590625Y-114670581D01*
X155589000Y-114637500D01*
X155589000Y-113962500D01*
X155590625Y-113929419D01*
X155595485Y-113896657D01*
X155603533Y-113864529D01*
X155614691Y-113833344D01*
X155628852Y-113803404D01*
X155645879Y-113774995D01*
X155665609Y-113748392D01*
X155687851Y-113723851D01*
X155712392Y-113701609D01*
X155738995Y-113681879D01*
X155767404Y-113664852D01*
X155797344Y-113650691D01*
X155828529Y-113639533D01*
X155860657Y-113631485D01*
X155893419Y-113626625D01*
X155926500Y-113625000D01*
X156701500Y-113625000D01*
X156734581Y-113626625D01*
X156734581Y-113626625D01*
G37*
D43*
X156314000Y-114300000D03*
D26*
G36*
X152861081Y-91655625D02*
X152893843Y-91660485D01*
X152925971Y-91668533D01*
X152957156Y-91679691D01*
X152987096Y-91693852D01*
X153015505Y-91710879D01*
X153042108Y-91730609D01*
X153066649Y-91752851D01*
X153088891Y-91777392D01*
X153108621Y-91803995D01*
X153125648Y-91832404D01*
X153139809Y-91862344D01*
X153150967Y-91893529D01*
X153159015Y-91925657D01*
X153163875Y-91958419D01*
X153165500Y-91991500D01*
X153165500Y-92666500D01*
X153163875Y-92699581D01*
X153159015Y-92732343D01*
X153150967Y-92764471D01*
X153139809Y-92795656D01*
X153125648Y-92825596D01*
X153108621Y-92854005D01*
X153088891Y-92880608D01*
X153066649Y-92905149D01*
X153042108Y-92927391D01*
X153015505Y-92947121D01*
X152987096Y-92964148D01*
X152957156Y-92978309D01*
X152925971Y-92989467D01*
X152893843Y-92997515D01*
X152861081Y-93002375D01*
X152828000Y-93004000D01*
X152053000Y-93004000D01*
X152019919Y-93002375D01*
X151987157Y-92997515D01*
X151955029Y-92989467D01*
X151923844Y-92978309D01*
X151893904Y-92964148D01*
X151865495Y-92947121D01*
X151838892Y-92927391D01*
X151814351Y-92905149D01*
X151792109Y-92880608D01*
X151772379Y-92854005D01*
X151755352Y-92825596D01*
X151741191Y-92795656D01*
X151730033Y-92764471D01*
X151721985Y-92732343D01*
X151717125Y-92699581D01*
X151715500Y-92666500D01*
X151715500Y-91991500D01*
X151717125Y-91958419D01*
X151721985Y-91925657D01*
X151730033Y-91893529D01*
X151741191Y-91862344D01*
X151755352Y-91832404D01*
X151772379Y-91803995D01*
X151792109Y-91777392D01*
X151814351Y-91752851D01*
X151838892Y-91730609D01*
X151865495Y-91710879D01*
X151893904Y-91693852D01*
X151923844Y-91679691D01*
X151955029Y-91668533D01*
X151987157Y-91660485D01*
X152019919Y-91655625D01*
X152053000Y-91654000D01*
X152828000Y-91654000D01*
X152861081Y-91655625D01*
X152861081Y-91655625D01*
G37*
D43*
X152440500Y-92329000D03*
D26*
G36*
X151111081Y-91655625D02*
X151143843Y-91660485D01*
X151175971Y-91668533D01*
X151207156Y-91679691D01*
X151237096Y-91693852D01*
X151265505Y-91710879D01*
X151292108Y-91730609D01*
X151316649Y-91752851D01*
X151338891Y-91777392D01*
X151358621Y-91803995D01*
X151375648Y-91832404D01*
X151389809Y-91862344D01*
X151400967Y-91893529D01*
X151409015Y-91925657D01*
X151413875Y-91958419D01*
X151415500Y-91991500D01*
X151415500Y-92666500D01*
X151413875Y-92699581D01*
X151409015Y-92732343D01*
X151400967Y-92764471D01*
X151389809Y-92795656D01*
X151375648Y-92825596D01*
X151358621Y-92854005D01*
X151338891Y-92880608D01*
X151316649Y-92905149D01*
X151292108Y-92927391D01*
X151265505Y-92947121D01*
X151237096Y-92964148D01*
X151207156Y-92978309D01*
X151175971Y-92989467D01*
X151143843Y-92997515D01*
X151111081Y-93002375D01*
X151078000Y-93004000D01*
X150303000Y-93004000D01*
X150269919Y-93002375D01*
X150237157Y-92997515D01*
X150205029Y-92989467D01*
X150173844Y-92978309D01*
X150143904Y-92964148D01*
X150115495Y-92947121D01*
X150088892Y-92927391D01*
X150064351Y-92905149D01*
X150042109Y-92880608D01*
X150022379Y-92854005D01*
X150005352Y-92825596D01*
X149991191Y-92795656D01*
X149980033Y-92764471D01*
X149971985Y-92732343D01*
X149967125Y-92699581D01*
X149965500Y-92666500D01*
X149965500Y-91991500D01*
X149967125Y-91958419D01*
X149971985Y-91925657D01*
X149980033Y-91893529D01*
X149991191Y-91862344D01*
X150005352Y-91832404D01*
X150022379Y-91803995D01*
X150042109Y-91777392D01*
X150064351Y-91752851D01*
X150088892Y-91730609D01*
X150115495Y-91710879D01*
X150143904Y-91693852D01*
X150173844Y-91679691D01*
X150205029Y-91668533D01*
X150237157Y-91660485D01*
X150269919Y-91655625D01*
X150303000Y-91654000D01*
X151078000Y-91654000D01*
X151111081Y-91655625D01*
X151111081Y-91655625D01*
G37*
D43*
X150690500Y-92329000D03*
D26*
G36*
X151111081Y-93560625D02*
X151143843Y-93565485D01*
X151175971Y-93573533D01*
X151207156Y-93584691D01*
X151237096Y-93598852D01*
X151265505Y-93615879D01*
X151292108Y-93635609D01*
X151316649Y-93657851D01*
X151338891Y-93682392D01*
X151358621Y-93708995D01*
X151375648Y-93737404D01*
X151389809Y-93767344D01*
X151400967Y-93798529D01*
X151409015Y-93830657D01*
X151413875Y-93863419D01*
X151415500Y-93896500D01*
X151415500Y-94571500D01*
X151413875Y-94604581D01*
X151409015Y-94637343D01*
X151400967Y-94669471D01*
X151389809Y-94700656D01*
X151375648Y-94730596D01*
X151358621Y-94759005D01*
X151338891Y-94785608D01*
X151316649Y-94810149D01*
X151292108Y-94832391D01*
X151265505Y-94852121D01*
X151237096Y-94869148D01*
X151207156Y-94883309D01*
X151175971Y-94894467D01*
X151143843Y-94902515D01*
X151111081Y-94907375D01*
X151078000Y-94909000D01*
X150303000Y-94909000D01*
X150269919Y-94907375D01*
X150237157Y-94902515D01*
X150205029Y-94894467D01*
X150173844Y-94883309D01*
X150143904Y-94869148D01*
X150115495Y-94852121D01*
X150088892Y-94832391D01*
X150064351Y-94810149D01*
X150042109Y-94785608D01*
X150022379Y-94759005D01*
X150005352Y-94730596D01*
X149991191Y-94700656D01*
X149980033Y-94669471D01*
X149971985Y-94637343D01*
X149967125Y-94604581D01*
X149965500Y-94571500D01*
X149965500Y-93896500D01*
X149967125Y-93863419D01*
X149971985Y-93830657D01*
X149980033Y-93798529D01*
X149991191Y-93767344D01*
X150005352Y-93737404D01*
X150022379Y-93708995D01*
X150042109Y-93682392D01*
X150064351Y-93657851D01*
X150088892Y-93635609D01*
X150115495Y-93615879D01*
X150143904Y-93598852D01*
X150173844Y-93584691D01*
X150205029Y-93573533D01*
X150237157Y-93565485D01*
X150269919Y-93560625D01*
X150303000Y-93559000D01*
X151078000Y-93559000D01*
X151111081Y-93560625D01*
X151111081Y-93560625D01*
G37*
D43*
X150690500Y-94234000D03*
D26*
G36*
X152861081Y-93560625D02*
X152893843Y-93565485D01*
X152925971Y-93573533D01*
X152957156Y-93584691D01*
X152987096Y-93598852D01*
X153015505Y-93615879D01*
X153042108Y-93635609D01*
X153066649Y-93657851D01*
X153088891Y-93682392D01*
X153108621Y-93708995D01*
X153125648Y-93737404D01*
X153139809Y-93767344D01*
X153150967Y-93798529D01*
X153159015Y-93830657D01*
X153163875Y-93863419D01*
X153165500Y-93896500D01*
X153165500Y-94571500D01*
X153163875Y-94604581D01*
X153159015Y-94637343D01*
X153150967Y-94669471D01*
X153139809Y-94700656D01*
X153125648Y-94730596D01*
X153108621Y-94759005D01*
X153088891Y-94785608D01*
X153066649Y-94810149D01*
X153042108Y-94832391D01*
X153015505Y-94852121D01*
X152987096Y-94869148D01*
X152957156Y-94883309D01*
X152925971Y-94894467D01*
X152893843Y-94902515D01*
X152861081Y-94907375D01*
X152828000Y-94909000D01*
X152053000Y-94909000D01*
X152019919Y-94907375D01*
X151987157Y-94902515D01*
X151955029Y-94894467D01*
X151923844Y-94883309D01*
X151893904Y-94869148D01*
X151865495Y-94852121D01*
X151838892Y-94832391D01*
X151814351Y-94810149D01*
X151792109Y-94785608D01*
X151772379Y-94759005D01*
X151755352Y-94730596D01*
X151741191Y-94700656D01*
X151730033Y-94669471D01*
X151721985Y-94637343D01*
X151717125Y-94604581D01*
X151715500Y-94571500D01*
X151715500Y-93896500D01*
X151717125Y-93863419D01*
X151721985Y-93830657D01*
X151730033Y-93798529D01*
X151741191Y-93767344D01*
X151755352Y-93737404D01*
X151772379Y-93708995D01*
X151792109Y-93682392D01*
X151814351Y-93657851D01*
X151838892Y-93635609D01*
X151865495Y-93615879D01*
X151893904Y-93598852D01*
X151923844Y-93584691D01*
X151955029Y-93573533D01*
X151987157Y-93565485D01*
X152019919Y-93560625D01*
X152053000Y-93559000D01*
X152828000Y-93559000D01*
X152861081Y-93560625D01*
X152861081Y-93560625D01*
G37*
D43*
X152440500Y-94234000D03*
D26*
G36*
X152861081Y-95465625D02*
X152893843Y-95470485D01*
X152925971Y-95478533D01*
X152957156Y-95489691D01*
X152987096Y-95503852D01*
X153015505Y-95520879D01*
X153042108Y-95540609D01*
X153066649Y-95562851D01*
X153088891Y-95587392D01*
X153108621Y-95613995D01*
X153125648Y-95642404D01*
X153139809Y-95672344D01*
X153150967Y-95703529D01*
X153159015Y-95735657D01*
X153163875Y-95768419D01*
X153165500Y-95801500D01*
X153165500Y-96476500D01*
X153163875Y-96509581D01*
X153159015Y-96542343D01*
X153150967Y-96574471D01*
X153139809Y-96605656D01*
X153125648Y-96635596D01*
X153108621Y-96664005D01*
X153088891Y-96690608D01*
X153066649Y-96715149D01*
X153042108Y-96737391D01*
X153015505Y-96757121D01*
X152987096Y-96774148D01*
X152957156Y-96788309D01*
X152925971Y-96799467D01*
X152893843Y-96807515D01*
X152861081Y-96812375D01*
X152828000Y-96814000D01*
X152053000Y-96814000D01*
X152019919Y-96812375D01*
X151987157Y-96807515D01*
X151955029Y-96799467D01*
X151923844Y-96788309D01*
X151893904Y-96774148D01*
X151865495Y-96757121D01*
X151838892Y-96737391D01*
X151814351Y-96715149D01*
X151792109Y-96690608D01*
X151772379Y-96664005D01*
X151755352Y-96635596D01*
X151741191Y-96605656D01*
X151730033Y-96574471D01*
X151721985Y-96542343D01*
X151717125Y-96509581D01*
X151715500Y-96476500D01*
X151715500Y-95801500D01*
X151717125Y-95768419D01*
X151721985Y-95735657D01*
X151730033Y-95703529D01*
X151741191Y-95672344D01*
X151755352Y-95642404D01*
X151772379Y-95613995D01*
X151792109Y-95587392D01*
X151814351Y-95562851D01*
X151838892Y-95540609D01*
X151865495Y-95520879D01*
X151893904Y-95503852D01*
X151923844Y-95489691D01*
X151955029Y-95478533D01*
X151987157Y-95470485D01*
X152019919Y-95465625D01*
X152053000Y-95464000D01*
X152828000Y-95464000D01*
X152861081Y-95465625D01*
X152861081Y-95465625D01*
G37*
D43*
X152440500Y-96139000D03*
D26*
G36*
X151111081Y-95465625D02*
X151143843Y-95470485D01*
X151175971Y-95478533D01*
X151207156Y-95489691D01*
X151237096Y-95503852D01*
X151265505Y-95520879D01*
X151292108Y-95540609D01*
X151316649Y-95562851D01*
X151338891Y-95587392D01*
X151358621Y-95613995D01*
X151375648Y-95642404D01*
X151389809Y-95672344D01*
X151400967Y-95703529D01*
X151409015Y-95735657D01*
X151413875Y-95768419D01*
X151415500Y-95801500D01*
X151415500Y-96476500D01*
X151413875Y-96509581D01*
X151409015Y-96542343D01*
X151400967Y-96574471D01*
X151389809Y-96605656D01*
X151375648Y-96635596D01*
X151358621Y-96664005D01*
X151338891Y-96690608D01*
X151316649Y-96715149D01*
X151292108Y-96737391D01*
X151265505Y-96757121D01*
X151237096Y-96774148D01*
X151207156Y-96788309D01*
X151175971Y-96799467D01*
X151143843Y-96807515D01*
X151111081Y-96812375D01*
X151078000Y-96814000D01*
X150303000Y-96814000D01*
X150269919Y-96812375D01*
X150237157Y-96807515D01*
X150205029Y-96799467D01*
X150173844Y-96788309D01*
X150143904Y-96774148D01*
X150115495Y-96757121D01*
X150088892Y-96737391D01*
X150064351Y-96715149D01*
X150042109Y-96690608D01*
X150022379Y-96664005D01*
X150005352Y-96635596D01*
X149991191Y-96605656D01*
X149980033Y-96574471D01*
X149971985Y-96542343D01*
X149967125Y-96509581D01*
X149965500Y-96476500D01*
X149965500Y-95801500D01*
X149967125Y-95768419D01*
X149971985Y-95735657D01*
X149980033Y-95703529D01*
X149991191Y-95672344D01*
X150005352Y-95642404D01*
X150022379Y-95613995D01*
X150042109Y-95587392D01*
X150064351Y-95562851D01*
X150088892Y-95540609D01*
X150115495Y-95520879D01*
X150143904Y-95503852D01*
X150173844Y-95489691D01*
X150205029Y-95478533D01*
X150237157Y-95470485D01*
X150269919Y-95465625D01*
X150303000Y-95464000D01*
X151078000Y-95464000D01*
X151111081Y-95465625D01*
X151111081Y-95465625D01*
G37*
D43*
X150690500Y-96139000D03*
D26*
G36*
X151111081Y-97370625D02*
X151143843Y-97375485D01*
X151175971Y-97383533D01*
X151207156Y-97394691D01*
X151237096Y-97408852D01*
X151265505Y-97425879D01*
X151292108Y-97445609D01*
X151316649Y-97467851D01*
X151338891Y-97492392D01*
X151358621Y-97518995D01*
X151375648Y-97547404D01*
X151389809Y-97577344D01*
X151400967Y-97608529D01*
X151409015Y-97640657D01*
X151413875Y-97673419D01*
X151415500Y-97706500D01*
X151415500Y-98381500D01*
X151413875Y-98414581D01*
X151409015Y-98447343D01*
X151400967Y-98479471D01*
X151389809Y-98510656D01*
X151375648Y-98540596D01*
X151358621Y-98569005D01*
X151338891Y-98595608D01*
X151316649Y-98620149D01*
X151292108Y-98642391D01*
X151265505Y-98662121D01*
X151237096Y-98679148D01*
X151207156Y-98693309D01*
X151175971Y-98704467D01*
X151143843Y-98712515D01*
X151111081Y-98717375D01*
X151078000Y-98719000D01*
X150303000Y-98719000D01*
X150269919Y-98717375D01*
X150237157Y-98712515D01*
X150205029Y-98704467D01*
X150173844Y-98693309D01*
X150143904Y-98679148D01*
X150115495Y-98662121D01*
X150088892Y-98642391D01*
X150064351Y-98620149D01*
X150042109Y-98595608D01*
X150022379Y-98569005D01*
X150005352Y-98540596D01*
X149991191Y-98510656D01*
X149980033Y-98479471D01*
X149971985Y-98447343D01*
X149967125Y-98414581D01*
X149965500Y-98381500D01*
X149965500Y-97706500D01*
X149967125Y-97673419D01*
X149971985Y-97640657D01*
X149980033Y-97608529D01*
X149991191Y-97577344D01*
X150005352Y-97547404D01*
X150022379Y-97518995D01*
X150042109Y-97492392D01*
X150064351Y-97467851D01*
X150088892Y-97445609D01*
X150115495Y-97425879D01*
X150143904Y-97408852D01*
X150173844Y-97394691D01*
X150205029Y-97383533D01*
X150237157Y-97375485D01*
X150269919Y-97370625D01*
X150303000Y-97369000D01*
X151078000Y-97369000D01*
X151111081Y-97370625D01*
X151111081Y-97370625D01*
G37*
D43*
X150690500Y-98044000D03*
D26*
G36*
X152861081Y-97370625D02*
X152893843Y-97375485D01*
X152925971Y-97383533D01*
X152957156Y-97394691D01*
X152987096Y-97408852D01*
X153015505Y-97425879D01*
X153042108Y-97445609D01*
X153066649Y-97467851D01*
X153088891Y-97492392D01*
X153108621Y-97518995D01*
X153125648Y-97547404D01*
X153139809Y-97577344D01*
X153150967Y-97608529D01*
X153159015Y-97640657D01*
X153163875Y-97673419D01*
X153165500Y-97706500D01*
X153165500Y-98381500D01*
X153163875Y-98414581D01*
X153159015Y-98447343D01*
X153150967Y-98479471D01*
X153139809Y-98510656D01*
X153125648Y-98540596D01*
X153108621Y-98569005D01*
X153088891Y-98595608D01*
X153066649Y-98620149D01*
X153042108Y-98642391D01*
X153015505Y-98662121D01*
X152987096Y-98679148D01*
X152957156Y-98693309D01*
X152925971Y-98704467D01*
X152893843Y-98712515D01*
X152861081Y-98717375D01*
X152828000Y-98719000D01*
X152053000Y-98719000D01*
X152019919Y-98717375D01*
X151987157Y-98712515D01*
X151955029Y-98704467D01*
X151923844Y-98693309D01*
X151893904Y-98679148D01*
X151865495Y-98662121D01*
X151838892Y-98642391D01*
X151814351Y-98620149D01*
X151792109Y-98595608D01*
X151772379Y-98569005D01*
X151755352Y-98540596D01*
X151741191Y-98510656D01*
X151730033Y-98479471D01*
X151721985Y-98447343D01*
X151717125Y-98414581D01*
X151715500Y-98381500D01*
X151715500Y-97706500D01*
X151717125Y-97673419D01*
X151721985Y-97640657D01*
X151730033Y-97608529D01*
X151741191Y-97577344D01*
X151755352Y-97547404D01*
X151772379Y-97518995D01*
X151792109Y-97492392D01*
X151814351Y-97467851D01*
X151838892Y-97445609D01*
X151865495Y-97425879D01*
X151893904Y-97408852D01*
X151923844Y-97394691D01*
X151955029Y-97383533D01*
X151987157Y-97375485D01*
X152019919Y-97370625D01*
X152053000Y-97369000D01*
X152828000Y-97369000D01*
X152861081Y-97370625D01*
X152861081Y-97370625D01*
G37*
D43*
X152440500Y-98044000D03*
D26*
G36*
X152861081Y-99275625D02*
X152893843Y-99280485D01*
X152925971Y-99288533D01*
X152957156Y-99299691D01*
X152987096Y-99313852D01*
X153015505Y-99330879D01*
X153042108Y-99350609D01*
X153066649Y-99372851D01*
X153088891Y-99397392D01*
X153108621Y-99423995D01*
X153125648Y-99452404D01*
X153139809Y-99482344D01*
X153150967Y-99513529D01*
X153159015Y-99545657D01*
X153163875Y-99578419D01*
X153165500Y-99611500D01*
X153165500Y-100286500D01*
X153163875Y-100319581D01*
X153159015Y-100352343D01*
X153150967Y-100384471D01*
X153139809Y-100415656D01*
X153125648Y-100445596D01*
X153108621Y-100474005D01*
X153088891Y-100500608D01*
X153066649Y-100525149D01*
X153042108Y-100547391D01*
X153015505Y-100567121D01*
X152987096Y-100584148D01*
X152957156Y-100598309D01*
X152925971Y-100609467D01*
X152893843Y-100617515D01*
X152861081Y-100622375D01*
X152828000Y-100624000D01*
X152053000Y-100624000D01*
X152019919Y-100622375D01*
X151987157Y-100617515D01*
X151955029Y-100609467D01*
X151923844Y-100598309D01*
X151893904Y-100584148D01*
X151865495Y-100567121D01*
X151838892Y-100547391D01*
X151814351Y-100525149D01*
X151792109Y-100500608D01*
X151772379Y-100474005D01*
X151755352Y-100445596D01*
X151741191Y-100415656D01*
X151730033Y-100384471D01*
X151721985Y-100352343D01*
X151717125Y-100319581D01*
X151715500Y-100286500D01*
X151715500Y-99611500D01*
X151717125Y-99578419D01*
X151721985Y-99545657D01*
X151730033Y-99513529D01*
X151741191Y-99482344D01*
X151755352Y-99452404D01*
X151772379Y-99423995D01*
X151792109Y-99397392D01*
X151814351Y-99372851D01*
X151838892Y-99350609D01*
X151865495Y-99330879D01*
X151893904Y-99313852D01*
X151923844Y-99299691D01*
X151955029Y-99288533D01*
X151987157Y-99280485D01*
X152019919Y-99275625D01*
X152053000Y-99274000D01*
X152828000Y-99274000D01*
X152861081Y-99275625D01*
X152861081Y-99275625D01*
G37*
D43*
X152440500Y-99949000D03*
D26*
G36*
X151111081Y-99275625D02*
X151143843Y-99280485D01*
X151175971Y-99288533D01*
X151207156Y-99299691D01*
X151237096Y-99313852D01*
X151265505Y-99330879D01*
X151292108Y-99350609D01*
X151316649Y-99372851D01*
X151338891Y-99397392D01*
X151358621Y-99423995D01*
X151375648Y-99452404D01*
X151389809Y-99482344D01*
X151400967Y-99513529D01*
X151409015Y-99545657D01*
X151413875Y-99578419D01*
X151415500Y-99611500D01*
X151415500Y-100286500D01*
X151413875Y-100319581D01*
X151409015Y-100352343D01*
X151400967Y-100384471D01*
X151389809Y-100415656D01*
X151375648Y-100445596D01*
X151358621Y-100474005D01*
X151338891Y-100500608D01*
X151316649Y-100525149D01*
X151292108Y-100547391D01*
X151265505Y-100567121D01*
X151237096Y-100584148D01*
X151207156Y-100598309D01*
X151175971Y-100609467D01*
X151143843Y-100617515D01*
X151111081Y-100622375D01*
X151078000Y-100624000D01*
X150303000Y-100624000D01*
X150269919Y-100622375D01*
X150237157Y-100617515D01*
X150205029Y-100609467D01*
X150173844Y-100598309D01*
X150143904Y-100584148D01*
X150115495Y-100567121D01*
X150088892Y-100547391D01*
X150064351Y-100525149D01*
X150042109Y-100500608D01*
X150022379Y-100474005D01*
X150005352Y-100445596D01*
X149991191Y-100415656D01*
X149980033Y-100384471D01*
X149971985Y-100352343D01*
X149967125Y-100319581D01*
X149965500Y-100286500D01*
X149965500Y-99611500D01*
X149967125Y-99578419D01*
X149971985Y-99545657D01*
X149980033Y-99513529D01*
X149991191Y-99482344D01*
X150005352Y-99452404D01*
X150022379Y-99423995D01*
X150042109Y-99397392D01*
X150064351Y-99372851D01*
X150088892Y-99350609D01*
X150115495Y-99330879D01*
X150143904Y-99313852D01*
X150173844Y-99299691D01*
X150205029Y-99288533D01*
X150237157Y-99280485D01*
X150269919Y-99275625D01*
X150303000Y-99274000D01*
X151078000Y-99274000D01*
X151111081Y-99275625D01*
X151111081Y-99275625D01*
G37*
D43*
X150690500Y-99949000D03*
D26*
G36*
X151111081Y-101180625D02*
X151143843Y-101185485D01*
X151175971Y-101193533D01*
X151207156Y-101204691D01*
X151237096Y-101218852D01*
X151265505Y-101235879D01*
X151292108Y-101255609D01*
X151316649Y-101277851D01*
X151338891Y-101302392D01*
X151358621Y-101328995D01*
X151375648Y-101357404D01*
X151389809Y-101387344D01*
X151400967Y-101418529D01*
X151409015Y-101450657D01*
X151413875Y-101483419D01*
X151415500Y-101516500D01*
X151415500Y-102191500D01*
X151413875Y-102224581D01*
X151409015Y-102257343D01*
X151400967Y-102289471D01*
X151389809Y-102320656D01*
X151375648Y-102350596D01*
X151358621Y-102379005D01*
X151338891Y-102405608D01*
X151316649Y-102430149D01*
X151292108Y-102452391D01*
X151265505Y-102472121D01*
X151237096Y-102489148D01*
X151207156Y-102503309D01*
X151175971Y-102514467D01*
X151143843Y-102522515D01*
X151111081Y-102527375D01*
X151078000Y-102529000D01*
X150303000Y-102529000D01*
X150269919Y-102527375D01*
X150237157Y-102522515D01*
X150205029Y-102514467D01*
X150173844Y-102503309D01*
X150143904Y-102489148D01*
X150115495Y-102472121D01*
X150088892Y-102452391D01*
X150064351Y-102430149D01*
X150042109Y-102405608D01*
X150022379Y-102379005D01*
X150005352Y-102350596D01*
X149991191Y-102320656D01*
X149980033Y-102289471D01*
X149971985Y-102257343D01*
X149967125Y-102224581D01*
X149965500Y-102191500D01*
X149965500Y-101516500D01*
X149967125Y-101483419D01*
X149971985Y-101450657D01*
X149980033Y-101418529D01*
X149991191Y-101387344D01*
X150005352Y-101357404D01*
X150022379Y-101328995D01*
X150042109Y-101302392D01*
X150064351Y-101277851D01*
X150088892Y-101255609D01*
X150115495Y-101235879D01*
X150143904Y-101218852D01*
X150173844Y-101204691D01*
X150205029Y-101193533D01*
X150237157Y-101185485D01*
X150269919Y-101180625D01*
X150303000Y-101179000D01*
X151078000Y-101179000D01*
X151111081Y-101180625D01*
X151111081Y-101180625D01*
G37*
D43*
X150690500Y-101854000D03*
D26*
G36*
X152861081Y-101180625D02*
X152893843Y-101185485D01*
X152925971Y-101193533D01*
X152957156Y-101204691D01*
X152987096Y-101218852D01*
X153015505Y-101235879D01*
X153042108Y-101255609D01*
X153066649Y-101277851D01*
X153088891Y-101302392D01*
X153108621Y-101328995D01*
X153125648Y-101357404D01*
X153139809Y-101387344D01*
X153150967Y-101418529D01*
X153159015Y-101450657D01*
X153163875Y-101483419D01*
X153165500Y-101516500D01*
X153165500Y-102191500D01*
X153163875Y-102224581D01*
X153159015Y-102257343D01*
X153150967Y-102289471D01*
X153139809Y-102320656D01*
X153125648Y-102350596D01*
X153108621Y-102379005D01*
X153088891Y-102405608D01*
X153066649Y-102430149D01*
X153042108Y-102452391D01*
X153015505Y-102472121D01*
X152987096Y-102489148D01*
X152957156Y-102503309D01*
X152925971Y-102514467D01*
X152893843Y-102522515D01*
X152861081Y-102527375D01*
X152828000Y-102529000D01*
X152053000Y-102529000D01*
X152019919Y-102527375D01*
X151987157Y-102522515D01*
X151955029Y-102514467D01*
X151923844Y-102503309D01*
X151893904Y-102489148D01*
X151865495Y-102472121D01*
X151838892Y-102452391D01*
X151814351Y-102430149D01*
X151792109Y-102405608D01*
X151772379Y-102379005D01*
X151755352Y-102350596D01*
X151741191Y-102320656D01*
X151730033Y-102289471D01*
X151721985Y-102257343D01*
X151717125Y-102224581D01*
X151715500Y-102191500D01*
X151715500Y-101516500D01*
X151717125Y-101483419D01*
X151721985Y-101450657D01*
X151730033Y-101418529D01*
X151741191Y-101387344D01*
X151755352Y-101357404D01*
X151772379Y-101328995D01*
X151792109Y-101302392D01*
X151814351Y-101277851D01*
X151838892Y-101255609D01*
X151865495Y-101235879D01*
X151893904Y-101218852D01*
X151923844Y-101204691D01*
X151955029Y-101193533D01*
X151987157Y-101185485D01*
X152019919Y-101180625D01*
X152053000Y-101179000D01*
X152828000Y-101179000D01*
X152861081Y-101180625D01*
X152861081Y-101180625D01*
G37*
D43*
X152440500Y-101854000D03*
M02*
