G04 #@! TF.GenerationSoftware,KiCad,Pcbnew,(5.0.0)*
G04 #@! TF.CreationDate,2018-09-10T10:35:59+01:00*
G04 #@! TF.ProjectId,AquaHub,417175614875622E6B696361645F7063,rev?*
G04 #@! TF.SameCoordinates,Original*
G04 #@! TF.FileFunction,Paste,Bot*
G04 #@! TF.FilePolarity,Positive*
%FSLAX46Y46*%
G04 Gerber Fmt 4.6, Leading zero omitted, Abs format (unit mm)*
G04 Created by KiCad (PCBNEW (5.0.0)) date 09/10/18 10:35:59*
%MOMM*%
%LPD*%
G01*
G04 APERTURE LIST*
%ADD10R,0.600000X1.500000*%
%ADD11C,0.100000*%
%ADD12C,1.150000*%
%ADD13C,1.500000*%
%ADD14R,5.000000X5.000000*%
%ADD15R,0.900000X2.000000*%
G04 APERTURE END LIST*
D10*
G04 #@! TO.C,U6*
X142875000Y-54610000D03*
X141605000Y-54610000D03*
X140335000Y-54610000D03*
X139065000Y-54610000D03*
X137795000Y-54610000D03*
X136525000Y-54610000D03*
X135255000Y-54610000D03*
X133985000Y-54610000D03*
X133985000Y-45310000D03*
X135255000Y-45310000D03*
X136525000Y-45310000D03*
X137795000Y-45310000D03*
X139065000Y-45310000D03*
X140335000Y-45310000D03*
X141605000Y-45310000D03*
X142875000Y-45310000D03*
G04 #@! TD*
G04 #@! TO.C,U4*
X170180000Y-89215000D03*
X168910000Y-89215000D03*
X167640000Y-89215000D03*
X166370000Y-89215000D03*
X165100000Y-89215000D03*
X163830000Y-89215000D03*
X162560000Y-89215000D03*
X161290000Y-89215000D03*
X161290000Y-94615000D03*
X162560000Y-94615000D03*
X163830000Y-94615000D03*
X165100000Y-94615000D03*
X166370000Y-94615000D03*
X167640000Y-94615000D03*
X168910000Y-94615000D03*
X170180000Y-94615000D03*
G04 #@! TD*
D11*
G04 #@! TO.C,C3*
G36*
X199739505Y-106616204D02*
X199763773Y-106619804D01*
X199787572Y-106625765D01*
X199810671Y-106634030D01*
X199832850Y-106644520D01*
X199853893Y-106657132D01*
X199873599Y-106671747D01*
X199891777Y-106688223D01*
X199908253Y-106706401D01*
X199922868Y-106726107D01*
X199935480Y-106747150D01*
X199945970Y-106769329D01*
X199954235Y-106792428D01*
X199960196Y-106816227D01*
X199963796Y-106840495D01*
X199965000Y-106864999D01*
X199965000Y-107765001D01*
X199963796Y-107789505D01*
X199960196Y-107813773D01*
X199954235Y-107837572D01*
X199945970Y-107860671D01*
X199935480Y-107882850D01*
X199922868Y-107903893D01*
X199908253Y-107923599D01*
X199891777Y-107941777D01*
X199873599Y-107958253D01*
X199853893Y-107972868D01*
X199832850Y-107985480D01*
X199810671Y-107995970D01*
X199787572Y-108004235D01*
X199763773Y-108010196D01*
X199739505Y-108013796D01*
X199715001Y-108015000D01*
X199064999Y-108015000D01*
X199040495Y-108013796D01*
X199016227Y-108010196D01*
X198992428Y-108004235D01*
X198969329Y-107995970D01*
X198947150Y-107985480D01*
X198926107Y-107972868D01*
X198906401Y-107958253D01*
X198888223Y-107941777D01*
X198871747Y-107923599D01*
X198857132Y-107903893D01*
X198844520Y-107882850D01*
X198834030Y-107860671D01*
X198825765Y-107837572D01*
X198819804Y-107813773D01*
X198816204Y-107789505D01*
X198815000Y-107765001D01*
X198815000Y-106864999D01*
X198816204Y-106840495D01*
X198819804Y-106816227D01*
X198825765Y-106792428D01*
X198834030Y-106769329D01*
X198844520Y-106747150D01*
X198857132Y-106726107D01*
X198871747Y-106706401D01*
X198888223Y-106688223D01*
X198906401Y-106671747D01*
X198926107Y-106657132D01*
X198947150Y-106644520D01*
X198969329Y-106634030D01*
X198992428Y-106625765D01*
X199016227Y-106619804D01*
X199040495Y-106616204D01*
X199064999Y-106615000D01*
X199715001Y-106615000D01*
X199739505Y-106616204D01*
X199739505Y-106616204D01*
G37*
D12*
X199390000Y-107315000D03*
D11*
G36*
X197689505Y-106616204D02*
X197713773Y-106619804D01*
X197737572Y-106625765D01*
X197760671Y-106634030D01*
X197782850Y-106644520D01*
X197803893Y-106657132D01*
X197823599Y-106671747D01*
X197841777Y-106688223D01*
X197858253Y-106706401D01*
X197872868Y-106726107D01*
X197885480Y-106747150D01*
X197895970Y-106769329D01*
X197904235Y-106792428D01*
X197910196Y-106816227D01*
X197913796Y-106840495D01*
X197915000Y-106864999D01*
X197915000Y-107765001D01*
X197913796Y-107789505D01*
X197910196Y-107813773D01*
X197904235Y-107837572D01*
X197895970Y-107860671D01*
X197885480Y-107882850D01*
X197872868Y-107903893D01*
X197858253Y-107923599D01*
X197841777Y-107941777D01*
X197823599Y-107958253D01*
X197803893Y-107972868D01*
X197782850Y-107985480D01*
X197760671Y-107995970D01*
X197737572Y-108004235D01*
X197713773Y-108010196D01*
X197689505Y-108013796D01*
X197665001Y-108015000D01*
X197014999Y-108015000D01*
X196990495Y-108013796D01*
X196966227Y-108010196D01*
X196942428Y-108004235D01*
X196919329Y-107995970D01*
X196897150Y-107985480D01*
X196876107Y-107972868D01*
X196856401Y-107958253D01*
X196838223Y-107941777D01*
X196821747Y-107923599D01*
X196807132Y-107903893D01*
X196794520Y-107882850D01*
X196784030Y-107860671D01*
X196775765Y-107837572D01*
X196769804Y-107813773D01*
X196766204Y-107789505D01*
X196765000Y-107765001D01*
X196765000Y-106864999D01*
X196766204Y-106840495D01*
X196769804Y-106816227D01*
X196775765Y-106792428D01*
X196784030Y-106769329D01*
X196794520Y-106747150D01*
X196807132Y-106726107D01*
X196821747Y-106706401D01*
X196838223Y-106688223D01*
X196856401Y-106671747D01*
X196876107Y-106657132D01*
X196897150Y-106644520D01*
X196919329Y-106634030D01*
X196942428Y-106625765D01*
X196966227Y-106619804D01*
X196990495Y-106616204D01*
X197014999Y-106615000D01*
X197665001Y-106615000D01*
X197689505Y-106616204D01*
X197689505Y-106616204D01*
G37*
D12*
X197340000Y-107315000D03*
G04 #@! TD*
D11*
G04 #@! TO.C,R4*
G36*
X199739505Y-104076204D02*
X199763773Y-104079804D01*
X199787572Y-104085765D01*
X199810671Y-104094030D01*
X199832850Y-104104520D01*
X199853893Y-104117132D01*
X199873599Y-104131747D01*
X199891777Y-104148223D01*
X199908253Y-104166401D01*
X199922868Y-104186107D01*
X199935480Y-104207150D01*
X199945970Y-104229329D01*
X199954235Y-104252428D01*
X199960196Y-104276227D01*
X199963796Y-104300495D01*
X199965000Y-104324999D01*
X199965000Y-105225001D01*
X199963796Y-105249505D01*
X199960196Y-105273773D01*
X199954235Y-105297572D01*
X199945970Y-105320671D01*
X199935480Y-105342850D01*
X199922868Y-105363893D01*
X199908253Y-105383599D01*
X199891777Y-105401777D01*
X199873599Y-105418253D01*
X199853893Y-105432868D01*
X199832850Y-105445480D01*
X199810671Y-105455970D01*
X199787572Y-105464235D01*
X199763773Y-105470196D01*
X199739505Y-105473796D01*
X199715001Y-105475000D01*
X199064999Y-105475000D01*
X199040495Y-105473796D01*
X199016227Y-105470196D01*
X198992428Y-105464235D01*
X198969329Y-105455970D01*
X198947150Y-105445480D01*
X198926107Y-105432868D01*
X198906401Y-105418253D01*
X198888223Y-105401777D01*
X198871747Y-105383599D01*
X198857132Y-105363893D01*
X198844520Y-105342850D01*
X198834030Y-105320671D01*
X198825765Y-105297572D01*
X198819804Y-105273773D01*
X198816204Y-105249505D01*
X198815000Y-105225001D01*
X198815000Y-104324999D01*
X198816204Y-104300495D01*
X198819804Y-104276227D01*
X198825765Y-104252428D01*
X198834030Y-104229329D01*
X198844520Y-104207150D01*
X198857132Y-104186107D01*
X198871747Y-104166401D01*
X198888223Y-104148223D01*
X198906401Y-104131747D01*
X198926107Y-104117132D01*
X198947150Y-104104520D01*
X198969329Y-104094030D01*
X198992428Y-104085765D01*
X199016227Y-104079804D01*
X199040495Y-104076204D01*
X199064999Y-104075000D01*
X199715001Y-104075000D01*
X199739505Y-104076204D01*
X199739505Y-104076204D01*
G37*
D12*
X199390000Y-104775000D03*
D11*
G36*
X197689505Y-104076204D02*
X197713773Y-104079804D01*
X197737572Y-104085765D01*
X197760671Y-104094030D01*
X197782850Y-104104520D01*
X197803893Y-104117132D01*
X197823599Y-104131747D01*
X197841777Y-104148223D01*
X197858253Y-104166401D01*
X197872868Y-104186107D01*
X197885480Y-104207150D01*
X197895970Y-104229329D01*
X197904235Y-104252428D01*
X197910196Y-104276227D01*
X197913796Y-104300495D01*
X197915000Y-104324999D01*
X197915000Y-105225001D01*
X197913796Y-105249505D01*
X197910196Y-105273773D01*
X197904235Y-105297572D01*
X197895970Y-105320671D01*
X197885480Y-105342850D01*
X197872868Y-105363893D01*
X197858253Y-105383599D01*
X197841777Y-105401777D01*
X197823599Y-105418253D01*
X197803893Y-105432868D01*
X197782850Y-105445480D01*
X197760671Y-105455970D01*
X197737572Y-105464235D01*
X197713773Y-105470196D01*
X197689505Y-105473796D01*
X197665001Y-105475000D01*
X197014999Y-105475000D01*
X196990495Y-105473796D01*
X196966227Y-105470196D01*
X196942428Y-105464235D01*
X196919329Y-105455970D01*
X196897150Y-105445480D01*
X196876107Y-105432868D01*
X196856401Y-105418253D01*
X196838223Y-105401777D01*
X196821747Y-105383599D01*
X196807132Y-105363893D01*
X196794520Y-105342850D01*
X196784030Y-105320671D01*
X196775765Y-105297572D01*
X196769804Y-105273773D01*
X196766204Y-105249505D01*
X196765000Y-105225001D01*
X196765000Y-104324999D01*
X196766204Y-104300495D01*
X196769804Y-104276227D01*
X196775765Y-104252428D01*
X196784030Y-104229329D01*
X196794520Y-104207150D01*
X196807132Y-104186107D01*
X196821747Y-104166401D01*
X196838223Y-104148223D01*
X196856401Y-104131747D01*
X196876107Y-104117132D01*
X196897150Y-104104520D01*
X196919329Y-104094030D01*
X196942428Y-104085765D01*
X196966227Y-104079804D01*
X196990495Y-104076204D01*
X197014999Y-104075000D01*
X197665001Y-104075000D01*
X197689505Y-104076204D01*
X197689505Y-104076204D01*
G37*
D12*
X197340000Y-104775000D03*
G04 #@! TD*
D11*
G04 #@! TO.C,C4*
G36*
X187774504Y-106141204D02*
X187798773Y-106144804D01*
X187822571Y-106150765D01*
X187845671Y-106159030D01*
X187867849Y-106169520D01*
X187888893Y-106182133D01*
X187908598Y-106196747D01*
X187926777Y-106213223D01*
X187943253Y-106231402D01*
X187957867Y-106251107D01*
X187970480Y-106272151D01*
X187980970Y-106294329D01*
X187989235Y-106317429D01*
X187995196Y-106341227D01*
X187998796Y-106365496D01*
X188000000Y-106390000D01*
X188000000Y-108240000D01*
X187998796Y-108264504D01*
X187995196Y-108288773D01*
X187989235Y-108312571D01*
X187980970Y-108335671D01*
X187970480Y-108357849D01*
X187957867Y-108378893D01*
X187943253Y-108398598D01*
X187926777Y-108416777D01*
X187908598Y-108433253D01*
X187888893Y-108447867D01*
X187867849Y-108460480D01*
X187845671Y-108470970D01*
X187822571Y-108479235D01*
X187798773Y-108485196D01*
X187774504Y-108488796D01*
X187750000Y-108490000D01*
X186750000Y-108490000D01*
X186725496Y-108488796D01*
X186701227Y-108485196D01*
X186677429Y-108479235D01*
X186654329Y-108470970D01*
X186632151Y-108460480D01*
X186611107Y-108447867D01*
X186591402Y-108433253D01*
X186573223Y-108416777D01*
X186556747Y-108398598D01*
X186542133Y-108378893D01*
X186529520Y-108357849D01*
X186519030Y-108335671D01*
X186510765Y-108312571D01*
X186504804Y-108288773D01*
X186501204Y-108264504D01*
X186500000Y-108240000D01*
X186500000Y-106390000D01*
X186501204Y-106365496D01*
X186504804Y-106341227D01*
X186510765Y-106317429D01*
X186519030Y-106294329D01*
X186529520Y-106272151D01*
X186542133Y-106251107D01*
X186556747Y-106231402D01*
X186573223Y-106213223D01*
X186591402Y-106196747D01*
X186611107Y-106182133D01*
X186632151Y-106169520D01*
X186654329Y-106159030D01*
X186677429Y-106150765D01*
X186701227Y-106144804D01*
X186725496Y-106141204D01*
X186750000Y-106140000D01*
X187750000Y-106140000D01*
X187774504Y-106141204D01*
X187774504Y-106141204D01*
G37*
D13*
X187250000Y-107315000D03*
D11*
G36*
X191024504Y-106141204D02*
X191048773Y-106144804D01*
X191072571Y-106150765D01*
X191095671Y-106159030D01*
X191117849Y-106169520D01*
X191138893Y-106182133D01*
X191158598Y-106196747D01*
X191176777Y-106213223D01*
X191193253Y-106231402D01*
X191207867Y-106251107D01*
X191220480Y-106272151D01*
X191230970Y-106294329D01*
X191239235Y-106317429D01*
X191245196Y-106341227D01*
X191248796Y-106365496D01*
X191250000Y-106390000D01*
X191250000Y-108240000D01*
X191248796Y-108264504D01*
X191245196Y-108288773D01*
X191239235Y-108312571D01*
X191230970Y-108335671D01*
X191220480Y-108357849D01*
X191207867Y-108378893D01*
X191193253Y-108398598D01*
X191176777Y-108416777D01*
X191158598Y-108433253D01*
X191138893Y-108447867D01*
X191117849Y-108460480D01*
X191095671Y-108470970D01*
X191072571Y-108479235D01*
X191048773Y-108485196D01*
X191024504Y-108488796D01*
X191000000Y-108490000D01*
X190000000Y-108490000D01*
X189975496Y-108488796D01*
X189951227Y-108485196D01*
X189927429Y-108479235D01*
X189904329Y-108470970D01*
X189882151Y-108460480D01*
X189861107Y-108447867D01*
X189841402Y-108433253D01*
X189823223Y-108416777D01*
X189806747Y-108398598D01*
X189792133Y-108378893D01*
X189779520Y-108357849D01*
X189769030Y-108335671D01*
X189760765Y-108312571D01*
X189754804Y-108288773D01*
X189751204Y-108264504D01*
X189750000Y-108240000D01*
X189750000Y-106390000D01*
X189751204Y-106365496D01*
X189754804Y-106341227D01*
X189760765Y-106317429D01*
X189769030Y-106294329D01*
X189779520Y-106272151D01*
X189792133Y-106251107D01*
X189806747Y-106231402D01*
X189823223Y-106213223D01*
X189841402Y-106196747D01*
X189861107Y-106182133D01*
X189882151Y-106169520D01*
X189904329Y-106159030D01*
X189927429Y-106150765D01*
X189951227Y-106144804D01*
X189975496Y-106141204D01*
X190000000Y-106140000D01*
X191000000Y-106140000D01*
X191024504Y-106141204D01*
X191024504Y-106141204D01*
G37*
D13*
X190500000Y-107315000D03*
G04 #@! TD*
D14*
G04 #@! TO.C,U1*
X193160000Y-92685000D03*
D15*
X200660000Y-83185000D03*
X199390000Y-83185000D03*
X198120000Y-83185000D03*
X196850000Y-83185000D03*
X195580000Y-83185000D03*
X194310000Y-83185000D03*
X193040000Y-83185000D03*
X191770000Y-83185000D03*
X190500000Y-83185000D03*
X189230000Y-83185000D03*
X187960000Y-83185000D03*
X186690000Y-83185000D03*
X185420000Y-83185000D03*
X184150000Y-83185000D03*
X182880000Y-83185000D03*
X181610000Y-83185000D03*
X180340000Y-83185000D03*
X177800000Y-83185000D03*
X179070000Y-83185000D03*
X177800000Y-100185000D03*
X179070000Y-100185000D03*
X180340000Y-100185000D03*
X181610000Y-100185000D03*
X182880000Y-100185000D03*
X184150000Y-100185000D03*
X185420000Y-100185000D03*
X186690000Y-100185000D03*
X187960000Y-100185000D03*
X189230000Y-100185000D03*
X190500000Y-100185000D03*
X191770000Y-100185000D03*
X193040000Y-100185000D03*
X194310000Y-100185000D03*
X195580000Y-100185000D03*
X196850000Y-100185000D03*
X198120000Y-100185000D03*
X199390000Y-100185000D03*
X200660000Y-100185000D03*
G04 #@! TD*
M02*
