M48
;DRILL file {KiCad (6.0.0-rc1-dev-904-g29e0e6921)} date 17/11/2018 01:03:41
;FORMAT={-:-/ absolute / inch / decimal}
FMAT,2
INCH
T1C0.0157
T2C0.0315
T3C0.0394
T4C0.0512
T5C0.0551
T6C0.0709
T7C0.1260
%
G90
G05
M72
T1
X3.3268Y-2.126
X4.125Y-2.3858
X4.7244Y-1.6929
X4.75Y-2.0676
X5.225Y-2.152
X5.225Y-2.5033
X5.525Y-2.287
X5.525Y-2.5666
X5.585Y-1.857
X5.5996Y-2.342
X5.7625Y-1.802
X5.765Y-2.017
X5.9838Y-1.8832
X6.4726Y-1.7196
X6.725Y-1.857
X6.725Y-2.342
X6.78Y-1.7991
X6.78Y-2.1047
X6.78Y-2.1547
X6.815Y-1.8545
X6.815Y-2.2884
X7.0472Y-2.5276
X7.0946Y-2.4645
X7.0946Y-2.4645
X7.2225Y-2.722
X7.3731Y-1.6339
X7.4213Y-2.4705
X7.455Y-2.7845
X7.4646Y-2.5591
X7.53Y-1.717
X7.53Y-1.892
X7.64Y-1.827
X7.775Y-2.292
X7.775Y-1.947
X7.7756Y-2.9418
X7.9449Y-2.5512
X7.9907Y-1.6031
X7.9934Y-2.5536
X8.0Y-1.817
X8.0072Y-2.1937
X8.1184Y-1.8036
X8.1184Y-1.9986
X8.2134Y-2.5545
X8.3134Y-1.8036
X8.3134Y-1.9986
X8.3268Y-1.6417
X8.3951Y-3.157
X8.405Y-2.402
X8.4817Y-1.6459
X8.56Y-2.402
X8.6811Y-2.1984
X8.7402Y-1.5984
X8.7697Y-2.2933
X8.7697Y-2.372
T2
X5.6765Y-1.4517
X5.6765Y-1.5304
X5.7552Y-1.4517
X5.7552Y-1.5304
X5.8339Y-1.4517
X5.8339Y-1.5304
X5.9127Y-1.4517
X5.9127Y-1.5304
X5.9914Y-1.4517
X5.9914Y-1.5304
X6.0702Y-1.4517
X6.0702Y-1.5304
X6.1489Y-1.4517
X6.1489Y-1.5304
X6.2276Y-1.4517
X6.2276Y-1.5304
X3.9803Y-4.012
X4.0945Y-3.7168
T3
X6.935Y-2.6766
X6.775Y-2.677
X8.8586Y-2.1323
X8.8586Y-2.2323
X8.8586Y-2.3323
X6.85Y-1.442
X6.95Y-1.442
X7.05Y-1.442
X7.15Y-1.442
X7.25Y-1.442
X7.35Y-1.442
X4.055Y-1.5802
X4.055Y-1.777
X6.775Y-2.517
X6.455Y-2.677
X6.615Y-2.517
X6.615Y-2.677
X2.975Y-2.737
X2.975Y-2.937
X3.675Y-2.737
X3.675Y-3.737
X3.675Y-3.937
T4
X6.9747Y-4.3833
X7.1716Y-4.3833
X5.6647Y-4.3833
X5.8616Y-4.3833
X7.6297Y-4.3833
X7.8266Y-4.3833
X6.3197Y-4.3833
X6.5166Y-4.3833
X5.0097Y-4.3833
X5.2066Y-4.3833
X8.4151Y-4.3833
X8.6119Y-4.3833
X4.3547Y-4.3833
X4.5516Y-4.3833
T5
X4.9594Y-3.124
X4.9594Y-3.9114
X4.9594Y-4.1083
X5.2547Y-3.124
X5.2547Y-3.9114
X5.2547Y-4.1083
X4.3094Y-3.124
X4.3094Y-3.9114
X4.3094Y-4.1083
X4.6047Y-3.124
X4.6047Y-3.9114
X4.6047Y-4.1083
X5.6094Y-3.124
X5.6094Y-3.9114
X5.6094Y-4.1083
X5.9047Y-3.124
X5.9047Y-3.9114
X5.9047Y-4.1083
X7.5797Y-3.124
X7.5797Y-3.9114
X7.5797Y-4.1083
X7.875Y-3.124
X7.875Y-3.9114
X7.875Y-4.1083
X6.9194Y-3.124
X6.9194Y-3.9114
X6.9194Y-4.1083
X7.2147Y-3.124
X7.2147Y-3.9114
X7.2147Y-4.1083
X6.2594Y-3.124
X6.2594Y-3.9114
X6.2594Y-4.1083
X6.5547Y-3.124
X6.5547Y-3.9114
X6.5547Y-4.1083
T6
X8.951Y-3.1822
X8.951Y-3.4578
X8.951Y-3.8318
X8.951Y-4.1074
T7
X2.3622Y-4.1339
X9.2913Y-3.3465
X8.9764Y-1.7323
X2.6772Y-1.5748
X2.3622Y-3.3465
X2.3622Y-2.5591
X9.2913Y-2.5591
X9.2913Y-4.1339
T0
M30
