G04 #@! TF.GenerationSoftware,KiCad,Pcbnew,(6.0.0-rc1-dev-904-g29e0e6921)*
G04 #@! TF.CreationDate,2018-11-17T01:03:26+00:00*
G04 #@! TF.ProjectId,AquaHub,417175614875622E6B696361645F7063,2*
G04 #@! TF.SameCoordinates,Original*
G04 #@! TF.FileFunction,Profile,NP*
%FSLAX46Y46*%
G04 Gerber Fmt 4.6, Leading zero omitted, Abs format (unit mm)*
G04 Created by KiCad (PCBNEW (6.0.0-rc1-dev-904-g29e0e6921)) date 17/11/2018 01:03:26*
%MOMM*%
%LPD*%
G01*
G04 APERTURE LIST*
%ADD10C,0.200000*%
G04 APERTURE END LIST*
D10*
X243000000Y-119000000D02*
G75*
G02X240000000Y-122000000I-3000000J0D01*
G01*
X56000000Y-122000000D02*
G75*
G02X53000000Y-119000000I0J3000000D01*
G01*
X53000000Y-55000000D02*
G75*
G02X56000000Y-52000000I3000000J0D01*
G01*
X63000000Y-49000000D02*
G75*
G02X60000000Y-52000000I-3000000J0D01*
G01*
X240000000Y-52000000D02*
G75*
G02X243000000Y-55000000I0J-3000000D01*
G01*
X236000000Y-52000000D02*
G75*
G02X233000000Y-49000000I0J3000000D01*
G01*
X230000000Y-32000000D02*
G75*
G02X233000000Y-35000000I0J-3000000D01*
G01*
X63000000Y-35000000D02*
G75*
G02X66000000Y-32000000I3000000J0D01*
G01*
X66000000Y-32000000D02*
X230000000Y-32000000D01*
X236000000Y-52000000D02*
X240000000Y-52000000D01*
X233000000Y-35000000D02*
X233000000Y-49000000D01*
X60000000Y-52000000D02*
X56000000Y-52000000D01*
X63000000Y-35000000D02*
X63000000Y-49000000D01*
X56000000Y-122000000D02*
X240000000Y-122000000D01*
X243000000Y-119000000D02*
X243000000Y-55000000D01*
X90000000Y-90000000D02*
G75*
G02X90000000Y-86000000I0J2000000D01*
G01*
X203000000Y-86000000D02*
G75*
G02X203000000Y-90000000I0J-2000000D01*
G01*
X203000000Y-86000000D02*
X90000000Y-86000000D01*
X90000000Y-90000000D02*
X203000000Y-90000000D01*
X53000000Y-55000000D02*
X53000000Y-119000000D01*
M02*
