%TF.GenerationSoftware,KiCad,Pcbnew,(5.0.0)*%
%TF.CreationDate,2018-09-16T11:13:21+01:00*%
%TF.ProjectId,AquaHub,417175614875622E6B696361645F7063,rev?*%
%TF.SameCoordinates,Original*%
%TF.FileFunction,Soldermask,Bot*%
%TF.FilePolarity,Negative*%
%FSLAX46Y46*%
G04 Gerber Fmt 4.6, Leading zero omitted, Abs format (unit mm)*
G04 Created by KiCad (PCBNEW (5.0.0)) date 09/16/18 11:13:21*
%MOMM*%
%LPD*%
G01*
G04 APERTURE LIST*
%ADD10C,0.080000*%
%ADD11C,0.200000*%
%ADD12R,2.400000X2.400000*%
%ADD13C,2.400000*%
%ADD14C,2.900000*%
%ADD15O,2.100000X2.100000*%
%ADD16R,2.100000X2.100000*%
%ADD17O,1.470000X2.200000*%
%ADD18R,1.470000X2.200000*%
%ADD19O,2.127200X2.127200*%
%ADD20R,2.127200X2.127200*%
%ADD21C,2.200000*%
%ADD22C,4.700000*%
%ADD23C,1.400000*%
%ADD24C,3.000000*%
%ADD25R,3.000000X3.000000*%
%ADD26C,3.200000*%
%ADD27R,3.400000X2.000000*%
%ADD28C,3.180000*%
G04 APERTURE END LIST*
D10*
X55880000Y-104140000D02*
X55880000Y-102870000D01*
X66040000Y-104140000D02*
X55880000Y-104140000D01*
X66040000Y-102870000D02*
X66040000Y-104140000D01*
X55880000Y-102870000D02*
X66040000Y-102870000D01*
D11*
X50800000Y-102870000D02*
X47879000Y-102870000D01*
X50800000Y-106045000D02*
X50800000Y-102870000D01*
X146050000Y-115570000D02*
X146050000Y-118110000D01*
X140680000Y-77590000D02*
X140680000Y-75590000D01*
X148180000Y-75590000D02*
X148180000Y-77590000D01*
X148180000Y-77590000D02*
X208180000Y-77590000D01*
X208180000Y-75590000D02*
X148180000Y-75590000D01*
X208180000Y-53590000D02*
X208180000Y-75590000D01*
X38180000Y-53590000D02*
X208180000Y-53590000D01*
X38180000Y-75590000D02*
X38180000Y-53590000D01*
X140680000Y-75590000D02*
X38180000Y-75590000D01*
X48006000Y-118364000D02*
X47879000Y-102870000D01*
X146050000Y-118110000D02*
X48006000Y-118364000D01*
X50800000Y-115570000D02*
X146050000Y-115570000D01*
X50800000Y-106045000D02*
X50800000Y-115570000D01*
X38180000Y-153590000D02*
X208180000Y-153590000D01*
X38180000Y-77590000D02*
X38180000Y-153590000D01*
X140680000Y-77590000D02*
X38180000Y-77590000D01*
X208180000Y-77590000D02*
X208180000Y-153590000D01*
D12*
X58293000Y-100584000D03*
D13*
X63373000Y-100584000D03*
X88773000Y-82804000D03*
X88773000Y-100584000D03*
X83693000Y-82804000D03*
X87430000Y-72840000D03*
X82930000Y-72840000D03*
X87430000Y-66340000D03*
X82930000Y-66340000D03*
D14*
X136525000Y-133350000D03*
X136525000Y-128350000D03*
X136525000Y-108350000D03*
X144025000Y-108350000D03*
X144025000Y-128350000D03*
X144025000Y-133350000D03*
X102990000Y-133350000D03*
X102990000Y-128350000D03*
X102990000Y-108350000D03*
X110490000Y-108350000D03*
X110490000Y-128350000D03*
X110490000Y-133350000D03*
X86480000Y-133350000D03*
X86480000Y-128350000D03*
X86480000Y-108350000D03*
X93980000Y-108350000D03*
X93980000Y-128350000D03*
X93980000Y-133350000D03*
D15*
X194691000Y-97663000D03*
D16*
X194691000Y-95123000D03*
D17*
X131990000Y-59590000D03*
X130720000Y-59590000D03*
X129450000Y-59590000D03*
D18*
X128180000Y-59590000D03*
D19*
X144780000Y-84328000D03*
X144780000Y-81788000D03*
X147320000Y-84328000D03*
X147320000Y-81788000D03*
X149860000Y-84328000D03*
D20*
X149860000Y-81788000D03*
D21*
X49805000Y-99575000D03*
X52705000Y-92075000D03*
D19*
X180975000Y-66040000D03*
X183515000Y-66040000D03*
X180975000Y-63500000D03*
X183515000Y-63500000D03*
X180975000Y-60960000D03*
D20*
X183515000Y-60960000D03*
D13*
X132430000Y-72840000D03*
X127930000Y-72840000D03*
X132430000Y-66340000D03*
X127930000Y-66340000D03*
X72430000Y-72840000D03*
X67930000Y-72840000D03*
X72430000Y-66340000D03*
X67930000Y-66340000D03*
D15*
X202819000Y-126492000D03*
X202819000Y-123952000D03*
D16*
X202819000Y-121412000D03*
D22*
X43180000Y-82590000D03*
X43180000Y-148590000D03*
X203200000Y-82590000D03*
X203200000Y-148590000D03*
D17*
X116990000Y-59590000D03*
X115720000Y-59590000D03*
X114450000Y-59590000D03*
D18*
X113180000Y-59590000D03*
D17*
X101990000Y-59590000D03*
X100720000Y-59590000D03*
X99450000Y-59590000D03*
D18*
X98180000Y-59590000D03*
D17*
X86990000Y-59590000D03*
X85720000Y-59590000D03*
X84450000Y-59590000D03*
D18*
X83180000Y-59590000D03*
D17*
X71990000Y-59590000D03*
X70720000Y-59590000D03*
X69450000Y-59590000D03*
D18*
X68180000Y-59590000D03*
D17*
X56990000Y-59590000D03*
X55720000Y-59590000D03*
X54450000Y-59590000D03*
D18*
X53180000Y-59590000D03*
D14*
X204180000Y-64590000D03*
X42180000Y-64590000D03*
D13*
X117430000Y-72840000D03*
X112930000Y-72840000D03*
X117430000Y-66340000D03*
X112930000Y-66340000D03*
X102430000Y-72840000D03*
X97930000Y-72840000D03*
X102430000Y-66340000D03*
X97930000Y-66340000D03*
X57430000Y-72840000D03*
X52930000Y-72840000D03*
X57430000Y-66340000D03*
X52930000Y-66340000D03*
D23*
X147320000Y-76590000D03*
X145415000Y-76590000D03*
X143510000Y-76590000D03*
X141605000Y-76590000D03*
D24*
X92884000Y-140335000D03*
D25*
X87884000Y-140335000D03*
D24*
X109521000Y-140335000D03*
D25*
X104521000Y-140335000D03*
D24*
X126158000Y-140335000D03*
D25*
X121158000Y-140335000D03*
D24*
X59610000Y-140335000D03*
D25*
X54610000Y-140335000D03*
D24*
X76247000Y-140335000D03*
D25*
X71247000Y-140335000D03*
D24*
X142795000Y-140335000D03*
D25*
X137795000Y-140335000D03*
D26*
X123825000Y-95885000D03*
X123825000Y-91440000D03*
X123825000Y-86995000D03*
X123825000Y-100330000D03*
D15*
X202819000Y-137668000D03*
X202819000Y-135128000D03*
D16*
X202819000Y-132588000D03*
D24*
X171243000Y-140335000D03*
D25*
X166243000Y-140335000D03*
D15*
X202819000Y-103124000D03*
X202819000Y-100584000D03*
X202819000Y-98044000D03*
X202819000Y-95504000D03*
X202819000Y-92964000D03*
D16*
X202819000Y-90424000D03*
D14*
X53460000Y-133350000D03*
X53460000Y-128350000D03*
X53460000Y-108350000D03*
X60960000Y-108350000D03*
X60960000Y-128350000D03*
X60960000Y-133350000D03*
X69970000Y-133350000D03*
X69970000Y-128350000D03*
X69970000Y-108350000D03*
X77470000Y-108350000D03*
X77470000Y-128350000D03*
X77470000Y-133350000D03*
X119754000Y-133350000D03*
X119754000Y-128350000D03*
X119754000Y-108350000D03*
X127254000Y-108350000D03*
X127254000Y-128350000D03*
X127254000Y-133350000D03*
D17*
X156990000Y-59590000D03*
X155720000Y-59590000D03*
X154450000Y-59590000D03*
D18*
X153180000Y-59590000D03*
D27*
X157580000Y-65590000D03*
X153180000Y-65590000D03*
D28*
X170180000Y-120255000D03*
X166780000Y-120255000D03*
X170180000Y-130175000D03*
X166780000Y-130175000D03*
M02*
