M48
;DRILL file {KiCad (5.0.0)} date 10/01/18 00:31:14
;FORMAT={-:-/ absolute / inch / decimal}
FMAT,2
INCH,TZ
T1C0.0157
T2C0.0315
T3C0.0354
T4C0.0394
T5C0.0400
T6C0.0433
T7C0.0512
T8C0.0551
T9C0.0630
T10C0.0701
T11C0.0394
T12C0.0984
T13C0.1693
%
G90
G05
M72
T1
X4.075Y-3.75
X4.53Y-3.3
X4.725Y-3.775
X5.6Y-3.785
X5.6Y-3.86
X5.62Y-3.71
X5.62Y-3.935
X5.64Y-3.635
X5.64Y-4.01
X6.105Y-3.635
X6.105Y-3.71
X6.105Y-3.785
X6.105Y-3.86
X6.105Y-3.935
X6.105Y-4.01
X6.145Y-3.4656
X6.165Y-3.19
X6.3Y-4.3
X6.3219Y-3.4687
X6.35Y-2.375
X6.3709Y-4.2541
X6.425Y-4.2
X6.855Y-3.15
X6.89Y-2.475
X6.89Y-3.945
X6.89Y-4.025
X6.975Y-4.025
X7.125Y-2.2944
X7.175Y-2.73
X7.225Y-2.695
X7.3194Y-2.5
X7.325Y-3.975
X7.325Y-4.025
X7.325Y-4.075
X7.355Y-3.25
X7.355Y-3.4
X7.36Y-3.5
X7.375Y-3.7
X7.45Y-3.975
X7.45Y-4.075
X7.57Y-3.65
X7.57Y-3.855
X7.585Y-3.15
X7.61Y-3.75
X7.61Y-4.15
T2
X1.9608Y-3.9203
X2.075Y-3.625
T3
X6.0307Y-2.3461
X6.0807Y-2.3461
X6.1307Y-2.3461
X6.1807Y-2.3461
X5.0465Y-2.3461
X5.0965Y-2.3461
X5.1465Y-2.3461
X5.1965Y-2.3461
X2.6843Y-2.3461
X2.7343Y-2.3461
X2.7843Y-2.3461
X2.8343Y-2.3461
X3.2748Y-2.3461
X3.3248Y-2.3461
X3.3748Y-2.3461
X3.4248Y-2.3461
X3.8654Y-2.3461
X3.9154Y-2.3461
X3.9654Y-2.3461
X4.0154Y-2.3461
X2.0937Y-2.3461
X2.1437Y-2.3461
X2.1937Y-2.3461
X2.2437Y-2.3461
X4.4559Y-2.3461
X4.5059Y-2.3461
X4.5559Y-2.3461
X4.6059Y-2.3461
T4
X7.985Y-4.305
X7.985Y-4.405
X7.985Y-4.505
X7.7Y-3.745
X7.7Y-3.845
X7.985Y-3.56
X7.985Y-3.66
X7.985Y-3.76
X7.985Y-3.86
X7.985Y-3.96
X7.985Y-4.06
X2.295Y-3.96
X2.495Y-3.96
X3.295Y-3.26
X3.495Y-3.26
X3.495Y-3.96
X7.985Y-4.745
X7.985Y-4.845
X7.985Y-4.945
X7.6Y-5.4
X7.8992Y-5.4
T5
X7.125Y-2.4
X7.125Y-2.5
X7.125Y-2.6
X7.225Y-2.4
X7.225Y-2.5
X7.225Y-2.6
X5.7Y-3.22
X5.7Y-3.32
X5.8Y-3.22
X5.8Y-3.32
X5.9Y-3.22
X5.9Y-3.32
T6
X3.8555Y-2.6118
X3.8555Y-2.8677
X4.0327Y-2.6118
X4.0327Y-2.8677
X4.4461Y-2.6118
X4.4461Y-2.8677
X4.6232Y-2.6118
X4.6232Y-2.8677
X2.6744Y-2.6118
X2.6744Y-2.8677
X2.8516Y-2.6118
X2.8516Y-2.8677
X3.265Y-2.6118
X3.265Y-2.8677
X3.4421Y-2.6118
X3.4421Y-2.8677
X2.0839Y-2.6118
X2.0839Y-2.8677
X2.261Y-2.6118
X2.261Y-2.8677
X5.0366Y-2.6118
X5.0366Y-2.8677
X5.2138Y-2.6118
X5.2138Y-2.8677
T7
X5.425Y-5.525
X5.6219Y-5.525
X3.46Y-5.525
X3.6569Y-5.525
X6.545Y-5.525
X6.7419Y-5.525
X4.77Y-5.525
X4.9669Y-5.525
X2.805Y-5.525
X3.0019Y-5.525
X4.115Y-5.525
X4.3119Y-5.525
X2.15Y-5.525
X2.3469Y-5.525
T8
X5.375Y-4.2657
X5.375Y-5.0531
X5.375Y-5.25
X5.6703Y-4.2657
X5.6703Y-5.0531
X5.6703Y-5.25
X2.1047Y-4.2657
X2.1047Y-5.0531
X2.1047Y-5.25
X2.4Y-4.2657
X2.4Y-5.0531
X2.4Y-5.25
X3.4047Y-4.2657
X3.4047Y-5.0531
X3.4047Y-5.25
X3.7Y-4.2657
X3.7Y-5.0531
X3.7Y-5.25
X4.0547Y-4.2657
X4.0547Y-5.0531
X4.0547Y-5.25
X4.35Y-4.2657
X4.35Y-5.0531
X4.35Y-5.25
X4.7147Y-4.2657
X4.7147Y-5.0531
X4.7147Y-5.25
X5.01Y-4.2657
X5.01Y-5.0531
X5.01Y-5.25
X2.7547Y-4.2657
X2.7547Y-5.0531
X2.7547Y-5.25
X3.05Y-4.2657
X3.05Y-5.0531
X3.05Y-5.25
T9
X4.875Y-3.95
X4.875Y-3.6
X4.875Y-3.775
X4.875Y-3.425
T10
X6.5661Y-4.7344
X6.5661Y-5.125
X6.7Y-4.7344
X6.7Y-5.125
T11
X5.575Y-3.0154
X5.725Y-3.0154
X5.8Y-3.0154
X5.65Y-3.0154
T12
X1.6606Y-2.5429
X8.0386Y-2.5429
T13
X8.Y-5.85
X1.7Y-5.85
X1.7Y-3.2516
X8.Y-3.2516
T0
M30
