%TF.GenerationSoftware,KiCad,Pcbnew,(6.0.0-rc1-dev-714-g3024ded91)*%
%TF.CreationDate,2018-10-09T21:15:08+01:00*%
%TF.ProjectId,AquaHub,417175614875622E6B696361645F7063,rev?*%
%TF.SameCoordinates,Original*%
%TF.FileFunction,Paste,Bot*%
%TF.FilePolarity,Positive*%
%FSLAX46Y46*%
G04 Gerber Fmt 4.6, Leading zero omitted, Abs format (unit mm)*
G04 Created by KiCad (PCBNEW (6.0.0-rc1-dev-714-g3024ded91)) date 10/09/18 21:15:08*
%MOMM*%
%LPD*%
G01*
G04 APERTURE LIST*
%ADD10C,0.080000*%
%ADD11C,0.200000*%
%ADD12R,4.000000X2.500000*%
%ADD13C,0.150000*%
%ADD14C,0.800000*%
%ADD15C,2.100000*%
G04 APERTURE END LIST*
D10*
X55880000Y-104140000D02*
X55880000Y-102870000D01*
X66040000Y-104140000D02*
X55880000Y-104140000D01*
X66040000Y-102870000D02*
X66040000Y-104140000D01*
X55880000Y-102870000D02*
X66040000Y-102870000D01*
D11*
X50800000Y-102870000D02*
X47879000Y-102870000D01*
X50800000Y-106045000D02*
X50800000Y-102870000D01*
X146050000Y-115570000D02*
X146050000Y-118110000D01*
X140680000Y-77590000D02*
X140680000Y-75590000D01*
X148180000Y-75590000D02*
X148180000Y-77590000D01*
X148180000Y-77590000D02*
X208180000Y-77590000D01*
X208180000Y-75590000D02*
X148180000Y-75590000D01*
X208180000Y-53590000D02*
X208180000Y-75590000D01*
X38180000Y-53590000D02*
X208180000Y-53590000D01*
X38180000Y-75590000D02*
X38180000Y-53590000D01*
X140680000Y-75590000D02*
X38180000Y-75590000D01*
X48006000Y-118364000D02*
X47879000Y-102870000D01*
X146050000Y-118110000D02*
X48006000Y-118364000D01*
X50800000Y-115570000D02*
X146050000Y-115570000D01*
X50800000Y-106045000D02*
X50800000Y-115570000D01*
X38180000Y-153590000D02*
X208180000Y-153590000D01*
X38180000Y-77590000D02*
X38180000Y-153590000D01*
X140680000Y-77590000D02*
X38180000Y-77590000D01*
X208180000Y-77590000D02*
X208180000Y-153590000D01*
D12*
X152330000Y-65590000D03*
X158430000Y-65590000D03*
D13*
G36*
X182841603Y-59310963D02*
X182861018Y-59313843D01*
X182880057Y-59318612D01*
X182898537Y-59325224D01*
X182916279Y-59333616D01*
X182933114Y-59343706D01*
X182948879Y-59355398D01*
X182963421Y-59368579D01*
X182976602Y-59383121D01*
X182988294Y-59398886D01*
X182998384Y-59415721D01*
X183006776Y-59433463D01*
X183013388Y-59451943D01*
X183018157Y-59470982D01*
X183021037Y-59490397D01*
X183022000Y-59510000D01*
X183022000Y-59910000D01*
X183021037Y-59929603D01*
X183018157Y-59949018D01*
X183013388Y-59968057D01*
X183006776Y-59986537D01*
X182998384Y-60004279D01*
X182988294Y-60021114D01*
X182976602Y-60036879D01*
X182963421Y-60051421D01*
X182948879Y-60064602D01*
X182933114Y-60076294D01*
X182916279Y-60086384D01*
X182898537Y-60094776D01*
X182880057Y-60101388D01*
X182861018Y-60106157D01*
X182841603Y-60109037D01*
X182822000Y-60110000D01*
X181922000Y-60110000D01*
X181902397Y-60109037D01*
X181882982Y-60106157D01*
X181863943Y-60101388D01*
X181845463Y-60094776D01*
X181827721Y-60086384D01*
X181810886Y-60076294D01*
X181795121Y-60064602D01*
X181780579Y-60051421D01*
X181767398Y-60036879D01*
X181755706Y-60021114D01*
X181745616Y-60004279D01*
X181737224Y-59986537D01*
X181730612Y-59968057D01*
X181725843Y-59949018D01*
X181722963Y-59929603D01*
X181722000Y-59910000D01*
X181722000Y-59510000D01*
X181722963Y-59490397D01*
X181725843Y-59470982D01*
X181730612Y-59451943D01*
X181737224Y-59433463D01*
X181745616Y-59415721D01*
X181755706Y-59398886D01*
X181767398Y-59383121D01*
X181780579Y-59368579D01*
X181795121Y-59355398D01*
X181810886Y-59343706D01*
X181827721Y-59333616D01*
X181845463Y-59325224D01*
X181863943Y-59318612D01*
X181882982Y-59313843D01*
X181902397Y-59310963D01*
X181922000Y-59310000D01*
X182822000Y-59310000D01*
X182841603Y-59310963D01*
X182841603Y-59310963D01*
G37*
D14*
X182372000Y-59710000D03*
D13*
G36*
X182841603Y-60560963D02*
X182861018Y-60563843D01*
X182880057Y-60568612D01*
X182898537Y-60575224D01*
X182916279Y-60583616D01*
X182933114Y-60593706D01*
X182948879Y-60605398D01*
X182963421Y-60618579D01*
X182976602Y-60633121D01*
X182988294Y-60648886D01*
X182998384Y-60665721D01*
X183006776Y-60683463D01*
X183013388Y-60701943D01*
X183018157Y-60720982D01*
X183021037Y-60740397D01*
X183022000Y-60760000D01*
X183022000Y-61160000D01*
X183021037Y-61179603D01*
X183018157Y-61199018D01*
X183013388Y-61218057D01*
X183006776Y-61236537D01*
X182998384Y-61254279D01*
X182988294Y-61271114D01*
X182976602Y-61286879D01*
X182963421Y-61301421D01*
X182948879Y-61314602D01*
X182933114Y-61326294D01*
X182916279Y-61336384D01*
X182898537Y-61344776D01*
X182880057Y-61351388D01*
X182861018Y-61356157D01*
X182841603Y-61359037D01*
X182822000Y-61360000D01*
X181922000Y-61360000D01*
X181902397Y-61359037D01*
X181882982Y-61356157D01*
X181863943Y-61351388D01*
X181845463Y-61344776D01*
X181827721Y-61336384D01*
X181810886Y-61326294D01*
X181795121Y-61314602D01*
X181780579Y-61301421D01*
X181767398Y-61286879D01*
X181755706Y-61271114D01*
X181745616Y-61254279D01*
X181737224Y-61236537D01*
X181730612Y-61218057D01*
X181725843Y-61199018D01*
X181722963Y-61179603D01*
X181722000Y-61160000D01*
X181722000Y-60760000D01*
X181722963Y-60740397D01*
X181725843Y-60720982D01*
X181730612Y-60701943D01*
X181737224Y-60683463D01*
X181745616Y-60665721D01*
X181755706Y-60648886D01*
X181767398Y-60633121D01*
X181780579Y-60618579D01*
X181795121Y-60605398D01*
X181810886Y-60593706D01*
X181827721Y-60583616D01*
X181845463Y-60575224D01*
X181863943Y-60568612D01*
X181882982Y-60563843D01*
X181902397Y-60560963D01*
X181922000Y-60560000D01*
X182822000Y-60560000D01*
X182841603Y-60560963D01*
X182841603Y-60560963D01*
G37*
D14*
X182372000Y-60960000D03*
D13*
G36*
X182841603Y-61810963D02*
X182861018Y-61813843D01*
X182880057Y-61818612D01*
X182898537Y-61825224D01*
X182916279Y-61833616D01*
X182933114Y-61843706D01*
X182948879Y-61855398D01*
X182963421Y-61868579D01*
X182976602Y-61883121D01*
X182988294Y-61898886D01*
X182998384Y-61915721D01*
X183006776Y-61933463D01*
X183013388Y-61951943D01*
X183018157Y-61970982D01*
X183021037Y-61990397D01*
X183022000Y-62010000D01*
X183022000Y-62410000D01*
X183021037Y-62429603D01*
X183018157Y-62449018D01*
X183013388Y-62468057D01*
X183006776Y-62486537D01*
X182998384Y-62504279D01*
X182988294Y-62521114D01*
X182976602Y-62536879D01*
X182963421Y-62551421D01*
X182948879Y-62564602D01*
X182933114Y-62576294D01*
X182916279Y-62586384D01*
X182898537Y-62594776D01*
X182880057Y-62601388D01*
X182861018Y-62606157D01*
X182841603Y-62609037D01*
X182822000Y-62610000D01*
X181922000Y-62610000D01*
X181902397Y-62609037D01*
X181882982Y-62606157D01*
X181863943Y-62601388D01*
X181845463Y-62594776D01*
X181827721Y-62586384D01*
X181810886Y-62576294D01*
X181795121Y-62564602D01*
X181780579Y-62551421D01*
X181767398Y-62536879D01*
X181755706Y-62521114D01*
X181745616Y-62504279D01*
X181737224Y-62486537D01*
X181730612Y-62468057D01*
X181725843Y-62449018D01*
X181722963Y-62429603D01*
X181722000Y-62410000D01*
X181722000Y-62010000D01*
X181722963Y-61990397D01*
X181725843Y-61970982D01*
X181730612Y-61951943D01*
X181737224Y-61933463D01*
X181745616Y-61915721D01*
X181755706Y-61898886D01*
X181767398Y-61883121D01*
X181780579Y-61868579D01*
X181795121Y-61855398D01*
X181810886Y-61843706D01*
X181827721Y-61833616D01*
X181845463Y-61825224D01*
X181863943Y-61818612D01*
X181882982Y-61813843D01*
X181902397Y-61810963D01*
X181922000Y-61810000D01*
X182822000Y-61810000D01*
X182841603Y-61810963D01*
X182841603Y-61810963D01*
G37*
D14*
X182372000Y-62210000D03*
D13*
G36*
X182841603Y-63060963D02*
X182861018Y-63063843D01*
X182880057Y-63068612D01*
X182898537Y-63075224D01*
X182916279Y-63083616D01*
X182933114Y-63093706D01*
X182948879Y-63105398D01*
X182963421Y-63118579D01*
X182976602Y-63133121D01*
X182988294Y-63148886D01*
X182998384Y-63165721D01*
X183006776Y-63183463D01*
X183013388Y-63201943D01*
X183018157Y-63220982D01*
X183021037Y-63240397D01*
X183022000Y-63260000D01*
X183022000Y-63660000D01*
X183021037Y-63679603D01*
X183018157Y-63699018D01*
X183013388Y-63718057D01*
X183006776Y-63736537D01*
X182998384Y-63754279D01*
X182988294Y-63771114D01*
X182976602Y-63786879D01*
X182963421Y-63801421D01*
X182948879Y-63814602D01*
X182933114Y-63826294D01*
X182916279Y-63836384D01*
X182898537Y-63844776D01*
X182880057Y-63851388D01*
X182861018Y-63856157D01*
X182841603Y-63859037D01*
X182822000Y-63860000D01*
X181922000Y-63860000D01*
X181902397Y-63859037D01*
X181882982Y-63856157D01*
X181863943Y-63851388D01*
X181845463Y-63844776D01*
X181827721Y-63836384D01*
X181810886Y-63826294D01*
X181795121Y-63814602D01*
X181780579Y-63801421D01*
X181767398Y-63786879D01*
X181755706Y-63771114D01*
X181745616Y-63754279D01*
X181737224Y-63736537D01*
X181730612Y-63718057D01*
X181725843Y-63699018D01*
X181722963Y-63679603D01*
X181722000Y-63660000D01*
X181722000Y-63260000D01*
X181722963Y-63240397D01*
X181725843Y-63220982D01*
X181730612Y-63201943D01*
X181737224Y-63183463D01*
X181745616Y-63165721D01*
X181755706Y-63148886D01*
X181767398Y-63133121D01*
X181780579Y-63118579D01*
X181795121Y-63105398D01*
X181810886Y-63093706D01*
X181827721Y-63083616D01*
X181845463Y-63075224D01*
X181863943Y-63068612D01*
X181882982Y-63063843D01*
X181902397Y-63060963D01*
X181922000Y-63060000D01*
X182822000Y-63060000D01*
X182841603Y-63060963D01*
X182841603Y-63060963D01*
G37*
D14*
X182372000Y-63460000D03*
D13*
G36*
X182841603Y-64310963D02*
X182861018Y-64313843D01*
X182880057Y-64318612D01*
X182898537Y-64325224D01*
X182916279Y-64333616D01*
X182933114Y-64343706D01*
X182948879Y-64355398D01*
X182963421Y-64368579D01*
X182976602Y-64383121D01*
X182988294Y-64398886D01*
X182998384Y-64415721D01*
X183006776Y-64433463D01*
X183013388Y-64451943D01*
X183018157Y-64470982D01*
X183021037Y-64490397D01*
X183022000Y-64510000D01*
X183022000Y-64910000D01*
X183021037Y-64929603D01*
X183018157Y-64949018D01*
X183013388Y-64968057D01*
X183006776Y-64986537D01*
X182998384Y-65004279D01*
X182988294Y-65021114D01*
X182976602Y-65036879D01*
X182963421Y-65051421D01*
X182948879Y-65064602D01*
X182933114Y-65076294D01*
X182916279Y-65086384D01*
X182898537Y-65094776D01*
X182880057Y-65101388D01*
X182861018Y-65106157D01*
X182841603Y-65109037D01*
X182822000Y-65110000D01*
X181922000Y-65110000D01*
X181902397Y-65109037D01*
X181882982Y-65106157D01*
X181863943Y-65101388D01*
X181845463Y-65094776D01*
X181827721Y-65086384D01*
X181810886Y-65076294D01*
X181795121Y-65064602D01*
X181780579Y-65051421D01*
X181767398Y-65036879D01*
X181755706Y-65021114D01*
X181745616Y-65004279D01*
X181737224Y-64986537D01*
X181730612Y-64968057D01*
X181725843Y-64949018D01*
X181722963Y-64929603D01*
X181722000Y-64910000D01*
X181722000Y-64510000D01*
X181722963Y-64490397D01*
X181725843Y-64470982D01*
X181730612Y-64451943D01*
X181737224Y-64433463D01*
X181745616Y-64415721D01*
X181755706Y-64398886D01*
X181767398Y-64383121D01*
X181780579Y-64368579D01*
X181795121Y-64355398D01*
X181810886Y-64343706D01*
X181827721Y-64333616D01*
X181845463Y-64325224D01*
X181863943Y-64318612D01*
X181882982Y-64313843D01*
X181902397Y-64310963D01*
X181922000Y-64310000D01*
X182822000Y-64310000D01*
X182841603Y-64310963D01*
X182841603Y-64310963D01*
G37*
D14*
X182372000Y-64710000D03*
D13*
G36*
X182841603Y-65560963D02*
X182861018Y-65563843D01*
X182880057Y-65568612D01*
X182898537Y-65575224D01*
X182916279Y-65583616D01*
X182933114Y-65593706D01*
X182948879Y-65605398D01*
X182963421Y-65618579D01*
X182976602Y-65633121D01*
X182988294Y-65648886D01*
X182998384Y-65665721D01*
X183006776Y-65683463D01*
X183013388Y-65701943D01*
X183018157Y-65720982D01*
X183021037Y-65740397D01*
X183022000Y-65760000D01*
X183022000Y-66160000D01*
X183021037Y-66179603D01*
X183018157Y-66199018D01*
X183013388Y-66218057D01*
X183006776Y-66236537D01*
X182998384Y-66254279D01*
X182988294Y-66271114D01*
X182976602Y-66286879D01*
X182963421Y-66301421D01*
X182948879Y-66314602D01*
X182933114Y-66326294D01*
X182916279Y-66336384D01*
X182898537Y-66344776D01*
X182880057Y-66351388D01*
X182861018Y-66356157D01*
X182841603Y-66359037D01*
X182822000Y-66360000D01*
X181922000Y-66360000D01*
X181902397Y-66359037D01*
X181882982Y-66356157D01*
X181863943Y-66351388D01*
X181845463Y-66344776D01*
X181827721Y-66336384D01*
X181810886Y-66326294D01*
X181795121Y-66314602D01*
X181780579Y-66301421D01*
X181767398Y-66286879D01*
X181755706Y-66271114D01*
X181745616Y-66254279D01*
X181737224Y-66236537D01*
X181730612Y-66218057D01*
X181725843Y-66199018D01*
X181722963Y-66179603D01*
X181722000Y-66160000D01*
X181722000Y-65760000D01*
X181722963Y-65740397D01*
X181725843Y-65720982D01*
X181730612Y-65701943D01*
X181737224Y-65683463D01*
X181745616Y-65665721D01*
X181755706Y-65648886D01*
X181767398Y-65633121D01*
X181780579Y-65618579D01*
X181795121Y-65605398D01*
X181810886Y-65593706D01*
X181827721Y-65583616D01*
X181845463Y-65575224D01*
X181863943Y-65568612D01*
X181882982Y-65563843D01*
X181902397Y-65560963D01*
X181922000Y-65560000D01*
X182822000Y-65560000D01*
X182841603Y-65560963D01*
X182841603Y-65560963D01*
G37*
D14*
X182372000Y-65960000D03*
D13*
G36*
X186396504Y-56111204D02*
X186420773Y-56114804D01*
X186444571Y-56120765D01*
X186467671Y-56129030D01*
X186489849Y-56139520D01*
X186510893Y-56152133D01*
X186530598Y-56166747D01*
X186548777Y-56183223D01*
X186565253Y-56201402D01*
X186579867Y-56221107D01*
X186592480Y-56242151D01*
X186602970Y-56264329D01*
X186611235Y-56287429D01*
X186617196Y-56311227D01*
X186620796Y-56335496D01*
X186622000Y-56360000D01*
X186622000Y-57960000D01*
X186620796Y-57984504D01*
X186617196Y-58008773D01*
X186611235Y-58032571D01*
X186602970Y-58055671D01*
X186592480Y-58077849D01*
X186579867Y-58098893D01*
X186565253Y-58118598D01*
X186548777Y-58136777D01*
X186530598Y-58153253D01*
X186510893Y-58167867D01*
X186489849Y-58180480D01*
X186467671Y-58190970D01*
X186444571Y-58199235D01*
X186420773Y-58205196D01*
X186396504Y-58208796D01*
X186372000Y-58210000D01*
X183872000Y-58210000D01*
X183847496Y-58208796D01*
X183823227Y-58205196D01*
X183799429Y-58199235D01*
X183776329Y-58190970D01*
X183754151Y-58180480D01*
X183733107Y-58167867D01*
X183713402Y-58153253D01*
X183695223Y-58136777D01*
X183678747Y-58118598D01*
X183664133Y-58098893D01*
X183651520Y-58077849D01*
X183641030Y-58055671D01*
X183632765Y-58032571D01*
X183626804Y-58008773D01*
X183623204Y-57984504D01*
X183622000Y-57960000D01*
X183622000Y-56360000D01*
X183623204Y-56335496D01*
X183626804Y-56311227D01*
X183632765Y-56287429D01*
X183641030Y-56264329D01*
X183651520Y-56242151D01*
X183664133Y-56221107D01*
X183678747Y-56201402D01*
X183695223Y-56183223D01*
X183713402Y-56166747D01*
X183733107Y-56152133D01*
X183754151Y-56139520D01*
X183776329Y-56129030D01*
X183799429Y-56120765D01*
X183823227Y-56114804D01*
X183847496Y-56111204D01*
X183872000Y-56110000D01*
X186372000Y-56110000D01*
X186396504Y-56111204D01*
X186396504Y-56111204D01*
G37*
D15*
X185122000Y-57160000D03*
D13*
G36*
X186396504Y-67461204D02*
X186420773Y-67464804D01*
X186444571Y-67470765D01*
X186467671Y-67479030D01*
X186489849Y-67489520D01*
X186510893Y-67502133D01*
X186530598Y-67516747D01*
X186548777Y-67533223D01*
X186565253Y-67551402D01*
X186579867Y-67571107D01*
X186592480Y-67592151D01*
X186602970Y-67614329D01*
X186611235Y-67637429D01*
X186617196Y-67661227D01*
X186620796Y-67685496D01*
X186622000Y-67710000D01*
X186622000Y-69310000D01*
X186620796Y-69334504D01*
X186617196Y-69358773D01*
X186611235Y-69382571D01*
X186602970Y-69405671D01*
X186592480Y-69427849D01*
X186579867Y-69448893D01*
X186565253Y-69468598D01*
X186548777Y-69486777D01*
X186530598Y-69503253D01*
X186510893Y-69517867D01*
X186489849Y-69530480D01*
X186467671Y-69540970D01*
X186444571Y-69549235D01*
X186420773Y-69555196D01*
X186396504Y-69558796D01*
X186372000Y-69560000D01*
X183872000Y-69560000D01*
X183847496Y-69558796D01*
X183823227Y-69555196D01*
X183799429Y-69549235D01*
X183776329Y-69540970D01*
X183754151Y-69530480D01*
X183733107Y-69517867D01*
X183713402Y-69503253D01*
X183695223Y-69486777D01*
X183678747Y-69468598D01*
X183664133Y-69448893D01*
X183651520Y-69427849D01*
X183641030Y-69405671D01*
X183632765Y-69382571D01*
X183626804Y-69358773D01*
X183623204Y-69334504D01*
X183622000Y-69310000D01*
X183622000Y-67710000D01*
X183623204Y-67685496D01*
X183626804Y-67661227D01*
X183632765Y-67637429D01*
X183641030Y-67614329D01*
X183651520Y-67592151D01*
X183664133Y-67571107D01*
X183678747Y-67551402D01*
X183695223Y-67533223D01*
X183713402Y-67516747D01*
X183733107Y-67502133D01*
X183754151Y-67489520D01*
X183776329Y-67479030D01*
X183799429Y-67470765D01*
X183823227Y-67464804D01*
X183847496Y-67461204D01*
X183872000Y-67460000D01*
X186372000Y-67460000D01*
X186396504Y-67461204D01*
X186396504Y-67461204D01*
G37*
D15*
X185122000Y-68510000D03*
M02*
