G04 #@! TF.GenerationSoftware,KiCad,Pcbnew,(6.0.0-rc1-dev-904-g29e0e6921)*
G04 #@! TF.CreationDate,2018-10-15T14:12:23+01:00*
G04 #@! TF.ProjectId,AquaHub,417175614875622E6B696361645F7063,rev?*
G04 #@! TF.SameCoordinates,Original*
G04 #@! TF.FileFunction,Legend,Top*
G04 #@! TF.FilePolarity,Positive*
%FSLAX46Y46*%
G04 Gerber Fmt 4.6, Leading zero omitted, Abs format (unit mm)*
G04 Created by KiCad (PCBNEW (6.0.0-rc1-dev-904-g29e0e6921)) date 15/10/2018 14:12:23*
%MOMM*%
%LPD*%
G01*
G04 APERTURE LIST*
%ADD10C,0.200000*%
%ADD11C,0.080000*%
%ADD12C,0.150000*%
%ADD13C,0.300000*%
%ADD14C,0.120000*%
G04 APERTURE END LIST*
D10*
X180799142Y-45324571D02*
X180742000Y-45381714D01*
X180570571Y-45438857D01*
X180456285Y-45438857D01*
X180284857Y-45381714D01*
X180170571Y-45267428D01*
X180113428Y-45153142D01*
X180056285Y-44924571D01*
X180056285Y-44753142D01*
X180113428Y-44524571D01*
X180170571Y-44410285D01*
X180284857Y-44296000D01*
X180456285Y-44238857D01*
X180570571Y-44238857D01*
X180742000Y-44296000D01*
X180799142Y-44353142D01*
X181884857Y-45438857D02*
X181313428Y-45438857D01*
X181313428Y-44238857D01*
X182513428Y-44238857D02*
X182742000Y-44238857D01*
X182856285Y-44296000D01*
X182970571Y-44410285D01*
X183027714Y-44638857D01*
X183027714Y-45038857D01*
X182970571Y-45267428D01*
X182856285Y-45381714D01*
X182742000Y-45438857D01*
X182513428Y-45438857D01*
X182399142Y-45381714D01*
X182284857Y-45267428D01*
X182227714Y-45038857D01*
X182227714Y-44638857D01*
X182284857Y-44410285D01*
X182399142Y-44296000D01*
X182513428Y-44238857D01*
X184227714Y-45324571D02*
X184170571Y-45381714D01*
X183999142Y-45438857D01*
X183884857Y-45438857D01*
X183713428Y-45381714D01*
X183599142Y-45267428D01*
X183542000Y-45153142D01*
X183484857Y-44924571D01*
X183484857Y-44753142D01*
X183542000Y-44524571D01*
X183599142Y-44410285D01*
X183713428Y-44296000D01*
X183884857Y-44238857D01*
X183999142Y-44238857D01*
X184170571Y-44296000D01*
X184227714Y-44353142D01*
X184742000Y-45438857D02*
X184742000Y-44238857D01*
X185427714Y-45438857D02*
X184913428Y-44753142D01*
X185427714Y-44238857D02*
X184742000Y-44924571D01*
D11*
X165100000Y-68500000D02*
X100330000Y-68500000D01*
X165100000Y-82500000D02*
X165100000Y-68500000D01*
X100330000Y-82500000D02*
X165100000Y-82500000D01*
X100330000Y-68500000D02*
X100330000Y-82500000D01*
D10*
X69637285Y-60949857D02*
X69694428Y-60778428D01*
X69751571Y-60721285D01*
X69865857Y-60664142D01*
X70037285Y-60664142D01*
X70151571Y-60721285D01*
X70208714Y-60778428D01*
X70265857Y-60892714D01*
X70265857Y-61349857D01*
X69065857Y-61349857D01*
X69065857Y-60949857D01*
X69123000Y-60835571D01*
X69180142Y-60778428D01*
X69294428Y-60721285D01*
X69408714Y-60721285D01*
X69523000Y-60778428D01*
X69580142Y-60835571D01*
X69637285Y-60949857D01*
X69637285Y-61349857D01*
X69465857Y-59635571D02*
X70265857Y-59635571D01*
X69465857Y-60149857D02*
X70094428Y-60149857D01*
X70208714Y-60092714D01*
X70265857Y-59978428D01*
X70265857Y-59807000D01*
X70208714Y-59692714D01*
X70151571Y-59635571D01*
X69465857Y-59235571D02*
X69465857Y-58778428D01*
X69065857Y-59064142D02*
X70094428Y-59064142D01*
X70208714Y-59007000D01*
X70265857Y-58892714D01*
X70265857Y-58778428D01*
X69465857Y-58549857D02*
X69465857Y-58092714D01*
X69065857Y-58378428D02*
X70094428Y-58378428D01*
X70208714Y-58321285D01*
X70265857Y-58207000D01*
X70265857Y-58092714D01*
X70265857Y-57521285D02*
X70208714Y-57635571D01*
X70151571Y-57692714D01*
X70037285Y-57749857D01*
X69694428Y-57749857D01*
X69580142Y-57692714D01*
X69523000Y-57635571D01*
X69465857Y-57521285D01*
X69465857Y-57349857D01*
X69523000Y-57235571D01*
X69580142Y-57178428D01*
X69694428Y-57121285D01*
X70037285Y-57121285D01*
X70151571Y-57178428D01*
X70208714Y-57235571D01*
X70265857Y-57349857D01*
X70265857Y-57521285D01*
X69465857Y-56607000D02*
X70265857Y-56607000D01*
X69580142Y-56607000D02*
X69523000Y-56549857D01*
X69465857Y-56435571D01*
X69465857Y-56264142D01*
X69523000Y-56149857D01*
X69637285Y-56092714D01*
X70265857Y-56092714D01*
X70265857Y-54607000D02*
X69065857Y-54607000D01*
X69465857Y-54035571D02*
X70265857Y-54035571D01*
X69580142Y-54035571D02*
X69523000Y-53978428D01*
X69465857Y-53864142D01*
X69465857Y-53692714D01*
X69523000Y-53578428D01*
X69637285Y-53521285D01*
X70265857Y-53521285D01*
X69465857Y-52949857D02*
X70665857Y-52949857D01*
X69523000Y-52949857D02*
X69465857Y-52835571D01*
X69465857Y-52607000D01*
X69523000Y-52492714D01*
X69580142Y-52435571D01*
X69694428Y-52378428D01*
X70037285Y-52378428D01*
X70151571Y-52435571D01*
X70208714Y-52492714D01*
X70265857Y-52607000D01*
X70265857Y-52835571D01*
X70208714Y-52949857D01*
X69465857Y-51349857D02*
X70265857Y-51349857D01*
X69465857Y-51864142D02*
X70094428Y-51864142D01*
X70208714Y-51807000D01*
X70265857Y-51692714D01*
X70265857Y-51521285D01*
X70208714Y-51407000D01*
X70151571Y-51349857D01*
X69465857Y-50949857D02*
X69465857Y-50492714D01*
X69065857Y-50778428D02*
X70094428Y-50778428D01*
X70208714Y-50721285D01*
X70265857Y-50607000D01*
X70265857Y-50492714D01*
D12*
X68871000Y-63771000D02*
X68871000Y-48785000D01*
X83476000Y-63771000D02*
X68871000Y-63771000D01*
X83476000Y-48785000D02*
X83476000Y-63771000D01*
X68871000Y-48785000D02*
X83476000Y-48785000D01*
D13*
X62520285Y-76948000D02*
X63234571Y-76948000D01*
X62377428Y-77376571D02*
X62877428Y-75876571D01*
X63377428Y-77376571D01*
X64520285Y-76376571D02*
X64520285Y-77876571D01*
X64520285Y-77305142D02*
X64377428Y-77376571D01*
X64091714Y-77376571D01*
X63948857Y-77305142D01*
X63877428Y-77233714D01*
X63806000Y-77090857D01*
X63806000Y-76662285D01*
X63877428Y-76519428D01*
X63948857Y-76448000D01*
X64091714Y-76376571D01*
X64377428Y-76376571D01*
X64520285Y-76448000D01*
X65877428Y-76376571D02*
X65877428Y-77376571D01*
X65234571Y-76376571D02*
X65234571Y-77162285D01*
X65306000Y-77305142D01*
X65448857Y-77376571D01*
X65663142Y-77376571D01*
X65806000Y-77305142D01*
X65877428Y-77233714D01*
X67234571Y-77376571D02*
X67234571Y-76590857D01*
X67163142Y-76448000D01*
X67020285Y-76376571D01*
X66734571Y-76376571D01*
X66591714Y-76448000D01*
X67234571Y-77305142D02*
X67091714Y-77376571D01*
X66734571Y-77376571D01*
X66591714Y-77305142D01*
X66520285Y-77162285D01*
X66520285Y-77019428D01*
X66591714Y-76876571D01*
X66734571Y-76805142D01*
X67091714Y-76805142D01*
X67234571Y-76733714D01*
X67948857Y-77376571D02*
X67948857Y-75876571D01*
X67948857Y-76590857D02*
X68806000Y-76590857D01*
X68806000Y-77376571D02*
X68806000Y-75876571D01*
X70163142Y-76376571D02*
X70163142Y-77376571D01*
X69520285Y-76376571D02*
X69520285Y-77162285D01*
X69591714Y-77305142D01*
X69734571Y-77376571D01*
X69948857Y-77376571D01*
X70091714Y-77305142D01*
X70163142Y-77233714D01*
X70877428Y-77376571D02*
X70877428Y-75876571D01*
X70877428Y-76448000D02*
X71020285Y-76376571D01*
X71306000Y-76376571D01*
X71448857Y-76448000D01*
X71520285Y-76519428D01*
X71591714Y-76662285D01*
X71591714Y-77090857D01*
X71520285Y-77233714D01*
X71448857Y-77305142D01*
X71306000Y-77376571D01*
X71020285Y-77376571D01*
X70877428Y-77305142D01*
X60841714Y-79926571D02*
X60841714Y-78426571D01*
X61413142Y-78426571D01*
X61556000Y-78498000D01*
X61627428Y-78569428D01*
X61698857Y-78712285D01*
X61698857Y-78926571D01*
X61627428Y-79069428D01*
X61556000Y-79140857D01*
X61413142Y-79212285D01*
X60841714Y-79212285D01*
X62556000Y-79926571D02*
X62413142Y-79855142D01*
X62341714Y-79783714D01*
X62270285Y-79640857D01*
X62270285Y-79212285D01*
X62341714Y-79069428D01*
X62413142Y-78998000D01*
X62556000Y-78926571D01*
X62770285Y-78926571D01*
X62913142Y-78998000D01*
X62984571Y-79069428D01*
X63056000Y-79212285D01*
X63056000Y-79640857D01*
X62984571Y-79783714D01*
X62913142Y-79855142D01*
X62770285Y-79926571D01*
X62556000Y-79926571D01*
X63556000Y-78926571D02*
X63841714Y-79926571D01*
X64127428Y-79212285D01*
X64413142Y-79926571D01*
X64698857Y-78926571D01*
X65841714Y-79855142D02*
X65698857Y-79926571D01*
X65413142Y-79926571D01*
X65270285Y-79855142D01*
X65198857Y-79712285D01*
X65198857Y-79140857D01*
X65270285Y-78998000D01*
X65413142Y-78926571D01*
X65698857Y-78926571D01*
X65841714Y-78998000D01*
X65913142Y-79140857D01*
X65913142Y-79283714D01*
X65198857Y-79426571D01*
X66556000Y-79926571D02*
X66556000Y-78926571D01*
X66556000Y-79212285D02*
X66627428Y-79069428D01*
X66698857Y-78998000D01*
X66841714Y-78926571D01*
X66984571Y-78926571D01*
X67984571Y-79140857D02*
X68198857Y-79212285D01*
X68270285Y-79283714D01*
X68341714Y-79426571D01*
X68341714Y-79640857D01*
X68270285Y-79783714D01*
X68198857Y-79855142D01*
X68056000Y-79926571D01*
X67484571Y-79926571D01*
X67484571Y-78426571D01*
X67984571Y-78426571D01*
X68127428Y-78498000D01*
X68198857Y-78569428D01*
X68270285Y-78712285D01*
X68270285Y-78855142D01*
X68198857Y-78998000D01*
X68127428Y-79069428D01*
X67984571Y-79140857D01*
X67484571Y-79140857D01*
X69198857Y-79926571D02*
X69056000Y-79855142D01*
X68984571Y-79783714D01*
X68913142Y-79640857D01*
X68913142Y-79212285D01*
X68984571Y-79069428D01*
X69056000Y-78998000D01*
X69198857Y-78926571D01*
X69413142Y-78926571D01*
X69556000Y-78998000D01*
X69627428Y-79069428D01*
X69698857Y-79212285D01*
X69698857Y-79640857D01*
X69627428Y-79783714D01*
X69556000Y-79855142D01*
X69413142Y-79926571D01*
X69198857Y-79926571D01*
X70984571Y-79926571D02*
X70984571Y-79140857D01*
X70913142Y-78998000D01*
X70770285Y-78926571D01*
X70484571Y-78926571D01*
X70341714Y-78998000D01*
X70984571Y-79855142D02*
X70841714Y-79926571D01*
X70484571Y-79926571D01*
X70341714Y-79855142D01*
X70270285Y-79712285D01*
X70270285Y-79569428D01*
X70341714Y-79426571D01*
X70484571Y-79355142D01*
X70841714Y-79355142D01*
X70984571Y-79283714D01*
X71698857Y-79926571D02*
X71698857Y-78926571D01*
X71698857Y-79212285D02*
X71770285Y-79069428D01*
X71841714Y-78998000D01*
X71984571Y-78926571D01*
X72127428Y-78926571D01*
X73270285Y-79926571D02*
X73270285Y-78426571D01*
X73270285Y-79855142D02*
X73127428Y-79926571D01*
X72841714Y-79926571D01*
X72698857Y-79855142D01*
X72627428Y-79783714D01*
X72556000Y-79640857D01*
X72556000Y-79212285D01*
X72627428Y-79069428D01*
X72698857Y-78998000D01*
X72841714Y-78926571D01*
X73127428Y-78926571D01*
X73270285Y-78998000D01*
X64913142Y-81476571D02*
X65270285Y-82476571D01*
X65627428Y-81476571D01*
X66984571Y-82476571D02*
X66127428Y-82476571D01*
X66556000Y-82476571D02*
X66556000Y-80976571D01*
X66413142Y-81190857D01*
X66270285Y-81333714D01*
X66127428Y-81405142D01*
X67627428Y-82333714D02*
X67698857Y-82405142D01*
X67627428Y-82476571D01*
X67556000Y-82405142D01*
X67627428Y-82333714D01*
X67627428Y-82476571D01*
X68627428Y-80976571D02*
X68770285Y-80976571D01*
X68913142Y-81048000D01*
X68984571Y-81119428D01*
X69056000Y-81262285D01*
X69127428Y-81548000D01*
X69127428Y-81905142D01*
X69056000Y-82190857D01*
X68984571Y-82333714D01*
X68913142Y-82405142D01*
X68770285Y-82476571D01*
X68627428Y-82476571D01*
X68484571Y-82405142D01*
X68413142Y-82333714D01*
X68341714Y-82190857D01*
X68270285Y-81905142D01*
X68270285Y-81548000D01*
X68341714Y-81262285D01*
X68413142Y-81119428D01*
X68484571Y-81048000D01*
X68627428Y-80976571D01*
D11*
X75000000Y-68500000D02*
X75000000Y-82500000D01*
X99000000Y-68500000D02*
X75000000Y-68500000D01*
X99000000Y-82500000D02*
X99000000Y-68500000D01*
X75000000Y-82500000D02*
X99000000Y-82500000D01*
D10*
X90360714Y-77536285D02*
X90532142Y-77593428D01*
X90589285Y-77650571D01*
X90646428Y-77764857D01*
X90646428Y-77936285D01*
X90589285Y-78050571D01*
X90532142Y-78107714D01*
X90417857Y-78164857D01*
X89960714Y-78164857D01*
X89960714Y-76964857D01*
X90360714Y-76964857D01*
X90475000Y-77022000D01*
X90532142Y-77079142D01*
X90589285Y-77193428D01*
X90589285Y-77307714D01*
X90532142Y-77422000D01*
X90475000Y-77479142D01*
X90360714Y-77536285D01*
X89960714Y-77536285D01*
X91617857Y-78107714D02*
X91503571Y-78164857D01*
X91275000Y-78164857D01*
X91160714Y-78107714D01*
X91103571Y-77993428D01*
X91103571Y-77536285D01*
X91160714Y-77422000D01*
X91275000Y-77364857D01*
X91503571Y-77364857D01*
X91617857Y-77422000D01*
X91675000Y-77536285D01*
X91675000Y-77650571D01*
X91103571Y-77764857D01*
X92646428Y-78107714D02*
X92532142Y-78164857D01*
X92303571Y-78164857D01*
X92189285Y-78107714D01*
X92132142Y-77993428D01*
X92132142Y-77536285D01*
X92189285Y-77422000D01*
X92303571Y-77364857D01*
X92532142Y-77364857D01*
X92646428Y-77422000D01*
X92703571Y-77536285D01*
X92703571Y-77650571D01*
X92132142Y-77764857D01*
X93217857Y-77364857D02*
X93217857Y-78564857D01*
X93217857Y-77422000D02*
X93332142Y-77364857D01*
X93560714Y-77364857D01*
X93675000Y-77422000D01*
X93732142Y-77479142D01*
X93789285Y-77593428D01*
X93789285Y-77936285D01*
X93732142Y-78050571D01*
X93675000Y-78107714D01*
X93560714Y-78164857D01*
X93332142Y-78164857D01*
X93217857Y-78107714D01*
X94703571Y-77536285D02*
X94875000Y-77593428D01*
X94932142Y-77650571D01*
X94989285Y-77764857D01*
X94989285Y-77936285D01*
X94932142Y-78050571D01*
X94875000Y-78107714D01*
X94760714Y-78164857D01*
X94303571Y-78164857D01*
X94303571Y-76964857D01*
X94703571Y-76964857D01*
X94817857Y-77022000D01*
X94875000Y-77079142D01*
X94932142Y-77193428D01*
X94932142Y-77307714D01*
X94875000Y-77422000D01*
X94817857Y-77479142D01*
X94703571Y-77536285D01*
X94303571Y-77536285D01*
X95675000Y-78164857D02*
X95560714Y-78107714D01*
X95503571Y-78050571D01*
X95446428Y-77936285D01*
X95446428Y-77593428D01*
X95503571Y-77479142D01*
X95560714Y-77422000D01*
X95675000Y-77364857D01*
X95846428Y-77364857D01*
X95960714Y-77422000D01*
X96017857Y-77479142D01*
X96075000Y-77593428D01*
X96075000Y-77936285D01*
X96017857Y-78050571D01*
X95960714Y-78107714D01*
X95846428Y-78164857D01*
X95675000Y-78164857D01*
X96760714Y-78164857D02*
X96646428Y-78107714D01*
X96589285Y-78050571D01*
X96532142Y-77936285D01*
X96532142Y-77593428D01*
X96589285Y-77479142D01*
X96646428Y-77422000D01*
X96760714Y-77364857D01*
X96932142Y-77364857D01*
X97046428Y-77422000D01*
X97103571Y-77479142D01*
X97160714Y-77593428D01*
X97160714Y-77936285D01*
X97103571Y-78050571D01*
X97046428Y-78107714D01*
X96932142Y-78164857D01*
X96760714Y-78164857D01*
X97675000Y-77364857D02*
X97675000Y-78564857D01*
X97675000Y-77422000D02*
X97789285Y-77364857D01*
X98017857Y-77364857D01*
X98132142Y-77422000D01*
X98189285Y-77479142D01*
X98246428Y-77593428D01*
X98246428Y-77936285D01*
X98189285Y-78050571D01*
X98132142Y-78107714D01*
X98017857Y-78164857D01*
X97789285Y-78164857D01*
X97675000Y-78107714D01*
D11*
X190616000Y-36514000D02*
X190616000Y-54802000D01*
X185282000Y-36514000D02*
X190616000Y-36514000D01*
X185282000Y-43626000D02*
X185282000Y-36514000D01*
X179440000Y-43626000D02*
X185282000Y-43626000D01*
X179440000Y-54802000D02*
X179440000Y-43626000D01*
X190616000Y-54802000D02*
X179440000Y-54802000D01*
X184721500Y-66041500D02*
X171767500Y-66041500D01*
X184721500Y-76455500D02*
X184721500Y-66041500D01*
X171767500Y-76455500D02*
X184721500Y-76455500D01*
X171767500Y-66041500D02*
X171767500Y-76455500D01*
D13*
X202117523Y-38440095D02*
X202117523Y-39154380D01*
X200867523Y-38797238D02*
X202117523Y-38797238D01*
X201522285Y-39571047D02*
X201522285Y-39987714D01*
X200867523Y-40166285D02*
X200867523Y-39571047D01*
X202117523Y-39571047D01*
X202117523Y-40166285D01*
X200867523Y-40702000D02*
X202117523Y-40702000D01*
X201224666Y-41118666D01*
X202117523Y-41535333D01*
X200867523Y-41535333D01*
X200867523Y-42130571D02*
X202117523Y-42130571D01*
X202117523Y-42606761D01*
X202058000Y-42725809D01*
X201998476Y-42785333D01*
X201879428Y-42844857D01*
X201700857Y-42844857D01*
X201581809Y-42785333D01*
X201522285Y-42725809D01*
X201462761Y-42606761D01*
X201462761Y-42130571D01*
X229213284Y-67704571D02*
X230070427Y-67704571D01*
X229641856Y-69204571D02*
X229641856Y-67704571D01*
X230427570Y-67704571D02*
X231427570Y-69204571D01*
X231427570Y-67704571D02*
X230427570Y-69204571D01*
D10*
X113140000Y-81442857D02*
X113140000Y-80242857D01*
X113597142Y-80242857D01*
X113711428Y-80300000D01*
X113768571Y-80357142D01*
X113825714Y-80471428D01*
X113825714Y-80642857D01*
X113768571Y-80757142D01*
X113711428Y-80814285D01*
X113597142Y-80871428D01*
X113140000Y-80871428D01*
X114511428Y-81442857D02*
X114397142Y-81385714D01*
X114340000Y-81328571D01*
X114282857Y-81214285D01*
X114282857Y-80871428D01*
X114340000Y-80757142D01*
X114397142Y-80700000D01*
X114511428Y-80642857D01*
X114682857Y-80642857D01*
X114797142Y-80700000D01*
X114854285Y-80757142D01*
X114911428Y-80871428D01*
X114911428Y-81214285D01*
X114854285Y-81328571D01*
X114797142Y-81385714D01*
X114682857Y-81442857D01*
X114511428Y-81442857D01*
X115311428Y-80642857D02*
X115540000Y-81442857D01*
X115768571Y-80871428D01*
X115997142Y-81442857D01*
X116225714Y-80642857D01*
X117140000Y-81385714D02*
X117025714Y-81442857D01*
X116797142Y-81442857D01*
X116682857Y-81385714D01*
X116625714Y-81271428D01*
X116625714Y-80814285D01*
X116682857Y-80700000D01*
X116797142Y-80642857D01*
X117025714Y-80642857D01*
X117140000Y-80700000D01*
X117197142Y-80814285D01*
X117197142Y-80928571D01*
X116625714Y-81042857D01*
X117711428Y-81442857D02*
X117711428Y-80642857D01*
X117711428Y-80871428D02*
X117768571Y-80757142D01*
X117825714Y-80700000D01*
X117940000Y-80642857D01*
X118054285Y-80642857D01*
X119368571Y-81442857D02*
X119368571Y-80242857D01*
X119768571Y-81100000D01*
X120168571Y-80242857D01*
X120168571Y-81442857D01*
X121254285Y-81442857D02*
X121254285Y-80814285D01*
X121197142Y-80700000D01*
X121082857Y-80642857D01*
X120854285Y-80642857D01*
X120740000Y-80700000D01*
X121254285Y-81385714D02*
X121140000Y-81442857D01*
X120854285Y-81442857D01*
X120740000Y-81385714D01*
X120682857Y-81271428D01*
X120682857Y-81157142D01*
X120740000Y-81042857D01*
X120854285Y-80985714D01*
X121140000Y-80985714D01*
X121254285Y-80928571D01*
X121825714Y-80642857D02*
X121825714Y-81442857D01*
X121825714Y-80757142D02*
X121882857Y-80700000D01*
X121997142Y-80642857D01*
X122168571Y-80642857D01*
X122282857Y-80700000D01*
X122340000Y-80814285D01*
X122340000Y-81442857D01*
X123425714Y-81442857D02*
X123425714Y-80814285D01*
X123368571Y-80700000D01*
X123254285Y-80642857D01*
X123025714Y-80642857D01*
X122911428Y-80700000D01*
X123425714Y-81385714D02*
X123311428Y-81442857D01*
X123025714Y-81442857D01*
X122911428Y-81385714D01*
X122854285Y-81271428D01*
X122854285Y-81157142D01*
X122911428Y-81042857D01*
X123025714Y-80985714D01*
X123311428Y-80985714D01*
X123425714Y-80928571D01*
X124511428Y-80642857D02*
X124511428Y-81614285D01*
X124454285Y-81728571D01*
X124397142Y-81785714D01*
X124282857Y-81842857D01*
X124111428Y-81842857D01*
X123997142Y-81785714D01*
X124511428Y-81385714D02*
X124397142Y-81442857D01*
X124168571Y-81442857D01*
X124054285Y-81385714D01*
X123997142Y-81328571D01*
X123940000Y-81214285D01*
X123940000Y-80871428D01*
X123997142Y-80757142D01*
X124054285Y-80700000D01*
X124168571Y-80642857D01*
X124397142Y-80642857D01*
X124511428Y-80700000D01*
X125540000Y-81385714D02*
X125425714Y-81442857D01*
X125197142Y-81442857D01*
X125082857Y-81385714D01*
X125025714Y-81271428D01*
X125025714Y-80814285D01*
X125082857Y-80700000D01*
X125197142Y-80642857D01*
X125425714Y-80642857D01*
X125540000Y-80700000D01*
X125597142Y-80814285D01*
X125597142Y-80928571D01*
X125025714Y-81042857D01*
X126111428Y-81442857D02*
X126111428Y-80642857D01*
X126111428Y-80757142D02*
X126168571Y-80700000D01*
X126282857Y-80642857D01*
X126454285Y-80642857D01*
X126568571Y-80700000D01*
X126625714Y-80814285D01*
X126625714Y-81442857D01*
X126625714Y-80814285D02*
X126682857Y-80700000D01*
X126797142Y-80642857D01*
X126968571Y-80642857D01*
X127082857Y-80700000D01*
X127140000Y-80814285D01*
X127140000Y-81442857D01*
X128168571Y-81385714D02*
X128054285Y-81442857D01*
X127825714Y-81442857D01*
X127711428Y-81385714D01*
X127654285Y-81271428D01*
X127654285Y-80814285D01*
X127711428Y-80700000D01*
X127825714Y-80642857D01*
X128054285Y-80642857D01*
X128168571Y-80700000D01*
X128225714Y-80814285D01*
X128225714Y-80928571D01*
X127654285Y-81042857D01*
X128740000Y-80642857D02*
X128740000Y-81442857D01*
X128740000Y-80757142D02*
X128797142Y-80700000D01*
X128911428Y-80642857D01*
X129082857Y-80642857D01*
X129197142Y-80700000D01*
X129254285Y-80814285D01*
X129254285Y-81442857D01*
X129654285Y-80642857D02*
X130111428Y-80642857D01*
X129825714Y-80242857D02*
X129825714Y-81271428D01*
X129882857Y-81385714D01*
X129997142Y-81442857D01*
X130111428Y-81442857D01*
D13*
X230213284Y-60156000D02*
X230070427Y-60084571D01*
X229856141Y-60084571D01*
X229641855Y-60156000D01*
X229498998Y-60298857D01*
X229427570Y-60441714D01*
X229356141Y-60727428D01*
X229356141Y-60941714D01*
X229427570Y-61227428D01*
X229498998Y-61370285D01*
X229641855Y-61513142D01*
X229856141Y-61584571D01*
X229998998Y-61584571D01*
X230213284Y-61513142D01*
X230284713Y-61441714D01*
X230284713Y-60941714D01*
X229998998Y-60941714D01*
X231213284Y-60084571D02*
X231356141Y-60084571D01*
X231498998Y-60156000D01*
X231570427Y-60227428D01*
X231641855Y-60370285D01*
X231713284Y-60656000D01*
X231713284Y-61013142D01*
X231641855Y-61298857D01*
X231570427Y-61441714D01*
X231498998Y-61513142D01*
X231356141Y-61584571D01*
X231213284Y-61584571D01*
X231070427Y-61513142D01*
X230998998Y-61441714D01*
X230927570Y-61298857D01*
X230856141Y-61013142D01*
X230856141Y-60656000D01*
X230927570Y-60370285D01*
X230998998Y-60227428D01*
X231070427Y-60156000D01*
X231213284Y-60084571D01*
X229427570Y-63338857D02*
X229927570Y-63338857D01*
X230141855Y-64124571D02*
X229427570Y-64124571D01*
X229427570Y-62624571D01*
X230141855Y-62624571D01*
X230784713Y-64124571D02*
X230784713Y-62624571D01*
X231641855Y-64124571D01*
X231641855Y-62624571D01*
D12*
X203242523Y-34772619D02*
X202671095Y-34772619D01*
X202956809Y-33772619D02*
X202956809Y-34772619D01*
X202337761Y-34296428D02*
X202004428Y-34296428D01*
X201861571Y-33772619D02*
X202337761Y-33772619D01*
X202337761Y-34772619D01*
X201861571Y-34772619D01*
X201433000Y-33772619D02*
X201433000Y-34772619D01*
X201099666Y-34058333D01*
X200766333Y-34772619D01*
X200766333Y-33772619D01*
X200290142Y-33772619D02*
X200290142Y-34772619D01*
X199909190Y-34772619D01*
X199813952Y-34725000D01*
X199766333Y-34677380D01*
X199718714Y-34582142D01*
X199718714Y-34439285D01*
X199766333Y-34344047D01*
X199813952Y-34296428D01*
X199909190Y-34248809D01*
X200290142Y-34248809D01*
D13*
X204723000Y-39432142D02*
X204794428Y-39289285D01*
X204794428Y-39075000D01*
X204723000Y-38860714D01*
X204580142Y-38717857D01*
X204437285Y-38646428D01*
X204151571Y-38575000D01*
X203937285Y-38575000D01*
X203651571Y-38646428D01*
X203508714Y-38717857D01*
X203365857Y-38860714D01*
X203294428Y-39075000D01*
X203294428Y-39217857D01*
X203365857Y-39432142D01*
X203437285Y-39503571D01*
X203937285Y-39503571D01*
X203937285Y-39217857D01*
X203294428Y-40146428D02*
X204794428Y-40146428D01*
X203294428Y-41003571D01*
X204794428Y-41003571D01*
X203294428Y-41717857D02*
X204794428Y-41717857D01*
X204794428Y-42075000D01*
X204723000Y-42289285D01*
X204580142Y-42432142D01*
X204437285Y-42503571D01*
X204151571Y-42575000D01*
X203937285Y-42575000D01*
X203651571Y-42503571D01*
X203508714Y-42432142D01*
X203365857Y-42289285D01*
X203294428Y-42075000D01*
X203294428Y-41717857D01*
X199714428Y-38432143D02*
X198214428Y-38932143D01*
X199714428Y-39432143D01*
X198357285Y-40789285D02*
X198285857Y-40717857D01*
X198214428Y-40503571D01*
X198214428Y-40360714D01*
X198285857Y-40146428D01*
X198428714Y-40003571D01*
X198571571Y-39932143D01*
X198857285Y-39860714D01*
X199071571Y-39860714D01*
X199357285Y-39932143D01*
X199500142Y-40003571D01*
X199643000Y-40146428D01*
X199714428Y-40360714D01*
X199714428Y-40503571D01*
X199643000Y-40717857D01*
X199571571Y-40789285D01*
X198357285Y-42289285D02*
X198285857Y-42217857D01*
X198214428Y-42003571D01*
X198214428Y-41860714D01*
X198285857Y-41646428D01*
X198428714Y-41503571D01*
X198571571Y-41432143D01*
X198857285Y-41360714D01*
X199071571Y-41360714D01*
X199357285Y-41432143D01*
X199500142Y-41503571D01*
X199643000Y-41646428D01*
X199714428Y-41860714D01*
X199714428Y-42003571D01*
X199643000Y-42217857D01*
X199571571Y-42289285D01*
D11*
X223895000Y-131985000D02*
X223895000Y-114205000D01*
X212465000Y-131985000D02*
X223895000Y-131985000D01*
X212465000Y-114205000D02*
X212465000Y-131985000D01*
X223895000Y-114205000D02*
X212465000Y-114205000D01*
D13*
X222303571Y-126595000D02*
X223303571Y-126595000D01*
X221732142Y-126952142D02*
X222803571Y-127309285D01*
X222803571Y-126380714D01*
X222875000Y-125880714D02*
X222875000Y-125166428D01*
X223303571Y-126023571D02*
X221803571Y-125523571D01*
X223303571Y-125023571D01*
X222517857Y-122880714D02*
X222517857Y-123380714D01*
X223303571Y-123380714D02*
X221803571Y-123380714D01*
X221803571Y-122666428D01*
X222303571Y-121452142D02*
X223303571Y-121452142D01*
X222303571Y-122095000D02*
X223089285Y-122095000D01*
X223232142Y-122023571D01*
X223303571Y-121880714D01*
X223303571Y-121666428D01*
X223232142Y-121523571D01*
X223160714Y-121452142D01*
X223232142Y-120809285D02*
X223303571Y-120666428D01*
X223303571Y-120380714D01*
X223232142Y-120237857D01*
X223089285Y-120166428D01*
X223017857Y-120166428D01*
X222875000Y-120237857D01*
X222803571Y-120380714D01*
X222803571Y-120595000D01*
X222732142Y-120737857D01*
X222589285Y-120809285D01*
X222517857Y-120809285D01*
X222375000Y-120737857D01*
X222303571Y-120595000D01*
X222303571Y-120380714D01*
X222375000Y-120237857D01*
X223232142Y-118952142D02*
X223303571Y-119095000D01*
X223303571Y-119380714D01*
X223232142Y-119523571D01*
X223089285Y-119595000D01*
X222517857Y-119595000D01*
X222375000Y-119523571D01*
X222303571Y-119380714D01*
X222303571Y-119095000D01*
X222375000Y-118952142D01*
X222517857Y-118880714D01*
X222660714Y-118880714D01*
X222803571Y-119595000D01*
D11*
X197860000Y-124365000D02*
X197860000Y-105315000D01*
X208655000Y-124365000D02*
X197860000Y-124365000D01*
X208655000Y-105315000D02*
X208655000Y-124365000D01*
X197860000Y-105315000D02*
X208655000Y-105315000D01*
D13*
X199983214Y-121709000D02*
X200054642Y-121780428D01*
X200126071Y-121994714D01*
X200126071Y-122137571D01*
X200054642Y-122351857D01*
X199911785Y-122494714D01*
X199768928Y-122566142D01*
X199483214Y-122637571D01*
X199268928Y-122637571D01*
X198983214Y-122566142D01*
X198840357Y-122494714D01*
X198697500Y-122351857D01*
X198626071Y-122137571D01*
X198626071Y-121994714D01*
X198697500Y-121780428D01*
X198768928Y-121709000D01*
X199126071Y-120423285D02*
X200126071Y-120423285D01*
X199126071Y-121066142D02*
X199911785Y-121066142D01*
X200054642Y-120994714D01*
X200126071Y-120851857D01*
X200126071Y-120637571D01*
X200054642Y-120494714D01*
X199983214Y-120423285D01*
X200126071Y-119709000D02*
X199126071Y-119709000D01*
X199411785Y-119709000D02*
X199268928Y-119637571D01*
X199197500Y-119566142D01*
X199126071Y-119423285D01*
X199126071Y-119280428D01*
X200126071Y-118780428D02*
X199126071Y-118780428D01*
X199411785Y-118780428D02*
X199268928Y-118709000D01*
X199197500Y-118637571D01*
X199126071Y-118494714D01*
X199126071Y-118351857D01*
X200054642Y-117280428D02*
X200126071Y-117423285D01*
X200126071Y-117709000D01*
X200054642Y-117851857D01*
X199911785Y-117923285D01*
X199340357Y-117923285D01*
X199197500Y-117851857D01*
X199126071Y-117709000D01*
X199126071Y-117423285D01*
X199197500Y-117280428D01*
X199340357Y-117209000D01*
X199483214Y-117209000D01*
X199626071Y-117923285D01*
X199126071Y-116566142D02*
X200126071Y-116566142D01*
X199268928Y-116566142D02*
X199197500Y-116494714D01*
X199126071Y-116351857D01*
X199126071Y-116137571D01*
X199197500Y-115994714D01*
X199340357Y-115923285D01*
X200126071Y-115923285D01*
X199126071Y-115423285D02*
X199126071Y-114851857D01*
X198626071Y-115209000D02*
X199911785Y-115209000D01*
X200054642Y-115137571D01*
X200126071Y-114994714D01*
X200126071Y-114851857D01*
X200054642Y-113280428D02*
X200126071Y-113066142D01*
X200126071Y-112709000D01*
X200054642Y-112566142D01*
X199983214Y-112494714D01*
X199840357Y-112423285D01*
X199697500Y-112423285D01*
X199554642Y-112494714D01*
X199483214Y-112566142D01*
X199411785Y-112709000D01*
X199340357Y-112994714D01*
X199268928Y-113137571D01*
X199197500Y-113209000D01*
X199054642Y-113280428D01*
X198911785Y-113280428D01*
X198768928Y-113209000D01*
X198697500Y-113137571D01*
X198626071Y-112994714D01*
X198626071Y-112637571D01*
X198697500Y-112423285D01*
X200054642Y-111209000D02*
X200126071Y-111351857D01*
X200126071Y-111637571D01*
X200054642Y-111780428D01*
X199911785Y-111851857D01*
X199340357Y-111851857D01*
X199197500Y-111780428D01*
X199126071Y-111637571D01*
X199126071Y-111351857D01*
X199197500Y-111209000D01*
X199340357Y-111137571D01*
X199483214Y-111137571D01*
X199626071Y-111851857D01*
X199126071Y-110494714D02*
X200126071Y-110494714D01*
X199268928Y-110494714D02*
X199197500Y-110423285D01*
X199126071Y-110280428D01*
X199126071Y-110066142D01*
X199197500Y-109923285D01*
X199340357Y-109851857D01*
X200126071Y-109851857D01*
X200054642Y-109209000D02*
X200126071Y-109066142D01*
X200126071Y-108780428D01*
X200054642Y-108637571D01*
X199911785Y-108566142D01*
X199840357Y-108566142D01*
X199697500Y-108637571D01*
X199626071Y-108780428D01*
X199626071Y-108994714D01*
X199554642Y-109137571D01*
X199411785Y-109209000D01*
X199340357Y-109209000D01*
X199197500Y-109137571D01*
X199126071Y-108994714D01*
X199126071Y-108780428D01*
X199197500Y-108637571D01*
X200126071Y-107709000D02*
X200054642Y-107851857D01*
X199983214Y-107923285D01*
X199840357Y-107994714D01*
X199411785Y-107994714D01*
X199268928Y-107923285D01*
X199197500Y-107851857D01*
X199126071Y-107709000D01*
X199126071Y-107494714D01*
X199197500Y-107351857D01*
X199268928Y-107280428D01*
X199411785Y-107209000D01*
X199840357Y-107209000D01*
X199983214Y-107280428D01*
X200054642Y-107351857D01*
X200126071Y-107494714D01*
X200126071Y-107709000D01*
X200126071Y-106566142D02*
X199126071Y-106566142D01*
X199411785Y-106566142D02*
X199268928Y-106494714D01*
X199197500Y-106423285D01*
X199126071Y-106280428D01*
X199126071Y-106137571D01*
D10*
X173222214Y-67981357D02*
X172822214Y-67409928D01*
X172536500Y-67981357D02*
X172536500Y-66781357D01*
X172993642Y-66781357D01*
X173107928Y-66838500D01*
X173165071Y-66895642D01*
X173222214Y-67009928D01*
X173222214Y-67181357D01*
X173165071Y-67295642D01*
X173107928Y-67352785D01*
X172993642Y-67409928D01*
X172536500Y-67409928D01*
X174193642Y-67924214D02*
X174079357Y-67981357D01*
X173850785Y-67981357D01*
X173736500Y-67924214D01*
X173679357Y-67809928D01*
X173679357Y-67352785D01*
X173736500Y-67238500D01*
X173850785Y-67181357D01*
X174079357Y-67181357D01*
X174193642Y-67238500D01*
X174250785Y-67352785D01*
X174250785Y-67467071D01*
X173679357Y-67581357D01*
X174936500Y-67981357D02*
X174822214Y-67924214D01*
X174765071Y-67809928D01*
X174765071Y-66781357D01*
X175907928Y-67981357D02*
X175907928Y-67352785D01*
X175850785Y-67238500D01*
X175736500Y-67181357D01*
X175507928Y-67181357D01*
X175393642Y-67238500D01*
X175907928Y-67924214D02*
X175793642Y-67981357D01*
X175507928Y-67981357D01*
X175393642Y-67924214D01*
X175336500Y-67809928D01*
X175336500Y-67695642D01*
X175393642Y-67581357D01*
X175507928Y-67524214D01*
X175793642Y-67524214D01*
X175907928Y-67467071D01*
X176365071Y-67181357D02*
X176650785Y-67981357D01*
X176936500Y-67181357D02*
X176650785Y-67981357D01*
X176536500Y-68267071D01*
X176479357Y-68324214D01*
X176365071Y-68381357D01*
X178307928Y-67981357D02*
X178307928Y-66781357D01*
X178593642Y-66781357D01*
X178765071Y-66838500D01*
X178879357Y-66952785D01*
X178936500Y-67067071D01*
X178993642Y-67295642D01*
X178993642Y-67467071D01*
X178936500Y-67695642D01*
X178879357Y-67809928D01*
X178765071Y-67924214D01*
X178593642Y-67981357D01*
X178307928Y-67981357D01*
X179507928Y-67981357D02*
X179507928Y-67181357D01*
X179507928Y-67409928D02*
X179565071Y-67295642D01*
X179622214Y-67238500D01*
X179736500Y-67181357D01*
X179850785Y-67181357D01*
X180250785Y-67981357D02*
X180250785Y-67181357D01*
X180250785Y-66781357D02*
X180193642Y-66838500D01*
X180250785Y-66895642D01*
X180307928Y-66838500D01*
X180250785Y-66781357D01*
X180250785Y-66895642D01*
X180707928Y-67181357D02*
X180993642Y-67981357D01*
X181279357Y-67181357D01*
X182193642Y-67924214D02*
X182079357Y-67981357D01*
X181850785Y-67981357D01*
X181736500Y-67924214D01*
X181679357Y-67809928D01*
X181679357Y-67352785D01*
X181736500Y-67238500D01*
X181850785Y-67181357D01*
X182079357Y-67181357D01*
X182193642Y-67238500D01*
X182250785Y-67352785D01*
X182250785Y-67467071D01*
X181679357Y-67581357D01*
X182765071Y-67981357D02*
X182765071Y-67181357D01*
X182765071Y-67409928D02*
X182822214Y-67295642D01*
X182879357Y-67238500D01*
X182993642Y-67181357D01*
X183107928Y-67181357D01*
D12*
X225510761Y-72610380D02*
X225510761Y-73419904D01*
X225558380Y-73515142D01*
X225606000Y-73562761D01*
X225701238Y-73610380D01*
X225891714Y-73610380D01*
X225986952Y-73562761D01*
X226034571Y-73515142D01*
X226082190Y-73419904D01*
X226082190Y-72610380D01*
X226510761Y-73324666D02*
X226986952Y-73324666D01*
X226415523Y-73610380D02*
X226748857Y-72610380D01*
X227082190Y-73610380D01*
X227986952Y-73610380D02*
X227653619Y-73134190D01*
X227415523Y-73610380D02*
X227415523Y-72610380D01*
X227796476Y-72610380D01*
X227891714Y-72658000D01*
X227939333Y-72705619D01*
X227986952Y-72800857D01*
X227986952Y-72943714D01*
X227939333Y-73038952D01*
X227891714Y-73086571D01*
X227796476Y-73134190D01*
X227415523Y-73134190D01*
X228272666Y-72610380D02*
X228844095Y-72610380D01*
X228558380Y-73610380D02*
X228558380Y-72610380D01*
D13*
X102181428Y-150443571D02*
X102181428Y-148943571D01*
X103038571Y-150443571D01*
X103038571Y-148943571D01*
X108154285Y-150443571D02*
X107440000Y-150443571D01*
X107440000Y-148943571D01*
X124664285Y-150443571D02*
X123950000Y-150443571D01*
X123950000Y-148943571D01*
X118691428Y-150443571D02*
X118691428Y-148943571D01*
X119548571Y-150443571D01*
X119548571Y-148943571D01*
X141174285Y-150443571D02*
X140460000Y-150443571D01*
X140460000Y-148943571D01*
X135201428Y-150443571D02*
X135201428Y-148943571D01*
X136058571Y-150443571D01*
X136058571Y-148943571D01*
X152346428Y-150443571D02*
X152346428Y-148943571D01*
X153203571Y-150443571D01*
X153203571Y-148943571D01*
X158319285Y-150443571D02*
X157605000Y-150443571D01*
X157605000Y-148943571D01*
X168856428Y-150443571D02*
X168856428Y-148943571D01*
X169713571Y-150443571D01*
X169713571Y-148943571D01*
X174829285Y-150443571D02*
X174115000Y-150443571D01*
X174115000Y-148943571D01*
X185366428Y-150443571D02*
X185366428Y-148943571D01*
X186223571Y-150443571D01*
X186223571Y-148943571D01*
X191339285Y-150443571D02*
X190625000Y-150443571D01*
X190625000Y-148943571D01*
D10*
X99562000Y-144050000D02*
X99562000Y-151670000D01*
X110611000Y-144050000D02*
X110611000Y-151670000D01*
X116199000Y-144050000D02*
X116199000Y-151670000D01*
X127248000Y-144050000D02*
X127248000Y-151670000D01*
X132836000Y-144050000D02*
X132836000Y-151670000D01*
X143885000Y-144050000D02*
X143885000Y-151670000D01*
X149600000Y-144050000D02*
X149600000Y-151670000D01*
X160395000Y-144050000D02*
X160395000Y-151670000D01*
X166110000Y-144050000D02*
X166110000Y-151670000D01*
X177159000Y-144050000D02*
X177159000Y-151670000D01*
X182747000Y-144050000D02*
X182747000Y-151670000D01*
X193796000Y-144050000D02*
X193796000Y-151670000D01*
D13*
X100058714Y-147197142D02*
X100273000Y-147268571D01*
X100630142Y-147268571D01*
X100773000Y-147197142D01*
X100844428Y-147125714D01*
X100915857Y-146982857D01*
X100915857Y-146840000D01*
X100844428Y-146697142D01*
X100773000Y-146625714D01*
X100630142Y-146554285D01*
X100344428Y-146482857D01*
X100201571Y-146411428D01*
X100130142Y-146340000D01*
X100058714Y-146197142D01*
X100058714Y-146054285D01*
X100130142Y-145911428D01*
X100201571Y-145840000D01*
X100344428Y-145768571D01*
X100701571Y-145768571D01*
X100915857Y-145840000D01*
X101415857Y-145768571D02*
X101773000Y-147268571D01*
X102058714Y-146197142D01*
X102344428Y-147268571D01*
X102701571Y-145768571D01*
X103273000Y-147268571D02*
X103273000Y-145768571D01*
X103773000Y-145768571D02*
X104630142Y-145768571D01*
X104201571Y-147268571D02*
X104201571Y-145768571D01*
X105987285Y-147125714D02*
X105915857Y-147197142D01*
X105701571Y-147268571D01*
X105558714Y-147268571D01*
X105344428Y-147197142D01*
X105201571Y-147054285D01*
X105130142Y-146911428D01*
X105058714Y-146625714D01*
X105058714Y-146411428D01*
X105130142Y-146125714D01*
X105201571Y-145982857D01*
X105344428Y-145840000D01*
X105558714Y-145768571D01*
X105701571Y-145768571D01*
X105915857Y-145840000D01*
X105987285Y-145911428D01*
X106630142Y-147268571D02*
X106630142Y-145768571D01*
X106630142Y-146482857D02*
X107487285Y-146482857D01*
X107487285Y-147268571D02*
X107487285Y-145768571D01*
X109273000Y-146840000D02*
X109987285Y-146840000D01*
X109130142Y-147268571D02*
X109630142Y-145768571D01*
X110130142Y-147268571D01*
X116715571Y-147197142D02*
X116929857Y-147268571D01*
X117287000Y-147268571D01*
X117429857Y-147197142D01*
X117501285Y-147125714D01*
X117572714Y-146982857D01*
X117572714Y-146840000D01*
X117501285Y-146697142D01*
X117429857Y-146625714D01*
X117287000Y-146554285D01*
X117001285Y-146482857D01*
X116858428Y-146411428D01*
X116787000Y-146340000D01*
X116715571Y-146197142D01*
X116715571Y-146054285D01*
X116787000Y-145911428D01*
X116858428Y-145840000D01*
X117001285Y-145768571D01*
X117358428Y-145768571D01*
X117572714Y-145840000D01*
X118072714Y-145768571D02*
X118429857Y-147268571D01*
X118715571Y-146197142D01*
X119001285Y-147268571D01*
X119358428Y-145768571D01*
X119929857Y-147268571D02*
X119929857Y-145768571D01*
X120429857Y-145768571D02*
X121287000Y-145768571D01*
X120858428Y-147268571D02*
X120858428Y-145768571D01*
X122644142Y-147125714D02*
X122572714Y-147197142D01*
X122358428Y-147268571D01*
X122215571Y-147268571D01*
X122001285Y-147197142D01*
X121858428Y-147054285D01*
X121787000Y-146911428D01*
X121715571Y-146625714D01*
X121715571Y-146411428D01*
X121787000Y-146125714D01*
X121858428Y-145982857D01*
X122001285Y-145840000D01*
X122215571Y-145768571D01*
X122358428Y-145768571D01*
X122572714Y-145840000D01*
X122644142Y-145911428D01*
X123287000Y-147268571D02*
X123287000Y-145768571D01*
X123287000Y-146482857D02*
X124144142Y-146482857D01*
X124144142Y-147268571D02*
X124144142Y-145768571D01*
X126501285Y-146482857D02*
X126715571Y-146554285D01*
X126787000Y-146625714D01*
X126858428Y-146768571D01*
X126858428Y-146982857D01*
X126787000Y-147125714D01*
X126715571Y-147197142D01*
X126572714Y-147268571D01*
X126001285Y-147268571D01*
X126001285Y-145768571D01*
X126501285Y-145768571D01*
X126644142Y-145840000D01*
X126715571Y-145911428D01*
X126787000Y-146054285D01*
X126787000Y-146197142D01*
X126715571Y-146340000D01*
X126644142Y-146411428D01*
X126501285Y-146482857D01*
X126001285Y-146482857D01*
X133225571Y-147197142D02*
X133439857Y-147268571D01*
X133797000Y-147268571D01*
X133939857Y-147197142D01*
X134011285Y-147125714D01*
X134082714Y-146982857D01*
X134082714Y-146840000D01*
X134011285Y-146697142D01*
X133939857Y-146625714D01*
X133797000Y-146554285D01*
X133511285Y-146482857D01*
X133368428Y-146411428D01*
X133297000Y-146340000D01*
X133225571Y-146197142D01*
X133225571Y-146054285D01*
X133297000Y-145911428D01*
X133368428Y-145840000D01*
X133511285Y-145768571D01*
X133868428Y-145768571D01*
X134082714Y-145840000D01*
X134582714Y-145768571D02*
X134939857Y-147268571D01*
X135225571Y-146197142D01*
X135511285Y-147268571D01*
X135868428Y-145768571D01*
X136439857Y-147268571D02*
X136439857Y-145768571D01*
X136939857Y-145768571D02*
X137797000Y-145768571D01*
X137368428Y-147268571D02*
X137368428Y-145768571D01*
X139154142Y-147125714D02*
X139082714Y-147197142D01*
X138868428Y-147268571D01*
X138725571Y-147268571D01*
X138511285Y-147197142D01*
X138368428Y-147054285D01*
X138297000Y-146911428D01*
X138225571Y-146625714D01*
X138225571Y-146411428D01*
X138297000Y-146125714D01*
X138368428Y-145982857D01*
X138511285Y-145840000D01*
X138725571Y-145768571D01*
X138868428Y-145768571D01*
X139082714Y-145840000D01*
X139154142Y-145911428D01*
X139797000Y-147268571D02*
X139797000Y-145768571D01*
X139797000Y-146482857D02*
X140654142Y-146482857D01*
X140654142Y-147268571D02*
X140654142Y-145768571D01*
X143368428Y-147125714D02*
X143297000Y-147197142D01*
X143082714Y-147268571D01*
X142939857Y-147268571D01*
X142725571Y-147197142D01*
X142582714Y-147054285D01*
X142511285Y-146911428D01*
X142439857Y-146625714D01*
X142439857Y-146411428D01*
X142511285Y-146125714D01*
X142582714Y-145982857D01*
X142725571Y-145840000D01*
X142939857Y-145768571D01*
X143082714Y-145768571D01*
X143297000Y-145840000D01*
X143368428Y-145911428D01*
X149862571Y-147197142D02*
X150076857Y-147268571D01*
X150434000Y-147268571D01*
X150576857Y-147197142D01*
X150648285Y-147125714D01*
X150719714Y-146982857D01*
X150719714Y-146840000D01*
X150648285Y-146697142D01*
X150576857Y-146625714D01*
X150434000Y-146554285D01*
X150148285Y-146482857D01*
X150005428Y-146411428D01*
X149934000Y-146340000D01*
X149862571Y-146197142D01*
X149862571Y-146054285D01*
X149934000Y-145911428D01*
X150005428Y-145840000D01*
X150148285Y-145768571D01*
X150505428Y-145768571D01*
X150719714Y-145840000D01*
X151219714Y-145768571D02*
X151576857Y-147268571D01*
X151862571Y-146197142D01*
X152148285Y-147268571D01*
X152505428Y-145768571D01*
X153076857Y-147268571D02*
X153076857Y-145768571D01*
X153576857Y-145768571D02*
X154434000Y-145768571D01*
X154005428Y-147268571D02*
X154005428Y-145768571D01*
X155791142Y-147125714D02*
X155719714Y-147197142D01*
X155505428Y-147268571D01*
X155362571Y-147268571D01*
X155148285Y-147197142D01*
X155005428Y-147054285D01*
X154934000Y-146911428D01*
X154862571Y-146625714D01*
X154862571Y-146411428D01*
X154934000Y-146125714D01*
X155005428Y-145982857D01*
X155148285Y-145840000D01*
X155362571Y-145768571D01*
X155505428Y-145768571D01*
X155719714Y-145840000D01*
X155791142Y-145911428D01*
X156434000Y-147268571D02*
X156434000Y-145768571D01*
X156434000Y-146482857D02*
X157291142Y-146482857D01*
X157291142Y-147268571D02*
X157291142Y-145768571D01*
X159148285Y-147268571D02*
X159148285Y-145768571D01*
X159505428Y-145768571D01*
X159719714Y-145840000D01*
X159862571Y-145982857D01*
X159934000Y-146125714D01*
X160005428Y-146411428D01*
X160005428Y-146625714D01*
X159934000Y-146911428D01*
X159862571Y-147054285D01*
X159719714Y-147197142D01*
X159505428Y-147268571D01*
X159148285Y-147268571D01*
X166698000Y-147197142D02*
X166912285Y-147268571D01*
X167269428Y-147268571D01*
X167412285Y-147197142D01*
X167483714Y-147125714D01*
X167555142Y-146982857D01*
X167555142Y-146840000D01*
X167483714Y-146697142D01*
X167412285Y-146625714D01*
X167269428Y-146554285D01*
X166983714Y-146482857D01*
X166840857Y-146411428D01*
X166769428Y-146340000D01*
X166698000Y-146197142D01*
X166698000Y-146054285D01*
X166769428Y-145911428D01*
X166840857Y-145840000D01*
X166983714Y-145768571D01*
X167340857Y-145768571D01*
X167555142Y-145840000D01*
X168055142Y-145768571D02*
X168412285Y-147268571D01*
X168698000Y-146197142D01*
X168983714Y-147268571D01*
X169340857Y-145768571D01*
X169912285Y-147268571D02*
X169912285Y-145768571D01*
X170412285Y-145768571D02*
X171269428Y-145768571D01*
X170840857Y-147268571D02*
X170840857Y-145768571D01*
X172626571Y-147125714D02*
X172555142Y-147197142D01*
X172340857Y-147268571D01*
X172198000Y-147268571D01*
X171983714Y-147197142D01*
X171840857Y-147054285D01*
X171769428Y-146911428D01*
X171698000Y-146625714D01*
X171698000Y-146411428D01*
X171769428Y-146125714D01*
X171840857Y-145982857D01*
X171983714Y-145840000D01*
X172198000Y-145768571D01*
X172340857Y-145768571D01*
X172555142Y-145840000D01*
X172626571Y-145911428D01*
X173269428Y-147268571D02*
X173269428Y-145768571D01*
X173269428Y-146482857D02*
X174126571Y-146482857D01*
X174126571Y-147268571D02*
X174126571Y-145768571D01*
X175983714Y-146482857D02*
X176483714Y-146482857D01*
X176698000Y-147268571D02*
X175983714Y-147268571D01*
X175983714Y-145768571D01*
X176698000Y-145768571D01*
X183370714Y-147197142D02*
X183585000Y-147268571D01*
X183942142Y-147268571D01*
X184085000Y-147197142D01*
X184156428Y-147125714D01*
X184227857Y-146982857D01*
X184227857Y-146840000D01*
X184156428Y-146697142D01*
X184085000Y-146625714D01*
X183942142Y-146554285D01*
X183656428Y-146482857D01*
X183513571Y-146411428D01*
X183442142Y-146340000D01*
X183370714Y-146197142D01*
X183370714Y-146054285D01*
X183442142Y-145911428D01*
X183513571Y-145840000D01*
X183656428Y-145768571D01*
X184013571Y-145768571D01*
X184227857Y-145840000D01*
X184727857Y-145768571D02*
X185085000Y-147268571D01*
X185370714Y-146197142D01*
X185656428Y-147268571D01*
X186013571Y-145768571D01*
X186585000Y-147268571D02*
X186585000Y-145768571D01*
X187085000Y-145768571D02*
X187942142Y-145768571D01*
X187513571Y-147268571D02*
X187513571Y-145768571D01*
X189299285Y-147125714D02*
X189227857Y-147197142D01*
X189013571Y-147268571D01*
X188870714Y-147268571D01*
X188656428Y-147197142D01*
X188513571Y-147054285D01*
X188442142Y-146911428D01*
X188370714Y-146625714D01*
X188370714Y-146411428D01*
X188442142Y-146125714D01*
X188513571Y-145982857D01*
X188656428Y-145840000D01*
X188870714Y-145768571D01*
X189013571Y-145768571D01*
X189227857Y-145840000D01*
X189299285Y-145911428D01*
X189942142Y-147268571D02*
X189942142Y-145768571D01*
X189942142Y-146482857D02*
X190799285Y-146482857D01*
X190799285Y-147268571D02*
X190799285Y-145768571D01*
X193156428Y-146482857D02*
X192656428Y-146482857D01*
X192656428Y-147268571D02*
X192656428Y-145768571D01*
X193370714Y-145768571D01*
X62250000Y-133607142D02*
X62250000Y-132892857D01*
X62678571Y-133750000D02*
X61178571Y-133250000D01*
X62678571Y-132750000D01*
X61678571Y-131607142D02*
X63178571Y-131607142D01*
X62607142Y-131607142D02*
X62678571Y-131750000D01*
X62678571Y-132035714D01*
X62607142Y-132178571D01*
X62535714Y-132250000D01*
X62392857Y-132321428D01*
X61964285Y-132321428D01*
X61821428Y-132250000D01*
X61750000Y-132178571D01*
X61678571Y-132035714D01*
X61678571Y-131750000D01*
X61750000Y-131607142D01*
X61678571Y-130250000D02*
X62678571Y-130250000D01*
X61678571Y-130892857D02*
X62464285Y-130892857D01*
X62607142Y-130821428D01*
X62678571Y-130678571D01*
X62678571Y-130464285D01*
X62607142Y-130321428D01*
X62535714Y-130250000D01*
X62678571Y-128892857D02*
X61892857Y-128892857D01*
X61750000Y-128964285D01*
X61678571Y-129107142D01*
X61678571Y-129392857D01*
X61750000Y-129535714D01*
X62607142Y-128892857D02*
X62678571Y-129035714D01*
X62678571Y-129392857D01*
X62607142Y-129535714D01*
X62464285Y-129607142D01*
X62321428Y-129607142D01*
X62178571Y-129535714D01*
X62107142Y-129392857D01*
X62107142Y-129035714D01*
X62035714Y-128892857D01*
X62678571Y-128178571D02*
X61178571Y-128178571D01*
X61892857Y-128178571D02*
X61892857Y-127321428D01*
X62678571Y-127321428D02*
X61178571Y-127321428D01*
X61678571Y-125964285D02*
X62678571Y-125964285D01*
X61678571Y-126607142D02*
X62464285Y-126607142D01*
X62607142Y-126535714D01*
X62678571Y-126392857D01*
X62678571Y-126178571D01*
X62607142Y-126035714D01*
X62535714Y-125964285D01*
X62678571Y-125250000D02*
X61178571Y-125250000D01*
X61750000Y-125250000D02*
X61678571Y-125107142D01*
X61678571Y-124821428D01*
X61750000Y-124678571D01*
X61821428Y-124607142D01*
X61964285Y-124535714D01*
X62392857Y-124535714D01*
X62535714Y-124607142D01*
X62607142Y-124678571D01*
X62678571Y-124821428D01*
X62678571Y-125107142D01*
X62607142Y-125250000D01*
X62678571Y-122750000D02*
X61178571Y-122750000D01*
X61178571Y-122178571D01*
X61250000Y-122035714D01*
X61321428Y-121964285D01*
X61464285Y-121892857D01*
X61678571Y-121892857D01*
X61821428Y-121964285D01*
X61892857Y-122035714D01*
X61964285Y-122178571D01*
X61964285Y-122750000D01*
X62678571Y-121035714D02*
X62607142Y-121178571D01*
X62535714Y-121250000D01*
X62392857Y-121321428D01*
X61964285Y-121321428D01*
X61821428Y-121250000D01*
X61750000Y-121178571D01*
X61678571Y-121035714D01*
X61678571Y-120821428D01*
X61750000Y-120678571D01*
X61821428Y-120607142D01*
X61964285Y-120535714D01*
X62392857Y-120535714D01*
X62535714Y-120607142D01*
X62607142Y-120678571D01*
X62678571Y-120821428D01*
X62678571Y-121035714D01*
X61678571Y-120035714D02*
X62678571Y-119750000D01*
X61964285Y-119464285D01*
X62678571Y-119178571D01*
X61678571Y-118892857D01*
X62607142Y-117750000D02*
X62678571Y-117892857D01*
X62678571Y-118178571D01*
X62607142Y-118321428D01*
X62464285Y-118392857D01*
X61892857Y-118392857D01*
X61750000Y-118321428D01*
X61678571Y-118178571D01*
X61678571Y-117892857D01*
X61750000Y-117750000D01*
X61892857Y-117678571D01*
X62035714Y-117678571D01*
X62178571Y-118392857D01*
X62678571Y-117035714D02*
X61678571Y-117035714D01*
X61964285Y-117035714D02*
X61821428Y-116964285D01*
X61750000Y-116892857D01*
X61678571Y-116750000D01*
X61678571Y-116607142D01*
X61892857Y-115607142D02*
X61964285Y-115392857D01*
X62035714Y-115321428D01*
X62178571Y-115250000D01*
X62392857Y-115250000D01*
X62535714Y-115321428D01*
X62607142Y-115392857D01*
X62678571Y-115535714D01*
X62678571Y-116107142D01*
X61178571Y-116107142D01*
X61178571Y-115607142D01*
X61250000Y-115464285D01*
X61321428Y-115392857D01*
X61464285Y-115321428D01*
X61607142Y-115321428D01*
X61750000Y-115392857D01*
X61821428Y-115464285D01*
X61892857Y-115607142D01*
X61892857Y-116107142D01*
X62678571Y-114392857D02*
X62607142Y-114535714D01*
X62535714Y-114607142D01*
X62392857Y-114678571D01*
X61964285Y-114678571D01*
X61821428Y-114607142D01*
X61750000Y-114535714D01*
X61678571Y-114392857D01*
X61678571Y-114178571D01*
X61750000Y-114035714D01*
X61821428Y-113964285D01*
X61964285Y-113892857D01*
X62392857Y-113892857D01*
X62535714Y-113964285D01*
X62607142Y-114035714D01*
X62678571Y-114178571D01*
X62678571Y-114392857D01*
X62678571Y-112607142D02*
X61892857Y-112607142D01*
X61750000Y-112678571D01*
X61678571Y-112821428D01*
X61678571Y-113107142D01*
X61750000Y-113250000D01*
X62607142Y-112607142D02*
X62678571Y-112750000D01*
X62678571Y-113107142D01*
X62607142Y-113250000D01*
X62464285Y-113321428D01*
X62321428Y-113321428D01*
X62178571Y-113250000D01*
X62107142Y-113107142D01*
X62107142Y-112750000D01*
X62035714Y-112607142D01*
X62678571Y-111892857D02*
X61678571Y-111892857D01*
X61964285Y-111892857D02*
X61821428Y-111821428D01*
X61750000Y-111750000D01*
X61678571Y-111607142D01*
X61678571Y-111464285D01*
X62678571Y-110321428D02*
X61178571Y-110321428D01*
X62607142Y-110321428D02*
X62678571Y-110464285D01*
X62678571Y-110750000D01*
X62607142Y-110892857D01*
X62535714Y-110964285D01*
X62392857Y-111035714D01*
X61964285Y-111035714D01*
X61821428Y-110964285D01*
X61750000Y-110892857D01*
X61678571Y-110750000D01*
X61678571Y-110464285D01*
X61750000Y-110321428D01*
X61678571Y-108607142D02*
X62678571Y-108250000D01*
X61678571Y-107892857D01*
X62678571Y-106535714D02*
X62678571Y-107392857D01*
X62678571Y-106964285D02*
X61178571Y-106964285D01*
X61392857Y-107107142D01*
X61535714Y-107250000D01*
X61607142Y-107392857D01*
X62535714Y-105892857D02*
X62607142Y-105821428D01*
X62678571Y-105892857D01*
X62607142Y-105964285D01*
X62535714Y-105892857D01*
X62678571Y-105892857D01*
X61178571Y-104892857D02*
X61178571Y-104750000D01*
X61250000Y-104607142D01*
X61321428Y-104535714D01*
X61464285Y-104464285D01*
X61750000Y-104392857D01*
X62107142Y-104392857D01*
X62392857Y-104464285D01*
X62535714Y-104535714D01*
X62607142Y-104607142D01*
X62678571Y-104750000D01*
X62678571Y-104892857D01*
X62607142Y-105035714D01*
X62535714Y-105107142D01*
X62392857Y-105178571D01*
X62107142Y-105250000D01*
X61750000Y-105250000D01*
X61464285Y-105178571D01*
X61321428Y-105107142D01*
X61250000Y-105035714D01*
X61178571Y-104892857D01*
D10*
X222752000Y-144050000D02*
X222752000Y-151670000D01*
X211068000Y-144050000D02*
X211068000Y-151670000D01*
D13*
X211497285Y-147272523D02*
X211783000Y-147367761D01*
X212259190Y-147367761D01*
X212449666Y-147272523D01*
X212544904Y-147177285D01*
X212640142Y-146986809D01*
X212640142Y-146796333D01*
X212544904Y-146605857D01*
X212449666Y-146510619D01*
X212259190Y-146415380D01*
X211878238Y-146320142D01*
X211687761Y-146224904D01*
X211592523Y-146129666D01*
X211497285Y-145939190D01*
X211497285Y-145748714D01*
X211592523Y-145558238D01*
X211687761Y-145463000D01*
X211878238Y-145367761D01*
X212354428Y-145367761D01*
X212640142Y-145463000D01*
X213497285Y-145367761D02*
X213497285Y-146986809D01*
X213592523Y-147177285D01*
X213687761Y-147272523D01*
X213878238Y-147367761D01*
X214259190Y-147367761D01*
X214449666Y-147272523D01*
X214544904Y-147177285D01*
X214640142Y-146986809D01*
X214640142Y-145367761D01*
X215592523Y-147367761D02*
X215592523Y-145367761D01*
X216354428Y-145367761D01*
X216544904Y-145463000D01*
X216640142Y-145558238D01*
X216735380Y-145748714D01*
X216735380Y-146034428D01*
X216640142Y-146224904D01*
X216544904Y-146320142D01*
X216354428Y-146415380D01*
X215592523Y-146415380D01*
X217592523Y-147367761D02*
X217592523Y-145367761D01*
X218354428Y-145367761D01*
X218544904Y-145463000D01*
X218640142Y-145558238D01*
X218735380Y-145748714D01*
X218735380Y-146034428D01*
X218640142Y-146224904D01*
X218544904Y-146320142D01*
X218354428Y-146415380D01*
X217592523Y-146415380D01*
X220544904Y-147367761D02*
X219592523Y-147367761D01*
X219592523Y-145367761D01*
X221592523Y-146415380D02*
X221592523Y-147367761D01*
X220925857Y-145367761D02*
X221592523Y-146415380D01*
X222259190Y-145367761D01*
X213941428Y-150443571D02*
X213941428Y-148943571D01*
X214798571Y-150443571D01*
X214798571Y-148943571D01*
X219914285Y-150443571D02*
X219200000Y-150443571D01*
X219200000Y-148943571D01*
X229213285Y-70244571D02*
X229713285Y-71744571D01*
X230213285Y-70244571D01*
X231570427Y-71601714D02*
X231498999Y-71673142D01*
X231284713Y-71744571D01*
X231141856Y-71744571D01*
X230927570Y-71673142D01*
X230784713Y-71530285D01*
X230713285Y-71387428D01*
X230641856Y-71101714D01*
X230641856Y-70887428D01*
X230713285Y-70601714D01*
X230784713Y-70458857D01*
X230927570Y-70316000D01*
X231141856Y-70244571D01*
X231284713Y-70244571D01*
X231498999Y-70316000D01*
X231570427Y-70387428D01*
X233070427Y-71601714D02*
X232998999Y-71673142D01*
X232784713Y-71744571D01*
X232641856Y-71744571D01*
X232427570Y-71673142D01*
X232284713Y-71530285D01*
X232213285Y-71387428D01*
X232141856Y-71101714D01*
X232141856Y-70887428D01*
X232213285Y-70601714D01*
X232284713Y-70458857D01*
X232427570Y-70316000D01*
X232641856Y-70244571D01*
X232784713Y-70244571D01*
X232998999Y-70316000D01*
X233070427Y-70387428D01*
X230284713Y-66664571D02*
X229784713Y-65950285D01*
X229427570Y-66664571D02*
X229427570Y-65164571D01*
X229998998Y-65164571D01*
X230141855Y-65236000D01*
X230213284Y-65307428D01*
X230284713Y-65450285D01*
X230284713Y-65664571D01*
X230213284Y-65807428D01*
X230141855Y-65878857D01*
X229998998Y-65950285D01*
X229427570Y-65950285D01*
X230784713Y-65164571D02*
X231784713Y-66664571D01*
X231784713Y-65164571D02*
X230784713Y-66664571D01*
X230213284Y-57616000D02*
X230070427Y-57544571D01*
X229856142Y-57544571D01*
X229641856Y-57616000D01*
X229498999Y-57758857D01*
X229427570Y-57901714D01*
X229356142Y-58187428D01*
X229356142Y-58401714D01*
X229427570Y-58687428D01*
X229498999Y-58830285D01*
X229641856Y-58973142D01*
X229856142Y-59044571D01*
X229998999Y-59044571D01*
X230213284Y-58973142D01*
X230284713Y-58901714D01*
X230284713Y-58401714D01*
X229998999Y-58401714D01*
X230927570Y-59044571D02*
X230927570Y-57544571D01*
X231784713Y-59044571D01*
X231784713Y-57544571D01*
X232498999Y-59044571D02*
X232498999Y-57544571D01*
X232856142Y-57544571D01*
X233070427Y-57616000D01*
X233213284Y-57758857D01*
X233284713Y-57901714D01*
X233356142Y-58187428D01*
X233356142Y-58401714D01*
X233284713Y-58687428D01*
X233213284Y-58830285D01*
X233070427Y-58973142D01*
X232856142Y-59044571D01*
X232498999Y-59044571D01*
D14*
G04 #@! TO.C,J7*
X191972500Y-76799500D02*
X191972500Y-79339500D01*
X191972500Y-76799500D02*
X189432500Y-76799500D01*
X191722500Y-77049500D02*
X191722500Y-86399500D01*
X170862500Y-77049500D02*
X191722500Y-77049500D01*
X170862500Y-86399500D02*
X170862500Y-77049500D01*
X191722500Y-86399500D02*
X170862500Y-86399500D01*
D12*
G04 #@! TO.C,U8*
X167302000Y-53970000D02*
X167302000Y-53945000D01*
X163152000Y-53970000D02*
X163152000Y-53865000D01*
X163152000Y-43820000D02*
X163152000Y-43925000D01*
X167302000Y-43820000D02*
X167302000Y-43925000D01*
X167302000Y-53970000D02*
X163152000Y-53970000D01*
X167302000Y-43820000D02*
X163152000Y-43820000D01*
X167302000Y-53945000D02*
X168677000Y-53945000D01*
G04 #@! TO.C,U6*
X81250000Y-51125000D02*
X81250000Y-49600000D01*
X70875000Y-51125000D02*
X70875000Y-58875000D01*
X81525000Y-51125000D02*
X81525000Y-58875000D01*
X70875000Y-51125000D02*
X71230000Y-51125000D01*
X70875000Y-58875000D02*
X71230000Y-58875000D01*
X81525000Y-58875000D02*
X81170000Y-58875000D01*
X81525000Y-51125000D02*
X81250000Y-51125000D01*
D14*
G04 #@! TO.C,J14*
X205303000Y-35435000D02*
X205303000Y-36765000D01*
X203973000Y-35435000D02*
X205303000Y-35435000D01*
X202703000Y-35435000D02*
X202703000Y-38095000D01*
X202703000Y-38095000D02*
X197563000Y-38095000D01*
X202703000Y-35435000D02*
X197563000Y-35435000D01*
X197563000Y-35435000D02*
X197563000Y-38095000D01*
G04 #@! TO.C,K1*
X112160000Y-132550000D02*
X112160000Y-130050000D01*
X111740000Y-104320000D02*
X111740000Y-133580000D01*
X98680000Y-104320000D02*
X111740000Y-104320000D01*
X98680000Y-133580000D02*
X98680000Y-104320000D01*
X111740000Y-133580000D02*
X98680000Y-133580000D01*
G04 #@! TO.C,K6*
X195225000Y-132550000D02*
X195225000Y-130050000D01*
X194805000Y-104320000D02*
X194805000Y-133580000D01*
X181745000Y-104320000D02*
X194805000Y-104320000D01*
X181745000Y-133580000D02*
X181745000Y-104320000D01*
X194805000Y-133580000D02*
X181745000Y-133580000D01*
G04 #@! TO.C,J8*
X211443000Y-143635000D02*
X211843000Y-143635000D01*
X211443000Y-142995000D02*
X211443000Y-143635000D01*
X217985000Y-139327000D02*
X217590000Y-139723000D01*
X220631000Y-136681000D02*
X220251000Y-137061000D01*
X218236000Y-139609000D02*
X217856000Y-139989000D01*
X220897000Y-136947000D02*
X220502000Y-137343000D01*
X212695000Y-139616000D02*
X212589000Y-139723000D01*
X215631000Y-136681000D02*
X215524000Y-136788000D01*
X212961000Y-139882000D02*
X212855000Y-139989000D01*
X215897000Y-136947000D02*
X215790000Y-137054000D01*
X221803000Y-134275000D02*
X221803000Y-143395000D01*
X211683000Y-134275000D02*
X211683000Y-143395000D01*
X211683000Y-143395000D02*
X221803000Y-143395000D01*
X211683000Y-134275000D02*
X221803000Y-134275000D01*
X211683000Y-141835000D02*
X221803000Y-141835000D01*
X211683000Y-142935000D02*
X221803000Y-142935000D01*
X221423000Y-138335000D02*
G75*
G03X221423000Y-138335000I-2180000J0D01*
G01*
X216423000Y-138335000D02*
G75*
G03X216423000Y-138335000I-2180000J0D01*
G01*
G04 #@! TO.C,J6*
X182995000Y-143635000D02*
X183395000Y-143635000D01*
X182995000Y-142995000D02*
X182995000Y-143635000D01*
X189537000Y-139327000D02*
X189142000Y-139723000D01*
X192183000Y-136681000D02*
X191803000Y-137061000D01*
X189788000Y-139609000D02*
X189408000Y-139989000D01*
X192449000Y-136947000D02*
X192054000Y-137343000D01*
X184247000Y-139616000D02*
X184141000Y-139723000D01*
X187183000Y-136681000D02*
X187076000Y-136788000D01*
X184513000Y-139882000D02*
X184407000Y-139989000D01*
X187449000Y-136947000D02*
X187342000Y-137054000D01*
X193355000Y-134275000D02*
X193355000Y-143395000D01*
X183235000Y-134275000D02*
X183235000Y-143395000D01*
X183235000Y-143395000D02*
X193355000Y-143395000D01*
X183235000Y-134275000D02*
X193355000Y-134275000D01*
X183235000Y-141835000D02*
X193355000Y-141835000D01*
X183235000Y-142935000D02*
X193355000Y-142935000D01*
X192975000Y-138335000D02*
G75*
G03X192975000Y-138335000I-2180000J0D01*
G01*
X187975000Y-138335000D02*
G75*
G03X187975000Y-138335000I-2180000J0D01*
G01*
G04 #@! TO.C,J2*
X116447000Y-143635000D02*
X116847000Y-143635000D01*
X116447000Y-142995000D02*
X116447000Y-143635000D01*
X122989000Y-139327000D02*
X122594000Y-139723000D01*
X125635000Y-136681000D02*
X125255000Y-137061000D01*
X123240000Y-139609000D02*
X122860000Y-139989000D01*
X125901000Y-136947000D02*
X125506000Y-137343000D01*
X117699000Y-139616000D02*
X117593000Y-139723000D01*
X120635000Y-136681000D02*
X120528000Y-136788000D01*
X117965000Y-139882000D02*
X117859000Y-139989000D01*
X120901000Y-136947000D02*
X120794000Y-137054000D01*
X126807000Y-134275000D02*
X126807000Y-143395000D01*
X116687000Y-134275000D02*
X116687000Y-143395000D01*
X116687000Y-143395000D02*
X126807000Y-143395000D01*
X116687000Y-134275000D02*
X126807000Y-134275000D01*
X116687000Y-141835000D02*
X126807000Y-141835000D01*
X116687000Y-142935000D02*
X126807000Y-142935000D01*
X126427000Y-138335000D02*
G75*
G03X126427000Y-138335000I-2180000J0D01*
G01*
X121427000Y-138335000D02*
G75*
G03X121427000Y-138335000I-2180000J0D01*
G01*
G04 #@! TO.C,J1*
X99810000Y-143635000D02*
X100210000Y-143635000D01*
X99810000Y-142995000D02*
X99810000Y-143635000D01*
X106352000Y-139327000D02*
X105957000Y-139723000D01*
X108998000Y-136681000D02*
X108618000Y-137061000D01*
X106603000Y-139609000D02*
X106223000Y-139989000D01*
X109264000Y-136947000D02*
X108869000Y-137343000D01*
X101062000Y-139616000D02*
X100956000Y-139723000D01*
X103998000Y-136681000D02*
X103891000Y-136788000D01*
X101328000Y-139882000D02*
X101222000Y-139989000D01*
X104264000Y-136947000D02*
X104157000Y-137054000D01*
X110170000Y-134275000D02*
X110170000Y-143395000D01*
X100050000Y-134275000D02*
X100050000Y-143395000D01*
X100050000Y-143395000D02*
X110170000Y-143395000D01*
X100050000Y-134275000D02*
X110170000Y-134275000D01*
X100050000Y-141835000D02*
X110170000Y-141835000D01*
X100050000Y-142935000D02*
X110170000Y-142935000D01*
X109790000Y-138335000D02*
G75*
G03X109790000Y-138335000I-2180000J0D01*
G01*
X104790000Y-138335000D02*
G75*
G03X104790000Y-138335000I-2180000J0D01*
G01*
G04 #@! TO.C,J5*
X166358000Y-143635000D02*
X166758000Y-143635000D01*
X166358000Y-142995000D02*
X166358000Y-143635000D01*
X172900000Y-139327000D02*
X172505000Y-139723000D01*
X175546000Y-136681000D02*
X175166000Y-137061000D01*
X173151000Y-139609000D02*
X172771000Y-139989000D01*
X175812000Y-136947000D02*
X175417000Y-137343000D01*
X167610000Y-139616000D02*
X167504000Y-139723000D01*
X170546000Y-136681000D02*
X170439000Y-136788000D01*
X167876000Y-139882000D02*
X167770000Y-139989000D01*
X170812000Y-136947000D02*
X170705000Y-137054000D01*
X176718000Y-134275000D02*
X176718000Y-143395000D01*
X166598000Y-134275000D02*
X166598000Y-143395000D01*
X166598000Y-143395000D02*
X176718000Y-143395000D01*
X166598000Y-134275000D02*
X176718000Y-134275000D01*
X166598000Y-141835000D02*
X176718000Y-141835000D01*
X166598000Y-142935000D02*
X176718000Y-142935000D01*
X176338000Y-138335000D02*
G75*
G03X176338000Y-138335000I-2180000J0D01*
G01*
X171338000Y-138335000D02*
G75*
G03X171338000Y-138335000I-2180000J0D01*
G01*
G04 #@! TO.C,J4*
X149721000Y-143635000D02*
X150121000Y-143635000D01*
X149721000Y-142995000D02*
X149721000Y-143635000D01*
X156263000Y-139327000D02*
X155868000Y-139723000D01*
X158909000Y-136681000D02*
X158529000Y-137061000D01*
X156514000Y-139609000D02*
X156134000Y-139989000D01*
X159175000Y-136947000D02*
X158780000Y-137343000D01*
X150973000Y-139616000D02*
X150867000Y-139723000D01*
X153909000Y-136681000D02*
X153802000Y-136788000D01*
X151239000Y-139882000D02*
X151133000Y-139989000D01*
X154175000Y-136947000D02*
X154068000Y-137054000D01*
X160081000Y-134275000D02*
X160081000Y-143395000D01*
X149961000Y-134275000D02*
X149961000Y-143395000D01*
X149961000Y-143395000D02*
X160081000Y-143395000D01*
X149961000Y-134275000D02*
X160081000Y-134275000D01*
X149961000Y-141835000D02*
X160081000Y-141835000D01*
X149961000Y-142935000D02*
X160081000Y-142935000D01*
X159701000Y-138335000D02*
G75*
G03X159701000Y-138335000I-2180000J0D01*
G01*
X154701000Y-138335000D02*
G75*
G03X154701000Y-138335000I-2180000J0D01*
G01*
G04 #@! TO.C,J3*
X133084000Y-143635000D02*
X133484000Y-143635000D01*
X133084000Y-142995000D02*
X133084000Y-143635000D01*
X139626000Y-139327000D02*
X139231000Y-139723000D01*
X142272000Y-136681000D02*
X141892000Y-137061000D01*
X139877000Y-139609000D02*
X139497000Y-139989000D01*
X142538000Y-136947000D02*
X142143000Y-137343000D01*
X134336000Y-139616000D02*
X134230000Y-139723000D01*
X137272000Y-136681000D02*
X137165000Y-136788000D01*
X134602000Y-139882000D02*
X134496000Y-139989000D01*
X137538000Y-136947000D02*
X137431000Y-137054000D01*
X143444000Y-134275000D02*
X143444000Y-143395000D01*
X133324000Y-134275000D02*
X133324000Y-143395000D01*
X133324000Y-143395000D02*
X143444000Y-143395000D01*
X133324000Y-134275000D02*
X143444000Y-134275000D01*
X133324000Y-141835000D02*
X143444000Y-141835000D01*
X133324000Y-142935000D02*
X143444000Y-142935000D01*
X143064000Y-138335000D02*
G75*
G03X143064000Y-138335000I-2180000J0D01*
G01*
X138064000Y-138335000D02*
G75*
G03X138064000Y-138335000I-2180000J0D01*
G01*
G04 #@! TO.C,J13*
X193862000Y-64703000D02*
X192532000Y-64703000D01*
X193862000Y-63373000D02*
X193862000Y-64703000D01*
X193862000Y-62103000D02*
X191202000Y-62103000D01*
X191202000Y-62103000D02*
X191202000Y-59503000D01*
X193862000Y-62103000D02*
X193862000Y-59503000D01*
X193862000Y-59503000D02*
X191202000Y-59503000D01*
G04 #@! TO.C,C7*
X125342500Y-78412500D02*
X125967500Y-78412500D01*
X125655000Y-78725000D02*
X125655000Y-78100000D01*
X129035563Y-77860000D02*
X130100000Y-76795563D01*
X125644437Y-77860000D02*
X124580000Y-76795563D01*
X125644437Y-77860000D02*
X126280000Y-77860000D01*
X129035563Y-77860000D02*
X128400000Y-77860000D01*
X130100000Y-76795563D02*
X130100000Y-72340000D01*
X124580000Y-76795563D02*
X124580000Y-72340000D01*
X124580000Y-72340000D02*
X126280000Y-72340000D01*
X130100000Y-72340000D02*
X128400000Y-72340000D01*
G04 #@! TO.C,C4*
X228586000Y-78988000D02*
X228586000Y-74603000D01*
X225566000Y-78988000D02*
X228586000Y-78988000D01*
X225566000Y-74603000D02*
X225566000Y-78988000D01*
D12*
G04 #@! TO.C,RV1*
X97600000Y-117406000D02*
X91500000Y-117406000D01*
X97600000Y-132906000D02*
X91500000Y-132906000D01*
X97600000Y-117406000D02*
X97600000Y-132906000D01*
X91500000Y-117406000D02*
X91500000Y-132906000D01*
D14*
G04 #@! TO.C,U3*
X145825000Y-78625000D02*
X144725000Y-78625000D01*
X145825000Y-78895000D02*
X145825000Y-78625000D01*
X147325000Y-78895000D02*
X145825000Y-78895000D01*
X145825000Y-72265000D02*
X142995000Y-72265000D01*
X145825000Y-71995000D02*
X145825000Y-72265000D01*
X147325000Y-71995000D02*
X145825000Y-71995000D01*
D12*
G04 #@! TO.C,U2*
X201312979Y-120584195D02*
X201312979Y-121984195D01*
X206412979Y-120584195D02*
X206412979Y-116434195D01*
X201262979Y-120584195D02*
X201262979Y-116434195D01*
X206412979Y-120584195D02*
X206267979Y-120584195D01*
X206412979Y-116434195D02*
X206267979Y-116434195D01*
X201262979Y-116434195D02*
X201407979Y-116434195D01*
X201262979Y-120584195D02*
X201312979Y-120584195D01*
G04 #@! TO.C,U4*
X182659500Y-70243500D02*
X182659500Y-68868500D01*
X172534500Y-70243500D02*
X172534500Y-74393500D01*
X182684500Y-70243500D02*
X182684500Y-74393500D01*
X172534500Y-70243500D02*
X172639500Y-70243500D01*
X172534500Y-74393500D02*
X172639500Y-74393500D01*
X182684500Y-74393500D02*
X182579500Y-74393500D01*
X182684500Y-70243500D02*
X182659500Y-70243500D01*
D14*
G04 #@! TO.C,C3*
X222706000Y-59434252D02*
X222706000Y-58911748D01*
X221286000Y-59434252D02*
X221286000Y-58911748D01*
G04 #@! TO.C,C5*
X106118750Y-79298750D02*
X106906250Y-79298750D01*
X106512500Y-79692500D02*
X106512500Y-78905000D01*
X110705563Y-78665000D02*
X111770000Y-77600563D01*
X106014437Y-78665000D02*
X104950000Y-77600563D01*
X106014437Y-78665000D02*
X107300000Y-78665000D01*
X110705563Y-78665000D02*
X109420000Y-78665000D01*
X111770000Y-77600563D02*
X111770000Y-71845000D01*
X104950000Y-77600563D02*
X104950000Y-71845000D01*
X104950000Y-71845000D02*
X107300000Y-71845000D01*
X111770000Y-71845000D02*
X109420000Y-71845000D01*
G04 #@! TO.C,C6*
X136088750Y-79648750D02*
X136876250Y-79648750D01*
X136482500Y-80042500D02*
X136482500Y-79255000D01*
X140675563Y-79015000D02*
X141740000Y-77950563D01*
X135984437Y-79015000D02*
X134920000Y-77950563D01*
X135984437Y-79015000D02*
X137270000Y-79015000D01*
X140675563Y-79015000D02*
X139390000Y-79015000D01*
X141740000Y-77950563D02*
X141740000Y-72195000D01*
X134920000Y-77950563D02*
X134920000Y-72195000D01*
X134920000Y-72195000D02*
X137270000Y-72195000D01*
X141740000Y-72195000D02*
X139390000Y-72195000D01*
G04 #@! TO.C,C8*
X155382500Y-79097500D02*
X156007500Y-79097500D01*
X155695000Y-79410000D02*
X155695000Y-78785000D01*
X159075563Y-78545000D02*
X160140000Y-77480563D01*
X155684437Y-78545000D02*
X154620000Y-77480563D01*
X155684437Y-78545000D02*
X156320000Y-78545000D01*
X159075563Y-78545000D02*
X158440000Y-78545000D01*
X160140000Y-77480563D02*
X160140000Y-73025000D01*
X154620000Y-77480563D02*
X154620000Y-73025000D01*
X154620000Y-73025000D02*
X156320000Y-73025000D01*
X160140000Y-73025000D02*
X158440000Y-73025000D01*
G04 #@! TO.C,U5*
X115870000Y-78660000D02*
X114770000Y-78660000D01*
X115870000Y-78930000D02*
X115870000Y-78660000D01*
X117370000Y-78930000D02*
X115870000Y-78930000D01*
X115870000Y-72300000D02*
X113040000Y-72300000D01*
X115870000Y-72030000D02*
X115870000Y-72300000D01*
X117370000Y-72030000D02*
X115870000Y-72030000D01*
D12*
G04 #@! TO.C,TP1*
X134290000Y-77985000D02*
G75*
G03X134290000Y-77985000I-1750000J0D01*
G01*
G04 #@! TO.C,TP2*
X164452000Y-77985000D02*
G75*
G03X164452000Y-77985000I-1750000J0D01*
G01*
G04 #@! TO.C,TP3*
X164452000Y-73585000D02*
G75*
G03X164452000Y-73585000I-1750000J0D01*
G01*
G04 #@! TO.C,TP4*
X104350000Y-77985000D02*
G75*
G03X104350000Y-77985000I-1750000J0D01*
G01*
D14*
G04 #@! TO.C,J10*
X225726000Y-56874000D02*
X227056000Y-56874000D01*
X225726000Y-58204000D02*
X225726000Y-56874000D01*
X225726000Y-59474000D02*
X228386000Y-59474000D01*
X228386000Y-59474000D02*
X228386000Y-72234000D01*
X225726000Y-59474000D02*
X225726000Y-72234000D01*
X225726000Y-72234000D02*
X228386000Y-72234000D01*
G04 #@! TO.C,F1*
X218480000Y-121615000D02*
X218480000Y-124815000D01*
X214480000Y-124815000D02*
X214480000Y-121615000D01*
X216480000Y-122465000D02*
X216480000Y-123965000D01*
X219950000Y-131315000D02*
X219950000Y-115115000D01*
X213010000Y-131315000D02*
X219950000Y-131315000D01*
X213010000Y-115115000D02*
X213010000Y-131315000D01*
X219950000Y-115115000D02*
X213010000Y-115115000D01*
G04 #@! TO.C,C1*
X203610267Y-106710000D02*
X203267733Y-106710000D01*
X203610267Y-107730000D02*
X203267733Y-107730000D01*
G04 #@! TO.C,C2*
X203267733Y-112810000D02*
X203610267Y-112810000D01*
X203267733Y-111790000D02*
X203610267Y-111790000D01*
G04 #@! TO.C,V1*
X88844000Y-126000000D02*
X88844000Y-128000000D01*
X88584000Y-93130000D02*
X64324000Y-93130000D01*
X64324000Y-130390000D02*
X64324000Y-93130000D01*
X88584000Y-130390000D02*
X64324000Y-130390000D01*
X88584000Y-93130000D02*
X88594000Y-130390000D01*
G04 #@! TO.C,R5*
X224919000Y-77401267D02*
X224919000Y-77058733D01*
X223899000Y-77401267D02*
X223899000Y-77058733D01*
G04 #@! TO.C,R1*
X203267733Y-110270000D02*
X203610267Y-110270000D01*
X203267733Y-109250000D02*
X203610267Y-109250000D01*
G04 #@! TO.C,K2*
X128670000Y-132550000D02*
X128670000Y-130050000D01*
X128250000Y-104320000D02*
X128250000Y-133580000D01*
X115190000Y-104320000D02*
X128250000Y-104320000D01*
X115190000Y-133580000D02*
X115190000Y-104320000D01*
X128250000Y-133580000D02*
X115190000Y-133580000D01*
G04 #@! TO.C,K3*
X145180000Y-132550000D02*
X145180000Y-130050000D01*
X144760000Y-104320000D02*
X144760000Y-133580000D01*
X131700000Y-104320000D02*
X144760000Y-104320000D01*
X131700000Y-133580000D02*
X131700000Y-104320000D01*
X144760000Y-133580000D02*
X131700000Y-133580000D01*
G04 #@! TO.C,K4*
X161690000Y-132550000D02*
X161690000Y-130050000D01*
X161270000Y-104320000D02*
X161270000Y-133580000D01*
X148210000Y-104320000D02*
X161270000Y-104320000D01*
X148210000Y-133580000D02*
X148210000Y-104320000D01*
X161270000Y-133580000D02*
X148210000Y-133580000D01*
G04 #@! TO.C,K5*
X178454000Y-132550000D02*
X178454000Y-130050000D01*
X178034000Y-104320000D02*
X178034000Y-133580000D01*
X164974000Y-104320000D02*
X178034000Y-104320000D01*
X164974000Y-133580000D02*
X164974000Y-104320000D01*
X178034000Y-133580000D02*
X164974000Y-133580000D01*
G04 #@! TO.C,R10*
X96490000Y-71403733D02*
X96490000Y-71746267D01*
X97510000Y-71403733D02*
X97510000Y-71746267D01*
G04 #@! TO.C,R11*
X90190000Y-71303733D02*
X90190000Y-71646267D01*
X91210000Y-71303733D02*
X91210000Y-71646267D01*
G04 #@! TO.C,LS1*
X84699999Y-82000000D02*
G75*
G02X81700000Y-82000000I-1499999J6400000D01*
G01*
X89430000Y-75600000D02*
G75*
G03X89430000Y-75600000I-6230000J0D01*
G01*
G04 #@! TO.C,R12*
X181470000Y-48393733D02*
X181470000Y-48736267D01*
X182490000Y-48393733D02*
X182490000Y-48736267D01*
G04 #@! TO.C,R13*
X182490000Y-52828267D02*
X182490000Y-52485733D01*
X181470000Y-52828267D02*
X181470000Y-52485733D01*
G04 #@! TO.C,Y1*
X186557000Y-44631000D02*
X186557000Y-44831000D01*
X187157000Y-43731000D02*
X186557000Y-44631000D01*
X188457000Y-44631000D02*
X188457000Y-44831000D01*
X187857000Y-43731000D02*
X188457000Y-44631000D01*
X186277000Y-43731000D02*
X188737000Y-43731000D01*
X186277000Y-36831000D02*
X186277000Y-43731000D01*
X188737000Y-36831000D02*
X186277000Y-36831000D01*
X188737000Y-43731000D02*
X188737000Y-36831000D01*
G04 #@! TO.C,BT1*
X210194400Y-47734800D02*
X217074400Y-54114800D01*
X210194400Y-46164800D02*
X210194400Y-47734800D01*
X231554400Y-47734800D02*
X224674400Y-54114800D01*
X231554400Y-46164800D02*
X231554400Y-47734800D01*
X231554400Y-46164800D02*
X236484410Y-46164800D01*
X236484400Y-46164800D02*
X236484400Y-40814800D01*
X236484440Y-40804800D02*
X231554400Y-40804800D01*
X231554400Y-40804800D02*
X231554400Y-37184800D01*
X226190852Y-34992047D02*
G75*
G02X231554400Y-37184800I2233548J-2192753D01*
G01*
X226180822Y-35017408D02*
G75*
G02X215704401Y-35154799I-5306422J5132608D01*
G01*
X210197342Y-37184800D02*
G75*
G02X215694399Y-35144801I3127058J0D01*
G01*
X210194400Y-40804800D02*
X210194400Y-37204800D01*
X205254400Y-40804800D02*
X210194400Y-40804800D01*
X205254400Y-46164800D02*
X205254400Y-40804800D01*
X205254400Y-46164800D02*
X210194400Y-46164800D01*
X224674400Y-54114800D02*
X217074400Y-54114800D01*
G04 #@! TO.C,Q2*
X92320000Y-72560000D02*
X92320000Y-71100000D01*
X95480000Y-72560000D02*
X95480000Y-70400000D01*
X95480000Y-72560000D02*
X94550000Y-72560000D01*
X92320000Y-72560000D02*
X93250000Y-72560000D01*
D12*
G04 #@! TO.C,U7*
X188809000Y-48533600D02*
X188809000Y-47133600D01*
X183709000Y-48533600D02*
X183709000Y-52683600D01*
X188859000Y-48533600D02*
X188859000Y-52683600D01*
X183709000Y-48533600D02*
X183854000Y-48533600D01*
X183709000Y-52683600D02*
X183854000Y-52683600D01*
X188859000Y-52683600D02*
X188714000Y-52683600D01*
X188859000Y-48533600D02*
X188809000Y-48533600D01*
G04 #@! TO.C,TP5*
X104350000Y-73585000D02*
G75*
G03X104350000Y-73585000I-1750000J0D01*
G01*
G04 #@! TO.C,TP6*
X134290000Y-73585000D02*
G75*
G03X134290000Y-73585000I-1750000J0D01*
G01*
D14*
G04 #@! TO.C,R4*
X200337267Y-43178000D02*
X199994733Y-43178000D01*
X200337267Y-44198000D02*
X199994733Y-44198000D01*
G04 #@! TO.C,R6*
X224538000Y-61752267D02*
X224538000Y-61409733D01*
X223518000Y-61752267D02*
X223518000Y-61409733D01*
G04 #@! TO.C,U1*
X199561198Y-80777200D02*
X217821202Y-80777200D01*
X217821200Y-62136608D02*
X217821200Y-61137200D01*
X199561200Y-86897200D02*
X199561200Y-80037186D01*
X215037157Y-61137200D02*
X217821200Y-61137200D01*
X199561200Y-86897200D02*
X217821200Y-86897200D01*
X218091200Y-78677200D02*
X219091200Y-78677200D01*
X219091200Y-78677200D02*
X219091200Y-79877200D01*
X219091200Y-79877200D02*
X218091200Y-79877200D01*
X217821200Y-86897200D02*
X217821200Y-80033004D01*
X199561200Y-62130298D02*
X199561200Y-61137200D01*
X199561200Y-61137200D02*
X202345243Y-61137200D01*
G04 #@! TO.C,C10*
X168404000Y-56075733D02*
X168404000Y-56418267D01*
X167384000Y-56075733D02*
X167384000Y-56418267D01*
G04 #@! TO.C,R2*
X77881267Y-63502000D02*
X77538733Y-63502000D01*
X77881267Y-62482000D02*
X77538733Y-62482000D01*
G04 #@! TO.C,J7*
D12*
X192428880Y-82057833D02*
X193143166Y-82057833D01*
X193286023Y-82105452D01*
X193381261Y-82200690D01*
X193428880Y-82343547D01*
X193428880Y-82438785D01*
X192428880Y-81676880D02*
X192428880Y-81010214D01*
X193428880Y-81438785D01*
G04 #@! TO.C,U8*
X164465095Y-54347380D02*
X164465095Y-55156904D01*
X164512714Y-55252142D01*
X164560333Y-55299761D01*
X164655571Y-55347380D01*
X164846047Y-55347380D01*
X164941285Y-55299761D01*
X164988904Y-55252142D01*
X165036523Y-55156904D01*
X165036523Y-54347380D01*
X165655571Y-54775952D02*
X165560333Y-54728333D01*
X165512714Y-54680714D01*
X165465095Y-54585476D01*
X165465095Y-54537857D01*
X165512714Y-54442619D01*
X165560333Y-54395000D01*
X165655571Y-54347380D01*
X165846047Y-54347380D01*
X165941285Y-54395000D01*
X165988904Y-54442619D01*
X166036523Y-54537857D01*
X166036523Y-54585476D01*
X165988904Y-54680714D01*
X165941285Y-54728333D01*
X165846047Y-54775952D01*
X165655571Y-54775952D01*
X165560333Y-54823571D01*
X165512714Y-54871190D01*
X165465095Y-54966428D01*
X165465095Y-55156904D01*
X165512714Y-55252142D01*
X165560333Y-55299761D01*
X165655571Y-55347380D01*
X165846047Y-55347380D01*
X165941285Y-55299761D01*
X165988904Y-55252142D01*
X166036523Y-55156904D01*
X166036523Y-54966428D01*
X165988904Y-54871190D01*
X165941285Y-54823571D01*
X165846047Y-54775952D01*
G04 #@! TO.C,H10*
X231761904Y-78303380D02*
X231761904Y-77303380D01*
X231761904Y-77779571D02*
X232333333Y-77779571D01*
X232333333Y-78303380D02*
X232333333Y-77303380D01*
X233333333Y-78303380D02*
X232761904Y-78303380D01*
X233047619Y-78303380D02*
X233047619Y-77303380D01*
X232952380Y-77446238D01*
X232857142Y-77541476D01*
X232761904Y-77589095D01*
X233952380Y-77303380D02*
X234047619Y-77303380D01*
X234142857Y-77351000D01*
X234190476Y-77398619D01*
X234238095Y-77493857D01*
X234285714Y-77684333D01*
X234285714Y-77922428D01*
X234238095Y-78112904D01*
X234190476Y-78208142D01*
X234142857Y-78255761D01*
X234047619Y-78303380D01*
X233952380Y-78303380D01*
X233857142Y-78255761D01*
X233809523Y-78208142D01*
X233761904Y-78112904D01*
X233714285Y-77922428D01*
X233714285Y-77684333D01*
X233761904Y-77493857D01*
X233809523Y-77398619D01*
X233857142Y-77351000D01*
X233952380Y-77303380D01*
G04 #@! TO.C,H9*
X232238095Y-52649380D02*
X232238095Y-51649380D01*
X232238095Y-52125571D02*
X232809523Y-52125571D01*
X232809523Y-52649380D02*
X232809523Y-51649380D01*
X233333333Y-52649380D02*
X233523809Y-52649380D01*
X233619047Y-52601761D01*
X233666666Y-52554142D01*
X233761904Y-52411285D01*
X233809523Y-52220809D01*
X233809523Y-51839857D01*
X233761904Y-51744619D01*
X233714285Y-51697000D01*
X233619047Y-51649380D01*
X233428571Y-51649380D01*
X233333333Y-51697000D01*
X233285714Y-51744619D01*
X233238095Y-51839857D01*
X233238095Y-52077952D01*
X233285714Y-52173190D01*
X233333333Y-52220809D01*
X233428571Y-52268428D01*
X233619047Y-52268428D01*
X233714285Y-52220809D01*
X233761904Y-52173190D01*
X233809523Y-52077952D01*
G04 #@! TO.C,H8*
X56238095Y-71252380D02*
X56238095Y-70252380D01*
X56238095Y-70728571D02*
X56809523Y-70728571D01*
X56809523Y-71252380D02*
X56809523Y-70252380D01*
X57428571Y-70680952D02*
X57333333Y-70633333D01*
X57285714Y-70585714D01*
X57238095Y-70490476D01*
X57238095Y-70442857D01*
X57285714Y-70347619D01*
X57333333Y-70300000D01*
X57428571Y-70252380D01*
X57619047Y-70252380D01*
X57714285Y-70300000D01*
X57761904Y-70347619D01*
X57809523Y-70442857D01*
X57809523Y-70490476D01*
X57761904Y-70585714D01*
X57714285Y-70633333D01*
X57619047Y-70680952D01*
X57428571Y-70680952D01*
X57333333Y-70728571D01*
X57285714Y-70776190D01*
X57238095Y-70871428D01*
X57238095Y-71061904D01*
X57285714Y-71157142D01*
X57333333Y-71204761D01*
X57428571Y-71252380D01*
X57619047Y-71252380D01*
X57714285Y-71204761D01*
X57761904Y-71157142D01*
X57809523Y-71061904D01*
X57809523Y-70871428D01*
X57761904Y-70776190D01*
X57714285Y-70728571D01*
X57619047Y-70680952D01*
G04 #@! TO.C,H7*
X56238095Y-60452380D02*
X56238095Y-59452380D01*
X56238095Y-59928571D02*
X56809523Y-59928571D01*
X56809523Y-60452380D02*
X56809523Y-59452380D01*
X57190476Y-59452380D02*
X57857142Y-59452380D01*
X57428571Y-60452380D01*
G04 #@! TO.C,U6*
X81902380Y-55761904D02*
X82711904Y-55761904D01*
X82807142Y-55714285D01*
X82854761Y-55666666D01*
X82902380Y-55571428D01*
X82902380Y-55380952D01*
X82854761Y-55285714D01*
X82807142Y-55238095D01*
X82711904Y-55190476D01*
X81902380Y-55190476D01*
X81902380Y-54285714D02*
X81902380Y-54476190D01*
X81950000Y-54571428D01*
X81997619Y-54619047D01*
X82140476Y-54714285D01*
X82330952Y-54761904D01*
X82711904Y-54761904D01*
X82807142Y-54714285D01*
X82854761Y-54666666D01*
X82902380Y-54571428D01*
X82902380Y-54380952D01*
X82854761Y-54285714D01*
X82807142Y-54238095D01*
X82711904Y-54190476D01*
X82473809Y-54190476D01*
X82378571Y-54238095D01*
X82330952Y-54285714D01*
X82283333Y-54380952D01*
X82283333Y-54571428D01*
X82330952Y-54666666D01*
X82378571Y-54714285D01*
X82473809Y-54761904D01*
G04 #@! TO.C,J14*
X205584380Y-37574523D02*
X206298666Y-37574523D01*
X206441523Y-37622142D01*
X206536761Y-37717380D01*
X206584380Y-37860238D01*
X206584380Y-37955476D01*
X206584380Y-36574523D02*
X206584380Y-37145952D01*
X206584380Y-36860238D02*
X205584380Y-36860238D01*
X205727238Y-36955476D01*
X205822476Y-37050714D01*
X205870095Y-37145952D01*
X205917714Y-35717380D02*
X206584380Y-35717380D01*
X205536761Y-35955476D02*
X206251047Y-36193571D01*
X206251047Y-35574523D01*
G04 #@! TO.C,K1*
X95071904Y-128102380D02*
X95071904Y-127102380D01*
X95643333Y-128102380D02*
X95214761Y-127530952D01*
X95643333Y-127102380D02*
X95071904Y-127673809D01*
X96595714Y-128102380D02*
X96024285Y-128102380D01*
X96310000Y-128102380D02*
X96310000Y-127102380D01*
X96214761Y-127245238D01*
X96119523Y-127340476D01*
X96024285Y-127388095D01*
G04 #@! TO.C,K6*
X178136904Y-128102380D02*
X178136904Y-127102380D01*
X178708333Y-128102380D02*
X178279761Y-127530952D01*
X178708333Y-127102380D02*
X178136904Y-127673809D01*
X179565476Y-127102380D02*
X179375000Y-127102380D01*
X179279761Y-127150000D01*
X179232142Y-127197619D01*
X179136904Y-127340476D01*
X179089285Y-127530952D01*
X179089285Y-127911904D01*
X179136904Y-128007142D01*
X179184523Y-128054761D01*
X179279761Y-128102380D01*
X179470238Y-128102380D01*
X179565476Y-128054761D01*
X179613095Y-128007142D01*
X179660714Y-127911904D01*
X179660714Y-127673809D01*
X179613095Y-127578571D01*
X179565476Y-127530952D01*
X179470238Y-127483333D01*
X179279761Y-127483333D01*
X179184523Y-127530952D01*
X179136904Y-127578571D01*
X179089285Y-127673809D01*
G04 #@! TO.C,J8*
X209591666Y-137787380D02*
X209591666Y-138501666D01*
X209544047Y-138644523D01*
X209448809Y-138739761D01*
X209305952Y-138787380D01*
X209210714Y-138787380D01*
X210210714Y-138215952D02*
X210115476Y-138168333D01*
X210067857Y-138120714D01*
X210020238Y-138025476D01*
X210020238Y-137977857D01*
X210067857Y-137882619D01*
X210115476Y-137835000D01*
X210210714Y-137787380D01*
X210401190Y-137787380D01*
X210496428Y-137835000D01*
X210544047Y-137882619D01*
X210591666Y-137977857D01*
X210591666Y-138025476D01*
X210544047Y-138120714D01*
X210496428Y-138168333D01*
X210401190Y-138215952D01*
X210210714Y-138215952D01*
X210115476Y-138263571D01*
X210067857Y-138311190D01*
X210020238Y-138406428D01*
X210020238Y-138596904D01*
X210067857Y-138692142D01*
X210115476Y-138739761D01*
X210210714Y-138787380D01*
X210401190Y-138787380D01*
X210496428Y-138739761D01*
X210544047Y-138692142D01*
X210591666Y-138596904D01*
X210591666Y-138406428D01*
X210544047Y-138311190D01*
X210496428Y-138263571D01*
X210401190Y-138215952D01*
G04 #@! TO.C,J6*
X181651666Y-137787380D02*
X181651666Y-138501666D01*
X181604047Y-138644523D01*
X181508809Y-138739761D01*
X181365952Y-138787380D01*
X181270714Y-138787380D01*
X182556428Y-137787380D02*
X182365952Y-137787380D01*
X182270714Y-137835000D01*
X182223095Y-137882619D01*
X182127857Y-138025476D01*
X182080238Y-138215952D01*
X182080238Y-138596904D01*
X182127857Y-138692142D01*
X182175476Y-138739761D01*
X182270714Y-138787380D01*
X182461190Y-138787380D01*
X182556428Y-138739761D01*
X182604047Y-138692142D01*
X182651666Y-138596904D01*
X182651666Y-138358809D01*
X182604047Y-138263571D01*
X182556428Y-138215952D01*
X182461190Y-138168333D01*
X182270714Y-138168333D01*
X182175476Y-138215952D01*
X182127857Y-138263571D01*
X182080238Y-138358809D01*
G04 #@! TO.C,J2*
X114976666Y-137787380D02*
X114976666Y-138501666D01*
X114929047Y-138644523D01*
X114833809Y-138739761D01*
X114690952Y-138787380D01*
X114595714Y-138787380D01*
X115405238Y-137882619D02*
X115452857Y-137835000D01*
X115548095Y-137787380D01*
X115786190Y-137787380D01*
X115881428Y-137835000D01*
X115929047Y-137882619D01*
X115976666Y-137977857D01*
X115976666Y-138073095D01*
X115929047Y-138215952D01*
X115357619Y-138787380D01*
X115976666Y-138787380D01*
G04 #@! TO.C,J1*
X98466666Y-137787380D02*
X98466666Y-138501666D01*
X98419047Y-138644523D01*
X98323809Y-138739761D01*
X98180952Y-138787380D01*
X98085714Y-138787380D01*
X99466666Y-138787380D02*
X98895238Y-138787380D01*
X99180952Y-138787380D02*
X99180952Y-137787380D01*
X99085714Y-137930238D01*
X98990476Y-138025476D01*
X98895238Y-138073095D01*
G04 #@! TO.C,J5*
X165141666Y-137787380D02*
X165141666Y-138501666D01*
X165094047Y-138644523D01*
X164998809Y-138739761D01*
X164855952Y-138787380D01*
X164760714Y-138787380D01*
X166094047Y-137787380D02*
X165617857Y-137787380D01*
X165570238Y-138263571D01*
X165617857Y-138215952D01*
X165713095Y-138168333D01*
X165951190Y-138168333D01*
X166046428Y-138215952D01*
X166094047Y-138263571D01*
X166141666Y-138358809D01*
X166141666Y-138596904D01*
X166094047Y-138692142D01*
X166046428Y-138739761D01*
X165951190Y-138787380D01*
X165713095Y-138787380D01*
X165617857Y-138739761D01*
X165570238Y-138692142D01*
G04 #@! TO.C,J4*
X147996666Y-137787380D02*
X147996666Y-138501666D01*
X147949047Y-138644523D01*
X147853809Y-138739761D01*
X147710952Y-138787380D01*
X147615714Y-138787380D01*
X148901428Y-138120714D02*
X148901428Y-138787380D01*
X148663333Y-137739761D02*
X148425238Y-138454047D01*
X149044285Y-138454047D01*
G04 #@! TO.C,J3*
X131486666Y-137787380D02*
X131486666Y-138501666D01*
X131439047Y-138644523D01*
X131343809Y-138739761D01*
X131200952Y-138787380D01*
X131105714Y-138787380D01*
X131867619Y-137787380D02*
X132486666Y-137787380D01*
X132153333Y-138168333D01*
X132296190Y-138168333D01*
X132391428Y-138215952D01*
X132439047Y-138263571D01*
X132486666Y-138358809D01*
X132486666Y-138596904D01*
X132439047Y-138692142D01*
X132391428Y-138739761D01*
X132296190Y-138787380D01*
X132010476Y-138787380D01*
X131915238Y-138739761D01*
X131867619Y-138692142D01*
G04 #@! TO.C,J13*
X194524380Y-63166523D02*
X195238666Y-63166523D01*
X195381523Y-63214142D01*
X195476761Y-63309380D01*
X195524380Y-63452238D01*
X195524380Y-63547476D01*
X195524380Y-62166523D02*
X195524380Y-62737952D01*
X195524380Y-62452238D02*
X194524380Y-62452238D01*
X194667238Y-62547476D01*
X194762476Y-62642714D01*
X194810095Y-62737952D01*
X194524380Y-61833190D02*
X194524380Y-61214142D01*
X194905333Y-61547476D01*
X194905333Y-61404619D01*
X194952952Y-61309380D01*
X195000571Y-61261761D01*
X195095809Y-61214142D01*
X195333904Y-61214142D01*
X195429142Y-61261761D01*
X195476761Y-61309380D01*
X195524380Y-61404619D01*
X195524380Y-61690333D01*
X195476761Y-61785571D01*
X195429142Y-61833190D01*
G04 #@! TO.C,C7*
X127173333Y-70672142D02*
X127125714Y-70719761D01*
X126982857Y-70767380D01*
X126887619Y-70767380D01*
X126744761Y-70719761D01*
X126649523Y-70624523D01*
X126601904Y-70529285D01*
X126554285Y-70338809D01*
X126554285Y-70195952D01*
X126601904Y-70005476D01*
X126649523Y-69910238D01*
X126744761Y-69815000D01*
X126887619Y-69767380D01*
X126982857Y-69767380D01*
X127125714Y-69815000D01*
X127173333Y-69862619D01*
X127506666Y-69767380D02*
X128173333Y-69767380D01*
X127744761Y-70767380D01*
G04 #@! TO.C,C4*
X226909333Y-80165142D02*
X226861714Y-80212761D01*
X226718857Y-80260380D01*
X226623619Y-80260380D01*
X226480761Y-80212761D01*
X226385523Y-80117523D01*
X226337904Y-80022285D01*
X226290285Y-79831809D01*
X226290285Y-79688952D01*
X226337904Y-79498476D01*
X226385523Y-79403238D01*
X226480761Y-79308000D01*
X226623619Y-79260380D01*
X226718857Y-79260380D01*
X226861714Y-79308000D01*
X226909333Y-79355619D01*
X227766476Y-79593714D02*
X227766476Y-80260380D01*
X227528380Y-79212761D02*
X227290285Y-79927047D01*
X227909333Y-79927047D01*
G04 #@! TO.C,RV1*
X94007761Y-116651380D02*
X93674428Y-116175190D01*
X93436333Y-116651380D02*
X93436333Y-115651380D01*
X93817285Y-115651380D01*
X93912523Y-115699000D01*
X93960142Y-115746619D01*
X94007761Y-115841857D01*
X94007761Y-115984714D01*
X93960142Y-116079952D01*
X93912523Y-116127571D01*
X93817285Y-116175190D01*
X93436333Y-116175190D01*
X94293476Y-115651380D02*
X94626809Y-116651380D01*
X94960142Y-115651380D01*
X95817285Y-116651380D02*
X95245857Y-116651380D01*
X95531571Y-116651380D02*
X95531571Y-115651380D01*
X95436333Y-115794238D01*
X95341095Y-115889476D01*
X95245857Y-115937095D01*
G04 #@! TO.C,U3*
X149048095Y-79342380D02*
X149048095Y-80151904D01*
X149095714Y-80247142D01*
X149143333Y-80294761D01*
X149238571Y-80342380D01*
X149429047Y-80342380D01*
X149524285Y-80294761D01*
X149571904Y-80247142D01*
X149619523Y-80151904D01*
X149619523Y-79342380D01*
X150000476Y-79342380D02*
X150619523Y-79342380D01*
X150286190Y-79723333D01*
X150429047Y-79723333D01*
X150524285Y-79770952D01*
X150571904Y-79818571D01*
X150619523Y-79913809D01*
X150619523Y-80151904D01*
X150571904Y-80247142D01*
X150524285Y-80294761D01*
X150429047Y-80342380D01*
X150143333Y-80342380D01*
X150048095Y-80294761D01*
X150000476Y-80247142D01*
G04 #@! TO.C,U2*
X203448095Y-122547380D02*
X203448095Y-123356904D01*
X203495714Y-123452142D01*
X203543333Y-123499761D01*
X203638571Y-123547380D01*
X203829047Y-123547380D01*
X203924285Y-123499761D01*
X203971904Y-123452142D01*
X204019523Y-123356904D01*
X204019523Y-122547380D01*
X204448095Y-122642619D02*
X204495714Y-122595000D01*
X204590952Y-122547380D01*
X204829047Y-122547380D01*
X204924285Y-122595000D01*
X204971904Y-122642619D01*
X205019523Y-122737857D01*
X205019523Y-122833095D01*
X204971904Y-122975952D01*
X204400476Y-123547380D01*
X205019523Y-123547380D01*
G04 #@! TO.C,U4*
X183183280Y-73080404D02*
X183992804Y-73080404D01*
X184088042Y-73032785D01*
X184135661Y-72985166D01*
X184183280Y-72889928D01*
X184183280Y-72699452D01*
X184135661Y-72604214D01*
X184088042Y-72556595D01*
X183992804Y-72508976D01*
X183183280Y-72508976D01*
X183516614Y-71604214D02*
X184183280Y-71604214D01*
X183135661Y-71842309D02*
X183849947Y-72080404D01*
X183849947Y-71461357D01*
G04 #@! TO.C,C3*
X221829333Y-62333142D02*
X221781714Y-62380761D01*
X221638857Y-62428380D01*
X221543619Y-62428380D01*
X221400761Y-62380761D01*
X221305523Y-62285523D01*
X221257904Y-62190285D01*
X221210285Y-61999809D01*
X221210285Y-61856952D01*
X221257904Y-61666476D01*
X221305523Y-61571238D01*
X221400761Y-61476000D01*
X221543619Y-61428380D01*
X221638857Y-61428380D01*
X221781714Y-61476000D01*
X221829333Y-61523619D01*
X222162666Y-61428380D02*
X222781714Y-61428380D01*
X222448380Y-61809333D01*
X222591238Y-61809333D01*
X222686476Y-61856952D01*
X222734095Y-61904571D01*
X222781714Y-61999809D01*
X222781714Y-62237904D01*
X222734095Y-62333142D01*
X222686476Y-62380761D01*
X222591238Y-62428380D01*
X222305523Y-62428380D01*
X222210285Y-62380761D01*
X222162666Y-62333142D01*
G04 #@! TO.C,C5*
X108373333Y-81357142D02*
X108325714Y-81404761D01*
X108182857Y-81452380D01*
X108087619Y-81452380D01*
X107944761Y-81404761D01*
X107849523Y-81309523D01*
X107801904Y-81214285D01*
X107754285Y-81023809D01*
X107754285Y-80880952D01*
X107801904Y-80690476D01*
X107849523Y-80595238D01*
X107944761Y-80500000D01*
X108087619Y-80452380D01*
X108182857Y-80452380D01*
X108325714Y-80500000D01*
X108373333Y-80547619D01*
X109278095Y-80452380D02*
X108801904Y-80452380D01*
X108754285Y-80928571D01*
X108801904Y-80880952D01*
X108897142Y-80833333D01*
X109135238Y-80833333D01*
X109230476Y-80880952D01*
X109278095Y-80928571D01*
X109325714Y-81023809D01*
X109325714Y-81261904D01*
X109278095Y-81357142D01*
X109230476Y-81404761D01*
X109135238Y-81452380D01*
X108897142Y-81452380D01*
X108801904Y-81404761D01*
X108754285Y-81357142D01*
G04 #@! TO.C,C6*
X138163333Y-81517142D02*
X138115714Y-81564761D01*
X137972857Y-81612380D01*
X137877619Y-81612380D01*
X137734761Y-81564761D01*
X137639523Y-81469523D01*
X137591904Y-81374285D01*
X137544285Y-81183809D01*
X137544285Y-81040952D01*
X137591904Y-80850476D01*
X137639523Y-80755238D01*
X137734761Y-80660000D01*
X137877619Y-80612380D01*
X137972857Y-80612380D01*
X138115714Y-80660000D01*
X138163333Y-80707619D01*
X139020476Y-80612380D02*
X138830000Y-80612380D01*
X138734761Y-80660000D01*
X138687142Y-80707619D01*
X138591904Y-80850476D01*
X138544285Y-81040952D01*
X138544285Y-81421904D01*
X138591904Y-81517142D01*
X138639523Y-81564761D01*
X138734761Y-81612380D01*
X138925238Y-81612380D01*
X139020476Y-81564761D01*
X139068095Y-81517142D01*
X139115714Y-81421904D01*
X139115714Y-81183809D01*
X139068095Y-81088571D01*
X139020476Y-81040952D01*
X138925238Y-80993333D01*
X138734761Y-80993333D01*
X138639523Y-81040952D01*
X138591904Y-81088571D01*
X138544285Y-81183809D01*
G04 #@! TO.C,C8*
X157213333Y-80882142D02*
X157165714Y-80929761D01*
X157022857Y-80977380D01*
X156927619Y-80977380D01*
X156784761Y-80929761D01*
X156689523Y-80834523D01*
X156641904Y-80739285D01*
X156594285Y-80548809D01*
X156594285Y-80405952D01*
X156641904Y-80215476D01*
X156689523Y-80120238D01*
X156784761Y-80025000D01*
X156927619Y-79977380D01*
X157022857Y-79977380D01*
X157165714Y-80025000D01*
X157213333Y-80072619D01*
X157784761Y-80405952D02*
X157689523Y-80358333D01*
X157641904Y-80310714D01*
X157594285Y-80215476D01*
X157594285Y-80167857D01*
X157641904Y-80072619D01*
X157689523Y-80025000D01*
X157784761Y-79977380D01*
X157975238Y-79977380D01*
X158070476Y-80025000D01*
X158118095Y-80072619D01*
X158165714Y-80167857D01*
X158165714Y-80215476D01*
X158118095Y-80310714D01*
X158070476Y-80358333D01*
X157975238Y-80405952D01*
X157784761Y-80405952D01*
X157689523Y-80453571D01*
X157641904Y-80501190D01*
X157594285Y-80596428D01*
X157594285Y-80786904D01*
X157641904Y-80882142D01*
X157689523Y-80929761D01*
X157784761Y-80977380D01*
X157975238Y-80977380D01*
X158070476Y-80929761D01*
X158118095Y-80882142D01*
X158165714Y-80786904D01*
X158165714Y-80596428D01*
X158118095Y-80501190D01*
X158070476Y-80453571D01*
X157975238Y-80405952D01*
G04 #@! TO.C,U5*
X119273095Y-70742380D02*
X119273095Y-71551904D01*
X119320714Y-71647142D01*
X119368333Y-71694761D01*
X119463571Y-71742380D01*
X119654047Y-71742380D01*
X119749285Y-71694761D01*
X119796904Y-71647142D01*
X119844523Y-71551904D01*
X119844523Y-70742380D01*
X120796904Y-70742380D02*
X120320714Y-70742380D01*
X120273095Y-71218571D01*
X120320714Y-71170952D01*
X120415952Y-71123333D01*
X120654047Y-71123333D01*
X120749285Y-71170952D01*
X120796904Y-71218571D01*
X120844523Y-71313809D01*
X120844523Y-71551904D01*
X120796904Y-71647142D01*
X120749285Y-71694761D01*
X120654047Y-71742380D01*
X120415952Y-71742380D01*
X120320714Y-71694761D01*
X120273095Y-71647142D01*
G04 #@! TO.C,TP1*
X131278095Y-80224380D02*
X131849523Y-80224380D01*
X131563809Y-81224380D02*
X131563809Y-80224380D01*
X132182857Y-81224380D02*
X132182857Y-80224380D01*
X132563809Y-80224380D01*
X132659047Y-80272000D01*
X132706666Y-80319619D01*
X132754285Y-80414857D01*
X132754285Y-80557714D01*
X132706666Y-80652952D01*
X132659047Y-80700571D01*
X132563809Y-80748190D01*
X132182857Y-80748190D01*
X133706666Y-81224380D02*
X133135238Y-81224380D01*
X133420952Y-81224380D02*
X133420952Y-80224380D01*
X133325714Y-80367238D01*
X133230476Y-80462476D01*
X133135238Y-80510095D01*
G04 #@! TO.C,TP2*
X161425095Y-80097380D02*
X161996523Y-80097380D01*
X161710809Y-81097380D02*
X161710809Y-80097380D01*
X162329857Y-81097380D02*
X162329857Y-80097380D01*
X162710809Y-80097380D01*
X162806047Y-80145000D01*
X162853666Y-80192619D01*
X162901285Y-80287857D01*
X162901285Y-80430714D01*
X162853666Y-80525952D01*
X162806047Y-80573571D01*
X162710809Y-80621190D01*
X162329857Y-80621190D01*
X163282238Y-80192619D02*
X163329857Y-80145000D01*
X163425095Y-80097380D01*
X163663190Y-80097380D01*
X163758428Y-80145000D01*
X163806047Y-80192619D01*
X163853666Y-80287857D01*
X163853666Y-80383095D01*
X163806047Y-80525952D01*
X163234619Y-81097380D01*
X163853666Y-81097380D01*
G04 #@! TO.C,TP3*
X161425095Y-70572380D02*
X161996523Y-70572380D01*
X161710809Y-71572380D02*
X161710809Y-70572380D01*
X162329857Y-71572380D02*
X162329857Y-70572380D01*
X162710809Y-70572380D01*
X162806047Y-70620000D01*
X162853666Y-70667619D01*
X162901285Y-70762857D01*
X162901285Y-70905714D01*
X162853666Y-71000952D01*
X162806047Y-71048571D01*
X162710809Y-71096190D01*
X162329857Y-71096190D01*
X163234619Y-70572380D02*
X163853666Y-70572380D01*
X163520333Y-70953333D01*
X163663190Y-70953333D01*
X163758428Y-71000952D01*
X163806047Y-71048571D01*
X163853666Y-71143809D01*
X163853666Y-71381904D01*
X163806047Y-71477142D01*
X163758428Y-71524761D01*
X163663190Y-71572380D01*
X163377476Y-71572380D01*
X163282238Y-71524761D01*
X163234619Y-71477142D01*
G04 #@! TO.C,TP4*
X101338095Y-80078980D02*
X101909523Y-80078980D01*
X101623809Y-81078980D02*
X101623809Y-80078980D01*
X102242857Y-81078980D02*
X102242857Y-80078980D01*
X102623809Y-80078980D01*
X102719047Y-80126600D01*
X102766666Y-80174219D01*
X102814285Y-80269457D01*
X102814285Y-80412314D01*
X102766666Y-80507552D01*
X102719047Y-80555171D01*
X102623809Y-80602790D01*
X102242857Y-80602790D01*
X103671428Y-80412314D02*
X103671428Y-81078980D01*
X103433333Y-80031361D02*
X103195238Y-80745647D01*
X103814285Y-80745647D01*
G04 #@! TO.C,J10*
X226246476Y-55592380D02*
X226246476Y-56306666D01*
X226198857Y-56449523D01*
X226103619Y-56544761D01*
X225960761Y-56592380D01*
X225865523Y-56592380D01*
X227246476Y-56592380D02*
X226675047Y-56592380D01*
X226960761Y-56592380D02*
X226960761Y-55592380D01*
X226865523Y-55735238D01*
X226770285Y-55830476D01*
X226675047Y-55878095D01*
X227865523Y-55592380D02*
X227960761Y-55592380D01*
X228056000Y-55640000D01*
X228103619Y-55687619D01*
X228151238Y-55782857D01*
X228198857Y-55973333D01*
X228198857Y-56211428D01*
X228151238Y-56401904D01*
X228103619Y-56497142D01*
X228056000Y-56544761D01*
X227960761Y-56592380D01*
X227865523Y-56592380D01*
X227770285Y-56544761D01*
X227722666Y-56497142D01*
X227675047Y-56401904D01*
X227627428Y-56211428D01*
X227627428Y-55973333D01*
X227675047Y-55782857D01*
X227722666Y-55687619D01*
X227770285Y-55640000D01*
X227865523Y-55592380D01*
G04 #@! TO.C,F1*
X220778571Y-123548333D02*
X220778571Y-123881666D01*
X221302380Y-123881666D02*
X220302380Y-123881666D01*
X220302380Y-123405476D01*
X221302380Y-122500714D02*
X221302380Y-123072142D01*
X221302380Y-122786428D02*
X220302380Y-122786428D01*
X220445238Y-122881666D01*
X220540476Y-122976904D01*
X220588095Y-123072142D01*
G04 #@! TO.C,C1*
X205948333Y-110117142D02*
X205900714Y-110164761D01*
X205757857Y-110212380D01*
X205662619Y-110212380D01*
X205519761Y-110164761D01*
X205424523Y-110069523D01*
X205376904Y-109974285D01*
X205329285Y-109783809D01*
X205329285Y-109640952D01*
X205376904Y-109450476D01*
X205424523Y-109355238D01*
X205519761Y-109260000D01*
X205662619Y-109212380D01*
X205757857Y-109212380D01*
X205900714Y-109260000D01*
X205948333Y-109307619D01*
X206900714Y-110212380D02*
X206329285Y-110212380D01*
X206615000Y-110212380D02*
X206615000Y-109212380D01*
X206519761Y-109355238D01*
X206424523Y-109450476D01*
X206329285Y-109498095D01*
G04 #@! TO.C,C2*
X205948333Y-112657142D02*
X205900714Y-112704761D01*
X205757857Y-112752380D01*
X205662619Y-112752380D01*
X205519761Y-112704761D01*
X205424523Y-112609523D01*
X205376904Y-112514285D01*
X205329285Y-112323809D01*
X205329285Y-112180952D01*
X205376904Y-111990476D01*
X205424523Y-111895238D01*
X205519761Y-111800000D01*
X205662619Y-111752380D01*
X205757857Y-111752380D01*
X205900714Y-111800000D01*
X205948333Y-111847619D01*
X206329285Y-111847619D02*
X206376904Y-111800000D01*
X206472142Y-111752380D01*
X206710238Y-111752380D01*
X206805476Y-111800000D01*
X206853095Y-111847619D01*
X206900714Y-111942857D01*
X206900714Y-112038095D01*
X206853095Y-112180952D01*
X206281666Y-112752380D01*
X206900714Y-112752380D01*
G04 #@! TO.C,V1*
X84544476Y-130842380D02*
X84877809Y-131842380D01*
X85211142Y-130842380D01*
X86068285Y-131842380D02*
X85496857Y-131842380D01*
X85782571Y-131842380D02*
X85782571Y-130842380D01*
X85687333Y-130985238D01*
X85592095Y-131080476D01*
X85496857Y-131128095D01*
G04 #@! TO.C,R5*
X224237933Y-80139580D02*
X223904600Y-79663390D01*
X223666504Y-80139580D02*
X223666504Y-79139580D01*
X224047457Y-79139580D01*
X224142695Y-79187200D01*
X224190314Y-79234819D01*
X224237933Y-79330057D01*
X224237933Y-79472914D01*
X224190314Y-79568152D01*
X224142695Y-79615771D01*
X224047457Y-79663390D01*
X223666504Y-79663390D01*
X225142695Y-79139580D02*
X224666504Y-79139580D01*
X224618885Y-79615771D01*
X224666504Y-79568152D01*
X224761742Y-79520533D01*
X224999838Y-79520533D01*
X225095076Y-79568152D01*
X225142695Y-79615771D01*
X225190314Y-79711009D01*
X225190314Y-79949104D01*
X225142695Y-80044342D01*
X225095076Y-80091961D01*
X224999838Y-80139580D01*
X224761742Y-80139580D01*
X224666504Y-80091961D01*
X224618885Y-80044342D01*
G04 #@! TO.C,R1*
X205948333Y-107672380D02*
X205615000Y-107196190D01*
X205376904Y-107672380D02*
X205376904Y-106672380D01*
X205757857Y-106672380D01*
X205853095Y-106720000D01*
X205900714Y-106767619D01*
X205948333Y-106862857D01*
X205948333Y-107005714D01*
X205900714Y-107100952D01*
X205853095Y-107148571D01*
X205757857Y-107196190D01*
X205376904Y-107196190D01*
X206900714Y-107672380D02*
X206329285Y-107672380D01*
X206615000Y-107672380D02*
X206615000Y-106672380D01*
X206519761Y-106815238D01*
X206424523Y-106910476D01*
X206329285Y-106958095D01*
G04 #@! TO.C,K2*
X111581904Y-128102380D02*
X111581904Y-127102380D01*
X112153333Y-128102380D02*
X111724761Y-127530952D01*
X112153333Y-127102380D02*
X111581904Y-127673809D01*
X112534285Y-127197619D02*
X112581904Y-127150000D01*
X112677142Y-127102380D01*
X112915238Y-127102380D01*
X113010476Y-127150000D01*
X113058095Y-127197619D01*
X113105714Y-127292857D01*
X113105714Y-127388095D01*
X113058095Y-127530952D01*
X112486666Y-128102380D01*
X113105714Y-128102380D01*
G04 #@! TO.C,K3*
X128091904Y-128102380D02*
X128091904Y-127102380D01*
X128663333Y-128102380D02*
X128234761Y-127530952D01*
X128663333Y-127102380D02*
X128091904Y-127673809D01*
X128996666Y-127102380D02*
X129615714Y-127102380D01*
X129282380Y-127483333D01*
X129425238Y-127483333D01*
X129520476Y-127530952D01*
X129568095Y-127578571D01*
X129615714Y-127673809D01*
X129615714Y-127911904D01*
X129568095Y-128007142D01*
X129520476Y-128054761D01*
X129425238Y-128102380D01*
X129139523Y-128102380D01*
X129044285Y-128054761D01*
X128996666Y-128007142D01*
G04 #@! TO.C,K4*
X144601904Y-128102380D02*
X144601904Y-127102380D01*
X145173333Y-128102380D02*
X144744761Y-127530952D01*
X145173333Y-127102380D02*
X144601904Y-127673809D01*
X146030476Y-127435714D02*
X146030476Y-128102380D01*
X145792380Y-127054761D02*
X145554285Y-127769047D01*
X146173333Y-127769047D01*
G04 #@! TO.C,K5*
X161365904Y-128102380D02*
X161365904Y-127102380D01*
X161937333Y-128102380D02*
X161508761Y-127530952D01*
X161937333Y-127102380D02*
X161365904Y-127673809D01*
X162842095Y-127102380D02*
X162365904Y-127102380D01*
X162318285Y-127578571D01*
X162365904Y-127530952D01*
X162461142Y-127483333D01*
X162699238Y-127483333D01*
X162794476Y-127530952D01*
X162842095Y-127578571D01*
X162889714Y-127673809D01*
X162889714Y-127911904D01*
X162842095Y-128007142D01*
X162794476Y-128054761D01*
X162699238Y-128102380D01*
X162461142Y-128102380D01*
X162365904Y-128054761D01*
X162318285Y-128007142D01*
G04 #@! TO.C,R10*
X96421428Y-74473142D02*
X96121428Y-74044571D01*
X95907142Y-74473142D02*
X95907142Y-73573142D01*
X96250000Y-73573142D01*
X96335714Y-73616000D01*
X96378571Y-73658857D01*
X96421428Y-73744571D01*
X96421428Y-73873142D01*
X96378571Y-73958857D01*
X96335714Y-74001714D01*
X96250000Y-74044571D01*
X95907142Y-74044571D01*
X97278571Y-74473142D02*
X96764285Y-74473142D01*
X97021428Y-74473142D02*
X97021428Y-73573142D01*
X96935714Y-73701714D01*
X96850000Y-73787428D01*
X96764285Y-73830285D01*
X97835714Y-73573142D02*
X97921428Y-73573142D01*
X98007142Y-73616000D01*
X98050000Y-73658857D01*
X98092857Y-73744571D01*
X98135714Y-73916000D01*
X98135714Y-74130285D01*
X98092857Y-74301714D01*
X98050000Y-74387428D01*
X98007142Y-74430285D01*
X97921428Y-74473142D01*
X97835714Y-74473142D01*
X97750000Y-74430285D01*
X97707142Y-74387428D01*
X97664285Y-74301714D01*
X97621428Y-74130285D01*
X97621428Y-73916000D01*
X97664285Y-73744571D01*
X97707142Y-73658857D01*
X97750000Y-73616000D01*
X97835714Y-73573142D01*
G04 #@! TO.C,R11*
X90067428Y-74473142D02*
X89767428Y-74044571D01*
X89553142Y-74473142D02*
X89553142Y-73573142D01*
X89896000Y-73573142D01*
X89981714Y-73616000D01*
X90024571Y-73658857D01*
X90067428Y-73744571D01*
X90067428Y-73873142D01*
X90024571Y-73958857D01*
X89981714Y-74001714D01*
X89896000Y-74044571D01*
X89553142Y-74044571D01*
X90924571Y-74473142D02*
X90410285Y-74473142D01*
X90667428Y-74473142D02*
X90667428Y-73573142D01*
X90581714Y-73701714D01*
X90496000Y-73787428D01*
X90410285Y-73830285D01*
X91781714Y-74473142D02*
X91267428Y-74473142D01*
X91524571Y-74473142D02*
X91524571Y-73573142D01*
X91438857Y-73701714D01*
X91353142Y-73787428D01*
X91267428Y-73830285D01*
G04 #@! TO.C,LS1*
X76287142Y-71470380D02*
X75810952Y-71470380D01*
X75810952Y-70470380D01*
X76572857Y-71422761D02*
X76715714Y-71470380D01*
X76953809Y-71470380D01*
X77049047Y-71422761D01*
X77096666Y-71375142D01*
X77144285Y-71279904D01*
X77144285Y-71184666D01*
X77096666Y-71089428D01*
X77049047Y-71041809D01*
X76953809Y-70994190D01*
X76763333Y-70946571D01*
X76668095Y-70898952D01*
X76620476Y-70851333D01*
X76572857Y-70756095D01*
X76572857Y-70660857D01*
X76620476Y-70565619D01*
X76668095Y-70518000D01*
X76763333Y-70470380D01*
X77001428Y-70470380D01*
X77144285Y-70518000D01*
X78096666Y-71470380D02*
X77525238Y-71470380D01*
X77810952Y-71470380D02*
X77810952Y-70470380D01*
X77715714Y-70613238D01*
X77620476Y-70708476D01*
X77525238Y-70756095D01*
G04 #@! TO.C,R12*
X180908380Y-49094857D02*
X180432190Y-49428190D01*
X180908380Y-49666285D02*
X179908380Y-49666285D01*
X179908380Y-49285333D01*
X179956000Y-49190095D01*
X180003619Y-49142476D01*
X180098857Y-49094857D01*
X180241714Y-49094857D01*
X180336952Y-49142476D01*
X180384571Y-49190095D01*
X180432190Y-49285333D01*
X180432190Y-49666285D01*
X180908380Y-48142476D02*
X180908380Y-48713904D01*
X180908380Y-48428190D02*
X179908380Y-48428190D01*
X180051238Y-48523428D01*
X180146476Y-48618666D01*
X180194095Y-48713904D01*
X180003619Y-47761523D02*
X179956000Y-47713904D01*
X179908380Y-47618666D01*
X179908380Y-47380571D01*
X179956000Y-47285333D01*
X180003619Y-47237714D01*
X180098857Y-47190095D01*
X180194095Y-47190095D01*
X180336952Y-47237714D01*
X180908380Y-47809142D01*
X180908380Y-47190095D01*
G04 #@! TO.C,R13*
X180908380Y-53285857D02*
X180432190Y-53619190D01*
X180908380Y-53857285D02*
X179908380Y-53857285D01*
X179908380Y-53476333D01*
X179956000Y-53381095D01*
X180003619Y-53333476D01*
X180098857Y-53285857D01*
X180241714Y-53285857D01*
X180336952Y-53333476D01*
X180384571Y-53381095D01*
X180432190Y-53476333D01*
X180432190Y-53857285D01*
X180908380Y-52333476D02*
X180908380Y-52904904D01*
X180908380Y-52619190D02*
X179908380Y-52619190D01*
X180051238Y-52714428D01*
X180146476Y-52809666D01*
X180194095Y-52904904D01*
X179908380Y-52000142D02*
X179908380Y-51381095D01*
X180289333Y-51714428D01*
X180289333Y-51571571D01*
X180336952Y-51476333D01*
X180384571Y-51428714D01*
X180479809Y-51381095D01*
X180717904Y-51381095D01*
X180813142Y-51428714D01*
X180860761Y-51476333D01*
X180908380Y-51571571D01*
X180908380Y-51857285D01*
X180860761Y-51952523D01*
X180813142Y-52000142D01*
G04 #@! TO.C,Y1*
X189576190Y-43340190D02*
X190052380Y-43340190D01*
X189052380Y-43673523D02*
X189576190Y-43340190D01*
X189052380Y-43006857D01*
X190052380Y-42149714D02*
X190052380Y-42721142D01*
X190052380Y-42435428D02*
X189052380Y-42435428D01*
X189195238Y-42530666D01*
X189290476Y-42625904D01*
X189338095Y-42721142D01*
G04 #@! TO.C,BT1*
X220088685Y-54913371D02*
X220231542Y-54960990D01*
X220279161Y-55008609D01*
X220326780Y-55103847D01*
X220326780Y-55246704D01*
X220279161Y-55341942D01*
X220231542Y-55389561D01*
X220136304Y-55437180D01*
X219755352Y-55437180D01*
X219755352Y-54437180D01*
X220088685Y-54437180D01*
X220183923Y-54484800D01*
X220231542Y-54532419D01*
X220279161Y-54627657D01*
X220279161Y-54722895D01*
X220231542Y-54818133D01*
X220183923Y-54865752D01*
X220088685Y-54913371D01*
X219755352Y-54913371D01*
X220612495Y-54437180D02*
X221183923Y-54437180D01*
X220898209Y-55437180D02*
X220898209Y-54437180D01*
X222041066Y-55437180D02*
X221469638Y-55437180D01*
X221755352Y-55437180D02*
X221755352Y-54437180D01*
X221660114Y-54580038D01*
X221564876Y-54675276D01*
X221469638Y-54722895D01*
G04 #@! TO.C,Q2*
X93862285Y-74558857D02*
X93776571Y-74516000D01*
X93690857Y-74430285D01*
X93562285Y-74301714D01*
X93476571Y-74258857D01*
X93390857Y-74258857D01*
X93433714Y-74473142D02*
X93348000Y-74430285D01*
X93262285Y-74344571D01*
X93219428Y-74173142D01*
X93219428Y-73873142D01*
X93262285Y-73701714D01*
X93348000Y-73616000D01*
X93433714Y-73573142D01*
X93605142Y-73573142D01*
X93690857Y-73616000D01*
X93776571Y-73701714D01*
X93819428Y-73873142D01*
X93819428Y-74173142D01*
X93776571Y-74344571D01*
X93690857Y-74430285D01*
X93605142Y-74473142D01*
X93433714Y-74473142D01*
X94162285Y-73658857D02*
X94205142Y-73616000D01*
X94290857Y-73573142D01*
X94505142Y-73573142D01*
X94590857Y-73616000D01*
X94633714Y-73658857D01*
X94676571Y-73744571D01*
X94676571Y-73830285D01*
X94633714Y-73958857D01*
X94119428Y-74473142D01*
X94676571Y-74473142D01*
G04 #@! TO.C,U7*
X189236380Y-51370504D02*
X190045904Y-51370504D01*
X190141142Y-51322885D01*
X190188761Y-51275266D01*
X190236380Y-51180028D01*
X190236380Y-50989552D01*
X190188761Y-50894314D01*
X190141142Y-50846695D01*
X190045904Y-50799076D01*
X189236380Y-50799076D01*
X189236380Y-50418123D02*
X189236380Y-49751457D01*
X190236380Y-50180028D01*
G04 #@! TO.C,TP5*
X101338095Y-70548180D02*
X101909523Y-70548180D01*
X101623809Y-71548180D02*
X101623809Y-70548180D01*
X102242857Y-71548180D02*
X102242857Y-70548180D01*
X102623809Y-70548180D01*
X102719047Y-70595800D01*
X102766666Y-70643419D01*
X102814285Y-70738657D01*
X102814285Y-70881514D01*
X102766666Y-70976752D01*
X102719047Y-71024371D01*
X102623809Y-71071990D01*
X102242857Y-71071990D01*
X103719047Y-70548180D02*
X103242857Y-70548180D01*
X103195238Y-71024371D01*
X103242857Y-70976752D01*
X103338095Y-70929133D01*
X103576190Y-70929133D01*
X103671428Y-70976752D01*
X103719047Y-71024371D01*
X103766666Y-71119609D01*
X103766666Y-71357704D01*
X103719047Y-71452942D01*
X103671428Y-71500561D01*
X103576190Y-71548180D01*
X103338095Y-71548180D01*
X103242857Y-71500561D01*
X103195238Y-71452942D01*
G04 #@! TO.C,TP6*
X131361294Y-70445380D02*
X131932722Y-70445380D01*
X131647008Y-71445380D02*
X131647008Y-70445380D01*
X132266056Y-71445380D02*
X132266056Y-70445380D01*
X132647008Y-70445380D01*
X132742246Y-70493000D01*
X132789865Y-70540619D01*
X132837484Y-70635857D01*
X132837484Y-70778714D01*
X132789865Y-70873952D01*
X132742246Y-70921571D01*
X132647008Y-70969190D01*
X132266056Y-70969190D01*
X133694627Y-70445380D02*
X133504151Y-70445380D01*
X133408913Y-70493000D01*
X133361294Y-70540619D01*
X133266056Y-70683476D01*
X133218437Y-70873952D01*
X133218437Y-71254904D01*
X133266056Y-71350142D01*
X133313675Y-71397761D01*
X133408913Y-71445380D01*
X133599389Y-71445380D01*
X133694627Y-71397761D01*
X133742246Y-71350142D01*
X133789865Y-71254904D01*
X133789865Y-71016809D01*
X133742246Y-70921571D01*
X133694627Y-70873952D01*
X133599389Y-70826333D01*
X133408913Y-70826333D01*
X133313675Y-70873952D01*
X133266056Y-70921571D01*
X133218437Y-71016809D01*
G04 #@! TO.C,R4*
X199999333Y-45570380D02*
X199666000Y-45094190D01*
X199427904Y-45570380D02*
X199427904Y-44570380D01*
X199808857Y-44570380D01*
X199904095Y-44618000D01*
X199951714Y-44665619D01*
X199999333Y-44760857D01*
X199999333Y-44903714D01*
X199951714Y-44998952D01*
X199904095Y-45046571D01*
X199808857Y-45094190D01*
X199427904Y-45094190D01*
X200856476Y-44903714D02*
X200856476Y-45570380D01*
X200618380Y-44522761D02*
X200380285Y-45237047D01*
X200999333Y-45237047D01*
G04 #@! TO.C,R6*
X223050380Y-61747666D02*
X222574190Y-62081000D01*
X223050380Y-62319095D02*
X222050380Y-62319095D01*
X222050380Y-61938142D01*
X222098000Y-61842904D01*
X222145619Y-61795285D01*
X222240857Y-61747666D01*
X222383714Y-61747666D01*
X222478952Y-61795285D01*
X222526571Y-61842904D01*
X222574190Y-61938142D01*
X222574190Y-62319095D01*
X222050380Y-60890523D02*
X222050380Y-61081000D01*
X222098000Y-61176238D01*
X222145619Y-61223857D01*
X222288476Y-61319095D01*
X222478952Y-61366714D01*
X222859904Y-61366714D01*
X222955142Y-61319095D01*
X223002761Y-61271476D01*
X223050380Y-61176238D01*
X223050380Y-60985761D01*
X223002761Y-60890523D01*
X222955142Y-60842904D01*
X222859904Y-60795285D01*
X222621809Y-60795285D01*
X222526571Y-60842904D01*
X222478952Y-60890523D01*
X222431333Y-60985761D01*
X222431333Y-61176238D01*
X222478952Y-61271476D01*
X222526571Y-61319095D01*
X222621809Y-61366714D01*
G04 #@! TO.C,U1*
X207908580Y-59239104D02*
X208718104Y-59239104D01*
X208813342Y-59191485D01*
X208860961Y-59143866D01*
X208908580Y-59048628D01*
X208908580Y-58858152D01*
X208860961Y-58762914D01*
X208813342Y-58715295D01*
X208718104Y-58667676D01*
X207908580Y-58667676D01*
X208908580Y-57667676D02*
X208908580Y-58239104D01*
X208908580Y-57953390D02*
X207908580Y-57953390D01*
X208051438Y-58048628D01*
X208146676Y-58143866D01*
X208194295Y-58239104D01*
X201908580Y-84005771D02*
X202241914Y-84005771D01*
X202384771Y-84529580D02*
X201908580Y-84529580D01*
X201908580Y-83529580D01*
X202384771Y-83529580D01*
X202765723Y-84481961D02*
X202908580Y-84529580D01*
X203146676Y-84529580D01*
X203241914Y-84481961D01*
X203289533Y-84434342D01*
X203337152Y-84339104D01*
X203337152Y-84243866D01*
X203289533Y-84148628D01*
X203241914Y-84101009D01*
X203146676Y-84053390D01*
X202956200Y-84005771D01*
X202860961Y-83958152D01*
X202813342Y-83910533D01*
X202765723Y-83815295D01*
X202765723Y-83720057D01*
X202813342Y-83624819D01*
X202860961Y-83577200D01*
X202956200Y-83529580D01*
X203194295Y-83529580D01*
X203337152Y-83577200D01*
X203765723Y-84529580D02*
X203765723Y-83529580D01*
X204146676Y-83529580D01*
X204241914Y-83577200D01*
X204289533Y-83624819D01*
X204337152Y-83720057D01*
X204337152Y-83862914D01*
X204289533Y-83958152D01*
X204241914Y-84005771D01*
X204146676Y-84053390D01*
X203765723Y-84053390D01*
X204670485Y-83529580D02*
X205289533Y-83529580D01*
X204956200Y-83910533D01*
X205099057Y-83910533D01*
X205194295Y-83958152D01*
X205241914Y-84005771D01*
X205289533Y-84101009D01*
X205289533Y-84339104D01*
X205241914Y-84434342D01*
X205194295Y-84481961D01*
X205099057Y-84529580D01*
X204813342Y-84529580D01*
X204718104Y-84481961D01*
X204670485Y-84434342D01*
X205670485Y-83624819D02*
X205718104Y-83577200D01*
X205813342Y-83529580D01*
X206051438Y-83529580D01*
X206146676Y-83577200D01*
X206194295Y-83624819D01*
X206241914Y-83720057D01*
X206241914Y-83815295D01*
X206194295Y-83958152D01*
X205622866Y-84529580D01*
X206241914Y-84529580D01*
X206432390Y-84624819D02*
X207194295Y-84624819D01*
X207337152Y-83529580D02*
X207575247Y-84529580D01*
X207765723Y-83815295D01*
X207956200Y-84529580D01*
X208194295Y-83529580D01*
X209146676Y-84529580D02*
X208813342Y-84053390D01*
X208575247Y-84529580D02*
X208575247Y-83529580D01*
X208956200Y-83529580D01*
X209051438Y-83577200D01*
X209099057Y-83624819D01*
X209146676Y-83720057D01*
X209146676Y-83862914D01*
X209099057Y-83958152D01*
X209051438Y-84005771D01*
X208956200Y-84053390D01*
X208575247Y-84053390D01*
X209765723Y-83529580D02*
X209956200Y-83529580D01*
X210051438Y-83577200D01*
X210146676Y-83672438D01*
X210194295Y-83862914D01*
X210194295Y-84196247D01*
X210146676Y-84386723D01*
X210051438Y-84481961D01*
X209956200Y-84529580D01*
X209765723Y-84529580D01*
X209670485Y-84481961D01*
X209575247Y-84386723D01*
X209527628Y-84196247D01*
X209527628Y-83862914D01*
X209575247Y-83672438D01*
X209670485Y-83577200D01*
X209765723Y-83529580D01*
X210813342Y-83529580D02*
X211003819Y-83529580D01*
X211099057Y-83577200D01*
X211194295Y-83672438D01*
X211241914Y-83862914D01*
X211241914Y-84196247D01*
X211194295Y-84386723D01*
X211099057Y-84481961D01*
X211003819Y-84529580D01*
X210813342Y-84529580D01*
X210718104Y-84481961D01*
X210622866Y-84386723D01*
X210575247Y-84196247D01*
X210575247Y-83862914D01*
X210622866Y-83672438D01*
X210718104Y-83577200D01*
X210813342Y-83529580D01*
X211670485Y-84529580D02*
X211670485Y-83529580D01*
X212003819Y-84243866D01*
X212337152Y-83529580D01*
X212337152Y-84529580D01*
X212575247Y-84624819D02*
X213337152Y-84624819D01*
X213480009Y-83529580D02*
X214099057Y-83529580D01*
X213765723Y-83910533D01*
X213908580Y-83910533D01*
X214003819Y-83958152D01*
X214051438Y-84005771D01*
X214099057Y-84101009D01*
X214099057Y-84339104D01*
X214051438Y-84434342D01*
X214003819Y-84481961D01*
X213908580Y-84529580D01*
X213622866Y-84529580D01*
X213527628Y-84481961D01*
X213480009Y-84434342D01*
X214480009Y-83624819D02*
X214527628Y-83577200D01*
X214622866Y-83529580D01*
X214860961Y-83529580D01*
X214956199Y-83577200D01*
X215003819Y-83624819D01*
X215051438Y-83720057D01*
X215051438Y-83815295D01*
X215003819Y-83958152D01*
X214432390Y-84529580D01*
X215051438Y-84529580D01*
G04 #@! TO.C,C10*
X169681142Y-56889857D02*
X169728761Y-56937476D01*
X169776380Y-57080333D01*
X169776380Y-57175571D01*
X169728761Y-57318428D01*
X169633523Y-57413666D01*
X169538285Y-57461285D01*
X169347809Y-57508904D01*
X169204952Y-57508904D01*
X169014476Y-57461285D01*
X168919238Y-57413666D01*
X168824000Y-57318428D01*
X168776380Y-57175571D01*
X168776380Y-57080333D01*
X168824000Y-56937476D01*
X168871619Y-56889857D01*
X169776380Y-55937476D02*
X169776380Y-56508904D01*
X169776380Y-56223190D02*
X168776380Y-56223190D01*
X168919238Y-56318428D01*
X169014476Y-56413666D01*
X169062095Y-56508904D01*
X168776380Y-55318428D02*
X168776380Y-55223190D01*
X168824000Y-55127952D01*
X168871619Y-55080333D01*
X168966857Y-55032714D01*
X169157333Y-54985095D01*
X169395428Y-54985095D01*
X169585904Y-55032714D01*
X169681142Y-55080333D01*
X169728761Y-55127952D01*
X169776380Y-55223190D01*
X169776380Y-55318428D01*
X169728761Y-55413666D01*
X169681142Y-55461285D01*
X169585904Y-55508904D01*
X169395428Y-55556523D01*
X169157333Y-55556523D01*
X168966857Y-55508904D01*
X168871619Y-55461285D01*
X168824000Y-55413666D01*
X168776380Y-55318428D01*
G04 #@! TO.C,R2*
X74890333Y-63444380D02*
X74557000Y-62968190D01*
X74318904Y-63444380D02*
X74318904Y-62444380D01*
X74699857Y-62444380D01*
X74795095Y-62492000D01*
X74842714Y-62539619D01*
X74890333Y-62634857D01*
X74890333Y-62777714D01*
X74842714Y-62872952D01*
X74795095Y-62920571D01*
X74699857Y-62968190D01*
X74318904Y-62968190D01*
X75271285Y-62539619D02*
X75318904Y-62492000D01*
X75414142Y-62444380D01*
X75652238Y-62444380D01*
X75747476Y-62492000D01*
X75795095Y-62539619D01*
X75842714Y-62634857D01*
X75842714Y-62730095D01*
X75795095Y-62872952D01*
X75223666Y-63444380D01*
X75842714Y-63444380D01*
G04 #@! TD*
M02*
