%TF.GenerationSoftware,KiCad,Pcbnew,(5.0.0)*%
%TF.CreationDate,2018-09-14T20:48:28+01:00*%
%TF.ProjectId,AquaHub,417175614875622E6B696361645F7063,rev?*%
%TF.SameCoordinates,Original*%
%TF.FileFunction,Legend,Bot*%
%TF.FilePolarity,Positive*%
%FSLAX46Y46*%
G04 Gerber Fmt 4.6, Leading zero omitted, Abs format (unit mm)*
G04 Created by KiCad (PCBNEW (5.0.0)) date 09/14/18 20:48:28*
%MOMM*%
%LPD*%
G01*
G04 APERTURE LIST*
%ADD10C,0.200000*%
%ADD11C,0.120000*%
%ADD12C,0.150000*%
G04 APERTURE END LIST*
D10*
X55118000Y-106680000D02*
X48006000Y-106680000D01*
X55118000Y-109728000D02*
X55118000Y-106680000D01*
X51054000Y-109728000D02*
X55118000Y-109728000D01*
X146050000Y-115570000D02*
X146050000Y-118110000D01*
X140335000Y-78105000D02*
X140335000Y-75565000D01*
X148590000Y-75565000D02*
X148590000Y-78105000D01*
X148590000Y-78105000D02*
X208280000Y-78105000D01*
X208280000Y-75565000D02*
X148590000Y-75565000D01*
X208280000Y-52070000D02*
X208280000Y-75565000D01*
X38100000Y-52070000D02*
X208280000Y-52070000D01*
X38100000Y-75565000D02*
X38100000Y-52070000D01*
X140335000Y-75565000D02*
X38100000Y-75565000D01*
X48006000Y-118364000D02*
X48006000Y-106680000D01*
X146050000Y-118110000D02*
X48006000Y-118364000D01*
X51054000Y-115316000D02*
X146050000Y-115570000D01*
X51054000Y-109728000D02*
X51054000Y-115316000D01*
X38100000Y-153670000D02*
X208280000Y-153670000D01*
X38100000Y-78105000D02*
X38100000Y-153670000D01*
X140335000Y-78105000D02*
X38100000Y-78105000D01*
X208280000Y-78105000D02*
X208280000Y-153670000D01*
D11*
X147090000Y-55610000D02*
X147090000Y-71390000D01*
X147090000Y-71390000D02*
X156440000Y-71390000D01*
X156440000Y-71390000D02*
X156440000Y-55610000D01*
X156440000Y-55610000D02*
X147090000Y-55610000D01*
X156690000Y-55360000D02*
X156690000Y-57900000D01*
X156690000Y-55360000D02*
X154150000Y-55360000D01*
D12*
X152574523Y-53808380D02*
X152574523Y-54522666D01*
X152622142Y-54665523D01*
X152717380Y-54760761D01*
X152860238Y-54808380D01*
X152955476Y-54808380D01*
X151574523Y-54808380D02*
X152145952Y-54808380D01*
X151860238Y-54808380D02*
X151860238Y-53808380D01*
X151955476Y-53951238D01*
X152050714Y-54046476D01*
X152145952Y-54094095D01*
X151193571Y-53903619D02*
X151145952Y-53856000D01*
X151050714Y-53808380D01*
X150812619Y-53808380D01*
X150717380Y-53856000D01*
X150669761Y-53903619D01*
X150622142Y-53998857D01*
X150622142Y-54094095D01*
X150669761Y-54236952D01*
X151241190Y-54808380D01*
X150622142Y-54808380D01*
M02*
