G04 #@! TF.GenerationSoftware,KiCad,Pcbnew,(5.0.0)*
G04 #@! TF.CreationDate,2018-09-10T10:35:59+01:00*
G04 #@! TF.ProjectId,AquaHub,417175614875622E6B696361645F7063,rev?*
G04 #@! TF.SameCoordinates,Original*
G04 #@! TF.FileFunction,Profile,NP*
%FSLAX46Y46*%
G04 Gerber Fmt 4.6, Leading zero omitted, Abs format (unit mm)*
G04 Created by KiCad (PCBNEW (5.0.0)) date 09/10/18 10:35:59*
%MOMM*%
%LPD*%
G01*
G04 APERTURE LIST*
%ADD10C,0.200000*%
G04 APERTURE END LIST*
D10*
X55118000Y-106680000D02*
X48006000Y-106680000D01*
X55118000Y-109728000D02*
X55118000Y-106680000D01*
X51054000Y-109728000D02*
X55118000Y-109728000D01*
X146050000Y-115570000D02*
X146050000Y-118110000D01*
X140335000Y-63500000D02*
X140335000Y-60960000D01*
X148590000Y-60960000D02*
X148590000Y-63500000D01*
X148590000Y-63500000D02*
X208280000Y-63500000D01*
X208280000Y-60960000D02*
X148590000Y-60960000D01*
X208280000Y-37465000D02*
X208280000Y-60960000D01*
X38100000Y-37465000D02*
X208280000Y-37465000D01*
X38100000Y-60960000D02*
X38100000Y-37465000D01*
X140335000Y-60960000D02*
X38100000Y-60960000D01*
X48006000Y-118364000D02*
X48006000Y-106680000D01*
X146050000Y-118110000D02*
X48006000Y-118364000D01*
X51054000Y-115316000D02*
X146050000Y-115570000D01*
X51054000Y-109728000D02*
X51054000Y-115316000D01*
X38100000Y-160020000D02*
X208280000Y-160020000D01*
X38100000Y-63500000D02*
X38100000Y-160020000D01*
X140335000Y-63500000D02*
X38100000Y-63500000D01*
X208280000Y-63500000D02*
X208280000Y-160020000D01*
M02*
