G04 #@! TF.GenerationSoftware,KiCad,Pcbnew,(5.0.0)*
G04 #@! TF.CreationDate,2018-09-10T10:35:59+01:00*
G04 #@! TF.ProjectId,AquaHub,417175614875622E6B696361645F7063,rev?*
G04 #@! TF.SameCoordinates,Original*
G04 #@! TF.FileFunction,Soldermask,Top*
G04 #@! TF.FilePolarity,Negative*
%FSLAX46Y46*%
G04 Gerber Fmt 4.6, Leading zero omitted, Abs format (unit mm)*
G04 Created by KiCad (PCBNEW (5.0.0)) date 09/10/18 10:35:59*
%MOMM*%
%LPD*%
G01*
G04 APERTURE LIST*
%ADD10R,2.127200X2.127200*%
%ADD11O,2.127200X2.127200*%
%ADD12C,0.100000*%
%ADD13C,1.550000*%
%ADD14O,1.470000X2.200000*%
%ADD15R,1.470000X2.200000*%
%ADD16C,2.400000*%
%ADD17R,2.400000X2.400000*%
%ADD18O,2.100000X2.100000*%
%ADD19R,2.100000X2.100000*%
%ADD20C,1.924000*%
%ADD21R,2.400000X1.900000*%
%ADD22R,2.400000X4.200000*%
%ADD23R,1.000000X1.950000*%
%ADD24C,4.700000*%
%ADD25O,2.900000X1.900000*%
%ADD26R,2.900000X1.900000*%
%ADD27C,2.200000*%
%ADD28C,2.900000*%
%ADD29C,1.400000*%
%ADD30C,3.400000*%
G04 APERTURE END LIST*
D10*
G04 #@! TO.C,J12*
X153035000Y-46355000D03*
D11*
X150495000Y-46355000D03*
X153035000Y-48895000D03*
X150495000Y-48895000D03*
X153035000Y-51435000D03*
X150495000Y-51435000D03*
G04 #@! TD*
D12*
G04 #@! TO.C,R3*
G36*
X149821071Y-80016623D02*
X149853781Y-80021475D01*
X149885857Y-80029509D01*
X149916991Y-80040649D01*
X149946884Y-80054787D01*
X149975247Y-80071787D01*
X150001807Y-80091485D01*
X150026308Y-80113692D01*
X150048515Y-80138193D01*
X150068213Y-80164753D01*
X150085213Y-80193116D01*
X150099351Y-80223009D01*
X150110491Y-80254143D01*
X150118525Y-80286219D01*
X150123377Y-80318929D01*
X150125000Y-80351956D01*
X150125000Y-81228044D01*
X150123377Y-81261071D01*
X150118525Y-81293781D01*
X150110491Y-81325857D01*
X150099351Y-81356991D01*
X150085213Y-81386884D01*
X150068213Y-81415247D01*
X150048515Y-81441807D01*
X150026308Y-81466308D01*
X150001807Y-81488515D01*
X149975247Y-81508213D01*
X149946884Y-81525213D01*
X149916991Y-81539351D01*
X149885857Y-81550491D01*
X149853781Y-81558525D01*
X149821071Y-81563377D01*
X149788044Y-81565000D01*
X148661956Y-81565000D01*
X148628929Y-81563377D01*
X148596219Y-81558525D01*
X148564143Y-81550491D01*
X148533009Y-81539351D01*
X148503116Y-81525213D01*
X148474753Y-81508213D01*
X148448193Y-81488515D01*
X148423692Y-81466308D01*
X148401485Y-81441807D01*
X148381787Y-81415247D01*
X148364787Y-81386884D01*
X148350649Y-81356991D01*
X148339509Y-81325857D01*
X148331475Y-81293781D01*
X148326623Y-81261071D01*
X148325000Y-81228044D01*
X148325000Y-80351956D01*
X148326623Y-80318929D01*
X148331475Y-80286219D01*
X148339509Y-80254143D01*
X148350649Y-80223009D01*
X148364787Y-80193116D01*
X148381787Y-80164753D01*
X148401485Y-80138193D01*
X148423692Y-80113692D01*
X148448193Y-80091485D01*
X148474753Y-80071787D01*
X148503116Y-80054787D01*
X148533009Y-80040649D01*
X148564143Y-80029509D01*
X148596219Y-80021475D01*
X148628929Y-80016623D01*
X148661956Y-80015000D01*
X149788044Y-80015000D01*
X149821071Y-80016623D01*
X149821071Y-80016623D01*
G37*
D13*
X149225000Y-80790000D03*
D12*
G36*
X149821071Y-77966623D02*
X149853781Y-77971475D01*
X149885857Y-77979509D01*
X149916991Y-77990649D01*
X149946884Y-78004787D01*
X149975247Y-78021787D01*
X150001807Y-78041485D01*
X150026308Y-78063692D01*
X150048515Y-78088193D01*
X150068213Y-78114753D01*
X150085213Y-78143116D01*
X150099351Y-78173009D01*
X150110491Y-78204143D01*
X150118525Y-78236219D01*
X150123377Y-78268929D01*
X150125000Y-78301956D01*
X150125000Y-79178044D01*
X150123377Y-79211071D01*
X150118525Y-79243781D01*
X150110491Y-79275857D01*
X150099351Y-79306991D01*
X150085213Y-79336884D01*
X150068213Y-79365247D01*
X150048515Y-79391807D01*
X150026308Y-79416308D01*
X150001807Y-79438515D01*
X149975247Y-79458213D01*
X149946884Y-79475213D01*
X149916991Y-79489351D01*
X149885857Y-79500491D01*
X149853781Y-79508525D01*
X149821071Y-79513377D01*
X149788044Y-79515000D01*
X148661956Y-79515000D01*
X148628929Y-79513377D01*
X148596219Y-79508525D01*
X148564143Y-79500491D01*
X148533009Y-79489351D01*
X148503116Y-79475213D01*
X148474753Y-79458213D01*
X148448193Y-79438515D01*
X148423692Y-79416308D01*
X148401485Y-79391807D01*
X148381787Y-79365247D01*
X148364787Y-79336884D01*
X148350649Y-79306991D01*
X148339509Y-79275857D01*
X148331475Y-79243781D01*
X148326623Y-79211071D01*
X148325000Y-79178044D01*
X148325000Y-78301956D01*
X148326623Y-78268929D01*
X148331475Y-78236219D01*
X148339509Y-78204143D01*
X148350649Y-78173009D01*
X148364787Y-78143116D01*
X148381787Y-78114753D01*
X148401485Y-78088193D01*
X148423692Y-78063692D01*
X148448193Y-78041485D01*
X148474753Y-78021787D01*
X148503116Y-78004787D01*
X148533009Y-77990649D01*
X148564143Y-77979509D01*
X148596219Y-77971475D01*
X148628929Y-77966623D01*
X148661956Y-77965000D01*
X149788044Y-77965000D01*
X149821071Y-77966623D01*
X149821071Y-77966623D01*
G37*
D13*
X149225000Y-78740000D03*
G04 #@! TD*
D11*
G04 #@! TO.C,J11*
X161925000Y-77470000D03*
X161925000Y-74930000D03*
X164465000Y-77470000D03*
X164465000Y-74930000D03*
X167005000Y-77470000D03*
D10*
X167005000Y-74930000D03*
G04 #@! TD*
D14*
G04 #@! TO.C,D1*
X120015000Y-44450000D03*
X118745000Y-44450000D03*
X117475000Y-44450000D03*
D15*
X116205000Y-44450000D03*
G04 #@! TD*
D16*
G04 #@! TO.C,SW1*
X115515000Y-50800000D03*
X120015000Y-50800000D03*
X115515000Y-57300000D03*
X120015000Y-57300000D03*
G04 #@! TD*
G04 #@! TO.C,SW5*
X69365000Y-57300000D03*
X64865000Y-57300000D03*
X69365000Y-50800000D03*
X64865000Y-50800000D03*
G04 #@! TD*
G04 #@! TO.C,V1*
X81453344Y-88927320D03*
X81452344Y-96547320D03*
X53465000Y-88927320D03*
D17*
X53465000Y-104140000D03*
G04 #@! TD*
D18*
G04 #@! TO.C,J9*
X142240000Y-74930000D03*
X144780000Y-74930000D03*
D19*
X147320000Y-74930000D03*
G04 #@! TD*
D20*
G04 #@! TO.C,K1*
X60960000Y-112776000D03*
X60960000Y-120396000D03*
X60960000Y-125476000D03*
X60960000Y-130556000D03*
X53340000Y-130556000D03*
X53340000Y-125476000D03*
X53340000Y-120396000D03*
X53340000Y-112776000D03*
G04 #@! TD*
G04 #@! TO.C,K2*
X76962000Y-112776000D03*
X76962000Y-120396000D03*
X76962000Y-125476000D03*
X76962000Y-130556000D03*
X69342000Y-130556000D03*
X69342000Y-125476000D03*
X69342000Y-120396000D03*
X69342000Y-112776000D03*
G04 #@! TD*
G04 #@! TO.C,K3*
X94234000Y-112776000D03*
X94234000Y-120396000D03*
X94234000Y-125476000D03*
X94234000Y-130556000D03*
X86614000Y-130556000D03*
X86614000Y-125476000D03*
X86614000Y-120396000D03*
X86614000Y-112776000D03*
G04 #@! TD*
G04 #@! TO.C,K4*
X109982000Y-112776000D03*
X109982000Y-120396000D03*
X109982000Y-125476000D03*
X109982000Y-130556000D03*
X102362000Y-130556000D03*
X102362000Y-125476000D03*
X102362000Y-120396000D03*
X102362000Y-112776000D03*
G04 #@! TD*
G04 #@! TO.C,K5*
X127254000Y-112776000D03*
X127254000Y-120396000D03*
X127254000Y-125476000D03*
X127254000Y-130556000D03*
X119634000Y-130556000D03*
X119634000Y-125476000D03*
X119634000Y-120396000D03*
X119634000Y-112776000D03*
G04 #@! TD*
G04 #@! TO.C,K6*
X143510000Y-112776000D03*
X143510000Y-120396000D03*
X143510000Y-125476000D03*
X143510000Y-130556000D03*
X135890000Y-130556000D03*
X135890000Y-125476000D03*
X135890000Y-120396000D03*
X135890000Y-112776000D03*
G04 #@! TD*
D21*
G04 #@! TO.C,U3*
X89585000Y-99300000D03*
X89585000Y-103900000D03*
X89585000Y-101600000D03*
D22*
X95885000Y-101600000D03*
G04 #@! TD*
D23*
G04 #@! TO.C,U2*
X162187979Y-117809195D03*
X163457979Y-117809195D03*
X164727979Y-117809195D03*
X165997979Y-117809195D03*
X165997979Y-123209195D03*
X164727979Y-123209195D03*
X163457979Y-123209195D03*
X162187979Y-123209195D03*
G04 #@! TD*
D24*
G04 #@! TO.C,MH1*
X43180000Y-68580000D03*
G04 #@! TD*
G04 #@! TO.C,MH2*
X43180000Y-154940000D03*
G04 #@! TD*
G04 #@! TO.C,MH3*
X202565000Y-68580000D03*
G04 #@! TD*
G04 #@! TO.C,MH4*
X203200000Y-154940000D03*
G04 #@! TD*
D25*
G04 #@! TO.C,U5*
X90170000Y-90805000D03*
X90170000Y-88265000D03*
D26*
X90170000Y-85725000D03*
G04 #@! TD*
D18*
G04 #@! TO.C,J10*
X186690000Y-74930000D03*
X189230000Y-74930000D03*
X191770000Y-74930000D03*
D19*
X194310000Y-74930000D03*
G04 #@! TD*
D12*
G04 #@! TO.C,C1*
G36*
X169769050Y-117190818D02*
X169801760Y-117195670D01*
X169833836Y-117203704D01*
X169864970Y-117214844D01*
X169894863Y-117228982D01*
X169923226Y-117245982D01*
X169949786Y-117265680D01*
X169974287Y-117287887D01*
X169996494Y-117312388D01*
X170016192Y-117338948D01*
X170033192Y-117367311D01*
X170047330Y-117397204D01*
X170058470Y-117428338D01*
X170066504Y-117460414D01*
X170071356Y-117493124D01*
X170072979Y-117526151D01*
X170072979Y-118402239D01*
X170071356Y-118435266D01*
X170066504Y-118467976D01*
X170058470Y-118500052D01*
X170047330Y-118531186D01*
X170033192Y-118561079D01*
X170016192Y-118589442D01*
X169996494Y-118616002D01*
X169974287Y-118640503D01*
X169949786Y-118662710D01*
X169923226Y-118682408D01*
X169894863Y-118699408D01*
X169864970Y-118713546D01*
X169833836Y-118724686D01*
X169801760Y-118732720D01*
X169769050Y-118737572D01*
X169736023Y-118739195D01*
X168609935Y-118739195D01*
X168576908Y-118737572D01*
X168544198Y-118732720D01*
X168512122Y-118724686D01*
X168480988Y-118713546D01*
X168451095Y-118699408D01*
X168422732Y-118682408D01*
X168396172Y-118662710D01*
X168371671Y-118640503D01*
X168349464Y-118616002D01*
X168329766Y-118589442D01*
X168312766Y-118561079D01*
X168298628Y-118531186D01*
X168287488Y-118500052D01*
X168279454Y-118467976D01*
X168274602Y-118435266D01*
X168272979Y-118402239D01*
X168272979Y-117526151D01*
X168274602Y-117493124D01*
X168279454Y-117460414D01*
X168287488Y-117428338D01*
X168298628Y-117397204D01*
X168312766Y-117367311D01*
X168329766Y-117338948D01*
X168349464Y-117312388D01*
X168371671Y-117287887D01*
X168396172Y-117265680D01*
X168422732Y-117245982D01*
X168451095Y-117228982D01*
X168480988Y-117214844D01*
X168512122Y-117203704D01*
X168544198Y-117195670D01*
X168576908Y-117190818D01*
X168609935Y-117189195D01*
X169736023Y-117189195D01*
X169769050Y-117190818D01*
X169769050Y-117190818D01*
G37*
D13*
X169172979Y-117964195D03*
D12*
G36*
X169769050Y-115140818D02*
X169801760Y-115145670D01*
X169833836Y-115153704D01*
X169864970Y-115164844D01*
X169894863Y-115178982D01*
X169923226Y-115195982D01*
X169949786Y-115215680D01*
X169974287Y-115237887D01*
X169996494Y-115262388D01*
X170016192Y-115288948D01*
X170033192Y-115317311D01*
X170047330Y-115347204D01*
X170058470Y-115378338D01*
X170066504Y-115410414D01*
X170071356Y-115443124D01*
X170072979Y-115476151D01*
X170072979Y-116352239D01*
X170071356Y-116385266D01*
X170066504Y-116417976D01*
X170058470Y-116450052D01*
X170047330Y-116481186D01*
X170033192Y-116511079D01*
X170016192Y-116539442D01*
X169996494Y-116566002D01*
X169974287Y-116590503D01*
X169949786Y-116612710D01*
X169923226Y-116632408D01*
X169894863Y-116649408D01*
X169864970Y-116663546D01*
X169833836Y-116674686D01*
X169801760Y-116682720D01*
X169769050Y-116687572D01*
X169736023Y-116689195D01*
X168609935Y-116689195D01*
X168576908Y-116687572D01*
X168544198Y-116682720D01*
X168512122Y-116674686D01*
X168480988Y-116663546D01*
X168451095Y-116649408D01*
X168422732Y-116632408D01*
X168396172Y-116612710D01*
X168371671Y-116590503D01*
X168349464Y-116566002D01*
X168329766Y-116539442D01*
X168312766Y-116511079D01*
X168298628Y-116481186D01*
X168287488Y-116450052D01*
X168279454Y-116417976D01*
X168274602Y-116385266D01*
X168272979Y-116352239D01*
X168272979Y-115476151D01*
X168274602Y-115443124D01*
X168279454Y-115410414D01*
X168287488Y-115378338D01*
X168298628Y-115347204D01*
X168312766Y-115317311D01*
X168329766Y-115288948D01*
X168349464Y-115262388D01*
X168371671Y-115237887D01*
X168396172Y-115215680D01*
X168422732Y-115195982D01*
X168451095Y-115178982D01*
X168480988Y-115164844D01*
X168512122Y-115153704D01*
X168544198Y-115145670D01*
X168576908Y-115140818D01*
X168609935Y-115139195D01*
X169736023Y-115139195D01*
X169769050Y-115140818D01*
X169769050Y-115140818D01*
G37*
D13*
X169172979Y-115914195D03*
G04 #@! TD*
D12*
G04 #@! TO.C,C2*
G36*
X158974050Y-115140818D02*
X159006760Y-115145670D01*
X159038836Y-115153704D01*
X159069970Y-115164844D01*
X159099863Y-115178982D01*
X159128226Y-115195982D01*
X159154786Y-115215680D01*
X159179287Y-115237887D01*
X159201494Y-115262388D01*
X159221192Y-115288948D01*
X159238192Y-115317311D01*
X159252330Y-115347204D01*
X159263470Y-115378338D01*
X159271504Y-115410414D01*
X159276356Y-115443124D01*
X159277979Y-115476151D01*
X159277979Y-116352239D01*
X159276356Y-116385266D01*
X159271504Y-116417976D01*
X159263470Y-116450052D01*
X159252330Y-116481186D01*
X159238192Y-116511079D01*
X159221192Y-116539442D01*
X159201494Y-116566002D01*
X159179287Y-116590503D01*
X159154786Y-116612710D01*
X159128226Y-116632408D01*
X159099863Y-116649408D01*
X159069970Y-116663546D01*
X159038836Y-116674686D01*
X159006760Y-116682720D01*
X158974050Y-116687572D01*
X158941023Y-116689195D01*
X157814935Y-116689195D01*
X157781908Y-116687572D01*
X157749198Y-116682720D01*
X157717122Y-116674686D01*
X157685988Y-116663546D01*
X157656095Y-116649408D01*
X157627732Y-116632408D01*
X157601172Y-116612710D01*
X157576671Y-116590503D01*
X157554464Y-116566002D01*
X157534766Y-116539442D01*
X157517766Y-116511079D01*
X157503628Y-116481186D01*
X157492488Y-116450052D01*
X157484454Y-116417976D01*
X157479602Y-116385266D01*
X157477979Y-116352239D01*
X157477979Y-115476151D01*
X157479602Y-115443124D01*
X157484454Y-115410414D01*
X157492488Y-115378338D01*
X157503628Y-115347204D01*
X157517766Y-115317311D01*
X157534766Y-115288948D01*
X157554464Y-115262388D01*
X157576671Y-115237887D01*
X157601172Y-115215680D01*
X157627732Y-115195982D01*
X157656095Y-115178982D01*
X157685988Y-115164844D01*
X157717122Y-115153704D01*
X157749198Y-115145670D01*
X157781908Y-115140818D01*
X157814935Y-115139195D01*
X158941023Y-115139195D01*
X158974050Y-115140818D01*
X158974050Y-115140818D01*
G37*
D13*
X158377979Y-115914195D03*
D12*
G36*
X158974050Y-117190818D02*
X159006760Y-117195670D01*
X159038836Y-117203704D01*
X159069970Y-117214844D01*
X159099863Y-117228982D01*
X159128226Y-117245982D01*
X159154786Y-117265680D01*
X159179287Y-117287887D01*
X159201494Y-117312388D01*
X159221192Y-117338948D01*
X159238192Y-117367311D01*
X159252330Y-117397204D01*
X159263470Y-117428338D01*
X159271504Y-117460414D01*
X159276356Y-117493124D01*
X159277979Y-117526151D01*
X159277979Y-118402239D01*
X159276356Y-118435266D01*
X159271504Y-118467976D01*
X159263470Y-118500052D01*
X159252330Y-118531186D01*
X159238192Y-118561079D01*
X159221192Y-118589442D01*
X159201494Y-118616002D01*
X159179287Y-118640503D01*
X159154786Y-118662710D01*
X159128226Y-118682408D01*
X159099863Y-118699408D01*
X159069970Y-118713546D01*
X159038836Y-118724686D01*
X159006760Y-118732720D01*
X158974050Y-118737572D01*
X158941023Y-118739195D01*
X157814935Y-118739195D01*
X157781908Y-118737572D01*
X157749198Y-118732720D01*
X157717122Y-118724686D01*
X157685988Y-118713546D01*
X157656095Y-118699408D01*
X157627732Y-118682408D01*
X157601172Y-118662710D01*
X157576671Y-118640503D01*
X157554464Y-118616002D01*
X157534766Y-118589442D01*
X157517766Y-118561079D01*
X157503628Y-118531186D01*
X157492488Y-118500052D01*
X157484454Y-118467976D01*
X157479602Y-118435266D01*
X157477979Y-118402239D01*
X157477979Y-117526151D01*
X157479602Y-117493124D01*
X157484454Y-117460414D01*
X157492488Y-117428338D01*
X157503628Y-117397204D01*
X157517766Y-117367311D01*
X157534766Y-117338948D01*
X157554464Y-117312388D01*
X157576671Y-117287887D01*
X157601172Y-117265680D01*
X157627732Y-117245982D01*
X157656095Y-117228982D01*
X157685988Y-117214844D01*
X157717122Y-117203704D01*
X157749198Y-117195670D01*
X157781908Y-117190818D01*
X157814935Y-117189195D01*
X158941023Y-117189195D01*
X158974050Y-117190818D01*
X158974050Y-117190818D01*
G37*
D13*
X158377979Y-117964195D03*
G04 #@! TD*
D12*
G04 #@! TO.C,R1*
G36*
X165696071Y-113535818D02*
X165728781Y-113540670D01*
X165760857Y-113548704D01*
X165791991Y-113559844D01*
X165821884Y-113573982D01*
X165850247Y-113590982D01*
X165876807Y-113610680D01*
X165901308Y-113632887D01*
X165923515Y-113657388D01*
X165943213Y-113683948D01*
X165960213Y-113712311D01*
X165974351Y-113742204D01*
X165985491Y-113773338D01*
X165993525Y-113805414D01*
X165998377Y-113838124D01*
X166000000Y-113871151D01*
X166000000Y-114747239D01*
X165998377Y-114780266D01*
X165993525Y-114812976D01*
X165985491Y-114845052D01*
X165974351Y-114876186D01*
X165960213Y-114906079D01*
X165943213Y-114934442D01*
X165923515Y-114961002D01*
X165901308Y-114985503D01*
X165876807Y-115007710D01*
X165850247Y-115027408D01*
X165821884Y-115044408D01*
X165791991Y-115058546D01*
X165760857Y-115069686D01*
X165728781Y-115077720D01*
X165696071Y-115082572D01*
X165663044Y-115084195D01*
X164536956Y-115084195D01*
X164503929Y-115082572D01*
X164471219Y-115077720D01*
X164439143Y-115069686D01*
X164408009Y-115058546D01*
X164378116Y-115044408D01*
X164349753Y-115027408D01*
X164323193Y-115007710D01*
X164298692Y-114985503D01*
X164276485Y-114961002D01*
X164256787Y-114934442D01*
X164239787Y-114906079D01*
X164225649Y-114876186D01*
X164214509Y-114845052D01*
X164206475Y-114812976D01*
X164201623Y-114780266D01*
X164200000Y-114747239D01*
X164200000Y-113871151D01*
X164201623Y-113838124D01*
X164206475Y-113805414D01*
X164214509Y-113773338D01*
X164225649Y-113742204D01*
X164239787Y-113712311D01*
X164256787Y-113683948D01*
X164276485Y-113657388D01*
X164298692Y-113632887D01*
X164323193Y-113610680D01*
X164349753Y-113590982D01*
X164378116Y-113573982D01*
X164408009Y-113559844D01*
X164439143Y-113548704D01*
X164471219Y-113540670D01*
X164503929Y-113535818D01*
X164536956Y-113534195D01*
X165663044Y-113534195D01*
X165696071Y-113535818D01*
X165696071Y-113535818D01*
G37*
D13*
X165100000Y-114309195D03*
D12*
G36*
X165696071Y-111485818D02*
X165728781Y-111490670D01*
X165760857Y-111498704D01*
X165791991Y-111509844D01*
X165821884Y-111523982D01*
X165850247Y-111540982D01*
X165876807Y-111560680D01*
X165901308Y-111582887D01*
X165923515Y-111607388D01*
X165943213Y-111633948D01*
X165960213Y-111662311D01*
X165974351Y-111692204D01*
X165985491Y-111723338D01*
X165993525Y-111755414D01*
X165998377Y-111788124D01*
X166000000Y-111821151D01*
X166000000Y-112697239D01*
X165998377Y-112730266D01*
X165993525Y-112762976D01*
X165985491Y-112795052D01*
X165974351Y-112826186D01*
X165960213Y-112856079D01*
X165943213Y-112884442D01*
X165923515Y-112911002D01*
X165901308Y-112935503D01*
X165876807Y-112957710D01*
X165850247Y-112977408D01*
X165821884Y-112994408D01*
X165791991Y-113008546D01*
X165760857Y-113019686D01*
X165728781Y-113027720D01*
X165696071Y-113032572D01*
X165663044Y-113034195D01*
X164536956Y-113034195D01*
X164503929Y-113032572D01*
X164471219Y-113027720D01*
X164439143Y-113019686D01*
X164408009Y-113008546D01*
X164378116Y-112994408D01*
X164349753Y-112977408D01*
X164323193Y-112957710D01*
X164298692Y-112935503D01*
X164276485Y-112911002D01*
X164256787Y-112884442D01*
X164239787Y-112856079D01*
X164225649Y-112826186D01*
X164214509Y-112795052D01*
X164206475Y-112762976D01*
X164201623Y-112730266D01*
X164200000Y-112697239D01*
X164200000Y-111821151D01*
X164201623Y-111788124D01*
X164206475Y-111755414D01*
X164214509Y-111723338D01*
X164225649Y-111692204D01*
X164239787Y-111662311D01*
X164256787Y-111633948D01*
X164276485Y-111607388D01*
X164298692Y-111582887D01*
X164323193Y-111560680D01*
X164349753Y-111540982D01*
X164378116Y-111523982D01*
X164408009Y-111509844D01*
X164439143Y-111498704D01*
X164471219Y-111490670D01*
X164503929Y-111485818D01*
X164536956Y-111484195D01*
X165663044Y-111484195D01*
X165696071Y-111485818D01*
X165696071Y-111485818D01*
G37*
D13*
X165100000Y-112259195D03*
G04 #@! TD*
D12*
G04 #@! TO.C,R2*
G36*
X143471071Y-77966623D02*
X143503781Y-77971475D01*
X143535857Y-77979509D01*
X143566991Y-77990649D01*
X143596884Y-78004787D01*
X143625247Y-78021787D01*
X143651807Y-78041485D01*
X143676308Y-78063692D01*
X143698515Y-78088193D01*
X143718213Y-78114753D01*
X143735213Y-78143116D01*
X143749351Y-78173009D01*
X143760491Y-78204143D01*
X143768525Y-78236219D01*
X143773377Y-78268929D01*
X143775000Y-78301956D01*
X143775000Y-79178044D01*
X143773377Y-79211071D01*
X143768525Y-79243781D01*
X143760491Y-79275857D01*
X143749351Y-79306991D01*
X143735213Y-79336884D01*
X143718213Y-79365247D01*
X143698515Y-79391807D01*
X143676308Y-79416308D01*
X143651807Y-79438515D01*
X143625247Y-79458213D01*
X143596884Y-79475213D01*
X143566991Y-79489351D01*
X143535857Y-79500491D01*
X143503781Y-79508525D01*
X143471071Y-79513377D01*
X143438044Y-79515000D01*
X142311956Y-79515000D01*
X142278929Y-79513377D01*
X142246219Y-79508525D01*
X142214143Y-79500491D01*
X142183009Y-79489351D01*
X142153116Y-79475213D01*
X142124753Y-79458213D01*
X142098193Y-79438515D01*
X142073692Y-79416308D01*
X142051485Y-79391807D01*
X142031787Y-79365247D01*
X142014787Y-79336884D01*
X142000649Y-79306991D01*
X141989509Y-79275857D01*
X141981475Y-79243781D01*
X141976623Y-79211071D01*
X141975000Y-79178044D01*
X141975000Y-78301956D01*
X141976623Y-78268929D01*
X141981475Y-78236219D01*
X141989509Y-78204143D01*
X142000649Y-78173009D01*
X142014787Y-78143116D01*
X142031787Y-78114753D01*
X142051485Y-78088193D01*
X142073692Y-78063692D01*
X142098193Y-78041485D01*
X142124753Y-78021787D01*
X142153116Y-78004787D01*
X142183009Y-77990649D01*
X142214143Y-77979509D01*
X142246219Y-77971475D01*
X142278929Y-77966623D01*
X142311956Y-77965000D01*
X143438044Y-77965000D01*
X143471071Y-77966623D01*
X143471071Y-77966623D01*
G37*
D13*
X142875000Y-78740000D03*
D12*
G36*
X143471071Y-80016623D02*
X143503781Y-80021475D01*
X143535857Y-80029509D01*
X143566991Y-80040649D01*
X143596884Y-80054787D01*
X143625247Y-80071787D01*
X143651807Y-80091485D01*
X143676308Y-80113692D01*
X143698515Y-80138193D01*
X143718213Y-80164753D01*
X143735213Y-80193116D01*
X143749351Y-80223009D01*
X143760491Y-80254143D01*
X143768525Y-80286219D01*
X143773377Y-80318929D01*
X143775000Y-80351956D01*
X143775000Y-81228044D01*
X143773377Y-81261071D01*
X143768525Y-81293781D01*
X143760491Y-81325857D01*
X143749351Y-81356991D01*
X143735213Y-81386884D01*
X143718213Y-81415247D01*
X143698515Y-81441807D01*
X143676308Y-81466308D01*
X143651807Y-81488515D01*
X143625247Y-81508213D01*
X143596884Y-81525213D01*
X143566991Y-81539351D01*
X143535857Y-81550491D01*
X143503781Y-81558525D01*
X143471071Y-81563377D01*
X143438044Y-81565000D01*
X142311956Y-81565000D01*
X142278929Y-81563377D01*
X142246219Y-81558525D01*
X142214143Y-81550491D01*
X142183009Y-81539351D01*
X142153116Y-81525213D01*
X142124753Y-81508213D01*
X142098193Y-81488515D01*
X142073692Y-81466308D01*
X142051485Y-81441807D01*
X142031787Y-81415247D01*
X142014787Y-81386884D01*
X142000649Y-81356991D01*
X141989509Y-81325857D01*
X141981475Y-81293781D01*
X141976623Y-81261071D01*
X141975000Y-81228044D01*
X141975000Y-80351956D01*
X141976623Y-80318929D01*
X141981475Y-80286219D01*
X141989509Y-80254143D01*
X142000649Y-80223009D01*
X142014787Y-80193116D01*
X142031787Y-80164753D01*
X142051485Y-80138193D01*
X142073692Y-80113692D01*
X142098193Y-80091485D01*
X142124753Y-80071787D01*
X142153116Y-80054787D01*
X142183009Y-80040649D01*
X142214143Y-80029509D01*
X142246219Y-80021475D01*
X142278929Y-80016623D01*
X142311956Y-80015000D01*
X143438044Y-80015000D01*
X143471071Y-80016623D01*
X143471071Y-80016623D01*
G37*
D13*
X142875000Y-80790000D03*
G04 #@! TD*
D27*
G04 #@! TO.C,RV1*
X42450000Y-100210000D03*
X44450000Y-92710000D03*
G04 #@! TD*
D14*
G04 #@! TO.C,D2*
X107315000Y-44450000D03*
X106045000Y-44450000D03*
X104775000Y-44450000D03*
D15*
X103505000Y-44450000D03*
G04 #@! TD*
D14*
G04 #@! TO.C,D3*
X94615000Y-44450000D03*
X93345000Y-44450000D03*
X92075000Y-44450000D03*
D15*
X90805000Y-44450000D03*
G04 #@! TD*
D14*
G04 #@! TO.C,D4*
X81915000Y-44450000D03*
X80645000Y-44450000D03*
X79375000Y-44450000D03*
D15*
X78105000Y-44450000D03*
G04 #@! TD*
D14*
G04 #@! TO.C,D5*
X69215000Y-44450000D03*
X67945000Y-44450000D03*
X66675000Y-44450000D03*
D15*
X65405000Y-44450000D03*
G04 #@! TD*
D14*
G04 #@! TO.C,D6*
X56515000Y-44450000D03*
X55245000Y-44450000D03*
X53975000Y-44450000D03*
D15*
X52705000Y-44450000D03*
G04 #@! TD*
D28*
G04 #@! TO.C,MH5*
X204470000Y-49530000D03*
G04 #@! TD*
G04 #@! TO.C,MH6*
X41910000Y-49530000D03*
G04 #@! TD*
D16*
G04 #@! TO.C,SW2*
X102965000Y-50800000D03*
X107465000Y-50800000D03*
X102965000Y-57300000D03*
X107465000Y-57300000D03*
G04 #@! TD*
G04 #@! TO.C,SW3*
X94765000Y-57300000D03*
X90265000Y-57300000D03*
X94765000Y-50800000D03*
X90265000Y-50800000D03*
G04 #@! TD*
G04 #@! TO.C,SW4*
X77415000Y-50800000D03*
X81915000Y-50800000D03*
X77415000Y-57300000D03*
X81915000Y-57300000D03*
G04 #@! TD*
G04 #@! TO.C,SW6*
X57205000Y-57300000D03*
X52705000Y-57300000D03*
X57205000Y-50800000D03*
X52705000Y-50800000D03*
G04 #@! TD*
D29*
G04 #@! TO.C,MH7*
X147320000Y-62230000D03*
G04 #@! TD*
G04 #@! TO.C,MH8*
X145415000Y-62230000D03*
G04 #@! TD*
G04 #@! TO.C,MH9*
X143510000Y-62230000D03*
G04 #@! TD*
G04 #@! TO.C,MH10*
X141605000Y-62230000D03*
G04 #@! TD*
D30*
G04 #@! TO.C,J1*
X52070000Y-144780000D03*
X57150000Y-144780000D03*
X62230000Y-144780000D03*
G04 #@! TD*
G04 #@! TO.C,J2*
X68580000Y-144780000D03*
X73660000Y-144780000D03*
X78740000Y-144780000D03*
G04 #@! TD*
G04 #@! TO.C,J3*
X95250000Y-144780000D03*
X90170000Y-144780000D03*
X85090000Y-144780000D03*
G04 #@! TD*
G04 #@! TO.C,J4*
X101600000Y-144780000D03*
X106680000Y-144780000D03*
X111760000Y-144780000D03*
G04 #@! TD*
G04 #@! TO.C,J5*
X118110000Y-144780000D03*
X123190000Y-144780000D03*
X128270000Y-144780000D03*
G04 #@! TD*
G04 #@! TO.C,J6*
X144780000Y-144780000D03*
X139700000Y-144780000D03*
X134620000Y-144780000D03*
G04 #@! TD*
G04 #@! TO.C,J7*
X161290000Y-144780000D03*
X156210000Y-144780000D03*
X151130000Y-144780000D03*
G04 #@! TD*
G04 #@! TO.C,J8*
X194310000Y-144780000D03*
X189230000Y-144780000D03*
X184150000Y-144780000D03*
G04 #@! TD*
M02*
