%TF.GenerationSoftware,KiCad,Pcbnew,(5.0.0)*%
%TF.CreationDate,2018-09-14T20:48:28+01:00*%
%TF.ProjectId,AquaHub,417175614875622E6B696361645F7063,rev?*%
%TF.SameCoordinates,Original*%
%TF.FileFunction,Legend,Top*%
%TF.FilePolarity,Positive*%
%FSLAX46Y46*%
G04 Gerber Fmt 4.6, Leading zero omitted, Abs format (unit mm)*
G04 Created by KiCad (PCBNEW (5.0.0)) date 09/14/18 20:48:28*
%MOMM*%
%LPD*%
G01*
G04 APERTURE LIST*
%ADD10C,0.300000*%
%ADD11C,0.080000*%
%ADD12C,0.200000*%
%ADD13C,0.120000*%
%ADD14C,0.150000*%
%ADD15C,0.500000*%
%ADD16C,0.050000*%
%ADD17C,0.010000*%
G04 APERTURE END LIST*
D10*
X199068571Y-92214000D02*
X198925714Y-92142571D01*
X198711428Y-92142571D01*
X198497142Y-92214000D01*
X198354285Y-92356857D01*
X198282857Y-92499714D01*
X198211428Y-92785428D01*
X198211428Y-92999714D01*
X198282857Y-93285428D01*
X198354285Y-93428285D01*
X198497142Y-93571142D01*
X198711428Y-93642571D01*
X198854285Y-93642571D01*
X199068571Y-93571142D01*
X199140000Y-93499714D01*
X199140000Y-92999714D01*
X198854285Y-92999714D01*
X200068571Y-92142571D02*
X200211428Y-92142571D01*
X200354285Y-92214000D01*
X200425714Y-92285428D01*
X200497142Y-92428285D01*
X200568571Y-92714000D01*
X200568571Y-93071142D01*
X200497142Y-93356857D01*
X200425714Y-93499714D01*
X200354285Y-93571142D01*
X200211428Y-93642571D01*
X200068571Y-93642571D01*
X199925714Y-93571142D01*
X199854285Y-93499714D01*
X199782857Y-93356857D01*
X199711428Y-93071142D01*
X199711428Y-92714000D01*
X199782857Y-92428285D01*
X199854285Y-92285428D01*
X199925714Y-92214000D01*
X200068571Y-92142571D01*
X198282857Y-95396857D02*
X198782857Y-95396857D01*
X198997142Y-96182571D02*
X198282857Y-96182571D01*
X198282857Y-94682571D01*
X198997142Y-94682571D01*
X199640000Y-96182571D02*
X199640000Y-94682571D01*
X200497142Y-96182571D01*
X200497142Y-94682571D01*
X197231142Y-131838000D02*
X197088285Y-131766571D01*
X196874000Y-131766571D01*
X196659714Y-131838000D01*
X196516857Y-131980857D01*
X196445428Y-132123714D01*
X196374000Y-132409428D01*
X196374000Y-132623714D01*
X196445428Y-132909428D01*
X196516857Y-133052285D01*
X196659714Y-133195142D01*
X196874000Y-133266571D01*
X197016857Y-133266571D01*
X197231142Y-133195142D01*
X197302571Y-133123714D01*
X197302571Y-132623714D01*
X197016857Y-132623714D01*
X197945428Y-133266571D02*
X197945428Y-131766571D01*
X198802571Y-133266571D01*
X198802571Y-131766571D01*
X199516857Y-133266571D02*
X199516857Y-131766571D01*
X199874000Y-131766571D01*
X200088285Y-131838000D01*
X200231142Y-131980857D01*
X200302571Y-132123714D01*
X200374000Y-132409428D01*
X200374000Y-132623714D01*
X200302571Y-132909428D01*
X200231142Y-133052285D01*
X200088285Y-133195142D01*
X199874000Y-133266571D01*
X199516857Y-133266571D01*
X196374000Y-136846571D02*
X196874000Y-138346571D01*
X197374000Y-136846571D01*
X198731142Y-138203714D02*
X198659714Y-138275142D01*
X198445428Y-138346571D01*
X198302571Y-138346571D01*
X198088285Y-138275142D01*
X197945428Y-138132285D01*
X197874000Y-137989428D01*
X197802571Y-137703714D01*
X197802571Y-137489428D01*
X197874000Y-137203714D01*
X197945428Y-137060857D01*
X198088285Y-136918000D01*
X198302571Y-136846571D01*
X198445428Y-136846571D01*
X198659714Y-136918000D01*
X198731142Y-136989428D01*
X200231142Y-138203714D02*
X200159714Y-138275142D01*
X199945428Y-138346571D01*
X199802571Y-138346571D01*
X199588285Y-138275142D01*
X199445428Y-138132285D01*
X199374000Y-137989428D01*
X199302571Y-137703714D01*
X199302571Y-137489428D01*
X199374000Y-137203714D01*
X199445428Y-137060857D01*
X199588285Y-136918000D01*
X199802571Y-136846571D01*
X199945428Y-136846571D01*
X200159714Y-136918000D01*
X200231142Y-136989428D01*
X204791571Y-137842285D02*
X204791571Y-136985142D01*
X206291571Y-137413714D02*
X204791571Y-137413714D01*
X205505857Y-136485142D02*
X205505857Y-135985142D01*
X206291571Y-135770857D02*
X206291571Y-136485142D01*
X204791571Y-136485142D01*
X204791571Y-135770857D01*
X206291571Y-135128000D02*
X204791571Y-135128000D01*
X205863000Y-134628000D01*
X204791571Y-134128000D01*
X206291571Y-134128000D01*
X206291571Y-133413714D02*
X204791571Y-133413714D01*
X204791571Y-132842285D01*
X204863000Y-132699428D01*
X204934428Y-132628000D01*
X205077285Y-132556571D01*
X205291571Y-132556571D01*
X205434428Y-132628000D01*
X205505857Y-132699428D01*
X205577285Y-132842285D01*
X205577285Y-133413714D01*
X197231142Y-120662000D02*
X197088285Y-120590571D01*
X196874000Y-120590571D01*
X196659714Y-120662000D01*
X196516857Y-120804857D01*
X196445428Y-120947714D01*
X196374000Y-121233428D01*
X196374000Y-121447714D01*
X196445428Y-121733428D01*
X196516857Y-121876285D01*
X196659714Y-122019142D01*
X196874000Y-122090571D01*
X197016857Y-122090571D01*
X197231142Y-122019142D01*
X197302571Y-121947714D01*
X197302571Y-121447714D01*
X197016857Y-121447714D01*
X197945428Y-122090571D02*
X197945428Y-120590571D01*
X198802571Y-122090571D01*
X198802571Y-120590571D01*
X199516857Y-122090571D02*
X199516857Y-120590571D01*
X199874000Y-120590571D01*
X200088285Y-120662000D01*
X200231142Y-120804857D01*
X200302571Y-120947714D01*
X200374000Y-121233428D01*
X200374000Y-121447714D01*
X200302571Y-121733428D01*
X200231142Y-121876285D01*
X200088285Y-122019142D01*
X199874000Y-122090571D01*
X199516857Y-122090571D01*
X196374000Y-125670571D02*
X196874000Y-127170571D01*
X197374000Y-125670571D01*
X198731142Y-127027714D02*
X198659714Y-127099142D01*
X198445428Y-127170571D01*
X198302571Y-127170571D01*
X198088285Y-127099142D01*
X197945428Y-126956285D01*
X197874000Y-126813428D01*
X197802571Y-126527714D01*
X197802571Y-126313428D01*
X197874000Y-126027714D01*
X197945428Y-125884857D01*
X198088285Y-125742000D01*
X198302571Y-125670571D01*
X198445428Y-125670571D01*
X198659714Y-125742000D01*
X198731142Y-125813428D01*
X200231142Y-127027714D02*
X200159714Y-127099142D01*
X199945428Y-127170571D01*
X199802571Y-127170571D01*
X199588285Y-127099142D01*
X199445428Y-126956285D01*
X199374000Y-126813428D01*
X199302571Y-126527714D01*
X199302571Y-126313428D01*
X199374000Y-126027714D01*
X199445428Y-125884857D01*
X199588285Y-125742000D01*
X199802571Y-125670571D01*
X199945428Y-125670571D01*
X200159714Y-125742000D01*
X200231142Y-125813428D01*
D11*
X171958000Y-133985000D02*
X171958000Y-120650000D01*
X162433000Y-133985000D02*
X171958000Y-133985000D01*
X162433000Y-120650000D02*
X162433000Y-133985000D01*
X171958000Y-120650000D02*
X162433000Y-120650000D01*
D10*
X170009428Y-131595285D02*
X169938000Y-131523857D01*
X169866571Y-131381000D01*
X169866571Y-131023857D01*
X169938000Y-130881000D01*
X170009428Y-130809571D01*
X170152285Y-130738142D01*
X170295142Y-130738142D01*
X170509428Y-130809571D01*
X171366571Y-131666714D01*
X171366571Y-130738142D01*
X170938000Y-130166714D02*
X170938000Y-129452428D01*
X171366571Y-130309571D02*
X169866571Y-129809571D01*
X171366571Y-129309571D01*
X170580857Y-127166714D02*
X170580857Y-127666714D01*
X171366571Y-127666714D02*
X169866571Y-127666714D01*
X169866571Y-126952428D01*
X170366571Y-125738142D02*
X171366571Y-125738142D01*
X170366571Y-126381000D02*
X171152285Y-126381000D01*
X171295142Y-126309571D01*
X171366571Y-126166714D01*
X171366571Y-125952428D01*
X171295142Y-125809571D01*
X171223714Y-125738142D01*
X171295142Y-125095285D02*
X171366571Y-124952428D01*
X171366571Y-124666714D01*
X171295142Y-124523857D01*
X171152285Y-124452428D01*
X171080857Y-124452428D01*
X170938000Y-124523857D01*
X170866571Y-124666714D01*
X170866571Y-124881000D01*
X170795142Y-125023857D01*
X170652285Y-125095285D01*
X170580857Y-125095285D01*
X170438000Y-125023857D01*
X170366571Y-124881000D01*
X170366571Y-124666714D01*
X170438000Y-124523857D01*
X171295142Y-123238142D02*
X171366571Y-123381000D01*
X171366571Y-123666714D01*
X171295142Y-123809571D01*
X171152285Y-123881000D01*
X170580857Y-123881000D01*
X170438000Y-123809571D01*
X170366571Y-123666714D01*
X170366571Y-123381000D01*
X170438000Y-123238142D01*
X170580857Y-123166714D01*
X170723714Y-123166714D01*
X170866571Y-123881000D01*
X161834285Y-61835000D02*
X162548571Y-61835000D01*
X161691428Y-62263571D02*
X162191428Y-60763571D01*
X162691428Y-62263571D01*
X163834285Y-61263571D02*
X163834285Y-62763571D01*
X163834285Y-62192142D02*
X163691428Y-62263571D01*
X163405714Y-62263571D01*
X163262857Y-62192142D01*
X163191428Y-62120714D01*
X163120000Y-61977857D01*
X163120000Y-61549285D01*
X163191428Y-61406428D01*
X163262857Y-61335000D01*
X163405714Y-61263571D01*
X163691428Y-61263571D01*
X163834285Y-61335000D01*
X165191428Y-61263571D02*
X165191428Y-62263571D01*
X164548571Y-61263571D02*
X164548571Y-62049285D01*
X164620000Y-62192142D01*
X164762857Y-62263571D01*
X164977142Y-62263571D01*
X165120000Y-62192142D01*
X165191428Y-62120714D01*
X166548571Y-62263571D02*
X166548571Y-61477857D01*
X166477142Y-61335000D01*
X166334285Y-61263571D01*
X166048571Y-61263571D01*
X165905714Y-61335000D01*
X166548571Y-62192142D02*
X166405714Y-62263571D01*
X166048571Y-62263571D01*
X165905714Y-62192142D01*
X165834285Y-62049285D01*
X165834285Y-61906428D01*
X165905714Y-61763571D01*
X166048571Y-61692142D01*
X166405714Y-61692142D01*
X166548571Y-61620714D01*
X167262857Y-62263571D02*
X167262857Y-60763571D01*
X167262857Y-61477857D02*
X168120000Y-61477857D01*
X168120000Y-62263571D02*
X168120000Y-60763571D01*
X169477142Y-61263571D02*
X169477142Y-62263571D01*
X168834285Y-61263571D02*
X168834285Y-62049285D01*
X168905714Y-62192142D01*
X169048571Y-62263571D01*
X169262857Y-62263571D01*
X169405714Y-62192142D01*
X169477142Y-62120714D01*
X170191428Y-62263571D02*
X170191428Y-60763571D01*
X170191428Y-61335000D02*
X170334285Y-61263571D01*
X170620000Y-61263571D01*
X170762857Y-61335000D01*
X170834285Y-61406428D01*
X170905714Y-61549285D01*
X170905714Y-61977857D01*
X170834285Y-62120714D01*
X170762857Y-62192142D01*
X170620000Y-62263571D01*
X170334285Y-62263571D01*
X170191428Y-62192142D01*
X160155714Y-64813571D02*
X160155714Y-63313571D01*
X160727142Y-63313571D01*
X160870000Y-63385000D01*
X160941428Y-63456428D01*
X161012857Y-63599285D01*
X161012857Y-63813571D01*
X160941428Y-63956428D01*
X160870000Y-64027857D01*
X160727142Y-64099285D01*
X160155714Y-64099285D01*
X161870000Y-64813571D02*
X161727142Y-64742142D01*
X161655714Y-64670714D01*
X161584285Y-64527857D01*
X161584285Y-64099285D01*
X161655714Y-63956428D01*
X161727142Y-63885000D01*
X161870000Y-63813571D01*
X162084285Y-63813571D01*
X162227142Y-63885000D01*
X162298571Y-63956428D01*
X162370000Y-64099285D01*
X162370000Y-64527857D01*
X162298571Y-64670714D01*
X162227142Y-64742142D01*
X162084285Y-64813571D01*
X161870000Y-64813571D01*
X162870000Y-63813571D02*
X163155714Y-64813571D01*
X163441428Y-64099285D01*
X163727142Y-64813571D01*
X164012857Y-63813571D01*
X165155714Y-64742142D02*
X165012857Y-64813571D01*
X164727142Y-64813571D01*
X164584285Y-64742142D01*
X164512857Y-64599285D01*
X164512857Y-64027857D01*
X164584285Y-63885000D01*
X164727142Y-63813571D01*
X165012857Y-63813571D01*
X165155714Y-63885000D01*
X165227142Y-64027857D01*
X165227142Y-64170714D01*
X164512857Y-64313571D01*
X165870000Y-64813571D02*
X165870000Y-63813571D01*
X165870000Y-64099285D02*
X165941428Y-63956428D01*
X166012857Y-63885000D01*
X166155714Y-63813571D01*
X166298571Y-63813571D01*
X167298571Y-64027857D02*
X167512857Y-64099285D01*
X167584285Y-64170714D01*
X167655714Y-64313571D01*
X167655714Y-64527857D01*
X167584285Y-64670714D01*
X167512857Y-64742142D01*
X167370000Y-64813571D01*
X166798571Y-64813571D01*
X166798571Y-63313571D01*
X167298571Y-63313571D01*
X167441428Y-63385000D01*
X167512857Y-63456428D01*
X167584285Y-63599285D01*
X167584285Y-63742142D01*
X167512857Y-63885000D01*
X167441428Y-63956428D01*
X167298571Y-64027857D01*
X166798571Y-64027857D01*
X168512857Y-64813571D02*
X168370000Y-64742142D01*
X168298571Y-64670714D01*
X168227142Y-64527857D01*
X168227142Y-64099285D01*
X168298571Y-63956428D01*
X168370000Y-63885000D01*
X168512857Y-63813571D01*
X168727142Y-63813571D01*
X168870000Y-63885000D01*
X168941428Y-63956428D01*
X169012857Y-64099285D01*
X169012857Y-64527857D01*
X168941428Y-64670714D01*
X168870000Y-64742142D01*
X168727142Y-64813571D01*
X168512857Y-64813571D01*
X170298571Y-64813571D02*
X170298571Y-64027857D01*
X170227142Y-63885000D01*
X170084285Y-63813571D01*
X169798571Y-63813571D01*
X169655714Y-63885000D01*
X170298571Y-64742142D02*
X170155714Y-64813571D01*
X169798571Y-64813571D01*
X169655714Y-64742142D01*
X169584285Y-64599285D01*
X169584285Y-64456428D01*
X169655714Y-64313571D01*
X169798571Y-64242142D01*
X170155714Y-64242142D01*
X170298571Y-64170714D01*
X171012857Y-64813571D02*
X171012857Y-63813571D01*
X171012857Y-64099285D02*
X171084285Y-63956428D01*
X171155714Y-63885000D01*
X171298571Y-63813571D01*
X171441428Y-63813571D01*
X172584285Y-64813571D02*
X172584285Y-63313571D01*
X172584285Y-64742142D02*
X172441428Y-64813571D01*
X172155714Y-64813571D01*
X172012857Y-64742142D01*
X171941428Y-64670714D01*
X171870000Y-64527857D01*
X171870000Y-64099285D01*
X171941428Y-63956428D01*
X172012857Y-63885000D01*
X172155714Y-63813571D01*
X172441428Y-63813571D01*
X172584285Y-63885000D01*
X164227142Y-66363571D02*
X164584285Y-67363571D01*
X164941428Y-66363571D01*
X166298571Y-67363571D02*
X165441428Y-67363571D01*
X165870000Y-67363571D02*
X165870000Y-65863571D01*
X165727142Y-66077857D01*
X165584285Y-66220714D01*
X165441428Y-66292142D01*
X166941428Y-67220714D02*
X167012857Y-67292142D01*
X166941428Y-67363571D01*
X166870000Y-67292142D01*
X166941428Y-67220714D01*
X166941428Y-67363571D01*
X167941428Y-65863571D02*
X168084285Y-65863571D01*
X168227142Y-65935000D01*
X168298571Y-66006428D01*
X168370000Y-66149285D01*
X168441428Y-66435000D01*
X168441428Y-66792142D01*
X168370000Y-67077857D01*
X168298571Y-67220714D01*
X168227142Y-67292142D01*
X168084285Y-67363571D01*
X167941428Y-67363571D01*
X167798571Y-67292142D01*
X167727142Y-67220714D01*
X167655714Y-67077857D01*
X167584285Y-66792142D01*
X167584285Y-66435000D01*
X167655714Y-66149285D01*
X167727142Y-66006428D01*
X167798571Y-65935000D01*
X167941428Y-65863571D01*
D12*
X126621904Y-100782380D02*
X126050476Y-100782380D01*
X126336190Y-100782380D02*
X126336190Y-99782380D01*
X126240952Y-99925238D01*
X126145714Y-100020476D01*
X126050476Y-100068095D01*
X127002857Y-99877619D02*
X127050476Y-99830000D01*
X127145714Y-99782380D01*
X127383809Y-99782380D01*
X127479047Y-99830000D01*
X127526666Y-99877619D01*
X127574285Y-99972857D01*
X127574285Y-100068095D01*
X127526666Y-100210952D01*
X126955238Y-100782380D01*
X127574285Y-100782380D01*
X127860000Y-99782380D02*
X128193333Y-100782380D01*
X128526666Y-99782380D01*
D11*
X121920000Y-84455000D02*
G75*
G02X121285000Y-83820000I0J635000D01*
G01*
X121285000Y-103505000D02*
G75*
G02X121920000Y-102870000I635000J0D01*
G01*
X121285000Y-83820000D02*
X121285000Y-80645000D01*
X129540000Y-84455000D02*
X121920000Y-84455000D01*
X129540000Y-102870000D02*
X129540000Y-84455000D01*
X121920000Y-102870000D02*
X129540000Y-102870000D01*
D12*
X126002857Y-90892380D02*
X126621904Y-90892380D01*
X126288571Y-91273333D01*
X126431428Y-91273333D01*
X126526666Y-91320952D01*
X126574285Y-91368571D01*
X126621904Y-91463809D01*
X126621904Y-91701904D01*
X126574285Y-91797142D01*
X126526666Y-91844761D01*
X126431428Y-91892380D01*
X126145714Y-91892380D01*
X126050476Y-91844761D01*
X126002857Y-91797142D01*
X127050476Y-91797142D02*
X127098095Y-91844761D01*
X127050476Y-91892380D01*
X127002857Y-91844761D01*
X127050476Y-91797142D01*
X127050476Y-91892380D01*
X127431428Y-90892380D02*
X128050476Y-90892380D01*
X127717142Y-91273333D01*
X127860000Y-91273333D01*
X127955238Y-91320952D01*
X128002857Y-91368571D01*
X128050476Y-91463809D01*
X128050476Y-91701904D01*
X128002857Y-91797142D01*
X127955238Y-91844761D01*
X127860000Y-91892380D01*
X127574285Y-91892380D01*
X127479047Y-91844761D01*
X127431428Y-91797142D01*
X128336190Y-90892380D02*
X128669523Y-91892380D01*
X129002857Y-90892380D01*
X126621904Y-86495000D02*
X126526666Y-86447380D01*
X126383809Y-86447380D01*
X126240952Y-86495000D01*
X126145714Y-86590238D01*
X126098095Y-86685476D01*
X126050476Y-86875952D01*
X126050476Y-87018809D01*
X126098095Y-87209285D01*
X126145714Y-87304523D01*
X126240952Y-87399761D01*
X126383809Y-87447380D01*
X126479047Y-87447380D01*
X126621904Y-87399761D01*
X126669523Y-87352142D01*
X126669523Y-87018809D01*
X126479047Y-87018809D01*
X127098095Y-87447380D02*
X127098095Y-86447380D01*
X127669523Y-87447380D01*
X127669523Y-86447380D01*
X128145714Y-87447380D02*
X128145714Y-86447380D01*
X128383809Y-86447380D01*
X128526666Y-86495000D01*
X128621904Y-86590238D01*
X128669523Y-86685476D01*
X128717142Y-86875952D01*
X128717142Y-87018809D01*
X128669523Y-87209285D01*
X128621904Y-87304523D01*
X128526666Y-87399761D01*
X128383809Y-87447380D01*
X128145714Y-87447380D01*
X126574285Y-95337380D02*
X126098095Y-95337380D01*
X126050476Y-95813571D01*
X126098095Y-95765952D01*
X126193333Y-95718333D01*
X126431428Y-95718333D01*
X126526666Y-95765952D01*
X126574285Y-95813571D01*
X126621904Y-95908809D01*
X126621904Y-96146904D01*
X126574285Y-96242142D01*
X126526666Y-96289761D01*
X126431428Y-96337380D01*
X126193333Y-96337380D01*
X126098095Y-96289761D01*
X126050476Y-96242142D01*
X126907619Y-95337380D02*
X127240952Y-96337380D01*
X127574285Y-95337380D01*
D11*
X149860000Y-126365000D02*
X149860000Y-107315000D01*
X160655000Y-126365000D02*
X149860000Y-126365000D01*
X160655000Y-107315000D02*
X160655000Y-126365000D01*
X149860000Y-107315000D02*
X160655000Y-107315000D01*
X152400000Y-102235000D02*
X152400000Y-90170000D01*
X166370000Y-102235000D02*
X152400000Y-102235000D01*
X166370000Y-90170000D02*
X166370000Y-102235000D01*
X152400000Y-90170000D02*
X166370000Y-90170000D01*
D10*
X151983214Y-123709000D02*
X152054642Y-123780428D01*
X152126071Y-123994714D01*
X152126071Y-124137571D01*
X152054642Y-124351857D01*
X151911785Y-124494714D01*
X151768928Y-124566142D01*
X151483214Y-124637571D01*
X151268928Y-124637571D01*
X150983214Y-124566142D01*
X150840357Y-124494714D01*
X150697500Y-124351857D01*
X150626071Y-124137571D01*
X150626071Y-123994714D01*
X150697500Y-123780428D01*
X150768928Y-123709000D01*
X151126071Y-122423285D02*
X152126071Y-122423285D01*
X151126071Y-123066142D02*
X151911785Y-123066142D01*
X152054642Y-122994714D01*
X152126071Y-122851857D01*
X152126071Y-122637571D01*
X152054642Y-122494714D01*
X151983214Y-122423285D01*
X152126071Y-121709000D02*
X151126071Y-121709000D01*
X151411785Y-121709000D02*
X151268928Y-121637571D01*
X151197500Y-121566142D01*
X151126071Y-121423285D01*
X151126071Y-121280428D01*
X152126071Y-120780428D02*
X151126071Y-120780428D01*
X151411785Y-120780428D02*
X151268928Y-120709000D01*
X151197500Y-120637571D01*
X151126071Y-120494714D01*
X151126071Y-120351857D01*
X152054642Y-119280428D02*
X152126071Y-119423285D01*
X152126071Y-119709000D01*
X152054642Y-119851857D01*
X151911785Y-119923285D01*
X151340357Y-119923285D01*
X151197500Y-119851857D01*
X151126071Y-119709000D01*
X151126071Y-119423285D01*
X151197500Y-119280428D01*
X151340357Y-119209000D01*
X151483214Y-119209000D01*
X151626071Y-119923285D01*
X151126071Y-118566142D02*
X152126071Y-118566142D01*
X151268928Y-118566142D02*
X151197500Y-118494714D01*
X151126071Y-118351857D01*
X151126071Y-118137571D01*
X151197500Y-117994714D01*
X151340357Y-117923285D01*
X152126071Y-117923285D01*
X151126071Y-117423285D02*
X151126071Y-116851857D01*
X150626071Y-117209000D02*
X151911785Y-117209000D01*
X152054642Y-117137571D01*
X152126071Y-116994714D01*
X152126071Y-116851857D01*
X152054642Y-115280428D02*
X152126071Y-115066142D01*
X152126071Y-114709000D01*
X152054642Y-114566142D01*
X151983214Y-114494714D01*
X151840357Y-114423285D01*
X151697500Y-114423285D01*
X151554642Y-114494714D01*
X151483214Y-114566142D01*
X151411785Y-114709000D01*
X151340357Y-114994714D01*
X151268928Y-115137571D01*
X151197500Y-115209000D01*
X151054642Y-115280428D01*
X150911785Y-115280428D01*
X150768928Y-115209000D01*
X150697500Y-115137571D01*
X150626071Y-114994714D01*
X150626071Y-114637571D01*
X150697500Y-114423285D01*
X152054642Y-113209000D02*
X152126071Y-113351857D01*
X152126071Y-113637571D01*
X152054642Y-113780428D01*
X151911785Y-113851857D01*
X151340357Y-113851857D01*
X151197500Y-113780428D01*
X151126071Y-113637571D01*
X151126071Y-113351857D01*
X151197500Y-113209000D01*
X151340357Y-113137571D01*
X151483214Y-113137571D01*
X151626071Y-113851857D01*
X151126071Y-112494714D02*
X152126071Y-112494714D01*
X151268928Y-112494714D02*
X151197500Y-112423285D01*
X151126071Y-112280428D01*
X151126071Y-112066142D01*
X151197500Y-111923285D01*
X151340357Y-111851857D01*
X152126071Y-111851857D01*
X152054642Y-111209000D02*
X152126071Y-111066142D01*
X152126071Y-110780428D01*
X152054642Y-110637571D01*
X151911785Y-110566142D01*
X151840357Y-110566142D01*
X151697500Y-110637571D01*
X151626071Y-110780428D01*
X151626071Y-110994714D01*
X151554642Y-111137571D01*
X151411785Y-111209000D01*
X151340357Y-111209000D01*
X151197500Y-111137571D01*
X151126071Y-110994714D01*
X151126071Y-110780428D01*
X151197500Y-110637571D01*
X152126071Y-109709000D02*
X152054642Y-109851857D01*
X151983214Y-109923285D01*
X151840357Y-109994714D01*
X151411785Y-109994714D01*
X151268928Y-109923285D01*
X151197500Y-109851857D01*
X151126071Y-109709000D01*
X151126071Y-109494714D01*
X151197500Y-109351857D01*
X151268928Y-109280428D01*
X151411785Y-109209000D01*
X151840357Y-109209000D01*
X151983214Y-109280428D01*
X152054642Y-109351857D01*
X152126071Y-109494714D01*
X152126071Y-109709000D01*
X152126071Y-108566142D02*
X151126071Y-108566142D01*
X151411785Y-108566142D02*
X151268928Y-108494714D01*
X151197500Y-108423285D01*
X151126071Y-108280428D01*
X151126071Y-108137571D01*
D11*
X92710000Y-80645000D02*
X92646500Y-85471000D01*
X121285000Y-106680000D02*
X90678000Y-106680000D01*
X121285000Y-103505000D02*
X121285000Y-106680000D01*
X92710000Y-80645000D02*
X121285000Y-80645000D01*
D10*
X98973999Y-94722071D02*
X98973999Y-93222071D01*
X99545428Y-93222071D01*
X99688285Y-93293500D01*
X99759714Y-93364928D01*
X99831142Y-93507785D01*
X99831142Y-93722071D01*
X99759714Y-93864928D01*
X99688285Y-93936357D01*
X99545428Y-94007785D01*
X98973999Y-94007785D01*
X100688285Y-94722071D02*
X100545428Y-94650642D01*
X100473999Y-94579214D01*
X100402571Y-94436357D01*
X100402571Y-94007785D01*
X100473999Y-93864928D01*
X100545428Y-93793500D01*
X100688285Y-93722071D01*
X100902571Y-93722071D01*
X101045428Y-93793500D01*
X101116857Y-93864928D01*
X101188285Y-94007785D01*
X101188285Y-94436357D01*
X101116857Y-94579214D01*
X101045428Y-94650642D01*
X100902571Y-94722071D01*
X100688285Y-94722071D01*
X101688285Y-93722071D02*
X101973999Y-94722071D01*
X102259714Y-94007785D01*
X102545428Y-94722071D01*
X102831142Y-93722071D01*
X103973999Y-94650642D02*
X103831142Y-94722071D01*
X103545428Y-94722071D01*
X103402571Y-94650642D01*
X103331142Y-94507785D01*
X103331142Y-93936357D01*
X103402571Y-93793500D01*
X103545428Y-93722071D01*
X103831142Y-93722071D01*
X103973999Y-93793500D01*
X104045428Y-93936357D01*
X104045428Y-94079214D01*
X103331142Y-94222071D01*
X104688285Y-94722071D02*
X104688285Y-93722071D01*
X104688285Y-94007785D02*
X104759714Y-93864928D01*
X104831142Y-93793500D01*
X104973999Y-93722071D01*
X105116857Y-93722071D01*
X106759714Y-94722071D02*
X106759714Y-93222071D01*
X107259714Y-94293500D01*
X107759714Y-93222071D01*
X107759714Y-94722071D01*
X109116857Y-94722071D02*
X109116857Y-93936357D01*
X109045428Y-93793500D01*
X108902571Y-93722071D01*
X108616857Y-93722071D01*
X108473999Y-93793500D01*
X109116857Y-94650642D02*
X108973999Y-94722071D01*
X108616857Y-94722071D01*
X108473999Y-94650642D01*
X108402571Y-94507785D01*
X108402571Y-94364928D01*
X108473999Y-94222071D01*
X108616857Y-94150642D01*
X108973999Y-94150642D01*
X109116857Y-94079214D01*
X109831142Y-93722071D02*
X109831142Y-94722071D01*
X109831142Y-93864928D02*
X109902571Y-93793500D01*
X110045428Y-93722071D01*
X110259714Y-93722071D01*
X110402571Y-93793500D01*
X110473999Y-93936357D01*
X110473999Y-94722071D01*
X111831142Y-94722071D02*
X111831142Y-93936357D01*
X111759714Y-93793500D01*
X111616857Y-93722071D01*
X111331142Y-93722071D01*
X111188285Y-93793500D01*
X111831142Y-94650642D02*
X111688285Y-94722071D01*
X111331142Y-94722071D01*
X111188285Y-94650642D01*
X111116857Y-94507785D01*
X111116857Y-94364928D01*
X111188285Y-94222071D01*
X111331142Y-94150642D01*
X111688285Y-94150642D01*
X111831142Y-94079214D01*
X113188285Y-93722071D02*
X113188285Y-94936357D01*
X113116857Y-95079214D01*
X113045428Y-95150642D01*
X112902571Y-95222071D01*
X112688285Y-95222071D01*
X112545428Y-95150642D01*
X113188285Y-94650642D02*
X113045428Y-94722071D01*
X112759714Y-94722071D01*
X112616857Y-94650642D01*
X112545428Y-94579214D01*
X112473999Y-94436357D01*
X112473999Y-94007785D01*
X112545428Y-93864928D01*
X112616857Y-93793500D01*
X112759714Y-93722071D01*
X113045428Y-93722071D01*
X113188285Y-93793500D01*
X114473999Y-94650642D02*
X114331142Y-94722071D01*
X114045428Y-94722071D01*
X113902571Y-94650642D01*
X113831142Y-94507785D01*
X113831142Y-93936357D01*
X113902571Y-93793500D01*
X114045428Y-93722071D01*
X114331142Y-93722071D01*
X114473999Y-93793500D01*
X114545428Y-93936357D01*
X114545428Y-94079214D01*
X113831142Y-94222071D01*
X115188285Y-94722071D02*
X115188285Y-93722071D01*
X115188285Y-93864928D02*
X115259714Y-93793500D01*
X115402571Y-93722071D01*
X115616857Y-93722071D01*
X115759714Y-93793500D01*
X115831142Y-93936357D01*
X115831142Y-94722071D01*
X115831142Y-93936357D02*
X115902571Y-93793500D01*
X116045428Y-93722071D01*
X116259714Y-93722071D01*
X116402571Y-93793500D01*
X116473999Y-93936357D01*
X116473999Y-94722071D01*
X117759714Y-94650642D02*
X117616857Y-94722071D01*
X117331142Y-94722071D01*
X117188285Y-94650642D01*
X117116857Y-94507785D01*
X117116857Y-93936357D01*
X117188285Y-93793500D01*
X117331142Y-93722071D01*
X117616857Y-93722071D01*
X117759714Y-93793500D01*
X117831142Y-93936357D01*
X117831142Y-94079214D01*
X117116857Y-94222071D01*
X118473999Y-93722071D02*
X118473999Y-94722071D01*
X118473999Y-93864928D02*
X118545428Y-93793500D01*
X118688285Y-93722071D01*
X118902571Y-93722071D01*
X119045428Y-93793500D01*
X119116857Y-93936357D01*
X119116857Y-94722071D01*
X119616857Y-93722071D02*
X120188285Y-93722071D01*
X119831142Y-93222071D02*
X119831142Y-94507785D01*
X119902571Y-94650642D01*
X120045428Y-94722071D01*
X120188285Y-94722071D01*
X154534071Y-97769928D02*
X153819785Y-98269928D01*
X154534071Y-98627071D02*
X153034071Y-98627071D01*
X153034071Y-98055642D01*
X153105500Y-97912785D01*
X153176928Y-97841357D01*
X153319785Y-97769928D01*
X153534071Y-97769928D01*
X153676928Y-97841357D01*
X153748357Y-97912785D01*
X153819785Y-98055642D01*
X153819785Y-98627071D01*
X154462642Y-96555642D02*
X154534071Y-96698500D01*
X154534071Y-96984214D01*
X154462642Y-97127071D01*
X154319785Y-97198500D01*
X153748357Y-97198500D01*
X153605500Y-97127071D01*
X153534071Y-96984214D01*
X153534071Y-96698500D01*
X153605500Y-96555642D01*
X153748357Y-96484214D01*
X153891214Y-96484214D01*
X154034071Y-97198500D01*
X154534071Y-95627071D02*
X154462642Y-95769928D01*
X154319785Y-95841357D01*
X153034071Y-95841357D01*
X154534071Y-94412785D02*
X153748357Y-94412785D01*
X153605500Y-94484214D01*
X153534071Y-94627071D01*
X153534071Y-94912785D01*
X153605500Y-95055642D01*
X154462642Y-94412785D02*
X154534071Y-94555642D01*
X154534071Y-94912785D01*
X154462642Y-95055642D01*
X154319785Y-95127071D01*
X154176928Y-95127071D01*
X154034071Y-95055642D01*
X153962642Y-94912785D01*
X153962642Y-94555642D01*
X153891214Y-94412785D01*
X153534071Y-93841357D02*
X154534071Y-93484214D01*
X153534071Y-93127071D02*
X154534071Y-93484214D01*
X154891214Y-93627071D01*
X154962642Y-93698500D01*
X155034071Y-93841357D01*
X157084071Y-98841357D02*
X155584071Y-98841357D01*
X155584071Y-98484214D01*
X155655500Y-98269928D01*
X155798357Y-98127071D01*
X155941214Y-98055642D01*
X156226928Y-97984214D01*
X156441214Y-97984214D01*
X156726928Y-98055642D01*
X156869785Y-98127071D01*
X157012642Y-98269928D01*
X157084071Y-98484214D01*
X157084071Y-98841357D01*
X157084071Y-97341357D02*
X156084071Y-97341357D01*
X156369785Y-97341357D02*
X156226928Y-97269928D01*
X156155500Y-97198500D01*
X156084071Y-97055642D01*
X156084071Y-96912785D01*
X157084071Y-96412785D02*
X156084071Y-96412785D01*
X155584071Y-96412785D02*
X155655500Y-96484214D01*
X155726928Y-96412785D01*
X155655500Y-96341357D01*
X155584071Y-96412785D01*
X155726928Y-96412785D01*
X156084071Y-95841357D02*
X157084071Y-95484214D01*
X156084071Y-95127071D01*
X157012642Y-93984214D02*
X157084071Y-94127071D01*
X157084071Y-94412785D01*
X157012642Y-94555642D01*
X156869785Y-94627071D01*
X156298357Y-94627071D01*
X156155500Y-94555642D01*
X156084071Y-94412785D01*
X156084071Y-94127071D01*
X156155500Y-93984214D01*
X156298357Y-93912785D01*
X156441214Y-93912785D01*
X156584071Y-94627071D01*
X157084071Y-93269928D02*
X156084071Y-93269928D01*
X156369785Y-93269928D02*
X156226928Y-93198500D01*
X156155500Y-93127071D01*
X156084071Y-92984214D01*
X156084071Y-92841357D01*
X54824285Y-54502857D02*
X54324285Y-54502857D01*
X54324285Y-55288571D02*
X54324285Y-53788571D01*
X55038571Y-53788571D01*
X66988571Y-54502857D02*
X67488571Y-54502857D01*
X67702857Y-55288571D02*
X66988571Y-55288571D01*
X66988571Y-53788571D01*
X67702857Y-53788571D01*
X79617142Y-55288571D02*
X79617142Y-53788571D01*
X79974285Y-53788571D01*
X80188571Y-53860000D01*
X80331428Y-54002857D01*
X80402857Y-54145714D01*
X80474285Y-54431428D01*
X80474285Y-54645714D01*
X80402857Y-54931428D01*
X80331428Y-55074285D01*
X80188571Y-55217142D01*
X79974285Y-55288571D01*
X79617142Y-55288571D01*
X93174285Y-55145714D02*
X93102857Y-55217142D01*
X92888571Y-55288571D01*
X92745714Y-55288571D01*
X92531428Y-55217142D01*
X92388571Y-55074285D01*
X92317142Y-54931428D01*
X92245714Y-54645714D01*
X92245714Y-54431428D01*
X92317142Y-54145714D01*
X92388571Y-54002857D01*
X92531428Y-53860000D01*
X92745714Y-53788571D01*
X92888571Y-53788571D01*
X93102857Y-53860000D01*
X93174285Y-53931428D01*
X105517142Y-54502857D02*
X105731428Y-54574285D01*
X105802857Y-54645714D01*
X105874285Y-54788571D01*
X105874285Y-55002857D01*
X105802857Y-55145714D01*
X105731428Y-55217142D01*
X105588571Y-55288571D01*
X105017142Y-55288571D01*
X105017142Y-53788571D01*
X105517142Y-53788571D01*
X105660000Y-53860000D01*
X105731428Y-53931428D01*
X105802857Y-54074285D01*
X105802857Y-54217142D01*
X105731428Y-54360000D01*
X105660000Y-54431428D01*
X105517142Y-54502857D01*
X105017142Y-54502857D01*
X117752857Y-54860000D02*
X118467142Y-54860000D01*
X117610000Y-55288571D02*
X118110000Y-53788571D01*
X118610000Y-55288571D01*
X205505857Y-125733714D02*
X205505857Y-126233714D01*
X206291571Y-126233714D02*
X204791571Y-126233714D01*
X204791571Y-125519428D01*
X206291571Y-124233714D02*
X206291571Y-124948000D01*
X204791571Y-124948000D01*
X204791571Y-123448000D02*
X204791571Y-123162285D01*
X204863000Y-123019428D01*
X205005857Y-122876571D01*
X205291571Y-122805142D01*
X205791571Y-122805142D01*
X206077285Y-122876571D01*
X206220142Y-123019428D01*
X206291571Y-123162285D01*
X206291571Y-123448000D01*
X206220142Y-123590857D01*
X206077285Y-123733714D01*
X205791571Y-123805142D01*
X205291571Y-123805142D01*
X205005857Y-123733714D01*
X204863000Y-123590857D01*
X204791571Y-123448000D01*
X204791571Y-122305142D02*
X206291571Y-121948000D01*
X205220142Y-121662285D01*
X206291571Y-121376571D01*
X204791571Y-121019428D01*
X205045571Y-99166857D02*
X206259857Y-99166857D01*
X206402714Y-99095428D01*
X206474142Y-99024000D01*
X206545571Y-98881142D01*
X206545571Y-98595428D01*
X206474142Y-98452571D01*
X206402714Y-98381142D01*
X206259857Y-98309714D01*
X205045571Y-98309714D01*
X206117000Y-97666857D02*
X206117000Y-96952571D01*
X206545571Y-97809714D02*
X205045571Y-97309714D01*
X206545571Y-96809714D01*
X206545571Y-95452571D02*
X205831285Y-95952571D01*
X206545571Y-96309714D02*
X205045571Y-96309714D01*
X205045571Y-95738285D01*
X205117000Y-95595428D01*
X205188428Y-95524000D01*
X205331285Y-95452571D01*
X205545571Y-95452571D01*
X205688428Y-95524000D01*
X205759857Y-95595428D01*
X205831285Y-95738285D01*
X205831285Y-96309714D01*
X205045571Y-95024000D02*
X205045571Y-94166857D01*
X206545571Y-94595428D02*
X205045571Y-94595428D01*
X191178571Y-104913571D02*
X189678571Y-104913571D01*
X189678571Y-104342142D01*
X189750000Y-104199285D01*
X189821428Y-104127857D01*
X189964285Y-104056428D01*
X190178571Y-104056428D01*
X190321428Y-104127857D01*
X190392857Y-104199285D01*
X190464285Y-104342142D01*
X190464285Y-104913571D01*
X191178571Y-102556428D02*
X190464285Y-103056428D01*
X191178571Y-103413571D02*
X189678571Y-103413571D01*
X189678571Y-102842142D01*
X189750000Y-102699285D01*
X189821428Y-102627857D01*
X189964285Y-102556428D01*
X190178571Y-102556428D01*
X190321428Y-102627857D01*
X190392857Y-102699285D01*
X190464285Y-102842142D01*
X190464285Y-103413571D01*
X189678571Y-101627857D02*
X189678571Y-101342142D01*
X189750000Y-101199285D01*
X189892857Y-101056428D01*
X190178571Y-100985000D01*
X190678571Y-100985000D01*
X190964285Y-101056428D01*
X191107142Y-101199285D01*
X191178571Y-101342142D01*
X191178571Y-101627857D01*
X191107142Y-101770714D01*
X190964285Y-101913571D01*
X190678571Y-101985000D01*
X190178571Y-101985000D01*
X189892857Y-101913571D01*
X189750000Y-101770714D01*
X189678571Y-101627857D01*
X189750000Y-99556428D02*
X189678571Y-99699285D01*
X189678571Y-99913571D01*
X189750000Y-100127857D01*
X189892857Y-100270714D01*
X190035714Y-100342142D01*
X190321428Y-100413571D01*
X190535714Y-100413571D01*
X190821428Y-100342142D01*
X190964285Y-100270714D01*
X191107142Y-100127857D01*
X191178571Y-99913571D01*
X191178571Y-99770714D01*
X191107142Y-99556428D01*
X191035714Y-99485000D01*
X190535714Y-99485000D01*
X190535714Y-99770714D01*
X54181428Y-152443571D02*
X54181428Y-150943571D01*
X55038571Y-152443571D01*
X55038571Y-150943571D01*
X60154285Y-152443571D02*
X59440000Y-152443571D01*
X59440000Y-150943571D01*
X76664285Y-152443571D02*
X75950000Y-152443571D01*
X75950000Y-150943571D01*
X70691428Y-152443571D02*
X70691428Y-150943571D01*
X71548571Y-152443571D01*
X71548571Y-150943571D01*
X93174285Y-152443571D02*
X92460000Y-152443571D01*
X92460000Y-150943571D01*
X87201428Y-152443571D02*
X87201428Y-150943571D01*
X88058571Y-152443571D01*
X88058571Y-150943571D01*
X104346428Y-152443571D02*
X104346428Y-150943571D01*
X105203571Y-152443571D01*
X105203571Y-150943571D01*
X110319285Y-152443571D02*
X109605000Y-152443571D01*
X109605000Y-150943571D01*
X120856428Y-152443571D02*
X120856428Y-150943571D01*
X121713571Y-152443571D01*
X121713571Y-150943571D01*
X126829285Y-152443571D02*
X126115000Y-152443571D01*
X126115000Y-150943571D01*
X137366428Y-152443571D02*
X137366428Y-150943571D01*
X138223571Y-152443571D01*
X138223571Y-150943571D01*
X143339285Y-152443571D02*
X142625000Y-152443571D01*
X142625000Y-150943571D01*
D12*
X51562000Y-146050000D02*
X51562000Y-153670000D01*
X62611000Y-146050000D02*
X62611000Y-153670000D01*
X68199000Y-146050000D02*
X68199000Y-153670000D01*
X79248000Y-146050000D02*
X79248000Y-153670000D01*
X84836000Y-146050000D02*
X84836000Y-153670000D01*
X95885000Y-146050000D02*
X95885000Y-153670000D01*
X101600000Y-146050000D02*
X101600000Y-153670000D01*
X112395000Y-146050000D02*
X112395000Y-153670000D01*
X118110000Y-146050000D02*
X118110000Y-153670000D01*
X129159000Y-146050000D02*
X129159000Y-153670000D01*
X134747000Y-146050000D02*
X134747000Y-153670000D01*
X145796000Y-146050000D02*
X145796000Y-153670000D01*
D10*
X52058714Y-149197142D02*
X52273000Y-149268571D01*
X52630142Y-149268571D01*
X52773000Y-149197142D01*
X52844428Y-149125714D01*
X52915857Y-148982857D01*
X52915857Y-148840000D01*
X52844428Y-148697142D01*
X52773000Y-148625714D01*
X52630142Y-148554285D01*
X52344428Y-148482857D01*
X52201571Y-148411428D01*
X52130142Y-148340000D01*
X52058714Y-148197142D01*
X52058714Y-148054285D01*
X52130142Y-147911428D01*
X52201571Y-147840000D01*
X52344428Y-147768571D01*
X52701571Y-147768571D01*
X52915857Y-147840000D01*
X53415857Y-147768571D02*
X53773000Y-149268571D01*
X54058714Y-148197142D01*
X54344428Y-149268571D01*
X54701571Y-147768571D01*
X55273000Y-149268571D02*
X55273000Y-147768571D01*
X55773000Y-147768571D02*
X56630142Y-147768571D01*
X56201571Y-149268571D02*
X56201571Y-147768571D01*
X57987285Y-149125714D02*
X57915857Y-149197142D01*
X57701571Y-149268571D01*
X57558714Y-149268571D01*
X57344428Y-149197142D01*
X57201571Y-149054285D01*
X57130142Y-148911428D01*
X57058714Y-148625714D01*
X57058714Y-148411428D01*
X57130142Y-148125714D01*
X57201571Y-147982857D01*
X57344428Y-147840000D01*
X57558714Y-147768571D01*
X57701571Y-147768571D01*
X57915857Y-147840000D01*
X57987285Y-147911428D01*
X58630142Y-149268571D02*
X58630142Y-147768571D01*
X58630142Y-148482857D02*
X59487285Y-148482857D01*
X59487285Y-149268571D02*
X59487285Y-147768571D01*
X61273000Y-148840000D02*
X61987285Y-148840000D01*
X61130142Y-149268571D02*
X61630142Y-147768571D01*
X62130142Y-149268571D01*
X68715571Y-149197142D02*
X68929857Y-149268571D01*
X69287000Y-149268571D01*
X69429857Y-149197142D01*
X69501285Y-149125714D01*
X69572714Y-148982857D01*
X69572714Y-148840000D01*
X69501285Y-148697142D01*
X69429857Y-148625714D01*
X69287000Y-148554285D01*
X69001285Y-148482857D01*
X68858428Y-148411428D01*
X68787000Y-148340000D01*
X68715571Y-148197142D01*
X68715571Y-148054285D01*
X68787000Y-147911428D01*
X68858428Y-147840000D01*
X69001285Y-147768571D01*
X69358428Y-147768571D01*
X69572714Y-147840000D01*
X70072714Y-147768571D02*
X70429857Y-149268571D01*
X70715571Y-148197142D01*
X71001285Y-149268571D01*
X71358428Y-147768571D01*
X71929857Y-149268571D02*
X71929857Y-147768571D01*
X72429857Y-147768571D02*
X73287000Y-147768571D01*
X72858428Y-149268571D02*
X72858428Y-147768571D01*
X74644142Y-149125714D02*
X74572714Y-149197142D01*
X74358428Y-149268571D01*
X74215571Y-149268571D01*
X74001285Y-149197142D01*
X73858428Y-149054285D01*
X73787000Y-148911428D01*
X73715571Y-148625714D01*
X73715571Y-148411428D01*
X73787000Y-148125714D01*
X73858428Y-147982857D01*
X74001285Y-147840000D01*
X74215571Y-147768571D01*
X74358428Y-147768571D01*
X74572714Y-147840000D01*
X74644142Y-147911428D01*
X75287000Y-149268571D02*
X75287000Y-147768571D01*
X75287000Y-148482857D02*
X76144142Y-148482857D01*
X76144142Y-149268571D02*
X76144142Y-147768571D01*
X78501285Y-148482857D02*
X78715571Y-148554285D01*
X78787000Y-148625714D01*
X78858428Y-148768571D01*
X78858428Y-148982857D01*
X78787000Y-149125714D01*
X78715571Y-149197142D01*
X78572714Y-149268571D01*
X78001285Y-149268571D01*
X78001285Y-147768571D01*
X78501285Y-147768571D01*
X78644142Y-147840000D01*
X78715571Y-147911428D01*
X78787000Y-148054285D01*
X78787000Y-148197142D01*
X78715571Y-148340000D01*
X78644142Y-148411428D01*
X78501285Y-148482857D01*
X78001285Y-148482857D01*
X85225571Y-149197142D02*
X85439857Y-149268571D01*
X85797000Y-149268571D01*
X85939857Y-149197142D01*
X86011285Y-149125714D01*
X86082714Y-148982857D01*
X86082714Y-148840000D01*
X86011285Y-148697142D01*
X85939857Y-148625714D01*
X85797000Y-148554285D01*
X85511285Y-148482857D01*
X85368428Y-148411428D01*
X85297000Y-148340000D01*
X85225571Y-148197142D01*
X85225571Y-148054285D01*
X85297000Y-147911428D01*
X85368428Y-147840000D01*
X85511285Y-147768571D01*
X85868428Y-147768571D01*
X86082714Y-147840000D01*
X86582714Y-147768571D02*
X86939857Y-149268571D01*
X87225571Y-148197142D01*
X87511285Y-149268571D01*
X87868428Y-147768571D01*
X88439857Y-149268571D02*
X88439857Y-147768571D01*
X88939857Y-147768571D02*
X89797000Y-147768571D01*
X89368428Y-149268571D02*
X89368428Y-147768571D01*
X91154142Y-149125714D02*
X91082714Y-149197142D01*
X90868428Y-149268571D01*
X90725571Y-149268571D01*
X90511285Y-149197142D01*
X90368428Y-149054285D01*
X90297000Y-148911428D01*
X90225571Y-148625714D01*
X90225571Y-148411428D01*
X90297000Y-148125714D01*
X90368428Y-147982857D01*
X90511285Y-147840000D01*
X90725571Y-147768571D01*
X90868428Y-147768571D01*
X91082714Y-147840000D01*
X91154142Y-147911428D01*
X91797000Y-149268571D02*
X91797000Y-147768571D01*
X91797000Y-148482857D02*
X92654142Y-148482857D01*
X92654142Y-149268571D02*
X92654142Y-147768571D01*
X95368428Y-149125714D02*
X95297000Y-149197142D01*
X95082714Y-149268571D01*
X94939857Y-149268571D01*
X94725571Y-149197142D01*
X94582714Y-149054285D01*
X94511285Y-148911428D01*
X94439857Y-148625714D01*
X94439857Y-148411428D01*
X94511285Y-148125714D01*
X94582714Y-147982857D01*
X94725571Y-147840000D01*
X94939857Y-147768571D01*
X95082714Y-147768571D01*
X95297000Y-147840000D01*
X95368428Y-147911428D01*
X101862571Y-149197142D02*
X102076857Y-149268571D01*
X102434000Y-149268571D01*
X102576857Y-149197142D01*
X102648285Y-149125714D01*
X102719714Y-148982857D01*
X102719714Y-148840000D01*
X102648285Y-148697142D01*
X102576857Y-148625714D01*
X102434000Y-148554285D01*
X102148285Y-148482857D01*
X102005428Y-148411428D01*
X101934000Y-148340000D01*
X101862571Y-148197142D01*
X101862571Y-148054285D01*
X101934000Y-147911428D01*
X102005428Y-147840000D01*
X102148285Y-147768571D01*
X102505428Y-147768571D01*
X102719714Y-147840000D01*
X103219714Y-147768571D02*
X103576857Y-149268571D01*
X103862571Y-148197142D01*
X104148285Y-149268571D01*
X104505428Y-147768571D01*
X105076857Y-149268571D02*
X105076857Y-147768571D01*
X105576857Y-147768571D02*
X106434000Y-147768571D01*
X106005428Y-149268571D02*
X106005428Y-147768571D01*
X107791142Y-149125714D02*
X107719714Y-149197142D01*
X107505428Y-149268571D01*
X107362571Y-149268571D01*
X107148285Y-149197142D01*
X107005428Y-149054285D01*
X106934000Y-148911428D01*
X106862571Y-148625714D01*
X106862571Y-148411428D01*
X106934000Y-148125714D01*
X107005428Y-147982857D01*
X107148285Y-147840000D01*
X107362571Y-147768571D01*
X107505428Y-147768571D01*
X107719714Y-147840000D01*
X107791142Y-147911428D01*
X108434000Y-149268571D02*
X108434000Y-147768571D01*
X108434000Y-148482857D02*
X109291142Y-148482857D01*
X109291142Y-149268571D02*
X109291142Y-147768571D01*
X111148285Y-149268571D02*
X111148285Y-147768571D01*
X111505428Y-147768571D01*
X111719714Y-147840000D01*
X111862571Y-147982857D01*
X111934000Y-148125714D01*
X112005428Y-148411428D01*
X112005428Y-148625714D01*
X111934000Y-148911428D01*
X111862571Y-149054285D01*
X111719714Y-149197142D01*
X111505428Y-149268571D01*
X111148285Y-149268571D01*
X118698000Y-149197142D02*
X118912285Y-149268571D01*
X119269428Y-149268571D01*
X119412285Y-149197142D01*
X119483714Y-149125714D01*
X119555142Y-148982857D01*
X119555142Y-148840000D01*
X119483714Y-148697142D01*
X119412285Y-148625714D01*
X119269428Y-148554285D01*
X118983714Y-148482857D01*
X118840857Y-148411428D01*
X118769428Y-148340000D01*
X118698000Y-148197142D01*
X118698000Y-148054285D01*
X118769428Y-147911428D01*
X118840857Y-147840000D01*
X118983714Y-147768571D01*
X119340857Y-147768571D01*
X119555142Y-147840000D01*
X120055142Y-147768571D02*
X120412285Y-149268571D01*
X120698000Y-148197142D01*
X120983714Y-149268571D01*
X121340857Y-147768571D01*
X121912285Y-149268571D02*
X121912285Y-147768571D01*
X122412285Y-147768571D02*
X123269428Y-147768571D01*
X122840857Y-149268571D02*
X122840857Y-147768571D01*
X124626571Y-149125714D02*
X124555142Y-149197142D01*
X124340857Y-149268571D01*
X124198000Y-149268571D01*
X123983714Y-149197142D01*
X123840857Y-149054285D01*
X123769428Y-148911428D01*
X123698000Y-148625714D01*
X123698000Y-148411428D01*
X123769428Y-148125714D01*
X123840857Y-147982857D01*
X123983714Y-147840000D01*
X124198000Y-147768571D01*
X124340857Y-147768571D01*
X124555142Y-147840000D01*
X124626571Y-147911428D01*
X125269428Y-149268571D02*
X125269428Y-147768571D01*
X125269428Y-148482857D02*
X126126571Y-148482857D01*
X126126571Y-149268571D02*
X126126571Y-147768571D01*
X127983714Y-148482857D02*
X128483714Y-148482857D01*
X128698000Y-149268571D02*
X127983714Y-149268571D01*
X127983714Y-147768571D01*
X128698000Y-147768571D01*
X135370714Y-149197142D02*
X135585000Y-149268571D01*
X135942142Y-149268571D01*
X136085000Y-149197142D01*
X136156428Y-149125714D01*
X136227857Y-148982857D01*
X136227857Y-148840000D01*
X136156428Y-148697142D01*
X136085000Y-148625714D01*
X135942142Y-148554285D01*
X135656428Y-148482857D01*
X135513571Y-148411428D01*
X135442142Y-148340000D01*
X135370714Y-148197142D01*
X135370714Y-148054285D01*
X135442142Y-147911428D01*
X135513571Y-147840000D01*
X135656428Y-147768571D01*
X136013571Y-147768571D01*
X136227857Y-147840000D01*
X136727857Y-147768571D02*
X137085000Y-149268571D01*
X137370714Y-148197142D01*
X137656428Y-149268571D01*
X138013571Y-147768571D01*
X138585000Y-149268571D02*
X138585000Y-147768571D01*
X139085000Y-147768571D02*
X139942142Y-147768571D01*
X139513571Y-149268571D02*
X139513571Y-147768571D01*
X141299285Y-149125714D02*
X141227857Y-149197142D01*
X141013571Y-149268571D01*
X140870714Y-149268571D01*
X140656428Y-149197142D01*
X140513571Y-149054285D01*
X140442142Y-148911428D01*
X140370714Y-148625714D01*
X140370714Y-148411428D01*
X140442142Y-148125714D01*
X140513571Y-147982857D01*
X140656428Y-147840000D01*
X140870714Y-147768571D01*
X141013571Y-147768571D01*
X141227857Y-147840000D01*
X141299285Y-147911428D01*
X141942142Y-149268571D02*
X141942142Y-147768571D01*
X141942142Y-148482857D02*
X142799285Y-148482857D01*
X142799285Y-149268571D02*
X142799285Y-147768571D01*
X145156428Y-148482857D02*
X144656428Y-148482857D01*
X144656428Y-149268571D02*
X144656428Y-147768571D01*
X145370714Y-147768571D01*
X60576857Y-80895000D02*
X61291142Y-80895000D01*
X60434000Y-81323571D02*
X60934000Y-79823571D01*
X61434000Y-81323571D01*
X62576857Y-80323571D02*
X62576857Y-81823571D01*
X62576857Y-81252142D02*
X62434000Y-81323571D01*
X62148285Y-81323571D01*
X62005428Y-81252142D01*
X61934000Y-81180714D01*
X61862571Y-81037857D01*
X61862571Y-80609285D01*
X61934000Y-80466428D01*
X62005428Y-80395000D01*
X62148285Y-80323571D01*
X62434000Y-80323571D01*
X62576857Y-80395000D01*
X63934000Y-80323571D02*
X63934000Y-81323571D01*
X63291142Y-80323571D02*
X63291142Y-81109285D01*
X63362571Y-81252142D01*
X63505428Y-81323571D01*
X63719714Y-81323571D01*
X63862571Y-81252142D01*
X63934000Y-81180714D01*
X65291142Y-81323571D02*
X65291142Y-80537857D01*
X65219714Y-80395000D01*
X65076857Y-80323571D01*
X64791142Y-80323571D01*
X64648285Y-80395000D01*
X65291142Y-81252142D02*
X65148285Y-81323571D01*
X64791142Y-81323571D01*
X64648285Y-81252142D01*
X64576857Y-81109285D01*
X64576857Y-80966428D01*
X64648285Y-80823571D01*
X64791142Y-80752142D01*
X65148285Y-80752142D01*
X65291142Y-80680714D01*
X66005428Y-81323571D02*
X66005428Y-79823571D01*
X66005428Y-80537857D02*
X66862571Y-80537857D01*
X66862571Y-81323571D02*
X66862571Y-79823571D01*
X68219714Y-80323571D02*
X68219714Y-81323571D01*
X67576857Y-80323571D02*
X67576857Y-81109285D01*
X67648285Y-81252142D01*
X67791142Y-81323571D01*
X68005428Y-81323571D01*
X68148285Y-81252142D01*
X68219714Y-81180714D01*
X68934000Y-81323571D02*
X68934000Y-79823571D01*
X68934000Y-80395000D02*
X69076857Y-80323571D01*
X69362571Y-80323571D01*
X69505428Y-80395000D01*
X69576857Y-80466428D01*
X69648285Y-80609285D01*
X69648285Y-81037857D01*
X69576857Y-81180714D01*
X69505428Y-81252142D01*
X69362571Y-81323571D01*
X69076857Y-81323571D01*
X68934000Y-81252142D01*
X71434000Y-81323571D02*
X71434000Y-79823571D01*
X72005428Y-79823571D01*
X72148285Y-79895000D01*
X72219714Y-79966428D01*
X72291142Y-80109285D01*
X72291142Y-80323571D01*
X72219714Y-80466428D01*
X72148285Y-80537857D01*
X72005428Y-80609285D01*
X71434000Y-80609285D01*
X73148285Y-81323571D02*
X73005428Y-81252142D01*
X72934000Y-81180714D01*
X72862571Y-81037857D01*
X72862571Y-80609285D01*
X72934000Y-80466428D01*
X73005428Y-80395000D01*
X73148285Y-80323571D01*
X73362571Y-80323571D01*
X73505428Y-80395000D01*
X73576857Y-80466428D01*
X73648285Y-80609285D01*
X73648285Y-81037857D01*
X73576857Y-81180714D01*
X73505428Y-81252142D01*
X73362571Y-81323571D01*
X73148285Y-81323571D01*
X74148285Y-80323571D02*
X74434000Y-81323571D01*
X74719714Y-80609285D01*
X75005428Y-81323571D01*
X75291142Y-80323571D01*
X76434000Y-81252142D02*
X76291142Y-81323571D01*
X76005428Y-81323571D01*
X75862571Y-81252142D01*
X75791142Y-81109285D01*
X75791142Y-80537857D01*
X75862571Y-80395000D01*
X76005428Y-80323571D01*
X76291142Y-80323571D01*
X76434000Y-80395000D01*
X76505428Y-80537857D01*
X76505428Y-80680714D01*
X75791142Y-80823571D01*
X77148285Y-81323571D02*
X77148285Y-80323571D01*
X77148285Y-80609285D02*
X77219714Y-80466428D01*
X77291142Y-80395000D01*
X77434000Y-80323571D01*
X77576857Y-80323571D01*
X78576857Y-80537857D02*
X78791142Y-80609285D01*
X78862571Y-80680714D01*
X78934000Y-80823571D01*
X78934000Y-81037857D01*
X78862571Y-81180714D01*
X78791142Y-81252142D01*
X78648285Y-81323571D01*
X78076857Y-81323571D01*
X78076857Y-79823571D01*
X78576857Y-79823571D01*
X78719714Y-79895000D01*
X78791142Y-79966428D01*
X78862571Y-80109285D01*
X78862571Y-80252142D01*
X78791142Y-80395000D01*
X78719714Y-80466428D01*
X78576857Y-80537857D01*
X78076857Y-80537857D01*
X79791142Y-81323571D02*
X79648285Y-81252142D01*
X79576857Y-81180714D01*
X79505428Y-81037857D01*
X79505428Y-80609285D01*
X79576857Y-80466428D01*
X79648285Y-80395000D01*
X79791142Y-80323571D01*
X80005428Y-80323571D01*
X80148285Y-80395000D01*
X80219714Y-80466428D01*
X80291142Y-80609285D01*
X80291142Y-81037857D01*
X80219714Y-81180714D01*
X80148285Y-81252142D01*
X80005428Y-81323571D01*
X79791142Y-81323571D01*
X81576857Y-81323571D02*
X81576857Y-80537857D01*
X81505428Y-80395000D01*
X81362571Y-80323571D01*
X81076857Y-80323571D01*
X80934000Y-80395000D01*
X81576857Y-81252142D02*
X81434000Y-81323571D01*
X81076857Y-81323571D01*
X80934000Y-81252142D01*
X80862571Y-81109285D01*
X80862571Y-80966428D01*
X80934000Y-80823571D01*
X81076857Y-80752142D01*
X81434000Y-80752142D01*
X81576857Y-80680714D01*
X82291142Y-81323571D02*
X82291142Y-80323571D01*
X82291142Y-80609285D02*
X82362571Y-80466428D01*
X82434000Y-80395000D01*
X82576857Y-80323571D01*
X82719714Y-80323571D01*
X83862571Y-81323571D02*
X83862571Y-79823571D01*
X83862571Y-81252142D02*
X83719714Y-81323571D01*
X83434000Y-81323571D01*
X83291142Y-81252142D01*
X83219714Y-81180714D01*
X83148285Y-81037857D01*
X83148285Y-80609285D01*
X83219714Y-80466428D01*
X83291142Y-80395000D01*
X83434000Y-80323571D01*
X83719714Y-80323571D01*
X83862571Y-80395000D01*
X85576857Y-80323571D02*
X85934000Y-81323571D01*
X86291142Y-80323571D01*
X87648285Y-81323571D02*
X86791142Y-81323571D01*
X87219714Y-81323571D02*
X87219714Y-79823571D01*
X87076857Y-80037857D01*
X86934000Y-80180714D01*
X86791142Y-80252142D01*
X88291142Y-81180714D02*
X88362571Y-81252142D01*
X88291142Y-81323571D01*
X88219714Y-81252142D01*
X88291142Y-81180714D01*
X88291142Y-81323571D01*
X89291142Y-79823571D02*
X89434000Y-79823571D01*
X89576857Y-79895000D01*
X89648285Y-79966428D01*
X89719714Y-80109285D01*
X89791142Y-80395000D01*
X89791142Y-80752142D01*
X89719714Y-81037857D01*
X89648285Y-81180714D01*
X89576857Y-81252142D01*
X89434000Y-81323571D01*
X89291142Y-81323571D01*
X89148285Y-81252142D01*
X89076857Y-81180714D01*
X89005428Y-81037857D01*
X88934000Y-80752142D01*
X88934000Y-80395000D01*
X89005428Y-80109285D01*
X89076857Y-79966428D01*
X89148285Y-79895000D01*
X89291142Y-79823571D01*
D12*
X174752000Y-146050000D02*
X174752000Y-153670000D01*
X163068000Y-146050000D02*
X163068000Y-153670000D01*
D10*
X163497285Y-149272523D02*
X163783000Y-149367761D01*
X164259190Y-149367761D01*
X164449666Y-149272523D01*
X164544904Y-149177285D01*
X164640142Y-148986809D01*
X164640142Y-148796333D01*
X164544904Y-148605857D01*
X164449666Y-148510619D01*
X164259190Y-148415380D01*
X163878238Y-148320142D01*
X163687761Y-148224904D01*
X163592523Y-148129666D01*
X163497285Y-147939190D01*
X163497285Y-147748714D01*
X163592523Y-147558238D01*
X163687761Y-147463000D01*
X163878238Y-147367761D01*
X164354428Y-147367761D01*
X164640142Y-147463000D01*
X165497285Y-147367761D02*
X165497285Y-148986809D01*
X165592523Y-149177285D01*
X165687761Y-149272523D01*
X165878238Y-149367761D01*
X166259190Y-149367761D01*
X166449666Y-149272523D01*
X166544904Y-149177285D01*
X166640142Y-148986809D01*
X166640142Y-147367761D01*
X167592523Y-149367761D02*
X167592523Y-147367761D01*
X168354428Y-147367761D01*
X168544904Y-147463000D01*
X168640142Y-147558238D01*
X168735380Y-147748714D01*
X168735380Y-148034428D01*
X168640142Y-148224904D01*
X168544904Y-148320142D01*
X168354428Y-148415380D01*
X167592523Y-148415380D01*
X169592523Y-149367761D02*
X169592523Y-147367761D01*
X170354428Y-147367761D01*
X170544904Y-147463000D01*
X170640142Y-147558238D01*
X170735380Y-147748714D01*
X170735380Y-148034428D01*
X170640142Y-148224904D01*
X170544904Y-148320142D01*
X170354428Y-148415380D01*
X169592523Y-148415380D01*
X172544904Y-149367761D02*
X171592523Y-149367761D01*
X171592523Y-147367761D01*
X173592523Y-148415380D02*
X173592523Y-149367761D01*
X172925857Y-147367761D02*
X173592523Y-148415380D01*
X174259190Y-147367761D01*
D12*
X55118000Y-106680000D02*
X48006000Y-106680000D01*
X55118000Y-109728000D02*
X55118000Y-106680000D01*
X51054000Y-109728000D02*
X55118000Y-109728000D01*
X146050000Y-115570000D02*
X146050000Y-118110000D01*
X140335000Y-78105000D02*
X140335000Y-75565000D01*
X148590000Y-75565000D02*
X148590000Y-78105000D01*
X148590000Y-78105000D02*
X208280000Y-78105000D01*
X208280000Y-75565000D02*
X148590000Y-75565000D01*
X208280000Y-52070000D02*
X208280000Y-75565000D01*
X38100000Y-52070000D02*
X208280000Y-52070000D01*
X38100000Y-75565000D02*
X38100000Y-52070000D01*
X140335000Y-75565000D02*
X38100000Y-75565000D01*
D10*
X171148428Y-152443571D02*
X171148428Y-150943571D01*
X172005571Y-152443571D01*
X172005571Y-150943571D01*
X166707285Y-152443571D02*
X165993000Y-152443571D01*
X165993000Y-150943571D01*
X196755000Y-102302571D02*
X197255000Y-103802571D01*
X197755000Y-102302571D01*
X199112142Y-103659714D02*
X199040714Y-103731142D01*
X198826428Y-103802571D01*
X198683571Y-103802571D01*
X198469285Y-103731142D01*
X198326428Y-103588285D01*
X198255000Y-103445428D01*
X198183571Y-103159714D01*
X198183571Y-102945428D01*
X198255000Y-102659714D01*
X198326428Y-102516857D01*
X198469285Y-102374000D01*
X198683571Y-102302571D01*
X198826428Y-102302571D01*
X199040714Y-102374000D01*
X199112142Y-102445428D01*
X200612142Y-103659714D02*
X200540714Y-103731142D01*
X200326428Y-103802571D01*
X200183571Y-103802571D01*
X199969285Y-103731142D01*
X199826428Y-103588285D01*
X199755000Y-103445428D01*
X199683571Y-103159714D01*
X199683571Y-102945428D01*
X199755000Y-102659714D01*
X199826428Y-102516857D01*
X199969285Y-102374000D01*
X200183571Y-102302571D01*
X200326428Y-102302571D01*
X200540714Y-102374000D01*
X200612142Y-102445428D01*
X198374142Y-99762571D02*
X199231285Y-99762571D01*
X198802714Y-101262571D02*
X198802714Y-99762571D01*
X199588428Y-99762571D02*
X200588428Y-101262571D01*
X200588428Y-99762571D02*
X199588428Y-101262571D01*
X199140000Y-98722571D02*
X198640000Y-98008285D01*
X198282857Y-98722571D02*
X198282857Y-97222571D01*
X198854285Y-97222571D01*
X198997142Y-97294000D01*
X199068571Y-97365428D01*
X199140000Y-97508285D01*
X199140000Y-97722571D01*
X199068571Y-97865428D01*
X198997142Y-97936857D01*
X198854285Y-98008285D01*
X198282857Y-98008285D01*
X199640000Y-97222571D02*
X200640000Y-98722571D01*
X200640000Y-97222571D02*
X199640000Y-98722571D01*
X197231142Y-89674000D02*
X197088285Y-89602571D01*
X196874000Y-89602571D01*
X196659714Y-89674000D01*
X196516857Y-89816857D01*
X196445428Y-89959714D01*
X196374000Y-90245428D01*
X196374000Y-90459714D01*
X196445428Y-90745428D01*
X196516857Y-90888285D01*
X196659714Y-91031142D01*
X196874000Y-91102571D01*
X197016857Y-91102571D01*
X197231142Y-91031142D01*
X197302571Y-90959714D01*
X197302571Y-90459714D01*
X197016857Y-90459714D01*
X197945428Y-91102571D02*
X197945428Y-89602571D01*
X198802571Y-91102571D01*
X198802571Y-89602571D01*
X199516857Y-91102571D02*
X199516857Y-89602571D01*
X199874000Y-89602571D01*
X200088285Y-89674000D01*
X200231142Y-89816857D01*
X200302571Y-89959714D01*
X200374000Y-90245428D01*
X200374000Y-90459714D01*
X200302571Y-90745428D01*
X200231142Y-90888285D01*
X200088285Y-91031142D01*
X199874000Y-91102571D01*
X199516857Y-91102571D01*
D12*
X48006000Y-118364000D02*
X48006000Y-106680000D01*
X146050000Y-118110000D02*
X48006000Y-118364000D01*
X51054000Y-115316000D02*
X146050000Y-115570000D01*
X51054000Y-109728000D02*
X51054000Y-115316000D01*
X38100000Y-153670000D02*
X208280000Y-153670000D01*
X38100000Y-78105000D02*
X38100000Y-153670000D01*
X140335000Y-78105000D02*
X38100000Y-78105000D01*
X208280000Y-78105000D02*
X208280000Y-153670000D01*
D13*
X193361000Y-98993000D02*
X196021000Y-98993000D01*
X193361000Y-96393000D02*
X193361000Y-98993000D01*
X196021000Y-96393000D02*
X196021000Y-98993000D01*
X193361000Y-96393000D02*
X196021000Y-96393000D01*
X193361000Y-95123000D02*
X193361000Y-93793000D01*
X193361000Y-93793000D02*
X194691000Y-93793000D01*
X115550000Y-60135000D02*
X115550000Y-60600000D01*
X115550000Y-57510000D02*
X115550000Y-57975000D01*
X120364479Y-60135429D02*
G75*
G02X115855316Y-60135000I-2254479J1080429D01*
G01*
X120364479Y-57974571D02*
G75*
G03X115855316Y-57975000I-2254479J-1080429D01*
G01*
X120897815Y-60135827D02*
G75*
G02X115550000Y-60599830I-2787815J1080827D01*
G01*
X120897815Y-57974173D02*
G75*
G03X115550000Y-57510170I-2787815J-1080827D01*
G01*
X155460000Y-78133000D02*
X155460000Y-80673000D01*
X155460000Y-78133000D02*
X152920000Y-78133000D01*
X155210000Y-78383000D02*
X155210000Y-87733000D01*
X139430000Y-78383000D02*
X155210000Y-78383000D01*
X139430000Y-87733000D02*
X139430000Y-78383000D01*
X155210000Y-87733000D02*
X139430000Y-87733000D01*
X114842500Y-91917500D02*
X115467500Y-91917500D01*
X115155000Y-92230000D02*
X115155000Y-91605000D01*
X118535563Y-91365000D02*
X119600000Y-90300563D01*
X115144437Y-91365000D02*
X114080000Y-90300563D01*
X115144437Y-91365000D02*
X115780000Y-91365000D01*
X118535563Y-91365000D02*
X117900000Y-91365000D01*
X119600000Y-90300563D02*
X119600000Y-85845000D01*
X114080000Y-90300563D02*
X114080000Y-85845000D01*
X114080000Y-85845000D02*
X115780000Y-85845000D01*
X119600000Y-85845000D02*
X117900000Y-85845000D01*
X163181000Y-84068000D02*
X163181000Y-79683000D01*
X160161000Y-84068000D02*
X163181000Y-84068000D01*
X160161000Y-79683000D02*
X160161000Y-84068000D01*
D14*
X54305000Y-92520000D02*
X48205000Y-92520000D01*
X54305000Y-108020000D02*
X48205000Y-108020000D01*
X54305000Y-92520000D02*
X54305000Y-108020000D01*
X48205000Y-92520000D02*
X48205000Y-108020000D01*
D13*
X106100000Y-96245000D02*
X104600000Y-96245000D01*
X104600000Y-96245000D02*
X104600000Y-96515000D01*
X104600000Y-96515000D02*
X101770000Y-96515000D01*
X106100000Y-103145000D02*
X104600000Y-103145000D01*
X104600000Y-103145000D02*
X104600000Y-102875000D01*
X104600000Y-102875000D02*
X103500000Y-102875000D01*
D14*
X133842000Y-56925000D02*
X133842000Y-58450000D01*
X141592000Y-56925000D02*
X141592000Y-58530000D01*
X141592000Y-70075000D02*
X141592000Y-68470000D01*
X133842000Y-70075000D02*
X133842000Y-68470000D01*
X133842000Y-56925000D02*
X141592000Y-56925000D01*
X133842000Y-70075000D02*
X141592000Y-70075000D01*
X133842000Y-58450000D02*
X132317000Y-58450000D01*
D13*
X193564252Y-120702000D02*
X193041748Y-120702000D01*
X193564252Y-122122000D02*
X193041748Y-122122000D01*
X114515000Y-66405000D02*
X114515000Y-70905000D01*
X118515000Y-65155000D02*
X117015000Y-65155000D01*
X121015000Y-70905000D02*
X121015000Y-66405000D01*
X117015000Y-72155000D02*
X118515000Y-72155000D01*
X66365000Y-72155000D02*
X67865000Y-72155000D01*
X70365000Y-70905000D02*
X70365000Y-66405000D01*
X67865000Y-65155000D02*
X66365000Y-65155000D01*
X63865000Y-66405000D02*
X63865000Y-70905000D01*
X92628344Y-104675739D02*
X92628344Y-85447320D01*
X89707344Y-107647320D02*
X92628344Y-104675320D01*
X58928344Y-85447320D02*
X92628344Y-85447320D01*
X58928344Y-107647320D02*
X58928344Y-85447320D01*
X89707344Y-107647320D02*
X58928344Y-107647320D01*
X201489000Y-120082000D02*
X202819000Y-120082000D01*
X201489000Y-121412000D02*
X201489000Y-120082000D01*
X201489000Y-122682000D02*
X204149000Y-122682000D01*
X204149000Y-122682000D02*
X204149000Y-127822000D01*
X201489000Y-122682000D02*
X201489000Y-127822000D01*
X201489000Y-127822000D02*
X204149000Y-127822000D01*
D14*
X55118000Y-113030000D02*
X53340000Y-113030000D01*
X59182000Y-113030000D02*
X60960000Y-113030000D01*
X55118000Y-113030000D02*
G75*
G02X56134000Y-113030000I508000J0D01*
G01*
X56134000Y-113030000D02*
G75*
G02X57150000Y-113030000I508000J0D01*
G01*
X57150000Y-113030000D02*
G75*
G02X58166000Y-113030000I508000J0D01*
G01*
X58166000Y-113030000D02*
G75*
G02X59182000Y-113030000I508000J0D01*
G01*
X52070000Y-114300000D02*
X62230000Y-114300000D01*
X52070000Y-132080000D02*
X52070000Y-111760000D01*
X62230000Y-132080000D02*
X52070000Y-132080000D01*
X62230000Y-111760000D02*
X62230000Y-132080000D01*
X52070000Y-111760000D02*
X62230000Y-111760000D01*
X71628000Y-113030000D02*
X69850000Y-113030000D01*
X75692000Y-113030000D02*
X77470000Y-113030000D01*
X71628000Y-113030000D02*
G75*
G02X72644000Y-113030000I508000J0D01*
G01*
X72644000Y-113030000D02*
G75*
G02X73660000Y-113030000I508000J0D01*
G01*
X73660000Y-113030000D02*
G75*
G02X74676000Y-113030000I508000J0D01*
G01*
X74676000Y-113030000D02*
G75*
G02X75692000Y-113030000I508000J0D01*
G01*
X68580000Y-114300000D02*
X78740000Y-114300000D01*
X68580000Y-132080000D02*
X68580000Y-111760000D01*
X78740000Y-132080000D02*
X68580000Y-132080000D01*
X78740000Y-111760000D02*
X78740000Y-132080000D01*
X68580000Y-111760000D02*
X78740000Y-111760000D01*
X88138000Y-113030000D02*
X86360000Y-113030000D01*
X92202000Y-113030000D02*
X93980000Y-113030000D01*
X88138000Y-113030000D02*
G75*
G02X89154000Y-113030000I508000J0D01*
G01*
X89154000Y-113030000D02*
G75*
G02X90170000Y-113030000I508000J0D01*
G01*
X90170000Y-113030000D02*
G75*
G02X91186000Y-113030000I508000J0D01*
G01*
X91186000Y-113030000D02*
G75*
G02X92202000Y-113030000I508000J0D01*
G01*
X85090000Y-114300000D02*
X95250000Y-114300000D01*
X85090000Y-132080000D02*
X85090000Y-111760000D01*
X95250000Y-132080000D02*
X85090000Y-132080000D01*
X95250000Y-111760000D02*
X95250000Y-132080000D01*
X85090000Y-111760000D02*
X95250000Y-111760000D01*
X104648000Y-112776000D02*
X102870000Y-112776000D01*
X108712000Y-112776000D02*
X110490000Y-112776000D01*
X104648000Y-112776000D02*
G75*
G02X105664000Y-112776000I508000J0D01*
G01*
X105664000Y-112776000D02*
G75*
G02X106680000Y-112776000I508000J0D01*
G01*
X106680000Y-112776000D02*
G75*
G02X107696000Y-112776000I508000J0D01*
G01*
X107696000Y-112776000D02*
G75*
G02X108712000Y-112776000I508000J0D01*
G01*
X101600000Y-114046000D02*
X111760000Y-114046000D01*
X101600000Y-131826000D02*
X101600000Y-111506000D01*
X111760000Y-131826000D02*
X101600000Y-131826000D01*
X111760000Y-111506000D02*
X111760000Y-131826000D01*
X101600000Y-111506000D02*
X111760000Y-111506000D01*
X121412000Y-112776000D02*
X119634000Y-112776000D01*
X125476000Y-112776000D02*
X127254000Y-112776000D01*
X121412000Y-112776000D02*
G75*
G02X122428000Y-112776000I508000J0D01*
G01*
X122428000Y-112776000D02*
G75*
G02X123444000Y-112776000I508000J0D01*
G01*
X123444000Y-112776000D02*
G75*
G02X124460000Y-112776000I508000J0D01*
G01*
X124460000Y-112776000D02*
G75*
G02X125476000Y-112776000I508000J0D01*
G01*
X118364000Y-114046000D02*
X128524000Y-114046000D01*
X118364000Y-131826000D02*
X118364000Y-111506000D01*
X128524000Y-131826000D02*
X118364000Y-131826000D01*
X128524000Y-111506000D02*
X128524000Y-131826000D01*
X118364000Y-111506000D02*
X128524000Y-111506000D01*
X138303000Y-112776000D02*
X136525000Y-112776000D01*
X142367000Y-112776000D02*
X144145000Y-112776000D01*
X138303000Y-112776000D02*
G75*
G02X139319000Y-112776000I508000J0D01*
G01*
X139319000Y-112776000D02*
G75*
G02X140335000Y-112776000I508000J0D01*
G01*
X140335000Y-112776000D02*
G75*
G02X141351000Y-112776000I508000J0D01*
G01*
X141351000Y-112776000D02*
G75*
G02X142367000Y-112776000I508000J0D01*
G01*
X135255000Y-114046000D02*
X145415000Y-114046000D01*
X135255000Y-131826000D02*
X135255000Y-111506000D01*
X145415000Y-131826000D02*
X135255000Y-131826000D01*
X145415000Y-111506000D02*
X145415000Y-131826000D01*
X135255000Y-111506000D02*
X145415000Y-111506000D01*
X153312979Y-122584195D02*
X153312979Y-123984195D01*
X158412979Y-122584195D02*
X158412979Y-118434195D01*
X153262979Y-122584195D02*
X153262979Y-118434195D01*
X158412979Y-122584195D02*
X158267979Y-122584195D01*
X158412979Y-118434195D02*
X158267979Y-118434195D01*
X153262979Y-118434195D02*
X153407979Y-118434195D01*
X153262979Y-122584195D02*
X153312979Y-122584195D01*
X163779000Y-100935000D02*
X165154000Y-100935000D01*
X163779000Y-90810000D02*
X159629000Y-90810000D01*
X163779000Y-100960000D02*
X159629000Y-100960000D01*
X163779000Y-90810000D02*
X163779000Y-90915000D01*
X159629000Y-90810000D02*
X159629000Y-90915000D01*
X159629000Y-100960000D02*
X159629000Y-100855000D01*
X163779000Y-100960000D02*
X163779000Y-100935000D01*
D13*
X159079000Y-82294252D02*
X159079000Y-81771748D01*
X157659000Y-82294252D02*
X157659000Y-81771748D01*
X155177748Y-109930000D02*
X155700252Y-109930000D01*
X155177748Y-108510000D02*
X155700252Y-108510000D01*
X155177748Y-115010000D02*
X155700252Y-115010000D01*
X155177748Y-113590000D02*
X155700252Y-113590000D01*
X155177748Y-112470000D02*
X155700252Y-112470000D01*
X155177748Y-111050000D02*
X155700252Y-111050000D01*
X193023748Y-124662000D02*
X193546252Y-124662000D01*
X193023748Y-123242000D02*
X193546252Y-123242000D01*
X102850000Y-60135000D02*
X102850000Y-60600000D01*
X102850000Y-57510000D02*
X102850000Y-57975000D01*
X107664479Y-60135429D02*
G75*
G02X103155316Y-60135000I-2254479J1080429D01*
G01*
X107664479Y-57974571D02*
G75*
G03X103155316Y-57975000I-2254479J-1080429D01*
G01*
X108197815Y-60135827D02*
G75*
G02X102850000Y-60599830I-2787815J1080827D01*
G01*
X108197815Y-57974173D02*
G75*
G03X102850000Y-57510170I-2787815J-1080827D01*
G01*
X90150000Y-60135000D02*
X90150000Y-60600000D01*
X90150000Y-57510000D02*
X90150000Y-57975000D01*
X94964479Y-60135429D02*
G75*
G02X90455316Y-60135000I-2254479J1080429D01*
G01*
X94964479Y-57974571D02*
G75*
G03X90455316Y-57975000I-2254479J-1080429D01*
G01*
X95497815Y-60135827D02*
G75*
G02X90150000Y-60599830I-2787815J1080827D01*
G01*
X95497815Y-57974173D02*
G75*
G03X90150000Y-57510170I-2787815J-1080827D01*
G01*
X77450000Y-60135000D02*
X77450000Y-60600000D01*
X77450000Y-57510000D02*
X77450000Y-57975000D01*
X82264479Y-60135429D02*
G75*
G02X77755316Y-60135000I-2254479J1080429D01*
G01*
X82264479Y-57974571D02*
G75*
G03X77755316Y-57975000I-2254479J-1080429D01*
G01*
X82797815Y-60135827D02*
G75*
G02X77450000Y-60599830I-2787815J1080827D01*
G01*
X82797815Y-57974173D02*
G75*
G03X77450000Y-57510170I-2787815J-1080827D01*
G01*
X64750000Y-60135000D02*
X64750000Y-60600000D01*
X64750000Y-57510000D02*
X64750000Y-57975000D01*
X69564479Y-60135429D02*
G75*
G02X65055316Y-60135000I-2254479J1080429D01*
G01*
X69564479Y-57974571D02*
G75*
G03X65055316Y-57975000I-2254479J-1080429D01*
G01*
X70097815Y-60135827D02*
G75*
G02X64750000Y-60599830I-2787815J1080827D01*
G01*
X70097815Y-57974173D02*
G75*
G03X64750000Y-57510170I-2787815J-1080827D01*
G01*
X52050000Y-60135000D02*
X52050000Y-60600000D01*
X52050000Y-57510000D02*
X52050000Y-57975000D01*
X56864479Y-60135429D02*
G75*
G02X52355316Y-60135000I-2254479J1080429D01*
G01*
X56864479Y-57974571D02*
G75*
G03X52355316Y-57975000I-2254479J-1080429D01*
G01*
X57397815Y-60135827D02*
G75*
G02X52050000Y-60599830I-2787815J1080827D01*
G01*
X57397815Y-57974173D02*
G75*
G03X52050000Y-57510170I-2787815J-1080827D01*
G01*
X101965000Y-66405000D02*
X101965000Y-70905000D01*
X105965000Y-65155000D02*
X104465000Y-65155000D01*
X108465000Y-70905000D02*
X108465000Y-66405000D01*
X104465000Y-72155000D02*
X105965000Y-72155000D01*
X91765000Y-72155000D02*
X93265000Y-72155000D01*
X95765000Y-70905000D02*
X95765000Y-66405000D01*
X93265000Y-65155000D02*
X91765000Y-65155000D01*
X89265000Y-66405000D02*
X89265000Y-70905000D01*
X76415000Y-66405000D02*
X76415000Y-70905000D01*
X80415000Y-65155000D02*
X78915000Y-65155000D01*
X82915000Y-70905000D02*
X82915000Y-66405000D01*
X78915000Y-72155000D02*
X80415000Y-72155000D01*
X54205000Y-72155000D02*
X55705000Y-72155000D01*
X58205000Y-70905000D02*
X58205000Y-66405000D01*
X55705000Y-65155000D02*
X54205000Y-65155000D01*
X51705000Y-66405000D02*
X51705000Y-70905000D01*
X94913750Y-92468750D02*
X95701250Y-92468750D01*
X95307500Y-92862500D02*
X95307500Y-92075000D01*
X99500563Y-91835000D02*
X100565000Y-90770563D01*
X94809437Y-91835000D02*
X93745000Y-90770563D01*
X94809437Y-91835000D02*
X96095000Y-91835000D01*
X99500563Y-91835000D02*
X98215000Y-91835000D01*
X100565000Y-90770563D02*
X100565000Y-85015000D01*
X93745000Y-90770563D02*
X93745000Y-85015000D01*
X93745000Y-85015000D02*
X96095000Y-85015000D01*
X100565000Y-85015000D02*
X98215000Y-85015000D01*
X100565000Y-96445000D02*
X98215000Y-96445000D01*
X93745000Y-96445000D02*
X96095000Y-96445000D01*
X93745000Y-102200563D02*
X93745000Y-96445000D01*
X100565000Y-102200563D02*
X100565000Y-96445000D01*
X99500563Y-103265000D02*
X98215000Y-103265000D01*
X94809437Y-103265000D02*
X96095000Y-103265000D01*
X94809437Y-103265000D02*
X93745000Y-102200563D01*
X99500563Y-103265000D02*
X100565000Y-102200563D01*
X95307500Y-104292500D02*
X95307500Y-103505000D01*
X94913750Y-103898750D02*
X95701250Y-103898750D01*
X119600000Y-97275000D02*
X117900000Y-97275000D01*
X114080000Y-97275000D02*
X115780000Y-97275000D01*
X114080000Y-101730563D02*
X114080000Y-97275000D01*
X119600000Y-101730563D02*
X119600000Y-97275000D01*
X118535563Y-102795000D02*
X117900000Y-102795000D01*
X115144437Y-102795000D02*
X115780000Y-102795000D01*
X115144437Y-102795000D02*
X114080000Y-101730563D01*
X118535563Y-102795000D02*
X119600000Y-101730563D01*
X115155000Y-103660000D02*
X115155000Y-103035000D01*
X114842500Y-103347500D02*
X115467500Y-103347500D01*
X104420000Y-91825000D02*
X103320000Y-91825000D01*
X104420000Y-92095000D02*
X104420000Y-91825000D01*
X105920000Y-92095000D02*
X104420000Y-92095000D01*
X104420000Y-85465000D02*
X101590000Y-85465000D01*
X104420000Y-85195000D02*
X104420000Y-85465000D01*
X105920000Y-85195000D02*
X104420000Y-85195000D01*
X85084000Y-145635000D02*
X85484000Y-145635000D01*
X85084000Y-144995000D02*
X85084000Y-145635000D01*
X91626000Y-141327000D02*
X91231000Y-141723000D01*
X94272000Y-138681000D02*
X93892000Y-139061000D01*
X91877000Y-141609000D02*
X91497000Y-141989000D01*
X94538000Y-138947000D02*
X94143000Y-139343000D01*
X86336000Y-141616000D02*
X86230000Y-141723000D01*
X89272000Y-138681000D02*
X89165000Y-138788000D01*
X86602000Y-141882000D02*
X86496000Y-141989000D01*
X89538000Y-138947000D02*
X89431000Y-139054000D01*
X95444000Y-136275000D02*
X95444000Y-145395000D01*
X85324000Y-136275000D02*
X85324000Y-145395000D01*
X85324000Y-145395000D02*
X95444000Y-145395000D01*
X85324000Y-136275000D02*
X95444000Y-136275000D01*
X85324000Y-143835000D02*
X95444000Y-143835000D01*
X85324000Y-144935000D02*
X95444000Y-144935000D01*
X95064000Y-140335000D02*
G75*
G03X95064000Y-140335000I-2180000J0D01*
G01*
X90064000Y-140335000D02*
G75*
G03X90064000Y-140335000I-2180000J0D01*
G01*
X106701000Y-140335000D02*
G75*
G03X106701000Y-140335000I-2180000J0D01*
G01*
X111701000Y-140335000D02*
G75*
G03X111701000Y-140335000I-2180000J0D01*
G01*
X101961000Y-144935000D02*
X112081000Y-144935000D01*
X101961000Y-143835000D02*
X112081000Y-143835000D01*
X101961000Y-136275000D02*
X112081000Y-136275000D01*
X101961000Y-145395000D02*
X112081000Y-145395000D01*
X101961000Y-136275000D02*
X101961000Y-145395000D01*
X112081000Y-136275000D02*
X112081000Y-145395000D01*
X106175000Y-138947000D02*
X106068000Y-139054000D01*
X103239000Y-141882000D02*
X103133000Y-141989000D01*
X105909000Y-138681000D02*
X105802000Y-138788000D01*
X102973000Y-141616000D02*
X102867000Y-141723000D01*
X111175000Y-138947000D02*
X110780000Y-139343000D01*
X108514000Y-141609000D02*
X108134000Y-141989000D01*
X110909000Y-138681000D02*
X110529000Y-139061000D01*
X108263000Y-141327000D02*
X107868000Y-141723000D01*
X101721000Y-144995000D02*
X101721000Y-145635000D01*
X101721000Y-145635000D02*
X102121000Y-145635000D01*
X118358000Y-145635000D02*
X118758000Y-145635000D01*
X118358000Y-144995000D02*
X118358000Y-145635000D01*
X124900000Y-141327000D02*
X124505000Y-141723000D01*
X127546000Y-138681000D02*
X127166000Y-139061000D01*
X125151000Y-141609000D02*
X124771000Y-141989000D01*
X127812000Y-138947000D02*
X127417000Y-139343000D01*
X119610000Y-141616000D02*
X119504000Y-141723000D01*
X122546000Y-138681000D02*
X122439000Y-138788000D01*
X119876000Y-141882000D02*
X119770000Y-141989000D01*
X122812000Y-138947000D02*
X122705000Y-139054000D01*
X128718000Y-136275000D02*
X128718000Y-145395000D01*
X118598000Y-136275000D02*
X118598000Y-145395000D01*
X118598000Y-145395000D02*
X128718000Y-145395000D01*
X118598000Y-136275000D02*
X128718000Y-136275000D01*
X118598000Y-143835000D02*
X128718000Y-143835000D01*
X118598000Y-144935000D02*
X128718000Y-144935000D01*
X128338000Y-140335000D02*
G75*
G03X128338000Y-140335000I-2180000J0D01*
G01*
X123338000Y-140335000D02*
G75*
G03X123338000Y-140335000I-2180000J0D01*
G01*
X51810000Y-145635000D02*
X52210000Y-145635000D01*
X51810000Y-144995000D02*
X51810000Y-145635000D01*
X58352000Y-141327000D02*
X57957000Y-141723000D01*
X60998000Y-138681000D02*
X60618000Y-139061000D01*
X58603000Y-141609000D02*
X58223000Y-141989000D01*
X61264000Y-138947000D02*
X60869000Y-139343000D01*
X53062000Y-141616000D02*
X52956000Y-141723000D01*
X55998000Y-138681000D02*
X55891000Y-138788000D01*
X53328000Y-141882000D02*
X53222000Y-141989000D01*
X56264000Y-138947000D02*
X56157000Y-139054000D01*
X62170000Y-136275000D02*
X62170000Y-145395000D01*
X52050000Y-136275000D02*
X52050000Y-145395000D01*
X52050000Y-145395000D02*
X62170000Y-145395000D01*
X52050000Y-136275000D02*
X62170000Y-136275000D01*
X52050000Y-143835000D02*
X62170000Y-143835000D01*
X52050000Y-144935000D02*
X62170000Y-144935000D01*
X61790000Y-140335000D02*
G75*
G03X61790000Y-140335000I-2180000J0D01*
G01*
X56790000Y-140335000D02*
G75*
G03X56790000Y-140335000I-2180000J0D01*
G01*
D15*
X171081981Y-78656000D02*
G75*
G03X171081981Y-78656000I-283981J0D01*
G01*
D14*
X189704000Y-78510000D02*
X171704000Y-78510000D01*
X171704000Y-72510000D02*
X171704000Y-98010000D01*
X189704000Y-72510000D02*
X189704000Y-98010000D01*
X189704000Y-98010000D02*
X171704000Y-98010000D01*
X189704000Y-72510000D02*
X171704000Y-72510000D01*
D13*
X68447000Y-145635000D02*
X68847000Y-145635000D01*
X68447000Y-144995000D02*
X68447000Y-145635000D01*
X74989000Y-141327000D02*
X74594000Y-141723000D01*
X77635000Y-138681000D02*
X77255000Y-139061000D01*
X75240000Y-141609000D02*
X74860000Y-141989000D01*
X77901000Y-138947000D02*
X77506000Y-139343000D01*
X69699000Y-141616000D02*
X69593000Y-141723000D01*
X72635000Y-138681000D02*
X72528000Y-138788000D01*
X69965000Y-141882000D02*
X69859000Y-141989000D01*
X72901000Y-138947000D02*
X72794000Y-139054000D01*
X78807000Y-136275000D02*
X78807000Y-145395000D01*
X68687000Y-136275000D02*
X68687000Y-145395000D01*
X68687000Y-145395000D02*
X78807000Y-145395000D01*
X68687000Y-136275000D02*
X78807000Y-136275000D01*
X68687000Y-143835000D02*
X78807000Y-143835000D01*
X68687000Y-144935000D02*
X78807000Y-144935000D01*
X78427000Y-140335000D02*
G75*
G03X78427000Y-140335000I-2180000J0D01*
G01*
X73427000Y-140335000D02*
G75*
G03X73427000Y-140335000I-2180000J0D01*
G01*
X139975000Y-140335000D02*
G75*
G03X139975000Y-140335000I-2180000J0D01*
G01*
X144975000Y-140335000D02*
G75*
G03X144975000Y-140335000I-2180000J0D01*
G01*
X135235000Y-144935000D02*
X145355000Y-144935000D01*
X135235000Y-143835000D02*
X145355000Y-143835000D01*
X135235000Y-136275000D02*
X145355000Y-136275000D01*
X135235000Y-145395000D02*
X145355000Y-145395000D01*
X135235000Y-136275000D02*
X135235000Y-145395000D01*
X145355000Y-136275000D02*
X145355000Y-145395000D01*
X139449000Y-138947000D02*
X139342000Y-139054000D01*
X136513000Y-141882000D02*
X136407000Y-141989000D01*
X139183000Y-138681000D02*
X139076000Y-138788000D01*
X136247000Y-141616000D02*
X136141000Y-141723000D01*
X144449000Y-138947000D02*
X144054000Y-139343000D01*
X141788000Y-141609000D02*
X141408000Y-141989000D01*
X144183000Y-138681000D02*
X143803000Y-139061000D01*
X141537000Y-141327000D02*
X141142000Y-141723000D01*
X134995000Y-144995000D02*
X134995000Y-145635000D01*
X134995000Y-145635000D02*
X135395000Y-145635000D01*
D14*
X125575000Y-95885000D02*
G75*
G03X125575000Y-95885000I-1750000J0D01*
G01*
X125575000Y-91440000D02*
G75*
G03X125575000Y-91440000I-1750000J0D01*
G01*
X125575000Y-86995000D02*
G75*
G03X125575000Y-86995000I-1750000J0D01*
G01*
X125575000Y-100330000D02*
G75*
G03X125575000Y-100330000I-1750000J0D01*
G01*
D16*
X168943000Y-121290000D02*
X163543000Y-121290000D01*
X168943000Y-121290000D02*
X168943000Y-124990000D01*
X168943000Y-124990000D02*
X163543000Y-124990000D01*
X163543000Y-124990000D02*
X163543000Y-121290000D01*
X163543000Y-133490000D02*
X163543000Y-129790000D01*
X168943000Y-129790000D02*
X168943000Y-133490000D01*
X168943000Y-129790000D02*
X163543000Y-129790000D01*
X168943000Y-133490000D02*
X163543000Y-133490000D01*
X168343000Y-124990000D02*
X168343000Y-129790000D01*
X164143000Y-124990000D02*
X164143000Y-129790000D01*
D13*
X201489000Y-138998000D02*
X204149000Y-138998000D01*
X201489000Y-133858000D02*
X201489000Y-138998000D01*
X204149000Y-133858000D02*
X204149000Y-138998000D01*
X201489000Y-133858000D02*
X204149000Y-133858000D01*
X201489000Y-132588000D02*
X201489000Y-131258000D01*
X201489000Y-131258000D02*
X202819000Y-131258000D01*
X193546252Y-135838000D02*
X193023748Y-135838000D01*
X193546252Y-134418000D02*
X193023748Y-134418000D01*
X168423000Y-140335000D02*
G75*
G03X168423000Y-140335000I-2180000J0D01*
G01*
X173423000Y-140335000D02*
G75*
G03X173423000Y-140335000I-2180000J0D01*
G01*
X163683000Y-144935000D02*
X173803000Y-144935000D01*
X163683000Y-143835000D02*
X173803000Y-143835000D01*
X163683000Y-136275000D02*
X173803000Y-136275000D01*
X163683000Y-145395000D02*
X173803000Y-145395000D01*
X163683000Y-136275000D02*
X163683000Y-145395000D01*
X173803000Y-136275000D02*
X173803000Y-145395000D01*
X167897000Y-138947000D02*
X167790000Y-139054000D01*
X164961000Y-141882000D02*
X164855000Y-141989000D01*
X167631000Y-138681000D02*
X167524000Y-138788000D01*
X164695000Y-141616000D02*
X164589000Y-141723000D01*
X172897000Y-138947000D02*
X172502000Y-139343000D01*
X170236000Y-141609000D02*
X169856000Y-141989000D01*
X172631000Y-138681000D02*
X172251000Y-139061000D01*
X169985000Y-141327000D02*
X169590000Y-141723000D01*
X163443000Y-144995000D02*
X163443000Y-145635000D01*
X163443000Y-145635000D02*
X163843000Y-145635000D01*
X168604000Y-82043748D02*
X168604000Y-82566252D01*
X167184000Y-82043748D02*
X167184000Y-82566252D01*
X196036000Y-102378252D02*
X196036000Y-101855748D01*
X194616000Y-102378252D02*
X194616000Y-101855748D01*
X201489000Y-104454000D02*
X204149000Y-104454000D01*
X201489000Y-91694000D02*
X201489000Y-104454000D01*
X204149000Y-91694000D02*
X204149000Y-104454000D01*
X201489000Y-91694000D02*
X204149000Y-91694000D01*
X201489000Y-90424000D02*
X201489000Y-89094000D01*
X201489000Y-89094000D02*
X202819000Y-89094000D01*
D17*
G36*
X187436535Y-139413172D02*
X187549117Y-140010363D01*
X187964531Y-140181610D01*
X188379944Y-140352857D01*
X188878302Y-140013978D01*
X189017868Y-139919622D01*
X189144028Y-139835375D01*
X189250895Y-139765083D01*
X189332582Y-139712592D01*
X189383201Y-139681749D01*
X189396986Y-139675098D01*
X189421820Y-139692203D01*
X189474888Y-139739489D01*
X189550240Y-139810917D01*
X189641929Y-139900445D01*
X189744007Y-140002034D01*
X189850526Y-140109643D01*
X189955536Y-140217232D01*
X190053091Y-140318760D01*
X190137242Y-140408186D01*
X190202040Y-140479471D01*
X190241538Y-140526573D01*
X190250980Y-140542337D01*
X190237391Y-140571398D01*
X190199293Y-140635066D01*
X190140694Y-140727112D01*
X190065597Y-140841309D01*
X189978009Y-140971429D01*
X189927254Y-141045646D01*
X189834745Y-141181167D01*
X189752540Y-141303461D01*
X189684630Y-141406440D01*
X189635000Y-141484018D01*
X189607640Y-141530106D01*
X189603529Y-141539792D01*
X189612849Y-141567319D01*
X189638254Y-141631473D01*
X189675911Y-141723235D01*
X189721986Y-141833584D01*
X189772646Y-141953500D01*
X189824059Y-142073964D01*
X189872389Y-142185954D01*
X189913806Y-142280452D01*
X189944474Y-142348437D01*
X189960562Y-142380888D01*
X189961511Y-142382165D01*
X189986772Y-142388362D01*
X190054046Y-142402185D01*
X190156360Y-142422277D01*
X190286741Y-142447279D01*
X190438216Y-142475831D01*
X190526594Y-142492296D01*
X190688452Y-142523114D01*
X190834649Y-142552439D01*
X190957787Y-142578666D01*
X191050469Y-142600191D01*
X191105301Y-142615410D01*
X191116323Y-142620238D01*
X191127119Y-142652919D01*
X191135829Y-142726730D01*
X191142460Y-142833037D01*
X191147018Y-142963212D01*
X191149509Y-143108621D01*
X191149938Y-143260635D01*
X191148311Y-143410622D01*
X191144635Y-143549951D01*
X191138915Y-143669990D01*
X191131158Y-143762110D01*
X191121368Y-143817677D01*
X191115496Y-143829245D01*
X191080399Y-143843110D01*
X191006028Y-143862933D01*
X190902223Y-143886384D01*
X190778819Y-143911136D01*
X190735741Y-143919143D01*
X190528047Y-143957186D01*
X190363984Y-143987824D01*
X190238130Y-144012274D01*
X190145065Y-144031754D01*
X190079367Y-144047481D01*
X190035617Y-144060673D01*
X190008392Y-144072549D01*
X189992272Y-144084325D01*
X189990017Y-144086653D01*
X189967503Y-144124145D01*
X189933158Y-144197110D01*
X189890411Y-144296612D01*
X189842692Y-144413718D01*
X189793430Y-144539493D01*
X189746055Y-144665002D01*
X189703995Y-144781310D01*
X189670680Y-144879484D01*
X189649541Y-144950588D01*
X189644005Y-144985687D01*
X189644466Y-144986917D01*
X189663223Y-145015606D01*
X189705776Y-145078730D01*
X189767653Y-145169718D01*
X189844382Y-145282000D01*
X189931491Y-145409005D01*
X189956299Y-145445098D01*
X190044753Y-145575948D01*
X190122588Y-145695336D01*
X190185566Y-145796407D01*
X190229445Y-145872304D01*
X190249985Y-145916172D01*
X190250980Y-145921562D01*
X190233722Y-145949889D01*
X190186036Y-146006006D01*
X190114050Y-146083882D01*
X190023897Y-146177485D01*
X189921705Y-146280786D01*
X189813606Y-146387751D01*
X189705728Y-146492351D01*
X189604204Y-146588554D01*
X189515162Y-146670329D01*
X189444733Y-146731645D01*
X189399047Y-146766471D01*
X189386409Y-146772157D01*
X189356991Y-146758765D01*
X189296761Y-146722644D01*
X189215530Y-146669881D01*
X189153030Y-146627412D01*
X189039785Y-146549485D01*
X188905674Y-146457729D01*
X188771155Y-146366120D01*
X188698833Y-146317091D01*
X188454038Y-146151515D01*
X188248551Y-146262620D01*
X188154936Y-146311293D01*
X188075330Y-146349126D01*
X188021467Y-146370703D01*
X188007757Y-146373706D01*
X187991270Y-146351538D01*
X187958745Y-146288894D01*
X187912609Y-146191554D01*
X187855290Y-146065294D01*
X187789216Y-145915895D01*
X187716815Y-145749133D01*
X187640516Y-145570787D01*
X187562746Y-145386636D01*
X187485934Y-145202457D01*
X187412506Y-145024030D01*
X187344892Y-144857132D01*
X187285520Y-144707542D01*
X187236816Y-144581038D01*
X187201210Y-144483399D01*
X187181130Y-144420402D01*
X187177900Y-144398766D01*
X187203496Y-144371169D01*
X187259539Y-144326370D01*
X187334311Y-144273679D01*
X187340587Y-144269510D01*
X187533845Y-144114814D01*
X187689674Y-143934336D01*
X187806724Y-143733847D01*
X187883645Y-143519119D01*
X187919086Y-143295922D01*
X187911697Y-143070026D01*
X187860127Y-142847204D01*
X187763026Y-142633224D01*
X187734458Y-142586409D01*
X187585868Y-142397363D01*
X187410327Y-142245557D01*
X187213910Y-142131779D01*
X187002693Y-142056820D01*
X186782753Y-142021467D01*
X186560163Y-142026512D01*
X186341001Y-142072744D01*
X186131342Y-142160951D01*
X185937261Y-142291924D01*
X185877226Y-142345082D01*
X185724435Y-142511484D01*
X185613097Y-142686657D01*
X185536723Y-142883011D01*
X185494187Y-143077462D01*
X185483686Y-143296087D01*
X185518701Y-143515797D01*
X185595673Y-143729165D01*
X185711047Y-143928767D01*
X185861266Y-144107174D01*
X186042773Y-144256962D01*
X186066627Y-144272751D01*
X186142201Y-144324457D01*
X186199651Y-144369257D01*
X186227117Y-144397862D01*
X186227517Y-144398766D01*
X186221620Y-144429709D01*
X186198245Y-144499936D01*
X186159821Y-144603670D01*
X186108777Y-144735135D01*
X186047542Y-144888552D01*
X185978544Y-145058146D01*
X185904214Y-145238138D01*
X185826978Y-145422753D01*
X185749268Y-145606213D01*
X185673511Y-145782741D01*
X185602137Y-145946559D01*
X185537574Y-146091892D01*
X185482252Y-146212962D01*
X185438600Y-146303992D01*
X185409046Y-146359205D01*
X185397144Y-146373706D01*
X185360777Y-146362414D01*
X185292730Y-146332130D01*
X185204737Y-146288265D01*
X185156351Y-146262620D01*
X184950863Y-146151515D01*
X184706068Y-146317091D01*
X184581106Y-146401915D01*
X184444295Y-146495261D01*
X184316089Y-146583153D01*
X184251871Y-146627412D01*
X184161551Y-146688063D01*
X184085071Y-146736126D01*
X184032407Y-146765515D01*
X184015302Y-146771727D01*
X183990405Y-146754968D01*
X183935305Y-146708181D01*
X183855343Y-146636225D01*
X183755861Y-146543957D01*
X183642200Y-146436235D01*
X183570315Y-146367071D01*
X183444551Y-146243502D01*
X183335863Y-146132979D01*
X183248645Y-146040230D01*
X183187289Y-145969982D01*
X183156191Y-145926965D01*
X183153208Y-145918235D01*
X183167053Y-145885029D01*
X183205312Y-145817887D01*
X183263742Y-145723608D01*
X183338097Y-145608990D01*
X183424135Y-145480828D01*
X183448603Y-145445098D01*
X183537755Y-145315234D01*
X183617738Y-145198314D01*
X183684080Y-145100907D01*
X183732311Y-145029584D01*
X183757957Y-144990915D01*
X183760435Y-144986917D01*
X183756729Y-144956100D01*
X183737061Y-144888344D01*
X183704860Y-144792584D01*
X183663555Y-144677754D01*
X183616575Y-144552789D01*
X183567349Y-144426624D01*
X183519308Y-144308193D01*
X183475881Y-144206430D01*
X183440496Y-144130271D01*
X183416584Y-144088649D01*
X183414884Y-144086653D01*
X183400262Y-144074758D01*
X183375565Y-144062995D01*
X183335372Y-144050146D01*
X183274263Y-144034994D01*
X183186817Y-144016321D01*
X183067612Y-143992910D01*
X182911227Y-143963542D01*
X182712243Y-143927000D01*
X182669160Y-143919143D01*
X182541471Y-143894472D01*
X182430153Y-143870338D01*
X182345045Y-143849069D01*
X182295983Y-143832993D01*
X182289405Y-143829245D01*
X182278564Y-143796018D01*
X182269753Y-143721766D01*
X182262976Y-143615121D01*
X182258240Y-143484712D01*
X182255550Y-143339172D01*
X182254913Y-143187131D01*
X182256334Y-143037221D01*
X182259820Y-142898073D01*
X182265376Y-142778317D01*
X182273008Y-142686586D01*
X182282722Y-142631511D01*
X182288578Y-142620238D01*
X182321180Y-142608868D01*
X182395418Y-142590369D01*
X182503896Y-142566347D01*
X182639217Y-142538407D01*
X182793985Y-142508153D01*
X182878308Y-142492296D01*
X183038296Y-142462389D01*
X183180967Y-142435295D01*
X183299348Y-142412376D01*
X183386465Y-142394988D01*
X183435345Y-142384492D01*
X183443390Y-142382165D01*
X183456987Y-142355931D01*
X183485729Y-142292740D01*
X183525785Y-142201622D01*
X183573324Y-142091602D01*
X183624515Y-141971710D01*
X183675526Y-141850972D01*
X183722526Y-141738416D01*
X183761684Y-141643071D01*
X183789169Y-141573962D01*
X183801149Y-141540119D01*
X183801372Y-141538640D01*
X183787791Y-141511942D01*
X183749715Y-141450505D01*
X183691147Y-141360434D01*
X183616088Y-141247835D01*
X183528540Y-141118815D01*
X183477647Y-141044706D01*
X183384909Y-140908822D01*
X183302541Y-140785454D01*
X183234561Y-140680842D01*
X183184988Y-140601228D01*
X183157842Y-140552852D01*
X183153921Y-140542007D01*
X183170775Y-140516765D01*
X183217368Y-140462869D01*
X183287749Y-140386358D01*
X183375965Y-140293268D01*
X183476065Y-140189640D01*
X183582098Y-140081509D01*
X183688111Y-139974915D01*
X183788152Y-139875895D01*
X183876270Y-139790487D01*
X183946513Y-139724730D01*
X183992928Y-139684661D01*
X184008456Y-139675098D01*
X184033739Y-139688545D01*
X184094211Y-139726320D01*
X184183992Y-139784580D01*
X184297203Y-139859479D01*
X184427964Y-139947170D01*
X184526600Y-140013978D01*
X185024957Y-140352857D01*
X185440371Y-140181610D01*
X185855784Y-140010363D01*
X185968366Y-139413172D01*
X186080949Y-138815980D01*
X187323952Y-138815980D01*
X187436535Y-139413172D01*
X187436535Y-139413172D01*
G37*
X187436535Y-139413172D02*
X187549117Y-140010363D01*
X187964531Y-140181610D01*
X188379944Y-140352857D01*
X188878302Y-140013978D01*
X189017868Y-139919622D01*
X189144028Y-139835375D01*
X189250895Y-139765083D01*
X189332582Y-139712592D01*
X189383201Y-139681749D01*
X189396986Y-139675098D01*
X189421820Y-139692203D01*
X189474888Y-139739489D01*
X189550240Y-139810917D01*
X189641929Y-139900445D01*
X189744007Y-140002034D01*
X189850526Y-140109643D01*
X189955536Y-140217232D01*
X190053091Y-140318760D01*
X190137242Y-140408186D01*
X190202040Y-140479471D01*
X190241538Y-140526573D01*
X190250980Y-140542337D01*
X190237391Y-140571398D01*
X190199293Y-140635066D01*
X190140694Y-140727112D01*
X190065597Y-140841309D01*
X189978009Y-140971429D01*
X189927254Y-141045646D01*
X189834745Y-141181167D01*
X189752540Y-141303461D01*
X189684630Y-141406440D01*
X189635000Y-141484018D01*
X189607640Y-141530106D01*
X189603529Y-141539792D01*
X189612849Y-141567319D01*
X189638254Y-141631473D01*
X189675911Y-141723235D01*
X189721986Y-141833584D01*
X189772646Y-141953500D01*
X189824059Y-142073964D01*
X189872389Y-142185954D01*
X189913806Y-142280452D01*
X189944474Y-142348437D01*
X189960562Y-142380888D01*
X189961511Y-142382165D01*
X189986772Y-142388362D01*
X190054046Y-142402185D01*
X190156360Y-142422277D01*
X190286741Y-142447279D01*
X190438216Y-142475831D01*
X190526594Y-142492296D01*
X190688452Y-142523114D01*
X190834649Y-142552439D01*
X190957787Y-142578666D01*
X191050469Y-142600191D01*
X191105301Y-142615410D01*
X191116323Y-142620238D01*
X191127119Y-142652919D01*
X191135829Y-142726730D01*
X191142460Y-142833037D01*
X191147018Y-142963212D01*
X191149509Y-143108621D01*
X191149938Y-143260635D01*
X191148311Y-143410622D01*
X191144635Y-143549951D01*
X191138915Y-143669990D01*
X191131158Y-143762110D01*
X191121368Y-143817677D01*
X191115496Y-143829245D01*
X191080399Y-143843110D01*
X191006028Y-143862933D01*
X190902223Y-143886384D01*
X190778819Y-143911136D01*
X190735741Y-143919143D01*
X190528047Y-143957186D01*
X190363984Y-143987824D01*
X190238130Y-144012274D01*
X190145065Y-144031754D01*
X190079367Y-144047481D01*
X190035617Y-144060673D01*
X190008392Y-144072549D01*
X189992272Y-144084325D01*
X189990017Y-144086653D01*
X189967503Y-144124145D01*
X189933158Y-144197110D01*
X189890411Y-144296612D01*
X189842692Y-144413718D01*
X189793430Y-144539493D01*
X189746055Y-144665002D01*
X189703995Y-144781310D01*
X189670680Y-144879484D01*
X189649541Y-144950588D01*
X189644005Y-144985687D01*
X189644466Y-144986917D01*
X189663223Y-145015606D01*
X189705776Y-145078730D01*
X189767653Y-145169718D01*
X189844382Y-145282000D01*
X189931491Y-145409005D01*
X189956299Y-145445098D01*
X190044753Y-145575948D01*
X190122588Y-145695336D01*
X190185566Y-145796407D01*
X190229445Y-145872304D01*
X190249985Y-145916172D01*
X190250980Y-145921562D01*
X190233722Y-145949889D01*
X190186036Y-146006006D01*
X190114050Y-146083882D01*
X190023897Y-146177485D01*
X189921705Y-146280786D01*
X189813606Y-146387751D01*
X189705728Y-146492351D01*
X189604204Y-146588554D01*
X189515162Y-146670329D01*
X189444733Y-146731645D01*
X189399047Y-146766471D01*
X189386409Y-146772157D01*
X189356991Y-146758765D01*
X189296761Y-146722644D01*
X189215530Y-146669881D01*
X189153030Y-146627412D01*
X189039785Y-146549485D01*
X188905674Y-146457729D01*
X188771155Y-146366120D01*
X188698833Y-146317091D01*
X188454038Y-146151515D01*
X188248551Y-146262620D01*
X188154936Y-146311293D01*
X188075330Y-146349126D01*
X188021467Y-146370703D01*
X188007757Y-146373706D01*
X187991270Y-146351538D01*
X187958745Y-146288894D01*
X187912609Y-146191554D01*
X187855290Y-146065294D01*
X187789216Y-145915895D01*
X187716815Y-145749133D01*
X187640516Y-145570787D01*
X187562746Y-145386636D01*
X187485934Y-145202457D01*
X187412506Y-145024030D01*
X187344892Y-144857132D01*
X187285520Y-144707542D01*
X187236816Y-144581038D01*
X187201210Y-144483399D01*
X187181130Y-144420402D01*
X187177900Y-144398766D01*
X187203496Y-144371169D01*
X187259539Y-144326370D01*
X187334311Y-144273679D01*
X187340587Y-144269510D01*
X187533845Y-144114814D01*
X187689674Y-143934336D01*
X187806724Y-143733847D01*
X187883645Y-143519119D01*
X187919086Y-143295922D01*
X187911697Y-143070026D01*
X187860127Y-142847204D01*
X187763026Y-142633224D01*
X187734458Y-142586409D01*
X187585868Y-142397363D01*
X187410327Y-142245557D01*
X187213910Y-142131779D01*
X187002693Y-142056820D01*
X186782753Y-142021467D01*
X186560163Y-142026512D01*
X186341001Y-142072744D01*
X186131342Y-142160951D01*
X185937261Y-142291924D01*
X185877226Y-142345082D01*
X185724435Y-142511484D01*
X185613097Y-142686657D01*
X185536723Y-142883011D01*
X185494187Y-143077462D01*
X185483686Y-143296087D01*
X185518701Y-143515797D01*
X185595673Y-143729165D01*
X185711047Y-143928767D01*
X185861266Y-144107174D01*
X186042773Y-144256962D01*
X186066627Y-144272751D01*
X186142201Y-144324457D01*
X186199651Y-144369257D01*
X186227117Y-144397862D01*
X186227517Y-144398766D01*
X186221620Y-144429709D01*
X186198245Y-144499936D01*
X186159821Y-144603670D01*
X186108777Y-144735135D01*
X186047542Y-144888552D01*
X185978544Y-145058146D01*
X185904214Y-145238138D01*
X185826978Y-145422753D01*
X185749268Y-145606213D01*
X185673511Y-145782741D01*
X185602137Y-145946559D01*
X185537574Y-146091892D01*
X185482252Y-146212962D01*
X185438600Y-146303992D01*
X185409046Y-146359205D01*
X185397144Y-146373706D01*
X185360777Y-146362414D01*
X185292730Y-146332130D01*
X185204737Y-146288265D01*
X185156351Y-146262620D01*
X184950863Y-146151515D01*
X184706068Y-146317091D01*
X184581106Y-146401915D01*
X184444295Y-146495261D01*
X184316089Y-146583153D01*
X184251871Y-146627412D01*
X184161551Y-146688063D01*
X184085071Y-146736126D01*
X184032407Y-146765515D01*
X184015302Y-146771727D01*
X183990405Y-146754968D01*
X183935305Y-146708181D01*
X183855343Y-146636225D01*
X183755861Y-146543957D01*
X183642200Y-146436235D01*
X183570315Y-146367071D01*
X183444551Y-146243502D01*
X183335863Y-146132979D01*
X183248645Y-146040230D01*
X183187289Y-145969982D01*
X183156191Y-145926965D01*
X183153208Y-145918235D01*
X183167053Y-145885029D01*
X183205312Y-145817887D01*
X183263742Y-145723608D01*
X183338097Y-145608990D01*
X183424135Y-145480828D01*
X183448603Y-145445098D01*
X183537755Y-145315234D01*
X183617738Y-145198314D01*
X183684080Y-145100907D01*
X183732311Y-145029584D01*
X183757957Y-144990915D01*
X183760435Y-144986917D01*
X183756729Y-144956100D01*
X183737061Y-144888344D01*
X183704860Y-144792584D01*
X183663555Y-144677754D01*
X183616575Y-144552789D01*
X183567349Y-144426624D01*
X183519308Y-144308193D01*
X183475881Y-144206430D01*
X183440496Y-144130271D01*
X183416584Y-144088649D01*
X183414884Y-144086653D01*
X183400262Y-144074758D01*
X183375565Y-144062995D01*
X183335372Y-144050146D01*
X183274263Y-144034994D01*
X183186817Y-144016321D01*
X183067612Y-143992910D01*
X182911227Y-143963542D01*
X182712243Y-143927000D01*
X182669160Y-143919143D01*
X182541471Y-143894472D01*
X182430153Y-143870338D01*
X182345045Y-143849069D01*
X182295983Y-143832993D01*
X182289405Y-143829245D01*
X182278564Y-143796018D01*
X182269753Y-143721766D01*
X182262976Y-143615121D01*
X182258240Y-143484712D01*
X182255550Y-143339172D01*
X182254913Y-143187131D01*
X182256334Y-143037221D01*
X182259820Y-142898073D01*
X182265376Y-142778317D01*
X182273008Y-142686586D01*
X182282722Y-142631511D01*
X182288578Y-142620238D01*
X182321180Y-142608868D01*
X182395418Y-142590369D01*
X182503896Y-142566347D01*
X182639217Y-142538407D01*
X182793985Y-142508153D01*
X182878308Y-142492296D01*
X183038296Y-142462389D01*
X183180967Y-142435295D01*
X183299348Y-142412376D01*
X183386465Y-142394988D01*
X183435345Y-142384492D01*
X183443390Y-142382165D01*
X183456987Y-142355931D01*
X183485729Y-142292740D01*
X183525785Y-142201622D01*
X183573324Y-142091602D01*
X183624515Y-141971710D01*
X183675526Y-141850972D01*
X183722526Y-141738416D01*
X183761684Y-141643071D01*
X183789169Y-141573962D01*
X183801149Y-141540119D01*
X183801372Y-141538640D01*
X183787791Y-141511942D01*
X183749715Y-141450505D01*
X183691147Y-141360434D01*
X183616088Y-141247835D01*
X183528540Y-141118815D01*
X183477647Y-141044706D01*
X183384909Y-140908822D01*
X183302541Y-140785454D01*
X183234561Y-140680842D01*
X183184988Y-140601228D01*
X183157842Y-140552852D01*
X183153921Y-140542007D01*
X183170775Y-140516765D01*
X183217368Y-140462869D01*
X183287749Y-140386358D01*
X183375965Y-140293268D01*
X183476065Y-140189640D01*
X183582098Y-140081509D01*
X183688111Y-139974915D01*
X183788152Y-139875895D01*
X183876270Y-139790487D01*
X183946513Y-139724730D01*
X183992928Y-139684661D01*
X184008456Y-139675098D01*
X184033739Y-139688545D01*
X184094211Y-139726320D01*
X184183992Y-139784580D01*
X184297203Y-139859479D01*
X184427964Y-139947170D01*
X184526600Y-140013978D01*
X185024957Y-140352857D01*
X185440371Y-140181610D01*
X185855784Y-140010363D01*
X185968366Y-139413172D01*
X186080949Y-138815980D01*
X187323952Y-138815980D01*
X187436535Y-139413172D01*
G36*
X190253637Y-147667472D02*
X190339290Y-147693641D01*
X190394437Y-147726707D01*
X190412401Y-147752855D01*
X190407457Y-147783852D01*
X190375372Y-147832547D01*
X190348243Y-147867035D01*
X190292317Y-147929383D01*
X190250299Y-147955615D01*
X190214480Y-147953903D01*
X190108224Y-147926863D01*
X190030189Y-147928091D01*
X189966820Y-147958735D01*
X189945546Y-147976670D01*
X189877451Y-148039779D01*
X189877451Y-148863922D01*
X189603529Y-148863922D01*
X189603529Y-147668628D01*
X189740490Y-147668628D01*
X189822719Y-147671879D01*
X189865144Y-147683426D01*
X189877445Y-147705952D01*
X189877451Y-147706620D01*
X189883260Y-147730215D01*
X189909531Y-147727138D01*
X189945931Y-147710115D01*
X190021111Y-147678439D01*
X190082158Y-147659381D01*
X190160708Y-147654496D01*
X190253637Y-147667472D01*
X190253637Y-147667472D01*
G37*
X190253637Y-147667472D02*
X190339290Y-147693641D01*
X190394437Y-147726707D01*
X190412401Y-147752855D01*
X190407457Y-147783852D01*
X190375372Y-147832547D01*
X190348243Y-147867035D01*
X190292317Y-147929383D01*
X190250299Y-147955615D01*
X190214480Y-147953903D01*
X190108224Y-147926863D01*
X190030189Y-147928091D01*
X189966820Y-147958735D01*
X189945546Y-147976670D01*
X189877451Y-148039779D01*
X189877451Y-148863922D01*
X189603529Y-148863922D01*
X189603529Y-147668628D01*
X189740490Y-147668628D01*
X189822719Y-147671879D01*
X189865144Y-147683426D01*
X189877445Y-147705952D01*
X189877451Y-147706620D01*
X189883260Y-147730215D01*
X189909531Y-147727138D01*
X189945931Y-147710115D01*
X190021111Y-147678439D01*
X190082158Y-147659381D01*
X190160708Y-147654496D01*
X190253637Y-147667472D01*
G36*
X185196760Y-147689199D02*
X185258736Y-147718802D01*
X185318759Y-147761561D01*
X185364486Y-147810775D01*
X185397793Y-147873544D01*
X185420555Y-147956971D01*
X185434647Y-148068159D01*
X185441942Y-148214209D01*
X185444318Y-148402223D01*
X185444355Y-148421912D01*
X185444902Y-148863922D01*
X185170980Y-148863922D01*
X185170980Y-148456435D01*
X185170785Y-148305471D01*
X185169436Y-148196056D01*
X185165788Y-148119933D01*
X185158696Y-148068848D01*
X185147013Y-148034545D01*
X185129594Y-148008768D01*
X185105329Y-147983298D01*
X185020435Y-147928571D01*
X184927761Y-147918416D01*
X184839473Y-147953017D01*
X184808770Y-147978770D01*
X184786229Y-148002982D01*
X184770046Y-148028912D01*
X184759168Y-148064708D01*
X184752542Y-148118519D01*
X184749115Y-148198493D01*
X184747834Y-148312779D01*
X184747647Y-148451907D01*
X184747647Y-148863922D01*
X184473725Y-148863922D01*
X184473725Y-147668628D01*
X184610686Y-147668628D01*
X184692916Y-147671879D01*
X184735340Y-147683426D01*
X184747641Y-147705952D01*
X184747647Y-147706620D01*
X184753354Y-147728681D01*
X184778527Y-147726177D01*
X184828578Y-147701937D01*
X184942094Y-147666271D01*
X185071945Y-147662305D01*
X185196760Y-147689199D01*
X185196760Y-147689199D01*
G37*
X185196760Y-147689199D02*
X185258736Y-147718802D01*
X185318759Y-147761561D01*
X185364486Y-147810775D01*
X185397793Y-147873544D01*
X185420555Y-147956971D01*
X185434647Y-148068159D01*
X185441942Y-148214209D01*
X185444318Y-148402223D01*
X185444355Y-148421912D01*
X185444902Y-148863922D01*
X185170980Y-148863922D01*
X185170980Y-148456435D01*
X185170785Y-148305471D01*
X185169436Y-148196056D01*
X185165788Y-148119933D01*
X185158696Y-148068848D01*
X185147013Y-148034545D01*
X185129594Y-148008768D01*
X185105329Y-147983298D01*
X185020435Y-147928571D01*
X184927761Y-147918416D01*
X184839473Y-147953017D01*
X184808770Y-147978770D01*
X184786229Y-148002982D01*
X184770046Y-148028912D01*
X184759168Y-148064708D01*
X184752542Y-148118519D01*
X184749115Y-148198493D01*
X184747834Y-148312779D01*
X184747647Y-148451907D01*
X184747647Y-148863922D01*
X184473725Y-148863922D01*
X184473725Y-147668628D01*
X184610686Y-147668628D01*
X184692916Y-147671879D01*
X184735340Y-147683426D01*
X184747641Y-147705952D01*
X184747647Y-147706620D01*
X184753354Y-147728681D01*
X184778527Y-147726177D01*
X184828578Y-147701937D01*
X184942094Y-147666271D01*
X185071945Y-147662305D01*
X185196760Y-147689199D01*
G36*
X191993287Y-147664355D02*
X192057051Y-147679845D01*
X192179300Y-147736569D01*
X192283834Y-147823202D01*
X192356180Y-147927074D01*
X192366119Y-147950396D01*
X192379754Y-148011484D01*
X192389298Y-148101853D01*
X192392549Y-148193190D01*
X192392549Y-148365882D01*
X192031470Y-148365882D01*
X191882546Y-148366445D01*
X191777632Y-148369864D01*
X191710937Y-148378731D01*
X191676666Y-148395641D01*
X191669028Y-148423189D01*
X191682229Y-148463968D01*
X191705877Y-148511683D01*
X191771843Y-148591314D01*
X191863512Y-148630987D01*
X191975555Y-148629695D01*
X192102472Y-148586514D01*
X192212158Y-148533224D01*
X192303173Y-148605191D01*
X192394188Y-148677157D01*
X192308563Y-148756269D01*
X192194250Y-148831017D01*
X192053666Y-148876084D01*
X191902449Y-148888696D01*
X191756236Y-148866079D01*
X191732647Y-148858405D01*
X191604141Y-148791296D01*
X191508551Y-148691247D01*
X191443861Y-148555271D01*
X191408057Y-148380380D01*
X191407640Y-148376632D01*
X191404434Y-148186032D01*
X191417393Y-148118035D01*
X191670392Y-148118035D01*
X191693627Y-148128491D01*
X191756710Y-148136500D01*
X191849706Y-148141073D01*
X191908638Y-148141765D01*
X192018537Y-148141332D01*
X192087252Y-148138578D01*
X192123405Y-148131321D01*
X192135615Y-148117376D01*
X192132504Y-148094562D01*
X192129894Y-148085735D01*
X192085344Y-148002800D01*
X192015279Y-147935960D01*
X191953446Y-147906589D01*
X191871301Y-147908362D01*
X191788062Y-147944990D01*
X191718238Y-148005634D01*
X191676337Y-148079456D01*
X191670392Y-148118035D01*
X191417393Y-148118035D01*
X191436385Y-148018395D01*
X191499773Y-147877711D01*
X191590878Y-147767974D01*
X191705978Y-147693174D01*
X191841355Y-147657304D01*
X191993287Y-147664355D01*
X191993287Y-147664355D01*
G37*
X191993287Y-147664355D02*
X192057051Y-147679845D01*
X192179300Y-147736569D01*
X192283834Y-147823202D01*
X192356180Y-147927074D01*
X192366119Y-147950396D01*
X192379754Y-148011484D01*
X192389298Y-148101853D01*
X192392549Y-148193190D01*
X192392549Y-148365882D01*
X192031470Y-148365882D01*
X191882546Y-148366445D01*
X191777632Y-148369864D01*
X191710937Y-148378731D01*
X191676666Y-148395641D01*
X191669028Y-148423189D01*
X191682229Y-148463968D01*
X191705877Y-148511683D01*
X191771843Y-148591314D01*
X191863512Y-148630987D01*
X191975555Y-148629695D01*
X192102472Y-148586514D01*
X192212158Y-148533224D01*
X192303173Y-148605191D01*
X192394188Y-148677157D01*
X192308563Y-148756269D01*
X192194250Y-148831017D01*
X192053666Y-148876084D01*
X191902449Y-148888696D01*
X191756236Y-148866079D01*
X191732647Y-148858405D01*
X191604141Y-148791296D01*
X191508551Y-148691247D01*
X191443861Y-148555271D01*
X191408057Y-148380380D01*
X191407640Y-148376632D01*
X191404434Y-148186032D01*
X191417393Y-148118035D01*
X191670392Y-148118035D01*
X191693627Y-148128491D01*
X191756710Y-148136500D01*
X191849706Y-148141073D01*
X191908638Y-148141765D01*
X192018537Y-148141332D01*
X192087252Y-148138578D01*
X192123405Y-148131321D01*
X192135615Y-148117376D01*
X192132504Y-148094562D01*
X192129894Y-148085735D01*
X192085344Y-148002800D01*
X192015279Y-147935960D01*
X191953446Y-147906589D01*
X191871301Y-147908362D01*
X191788062Y-147944990D01*
X191718238Y-148005634D01*
X191676337Y-148079456D01*
X191670392Y-148118035D01*
X191417393Y-148118035D01*
X191436385Y-148018395D01*
X191499773Y-147877711D01*
X191590878Y-147767974D01*
X191705978Y-147693174D01*
X191841355Y-147657304D01*
X191993287Y-147664355D01*
G36*
X191080976Y-147679056D02*
X191225256Y-147740348D01*
X191270699Y-147770185D01*
X191328779Y-147816036D01*
X191365238Y-147852089D01*
X191371568Y-147863832D01*
X191353693Y-147889889D01*
X191307950Y-147934105D01*
X191271328Y-147964965D01*
X191171088Y-148045520D01*
X191091935Y-147978918D01*
X191030769Y-147935921D01*
X190971129Y-147921079D01*
X190902872Y-147924704D01*
X190794482Y-147951652D01*
X190719872Y-148007587D01*
X190674530Y-148098014D01*
X190653947Y-148228435D01*
X190653942Y-148228517D01*
X190655722Y-148374290D01*
X190683387Y-148481245D01*
X190738571Y-148554064D01*
X190776192Y-148578723D01*
X190876105Y-148609431D01*
X190982822Y-148609449D01*
X191075669Y-148579655D01*
X191097647Y-148565098D01*
X191152765Y-148527914D01*
X191195859Y-148521820D01*
X191242335Y-148549496D01*
X191293716Y-148599205D01*
X191375046Y-148683116D01*
X191284749Y-148757546D01*
X191145236Y-148841549D01*
X190987912Y-148882947D01*
X190823503Y-148879950D01*
X190715531Y-148852500D01*
X190589331Y-148784620D01*
X190488401Y-148677831D01*
X190442548Y-148602451D01*
X190405410Y-148494297D01*
X190386827Y-148357318D01*
X190386684Y-148208864D01*
X190404865Y-148066281D01*
X190441255Y-147946918D01*
X190446987Y-147934680D01*
X190531865Y-147814655D01*
X190646782Y-147727267D01*
X190782659Y-147674329D01*
X190930417Y-147657654D01*
X191080976Y-147679056D01*
X191080976Y-147679056D01*
G37*
X191080976Y-147679056D02*
X191225256Y-147740348D01*
X191270699Y-147770185D01*
X191328779Y-147816036D01*
X191365238Y-147852089D01*
X191371568Y-147863832D01*
X191353693Y-147889889D01*
X191307950Y-147934105D01*
X191271328Y-147964965D01*
X191171088Y-148045520D01*
X191091935Y-147978918D01*
X191030769Y-147935921D01*
X190971129Y-147921079D01*
X190902872Y-147924704D01*
X190794482Y-147951652D01*
X190719872Y-148007587D01*
X190674530Y-148098014D01*
X190653947Y-148228435D01*
X190653942Y-148228517D01*
X190655722Y-148374290D01*
X190683387Y-148481245D01*
X190738571Y-148554064D01*
X190776192Y-148578723D01*
X190876105Y-148609431D01*
X190982822Y-148609449D01*
X191075669Y-148579655D01*
X191097647Y-148565098D01*
X191152765Y-148527914D01*
X191195859Y-148521820D01*
X191242335Y-148549496D01*
X191293716Y-148599205D01*
X191375046Y-148683116D01*
X191284749Y-148757546D01*
X191145236Y-148841549D01*
X190987912Y-148882947D01*
X190823503Y-148879950D01*
X190715531Y-148852500D01*
X190589331Y-148784620D01*
X190488401Y-148677831D01*
X190442548Y-148602451D01*
X190405410Y-148494297D01*
X190386827Y-148357318D01*
X190386684Y-148208864D01*
X190404865Y-148066281D01*
X190441255Y-147946918D01*
X190446987Y-147934680D01*
X190531865Y-147814655D01*
X190646782Y-147727267D01*
X190782659Y-147674329D01*
X190930417Y-147657654D01*
X191080976Y-147679056D01*
G36*
X188657254Y-148056245D02*
X188659608Y-148238879D01*
X188668207Y-148377600D01*
X188685360Y-148478147D01*
X188713374Y-148546254D01*
X188754557Y-148587659D01*
X188811217Y-148608097D01*
X188881372Y-148613318D01*
X188954848Y-148607468D01*
X189010657Y-148586093D01*
X189051109Y-148543458D01*
X189078509Y-148473825D01*
X189095167Y-148371460D01*
X189103389Y-148230624D01*
X189105490Y-148056245D01*
X189105490Y-147668628D01*
X189379411Y-147668628D01*
X189379411Y-148863922D01*
X189242451Y-148863922D01*
X189159884Y-148860576D01*
X189117368Y-148848826D01*
X189105490Y-148826520D01*
X189098336Y-148806654D01*
X189069865Y-148810857D01*
X189012476Y-148838971D01*
X188880945Y-148882342D01*
X188741438Y-148879270D01*
X188607765Y-148832174D01*
X188544108Y-148794971D01*
X188495553Y-148754691D01*
X188460081Y-148704291D01*
X188435674Y-148636729D01*
X188420313Y-148544965D01*
X188411982Y-148421955D01*
X188408662Y-148260659D01*
X188408235Y-148135928D01*
X188408235Y-147668628D01*
X188657254Y-147668628D01*
X188657254Y-148056245D01*
X188657254Y-148056245D01*
G37*
X188657254Y-148056245D02*
X188659608Y-148238879D01*
X188668207Y-148377600D01*
X188685360Y-148478147D01*
X188713374Y-148546254D01*
X188754557Y-148587659D01*
X188811217Y-148608097D01*
X188881372Y-148613318D01*
X188954848Y-148607468D01*
X189010657Y-148586093D01*
X189051109Y-148543458D01*
X189078509Y-148473825D01*
X189095167Y-148371460D01*
X189103389Y-148230624D01*
X189105490Y-148056245D01*
X189105490Y-147668628D01*
X189379411Y-147668628D01*
X189379411Y-148863922D01*
X189242451Y-148863922D01*
X189159884Y-148860576D01*
X189117368Y-148848826D01*
X189105490Y-148826520D01*
X189098336Y-148806654D01*
X189069865Y-148810857D01*
X189012476Y-148838971D01*
X188880945Y-148882342D01*
X188741438Y-148879270D01*
X188607765Y-148832174D01*
X188544108Y-148794971D01*
X188495553Y-148754691D01*
X188460081Y-148704291D01*
X188435674Y-148636729D01*
X188420313Y-148544965D01*
X188411982Y-148421955D01*
X188408662Y-148260659D01*
X188408235Y-148135928D01*
X188408235Y-147668628D01*
X188657254Y-147668628D01*
X188657254Y-148056245D01*
G36*
X187899547Y-147683364D02*
X188025502Y-147751959D01*
X188124047Y-147860245D01*
X188170478Y-147948315D01*
X188190412Y-148026101D01*
X188203328Y-148136993D01*
X188208863Y-148264738D01*
X188206654Y-148393084D01*
X188196337Y-148505779D01*
X188184286Y-148565969D01*
X188143634Y-148648311D01*
X188073230Y-148735770D01*
X187988382Y-148812251D01*
X187904397Y-148861655D01*
X187902349Y-148862439D01*
X187798134Y-148884027D01*
X187674627Y-148884562D01*
X187557261Y-148864908D01*
X187511942Y-148849155D01*
X187395220Y-148782966D01*
X187311624Y-148696246D01*
X187256701Y-148581438D01*
X187225995Y-148430982D01*
X187219047Y-148352173D01*
X187219933Y-148253145D01*
X187486862Y-148253145D01*
X187495854Y-148397645D01*
X187521736Y-148507760D01*
X187562868Y-148578116D01*
X187592172Y-148598235D01*
X187667251Y-148612265D01*
X187756494Y-148608111D01*
X187833650Y-148587922D01*
X187853883Y-148576815D01*
X187907265Y-148512123D01*
X187942500Y-148413119D01*
X187957498Y-148292632D01*
X187950172Y-148163494D01*
X187933799Y-148085775D01*
X187886790Y-147995771D01*
X187812582Y-147939509D01*
X187723209Y-147920057D01*
X187630707Y-147940481D01*
X187559653Y-147990437D01*
X187522312Y-148031655D01*
X187500518Y-148072281D01*
X187490130Y-148127264D01*
X187487006Y-148211549D01*
X187486862Y-148253145D01*
X187219933Y-148253145D01*
X187220930Y-148141874D01*
X187255180Y-147969423D01*
X187321802Y-147834814D01*
X187420799Y-147738040D01*
X187552175Y-147679094D01*
X187580385Y-147672259D01*
X187749926Y-147656213D01*
X187899547Y-147683364D01*
X187899547Y-147683364D01*
G37*
X187899547Y-147683364D02*
X188025502Y-147751959D01*
X188124047Y-147860245D01*
X188170478Y-147948315D01*
X188190412Y-148026101D01*
X188203328Y-148136993D01*
X188208863Y-148264738D01*
X188206654Y-148393084D01*
X188196337Y-148505779D01*
X188184286Y-148565969D01*
X188143634Y-148648311D01*
X188073230Y-148735770D01*
X187988382Y-148812251D01*
X187904397Y-148861655D01*
X187902349Y-148862439D01*
X187798134Y-148884027D01*
X187674627Y-148884562D01*
X187557261Y-148864908D01*
X187511942Y-148849155D01*
X187395220Y-148782966D01*
X187311624Y-148696246D01*
X187256701Y-148581438D01*
X187225995Y-148430982D01*
X187219047Y-148352173D01*
X187219933Y-148253145D01*
X187486862Y-148253145D01*
X187495854Y-148397645D01*
X187521736Y-148507760D01*
X187562868Y-148578116D01*
X187592172Y-148598235D01*
X187667251Y-148612265D01*
X187756494Y-148608111D01*
X187833650Y-148587922D01*
X187853883Y-148576815D01*
X187907265Y-148512123D01*
X187942500Y-148413119D01*
X187957498Y-148292632D01*
X187950172Y-148163494D01*
X187933799Y-148085775D01*
X187886790Y-147995771D01*
X187812582Y-147939509D01*
X187723209Y-147920057D01*
X187630707Y-147940481D01*
X187559653Y-147990437D01*
X187522312Y-148031655D01*
X187500518Y-148072281D01*
X187490130Y-148127264D01*
X187487006Y-148211549D01*
X187486862Y-148253145D01*
X187219933Y-148253145D01*
X187220930Y-148141874D01*
X187255180Y-147969423D01*
X187321802Y-147834814D01*
X187420799Y-147738040D01*
X187552175Y-147679094D01*
X187580385Y-147672259D01*
X187749926Y-147656213D01*
X187899547Y-147683364D01*
G36*
X186717759Y-147664345D02*
X186812059Y-147682229D01*
X186909890Y-147719633D01*
X186920343Y-147724402D01*
X186994531Y-147763412D01*
X187045910Y-147799664D01*
X187062517Y-147822887D01*
X187046702Y-147860761D01*
X187008288Y-147916644D01*
X186991237Y-147937505D01*
X186920969Y-148019618D01*
X186830379Y-147966168D01*
X186744164Y-147930561D01*
X186644549Y-147911529D01*
X186549019Y-147910326D01*
X186475061Y-147928210D01*
X186457312Y-147939373D01*
X186423512Y-147990553D01*
X186419404Y-148049509D01*
X186444696Y-148095567D01*
X186459656Y-148104499D01*
X186504486Y-148115592D01*
X186583286Y-148128630D01*
X186680426Y-148141088D01*
X186698346Y-148143042D01*
X186854365Y-148170030D01*
X186967523Y-148215873D01*
X187042569Y-148284803D01*
X187084253Y-148381054D01*
X187097238Y-148498617D01*
X187079299Y-148632254D01*
X187021050Y-148737195D01*
X186922255Y-148813630D01*
X186782682Y-148861748D01*
X186627745Y-148880732D01*
X186501398Y-148880504D01*
X186398913Y-148863262D01*
X186328921Y-148839457D01*
X186240483Y-148797978D01*
X186158754Y-148749842D01*
X186129705Y-148728655D01*
X186055000Y-148667676D01*
X186145098Y-148576508D01*
X186235196Y-148485339D01*
X186337632Y-148553128D01*
X186440374Y-148604042D01*
X186550087Y-148630673D01*
X186655551Y-148633483D01*
X186745546Y-148612935D01*
X186808854Y-148569493D01*
X186829296Y-148532838D01*
X186826229Y-148474053D01*
X186775434Y-148429099D01*
X186677048Y-148398057D01*
X186569256Y-148383710D01*
X186403365Y-148356337D01*
X186280124Y-148304693D01*
X186197886Y-148227266D01*
X186155001Y-148122544D01*
X186149060Y-147998387D01*
X186178406Y-147868702D01*
X186245309Y-147770677D01*
X186350371Y-147703866D01*
X186494190Y-147667820D01*
X186600738Y-147660754D01*
X186717759Y-147664345D01*
X186717759Y-147664345D01*
G37*
X186717759Y-147664345D02*
X186812059Y-147682229D01*
X186909890Y-147719633D01*
X186920343Y-147724402D01*
X186994531Y-147763412D01*
X187045910Y-147799664D01*
X187062517Y-147822887D01*
X187046702Y-147860761D01*
X187008288Y-147916644D01*
X186991237Y-147937505D01*
X186920969Y-148019618D01*
X186830379Y-147966168D01*
X186744164Y-147930561D01*
X186644549Y-147911529D01*
X186549019Y-147910326D01*
X186475061Y-147928210D01*
X186457312Y-147939373D01*
X186423512Y-147990553D01*
X186419404Y-148049509D01*
X186444696Y-148095567D01*
X186459656Y-148104499D01*
X186504486Y-148115592D01*
X186583286Y-148128630D01*
X186680426Y-148141088D01*
X186698346Y-148143042D01*
X186854365Y-148170030D01*
X186967523Y-148215873D01*
X187042569Y-148284803D01*
X187084253Y-148381054D01*
X187097238Y-148498617D01*
X187079299Y-148632254D01*
X187021050Y-148737195D01*
X186922255Y-148813630D01*
X186782682Y-148861748D01*
X186627745Y-148880732D01*
X186501398Y-148880504D01*
X186398913Y-148863262D01*
X186328921Y-148839457D01*
X186240483Y-148797978D01*
X186158754Y-148749842D01*
X186129705Y-148728655D01*
X186055000Y-148667676D01*
X186145098Y-148576508D01*
X186235196Y-148485339D01*
X186337632Y-148553128D01*
X186440374Y-148604042D01*
X186550087Y-148630673D01*
X186655551Y-148633483D01*
X186745546Y-148612935D01*
X186808854Y-148569493D01*
X186829296Y-148532838D01*
X186826229Y-148474053D01*
X186775434Y-148429099D01*
X186677048Y-148398057D01*
X186569256Y-148383710D01*
X186403365Y-148356337D01*
X186280124Y-148304693D01*
X186197886Y-148227266D01*
X186155001Y-148122544D01*
X186149060Y-147998387D01*
X186178406Y-147868702D01*
X186245309Y-147770677D01*
X186350371Y-147703866D01*
X186494190Y-147667820D01*
X186600738Y-147660754D01*
X186717759Y-147664345D01*
G36*
X184003204Y-147696354D02*
X184028019Y-147708037D01*
X184113906Y-147770951D01*
X184195121Y-147862769D01*
X184255764Y-147963868D01*
X184273012Y-148010349D01*
X184288749Y-148093376D01*
X184298133Y-148193713D01*
X184299272Y-148235147D01*
X184299411Y-148365882D01*
X183546953Y-148365882D01*
X183562993Y-148434363D01*
X183602363Y-148515355D01*
X183671194Y-148585351D01*
X183753081Y-148630441D01*
X183805263Y-148639804D01*
X183876029Y-148628441D01*
X183960460Y-148599943D01*
X183989142Y-148586831D01*
X184095209Y-148533858D01*
X184185728Y-148602901D01*
X184237961Y-148649597D01*
X184265753Y-148688140D01*
X184267160Y-148699452D01*
X184242332Y-148726868D01*
X184187917Y-148768532D01*
X184138528Y-148801037D01*
X184005252Y-148859468D01*
X183855839Y-148885915D01*
X183707751Y-148879039D01*
X183589705Y-148843096D01*
X183468018Y-148766101D01*
X183381540Y-148664728D01*
X183327441Y-148533570D01*
X183302891Y-148367224D01*
X183300714Y-148291108D01*
X183309427Y-148116685D01*
X183310497Y-148111611D01*
X183559827Y-148111611D01*
X183566694Y-148127968D01*
X183594917Y-148136988D01*
X183653127Y-148140854D01*
X183749958Y-148141749D01*
X183787243Y-148141765D01*
X183900683Y-148140413D01*
X183972622Y-148135505D01*
X184011313Y-148125760D01*
X184025005Y-148109899D01*
X184025490Y-148104805D01*
X184009863Y-148064326D01*
X183970753Y-148007621D01*
X183953939Y-147987766D01*
X183891519Y-147931611D01*
X183826453Y-147909532D01*
X183791397Y-147907686D01*
X183696558Y-147930766D01*
X183617027Y-147992759D01*
X183566577Y-148082802D01*
X183565683Y-148085735D01*
X183559827Y-148111611D01*
X183310497Y-148111611D01*
X183338399Y-147979343D01*
X183390590Y-147869461D01*
X183454421Y-147791461D01*
X183572433Y-147706882D01*
X183711158Y-147661686D01*
X183858710Y-147657600D01*
X184003204Y-147696354D01*
X184003204Y-147696354D01*
G37*
X184003204Y-147696354D02*
X184028019Y-147708037D01*
X184113906Y-147770951D01*
X184195121Y-147862769D01*
X184255764Y-147963868D01*
X184273012Y-148010349D01*
X184288749Y-148093376D01*
X184298133Y-148193713D01*
X184299272Y-148235147D01*
X184299411Y-148365882D01*
X183546953Y-148365882D01*
X183562993Y-148434363D01*
X183602363Y-148515355D01*
X183671194Y-148585351D01*
X183753081Y-148630441D01*
X183805263Y-148639804D01*
X183876029Y-148628441D01*
X183960460Y-148599943D01*
X183989142Y-148586831D01*
X184095209Y-148533858D01*
X184185728Y-148602901D01*
X184237961Y-148649597D01*
X184265753Y-148688140D01*
X184267160Y-148699452D01*
X184242332Y-148726868D01*
X184187917Y-148768532D01*
X184138528Y-148801037D01*
X184005252Y-148859468D01*
X183855839Y-148885915D01*
X183707751Y-148879039D01*
X183589705Y-148843096D01*
X183468018Y-148766101D01*
X183381540Y-148664728D01*
X183327441Y-148533570D01*
X183302891Y-148367224D01*
X183300714Y-148291108D01*
X183309427Y-148116685D01*
X183310497Y-148111611D01*
X183559827Y-148111611D01*
X183566694Y-148127968D01*
X183594917Y-148136988D01*
X183653127Y-148140854D01*
X183749958Y-148141749D01*
X183787243Y-148141765D01*
X183900683Y-148140413D01*
X183972622Y-148135505D01*
X184011313Y-148125760D01*
X184025005Y-148109899D01*
X184025490Y-148104805D01*
X184009863Y-148064326D01*
X183970753Y-148007621D01*
X183953939Y-147987766D01*
X183891519Y-147931611D01*
X183826453Y-147909532D01*
X183791397Y-147907686D01*
X183696558Y-147930766D01*
X183617027Y-147992759D01*
X183566577Y-148082802D01*
X183565683Y-148085735D01*
X183559827Y-148111611D01*
X183310497Y-148111611D01*
X183338399Y-147979343D01*
X183390590Y-147869461D01*
X183454421Y-147791461D01*
X183572433Y-147706882D01*
X183711158Y-147661686D01*
X183858710Y-147657600D01*
X184003204Y-147696354D01*
G36*
X181663247Y-147681568D02*
X181793522Y-147739163D01*
X181892419Y-147835334D01*
X181960082Y-147970229D01*
X181996655Y-148143996D01*
X181999276Y-148171126D01*
X182001330Y-148362408D01*
X181974699Y-148530073D01*
X181921001Y-148665967D01*
X181892247Y-148709681D01*
X181792091Y-148802198D01*
X181664537Y-148862119D01*
X181521837Y-148886985D01*
X181376240Y-148874339D01*
X181265562Y-148835391D01*
X181170384Y-148769755D01*
X181092594Y-148683699D01*
X181091249Y-148681685D01*
X181059657Y-148628570D01*
X181039127Y-148575160D01*
X181026695Y-148507754D01*
X181019397Y-148412653D01*
X181016182Y-148334666D01*
X181014844Y-148263944D01*
X181263814Y-148263944D01*
X181266247Y-148334348D01*
X181275080Y-148428068D01*
X181290664Y-148488214D01*
X181318766Y-148531006D01*
X181345086Y-148556002D01*
X181438392Y-148608338D01*
X181536020Y-148615333D01*
X181626942Y-148577676D01*
X181672402Y-148535479D01*
X181705162Y-148492956D01*
X181724323Y-148452267D01*
X181732733Y-148399314D01*
X181733237Y-148319997D01*
X181730645Y-148246950D01*
X181725071Y-148142601D01*
X181716234Y-148074920D01*
X181700307Y-148030774D01*
X181673462Y-147997031D01*
X181652189Y-147977746D01*
X181563206Y-147927086D01*
X181467211Y-147924560D01*
X181386719Y-147954567D01*
X181318053Y-148017231D01*
X181277144Y-148120168D01*
X181263814Y-148263944D01*
X181014844Y-148263944D01*
X181013246Y-148179582D01*
X181018260Y-148063600D01*
X181033283Y-147976367D01*
X181060376Y-147907530D01*
X181101600Y-147846737D01*
X181116885Y-147828686D01*
X181212454Y-147738746D01*
X181314961Y-147686211D01*
X181440321Y-147664201D01*
X181501450Y-147662402D01*
X181663247Y-147681568D01*
X181663247Y-147681568D01*
G37*
X181663247Y-147681568D02*
X181793522Y-147739163D01*
X181892419Y-147835334D01*
X181960082Y-147970229D01*
X181996655Y-148143996D01*
X181999276Y-148171126D01*
X182001330Y-148362408D01*
X181974699Y-148530073D01*
X181921001Y-148665967D01*
X181892247Y-148709681D01*
X181792091Y-148802198D01*
X181664537Y-148862119D01*
X181521837Y-148886985D01*
X181376240Y-148874339D01*
X181265562Y-148835391D01*
X181170384Y-148769755D01*
X181092594Y-148683699D01*
X181091249Y-148681685D01*
X181059657Y-148628570D01*
X181039127Y-148575160D01*
X181026695Y-148507754D01*
X181019397Y-148412653D01*
X181016182Y-148334666D01*
X181014844Y-148263944D01*
X181263814Y-148263944D01*
X181266247Y-148334348D01*
X181275080Y-148428068D01*
X181290664Y-148488214D01*
X181318766Y-148531006D01*
X181345086Y-148556002D01*
X181438392Y-148608338D01*
X181536020Y-148615333D01*
X181626942Y-148577676D01*
X181672402Y-148535479D01*
X181705162Y-148492956D01*
X181724323Y-148452267D01*
X181732733Y-148399314D01*
X181733237Y-148319997D01*
X181730645Y-148246950D01*
X181725071Y-148142601D01*
X181716234Y-148074920D01*
X181700307Y-148030774D01*
X181673462Y-147997031D01*
X181652189Y-147977746D01*
X181563206Y-147927086D01*
X181467211Y-147924560D01*
X181386719Y-147954567D01*
X181318053Y-148017231D01*
X181277144Y-148120168D01*
X181263814Y-148263944D01*
X181014844Y-148263944D01*
X181013246Y-148179582D01*
X181018260Y-148063600D01*
X181033283Y-147976367D01*
X181060376Y-147907530D01*
X181101600Y-147846737D01*
X181116885Y-147828686D01*
X181212454Y-147738746D01*
X181314961Y-147686211D01*
X181440321Y-147664201D01*
X181501450Y-147662402D01*
X181663247Y-147681568D01*
G36*
X190715307Y-149542784D02*
X190834337Y-149573731D01*
X190934021Y-149637600D01*
X190982288Y-149685313D01*
X191061408Y-149798106D01*
X191106752Y-149928950D01*
X191122330Y-150089792D01*
X191122410Y-150102794D01*
X191122549Y-150233530D01*
X190370091Y-150233530D01*
X190386130Y-150302010D01*
X190415091Y-150364031D01*
X190465778Y-150428654D01*
X190476379Y-150438971D01*
X190567494Y-150494805D01*
X190671400Y-150504275D01*
X190791000Y-150467540D01*
X190811274Y-150457647D01*
X190873456Y-150427574D01*
X190915106Y-150410440D01*
X190922373Y-150408855D01*
X190947740Y-150424242D01*
X190996120Y-150461887D01*
X191020679Y-150482459D01*
X191071570Y-150529714D01*
X191088281Y-150560917D01*
X191076683Y-150589620D01*
X191070483Y-150597468D01*
X191028493Y-150631819D01*
X190959206Y-150673565D01*
X190910882Y-150697935D01*
X190773711Y-150740873D01*
X190621847Y-150754786D01*
X190478024Y-150738300D01*
X190437745Y-150726496D01*
X190313078Y-150659689D01*
X190220671Y-150556892D01*
X190159990Y-150417105D01*
X190130498Y-150239330D01*
X190127260Y-150146373D01*
X190136714Y-150011033D01*
X190375490Y-150011033D01*
X190398584Y-150021038D01*
X190460662Y-150028888D01*
X190550914Y-150033521D01*
X190612058Y-150034314D01*
X190722040Y-150033549D01*
X190791457Y-150029970D01*
X190829538Y-150021649D01*
X190845515Y-150006657D01*
X190848627Y-149984903D01*
X190827278Y-149917892D01*
X190773529Y-149851664D01*
X190702822Y-149800832D01*
X190632089Y-149780038D01*
X190536016Y-149798484D01*
X190452849Y-149851811D01*
X190395186Y-149928677D01*
X190375490Y-150011033D01*
X190136714Y-150011033D01*
X190141028Y-149949291D01*
X190183520Y-149792271D01*
X190255635Y-149674069D01*
X190358273Y-149593440D01*
X190492332Y-149549139D01*
X190564957Y-149540607D01*
X190715307Y-149542784D01*
X190715307Y-149542784D01*
G37*
X190715307Y-149542784D02*
X190834337Y-149573731D01*
X190934021Y-149637600D01*
X190982288Y-149685313D01*
X191061408Y-149798106D01*
X191106752Y-149928950D01*
X191122330Y-150089792D01*
X191122410Y-150102794D01*
X191122549Y-150233530D01*
X190370091Y-150233530D01*
X190386130Y-150302010D01*
X190415091Y-150364031D01*
X190465778Y-150428654D01*
X190476379Y-150438971D01*
X190567494Y-150494805D01*
X190671400Y-150504275D01*
X190791000Y-150467540D01*
X190811274Y-150457647D01*
X190873456Y-150427574D01*
X190915106Y-150410440D01*
X190922373Y-150408855D01*
X190947740Y-150424242D01*
X190996120Y-150461887D01*
X191020679Y-150482459D01*
X191071570Y-150529714D01*
X191088281Y-150560917D01*
X191076683Y-150589620D01*
X191070483Y-150597468D01*
X191028493Y-150631819D01*
X190959206Y-150673565D01*
X190910882Y-150697935D01*
X190773711Y-150740873D01*
X190621847Y-150754786D01*
X190478024Y-150738300D01*
X190437745Y-150726496D01*
X190313078Y-150659689D01*
X190220671Y-150556892D01*
X190159990Y-150417105D01*
X190130498Y-150239330D01*
X190127260Y-150146373D01*
X190136714Y-150011033D01*
X190375490Y-150011033D01*
X190398584Y-150021038D01*
X190460662Y-150028888D01*
X190550914Y-150033521D01*
X190612058Y-150034314D01*
X190722040Y-150033549D01*
X190791457Y-150029970D01*
X190829538Y-150021649D01*
X190845515Y-150006657D01*
X190848627Y-149984903D01*
X190827278Y-149917892D01*
X190773529Y-149851664D01*
X190702822Y-149800832D01*
X190632089Y-149780038D01*
X190536016Y-149798484D01*
X190452849Y-149851811D01*
X190395186Y-149928677D01*
X190375490Y-150011033D01*
X190136714Y-150011033D01*
X190141028Y-149949291D01*
X190183520Y-149792271D01*
X190255635Y-149674069D01*
X190358273Y-149593440D01*
X190492332Y-149549139D01*
X190564957Y-149540607D01*
X190715307Y-149542784D01*
G36*
X189928446Y-149535883D02*
X190024177Y-149554755D01*
X190078677Y-149582699D01*
X190136008Y-149629123D01*
X190054441Y-149732111D01*
X190004150Y-149794479D01*
X189970001Y-149824907D01*
X189936063Y-149829555D01*
X189886406Y-149814586D01*
X189863096Y-149806117D01*
X189768063Y-149793622D01*
X189681032Y-149820406D01*
X189617138Y-149880915D01*
X189606759Y-149900208D01*
X189595456Y-149951314D01*
X189586732Y-150045500D01*
X189580997Y-150176089D01*
X189578660Y-150336405D01*
X189578627Y-150359211D01*
X189578627Y-150756471D01*
X189304705Y-150756471D01*
X189304705Y-149536275D01*
X189441666Y-149536275D01*
X189520638Y-149538337D01*
X189561779Y-149547513D01*
X189576992Y-149568290D01*
X189578627Y-149587886D01*
X189578627Y-149639497D01*
X189644240Y-149587886D01*
X189719475Y-149552675D01*
X189820544Y-149535265D01*
X189928446Y-149535883D01*
X189928446Y-149535883D01*
G37*
X189928446Y-149535883D02*
X190024177Y-149554755D01*
X190078677Y-149582699D01*
X190136008Y-149629123D01*
X190054441Y-149732111D01*
X190004150Y-149794479D01*
X189970001Y-149824907D01*
X189936063Y-149829555D01*
X189886406Y-149814586D01*
X189863096Y-149806117D01*
X189768063Y-149793622D01*
X189681032Y-149820406D01*
X189617138Y-149880915D01*
X189606759Y-149900208D01*
X189595456Y-149951314D01*
X189586732Y-150045500D01*
X189580997Y-150176089D01*
X189578660Y-150336405D01*
X189578627Y-150359211D01*
X189578627Y-150756471D01*
X189304705Y-150756471D01*
X189304705Y-149536275D01*
X189441666Y-149536275D01*
X189520638Y-149538337D01*
X189561779Y-149547513D01*
X189576992Y-149568290D01*
X189578627Y-149587886D01*
X189578627Y-149639497D01*
X189644240Y-149587886D01*
X189719475Y-149552675D01*
X189820544Y-149535265D01*
X189928446Y-149535883D01*
G36*
X188746459Y-149543669D02*
X188851420Y-149569163D01*
X188881761Y-149582669D01*
X188940573Y-149618046D01*
X188985709Y-149657890D01*
X189019106Y-149709120D01*
X189042701Y-149778654D01*
X189058433Y-149873409D01*
X189068239Y-150000305D01*
X189074057Y-150166258D01*
X189076266Y-150277108D01*
X189084396Y-150756471D01*
X188945531Y-150756471D01*
X188861287Y-150752938D01*
X188817884Y-150740866D01*
X188806666Y-150720594D01*
X188800744Y-150698674D01*
X188774266Y-150702865D01*
X188738186Y-150720441D01*
X188647862Y-150747382D01*
X188531777Y-150754642D01*
X188409680Y-150742767D01*
X188301321Y-150712305D01*
X188291602Y-150708077D01*
X188192568Y-150638505D01*
X188127281Y-150541789D01*
X188097240Y-150428738D01*
X188099535Y-150388122D01*
X188344633Y-150388122D01*
X188366229Y-150442782D01*
X188430259Y-150481952D01*
X188533565Y-150502974D01*
X188588774Y-150505766D01*
X188680782Y-150498620D01*
X188741941Y-150470848D01*
X188756862Y-150457647D01*
X188797287Y-150385829D01*
X188806666Y-150320686D01*
X188806666Y-150233530D01*
X188685269Y-150233530D01*
X188544153Y-150240722D01*
X188445173Y-150263345D01*
X188382633Y-150302964D01*
X188368631Y-150320628D01*
X188344633Y-150388122D01*
X188099535Y-150388122D01*
X188103941Y-150310157D01*
X188148880Y-150196855D01*
X188210196Y-150120285D01*
X188247332Y-150087181D01*
X188283687Y-150065425D01*
X188330990Y-150052161D01*
X188400973Y-150044528D01*
X188505364Y-150039670D01*
X188546770Y-150038273D01*
X188806666Y-150029780D01*
X188806285Y-149951116D01*
X188796219Y-149868428D01*
X188759829Y-149818431D01*
X188686311Y-149786489D01*
X188684339Y-149785920D01*
X188580105Y-149773361D01*
X188478108Y-149789766D01*
X188402305Y-149829657D01*
X188371890Y-149849354D01*
X188339132Y-149846629D01*
X188288721Y-149818091D01*
X188259119Y-149797950D01*
X188201218Y-149754919D01*
X188165352Y-149722662D01*
X188159597Y-149713427D01*
X188183295Y-149665636D01*
X188253313Y-149608562D01*
X188283725Y-149589305D01*
X188371155Y-149556140D01*
X188488983Y-149537350D01*
X188619866Y-149533129D01*
X188746459Y-149543669D01*
X188746459Y-149543669D01*
G37*
X188746459Y-149543669D02*
X188851420Y-149569163D01*
X188881761Y-149582669D01*
X188940573Y-149618046D01*
X188985709Y-149657890D01*
X189019106Y-149709120D01*
X189042701Y-149778654D01*
X189058433Y-149873409D01*
X189068239Y-150000305D01*
X189074057Y-150166258D01*
X189076266Y-150277108D01*
X189084396Y-150756471D01*
X188945531Y-150756471D01*
X188861287Y-150752938D01*
X188817884Y-150740866D01*
X188806666Y-150720594D01*
X188800744Y-150698674D01*
X188774266Y-150702865D01*
X188738186Y-150720441D01*
X188647862Y-150747382D01*
X188531777Y-150754642D01*
X188409680Y-150742767D01*
X188301321Y-150712305D01*
X188291602Y-150708077D01*
X188192568Y-150638505D01*
X188127281Y-150541789D01*
X188097240Y-150428738D01*
X188099535Y-150388122D01*
X188344633Y-150388122D01*
X188366229Y-150442782D01*
X188430259Y-150481952D01*
X188533565Y-150502974D01*
X188588774Y-150505766D01*
X188680782Y-150498620D01*
X188741941Y-150470848D01*
X188756862Y-150457647D01*
X188797287Y-150385829D01*
X188806666Y-150320686D01*
X188806666Y-150233530D01*
X188685269Y-150233530D01*
X188544153Y-150240722D01*
X188445173Y-150263345D01*
X188382633Y-150302964D01*
X188368631Y-150320628D01*
X188344633Y-150388122D01*
X188099535Y-150388122D01*
X188103941Y-150310157D01*
X188148880Y-150196855D01*
X188210196Y-150120285D01*
X188247332Y-150087181D01*
X188283687Y-150065425D01*
X188330990Y-150052161D01*
X188400973Y-150044528D01*
X188505364Y-150039670D01*
X188546770Y-150038273D01*
X188806666Y-150029780D01*
X188806285Y-149951116D01*
X188796219Y-149868428D01*
X188759829Y-149818431D01*
X188686311Y-149786489D01*
X188684339Y-149785920D01*
X188580105Y-149773361D01*
X188478108Y-149789766D01*
X188402305Y-149829657D01*
X188371890Y-149849354D01*
X188339132Y-149846629D01*
X188288721Y-149818091D01*
X188259119Y-149797950D01*
X188201218Y-149754919D01*
X188165352Y-149722662D01*
X188159597Y-149713427D01*
X188183295Y-149665636D01*
X188253313Y-149608562D01*
X188283725Y-149589305D01*
X188371155Y-149556140D01*
X188488983Y-149537350D01*
X188619866Y-149533129D01*
X188746459Y-149543669D01*
G36*
X187247528Y-149541332D02*
X187346014Y-149548726D01*
X187474776Y-149934706D01*
X187603537Y-150320686D01*
X187643911Y-150183726D01*
X187668207Y-150099083D01*
X187700167Y-149984697D01*
X187734679Y-149858963D01*
X187752928Y-149791520D01*
X187821571Y-149536275D01*
X188104773Y-149536275D01*
X188020122Y-149803971D01*
X187978435Y-149935638D01*
X187928074Y-150094458D01*
X187875481Y-150260128D01*
X187828530Y-150407843D01*
X187721589Y-150744020D01*
X187490661Y-150759044D01*
X187428050Y-150552316D01*
X187389438Y-150423896D01*
X187347300Y-150282322D01*
X187310472Y-150157285D01*
X187309018Y-150152309D01*
X187281511Y-150067586D01*
X187257242Y-150009778D01*
X187240243Y-149987918D01*
X187236750Y-149990446D01*
X187224490Y-150024336D01*
X187201195Y-150096930D01*
X187169700Y-150199101D01*
X187132842Y-150321720D01*
X187112899Y-150389167D01*
X187004895Y-150756471D01*
X186775679Y-150756471D01*
X186592439Y-150177500D01*
X186540963Y-150015091D01*
X186494070Y-149867602D01*
X186453977Y-149741960D01*
X186422897Y-149645095D01*
X186403045Y-149583934D01*
X186397011Y-149566065D01*
X186401788Y-149547768D01*
X186439297Y-149539755D01*
X186517355Y-149540557D01*
X186529574Y-149541163D01*
X186674326Y-149548726D01*
X186769130Y-149897353D01*
X186803977Y-150024497D01*
X186835117Y-150136265D01*
X186859809Y-150222953D01*
X186875312Y-150274856D01*
X186878176Y-150283318D01*
X186890046Y-150273587D01*
X186913983Y-150223172D01*
X186947239Y-150138935D01*
X186987064Y-150027741D01*
X187020730Y-149927297D01*
X187149041Y-149533939D01*
X187247528Y-149541332D01*
X187247528Y-149541332D01*
G37*
X187247528Y-149541332D02*
X187346014Y-149548726D01*
X187474776Y-149934706D01*
X187603537Y-150320686D01*
X187643911Y-150183726D01*
X187668207Y-150099083D01*
X187700167Y-149984697D01*
X187734679Y-149858963D01*
X187752928Y-149791520D01*
X187821571Y-149536275D01*
X188104773Y-149536275D01*
X188020122Y-149803971D01*
X187978435Y-149935638D01*
X187928074Y-150094458D01*
X187875481Y-150260128D01*
X187828530Y-150407843D01*
X187721589Y-150744020D01*
X187490661Y-150759044D01*
X187428050Y-150552316D01*
X187389438Y-150423896D01*
X187347300Y-150282322D01*
X187310472Y-150157285D01*
X187309018Y-150152309D01*
X187281511Y-150067586D01*
X187257242Y-150009778D01*
X187240243Y-149987918D01*
X187236750Y-149990446D01*
X187224490Y-150024336D01*
X187201195Y-150096930D01*
X187169700Y-150199101D01*
X187132842Y-150321720D01*
X187112899Y-150389167D01*
X187004895Y-150756471D01*
X186775679Y-150756471D01*
X186592439Y-150177500D01*
X186540963Y-150015091D01*
X186494070Y-149867602D01*
X186453977Y-149741960D01*
X186422897Y-149645095D01*
X186403045Y-149583934D01*
X186397011Y-149566065D01*
X186401788Y-149547768D01*
X186439297Y-149539755D01*
X186517355Y-149540557D01*
X186529574Y-149541163D01*
X186674326Y-149548726D01*
X186769130Y-149897353D01*
X186803977Y-150024497D01*
X186835117Y-150136265D01*
X186859809Y-150222953D01*
X186875312Y-150274856D01*
X186878176Y-150283318D01*
X186890046Y-150273587D01*
X186913983Y-150223172D01*
X186947239Y-150138935D01*
X186987064Y-150027741D01*
X187020730Y-149927297D01*
X187149041Y-149533939D01*
X187247528Y-149541332D01*
G36*
X186291568Y-150756471D02*
X186154607Y-150756471D01*
X186075111Y-150754140D01*
X186033708Y-150744488D01*
X186018801Y-150723525D01*
X186017647Y-150709351D01*
X186015133Y-150680927D01*
X185999280Y-150675475D01*
X185957621Y-150692998D01*
X185925224Y-150709351D01*
X185800849Y-150748103D01*
X185665646Y-150750346D01*
X185555726Y-150721444D01*
X185453366Y-150651619D01*
X185375340Y-150548555D01*
X185332614Y-150426989D01*
X185331526Y-150420192D01*
X185325178Y-150346032D01*
X185322021Y-150239570D01*
X185322275Y-150159052D01*
X185594289Y-150159052D01*
X185600590Y-150266070D01*
X185614925Y-150354278D01*
X185634331Y-150404090D01*
X185707746Y-150472162D01*
X185794914Y-150496564D01*
X185884804Y-150476831D01*
X185961617Y-150417968D01*
X185990708Y-150378379D01*
X186007717Y-150331138D01*
X186015684Y-150262181D01*
X186017647Y-150158607D01*
X186014134Y-150056039D01*
X186004857Y-149965921D01*
X185991706Y-149905613D01*
X185989514Y-149900208D01*
X185936478Y-149835940D01*
X185859067Y-149800656D01*
X185772454Y-149794959D01*
X185691807Y-149819453D01*
X185632297Y-149874742D01*
X185626124Y-149885743D01*
X185606801Y-149952827D01*
X185596274Y-150049284D01*
X185594289Y-150159052D01*
X185322275Y-150159052D01*
X185322404Y-150118225D01*
X185324194Y-150052918D01*
X185336373Y-149891355D01*
X185361685Y-149770053D01*
X185403793Y-149680379D01*
X185466359Y-149613699D01*
X185527100Y-149574557D01*
X185611964Y-149547040D01*
X185717515Y-149537603D01*
X185825598Y-149545290D01*
X185918058Y-149569146D01*
X185966910Y-149597685D01*
X186017647Y-149643601D01*
X186017647Y-149063137D01*
X186291568Y-149063137D01*
X186291568Y-150756471D01*
X186291568Y-150756471D01*
G37*
X186291568Y-150756471D02*
X186154607Y-150756471D01*
X186075111Y-150754140D01*
X186033708Y-150744488D01*
X186018801Y-150723525D01*
X186017647Y-150709351D01*
X186015133Y-150680927D01*
X185999280Y-150675475D01*
X185957621Y-150692998D01*
X185925224Y-150709351D01*
X185800849Y-150748103D01*
X185665646Y-150750346D01*
X185555726Y-150721444D01*
X185453366Y-150651619D01*
X185375340Y-150548555D01*
X185332614Y-150426989D01*
X185331526Y-150420192D01*
X185325178Y-150346032D01*
X185322021Y-150239570D01*
X185322275Y-150159052D01*
X185594289Y-150159052D01*
X185600590Y-150266070D01*
X185614925Y-150354278D01*
X185634331Y-150404090D01*
X185707746Y-150472162D01*
X185794914Y-150496564D01*
X185884804Y-150476831D01*
X185961617Y-150417968D01*
X185990708Y-150378379D01*
X186007717Y-150331138D01*
X186015684Y-150262181D01*
X186017647Y-150158607D01*
X186014134Y-150056039D01*
X186004857Y-149965921D01*
X185991706Y-149905613D01*
X185989514Y-149900208D01*
X185936478Y-149835940D01*
X185859067Y-149800656D01*
X185772454Y-149794959D01*
X185691807Y-149819453D01*
X185632297Y-149874742D01*
X185626124Y-149885743D01*
X185606801Y-149952827D01*
X185596274Y-150049284D01*
X185594289Y-150159052D01*
X185322275Y-150159052D01*
X185322404Y-150118225D01*
X185324194Y-150052918D01*
X185336373Y-149891355D01*
X185361685Y-149770053D01*
X185403793Y-149680379D01*
X185466359Y-149613699D01*
X185527100Y-149574557D01*
X185611964Y-149547040D01*
X185717515Y-149537603D01*
X185825598Y-149545290D01*
X185918058Y-149569146D01*
X185966910Y-149597685D01*
X186017647Y-149643601D01*
X186017647Y-149063137D01*
X186291568Y-149063137D01*
X186291568Y-150756471D01*
G36*
X184722764Y-149538921D02*
X184760030Y-149550091D01*
X184772043Y-149574633D01*
X184772549Y-149585712D01*
X184774704Y-149616572D01*
X184789551Y-149621417D01*
X184829657Y-149600260D01*
X184853480Y-149585806D01*
X184928638Y-149554850D01*
X185018406Y-149539544D01*
X185112529Y-149538367D01*
X185200754Y-149549799D01*
X185272826Y-149572320D01*
X185318492Y-149604409D01*
X185327498Y-149644545D01*
X185322953Y-149655415D01*
X185289821Y-149700534D01*
X185238445Y-149756026D01*
X185229152Y-149764996D01*
X185180182Y-149806245D01*
X185137931Y-149819572D01*
X185078841Y-149810271D01*
X185055169Y-149804090D01*
X184981504Y-149789246D01*
X184929710Y-149795921D01*
X184885969Y-149819465D01*
X184845902Y-149851061D01*
X184816392Y-149890798D01*
X184795884Y-149946252D01*
X184782824Y-150025003D01*
X184775656Y-150134629D01*
X184772824Y-150282706D01*
X184772549Y-150372111D01*
X184772549Y-150756471D01*
X184523529Y-150756471D01*
X184523529Y-149536275D01*
X184648039Y-149536275D01*
X184722764Y-149538921D01*
X184722764Y-149538921D01*
G37*
X184722764Y-149538921D02*
X184760030Y-149550091D01*
X184772043Y-149574633D01*
X184772549Y-149585712D01*
X184774704Y-149616572D01*
X184789551Y-149621417D01*
X184829657Y-149600260D01*
X184853480Y-149585806D01*
X184928638Y-149554850D01*
X185018406Y-149539544D01*
X185112529Y-149538367D01*
X185200754Y-149549799D01*
X185272826Y-149572320D01*
X185318492Y-149604409D01*
X185327498Y-149644545D01*
X185322953Y-149655415D01*
X185289821Y-149700534D01*
X185238445Y-149756026D01*
X185229152Y-149764996D01*
X185180182Y-149806245D01*
X185137931Y-149819572D01*
X185078841Y-149810271D01*
X185055169Y-149804090D01*
X184981504Y-149789246D01*
X184929710Y-149795921D01*
X184885969Y-149819465D01*
X184845902Y-149851061D01*
X184816392Y-149890798D01*
X184795884Y-149946252D01*
X184782824Y-150025003D01*
X184775656Y-150134629D01*
X184772824Y-150282706D01*
X184772549Y-150372111D01*
X184772549Y-150756471D01*
X184523529Y-150756471D01*
X184523529Y-149536275D01*
X184648039Y-149536275D01*
X184722764Y-149538921D01*
G36*
X183948720Y-149545922D02*
X184065870Y-149577180D01*
X184155051Y-149633837D01*
X184217984Y-149708045D01*
X184237548Y-149739716D01*
X184251992Y-149772891D01*
X184262089Y-149815329D01*
X184268615Y-149874788D01*
X184272342Y-149959029D01*
X184274046Y-150075810D01*
X184274500Y-150232890D01*
X184274509Y-150274565D01*
X184274509Y-150756471D01*
X184154980Y-150756471D01*
X184078739Y-150751131D01*
X184022366Y-150737604D01*
X184008242Y-150729262D01*
X183969630Y-150714864D01*
X183930192Y-150729262D01*
X183865262Y-150747237D01*
X183770945Y-150754472D01*
X183666407Y-150751333D01*
X183570811Y-150738186D01*
X183515000Y-150721318D01*
X183406998Y-150651986D01*
X183339503Y-150555772D01*
X183309159Y-150427844D01*
X183308877Y-150424559D01*
X183311540Y-150367808D01*
X183552353Y-150367808D01*
X183573405Y-150432358D01*
X183607697Y-150468686D01*
X183676532Y-150496162D01*
X183767390Y-150507129D01*
X183860042Y-150501731D01*
X183934256Y-150480110D01*
X183955049Y-150466239D01*
X183991381Y-150402143D01*
X184000588Y-150329278D01*
X184000588Y-150233530D01*
X183862827Y-150233530D01*
X183731953Y-150243605D01*
X183632741Y-150272148D01*
X183571023Y-150316639D01*
X183552353Y-150367808D01*
X183311540Y-150367808D01*
X183315436Y-150284790D01*
X183361534Y-150174282D01*
X183448200Y-150090712D01*
X183460179Y-150083110D01*
X183511655Y-150058357D01*
X183575368Y-150043368D01*
X183664435Y-150036082D01*
X183770245Y-150034407D01*
X184000588Y-150034314D01*
X184000588Y-149937755D01*
X183990817Y-149862836D01*
X183965884Y-149812644D01*
X183962965Y-149809972D01*
X183907481Y-149788015D01*
X183823727Y-149779505D01*
X183731167Y-149783687D01*
X183649270Y-149799809D01*
X183600673Y-149823990D01*
X183574341Y-149843359D01*
X183546535Y-149847057D01*
X183508161Y-149831188D01*
X183450125Y-149791855D01*
X183363331Y-149725164D01*
X183355365Y-149718916D01*
X183359447Y-149695800D01*
X183393501Y-149657352D01*
X183445260Y-149614627D01*
X183502455Y-149578679D01*
X183520425Y-149570191D01*
X183585972Y-149553252D01*
X183682020Y-149541170D01*
X183789329Y-149536323D01*
X183794347Y-149536313D01*
X183948720Y-149545922D01*
X183948720Y-149545922D01*
G37*
X183948720Y-149545922D02*
X184065870Y-149577180D01*
X184155051Y-149633837D01*
X184217984Y-149708045D01*
X184237548Y-149739716D01*
X184251992Y-149772891D01*
X184262089Y-149815329D01*
X184268615Y-149874788D01*
X184272342Y-149959029D01*
X184274046Y-150075810D01*
X184274500Y-150232890D01*
X184274509Y-150274565D01*
X184274509Y-150756471D01*
X184154980Y-150756471D01*
X184078739Y-150751131D01*
X184022366Y-150737604D01*
X184008242Y-150729262D01*
X183969630Y-150714864D01*
X183930192Y-150729262D01*
X183865262Y-150747237D01*
X183770945Y-150754472D01*
X183666407Y-150751333D01*
X183570811Y-150738186D01*
X183515000Y-150721318D01*
X183406998Y-150651986D01*
X183339503Y-150555772D01*
X183309159Y-150427844D01*
X183308877Y-150424559D01*
X183311540Y-150367808D01*
X183552353Y-150367808D01*
X183573405Y-150432358D01*
X183607697Y-150468686D01*
X183676532Y-150496162D01*
X183767390Y-150507129D01*
X183860042Y-150501731D01*
X183934256Y-150480110D01*
X183955049Y-150466239D01*
X183991381Y-150402143D01*
X184000588Y-150329278D01*
X184000588Y-150233530D01*
X183862827Y-150233530D01*
X183731953Y-150243605D01*
X183632741Y-150272148D01*
X183571023Y-150316639D01*
X183552353Y-150367808D01*
X183311540Y-150367808D01*
X183315436Y-150284790D01*
X183361534Y-150174282D01*
X183448200Y-150090712D01*
X183460179Y-150083110D01*
X183511655Y-150058357D01*
X183575368Y-150043368D01*
X183664435Y-150036082D01*
X183770245Y-150034407D01*
X184000588Y-150034314D01*
X184000588Y-149937755D01*
X183990817Y-149862836D01*
X183965884Y-149812644D01*
X183962965Y-149809972D01*
X183907481Y-149788015D01*
X183823727Y-149779505D01*
X183731167Y-149783687D01*
X183649270Y-149799809D01*
X183600673Y-149823990D01*
X183574341Y-149843359D01*
X183546535Y-149847057D01*
X183508161Y-149831188D01*
X183450125Y-149791855D01*
X183363331Y-149725164D01*
X183355365Y-149718916D01*
X183359447Y-149695800D01*
X183393501Y-149657352D01*
X183445260Y-149614627D01*
X183502455Y-149578679D01*
X183520425Y-149570191D01*
X183585972Y-149553252D01*
X183682020Y-149541170D01*
X183789329Y-149536323D01*
X183794347Y-149536313D01*
X183948720Y-149545922D01*
G36*
X182909909Y-147689560D02*
X182962412Y-147715499D01*
X183027158Y-147760700D01*
X183074347Y-147809991D01*
X183106665Y-147871885D01*
X183126797Y-147954896D01*
X183137430Y-148067538D01*
X183141247Y-148218324D01*
X183141470Y-148283149D01*
X183140818Y-148425221D01*
X183138112Y-148526757D01*
X183132224Y-148597015D01*
X183122027Y-148645256D01*
X183106394Y-148680738D01*
X183090128Y-148704943D01*
X182986295Y-148807929D01*
X182864021Y-148869874D01*
X182732114Y-148888506D01*
X182599384Y-148861549D01*
X182557333Y-148842486D01*
X182456666Y-148790015D01*
X182456666Y-149612259D01*
X182530135Y-149574267D01*
X182626941Y-149544872D01*
X182745928Y-149537342D01*
X182864745Y-149551245D01*
X182954473Y-149582476D01*
X183028899Y-149641954D01*
X183092490Y-149727066D01*
X183097271Y-149735805D01*
X183117437Y-149776966D01*
X183132165Y-149818454D01*
X183142303Y-149868713D01*
X183148699Y-149936184D01*
X183152201Y-150029309D01*
X183153658Y-150156531D01*
X183153921Y-150299701D01*
X183153921Y-150756471D01*
X182880000Y-150756471D01*
X182880000Y-149914231D01*
X182803383Y-149849763D01*
X182723793Y-149798194D01*
X182648422Y-149788818D01*
X182572633Y-149812947D01*
X182532241Y-149836574D01*
X182502179Y-149870227D01*
X182480797Y-149921087D01*
X182466450Y-149996334D01*
X182457490Y-150103146D01*
X182452270Y-150248704D01*
X182450431Y-150345588D01*
X182444215Y-150744020D01*
X182313480Y-150751547D01*
X182182745Y-150759073D01*
X182182745Y-148286582D01*
X182456666Y-148286582D01*
X182463650Y-148424423D01*
X182487182Y-148520107D01*
X182531135Y-148579641D01*
X182599382Y-148609029D01*
X182668333Y-148614902D01*
X182746386Y-148608154D01*
X182798189Y-148581594D01*
X182830583Y-148546499D01*
X182856084Y-148508752D01*
X182871265Y-148466700D01*
X182878019Y-148407779D01*
X182878241Y-148319428D01*
X182875968Y-148245448D01*
X182870749Y-148134000D01*
X182862979Y-148060833D01*
X182849895Y-148014422D01*
X182828732Y-147983244D01*
X182808760Y-147965223D01*
X182725314Y-147925925D01*
X182626551Y-147919579D01*
X182569841Y-147933116D01*
X182513692Y-147981233D01*
X182476499Y-148074833D01*
X182458472Y-148213254D01*
X182456666Y-148286582D01*
X182182745Y-148286582D01*
X182182745Y-147668628D01*
X182319705Y-147668628D01*
X182401935Y-147671879D01*
X182444360Y-147683426D01*
X182456661Y-147705952D01*
X182456666Y-147706620D01*
X182462374Y-147728681D01*
X182487547Y-147726176D01*
X182537598Y-147701935D01*
X182654219Y-147664851D01*
X182785429Y-147660953D01*
X182909909Y-147689560D01*
X182909909Y-147689560D01*
G37*
X182909909Y-147689560D02*
X182962412Y-147715499D01*
X183027158Y-147760700D01*
X183074347Y-147809991D01*
X183106665Y-147871885D01*
X183126797Y-147954896D01*
X183137430Y-148067538D01*
X183141247Y-148218324D01*
X183141470Y-148283149D01*
X183140818Y-148425221D01*
X183138112Y-148526757D01*
X183132224Y-148597015D01*
X183122027Y-148645256D01*
X183106394Y-148680738D01*
X183090128Y-148704943D01*
X182986295Y-148807929D01*
X182864021Y-148869874D01*
X182732114Y-148888506D01*
X182599384Y-148861549D01*
X182557333Y-148842486D01*
X182456666Y-148790015D01*
X182456666Y-149612259D01*
X182530135Y-149574267D01*
X182626941Y-149544872D01*
X182745928Y-149537342D01*
X182864745Y-149551245D01*
X182954473Y-149582476D01*
X183028899Y-149641954D01*
X183092490Y-149727066D01*
X183097271Y-149735805D01*
X183117437Y-149776966D01*
X183132165Y-149818454D01*
X183142303Y-149868713D01*
X183148699Y-149936184D01*
X183152201Y-150029309D01*
X183153658Y-150156531D01*
X183153921Y-150299701D01*
X183153921Y-150756471D01*
X182880000Y-150756471D01*
X182880000Y-149914231D01*
X182803383Y-149849763D01*
X182723793Y-149798194D01*
X182648422Y-149788818D01*
X182572633Y-149812947D01*
X182532241Y-149836574D01*
X182502179Y-149870227D01*
X182480797Y-149921087D01*
X182466450Y-149996334D01*
X182457490Y-150103146D01*
X182452270Y-150248704D01*
X182450431Y-150345588D01*
X182444215Y-150744020D01*
X182313480Y-150751547D01*
X182182745Y-150759073D01*
X182182745Y-148286582D01*
X182456666Y-148286582D01*
X182463650Y-148424423D01*
X182487182Y-148520107D01*
X182531135Y-148579641D01*
X182599382Y-148609029D01*
X182668333Y-148614902D01*
X182746386Y-148608154D01*
X182798189Y-148581594D01*
X182830583Y-148546499D01*
X182856084Y-148508752D01*
X182871265Y-148466700D01*
X182878019Y-148407779D01*
X182878241Y-148319428D01*
X182875968Y-148245448D01*
X182870749Y-148134000D01*
X182862979Y-148060833D01*
X182849895Y-148014422D01*
X182828732Y-147983244D01*
X182808760Y-147965223D01*
X182725314Y-147925925D01*
X182626551Y-147919579D01*
X182569841Y-147933116D01*
X182513692Y-147981233D01*
X182476499Y-148074833D01*
X182458472Y-148213254D01*
X182456666Y-148286582D01*
X182182745Y-148286582D01*
X182182745Y-147668628D01*
X182319705Y-147668628D01*
X182401935Y-147671879D01*
X182444360Y-147683426D01*
X182456661Y-147705952D01*
X182456666Y-147706620D01*
X182462374Y-147728681D01*
X182487547Y-147726176D01*
X182537598Y-147701935D01*
X182654219Y-147664851D01*
X182785429Y-147660953D01*
X182909909Y-147689560D01*
D14*
X193881476Y-91908380D02*
X193881476Y-92622666D01*
X193833857Y-92765523D01*
X193738619Y-92860761D01*
X193595761Y-92908380D01*
X193500523Y-92908380D01*
X194881476Y-92908380D02*
X194310047Y-92908380D01*
X194595761Y-92908380D02*
X194595761Y-91908380D01*
X194500523Y-92051238D01*
X194405285Y-92146476D01*
X194310047Y-92194095D01*
X195214809Y-91908380D02*
X195833857Y-91908380D01*
X195500523Y-92289333D01*
X195643380Y-92289333D01*
X195738619Y-92336952D01*
X195786238Y-92384571D01*
X195833857Y-92479809D01*
X195833857Y-92717904D01*
X195786238Y-92813142D01*
X195738619Y-92860761D01*
X195643380Y-92908380D01*
X195357666Y-92908380D01*
X195262428Y-92860761D01*
X195214809Y-92813142D01*
X121816904Y-59357380D02*
X121816904Y-58357380D01*
X122055000Y-58357380D01*
X122197857Y-58405000D01*
X122293095Y-58500238D01*
X122340714Y-58595476D01*
X122388333Y-58785952D01*
X122388333Y-58928809D01*
X122340714Y-59119285D01*
X122293095Y-59214523D01*
X122197857Y-59309761D01*
X122055000Y-59357380D01*
X121816904Y-59357380D01*
X123340714Y-59357380D02*
X122769285Y-59357380D01*
X123055000Y-59357380D02*
X123055000Y-58357380D01*
X122959761Y-58500238D01*
X122864523Y-58595476D01*
X122769285Y-58643095D01*
X139779476Y-88098380D02*
X139779476Y-88812666D01*
X139731857Y-88955523D01*
X139636619Y-89050761D01*
X139493761Y-89098380D01*
X139398523Y-89098380D01*
X140779476Y-89098380D02*
X140208047Y-89098380D01*
X140493761Y-89098380D02*
X140493761Y-88098380D01*
X140398523Y-88241238D01*
X140303285Y-88336476D01*
X140208047Y-88384095D01*
X141731857Y-89098380D02*
X141160428Y-89098380D01*
X141446142Y-89098380D02*
X141446142Y-88098380D01*
X141350904Y-88241238D01*
X141255666Y-88336476D01*
X141160428Y-88384095D01*
X116673333Y-84177142D02*
X116625714Y-84224761D01*
X116482857Y-84272380D01*
X116387619Y-84272380D01*
X116244761Y-84224761D01*
X116149523Y-84129523D01*
X116101904Y-84034285D01*
X116054285Y-83843809D01*
X116054285Y-83700952D01*
X116101904Y-83510476D01*
X116149523Y-83415238D01*
X116244761Y-83320000D01*
X116387619Y-83272380D01*
X116482857Y-83272380D01*
X116625714Y-83320000D01*
X116673333Y-83367619D01*
X117006666Y-83272380D02*
X117673333Y-83272380D01*
X117244761Y-84272380D01*
X161504333Y-85245142D02*
X161456714Y-85292761D01*
X161313857Y-85340380D01*
X161218619Y-85340380D01*
X161075761Y-85292761D01*
X160980523Y-85197523D01*
X160932904Y-85102285D01*
X160885285Y-84911809D01*
X160885285Y-84768952D01*
X160932904Y-84578476D01*
X160980523Y-84483238D01*
X161075761Y-84388000D01*
X161218619Y-84340380D01*
X161313857Y-84340380D01*
X161456714Y-84388000D01*
X161504333Y-84435619D01*
X162361476Y-84673714D02*
X162361476Y-85340380D01*
X162123380Y-84292761D02*
X161885285Y-85007047D01*
X162504333Y-85007047D01*
X50712761Y-91765380D02*
X50379428Y-91289190D01*
X50141333Y-91765380D02*
X50141333Y-90765380D01*
X50522285Y-90765380D01*
X50617523Y-90813000D01*
X50665142Y-90860619D01*
X50712761Y-90955857D01*
X50712761Y-91098714D01*
X50665142Y-91193952D01*
X50617523Y-91241571D01*
X50522285Y-91289190D01*
X50141333Y-91289190D01*
X50998476Y-90765380D02*
X51331809Y-91765380D01*
X51665142Y-90765380D01*
X52522285Y-91765380D02*
X51950857Y-91765380D01*
X52236571Y-91765380D02*
X52236571Y-90765380D01*
X52141333Y-90908238D01*
X52046095Y-91003476D01*
X51950857Y-91051095D01*
X107823095Y-103592380D02*
X107823095Y-104401904D01*
X107870714Y-104497142D01*
X107918333Y-104544761D01*
X108013571Y-104592380D01*
X108204047Y-104592380D01*
X108299285Y-104544761D01*
X108346904Y-104497142D01*
X108394523Y-104401904D01*
X108394523Y-103592380D01*
X108775476Y-103592380D02*
X109394523Y-103592380D01*
X109061190Y-103973333D01*
X109204047Y-103973333D01*
X109299285Y-104020952D01*
X109346904Y-104068571D01*
X109394523Y-104163809D01*
X109394523Y-104401904D01*
X109346904Y-104497142D01*
X109299285Y-104544761D01*
X109204047Y-104592380D01*
X108918333Y-104592380D01*
X108823095Y-104544761D01*
X108775476Y-104497142D01*
X136955095Y-55452380D02*
X136955095Y-56261904D01*
X137002714Y-56357142D01*
X137050333Y-56404761D01*
X137145571Y-56452380D01*
X137336047Y-56452380D01*
X137431285Y-56404761D01*
X137478904Y-56357142D01*
X137526523Y-56261904D01*
X137526523Y-55452380D01*
X138431285Y-55452380D02*
X138240809Y-55452380D01*
X138145571Y-55500000D01*
X138097952Y-55547619D01*
X138002714Y-55690476D01*
X137955095Y-55880952D01*
X137955095Y-56261904D01*
X138002714Y-56357142D01*
X138050333Y-56404761D01*
X138145571Y-56452380D01*
X138336047Y-56452380D01*
X138431285Y-56404761D01*
X138478904Y-56357142D01*
X138526523Y-56261904D01*
X138526523Y-56023809D01*
X138478904Y-55928571D01*
X138431285Y-55880952D01*
X138336047Y-55833333D01*
X138145571Y-55833333D01*
X138050333Y-55880952D01*
X138002714Y-55928571D01*
X137955095Y-56023809D01*
X190079333Y-121864380D02*
X189746000Y-121388190D01*
X189507904Y-121864380D02*
X189507904Y-120864380D01*
X189888857Y-120864380D01*
X189984095Y-120912000D01*
X190031714Y-120959619D01*
X190079333Y-121054857D01*
X190079333Y-121197714D01*
X190031714Y-121292952D01*
X189984095Y-121340571D01*
X189888857Y-121388190D01*
X189507904Y-121388190D01*
X190412666Y-120864380D02*
X191031714Y-120864380D01*
X190698380Y-121245333D01*
X190841238Y-121245333D01*
X190936476Y-121292952D01*
X190984095Y-121340571D01*
X191031714Y-121435809D01*
X191031714Y-121673904D01*
X190984095Y-121769142D01*
X190936476Y-121816761D01*
X190841238Y-121864380D01*
X190555523Y-121864380D01*
X190460285Y-121816761D01*
X190412666Y-121769142D01*
X123054761Y-69988333D02*
X123102380Y-69845476D01*
X123102380Y-69607380D01*
X123054761Y-69512142D01*
X123007142Y-69464523D01*
X122911904Y-69416904D01*
X122816666Y-69416904D01*
X122721428Y-69464523D01*
X122673809Y-69512142D01*
X122626190Y-69607380D01*
X122578571Y-69797857D01*
X122530952Y-69893095D01*
X122483333Y-69940714D01*
X122388095Y-69988333D01*
X122292857Y-69988333D01*
X122197619Y-69940714D01*
X122150000Y-69893095D01*
X122102380Y-69797857D01*
X122102380Y-69559761D01*
X122150000Y-69416904D01*
X122102380Y-69083571D02*
X123102380Y-68845476D01*
X122388095Y-68655000D01*
X123102380Y-68464523D01*
X122102380Y-68226428D01*
X123102380Y-67321666D02*
X123102380Y-67893095D01*
X123102380Y-67607380D02*
X122102380Y-67607380D01*
X122245238Y-67702619D01*
X122340476Y-67797857D01*
X122388095Y-67893095D01*
X72404761Y-69988333D02*
X72452380Y-69845476D01*
X72452380Y-69607380D01*
X72404761Y-69512142D01*
X72357142Y-69464523D01*
X72261904Y-69416904D01*
X72166666Y-69416904D01*
X72071428Y-69464523D01*
X72023809Y-69512142D01*
X71976190Y-69607380D01*
X71928571Y-69797857D01*
X71880952Y-69893095D01*
X71833333Y-69940714D01*
X71738095Y-69988333D01*
X71642857Y-69988333D01*
X71547619Y-69940714D01*
X71500000Y-69893095D01*
X71452380Y-69797857D01*
X71452380Y-69559761D01*
X71500000Y-69416904D01*
X71452380Y-69083571D02*
X72452380Y-68845476D01*
X71738095Y-68655000D01*
X72452380Y-68464523D01*
X71452380Y-68226428D01*
X71452380Y-67369285D02*
X71452380Y-67845476D01*
X71928571Y-67893095D01*
X71880952Y-67845476D01*
X71833333Y-67750238D01*
X71833333Y-67512142D01*
X71880952Y-67416904D01*
X71928571Y-67369285D01*
X72023809Y-67321666D01*
X72261904Y-67321666D01*
X72357142Y-67369285D01*
X72404761Y-67416904D01*
X72452380Y-67512142D01*
X72452380Y-67750238D01*
X72404761Y-67845476D01*
X72357142Y-67893095D01*
X60910476Y-83907380D02*
X61243809Y-84907380D01*
X61577142Y-83907380D01*
X62434285Y-84907380D02*
X61862857Y-84907380D01*
X62148571Y-84907380D02*
X62148571Y-83907380D01*
X62053333Y-84050238D01*
X61958095Y-84145476D01*
X61862857Y-84193095D01*
X202485666Y-128611380D02*
X202485666Y-129325666D01*
X202438047Y-129468523D01*
X202342809Y-129563761D01*
X202199952Y-129611380D01*
X202104714Y-129611380D01*
X203009476Y-129611380D02*
X203199952Y-129611380D01*
X203295190Y-129563761D01*
X203342809Y-129516142D01*
X203438047Y-129373285D01*
X203485666Y-129182809D01*
X203485666Y-128801857D01*
X203438047Y-128706619D01*
X203390428Y-128659000D01*
X203295190Y-128611380D01*
X203104714Y-128611380D01*
X203009476Y-128659000D01*
X202961857Y-128706619D01*
X202914238Y-128801857D01*
X202914238Y-129039952D01*
X202961857Y-129135190D01*
X203009476Y-129182809D01*
X203104714Y-129230428D01*
X203295190Y-129230428D01*
X203390428Y-129182809D01*
X203438047Y-129135190D01*
X203485666Y-129039952D01*
X56411904Y-133802380D02*
X56411904Y-132802380D01*
X56983333Y-133802380D02*
X56554761Y-133230952D01*
X56983333Y-132802380D02*
X56411904Y-133373809D01*
X57935714Y-133802380D02*
X57364285Y-133802380D01*
X57650000Y-133802380D02*
X57650000Y-132802380D01*
X57554761Y-132945238D01*
X57459523Y-133040476D01*
X57364285Y-133088095D01*
X72921904Y-133802380D02*
X72921904Y-132802380D01*
X73493333Y-133802380D02*
X73064761Y-133230952D01*
X73493333Y-132802380D02*
X72921904Y-133373809D01*
X73874285Y-132897619D02*
X73921904Y-132850000D01*
X74017142Y-132802380D01*
X74255238Y-132802380D01*
X74350476Y-132850000D01*
X74398095Y-132897619D01*
X74445714Y-132992857D01*
X74445714Y-133088095D01*
X74398095Y-133230952D01*
X73826666Y-133802380D01*
X74445714Y-133802380D01*
X89431904Y-133802380D02*
X89431904Y-132802380D01*
X90003333Y-133802380D02*
X89574761Y-133230952D01*
X90003333Y-132802380D02*
X89431904Y-133373809D01*
X90336666Y-132802380D02*
X90955714Y-132802380D01*
X90622380Y-133183333D01*
X90765238Y-133183333D01*
X90860476Y-133230952D01*
X90908095Y-133278571D01*
X90955714Y-133373809D01*
X90955714Y-133611904D01*
X90908095Y-133707142D01*
X90860476Y-133754761D01*
X90765238Y-133802380D01*
X90479523Y-133802380D01*
X90384285Y-133754761D01*
X90336666Y-133707142D01*
X105941904Y-133548380D02*
X105941904Y-132548380D01*
X106513333Y-133548380D02*
X106084761Y-132976952D01*
X106513333Y-132548380D02*
X105941904Y-133119809D01*
X107370476Y-132881714D02*
X107370476Y-133548380D01*
X107132380Y-132500761D02*
X106894285Y-133215047D01*
X107513333Y-133215047D01*
X122705904Y-133548380D02*
X122705904Y-132548380D01*
X123277333Y-133548380D02*
X122848761Y-132976952D01*
X123277333Y-132548380D02*
X122705904Y-133119809D01*
X124182095Y-132548380D02*
X123705904Y-132548380D01*
X123658285Y-133024571D01*
X123705904Y-132976952D01*
X123801142Y-132929333D01*
X124039238Y-132929333D01*
X124134476Y-132976952D01*
X124182095Y-133024571D01*
X124229714Y-133119809D01*
X124229714Y-133357904D01*
X124182095Y-133453142D01*
X124134476Y-133500761D01*
X124039238Y-133548380D01*
X123801142Y-133548380D01*
X123705904Y-133500761D01*
X123658285Y-133453142D01*
X139596904Y-133548380D02*
X139596904Y-132548380D01*
X140168333Y-133548380D02*
X139739761Y-132976952D01*
X140168333Y-132548380D02*
X139596904Y-133119809D01*
X141025476Y-132548380D02*
X140835000Y-132548380D01*
X140739761Y-132596000D01*
X140692142Y-132643619D01*
X140596904Y-132786476D01*
X140549285Y-132976952D01*
X140549285Y-133357904D01*
X140596904Y-133453142D01*
X140644523Y-133500761D01*
X140739761Y-133548380D01*
X140930238Y-133548380D01*
X141025476Y-133500761D01*
X141073095Y-133453142D01*
X141120714Y-133357904D01*
X141120714Y-133119809D01*
X141073095Y-133024571D01*
X141025476Y-132976952D01*
X140930238Y-132929333D01*
X140739761Y-132929333D01*
X140644523Y-132976952D01*
X140596904Y-133024571D01*
X140549285Y-133119809D01*
X155448095Y-124547380D02*
X155448095Y-125356904D01*
X155495714Y-125452142D01*
X155543333Y-125499761D01*
X155638571Y-125547380D01*
X155829047Y-125547380D01*
X155924285Y-125499761D01*
X155971904Y-125452142D01*
X156019523Y-125356904D01*
X156019523Y-124547380D01*
X156448095Y-124642619D02*
X156495714Y-124595000D01*
X156590952Y-124547380D01*
X156829047Y-124547380D01*
X156924285Y-124595000D01*
X156971904Y-124642619D01*
X157019523Y-124737857D01*
X157019523Y-124833095D01*
X156971904Y-124975952D01*
X156400476Y-125547380D01*
X157019523Y-125547380D01*
X160942095Y-88987380D02*
X160942095Y-89796904D01*
X160989714Y-89892142D01*
X161037333Y-89939761D01*
X161132571Y-89987380D01*
X161323047Y-89987380D01*
X161418285Y-89939761D01*
X161465904Y-89892142D01*
X161513523Y-89796904D01*
X161513523Y-88987380D01*
X162418285Y-89320714D02*
X162418285Y-89987380D01*
X162180190Y-88939761D02*
X161942095Y-89654047D01*
X162561142Y-89654047D01*
X156170333Y-83778142D02*
X156122714Y-83825761D01*
X155979857Y-83873380D01*
X155884619Y-83873380D01*
X155741761Y-83825761D01*
X155646523Y-83730523D01*
X155598904Y-83635285D01*
X155551285Y-83444809D01*
X155551285Y-83301952D01*
X155598904Y-83111476D01*
X155646523Y-83016238D01*
X155741761Y-82921000D01*
X155884619Y-82873380D01*
X155979857Y-82873380D01*
X156122714Y-82921000D01*
X156170333Y-82968619D01*
X156503666Y-82873380D02*
X157122714Y-82873380D01*
X156789380Y-83254333D01*
X156932238Y-83254333D01*
X157027476Y-83301952D01*
X157075095Y-83349571D01*
X157122714Y-83444809D01*
X157122714Y-83682904D01*
X157075095Y-83778142D01*
X157027476Y-83825761D01*
X156932238Y-83873380D01*
X156646523Y-83873380D01*
X156551285Y-83825761D01*
X156503666Y-83778142D01*
X158202333Y-109577142D02*
X158154714Y-109624761D01*
X158011857Y-109672380D01*
X157916619Y-109672380D01*
X157773761Y-109624761D01*
X157678523Y-109529523D01*
X157630904Y-109434285D01*
X157583285Y-109243809D01*
X157583285Y-109100952D01*
X157630904Y-108910476D01*
X157678523Y-108815238D01*
X157773761Y-108720000D01*
X157916619Y-108672380D01*
X158011857Y-108672380D01*
X158154714Y-108720000D01*
X158202333Y-108767619D01*
X159154714Y-109672380D02*
X158583285Y-109672380D01*
X158869000Y-109672380D02*
X158869000Y-108672380D01*
X158773761Y-108815238D01*
X158678523Y-108910476D01*
X158583285Y-108958095D01*
X158202333Y-114657142D02*
X158154714Y-114704761D01*
X158011857Y-114752380D01*
X157916619Y-114752380D01*
X157773761Y-114704761D01*
X157678523Y-114609523D01*
X157630904Y-114514285D01*
X157583285Y-114323809D01*
X157583285Y-114180952D01*
X157630904Y-113990476D01*
X157678523Y-113895238D01*
X157773761Y-113800000D01*
X157916619Y-113752380D01*
X158011857Y-113752380D01*
X158154714Y-113800000D01*
X158202333Y-113847619D01*
X158583285Y-113847619D02*
X158630904Y-113800000D01*
X158726142Y-113752380D01*
X158964238Y-113752380D01*
X159059476Y-113800000D01*
X159107095Y-113847619D01*
X159154714Y-113942857D01*
X159154714Y-114038095D01*
X159107095Y-114180952D01*
X158535666Y-114752380D01*
X159154714Y-114752380D01*
X158202333Y-112212380D02*
X157869000Y-111736190D01*
X157630904Y-112212380D02*
X157630904Y-111212380D01*
X158011857Y-111212380D01*
X158107095Y-111260000D01*
X158154714Y-111307619D01*
X158202333Y-111402857D01*
X158202333Y-111545714D01*
X158154714Y-111640952D01*
X158107095Y-111688571D01*
X158011857Y-111736190D01*
X157630904Y-111736190D01*
X159154714Y-112212380D02*
X158583285Y-112212380D01*
X158869000Y-112212380D02*
X158869000Y-111212380D01*
X158773761Y-111355238D01*
X158678523Y-111450476D01*
X158583285Y-111498095D01*
X190079333Y-124404380D02*
X189746000Y-123928190D01*
X189507904Y-124404380D02*
X189507904Y-123404380D01*
X189888857Y-123404380D01*
X189984095Y-123452000D01*
X190031714Y-123499619D01*
X190079333Y-123594857D01*
X190079333Y-123737714D01*
X190031714Y-123832952D01*
X189984095Y-123880571D01*
X189888857Y-123928190D01*
X189507904Y-123928190D01*
X190460285Y-123499619D02*
X190507904Y-123452000D01*
X190603142Y-123404380D01*
X190841238Y-123404380D01*
X190936476Y-123452000D01*
X190984095Y-123499619D01*
X191031714Y-123594857D01*
X191031714Y-123690095D01*
X190984095Y-123832952D01*
X190412666Y-124404380D01*
X191031714Y-124404380D01*
X109116904Y-59357380D02*
X109116904Y-58357380D01*
X109355000Y-58357380D01*
X109497857Y-58405000D01*
X109593095Y-58500238D01*
X109640714Y-58595476D01*
X109688333Y-58785952D01*
X109688333Y-58928809D01*
X109640714Y-59119285D01*
X109593095Y-59214523D01*
X109497857Y-59309761D01*
X109355000Y-59357380D01*
X109116904Y-59357380D01*
X110069285Y-58452619D02*
X110116904Y-58405000D01*
X110212142Y-58357380D01*
X110450238Y-58357380D01*
X110545476Y-58405000D01*
X110593095Y-58452619D01*
X110640714Y-58547857D01*
X110640714Y-58643095D01*
X110593095Y-58785952D01*
X110021666Y-59357380D01*
X110640714Y-59357380D01*
X96416904Y-59357380D02*
X96416904Y-58357380D01*
X96655000Y-58357380D01*
X96797857Y-58405000D01*
X96893095Y-58500238D01*
X96940714Y-58595476D01*
X96988333Y-58785952D01*
X96988333Y-58928809D01*
X96940714Y-59119285D01*
X96893095Y-59214523D01*
X96797857Y-59309761D01*
X96655000Y-59357380D01*
X96416904Y-59357380D01*
X97321666Y-58357380D02*
X97940714Y-58357380D01*
X97607380Y-58738333D01*
X97750238Y-58738333D01*
X97845476Y-58785952D01*
X97893095Y-58833571D01*
X97940714Y-58928809D01*
X97940714Y-59166904D01*
X97893095Y-59262142D01*
X97845476Y-59309761D01*
X97750238Y-59357380D01*
X97464523Y-59357380D01*
X97369285Y-59309761D01*
X97321666Y-59262142D01*
X83716904Y-59357380D02*
X83716904Y-58357380D01*
X83955000Y-58357380D01*
X84097857Y-58405000D01*
X84193095Y-58500238D01*
X84240714Y-58595476D01*
X84288333Y-58785952D01*
X84288333Y-58928809D01*
X84240714Y-59119285D01*
X84193095Y-59214523D01*
X84097857Y-59309761D01*
X83955000Y-59357380D01*
X83716904Y-59357380D01*
X85145476Y-58690714D02*
X85145476Y-59357380D01*
X84907380Y-58309761D02*
X84669285Y-59024047D01*
X85288333Y-59024047D01*
X71016904Y-59357380D02*
X71016904Y-58357380D01*
X71255000Y-58357380D01*
X71397857Y-58405000D01*
X71493095Y-58500238D01*
X71540714Y-58595476D01*
X71588333Y-58785952D01*
X71588333Y-58928809D01*
X71540714Y-59119285D01*
X71493095Y-59214523D01*
X71397857Y-59309761D01*
X71255000Y-59357380D01*
X71016904Y-59357380D01*
X72493095Y-58357380D02*
X72016904Y-58357380D01*
X71969285Y-58833571D01*
X72016904Y-58785952D01*
X72112142Y-58738333D01*
X72350238Y-58738333D01*
X72445476Y-58785952D01*
X72493095Y-58833571D01*
X72540714Y-58928809D01*
X72540714Y-59166904D01*
X72493095Y-59262142D01*
X72445476Y-59309761D01*
X72350238Y-59357380D01*
X72112142Y-59357380D01*
X72016904Y-59309761D01*
X71969285Y-59262142D01*
X58316904Y-59357380D02*
X58316904Y-58357380D01*
X58555000Y-58357380D01*
X58697857Y-58405000D01*
X58793095Y-58500238D01*
X58840714Y-58595476D01*
X58888333Y-58785952D01*
X58888333Y-58928809D01*
X58840714Y-59119285D01*
X58793095Y-59214523D01*
X58697857Y-59309761D01*
X58555000Y-59357380D01*
X58316904Y-59357380D01*
X59745476Y-58357380D02*
X59555000Y-58357380D01*
X59459761Y-58405000D01*
X59412142Y-58452619D01*
X59316904Y-58595476D01*
X59269285Y-58785952D01*
X59269285Y-59166904D01*
X59316904Y-59262142D01*
X59364523Y-59309761D01*
X59459761Y-59357380D01*
X59650238Y-59357380D01*
X59745476Y-59309761D01*
X59793095Y-59262142D01*
X59840714Y-59166904D01*
X59840714Y-58928809D01*
X59793095Y-58833571D01*
X59745476Y-58785952D01*
X59650238Y-58738333D01*
X59459761Y-58738333D01*
X59364523Y-58785952D01*
X59316904Y-58833571D01*
X59269285Y-58928809D01*
X110504761Y-69988333D02*
X110552380Y-69845476D01*
X110552380Y-69607380D01*
X110504761Y-69512142D01*
X110457142Y-69464523D01*
X110361904Y-69416904D01*
X110266666Y-69416904D01*
X110171428Y-69464523D01*
X110123809Y-69512142D01*
X110076190Y-69607380D01*
X110028571Y-69797857D01*
X109980952Y-69893095D01*
X109933333Y-69940714D01*
X109838095Y-69988333D01*
X109742857Y-69988333D01*
X109647619Y-69940714D01*
X109600000Y-69893095D01*
X109552380Y-69797857D01*
X109552380Y-69559761D01*
X109600000Y-69416904D01*
X109552380Y-69083571D02*
X110552380Y-68845476D01*
X109838095Y-68655000D01*
X110552380Y-68464523D01*
X109552380Y-68226428D01*
X109647619Y-67893095D02*
X109600000Y-67845476D01*
X109552380Y-67750238D01*
X109552380Y-67512142D01*
X109600000Y-67416904D01*
X109647619Y-67369285D01*
X109742857Y-67321666D01*
X109838095Y-67321666D01*
X109980952Y-67369285D01*
X110552380Y-67940714D01*
X110552380Y-67321666D01*
X97804761Y-69988333D02*
X97852380Y-69845476D01*
X97852380Y-69607380D01*
X97804761Y-69512142D01*
X97757142Y-69464523D01*
X97661904Y-69416904D01*
X97566666Y-69416904D01*
X97471428Y-69464523D01*
X97423809Y-69512142D01*
X97376190Y-69607380D01*
X97328571Y-69797857D01*
X97280952Y-69893095D01*
X97233333Y-69940714D01*
X97138095Y-69988333D01*
X97042857Y-69988333D01*
X96947619Y-69940714D01*
X96900000Y-69893095D01*
X96852380Y-69797857D01*
X96852380Y-69559761D01*
X96900000Y-69416904D01*
X96852380Y-69083571D02*
X97852380Y-68845476D01*
X97138095Y-68655000D01*
X97852380Y-68464523D01*
X96852380Y-68226428D01*
X96852380Y-67940714D02*
X96852380Y-67321666D01*
X97233333Y-67655000D01*
X97233333Y-67512142D01*
X97280952Y-67416904D01*
X97328571Y-67369285D01*
X97423809Y-67321666D01*
X97661904Y-67321666D01*
X97757142Y-67369285D01*
X97804761Y-67416904D01*
X97852380Y-67512142D01*
X97852380Y-67797857D01*
X97804761Y-67893095D01*
X97757142Y-67940714D01*
X84954761Y-69988333D02*
X85002380Y-69845476D01*
X85002380Y-69607380D01*
X84954761Y-69512142D01*
X84907142Y-69464523D01*
X84811904Y-69416904D01*
X84716666Y-69416904D01*
X84621428Y-69464523D01*
X84573809Y-69512142D01*
X84526190Y-69607380D01*
X84478571Y-69797857D01*
X84430952Y-69893095D01*
X84383333Y-69940714D01*
X84288095Y-69988333D01*
X84192857Y-69988333D01*
X84097619Y-69940714D01*
X84050000Y-69893095D01*
X84002380Y-69797857D01*
X84002380Y-69559761D01*
X84050000Y-69416904D01*
X84002380Y-69083571D02*
X85002380Y-68845476D01*
X84288095Y-68655000D01*
X85002380Y-68464523D01*
X84002380Y-68226428D01*
X84335714Y-67416904D02*
X85002380Y-67416904D01*
X83954761Y-67655000D02*
X84669047Y-67893095D01*
X84669047Y-67274047D01*
X60244761Y-69988333D02*
X60292380Y-69845476D01*
X60292380Y-69607380D01*
X60244761Y-69512142D01*
X60197142Y-69464523D01*
X60101904Y-69416904D01*
X60006666Y-69416904D01*
X59911428Y-69464523D01*
X59863809Y-69512142D01*
X59816190Y-69607380D01*
X59768571Y-69797857D01*
X59720952Y-69893095D01*
X59673333Y-69940714D01*
X59578095Y-69988333D01*
X59482857Y-69988333D01*
X59387619Y-69940714D01*
X59340000Y-69893095D01*
X59292380Y-69797857D01*
X59292380Y-69559761D01*
X59340000Y-69416904D01*
X59292380Y-69083571D02*
X60292380Y-68845476D01*
X59578095Y-68655000D01*
X60292380Y-68464523D01*
X59292380Y-68226428D01*
X59292380Y-67416904D02*
X59292380Y-67607380D01*
X59340000Y-67702619D01*
X59387619Y-67750238D01*
X59530476Y-67845476D01*
X59720952Y-67893095D01*
X60101904Y-67893095D01*
X60197142Y-67845476D01*
X60244761Y-67797857D01*
X60292380Y-67702619D01*
X60292380Y-67512142D01*
X60244761Y-67416904D01*
X60197142Y-67369285D01*
X60101904Y-67321666D01*
X59863809Y-67321666D01*
X59768571Y-67369285D01*
X59720952Y-67416904D01*
X59673333Y-67512142D01*
X59673333Y-67702619D01*
X59720952Y-67797857D01*
X59768571Y-67845476D01*
X59863809Y-67893095D01*
X96988333Y-82907142D02*
X96940714Y-82954761D01*
X96797857Y-83002380D01*
X96702619Y-83002380D01*
X96559761Y-82954761D01*
X96464523Y-82859523D01*
X96416904Y-82764285D01*
X96369285Y-82573809D01*
X96369285Y-82430952D01*
X96416904Y-82240476D01*
X96464523Y-82145238D01*
X96559761Y-82050000D01*
X96702619Y-82002380D01*
X96797857Y-82002380D01*
X96940714Y-82050000D01*
X96988333Y-82097619D01*
X97893095Y-82002380D02*
X97416904Y-82002380D01*
X97369285Y-82478571D01*
X97416904Y-82430952D01*
X97512142Y-82383333D01*
X97750238Y-82383333D01*
X97845476Y-82430952D01*
X97893095Y-82478571D01*
X97940714Y-82573809D01*
X97940714Y-82811904D01*
X97893095Y-82907142D01*
X97845476Y-82954761D01*
X97750238Y-83002380D01*
X97512142Y-83002380D01*
X97416904Y-82954761D01*
X97369285Y-82907142D01*
X96988333Y-105767142D02*
X96940714Y-105814761D01*
X96797857Y-105862380D01*
X96702619Y-105862380D01*
X96559761Y-105814761D01*
X96464523Y-105719523D01*
X96416904Y-105624285D01*
X96369285Y-105433809D01*
X96369285Y-105290952D01*
X96416904Y-105100476D01*
X96464523Y-105005238D01*
X96559761Y-104910000D01*
X96702619Y-104862380D01*
X96797857Y-104862380D01*
X96940714Y-104910000D01*
X96988333Y-104957619D01*
X97845476Y-104862380D02*
X97655000Y-104862380D01*
X97559761Y-104910000D01*
X97512142Y-104957619D01*
X97416904Y-105100476D01*
X97369285Y-105290952D01*
X97369285Y-105671904D01*
X97416904Y-105767142D01*
X97464523Y-105814761D01*
X97559761Y-105862380D01*
X97750238Y-105862380D01*
X97845476Y-105814761D01*
X97893095Y-105767142D01*
X97940714Y-105671904D01*
X97940714Y-105433809D01*
X97893095Y-105338571D01*
X97845476Y-105290952D01*
X97750238Y-105243333D01*
X97559761Y-105243333D01*
X97464523Y-105290952D01*
X97416904Y-105338571D01*
X97369285Y-105433809D01*
X116673333Y-105132142D02*
X116625714Y-105179761D01*
X116482857Y-105227380D01*
X116387619Y-105227380D01*
X116244761Y-105179761D01*
X116149523Y-105084523D01*
X116101904Y-104989285D01*
X116054285Y-104798809D01*
X116054285Y-104655952D01*
X116101904Y-104465476D01*
X116149523Y-104370238D01*
X116244761Y-104275000D01*
X116387619Y-104227380D01*
X116482857Y-104227380D01*
X116625714Y-104275000D01*
X116673333Y-104322619D01*
X117244761Y-104655952D02*
X117149523Y-104608333D01*
X117101904Y-104560714D01*
X117054285Y-104465476D01*
X117054285Y-104417857D01*
X117101904Y-104322619D01*
X117149523Y-104275000D01*
X117244761Y-104227380D01*
X117435238Y-104227380D01*
X117530476Y-104275000D01*
X117578095Y-104322619D01*
X117625714Y-104417857D01*
X117625714Y-104465476D01*
X117578095Y-104560714D01*
X117530476Y-104608333D01*
X117435238Y-104655952D01*
X117244761Y-104655952D01*
X117149523Y-104703571D01*
X117101904Y-104751190D01*
X117054285Y-104846428D01*
X117054285Y-105036904D01*
X117101904Y-105132142D01*
X117149523Y-105179761D01*
X117244761Y-105227380D01*
X117435238Y-105227380D01*
X117530476Y-105179761D01*
X117578095Y-105132142D01*
X117625714Y-105036904D01*
X117625714Y-104846428D01*
X117578095Y-104751190D01*
X117530476Y-104703571D01*
X117435238Y-104655952D01*
X107823095Y-83907380D02*
X107823095Y-84716904D01*
X107870714Y-84812142D01*
X107918333Y-84859761D01*
X108013571Y-84907380D01*
X108204047Y-84907380D01*
X108299285Y-84859761D01*
X108346904Y-84812142D01*
X108394523Y-84716904D01*
X108394523Y-83907380D01*
X109346904Y-83907380D02*
X108870714Y-83907380D01*
X108823095Y-84383571D01*
X108870714Y-84335952D01*
X108965952Y-84288333D01*
X109204047Y-84288333D01*
X109299285Y-84335952D01*
X109346904Y-84383571D01*
X109394523Y-84478809D01*
X109394523Y-84716904D01*
X109346904Y-84812142D01*
X109299285Y-84859761D01*
X109204047Y-84907380D01*
X108965952Y-84907380D01*
X108870714Y-84859761D01*
X108823095Y-84812142D01*
X90050666Y-134727380D02*
X90050666Y-135441666D01*
X90003047Y-135584523D01*
X89907809Y-135679761D01*
X89764952Y-135727380D01*
X89669714Y-135727380D01*
X90431619Y-134727380D02*
X91050666Y-134727380D01*
X90717333Y-135108333D01*
X90860190Y-135108333D01*
X90955428Y-135155952D01*
X91003047Y-135203571D01*
X91050666Y-135298809D01*
X91050666Y-135536904D01*
X91003047Y-135632142D01*
X90955428Y-135679761D01*
X90860190Y-135727380D01*
X90574476Y-135727380D01*
X90479238Y-135679761D01*
X90431619Y-135632142D01*
X106687666Y-134727380D02*
X106687666Y-135441666D01*
X106640047Y-135584523D01*
X106544809Y-135679761D01*
X106401952Y-135727380D01*
X106306714Y-135727380D01*
X107592428Y-135060714D02*
X107592428Y-135727380D01*
X107354333Y-134679761D02*
X107116238Y-135394047D01*
X107735285Y-135394047D01*
X123324666Y-134727380D02*
X123324666Y-135441666D01*
X123277047Y-135584523D01*
X123181809Y-135679761D01*
X123038952Y-135727380D01*
X122943714Y-135727380D01*
X124277047Y-134727380D02*
X123800857Y-134727380D01*
X123753238Y-135203571D01*
X123800857Y-135155952D01*
X123896095Y-135108333D01*
X124134190Y-135108333D01*
X124229428Y-135155952D01*
X124277047Y-135203571D01*
X124324666Y-135298809D01*
X124324666Y-135536904D01*
X124277047Y-135632142D01*
X124229428Y-135679761D01*
X124134190Y-135727380D01*
X123896095Y-135727380D01*
X123800857Y-135679761D01*
X123753238Y-135632142D01*
X56776666Y-134727380D02*
X56776666Y-135441666D01*
X56729047Y-135584523D01*
X56633809Y-135679761D01*
X56490952Y-135727380D01*
X56395714Y-135727380D01*
X57776666Y-135727380D02*
X57205238Y-135727380D01*
X57490952Y-135727380D02*
X57490952Y-134727380D01*
X57395714Y-134870238D01*
X57300476Y-134965476D01*
X57205238Y-135013095D01*
X171704095Y-98766380D02*
X171704095Y-99575904D01*
X171751714Y-99671142D01*
X171799333Y-99718761D01*
X171894571Y-99766380D01*
X172085047Y-99766380D01*
X172180285Y-99718761D01*
X172227904Y-99671142D01*
X172275523Y-99575904D01*
X172275523Y-98766380D01*
X173275523Y-99766380D02*
X172704095Y-99766380D01*
X172989809Y-99766380D02*
X172989809Y-98766380D01*
X172894571Y-98909238D01*
X172799333Y-99004476D01*
X172704095Y-99052095D01*
X187490571Y-92720428D02*
X187490571Y-92387095D01*
X188014380Y-92244238D02*
X188014380Y-92720428D01*
X187014380Y-92720428D01*
X187014380Y-92244238D01*
X187966761Y-91863285D02*
X188014380Y-91768047D01*
X188014380Y-91577571D01*
X187966761Y-91482333D01*
X187871523Y-91434714D01*
X187823904Y-91434714D01*
X187728666Y-91482333D01*
X187681047Y-91577571D01*
X187681047Y-91720428D01*
X187633428Y-91815666D01*
X187538190Y-91863285D01*
X187490571Y-91863285D01*
X187395333Y-91815666D01*
X187347714Y-91720428D01*
X187347714Y-91577571D01*
X187395333Y-91482333D01*
X187347714Y-91006142D02*
X188347714Y-91006142D01*
X187395333Y-91006142D02*
X187347714Y-90910904D01*
X187347714Y-90720428D01*
X187395333Y-90625190D01*
X187442952Y-90577571D01*
X187538190Y-90529952D01*
X187823904Y-90529952D01*
X187919142Y-90577571D01*
X187966761Y-90625190D01*
X188014380Y-90720428D01*
X188014380Y-90910904D01*
X187966761Y-91006142D01*
X188014380Y-90101380D02*
X187347714Y-90101380D01*
X187538190Y-90101380D02*
X187442952Y-90053761D01*
X187395333Y-90006142D01*
X187347714Y-89910904D01*
X187347714Y-89815666D01*
X187966761Y-89101380D02*
X188014380Y-89196619D01*
X188014380Y-89387095D01*
X187966761Y-89482333D01*
X187871523Y-89529952D01*
X187490571Y-89529952D01*
X187395333Y-89482333D01*
X187347714Y-89387095D01*
X187347714Y-89196619D01*
X187395333Y-89101380D01*
X187490571Y-89053761D01*
X187585809Y-89053761D01*
X187681047Y-89529952D01*
X187966761Y-88672809D02*
X188014380Y-88577571D01*
X188014380Y-88387095D01*
X187966761Y-88291857D01*
X187871523Y-88244238D01*
X187823904Y-88244238D01*
X187728666Y-88291857D01*
X187681047Y-88387095D01*
X187681047Y-88529952D01*
X187633428Y-88625190D01*
X187538190Y-88672809D01*
X187490571Y-88672809D01*
X187395333Y-88625190D01*
X187347714Y-88529952D01*
X187347714Y-88387095D01*
X187395333Y-88291857D01*
X187966761Y-87863285D02*
X188014380Y-87768047D01*
X188014380Y-87577571D01*
X187966761Y-87482333D01*
X187871523Y-87434714D01*
X187823904Y-87434714D01*
X187728666Y-87482333D01*
X187681047Y-87577571D01*
X187681047Y-87720428D01*
X187633428Y-87815666D01*
X187538190Y-87863285D01*
X187490571Y-87863285D01*
X187395333Y-87815666D01*
X187347714Y-87720428D01*
X187347714Y-87577571D01*
X187395333Y-87482333D01*
X188014380Y-87006142D02*
X187347714Y-87006142D01*
X187014380Y-87006142D02*
X187062000Y-87053761D01*
X187109619Y-87006142D01*
X187062000Y-86958523D01*
X187014380Y-87006142D01*
X187109619Y-87006142D01*
X187347714Y-86672809D02*
X187347714Y-86291857D01*
X188014380Y-86529952D02*
X187157238Y-86529952D01*
X187062000Y-86482333D01*
X187014380Y-86387095D01*
X187014380Y-86291857D01*
X187966761Y-85244238D02*
X188014380Y-85101380D01*
X188014380Y-84863285D01*
X187966761Y-84768047D01*
X187919142Y-84720428D01*
X187823904Y-84672809D01*
X187728666Y-84672809D01*
X187633428Y-84720428D01*
X187585809Y-84768047D01*
X187538190Y-84863285D01*
X187490571Y-85053761D01*
X187442952Y-85149000D01*
X187395333Y-85196619D01*
X187300095Y-85244238D01*
X187204857Y-85244238D01*
X187109619Y-85196619D01*
X187062000Y-85149000D01*
X187014380Y-85053761D01*
X187014380Y-84815666D01*
X187062000Y-84672809D01*
X187347714Y-84339476D02*
X188014380Y-84101380D01*
X187347714Y-83863285D02*
X188014380Y-84101380D01*
X188252476Y-84196619D01*
X188300095Y-84244238D01*
X188347714Y-84339476D01*
X187966761Y-83529952D02*
X188014380Y-83434714D01*
X188014380Y-83244238D01*
X187966761Y-83149000D01*
X187871523Y-83101380D01*
X187823904Y-83101380D01*
X187728666Y-83149000D01*
X187681047Y-83244238D01*
X187681047Y-83387095D01*
X187633428Y-83482333D01*
X187538190Y-83529952D01*
X187490571Y-83529952D01*
X187395333Y-83482333D01*
X187347714Y-83387095D01*
X187347714Y-83244238D01*
X187395333Y-83149000D01*
X187347714Y-82815666D02*
X187347714Y-82434714D01*
X187014380Y-82672809D02*
X187871523Y-82672809D01*
X187966761Y-82625190D01*
X188014380Y-82529952D01*
X188014380Y-82434714D01*
X187966761Y-81720428D02*
X188014380Y-81815666D01*
X188014380Y-82006142D01*
X187966761Y-82101380D01*
X187871523Y-82149000D01*
X187490571Y-82149000D01*
X187395333Y-82101380D01*
X187347714Y-82006142D01*
X187347714Y-81815666D01*
X187395333Y-81720428D01*
X187490571Y-81672809D01*
X187585809Y-81672809D01*
X187681047Y-82149000D01*
X188014380Y-81244238D02*
X187347714Y-81244238D01*
X187442952Y-81244238D02*
X187395333Y-81196619D01*
X187347714Y-81101380D01*
X187347714Y-80958523D01*
X187395333Y-80863285D01*
X187490571Y-80815666D01*
X188014380Y-80815666D01*
X187490571Y-80815666D02*
X187395333Y-80768047D01*
X187347714Y-80672809D01*
X187347714Y-80529952D01*
X187395333Y-80434714D01*
X187490571Y-80387095D01*
X188014380Y-80387095D01*
X187966761Y-79958523D02*
X188014380Y-79863285D01*
X188014380Y-79672809D01*
X187966761Y-79577571D01*
X187871523Y-79529952D01*
X187823904Y-79529952D01*
X187728666Y-79577571D01*
X187681047Y-79672809D01*
X187681047Y-79815666D01*
X187633428Y-79910904D01*
X187538190Y-79958523D01*
X187490571Y-79958523D01*
X187395333Y-79910904D01*
X187347714Y-79815666D01*
X187347714Y-79672809D01*
X187395333Y-79577571D01*
X185839571Y-90458380D02*
X185839571Y-90125047D01*
X186363380Y-89982190D02*
X186363380Y-90458380D01*
X185363380Y-90458380D01*
X185363380Y-89982190D01*
X186315761Y-89601238D02*
X186363380Y-89458380D01*
X186363380Y-89220285D01*
X186315761Y-89125047D01*
X186268142Y-89077428D01*
X186172904Y-89029809D01*
X186077666Y-89029809D01*
X185982428Y-89077428D01*
X185934809Y-89125047D01*
X185887190Y-89220285D01*
X185839571Y-89410761D01*
X185791952Y-89506000D01*
X185744333Y-89553619D01*
X185649095Y-89601238D01*
X185553857Y-89601238D01*
X185458619Y-89553619D01*
X185411000Y-89506000D01*
X185363380Y-89410761D01*
X185363380Y-89172666D01*
X185411000Y-89029809D01*
X186363380Y-88601238D02*
X185363380Y-88601238D01*
X185363380Y-88220285D01*
X185411000Y-88125047D01*
X185458619Y-88077428D01*
X185553857Y-88029809D01*
X185696714Y-88029809D01*
X185791952Y-88077428D01*
X185839571Y-88125047D01*
X185887190Y-88220285D01*
X185887190Y-88601238D01*
X185363380Y-87696476D02*
X185363380Y-87077428D01*
X185744333Y-87410761D01*
X185744333Y-87267904D01*
X185791952Y-87172666D01*
X185839571Y-87125047D01*
X185934809Y-87077428D01*
X186172904Y-87077428D01*
X186268142Y-87125047D01*
X186315761Y-87172666D01*
X186363380Y-87267904D01*
X186363380Y-87553619D01*
X186315761Y-87648857D01*
X186268142Y-87696476D01*
X185458619Y-86696476D02*
X185411000Y-86648857D01*
X185363380Y-86553619D01*
X185363380Y-86315523D01*
X185411000Y-86220285D01*
X185458619Y-86172666D01*
X185553857Y-86125047D01*
X185649095Y-86125047D01*
X185791952Y-86172666D01*
X186363380Y-86744095D01*
X186363380Y-86125047D01*
X185982428Y-85696476D02*
X185982428Y-84934571D01*
X185363380Y-84553619D02*
X186363380Y-84315523D01*
X185649095Y-84125047D01*
X186363380Y-83934571D01*
X185363380Y-83696476D01*
X186363380Y-82744095D02*
X185887190Y-83077428D01*
X186363380Y-83315523D02*
X185363380Y-83315523D01*
X185363380Y-82934571D01*
X185411000Y-82839333D01*
X185458619Y-82791714D01*
X185553857Y-82744095D01*
X185696714Y-82744095D01*
X185791952Y-82791714D01*
X185839571Y-82839333D01*
X185887190Y-82934571D01*
X185887190Y-83315523D01*
X185363380Y-82125047D02*
X185363380Y-81934571D01*
X185411000Y-81839333D01*
X185506238Y-81744095D01*
X185696714Y-81696476D01*
X186030047Y-81696476D01*
X186220523Y-81744095D01*
X186315761Y-81839333D01*
X186363380Y-81934571D01*
X186363380Y-82125047D01*
X186315761Y-82220285D01*
X186220523Y-82315523D01*
X186030047Y-82363142D01*
X185696714Y-82363142D01*
X185506238Y-82315523D01*
X185411000Y-82220285D01*
X185363380Y-82125047D01*
X185363380Y-81077428D02*
X185363380Y-80886952D01*
X185411000Y-80791714D01*
X185506238Y-80696476D01*
X185696714Y-80648857D01*
X186030047Y-80648857D01*
X186220523Y-80696476D01*
X186315761Y-80791714D01*
X186363380Y-80886952D01*
X186363380Y-81077428D01*
X186315761Y-81172666D01*
X186220523Y-81267904D01*
X186030047Y-81315523D01*
X185696714Y-81315523D01*
X185506238Y-81267904D01*
X185411000Y-81172666D01*
X185363380Y-81077428D01*
X186363380Y-80220285D02*
X185363380Y-80220285D01*
X186077666Y-79886952D01*
X185363380Y-79553619D01*
X186363380Y-79553619D01*
X73413666Y-134727380D02*
X73413666Y-135441666D01*
X73366047Y-135584523D01*
X73270809Y-135679761D01*
X73127952Y-135727380D01*
X73032714Y-135727380D01*
X73842238Y-134822619D02*
X73889857Y-134775000D01*
X73985095Y-134727380D01*
X74223190Y-134727380D01*
X74318428Y-134775000D01*
X74366047Y-134822619D01*
X74413666Y-134917857D01*
X74413666Y-135013095D01*
X74366047Y-135155952D01*
X73794619Y-135727380D01*
X74413666Y-135727380D01*
X139961666Y-134727380D02*
X139961666Y-135441666D01*
X139914047Y-135584523D01*
X139818809Y-135679761D01*
X139675952Y-135727380D01*
X139580714Y-135727380D01*
X140866428Y-134727380D02*
X140675952Y-134727380D01*
X140580714Y-134775000D01*
X140533095Y-134822619D01*
X140437857Y-134965476D01*
X140390238Y-135155952D01*
X140390238Y-135536904D01*
X140437857Y-135632142D01*
X140485476Y-135679761D01*
X140580714Y-135727380D01*
X140771190Y-135727380D01*
X140866428Y-135679761D01*
X140914047Y-135632142D01*
X140961666Y-135536904D01*
X140961666Y-135298809D01*
X140914047Y-135203571D01*
X140866428Y-135155952D01*
X140771190Y-135108333D01*
X140580714Y-135108333D01*
X140485476Y-135155952D01*
X140437857Y-135203571D01*
X140390238Y-135298809D01*
X163071571Y-127923333D02*
X163071571Y-128256666D01*
X163595380Y-128256666D02*
X162595380Y-128256666D01*
X162595380Y-127780476D01*
X163595380Y-126875714D02*
X163595380Y-127447142D01*
X163595380Y-127161428D02*
X162595380Y-127161428D01*
X162738238Y-127256666D01*
X162833476Y-127351904D01*
X162881095Y-127447142D01*
X202009476Y-139660380D02*
X202009476Y-140374666D01*
X201961857Y-140517523D01*
X201866619Y-140612761D01*
X201723761Y-140660380D01*
X201628523Y-140660380D01*
X203009476Y-140660380D02*
X202438047Y-140660380D01*
X202723761Y-140660380D02*
X202723761Y-139660380D01*
X202628523Y-139803238D01*
X202533285Y-139898476D01*
X202438047Y-139946095D01*
X203866619Y-139993714D02*
X203866619Y-140660380D01*
X203628523Y-139612761D02*
X203390428Y-140327047D01*
X204009476Y-140327047D01*
X193118333Y-137230380D02*
X192785000Y-136754190D01*
X192546904Y-137230380D02*
X192546904Y-136230380D01*
X192927857Y-136230380D01*
X193023095Y-136278000D01*
X193070714Y-136325619D01*
X193118333Y-136420857D01*
X193118333Y-136563714D01*
X193070714Y-136658952D01*
X193023095Y-136706571D01*
X192927857Y-136754190D01*
X192546904Y-136754190D01*
X193975476Y-136563714D02*
X193975476Y-137230380D01*
X193737380Y-136182761D02*
X193499285Y-136897047D01*
X194118333Y-136897047D01*
X168409666Y-134727380D02*
X168409666Y-135441666D01*
X168362047Y-135584523D01*
X168266809Y-135679761D01*
X168123952Y-135727380D01*
X168028714Y-135727380D01*
X169028714Y-135155952D02*
X168933476Y-135108333D01*
X168885857Y-135060714D01*
X168838238Y-134965476D01*
X168838238Y-134917857D01*
X168885857Y-134822619D01*
X168933476Y-134775000D01*
X169028714Y-134727380D01*
X169219190Y-134727380D01*
X169314428Y-134775000D01*
X169362047Y-134822619D01*
X169409666Y-134917857D01*
X169409666Y-134965476D01*
X169362047Y-135060714D01*
X169314428Y-135108333D01*
X169219190Y-135155952D01*
X169028714Y-135155952D01*
X168933476Y-135203571D01*
X168885857Y-135251190D01*
X168838238Y-135346428D01*
X168838238Y-135536904D01*
X168885857Y-135632142D01*
X168933476Y-135679761D01*
X169028714Y-135727380D01*
X169219190Y-135727380D01*
X169314428Y-135679761D01*
X169362047Y-135632142D01*
X169409666Y-135536904D01*
X169409666Y-135346428D01*
X169362047Y-135251190D01*
X169314428Y-135203571D01*
X169219190Y-135155952D01*
X169996380Y-82471666D02*
X169520190Y-82805000D01*
X169996380Y-83043095D02*
X168996380Y-83043095D01*
X168996380Y-82662142D01*
X169044000Y-82566904D01*
X169091619Y-82519285D01*
X169186857Y-82471666D01*
X169329714Y-82471666D01*
X169424952Y-82519285D01*
X169472571Y-82566904D01*
X169520190Y-82662142D01*
X169520190Y-83043095D01*
X168996380Y-81566904D02*
X168996380Y-82043095D01*
X169472571Y-82090714D01*
X169424952Y-82043095D01*
X169377333Y-81947857D01*
X169377333Y-81709761D01*
X169424952Y-81614523D01*
X169472571Y-81566904D01*
X169567809Y-81519285D01*
X169805904Y-81519285D01*
X169901142Y-81566904D01*
X169948761Y-81614523D01*
X169996380Y-81709761D01*
X169996380Y-81947857D01*
X169948761Y-82043095D01*
X169901142Y-82090714D01*
X195159333Y-105245380D02*
X194826000Y-104769190D01*
X194587904Y-105245380D02*
X194587904Y-104245380D01*
X194968857Y-104245380D01*
X195064095Y-104293000D01*
X195111714Y-104340619D01*
X195159333Y-104435857D01*
X195159333Y-104578714D01*
X195111714Y-104673952D01*
X195064095Y-104721571D01*
X194968857Y-104769190D01*
X194587904Y-104769190D01*
X196016476Y-104245380D02*
X195826000Y-104245380D01*
X195730761Y-104293000D01*
X195683142Y-104340619D01*
X195587904Y-104483476D01*
X195540285Y-104673952D01*
X195540285Y-105054904D01*
X195587904Y-105150142D01*
X195635523Y-105197761D01*
X195730761Y-105245380D01*
X195921238Y-105245380D01*
X196016476Y-105197761D01*
X196064095Y-105150142D01*
X196111714Y-105054904D01*
X196111714Y-104816809D01*
X196064095Y-104721571D01*
X196016476Y-104673952D01*
X195921238Y-104626333D01*
X195730761Y-104626333D01*
X195635523Y-104673952D01*
X195587904Y-104721571D01*
X195540285Y-104816809D01*
X202009476Y-87546380D02*
X202009476Y-88260666D01*
X201961857Y-88403523D01*
X201866619Y-88498761D01*
X201723761Y-88546380D01*
X201628523Y-88546380D01*
X203009476Y-88546380D02*
X202438047Y-88546380D01*
X202723761Y-88546380D02*
X202723761Y-87546380D01*
X202628523Y-87689238D01*
X202533285Y-87784476D01*
X202438047Y-87832095D01*
X203628523Y-87546380D02*
X203723761Y-87546380D01*
X203819000Y-87594000D01*
X203866619Y-87641619D01*
X203914238Y-87736857D01*
X203961857Y-87927333D01*
X203961857Y-88165428D01*
X203914238Y-88355904D01*
X203866619Y-88451142D01*
X203819000Y-88498761D01*
X203723761Y-88546380D01*
X203628523Y-88546380D01*
X203533285Y-88498761D01*
X203485666Y-88451142D01*
X203438047Y-88355904D01*
X203390428Y-88165428D01*
X203390428Y-87927333D01*
X203438047Y-87736857D01*
X203485666Y-87641619D01*
X203533285Y-87594000D01*
X203628523Y-87546380D01*
M02*
