%TF.GenerationSoftware,KiCad,Pcbnew,(6.0.0-rc1-dev-714-g3024ded91)*%
%TF.CreationDate,2018-10-09T21:15:08+01:00*%
%TF.ProjectId,AquaHub,417175614875622E6B696361645F7063,rev?*%
%TF.SameCoordinates,Original*%
%TF.FileFunction,Copper,L1,Top,Signal*%
%TF.FilePolarity,Positive*%
%FSLAX46Y46*%
G04 Gerber Fmt 4.6, Leading zero omitted, Abs format (unit mm)*
G04 Created by KiCad (PCBNEW (6.0.0-rc1-dev-714-g3024ded91)) date 10/09/18 21:15:08*
%MOMM*%
%LPD*%
G01*
G04 APERTURE LIST*
%ADD10C,0.080000*%
%ADD11C,0.200000*%
%ADD12C,2.200000*%
%ADD13C,2.500000*%
%ADD14R,2.500000X2.500000*%
%ADD15R,1.000000X0.500000*%
%ADD16R,0.500000X1.300000*%
%ADD17O,1.700000X1.700000*%
%ADD18R,1.700000X1.700000*%
%ADD19C,2.600000*%
%ADD20R,2.600000X2.600000*%
%ADD21O,1.070000X1.800000*%
%ADD22R,1.070000X1.800000*%
%ADD23O,1.727200X1.727200*%
%ADD24R,1.727200X1.727200*%
%ADD25R,1.600000X3.000000*%
%ADD26C,0.150000*%
%ADD27C,1.500000*%
%ADD28C,1.800000*%
%ADD29R,6.400000X5.800000*%
%ADD30R,2.200000X1.200000*%
%ADD31R,0.600000X1.550000*%
%ADD32R,1.500000X0.600000*%
%ADD33C,1.150000*%
%ADD34R,1.600000X3.500000*%
%ADD35C,2.800000*%
%ADD36R,0.900000X0.800000*%
%ADD37C,2.780000*%
%ADD38C,0.950000*%
%ADD39C,2.000000*%
%ADD40R,2.000000X2.000000*%
%ADD41O,2.500000X0.900000*%
%ADD42O,0.900000X2.500000*%
%ADD43R,6.000000X6.000000*%
%ADD44R,0.600000X0.500000*%
%ADD45C,1.000000*%
%ADD46C,0.152400*%
%ADD47C,2.000000*%
%ADD48C,0.350000*%
G04 APERTURE END LIST*
D10*
X55880000Y-104140000D02*
X55880000Y-102870000D01*
X66040000Y-104140000D02*
X55880000Y-104140000D01*
X66040000Y-102870000D02*
X66040000Y-104140000D01*
X55880000Y-102870000D02*
X66040000Y-102870000D01*
D11*
X50800000Y-102870000D02*
X47879000Y-102870000D01*
X50800000Y-106045000D02*
X50800000Y-102870000D01*
X146050000Y-115570000D02*
X146050000Y-118110000D01*
X140680000Y-77590000D02*
X140680000Y-75590000D01*
X148180000Y-75590000D02*
X148180000Y-77590000D01*
X148180000Y-77590000D02*
X208180000Y-77590000D01*
X208180000Y-75590000D02*
X148180000Y-75590000D01*
X208180000Y-53590000D02*
X208180000Y-75590000D01*
X38180000Y-53590000D02*
X208180000Y-53590000D01*
X38180000Y-75590000D02*
X38180000Y-53590000D01*
X140680000Y-75590000D02*
X38180000Y-75590000D01*
X48006000Y-118364000D02*
X47879000Y-102870000D01*
X146050000Y-118110000D02*
X48006000Y-118364000D01*
X50800000Y-115570000D02*
X146050000Y-115570000D01*
X50800000Y-106045000D02*
X50800000Y-115570000D01*
X38180000Y-153590000D02*
X208180000Y-153590000D01*
X38180000Y-77590000D02*
X38180000Y-153590000D01*
X140680000Y-77590000D02*
X38180000Y-77590000D01*
X208180000Y-77590000D02*
X208180000Y-153590000D01*
D12*
X112700000Y-72100000D03*
X117700000Y-72100000D03*
X112700000Y-67100000D03*
X117700000Y-67100000D03*
X82700000Y-72100000D03*
X87700000Y-72100000D03*
X82700000Y-67100000D03*
X87700000Y-67100000D03*
D13*
X136525000Y-133350000D03*
X136525000Y-128350000D03*
X136525000Y-108350000D03*
X144025000Y-108350000D03*
X144025000Y-128350000D03*
D14*
X144025000Y-133350000D03*
D13*
X53460000Y-133350000D03*
X53460000Y-128350000D03*
X53460000Y-108350000D03*
X60960000Y-108350000D03*
X60960000Y-128350000D03*
D14*
X60960000Y-133350000D03*
D15*
X144183500Y-95969000D03*
X148083500Y-95969000D03*
D16*
X147383500Y-97069000D03*
X146583500Y-97069000D03*
X145783500Y-97069000D03*
X144983500Y-97069000D03*
X144983500Y-94869000D03*
X145783500Y-94869000D03*
X146583500Y-94869000D03*
X147383500Y-94869000D03*
D17*
X202819000Y-125603000D03*
X202819000Y-123063000D03*
D18*
X202819000Y-120523000D03*
D19*
X171243000Y-140335000D03*
D20*
X166243000Y-140335000D03*
D19*
X142795000Y-140335000D03*
D20*
X137795000Y-140335000D03*
D19*
X76247000Y-140335000D03*
D20*
X71247000Y-140335000D03*
D19*
X59610000Y-140335000D03*
D20*
X54610000Y-140335000D03*
D19*
X126158000Y-140335000D03*
D20*
X121158000Y-140335000D03*
D19*
X109521000Y-140335000D03*
D20*
X104521000Y-140335000D03*
D19*
X92884000Y-140335000D03*
D20*
X87884000Y-140335000D03*
D17*
X195580000Y-97663000D03*
D18*
X195580000Y-95123000D03*
D21*
X131990000Y-59590000D03*
X130720000Y-59590000D03*
X129450000Y-59590000D03*
D22*
X128180000Y-59590000D03*
D23*
X144780000Y-84328000D03*
X144780000Y-81788000D03*
X147320000Y-84328000D03*
X147320000Y-81788000D03*
X149860000Y-84328000D03*
D24*
X149860000Y-81788000D03*
D25*
X116840000Y-86405000D03*
X116840000Y-90805000D03*
D26*
G36*
X162620504Y-79059204D02*
X162644773Y-79062804D01*
X162668571Y-79068765D01*
X162691671Y-79077030D01*
X162713849Y-79087520D01*
X162734893Y-79100133D01*
X162754598Y-79114747D01*
X162772777Y-79131223D01*
X162789253Y-79149402D01*
X162803867Y-79169107D01*
X162816480Y-79190151D01*
X162826970Y-79212329D01*
X162835235Y-79235429D01*
X162841196Y-79259227D01*
X162844796Y-79283496D01*
X162846000Y-79308000D01*
X162846000Y-80308000D01*
X162844796Y-80332504D01*
X162841196Y-80356773D01*
X162835235Y-80380571D01*
X162826970Y-80403671D01*
X162816480Y-80425849D01*
X162803867Y-80446893D01*
X162789253Y-80466598D01*
X162772777Y-80484777D01*
X162754598Y-80501253D01*
X162734893Y-80515867D01*
X162713849Y-80528480D01*
X162691671Y-80538970D01*
X162668571Y-80547235D01*
X162644773Y-80553196D01*
X162620504Y-80556796D01*
X162596000Y-80558000D01*
X160746000Y-80558000D01*
X160721496Y-80556796D01*
X160697227Y-80553196D01*
X160673429Y-80547235D01*
X160650329Y-80538970D01*
X160628151Y-80528480D01*
X160607107Y-80515867D01*
X160587402Y-80501253D01*
X160569223Y-80484777D01*
X160552747Y-80466598D01*
X160538133Y-80446893D01*
X160525520Y-80425849D01*
X160515030Y-80403671D01*
X160506765Y-80380571D01*
X160500804Y-80356773D01*
X160497204Y-80332504D01*
X160496000Y-80308000D01*
X160496000Y-79308000D01*
X160497204Y-79283496D01*
X160500804Y-79259227D01*
X160506765Y-79235429D01*
X160515030Y-79212329D01*
X160525520Y-79190151D01*
X160538133Y-79169107D01*
X160552747Y-79149402D01*
X160569223Y-79131223D01*
X160587402Y-79114747D01*
X160607107Y-79100133D01*
X160628151Y-79087520D01*
X160650329Y-79077030D01*
X160673429Y-79068765D01*
X160697227Y-79062804D01*
X160721496Y-79059204D01*
X160746000Y-79058000D01*
X162596000Y-79058000D01*
X162620504Y-79059204D01*
X162620504Y-79059204D01*
G37*
D27*
X161671000Y-79808000D03*
D26*
G36*
X162620504Y-82309204D02*
X162644773Y-82312804D01*
X162668571Y-82318765D01*
X162691671Y-82327030D01*
X162713849Y-82337520D01*
X162734893Y-82350133D01*
X162754598Y-82364747D01*
X162772777Y-82381223D01*
X162789253Y-82399402D01*
X162803867Y-82419107D01*
X162816480Y-82440151D01*
X162826970Y-82462329D01*
X162835235Y-82485429D01*
X162841196Y-82509227D01*
X162844796Y-82533496D01*
X162846000Y-82558000D01*
X162846000Y-83558000D01*
X162844796Y-83582504D01*
X162841196Y-83606773D01*
X162835235Y-83630571D01*
X162826970Y-83653671D01*
X162816480Y-83675849D01*
X162803867Y-83696893D01*
X162789253Y-83716598D01*
X162772777Y-83734777D01*
X162754598Y-83751253D01*
X162734893Y-83765867D01*
X162713849Y-83778480D01*
X162691671Y-83788970D01*
X162668571Y-83797235D01*
X162644773Y-83803196D01*
X162620504Y-83806796D01*
X162596000Y-83808000D01*
X160746000Y-83808000D01*
X160721496Y-83806796D01*
X160697227Y-83803196D01*
X160673429Y-83797235D01*
X160650329Y-83788970D01*
X160628151Y-83778480D01*
X160607107Y-83765867D01*
X160587402Y-83751253D01*
X160569223Y-83734777D01*
X160552747Y-83716598D01*
X160538133Y-83696893D01*
X160525520Y-83675849D01*
X160515030Y-83653671D01*
X160506765Y-83630571D01*
X160500804Y-83606773D01*
X160497204Y-83582504D01*
X160496000Y-83558000D01*
X160496000Y-82558000D01*
X160497204Y-82533496D01*
X160500804Y-82509227D01*
X160506765Y-82485429D01*
X160515030Y-82462329D01*
X160525520Y-82440151D01*
X160538133Y-82419107D01*
X160552747Y-82399402D01*
X160569223Y-82381223D01*
X160587402Y-82364747D01*
X160607107Y-82350133D01*
X160628151Y-82337520D01*
X160650329Y-82327030D01*
X160673429Y-82318765D01*
X160697227Y-82312804D01*
X160721496Y-82309204D01*
X160746000Y-82308000D01*
X162596000Y-82308000D01*
X162620504Y-82309204D01*
X162620504Y-82309204D01*
G37*
D27*
X161671000Y-83058000D03*
D28*
X49805000Y-99575000D03*
X52705000Y-92075000D03*
D29*
X109855000Y-99695000D03*
D30*
X103555000Y-101975000D03*
X103555000Y-99695000D03*
X103555000Y-97415000D03*
D17*
X202819000Y-114427000D03*
X202819000Y-111887000D03*
D18*
X202819000Y-109347000D03*
D31*
X153932979Y-117809195D03*
X155202979Y-117809195D03*
X156472979Y-117809195D03*
X157742979Y-117809195D03*
X157742979Y-123209195D03*
X156472979Y-123209195D03*
X155202979Y-123209195D03*
X153932979Y-123209195D03*
D32*
X159004000Y-100330000D03*
X159004000Y-99060000D03*
X159004000Y-97790000D03*
X159004000Y-96520000D03*
X159004000Y-95250000D03*
X159004000Y-93980000D03*
X159004000Y-92710000D03*
X159004000Y-91440000D03*
X164404000Y-91440000D03*
X164404000Y-92710000D03*
X164404000Y-93980000D03*
X164404000Y-95250000D03*
X164404000Y-96520000D03*
X164404000Y-97790000D03*
X164404000Y-99060000D03*
X164404000Y-100330000D03*
D26*
G36*
X158843505Y-80434204D02*
X158867773Y-80437804D01*
X158891572Y-80443765D01*
X158914671Y-80452030D01*
X158936850Y-80462520D01*
X158957893Y-80475132D01*
X158977599Y-80489747D01*
X158995777Y-80506223D01*
X159012253Y-80524401D01*
X159026868Y-80544107D01*
X159039480Y-80565150D01*
X159049970Y-80587329D01*
X159058235Y-80610428D01*
X159064196Y-80634227D01*
X159067796Y-80658495D01*
X159069000Y-80682999D01*
X159069000Y-81333001D01*
X159067796Y-81357505D01*
X159064196Y-81381773D01*
X159058235Y-81405572D01*
X159049970Y-81428671D01*
X159039480Y-81450850D01*
X159026868Y-81471893D01*
X159012253Y-81491599D01*
X158995777Y-81509777D01*
X158977599Y-81526253D01*
X158957893Y-81540868D01*
X158936850Y-81553480D01*
X158914671Y-81563970D01*
X158891572Y-81572235D01*
X158867773Y-81578196D01*
X158843505Y-81581796D01*
X158819001Y-81583000D01*
X157918999Y-81583000D01*
X157894495Y-81581796D01*
X157870227Y-81578196D01*
X157846428Y-81572235D01*
X157823329Y-81563970D01*
X157801150Y-81553480D01*
X157780107Y-81540868D01*
X157760401Y-81526253D01*
X157742223Y-81509777D01*
X157725747Y-81491599D01*
X157711132Y-81471893D01*
X157698520Y-81450850D01*
X157688030Y-81428671D01*
X157679765Y-81405572D01*
X157673804Y-81381773D01*
X157670204Y-81357505D01*
X157669000Y-81333001D01*
X157669000Y-80682999D01*
X157670204Y-80658495D01*
X157673804Y-80634227D01*
X157679765Y-80610428D01*
X157688030Y-80587329D01*
X157698520Y-80565150D01*
X157711132Y-80544107D01*
X157725747Y-80524401D01*
X157742223Y-80506223D01*
X157760401Y-80489747D01*
X157780107Y-80475132D01*
X157801150Y-80462520D01*
X157823329Y-80452030D01*
X157846428Y-80443765D01*
X157870227Y-80437804D01*
X157894495Y-80434204D01*
X157918999Y-80433000D01*
X158819001Y-80433000D01*
X158843505Y-80434204D01*
X158843505Y-80434204D01*
G37*
D33*
X158369000Y-81008000D03*
D26*
G36*
X158843505Y-82484204D02*
X158867773Y-82487804D01*
X158891572Y-82493765D01*
X158914671Y-82502030D01*
X158936850Y-82512520D01*
X158957893Y-82525132D01*
X158977599Y-82539747D01*
X158995777Y-82556223D01*
X159012253Y-82574401D01*
X159026868Y-82594107D01*
X159039480Y-82615150D01*
X159049970Y-82637329D01*
X159058235Y-82660428D01*
X159064196Y-82684227D01*
X159067796Y-82708495D01*
X159069000Y-82732999D01*
X159069000Y-83383001D01*
X159067796Y-83407505D01*
X159064196Y-83431773D01*
X159058235Y-83455572D01*
X159049970Y-83478671D01*
X159039480Y-83500850D01*
X159026868Y-83521893D01*
X159012253Y-83541599D01*
X158995777Y-83559777D01*
X158977599Y-83576253D01*
X158957893Y-83590868D01*
X158936850Y-83603480D01*
X158914671Y-83613970D01*
X158891572Y-83622235D01*
X158867773Y-83628196D01*
X158843505Y-83631796D01*
X158819001Y-83633000D01*
X157918999Y-83633000D01*
X157894495Y-83631796D01*
X157870227Y-83628196D01*
X157846428Y-83622235D01*
X157823329Y-83613970D01*
X157801150Y-83603480D01*
X157780107Y-83590868D01*
X157760401Y-83576253D01*
X157742223Y-83559777D01*
X157725747Y-83541599D01*
X157711132Y-83521893D01*
X157698520Y-83500850D01*
X157688030Y-83478671D01*
X157679765Y-83455572D01*
X157673804Y-83431773D01*
X157670204Y-83407505D01*
X157669000Y-83383001D01*
X157669000Y-82732999D01*
X157670204Y-82708495D01*
X157673804Y-82684227D01*
X157679765Y-82660428D01*
X157688030Y-82637329D01*
X157698520Y-82615150D01*
X157711132Y-82594107D01*
X157725747Y-82574401D01*
X157742223Y-82556223D01*
X157760401Y-82539747D01*
X157780107Y-82525132D01*
X157801150Y-82512520D01*
X157823329Y-82502030D01*
X157846428Y-82493765D01*
X157870227Y-82487804D01*
X157894495Y-82484204D01*
X157918999Y-82483000D01*
X158819001Y-82483000D01*
X158843505Y-82484204D01*
X158843505Y-82484204D01*
G37*
D33*
X158369000Y-83058000D03*
D21*
X116990000Y-59590000D03*
X115720000Y-59590000D03*
X114450000Y-59590000D03*
D22*
X113180000Y-59590000D03*
D21*
X101990000Y-59590000D03*
X100720000Y-59590000D03*
X99450000Y-59590000D03*
D22*
X98180000Y-59590000D03*
D21*
X86990000Y-59590000D03*
X85720000Y-59590000D03*
X84450000Y-59590000D03*
D22*
X83180000Y-59590000D03*
D21*
X71990000Y-59590000D03*
X70720000Y-59590000D03*
X69450000Y-59590000D03*
D22*
X68180000Y-59590000D03*
D21*
X56990000Y-59590000D03*
X55720000Y-59590000D03*
X54450000Y-59590000D03*
D22*
X53180000Y-59590000D03*
D34*
X97790000Y-85725000D03*
X97790000Y-91125000D03*
X97790000Y-97155000D03*
X97790000Y-102555000D03*
D25*
X116840000Y-97835000D03*
X116840000Y-102235000D03*
D29*
X109855000Y-88645000D03*
D30*
X103555000Y-90925000D03*
X103555000Y-88645000D03*
X103555000Y-86365000D03*
D35*
X123825000Y-95885000D03*
X123825000Y-91440000D03*
X123825000Y-86995000D03*
X123825000Y-100330000D03*
D17*
X202819000Y-103124000D03*
X202819000Y-100584000D03*
X202819000Y-98044000D03*
X202819000Y-95504000D03*
X202819000Y-92964000D03*
D18*
X202819000Y-90424000D03*
D21*
X156990000Y-59590000D03*
X155720000Y-59590000D03*
X154450000Y-59590000D03*
D22*
X153180000Y-59590000D03*
D36*
X177070000Y-107254000D03*
X179070000Y-106304000D03*
X179070000Y-108204000D03*
D37*
X166780000Y-130175000D03*
X170180000Y-130175000D03*
X166780000Y-120255000D03*
X170180000Y-120255000D03*
D26*
G36*
X154874779Y-108746144D02*
X154897834Y-108749563D01*
X154920443Y-108755227D01*
X154942387Y-108763079D01*
X154963457Y-108773044D01*
X154983448Y-108785026D01*
X155002168Y-108798910D01*
X155019438Y-108814562D01*
X155035090Y-108831832D01*
X155048974Y-108850552D01*
X155060956Y-108870543D01*
X155070921Y-108891613D01*
X155078773Y-108913557D01*
X155084437Y-108936166D01*
X155087856Y-108959221D01*
X155089000Y-108982500D01*
X155089000Y-109457500D01*
X155087856Y-109480779D01*
X155084437Y-109503834D01*
X155078773Y-109526443D01*
X155070921Y-109548387D01*
X155060956Y-109569457D01*
X155048974Y-109589448D01*
X155035090Y-109608168D01*
X155019438Y-109625438D01*
X155002168Y-109641090D01*
X154983448Y-109654974D01*
X154963457Y-109666956D01*
X154942387Y-109676921D01*
X154920443Y-109684773D01*
X154897834Y-109690437D01*
X154874779Y-109693856D01*
X154851500Y-109695000D01*
X154276500Y-109695000D01*
X154253221Y-109693856D01*
X154230166Y-109690437D01*
X154207557Y-109684773D01*
X154185613Y-109676921D01*
X154164543Y-109666956D01*
X154144552Y-109654974D01*
X154125832Y-109641090D01*
X154108562Y-109625438D01*
X154092910Y-109608168D01*
X154079026Y-109589448D01*
X154067044Y-109569457D01*
X154057079Y-109548387D01*
X154049227Y-109526443D01*
X154043563Y-109503834D01*
X154040144Y-109480779D01*
X154039000Y-109457500D01*
X154039000Y-108982500D01*
X154040144Y-108959221D01*
X154043563Y-108936166D01*
X154049227Y-108913557D01*
X154057079Y-108891613D01*
X154067044Y-108870543D01*
X154079026Y-108850552D01*
X154092910Y-108831832D01*
X154108562Y-108814562D01*
X154125832Y-108798910D01*
X154144552Y-108785026D01*
X154164543Y-108773044D01*
X154185613Y-108763079D01*
X154207557Y-108755227D01*
X154230166Y-108749563D01*
X154253221Y-108746144D01*
X154276500Y-108745000D01*
X154851500Y-108745000D01*
X154874779Y-108746144D01*
X154874779Y-108746144D01*
G37*
D38*
X154564000Y-109220000D03*
D26*
G36*
X156624779Y-108746144D02*
X156647834Y-108749563D01*
X156670443Y-108755227D01*
X156692387Y-108763079D01*
X156713457Y-108773044D01*
X156733448Y-108785026D01*
X156752168Y-108798910D01*
X156769438Y-108814562D01*
X156785090Y-108831832D01*
X156798974Y-108850552D01*
X156810956Y-108870543D01*
X156820921Y-108891613D01*
X156828773Y-108913557D01*
X156834437Y-108936166D01*
X156837856Y-108959221D01*
X156839000Y-108982500D01*
X156839000Y-109457500D01*
X156837856Y-109480779D01*
X156834437Y-109503834D01*
X156828773Y-109526443D01*
X156820921Y-109548387D01*
X156810956Y-109569457D01*
X156798974Y-109589448D01*
X156785090Y-109608168D01*
X156769438Y-109625438D01*
X156752168Y-109641090D01*
X156733448Y-109654974D01*
X156713457Y-109666956D01*
X156692387Y-109676921D01*
X156670443Y-109684773D01*
X156647834Y-109690437D01*
X156624779Y-109693856D01*
X156601500Y-109695000D01*
X156026500Y-109695000D01*
X156003221Y-109693856D01*
X155980166Y-109690437D01*
X155957557Y-109684773D01*
X155935613Y-109676921D01*
X155914543Y-109666956D01*
X155894552Y-109654974D01*
X155875832Y-109641090D01*
X155858562Y-109625438D01*
X155842910Y-109608168D01*
X155829026Y-109589448D01*
X155817044Y-109569457D01*
X155807079Y-109548387D01*
X155799227Y-109526443D01*
X155793563Y-109503834D01*
X155790144Y-109480779D01*
X155789000Y-109457500D01*
X155789000Y-108982500D01*
X155790144Y-108959221D01*
X155793563Y-108936166D01*
X155799227Y-108913557D01*
X155807079Y-108891613D01*
X155817044Y-108870543D01*
X155829026Y-108850552D01*
X155842910Y-108831832D01*
X155858562Y-108814562D01*
X155875832Y-108798910D01*
X155894552Y-108785026D01*
X155914543Y-108773044D01*
X155935613Y-108763079D01*
X155957557Y-108755227D01*
X155980166Y-108749563D01*
X156003221Y-108746144D01*
X156026500Y-108745000D01*
X156601500Y-108745000D01*
X156624779Y-108746144D01*
X156624779Y-108746144D01*
G37*
D38*
X156314000Y-109220000D03*
D26*
G36*
X156624779Y-113826144D02*
X156647834Y-113829563D01*
X156670443Y-113835227D01*
X156692387Y-113843079D01*
X156713457Y-113853044D01*
X156733448Y-113865026D01*
X156752168Y-113878910D01*
X156769438Y-113894562D01*
X156785090Y-113911832D01*
X156798974Y-113930552D01*
X156810956Y-113950543D01*
X156820921Y-113971613D01*
X156828773Y-113993557D01*
X156834437Y-114016166D01*
X156837856Y-114039221D01*
X156839000Y-114062500D01*
X156839000Y-114537500D01*
X156837856Y-114560779D01*
X156834437Y-114583834D01*
X156828773Y-114606443D01*
X156820921Y-114628387D01*
X156810956Y-114649457D01*
X156798974Y-114669448D01*
X156785090Y-114688168D01*
X156769438Y-114705438D01*
X156752168Y-114721090D01*
X156733448Y-114734974D01*
X156713457Y-114746956D01*
X156692387Y-114756921D01*
X156670443Y-114764773D01*
X156647834Y-114770437D01*
X156624779Y-114773856D01*
X156601500Y-114775000D01*
X156026500Y-114775000D01*
X156003221Y-114773856D01*
X155980166Y-114770437D01*
X155957557Y-114764773D01*
X155935613Y-114756921D01*
X155914543Y-114746956D01*
X155894552Y-114734974D01*
X155875832Y-114721090D01*
X155858562Y-114705438D01*
X155842910Y-114688168D01*
X155829026Y-114669448D01*
X155817044Y-114649457D01*
X155807079Y-114628387D01*
X155799227Y-114606443D01*
X155793563Y-114583834D01*
X155790144Y-114560779D01*
X155789000Y-114537500D01*
X155789000Y-114062500D01*
X155790144Y-114039221D01*
X155793563Y-114016166D01*
X155799227Y-113993557D01*
X155807079Y-113971613D01*
X155817044Y-113950543D01*
X155829026Y-113930552D01*
X155842910Y-113911832D01*
X155858562Y-113894562D01*
X155875832Y-113878910D01*
X155894552Y-113865026D01*
X155914543Y-113853044D01*
X155935613Y-113843079D01*
X155957557Y-113835227D01*
X155980166Y-113829563D01*
X156003221Y-113826144D01*
X156026500Y-113825000D01*
X156601500Y-113825000D01*
X156624779Y-113826144D01*
X156624779Y-113826144D01*
G37*
D38*
X156314000Y-114300000D03*
D26*
G36*
X154874779Y-113826144D02*
X154897834Y-113829563D01*
X154920443Y-113835227D01*
X154942387Y-113843079D01*
X154963457Y-113853044D01*
X154983448Y-113865026D01*
X155002168Y-113878910D01*
X155019438Y-113894562D01*
X155035090Y-113911832D01*
X155048974Y-113930552D01*
X155060956Y-113950543D01*
X155070921Y-113971613D01*
X155078773Y-113993557D01*
X155084437Y-114016166D01*
X155087856Y-114039221D01*
X155089000Y-114062500D01*
X155089000Y-114537500D01*
X155087856Y-114560779D01*
X155084437Y-114583834D01*
X155078773Y-114606443D01*
X155070921Y-114628387D01*
X155060956Y-114649457D01*
X155048974Y-114669448D01*
X155035090Y-114688168D01*
X155019438Y-114705438D01*
X155002168Y-114721090D01*
X154983448Y-114734974D01*
X154963457Y-114746956D01*
X154942387Y-114756921D01*
X154920443Y-114764773D01*
X154897834Y-114770437D01*
X154874779Y-114773856D01*
X154851500Y-114775000D01*
X154276500Y-114775000D01*
X154253221Y-114773856D01*
X154230166Y-114770437D01*
X154207557Y-114764773D01*
X154185613Y-114756921D01*
X154164543Y-114746956D01*
X154144552Y-114734974D01*
X154125832Y-114721090D01*
X154108562Y-114705438D01*
X154092910Y-114688168D01*
X154079026Y-114669448D01*
X154067044Y-114649457D01*
X154057079Y-114628387D01*
X154049227Y-114606443D01*
X154043563Y-114583834D01*
X154040144Y-114560779D01*
X154039000Y-114537500D01*
X154039000Y-114062500D01*
X154040144Y-114039221D01*
X154043563Y-114016166D01*
X154049227Y-113993557D01*
X154057079Y-113971613D01*
X154067044Y-113950543D01*
X154079026Y-113930552D01*
X154092910Y-113911832D01*
X154108562Y-113894562D01*
X154125832Y-113878910D01*
X154144552Y-113865026D01*
X154164543Y-113853044D01*
X154185613Y-113843079D01*
X154207557Y-113835227D01*
X154230166Y-113829563D01*
X154253221Y-113826144D01*
X154276500Y-113825000D01*
X154851500Y-113825000D01*
X154874779Y-113826144D01*
X154874779Y-113826144D01*
G37*
D38*
X154564000Y-114300000D03*
D26*
G36*
X150937779Y-90712144D02*
X150960834Y-90715563D01*
X150983443Y-90721227D01*
X151005387Y-90729079D01*
X151026457Y-90739044D01*
X151046448Y-90751026D01*
X151065168Y-90764910D01*
X151082438Y-90780562D01*
X151098090Y-90797832D01*
X151111974Y-90816552D01*
X151123956Y-90836543D01*
X151133921Y-90857613D01*
X151141773Y-90879557D01*
X151147437Y-90902166D01*
X151150856Y-90925221D01*
X151152000Y-90948500D01*
X151152000Y-91423500D01*
X151150856Y-91446779D01*
X151147437Y-91469834D01*
X151141773Y-91492443D01*
X151133921Y-91514387D01*
X151123956Y-91535457D01*
X151111974Y-91555448D01*
X151098090Y-91574168D01*
X151082438Y-91591438D01*
X151065168Y-91607090D01*
X151046448Y-91620974D01*
X151026457Y-91632956D01*
X151005387Y-91642921D01*
X150983443Y-91650773D01*
X150960834Y-91656437D01*
X150937779Y-91659856D01*
X150914500Y-91661000D01*
X150339500Y-91661000D01*
X150316221Y-91659856D01*
X150293166Y-91656437D01*
X150270557Y-91650773D01*
X150248613Y-91642921D01*
X150227543Y-91632956D01*
X150207552Y-91620974D01*
X150188832Y-91607090D01*
X150171562Y-91591438D01*
X150155910Y-91574168D01*
X150142026Y-91555448D01*
X150130044Y-91535457D01*
X150120079Y-91514387D01*
X150112227Y-91492443D01*
X150106563Y-91469834D01*
X150103144Y-91446779D01*
X150102000Y-91423500D01*
X150102000Y-90948500D01*
X150103144Y-90925221D01*
X150106563Y-90902166D01*
X150112227Y-90879557D01*
X150120079Y-90857613D01*
X150130044Y-90836543D01*
X150142026Y-90816552D01*
X150155910Y-90797832D01*
X150171562Y-90780562D01*
X150188832Y-90764910D01*
X150207552Y-90751026D01*
X150227543Y-90739044D01*
X150248613Y-90729079D01*
X150270557Y-90721227D01*
X150293166Y-90715563D01*
X150316221Y-90712144D01*
X150339500Y-90711000D01*
X150914500Y-90711000D01*
X150937779Y-90712144D01*
X150937779Y-90712144D01*
G37*
D38*
X150627000Y-91186000D03*
D26*
G36*
X152687779Y-90712144D02*
X152710834Y-90715563D01*
X152733443Y-90721227D01*
X152755387Y-90729079D01*
X152776457Y-90739044D01*
X152796448Y-90751026D01*
X152815168Y-90764910D01*
X152832438Y-90780562D01*
X152848090Y-90797832D01*
X152861974Y-90816552D01*
X152873956Y-90836543D01*
X152883921Y-90857613D01*
X152891773Y-90879557D01*
X152897437Y-90902166D01*
X152900856Y-90925221D01*
X152902000Y-90948500D01*
X152902000Y-91423500D01*
X152900856Y-91446779D01*
X152897437Y-91469834D01*
X152891773Y-91492443D01*
X152883921Y-91514387D01*
X152873956Y-91535457D01*
X152861974Y-91555448D01*
X152848090Y-91574168D01*
X152832438Y-91591438D01*
X152815168Y-91607090D01*
X152796448Y-91620974D01*
X152776457Y-91632956D01*
X152755387Y-91642921D01*
X152733443Y-91650773D01*
X152710834Y-91656437D01*
X152687779Y-91659856D01*
X152664500Y-91661000D01*
X152089500Y-91661000D01*
X152066221Y-91659856D01*
X152043166Y-91656437D01*
X152020557Y-91650773D01*
X151998613Y-91642921D01*
X151977543Y-91632956D01*
X151957552Y-91620974D01*
X151938832Y-91607090D01*
X151921562Y-91591438D01*
X151905910Y-91574168D01*
X151892026Y-91555448D01*
X151880044Y-91535457D01*
X151870079Y-91514387D01*
X151862227Y-91492443D01*
X151856563Y-91469834D01*
X151853144Y-91446779D01*
X151852000Y-91423500D01*
X151852000Y-90948500D01*
X151853144Y-90925221D01*
X151856563Y-90902166D01*
X151862227Y-90879557D01*
X151870079Y-90857613D01*
X151880044Y-90836543D01*
X151892026Y-90816552D01*
X151905910Y-90797832D01*
X151921562Y-90780562D01*
X151938832Y-90764910D01*
X151957552Y-90751026D01*
X151977543Y-90739044D01*
X151998613Y-90729079D01*
X152020557Y-90721227D01*
X152043166Y-90715563D01*
X152066221Y-90712144D01*
X152089500Y-90711000D01*
X152664500Y-90711000D01*
X152687779Y-90712144D01*
X152687779Y-90712144D01*
G37*
D38*
X152377000Y-91186000D03*
D26*
G36*
X150937779Y-92617144D02*
X150960834Y-92620563D01*
X150983443Y-92626227D01*
X151005387Y-92634079D01*
X151026457Y-92644044D01*
X151046448Y-92656026D01*
X151065168Y-92669910D01*
X151082438Y-92685562D01*
X151098090Y-92702832D01*
X151111974Y-92721552D01*
X151123956Y-92741543D01*
X151133921Y-92762613D01*
X151141773Y-92784557D01*
X151147437Y-92807166D01*
X151150856Y-92830221D01*
X151152000Y-92853500D01*
X151152000Y-93328500D01*
X151150856Y-93351779D01*
X151147437Y-93374834D01*
X151141773Y-93397443D01*
X151133921Y-93419387D01*
X151123956Y-93440457D01*
X151111974Y-93460448D01*
X151098090Y-93479168D01*
X151082438Y-93496438D01*
X151065168Y-93512090D01*
X151046448Y-93525974D01*
X151026457Y-93537956D01*
X151005387Y-93547921D01*
X150983443Y-93555773D01*
X150960834Y-93561437D01*
X150937779Y-93564856D01*
X150914500Y-93566000D01*
X150339500Y-93566000D01*
X150316221Y-93564856D01*
X150293166Y-93561437D01*
X150270557Y-93555773D01*
X150248613Y-93547921D01*
X150227543Y-93537956D01*
X150207552Y-93525974D01*
X150188832Y-93512090D01*
X150171562Y-93496438D01*
X150155910Y-93479168D01*
X150142026Y-93460448D01*
X150130044Y-93440457D01*
X150120079Y-93419387D01*
X150112227Y-93397443D01*
X150106563Y-93374834D01*
X150103144Y-93351779D01*
X150102000Y-93328500D01*
X150102000Y-92853500D01*
X150103144Y-92830221D01*
X150106563Y-92807166D01*
X150112227Y-92784557D01*
X150120079Y-92762613D01*
X150130044Y-92741543D01*
X150142026Y-92721552D01*
X150155910Y-92702832D01*
X150171562Y-92685562D01*
X150188832Y-92669910D01*
X150207552Y-92656026D01*
X150227543Y-92644044D01*
X150248613Y-92634079D01*
X150270557Y-92626227D01*
X150293166Y-92620563D01*
X150316221Y-92617144D01*
X150339500Y-92616000D01*
X150914500Y-92616000D01*
X150937779Y-92617144D01*
X150937779Y-92617144D01*
G37*
D38*
X150627000Y-93091000D03*
D26*
G36*
X152687779Y-92617144D02*
X152710834Y-92620563D01*
X152733443Y-92626227D01*
X152755387Y-92634079D01*
X152776457Y-92644044D01*
X152796448Y-92656026D01*
X152815168Y-92669910D01*
X152832438Y-92685562D01*
X152848090Y-92702832D01*
X152861974Y-92721552D01*
X152873956Y-92741543D01*
X152883921Y-92762613D01*
X152891773Y-92784557D01*
X152897437Y-92807166D01*
X152900856Y-92830221D01*
X152902000Y-92853500D01*
X152902000Y-93328500D01*
X152900856Y-93351779D01*
X152897437Y-93374834D01*
X152891773Y-93397443D01*
X152883921Y-93419387D01*
X152873956Y-93440457D01*
X152861974Y-93460448D01*
X152848090Y-93479168D01*
X152832438Y-93496438D01*
X152815168Y-93512090D01*
X152796448Y-93525974D01*
X152776457Y-93537956D01*
X152755387Y-93547921D01*
X152733443Y-93555773D01*
X152710834Y-93561437D01*
X152687779Y-93564856D01*
X152664500Y-93566000D01*
X152089500Y-93566000D01*
X152066221Y-93564856D01*
X152043166Y-93561437D01*
X152020557Y-93555773D01*
X151998613Y-93547921D01*
X151977543Y-93537956D01*
X151957552Y-93525974D01*
X151938832Y-93512090D01*
X151921562Y-93496438D01*
X151905910Y-93479168D01*
X151892026Y-93460448D01*
X151880044Y-93440457D01*
X151870079Y-93419387D01*
X151862227Y-93397443D01*
X151856563Y-93374834D01*
X151853144Y-93351779D01*
X151852000Y-93328500D01*
X151852000Y-92853500D01*
X151853144Y-92830221D01*
X151856563Y-92807166D01*
X151862227Y-92784557D01*
X151870079Y-92762613D01*
X151880044Y-92741543D01*
X151892026Y-92721552D01*
X151905910Y-92702832D01*
X151921562Y-92685562D01*
X151938832Y-92669910D01*
X151957552Y-92656026D01*
X151977543Y-92644044D01*
X151998613Y-92634079D01*
X152020557Y-92626227D01*
X152043166Y-92620563D01*
X152066221Y-92617144D01*
X152089500Y-92616000D01*
X152664500Y-92616000D01*
X152687779Y-92617144D01*
X152687779Y-92617144D01*
G37*
D38*
X152377000Y-93091000D03*
D26*
G36*
X150937779Y-94522144D02*
X150960834Y-94525563D01*
X150983443Y-94531227D01*
X151005387Y-94539079D01*
X151026457Y-94549044D01*
X151046448Y-94561026D01*
X151065168Y-94574910D01*
X151082438Y-94590562D01*
X151098090Y-94607832D01*
X151111974Y-94626552D01*
X151123956Y-94646543D01*
X151133921Y-94667613D01*
X151141773Y-94689557D01*
X151147437Y-94712166D01*
X151150856Y-94735221D01*
X151152000Y-94758500D01*
X151152000Y-95233500D01*
X151150856Y-95256779D01*
X151147437Y-95279834D01*
X151141773Y-95302443D01*
X151133921Y-95324387D01*
X151123956Y-95345457D01*
X151111974Y-95365448D01*
X151098090Y-95384168D01*
X151082438Y-95401438D01*
X151065168Y-95417090D01*
X151046448Y-95430974D01*
X151026457Y-95442956D01*
X151005387Y-95452921D01*
X150983443Y-95460773D01*
X150960834Y-95466437D01*
X150937779Y-95469856D01*
X150914500Y-95471000D01*
X150339500Y-95471000D01*
X150316221Y-95469856D01*
X150293166Y-95466437D01*
X150270557Y-95460773D01*
X150248613Y-95452921D01*
X150227543Y-95442956D01*
X150207552Y-95430974D01*
X150188832Y-95417090D01*
X150171562Y-95401438D01*
X150155910Y-95384168D01*
X150142026Y-95365448D01*
X150130044Y-95345457D01*
X150120079Y-95324387D01*
X150112227Y-95302443D01*
X150106563Y-95279834D01*
X150103144Y-95256779D01*
X150102000Y-95233500D01*
X150102000Y-94758500D01*
X150103144Y-94735221D01*
X150106563Y-94712166D01*
X150112227Y-94689557D01*
X150120079Y-94667613D01*
X150130044Y-94646543D01*
X150142026Y-94626552D01*
X150155910Y-94607832D01*
X150171562Y-94590562D01*
X150188832Y-94574910D01*
X150207552Y-94561026D01*
X150227543Y-94549044D01*
X150248613Y-94539079D01*
X150270557Y-94531227D01*
X150293166Y-94525563D01*
X150316221Y-94522144D01*
X150339500Y-94521000D01*
X150914500Y-94521000D01*
X150937779Y-94522144D01*
X150937779Y-94522144D01*
G37*
D38*
X150627000Y-94996000D03*
D26*
G36*
X152687779Y-94522144D02*
X152710834Y-94525563D01*
X152733443Y-94531227D01*
X152755387Y-94539079D01*
X152776457Y-94549044D01*
X152796448Y-94561026D01*
X152815168Y-94574910D01*
X152832438Y-94590562D01*
X152848090Y-94607832D01*
X152861974Y-94626552D01*
X152873956Y-94646543D01*
X152883921Y-94667613D01*
X152891773Y-94689557D01*
X152897437Y-94712166D01*
X152900856Y-94735221D01*
X152902000Y-94758500D01*
X152902000Y-95233500D01*
X152900856Y-95256779D01*
X152897437Y-95279834D01*
X152891773Y-95302443D01*
X152883921Y-95324387D01*
X152873956Y-95345457D01*
X152861974Y-95365448D01*
X152848090Y-95384168D01*
X152832438Y-95401438D01*
X152815168Y-95417090D01*
X152796448Y-95430974D01*
X152776457Y-95442956D01*
X152755387Y-95452921D01*
X152733443Y-95460773D01*
X152710834Y-95466437D01*
X152687779Y-95469856D01*
X152664500Y-95471000D01*
X152089500Y-95471000D01*
X152066221Y-95469856D01*
X152043166Y-95466437D01*
X152020557Y-95460773D01*
X151998613Y-95452921D01*
X151977543Y-95442956D01*
X151957552Y-95430974D01*
X151938832Y-95417090D01*
X151921562Y-95401438D01*
X151905910Y-95384168D01*
X151892026Y-95365448D01*
X151880044Y-95345457D01*
X151870079Y-95324387D01*
X151862227Y-95302443D01*
X151856563Y-95279834D01*
X151853144Y-95256779D01*
X151852000Y-95233500D01*
X151852000Y-94758500D01*
X151853144Y-94735221D01*
X151856563Y-94712166D01*
X151862227Y-94689557D01*
X151870079Y-94667613D01*
X151880044Y-94646543D01*
X151892026Y-94626552D01*
X151905910Y-94607832D01*
X151921562Y-94590562D01*
X151938832Y-94574910D01*
X151957552Y-94561026D01*
X151977543Y-94549044D01*
X151998613Y-94539079D01*
X152020557Y-94531227D01*
X152043166Y-94525563D01*
X152066221Y-94522144D01*
X152089500Y-94521000D01*
X152664500Y-94521000D01*
X152687779Y-94522144D01*
X152687779Y-94522144D01*
G37*
D38*
X152377000Y-94996000D03*
D26*
G36*
X150937779Y-96427144D02*
X150960834Y-96430563D01*
X150983443Y-96436227D01*
X151005387Y-96444079D01*
X151026457Y-96454044D01*
X151046448Y-96466026D01*
X151065168Y-96479910D01*
X151082438Y-96495562D01*
X151098090Y-96512832D01*
X151111974Y-96531552D01*
X151123956Y-96551543D01*
X151133921Y-96572613D01*
X151141773Y-96594557D01*
X151147437Y-96617166D01*
X151150856Y-96640221D01*
X151152000Y-96663500D01*
X151152000Y-97138500D01*
X151150856Y-97161779D01*
X151147437Y-97184834D01*
X151141773Y-97207443D01*
X151133921Y-97229387D01*
X151123956Y-97250457D01*
X151111974Y-97270448D01*
X151098090Y-97289168D01*
X151082438Y-97306438D01*
X151065168Y-97322090D01*
X151046448Y-97335974D01*
X151026457Y-97347956D01*
X151005387Y-97357921D01*
X150983443Y-97365773D01*
X150960834Y-97371437D01*
X150937779Y-97374856D01*
X150914500Y-97376000D01*
X150339500Y-97376000D01*
X150316221Y-97374856D01*
X150293166Y-97371437D01*
X150270557Y-97365773D01*
X150248613Y-97357921D01*
X150227543Y-97347956D01*
X150207552Y-97335974D01*
X150188832Y-97322090D01*
X150171562Y-97306438D01*
X150155910Y-97289168D01*
X150142026Y-97270448D01*
X150130044Y-97250457D01*
X150120079Y-97229387D01*
X150112227Y-97207443D01*
X150106563Y-97184834D01*
X150103144Y-97161779D01*
X150102000Y-97138500D01*
X150102000Y-96663500D01*
X150103144Y-96640221D01*
X150106563Y-96617166D01*
X150112227Y-96594557D01*
X150120079Y-96572613D01*
X150130044Y-96551543D01*
X150142026Y-96531552D01*
X150155910Y-96512832D01*
X150171562Y-96495562D01*
X150188832Y-96479910D01*
X150207552Y-96466026D01*
X150227543Y-96454044D01*
X150248613Y-96444079D01*
X150270557Y-96436227D01*
X150293166Y-96430563D01*
X150316221Y-96427144D01*
X150339500Y-96426000D01*
X150914500Y-96426000D01*
X150937779Y-96427144D01*
X150937779Y-96427144D01*
G37*
D38*
X150627000Y-96901000D03*
D26*
G36*
X152687779Y-96427144D02*
X152710834Y-96430563D01*
X152733443Y-96436227D01*
X152755387Y-96444079D01*
X152776457Y-96454044D01*
X152796448Y-96466026D01*
X152815168Y-96479910D01*
X152832438Y-96495562D01*
X152848090Y-96512832D01*
X152861974Y-96531552D01*
X152873956Y-96551543D01*
X152883921Y-96572613D01*
X152891773Y-96594557D01*
X152897437Y-96617166D01*
X152900856Y-96640221D01*
X152902000Y-96663500D01*
X152902000Y-97138500D01*
X152900856Y-97161779D01*
X152897437Y-97184834D01*
X152891773Y-97207443D01*
X152883921Y-97229387D01*
X152873956Y-97250457D01*
X152861974Y-97270448D01*
X152848090Y-97289168D01*
X152832438Y-97306438D01*
X152815168Y-97322090D01*
X152796448Y-97335974D01*
X152776457Y-97347956D01*
X152755387Y-97357921D01*
X152733443Y-97365773D01*
X152710834Y-97371437D01*
X152687779Y-97374856D01*
X152664500Y-97376000D01*
X152089500Y-97376000D01*
X152066221Y-97374856D01*
X152043166Y-97371437D01*
X152020557Y-97365773D01*
X151998613Y-97357921D01*
X151977543Y-97347956D01*
X151957552Y-97335974D01*
X151938832Y-97322090D01*
X151921562Y-97306438D01*
X151905910Y-97289168D01*
X151892026Y-97270448D01*
X151880044Y-97250457D01*
X151870079Y-97229387D01*
X151862227Y-97207443D01*
X151856563Y-97184834D01*
X151853144Y-97161779D01*
X151852000Y-97138500D01*
X151852000Y-96663500D01*
X151853144Y-96640221D01*
X151856563Y-96617166D01*
X151862227Y-96594557D01*
X151870079Y-96572613D01*
X151880044Y-96551543D01*
X151892026Y-96531552D01*
X151905910Y-96512832D01*
X151921562Y-96495562D01*
X151938832Y-96479910D01*
X151957552Y-96466026D01*
X151977543Y-96454044D01*
X151998613Y-96444079D01*
X152020557Y-96436227D01*
X152043166Y-96430563D01*
X152066221Y-96427144D01*
X152089500Y-96426000D01*
X152664500Y-96426000D01*
X152687779Y-96427144D01*
X152687779Y-96427144D01*
G37*
D38*
X152377000Y-96901000D03*
D26*
G36*
X150937779Y-98332144D02*
X150960834Y-98335563D01*
X150983443Y-98341227D01*
X151005387Y-98349079D01*
X151026457Y-98359044D01*
X151046448Y-98371026D01*
X151065168Y-98384910D01*
X151082438Y-98400562D01*
X151098090Y-98417832D01*
X151111974Y-98436552D01*
X151123956Y-98456543D01*
X151133921Y-98477613D01*
X151141773Y-98499557D01*
X151147437Y-98522166D01*
X151150856Y-98545221D01*
X151152000Y-98568500D01*
X151152000Y-99043500D01*
X151150856Y-99066779D01*
X151147437Y-99089834D01*
X151141773Y-99112443D01*
X151133921Y-99134387D01*
X151123956Y-99155457D01*
X151111974Y-99175448D01*
X151098090Y-99194168D01*
X151082438Y-99211438D01*
X151065168Y-99227090D01*
X151046448Y-99240974D01*
X151026457Y-99252956D01*
X151005387Y-99262921D01*
X150983443Y-99270773D01*
X150960834Y-99276437D01*
X150937779Y-99279856D01*
X150914500Y-99281000D01*
X150339500Y-99281000D01*
X150316221Y-99279856D01*
X150293166Y-99276437D01*
X150270557Y-99270773D01*
X150248613Y-99262921D01*
X150227543Y-99252956D01*
X150207552Y-99240974D01*
X150188832Y-99227090D01*
X150171562Y-99211438D01*
X150155910Y-99194168D01*
X150142026Y-99175448D01*
X150130044Y-99155457D01*
X150120079Y-99134387D01*
X150112227Y-99112443D01*
X150106563Y-99089834D01*
X150103144Y-99066779D01*
X150102000Y-99043500D01*
X150102000Y-98568500D01*
X150103144Y-98545221D01*
X150106563Y-98522166D01*
X150112227Y-98499557D01*
X150120079Y-98477613D01*
X150130044Y-98456543D01*
X150142026Y-98436552D01*
X150155910Y-98417832D01*
X150171562Y-98400562D01*
X150188832Y-98384910D01*
X150207552Y-98371026D01*
X150227543Y-98359044D01*
X150248613Y-98349079D01*
X150270557Y-98341227D01*
X150293166Y-98335563D01*
X150316221Y-98332144D01*
X150339500Y-98331000D01*
X150914500Y-98331000D01*
X150937779Y-98332144D01*
X150937779Y-98332144D01*
G37*
D38*
X150627000Y-98806000D03*
D26*
G36*
X152687779Y-98332144D02*
X152710834Y-98335563D01*
X152733443Y-98341227D01*
X152755387Y-98349079D01*
X152776457Y-98359044D01*
X152796448Y-98371026D01*
X152815168Y-98384910D01*
X152832438Y-98400562D01*
X152848090Y-98417832D01*
X152861974Y-98436552D01*
X152873956Y-98456543D01*
X152883921Y-98477613D01*
X152891773Y-98499557D01*
X152897437Y-98522166D01*
X152900856Y-98545221D01*
X152902000Y-98568500D01*
X152902000Y-99043500D01*
X152900856Y-99066779D01*
X152897437Y-99089834D01*
X152891773Y-99112443D01*
X152883921Y-99134387D01*
X152873956Y-99155457D01*
X152861974Y-99175448D01*
X152848090Y-99194168D01*
X152832438Y-99211438D01*
X152815168Y-99227090D01*
X152796448Y-99240974D01*
X152776457Y-99252956D01*
X152755387Y-99262921D01*
X152733443Y-99270773D01*
X152710834Y-99276437D01*
X152687779Y-99279856D01*
X152664500Y-99281000D01*
X152089500Y-99281000D01*
X152066221Y-99279856D01*
X152043166Y-99276437D01*
X152020557Y-99270773D01*
X151998613Y-99262921D01*
X151977543Y-99252956D01*
X151957552Y-99240974D01*
X151938832Y-99227090D01*
X151921562Y-99211438D01*
X151905910Y-99194168D01*
X151892026Y-99175448D01*
X151880044Y-99155457D01*
X151870079Y-99134387D01*
X151862227Y-99112443D01*
X151856563Y-99089834D01*
X151853144Y-99066779D01*
X151852000Y-99043500D01*
X151852000Y-98568500D01*
X151853144Y-98545221D01*
X151856563Y-98522166D01*
X151862227Y-98499557D01*
X151870079Y-98477613D01*
X151880044Y-98456543D01*
X151892026Y-98436552D01*
X151905910Y-98417832D01*
X151921562Y-98400562D01*
X151938832Y-98384910D01*
X151957552Y-98371026D01*
X151977543Y-98359044D01*
X151998613Y-98349079D01*
X152020557Y-98341227D01*
X152043166Y-98335563D01*
X152066221Y-98332144D01*
X152089500Y-98331000D01*
X152664500Y-98331000D01*
X152687779Y-98332144D01*
X152687779Y-98332144D01*
G37*
D38*
X152377000Y-98806000D03*
D26*
G36*
X150937779Y-100237144D02*
X150960834Y-100240563D01*
X150983443Y-100246227D01*
X151005387Y-100254079D01*
X151026457Y-100264044D01*
X151046448Y-100276026D01*
X151065168Y-100289910D01*
X151082438Y-100305562D01*
X151098090Y-100322832D01*
X151111974Y-100341552D01*
X151123956Y-100361543D01*
X151133921Y-100382613D01*
X151141773Y-100404557D01*
X151147437Y-100427166D01*
X151150856Y-100450221D01*
X151152000Y-100473500D01*
X151152000Y-100948500D01*
X151150856Y-100971779D01*
X151147437Y-100994834D01*
X151141773Y-101017443D01*
X151133921Y-101039387D01*
X151123956Y-101060457D01*
X151111974Y-101080448D01*
X151098090Y-101099168D01*
X151082438Y-101116438D01*
X151065168Y-101132090D01*
X151046448Y-101145974D01*
X151026457Y-101157956D01*
X151005387Y-101167921D01*
X150983443Y-101175773D01*
X150960834Y-101181437D01*
X150937779Y-101184856D01*
X150914500Y-101186000D01*
X150339500Y-101186000D01*
X150316221Y-101184856D01*
X150293166Y-101181437D01*
X150270557Y-101175773D01*
X150248613Y-101167921D01*
X150227543Y-101157956D01*
X150207552Y-101145974D01*
X150188832Y-101132090D01*
X150171562Y-101116438D01*
X150155910Y-101099168D01*
X150142026Y-101080448D01*
X150130044Y-101060457D01*
X150120079Y-101039387D01*
X150112227Y-101017443D01*
X150106563Y-100994834D01*
X150103144Y-100971779D01*
X150102000Y-100948500D01*
X150102000Y-100473500D01*
X150103144Y-100450221D01*
X150106563Y-100427166D01*
X150112227Y-100404557D01*
X150120079Y-100382613D01*
X150130044Y-100361543D01*
X150142026Y-100341552D01*
X150155910Y-100322832D01*
X150171562Y-100305562D01*
X150188832Y-100289910D01*
X150207552Y-100276026D01*
X150227543Y-100264044D01*
X150248613Y-100254079D01*
X150270557Y-100246227D01*
X150293166Y-100240563D01*
X150316221Y-100237144D01*
X150339500Y-100236000D01*
X150914500Y-100236000D01*
X150937779Y-100237144D01*
X150937779Y-100237144D01*
G37*
D38*
X150627000Y-100711000D03*
D26*
G36*
X152687779Y-100237144D02*
X152710834Y-100240563D01*
X152733443Y-100246227D01*
X152755387Y-100254079D01*
X152776457Y-100264044D01*
X152796448Y-100276026D01*
X152815168Y-100289910D01*
X152832438Y-100305562D01*
X152848090Y-100322832D01*
X152861974Y-100341552D01*
X152873956Y-100361543D01*
X152883921Y-100382613D01*
X152891773Y-100404557D01*
X152897437Y-100427166D01*
X152900856Y-100450221D01*
X152902000Y-100473500D01*
X152902000Y-100948500D01*
X152900856Y-100971779D01*
X152897437Y-100994834D01*
X152891773Y-101017443D01*
X152883921Y-101039387D01*
X152873956Y-101060457D01*
X152861974Y-101080448D01*
X152848090Y-101099168D01*
X152832438Y-101116438D01*
X152815168Y-101132090D01*
X152796448Y-101145974D01*
X152776457Y-101157956D01*
X152755387Y-101167921D01*
X152733443Y-101175773D01*
X152710834Y-101181437D01*
X152687779Y-101184856D01*
X152664500Y-101186000D01*
X152089500Y-101186000D01*
X152066221Y-101184856D01*
X152043166Y-101181437D01*
X152020557Y-101175773D01*
X151998613Y-101167921D01*
X151977543Y-101157956D01*
X151957552Y-101145974D01*
X151938832Y-101132090D01*
X151921562Y-101116438D01*
X151905910Y-101099168D01*
X151892026Y-101080448D01*
X151880044Y-101060457D01*
X151870079Y-101039387D01*
X151862227Y-101017443D01*
X151856563Y-100994834D01*
X151853144Y-100971779D01*
X151852000Y-100948500D01*
X151852000Y-100473500D01*
X151853144Y-100450221D01*
X151856563Y-100427166D01*
X151862227Y-100404557D01*
X151870079Y-100382613D01*
X151880044Y-100361543D01*
X151892026Y-100341552D01*
X151905910Y-100322832D01*
X151921562Y-100305562D01*
X151938832Y-100289910D01*
X151957552Y-100276026D01*
X151977543Y-100264044D01*
X151998613Y-100254079D01*
X152020557Y-100246227D01*
X152043166Y-100240563D01*
X152066221Y-100237144D01*
X152089500Y-100236000D01*
X152664500Y-100236000D01*
X152687779Y-100237144D01*
X152687779Y-100237144D01*
G37*
D38*
X152377000Y-100711000D03*
D39*
X83693000Y-82804000D03*
X88773000Y-100584000D03*
X88773000Y-82804000D03*
X63373000Y-100584000D03*
D40*
X58293000Y-100584000D03*
D32*
X172720000Y-59055000D03*
X172720000Y-60325000D03*
X172720000Y-61595000D03*
X172720000Y-62865000D03*
X172720000Y-64135000D03*
X172720000Y-65405000D03*
X172720000Y-66675000D03*
X172720000Y-67945000D03*
X163420000Y-67945000D03*
X163420000Y-66675000D03*
X163420000Y-65405000D03*
X163420000Y-64135000D03*
X163420000Y-62865000D03*
X163420000Y-61595000D03*
X163420000Y-60325000D03*
X163420000Y-59055000D03*
D26*
G36*
X194470779Y-111413144D02*
X194493834Y-111416563D01*
X194516443Y-111422227D01*
X194538387Y-111430079D01*
X194559457Y-111440044D01*
X194579448Y-111452026D01*
X194598168Y-111465910D01*
X194615438Y-111481562D01*
X194631090Y-111498832D01*
X194644974Y-111517552D01*
X194656956Y-111537543D01*
X194666921Y-111558613D01*
X194674773Y-111580557D01*
X194680437Y-111603166D01*
X194683856Y-111626221D01*
X194685000Y-111649500D01*
X194685000Y-112124500D01*
X194683856Y-112147779D01*
X194680437Y-112170834D01*
X194674773Y-112193443D01*
X194666921Y-112215387D01*
X194656956Y-112236457D01*
X194644974Y-112256448D01*
X194631090Y-112275168D01*
X194615438Y-112292438D01*
X194598168Y-112308090D01*
X194579448Y-112321974D01*
X194559457Y-112333956D01*
X194538387Y-112343921D01*
X194516443Y-112351773D01*
X194493834Y-112357437D01*
X194470779Y-112360856D01*
X194447500Y-112362000D01*
X193872500Y-112362000D01*
X193849221Y-112360856D01*
X193826166Y-112357437D01*
X193803557Y-112351773D01*
X193781613Y-112343921D01*
X193760543Y-112333956D01*
X193740552Y-112321974D01*
X193721832Y-112308090D01*
X193704562Y-112292438D01*
X193688910Y-112275168D01*
X193675026Y-112256448D01*
X193663044Y-112236457D01*
X193653079Y-112215387D01*
X193645227Y-112193443D01*
X193639563Y-112170834D01*
X193636144Y-112147779D01*
X193635000Y-112124500D01*
X193635000Y-111649500D01*
X193636144Y-111626221D01*
X193639563Y-111603166D01*
X193645227Y-111580557D01*
X193653079Y-111558613D01*
X193663044Y-111537543D01*
X193675026Y-111517552D01*
X193688910Y-111498832D01*
X193704562Y-111481562D01*
X193721832Y-111465910D01*
X193740552Y-111452026D01*
X193760543Y-111440044D01*
X193781613Y-111430079D01*
X193803557Y-111422227D01*
X193826166Y-111416563D01*
X193849221Y-111413144D01*
X193872500Y-111412000D01*
X194447500Y-111412000D01*
X194470779Y-111413144D01*
X194470779Y-111413144D01*
G37*
D38*
X194160000Y-111887000D03*
D26*
G36*
X192720779Y-111413144D02*
X192743834Y-111416563D01*
X192766443Y-111422227D01*
X192788387Y-111430079D01*
X192809457Y-111440044D01*
X192829448Y-111452026D01*
X192848168Y-111465910D01*
X192865438Y-111481562D01*
X192881090Y-111498832D01*
X192894974Y-111517552D01*
X192906956Y-111537543D01*
X192916921Y-111558613D01*
X192924773Y-111580557D01*
X192930437Y-111603166D01*
X192933856Y-111626221D01*
X192935000Y-111649500D01*
X192935000Y-112124500D01*
X192933856Y-112147779D01*
X192930437Y-112170834D01*
X192924773Y-112193443D01*
X192916921Y-112215387D01*
X192906956Y-112236457D01*
X192894974Y-112256448D01*
X192881090Y-112275168D01*
X192865438Y-112292438D01*
X192848168Y-112308090D01*
X192829448Y-112321974D01*
X192809457Y-112333956D01*
X192788387Y-112343921D01*
X192766443Y-112351773D01*
X192743834Y-112357437D01*
X192720779Y-112360856D01*
X192697500Y-112362000D01*
X192122500Y-112362000D01*
X192099221Y-112360856D01*
X192076166Y-112357437D01*
X192053557Y-112351773D01*
X192031613Y-112343921D01*
X192010543Y-112333956D01*
X191990552Y-112321974D01*
X191971832Y-112308090D01*
X191954562Y-112292438D01*
X191938910Y-112275168D01*
X191925026Y-112256448D01*
X191913044Y-112236457D01*
X191903079Y-112215387D01*
X191895227Y-112193443D01*
X191889563Y-112170834D01*
X191886144Y-112147779D01*
X191885000Y-112124500D01*
X191885000Y-111649500D01*
X191886144Y-111626221D01*
X191889563Y-111603166D01*
X191895227Y-111580557D01*
X191903079Y-111558613D01*
X191913044Y-111537543D01*
X191925026Y-111517552D01*
X191938910Y-111498832D01*
X191954562Y-111481562D01*
X191971832Y-111465910D01*
X191990552Y-111452026D01*
X192010543Y-111440044D01*
X192031613Y-111430079D01*
X192053557Y-111422227D01*
X192076166Y-111416563D01*
X192099221Y-111413144D01*
X192122500Y-111412000D01*
X192697500Y-111412000D01*
X192720779Y-111413144D01*
X192720779Y-111413144D01*
G37*
D38*
X192410000Y-111887000D03*
D26*
G36*
X192738779Y-108873144D02*
X192761834Y-108876563D01*
X192784443Y-108882227D01*
X192806387Y-108890079D01*
X192827457Y-108900044D01*
X192847448Y-108912026D01*
X192866168Y-108925910D01*
X192883438Y-108941562D01*
X192899090Y-108958832D01*
X192912974Y-108977552D01*
X192924956Y-108997543D01*
X192934921Y-109018613D01*
X192942773Y-109040557D01*
X192948437Y-109063166D01*
X192951856Y-109086221D01*
X192953000Y-109109500D01*
X192953000Y-109584500D01*
X192951856Y-109607779D01*
X192948437Y-109630834D01*
X192942773Y-109653443D01*
X192934921Y-109675387D01*
X192924956Y-109696457D01*
X192912974Y-109716448D01*
X192899090Y-109735168D01*
X192883438Y-109752438D01*
X192866168Y-109768090D01*
X192847448Y-109781974D01*
X192827457Y-109793956D01*
X192806387Y-109803921D01*
X192784443Y-109811773D01*
X192761834Y-109817437D01*
X192738779Y-109820856D01*
X192715500Y-109822000D01*
X192140500Y-109822000D01*
X192117221Y-109820856D01*
X192094166Y-109817437D01*
X192071557Y-109811773D01*
X192049613Y-109803921D01*
X192028543Y-109793956D01*
X192008552Y-109781974D01*
X191989832Y-109768090D01*
X191972562Y-109752438D01*
X191956910Y-109735168D01*
X191943026Y-109716448D01*
X191931044Y-109696457D01*
X191921079Y-109675387D01*
X191913227Y-109653443D01*
X191907563Y-109630834D01*
X191904144Y-109607779D01*
X191903000Y-109584500D01*
X191903000Y-109109500D01*
X191904144Y-109086221D01*
X191907563Y-109063166D01*
X191913227Y-109040557D01*
X191921079Y-109018613D01*
X191931044Y-108997543D01*
X191943026Y-108977552D01*
X191956910Y-108958832D01*
X191972562Y-108941562D01*
X191989832Y-108925910D01*
X192008552Y-108912026D01*
X192028543Y-108900044D01*
X192049613Y-108890079D01*
X192071557Y-108882227D01*
X192094166Y-108876563D01*
X192117221Y-108873144D01*
X192140500Y-108872000D01*
X192715500Y-108872000D01*
X192738779Y-108873144D01*
X192738779Y-108873144D01*
G37*
D38*
X192428000Y-109347000D03*
D26*
G36*
X194488779Y-108873144D02*
X194511834Y-108876563D01*
X194534443Y-108882227D01*
X194556387Y-108890079D01*
X194577457Y-108900044D01*
X194597448Y-108912026D01*
X194616168Y-108925910D01*
X194633438Y-108941562D01*
X194649090Y-108958832D01*
X194662974Y-108977552D01*
X194674956Y-108997543D01*
X194684921Y-109018613D01*
X194692773Y-109040557D01*
X194698437Y-109063166D01*
X194701856Y-109086221D01*
X194703000Y-109109500D01*
X194703000Y-109584500D01*
X194701856Y-109607779D01*
X194698437Y-109630834D01*
X194692773Y-109653443D01*
X194684921Y-109675387D01*
X194674956Y-109696457D01*
X194662974Y-109716448D01*
X194649090Y-109735168D01*
X194633438Y-109752438D01*
X194616168Y-109768090D01*
X194597448Y-109781974D01*
X194577457Y-109793956D01*
X194556387Y-109803921D01*
X194534443Y-109811773D01*
X194511834Y-109817437D01*
X194488779Y-109820856D01*
X194465500Y-109822000D01*
X193890500Y-109822000D01*
X193867221Y-109820856D01*
X193844166Y-109817437D01*
X193821557Y-109811773D01*
X193799613Y-109803921D01*
X193778543Y-109793956D01*
X193758552Y-109781974D01*
X193739832Y-109768090D01*
X193722562Y-109752438D01*
X193706910Y-109735168D01*
X193693026Y-109716448D01*
X193681044Y-109696457D01*
X193671079Y-109675387D01*
X193663227Y-109653443D01*
X193657563Y-109630834D01*
X193654144Y-109607779D01*
X193653000Y-109584500D01*
X193653000Y-109109500D01*
X193654144Y-109086221D01*
X193657563Y-109063166D01*
X193663227Y-109040557D01*
X193671079Y-109018613D01*
X193681044Y-108997543D01*
X193693026Y-108977552D01*
X193706910Y-108958832D01*
X193722562Y-108941562D01*
X193739832Y-108925910D01*
X193758552Y-108912026D01*
X193778543Y-108900044D01*
X193799613Y-108890079D01*
X193821557Y-108882227D01*
X193844166Y-108876563D01*
X193867221Y-108873144D01*
X193890500Y-108872000D01*
X194465500Y-108872000D01*
X194488779Y-108873144D01*
X194488779Y-108873144D01*
G37*
D38*
X194178000Y-109347000D03*
D26*
G36*
X195205779Y-125178144D02*
X195228834Y-125181563D01*
X195251443Y-125187227D01*
X195273387Y-125195079D01*
X195294457Y-125205044D01*
X195314448Y-125217026D01*
X195333168Y-125230910D01*
X195350438Y-125246562D01*
X195366090Y-125263832D01*
X195379974Y-125282552D01*
X195391956Y-125302543D01*
X195401921Y-125323613D01*
X195409773Y-125345557D01*
X195415437Y-125368166D01*
X195418856Y-125391221D01*
X195420000Y-125414500D01*
X195420000Y-125989500D01*
X195418856Y-126012779D01*
X195415437Y-126035834D01*
X195409773Y-126058443D01*
X195401921Y-126080387D01*
X195391956Y-126101457D01*
X195379974Y-126121448D01*
X195366090Y-126140168D01*
X195350438Y-126157438D01*
X195333168Y-126173090D01*
X195314448Y-126186974D01*
X195294457Y-126198956D01*
X195273387Y-126208921D01*
X195251443Y-126216773D01*
X195228834Y-126222437D01*
X195205779Y-126225856D01*
X195182500Y-126227000D01*
X194707500Y-126227000D01*
X194684221Y-126225856D01*
X194661166Y-126222437D01*
X194638557Y-126216773D01*
X194616613Y-126208921D01*
X194595543Y-126198956D01*
X194575552Y-126186974D01*
X194556832Y-126173090D01*
X194539562Y-126157438D01*
X194523910Y-126140168D01*
X194510026Y-126121448D01*
X194498044Y-126101457D01*
X194488079Y-126080387D01*
X194480227Y-126058443D01*
X194474563Y-126035834D01*
X194471144Y-126012779D01*
X194470000Y-125989500D01*
X194470000Y-125414500D01*
X194471144Y-125391221D01*
X194474563Y-125368166D01*
X194480227Y-125345557D01*
X194488079Y-125323613D01*
X194498044Y-125302543D01*
X194510026Y-125282552D01*
X194523910Y-125263832D01*
X194539562Y-125246562D01*
X194556832Y-125230910D01*
X194575552Y-125217026D01*
X194595543Y-125205044D01*
X194616613Y-125195079D01*
X194638557Y-125187227D01*
X194661166Y-125181563D01*
X194684221Y-125178144D01*
X194707500Y-125177000D01*
X195182500Y-125177000D01*
X195205779Y-125178144D01*
X195205779Y-125178144D01*
G37*
D38*
X194945000Y-125702000D03*
D26*
G36*
X195205779Y-123428144D02*
X195228834Y-123431563D01*
X195251443Y-123437227D01*
X195273387Y-123445079D01*
X195294457Y-123455044D01*
X195314448Y-123467026D01*
X195333168Y-123480910D01*
X195350438Y-123496562D01*
X195366090Y-123513832D01*
X195379974Y-123532552D01*
X195391956Y-123552543D01*
X195401921Y-123573613D01*
X195409773Y-123595557D01*
X195415437Y-123618166D01*
X195418856Y-123641221D01*
X195420000Y-123664500D01*
X195420000Y-124239500D01*
X195418856Y-124262779D01*
X195415437Y-124285834D01*
X195409773Y-124308443D01*
X195401921Y-124330387D01*
X195391956Y-124351457D01*
X195379974Y-124371448D01*
X195366090Y-124390168D01*
X195350438Y-124407438D01*
X195333168Y-124423090D01*
X195314448Y-124436974D01*
X195294457Y-124448956D01*
X195273387Y-124458921D01*
X195251443Y-124466773D01*
X195228834Y-124472437D01*
X195205779Y-124475856D01*
X195182500Y-124477000D01*
X194707500Y-124477000D01*
X194684221Y-124475856D01*
X194661166Y-124472437D01*
X194638557Y-124466773D01*
X194616613Y-124458921D01*
X194595543Y-124448956D01*
X194575552Y-124436974D01*
X194556832Y-124423090D01*
X194539562Y-124407438D01*
X194523910Y-124390168D01*
X194510026Y-124371448D01*
X194498044Y-124351457D01*
X194488079Y-124330387D01*
X194480227Y-124308443D01*
X194474563Y-124285834D01*
X194471144Y-124262779D01*
X194470000Y-124239500D01*
X194470000Y-123664500D01*
X194471144Y-123641221D01*
X194474563Y-123618166D01*
X194480227Y-123595557D01*
X194488079Y-123573613D01*
X194498044Y-123552543D01*
X194510026Y-123532552D01*
X194523910Y-123513832D01*
X194539562Y-123496562D01*
X194556832Y-123480910D01*
X194575552Y-123467026D01*
X194595543Y-123455044D01*
X194616613Y-123445079D01*
X194638557Y-123437227D01*
X194661166Y-123431563D01*
X194684221Y-123428144D01*
X194707500Y-123427000D01*
X195182500Y-123427000D01*
X195205779Y-123428144D01*
X195205779Y-123428144D01*
G37*
D38*
X194945000Y-123952000D03*
D26*
G36*
X168154779Y-82656144D02*
X168177834Y-82659563D01*
X168200443Y-82665227D01*
X168222387Y-82673079D01*
X168243457Y-82683044D01*
X168263448Y-82695026D01*
X168282168Y-82708910D01*
X168299438Y-82724562D01*
X168315090Y-82741832D01*
X168328974Y-82760552D01*
X168340956Y-82780543D01*
X168350921Y-82801613D01*
X168358773Y-82823557D01*
X168364437Y-82846166D01*
X168367856Y-82869221D01*
X168369000Y-82892500D01*
X168369000Y-83467500D01*
X168367856Y-83490779D01*
X168364437Y-83513834D01*
X168358773Y-83536443D01*
X168350921Y-83558387D01*
X168340956Y-83579457D01*
X168328974Y-83599448D01*
X168315090Y-83618168D01*
X168299438Y-83635438D01*
X168282168Y-83651090D01*
X168263448Y-83664974D01*
X168243457Y-83676956D01*
X168222387Y-83686921D01*
X168200443Y-83694773D01*
X168177834Y-83700437D01*
X168154779Y-83703856D01*
X168131500Y-83705000D01*
X167656500Y-83705000D01*
X167633221Y-83703856D01*
X167610166Y-83700437D01*
X167587557Y-83694773D01*
X167565613Y-83686921D01*
X167544543Y-83676956D01*
X167524552Y-83664974D01*
X167505832Y-83651090D01*
X167488562Y-83635438D01*
X167472910Y-83618168D01*
X167459026Y-83599448D01*
X167447044Y-83579457D01*
X167437079Y-83558387D01*
X167429227Y-83536443D01*
X167423563Y-83513834D01*
X167420144Y-83490779D01*
X167419000Y-83467500D01*
X167419000Y-82892500D01*
X167420144Y-82869221D01*
X167423563Y-82846166D01*
X167429227Y-82823557D01*
X167437079Y-82801613D01*
X167447044Y-82780543D01*
X167459026Y-82760552D01*
X167472910Y-82741832D01*
X167488562Y-82724562D01*
X167505832Y-82708910D01*
X167524552Y-82695026D01*
X167544543Y-82683044D01*
X167565613Y-82673079D01*
X167587557Y-82665227D01*
X167610166Y-82659563D01*
X167633221Y-82656144D01*
X167656500Y-82655000D01*
X168131500Y-82655000D01*
X168154779Y-82656144D01*
X168154779Y-82656144D01*
G37*
D38*
X167894000Y-83180000D03*
D26*
G36*
X168154779Y-80906144D02*
X168177834Y-80909563D01*
X168200443Y-80915227D01*
X168222387Y-80923079D01*
X168243457Y-80933044D01*
X168263448Y-80945026D01*
X168282168Y-80958910D01*
X168299438Y-80974562D01*
X168315090Y-80991832D01*
X168328974Y-81010552D01*
X168340956Y-81030543D01*
X168350921Y-81051613D01*
X168358773Y-81073557D01*
X168364437Y-81096166D01*
X168367856Y-81119221D01*
X168369000Y-81142500D01*
X168369000Y-81717500D01*
X168367856Y-81740779D01*
X168364437Y-81763834D01*
X168358773Y-81786443D01*
X168350921Y-81808387D01*
X168340956Y-81829457D01*
X168328974Y-81849448D01*
X168315090Y-81868168D01*
X168299438Y-81885438D01*
X168282168Y-81901090D01*
X168263448Y-81914974D01*
X168243457Y-81926956D01*
X168222387Y-81936921D01*
X168200443Y-81944773D01*
X168177834Y-81950437D01*
X168154779Y-81953856D01*
X168131500Y-81955000D01*
X167656500Y-81955000D01*
X167633221Y-81953856D01*
X167610166Y-81950437D01*
X167587557Y-81944773D01*
X167565613Y-81936921D01*
X167544543Y-81926956D01*
X167524552Y-81914974D01*
X167505832Y-81901090D01*
X167488562Y-81885438D01*
X167472910Y-81868168D01*
X167459026Y-81849448D01*
X167447044Y-81829457D01*
X167437079Y-81808387D01*
X167429227Y-81786443D01*
X167423563Y-81763834D01*
X167420144Y-81740779D01*
X167419000Y-81717500D01*
X167419000Y-81142500D01*
X167420144Y-81119221D01*
X167423563Y-81096166D01*
X167429227Y-81073557D01*
X167437079Y-81051613D01*
X167447044Y-81030543D01*
X167459026Y-81010552D01*
X167472910Y-80991832D01*
X167488562Y-80974562D01*
X167505832Y-80958910D01*
X167524552Y-80945026D01*
X167544543Y-80933044D01*
X167565613Y-80923079D01*
X167587557Y-80915227D01*
X167610166Y-80909563D01*
X167633221Y-80906144D01*
X167656500Y-80905000D01*
X168131500Y-80905000D01*
X168154779Y-80906144D01*
X168154779Y-80906144D01*
G37*
D38*
X167894000Y-81430000D03*
D26*
G36*
X195586779Y-100718144D02*
X195609834Y-100721563D01*
X195632443Y-100727227D01*
X195654387Y-100735079D01*
X195675457Y-100745044D01*
X195695448Y-100757026D01*
X195714168Y-100770910D01*
X195731438Y-100786562D01*
X195747090Y-100803832D01*
X195760974Y-100822552D01*
X195772956Y-100842543D01*
X195782921Y-100863613D01*
X195790773Y-100885557D01*
X195796437Y-100908166D01*
X195799856Y-100931221D01*
X195801000Y-100954500D01*
X195801000Y-101529500D01*
X195799856Y-101552779D01*
X195796437Y-101575834D01*
X195790773Y-101598443D01*
X195782921Y-101620387D01*
X195772956Y-101641457D01*
X195760974Y-101661448D01*
X195747090Y-101680168D01*
X195731438Y-101697438D01*
X195714168Y-101713090D01*
X195695448Y-101726974D01*
X195675457Y-101738956D01*
X195654387Y-101748921D01*
X195632443Y-101756773D01*
X195609834Y-101762437D01*
X195586779Y-101765856D01*
X195563500Y-101767000D01*
X195088500Y-101767000D01*
X195065221Y-101765856D01*
X195042166Y-101762437D01*
X195019557Y-101756773D01*
X194997613Y-101748921D01*
X194976543Y-101738956D01*
X194956552Y-101726974D01*
X194937832Y-101713090D01*
X194920562Y-101697438D01*
X194904910Y-101680168D01*
X194891026Y-101661448D01*
X194879044Y-101641457D01*
X194869079Y-101620387D01*
X194861227Y-101598443D01*
X194855563Y-101575834D01*
X194852144Y-101552779D01*
X194851000Y-101529500D01*
X194851000Y-100954500D01*
X194852144Y-100931221D01*
X194855563Y-100908166D01*
X194861227Y-100885557D01*
X194869079Y-100863613D01*
X194879044Y-100842543D01*
X194891026Y-100822552D01*
X194904910Y-100803832D01*
X194920562Y-100786562D01*
X194937832Y-100770910D01*
X194956552Y-100757026D01*
X194976543Y-100745044D01*
X194997613Y-100735079D01*
X195019557Y-100727227D01*
X195042166Y-100721563D01*
X195065221Y-100718144D01*
X195088500Y-100717000D01*
X195563500Y-100717000D01*
X195586779Y-100718144D01*
X195586779Y-100718144D01*
G37*
D38*
X195326000Y-101242000D03*
D26*
G36*
X195586779Y-102468144D02*
X195609834Y-102471563D01*
X195632443Y-102477227D01*
X195654387Y-102485079D01*
X195675457Y-102495044D01*
X195695448Y-102507026D01*
X195714168Y-102520910D01*
X195731438Y-102536562D01*
X195747090Y-102553832D01*
X195760974Y-102572552D01*
X195772956Y-102592543D01*
X195782921Y-102613613D01*
X195790773Y-102635557D01*
X195796437Y-102658166D01*
X195799856Y-102681221D01*
X195801000Y-102704500D01*
X195801000Y-103279500D01*
X195799856Y-103302779D01*
X195796437Y-103325834D01*
X195790773Y-103348443D01*
X195782921Y-103370387D01*
X195772956Y-103391457D01*
X195760974Y-103411448D01*
X195747090Y-103430168D01*
X195731438Y-103447438D01*
X195714168Y-103463090D01*
X195695448Y-103476974D01*
X195675457Y-103488956D01*
X195654387Y-103498921D01*
X195632443Y-103506773D01*
X195609834Y-103512437D01*
X195586779Y-103515856D01*
X195563500Y-103517000D01*
X195088500Y-103517000D01*
X195065221Y-103515856D01*
X195042166Y-103512437D01*
X195019557Y-103506773D01*
X194997613Y-103498921D01*
X194976543Y-103488956D01*
X194956552Y-103476974D01*
X194937832Y-103463090D01*
X194920562Y-103447438D01*
X194904910Y-103430168D01*
X194891026Y-103411448D01*
X194879044Y-103391457D01*
X194869079Y-103370387D01*
X194861227Y-103348443D01*
X194855563Y-103325834D01*
X194852144Y-103302779D01*
X194851000Y-103279500D01*
X194851000Y-102704500D01*
X194852144Y-102681221D01*
X194855563Y-102658166D01*
X194861227Y-102635557D01*
X194869079Y-102613613D01*
X194879044Y-102592543D01*
X194891026Y-102572552D01*
X194904910Y-102553832D01*
X194920562Y-102536562D01*
X194937832Y-102520910D01*
X194956552Y-102507026D01*
X194976543Y-102495044D01*
X194997613Y-102485079D01*
X195019557Y-102477227D01*
X195042166Y-102471563D01*
X195065221Y-102468144D01*
X195088500Y-102467000D01*
X195563500Y-102467000D01*
X195586779Y-102468144D01*
X195586779Y-102468144D01*
G37*
D38*
X195326000Y-102992000D03*
D26*
G36*
X159772779Y-58409144D02*
X159795834Y-58412563D01*
X159818443Y-58418227D01*
X159840387Y-58426079D01*
X159861457Y-58436044D01*
X159881448Y-58448026D01*
X159900168Y-58461910D01*
X159917438Y-58477562D01*
X159933090Y-58494832D01*
X159946974Y-58513552D01*
X159958956Y-58533543D01*
X159968921Y-58554613D01*
X159976773Y-58576557D01*
X159982437Y-58599166D01*
X159985856Y-58622221D01*
X159987000Y-58645500D01*
X159987000Y-59220500D01*
X159985856Y-59243779D01*
X159982437Y-59266834D01*
X159976773Y-59289443D01*
X159968921Y-59311387D01*
X159958956Y-59332457D01*
X159946974Y-59352448D01*
X159933090Y-59371168D01*
X159917438Y-59388438D01*
X159900168Y-59404090D01*
X159881448Y-59417974D01*
X159861457Y-59429956D01*
X159840387Y-59439921D01*
X159818443Y-59447773D01*
X159795834Y-59453437D01*
X159772779Y-59456856D01*
X159749500Y-59458000D01*
X159274500Y-59458000D01*
X159251221Y-59456856D01*
X159228166Y-59453437D01*
X159205557Y-59447773D01*
X159183613Y-59439921D01*
X159162543Y-59429956D01*
X159142552Y-59417974D01*
X159123832Y-59404090D01*
X159106562Y-59388438D01*
X159090910Y-59371168D01*
X159077026Y-59352448D01*
X159065044Y-59332457D01*
X159055079Y-59311387D01*
X159047227Y-59289443D01*
X159041563Y-59266834D01*
X159038144Y-59243779D01*
X159037000Y-59220500D01*
X159037000Y-58645500D01*
X159038144Y-58622221D01*
X159041563Y-58599166D01*
X159047227Y-58576557D01*
X159055079Y-58554613D01*
X159065044Y-58533543D01*
X159077026Y-58513552D01*
X159090910Y-58494832D01*
X159106562Y-58477562D01*
X159123832Y-58461910D01*
X159142552Y-58448026D01*
X159162543Y-58436044D01*
X159183613Y-58426079D01*
X159205557Y-58418227D01*
X159228166Y-58412563D01*
X159251221Y-58409144D01*
X159274500Y-58408000D01*
X159749500Y-58408000D01*
X159772779Y-58409144D01*
X159772779Y-58409144D01*
G37*
D38*
X159512000Y-58933000D03*
D26*
G36*
X159772779Y-60159144D02*
X159795834Y-60162563D01*
X159818443Y-60168227D01*
X159840387Y-60176079D01*
X159861457Y-60186044D01*
X159881448Y-60198026D01*
X159900168Y-60211910D01*
X159917438Y-60227562D01*
X159933090Y-60244832D01*
X159946974Y-60263552D01*
X159958956Y-60283543D01*
X159968921Y-60304613D01*
X159976773Y-60326557D01*
X159982437Y-60349166D01*
X159985856Y-60372221D01*
X159987000Y-60395500D01*
X159987000Y-60970500D01*
X159985856Y-60993779D01*
X159982437Y-61016834D01*
X159976773Y-61039443D01*
X159968921Y-61061387D01*
X159958956Y-61082457D01*
X159946974Y-61102448D01*
X159933090Y-61121168D01*
X159917438Y-61138438D01*
X159900168Y-61154090D01*
X159881448Y-61167974D01*
X159861457Y-61179956D01*
X159840387Y-61189921D01*
X159818443Y-61197773D01*
X159795834Y-61203437D01*
X159772779Y-61206856D01*
X159749500Y-61208000D01*
X159274500Y-61208000D01*
X159251221Y-61206856D01*
X159228166Y-61203437D01*
X159205557Y-61197773D01*
X159183613Y-61189921D01*
X159162543Y-61179956D01*
X159142552Y-61167974D01*
X159123832Y-61154090D01*
X159106562Y-61138438D01*
X159090910Y-61121168D01*
X159077026Y-61102448D01*
X159065044Y-61082457D01*
X159055079Y-61061387D01*
X159047227Y-61039443D01*
X159041563Y-61016834D01*
X159038144Y-60993779D01*
X159037000Y-60970500D01*
X159037000Y-60395500D01*
X159038144Y-60372221D01*
X159041563Y-60349166D01*
X159047227Y-60326557D01*
X159055079Y-60304613D01*
X159065044Y-60283543D01*
X159077026Y-60263552D01*
X159090910Y-60244832D01*
X159106562Y-60227562D01*
X159123832Y-60211910D01*
X159142552Y-60198026D01*
X159162543Y-60186044D01*
X159183613Y-60176079D01*
X159205557Y-60168227D01*
X159228166Y-60162563D01*
X159251221Y-60159144D01*
X159274500Y-60158000D01*
X159749500Y-60158000D01*
X159772779Y-60159144D01*
X159772779Y-60159144D01*
G37*
D38*
X159512000Y-60683000D03*
D26*
G36*
X156624779Y-111286144D02*
X156647834Y-111289563D01*
X156670443Y-111295227D01*
X156692387Y-111303079D01*
X156713457Y-111313044D01*
X156733448Y-111325026D01*
X156752168Y-111338910D01*
X156769438Y-111354562D01*
X156785090Y-111371832D01*
X156798974Y-111390552D01*
X156810956Y-111410543D01*
X156820921Y-111431613D01*
X156828773Y-111453557D01*
X156834437Y-111476166D01*
X156837856Y-111499221D01*
X156839000Y-111522500D01*
X156839000Y-111997500D01*
X156837856Y-112020779D01*
X156834437Y-112043834D01*
X156828773Y-112066443D01*
X156820921Y-112088387D01*
X156810956Y-112109457D01*
X156798974Y-112129448D01*
X156785090Y-112148168D01*
X156769438Y-112165438D01*
X156752168Y-112181090D01*
X156733448Y-112194974D01*
X156713457Y-112206956D01*
X156692387Y-112216921D01*
X156670443Y-112224773D01*
X156647834Y-112230437D01*
X156624779Y-112233856D01*
X156601500Y-112235000D01*
X156026500Y-112235000D01*
X156003221Y-112233856D01*
X155980166Y-112230437D01*
X155957557Y-112224773D01*
X155935613Y-112216921D01*
X155914543Y-112206956D01*
X155894552Y-112194974D01*
X155875832Y-112181090D01*
X155858562Y-112165438D01*
X155842910Y-112148168D01*
X155829026Y-112129448D01*
X155817044Y-112109457D01*
X155807079Y-112088387D01*
X155799227Y-112066443D01*
X155793563Y-112043834D01*
X155790144Y-112020779D01*
X155789000Y-111997500D01*
X155789000Y-111522500D01*
X155790144Y-111499221D01*
X155793563Y-111476166D01*
X155799227Y-111453557D01*
X155807079Y-111431613D01*
X155817044Y-111410543D01*
X155829026Y-111390552D01*
X155842910Y-111371832D01*
X155858562Y-111354562D01*
X155875832Y-111338910D01*
X155894552Y-111325026D01*
X155914543Y-111313044D01*
X155935613Y-111303079D01*
X155957557Y-111295227D01*
X155980166Y-111289563D01*
X156003221Y-111286144D01*
X156026500Y-111285000D01*
X156601500Y-111285000D01*
X156624779Y-111286144D01*
X156624779Y-111286144D01*
G37*
D38*
X156314000Y-111760000D03*
D26*
G36*
X154874779Y-111286144D02*
X154897834Y-111289563D01*
X154920443Y-111295227D01*
X154942387Y-111303079D01*
X154963457Y-111313044D01*
X154983448Y-111325026D01*
X155002168Y-111338910D01*
X155019438Y-111354562D01*
X155035090Y-111371832D01*
X155048974Y-111390552D01*
X155060956Y-111410543D01*
X155070921Y-111431613D01*
X155078773Y-111453557D01*
X155084437Y-111476166D01*
X155087856Y-111499221D01*
X155089000Y-111522500D01*
X155089000Y-111997500D01*
X155087856Y-112020779D01*
X155084437Y-112043834D01*
X155078773Y-112066443D01*
X155070921Y-112088387D01*
X155060956Y-112109457D01*
X155048974Y-112129448D01*
X155035090Y-112148168D01*
X155019438Y-112165438D01*
X155002168Y-112181090D01*
X154983448Y-112194974D01*
X154963457Y-112206956D01*
X154942387Y-112216921D01*
X154920443Y-112224773D01*
X154897834Y-112230437D01*
X154874779Y-112233856D01*
X154851500Y-112235000D01*
X154276500Y-112235000D01*
X154253221Y-112233856D01*
X154230166Y-112230437D01*
X154207557Y-112224773D01*
X154185613Y-112216921D01*
X154164543Y-112206956D01*
X154144552Y-112194974D01*
X154125832Y-112181090D01*
X154108562Y-112165438D01*
X154092910Y-112148168D01*
X154079026Y-112129448D01*
X154067044Y-112109457D01*
X154057079Y-112088387D01*
X154049227Y-112066443D01*
X154043563Y-112043834D01*
X154040144Y-112020779D01*
X154039000Y-111997500D01*
X154039000Y-111522500D01*
X154040144Y-111499221D01*
X154043563Y-111476166D01*
X154049227Y-111453557D01*
X154057079Y-111431613D01*
X154067044Y-111410543D01*
X154079026Y-111390552D01*
X154092910Y-111371832D01*
X154108562Y-111354562D01*
X154125832Y-111338910D01*
X154144552Y-111325026D01*
X154164543Y-111313044D01*
X154185613Y-111303079D01*
X154207557Y-111295227D01*
X154230166Y-111289563D01*
X154253221Y-111286144D01*
X154276500Y-111285000D01*
X154851500Y-111285000D01*
X154874779Y-111286144D01*
X154874779Y-111286144D01*
G37*
D38*
X154564000Y-111760000D03*
D26*
G36*
X174758779Y-105780144D02*
X174781834Y-105783563D01*
X174804443Y-105789227D01*
X174826387Y-105797079D01*
X174847457Y-105807044D01*
X174867448Y-105819026D01*
X174886168Y-105832910D01*
X174903438Y-105848562D01*
X174919090Y-105865832D01*
X174932974Y-105884552D01*
X174944956Y-105904543D01*
X174954921Y-105925613D01*
X174962773Y-105947557D01*
X174968437Y-105970166D01*
X174971856Y-105993221D01*
X174973000Y-106016500D01*
X174973000Y-106591500D01*
X174971856Y-106614779D01*
X174968437Y-106637834D01*
X174962773Y-106660443D01*
X174954921Y-106682387D01*
X174944956Y-106703457D01*
X174932974Y-106723448D01*
X174919090Y-106742168D01*
X174903438Y-106759438D01*
X174886168Y-106775090D01*
X174867448Y-106788974D01*
X174847457Y-106800956D01*
X174826387Y-106810921D01*
X174804443Y-106818773D01*
X174781834Y-106824437D01*
X174758779Y-106827856D01*
X174735500Y-106829000D01*
X174260500Y-106829000D01*
X174237221Y-106827856D01*
X174214166Y-106824437D01*
X174191557Y-106818773D01*
X174169613Y-106810921D01*
X174148543Y-106800956D01*
X174128552Y-106788974D01*
X174109832Y-106775090D01*
X174092562Y-106759438D01*
X174076910Y-106742168D01*
X174063026Y-106723448D01*
X174051044Y-106703457D01*
X174041079Y-106682387D01*
X174033227Y-106660443D01*
X174027563Y-106637834D01*
X174024144Y-106614779D01*
X174023000Y-106591500D01*
X174023000Y-106016500D01*
X174024144Y-105993221D01*
X174027563Y-105970166D01*
X174033227Y-105947557D01*
X174041079Y-105925613D01*
X174051044Y-105904543D01*
X174063026Y-105884552D01*
X174076910Y-105865832D01*
X174092562Y-105848562D01*
X174109832Y-105832910D01*
X174128552Y-105819026D01*
X174148543Y-105807044D01*
X174169613Y-105797079D01*
X174191557Y-105789227D01*
X174214166Y-105783563D01*
X174237221Y-105780144D01*
X174260500Y-105779000D01*
X174735500Y-105779000D01*
X174758779Y-105780144D01*
X174758779Y-105780144D01*
G37*
D38*
X174498000Y-106304000D03*
D26*
G36*
X174758779Y-107530144D02*
X174781834Y-107533563D01*
X174804443Y-107539227D01*
X174826387Y-107547079D01*
X174847457Y-107557044D01*
X174867448Y-107569026D01*
X174886168Y-107582910D01*
X174903438Y-107598562D01*
X174919090Y-107615832D01*
X174932974Y-107634552D01*
X174944956Y-107654543D01*
X174954921Y-107675613D01*
X174962773Y-107697557D01*
X174968437Y-107720166D01*
X174971856Y-107743221D01*
X174973000Y-107766500D01*
X174973000Y-108341500D01*
X174971856Y-108364779D01*
X174968437Y-108387834D01*
X174962773Y-108410443D01*
X174954921Y-108432387D01*
X174944956Y-108453457D01*
X174932974Y-108473448D01*
X174919090Y-108492168D01*
X174903438Y-108509438D01*
X174886168Y-108525090D01*
X174867448Y-108538974D01*
X174847457Y-108550956D01*
X174826387Y-108560921D01*
X174804443Y-108568773D01*
X174781834Y-108574437D01*
X174758779Y-108577856D01*
X174735500Y-108579000D01*
X174260500Y-108579000D01*
X174237221Y-108577856D01*
X174214166Y-108574437D01*
X174191557Y-108568773D01*
X174169613Y-108560921D01*
X174148543Y-108550956D01*
X174128552Y-108538974D01*
X174109832Y-108525090D01*
X174092562Y-108509438D01*
X174076910Y-108492168D01*
X174063026Y-108473448D01*
X174051044Y-108453457D01*
X174041079Y-108432387D01*
X174033227Y-108410443D01*
X174027563Y-108387834D01*
X174024144Y-108364779D01*
X174023000Y-108341500D01*
X174023000Y-107766500D01*
X174024144Y-107743221D01*
X174027563Y-107720166D01*
X174033227Y-107697557D01*
X174041079Y-107675613D01*
X174051044Y-107654543D01*
X174063026Y-107634552D01*
X174076910Y-107615832D01*
X174092562Y-107598562D01*
X174109832Y-107582910D01*
X174128552Y-107569026D01*
X174148543Y-107557044D01*
X174169613Y-107547079D01*
X174191557Y-107539227D01*
X174214166Y-107533563D01*
X174237221Y-107530144D01*
X174260500Y-107529000D01*
X174735500Y-107529000D01*
X174758779Y-107530144D01*
X174758779Y-107530144D01*
G37*
D38*
X174498000Y-108054000D03*
D26*
G36*
X172472779Y-105780144D02*
X172495834Y-105783563D01*
X172518443Y-105789227D01*
X172540387Y-105797079D01*
X172561457Y-105807044D01*
X172581448Y-105819026D01*
X172600168Y-105832910D01*
X172617438Y-105848562D01*
X172633090Y-105865832D01*
X172646974Y-105884552D01*
X172658956Y-105904543D01*
X172668921Y-105925613D01*
X172676773Y-105947557D01*
X172682437Y-105970166D01*
X172685856Y-105993221D01*
X172687000Y-106016500D01*
X172687000Y-106591500D01*
X172685856Y-106614779D01*
X172682437Y-106637834D01*
X172676773Y-106660443D01*
X172668921Y-106682387D01*
X172658956Y-106703457D01*
X172646974Y-106723448D01*
X172633090Y-106742168D01*
X172617438Y-106759438D01*
X172600168Y-106775090D01*
X172581448Y-106788974D01*
X172561457Y-106800956D01*
X172540387Y-106810921D01*
X172518443Y-106818773D01*
X172495834Y-106824437D01*
X172472779Y-106827856D01*
X172449500Y-106829000D01*
X171974500Y-106829000D01*
X171951221Y-106827856D01*
X171928166Y-106824437D01*
X171905557Y-106818773D01*
X171883613Y-106810921D01*
X171862543Y-106800956D01*
X171842552Y-106788974D01*
X171823832Y-106775090D01*
X171806562Y-106759438D01*
X171790910Y-106742168D01*
X171777026Y-106723448D01*
X171765044Y-106703457D01*
X171755079Y-106682387D01*
X171747227Y-106660443D01*
X171741563Y-106637834D01*
X171738144Y-106614779D01*
X171737000Y-106591500D01*
X171737000Y-106016500D01*
X171738144Y-105993221D01*
X171741563Y-105970166D01*
X171747227Y-105947557D01*
X171755079Y-105925613D01*
X171765044Y-105904543D01*
X171777026Y-105884552D01*
X171790910Y-105865832D01*
X171806562Y-105848562D01*
X171823832Y-105832910D01*
X171842552Y-105819026D01*
X171862543Y-105807044D01*
X171883613Y-105797079D01*
X171905557Y-105789227D01*
X171928166Y-105783563D01*
X171951221Y-105780144D01*
X171974500Y-105779000D01*
X172449500Y-105779000D01*
X172472779Y-105780144D01*
X172472779Y-105780144D01*
G37*
D38*
X172212000Y-106304000D03*
D26*
G36*
X172472779Y-107530144D02*
X172495834Y-107533563D01*
X172518443Y-107539227D01*
X172540387Y-107547079D01*
X172561457Y-107557044D01*
X172581448Y-107569026D01*
X172600168Y-107582910D01*
X172617438Y-107598562D01*
X172633090Y-107615832D01*
X172646974Y-107634552D01*
X172658956Y-107654543D01*
X172668921Y-107675613D01*
X172676773Y-107697557D01*
X172682437Y-107720166D01*
X172685856Y-107743221D01*
X172687000Y-107766500D01*
X172687000Y-108341500D01*
X172685856Y-108364779D01*
X172682437Y-108387834D01*
X172676773Y-108410443D01*
X172668921Y-108432387D01*
X172658956Y-108453457D01*
X172646974Y-108473448D01*
X172633090Y-108492168D01*
X172617438Y-108509438D01*
X172600168Y-108525090D01*
X172581448Y-108538974D01*
X172561457Y-108550956D01*
X172540387Y-108560921D01*
X172518443Y-108568773D01*
X172495834Y-108574437D01*
X172472779Y-108577856D01*
X172449500Y-108579000D01*
X171974500Y-108579000D01*
X171951221Y-108577856D01*
X171928166Y-108574437D01*
X171905557Y-108568773D01*
X171883613Y-108560921D01*
X171862543Y-108550956D01*
X171842552Y-108538974D01*
X171823832Y-108525090D01*
X171806562Y-108509438D01*
X171790910Y-108492168D01*
X171777026Y-108473448D01*
X171765044Y-108453457D01*
X171755079Y-108432387D01*
X171747227Y-108410443D01*
X171741563Y-108387834D01*
X171738144Y-108364779D01*
X171737000Y-108341500D01*
X171737000Y-107766500D01*
X171738144Y-107743221D01*
X171741563Y-107720166D01*
X171747227Y-107697557D01*
X171755079Y-107675613D01*
X171765044Y-107654543D01*
X171777026Y-107634552D01*
X171790910Y-107615832D01*
X171806562Y-107598562D01*
X171823832Y-107582910D01*
X171842552Y-107569026D01*
X171862543Y-107557044D01*
X171883613Y-107547079D01*
X171905557Y-107539227D01*
X171928166Y-107533563D01*
X171951221Y-107530144D01*
X171974500Y-107529000D01*
X172449500Y-107529000D01*
X172472779Y-107530144D01*
X172472779Y-107530144D01*
G37*
D38*
X172212000Y-108054000D03*
D13*
X69970000Y-133350000D03*
X69970000Y-128350000D03*
X69970000Y-108350000D03*
X77470000Y-108350000D03*
X77470000Y-128350000D03*
D14*
X77470000Y-133350000D03*
D13*
X86480000Y-133350000D03*
X86480000Y-128350000D03*
X86480000Y-108350000D03*
X93980000Y-108350000D03*
X93980000Y-128350000D03*
D14*
X93980000Y-133350000D03*
D13*
X102990000Y-133350000D03*
X102990000Y-128350000D03*
X102990000Y-108350000D03*
X110490000Y-108350000D03*
X110490000Y-128350000D03*
D14*
X110490000Y-133350000D03*
D13*
X119754000Y-133350000D03*
X119754000Y-128350000D03*
X119754000Y-108350000D03*
X127254000Y-108350000D03*
X127254000Y-128350000D03*
D14*
X127254000Y-133350000D03*
D12*
X127700000Y-72100000D03*
X132700000Y-72100000D03*
X127700000Y-67100000D03*
X132700000Y-67100000D03*
X97700000Y-72100000D03*
X102700000Y-72100000D03*
X97700000Y-67100000D03*
X102700000Y-67100000D03*
X67700000Y-72100000D03*
X72700000Y-72100000D03*
X67700000Y-67100000D03*
X72700000Y-67100000D03*
X52700000Y-72100000D03*
X57700000Y-72100000D03*
X52700000Y-67100000D03*
X57700000Y-67100000D03*
D41*
X189704000Y-80135000D03*
X189704000Y-81405000D03*
X189704000Y-82675000D03*
X189704000Y-83945000D03*
X189704000Y-85215000D03*
X189704000Y-86485000D03*
X189704000Y-87755000D03*
X189704000Y-89025000D03*
X189704000Y-90295000D03*
X189704000Y-91565000D03*
X189704000Y-92835000D03*
X189704000Y-94105000D03*
X189704000Y-95375000D03*
X189704000Y-96645000D03*
D42*
X186419000Y-98135000D03*
X185149000Y-98135000D03*
X183879000Y-98135000D03*
X182609000Y-98135000D03*
X181339000Y-98135000D03*
X180069000Y-98135000D03*
X178799000Y-98135000D03*
X177529000Y-98135000D03*
X176259000Y-98135000D03*
X174989000Y-98135000D03*
D41*
X171704000Y-96645000D03*
X171704000Y-95375000D03*
X171704000Y-94105000D03*
X171704000Y-92835000D03*
X171704000Y-91565000D03*
X171704000Y-90295000D03*
X171704000Y-89025000D03*
X171704000Y-87755000D03*
X171704000Y-86485000D03*
X171704000Y-85215000D03*
X171704000Y-83945000D03*
X171704000Y-82675000D03*
X171704000Y-81405000D03*
X171704000Y-80135000D03*
D43*
X180404000Y-87835000D03*
D44*
X196435500Y-84256500D03*
X196435500Y-83256500D03*
X195135500Y-83756500D03*
D26*
G36*
X192969779Y-80933144D02*
X192992834Y-80936563D01*
X193015443Y-80942227D01*
X193037387Y-80950079D01*
X193058457Y-80960044D01*
X193078448Y-80972026D01*
X193097168Y-80985910D01*
X193114438Y-81001562D01*
X193130090Y-81018832D01*
X193143974Y-81037552D01*
X193155956Y-81057543D01*
X193165921Y-81078613D01*
X193173773Y-81100557D01*
X193179437Y-81123166D01*
X193182856Y-81146221D01*
X193184000Y-81169500D01*
X193184000Y-81644500D01*
X193182856Y-81667779D01*
X193179437Y-81690834D01*
X193173773Y-81713443D01*
X193165921Y-81735387D01*
X193155956Y-81756457D01*
X193143974Y-81776448D01*
X193130090Y-81795168D01*
X193114438Y-81812438D01*
X193097168Y-81828090D01*
X193078448Y-81841974D01*
X193058457Y-81853956D01*
X193037387Y-81863921D01*
X193015443Y-81871773D01*
X192992834Y-81877437D01*
X192969779Y-81880856D01*
X192946500Y-81882000D01*
X192371500Y-81882000D01*
X192348221Y-81880856D01*
X192325166Y-81877437D01*
X192302557Y-81871773D01*
X192280613Y-81863921D01*
X192259543Y-81853956D01*
X192239552Y-81841974D01*
X192220832Y-81828090D01*
X192203562Y-81812438D01*
X192187910Y-81795168D01*
X192174026Y-81776448D01*
X192162044Y-81756457D01*
X192152079Y-81735387D01*
X192144227Y-81713443D01*
X192138563Y-81690834D01*
X192135144Y-81667779D01*
X192134000Y-81644500D01*
X192134000Y-81169500D01*
X192135144Y-81146221D01*
X192138563Y-81123166D01*
X192144227Y-81100557D01*
X192152079Y-81078613D01*
X192162044Y-81057543D01*
X192174026Y-81037552D01*
X192187910Y-81018832D01*
X192203562Y-81001562D01*
X192220832Y-80985910D01*
X192239552Y-80972026D01*
X192259543Y-80960044D01*
X192280613Y-80950079D01*
X192302557Y-80942227D01*
X192325166Y-80936563D01*
X192348221Y-80933144D01*
X192371500Y-80932000D01*
X192946500Y-80932000D01*
X192969779Y-80933144D01*
X192969779Y-80933144D01*
G37*
D38*
X192659000Y-81407000D03*
D26*
G36*
X194719779Y-80933144D02*
X194742834Y-80936563D01*
X194765443Y-80942227D01*
X194787387Y-80950079D01*
X194808457Y-80960044D01*
X194828448Y-80972026D01*
X194847168Y-80985910D01*
X194864438Y-81001562D01*
X194880090Y-81018832D01*
X194893974Y-81037552D01*
X194905956Y-81057543D01*
X194915921Y-81078613D01*
X194923773Y-81100557D01*
X194929437Y-81123166D01*
X194932856Y-81146221D01*
X194934000Y-81169500D01*
X194934000Y-81644500D01*
X194932856Y-81667779D01*
X194929437Y-81690834D01*
X194923773Y-81713443D01*
X194915921Y-81735387D01*
X194905956Y-81756457D01*
X194893974Y-81776448D01*
X194880090Y-81795168D01*
X194864438Y-81812438D01*
X194847168Y-81828090D01*
X194828448Y-81841974D01*
X194808457Y-81853956D01*
X194787387Y-81863921D01*
X194765443Y-81871773D01*
X194742834Y-81877437D01*
X194719779Y-81880856D01*
X194696500Y-81882000D01*
X194121500Y-81882000D01*
X194098221Y-81880856D01*
X194075166Y-81877437D01*
X194052557Y-81871773D01*
X194030613Y-81863921D01*
X194009543Y-81853956D01*
X193989552Y-81841974D01*
X193970832Y-81828090D01*
X193953562Y-81812438D01*
X193937910Y-81795168D01*
X193924026Y-81776448D01*
X193912044Y-81756457D01*
X193902079Y-81735387D01*
X193894227Y-81713443D01*
X193888563Y-81690834D01*
X193885144Y-81667779D01*
X193884000Y-81644500D01*
X193884000Y-81169500D01*
X193885144Y-81146221D01*
X193888563Y-81123166D01*
X193894227Y-81100557D01*
X193902079Y-81078613D01*
X193912044Y-81057543D01*
X193924026Y-81037552D01*
X193937910Y-81018832D01*
X193953562Y-81001562D01*
X193970832Y-80985910D01*
X193989552Y-80972026D01*
X194009543Y-80960044D01*
X194030613Y-80950079D01*
X194052557Y-80942227D01*
X194075166Y-80936563D01*
X194098221Y-80933144D01*
X194121500Y-80932000D01*
X194696500Y-80932000D01*
X194719779Y-80933144D01*
X194719779Y-80933144D01*
G37*
D38*
X194409000Y-81407000D03*
D26*
G36*
X193173779Y-123428144D02*
X193196834Y-123431563D01*
X193219443Y-123437227D01*
X193241387Y-123445079D01*
X193262457Y-123455044D01*
X193282448Y-123467026D01*
X193301168Y-123480910D01*
X193318438Y-123496562D01*
X193334090Y-123513832D01*
X193347974Y-123532552D01*
X193359956Y-123552543D01*
X193369921Y-123573613D01*
X193377773Y-123595557D01*
X193383437Y-123618166D01*
X193386856Y-123641221D01*
X193388000Y-123664500D01*
X193388000Y-124239500D01*
X193386856Y-124262779D01*
X193383437Y-124285834D01*
X193377773Y-124308443D01*
X193369921Y-124330387D01*
X193359956Y-124351457D01*
X193347974Y-124371448D01*
X193334090Y-124390168D01*
X193318438Y-124407438D01*
X193301168Y-124423090D01*
X193282448Y-124436974D01*
X193262457Y-124448956D01*
X193241387Y-124458921D01*
X193219443Y-124466773D01*
X193196834Y-124472437D01*
X193173779Y-124475856D01*
X193150500Y-124477000D01*
X192675500Y-124477000D01*
X192652221Y-124475856D01*
X192629166Y-124472437D01*
X192606557Y-124466773D01*
X192584613Y-124458921D01*
X192563543Y-124448956D01*
X192543552Y-124436974D01*
X192524832Y-124423090D01*
X192507562Y-124407438D01*
X192491910Y-124390168D01*
X192478026Y-124371448D01*
X192466044Y-124351457D01*
X192456079Y-124330387D01*
X192448227Y-124308443D01*
X192442563Y-124285834D01*
X192439144Y-124262779D01*
X192438000Y-124239500D01*
X192438000Y-123664500D01*
X192439144Y-123641221D01*
X192442563Y-123618166D01*
X192448227Y-123595557D01*
X192456079Y-123573613D01*
X192466044Y-123552543D01*
X192478026Y-123532552D01*
X192491910Y-123513832D01*
X192507562Y-123496562D01*
X192524832Y-123480910D01*
X192543552Y-123467026D01*
X192563543Y-123455044D01*
X192584613Y-123445079D01*
X192606557Y-123437227D01*
X192629166Y-123431563D01*
X192652221Y-123428144D01*
X192675500Y-123427000D01*
X193150500Y-123427000D01*
X193173779Y-123428144D01*
X193173779Y-123428144D01*
G37*
D38*
X192913000Y-123952000D03*
D26*
G36*
X193173779Y-125178144D02*
X193196834Y-125181563D01*
X193219443Y-125187227D01*
X193241387Y-125195079D01*
X193262457Y-125205044D01*
X193282448Y-125217026D01*
X193301168Y-125230910D01*
X193318438Y-125246562D01*
X193334090Y-125263832D01*
X193347974Y-125282552D01*
X193359956Y-125302543D01*
X193369921Y-125323613D01*
X193377773Y-125345557D01*
X193383437Y-125368166D01*
X193386856Y-125391221D01*
X193388000Y-125414500D01*
X193388000Y-125989500D01*
X193386856Y-126012779D01*
X193383437Y-126035834D01*
X193377773Y-126058443D01*
X193369921Y-126080387D01*
X193359956Y-126101457D01*
X193347974Y-126121448D01*
X193334090Y-126140168D01*
X193318438Y-126157438D01*
X193301168Y-126173090D01*
X193282448Y-126186974D01*
X193262457Y-126198956D01*
X193241387Y-126208921D01*
X193219443Y-126216773D01*
X193196834Y-126222437D01*
X193173779Y-126225856D01*
X193150500Y-126227000D01*
X192675500Y-126227000D01*
X192652221Y-126225856D01*
X192629166Y-126222437D01*
X192606557Y-126216773D01*
X192584613Y-126208921D01*
X192563543Y-126198956D01*
X192543552Y-126186974D01*
X192524832Y-126173090D01*
X192507562Y-126157438D01*
X192491910Y-126140168D01*
X192478026Y-126121448D01*
X192466044Y-126101457D01*
X192456079Y-126080387D01*
X192448227Y-126058443D01*
X192442563Y-126035834D01*
X192439144Y-126012779D01*
X192438000Y-125989500D01*
X192438000Y-125414500D01*
X192439144Y-125391221D01*
X192442563Y-125368166D01*
X192448227Y-125345557D01*
X192456079Y-125323613D01*
X192466044Y-125302543D01*
X192478026Y-125282552D01*
X192491910Y-125263832D01*
X192507562Y-125246562D01*
X192524832Y-125230910D01*
X192543552Y-125217026D01*
X192563543Y-125205044D01*
X192584613Y-125195079D01*
X192606557Y-125187227D01*
X192629166Y-125181563D01*
X192652221Y-125178144D01*
X192675500Y-125177000D01*
X193150500Y-125177000D01*
X193173779Y-125178144D01*
X193173779Y-125178144D01*
G37*
D38*
X192913000Y-125702000D03*
D40*
X193040000Y-135001000D03*
D39*
X198040000Y-135001000D03*
D45*
X115062000Y-83820000D03*
X156591003Y-81025997D03*
X192659012Y-80010000D03*
X175006000Y-100203000D03*
X174117000Y-80010000D03*
X160020000Y-109220000D03*
X161290000Y-60325000D03*
X103504984Y-95250000D03*
X120015000Y-95885002D03*
X179895500Y-65976500D03*
X184912000Y-65976500D03*
X186055000Y-103505000D03*
X160575969Y-88104241D03*
X156083000Y-88025210D03*
X189230000Y-103505000D03*
X179895500Y-60960000D03*
X175006000Y-62865000D03*
X186944000Y-88900000D03*
X179895500Y-62230000D03*
X186817000Y-82550000D03*
X179895500Y-64706500D03*
X186817000Y-86360000D03*
X179895500Y-63436500D03*
X161820643Y-108054357D03*
X163195000Y-106680000D03*
X177165000Y-102235000D03*
X186055000Y-100965000D03*
X189230000Y-100965000D03*
X175006000Y-102235000D03*
X192277972Y-92710000D03*
X192278006Y-97917000D03*
X187325000Y-93980000D03*
X186055000Y-102235000D03*
X155003500Y-91186002D03*
X144970500Y-91186000D03*
X155003500Y-93090994D03*
X143700500Y-93091000D03*
X155003500Y-94995998D03*
X142748000Y-94932500D03*
X155003500Y-96901010D03*
X142748000Y-96901000D03*
X155003500Y-98806010D03*
X143700500Y-98806000D03*
X155003500Y-100711016D03*
X144970500Y-100711000D03*
X193294000Y-105410000D03*
X193294000Y-95250000D03*
D46*
X97795000Y-86365000D02*
X97155000Y-85725000D01*
X102690000Y-86365000D02*
X97795000Y-86365000D01*
X157742979Y-117809195D02*
X156472979Y-117809195D01*
X202565000Y-90170000D02*
X202819000Y-90424000D01*
X115062000Y-83927000D02*
X115062000Y-83820000D01*
X116840000Y-86405000D02*
X116840000Y-85705000D01*
X116840000Y-85705000D02*
X115062000Y-83927000D01*
X156472979Y-114308979D02*
X156464000Y-114300000D01*
X156472979Y-117809195D02*
X156472979Y-114308979D01*
X156464000Y-111760000D02*
X156464000Y-114300000D01*
X194310000Y-109347000D02*
X202819000Y-109347000D01*
X164404000Y-91440000D02*
X161798000Y-91440000D01*
X161798000Y-91440000D02*
X156591003Y-86233003D01*
X156591003Y-86233003D02*
X156591003Y-81025997D01*
X156591006Y-81026000D02*
X156591003Y-81025997D01*
X160782000Y-81026000D02*
X156591006Y-81026000D01*
X171704000Y-80010000D02*
X161798000Y-80010000D01*
X161798000Y-80010000D02*
X160782000Y-81026000D01*
X171704000Y-80010000D02*
X174117000Y-80010000D01*
X174117000Y-80010000D02*
X189704000Y-80010000D01*
X185894000Y-80010000D02*
X192659012Y-80010000D01*
X156464000Y-111760000D02*
X156464000Y-109220000D01*
X175006000Y-99568000D02*
X174989000Y-98010000D01*
X175006000Y-100203000D02*
X175006000Y-99568000D01*
X160020000Y-109220000D02*
X158115000Y-109220010D01*
X156464000Y-109220000D02*
X160020000Y-109220000D01*
X161290000Y-60325000D02*
X163420000Y-60325000D01*
X163420000Y-59055000D02*
X163420000Y-60325000D01*
X163420000Y-60325000D02*
X163420000Y-61595000D01*
X164465000Y-67945000D02*
X163420000Y-67945000D01*
X164846000Y-67564000D02*
X164465000Y-67945000D01*
X164846000Y-61976000D02*
X164846000Y-67564000D01*
X163420000Y-61595000D02*
X164465000Y-61595000D01*
X164465000Y-61595000D02*
X164846000Y-61976000D01*
X91694000Y-85725000D02*
X97155000Y-85725000D01*
X88773000Y-82804000D02*
X91694000Y-85725000D01*
X103555000Y-95300016D02*
X103504984Y-95250000D01*
X116840000Y-97835000D02*
X115887600Y-97835000D01*
X103555000Y-97415000D02*
X103555000Y-95300016D01*
X113302600Y-95250000D02*
X103504984Y-95250000D01*
X115887600Y-97835000D02*
X113302600Y-95250000D01*
X102235000Y-95250000D02*
X103504984Y-95250000D01*
X97155000Y-97155000D02*
X100330000Y-97155000D01*
X100330000Y-97155000D02*
X102235000Y-95250000D01*
X116840000Y-88057400D02*
X120015000Y-91232400D01*
X118110002Y-97790000D02*
X120015000Y-95885002D01*
X116840000Y-97790000D02*
X118110002Y-97790000D01*
X120015000Y-91232400D02*
X120015000Y-95885002D01*
X116840000Y-86405000D02*
X116840000Y-88057400D01*
X195711701Y-83582701D02*
X195711701Y-81157701D01*
X196435500Y-84256500D02*
X196385500Y-84256500D01*
X196385500Y-84256500D02*
X195711701Y-83582701D01*
X194564000Y-80010000D02*
X192659012Y-80010000D01*
X195711701Y-81157701D02*
X194564000Y-80010000D01*
X102690000Y-88645000D02*
X108990000Y-88645000D01*
X111150000Y-90805000D02*
X108990000Y-88645000D01*
X116840000Y-90805000D02*
X111150000Y-90805000D01*
X108990000Y-83415000D02*
X108990000Y-88645000D01*
X109982000Y-82423000D02*
X108990000Y-83415000D01*
X121285000Y-83185000D02*
X120523000Y-82423000D01*
X120523000Y-82423000D02*
X109982000Y-82423000D01*
X144653000Y-84328000D02*
X144780000Y-84328000D01*
X142748000Y-82423000D02*
X144653000Y-84328000D01*
X122047000Y-82423000D02*
X142748000Y-82423000D01*
X121270620Y-83199380D02*
X122047000Y-82423000D01*
X123825000Y-95885000D02*
X121270620Y-93330620D01*
X121270620Y-93330620D02*
X121270620Y-83199380D01*
X144780000Y-86233000D02*
X144780000Y-84328000D01*
X145288000Y-86741000D02*
X144780000Y-86233000D01*
X161671000Y-106807000D02*
X161671000Y-92329000D01*
X161671000Y-92329000D02*
X156083000Y-86741000D01*
X156083000Y-86741000D02*
X145288000Y-86741000D01*
X164338000Y-109474000D02*
X161671000Y-106807000D01*
X184796589Y-111644589D02*
X182626000Y-109474000D01*
X155720000Y-58002600D02*
X155720000Y-59055000D01*
X155720000Y-58002600D02*
X156132600Y-57590000D01*
X172720000Y-58602600D02*
X172720000Y-59055000D01*
X171707400Y-57590000D02*
X172720000Y-58602600D01*
X156132600Y-57590000D02*
X171707400Y-57590000D01*
X155307400Y-57590000D02*
X131080000Y-57590000D01*
X155720000Y-58002600D02*
X155307400Y-57590000D01*
X130720000Y-59055000D02*
X130720000Y-58002600D01*
X131080000Y-57642600D02*
X131080000Y-57590000D01*
X130720000Y-58002600D02*
X131080000Y-57642600D01*
X100720000Y-59590000D02*
X100720000Y-59955000D01*
X115680000Y-60590000D02*
X115680000Y-61090000D01*
X115680000Y-59630000D02*
X115720000Y-59590000D01*
X115680000Y-61090000D02*
X115680000Y-59630000D01*
X100720000Y-59955000D02*
X100680000Y-59995000D01*
X100680000Y-59995000D02*
X100680000Y-61590000D01*
X70680000Y-59590000D02*
X70680000Y-61590000D01*
X70720000Y-59590000D02*
X70680000Y-59590000D01*
X85680000Y-59995000D02*
X85680000Y-61590000D01*
X85720000Y-59590000D02*
X85720000Y-59955000D01*
X85720000Y-59955000D02*
X85680000Y-59995000D01*
X56180000Y-61590000D02*
X100680000Y-61590000D01*
X55680000Y-61090000D02*
X56180000Y-61590000D01*
X55720000Y-59590000D02*
X55680000Y-59630000D01*
X55680000Y-59630000D02*
X55680000Y-61090000D01*
X115680000Y-61590000D02*
X115680000Y-61090000D01*
X100680000Y-61590000D02*
X115680000Y-61590000D01*
X130680000Y-59630000D02*
X130720000Y-59590000D01*
X130680000Y-61090000D02*
X130680000Y-59630000D01*
X115680000Y-61590000D02*
X130180000Y-61590000D01*
X130180000Y-61590000D02*
X130680000Y-61090000D01*
X182626000Y-109474000D02*
X172212000Y-109474000D01*
X172212000Y-109474000D02*
X164338000Y-109474000D01*
X172230000Y-109456000D02*
X172212000Y-109474000D01*
X172212000Y-108204000D02*
X172212000Y-109474000D01*
X188479589Y-111644589D02*
X191389000Y-114554000D01*
X184796589Y-111644589D02*
X188479589Y-111644589D01*
X152908000Y-110876000D02*
X154564000Y-109220000D01*
X152908000Y-115856816D02*
X152908000Y-110876000D01*
X153932979Y-117809195D02*
X153932979Y-116881795D01*
X153932979Y-116881795D02*
X152908000Y-115856816D01*
X156342000Y-107442000D02*
X154564000Y-109220000D01*
X161036000Y-107442000D02*
X156342000Y-107442000D01*
X161671000Y-106807000D02*
X161036000Y-107442000D01*
X191516000Y-114427000D02*
X191389000Y-114554000D01*
X202819000Y-114427000D02*
X191516000Y-114427000D01*
X202819000Y-125603000D02*
X194945000Y-125603000D01*
X194945000Y-125603000D02*
X194564000Y-125984000D01*
X193195000Y-123952000D02*
X192913000Y-123952000D01*
X194945000Y-125702000D02*
X193195000Y-123952000D01*
X192913000Y-123952000D02*
X191389000Y-123952000D01*
X191389000Y-114554000D02*
X191389000Y-123952000D01*
X193021000Y-128759000D02*
X193021000Y-135001000D01*
X191389000Y-123952000D02*
X191389000Y-127127000D01*
X191389000Y-127127000D02*
X193021000Y-128759000D01*
X142741161Y-77214939D02*
X142733799Y-82408799D01*
X142733799Y-77207577D02*
X142741161Y-77214939D01*
X142733799Y-76462423D02*
X142733799Y-77207577D01*
X142742239Y-76453983D02*
X142733799Y-76462423D01*
X142742239Y-73430993D02*
X142742239Y-76453983D01*
X179895500Y-67627500D02*
X177180589Y-70342411D01*
X179895500Y-65976500D02*
X179895500Y-67627500D01*
X177180589Y-70342411D02*
X158157589Y-70342411D01*
X158157589Y-70342411D02*
X157400000Y-71100000D01*
X157400000Y-71100000D02*
X145073232Y-71100000D01*
X145073232Y-71100000D02*
X142742239Y-73430993D01*
X179139278Y-59055000D02*
X172720000Y-59055000D01*
X184086500Y-64002222D02*
X179139278Y-59055000D01*
X184086500Y-64008000D02*
X184086500Y-64002222D01*
X184912000Y-65976500D02*
X184912000Y-64833500D01*
X184912000Y-64833500D02*
X184086500Y-64008000D01*
X194310000Y-111887000D02*
X202819000Y-111887000D01*
X102870000Y-99695000D02*
X109170000Y-99695000D01*
X111710000Y-102235000D02*
X109170000Y-99695000D01*
X116840000Y-102235000D02*
X111710000Y-102235000D01*
X126365000Y-93980000D02*
X123825000Y-91440000D01*
X118364000Y-102235000D02*
X122555000Y-98044000D01*
X122555000Y-98044000D02*
X125476000Y-98044000D01*
X125476000Y-98044000D02*
X126365000Y-97155000D01*
X126365000Y-97155000D02*
X126365000Y-93980000D01*
X116840000Y-102235000D02*
X118364000Y-102235000D01*
X158623000Y-82804000D02*
X158369000Y-83058000D01*
X158369000Y-83058000D02*
X161671000Y-83058000D01*
X181356000Y-108204000D02*
X186055000Y-103505000D01*
X158369000Y-83058000D02*
X158369000Y-85852000D01*
X158369000Y-85852000D02*
X160598605Y-88081605D01*
X160598605Y-88081605D02*
X160575969Y-88104241D01*
X155375894Y-88025210D02*
X156083000Y-88025210D01*
X132969000Y-88011000D02*
X155375894Y-88025210D01*
X123825000Y-91440000D02*
X129540000Y-91440000D01*
X129540000Y-91440000D02*
X132969000Y-88011000D01*
X189738000Y-102997000D02*
X189230000Y-103505000D01*
X202819000Y-103124000D02*
X202692000Y-102997000D01*
X202692000Y-102997000D02*
X189738000Y-102997000D01*
X163449000Y-83058000D02*
X161671000Y-83058000D01*
X165100000Y-81407000D02*
X163449000Y-83058000D01*
X171577000Y-81407000D02*
X165100000Y-81407000D01*
X171704000Y-81280000D02*
X171577000Y-81407000D01*
X189230000Y-103505000D02*
X187734588Y-102009588D01*
X187734588Y-96558204D02*
X185137411Y-93961027D01*
X187734588Y-102009588D02*
X187734588Y-96558204D01*
X185137411Y-93961027D02*
X185137411Y-83537411D01*
X185137411Y-83537411D02*
X182880000Y-81280000D01*
X182880000Y-81280000D02*
X171704000Y-81280000D01*
X174648000Y-108204000D02*
X174498000Y-108054000D01*
X179070000Y-108204000D02*
X174648000Y-108204000D01*
X181356000Y-108204000D02*
X179070000Y-108204000D01*
X96773994Y-94361006D02*
X94615000Y-94361006D01*
X97790000Y-93345000D02*
X96773994Y-94361006D01*
X102690000Y-90925000D02*
X97790000Y-90925000D01*
X97790000Y-90925000D02*
X97790000Y-93345000D01*
X94615000Y-99060000D02*
X94615000Y-94361006D01*
X95250000Y-99695000D02*
X94615000Y-99060000D01*
X97155000Y-99695000D02*
X95250000Y-99695000D01*
X97790000Y-100330000D02*
X97155000Y-99695000D01*
X119380000Y-104775000D02*
X104140000Y-104775000D01*
X123825000Y-100330000D02*
X119380000Y-104775000D01*
X104140000Y-104775000D02*
X103505000Y-104140000D01*
X103505000Y-104140000D02*
X103505000Y-101975000D01*
X103505000Y-101975000D02*
X97735000Y-101975000D01*
X97790000Y-101920000D02*
X97790000Y-100330000D01*
X97735000Y-101975000D02*
X97790000Y-101920000D01*
X148083500Y-95969000D02*
X144183500Y-95969000D01*
X160655000Y-96774000D02*
X160274000Y-97155000D01*
X160655000Y-91821000D02*
X160655000Y-96774000D01*
X159004000Y-91440000D02*
X160274000Y-91440000D01*
X160274000Y-91440000D02*
X160655000Y-91821000D01*
X83820000Y-82931000D02*
X83693000Y-82804000D01*
X83820000Y-93345000D02*
X83820000Y-82931000D01*
X93598994Y-93345000D02*
X94615000Y-94361006D01*
X83820000Y-93345000D02*
X93598994Y-93345000D01*
X160655000Y-97536000D02*
X160655000Y-100965000D01*
X160274000Y-97155000D02*
X160655000Y-97536000D01*
X160655000Y-100965000D02*
X153416000Y-108204000D01*
X153416000Y-108204000D02*
X153270000Y-108350000D01*
X53467000Y-108343000D02*
X53460000Y-108350000D01*
X53467000Y-106426000D02*
X53467000Y-108343000D01*
X54835411Y-105057589D02*
X53467000Y-106426000D01*
X83820000Y-93345000D02*
X72989948Y-105057589D01*
X72989948Y-105057589D02*
X54835411Y-105057589D01*
X54709999Y-109599999D02*
X53460000Y-108350000D01*
X55600000Y-110490000D02*
X54709999Y-109599999D01*
X69970000Y-108350000D02*
X67830000Y-110490000D01*
X67830000Y-110490000D02*
X55600000Y-110490000D01*
X71219999Y-109599999D02*
X69970000Y-108350000D01*
X72110000Y-110490000D02*
X71219999Y-109599999D01*
X84455000Y-110490000D02*
X72110000Y-110490000D01*
X86480000Y-108350000D02*
X86480000Y-108465000D01*
X86480000Y-108465000D02*
X84455000Y-110490000D01*
X87729999Y-109599999D02*
X86480000Y-108350000D01*
X88620000Y-110490000D02*
X87729999Y-109599999D01*
X100965000Y-110490000D02*
X88620000Y-110490000D01*
X102990000Y-108350000D02*
X102990000Y-108465000D01*
X102990000Y-108465000D02*
X100965000Y-110490000D01*
X104239999Y-109599999D02*
X102990000Y-108350000D01*
X105130000Y-110490000D02*
X104239999Y-109599999D01*
X117475000Y-110490000D02*
X105130000Y-110490000D01*
X119754000Y-108350000D02*
X119615000Y-108350000D01*
X119615000Y-108350000D02*
X117475000Y-110490000D01*
X121003999Y-109599999D02*
X119754000Y-108350000D01*
X121894000Y-110490000D02*
X121003999Y-109599999D01*
X134620000Y-110490000D02*
X121894000Y-110490000D01*
X136525000Y-108350000D02*
X136525000Y-108585000D01*
X136525000Y-108585000D02*
X134620000Y-110490000D01*
X151130000Y-110490000D02*
X153416000Y-108204000D01*
X136525000Y-108585000D02*
X138430000Y-110490000D01*
X138430000Y-110490000D02*
X151130000Y-110490000D01*
X156400500Y-97155000D02*
X160274000Y-97155000D01*
X148083500Y-95969000D02*
X155214500Y-95969000D01*
X155214500Y-95969000D02*
X156400500Y-97155000D01*
X156476420Y-123190000D02*
X157734000Y-123190000D01*
D47*
X170180000Y-120255000D02*
X166780000Y-120255000D01*
X163845000Y-123190000D02*
X166780000Y-120255000D01*
X157099000Y-123190000D02*
X163845000Y-123190000D01*
D46*
X128180000Y-59590000D02*
X116990000Y-59590000D01*
X113180000Y-59590000D02*
X101990000Y-59590000D01*
X98180000Y-59590000D02*
X86990000Y-59590000D01*
X83180000Y-59590000D02*
X71990000Y-59590000D01*
X68180000Y-59590000D02*
X56990000Y-59590000D01*
X177004000Y-107188000D02*
X177070000Y-107254000D01*
X173482000Y-107188000D02*
X177004000Y-107188000D01*
X172448000Y-106154000D02*
X173482000Y-107188000D01*
X149860000Y-84328000D02*
X154168382Y-84328000D01*
X162023410Y-92183026D02*
X162023411Y-106657189D01*
X154168382Y-84328000D02*
X162023410Y-92183026D01*
X162023411Y-106657189D02*
X162822423Y-107456201D01*
X162822423Y-107456201D02*
X169784799Y-107456201D01*
X171087000Y-106154000D02*
X172448000Y-106154000D01*
X169784799Y-107456201D02*
X171087000Y-106154000D01*
X146543799Y-79233799D02*
X148590000Y-81280000D01*
X146543799Y-73056201D02*
X146543799Y-79233799D01*
X148590000Y-81280000D02*
X148590000Y-83058000D01*
X146923485Y-72676515D02*
X146543799Y-73056201D01*
X181991000Y-63055500D02*
X181991000Y-67564000D01*
X179895500Y-60960000D02*
X181991000Y-63055500D01*
X181991000Y-67564000D02*
X177565000Y-71990000D01*
X177565000Y-71990000D02*
X158910000Y-71990000D01*
X148590000Y-83058000D02*
X149860000Y-84328000D01*
X158910000Y-71990000D02*
X158223485Y-72676515D01*
X158223485Y-72676515D02*
X146923485Y-72676515D01*
X160673000Y-58783000D02*
X159512000Y-58783000D01*
X161290000Y-58166000D02*
X160673000Y-58783000D01*
X167132000Y-58166000D02*
X161290000Y-58166000D01*
X168656000Y-59690000D02*
X167132000Y-58166000D01*
X179895500Y-60960000D02*
X178625500Y-59690000D01*
X178625500Y-59690000D02*
X168656000Y-59690000D01*
X172847000Y-62865000D02*
X175006000Y-62865000D01*
X189704000Y-88900000D02*
X186944000Y-88900000D01*
X181546500Y-67510116D02*
X181546500Y-63881000D01*
X181546500Y-63881000D02*
X179895500Y-62230000D01*
X177466616Y-71590000D02*
X181546500Y-67510116D01*
X158710000Y-71590000D02*
X177466616Y-71590000D01*
X147320000Y-81788000D02*
X147320000Y-80518000D01*
X147320000Y-80518000D02*
X146191201Y-79389201D01*
X146191201Y-79389201D02*
X146191201Y-72808799D01*
X146191201Y-72808799D02*
X146700000Y-72300000D01*
X146700000Y-72300000D02*
X158000000Y-72300000D01*
X158000000Y-72300000D02*
X158710000Y-71590000D01*
X133799999Y-71000001D02*
X132700000Y-72100000D01*
X169672000Y-67945000D02*
X167627000Y-69990000D01*
X167627000Y-69990000D02*
X157910000Y-69990000D01*
X172720000Y-67945000D02*
X169672000Y-67945000D01*
X157910000Y-69990000D02*
X157200000Y-70700000D01*
X157200000Y-70700000D02*
X134100000Y-70700000D01*
X134100000Y-70700000D02*
X133799999Y-71000001D01*
X171817600Y-66675000D02*
X172720000Y-66675000D01*
X119500000Y-70300000D02*
X157100000Y-70300000D01*
X157100000Y-70300000D02*
X157800360Y-69599640D01*
X157800360Y-69599640D02*
X167509360Y-69599640D01*
X117700000Y-72100000D02*
X119500000Y-70300000D01*
X167509360Y-69599640D02*
X170434000Y-66675000D01*
X170434000Y-66675000D02*
X171817600Y-66675000D01*
X162517600Y-62865000D02*
X163420000Y-62865000D01*
X156682600Y-68700000D02*
X162517600Y-62865000D01*
X102430000Y-66340000D02*
X104790000Y-68700000D01*
X104790000Y-68700000D02*
X156682600Y-68700000D01*
X89700000Y-69100000D02*
X87700000Y-67100000D01*
X156780984Y-69100000D02*
X89700000Y-69100000D01*
X163420000Y-64135000D02*
X161745984Y-64135000D01*
X161745984Y-64135000D02*
X156780984Y-69100000D01*
X160974368Y-65405000D02*
X163420000Y-65405000D01*
X156874547Y-69504821D02*
X160974368Y-65405000D01*
X72700000Y-67100000D02*
X75104821Y-69504821D01*
X75104821Y-69504821D02*
X156874547Y-69504821D01*
X57700000Y-67100000D02*
X60504821Y-69904821D01*
X160202752Y-66675000D02*
X162517600Y-66675000D01*
X162517600Y-66675000D02*
X163420000Y-66675000D01*
X60504821Y-69904821D02*
X156972931Y-69904821D01*
X156972931Y-69904821D02*
X160202752Y-66675000D01*
X144780000Y-81788000D02*
X144780000Y-79248000D01*
X189704000Y-82550000D02*
X186817000Y-82550000D01*
X178689000Y-64706500D02*
X179895500Y-64706500D01*
X172847000Y-61595000D02*
X175577500Y-61595000D01*
X175577500Y-61595000D02*
X178689000Y-64706500D01*
X145171616Y-71500000D02*
X144286201Y-72385415D01*
X144286201Y-72385415D02*
X144286201Y-78754201D01*
X179895500Y-64706500D02*
X180671701Y-65482701D01*
X180671701Y-65482701D02*
X180671701Y-67388147D01*
X144286201Y-78754201D02*
X144751411Y-79219411D01*
X177269848Y-70790000D02*
X158310000Y-70790000D01*
X180671701Y-67388147D02*
X177269848Y-70790000D01*
X158310000Y-70790000D02*
X157600000Y-71500000D01*
X157600000Y-71500000D02*
X145171616Y-71500000D01*
X146050000Y-80010000D02*
X145161000Y-79121000D01*
X147320000Y-84328000D02*
X146050000Y-83058000D01*
X146050000Y-83058000D02*
X146050000Y-80010000D01*
X189704000Y-86360000D02*
X186817000Y-86360000D01*
X175323500Y-60325000D02*
X172847000Y-60325000D01*
X179895500Y-63436500D02*
X178435000Y-63436500D01*
X178435000Y-63436500D02*
X175323500Y-60325000D01*
X144638799Y-72531201D02*
X144638799Y-78598799D01*
X144638799Y-78598799D02*
X145103822Y-79063822D01*
X181102000Y-64643000D02*
X181102000Y-67456232D01*
X145270000Y-71900000D02*
X144638799Y-72531201D01*
X179895500Y-63436500D02*
X181102000Y-64643000D01*
X181102000Y-67456232D02*
X177368232Y-71190000D01*
X177368232Y-71190000D02*
X158510000Y-71190000D01*
X158510000Y-71190000D02*
X157800000Y-71900000D01*
X157800000Y-71900000D02*
X145270000Y-71900000D01*
X169799000Y-91440000D02*
X171704000Y-91440000D01*
X164465000Y-95250000D02*
X165989000Y-95250000D01*
X165989000Y-95250000D02*
X169799000Y-91440000D01*
X165862000Y-93980000D02*
X164338000Y-93980000D01*
X171704000Y-90170000D02*
X169672000Y-90170000D01*
X169672000Y-90170000D02*
X165862000Y-93980000D01*
X164404000Y-100330000D02*
X165306400Y-100330000D01*
X169926000Y-96520000D02*
X171704000Y-96520000D01*
X165227000Y-100330000D02*
X166116000Y-100330000D01*
X166116000Y-100330000D02*
X169926000Y-96520000D01*
X169926000Y-95250000D02*
X171704000Y-95250000D01*
X164338000Y-99060000D02*
X166116000Y-99060000D01*
X166116000Y-99060000D02*
X169926000Y-95250000D01*
X165989000Y-97790000D02*
X164465000Y-97790000D01*
X171704000Y-93980000D02*
X169799000Y-93980000D01*
X169799000Y-93980000D02*
X165989000Y-97790000D01*
X165989000Y-96520000D02*
X164465000Y-96520000D01*
X171704000Y-92710000D02*
X169799000Y-92710000D01*
X169799000Y-92710000D02*
X165989000Y-96520000D01*
X154414000Y-115806000D02*
X154414000Y-114300000D01*
X155202979Y-117809195D02*
X155202979Y-116594979D01*
X155202979Y-116594979D02*
X154414000Y-115806000D01*
X154414000Y-111760000D02*
X154414000Y-114300000D01*
X178435000Y-100965000D02*
X186055000Y-100965000D01*
X177165000Y-102235000D02*
X178435000Y-100965000D01*
X155512790Y-108769594D02*
X156228027Y-108054357D01*
X156228027Y-108054357D02*
X161820643Y-108054357D01*
X155512790Y-110661210D02*
X155512790Y-108769594D01*
X154414000Y-111760000D02*
X155512790Y-110661210D01*
X167640000Y-102235000D02*
X175006000Y-102235000D01*
X163195000Y-106680000D02*
X167640000Y-102235000D01*
X189704000Y-92710000D02*
X192277972Y-92710000D01*
X189230000Y-100965000D02*
X192278000Y-97917000D01*
X192278000Y-97917000D02*
X192278006Y-97917000D01*
X201168000Y-100135081D02*
X201616919Y-100584000D01*
X201168000Y-94811819D02*
X201168000Y-100135081D01*
X203835000Y-94234000D02*
X201745819Y-94234000D01*
X201616919Y-100584000D02*
X202819000Y-100584000D01*
X193675000Y-83820000D02*
X201549000Y-91694000D01*
X201549000Y-91694000D02*
X203708000Y-91694000D01*
X203708000Y-91694000D02*
X204343000Y-92329000D01*
X201745819Y-94234000D02*
X201168000Y-94811819D01*
X204343000Y-92329000D02*
X204343000Y-93726000D01*
X204343000Y-93726000D02*
X203835000Y-94234000D01*
X193675000Y-83820000D02*
X189704000Y-83820000D01*
X186436000Y-85090000D02*
X189704000Y-85090000D01*
X188086999Y-96412231D02*
X185489822Y-93815054D01*
X188086999Y-100970779D02*
X188086999Y-96412231D01*
X189602578Y-102093798D02*
X189210018Y-102093798D01*
X189616780Y-102108000D02*
X189602578Y-102093798D01*
X185489822Y-86036178D02*
X186436000Y-85090000D01*
X202819000Y-98044000D02*
X204216000Y-99441000D01*
X204216000Y-99441000D02*
X204216000Y-101346000D01*
X204216000Y-101346000D02*
X203708000Y-101854000D01*
X185489822Y-93815054D02*
X185489822Y-86036178D01*
X203708000Y-101854000D02*
X200533000Y-101854000D01*
X200533000Y-101854000D02*
X200279000Y-102108000D01*
X189210018Y-102093798D02*
X188086999Y-100970779D01*
X200279000Y-102108000D02*
X189616780Y-102108000D01*
X192260000Y-109365000D02*
X192278000Y-109347000D01*
X192260000Y-111887000D02*
X192260000Y-109365000D01*
X187325000Y-93980000D02*
X189704000Y-93980000D01*
X192278000Y-109347000D02*
X192278000Y-108458000D01*
X192278000Y-108458000D02*
X186055000Y-102235000D01*
D47*
X151130000Y-123190000D02*
X151149195Y-123209195D01*
D46*
X153936420Y-123190000D02*
X155194000Y-123190000D01*
D47*
X60960000Y-123190000D02*
X50800000Y-123190000D01*
X77470000Y-123190000D02*
X60960000Y-123190000D01*
X93980000Y-123190000D02*
X77470000Y-123190000D01*
X127254000Y-123190000D02*
X110490000Y-123190000D01*
X110490000Y-123190000D02*
X93980000Y-123190000D01*
X144025000Y-123190000D02*
X127254000Y-123190000D01*
X144025000Y-128350000D02*
X144025000Y-123190000D01*
X154559000Y-123190000D02*
X144025000Y-123190000D01*
X127254000Y-128350000D02*
X127254000Y-123190000D01*
X110490000Y-128350000D02*
X110490000Y-123190000D01*
X77470000Y-128350000D02*
X77470000Y-123190000D01*
X60960000Y-128350000D02*
X60960000Y-123190000D01*
X93980000Y-128350000D02*
X93980000Y-123190000D01*
X52705000Y-92075000D02*
X52768500Y-92011500D01*
X58293000Y-94107000D02*
X58293000Y-100584000D01*
X52705000Y-92075000D02*
X56261000Y-92075000D01*
X56261000Y-92075000D02*
X58293000Y-94107000D01*
X49149000Y-92075000D02*
X52705000Y-92075000D01*
X46355000Y-94869000D02*
X49149000Y-92075000D01*
X46355000Y-122301000D02*
X46355000Y-94869000D01*
X50866509Y-123190000D02*
X47244000Y-123190000D01*
X47244000Y-123190000D02*
X46355000Y-122301000D01*
X59610000Y-140335000D02*
X60960000Y-133350000D01*
X76200000Y-140335000D02*
X77470000Y-133350000D01*
X76247000Y-140335000D02*
X76200000Y-140335000D01*
X92837000Y-140335000D02*
X93980000Y-133350000D01*
X92884000Y-140335000D02*
X92837000Y-140335000D01*
X102997000Y-133350000D02*
X102870000Y-133350000D01*
X109521000Y-140335000D02*
X110490000Y-133350000D01*
X126158000Y-140335000D02*
X127254000Y-133350000D01*
X119888000Y-133477000D02*
X120015000Y-133350000D01*
X142795000Y-140335000D02*
X144018000Y-133350000D01*
D46*
X158554000Y-93980000D02*
X159004000Y-93980000D01*
X155003500Y-91186000D02*
X155130500Y-91186000D01*
X152527000Y-91186000D02*
X155003500Y-91186000D01*
X157797500Y-93980000D02*
X159004000Y-93980000D01*
X155003500Y-91186000D02*
X157797500Y-93980000D01*
X60960000Y-106426000D02*
X60960000Y-108350000D01*
X61976000Y-105410000D02*
X60960000Y-106426000D01*
X125476000Y-105410000D02*
X61976000Y-105410000D01*
X144970500Y-91186000D02*
X139700000Y-91186000D01*
X139700000Y-91186000D02*
X125476000Y-105410000D01*
X158554000Y-95250000D02*
X159004000Y-95250000D01*
X155003506Y-93091000D02*
X155003500Y-93090994D01*
X155003500Y-93091000D02*
X152527000Y-93091000D01*
X159004000Y-95250000D02*
X157162500Y-95250000D01*
X157162500Y-95250000D02*
X155003500Y-93091000D01*
X77470000Y-106426000D02*
X77470000Y-108350000D01*
X78105000Y-105791000D02*
X77470000Y-106426000D01*
X125593384Y-105791000D02*
X78105000Y-105791000D01*
X143700500Y-93091000D02*
X138293384Y-93091000D01*
X138293384Y-93091000D02*
X125593384Y-105791000D01*
X158554000Y-96520000D02*
X159004000Y-96520000D01*
X155003500Y-94996000D02*
X152527000Y-94996000D01*
X159004000Y-96520000D02*
X156527500Y-96520000D01*
X156527500Y-96520000D02*
X155003500Y-94996000D01*
X93980000Y-106934000D02*
X93980000Y-108350000D01*
X142748000Y-94932500D02*
X136886768Y-94996000D01*
X136886768Y-94996000D02*
X125682179Y-106200589D01*
X125682179Y-106200589D02*
X94713411Y-106200589D01*
X94713411Y-106200589D02*
X93980000Y-106934000D01*
X155257510Y-96647000D02*
X155003500Y-96901010D01*
X155003500Y-96901000D02*
X152527000Y-96901000D01*
X159004000Y-97790000D02*
X155892500Y-97790000D01*
X155892500Y-97790000D02*
X155003500Y-96901000D01*
X112287000Y-106553000D02*
X110490000Y-108350000D01*
X125828152Y-106553000D02*
X112287000Y-106553000D01*
X135480152Y-96901000D02*
X125828152Y-106553000D01*
X142748000Y-96901000D02*
X135480152Y-96901000D01*
X155003510Y-98806000D02*
X155003500Y-98806010D01*
X155003500Y-98806000D02*
X152527000Y-98806000D01*
X159004000Y-99060000D02*
X155257500Y-99060000D01*
X155257500Y-99060000D02*
X155003500Y-98806000D01*
X127254000Y-105791000D02*
X127254000Y-108350000D01*
X134239000Y-98806000D02*
X127254000Y-105791000D01*
X143700500Y-98806000D02*
X134239000Y-98806000D01*
X155003516Y-100711000D02*
X155003500Y-100711016D01*
X155003500Y-100711000D02*
X152527000Y-100711000D01*
X159004000Y-100330000D02*
X155384500Y-100330000D01*
X155384500Y-100330000D02*
X155003500Y-100711000D01*
X144018000Y-108343000D02*
X144025000Y-108350000D01*
X144970500Y-100711000D02*
X144018000Y-101663500D01*
X144018000Y-101663500D02*
X144018000Y-108343000D01*
X189704000Y-95250000D02*
X193294000Y-95250000D01*
X199136000Y-123063000D02*
X202819000Y-123063000D01*
X194945000Y-123952000D02*
X198247000Y-123952000D01*
X198247000Y-123952000D02*
X199136000Y-123063000D01*
X194945000Y-123952000D02*
X194881500Y-124015500D01*
X199136000Y-120142000D02*
X199136000Y-123063000D01*
X200977500Y-118300500D02*
X199136000Y-120142000D01*
X193294000Y-105410000D02*
X193294000Y-112649000D01*
X193802000Y-113157000D02*
X203708000Y-113157000D01*
X203898500Y-118300500D02*
X200977500Y-118300500D01*
X203708000Y-113157000D02*
X204216000Y-113665000D01*
X204216000Y-113665000D02*
X204216000Y-117983000D01*
X193294000Y-112649000D02*
X193802000Y-113157000D01*
X204216000Y-117983000D02*
X203898500Y-118300500D01*
D47*
X166780000Y-130175000D02*
X170180000Y-130175000D01*
X170815000Y-130810000D02*
X170180000Y-130175000D01*
X171243000Y-140335000D02*
X171243000Y-131238000D01*
X171243000Y-131238000D02*
X170815000Y-130810000D01*
D46*
X168674000Y-82550000D02*
X167894000Y-83330000D01*
X171704000Y-82550000D02*
X168674000Y-82550000D01*
X203581000Y-104394000D02*
X204568410Y-103406590D01*
X188722000Y-104394000D02*
X203581000Y-104394000D01*
X183642000Y-82550000D02*
X184785000Y-83693000D01*
X204568410Y-103406590D02*
X204568410Y-97253410D01*
X171704000Y-82550000D02*
X183642000Y-82550000D01*
X184785000Y-83693000D02*
X184785000Y-94107000D01*
X184785000Y-94107000D02*
X187382177Y-96704177D01*
X204568410Y-97253410D02*
X203668999Y-96353999D01*
X187382177Y-96704177D02*
X187382177Y-103054177D01*
X203668999Y-96353999D02*
X202819000Y-95504000D01*
X187382177Y-103054177D02*
X188722000Y-104394000D01*
X132080000Y-58990000D02*
X132680000Y-59590000D01*
X132680000Y-59590000D02*
X153180000Y-59590000D01*
X156990000Y-59955000D02*
X156990000Y-59590000D01*
X157868000Y-60833000D02*
X156990000Y-59955000D01*
X159512000Y-60833000D02*
X157868000Y-60833000D01*
X176276000Y-98027000D02*
X176259000Y-98010000D01*
X176276000Y-105664000D02*
X175768000Y-106172000D01*
X176276000Y-105664000D02*
X176276000Y-98027000D01*
X174498000Y-106172000D02*
X175768000Y-106172000D01*
X176911000Y-106299000D02*
X176276000Y-105664000D01*
X179070000Y-106299000D02*
X176911000Y-106299000D01*
X145783500Y-94056000D02*
X145783500Y-94869000D01*
X150627000Y-91186000D02*
X148653500Y-91186000D01*
X148653500Y-91186000D02*
X145783500Y-94056000D01*
X146583500Y-94066600D02*
X146583500Y-94869000D01*
X147559100Y-93091000D02*
X146583500Y-94066600D01*
X150627000Y-93091000D02*
X147559100Y-93091000D01*
X147383500Y-94996000D02*
X147383500Y-94869000D01*
X150627000Y-94996000D02*
X147383500Y-94996000D01*
X147551500Y-96901000D02*
X147383500Y-97069000D01*
X150627000Y-96901000D02*
X147551500Y-96901000D01*
X146583500Y-97871400D02*
X146583500Y-97069000D01*
X147518100Y-98806000D02*
X146583500Y-97871400D01*
X150627000Y-98806000D02*
X147518100Y-98806000D01*
X145783500Y-97871400D02*
X145783500Y-97069000D01*
X148623100Y-100711000D02*
X145783500Y-97871400D01*
X150627000Y-100711000D02*
X148623100Y-100711000D01*
X193675000Y-96520000D02*
X189704000Y-96520000D01*
X195580000Y-95250000D02*
X195072000Y-95123000D01*
X195072000Y-95123000D02*
X193675000Y-96520000D01*
X196850000Y-96520000D02*
X195580000Y-95250000D01*
X196850000Y-100711000D02*
X196850000Y-96520000D01*
X195199000Y-101092000D02*
X196469000Y-101092000D01*
X196469000Y-101092000D02*
X196850000Y-100711000D01*
X197866000Y-92964000D02*
X202819000Y-92964000D01*
X195580000Y-95250000D02*
X197866000Y-92964000D01*
X192657000Y-81405000D02*
X192659000Y-81407000D01*
X189704000Y-81405000D02*
X192657000Y-81405000D01*
X192913000Y-127889000D02*
X192913000Y-125702000D01*
X198040000Y-135001000D02*
X198040000Y-133016000D01*
X198040000Y-133016000D02*
X192913000Y-127889000D01*
X198040000Y-133049000D02*
X198040000Y-135001000D01*
X204978000Y-126111000D02*
X198040000Y-133049000D01*
X204978000Y-90424000D02*
X204978000Y-126111000D01*
X196405500Y-83248500D02*
X197802500Y-83248500D01*
X197802500Y-83248500D02*
X204978000Y-90424000D01*
X195135500Y-82133500D02*
X194409000Y-81407000D01*
X195135500Y-83756500D02*
X195135500Y-82133500D01*
D48*
X115062000Y-83820000D03*
X156591003Y-81025997D03*
X192659012Y-80010000D03*
X175006000Y-100203000D03*
X174117000Y-80010000D03*
X160020000Y-109220000D03*
X161290000Y-60325000D03*
X103504984Y-95250000D03*
X120015000Y-95885002D03*
X179895500Y-65976500D03*
X184912000Y-65976500D03*
X186055000Y-103505000D03*
X160575969Y-88104241D03*
X156083000Y-88025210D03*
X189230000Y-103505000D03*
X179895500Y-60960000D03*
X175006000Y-62865000D03*
X186944000Y-88900000D03*
X179895500Y-62230000D03*
X186817000Y-82550000D03*
X179895500Y-64706500D03*
X186817000Y-86360000D03*
X179895500Y-63436500D03*
X161820643Y-108054357D03*
X163195000Y-106680000D03*
X177165000Y-102235000D03*
X186055000Y-100965000D03*
X189230000Y-100965000D03*
X175006000Y-102235000D03*
X192277972Y-92710000D03*
X192278006Y-97917000D03*
X187325000Y-93980000D03*
X186055000Y-102235000D03*
X155003500Y-91186002D03*
X144970500Y-91186000D03*
X155003500Y-93090994D03*
X143700500Y-93091000D03*
X155003500Y-94995998D03*
X142748000Y-94932500D03*
X155003500Y-96901010D03*
X142748000Y-96901000D03*
X155003500Y-98806010D03*
X143700500Y-98806000D03*
X155003500Y-100711016D03*
X144970500Y-100711000D03*
X193294000Y-105410000D03*
X193294000Y-95250000D03*
X112700000Y-72100000D03*
X117700000Y-72100000D03*
X112700000Y-67100000D03*
X117700000Y-67100000D03*
X82700000Y-72100000D03*
X87700000Y-72100000D03*
X82700000Y-67100000D03*
X87700000Y-67100000D03*
X136525000Y-133350000D03*
X136525000Y-128350000D03*
X136525000Y-108350000D03*
X144025000Y-108350000D03*
X144025000Y-128350000D03*
X144025000Y-133350000D03*
X53460000Y-133350000D03*
X53460000Y-128350000D03*
X53460000Y-108350000D03*
X60960000Y-108350000D03*
X60960000Y-128350000D03*
X60960000Y-133350000D03*
X202819000Y-125603000D03*
X202819000Y-123063000D03*
X202819000Y-120523000D03*
X171243000Y-140335000D03*
X166243000Y-140335000D03*
X142795000Y-140335000D03*
X137795000Y-140335000D03*
X76247000Y-140335000D03*
X71247000Y-140335000D03*
X59610000Y-140335000D03*
X54610000Y-140335000D03*
X126158000Y-140335000D03*
X121158000Y-140335000D03*
X109521000Y-140335000D03*
X104521000Y-140335000D03*
X92884000Y-140335000D03*
X87884000Y-140335000D03*
X195580000Y-97663000D03*
X195580000Y-95123000D03*
X131990000Y-59590000D03*
X130720000Y-59590000D03*
X129450000Y-59590000D03*
X128180000Y-59590000D03*
X144780000Y-84328000D03*
X144780000Y-81788000D03*
X147320000Y-84328000D03*
X147320000Y-81788000D03*
X149860000Y-84328000D03*
X149860000Y-81788000D03*
X49805000Y-99575000D03*
X52705000Y-92075000D03*
X202819000Y-114427000D03*
X202819000Y-111887000D03*
X202819000Y-109347000D03*
X43180000Y-82590000D03*
X43180000Y-148590000D03*
X203200000Y-82590000D03*
X203200000Y-148590000D03*
X116990000Y-59590000D03*
X115720000Y-59590000D03*
X114450000Y-59590000D03*
X113180000Y-59590000D03*
X101990000Y-59590000D03*
X100720000Y-59590000D03*
X99450000Y-59590000D03*
X98180000Y-59590000D03*
X86990000Y-59590000D03*
X85720000Y-59590000D03*
X84450000Y-59590000D03*
X83180000Y-59590000D03*
X71990000Y-59590000D03*
X70720000Y-59590000D03*
X69450000Y-59590000D03*
X68180000Y-59590000D03*
X56990000Y-59590000D03*
X55720000Y-59590000D03*
X54450000Y-59590000D03*
X53180000Y-59590000D03*
X204180000Y-64590000D03*
X42180000Y-64590000D03*
X147320000Y-76590000D03*
X145415000Y-76590000D03*
X143510000Y-76590000D03*
X141605000Y-76590000D03*
X123825000Y-95885000D03*
X123825000Y-91440000D03*
X123825000Y-86995000D03*
X123825000Y-100330000D03*
X202819000Y-103124000D03*
X202819000Y-100584000D03*
X202819000Y-98044000D03*
X202819000Y-95504000D03*
X202819000Y-92964000D03*
X202819000Y-90424000D03*
X156990000Y-59590000D03*
X155720000Y-59590000D03*
X154450000Y-59590000D03*
X153180000Y-59590000D03*
X166780000Y-130175000D03*
X170180000Y-130175000D03*
X166780000Y-120255000D03*
X170180000Y-120255000D03*
X83693000Y-82804000D03*
X88773000Y-100584000D03*
X88773000Y-82804000D03*
X63373000Y-100584000D03*
X58293000Y-100584000D03*
X69970000Y-133350000D03*
X69970000Y-128350000D03*
X69970000Y-108350000D03*
X77470000Y-108350000D03*
X77470000Y-128350000D03*
X77470000Y-133350000D03*
X86480000Y-133350000D03*
X86480000Y-128350000D03*
X86480000Y-108350000D03*
X93980000Y-108350000D03*
X93980000Y-128350000D03*
X93980000Y-133350000D03*
X102990000Y-133350000D03*
X102990000Y-128350000D03*
X102990000Y-108350000D03*
X110490000Y-108350000D03*
X110490000Y-128350000D03*
X110490000Y-133350000D03*
X119754000Y-133350000D03*
X119754000Y-128350000D03*
X119754000Y-108350000D03*
X127254000Y-108350000D03*
X127254000Y-128350000D03*
X127254000Y-133350000D03*
X127700000Y-72100000D03*
X132700000Y-72100000D03*
X127700000Y-67100000D03*
X132700000Y-67100000D03*
X97700000Y-72100000D03*
X102700000Y-72100000D03*
X97700000Y-67100000D03*
X102700000Y-67100000D03*
X67700000Y-72100000D03*
X72700000Y-72100000D03*
X67700000Y-67100000D03*
X72700000Y-67100000D03*
X52700000Y-72100000D03*
X57700000Y-72100000D03*
X52700000Y-67100000D03*
X57700000Y-67100000D03*
X193040000Y-135001000D03*
X198040000Y-135001000D03*
M02*
