%TF.GenerationSoftware,KiCad,Pcbnew,(5.0.0)*%
%TF.CreationDate,2018-09-13T00:54:13+01:00*%
%TF.ProjectId,AquaHub,417175614875622E6B696361645F7063,rev?*%
%TF.SameCoordinates,Original*%
%TF.FileFunction,Soldermask,Top*%
%TF.FilePolarity,Negative*%
%FSLAX46Y46*%
G04 Gerber Fmt 4.6, Leading zero omitted, Abs format (unit mm)*
G04 Created by KiCad (PCBNEW (5.0.0)) date 09/13/18 00:54:13*
%MOMM*%
%LPD*%
G01*
G04 APERTURE LIST*
%ADD10C,0.200000*%
%ADD11C,0.010000*%
%ADD12O,1.470000X2.200000*%
%ADD13R,1.470000X2.200000*%
%ADD14O,2.127200X2.127200*%
%ADD15R,2.127200X2.127200*%
%ADD16R,2.000000X3.400000*%
%ADD17C,0.150000*%
%ADD18C,1.900000*%
%ADD19C,2.200000*%
%ADD20R,2.600000X1.600000*%
%ADD21R,6.800000X6.200000*%
%ADD22R,1.900000X1.000000*%
%ADD23C,1.550000*%
%ADD24C,2.400000*%
%ADD25R,2.400000X2.400000*%
%ADD26O,2.100000X2.100000*%
%ADD27R,2.100000X2.100000*%
%ADD28C,1.924000*%
%ADD29R,1.000000X1.950000*%
%ADD30C,4.700000*%
%ADD31C,2.900000*%
%ADD32C,1.400000*%
%ADD33R,2.000000X3.900000*%
%ADD34C,3.000000*%
%ADD35R,3.000000X3.000000*%
%ADD36O,2.900000X1.300000*%
%ADD37O,1.300000X2.900000*%
%ADD38R,6.400000X6.400000*%
%ADD39C,3.200000*%
%ADD40R,5.150000X3.400000*%
G04 APERTURE END LIST*
D10*
X55118000Y-106680000D02*
X48006000Y-106680000D01*
X55118000Y-109728000D02*
X55118000Y-106680000D01*
X51054000Y-109728000D02*
X55118000Y-109728000D01*
X146050000Y-115570000D02*
X146050000Y-118110000D01*
X140335000Y-78105000D02*
X140335000Y-75565000D01*
X148590000Y-75565000D02*
X148590000Y-78105000D01*
X148590000Y-78105000D02*
X208280000Y-78105000D01*
X208280000Y-75565000D02*
X148590000Y-75565000D01*
X208280000Y-52070000D02*
X208280000Y-75565000D01*
X38100000Y-52070000D02*
X208280000Y-52070000D01*
X38100000Y-75565000D02*
X38100000Y-52070000D01*
X140335000Y-75565000D02*
X38100000Y-75565000D01*
X48006000Y-118364000D02*
X48006000Y-106680000D01*
X146050000Y-118110000D02*
X48006000Y-118364000D01*
X51054000Y-115316000D02*
X146050000Y-115570000D01*
X51054000Y-109728000D02*
X51054000Y-115316000D01*
X38100000Y-153670000D02*
X208280000Y-153670000D01*
X38100000Y-78105000D02*
X38100000Y-153670000D01*
X140335000Y-78105000D02*
X38100000Y-78105000D01*
X208280000Y-78105000D02*
X208280000Y-153670000D01*
D11*
G36*
X44080960Y-136029059D02*
X44147395Y-135911455D01*
X44250045Y-135817977D01*
X44336124Y-135774188D01*
X44474614Y-135743578D01*
X44612591Y-135752679D01*
X44734084Y-135800027D01*
X44752850Y-135812412D01*
X44840408Y-135902851D01*
X44900553Y-136021729D01*
X44930418Y-136154667D01*
X44927134Y-136287287D01*
X44887832Y-136405210D01*
X44875244Y-136425994D01*
X44796394Y-136508263D01*
X44687770Y-136576086D01*
X44570295Y-136618253D01*
X44500799Y-136626600D01*
X44391575Y-136607326D01*
X44277110Y-136556810D01*
X44178158Y-136486018D01*
X44129295Y-136430358D01*
X44068876Y-136298139D01*
X44053776Y-136161163D01*
X44080960Y-136029059D01*
X44080960Y-136029059D01*
G37*
X44080960Y-136029059D02*
X44147395Y-135911455D01*
X44250045Y-135817977D01*
X44336124Y-135774188D01*
X44474614Y-135743578D01*
X44612591Y-135752679D01*
X44734084Y-135800027D01*
X44752850Y-135812412D01*
X44840408Y-135902851D01*
X44900553Y-136021729D01*
X44930418Y-136154667D01*
X44927134Y-136287287D01*
X44887832Y-136405210D01*
X44875244Y-136425994D01*
X44796394Y-136508263D01*
X44687770Y-136576086D01*
X44570295Y-136618253D01*
X44500799Y-136626600D01*
X44391575Y-136607326D01*
X44277110Y-136556810D01*
X44178158Y-136486018D01*
X44129295Y-136430358D01*
X44068876Y-136298139D01*
X44053776Y-136161163D01*
X44080960Y-136029059D01*
G36*
X46947045Y-135788400D02*
X47218528Y-135788179D01*
X47443618Y-135787417D01*
X47626721Y-135785974D01*
X47772240Y-135783706D01*
X47884583Y-135780469D01*
X47968155Y-135776122D01*
X48027359Y-135770520D01*
X48066603Y-135763522D01*
X48090292Y-135754984D01*
X48096395Y-135751108D01*
X48133943Y-135724822D01*
X48162085Y-135714109D01*
X48182174Y-135724290D01*
X48195563Y-135760688D01*
X48203605Y-135828624D01*
X48207653Y-135933422D01*
X48209060Y-136080402D01*
X48209200Y-136194800D01*
X48208515Y-136345082D01*
X48206608Y-136476273D01*
X48203702Y-136580573D01*
X48200017Y-136650181D01*
X48195776Y-136677295D01*
X48195488Y-136677400D01*
X48166454Y-136666845D01*
X48109509Y-136640274D01*
X48082200Y-136626600D01*
X48054760Y-136613734D01*
X48024394Y-136603241D01*
X47985920Y-136594880D01*
X47934155Y-136588409D01*
X47863918Y-136583589D01*
X47770027Y-136580178D01*
X47647301Y-136577935D01*
X47490559Y-136576619D01*
X47294617Y-136575990D01*
X47054296Y-136575805D01*
X46989750Y-136575800D01*
X46732269Y-136576053D01*
X46520749Y-136576929D01*
X46350351Y-136578604D01*
X46216238Y-136581252D01*
X46113571Y-136585050D01*
X46037513Y-136590173D01*
X45983226Y-136596797D01*
X45945872Y-136605097D01*
X45921938Y-136614553D01*
X45847000Y-136653305D01*
X45847000Y-135788400D01*
X46947045Y-135788400D01*
X46947045Y-135788400D01*
G37*
X46947045Y-135788400D02*
X47218528Y-135788179D01*
X47443618Y-135787417D01*
X47626721Y-135785974D01*
X47772240Y-135783706D01*
X47884583Y-135780469D01*
X47968155Y-135776122D01*
X48027359Y-135770520D01*
X48066603Y-135763522D01*
X48090292Y-135754984D01*
X48096395Y-135751108D01*
X48133943Y-135724822D01*
X48162085Y-135714109D01*
X48182174Y-135724290D01*
X48195563Y-135760688D01*
X48203605Y-135828624D01*
X48207653Y-135933422D01*
X48209060Y-136080402D01*
X48209200Y-136194800D01*
X48208515Y-136345082D01*
X48206608Y-136476273D01*
X48203702Y-136580573D01*
X48200017Y-136650181D01*
X48195776Y-136677295D01*
X48195488Y-136677400D01*
X48166454Y-136666845D01*
X48109509Y-136640274D01*
X48082200Y-136626600D01*
X48054760Y-136613734D01*
X48024394Y-136603241D01*
X47985920Y-136594880D01*
X47934155Y-136588409D01*
X47863918Y-136583589D01*
X47770027Y-136580178D01*
X47647301Y-136577935D01*
X47490559Y-136576619D01*
X47294617Y-136575990D01*
X47054296Y-136575805D01*
X46989750Y-136575800D01*
X46732269Y-136576053D01*
X46520749Y-136576929D01*
X46350351Y-136578604D01*
X46216238Y-136581252D01*
X46113571Y-136585050D01*
X46037513Y-136590173D01*
X45983226Y-136596797D01*
X45945872Y-136605097D01*
X45921938Y-136614553D01*
X45847000Y-136653305D01*
X45847000Y-135788400D01*
X46947045Y-135788400D01*
G36*
X44983400Y-137371253D02*
X44983400Y-136825941D01*
X45184787Y-137024721D01*
X45547691Y-137354429D01*
X45821815Y-137568849D01*
X45925400Y-137647297D01*
X46045529Y-137741856D01*
X46169202Y-137841950D01*
X46283419Y-137937002D01*
X46375181Y-138016434D01*
X46402760Y-138041532D01*
X46490212Y-138122964D01*
X46581356Y-138053006D01*
X46770604Y-137917564D01*
X46910050Y-137830022D01*
X46992286Y-137775152D01*
X47071612Y-137713876D01*
X47077607Y-137708727D01*
X47160581Y-137639778D01*
X47263137Y-137559253D01*
X47373288Y-137476058D01*
X47479047Y-137399098D01*
X47568425Y-137337281D01*
X47625547Y-137301624D01*
X47678596Y-137266543D01*
X47757062Y-137208014D01*
X47848252Y-137136180D01*
X47939472Y-137061185D01*
X48018032Y-136993172D01*
X48057020Y-136956800D01*
X48083081Y-136932911D01*
X48130406Y-136890637D01*
X48139570Y-136882523D01*
X48209200Y-136820945D01*
X48209200Y-137947400D01*
X48130923Y-137947400D01*
X48054395Y-137964163D01*
X47949149Y-138011393D01*
X47823239Y-138084507D01*
X47684716Y-138178919D01*
X47570533Y-138266458D01*
X47478313Y-138337732D01*
X47387269Y-138403053D01*
X47314535Y-138450223D01*
X47303833Y-138456329D01*
X47237434Y-138496371D01*
X47189284Y-138531658D01*
X47180500Y-138540301D01*
X47141816Y-138574862D01*
X47085250Y-138615085D01*
X47037093Y-138652774D01*
X47015487Y-138683285D01*
X47015400Y-138684586D01*
X47040091Y-138693462D01*
X47111381Y-138700582D01*
X47225092Y-138705736D01*
X47377044Y-138708717D01*
X47511961Y-138709400D01*
X47691263Y-138708716D01*
X47827270Y-138706305D01*
X47927475Y-138701625D01*
X47999369Y-138694137D01*
X48050443Y-138683302D01*
X48088188Y-138668579D01*
X48089811Y-138667756D01*
X48149491Y-138632283D01*
X48187618Y-138600777D01*
X48189761Y-138597906D01*
X48195323Y-138613403D01*
X48200262Y-138672753D01*
X48204312Y-138769014D01*
X48207207Y-138895241D01*
X48208682Y-139044489D01*
X48208811Y-139096206D01*
X48209200Y-139622711D01*
X48139350Y-139593032D01*
X48080758Y-139564859D01*
X48045370Y-139542776D01*
X48016142Y-139538943D01*
X47940781Y-139535343D01*
X47823951Y-139532041D01*
X47670317Y-139529104D01*
X47484546Y-139526601D01*
X47271302Y-139524596D01*
X47035251Y-139523158D01*
X46781059Y-139522353D01*
X46609290Y-139522201D01*
X46305311Y-139522259D01*
X46047912Y-139522530D01*
X45832874Y-139523154D01*
X45655978Y-139524274D01*
X45513004Y-139526031D01*
X45399733Y-139528567D01*
X45311945Y-139532024D01*
X45245421Y-139536543D01*
X45195941Y-139542267D01*
X45159286Y-139549338D01*
X45131237Y-139557896D01*
X45107574Y-139568084D01*
X45097699Y-139573001D01*
X45035869Y-139603756D01*
X44996660Y-139621810D01*
X44990729Y-139623801D01*
X44988507Y-139599665D01*
X44986556Y-139532312D01*
X44984984Y-139429328D01*
X44983901Y-139298294D01*
X44983415Y-139146795D01*
X44983400Y-139113083D01*
X44983664Y-138939940D01*
X44984831Y-138811371D01*
X44987464Y-138721154D01*
X44992123Y-138663063D01*
X44999372Y-138630876D01*
X45009772Y-138618368D01*
X45023885Y-138619314D01*
X45027850Y-138620836D01*
X45116673Y-138654195D01*
X45205181Y-138678261D01*
X45304141Y-138694420D01*
X45424321Y-138704058D01*
X45576488Y-138708560D01*
X45716088Y-138709400D01*
X46135904Y-138709401D01*
X46062900Y-138633201D01*
X46012557Y-138585587D01*
X45975278Y-138559006D01*
X45968483Y-138557000D01*
X45942550Y-138541863D01*
X45889128Y-138502372D01*
X45819145Y-138447412D01*
X45743529Y-138385868D01*
X45673209Y-138326623D01*
X45619114Y-138278561D01*
X45593000Y-138251761D01*
X45565734Y-138229439D01*
X45509630Y-138191064D01*
X45466000Y-138163198D01*
X45378298Y-138104995D01*
X45291698Y-138042049D01*
X45263362Y-138019701D01*
X45196736Y-137974987D01*
X45135643Y-137949592D01*
X45119390Y-137947400D01*
X45075677Y-137946878D01*
X45042502Y-137941209D01*
X45018412Y-137924238D01*
X45001955Y-137889811D01*
X44991677Y-137831774D01*
X44986127Y-137743972D01*
X44983851Y-137620250D01*
X44983396Y-137454455D01*
X44983400Y-137371253D01*
X44983400Y-137371253D01*
G37*
X44983400Y-137371253D02*
X44983400Y-136825941D01*
X45184787Y-137024721D01*
X45547691Y-137354429D01*
X45821815Y-137568849D01*
X45925400Y-137647297D01*
X46045529Y-137741856D01*
X46169202Y-137841950D01*
X46283419Y-137937002D01*
X46375181Y-138016434D01*
X46402760Y-138041532D01*
X46490212Y-138122964D01*
X46581356Y-138053006D01*
X46770604Y-137917564D01*
X46910050Y-137830022D01*
X46992286Y-137775152D01*
X47071612Y-137713876D01*
X47077607Y-137708727D01*
X47160581Y-137639778D01*
X47263137Y-137559253D01*
X47373288Y-137476058D01*
X47479047Y-137399098D01*
X47568425Y-137337281D01*
X47625547Y-137301624D01*
X47678596Y-137266543D01*
X47757062Y-137208014D01*
X47848252Y-137136180D01*
X47939472Y-137061185D01*
X48018032Y-136993172D01*
X48057020Y-136956800D01*
X48083081Y-136932911D01*
X48130406Y-136890637D01*
X48139570Y-136882523D01*
X48209200Y-136820945D01*
X48209200Y-137947400D01*
X48130923Y-137947400D01*
X48054395Y-137964163D01*
X47949149Y-138011393D01*
X47823239Y-138084507D01*
X47684716Y-138178919D01*
X47570533Y-138266458D01*
X47478313Y-138337732D01*
X47387269Y-138403053D01*
X47314535Y-138450223D01*
X47303833Y-138456329D01*
X47237434Y-138496371D01*
X47189284Y-138531658D01*
X47180500Y-138540301D01*
X47141816Y-138574862D01*
X47085250Y-138615085D01*
X47037093Y-138652774D01*
X47015487Y-138683285D01*
X47015400Y-138684586D01*
X47040091Y-138693462D01*
X47111381Y-138700582D01*
X47225092Y-138705736D01*
X47377044Y-138708717D01*
X47511961Y-138709400D01*
X47691263Y-138708716D01*
X47827270Y-138706305D01*
X47927475Y-138701625D01*
X47999369Y-138694137D01*
X48050443Y-138683302D01*
X48088188Y-138668579D01*
X48089811Y-138667756D01*
X48149491Y-138632283D01*
X48187618Y-138600777D01*
X48189761Y-138597906D01*
X48195323Y-138613403D01*
X48200262Y-138672753D01*
X48204312Y-138769014D01*
X48207207Y-138895241D01*
X48208682Y-139044489D01*
X48208811Y-139096206D01*
X48209200Y-139622711D01*
X48139350Y-139593032D01*
X48080758Y-139564859D01*
X48045370Y-139542776D01*
X48016142Y-139538943D01*
X47940781Y-139535343D01*
X47823951Y-139532041D01*
X47670317Y-139529104D01*
X47484546Y-139526601D01*
X47271302Y-139524596D01*
X47035251Y-139523158D01*
X46781059Y-139522353D01*
X46609290Y-139522201D01*
X46305311Y-139522259D01*
X46047912Y-139522530D01*
X45832874Y-139523154D01*
X45655978Y-139524274D01*
X45513004Y-139526031D01*
X45399733Y-139528567D01*
X45311945Y-139532024D01*
X45245421Y-139536543D01*
X45195941Y-139542267D01*
X45159286Y-139549338D01*
X45131237Y-139557896D01*
X45107574Y-139568084D01*
X45097699Y-139573001D01*
X45035869Y-139603756D01*
X44996660Y-139621810D01*
X44990729Y-139623801D01*
X44988507Y-139599665D01*
X44986556Y-139532312D01*
X44984984Y-139429328D01*
X44983901Y-139298294D01*
X44983415Y-139146795D01*
X44983400Y-139113083D01*
X44983664Y-138939940D01*
X44984831Y-138811371D01*
X44987464Y-138721154D01*
X44992123Y-138663063D01*
X44999372Y-138630876D01*
X45009772Y-138618368D01*
X45023885Y-138619314D01*
X45027850Y-138620836D01*
X45116673Y-138654195D01*
X45205181Y-138678261D01*
X45304141Y-138694420D01*
X45424321Y-138704058D01*
X45576488Y-138708560D01*
X45716088Y-138709400D01*
X46135904Y-138709401D01*
X46062900Y-138633201D01*
X46012557Y-138585587D01*
X45975278Y-138559006D01*
X45968483Y-138557000D01*
X45942550Y-138541863D01*
X45889128Y-138502372D01*
X45819145Y-138447412D01*
X45743529Y-138385868D01*
X45673209Y-138326623D01*
X45619114Y-138278561D01*
X45593000Y-138251761D01*
X45565734Y-138229439D01*
X45509630Y-138191064D01*
X45466000Y-138163198D01*
X45378298Y-138104995D01*
X45291698Y-138042049D01*
X45263362Y-138019701D01*
X45196736Y-137974987D01*
X45135643Y-137949592D01*
X45119390Y-137947400D01*
X45075677Y-137946878D01*
X45042502Y-137941209D01*
X45018412Y-137924238D01*
X45001955Y-137889811D01*
X44991677Y-137831774D01*
X44986127Y-137743972D01*
X44983851Y-137620250D01*
X44983396Y-137454455D01*
X44983400Y-137371253D01*
D12*
X120015000Y-59055000D03*
X118745000Y-59055000D03*
X117475000Y-59055000D03*
D13*
X116205000Y-59055000D03*
D14*
X144780000Y-84328000D03*
X144780000Y-81788000D03*
X147320000Y-84328000D03*
X147320000Y-81788000D03*
X149860000Y-84328000D03*
D15*
X149860000Y-81788000D03*
D16*
X116840000Y-86405000D03*
X116840000Y-90805000D03*
D17*
G36*
X168221372Y-79315525D02*
X168252112Y-79320085D01*
X168282257Y-79327636D01*
X168311516Y-79338105D01*
X168339609Y-79351392D01*
X168366264Y-79367368D01*
X168391224Y-79385880D01*
X168414250Y-79406750D01*
X168435120Y-79429776D01*
X168453632Y-79454736D01*
X168469608Y-79481391D01*
X168482895Y-79509484D01*
X168493364Y-79538743D01*
X168500915Y-79568888D01*
X168505475Y-79599628D01*
X168507000Y-79630667D01*
X168507000Y-80897333D01*
X168505475Y-80928372D01*
X168500915Y-80959112D01*
X168493364Y-80989257D01*
X168482895Y-81018516D01*
X168469608Y-81046609D01*
X168453632Y-81073264D01*
X168435120Y-81098224D01*
X168414250Y-81121250D01*
X168391224Y-81142120D01*
X168366264Y-81160632D01*
X168339609Y-81176608D01*
X168311516Y-81189895D01*
X168282257Y-81200364D01*
X168252112Y-81207915D01*
X168221372Y-81212475D01*
X168190333Y-81214000D01*
X166073667Y-81214000D01*
X166042628Y-81212475D01*
X166011888Y-81207915D01*
X165981743Y-81200364D01*
X165952484Y-81189895D01*
X165924391Y-81176608D01*
X165897736Y-81160632D01*
X165872776Y-81142120D01*
X165849750Y-81121250D01*
X165828880Y-81098224D01*
X165810368Y-81073264D01*
X165794392Y-81046609D01*
X165781105Y-81018516D01*
X165770636Y-80989257D01*
X165763085Y-80959112D01*
X165758525Y-80928372D01*
X165757000Y-80897333D01*
X165757000Y-79630667D01*
X165758525Y-79599628D01*
X165763085Y-79568888D01*
X165770636Y-79538743D01*
X165781105Y-79509484D01*
X165794392Y-79481391D01*
X165810368Y-79454736D01*
X165828880Y-79429776D01*
X165849750Y-79406750D01*
X165872776Y-79385880D01*
X165897736Y-79367368D01*
X165924391Y-79351392D01*
X165952484Y-79338105D01*
X165981743Y-79327636D01*
X166011888Y-79320085D01*
X166042628Y-79315525D01*
X166073667Y-79314000D01*
X168190333Y-79314000D01*
X168221372Y-79315525D01*
X168221372Y-79315525D01*
G37*
D18*
X167132000Y-80264000D03*
D17*
G36*
X168221372Y-82565525D02*
X168252112Y-82570085D01*
X168282257Y-82577636D01*
X168311516Y-82588105D01*
X168339609Y-82601392D01*
X168366264Y-82617368D01*
X168391224Y-82635880D01*
X168414250Y-82656750D01*
X168435120Y-82679776D01*
X168453632Y-82704736D01*
X168469608Y-82731391D01*
X168482895Y-82759484D01*
X168493364Y-82788743D01*
X168500915Y-82818888D01*
X168505475Y-82849628D01*
X168507000Y-82880667D01*
X168507000Y-84147333D01*
X168505475Y-84178372D01*
X168500915Y-84209112D01*
X168493364Y-84239257D01*
X168482895Y-84268516D01*
X168469608Y-84296609D01*
X168453632Y-84323264D01*
X168435120Y-84348224D01*
X168414250Y-84371250D01*
X168391224Y-84392120D01*
X168366264Y-84410632D01*
X168339609Y-84426608D01*
X168311516Y-84439895D01*
X168282257Y-84450364D01*
X168252112Y-84457915D01*
X168221372Y-84462475D01*
X168190333Y-84464000D01*
X166073667Y-84464000D01*
X166042628Y-84462475D01*
X166011888Y-84457915D01*
X165981743Y-84450364D01*
X165952484Y-84439895D01*
X165924391Y-84426608D01*
X165897736Y-84410632D01*
X165872776Y-84392120D01*
X165849750Y-84371250D01*
X165828880Y-84348224D01*
X165810368Y-84323264D01*
X165794392Y-84296609D01*
X165781105Y-84268516D01*
X165770636Y-84239257D01*
X165763085Y-84209112D01*
X165758525Y-84178372D01*
X165757000Y-84147333D01*
X165757000Y-82880667D01*
X165758525Y-82849628D01*
X165763085Y-82818888D01*
X165770636Y-82788743D01*
X165781105Y-82759484D01*
X165794392Y-82731391D01*
X165810368Y-82704736D01*
X165828880Y-82679776D01*
X165849750Y-82656750D01*
X165872776Y-82635880D01*
X165897736Y-82617368D01*
X165924391Y-82601392D01*
X165952484Y-82588105D01*
X165981743Y-82577636D01*
X166011888Y-82570085D01*
X166042628Y-82565525D01*
X166073667Y-82564000D01*
X168190333Y-82564000D01*
X168221372Y-82565525D01*
X168221372Y-82565525D01*
G37*
D18*
X167132000Y-83514000D03*
D19*
X49805000Y-104020000D03*
X52705000Y-96520000D03*
D20*
X102870000Y-97415000D03*
X102870000Y-99695000D03*
X102870000Y-101975000D03*
D21*
X109170000Y-99695000D03*
D15*
X153035000Y-60960000D03*
D14*
X150495000Y-60960000D03*
X153035000Y-63500000D03*
X150495000Y-63500000D03*
X153035000Y-66040000D03*
X150495000Y-66040000D03*
D22*
X133067000Y-59055000D03*
X133067000Y-60325000D03*
X133067000Y-61595000D03*
X133067000Y-62865000D03*
X133067000Y-64135000D03*
X133067000Y-65405000D03*
X133067000Y-66675000D03*
X133067000Y-67945000D03*
X142367000Y-67945000D03*
X142367000Y-66675000D03*
X142367000Y-65405000D03*
X142367000Y-64135000D03*
X142367000Y-62865000D03*
X142367000Y-61595000D03*
X142367000Y-60325000D03*
X142367000Y-59055000D03*
D17*
G36*
X192749071Y-111623623D02*
X192781781Y-111628475D01*
X192813857Y-111636509D01*
X192844991Y-111647649D01*
X192874884Y-111661787D01*
X192903247Y-111678787D01*
X192929807Y-111698485D01*
X192954308Y-111720692D01*
X192976515Y-111745193D01*
X192996213Y-111771753D01*
X193013213Y-111800116D01*
X193027351Y-111830009D01*
X193038491Y-111861143D01*
X193046525Y-111893219D01*
X193051377Y-111925929D01*
X193053000Y-111958956D01*
X193053000Y-113085044D01*
X193051377Y-113118071D01*
X193046525Y-113150781D01*
X193038491Y-113182857D01*
X193027351Y-113213991D01*
X193013213Y-113243884D01*
X192996213Y-113272247D01*
X192976515Y-113298807D01*
X192954308Y-113323308D01*
X192929807Y-113345515D01*
X192903247Y-113365213D01*
X192874884Y-113382213D01*
X192844991Y-113396351D01*
X192813857Y-113407491D01*
X192781781Y-113415525D01*
X192749071Y-113420377D01*
X192716044Y-113422000D01*
X191839956Y-113422000D01*
X191806929Y-113420377D01*
X191774219Y-113415525D01*
X191742143Y-113407491D01*
X191711009Y-113396351D01*
X191681116Y-113382213D01*
X191652753Y-113365213D01*
X191626193Y-113345515D01*
X191601692Y-113323308D01*
X191579485Y-113298807D01*
X191559787Y-113272247D01*
X191542787Y-113243884D01*
X191528649Y-113213991D01*
X191517509Y-113182857D01*
X191509475Y-113150781D01*
X191504623Y-113118071D01*
X191503000Y-113085044D01*
X191503000Y-111958956D01*
X191504623Y-111925929D01*
X191509475Y-111893219D01*
X191517509Y-111861143D01*
X191528649Y-111830009D01*
X191542787Y-111800116D01*
X191559787Y-111771753D01*
X191579485Y-111745193D01*
X191601692Y-111720692D01*
X191626193Y-111698485D01*
X191652753Y-111678787D01*
X191681116Y-111661787D01*
X191711009Y-111647649D01*
X191742143Y-111636509D01*
X191774219Y-111628475D01*
X191806929Y-111623623D01*
X191839956Y-111622000D01*
X192716044Y-111622000D01*
X192749071Y-111623623D01*
X192749071Y-111623623D01*
G37*
D23*
X192278000Y-112522000D03*
D17*
G36*
X194799071Y-111623623D02*
X194831781Y-111628475D01*
X194863857Y-111636509D01*
X194894991Y-111647649D01*
X194924884Y-111661787D01*
X194953247Y-111678787D01*
X194979807Y-111698485D01*
X195004308Y-111720692D01*
X195026515Y-111745193D01*
X195046213Y-111771753D01*
X195063213Y-111800116D01*
X195077351Y-111830009D01*
X195088491Y-111861143D01*
X195096525Y-111893219D01*
X195101377Y-111925929D01*
X195103000Y-111958956D01*
X195103000Y-113085044D01*
X195101377Y-113118071D01*
X195096525Y-113150781D01*
X195088491Y-113182857D01*
X195077351Y-113213991D01*
X195063213Y-113243884D01*
X195046213Y-113272247D01*
X195026515Y-113298807D01*
X195004308Y-113323308D01*
X194979807Y-113345515D01*
X194953247Y-113365213D01*
X194924884Y-113382213D01*
X194894991Y-113396351D01*
X194863857Y-113407491D01*
X194831781Y-113415525D01*
X194799071Y-113420377D01*
X194766044Y-113422000D01*
X193889956Y-113422000D01*
X193856929Y-113420377D01*
X193824219Y-113415525D01*
X193792143Y-113407491D01*
X193761009Y-113396351D01*
X193731116Y-113382213D01*
X193702753Y-113365213D01*
X193676193Y-113345515D01*
X193651692Y-113323308D01*
X193629485Y-113298807D01*
X193609787Y-113272247D01*
X193592787Y-113243884D01*
X193578649Y-113213991D01*
X193567509Y-113182857D01*
X193559475Y-113150781D01*
X193554623Y-113118071D01*
X193553000Y-113085044D01*
X193553000Y-111958956D01*
X193554623Y-111925929D01*
X193559475Y-111893219D01*
X193567509Y-111861143D01*
X193578649Y-111830009D01*
X193592787Y-111800116D01*
X193609787Y-111771753D01*
X193629485Y-111745193D01*
X193651692Y-111720692D01*
X193676193Y-111698485D01*
X193702753Y-111678787D01*
X193731116Y-111661787D01*
X193761009Y-111647649D01*
X193792143Y-111636509D01*
X193824219Y-111628475D01*
X193856929Y-111623623D01*
X193889956Y-111622000D01*
X194766044Y-111622000D01*
X194799071Y-111623623D01*
X194799071Y-111623623D01*
G37*
D23*
X194328000Y-112522000D03*
D24*
X115515000Y-65405000D03*
X120015000Y-65405000D03*
X115515000Y-71905000D03*
X120015000Y-71905000D03*
X69365000Y-71905000D03*
X64865000Y-71905000D03*
X69365000Y-65405000D03*
X64865000Y-65405000D03*
X89708344Y-88927320D03*
X89707344Y-96547320D03*
X61720000Y-88927320D03*
D25*
X61720000Y-104140000D03*
D26*
X202819000Y-117602000D03*
X202819000Y-115062000D03*
D27*
X202819000Y-112522000D03*
D28*
X60960000Y-113030000D03*
X60960000Y-120650000D03*
X60960000Y-125730000D03*
X60960000Y-130810000D03*
X53340000Y-130810000D03*
X53340000Y-125730000D03*
X53340000Y-120650000D03*
X53340000Y-113030000D03*
X77470000Y-113030000D03*
X77470000Y-120650000D03*
X77470000Y-125730000D03*
X77470000Y-130810000D03*
X69850000Y-130810000D03*
X69850000Y-125730000D03*
X69850000Y-120650000D03*
X69850000Y-113030000D03*
X93980000Y-113030000D03*
X93980000Y-120650000D03*
X93980000Y-125730000D03*
X93980000Y-130810000D03*
X86360000Y-130810000D03*
X86360000Y-125730000D03*
X86360000Y-120650000D03*
X86360000Y-113030000D03*
X110490000Y-112776000D03*
X110490000Y-120396000D03*
X110490000Y-125476000D03*
X110490000Y-130556000D03*
X102870000Y-130556000D03*
X102870000Y-125476000D03*
X102870000Y-120396000D03*
X102870000Y-112776000D03*
X127254000Y-112776000D03*
X127254000Y-120396000D03*
X127254000Y-125476000D03*
X127254000Y-130556000D03*
X119634000Y-130556000D03*
X119634000Y-125476000D03*
X119634000Y-120396000D03*
X119634000Y-112776000D03*
X144145000Y-112776000D03*
X144145000Y-120396000D03*
X144145000Y-125476000D03*
X144145000Y-130556000D03*
X136525000Y-130556000D03*
X136525000Y-125476000D03*
X136525000Y-120396000D03*
X136525000Y-112776000D03*
D29*
X162187979Y-117809195D03*
X163457979Y-117809195D03*
X164727979Y-117809195D03*
X165997979Y-117809195D03*
X165997979Y-123209195D03*
X164727979Y-123209195D03*
X163457979Y-123209195D03*
X162187979Y-123209195D03*
D30*
X43180000Y-83185000D03*
X43180000Y-148590000D03*
X203200000Y-83185000D03*
X203200000Y-148590000D03*
D22*
X159004000Y-100330000D03*
X159004000Y-99060000D03*
X159004000Y-97790000D03*
X159004000Y-96520000D03*
X159004000Y-95250000D03*
X159004000Y-93980000D03*
X159004000Y-92710000D03*
X159004000Y-91440000D03*
X164404000Y-91440000D03*
X164404000Y-92710000D03*
X164404000Y-93980000D03*
X164404000Y-95250000D03*
X164404000Y-96520000D03*
X164404000Y-97790000D03*
X164404000Y-99060000D03*
X164404000Y-100330000D03*
D26*
X202819000Y-98044000D03*
X202819000Y-95504000D03*
X202819000Y-92964000D03*
D27*
X202819000Y-90424000D03*
D17*
G36*
X164172071Y-80252623D02*
X164204781Y-80257475D01*
X164236857Y-80265509D01*
X164267991Y-80276649D01*
X164297884Y-80290787D01*
X164326247Y-80307787D01*
X164352807Y-80327485D01*
X164377308Y-80349692D01*
X164399515Y-80374193D01*
X164419213Y-80400753D01*
X164436213Y-80429116D01*
X164450351Y-80459009D01*
X164461491Y-80490143D01*
X164469525Y-80522219D01*
X164474377Y-80554929D01*
X164476000Y-80587956D01*
X164476000Y-81464044D01*
X164474377Y-81497071D01*
X164469525Y-81529781D01*
X164461491Y-81561857D01*
X164450351Y-81592991D01*
X164436213Y-81622884D01*
X164419213Y-81651247D01*
X164399515Y-81677807D01*
X164377308Y-81702308D01*
X164352807Y-81724515D01*
X164326247Y-81744213D01*
X164297884Y-81761213D01*
X164267991Y-81775351D01*
X164236857Y-81786491D01*
X164204781Y-81794525D01*
X164172071Y-81799377D01*
X164139044Y-81801000D01*
X163012956Y-81801000D01*
X162979929Y-81799377D01*
X162947219Y-81794525D01*
X162915143Y-81786491D01*
X162884009Y-81775351D01*
X162854116Y-81761213D01*
X162825753Y-81744213D01*
X162799193Y-81724515D01*
X162774692Y-81702308D01*
X162752485Y-81677807D01*
X162732787Y-81651247D01*
X162715787Y-81622884D01*
X162701649Y-81592991D01*
X162690509Y-81561857D01*
X162682475Y-81529781D01*
X162677623Y-81497071D01*
X162676000Y-81464044D01*
X162676000Y-80587956D01*
X162677623Y-80554929D01*
X162682475Y-80522219D01*
X162690509Y-80490143D01*
X162701649Y-80459009D01*
X162715787Y-80429116D01*
X162732787Y-80400753D01*
X162752485Y-80374193D01*
X162774692Y-80349692D01*
X162799193Y-80327485D01*
X162825753Y-80307787D01*
X162854116Y-80290787D01*
X162884009Y-80276649D01*
X162915143Y-80265509D01*
X162947219Y-80257475D01*
X162979929Y-80252623D01*
X163012956Y-80251000D01*
X164139044Y-80251000D01*
X164172071Y-80252623D01*
X164172071Y-80252623D01*
G37*
D23*
X163576000Y-81026000D03*
D17*
G36*
X164172071Y-82302623D02*
X164204781Y-82307475D01*
X164236857Y-82315509D01*
X164267991Y-82326649D01*
X164297884Y-82340787D01*
X164326247Y-82357787D01*
X164352807Y-82377485D01*
X164377308Y-82399692D01*
X164399515Y-82424193D01*
X164419213Y-82450753D01*
X164436213Y-82479116D01*
X164450351Y-82509009D01*
X164461491Y-82540143D01*
X164469525Y-82572219D01*
X164474377Y-82604929D01*
X164476000Y-82637956D01*
X164476000Y-83514044D01*
X164474377Y-83547071D01*
X164469525Y-83579781D01*
X164461491Y-83611857D01*
X164450351Y-83642991D01*
X164436213Y-83672884D01*
X164419213Y-83701247D01*
X164399515Y-83727807D01*
X164377308Y-83752308D01*
X164352807Y-83774515D01*
X164326247Y-83794213D01*
X164297884Y-83811213D01*
X164267991Y-83825351D01*
X164236857Y-83836491D01*
X164204781Y-83844525D01*
X164172071Y-83849377D01*
X164139044Y-83851000D01*
X163012956Y-83851000D01*
X162979929Y-83849377D01*
X162947219Y-83844525D01*
X162915143Y-83836491D01*
X162884009Y-83825351D01*
X162854116Y-83811213D01*
X162825753Y-83794213D01*
X162799193Y-83774515D01*
X162774692Y-83752308D01*
X162752485Y-83727807D01*
X162732787Y-83701247D01*
X162715787Y-83672884D01*
X162701649Y-83642991D01*
X162690509Y-83611857D01*
X162682475Y-83579781D01*
X162677623Y-83547071D01*
X162676000Y-83514044D01*
X162676000Y-82637956D01*
X162677623Y-82604929D01*
X162682475Y-82572219D01*
X162690509Y-82540143D01*
X162701649Y-82509009D01*
X162715787Y-82479116D01*
X162732787Y-82450753D01*
X162752485Y-82424193D01*
X162774692Y-82399692D01*
X162799193Y-82377485D01*
X162825753Y-82357787D01*
X162854116Y-82340787D01*
X162884009Y-82326649D01*
X162915143Y-82315509D01*
X162947219Y-82307475D01*
X162979929Y-82302623D01*
X163012956Y-82301000D01*
X164139044Y-82301000D01*
X164172071Y-82302623D01*
X164172071Y-82302623D01*
G37*
D23*
X163576000Y-83076000D03*
D17*
G36*
X165190071Y-108321623D02*
X165222781Y-108326475D01*
X165254857Y-108334509D01*
X165285991Y-108345649D01*
X165315884Y-108359787D01*
X165344247Y-108376787D01*
X165370807Y-108396485D01*
X165395308Y-108418692D01*
X165417515Y-108443193D01*
X165437213Y-108469753D01*
X165454213Y-108498116D01*
X165468351Y-108528009D01*
X165479491Y-108559143D01*
X165487525Y-108591219D01*
X165492377Y-108623929D01*
X165494000Y-108656956D01*
X165494000Y-109783044D01*
X165492377Y-109816071D01*
X165487525Y-109848781D01*
X165479491Y-109880857D01*
X165468351Y-109911991D01*
X165454213Y-109941884D01*
X165437213Y-109970247D01*
X165417515Y-109996807D01*
X165395308Y-110021308D01*
X165370807Y-110043515D01*
X165344247Y-110063213D01*
X165315884Y-110080213D01*
X165285991Y-110094351D01*
X165254857Y-110105491D01*
X165222781Y-110113525D01*
X165190071Y-110118377D01*
X165157044Y-110120000D01*
X164280956Y-110120000D01*
X164247929Y-110118377D01*
X164215219Y-110113525D01*
X164183143Y-110105491D01*
X164152009Y-110094351D01*
X164122116Y-110080213D01*
X164093753Y-110063213D01*
X164067193Y-110043515D01*
X164042692Y-110021308D01*
X164020485Y-109996807D01*
X164000787Y-109970247D01*
X163983787Y-109941884D01*
X163969649Y-109911991D01*
X163958509Y-109880857D01*
X163950475Y-109848781D01*
X163945623Y-109816071D01*
X163944000Y-109783044D01*
X163944000Y-108656956D01*
X163945623Y-108623929D01*
X163950475Y-108591219D01*
X163958509Y-108559143D01*
X163969649Y-108528009D01*
X163983787Y-108498116D01*
X164000787Y-108469753D01*
X164020485Y-108443193D01*
X164042692Y-108418692D01*
X164067193Y-108396485D01*
X164093753Y-108376787D01*
X164122116Y-108359787D01*
X164152009Y-108345649D01*
X164183143Y-108334509D01*
X164215219Y-108326475D01*
X164247929Y-108321623D01*
X164280956Y-108320000D01*
X165157044Y-108320000D01*
X165190071Y-108321623D01*
X165190071Y-108321623D01*
G37*
D23*
X164719000Y-109220000D03*
D17*
G36*
X163140071Y-108321623D02*
X163172781Y-108326475D01*
X163204857Y-108334509D01*
X163235991Y-108345649D01*
X163265884Y-108359787D01*
X163294247Y-108376787D01*
X163320807Y-108396485D01*
X163345308Y-108418692D01*
X163367515Y-108443193D01*
X163387213Y-108469753D01*
X163404213Y-108498116D01*
X163418351Y-108528009D01*
X163429491Y-108559143D01*
X163437525Y-108591219D01*
X163442377Y-108623929D01*
X163444000Y-108656956D01*
X163444000Y-109783044D01*
X163442377Y-109816071D01*
X163437525Y-109848781D01*
X163429491Y-109880857D01*
X163418351Y-109911991D01*
X163404213Y-109941884D01*
X163387213Y-109970247D01*
X163367515Y-109996807D01*
X163345308Y-110021308D01*
X163320807Y-110043515D01*
X163294247Y-110063213D01*
X163265884Y-110080213D01*
X163235991Y-110094351D01*
X163204857Y-110105491D01*
X163172781Y-110113525D01*
X163140071Y-110118377D01*
X163107044Y-110120000D01*
X162230956Y-110120000D01*
X162197929Y-110118377D01*
X162165219Y-110113525D01*
X162133143Y-110105491D01*
X162102009Y-110094351D01*
X162072116Y-110080213D01*
X162043753Y-110063213D01*
X162017193Y-110043515D01*
X161992692Y-110021308D01*
X161970485Y-109996807D01*
X161950787Y-109970247D01*
X161933787Y-109941884D01*
X161919649Y-109911991D01*
X161908509Y-109880857D01*
X161900475Y-109848781D01*
X161895623Y-109816071D01*
X161894000Y-109783044D01*
X161894000Y-108656956D01*
X161895623Y-108623929D01*
X161900475Y-108591219D01*
X161908509Y-108559143D01*
X161919649Y-108528009D01*
X161933787Y-108498116D01*
X161950787Y-108469753D01*
X161970485Y-108443193D01*
X161992692Y-108418692D01*
X162017193Y-108396485D01*
X162043753Y-108376787D01*
X162072116Y-108359787D01*
X162102009Y-108345649D01*
X162133143Y-108334509D01*
X162165219Y-108326475D01*
X162197929Y-108321623D01*
X162230956Y-108320000D01*
X163107044Y-108320000D01*
X163140071Y-108321623D01*
X163140071Y-108321623D01*
G37*
D23*
X162669000Y-109220000D03*
D17*
G36*
X165190071Y-113401623D02*
X165222781Y-113406475D01*
X165254857Y-113414509D01*
X165285991Y-113425649D01*
X165315884Y-113439787D01*
X165344247Y-113456787D01*
X165370807Y-113476485D01*
X165395308Y-113498692D01*
X165417515Y-113523193D01*
X165437213Y-113549753D01*
X165454213Y-113578116D01*
X165468351Y-113608009D01*
X165479491Y-113639143D01*
X165487525Y-113671219D01*
X165492377Y-113703929D01*
X165494000Y-113736956D01*
X165494000Y-114863044D01*
X165492377Y-114896071D01*
X165487525Y-114928781D01*
X165479491Y-114960857D01*
X165468351Y-114991991D01*
X165454213Y-115021884D01*
X165437213Y-115050247D01*
X165417515Y-115076807D01*
X165395308Y-115101308D01*
X165370807Y-115123515D01*
X165344247Y-115143213D01*
X165315884Y-115160213D01*
X165285991Y-115174351D01*
X165254857Y-115185491D01*
X165222781Y-115193525D01*
X165190071Y-115198377D01*
X165157044Y-115200000D01*
X164280956Y-115200000D01*
X164247929Y-115198377D01*
X164215219Y-115193525D01*
X164183143Y-115185491D01*
X164152009Y-115174351D01*
X164122116Y-115160213D01*
X164093753Y-115143213D01*
X164067193Y-115123515D01*
X164042692Y-115101308D01*
X164020485Y-115076807D01*
X164000787Y-115050247D01*
X163983787Y-115021884D01*
X163969649Y-114991991D01*
X163958509Y-114960857D01*
X163950475Y-114928781D01*
X163945623Y-114896071D01*
X163944000Y-114863044D01*
X163944000Y-113736956D01*
X163945623Y-113703929D01*
X163950475Y-113671219D01*
X163958509Y-113639143D01*
X163969649Y-113608009D01*
X163983787Y-113578116D01*
X164000787Y-113549753D01*
X164020485Y-113523193D01*
X164042692Y-113498692D01*
X164067193Y-113476485D01*
X164093753Y-113456787D01*
X164122116Y-113439787D01*
X164152009Y-113425649D01*
X164183143Y-113414509D01*
X164215219Y-113406475D01*
X164247929Y-113401623D01*
X164280956Y-113400000D01*
X165157044Y-113400000D01*
X165190071Y-113401623D01*
X165190071Y-113401623D01*
G37*
D23*
X164719000Y-114300000D03*
D17*
G36*
X163140071Y-113401623D02*
X163172781Y-113406475D01*
X163204857Y-113414509D01*
X163235991Y-113425649D01*
X163265884Y-113439787D01*
X163294247Y-113456787D01*
X163320807Y-113476485D01*
X163345308Y-113498692D01*
X163367515Y-113523193D01*
X163387213Y-113549753D01*
X163404213Y-113578116D01*
X163418351Y-113608009D01*
X163429491Y-113639143D01*
X163437525Y-113671219D01*
X163442377Y-113703929D01*
X163444000Y-113736956D01*
X163444000Y-114863044D01*
X163442377Y-114896071D01*
X163437525Y-114928781D01*
X163429491Y-114960857D01*
X163418351Y-114991991D01*
X163404213Y-115021884D01*
X163387213Y-115050247D01*
X163367515Y-115076807D01*
X163345308Y-115101308D01*
X163320807Y-115123515D01*
X163294247Y-115143213D01*
X163265884Y-115160213D01*
X163235991Y-115174351D01*
X163204857Y-115185491D01*
X163172781Y-115193525D01*
X163140071Y-115198377D01*
X163107044Y-115200000D01*
X162230956Y-115200000D01*
X162197929Y-115198377D01*
X162165219Y-115193525D01*
X162133143Y-115185491D01*
X162102009Y-115174351D01*
X162072116Y-115160213D01*
X162043753Y-115143213D01*
X162017193Y-115123515D01*
X161992692Y-115101308D01*
X161970485Y-115076807D01*
X161950787Y-115050247D01*
X161933787Y-115021884D01*
X161919649Y-114991991D01*
X161908509Y-114960857D01*
X161900475Y-114928781D01*
X161895623Y-114896071D01*
X161894000Y-114863044D01*
X161894000Y-113736956D01*
X161895623Y-113703929D01*
X161900475Y-113671219D01*
X161908509Y-113639143D01*
X161919649Y-113608009D01*
X161933787Y-113578116D01*
X161950787Y-113549753D01*
X161970485Y-113523193D01*
X161992692Y-113498692D01*
X162017193Y-113476485D01*
X162043753Y-113456787D01*
X162072116Y-113439787D01*
X162102009Y-113425649D01*
X162133143Y-113414509D01*
X162165219Y-113406475D01*
X162197929Y-113401623D01*
X162230956Y-113400000D01*
X163107044Y-113400000D01*
X163140071Y-113401623D01*
X163140071Y-113401623D01*
G37*
D23*
X162669000Y-114300000D03*
D17*
G36*
X165190071Y-110861623D02*
X165222781Y-110866475D01*
X165254857Y-110874509D01*
X165285991Y-110885649D01*
X165315884Y-110899787D01*
X165344247Y-110916787D01*
X165370807Y-110936485D01*
X165395308Y-110958692D01*
X165417515Y-110983193D01*
X165437213Y-111009753D01*
X165454213Y-111038116D01*
X165468351Y-111068009D01*
X165479491Y-111099143D01*
X165487525Y-111131219D01*
X165492377Y-111163929D01*
X165494000Y-111196956D01*
X165494000Y-112323044D01*
X165492377Y-112356071D01*
X165487525Y-112388781D01*
X165479491Y-112420857D01*
X165468351Y-112451991D01*
X165454213Y-112481884D01*
X165437213Y-112510247D01*
X165417515Y-112536807D01*
X165395308Y-112561308D01*
X165370807Y-112583515D01*
X165344247Y-112603213D01*
X165315884Y-112620213D01*
X165285991Y-112634351D01*
X165254857Y-112645491D01*
X165222781Y-112653525D01*
X165190071Y-112658377D01*
X165157044Y-112660000D01*
X164280956Y-112660000D01*
X164247929Y-112658377D01*
X164215219Y-112653525D01*
X164183143Y-112645491D01*
X164152009Y-112634351D01*
X164122116Y-112620213D01*
X164093753Y-112603213D01*
X164067193Y-112583515D01*
X164042692Y-112561308D01*
X164020485Y-112536807D01*
X164000787Y-112510247D01*
X163983787Y-112481884D01*
X163969649Y-112451991D01*
X163958509Y-112420857D01*
X163950475Y-112388781D01*
X163945623Y-112356071D01*
X163944000Y-112323044D01*
X163944000Y-111196956D01*
X163945623Y-111163929D01*
X163950475Y-111131219D01*
X163958509Y-111099143D01*
X163969649Y-111068009D01*
X163983787Y-111038116D01*
X164000787Y-111009753D01*
X164020485Y-110983193D01*
X164042692Y-110958692D01*
X164067193Y-110936485D01*
X164093753Y-110916787D01*
X164122116Y-110899787D01*
X164152009Y-110885649D01*
X164183143Y-110874509D01*
X164215219Y-110866475D01*
X164247929Y-110861623D01*
X164280956Y-110860000D01*
X165157044Y-110860000D01*
X165190071Y-110861623D01*
X165190071Y-110861623D01*
G37*
D23*
X164719000Y-111760000D03*
D17*
G36*
X163140071Y-110861623D02*
X163172781Y-110866475D01*
X163204857Y-110874509D01*
X163235991Y-110885649D01*
X163265884Y-110899787D01*
X163294247Y-110916787D01*
X163320807Y-110936485D01*
X163345308Y-110958692D01*
X163367515Y-110983193D01*
X163387213Y-111009753D01*
X163404213Y-111038116D01*
X163418351Y-111068009D01*
X163429491Y-111099143D01*
X163437525Y-111131219D01*
X163442377Y-111163929D01*
X163444000Y-111196956D01*
X163444000Y-112323044D01*
X163442377Y-112356071D01*
X163437525Y-112388781D01*
X163429491Y-112420857D01*
X163418351Y-112451991D01*
X163404213Y-112481884D01*
X163387213Y-112510247D01*
X163367515Y-112536807D01*
X163345308Y-112561308D01*
X163320807Y-112583515D01*
X163294247Y-112603213D01*
X163265884Y-112620213D01*
X163235991Y-112634351D01*
X163204857Y-112645491D01*
X163172781Y-112653525D01*
X163140071Y-112658377D01*
X163107044Y-112660000D01*
X162230956Y-112660000D01*
X162197929Y-112658377D01*
X162165219Y-112653525D01*
X162133143Y-112645491D01*
X162102009Y-112634351D01*
X162072116Y-112620213D01*
X162043753Y-112603213D01*
X162017193Y-112583515D01*
X161992692Y-112561308D01*
X161970485Y-112536807D01*
X161950787Y-112510247D01*
X161933787Y-112481884D01*
X161919649Y-112451991D01*
X161908509Y-112420857D01*
X161900475Y-112388781D01*
X161895623Y-112356071D01*
X161894000Y-112323044D01*
X161894000Y-111196956D01*
X161895623Y-111163929D01*
X161900475Y-111131219D01*
X161908509Y-111099143D01*
X161919649Y-111068009D01*
X161933787Y-111038116D01*
X161950787Y-111009753D01*
X161970485Y-110983193D01*
X161992692Y-110958692D01*
X162017193Y-110936485D01*
X162043753Y-110916787D01*
X162072116Y-110899787D01*
X162102009Y-110885649D01*
X162133143Y-110874509D01*
X162165219Y-110866475D01*
X162197929Y-110861623D01*
X162230956Y-110860000D01*
X163107044Y-110860000D01*
X163140071Y-110861623D01*
X163140071Y-110861623D01*
G37*
D23*
X162669000Y-111760000D03*
D17*
G36*
X194781071Y-114163623D02*
X194813781Y-114168475D01*
X194845857Y-114176509D01*
X194876991Y-114187649D01*
X194906884Y-114201787D01*
X194935247Y-114218787D01*
X194961807Y-114238485D01*
X194986308Y-114260692D01*
X195008515Y-114285193D01*
X195028213Y-114311753D01*
X195045213Y-114340116D01*
X195059351Y-114370009D01*
X195070491Y-114401143D01*
X195078525Y-114433219D01*
X195083377Y-114465929D01*
X195085000Y-114498956D01*
X195085000Y-115625044D01*
X195083377Y-115658071D01*
X195078525Y-115690781D01*
X195070491Y-115722857D01*
X195059351Y-115753991D01*
X195045213Y-115783884D01*
X195028213Y-115812247D01*
X195008515Y-115838807D01*
X194986308Y-115863308D01*
X194961807Y-115885515D01*
X194935247Y-115905213D01*
X194906884Y-115922213D01*
X194876991Y-115936351D01*
X194845857Y-115947491D01*
X194813781Y-115955525D01*
X194781071Y-115960377D01*
X194748044Y-115962000D01*
X193871956Y-115962000D01*
X193838929Y-115960377D01*
X193806219Y-115955525D01*
X193774143Y-115947491D01*
X193743009Y-115936351D01*
X193713116Y-115922213D01*
X193684753Y-115905213D01*
X193658193Y-115885515D01*
X193633692Y-115863308D01*
X193611485Y-115838807D01*
X193591787Y-115812247D01*
X193574787Y-115783884D01*
X193560649Y-115753991D01*
X193549509Y-115722857D01*
X193541475Y-115690781D01*
X193536623Y-115658071D01*
X193535000Y-115625044D01*
X193535000Y-114498956D01*
X193536623Y-114465929D01*
X193541475Y-114433219D01*
X193549509Y-114401143D01*
X193560649Y-114370009D01*
X193574787Y-114340116D01*
X193591787Y-114311753D01*
X193611485Y-114285193D01*
X193633692Y-114260692D01*
X193658193Y-114238485D01*
X193684753Y-114218787D01*
X193713116Y-114201787D01*
X193743009Y-114187649D01*
X193774143Y-114176509D01*
X193806219Y-114168475D01*
X193838929Y-114163623D01*
X193871956Y-114162000D01*
X194748044Y-114162000D01*
X194781071Y-114163623D01*
X194781071Y-114163623D01*
G37*
D23*
X194310000Y-115062000D03*
D17*
G36*
X192731071Y-114163623D02*
X192763781Y-114168475D01*
X192795857Y-114176509D01*
X192826991Y-114187649D01*
X192856884Y-114201787D01*
X192885247Y-114218787D01*
X192911807Y-114238485D01*
X192936308Y-114260692D01*
X192958515Y-114285193D01*
X192978213Y-114311753D01*
X192995213Y-114340116D01*
X193009351Y-114370009D01*
X193020491Y-114401143D01*
X193028525Y-114433219D01*
X193033377Y-114465929D01*
X193035000Y-114498956D01*
X193035000Y-115625044D01*
X193033377Y-115658071D01*
X193028525Y-115690781D01*
X193020491Y-115722857D01*
X193009351Y-115753991D01*
X192995213Y-115783884D01*
X192978213Y-115812247D01*
X192958515Y-115838807D01*
X192936308Y-115863308D01*
X192911807Y-115885515D01*
X192885247Y-115905213D01*
X192856884Y-115922213D01*
X192826991Y-115936351D01*
X192795857Y-115947491D01*
X192763781Y-115955525D01*
X192731071Y-115960377D01*
X192698044Y-115962000D01*
X191821956Y-115962000D01*
X191788929Y-115960377D01*
X191756219Y-115955525D01*
X191724143Y-115947491D01*
X191693009Y-115936351D01*
X191663116Y-115922213D01*
X191634753Y-115905213D01*
X191608193Y-115885515D01*
X191583692Y-115863308D01*
X191561485Y-115838807D01*
X191541787Y-115812247D01*
X191524787Y-115783884D01*
X191510649Y-115753991D01*
X191499509Y-115722857D01*
X191491475Y-115690781D01*
X191486623Y-115658071D01*
X191485000Y-115625044D01*
X191485000Y-114498956D01*
X191486623Y-114465929D01*
X191491475Y-114433219D01*
X191499509Y-114401143D01*
X191510649Y-114370009D01*
X191524787Y-114340116D01*
X191541787Y-114311753D01*
X191561485Y-114285193D01*
X191583692Y-114260692D01*
X191608193Y-114238485D01*
X191634753Y-114218787D01*
X191663116Y-114201787D01*
X191693009Y-114187649D01*
X191724143Y-114176509D01*
X191756219Y-114168475D01*
X191788929Y-114163623D01*
X191821956Y-114162000D01*
X192698044Y-114162000D01*
X192731071Y-114163623D01*
X192731071Y-114163623D01*
G37*
D23*
X192260000Y-115062000D03*
D12*
X107315000Y-59055000D03*
X106045000Y-59055000D03*
X104775000Y-59055000D03*
D13*
X103505000Y-59055000D03*
D12*
X94615000Y-59055000D03*
X93345000Y-59055000D03*
X92075000Y-59055000D03*
D13*
X90805000Y-59055000D03*
D12*
X81915000Y-59055000D03*
X80645000Y-59055000D03*
X79375000Y-59055000D03*
D13*
X78105000Y-59055000D03*
D12*
X69215000Y-59055000D03*
X67945000Y-59055000D03*
X66675000Y-59055000D03*
D13*
X65405000Y-59055000D03*
D12*
X56515000Y-59055000D03*
X55245000Y-59055000D03*
X53975000Y-59055000D03*
D13*
X52705000Y-59055000D03*
D31*
X204470000Y-64135000D03*
X41910000Y-64135000D03*
D24*
X102965000Y-65405000D03*
X107465000Y-65405000D03*
X102965000Y-71905000D03*
X107465000Y-71905000D03*
X94765000Y-71905000D03*
X90265000Y-71905000D03*
X94765000Y-65405000D03*
X90265000Y-65405000D03*
X77415000Y-65405000D03*
X81915000Y-65405000D03*
X77415000Y-71905000D03*
X81915000Y-71905000D03*
X57205000Y-71905000D03*
X52705000Y-71905000D03*
X57205000Y-65405000D03*
X52705000Y-65405000D03*
D32*
X147320000Y-76835000D03*
X145415000Y-76835000D03*
X143510000Y-76835000D03*
X141605000Y-76835000D03*
D33*
X97155000Y-85725000D03*
X97155000Y-91125000D03*
X97155000Y-102555000D03*
X97155000Y-97155000D03*
D16*
X116840000Y-102235000D03*
X116840000Y-97835000D03*
D21*
X108990000Y-88645000D03*
D20*
X102690000Y-90925000D03*
X102690000Y-88645000D03*
X102690000Y-86365000D03*
D34*
X92884000Y-140335000D03*
D35*
X87884000Y-140335000D03*
X104521000Y-140335000D03*
D34*
X109521000Y-140335000D03*
X126158000Y-140335000D03*
D35*
X121158000Y-140335000D03*
D34*
X59610000Y-140335000D03*
D35*
X54610000Y-140335000D03*
X178435000Y-140335000D03*
D34*
X183435000Y-140335000D03*
X188435000Y-140335000D03*
D36*
X189704000Y-80010000D03*
X189704000Y-81280000D03*
X189704000Y-82550000D03*
X189704000Y-83820000D03*
X189704000Y-85090000D03*
X189704000Y-86360000D03*
X189704000Y-87630000D03*
X189704000Y-88900000D03*
X189704000Y-90170000D03*
X189704000Y-91440000D03*
X189704000Y-92710000D03*
X189704000Y-93980000D03*
X189704000Y-95250000D03*
X189704000Y-96520000D03*
D37*
X186419000Y-98010000D03*
X185149000Y-98010000D03*
X183879000Y-98010000D03*
X182609000Y-98010000D03*
X181339000Y-98010000D03*
X180069000Y-98010000D03*
X178799000Y-98010000D03*
X177529000Y-98010000D03*
X176259000Y-98010000D03*
X174989000Y-98010000D03*
D36*
X171704000Y-96520000D03*
X171704000Y-95250000D03*
X171704000Y-93980000D03*
X171704000Y-92710000D03*
X171704000Y-91440000D03*
X171704000Y-90170000D03*
X171704000Y-88900000D03*
X171704000Y-87630000D03*
X171704000Y-86360000D03*
X171704000Y-85090000D03*
X171704000Y-83820000D03*
X171704000Y-82550000D03*
X171704000Y-81280000D03*
X171704000Y-80010000D03*
D38*
X180404000Y-87710000D03*
D34*
X76247000Y-140335000D03*
D35*
X71247000Y-140335000D03*
X137795000Y-140335000D03*
D34*
X142795000Y-140335000D03*
D35*
X155575000Y-140335000D03*
D34*
X160575000Y-140335000D03*
X165575000Y-140335000D03*
D27*
X202819000Y-106680000D03*
D26*
X202819000Y-104140000D03*
D39*
X123825000Y-95885000D03*
X123825000Y-91440000D03*
X123825000Y-86995000D03*
X123825000Y-100330000D03*
D40*
X178435000Y-123190000D03*
X178435000Y-131690000D03*
M02*
