%TF.GenerationSoftware,KiCad,Pcbnew,(5.0.0)*%
%TF.CreationDate,2018-09-17T09:03:23+01:00*%
%TF.ProjectId,AquaHub,417175614875622E6B696361645F7063,rev?*%
%TF.SameCoordinates,Original*%
%TF.FileFunction,Copper,L2,Bot,Signal*%
%TF.FilePolarity,Positive*%
%FSLAX46Y46*%
G04 Gerber Fmt 4.6, Leading zero omitted, Abs format (unit mm)*
G04 Created by KiCad (PCBNEW (5.0.0)) date 09/17/18 09:03:23*
%MOMM*%
%LPD*%
G01*
G04 APERTURE LIST*
%ADD10C,0.080000*%
%ADD11C,0.200000*%
%ADD12O,1.700000X1.700000*%
%ADD13R,1.700000X1.700000*%
%ADD14C,2.600000*%
%ADD15R,2.600000X2.600000*%
%ADD16C,2.000000*%
%ADD17R,2.000000X2.000000*%
%ADD18C,2.500000*%
%ADD19O,1.070000X1.800000*%
%ADD20R,1.070000X1.800000*%
%ADD21O,1.727200X1.727200*%
%ADD22R,1.727200X1.727200*%
%ADD23C,1.800000*%
%ADD24C,2.800000*%
%ADD25R,3.000000X1.600000*%
%ADD26C,2.780000*%
%ADD27C,1.000000*%
%ADD28C,0.152400*%
%ADD29C,2.000000*%
%ADD30C,0.254000*%
%ADD31C,0.350000*%
G04 APERTURE END LIST*
D10*
X55880000Y-104140000D02*
X55880000Y-102870000D01*
X66040000Y-104140000D02*
X55880000Y-104140000D01*
X66040000Y-102870000D02*
X66040000Y-104140000D01*
X55880000Y-102870000D02*
X66040000Y-102870000D01*
D11*
X50800000Y-102870000D02*
X47879000Y-102870000D01*
X50800000Y-106045000D02*
X50800000Y-102870000D01*
X146050000Y-115570000D02*
X146050000Y-118110000D01*
X140680000Y-77590000D02*
X140680000Y-75590000D01*
X148180000Y-75590000D02*
X148180000Y-77590000D01*
X148180000Y-77590000D02*
X208180000Y-77590000D01*
X208180000Y-75590000D02*
X148180000Y-75590000D01*
X208180000Y-53590000D02*
X208180000Y-75590000D01*
X38180000Y-53590000D02*
X208180000Y-53590000D01*
X38180000Y-75590000D02*
X38180000Y-53590000D01*
X140680000Y-75590000D02*
X38180000Y-75590000D01*
X48006000Y-118364000D02*
X47879000Y-102870000D01*
X146050000Y-118110000D02*
X48006000Y-118364000D01*
X50800000Y-115570000D02*
X146050000Y-115570000D01*
X50800000Y-106045000D02*
X50800000Y-115570000D01*
X38180000Y-153590000D02*
X208180000Y-153590000D01*
X38180000Y-77590000D02*
X38180000Y-153590000D01*
X140680000Y-77590000D02*
X38180000Y-77590000D01*
X208180000Y-77590000D02*
X208180000Y-153590000D01*
D12*
X202819000Y-125603000D03*
X202819000Y-123063000D03*
D13*
X202819000Y-120523000D03*
D14*
X171243000Y-140335000D03*
D15*
X166243000Y-140335000D03*
D14*
X142795000Y-140335000D03*
D15*
X137795000Y-140335000D03*
D14*
X76247000Y-140335000D03*
D15*
X71247000Y-140335000D03*
D14*
X59610000Y-140335000D03*
D15*
X54610000Y-140335000D03*
D14*
X126158000Y-140335000D03*
D15*
X121158000Y-140335000D03*
D14*
X109521000Y-140335000D03*
D15*
X104521000Y-140335000D03*
D14*
X92884000Y-140335000D03*
D15*
X87884000Y-140335000D03*
D16*
X83693000Y-82804000D03*
X88773000Y-100584000D03*
X88773000Y-82804000D03*
X63373000Y-100584000D03*
D17*
X58293000Y-100584000D03*
D16*
X87430000Y-72840000D03*
X82930000Y-72840000D03*
X87430000Y-66340000D03*
X82930000Y-66340000D03*
D18*
X136525000Y-133350000D03*
X136525000Y-128350000D03*
X136525000Y-108350000D03*
X144025000Y-108350000D03*
X144025000Y-128350000D03*
X144025000Y-133350000D03*
X102990000Y-133350000D03*
X102990000Y-128350000D03*
X102990000Y-108350000D03*
X110490000Y-108350000D03*
X110490000Y-128350000D03*
X110490000Y-133350000D03*
X86480000Y-133350000D03*
X86480000Y-128350000D03*
X86480000Y-108350000D03*
X93980000Y-108350000D03*
X93980000Y-128350000D03*
X93980000Y-133350000D03*
D12*
X195580000Y-97663000D03*
D13*
X195580000Y-95123000D03*
D19*
X131990000Y-59590000D03*
X130720000Y-59590000D03*
X129450000Y-59590000D03*
D20*
X128180000Y-59590000D03*
D21*
X144780000Y-84328000D03*
X144780000Y-81788000D03*
X147320000Y-84328000D03*
X147320000Y-81788000D03*
X149860000Y-84328000D03*
D22*
X149860000Y-81788000D03*
D23*
X49805000Y-99575000D03*
X52705000Y-92075000D03*
D21*
X180975000Y-66040000D03*
X183515000Y-66040000D03*
X180975000Y-63500000D03*
X183515000Y-63500000D03*
X180975000Y-60960000D03*
D22*
X183515000Y-60960000D03*
D16*
X132430000Y-72840000D03*
X127930000Y-72840000D03*
X132430000Y-66340000D03*
X127930000Y-66340000D03*
X72430000Y-72840000D03*
X67930000Y-72840000D03*
X72430000Y-66340000D03*
X67930000Y-66340000D03*
D12*
X202819000Y-114427000D03*
X202819000Y-111887000D03*
D13*
X202819000Y-109347000D03*
D19*
X116990000Y-59590000D03*
X115720000Y-59590000D03*
X114450000Y-59590000D03*
D20*
X113180000Y-59590000D03*
D19*
X101990000Y-59590000D03*
X100720000Y-59590000D03*
X99450000Y-59590000D03*
D20*
X98180000Y-59590000D03*
D19*
X86990000Y-59590000D03*
X85720000Y-59590000D03*
X84450000Y-59590000D03*
D20*
X83180000Y-59590000D03*
D19*
X71990000Y-59590000D03*
X70720000Y-59590000D03*
X69450000Y-59590000D03*
D20*
X68180000Y-59590000D03*
D19*
X56990000Y-59590000D03*
X55720000Y-59590000D03*
X54450000Y-59590000D03*
D20*
X53180000Y-59590000D03*
D16*
X117430000Y-72840000D03*
X112930000Y-72840000D03*
X117430000Y-66340000D03*
X112930000Y-66340000D03*
X102430000Y-72840000D03*
X97930000Y-72840000D03*
X102430000Y-66340000D03*
X97930000Y-66340000D03*
X57430000Y-72840000D03*
X52930000Y-72840000D03*
X57430000Y-66340000D03*
X52930000Y-66340000D03*
D24*
X123825000Y-95885000D03*
X123825000Y-91440000D03*
X123825000Y-86995000D03*
X123825000Y-100330000D03*
D12*
X202819000Y-103124000D03*
X202819000Y-100584000D03*
X202819000Y-98044000D03*
X202819000Y-95504000D03*
X202819000Y-92964000D03*
D13*
X202819000Y-90424000D03*
D18*
X53460000Y-133350000D03*
X53460000Y-128350000D03*
X53460000Y-108350000D03*
X60960000Y-108350000D03*
X60960000Y-128350000D03*
X60960000Y-133350000D03*
X69970000Y-133350000D03*
X69970000Y-128350000D03*
X69970000Y-108350000D03*
X77470000Y-108350000D03*
X77470000Y-128350000D03*
X77470000Y-133350000D03*
X119754000Y-133350000D03*
X119754000Y-128350000D03*
X119754000Y-108350000D03*
X127254000Y-108350000D03*
X127254000Y-128350000D03*
X127254000Y-133350000D03*
D19*
X156990000Y-59590000D03*
X155720000Y-59590000D03*
X154450000Y-59590000D03*
D20*
X153180000Y-59590000D03*
D25*
X153180000Y-65590000D03*
X157580000Y-65590000D03*
D26*
X166780000Y-130175000D03*
X170180000Y-130175000D03*
X166780000Y-120255000D03*
X170180000Y-120255000D03*
D17*
X193040000Y-137160000D03*
D16*
X200640000Y-137160000D03*
D27*
X115062000Y-83820000D03*
X156591003Y-81025997D03*
X192659012Y-80010000D03*
X175006000Y-100203000D03*
X174117000Y-80010000D03*
X160020000Y-109220000D03*
X161290000Y-60325000D03*
X103504984Y-95250000D03*
X120015000Y-95885002D03*
X186055000Y-103505000D03*
X160575969Y-88104241D03*
X156083000Y-88025210D03*
X189230000Y-103505000D03*
X180975000Y-58278790D03*
X175006000Y-62865000D03*
X185913800Y-63500000D03*
X186944000Y-88900000D03*
X183515000Y-68453000D03*
X186817000Y-82550000D03*
X182245000Y-69342000D03*
X186817000Y-86360000D03*
X161820643Y-108054357D03*
X163195000Y-106680000D03*
X177165000Y-102235000D03*
X186055000Y-100965000D03*
X189230000Y-100965000D03*
X175006000Y-102235000D03*
X192277972Y-92710000D03*
X192278006Y-97917000D03*
X187325000Y-93980000D03*
X186055000Y-102235000D03*
X143256002Y-92329000D03*
X155067000Y-92329002D03*
X142747992Y-94234000D03*
X155067000Y-94233994D03*
X142240000Y-96139000D03*
X155067000Y-96138998D03*
X142240000Y-98044000D03*
X155067000Y-98044010D03*
X142748000Y-99949000D03*
X155067000Y-99949010D03*
X143256002Y-101854000D03*
X155067000Y-101854016D03*
X193294000Y-105410000D03*
X193294000Y-95250000D03*
D28*
X120650000Y-83820000D02*
X123825000Y-86995000D01*
X115062000Y-83820000D02*
X120650000Y-83820000D01*
X149860000Y-80264000D02*
X149860000Y-81788000D01*
X148209000Y-79629000D02*
X149225000Y-79629000D01*
X149225000Y-79629000D02*
X149860000Y-80264000D01*
X149860000Y-81788000D02*
X155829000Y-81788000D01*
X155829000Y-81788000D02*
X156591003Y-81025997D01*
X160020000Y-107315010D02*
X160020000Y-109220000D01*
X175006000Y-100203000D02*
X167132010Y-100203000D01*
X167132010Y-100203000D02*
X160020000Y-107315010D01*
X161290000Y-58801000D02*
X161290000Y-60325000D01*
X162678999Y-57412001D02*
X161290000Y-58801000D01*
X183142001Y-57412001D02*
X162678999Y-57412001D01*
X183515000Y-60960000D02*
X183515000Y-57785000D01*
X183515000Y-57785000D02*
X183142001Y-57412001D01*
X185420000Y-60960000D02*
X183515000Y-60960000D01*
X186690000Y-66675000D02*
X186690000Y-62230000D01*
X146939000Y-79629000D02*
X146304000Y-78994000D01*
X146304000Y-78994000D02*
X146304000Y-71247000D01*
X148209000Y-79629000D02*
X146939000Y-79629000D01*
X146304000Y-71247000D02*
X147066000Y-70485000D01*
X186690000Y-62230000D02*
X185420000Y-60960000D01*
X147066000Y-70485000D02*
X182880000Y-70485000D01*
X182880000Y-70485000D02*
X186690000Y-66675000D01*
X154450000Y-57720000D02*
X154450000Y-59055000D01*
X52930000Y-72840000D02*
X52930000Y-66340000D01*
X69450000Y-57170000D02*
X69450000Y-59590000D01*
X69370000Y-57090000D02*
X69450000Y-57170000D01*
X84450000Y-57170000D02*
X84450000Y-59590000D01*
X84430000Y-57150000D02*
X84450000Y-57170000D01*
X114450000Y-57170000D02*
X114450000Y-59590000D01*
X114430000Y-57150000D02*
X114450000Y-57170000D01*
X129450000Y-57210000D02*
X129450000Y-59590000D01*
X129430000Y-57190000D02*
X129450000Y-57210000D01*
X129450000Y-64820000D02*
X127930000Y-66340000D01*
X129450000Y-59590000D02*
X129450000Y-64820000D01*
X127930000Y-66340000D02*
X127930000Y-72840000D01*
X114450000Y-64820000D02*
X112930000Y-66340000D01*
X114450000Y-59590000D02*
X114450000Y-64820000D01*
X112930000Y-66340000D02*
X112930000Y-72840000D01*
X99450000Y-64820000D02*
X97930000Y-66340000D01*
X99450000Y-59590000D02*
X99450000Y-64820000D01*
X97930000Y-66340000D02*
X97930000Y-72840000D01*
X84450000Y-64820000D02*
X82930000Y-66340000D01*
X84450000Y-59590000D02*
X84450000Y-64820000D01*
X82930000Y-66340000D02*
X82930000Y-72840000D01*
X69450000Y-64820000D02*
X67930000Y-66340000D01*
X69450000Y-59590000D02*
X69450000Y-64820000D01*
X67930000Y-66340000D02*
X67930000Y-72840000D01*
X129430000Y-57190000D02*
X129430000Y-57090000D01*
X153980000Y-57090000D02*
X129430000Y-57090000D01*
X154450000Y-57720000D02*
X154450000Y-57560000D01*
X154450000Y-57560000D02*
X153980000Y-57090000D01*
X114430000Y-57090000D02*
X114430000Y-57150000D01*
X129430000Y-57090000D02*
X114430000Y-57090000D01*
X99430000Y-59590000D02*
X99450000Y-59590000D01*
X99430000Y-57150000D02*
X99430000Y-59590000D01*
X99430000Y-57090000D02*
X99430000Y-57150000D01*
X114430000Y-57090000D02*
X99430000Y-57090000D01*
X84430000Y-57150000D02*
X84430000Y-57090000D01*
X99370000Y-57090000D02*
X84430000Y-57090000D01*
X99430000Y-57150000D02*
X99370000Y-57090000D01*
X84430000Y-57090000D02*
X69370000Y-57090000D01*
X54680000Y-57090000D02*
X69370000Y-57090000D01*
X54430000Y-57340000D02*
X54680000Y-57090000D01*
X52930000Y-66340000D02*
X54430000Y-64840000D01*
X54430000Y-64840000D02*
X54430000Y-57340000D01*
X154450000Y-63367600D02*
X154450000Y-59590000D01*
X153180000Y-64637600D02*
X154450000Y-63367600D01*
X153180000Y-65590000D02*
X153180000Y-64637600D01*
X154450000Y-57620000D02*
X154450000Y-57720000D01*
X155047000Y-57023000D02*
X154450000Y-57620000D01*
X161290000Y-58801000D02*
X159512000Y-57023000D01*
X159512000Y-57023000D02*
X155047000Y-57023000D01*
X88900000Y-82931000D02*
X88773000Y-82804000D01*
X115062000Y-83820000D02*
X114173000Y-82931000D01*
X114173000Y-82931000D02*
X88900000Y-82931000D01*
X204597000Y-120523000D02*
X202819000Y-120523000D01*
X199644000Y-93599000D02*
X202819000Y-90424000D01*
X199644000Y-96901000D02*
X199644000Y-93599000D01*
X198882000Y-97663000D02*
X199644000Y-96901000D01*
X195580000Y-97790000D02*
X195707000Y-97663000D01*
X195707000Y-97663000D02*
X198882000Y-97663000D01*
X129540000Y-86995000D02*
X123825000Y-86995000D01*
X148209000Y-79629000D02*
X136906000Y-79629000D01*
X136906000Y-79629000D02*
X129540000Y-86995000D01*
X190119000Y-109728000D02*
X190627000Y-109220000D01*
X160020000Y-109220000D02*
X160528000Y-109728000D01*
X160528000Y-109728000D02*
X190119000Y-109728000D01*
X204978000Y-120142000D02*
X204597000Y-120523000D01*
X204978000Y-109728000D02*
X204978000Y-120142000D01*
X202819000Y-109347000D02*
X204597000Y-109347000D01*
X204597000Y-109347000D02*
X204978000Y-109728000D01*
X204978000Y-108966000D02*
X204597000Y-109347000D01*
X204978000Y-91186000D02*
X204978000Y-108966000D01*
X202819000Y-90424000D02*
X204216000Y-90424000D01*
X204216000Y-90424000D02*
X204978000Y-91186000D01*
X203581000Y-137160000D02*
X200640000Y-137160000D01*
X204978000Y-135763000D02*
X203581000Y-137160000D01*
X204597000Y-120523000D02*
X204978000Y-120904000D01*
X204978000Y-120904000D02*
X204978000Y-135763000D01*
X194564000Y-80010000D02*
X192659012Y-80010000D01*
X202819000Y-90424000D02*
X202819000Y-88265000D01*
X202819000Y-88265000D02*
X194564000Y-80010000D01*
X155720000Y-62777600D02*
X155720000Y-59590000D01*
X157580000Y-64637600D02*
X155720000Y-62777600D01*
X157580000Y-65590000D02*
X157580000Y-64637600D01*
X160575969Y-88104241D02*
X156162031Y-88104241D01*
X156162031Y-88104241D02*
X156083000Y-88025210D01*
X186055000Y-103505000D02*
X189230000Y-103505000D01*
X180975000Y-60960000D02*
X180975000Y-58278790D01*
X175641000Y-62230000D02*
X175006000Y-62865000D01*
X183515000Y-63500000D02*
X182245000Y-62230000D01*
X182245000Y-62230000D02*
X175641000Y-62230000D01*
X185913800Y-63500000D02*
X183515000Y-63500000D01*
X146456401Y-82651599D02*
X147320000Y-81788000D01*
X146050000Y-83058000D02*
X146456401Y-82651599D01*
X146050000Y-85217000D02*
X146050000Y-83058000D01*
X147574000Y-86741000D02*
X146050000Y-85217000D01*
X186944000Y-88900000D02*
X184785000Y-86741000D01*
X184785000Y-86741000D02*
X147574000Y-86741000D01*
X132430000Y-66340000D02*
X132430000Y-72840000D01*
X117430000Y-66340000D02*
X117430000Y-72840000D01*
X102430000Y-66340000D02*
X102430000Y-72840000D01*
X87430000Y-66340000D02*
X87430000Y-72840000D01*
X72430000Y-66340000D02*
X72430000Y-72840000D01*
X57430000Y-72840000D02*
X57430000Y-66340000D01*
X183515000Y-68453000D02*
X183515000Y-66040000D01*
X186817000Y-83947000D02*
X186817000Y-82550000D01*
X146177000Y-80391000D02*
X147701000Y-80391000D01*
X144780000Y-81788000D02*
X146177000Y-80391000D01*
X147701000Y-80391000D02*
X148590000Y-81280000D01*
X148590000Y-81280000D02*
X148590000Y-85598000D01*
X184756411Y-86007589D02*
X186817000Y-83947000D01*
X148590000Y-85598000D02*
X148999589Y-86007589D01*
X148999589Y-86007589D02*
X184756411Y-86007589D01*
X182245000Y-64770000D02*
X180975000Y-63500000D01*
X182245000Y-69342000D02*
X182245000Y-64770000D01*
X148130686Y-86360000D02*
X186817000Y-86360000D01*
X147320000Y-84328000D02*
X147320000Y-85549314D01*
X147320000Y-85549314D02*
X148130686Y-86360000D01*
X161820643Y-108054357D02*
X163195000Y-106680000D01*
X186055000Y-100965000D02*
X189230000Y-100965000D01*
X177165000Y-102235000D02*
X175006000Y-102235000D01*
X192277972Y-92710000D02*
X192277972Y-97916966D01*
X192277972Y-97916966D02*
X192278006Y-97917000D01*
X184531000Y-100711000D02*
X186055000Y-102235000D01*
X187325000Y-93980000D02*
X184531000Y-96774000D01*
X184531000Y-96774000D02*
X184531000Y-100711000D01*
D29*
X136525000Y-123190000D02*
X119754000Y-123190000D01*
X166116000Y-140462000D02*
X166243000Y-140335000D01*
X157480000Y-140335000D02*
X166243000Y-140335000D01*
X151257000Y-134112000D02*
X157480000Y-140335000D01*
X151257000Y-127000000D02*
X151257000Y-134112000D01*
X147447000Y-123190000D02*
X151257000Y-127000000D01*
X53460000Y-128350000D02*
X53460000Y-123190000D01*
X53460000Y-123190000D02*
X69970000Y-123190000D01*
X69970000Y-128350000D02*
X69970000Y-123190000D01*
X86480000Y-123190000D02*
X69970000Y-123190000D01*
X86480000Y-128350000D02*
X86480000Y-123190000D01*
X102990000Y-123190000D02*
X86480000Y-123190000D01*
X102990000Y-128350000D02*
X102990000Y-123190000D01*
X102990000Y-123190000D02*
X119754000Y-123190000D01*
X119754000Y-128350000D02*
X119754000Y-123190000D01*
X136525000Y-128350000D02*
X136525000Y-123190000D01*
X136525000Y-123190000D02*
X147447000Y-123190000D01*
X63373000Y-98806000D02*
X63373000Y-100584000D01*
X61214000Y-96647000D02*
X63373000Y-98806000D01*
X49805000Y-99575000D02*
X52733000Y-96647000D01*
X52733000Y-96647000D02*
X61214000Y-96647000D01*
X47625000Y-99568000D02*
X49784000Y-99568000D01*
X46355000Y-100838000D02*
X47625000Y-99568000D01*
X46355000Y-122301000D02*
X46355000Y-100838000D01*
X53460000Y-123190000D02*
X47244000Y-123190000D01*
X47244000Y-123190000D02*
X46355000Y-122301000D01*
X54610000Y-140335000D02*
X53467000Y-133350000D01*
X71247000Y-140335000D02*
X69977000Y-133350000D01*
X87884000Y-140335000D02*
X86360000Y-133350000D01*
X104521000Y-140335000D02*
X102997000Y-133350000D01*
X121158000Y-140335000D02*
X119888000Y-133477000D01*
X137795000Y-140335000D02*
X136525000Y-133350000D01*
D28*
X155067000Y-92329000D02*
X143256002Y-92329000D01*
X155067000Y-94234000D02*
X142747992Y-94234000D01*
X142240000Y-96139000D02*
X155067000Y-96139000D01*
X155067000Y-98044000D02*
X142240000Y-98044000D01*
X155067000Y-99949000D02*
X142748000Y-99949000D01*
X155067000Y-101854000D02*
X143256002Y-101854000D01*
X193294000Y-105410000D02*
X193294000Y-95250000D01*
D30*
G36*
X207445000Y-79989606D02*
X207445001Y-142895393D01*
X206322394Y-144018000D01*
X188012606Y-144018000D01*
X186817000Y-142822394D01*
X186817000Y-136160000D01*
X191392560Y-136160000D01*
X191392560Y-138160000D01*
X191441843Y-138407765D01*
X191582191Y-138617809D01*
X191792235Y-138758157D01*
X192040000Y-138807440D01*
X194040000Y-138807440D01*
X194287765Y-138758157D01*
X194497809Y-138617809D01*
X194638157Y-138407765D01*
X194657099Y-138312532D01*
X199667073Y-138312532D01*
X199765736Y-138579387D01*
X200375461Y-138805908D01*
X201025460Y-138781856D01*
X201514264Y-138579387D01*
X201612927Y-138312532D01*
X200640000Y-137339605D01*
X199667073Y-138312532D01*
X194657099Y-138312532D01*
X194687440Y-138160000D01*
X194687440Y-136895461D01*
X198994092Y-136895461D01*
X199018144Y-137545460D01*
X199220613Y-138034264D01*
X199487468Y-138132927D01*
X200460395Y-137160000D01*
X200819605Y-137160000D01*
X201792532Y-138132927D01*
X202059387Y-138034264D01*
X202285908Y-137424539D01*
X202261856Y-136774540D01*
X202059387Y-136285736D01*
X201792532Y-136187073D01*
X200819605Y-137160000D01*
X200460395Y-137160000D01*
X199487468Y-136187073D01*
X199220613Y-136285736D01*
X198994092Y-136895461D01*
X194687440Y-136895461D01*
X194687440Y-136160000D01*
X194657100Y-136007468D01*
X199667073Y-136007468D01*
X200640000Y-136980395D01*
X201612927Y-136007468D01*
X201514264Y-135740613D01*
X200904539Y-135514092D01*
X200254540Y-135538144D01*
X199765736Y-135740613D01*
X199667073Y-136007468D01*
X194657100Y-136007468D01*
X194638157Y-135912235D01*
X194497809Y-135702191D01*
X194287765Y-135561843D01*
X194040000Y-135512560D01*
X192040000Y-135512560D01*
X191792235Y-135561843D01*
X191582191Y-135702191D01*
X191441843Y-135912235D01*
X191392560Y-136160000D01*
X186817000Y-136160000D01*
X186817000Y-123063000D01*
X201304908Y-123063000D01*
X201420161Y-123642418D01*
X201748375Y-124133625D01*
X202046761Y-124333000D01*
X201748375Y-124532375D01*
X201420161Y-125023582D01*
X201304908Y-125603000D01*
X201420161Y-126182418D01*
X201748375Y-126673625D01*
X202239582Y-127001839D01*
X202672744Y-127088000D01*
X202965256Y-127088000D01*
X203398418Y-127001839D01*
X203889625Y-126673625D01*
X204217839Y-126182418D01*
X204333092Y-125603000D01*
X204217839Y-125023582D01*
X203889625Y-124532375D01*
X203591239Y-124333000D01*
X203889625Y-124133625D01*
X204217839Y-123642418D01*
X204333092Y-123063000D01*
X204217839Y-122483582D01*
X203889625Y-121992375D01*
X203867967Y-121977904D01*
X204028698Y-121911327D01*
X204207327Y-121732699D01*
X204304000Y-121499310D01*
X204304000Y-120808750D01*
X204145250Y-120650000D01*
X202946000Y-120650000D01*
X202946000Y-120670000D01*
X202692000Y-120670000D01*
X202692000Y-120650000D01*
X201492750Y-120650000D01*
X201334000Y-120808750D01*
X201334000Y-121499310D01*
X201430673Y-121732699D01*
X201609302Y-121911327D01*
X201770033Y-121977904D01*
X201748375Y-121992375D01*
X201420161Y-122483582D01*
X201304908Y-123063000D01*
X186817000Y-123063000D01*
X186817000Y-119546690D01*
X201334000Y-119546690D01*
X201334000Y-120237250D01*
X201492750Y-120396000D01*
X202692000Y-120396000D01*
X202692000Y-119196750D01*
X202946000Y-119196750D01*
X202946000Y-120396000D01*
X204145250Y-120396000D01*
X204304000Y-120237250D01*
X204304000Y-119546690D01*
X204207327Y-119313301D01*
X204028698Y-119134673D01*
X203795309Y-119038000D01*
X203104750Y-119038000D01*
X202946000Y-119196750D01*
X202692000Y-119196750D01*
X202533250Y-119038000D01*
X201842691Y-119038000D01*
X201609302Y-119134673D01*
X201430673Y-119313301D01*
X201334000Y-119546690D01*
X186817000Y-119546690D01*
X186817000Y-116840000D01*
X186807333Y-116791399D01*
X186779803Y-116750197D01*
X185509803Y-115480197D01*
X185468601Y-115452667D01*
X185420000Y-115443000D01*
X146774137Y-115443000D01*
X146742354Y-115283217D01*
X146579905Y-115040095D01*
X146336783Y-114877646D01*
X146122388Y-114835000D01*
X146050000Y-114820601D01*
X145977612Y-114835000D01*
X94694606Y-114835000D01*
X94107000Y-114247394D01*
X94107000Y-111887000D01*
X201304908Y-111887000D01*
X201420161Y-112466418D01*
X201748375Y-112957625D01*
X202046761Y-113157000D01*
X201748375Y-113356375D01*
X201420161Y-113847582D01*
X201304908Y-114427000D01*
X201420161Y-115006418D01*
X201748375Y-115497625D01*
X202239582Y-115825839D01*
X202672744Y-115912000D01*
X202965256Y-115912000D01*
X203398418Y-115825839D01*
X203889625Y-115497625D01*
X204217839Y-115006418D01*
X204333092Y-114427000D01*
X204217839Y-113847582D01*
X203889625Y-113356375D01*
X203591239Y-113157000D01*
X203889625Y-112957625D01*
X204217839Y-112466418D01*
X204333092Y-111887000D01*
X204217839Y-111307582D01*
X203889625Y-110816375D01*
X203867967Y-110801904D01*
X204028698Y-110735327D01*
X204207327Y-110556699D01*
X204304000Y-110323310D01*
X204304000Y-109632750D01*
X204145250Y-109474000D01*
X202946000Y-109474000D01*
X202946000Y-109494000D01*
X202692000Y-109494000D01*
X202692000Y-109474000D01*
X201492750Y-109474000D01*
X201334000Y-109632750D01*
X201334000Y-110323310D01*
X201430673Y-110556699D01*
X201609302Y-110735327D01*
X201770033Y-110801904D01*
X201748375Y-110816375D01*
X201420161Y-111307582D01*
X201304908Y-111887000D01*
X94107000Y-111887000D01*
X94107000Y-110235000D01*
X94354950Y-110235000D01*
X95047767Y-109948026D01*
X95578026Y-109417767D01*
X95865000Y-108724950D01*
X95865000Y-107975050D01*
X101105000Y-107975050D01*
X101105000Y-108724950D01*
X101391974Y-109417767D01*
X101922233Y-109948026D01*
X102615050Y-110235000D01*
X103364950Y-110235000D01*
X104057767Y-109948026D01*
X104588026Y-109417767D01*
X104875000Y-108724950D01*
X104875000Y-107975050D01*
X108605000Y-107975050D01*
X108605000Y-108724950D01*
X108891974Y-109417767D01*
X109422233Y-109948026D01*
X110115050Y-110235000D01*
X110864950Y-110235000D01*
X111557767Y-109948026D01*
X112088026Y-109417767D01*
X112375000Y-108724950D01*
X112375000Y-107975050D01*
X117869000Y-107975050D01*
X117869000Y-108724950D01*
X118155974Y-109417767D01*
X118686233Y-109948026D01*
X119379050Y-110235000D01*
X120128950Y-110235000D01*
X120821767Y-109948026D01*
X121352026Y-109417767D01*
X121639000Y-108724950D01*
X121639000Y-107975050D01*
X125369000Y-107975050D01*
X125369000Y-108724950D01*
X125655974Y-109417767D01*
X126186233Y-109948026D01*
X126879050Y-110235000D01*
X127628950Y-110235000D01*
X128321767Y-109948026D01*
X128852026Y-109417767D01*
X129139000Y-108724950D01*
X129139000Y-107975050D01*
X134640000Y-107975050D01*
X134640000Y-108724950D01*
X134926974Y-109417767D01*
X135457233Y-109948026D01*
X136150050Y-110235000D01*
X136899950Y-110235000D01*
X137592767Y-109948026D01*
X138123026Y-109417767D01*
X138410000Y-108724950D01*
X138410000Y-107975050D01*
X142140000Y-107975050D01*
X142140000Y-108724950D01*
X142426974Y-109417767D01*
X142957233Y-109948026D01*
X143650050Y-110235000D01*
X144399950Y-110235000D01*
X145092767Y-109948026D01*
X145623026Y-109417767D01*
X145910000Y-108724950D01*
X145910000Y-107975050D01*
X145849335Y-107828591D01*
X160685643Y-107828591D01*
X160685643Y-108280123D01*
X160858436Y-108697283D01*
X161177717Y-109016564D01*
X161594877Y-109189357D01*
X162046409Y-109189357D01*
X162463569Y-109016564D01*
X162782850Y-108697283D01*
X162918128Y-108370690D01*
X201334000Y-108370690D01*
X201334000Y-109061250D01*
X201492750Y-109220000D01*
X202692000Y-109220000D01*
X202692000Y-108020750D01*
X202946000Y-108020750D01*
X202946000Y-109220000D01*
X204145250Y-109220000D01*
X204304000Y-109061250D01*
X204304000Y-108370690D01*
X204207327Y-108137301D01*
X204028698Y-107958673D01*
X203795309Y-107862000D01*
X203104750Y-107862000D01*
X202946000Y-108020750D01*
X202692000Y-108020750D01*
X202533250Y-107862000D01*
X201842691Y-107862000D01*
X201609302Y-107958673D01*
X201430673Y-108137301D01*
X201334000Y-108370690D01*
X162918128Y-108370690D01*
X162955643Y-108280123D01*
X162955643Y-107925145D01*
X163065789Y-107815000D01*
X163420766Y-107815000D01*
X163837926Y-107642207D01*
X164157207Y-107322926D01*
X164330000Y-106905766D01*
X164330000Y-106454234D01*
X164157207Y-106037074D01*
X163837926Y-105717793D01*
X163420766Y-105545000D01*
X162969234Y-105545000D01*
X162552074Y-105717793D01*
X162232793Y-106037074D01*
X162060000Y-106454234D01*
X162060000Y-106809211D01*
X161949855Y-106919357D01*
X161594877Y-106919357D01*
X161177717Y-107092150D01*
X160858436Y-107411431D01*
X160685643Y-107828591D01*
X145849335Y-107828591D01*
X145623026Y-107282233D01*
X145092767Y-106751974D01*
X144399950Y-106465000D01*
X143650050Y-106465000D01*
X142957233Y-106751974D01*
X142426974Y-107282233D01*
X142140000Y-107975050D01*
X138410000Y-107975050D01*
X138123026Y-107282233D01*
X137592767Y-106751974D01*
X136899950Y-106465000D01*
X136150050Y-106465000D01*
X135457233Y-106751974D01*
X134926974Y-107282233D01*
X134640000Y-107975050D01*
X129139000Y-107975050D01*
X128852026Y-107282233D01*
X128321767Y-106751974D01*
X127628950Y-106465000D01*
X126879050Y-106465000D01*
X126186233Y-106751974D01*
X125655974Y-107282233D01*
X125369000Y-107975050D01*
X121639000Y-107975050D01*
X121352026Y-107282233D01*
X120821767Y-106751974D01*
X120128950Y-106465000D01*
X119379050Y-106465000D01*
X118686233Y-106751974D01*
X118155974Y-107282233D01*
X117869000Y-107975050D01*
X112375000Y-107975050D01*
X112088026Y-107282233D01*
X111557767Y-106751974D01*
X110864950Y-106465000D01*
X110115050Y-106465000D01*
X109422233Y-106751974D01*
X108891974Y-107282233D01*
X108605000Y-107975050D01*
X104875000Y-107975050D01*
X104588026Y-107282233D01*
X104057767Y-106751974D01*
X103364950Y-106465000D01*
X102615050Y-106465000D01*
X101922233Y-106751974D01*
X101391974Y-107282233D01*
X101105000Y-107975050D01*
X95865000Y-107975050D01*
X95578026Y-107282233D01*
X95047767Y-106751974D01*
X94354950Y-106465000D01*
X94107000Y-106465000D01*
X94107000Y-99925213D01*
X121790000Y-99925213D01*
X121790000Y-100734787D01*
X122099810Y-101482735D01*
X122672265Y-102055190D01*
X123420213Y-102365000D01*
X124229787Y-102365000D01*
X124977735Y-102055190D01*
X125550190Y-101482735D01*
X125860000Y-100734787D01*
X125860000Y-99925213D01*
X125550190Y-99177265D01*
X124977735Y-98604810D01*
X124229787Y-98295000D01*
X123420213Y-98295000D01*
X122672265Y-98604810D01*
X122099810Y-99177265D01*
X121790000Y-99925213D01*
X94107000Y-99925213D01*
X94107000Y-96520000D01*
X94097333Y-96471399D01*
X94069803Y-96430197D01*
X93119819Y-95480213D01*
X121790000Y-95480213D01*
X121790000Y-96289787D01*
X122099810Y-97037735D01*
X122672265Y-97610190D01*
X123420213Y-97920000D01*
X124229787Y-97920000D01*
X124977735Y-97610190D01*
X125550190Y-97037735D01*
X125860000Y-96289787D01*
X125860000Y-95913234D01*
X141105000Y-95913234D01*
X141105000Y-96364766D01*
X141277793Y-96781926D01*
X141587367Y-97091500D01*
X141277793Y-97401074D01*
X141105000Y-97818234D01*
X141105000Y-98269766D01*
X141277793Y-98686926D01*
X141597074Y-99006207D01*
X141942557Y-99149310D01*
X141785793Y-99306074D01*
X141613000Y-99723234D01*
X141613000Y-100174766D01*
X141785793Y-100591926D01*
X142105074Y-100911207D01*
X142450558Y-101054311D01*
X142293795Y-101211074D01*
X142121002Y-101628234D01*
X142121002Y-102079766D01*
X142293795Y-102496926D01*
X142613076Y-102816207D01*
X143030236Y-102989000D01*
X143481768Y-102989000D01*
X143898928Y-102816207D01*
X144149935Y-102565200D01*
X154173051Y-102565200D01*
X154424074Y-102816223D01*
X154841234Y-102989016D01*
X155292766Y-102989016D01*
X155709926Y-102816223D01*
X156029207Y-102496942D01*
X156202000Y-102079782D01*
X156202000Y-102009234D01*
X173871000Y-102009234D01*
X173871000Y-102460766D01*
X174043793Y-102877926D01*
X174363074Y-103197207D01*
X174780234Y-103370000D01*
X175231766Y-103370000D01*
X175648926Y-103197207D01*
X175899933Y-102946200D01*
X176271067Y-102946200D01*
X176522074Y-103197207D01*
X176939234Y-103370000D01*
X177390766Y-103370000D01*
X177807926Y-103197207D01*
X178127207Y-102877926D01*
X178300000Y-102460766D01*
X178300000Y-102009234D01*
X178127207Y-101592074D01*
X177807926Y-101272793D01*
X177390766Y-101100000D01*
X176939234Y-101100000D01*
X176522074Y-101272793D01*
X176271067Y-101523800D01*
X175899933Y-101523800D01*
X175648926Y-101272793D01*
X175231766Y-101100000D01*
X174780234Y-101100000D01*
X174363074Y-101272793D01*
X174043793Y-101592074D01*
X173871000Y-102009234D01*
X156202000Y-102009234D01*
X156202000Y-101628250D01*
X156029207Y-101211090D01*
X155719630Y-100901513D01*
X156029207Y-100591936D01*
X156202000Y-100174776D01*
X156202000Y-99723244D01*
X156029207Y-99306084D01*
X155719633Y-98996510D01*
X156029207Y-98686936D01*
X156202000Y-98269776D01*
X156202000Y-97818244D01*
X156029207Y-97401084D01*
X155719627Y-97091504D01*
X156029207Y-96781924D01*
X156032489Y-96774000D01*
X183805868Y-96774000D01*
X183819800Y-96844042D01*
X183819801Y-100640954D01*
X183805868Y-100711000D01*
X183861065Y-100988496D01*
X183978576Y-101164364D01*
X183978579Y-101164367D01*
X184018255Y-101223746D01*
X184077634Y-101263422D01*
X184920000Y-102105789D01*
X184920000Y-102460766D01*
X185089510Y-102870000D01*
X184920000Y-103279234D01*
X184920000Y-103730766D01*
X185092793Y-104147926D01*
X185412074Y-104467207D01*
X185829234Y-104640000D01*
X186280766Y-104640000D01*
X186697926Y-104467207D01*
X186948933Y-104216200D01*
X188336067Y-104216200D01*
X188587074Y-104467207D01*
X189004234Y-104640000D01*
X189455766Y-104640000D01*
X189872926Y-104467207D01*
X190192207Y-104147926D01*
X190365000Y-103730766D01*
X190365000Y-103279234D01*
X190192207Y-102862074D01*
X189872926Y-102542793D01*
X189455766Y-102370000D01*
X189004234Y-102370000D01*
X188587074Y-102542793D01*
X188336067Y-102793800D01*
X187052053Y-102793800D01*
X187190000Y-102460766D01*
X187190000Y-102009234D01*
X187052053Y-101676200D01*
X188336067Y-101676200D01*
X188587074Y-101927207D01*
X189004234Y-102100000D01*
X189455766Y-102100000D01*
X189872926Y-101927207D01*
X190192207Y-101607926D01*
X190365000Y-101190766D01*
X190365000Y-100739234D01*
X190192207Y-100322074D01*
X189872926Y-100002793D01*
X189455766Y-99830000D01*
X189004234Y-99830000D01*
X188587074Y-100002793D01*
X188336067Y-100253800D01*
X186948933Y-100253800D01*
X186697926Y-100002793D01*
X186280766Y-99830000D01*
X185829234Y-99830000D01*
X185412074Y-100002793D01*
X185242200Y-100172667D01*
X185242200Y-97068588D01*
X187195789Y-95115000D01*
X187550766Y-95115000D01*
X187967926Y-94942207D01*
X188287207Y-94622926D01*
X188460000Y-94205766D01*
X188460000Y-93754234D01*
X188287207Y-93337074D01*
X187967926Y-93017793D01*
X187550766Y-92845000D01*
X187099234Y-92845000D01*
X186682074Y-93017793D01*
X186362793Y-93337074D01*
X186190000Y-93754234D01*
X186190000Y-94109211D01*
X184077634Y-96221578D01*
X184018254Y-96261255D01*
X183978578Y-96320634D01*
X183978576Y-96320636D01*
X183914525Y-96416496D01*
X183861064Y-96496505D01*
X183819800Y-96703955D01*
X183819800Y-96703959D01*
X183805868Y-96774000D01*
X156032489Y-96774000D01*
X156202000Y-96364764D01*
X156202000Y-95913232D01*
X156029207Y-95496072D01*
X155719631Y-95186496D01*
X156029207Y-94876920D01*
X156202000Y-94459760D01*
X156202000Y-94008228D01*
X156029207Y-93591068D01*
X155719637Y-93281498D01*
X156029207Y-92971928D01*
X156202000Y-92554768D01*
X156202000Y-92484234D01*
X191142972Y-92484234D01*
X191142972Y-92935766D01*
X191315765Y-93352926D01*
X191566772Y-93603933D01*
X191566773Y-97023100D01*
X191315799Y-97274074D01*
X191143006Y-97691234D01*
X191143006Y-98142766D01*
X191315799Y-98559926D01*
X191635080Y-98879207D01*
X192052240Y-99052000D01*
X192503772Y-99052000D01*
X192582801Y-99019265D01*
X192582800Y-104516067D01*
X192331793Y-104767074D01*
X192159000Y-105184234D01*
X192159000Y-105635766D01*
X192331793Y-106052926D01*
X192651074Y-106372207D01*
X193068234Y-106545000D01*
X193519766Y-106545000D01*
X193936926Y-106372207D01*
X194256207Y-106052926D01*
X194429000Y-105635766D01*
X194429000Y-105184234D01*
X194256207Y-104767074D01*
X194005200Y-104516067D01*
X194005200Y-98019890D01*
X194138524Y-98019890D01*
X194308355Y-98429924D01*
X194698642Y-98858183D01*
X195223108Y-99104486D01*
X195453000Y-98983819D01*
X195453000Y-97790000D01*
X195707000Y-97790000D01*
X195707000Y-98983819D01*
X195936892Y-99104486D01*
X196461358Y-98858183D01*
X196851645Y-98429924D01*
X197021476Y-98019890D01*
X196900155Y-97790000D01*
X195707000Y-97790000D01*
X195453000Y-97790000D01*
X194259845Y-97790000D01*
X194138524Y-98019890D01*
X194005200Y-98019890D01*
X194005200Y-96143933D01*
X194098085Y-96051048D01*
X194131843Y-96220765D01*
X194272191Y-96430809D01*
X194482235Y-96571157D01*
X194585708Y-96591739D01*
X194308355Y-96896076D01*
X194138524Y-97306110D01*
X194259845Y-97536000D01*
X195453000Y-97536000D01*
X195453000Y-97516000D01*
X195707000Y-97516000D01*
X195707000Y-97536000D01*
X196900155Y-97536000D01*
X197021476Y-97306110D01*
X196851645Y-96896076D01*
X196574292Y-96591739D01*
X196677765Y-96571157D01*
X196887809Y-96430809D01*
X197028157Y-96220765D01*
X197077440Y-95973000D01*
X197077440Y-94273000D01*
X197028157Y-94025235D01*
X196887809Y-93815191D01*
X196677765Y-93674843D01*
X196430000Y-93625560D01*
X194730000Y-93625560D01*
X194482235Y-93674843D01*
X194272191Y-93815191D01*
X194131843Y-94025235D01*
X194082560Y-94273000D01*
X194082560Y-94433427D01*
X193936926Y-94287793D01*
X193519766Y-94115000D01*
X193068234Y-94115000D01*
X192989172Y-94147748D01*
X192989172Y-93603933D01*
X193240179Y-93352926D01*
X193401277Y-92964000D01*
X201304908Y-92964000D01*
X201420161Y-93543418D01*
X201748375Y-94034625D01*
X202046761Y-94234000D01*
X201748375Y-94433375D01*
X201420161Y-94924582D01*
X201304908Y-95504000D01*
X201420161Y-96083418D01*
X201748375Y-96574625D01*
X202046761Y-96774000D01*
X201748375Y-96973375D01*
X201420161Y-97464582D01*
X201304908Y-98044000D01*
X201420161Y-98623418D01*
X201748375Y-99114625D01*
X202046761Y-99314000D01*
X201748375Y-99513375D01*
X201420161Y-100004582D01*
X201304908Y-100584000D01*
X201420161Y-101163418D01*
X201748375Y-101654625D01*
X202046761Y-101854000D01*
X201748375Y-102053375D01*
X201420161Y-102544582D01*
X201304908Y-103124000D01*
X201420161Y-103703418D01*
X201748375Y-104194625D01*
X202239582Y-104522839D01*
X202672744Y-104609000D01*
X202965256Y-104609000D01*
X203398418Y-104522839D01*
X203889625Y-104194625D01*
X204217839Y-103703418D01*
X204333092Y-103124000D01*
X204217839Y-102544582D01*
X203889625Y-102053375D01*
X203591239Y-101854000D01*
X203889625Y-101654625D01*
X204217839Y-101163418D01*
X204333092Y-100584000D01*
X204217839Y-100004582D01*
X203889625Y-99513375D01*
X203591239Y-99314000D01*
X203889625Y-99114625D01*
X204217839Y-98623418D01*
X204333092Y-98044000D01*
X204217839Y-97464582D01*
X203889625Y-96973375D01*
X203591239Y-96774000D01*
X203889625Y-96574625D01*
X204217839Y-96083418D01*
X204333092Y-95504000D01*
X204217839Y-94924582D01*
X203889625Y-94433375D01*
X203591239Y-94234000D01*
X203889625Y-94034625D01*
X204217839Y-93543418D01*
X204333092Y-92964000D01*
X204217839Y-92384582D01*
X203889625Y-91893375D01*
X203867967Y-91878904D01*
X204028698Y-91812327D01*
X204207327Y-91633699D01*
X204304000Y-91400310D01*
X204304000Y-90709750D01*
X204145250Y-90551000D01*
X202946000Y-90551000D01*
X202946000Y-90571000D01*
X202692000Y-90571000D01*
X202692000Y-90551000D01*
X201492750Y-90551000D01*
X201334000Y-90709750D01*
X201334000Y-91400310D01*
X201430673Y-91633699D01*
X201609302Y-91812327D01*
X201770033Y-91878904D01*
X201748375Y-91893375D01*
X201420161Y-92384582D01*
X201304908Y-92964000D01*
X193401277Y-92964000D01*
X193412972Y-92935766D01*
X193412972Y-92484234D01*
X193240179Y-92067074D01*
X192920898Y-91747793D01*
X192503738Y-91575000D01*
X192052206Y-91575000D01*
X191635046Y-91747793D01*
X191315765Y-92067074D01*
X191142972Y-92484234D01*
X156202000Y-92484234D01*
X156202000Y-92103236D01*
X156029207Y-91686076D01*
X155709926Y-91366795D01*
X155292766Y-91194002D01*
X154841234Y-91194002D01*
X154424074Y-91366795D01*
X154173069Y-91617800D01*
X144149935Y-91617800D01*
X143898928Y-91366793D01*
X143481768Y-91194000D01*
X143030236Y-91194000D01*
X142613076Y-91366793D01*
X142293795Y-91686074D01*
X142121002Y-92103234D01*
X142121002Y-92554766D01*
X142293795Y-92971926D01*
X142450556Y-93128687D01*
X142105066Y-93271793D01*
X141785785Y-93591074D01*
X141612992Y-94008234D01*
X141612992Y-94459766D01*
X141785785Y-94876926D01*
X141942551Y-95033692D01*
X141597074Y-95176793D01*
X141277793Y-95496074D01*
X141105000Y-95913234D01*
X125860000Y-95913234D01*
X125860000Y-95480213D01*
X125550190Y-94732265D01*
X124977735Y-94159810D01*
X124229787Y-93850000D01*
X123420213Y-93850000D01*
X122672265Y-94159810D01*
X122099810Y-94732265D01*
X121790000Y-95480213D01*
X93119819Y-95480213D01*
X92799803Y-95160197D01*
X92758601Y-95132667D01*
X92710000Y-95123000D01*
X82602606Y-95123000D01*
X81407000Y-93927394D01*
X81407000Y-91035213D01*
X121790000Y-91035213D01*
X121790000Y-91844787D01*
X122099810Y-92592735D01*
X122672265Y-93165190D01*
X123420213Y-93475000D01*
X124229787Y-93475000D01*
X124977735Y-93165190D01*
X125550190Y-92592735D01*
X125860000Y-91844787D01*
X125860000Y-91035213D01*
X125550190Y-90287265D01*
X124977735Y-89714810D01*
X124229787Y-89405000D01*
X123420213Y-89405000D01*
X122672265Y-89714810D01*
X122099810Y-90287265D01*
X121790000Y-91035213D01*
X81407000Y-91035213D01*
X81407000Y-88436724D01*
X122562882Y-88436724D01*
X122710455Y-88745106D01*
X123465031Y-89038405D01*
X124274409Y-89020614D01*
X124939545Y-88745106D01*
X125087118Y-88436724D01*
X123825000Y-87174605D01*
X122562882Y-88436724D01*
X81407000Y-88436724D01*
X81407000Y-86635031D01*
X121781595Y-86635031D01*
X121799386Y-87444409D01*
X122074894Y-88109545D01*
X122383276Y-88257118D01*
X123645395Y-86995000D01*
X124004605Y-86995000D01*
X125266724Y-88257118D01*
X125575106Y-88109545D01*
X125868405Y-87354969D01*
X125850614Y-86545591D01*
X125575106Y-85880455D01*
X125266724Y-85732882D01*
X124004605Y-86995000D01*
X123645395Y-86995000D01*
X122383276Y-85732882D01*
X122074894Y-85880455D01*
X121781595Y-86635031D01*
X81407000Y-86635031D01*
X81407000Y-85553276D01*
X122562882Y-85553276D01*
X123825000Y-86815395D01*
X125087118Y-85553276D01*
X124939545Y-85244894D01*
X124184969Y-84951595D01*
X123375591Y-84969386D01*
X122710455Y-85244894D01*
X122562882Y-85553276D01*
X81407000Y-85553276D01*
X81407000Y-82478778D01*
X82058000Y-82478778D01*
X82058000Y-83129222D01*
X82306914Y-83730153D01*
X82766847Y-84190086D01*
X83367778Y-84439000D01*
X84018222Y-84439000D01*
X84619153Y-84190086D01*
X84852707Y-83956532D01*
X87800073Y-83956532D01*
X87898736Y-84223387D01*
X88508461Y-84449908D01*
X89158460Y-84425856D01*
X89647264Y-84223387D01*
X89745927Y-83956532D01*
X88773000Y-82983605D01*
X87800073Y-83956532D01*
X84852707Y-83956532D01*
X85079086Y-83730153D01*
X85328000Y-83129222D01*
X85328000Y-82539461D01*
X87127092Y-82539461D01*
X87151144Y-83189460D01*
X87353613Y-83678264D01*
X87620468Y-83776927D01*
X88593395Y-82804000D01*
X88952605Y-82804000D01*
X89925532Y-83776927D01*
X90192387Y-83678264D01*
X90418908Y-83068539D01*
X90394856Y-82418540D01*
X90192387Y-81929736D01*
X89925532Y-81831073D01*
X88952605Y-82804000D01*
X88593395Y-82804000D01*
X87620468Y-81831073D01*
X87353613Y-81929736D01*
X87127092Y-82539461D01*
X85328000Y-82539461D01*
X85328000Y-82478778D01*
X85079086Y-81877847D01*
X84852707Y-81651468D01*
X87800073Y-81651468D01*
X88773000Y-82624395D01*
X89609395Y-81788000D01*
X143252041Y-81788000D01*
X143368350Y-82372725D01*
X143699570Y-82868430D01*
X143983281Y-83058000D01*
X143699570Y-83247570D01*
X143368350Y-83743275D01*
X143252041Y-84328000D01*
X143368350Y-84912725D01*
X143699570Y-85408430D01*
X144195275Y-85739650D01*
X144632402Y-85826600D01*
X144927598Y-85826600D01*
X145364725Y-85739650D01*
X145488576Y-85656895D01*
X145497576Y-85670364D01*
X145497578Y-85670366D01*
X145537254Y-85729745D01*
X145596634Y-85769422D01*
X147021578Y-87194367D01*
X147061254Y-87253746D01*
X147120633Y-87293422D01*
X147120635Y-87293424D01*
X147296502Y-87410935D01*
X147296503Y-87410935D01*
X147296504Y-87410936D01*
X147503954Y-87452200D01*
X147503957Y-87452200D01*
X147573999Y-87466132D01*
X147644041Y-87452200D01*
X155091833Y-87452200D01*
X154948000Y-87799444D01*
X154948000Y-88250976D01*
X155120793Y-88668136D01*
X155440074Y-88987417D01*
X155857234Y-89160210D01*
X156308766Y-89160210D01*
X156725926Y-88987417D01*
X156897902Y-88815441D01*
X159682036Y-88815441D01*
X159933043Y-89066448D01*
X160350203Y-89239241D01*
X160801735Y-89239241D01*
X161218895Y-89066448D01*
X161538176Y-88747167D01*
X161710969Y-88330007D01*
X161710969Y-87878475D01*
X161538176Y-87461315D01*
X161529061Y-87452200D01*
X184490412Y-87452200D01*
X185809000Y-88770789D01*
X185809000Y-89125766D01*
X185981793Y-89542926D01*
X186301074Y-89862207D01*
X186718234Y-90035000D01*
X187169766Y-90035000D01*
X187586926Y-89862207D01*
X187906207Y-89542926D01*
X187945654Y-89447690D01*
X201334000Y-89447690D01*
X201334000Y-90138250D01*
X201492750Y-90297000D01*
X202692000Y-90297000D01*
X202692000Y-89097750D01*
X202946000Y-89097750D01*
X202946000Y-90297000D01*
X204145250Y-90297000D01*
X204304000Y-90138250D01*
X204304000Y-89447690D01*
X204207327Y-89214301D01*
X204028698Y-89035673D01*
X203795309Y-88939000D01*
X203104750Y-88939000D01*
X202946000Y-89097750D01*
X202692000Y-89097750D01*
X202533250Y-88939000D01*
X201842691Y-88939000D01*
X201609302Y-89035673D01*
X201430673Y-89214301D01*
X201334000Y-89447690D01*
X187945654Y-89447690D01*
X188079000Y-89125766D01*
X188079000Y-88674234D01*
X187906207Y-88257074D01*
X187586926Y-87937793D01*
X187169766Y-87765000D01*
X186814789Y-87765000D01*
X186511947Y-87462158D01*
X186591234Y-87495000D01*
X187042766Y-87495000D01*
X187459926Y-87322207D01*
X187779207Y-87002926D01*
X187952000Y-86585766D01*
X187952000Y-86134234D01*
X187779207Y-85717074D01*
X187459926Y-85397793D01*
X187042766Y-85225000D01*
X186591234Y-85225000D01*
X186511947Y-85257842D01*
X187270369Y-84499420D01*
X187329745Y-84459746D01*
X187369420Y-84400369D01*
X187369424Y-84400365D01*
X187486935Y-84224497D01*
X187486936Y-84224496D01*
X187528200Y-84017046D01*
X187528200Y-84017042D01*
X187542132Y-83947000D01*
X187528200Y-83876958D01*
X187528200Y-83443933D01*
X187779207Y-83192926D01*
X187952000Y-82775766D01*
X187952000Y-82324234D01*
X187832622Y-82036029D01*
X200415000Y-82036029D01*
X200415000Y-83143971D01*
X200838991Y-84167576D01*
X201622424Y-84951009D01*
X202646029Y-85375000D01*
X203753971Y-85375000D01*
X204777576Y-84951009D01*
X205561009Y-84167576D01*
X205985000Y-83143971D01*
X205985000Y-82036029D01*
X205561009Y-81012424D01*
X204777576Y-80228991D01*
X203753971Y-79805000D01*
X202646029Y-79805000D01*
X201622424Y-80228991D01*
X200838991Y-81012424D01*
X200415000Y-82036029D01*
X187832622Y-82036029D01*
X187779207Y-81907074D01*
X187459926Y-81587793D01*
X187042766Y-81415000D01*
X186591234Y-81415000D01*
X186174074Y-81587793D01*
X185854793Y-81907074D01*
X185682000Y-82324234D01*
X185682000Y-82775766D01*
X185854793Y-83192926D01*
X186105800Y-83443933D01*
X186105800Y-83652411D01*
X184461823Y-85296389D01*
X151015294Y-85296389D01*
X151271650Y-84912725D01*
X151387959Y-84328000D01*
X151271650Y-83743275D01*
X150941234Y-83248773D01*
X151083299Y-83189927D01*
X151261927Y-83011298D01*
X151358600Y-82777909D01*
X151358600Y-82073750D01*
X151199850Y-81915000D01*
X149987000Y-81915000D01*
X149987000Y-81935000D01*
X149733000Y-81935000D01*
X149733000Y-81915000D01*
X149713000Y-81915000D01*
X149713000Y-81661000D01*
X149733000Y-81661000D01*
X149733000Y-80448150D01*
X149987000Y-80448150D01*
X149987000Y-81661000D01*
X151199850Y-81661000D01*
X151358600Y-81502250D01*
X151358600Y-80798091D01*
X151261927Y-80564702D01*
X151083299Y-80386073D01*
X150849910Y-80289400D01*
X150145750Y-80289400D01*
X149987000Y-80448150D01*
X149733000Y-80448150D01*
X149574250Y-80289400D01*
X148870090Y-80289400D01*
X148682776Y-80366988D01*
X148253424Y-79937636D01*
X148213746Y-79878254D01*
X147978496Y-79721064D01*
X147771046Y-79679800D01*
X147771041Y-79679800D01*
X147701000Y-79665868D01*
X147630959Y-79679800D01*
X146247041Y-79679800D01*
X146176999Y-79665868D01*
X146106957Y-79679800D01*
X146106954Y-79679800D01*
X145899504Y-79721064D01*
X145899503Y-79721065D01*
X145899502Y-79721065D01*
X145723635Y-79838576D01*
X145723633Y-79838578D01*
X145664254Y-79878254D01*
X145624578Y-79937633D01*
X145215537Y-80346675D01*
X144927598Y-80289400D01*
X144632402Y-80289400D01*
X144195275Y-80376350D01*
X143699570Y-80707570D01*
X143368350Y-81203275D01*
X143252041Y-81788000D01*
X89609395Y-81788000D01*
X89745927Y-81651468D01*
X89647264Y-81384613D01*
X89037539Y-81158092D01*
X88387540Y-81182144D01*
X87898736Y-81384613D01*
X87800073Y-81651468D01*
X84852707Y-81651468D01*
X84619153Y-81417914D01*
X84018222Y-81169000D01*
X83367778Y-81169000D01*
X82766847Y-81417914D01*
X82306914Y-81877847D01*
X82058000Y-82478778D01*
X81407000Y-82478778D01*
X81407000Y-80062606D01*
X82602606Y-78867000D01*
X206322394Y-78867000D01*
X207445000Y-79989606D01*
X207445000Y-79989606D01*
G37*
X207445000Y-79989606D02*
X207445001Y-142895393D01*
X206322394Y-144018000D01*
X188012606Y-144018000D01*
X186817000Y-142822394D01*
X186817000Y-136160000D01*
X191392560Y-136160000D01*
X191392560Y-138160000D01*
X191441843Y-138407765D01*
X191582191Y-138617809D01*
X191792235Y-138758157D01*
X192040000Y-138807440D01*
X194040000Y-138807440D01*
X194287765Y-138758157D01*
X194497809Y-138617809D01*
X194638157Y-138407765D01*
X194657099Y-138312532D01*
X199667073Y-138312532D01*
X199765736Y-138579387D01*
X200375461Y-138805908D01*
X201025460Y-138781856D01*
X201514264Y-138579387D01*
X201612927Y-138312532D01*
X200640000Y-137339605D01*
X199667073Y-138312532D01*
X194657099Y-138312532D01*
X194687440Y-138160000D01*
X194687440Y-136895461D01*
X198994092Y-136895461D01*
X199018144Y-137545460D01*
X199220613Y-138034264D01*
X199487468Y-138132927D01*
X200460395Y-137160000D01*
X200819605Y-137160000D01*
X201792532Y-138132927D01*
X202059387Y-138034264D01*
X202285908Y-137424539D01*
X202261856Y-136774540D01*
X202059387Y-136285736D01*
X201792532Y-136187073D01*
X200819605Y-137160000D01*
X200460395Y-137160000D01*
X199487468Y-136187073D01*
X199220613Y-136285736D01*
X198994092Y-136895461D01*
X194687440Y-136895461D01*
X194687440Y-136160000D01*
X194657100Y-136007468D01*
X199667073Y-136007468D01*
X200640000Y-136980395D01*
X201612927Y-136007468D01*
X201514264Y-135740613D01*
X200904539Y-135514092D01*
X200254540Y-135538144D01*
X199765736Y-135740613D01*
X199667073Y-136007468D01*
X194657100Y-136007468D01*
X194638157Y-135912235D01*
X194497809Y-135702191D01*
X194287765Y-135561843D01*
X194040000Y-135512560D01*
X192040000Y-135512560D01*
X191792235Y-135561843D01*
X191582191Y-135702191D01*
X191441843Y-135912235D01*
X191392560Y-136160000D01*
X186817000Y-136160000D01*
X186817000Y-123063000D01*
X201304908Y-123063000D01*
X201420161Y-123642418D01*
X201748375Y-124133625D01*
X202046761Y-124333000D01*
X201748375Y-124532375D01*
X201420161Y-125023582D01*
X201304908Y-125603000D01*
X201420161Y-126182418D01*
X201748375Y-126673625D01*
X202239582Y-127001839D01*
X202672744Y-127088000D01*
X202965256Y-127088000D01*
X203398418Y-127001839D01*
X203889625Y-126673625D01*
X204217839Y-126182418D01*
X204333092Y-125603000D01*
X204217839Y-125023582D01*
X203889625Y-124532375D01*
X203591239Y-124333000D01*
X203889625Y-124133625D01*
X204217839Y-123642418D01*
X204333092Y-123063000D01*
X204217839Y-122483582D01*
X203889625Y-121992375D01*
X203867967Y-121977904D01*
X204028698Y-121911327D01*
X204207327Y-121732699D01*
X204304000Y-121499310D01*
X204304000Y-120808750D01*
X204145250Y-120650000D01*
X202946000Y-120650000D01*
X202946000Y-120670000D01*
X202692000Y-120670000D01*
X202692000Y-120650000D01*
X201492750Y-120650000D01*
X201334000Y-120808750D01*
X201334000Y-121499310D01*
X201430673Y-121732699D01*
X201609302Y-121911327D01*
X201770033Y-121977904D01*
X201748375Y-121992375D01*
X201420161Y-122483582D01*
X201304908Y-123063000D01*
X186817000Y-123063000D01*
X186817000Y-119546690D01*
X201334000Y-119546690D01*
X201334000Y-120237250D01*
X201492750Y-120396000D01*
X202692000Y-120396000D01*
X202692000Y-119196750D01*
X202946000Y-119196750D01*
X202946000Y-120396000D01*
X204145250Y-120396000D01*
X204304000Y-120237250D01*
X204304000Y-119546690D01*
X204207327Y-119313301D01*
X204028698Y-119134673D01*
X203795309Y-119038000D01*
X203104750Y-119038000D01*
X202946000Y-119196750D01*
X202692000Y-119196750D01*
X202533250Y-119038000D01*
X201842691Y-119038000D01*
X201609302Y-119134673D01*
X201430673Y-119313301D01*
X201334000Y-119546690D01*
X186817000Y-119546690D01*
X186817000Y-116840000D01*
X186807333Y-116791399D01*
X186779803Y-116750197D01*
X185509803Y-115480197D01*
X185468601Y-115452667D01*
X185420000Y-115443000D01*
X146774137Y-115443000D01*
X146742354Y-115283217D01*
X146579905Y-115040095D01*
X146336783Y-114877646D01*
X146122388Y-114835000D01*
X146050000Y-114820601D01*
X145977612Y-114835000D01*
X94694606Y-114835000D01*
X94107000Y-114247394D01*
X94107000Y-111887000D01*
X201304908Y-111887000D01*
X201420161Y-112466418D01*
X201748375Y-112957625D01*
X202046761Y-113157000D01*
X201748375Y-113356375D01*
X201420161Y-113847582D01*
X201304908Y-114427000D01*
X201420161Y-115006418D01*
X201748375Y-115497625D01*
X202239582Y-115825839D01*
X202672744Y-115912000D01*
X202965256Y-115912000D01*
X203398418Y-115825839D01*
X203889625Y-115497625D01*
X204217839Y-115006418D01*
X204333092Y-114427000D01*
X204217839Y-113847582D01*
X203889625Y-113356375D01*
X203591239Y-113157000D01*
X203889625Y-112957625D01*
X204217839Y-112466418D01*
X204333092Y-111887000D01*
X204217839Y-111307582D01*
X203889625Y-110816375D01*
X203867967Y-110801904D01*
X204028698Y-110735327D01*
X204207327Y-110556699D01*
X204304000Y-110323310D01*
X204304000Y-109632750D01*
X204145250Y-109474000D01*
X202946000Y-109474000D01*
X202946000Y-109494000D01*
X202692000Y-109494000D01*
X202692000Y-109474000D01*
X201492750Y-109474000D01*
X201334000Y-109632750D01*
X201334000Y-110323310D01*
X201430673Y-110556699D01*
X201609302Y-110735327D01*
X201770033Y-110801904D01*
X201748375Y-110816375D01*
X201420161Y-111307582D01*
X201304908Y-111887000D01*
X94107000Y-111887000D01*
X94107000Y-110235000D01*
X94354950Y-110235000D01*
X95047767Y-109948026D01*
X95578026Y-109417767D01*
X95865000Y-108724950D01*
X95865000Y-107975050D01*
X101105000Y-107975050D01*
X101105000Y-108724950D01*
X101391974Y-109417767D01*
X101922233Y-109948026D01*
X102615050Y-110235000D01*
X103364950Y-110235000D01*
X104057767Y-109948026D01*
X104588026Y-109417767D01*
X104875000Y-108724950D01*
X104875000Y-107975050D01*
X108605000Y-107975050D01*
X108605000Y-108724950D01*
X108891974Y-109417767D01*
X109422233Y-109948026D01*
X110115050Y-110235000D01*
X110864950Y-110235000D01*
X111557767Y-109948026D01*
X112088026Y-109417767D01*
X112375000Y-108724950D01*
X112375000Y-107975050D01*
X117869000Y-107975050D01*
X117869000Y-108724950D01*
X118155974Y-109417767D01*
X118686233Y-109948026D01*
X119379050Y-110235000D01*
X120128950Y-110235000D01*
X120821767Y-109948026D01*
X121352026Y-109417767D01*
X121639000Y-108724950D01*
X121639000Y-107975050D01*
X125369000Y-107975050D01*
X125369000Y-108724950D01*
X125655974Y-109417767D01*
X126186233Y-109948026D01*
X126879050Y-110235000D01*
X127628950Y-110235000D01*
X128321767Y-109948026D01*
X128852026Y-109417767D01*
X129139000Y-108724950D01*
X129139000Y-107975050D01*
X134640000Y-107975050D01*
X134640000Y-108724950D01*
X134926974Y-109417767D01*
X135457233Y-109948026D01*
X136150050Y-110235000D01*
X136899950Y-110235000D01*
X137592767Y-109948026D01*
X138123026Y-109417767D01*
X138410000Y-108724950D01*
X138410000Y-107975050D01*
X142140000Y-107975050D01*
X142140000Y-108724950D01*
X142426974Y-109417767D01*
X142957233Y-109948026D01*
X143650050Y-110235000D01*
X144399950Y-110235000D01*
X145092767Y-109948026D01*
X145623026Y-109417767D01*
X145910000Y-108724950D01*
X145910000Y-107975050D01*
X145849335Y-107828591D01*
X160685643Y-107828591D01*
X160685643Y-108280123D01*
X160858436Y-108697283D01*
X161177717Y-109016564D01*
X161594877Y-109189357D01*
X162046409Y-109189357D01*
X162463569Y-109016564D01*
X162782850Y-108697283D01*
X162918128Y-108370690D01*
X201334000Y-108370690D01*
X201334000Y-109061250D01*
X201492750Y-109220000D01*
X202692000Y-109220000D01*
X202692000Y-108020750D01*
X202946000Y-108020750D01*
X202946000Y-109220000D01*
X204145250Y-109220000D01*
X204304000Y-109061250D01*
X204304000Y-108370690D01*
X204207327Y-108137301D01*
X204028698Y-107958673D01*
X203795309Y-107862000D01*
X203104750Y-107862000D01*
X202946000Y-108020750D01*
X202692000Y-108020750D01*
X202533250Y-107862000D01*
X201842691Y-107862000D01*
X201609302Y-107958673D01*
X201430673Y-108137301D01*
X201334000Y-108370690D01*
X162918128Y-108370690D01*
X162955643Y-108280123D01*
X162955643Y-107925145D01*
X163065789Y-107815000D01*
X163420766Y-107815000D01*
X163837926Y-107642207D01*
X164157207Y-107322926D01*
X164330000Y-106905766D01*
X164330000Y-106454234D01*
X164157207Y-106037074D01*
X163837926Y-105717793D01*
X163420766Y-105545000D01*
X162969234Y-105545000D01*
X162552074Y-105717793D01*
X162232793Y-106037074D01*
X162060000Y-106454234D01*
X162060000Y-106809211D01*
X161949855Y-106919357D01*
X161594877Y-106919357D01*
X161177717Y-107092150D01*
X160858436Y-107411431D01*
X160685643Y-107828591D01*
X145849335Y-107828591D01*
X145623026Y-107282233D01*
X145092767Y-106751974D01*
X144399950Y-106465000D01*
X143650050Y-106465000D01*
X142957233Y-106751974D01*
X142426974Y-107282233D01*
X142140000Y-107975050D01*
X138410000Y-107975050D01*
X138123026Y-107282233D01*
X137592767Y-106751974D01*
X136899950Y-106465000D01*
X136150050Y-106465000D01*
X135457233Y-106751974D01*
X134926974Y-107282233D01*
X134640000Y-107975050D01*
X129139000Y-107975050D01*
X128852026Y-107282233D01*
X128321767Y-106751974D01*
X127628950Y-106465000D01*
X126879050Y-106465000D01*
X126186233Y-106751974D01*
X125655974Y-107282233D01*
X125369000Y-107975050D01*
X121639000Y-107975050D01*
X121352026Y-107282233D01*
X120821767Y-106751974D01*
X120128950Y-106465000D01*
X119379050Y-106465000D01*
X118686233Y-106751974D01*
X118155974Y-107282233D01*
X117869000Y-107975050D01*
X112375000Y-107975050D01*
X112088026Y-107282233D01*
X111557767Y-106751974D01*
X110864950Y-106465000D01*
X110115050Y-106465000D01*
X109422233Y-106751974D01*
X108891974Y-107282233D01*
X108605000Y-107975050D01*
X104875000Y-107975050D01*
X104588026Y-107282233D01*
X104057767Y-106751974D01*
X103364950Y-106465000D01*
X102615050Y-106465000D01*
X101922233Y-106751974D01*
X101391974Y-107282233D01*
X101105000Y-107975050D01*
X95865000Y-107975050D01*
X95578026Y-107282233D01*
X95047767Y-106751974D01*
X94354950Y-106465000D01*
X94107000Y-106465000D01*
X94107000Y-99925213D01*
X121790000Y-99925213D01*
X121790000Y-100734787D01*
X122099810Y-101482735D01*
X122672265Y-102055190D01*
X123420213Y-102365000D01*
X124229787Y-102365000D01*
X124977735Y-102055190D01*
X125550190Y-101482735D01*
X125860000Y-100734787D01*
X125860000Y-99925213D01*
X125550190Y-99177265D01*
X124977735Y-98604810D01*
X124229787Y-98295000D01*
X123420213Y-98295000D01*
X122672265Y-98604810D01*
X122099810Y-99177265D01*
X121790000Y-99925213D01*
X94107000Y-99925213D01*
X94107000Y-96520000D01*
X94097333Y-96471399D01*
X94069803Y-96430197D01*
X93119819Y-95480213D01*
X121790000Y-95480213D01*
X121790000Y-96289787D01*
X122099810Y-97037735D01*
X122672265Y-97610190D01*
X123420213Y-97920000D01*
X124229787Y-97920000D01*
X124977735Y-97610190D01*
X125550190Y-97037735D01*
X125860000Y-96289787D01*
X125860000Y-95913234D01*
X141105000Y-95913234D01*
X141105000Y-96364766D01*
X141277793Y-96781926D01*
X141587367Y-97091500D01*
X141277793Y-97401074D01*
X141105000Y-97818234D01*
X141105000Y-98269766D01*
X141277793Y-98686926D01*
X141597074Y-99006207D01*
X141942557Y-99149310D01*
X141785793Y-99306074D01*
X141613000Y-99723234D01*
X141613000Y-100174766D01*
X141785793Y-100591926D01*
X142105074Y-100911207D01*
X142450558Y-101054311D01*
X142293795Y-101211074D01*
X142121002Y-101628234D01*
X142121002Y-102079766D01*
X142293795Y-102496926D01*
X142613076Y-102816207D01*
X143030236Y-102989000D01*
X143481768Y-102989000D01*
X143898928Y-102816207D01*
X144149935Y-102565200D01*
X154173051Y-102565200D01*
X154424074Y-102816223D01*
X154841234Y-102989016D01*
X155292766Y-102989016D01*
X155709926Y-102816223D01*
X156029207Y-102496942D01*
X156202000Y-102079782D01*
X156202000Y-102009234D01*
X173871000Y-102009234D01*
X173871000Y-102460766D01*
X174043793Y-102877926D01*
X174363074Y-103197207D01*
X174780234Y-103370000D01*
X175231766Y-103370000D01*
X175648926Y-103197207D01*
X175899933Y-102946200D01*
X176271067Y-102946200D01*
X176522074Y-103197207D01*
X176939234Y-103370000D01*
X177390766Y-103370000D01*
X177807926Y-103197207D01*
X178127207Y-102877926D01*
X178300000Y-102460766D01*
X178300000Y-102009234D01*
X178127207Y-101592074D01*
X177807926Y-101272793D01*
X177390766Y-101100000D01*
X176939234Y-101100000D01*
X176522074Y-101272793D01*
X176271067Y-101523800D01*
X175899933Y-101523800D01*
X175648926Y-101272793D01*
X175231766Y-101100000D01*
X174780234Y-101100000D01*
X174363074Y-101272793D01*
X174043793Y-101592074D01*
X173871000Y-102009234D01*
X156202000Y-102009234D01*
X156202000Y-101628250D01*
X156029207Y-101211090D01*
X155719630Y-100901513D01*
X156029207Y-100591936D01*
X156202000Y-100174776D01*
X156202000Y-99723244D01*
X156029207Y-99306084D01*
X155719633Y-98996510D01*
X156029207Y-98686936D01*
X156202000Y-98269776D01*
X156202000Y-97818244D01*
X156029207Y-97401084D01*
X155719627Y-97091504D01*
X156029207Y-96781924D01*
X156032489Y-96774000D01*
X183805868Y-96774000D01*
X183819800Y-96844042D01*
X183819801Y-100640954D01*
X183805868Y-100711000D01*
X183861065Y-100988496D01*
X183978576Y-101164364D01*
X183978579Y-101164367D01*
X184018255Y-101223746D01*
X184077634Y-101263422D01*
X184920000Y-102105789D01*
X184920000Y-102460766D01*
X185089510Y-102870000D01*
X184920000Y-103279234D01*
X184920000Y-103730766D01*
X185092793Y-104147926D01*
X185412074Y-104467207D01*
X185829234Y-104640000D01*
X186280766Y-104640000D01*
X186697926Y-104467207D01*
X186948933Y-104216200D01*
X188336067Y-104216200D01*
X188587074Y-104467207D01*
X189004234Y-104640000D01*
X189455766Y-104640000D01*
X189872926Y-104467207D01*
X190192207Y-104147926D01*
X190365000Y-103730766D01*
X190365000Y-103279234D01*
X190192207Y-102862074D01*
X189872926Y-102542793D01*
X189455766Y-102370000D01*
X189004234Y-102370000D01*
X188587074Y-102542793D01*
X188336067Y-102793800D01*
X187052053Y-102793800D01*
X187190000Y-102460766D01*
X187190000Y-102009234D01*
X187052053Y-101676200D01*
X188336067Y-101676200D01*
X188587074Y-101927207D01*
X189004234Y-102100000D01*
X189455766Y-102100000D01*
X189872926Y-101927207D01*
X190192207Y-101607926D01*
X190365000Y-101190766D01*
X190365000Y-100739234D01*
X190192207Y-100322074D01*
X189872926Y-100002793D01*
X189455766Y-99830000D01*
X189004234Y-99830000D01*
X188587074Y-100002793D01*
X188336067Y-100253800D01*
X186948933Y-100253800D01*
X186697926Y-100002793D01*
X186280766Y-99830000D01*
X185829234Y-99830000D01*
X185412074Y-100002793D01*
X185242200Y-100172667D01*
X185242200Y-97068588D01*
X187195789Y-95115000D01*
X187550766Y-95115000D01*
X187967926Y-94942207D01*
X188287207Y-94622926D01*
X188460000Y-94205766D01*
X188460000Y-93754234D01*
X188287207Y-93337074D01*
X187967926Y-93017793D01*
X187550766Y-92845000D01*
X187099234Y-92845000D01*
X186682074Y-93017793D01*
X186362793Y-93337074D01*
X186190000Y-93754234D01*
X186190000Y-94109211D01*
X184077634Y-96221578D01*
X184018254Y-96261255D01*
X183978578Y-96320634D01*
X183978576Y-96320636D01*
X183914525Y-96416496D01*
X183861064Y-96496505D01*
X183819800Y-96703955D01*
X183819800Y-96703959D01*
X183805868Y-96774000D01*
X156032489Y-96774000D01*
X156202000Y-96364764D01*
X156202000Y-95913232D01*
X156029207Y-95496072D01*
X155719631Y-95186496D01*
X156029207Y-94876920D01*
X156202000Y-94459760D01*
X156202000Y-94008228D01*
X156029207Y-93591068D01*
X155719637Y-93281498D01*
X156029207Y-92971928D01*
X156202000Y-92554768D01*
X156202000Y-92484234D01*
X191142972Y-92484234D01*
X191142972Y-92935766D01*
X191315765Y-93352926D01*
X191566772Y-93603933D01*
X191566773Y-97023100D01*
X191315799Y-97274074D01*
X191143006Y-97691234D01*
X191143006Y-98142766D01*
X191315799Y-98559926D01*
X191635080Y-98879207D01*
X192052240Y-99052000D01*
X192503772Y-99052000D01*
X192582801Y-99019265D01*
X192582800Y-104516067D01*
X192331793Y-104767074D01*
X192159000Y-105184234D01*
X192159000Y-105635766D01*
X192331793Y-106052926D01*
X192651074Y-106372207D01*
X193068234Y-106545000D01*
X193519766Y-106545000D01*
X193936926Y-106372207D01*
X194256207Y-106052926D01*
X194429000Y-105635766D01*
X194429000Y-105184234D01*
X194256207Y-104767074D01*
X194005200Y-104516067D01*
X194005200Y-98019890D01*
X194138524Y-98019890D01*
X194308355Y-98429924D01*
X194698642Y-98858183D01*
X195223108Y-99104486D01*
X195453000Y-98983819D01*
X195453000Y-97790000D01*
X195707000Y-97790000D01*
X195707000Y-98983819D01*
X195936892Y-99104486D01*
X196461358Y-98858183D01*
X196851645Y-98429924D01*
X197021476Y-98019890D01*
X196900155Y-97790000D01*
X195707000Y-97790000D01*
X195453000Y-97790000D01*
X194259845Y-97790000D01*
X194138524Y-98019890D01*
X194005200Y-98019890D01*
X194005200Y-96143933D01*
X194098085Y-96051048D01*
X194131843Y-96220765D01*
X194272191Y-96430809D01*
X194482235Y-96571157D01*
X194585708Y-96591739D01*
X194308355Y-96896076D01*
X194138524Y-97306110D01*
X194259845Y-97536000D01*
X195453000Y-97536000D01*
X195453000Y-97516000D01*
X195707000Y-97516000D01*
X195707000Y-97536000D01*
X196900155Y-97536000D01*
X197021476Y-97306110D01*
X196851645Y-96896076D01*
X196574292Y-96591739D01*
X196677765Y-96571157D01*
X196887809Y-96430809D01*
X197028157Y-96220765D01*
X197077440Y-95973000D01*
X197077440Y-94273000D01*
X197028157Y-94025235D01*
X196887809Y-93815191D01*
X196677765Y-93674843D01*
X196430000Y-93625560D01*
X194730000Y-93625560D01*
X194482235Y-93674843D01*
X194272191Y-93815191D01*
X194131843Y-94025235D01*
X194082560Y-94273000D01*
X194082560Y-94433427D01*
X193936926Y-94287793D01*
X193519766Y-94115000D01*
X193068234Y-94115000D01*
X192989172Y-94147748D01*
X192989172Y-93603933D01*
X193240179Y-93352926D01*
X193401277Y-92964000D01*
X201304908Y-92964000D01*
X201420161Y-93543418D01*
X201748375Y-94034625D01*
X202046761Y-94234000D01*
X201748375Y-94433375D01*
X201420161Y-94924582D01*
X201304908Y-95504000D01*
X201420161Y-96083418D01*
X201748375Y-96574625D01*
X202046761Y-96774000D01*
X201748375Y-96973375D01*
X201420161Y-97464582D01*
X201304908Y-98044000D01*
X201420161Y-98623418D01*
X201748375Y-99114625D01*
X202046761Y-99314000D01*
X201748375Y-99513375D01*
X201420161Y-100004582D01*
X201304908Y-100584000D01*
X201420161Y-101163418D01*
X201748375Y-101654625D01*
X202046761Y-101854000D01*
X201748375Y-102053375D01*
X201420161Y-102544582D01*
X201304908Y-103124000D01*
X201420161Y-103703418D01*
X201748375Y-104194625D01*
X202239582Y-104522839D01*
X202672744Y-104609000D01*
X202965256Y-104609000D01*
X203398418Y-104522839D01*
X203889625Y-104194625D01*
X204217839Y-103703418D01*
X204333092Y-103124000D01*
X204217839Y-102544582D01*
X203889625Y-102053375D01*
X203591239Y-101854000D01*
X203889625Y-101654625D01*
X204217839Y-101163418D01*
X204333092Y-100584000D01*
X204217839Y-100004582D01*
X203889625Y-99513375D01*
X203591239Y-99314000D01*
X203889625Y-99114625D01*
X204217839Y-98623418D01*
X204333092Y-98044000D01*
X204217839Y-97464582D01*
X203889625Y-96973375D01*
X203591239Y-96774000D01*
X203889625Y-96574625D01*
X204217839Y-96083418D01*
X204333092Y-95504000D01*
X204217839Y-94924582D01*
X203889625Y-94433375D01*
X203591239Y-94234000D01*
X203889625Y-94034625D01*
X204217839Y-93543418D01*
X204333092Y-92964000D01*
X204217839Y-92384582D01*
X203889625Y-91893375D01*
X203867967Y-91878904D01*
X204028698Y-91812327D01*
X204207327Y-91633699D01*
X204304000Y-91400310D01*
X204304000Y-90709750D01*
X204145250Y-90551000D01*
X202946000Y-90551000D01*
X202946000Y-90571000D01*
X202692000Y-90571000D01*
X202692000Y-90551000D01*
X201492750Y-90551000D01*
X201334000Y-90709750D01*
X201334000Y-91400310D01*
X201430673Y-91633699D01*
X201609302Y-91812327D01*
X201770033Y-91878904D01*
X201748375Y-91893375D01*
X201420161Y-92384582D01*
X201304908Y-92964000D01*
X193401277Y-92964000D01*
X193412972Y-92935766D01*
X193412972Y-92484234D01*
X193240179Y-92067074D01*
X192920898Y-91747793D01*
X192503738Y-91575000D01*
X192052206Y-91575000D01*
X191635046Y-91747793D01*
X191315765Y-92067074D01*
X191142972Y-92484234D01*
X156202000Y-92484234D01*
X156202000Y-92103236D01*
X156029207Y-91686076D01*
X155709926Y-91366795D01*
X155292766Y-91194002D01*
X154841234Y-91194002D01*
X154424074Y-91366795D01*
X154173069Y-91617800D01*
X144149935Y-91617800D01*
X143898928Y-91366793D01*
X143481768Y-91194000D01*
X143030236Y-91194000D01*
X142613076Y-91366793D01*
X142293795Y-91686074D01*
X142121002Y-92103234D01*
X142121002Y-92554766D01*
X142293795Y-92971926D01*
X142450556Y-93128687D01*
X142105066Y-93271793D01*
X141785785Y-93591074D01*
X141612992Y-94008234D01*
X141612992Y-94459766D01*
X141785785Y-94876926D01*
X141942551Y-95033692D01*
X141597074Y-95176793D01*
X141277793Y-95496074D01*
X141105000Y-95913234D01*
X125860000Y-95913234D01*
X125860000Y-95480213D01*
X125550190Y-94732265D01*
X124977735Y-94159810D01*
X124229787Y-93850000D01*
X123420213Y-93850000D01*
X122672265Y-94159810D01*
X122099810Y-94732265D01*
X121790000Y-95480213D01*
X93119819Y-95480213D01*
X92799803Y-95160197D01*
X92758601Y-95132667D01*
X92710000Y-95123000D01*
X82602606Y-95123000D01*
X81407000Y-93927394D01*
X81407000Y-91035213D01*
X121790000Y-91035213D01*
X121790000Y-91844787D01*
X122099810Y-92592735D01*
X122672265Y-93165190D01*
X123420213Y-93475000D01*
X124229787Y-93475000D01*
X124977735Y-93165190D01*
X125550190Y-92592735D01*
X125860000Y-91844787D01*
X125860000Y-91035213D01*
X125550190Y-90287265D01*
X124977735Y-89714810D01*
X124229787Y-89405000D01*
X123420213Y-89405000D01*
X122672265Y-89714810D01*
X122099810Y-90287265D01*
X121790000Y-91035213D01*
X81407000Y-91035213D01*
X81407000Y-88436724D01*
X122562882Y-88436724D01*
X122710455Y-88745106D01*
X123465031Y-89038405D01*
X124274409Y-89020614D01*
X124939545Y-88745106D01*
X125087118Y-88436724D01*
X123825000Y-87174605D01*
X122562882Y-88436724D01*
X81407000Y-88436724D01*
X81407000Y-86635031D01*
X121781595Y-86635031D01*
X121799386Y-87444409D01*
X122074894Y-88109545D01*
X122383276Y-88257118D01*
X123645395Y-86995000D01*
X124004605Y-86995000D01*
X125266724Y-88257118D01*
X125575106Y-88109545D01*
X125868405Y-87354969D01*
X125850614Y-86545591D01*
X125575106Y-85880455D01*
X125266724Y-85732882D01*
X124004605Y-86995000D01*
X123645395Y-86995000D01*
X122383276Y-85732882D01*
X122074894Y-85880455D01*
X121781595Y-86635031D01*
X81407000Y-86635031D01*
X81407000Y-85553276D01*
X122562882Y-85553276D01*
X123825000Y-86815395D01*
X125087118Y-85553276D01*
X124939545Y-85244894D01*
X124184969Y-84951595D01*
X123375591Y-84969386D01*
X122710455Y-85244894D01*
X122562882Y-85553276D01*
X81407000Y-85553276D01*
X81407000Y-82478778D01*
X82058000Y-82478778D01*
X82058000Y-83129222D01*
X82306914Y-83730153D01*
X82766847Y-84190086D01*
X83367778Y-84439000D01*
X84018222Y-84439000D01*
X84619153Y-84190086D01*
X84852707Y-83956532D01*
X87800073Y-83956532D01*
X87898736Y-84223387D01*
X88508461Y-84449908D01*
X89158460Y-84425856D01*
X89647264Y-84223387D01*
X89745927Y-83956532D01*
X88773000Y-82983605D01*
X87800073Y-83956532D01*
X84852707Y-83956532D01*
X85079086Y-83730153D01*
X85328000Y-83129222D01*
X85328000Y-82539461D01*
X87127092Y-82539461D01*
X87151144Y-83189460D01*
X87353613Y-83678264D01*
X87620468Y-83776927D01*
X88593395Y-82804000D01*
X88952605Y-82804000D01*
X89925532Y-83776927D01*
X90192387Y-83678264D01*
X90418908Y-83068539D01*
X90394856Y-82418540D01*
X90192387Y-81929736D01*
X89925532Y-81831073D01*
X88952605Y-82804000D01*
X88593395Y-82804000D01*
X87620468Y-81831073D01*
X87353613Y-81929736D01*
X87127092Y-82539461D01*
X85328000Y-82539461D01*
X85328000Y-82478778D01*
X85079086Y-81877847D01*
X84852707Y-81651468D01*
X87800073Y-81651468D01*
X88773000Y-82624395D01*
X89609395Y-81788000D01*
X143252041Y-81788000D01*
X143368350Y-82372725D01*
X143699570Y-82868430D01*
X143983281Y-83058000D01*
X143699570Y-83247570D01*
X143368350Y-83743275D01*
X143252041Y-84328000D01*
X143368350Y-84912725D01*
X143699570Y-85408430D01*
X144195275Y-85739650D01*
X144632402Y-85826600D01*
X144927598Y-85826600D01*
X145364725Y-85739650D01*
X145488576Y-85656895D01*
X145497576Y-85670364D01*
X145497578Y-85670366D01*
X145537254Y-85729745D01*
X145596634Y-85769422D01*
X147021578Y-87194367D01*
X147061254Y-87253746D01*
X147120633Y-87293422D01*
X147120635Y-87293424D01*
X147296502Y-87410935D01*
X147296503Y-87410935D01*
X147296504Y-87410936D01*
X147503954Y-87452200D01*
X147503957Y-87452200D01*
X147573999Y-87466132D01*
X147644041Y-87452200D01*
X155091833Y-87452200D01*
X154948000Y-87799444D01*
X154948000Y-88250976D01*
X155120793Y-88668136D01*
X155440074Y-88987417D01*
X155857234Y-89160210D01*
X156308766Y-89160210D01*
X156725926Y-88987417D01*
X156897902Y-88815441D01*
X159682036Y-88815441D01*
X159933043Y-89066448D01*
X160350203Y-89239241D01*
X160801735Y-89239241D01*
X161218895Y-89066448D01*
X161538176Y-88747167D01*
X161710969Y-88330007D01*
X161710969Y-87878475D01*
X161538176Y-87461315D01*
X161529061Y-87452200D01*
X184490412Y-87452200D01*
X185809000Y-88770789D01*
X185809000Y-89125766D01*
X185981793Y-89542926D01*
X186301074Y-89862207D01*
X186718234Y-90035000D01*
X187169766Y-90035000D01*
X187586926Y-89862207D01*
X187906207Y-89542926D01*
X187945654Y-89447690D01*
X201334000Y-89447690D01*
X201334000Y-90138250D01*
X201492750Y-90297000D01*
X202692000Y-90297000D01*
X202692000Y-89097750D01*
X202946000Y-89097750D01*
X202946000Y-90297000D01*
X204145250Y-90297000D01*
X204304000Y-90138250D01*
X204304000Y-89447690D01*
X204207327Y-89214301D01*
X204028698Y-89035673D01*
X203795309Y-88939000D01*
X203104750Y-88939000D01*
X202946000Y-89097750D01*
X202692000Y-89097750D01*
X202533250Y-88939000D01*
X201842691Y-88939000D01*
X201609302Y-89035673D01*
X201430673Y-89214301D01*
X201334000Y-89447690D01*
X187945654Y-89447690D01*
X188079000Y-89125766D01*
X188079000Y-88674234D01*
X187906207Y-88257074D01*
X187586926Y-87937793D01*
X187169766Y-87765000D01*
X186814789Y-87765000D01*
X186511947Y-87462158D01*
X186591234Y-87495000D01*
X187042766Y-87495000D01*
X187459926Y-87322207D01*
X187779207Y-87002926D01*
X187952000Y-86585766D01*
X187952000Y-86134234D01*
X187779207Y-85717074D01*
X187459926Y-85397793D01*
X187042766Y-85225000D01*
X186591234Y-85225000D01*
X186511947Y-85257842D01*
X187270369Y-84499420D01*
X187329745Y-84459746D01*
X187369420Y-84400369D01*
X187369424Y-84400365D01*
X187486935Y-84224497D01*
X187486936Y-84224496D01*
X187528200Y-84017046D01*
X187528200Y-84017042D01*
X187542132Y-83947000D01*
X187528200Y-83876958D01*
X187528200Y-83443933D01*
X187779207Y-83192926D01*
X187952000Y-82775766D01*
X187952000Y-82324234D01*
X187832622Y-82036029D01*
X200415000Y-82036029D01*
X200415000Y-83143971D01*
X200838991Y-84167576D01*
X201622424Y-84951009D01*
X202646029Y-85375000D01*
X203753971Y-85375000D01*
X204777576Y-84951009D01*
X205561009Y-84167576D01*
X205985000Y-83143971D01*
X205985000Y-82036029D01*
X205561009Y-81012424D01*
X204777576Y-80228991D01*
X203753971Y-79805000D01*
X202646029Y-79805000D01*
X201622424Y-80228991D01*
X200838991Y-81012424D01*
X200415000Y-82036029D01*
X187832622Y-82036029D01*
X187779207Y-81907074D01*
X187459926Y-81587793D01*
X187042766Y-81415000D01*
X186591234Y-81415000D01*
X186174074Y-81587793D01*
X185854793Y-81907074D01*
X185682000Y-82324234D01*
X185682000Y-82775766D01*
X185854793Y-83192926D01*
X186105800Y-83443933D01*
X186105800Y-83652411D01*
X184461823Y-85296389D01*
X151015294Y-85296389D01*
X151271650Y-84912725D01*
X151387959Y-84328000D01*
X151271650Y-83743275D01*
X150941234Y-83248773D01*
X151083299Y-83189927D01*
X151261927Y-83011298D01*
X151358600Y-82777909D01*
X151358600Y-82073750D01*
X151199850Y-81915000D01*
X149987000Y-81915000D01*
X149987000Y-81935000D01*
X149733000Y-81935000D01*
X149733000Y-81915000D01*
X149713000Y-81915000D01*
X149713000Y-81661000D01*
X149733000Y-81661000D01*
X149733000Y-80448150D01*
X149987000Y-80448150D01*
X149987000Y-81661000D01*
X151199850Y-81661000D01*
X151358600Y-81502250D01*
X151358600Y-80798091D01*
X151261927Y-80564702D01*
X151083299Y-80386073D01*
X150849910Y-80289400D01*
X150145750Y-80289400D01*
X149987000Y-80448150D01*
X149733000Y-80448150D01*
X149574250Y-80289400D01*
X148870090Y-80289400D01*
X148682776Y-80366988D01*
X148253424Y-79937636D01*
X148213746Y-79878254D01*
X147978496Y-79721064D01*
X147771046Y-79679800D01*
X147771041Y-79679800D01*
X147701000Y-79665868D01*
X147630959Y-79679800D01*
X146247041Y-79679800D01*
X146176999Y-79665868D01*
X146106957Y-79679800D01*
X146106954Y-79679800D01*
X145899504Y-79721064D01*
X145899503Y-79721065D01*
X145899502Y-79721065D01*
X145723635Y-79838576D01*
X145723633Y-79838578D01*
X145664254Y-79878254D01*
X145624578Y-79937633D01*
X145215537Y-80346675D01*
X144927598Y-80289400D01*
X144632402Y-80289400D01*
X144195275Y-80376350D01*
X143699570Y-80707570D01*
X143368350Y-81203275D01*
X143252041Y-81788000D01*
X89609395Y-81788000D01*
X89745927Y-81651468D01*
X89647264Y-81384613D01*
X89037539Y-81158092D01*
X88387540Y-81182144D01*
X87898736Y-81384613D01*
X87800073Y-81651468D01*
X84852707Y-81651468D01*
X84619153Y-81417914D01*
X84018222Y-81169000D01*
X83367778Y-81169000D01*
X82766847Y-81417914D01*
X82306914Y-81877847D01*
X82058000Y-82478778D01*
X81407000Y-82478778D01*
X81407000Y-80062606D01*
X82602606Y-78867000D01*
X206322394Y-78867000D01*
X207445000Y-79989606D01*
G36*
X206883000Y-74168000D02*
X133414239Y-74168000D01*
X133816086Y-73766153D01*
X134065000Y-73165222D01*
X134065000Y-72514778D01*
X133816086Y-71913847D01*
X133356153Y-71453914D01*
X133141200Y-71364877D01*
X133141200Y-67815123D01*
X133356153Y-67726086D01*
X133816086Y-67266153D01*
X134065000Y-66665222D01*
X134065000Y-66014778D01*
X134007413Y-65875750D01*
X151045000Y-65875750D01*
X151045000Y-66516310D01*
X151141673Y-66749699D01*
X151320302Y-66928327D01*
X151553691Y-67025000D01*
X152894250Y-67025000D01*
X153053000Y-66866250D01*
X153053000Y-65717000D01*
X153307000Y-65717000D01*
X153307000Y-66866250D01*
X153465750Y-67025000D01*
X154806309Y-67025000D01*
X155039698Y-66928327D01*
X155218327Y-66749699D01*
X155315000Y-66516310D01*
X155315000Y-65875750D01*
X155156250Y-65717000D01*
X153307000Y-65717000D01*
X153053000Y-65717000D01*
X151203750Y-65717000D01*
X151045000Y-65875750D01*
X134007413Y-65875750D01*
X133816086Y-65413847D01*
X133356153Y-64953914D01*
X132755222Y-64705000D01*
X132104778Y-64705000D01*
X131503847Y-64953914D01*
X131043914Y-65413847D01*
X130795000Y-66014778D01*
X130795000Y-66665222D01*
X131043914Y-67266153D01*
X131503847Y-67726086D01*
X131718800Y-67815123D01*
X131718801Y-71364877D01*
X131503847Y-71453914D01*
X131043914Y-71913847D01*
X130795000Y-72514778D01*
X130795000Y-73165222D01*
X131043914Y-73766153D01*
X131445761Y-74168000D01*
X128838052Y-74168000D01*
X128902927Y-73992532D01*
X127930000Y-73019605D01*
X126957073Y-73992532D01*
X127021948Y-74168000D01*
X118414239Y-74168000D01*
X118816086Y-73766153D01*
X119065000Y-73165222D01*
X119065000Y-72575461D01*
X126284092Y-72575461D01*
X126308144Y-73225460D01*
X126510613Y-73714264D01*
X126777468Y-73812927D01*
X127750395Y-72840000D01*
X128109605Y-72840000D01*
X129082532Y-73812927D01*
X129349387Y-73714264D01*
X129575908Y-73104539D01*
X129551856Y-72454540D01*
X129349387Y-71965736D01*
X129082532Y-71867073D01*
X128109605Y-72840000D01*
X127750395Y-72840000D01*
X126777468Y-71867073D01*
X126510613Y-71965736D01*
X126284092Y-72575461D01*
X119065000Y-72575461D01*
X119065000Y-72514778D01*
X118816086Y-71913847D01*
X118589707Y-71687468D01*
X126957073Y-71687468D01*
X127930000Y-72660395D01*
X128902927Y-71687468D01*
X128804264Y-71420613D01*
X128194539Y-71194092D01*
X127544540Y-71218144D01*
X127055736Y-71420613D01*
X126957073Y-71687468D01*
X118589707Y-71687468D01*
X118356153Y-71453914D01*
X118141200Y-71364877D01*
X118141200Y-67815123D01*
X118356153Y-67726086D01*
X118589707Y-67492532D01*
X126957073Y-67492532D01*
X127055736Y-67759387D01*
X127665461Y-67985908D01*
X128315460Y-67961856D01*
X128804264Y-67759387D01*
X128902927Y-67492532D01*
X127930000Y-66519605D01*
X126957073Y-67492532D01*
X118589707Y-67492532D01*
X118816086Y-67266153D01*
X119065000Y-66665222D01*
X119065000Y-66075461D01*
X126284092Y-66075461D01*
X126308144Y-66725460D01*
X126510613Y-67214264D01*
X126777468Y-67312927D01*
X127750395Y-66340000D01*
X128109605Y-66340000D01*
X129082532Y-67312927D01*
X129349387Y-67214264D01*
X129575908Y-66604539D01*
X129551856Y-65954540D01*
X129349387Y-65465736D01*
X129082532Y-65367073D01*
X128109605Y-66340000D01*
X127750395Y-66340000D01*
X126777468Y-65367073D01*
X126510613Y-65465736D01*
X126284092Y-66075461D01*
X119065000Y-66075461D01*
X119065000Y-66014778D01*
X118816086Y-65413847D01*
X118589707Y-65187468D01*
X126957073Y-65187468D01*
X127930000Y-66160395D01*
X128902927Y-65187468D01*
X128804264Y-64920613D01*
X128194539Y-64694092D01*
X127544540Y-64718144D01*
X127055736Y-64920613D01*
X126957073Y-65187468D01*
X118589707Y-65187468D01*
X118356153Y-64953914D01*
X117755222Y-64705000D01*
X117104778Y-64705000D01*
X116503847Y-64953914D01*
X116043914Y-65413847D01*
X115795000Y-66014778D01*
X115795000Y-66665222D01*
X116043914Y-67266153D01*
X116503847Y-67726086D01*
X116718800Y-67815123D01*
X116718801Y-71364877D01*
X116503847Y-71453914D01*
X116043914Y-71913847D01*
X115795000Y-72514778D01*
X115795000Y-73165222D01*
X116043914Y-73766153D01*
X116445761Y-74168000D01*
X113838052Y-74168000D01*
X113902927Y-73992532D01*
X112930000Y-73019605D01*
X111957073Y-73992532D01*
X112021948Y-74168000D01*
X103414239Y-74168000D01*
X103816086Y-73766153D01*
X104065000Y-73165222D01*
X104065000Y-72575461D01*
X111284092Y-72575461D01*
X111308144Y-73225460D01*
X111510613Y-73714264D01*
X111777468Y-73812927D01*
X112750395Y-72840000D01*
X113109605Y-72840000D01*
X114082532Y-73812927D01*
X114349387Y-73714264D01*
X114575908Y-73104539D01*
X114551856Y-72454540D01*
X114349387Y-71965736D01*
X114082532Y-71867073D01*
X113109605Y-72840000D01*
X112750395Y-72840000D01*
X111777468Y-71867073D01*
X111510613Y-71965736D01*
X111284092Y-72575461D01*
X104065000Y-72575461D01*
X104065000Y-72514778D01*
X103816086Y-71913847D01*
X103589707Y-71687468D01*
X111957073Y-71687468D01*
X112930000Y-72660395D01*
X113902927Y-71687468D01*
X113804264Y-71420613D01*
X113194539Y-71194092D01*
X112544540Y-71218144D01*
X112055736Y-71420613D01*
X111957073Y-71687468D01*
X103589707Y-71687468D01*
X103356153Y-71453914D01*
X103141200Y-71364877D01*
X103141200Y-67815123D01*
X103356153Y-67726086D01*
X103589707Y-67492532D01*
X111957073Y-67492532D01*
X112055736Y-67759387D01*
X112665461Y-67985908D01*
X113315460Y-67961856D01*
X113804264Y-67759387D01*
X113902927Y-67492532D01*
X112930000Y-66519605D01*
X111957073Y-67492532D01*
X103589707Y-67492532D01*
X103816086Y-67266153D01*
X104065000Y-66665222D01*
X104065000Y-66075461D01*
X111284092Y-66075461D01*
X111308144Y-66725460D01*
X111510613Y-67214264D01*
X111777468Y-67312927D01*
X112750395Y-66340000D01*
X113109605Y-66340000D01*
X114082532Y-67312927D01*
X114349387Y-67214264D01*
X114575908Y-66604539D01*
X114551856Y-65954540D01*
X114349387Y-65465736D01*
X114082532Y-65367073D01*
X113109605Y-66340000D01*
X112750395Y-66340000D01*
X111777468Y-65367073D01*
X111510613Y-65465736D01*
X111284092Y-66075461D01*
X104065000Y-66075461D01*
X104065000Y-66014778D01*
X103816086Y-65413847D01*
X103589707Y-65187468D01*
X111957073Y-65187468D01*
X112930000Y-66160395D01*
X113902927Y-65187468D01*
X113804264Y-64920613D01*
X113194539Y-64694092D01*
X112544540Y-64718144D01*
X112055736Y-64920613D01*
X111957073Y-65187468D01*
X103589707Y-65187468D01*
X103356153Y-64953914D01*
X102755222Y-64705000D01*
X102104778Y-64705000D01*
X101503847Y-64953914D01*
X101043914Y-65413847D01*
X100795000Y-66014778D01*
X100795000Y-66665222D01*
X101043914Y-67266153D01*
X101503847Y-67726086D01*
X101718800Y-67815123D01*
X101718801Y-71364877D01*
X101503847Y-71453914D01*
X101043914Y-71913847D01*
X100795000Y-72514778D01*
X100795000Y-73165222D01*
X101043914Y-73766153D01*
X101445761Y-74168000D01*
X98838052Y-74168000D01*
X98902927Y-73992532D01*
X97930000Y-73019605D01*
X96957073Y-73992532D01*
X97021948Y-74168000D01*
X88414239Y-74168000D01*
X88816086Y-73766153D01*
X89065000Y-73165222D01*
X89065000Y-72575461D01*
X96284092Y-72575461D01*
X96308144Y-73225460D01*
X96510613Y-73714264D01*
X96777468Y-73812927D01*
X97750395Y-72840000D01*
X98109605Y-72840000D01*
X99082532Y-73812927D01*
X99349387Y-73714264D01*
X99575908Y-73104539D01*
X99551856Y-72454540D01*
X99349387Y-71965736D01*
X99082532Y-71867073D01*
X98109605Y-72840000D01*
X97750395Y-72840000D01*
X96777468Y-71867073D01*
X96510613Y-71965736D01*
X96284092Y-72575461D01*
X89065000Y-72575461D01*
X89065000Y-72514778D01*
X88816086Y-71913847D01*
X88589707Y-71687468D01*
X96957073Y-71687468D01*
X97930000Y-72660395D01*
X98902927Y-71687468D01*
X98804264Y-71420613D01*
X98194539Y-71194092D01*
X97544540Y-71218144D01*
X97055736Y-71420613D01*
X96957073Y-71687468D01*
X88589707Y-71687468D01*
X88356153Y-71453914D01*
X88141200Y-71364877D01*
X88141200Y-67815123D01*
X88356153Y-67726086D01*
X88589707Y-67492532D01*
X96957073Y-67492532D01*
X97055736Y-67759387D01*
X97665461Y-67985908D01*
X98315460Y-67961856D01*
X98804264Y-67759387D01*
X98902927Y-67492532D01*
X97930000Y-66519605D01*
X96957073Y-67492532D01*
X88589707Y-67492532D01*
X88816086Y-67266153D01*
X89065000Y-66665222D01*
X89065000Y-66075461D01*
X96284092Y-66075461D01*
X96308144Y-66725460D01*
X96510613Y-67214264D01*
X96777468Y-67312927D01*
X97750395Y-66340000D01*
X98109605Y-66340000D01*
X99082532Y-67312927D01*
X99349387Y-67214264D01*
X99575908Y-66604539D01*
X99551856Y-65954540D01*
X99349387Y-65465736D01*
X99082532Y-65367073D01*
X98109605Y-66340000D01*
X97750395Y-66340000D01*
X96777468Y-65367073D01*
X96510613Y-65465736D01*
X96284092Y-66075461D01*
X89065000Y-66075461D01*
X89065000Y-66014778D01*
X88816086Y-65413847D01*
X88589707Y-65187468D01*
X96957073Y-65187468D01*
X97930000Y-66160395D01*
X98902927Y-65187468D01*
X98804264Y-64920613D01*
X98194539Y-64694092D01*
X97544540Y-64718144D01*
X97055736Y-64920613D01*
X96957073Y-65187468D01*
X88589707Y-65187468D01*
X88356153Y-64953914D01*
X87755222Y-64705000D01*
X87104778Y-64705000D01*
X86503847Y-64953914D01*
X86043914Y-65413847D01*
X85795000Y-66014778D01*
X85795000Y-66665222D01*
X86043914Y-67266153D01*
X86503847Y-67726086D01*
X86718800Y-67815123D01*
X86718801Y-71364877D01*
X86503847Y-71453914D01*
X86043914Y-71913847D01*
X85795000Y-72514778D01*
X85795000Y-73165222D01*
X86043914Y-73766153D01*
X86445761Y-74168000D01*
X83838052Y-74168000D01*
X83902927Y-73992532D01*
X82930000Y-73019605D01*
X81957073Y-73992532D01*
X82021948Y-74168000D01*
X73414239Y-74168000D01*
X73816086Y-73766153D01*
X74065000Y-73165222D01*
X74065000Y-72575461D01*
X81284092Y-72575461D01*
X81308144Y-73225460D01*
X81510613Y-73714264D01*
X81777468Y-73812927D01*
X82750395Y-72840000D01*
X83109605Y-72840000D01*
X84082532Y-73812927D01*
X84349387Y-73714264D01*
X84575908Y-73104539D01*
X84551856Y-72454540D01*
X84349387Y-71965736D01*
X84082532Y-71867073D01*
X83109605Y-72840000D01*
X82750395Y-72840000D01*
X81777468Y-71867073D01*
X81510613Y-71965736D01*
X81284092Y-72575461D01*
X74065000Y-72575461D01*
X74065000Y-72514778D01*
X73816086Y-71913847D01*
X73589707Y-71687468D01*
X81957073Y-71687468D01*
X82930000Y-72660395D01*
X83902927Y-71687468D01*
X83804264Y-71420613D01*
X83194539Y-71194092D01*
X82544540Y-71218144D01*
X82055736Y-71420613D01*
X81957073Y-71687468D01*
X73589707Y-71687468D01*
X73356153Y-71453914D01*
X73141200Y-71364877D01*
X73141200Y-67815123D01*
X73356153Y-67726086D01*
X73589707Y-67492532D01*
X81957073Y-67492532D01*
X82055736Y-67759387D01*
X82665461Y-67985908D01*
X83315460Y-67961856D01*
X83804264Y-67759387D01*
X83902927Y-67492532D01*
X82930000Y-66519605D01*
X81957073Y-67492532D01*
X73589707Y-67492532D01*
X73816086Y-67266153D01*
X74065000Y-66665222D01*
X74065000Y-66075461D01*
X81284092Y-66075461D01*
X81308144Y-66725460D01*
X81510613Y-67214264D01*
X81777468Y-67312927D01*
X82750395Y-66340000D01*
X83109605Y-66340000D01*
X84082532Y-67312927D01*
X84349387Y-67214264D01*
X84575908Y-66604539D01*
X84551856Y-65954540D01*
X84349387Y-65465736D01*
X84082532Y-65367073D01*
X83109605Y-66340000D01*
X82750395Y-66340000D01*
X81777468Y-65367073D01*
X81510613Y-65465736D01*
X81284092Y-66075461D01*
X74065000Y-66075461D01*
X74065000Y-66014778D01*
X73816086Y-65413847D01*
X73589707Y-65187468D01*
X81957073Y-65187468D01*
X82930000Y-66160395D01*
X83902927Y-65187468D01*
X83804264Y-64920613D01*
X83194539Y-64694092D01*
X82544540Y-64718144D01*
X82055736Y-64920613D01*
X81957073Y-65187468D01*
X73589707Y-65187468D01*
X73356153Y-64953914D01*
X72755222Y-64705000D01*
X72104778Y-64705000D01*
X71503847Y-64953914D01*
X71043914Y-65413847D01*
X70795000Y-66014778D01*
X70795000Y-66665222D01*
X71043914Y-67266153D01*
X71503847Y-67726086D01*
X71718800Y-67815123D01*
X71718801Y-71364877D01*
X71503847Y-71453914D01*
X71043914Y-71913847D01*
X70795000Y-72514778D01*
X70795000Y-73165222D01*
X71043914Y-73766153D01*
X71445761Y-74168000D01*
X68838052Y-74168000D01*
X68902927Y-73992532D01*
X67930000Y-73019605D01*
X66957073Y-73992532D01*
X67021948Y-74168000D01*
X58414239Y-74168000D01*
X58816086Y-73766153D01*
X59065000Y-73165222D01*
X59065000Y-72575461D01*
X66284092Y-72575461D01*
X66308144Y-73225460D01*
X66510613Y-73714264D01*
X66777468Y-73812927D01*
X67750395Y-72840000D01*
X68109605Y-72840000D01*
X69082532Y-73812927D01*
X69349387Y-73714264D01*
X69575908Y-73104539D01*
X69551856Y-72454540D01*
X69349387Y-71965736D01*
X69082532Y-71867073D01*
X68109605Y-72840000D01*
X67750395Y-72840000D01*
X66777468Y-71867073D01*
X66510613Y-71965736D01*
X66284092Y-72575461D01*
X59065000Y-72575461D01*
X59065000Y-72514778D01*
X58816086Y-71913847D01*
X58589707Y-71687468D01*
X66957073Y-71687468D01*
X67930000Y-72660395D01*
X68902927Y-71687468D01*
X68804264Y-71420613D01*
X68194539Y-71194092D01*
X67544540Y-71218144D01*
X67055736Y-71420613D01*
X66957073Y-71687468D01*
X58589707Y-71687468D01*
X58356153Y-71453914D01*
X58141200Y-71364877D01*
X58141200Y-67815123D01*
X58356153Y-67726086D01*
X58589707Y-67492532D01*
X66957073Y-67492532D01*
X67055736Y-67759387D01*
X67665461Y-67985908D01*
X68315460Y-67961856D01*
X68804264Y-67759387D01*
X68902927Y-67492532D01*
X67930000Y-66519605D01*
X66957073Y-67492532D01*
X58589707Y-67492532D01*
X58816086Y-67266153D01*
X59065000Y-66665222D01*
X59065000Y-66075461D01*
X66284092Y-66075461D01*
X66308144Y-66725460D01*
X66510613Y-67214264D01*
X66777468Y-67312927D01*
X67750395Y-66340000D01*
X68109605Y-66340000D01*
X69082532Y-67312927D01*
X69349387Y-67214264D01*
X69575908Y-66604539D01*
X69551856Y-65954540D01*
X69349387Y-65465736D01*
X69082532Y-65367073D01*
X68109605Y-66340000D01*
X67750395Y-66340000D01*
X66777468Y-65367073D01*
X66510613Y-65465736D01*
X66284092Y-66075461D01*
X59065000Y-66075461D01*
X59065000Y-66014778D01*
X58816086Y-65413847D01*
X58589707Y-65187468D01*
X66957073Y-65187468D01*
X67930000Y-66160395D01*
X68902927Y-65187468D01*
X68804264Y-64920613D01*
X68194539Y-64694092D01*
X67544540Y-64718144D01*
X67055736Y-64920613D01*
X66957073Y-65187468D01*
X58589707Y-65187468D01*
X58356153Y-64953914D01*
X57755222Y-64705000D01*
X57104778Y-64705000D01*
X56503847Y-64953914D01*
X56043914Y-65413847D01*
X55795000Y-66014778D01*
X55795000Y-66665222D01*
X56043914Y-67266153D01*
X56503847Y-67726086D01*
X56718801Y-67815123D01*
X56718800Y-71364877D01*
X56503847Y-71453914D01*
X56043914Y-71913847D01*
X55795000Y-72514778D01*
X55795000Y-73165222D01*
X56043914Y-73766153D01*
X56445761Y-74168000D01*
X53838052Y-74168000D01*
X53902927Y-73992532D01*
X52930000Y-73019605D01*
X51957073Y-73992532D01*
X52021948Y-74168000D01*
X39497000Y-74168000D01*
X39497000Y-72575461D01*
X51284092Y-72575461D01*
X51308144Y-73225460D01*
X51510613Y-73714264D01*
X51777468Y-73812927D01*
X52750395Y-72840000D01*
X53109605Y-72840000D01*
X54082532Y-73812927D01*
X54349387Y-73714264D01*
X54575908Y-73104539D01*
X54551856Y-72454540D01*
X54349387Y-71965736D01*
X54082532Y-71867073D01*
X53109605Y-72840000D01*
X52750395Y-72840000D01*
X51777468Y-71867073D01*
X51510613Y-71965736D01*
X51284092Y-72575461D01*
X39497000Y-72575461D01*
X39497000Y-71687468D01*
X51957073Y-71687468D01*
X52930000Y-72660395D01*
X53902927Y-71687468D01*
X53804264Y-71420613D01*
X53194539Y-71194092D01*
X52544540Y-71218144D01*
X52055736Y-71420613D01*
X51957073Y-71687468D01*
X39497000Y-71687468D01*
X39497000Y-67492532D01*
X51957073Y-67492532D01*
X52055736Y-67759387D01*
X52665461Y-67985908D01*
X53315460Y-67961856D01*
X53804264Y-67759387D01*
X53902927Y-67492532D01*
X52930000Y-66519605D01*
X51957073Y-67492532D01*
X39497000Y-67492532D01*
X39497000Y-64215050D01*
X40295000Y-64215050D01*
X40295000Y-64964950D01*
X40581974Y-65657767D01*
X41112233Y-66188026D01*
X41805050Y-66475000D01*
X42554950Y-66475000D01*
X43247767Y-66188026D01*
X43360332Y-66075461D01*
X51284092Y-66075461D01*
X51308144Y-66725460D01*
X51510613Y-67214264D01*
X51777468Y-67312927D01*
X52750395Y-66340000D01*
X53109605Y-66340000D01*
X54082532Y-67312927D01*
X54349387Y-67214264D01*
X54575908Y-66604539D01*
X54551856Y-65954540D01*
X54349387Y-65465736D01*
X54082532Y-65367073D01*
X53109605Y-66340000D01*
X52750395Y-66340000D01*
X51777468Y-65367073D01*
X51510613Y-65465736D01*
X51284092Y-66075461D01*
X43360332Y-66075461D01*
X43778026Y-65657767D01*
X43972830Y-65187468D01*
X51957073Y-65187468D01*
X52930000Y-66160395D01*
X53902927Y-65187468D01*
X53804264Y-64920613D01*
X53194539Y-64694092D01*
X52544540Y-64718144D01*
X52055736Y-64920613D01*
X51957073Y-65187468D01*
X43972830Y-65187468D01*
X44065000Y-64964950D01*
X44065000Y-64663690D01*
X151045000Y-64663690D01*
X151045000Y-65304250D01*
X151203750Y-65463000D01*
X153053000Y-65463000D01*
X153053000Y-64313750D01*
X153307000Y-64313750D01*
X153307000Y-65463000D01*
X155156250Y-65463000D01*
X155315000Y-65304250D01*
X155315000Y-64663690D01*
X155218327Y-64430301D01*
X155039698Y-64251673D01*
X154806309Y-64155000D01*
X153465750Y-64155000D01*
X153307000Y-64313750D01*
X153053000Y-64313750D01*
X152894250Y-64155000D01*
X151553691Y-64155000D01*
X151320302Y-64251673D01*
X151141673Y-64430301D01*
X151045000Y-64663690D01*
X44065000Y-64663690D01*
X44065000Y-64215050D01*
X43778026Y-63522233D01*
X43247767Y-62991974D01*
X42554950Y-62705000D01*
X41805050Y-62705000D01*
X41112233Y-62991974D01*
X40581974Y-63522233D01*
X40295000Y-64215050D01*
X39497000Y-64215050D01*
X39497000Y-58690000D01*
X51997560Y-58690000D01*
X51997560Y-60490000D01*
X52046843Y-60737765D01*
X52187191Y-60947809D01*
X52397235Y-61088157D01*
X52645000Y-61137440D01*
X53715000Y-61137440D01*
X53962765Y-61088157D01*
X54042736Y-61034722D01*
X54142617Y-61083900D01*
X54323000Y-60958244D01*
X54323000Y-60688280D01*
X54362440Y-60490000D01*
X54362440Y-59109770D01*
X54550000Y-59109770D01*
X54550000Y-60070231D01*
X54577000Y-60205969D01*
X54577000Y-60958244D01*
X54757383Y-61083900D01*
X55071850Y-60929066D01*
X55263490Y-61057115D01*
X55720000Y-61147921D01*
X56176511Y-61057115D01*
X56355001Y-60937853D01*
X56533490Y-61057115D01*
X56990000Y-61147921D01*
X57446511Y-61057115D01*
X57833523Y-60798523D01*
X58092115Y-60411511D01*
X58160000Y-60070230D01*
X58160000Y-59109769D01*
X58092115Y-58768489D01*
X58039671Y-58690000D01*
X66997560Y-58690000D01*
X66997560Y-60490000D01*
X67046843Y-60737765D01*
X67187191Y-60947809D01*
X67397235Y-61088157D01*
X67645000Y-61137440D01*
X68715000Y-61137440D01*
X68962765Y-61088157D01*
X69042736Y-61034722D01*
X69142617Y-61083900D01*
X69323000Y-60958244D01*
X69323000Y-60688280D01*
X69362440Y-60490000D01*
X69362440Y-59109770D01*
X69550000Y-59109770D01*
X69550000Y-60070231D01*
X69577000Y-60205969D01*
X69577000Y-60958244D01*
X69757383Y-61083900D01*
X70071850Y-60929066D01*
X70263490Y-61057115D01*
X70720000Y-61147921D01*
X71176511Y-61057115D01*
X71355001Y-60937853D01*
X71533490Y-61057115D01*
X71990000Y-61147921D01*
X72446511Y-61057115D01*
X72833523Y-60798523D01*
X73092115Y-60411511D01*
X73160000Y-60070230D01*
X73160000Y-59109769D01*
X73092115Y-58768489D01*
X73039671Y-58690000D01*
X81997560Y-58690000D01*
X81997560Y-60490000D01*
X82046843Y-60737765D01*
X82187191Y-60947809D01*
X82397235Y-61088157D01*
X82645000Y-61137440D01*
X83715000Y-61137440D01*
X83962765Y-61088157D01*
X84042736Y-61034722D01*
X84142617Y-61083900D01*
X84323000Y-60958244D01*
X84323000Y-60688280D01*
X84362440Y-60490000D01*
X84362440Y-59109770D01*
X84550000Y-59109770D01*
X84550000Y-60070231D01*
X84577000Y-60205969D01*
X84577000Y-60958244D01*
X84757383Y-61083900D01*
X85071850Y-60929066D01*
X85263490Y-61057115D01*
X85720000Y-61147921D01*
X86176511Y-61057115D01*
X86355001Y-60937853D01*
X86533490Y-61057115D01*
X86990000Y-61147921D01*
X87446511Y-61057115D01*
X87833523Y-60798523D01*
X88092115Y-60411511D01*
X88160000Y-60070230D01*
X88160000Y-59109769D01*
X88092115Y-58768489D01*
X88039671Y-58690000D01*
X96997560Y-58690000D01*
X96997560Y-60490000D01*
X97046843Y-60737765D01*
X97187191Y-60947809D01*
X97397235Y-61088157D01*
X97645000Y-61137440D01*
X98715000Y-61137440D01*
X98962765Y-61088157D01*
X99042736Y-61034722D01*
X99142617Y-61083900D01*
X99323000Y-60958244D01*
X99323000Y-60688280D01*
X99362440Y-60490000D01*
X99362440Y-59109770D01*
X99550000Y-59109770D01*
X99550000Y-60070231D01*
X99577000Y-60205969D01*
X99577000Y-60958244D01*
X99757383Y-61083900D01*
X100071850Y-60929066D01*
X100263490Y-61057115D01*
X100720000Y-61147921D01*
X101176511Y-61057115D01*
X101355001Y-60937853D01*
X101533490Y-61057115D01*
X101990000Y-61147921D01*
X102446511Y-61057115D01*
X102833523Y-60798523D01*
X103092115Y-60411511D01*
X103160000Y-60070230D01*
X103160000Y-59109769D01*
X103092115Y-58768489D01*
X103039671Y-58690000D01*
X111997560Y-58690000D01*
X111997560Y-60490000D01*
X112046843Y-60737765D01*
X112187191Y-60947809D01*
X112397235Y-61088157D01*
X112645000Y-61137440D01*
X113715000Y-61137440D01*
X113962765Y-61088157D01*
X114042736Y-61034722D01*
X114142617Y-61083900D01*
X114323000Y-60958244D01*
X114323000Y-60688280D01*
X114362440Y-60490000D01*
X114362440Y-59109770D01*
X114550000Y-59109770D01*
X114550000Y-60070231D01*
X114577000Y-60205969D01*
X114577000Y-60958244D01*
X114757383Y-61083900D01*
X115071850Y-60929066D01*
X115263490Y-61057115D01*
X115720000Y-61147921D01*
X116176511Y-61057115D01*
X116355001Y-60937853D01*
X116533490Y-61057115D01*
X116990000Y-61147921D01*
X117446511Y-61057115D01*
X117833523Y-60798523D01*
X118092115Y-60411511D01*
X118160000Y-60070230D01*
X118160000Y-59109769D01*
X118092115Y-58768489D01*
X118039671Y-58690000D01*
X126997560Y-58690000D01*
X126997560Y-60490000D01*
X127046843Y-60737765D01*
X127187191Y-60947809D01*
X127397235Y-61088157D01*
X127645000Y-61137440D01*
X128715000Y-61137440D01*
X128962765Y-61088157D01*
X129042736Y-61034722D01*
X129142617Y-61083900D01*
X129323000Y-60958244D01*
X129323000Y-60688280D01*
X129362440Y-60490000D01*
X129362440Y-59109770D01*
X129550000Y-59109770D01*
X129550000Y-60070231D01*
X129577000Y-60205969D01*
X129577000Y-60958244D01*
X129757383Y-61083900D01*
X130071850Y-60929066D01*
X130263490Y-61057115D01*
X130720000Y-61147921D01*
X131176511Y-61057115D01*
X131355001Y-60937853D01*
X131533490Y-61057115D01*
X131990000Y-61147921D01*
X132446511Y-61057115D01*
X132833523Y-60798523D01*
X133092115Y-60411511D01*
X133160000Y-60070230D01*
X133160000Y-59109769D01*
X133092115Y-58768489D01*
X133039671Y-58690000D01*
X151997560Y-58690000D01*
X151997560Y-60490000D01*
X152046843Y-60737765D01*
X152187191Y-60947809D01*
X152397235Y-61088157D01*
X152645000Y-61137440D01*
X153715000Y-61137440D01*
X153962765Y-61088157D01*
X154042736Y-61034722D01*
X154142617Y-61083900D01*
X154323000Y-60958244D01*
X154323000Y-60688280D01*
X154362440Y-60490000D01*
X154362440Y-59109770D01*
X154550000Y-59109770D01*
X154550000Y-60070231D01*
X154577000Y-60205969D01*
X154577000Y-60958244D01*
X154757383Y-61083900D01*
X155008801Y-60960109D01*
X155008800Y-62707558D01*
X154994868Y-62777600D01*
X155008800Y-62847641D01*
X155008800Y-62847645D01*
X155050064Y-63055095D01*
X155050065Y-63055096D01*
X155167576Y-63230964D01*
X155167578Y-63230966D01*
X155207254Y-63290345D01*
X155266634Y-63330022D01*
X156079309Y-64142697D01*
X155832235Y-64191843D01*
X155622191Y-64332191D01*
X155481843Y-64542235D01*
X155432560Y-64790000D01*
X155432560Y-66390000D01*
X155481843Y-66637765D01*
X155622191Y-66847809D01*
X155832235Y-66988157D01*
X156080000Y-67037440D01*
X159080000Y-67037440D01*
X159327765Y-66988157D01*
X159537809Y-66847809D01*
X159678157Y-66637765D01*
X159727440Y-66390000D01*
X159727440Y-64790000D01*
X159678157Y-64542235D01*
X159537809Y-64332191D01*
X159327765Y-64191843D01*
X159080000Y-64142560D01*
X158104577Y-64142560D01*
X158092746Y-64124854D01*
X158033367Y-64085178D01*
X156587423Y-62639234D01*
X173871000Y-62639234D01*
X173871000Y-63090766D01*
X174043793Y-63507926D01*
X174363074Y-63827207D01*
X174780234Y-64000000D01*
X175231766Y-64000000D01*
X175648926Y-63827207D01*
X175968207Y-63507926D01*
X176141000Y-63090766D01*
X176141000Y-62941200D01*
X179558193Y-62941200D01*
X179447041Y-63500000D01*
X179563350Y-64084725D01*
X179894570Y-64580430D01*
X180178281Y-64770000D01*
X179894570Y-64959570D01*
X179563350Y-65455275D01*
X179447041Y-66040000D01*
X179563350Y-66624725D01*
X179894570Y-67120430D01*
X180390275Y-67451650D01*
X180827402Y-67538600D01*
X181122598Y-67538600D01*
X181533800Y-67456807D01*
X181533800Y-68448067D01*
X181282793Y-68699074D01*
X181110000Y-69116234D01*
X181110000Y-69567766D01*
X181282793Y-69984926D01*
X181602074Y-70304207D01*
X182019234Y-70477000D01*
X182470766Y-70477000D01*
X182887926Y-70304207D01*
X183207207Y-69984926D01*
X183371619Y-69588000D01*
X183740766Y-69588000D01*
X184157926Y-69415207D01*
X184477207Y-69095926D01*
X184650000Y-68678766D01*
X184650000Y-68227234D01*
X184477207Y-67810074D01*
X184226200Y-67559067D01*
X184226200Y-67367142D01*
X184595430Y-67120430D01*
X184926650Y-66624725D01*
X185042959Y-66040000D01*
X184926650Y-65455275D01*
X184595430Y-64959570D01*
X184311719Y-64770000D01*
X184595430Y-64580430D01*
X184842142Y-64211200D01*
X185019867Y-64211200D01*
X185270874Y-64462207D01*
X185688034Y-64635000D01*
X186139566Y-64635000D01*
X186556726Y-64462207D01*
X186803883Y-64215050D01*
X202295000Y-64215050D01*
X202295000Y-64964950D01*
X202581974Y-65657767D01*
X203112233Y-66188026D01*
X203805050Y-66475000D01*
X204554950Y-66475000D01*
X205247767Y-66188026D01*
X205778026Y-65657767D01*
X206065000Y-64964950D01*
X206065000Y-64215050D01*
X205778026Y-63522233D01*
X205247767Y-62991974D01*
X204554950Y-62705000D01*
X203805050Y-62705000D01*
X203112233Y-62991974D01*
X202581974Y-63522233D01*
X202295000Y-64215050D01*
X186803883Y-64215050D01*
X186876007Y-64142926D01*
X187048800Y-63725766D01*
X187048800Y-63274234D01*
X186876007Y-62857074D01*
X186556726Y-62537793D01*
X186139566Y-62365000D01*
X185688034Y-62365000D01*
X185270874Y-62537793D01*
X185019867Y-62788800D01*
X184842142Y-62788800D01*
X184596233Y-62420772D01*
X184738298Y-62361927D01*
X184916927Y-62183299D01*
X185013600Y-61949910D01*
X185013600Y-61245750D01*
X184854850Y-61087000D01*
X183642000Y-61087000D01*
X183642000Y-61107000D01*
X183388000Y-61107000D01*
X183388000Y-61087000D01*
X183368000Y-61087000D01*
X183368000Y-60833000D01*
X183388000Y-60833000D01*
X183388000Y-59620150D01*
X183642000Y-59620150D01*
X183642000Y-60833000D01*
X184854850Y-60833000D01*
X185013600Y-60674250D01*
X185013600Y-59970090D01*
X184916927Y-59736701D01*
X184738298Y-59558073D01*
X184504909Y-59461400D01*
X183800750Y-59461400D01*
X183642000Y-59620150D01*
X183388000Y-59620150D01*
X183229250Y-59461400D01*
X182525091Y-59461400D01*
X182291702Y-59558073D01*
X182113073Y-59736701D01*
X182054227Y-59878766D01*
X181686200Y-59632858D01*
X181686200Y-59172723D01*
X181937207Y-58921716D01*
X182110000Y-58504556D01*
X182110000Y-58053024D01*
X181937207Y-57635864D01*
X181617926Y-57316583D01*
X181200766Y-57143790D01*
X180749234Y-57143790D01*
X180332074Y-57316583D01*
X180012793Y-57635864D01*
X179840000Y-58053024D01*
X179840000Y-58504556D01*
X180012793Y-58921716D01*
X180263801Y-59172724D01*
X180263800Y-59632858D01*
X179894570Y-59879570D01*
X179563350Y-60375275D01*
X179447041Y-60960000D01*
X179558193Y-61518800D01*
X175711042Y-61518800D01*
X175641000Y-61504868D01*
X175570958Y-61518800D01*
X175570954Y-61518800D01*
X175363504Y-61560064D01*
X175363502Y-61560065D01*
X175363503Y-61560065D01*
X175187635Y-61677576D01*
X175187633Y-61677578D01*
X175128254Y-61717254D01*
X175119737Y-61730000D01*
X174780234Y-61730000D01*
X174363074Y-61902793D01*
X174043793Y-62222074D01*
X173871000Y-62639234D01*
X156587423Y-62639234D01*
X156431200Y-62483012D01*
X156431200Y-60988767D01*
X156533490Y-61057115D01*
X156990000Y-61147921D01*
X157446511Y-61057115D01*
X157833523Y-60798523D01*
X158092115Y-60411511D01*
X158160000Y-60070230D01*
X158160000Y-59109769D01*
X158092115Y-58768489D01*
X157833523Y-58381477D01*
X157446510Y-58122885D01*
X156990000Y-58032079D01*
X156533489Y-58122885D01*
X156355000Y-58242147D01*
X156176510Y-58122885D01*
X155720000Y-58032079D01*
X155263489Y-58122885D01*
X155071849Y-58250934D01*
X154757383Y-58096100D01*
X154577000Y-58221756D01*
X154577000Y-58974032D01*
X154550000Y-59109770D01*
X154362440Y-59109770D01*
X154362440Y-58690000D01*
X154323000Y-58491720D01*
X154323000Y-58221756D01*
X154142617Y-58096100D01*
X154042736Y-58145278D01*
X153962765Y-58091843D01*
X153715000Y-58042560D01*
X152645000Y-58042560D01*
X152397235Y-58091843D01*
X152187191Y-58232191D01*
X152046843Y-58442235D01*
X151997560Y-58690000D01*
X133039671Y-58690000D01*
X132833523Y-58381477D01*
X132446510Y-58122885D01*
X131990000Y-58032079D01*
X131533489Y-58122885D01*
X131355000Y-58242147D01*
X131176510Y-58122885D01*
X130720000Y-58032079D01*
X130263489Y-58122885D01*
X130071849Y-58250934D01*
X129757383Y-58096100D01*
X129577000Y-58221756D01*
X129577000Y-58974032D01*
X129550000Y-59109770D01*
X129362440Y-59109770D01*
X129362440Y-58690000D01*
X129323000Y-58491720D01*
X129323000Y-58221756D01*
X129142617Y-58096100D01*
X129042736Y-58145278D01*
X128962765Y-58091843D01*
X128715000Y-58042560D01*
X127645000Y-58042560D01*
X127397235Y-58091843D01*
X127187191Y-58232191D01*
X127046843Y-58442235D01*
X126997560Y-58690000D01*
X118039671Y-58690000D01*
X117833523Y-58381477D01*
X117446510Y-58122885D01*
X116990000Y-58032079D01*
X116533489Y-58122885D01*
X116355000Y-58242147D01*
X116176510Y-58122885D01*
X115720000Y-58032079D01*
X115263489Y-58122885D01*
X115071849Y-58250934D01*
X114757383Y-58096100D01*
X114577000Y-58221756D01*
X114577000Y-58974032D01*
X114550000Y-59109770D01*
X114362440Y-59109770D01*
X114362440Y-58690000D01*
X114323000Y-58491720D01*
X114323000Y-58221756D01*
X114142617Y-58096100D01*
X114042736Y-58145278D01*
X113962765Y-58091843D01*
X113715000Y-58042560D01*
X112645000Y-58042560D01*
X112397235Y-58091843D01*
X112187191Y-58232191D01*
X112046843Y-58442235D01*
X111997560Y-58690000D01*
X103039671Y-58690000D01*
X102833523Y-58381477D01*
X102446510Y-58122885D01*
X101990000Y-58032079D01*
X101533489Y-58122885D01*
X101355000Y-58242147D01*
X101176510Y-58122885D01*
X100720000Y-58032079D01*
X100263489Y-58122885D01*
X100071849Y-58250934D01*
X99757383Y-58096100D01*
X99577000Y-58221756D01*
X99577000Y-58974032D01*
X99550000Y-59109770D01*
X99362440Y-59109770D01*
X99362440Y-58690000D01*
X99323000Y-58491720D01*
X99323000Y-58221756D01*
X99142617Y-58096100D01*
X99042736Y-58145278D01*
X98962765Y-58091843D01*
X98715000Y-58042560D01*
X97645000Y-58042560D01*
X97397235Y-58091843D01*
X97187191Y-58232191D01*
X97046843Y-58442235D01*
X96997560Y-58690000D01*
X88039671Y-58690000D01*
X87833523Y-58381477D01*
X87446510Y-58122885D01*
X86990000Y-58032079D01*
X86533489Y-58122885D01*
X86355000Y-58242147D01*
X86176510Y-58122885D01*
X85720000Y-58032079D01*
X85263489Y-58122885D01*
X85071849Y-58250934D01*
X84757383Y-58096100D01*
X84577000Y-58221756D01*
X84577000Y-58974032D01*
X84550000Y-59109770D01*
X84362440Y-59109770D01*
X84362440Y-58690000D01*
X84323000Y-58491720D01*
X84323000Y-58221756D01*
X84142617Y-58096100D01*
X84042736Y-58145278D01*
X83962765Y-58091843D01*
X83715000Y-58042560D01*
X82645000Y-58042560D01*
X82397235Y-58091843D01*
X82187191Y-58232191D01*
X82046843Y-58442235D01*
X81997560Y-58690000D01*
X73039671Y-58690000D01*
X72833523Y-58381477D01*
X72446510Y-58122885D01*
X71990000Y-58032079D01*
X71533489Y-58122885D01*
X71355000Y-58242147D01*
X71176510Y-58122885D01*
X70720000Y-58032079D01*
X70263489Y-58122885D01*
X70071849Y-58250934D01*
X69757383Y-58096100D01*
X69577000Y-58221756D01*
X69577000Y-58974032D01*
X69550000Y-59109770D01*
X69362440Y-59109770D01*
X69362440Y-58690000D01*
X69323000Y-58491720D01*
X69323000Y-58221756D01*
X69142617Y-58096100D01*
X69042736Y-58145278D01*
X68962765Y-58091843D01*
X68715000Y-58042560D01*
X67645000Y-58042560D01*
X67397235Y-58091843D01*
X67187191Y-58232191D01*
X67046843Y-58442235D01*
X66997560Y-58690000D01*
X58039671Y-58690000D01*
X57833523Y-58381477D01*
X57446510Y-58122885D01*
X56990000Y-58032079D01*
X56533489Y-58122885D01*
X56355000Y-58242147D01*
X56176510Y-58122885D01*
X55720000Y-58032079D01*
X55263489Y-58122885D01*
X55071849Y-58250934D01*
X54757383Y-58096100D01*
X54577000Y-58221756D01*
X54577000Y-58974032D01*
X54550000Y-59109770D01*
X54362440Y-59109770D01*
X54362440Y-58690000D01*
X54323000Y-58491720D01*
X54323000Y-58221756D01*
X54142617Y-58096100D01*
X54042736Y-58145278D01*
X53962765Y-58091843D01*
X53715000Y-58042560D01*
X52645000Y-58042560D01*
X52397235Y-58091843D01*
X52187191Y-58232191D01*
X52046843Y-58442235D01*
X51997560Y-58690000D01*
X39497000Y-58690000D01*
X39497000Y-54737000D01*
X206883000Y-54737000D01*
X206883000Y-74168000D01*
X206883000Y-74168000D01*
G37*
X206883000Y-74168000D02*
X133414239Y-74168000D01*
X133816086Y-73766153D01*
X134065000Y-73165222D01*
X134065000Y-72514778D01*
X133816086Y-71913847D01*
X133356153Y-71453914D01*
X133141200Y-71364877D01*
X133141200Y-67815123D01*
X133356153Y-67726086D01*
X133816086Y-67266153D01*
X134065000Y-66665222D01*
X134065000Y-66014778D01*
X134007413Y-65875750D01*
X151045000Y-65875750D01*
X151045000Y-66516310D01*
X151141673Y-66749699D01*
X151320302Y-66928327D01*
X151553691Y-67025000D01*
X152894250Y-67025000D01*
X153053000Y-66866250D01*
X153053000Y-65717000D01*
X153307000Y-65717000D01*
X153307000Y-66866250D01*
X153465750Y-67025000D01*
X154806309Y-67025000D01*
X155039698Y-66928327D01*
X155218327Y-66749699D01*
X155315000Y-66516310D01*
X155315000Y-65875750D01*
X155156250Y-65717000D01*
X153307000Y-65717000D01*
X153053000Y-65717000D01*
X151203750Y-65717000D01*
X151045000Y-65875750D01*
X134007413Y-65875750D01*
X133816086Y-65413847D01*
X133356153Y-64953914D01*
X132755222Y-64705000D01*
X132104778Y-64705000D01*
X131503847Y-64953914D01*
X131043914Y-65413847D01*
X130795000Y-66014778D01*
X130795000Y-66665222D01*
X131043914Y-67266153D01*
X131503847Y-67726086D01*
X131718800Y-67815123D01*
X131718801Y-71364877D01*
X131503847Y-71453914D01*
X131043914Y-71913847D01*
X130795000Y-72514778D01*
X130795000Y-73165222D01*
X131043914Y-73766153D01*
X131445761Y-74168000D01*
X128838052Y-74168000D01*
X128902927Y-73992532D01*
X127930000Y-73019605D01*
X126957073Y-73992532D01*
X127021948Y-74168000D01*
X118414239Y-74168000D01*
X118816086Y-73766153D01*
X119065000Y-73165222D01*
X119065000Y-72575461D01*
X126284092Y-72575461D01*
X126308144Y-73225460D01*
X126510613Y-73714264D01*
X126777468Y-73812927D01*
X127750395Y-72840000D01*
X128109605Y-72840000D01*
X129082532Y-73812927D01*
X129349387Y-73714264D01*
X129575908Y-73104539D01*
X129551856Y-72454540D01*
X129349387Y-71965736D01*
X129082532Y-71867073D01*
X128109605Y-72840000D01*
X127750395Y-72840000D01*
X126777468Y-71867073D01*
X126510613Y-71965736D01*
X126284092Y-72575461D01*
X119065000Y-72575461D01*
X119065000Y-72514778D01*
X118816086Y-71913847D01*
X118589707Y-71687468D01*
X126957073Y-71687468D01*
X127930000Y-72660395D01*
X128902927Y-71687468D01*
X128804264Y-71420613D01*
X128194539Y-71194092D01*
X127544540Y-71218144D01*
X127055736Y-71420613D01*
X126957073Y-71687468D01*
X118589707Y-71687468D01*
X118356153Y-71453914D01*
X118141200Y-71364877D01*
X118141200Y-67815123D01*
X118356153Y-67726086D01*
X118589707Y-67492532D01*
X126957073Y-67492532D01*
X127055736Y-67759387D01*
X127665461Y-67985908D01*
X128315460Y-67961856D01*
X128804264Y-67759387D01*
X128902927Y-67492532D01*
X127930000Y-66519605D01*
X126957073Y-67492532D01*
X118589707Y-67492532D01*
X118816086Y-67266153D01*
X119065000Y-66665222D01*
X119065000Y-66075461D01*
X126284092Y-66075461D01*
X126308144Y-66725460D01*
X126510613Y-67214264D01*
X126777468Y-67312927D01*
X127750395Y-66340000D01*
X128109605Y-66340000D01*
X129082532Y-67312927D01*
X129349387Y-67214264D01*
X129575908Y-66604539D01*
X129551856Y-65954540D01*
X129349387Y-65465736D01*
X129082532Y-65367073D01*
X128109605Y-66340000D01*
X127750395Y-66340000D01*
X126777468Y-65367073D01*
X126510613Y-65465736D01*
X126284092Y-66075461D01*
X119065000Y-66075461D01*
X119065000Y-66014778D01*
X118816086Y-65413847D01*
X118589707Y-65187468D01*
X126957073Y-65187468D01*
X127930000Y-66160395D01*
X128902927Y-65187468D01*
X128804264Y-64920613D01*
X128194539Y-64694092D01*
X127544540Y-64718144D01*
X127055736Y-64920613D01*
X126957073Y-65187468D01*
X118589707Y-65187468D01*
X118356153Y-64953914D01*
X117755222Y-64705000D01*
X117104778Y-64705000D01*
X116503847Y-64953914D01*
X116043914Y-65413847D01*
X115795000Y-66014778D01*
X115795000Y-66665222D01*
X116043914Y-67266153D01*
X116503847Y-67726086D01*
X116718800Y-67815123D01*
X116718801Y-71364877D01*
X116503847Y-71453914D01*
X116043914Y-71913847D01*
X115795000Y-72514778D01*
X115795000Y-73165222D01*
X116043914Y-73766153D01*
X116445761Y-74168000D01*
X113838052Y-74168000D01*
X113902927Y-73992532D01*
X112930000Y-73019605D01*
X111957073Y-73992532D01*
X112021948Y-74168000D01*
X103414239Y-74168000D01*
X103816086Y-73766153D01*
X104065000Y-73165222D01*
X104065000Y-72575461D01*
X111284092Y-72575461D01*
X111308144Y-73225460D01*
X111510613Y-73714264D01*
X111777468Y-73812927D01*
X112750395Y-72840000D01*
X113109605Y-72840000D01*
X114082532Y-73812927D01*
X114349387Y-73714264D01*
X114575908Y-73104539D01*
X114551856Y-72454540D01*
X114349387Y-71965736D01*
X114082532Y-71867073D01*
X113109605Y-72840000D01*
X112750395Y-72840000D01*
X111777468Y-71867073D01*
X111510613Y-71965736D01*
X111284092Y-72575461D01*
X104065000Y-72575461D01*
X104065000Y-72514778D01*
X103816086Y-71913847D01*
X103589707Y-71687468D01*
X111957073Y-71687468D01*
X112930000Y-72660395D01*
X113902927Y-71687468D01*
X113804264Y-71420613D01*
X113194539Y-71194092D01*
X112544540Y-71218144D01*
X112055736Y-71420613D01*
X111957073Y-71687468D01*
X103589707Y-71687468D01*
X103356153Y-71453914D01*
X103141200Y-71364877D01*
X103141200Y-67815123D01*
X103356153Y-67726086D01*
X103589707Y-67492532D01*
X111957073Y-67492532D01*
X112055736Y-67759387D01*
X112665461Y-67985908D01*
X113315460Y-67961856D01*
X113804264Y-67759387D01*
X113902927Y-67492532D01*
X112930000Y-66519605D01*
X111957073Y-67492532D01*
X103589707Y-67492532D01*
X103816086Y-67266153D01*
X104065000Y-66665222D01*
X104065000Y-66075461D01*
X111284092Y-66075461D01*
X111308144Y-66725460D01*
X111510613Y-67214264D01*
X111777468Y-67312927D01*
X112750395Y-66340000D01*
X113109605Y-66340000D01*
X114082532Y-67312927D01*
X114349387Y-67214264D01*
X114575908Y-66604539D01*
X114551856Y-65954540D01*
X114349387Y-65465736D01*
X114082532Y-65367073D01*
X113109605Y-66340000D01*
X112750395Y-66340000D01*
X111777468Y-65367073D01*
X111510613Y-65465736D01*
X111284092Y-66075461D01*
X104065000Y-66075461D01*
X104065000Y-66014778D01*
X103816086Y-65413847D01*
X103589707Y-65187468D01*
X111957073Y-65187468D01*
X112930000Y-66160395D01*
X113902927Y-65187468D01*
X113804264Y-64920613D01*
X113194539Y-64694092D01*
X112544540Y-64718144D01*
X112055736Y-64920613D01*
X111957073Y-65187468D01*
X103589707Y-65187468D01*
X103356153Y-64953914D01*
X102755222Y-64705000D01*
X102104778Y-64705000D01*
X101503847Y-64953914D01*
X101043914Y-65413847D01*
X100795000Y-66014778D01*
X100795000Y-66665222D01*
X101043914Y-67266153D01*
X101503847Y-67726086D01*
X101718800Y-67815123D01*
X101718801Y-71364877D01*
X101503847Y-71453914D01*
X101043914Y-71913847D01*
X100795000Y-72514778D01*
X100795000Y-73165222D01*
X101043914Y-73766153D01*
X101445761Y-74168000D01*
X98838052Y-74168000D01*
X98902927Y-73992532D01*
X97930000Y-73019605D01*
X96957073Y-73992532D01*
X97021948Y-74168000D01*
X88414239Y-74168000D01*
X88816086Y-73766153D01*
X89065000Y-73165222D01*
X89065000Y-72575461D01*
X96284092Y-72575461D01*
X96308144Y-73225460D01*
X96510613Y-73714264D01*
X96777468Y-73812927D01*
X97750395Y-72840000D01*
X98109605Y-72840000D01*
X99082532Y-73812927D01*
X99349387Y-73714264D01*
X99575908Y-73104539D01*
X99551856Y-72454540D01*
X99349387Y-71965736D01*
X99082532Y-71867073D01*
X98109605Y-72840000D01*
X97750395Y-72840000D01*
X96777468Y-71867073D01*
X96510613Y-71965736D01*
X96284092Y-72575461D01*
X89065000Y-72575461D01*
X89065000Y-72514778D01*
X88816086Y-71913847D01*
X88589707Y-71687468D01*
X96957073Y-71687468D01*
X97930000Y-72660395D01*
X98902927Y-71687468D01*
X98804264Y-71420613D01*
X98194539Y-71194092D01*
X97544540Y-71218144D01*
X97055736Y-71420613D01*
X96957073Y-71687468D01*
X88589707Y-71687468D01*
X88356153Y-71453914D01*
X88141200Y-71364877D01*
X88141200Y-67815123D01*
X88356153Y-67726086D01*
X88589707Y-67492532D01*
X96957073Y-67492532D01*
X97055736Y-67759387D01*
X97665461Y-67985908D01*
X98315460Y-67961856D01*
X98804264Y-67759387D01*
X98902927Y-67492532D01*
X97930000Y-66519605D01*
X96957073Y-67492532D01*
X88589707Y-67492532D01*
X88816086Y-67266153D01*
X89065000Y-66665222D01*
X89065000Y-66075461D01*
X96284092Y-66075461D01*
X96308144Y-66725460D01*
X96510613Y-67214264D01*
X96777468Y-67312927D01*
X97750395Y-66340000D01*
X98109605Y-66340000D01*
X99082532Y-67312927D01*
X99349387Y-67214264D01*
X99575908Y-66604539D01*
X99551856Y-65954540D01*
X99349387Y-65465736D01*
X99082532Y-65367073D01*
X98109605Y-66340000D01*
X97750395Y-66340000D01*
X96777468Y-65367073D01*
X96510613Y-65465736D01*
X96284092Y-66075461D01*
X89065000Y-66075461D01*
X89065000Y-66014778D01*
X88816086Y-65413847D01*
X88589707Y-65187468D01*
X96957073Y-65187468D01*
X97930000Y-66160395D01*
X98902927Y-65187468D01*
X98804264Y-64920613D01*
X98194539Y-64694092D01*
X97544540Y-64718144D01*
X97055736Y-64920613D01*
X96957073Y-65187468D01*
X88589707Y-65187468D01*
X88356153Y-64953914D01*
X87755222Y-64705000D01*
X87104778Y-64705000D01*
X86503847Y-64953914D01*
X86043914Y-65413847D01*
X85795000Y-66014778D01*
X85795000Y-66665222D01*
X86043914Y-67266153D01*
X86503847Y-67726086D01*
X86718800Y-67815123D01*
X86718801Y-71364877D01*
X86503847Y-71453914D01*
X86043914Y-71913847D01*
X85795000Y-72514778D01*
X85795000Y-73165222D01*
X86043914Y-73766153D01*
X86445761Y-74168000D01*
X83838052Y-74168000D01*
X83902927Y-73992532D01*
X82930000Y-73019605D01*
X81957073Y-73992532D01*
X82021948Y-74168000D01*
X73414239Y-74168000D01*
X73816086Y-73766153D01*
X74065000Y-73165222D01*
X74065000Y-72575461D01*
X81284092Y-72575461D01*
X81308144Y-73225460D01*
X81510613Y-73714264D01*
X81777468Y-73812927D01*
X82750395Y-72840000D01*
X83109605Y-72840000D01*
X84082532Y-73812927D01*
X84349387Y-73714264D01*
X84575908Y-73104539D01*
X84551856Y-72454540D01*
X84349387Y-71965736D01*
X84082532Y-71867073D01*
X83109605Y-72840000D01*
X82750395Y-72840000D01*
X81777468Y-71867073D01*
X81510613Y-71965736D01*
X81284092Y-72575461D01*
X74065000Y-72575461D01*
X74065000Y-72514778D01*
X73816086Y-71913847D01*
X73589707Y-71687468D01*
X81957073Y-71687468D01*
X82930000Y-72660395D01*
X83902927Y-71687468D01*
X83804264Y-71420613D01*
X83194539Y-71194092D01*
X82544540Y-71218144D01*
X82055736Y-71420613D01*
X81957073Y-71687468D01*
X73589707Y-71687468D01*
X73356153Y-71453914D01*
X73141200Y-71364877D01*
X73141200Y-67815123D01*
X73356153Y-67726086D01*
X73589707Y-67492532D01*
X81957073Y-67492532D01*
X82055736Y-67759387D01*
X82665461Y-67985908D01*
X83315460Y-67961856D01*
X83804264Y-67759387D01*
X83902927Y-67492532D01*
X82930000Y-66519605D01*
X81957073Y-67492532D01*
X73589707Y-67492532D01*
X73816086Y-67266153D01*
X74065000Y-66665222D01*
X74065000Y-66075461D01*
X81284092Y-66075461D01*
X81308144Y-66725460D01*
X81510613Y-67214264D01*
X81777468Y-67312927D01*
X82750395Y-66340000D01*
X83109605Y-66340000D01*
X84082532Y-67312927D01*
X84349387Y-67214264D01*
X84575908Y-66604539D01*
X84551856Y-65954540D01*
X84349387Y-65465736D01*
X84082532Y-65367073D01*
X83109605Y-66340000D01*
X82750395Y-66340000D01*
X81777468Y-65367073D01*
X81510613Y-65465736D01*
X81284092Y-66075461D01*
X74065000Y-66075461D01*
X74065000Y-66014778D01*
X73816086Y-65413847D01*
X73589707Y-65187468D01*
X81957073Y-65187468D01*
X82930000Y-66160395D01*
X83902927Y-65187468D01*
X83804264Y-64920613D01*
X83194539Y-64694092D01*
X82544540Y-64718144D01*
X82055736Y-64920613D01*
X81957073Y-65187468D01*
X73589707Y-65187468D01*
X73356153Y-64953914D01*
X72755222Y-64705000D01*
X72104778Y-64705000D01*
X71503847Y-64953914D01*
X71043914Y-65413847D01*
X70795000Y-66014778D01*
X70795000Y-66665222D01*
X71043914Y-67266153D01*
X71503847Y-67726086D01*
X71718800Y-67815123D01*
X71718801Y-71364877D01*
X71503847Y-71453914D01*
X71043914Y-71913847D01*
X70795000Y-72514778D01*
X70795000Y-73165222D01*
X71043914Y-73766153D01*
X71445761Y-74168000D01*
X68838052Y-74168000D01*
X68902927Y-73992532D01*
X67930000Y-73019605D01*
X66957073Y-73992532D01*
X67021948Y-74168000D01*
X58414239Y-74168000D01*
X58816086Y-73766153D01*
X59065000Y-73165222D01*
X59065000Y-72575461D01*
X66284092Y-72575461D01*
X66308144Y-73225460D01*
X66510613Y-73714264D01*
X66777468Y-73812927D01*
X67750395Y-72840000D01*
X68109605Y-72840000D01*
X69082532Y-73812927D01*
X69349387Y-73714264D01*
X69575908Y-73104539D01*
X69551856Y-72454540D01*
X69349387Y-71965736D01*
X69082532Y-71867073D01*
X68109605Y-72840000D01*
X67750395Y-72840000D01*
X66777468Y-71867073D01*
X66510613Y-71965736D01*
X66284092Y-72575461D01*
X59065000Y-72575461D01*
X59065000Y-72514778D01*
X58816086Y-71913847D01*
X58589707Y-71687468D01*
X66957073Y-71687468D01*
X67930000Y-72660395D01*
X68902927Y-71687468D01*
X68804264Y-71420613D01*
X68194539Y-71194092D01*
X67544540Y-71218144D01*
X67055736Y-71420613D01*
X66957073Y-71687468D01*
X58589707Y-71687468D01*
X58356153Y-71453914D01*
X58141200Y-71364877D01*
X58141200Y-67815123D01*
X58356153Y-67726086D01*
X58589707Y-67492532D01*
X66957073Y-67492532D01*
X67055736Y-67759387D01*
X67665461Y-67985908D01*
X68315460Y-67961856D01*
X68804264Y-67759387D01*
X68902927Y-67492532D01*
X67930000Y-66519605D01*
X66957073Y-67492532D01*
X58589707Y-67492532D01*
X58816086Y-67266153D01*
X59065000Y-66665222D01*
X59065000Y-66075461D01*
X66284092Y-66075461D01*
X66308144Y-66725460D01*
X66510613Y-67214264D01*
X66777468Y-67312927D01*
X67750395Y-66340000D01*
X68109605Y-66340000D01*
X69082532Y-67312927D01*
X69349387Y-67214264D01*
X69575908Y-66604539D01*
X69551856Y-65954540D01*
X69349387Y-65465736D01*
X69082532Y-65367073D01*
X68109605Y-66340000D01*
X67750395Y-66340000D01*
X66777468Y-65367073D01*
X66510613Y-65465736D01*
X66284092Y-66075461D01*
X59065000Y-66075461D01*
X59065000Y-66014778D01*
X58816086Y-65413847D01*
X58589707Y-65187468D01*
X66957073Y-65187468D01*
X67930000Y-66160395D01*
X68902927Y-65187468D01*
X68804264Y-64920613D01*
X68194539Y-64694092D01*
X67544540Y-64718144D01*
X67055736Y-64920613D01*
X66957073Y-65187468D01*
X58589707Y-65187468D01*
X58356153Y-64953914D01*
X57755222Y-64705000D01*
X57104778Y-64705000D01*
X56503847Y-64953914D01*
X56043914Y-65413847D01*
X55795000Y-66014778D01*
X55795000Y-66665222D01*
X56043914Y-67266153D01*
X56503847Y-67726086D01*
X56718801Y-67815123D01*
X56718800Y-71364877D01*
X56503847Y-71453914D01*
X56043914Y-71913847D01*
X55795000Y-72514778D01*
X55795000Y-73165222D01*
X56043914Y-73766153D01*
X56445761Y-74168000D01*
X53838052Y-74168000D01*
X53902927Y-73992532D01*
X52930000Y-73019605D01*
X51957073Y-73992532D01*
X52021948Y-74168000D01*
X39497000Y-74168000D01*
X39497000Y-72575461D01*
X51284092Y-72575461D01*
X51308144Y-73225460D01*
X51510613Y-73714264D01*
X51777468Y-73812927D01*
X52750395Y-72840000D01*
X53109605Y-72840000D01*
X54082532Y-73812927D01*
X54349387Y-73714264D01*
X54575908Y-73104539D01*
X54551856Y-72454540D01*
X54349387Y-71965736D01*
X54082532Y-71867073D01*
X53109605Y-72840000D01*
X52750395Y-72840000D01*
X51777468Y-71867073D01*
X51510613Y-71965736D01*
X51284092Y-72575461D01*
X39497000Y-72575461D01*
X39497000Y-71687468D01*
X51957073Y-71687468D01*
X52930000Y-72660395D01*
X53902927Y-71687468D01*
X53804264Y-71420613D01*
X53194539Y-71194092D01*
X52544540Y-71218144D01*
X52055736Y-71420613D01*
X51957073Y-71687468D01*
X39497000Y-71687468D01*
X39497000Y-67492532D01*
X51957073Y-67492532D01*
X52055736Y-67759387D01*
X52665461Y-67985908D01*
X53315460Y-67961856D01*
X53804264Y-67759387D01*
X53902927Y-67492532D01*
X52930000Y-66519605D01*
X51957073Y-67492532D01*
X39497000Y-67492532D01*
X39497000Y-64215050D01*
X40295000Y-64215050D01*
X40295000Y-64964950D01*
X40581974Y-65657767D01*
X41112233Y-66188026D01*
X41805050Y-66475000D01*
X42554950Y-66475000D01*
X43247767Y-66188026D01*
X43360332Y-66075461D01*
X51284092Y-66075461D01*
X51308144Y-66725460D01*
X51510613Y-67214264D01*
X51777468Y-67312927D01*
X52750395Y-66340000D01*
X53109605Y-66340000D01*
X54082532Y-67312927D01*
X54349387Y-67214264D01*
X54575908Y-66604539D01*
X54551856Y-65954540D01*
X54349387Y-65465736D01*
X54082532Y-65367073D01*
X53109605Y-66340000D01*
X52750395Y-66340000D01*
X51777468Y-65367073D01*
X51510613Y-65465736D01*
X51284092Y-66075461D01*
X43360332Y-66075461D01*
X43778026Y-65657767D01*
X43972830Y-65187468D01*
X51957073Y-65187468D01*
X52930000Y-66160395D01*
X53902927Y-65187468D01*
X53804264Y-64920613D01*
X53194539Y-64694092D01*
X52544540Y-64718144D01*
X52055736Y-64920613D01*
X51957073Y-65187468D01*
X43972830Y-65187468D01*
X44065000Y-64964950D01*
X44065000Y-64663690D01*
X151045000Y-64663690D01*
X151045000Y-65304250D01*
X151203750Y-65463000D01*
X153053000Y-65463000D01*
X153053000Y-64313750D01*
X153307000Y-64313750D01*
X153307000Y-65463000D01*
X155156250Y-65463000D01*
X155315000Y-65304250D01*
X155315000Y-64663690D01*
X155218327Y-64430301D01*
X155039698Y-64251673D01*
X154806309Y-64155000D01*
X153465750Y-64155000D01*
X153307000Y-64313750D01*
X153053000Y-64313750D01*
X152894250Y-64155000D01*
X151553691Y-64155000D01*
X151320302Y-64251673D01*
X151141673Y-64430301D01*
X151045000Y-64663690D01*
X44065000Y-64663690D01*
X44065000Y-64215050D01*
X43778026Y-63522233D01*
X43247767Y-62991974D01*
X42554950Y-62705000D01*
X41805050Y-62705000D01*
X41112233Y-62991974D01*
X40581974Y-63522233D01*
X40295000Y-64215050D01*
X39497000Y-64215050D01*
X39497000Y-58690000D01*
X51997560Y-58690000D01*
X51997560Y-60490000D01*
X52046843Y-60737765D01*
X52187191Y-60947809D01*
X52397235Y-61088157D01*
X52645000Y-61137440D01*
X53715000Y-61137440D01*
X53962765Y-61088157D01*
X54042736Y-61034722D01*
X54142617Y-61083900D01*
X54323000Y-60958244D01*
X54323000Y-60688280D01*
X54362440Y-60490000D01*
X54362440Y-59109770D01*
X54550000Y-59109770D01*
X54550000Y-60070231D01*
X54577000Y-60205969D01*
X54577000Y-60958244D01*
X54757383Y-61083900D01*
X55071850Y-60929066D01*
X55263490Y-61057115D01*
X55720000Y-61147921D01*
X56176511Y-61057115D01*
X56355001Y-60937853D01*
X56533490Y-61057115D01*
X56990000Y-61147921D01*
X57446511Y-61057115D01*
X57833523Y-60798523D01*
X58092115Y-60411511D01*
X58160000Y-60070230D01*
X58160000Y-59109769D01*
X58092115Y-58768489D01*
X58039671Y-58690000D01*
X66997560Y-58690000D01*
X66997560Y-60490000D01*
X67046843Y-60737765D01*
X67187191Y-60947809D01*
X67397235Y-61088157D01*
X67645000Y-61137440D01*
X68715000Y-61137440D01*
X68962765Y-61088157D01*
X69042736Y-61034722D01*
X69142617Y-61083900D01*
X69323000Y-60958244D01*
X69323000Y-60688280D01*
X69362440Y-60490000D01*
X69362440Y-59109770D01*
X69550000Y-59109770D01*
X69550000Y-60070231D01*
X69577000Y-60205969D01*
X69577000Y-60958244D01*
X69757383Y-61083900D01*
X70071850Y-60929066D01*
X70263490Y-61057115D01*
X70720000Y-61147921D01*
X71176511Y-61057115D01*
X71355001Y-60937853D01*
X71533490Y-61057115D01*
X71990000Y-61147921D01*
X72446511Y-61057115D01*
X72833523Y-60798523D01*
X73092115Y-60411511D01*
X73160000Y-60070230D01*
X73160000Y-59109769D01*
X73092115Y-58768489D01*
X73039671Y-58690000D01*
X81997560Y-58690000D01*
X81997560Y-60490000D01*
X82046843Y-60737765D01*
X82187191Y-60947809D01*
X82397235Y-61088157D01*
X82645000Y-61137440D01*
X83715000Y-61137440D01*
X83962765Y-61088157D01*
X84042736Y-61034722D01*
X84142617Y-61083900D01*
X84323000Y-60958244D01*
X84323000Y-60688280D01*
X84362440Y-60490000D01*
X84362440Y-59109770D01*
X84550000Y-59109770D01*
X84550000Y-60070231D01*
X84577000Y-60205969D01*
X84577000Y-60958244D01*
X84757383Y-61083900D01*
X85071850Y-60929066D01*
X85263490Y-61057115D01*
X85720000Y-61147921D01*
X86176511Y-61057115D01*
X86355001Y-60937853D01*
X86533490Y-61057115D01*
X86990000Y-61147921D01*
X87446511Y-61057115D01*
X87833523Y-60798523D01*
X88092115Y-60411511D01*
X88160000Y-60070230D01*
X88160000Y-59109769D01*
X88092115Y-58768489D01*
X88039671Y-58690000D01*
X96997560Y-58690000D01*
X96997560Y-60490000D01*
X97046843Y-60737765D01*
X97187191Y-60947809D01*
X97397235Y-61088157D01*
X97645000Y-61137440D01*
X98715000Y-61137440D01*
X98962765Y-61088157D01*
X99042736Y-61034722D01*
X99142617Y-61083900D01*
X99323000Y-60958244D01*
X99323000Y-60688280D01*
X99362440Y-60490000D01*
X99362440Y-59109770D01*
X99550000Y-59109770D01*
X99550000Y-60070231D01*
X99577000Y-60205969D01*
X99577000Y-60958244D01*
X99757383Y-61083900D01*
X100071850Y-60929066D01*
X100263490Y-61057115D01*
X100720000Y-61147921D01*
X101176511Y-61057115D01*
X101355001Y-60937853D01*
X101533490Y-61057115D01*
X101990000Y-61147921D01*
X102446511Y-61057115D01*
X102833523Y-60798523D01*
X103092115Y-60411511D01*
X103160000Y-60070230D01*
X103160000Y-59109769D01*
X103092115Y-58768489D01*
X103039671Y-58690000D01*
X111997560Y-58690000D01*
X111997560Y-60490000D01*
X112046843Y-60737765D01*
X112187191Y-60947809D01*
X112397235Y-61088157D01*
X112645000Y-61137440D01*
X113715000Y-61137440D01*
X113962765Y-61088157D01*
X114042736Y-61034722D01*
X114142617Y-61083900D01*
X114323000Y-60958244D01*
X114323000Y-60688280D01*
X114362440Y-60490000D01*
X114362440Y-59109770D01*
X114550000Y-59109770D01*
X114550000Y-60070231D01*
X114577000Y-60205969D01*
X114577000Y-60958244D01*
X114757383Y-61083900D01*
X115071850Y-60929066D01*
X115263490Y-61057115D01*
X115720000Y-61147921D01*
X116176511Y-61057115D01*
X116355001Y-60937853D01*
X116533490Y-61057115D01*
X116990000Y-61147921D01*
X117446511Y-61057115D01*
X117833523Y-60798523D01*
X118092115Y-60411511D01*
X118160000Y-60070230D01*
X118160000Y-59109769D01*
X118092115Y-58768489D01*
X118039671Y-58690000D01*
X126997560Y-58690000D01*
X126997560Y-60490000D01*
X127046843Y-60737765D01*
X127187191Y-60947809D01*
X127397235Y-61088157D01*
X127645000Y-61137440D01*
X128715000Y-61137440D01*
X128962765Y-61088157D01*
X129042736Y-61034722D01*
X129142617Y-61083900D01*
X129323000Y-60958244D01*
X129323000Y-60688280D01*
X129362440Y-60490000D01*
X129362440Y-59109770D01*
X129550000Y-59109770D01*
X129550000Y-60070231D01*
X129577000Y-60205969D01*
X129577000Y-60958244D01*
X129757383Y-61083900D01*
X130071850Y-60929066D01*
X130263490Y-61057115D01*
X130720000Y-61147921D01*
X131176511Y-61057115D01*
X131355001Y-60937853D01*
X131533490Y-61057115D01*
X131990000Y-61147921D01*
X132446511Y-61057115D01*
X132833523Y-60798523D01*
X133092115Y-60411511D01*
X133160000Y-60070230D01*
X133160000Y-59109769D01*
X133092115Y-58768489D01*
X133039671Y-58690000D01*
X151997560Y-58690000D01*
X151997560Y-60490000D01*
X152046843Y-60737765D01*
X152187191Y-60947809D01*
X152397235Y-61088157D01*
X152645000Y-61137440D01*
X153715000Y-61137440D01*
X153962765Y-61088157D01*
X154042736Y-61034722D01*
X154142617Y-61083900D01*
X154323000Y-60958244D01*
X154323000Y-60688280D01*
X154362440Y-60490000D01*
X154362440Y-59109770D01*
X154550000Y-59109770D01*
X154550000Y-60070231D01*
X154577000Y-60205969D01*
X154577000Y-60958244D01*
X154757383Y-61083900D01*
X155008801Y-60960109D01*
X155008800Y-62707558D01*
X154994868Y-62777600D01*
X155008800Y-62847641D01*
X155008800Y-62847645D01*
X155050064Y-63055095D01*
X155050065Y-63055096D01*
X155167576Y-63230964D01*
X155167578Y-63230966D01*
X155207254Y-63290345D01*
X155266634Y-63330022D01*
X156079309Y-64142697D01*
X155832235Y-64191843D01*
X155622191Y-64332191D01*
X155481843Y-64542235D01*
X155432560Y-64790000D01*
X155432560Y-66390000D01*
X155481843Y-66637765D01*
X155622191Y-66847809D01*
X155832235Y-66988157D01*
X156080000Y-67037440D01*
X159080000Y-67037440D01*
X159327765Y-66988157D01*
X159537809Y-66847809D01*
X159678157Y-66637765D01*
X159727440Y-66390000D01*
X159727440Y-64790000D01*
X159678157Y-64542235D01*
X159537809Y-64332191D01*
X159327765Y-64191843D01*
X159080000Y-64142560D01*
X158104577Y-64142560D01*
X158092746Y-64124854D01*
X158033367Y-64085178D01*
X156587423Y-62639234D01*
X173871000Y-62639234D01*
X173871000Y-63090766D01*
X174043793Y-63507926D01*
X174363074Y-63827207D01*
X174780234Y-64000000D01*
X175231766Y-64000000D01*
X175648926Y-63827207D01*
X175968207Y-63507926D01*
X176141000Y-63090766D01*
X176141000Y-62941200D01*
X179558193Y-62941200D01*
X179447041Y-63500000D01*
X179563350Y-64084725D01*
X179894570Y-64580430D01*
X180178281Y-64770000D01*
X179894570Y-64959570D01*
X179563350Y-65455275D01*
X179447041Y-66040000D01*
X179563350Y-66624725D01*
X179894570Y-67120430D01*
X180390275Y-67451650D01*
X180827402Y-67538600D01*
X181122598Y-67538600D01*
X181533800Y-67456807D01*
X181533800Y-68448067D01*
X181282793Y-68699074D01*
X181110000Y-69116234D01*
X181110000Y-69567766D01*
X181282793Y-69984926D01*
X181602074Y-70304207D01*
X182019234Y-70477000D01*
X182470766Y-70477000D01*
X182887926Y-70304207D01*
X183207207Y-69984926D01*
X183371619Y-69588000D01*
X183740766Y-69588000D01*
X184157926Y-69415207D01*
X184477207Y-69095926D01*
X184650000Y-68678766D01*
X184650000Y-68227234D01*
X184477207Y-67810074D01*
X184226200Y-67559067D01*
X184226200Y-67367142D01*
X184595430Y-67120430D01*
X184926650Y-66624725D01*
X185042959Y-66040000D01*
X184926650Y-65455275D01*
X184595430Y-64959570D01*
X184311719Y-64770000D01*
X184595430Y-64580430D01*
X184842142Y-64211200D01*
X185019867Y-64211200D01*
X185270874Y-64462207D01*
X185688034Y-64635000D01*
X186139566Y-64635000D01*
X186556726Y-64462207D01*
X186803883Y-64215050D01*
X202295000Y-64215050D01*
X202295000Y-64964950D01*
X202581974Y-65657767D01*
X203112233Y-66188026D01*
X203805050Y-66475000D01*
X204554950Y-66475000D01*
X205247767Y-66188026D01*
X205778026Y-65657767D01*
X206065000Y-64964950D01*
X206065000Y-64215050D01*
X205778026Y-63522233D01*
X205247767Y-62991974D01*
X204554950Y-62705000D01*
X203805050Y-62705000D01*
X203112233Y-62991974D01*
X202581974Y-63522233D01*
X202295000Y-64215050D01*
X186803883Y-64215050D01*
X186876007Y-64142926D01*
X187048800Y-63725766D01*
X187048800Y-63274234D01*
X186876007Y-62857074D01*
X186556726Y-62537793D01*
X186139566Y-62365000D01*
X185688034Y-62365000D01*
X185270874Y-62537793D01*
X185019867Y-62788800D01*
X184842142Y-62788800D01*
X184596233Y-62420772D01*
X184738298Y-62361927D01*
X184916927Y-62183299D01*
X185013600Y-61949910D01*
X185013600Y-61245750D01*
X184854850Y-61087000D01*
X183642000Y-61087000D01*
X183642000Y-61107000D01*
X183388000Y-61107000D01*
X183388000Y-61087000D01*
X183368000Y-61087000D01*
X183368000Y-60833000D01*
X183388000Y-60833000D01*
X183388000Y-59620150D01*
X183642000Y-59620150D01*
X183642000Y-60833000D01*
X184854850Y-60833000D01*
X185013600Y-60674250D01*
X185013600Y-59970090D01*
X184916927Y-59736701D01*
X184738298Y-59558073D01*
X184504909Y-59461400D01*
X183800750Y-59461400D01*
X183642000Y-59620150D01*
X183388000Y-59620150D01*
X183229250Y-59461400D01*
X182525091Y-59461400D01*
X182291702Y-59558073D01*
X182113073Y-59736701D01*
X182054227Y-59878766D01*
X181686200Y-59632858D01*
X181686200Y-59172723D01*
X181937207Y-58921716D01*
X182110000Y-58504556D01*
X182110000Y-58053024D01*
X181937207Y-57635864D01*
X181617926Y-57316583D01*
X181200766Y-57143790D01*
X180749234Y-57143790D01*
X180332074Y-57316583D01*
X180012793Y-57635864D01*
X179840000Y-58053024D01*
X179840000Y-58504556D01*
X180012793Y-58921716D01*
X180263801Y-59172724D01*
X180263800Y-59632858D01*
X179894570Y-59879570D01*
X179563350Y-60375275D01*
X179447041Y-60960000D01*
X179558193Y-61518800D01*
X175711042Y-61518800D01*
X175641000Y-61504868D01*
X175570958Y-61518800D01*
X175570954Y-61518800D01*
X175363504Y-61560064D01*
X175363502Y-61560065D01*
X175363503Y-61560065D01*
X175187635Y-61677576D01*
X175187633Y-61677578D01*
X175128254Y-61717254D01*
X175119737Y-61730000D01*
X174780234Y-61730000D01*
X174363074Y-61902793D01*
X174043793Y-62222074D01*
X173871000Y-62639234D01*
X156587423Y-62639234D01*
X156431200Y-62483012D01*
X156431200Y-60988767D01*
X156533490Y-61057115D01*
X156990000Y-61147921D01*
X157446511Y-61057115D01*
X157833523Y-60798523D01*
X158092115Y-60411511D01*
X158160000Y-60070230D01*
X158160000Y-59109769D01*
X158092115Y-58768489D01*
X157833523Y-58381477D01*
X157446510Y-58122885D01*
X156990000Y-58032079D01*
X156533489Y-58122885D01*
X156355000Y-58242147D01*
X156176510Y-58122885D01*
X155720000Y-58032079D01*
X155263489Y-58122885D01*
X155071849Y-58250934D01*
X154757383Y-58096100D01*
X154577000Y-58221756D01*
X154577000Y-58974032D01*
X154550000Y-59109770D01*
X154362440Y-59109770D01*
X154362440Y-58690000D01*
X154323000Y-58491720D01*
X154323000Y-58221756D01*
X154142617Y-58096100D01*
X154042736Y-58145278D01*
X153962765Y-58091843D01*
X153715000Y-58042560D01*
X152645000Y-58042560D01*
X152397235Y-58091843D01*
X152187191Y-58232191D01*
X152046843Y-58442235D01*
X151997560Y-58690000D01*
X133039671Y-58690000D01*
X132833523Y-58381477D01*
X132446510Y-58122885D01*
X131990000Y-58032079D01*
X131533489Y-58122885D01*
X131355000Y-58242147D01*
X131176510Y-58122885D01*
X130720000Y-58032079D01*
X130263489Y-58122885D01*
X130071849Y-58250934D01*
X129757383Y-58096100D01*
X129577000Y-58221756D01*
X129577000Y-58974032D01*
X129550000Y-59109770D01*
X129362440Y-59109770D01*
X129362440Y-58690000D01*
X129323000Y-58491720D01*
X129323000Y-58221756D01*
X129142617Y-58096100D01*
X129042736Y-58145278D01*
X128962765Y-58091843D01*
X128715000Y-58042560D01*
X127645000Y-58042560D01*
X127397235Y-58091843D01*
X127187191Y-58232191D01*
X127046843Y-58442235D01*
X126997560Y-58690000D01*
X118039671Y-58690000D01*
X117833523Y-58381477D01*
X117446510Y-58122885D01*
X116990000Y-58032079D01*
X116533489Y-58122885D01*
X116355000Y-58242147D01*
X116176510Y-58122885D01*
X115720000Y-58032079D01*
X115263489Y-58122885D01*
X115071849Y-58250934D01*
X114757383Y-58096100D01*
X114577000Y-58221756D01*
X114577000Y-58974032D01*
X114550000Y-59109770D01*
X114362440Y-59109770D01*
X114362440Y-58690000D01*
X114323000Y-58491720D01*
X114323000Y-58221756D01*
X114142617Y-58096100D01*
X114042736Y-58145278D01*
X113962765Y-58091843D01*
X113715000Y-58042560D01*
X112645000Y-58042560D01*
X112397235Y-58091843D01*
X112187191Y-58232191D01*
X112046843Y-58442235D01*
X111997560Y-58690000D01*
X103039671Y-58690000D01*
X102833523Y-58381477D01*
X102446510Y-58122885D01*
X101990000Y-58032079D01*
X101533489Y-58122885D01*
X101355000Y-58242147D01*
X101176510Y-58122885D01*
X100720000Y-58032079D01*
X100263489Y-58122885D01*
X100071849Y-58250934D01*
X99757383Y-58096100D01*
X99577000Y-58221756D01*
X99577000Y-58974032D01*
X99550000Y-59109770D01*
X99362440Y-59109770D01*
X99362440Y-58690000D01*
X99323000Y-58491720D01*
X99323000Y-58221756D01*
X99142617Y-58096100D01*
X99042736Y-58145278D01*
X98962765Y-58091843D01*
X98715000Y-58042560D01*
X97645000Y-58042560D01*
X97397235Y-58091843D01*
X97187191Y-58232191D01*
X97046843Y-58442235D01*
X96997560Y-58690000D01*
X88039671Y-58690000D01*
X87833523Y-58381477D01*
X87446510Y-58122885D01*
X86990000Y-58032079D01*
X86533489Y-58122885D01*
X86355000Y-58242147D01*
X86176510Y-58122885D01*
X85720000Y-58032079D01*
X85263489Y-58122885D01*
X85071849Y-58250934D01*
X84757383Y-58096100D01*
X84577000Y-58221756D01*
X84577000Y-58974032D01*
X84550000Y-59109770D01*
X84362440Y-59109770D01*
X84362440Y-58690000D01*
X84323000Y-58491720D01*
X84323000Y-58221756D01*
X84142617Y-58096100D01*
X84042736Y-58145278D01*
X83962765Y-58091843D01*
X83715000Y-58042560D01*
X82645000Y-58042560D01*
X82397235Y-58091843D01*
X82187191Y-58232191D01*
X82046843Y-58442235D01*
X81997560Y-58690000D01*
X73039671Y-58690000D01*
X72833523Y-58381477D01*
X72446510Y-58122885D01*
X71990000Y-58032079D01*
X71533489Y-58122885D01*
X71355000Y-58242147D01*
X71176510Y-58122885D01*
X70720000Y-58032079D01*
X70263489Y-58122885D01*
X70071849Y-58250934D01*
X69757383Y-58096100D01*
X69577000Y-58221756D01*
X69577000Y-58974032D01*
X69550000Y-59109770D01*
X69362440Y-59109770D01*
X69362440Y-58690000D01*
X69323000Y-58491720D01*
X69323000Y-58221756D01*
X69142617Y-58096100D01*
X69042736Y-58145278D01*
X68962765Y-58091843D01*
X68715000Y-58042560D01*
X67645000Y-58042560D01*
X67397235Y-58091843D01*
X67187191Y-58232191D01*
X67046843Y-58442235D01*
X66997560Y-58690000D01*
X58039671Y-58690000D01*
X57833523Y-58381477D01*
X57446510Y-58122885D01*
X56990000Y-58032079D01*
X56533489Y-58122885D01*
X56355000Y-58242147D01*
X56176510Y-58122885D01*
X55720000Y-58032079D01*
X55263489Y-58122885D01*
X55071849Y-58250934D01*
X54757383Y-58096100D01*
X54577000Y-58221756D01*
X54577000Y-58974032D01*
X54550000Y-59109770D01*
X54362440Y-59109770D01*
X54362440Y-58690000D01*
X54323000Y-58491720D01*
X54323000Y-58221756D01*
X54142617Y-58096100D01*
X54042736Y-58145278D01*
X53962765Y-58091843D01*
X53715000Y-58042560D01*
X52645000Y-58042560D01*
X52397235Y-58091843D01*
X52187191Y-58232191D01*
X52046843Y-58442235D01*
X51997560Y-58690000D01*
X39497000Y-58690000D01*
X39497000Y-54737000D01*
X206883000Y-54737000D01*
X206883000Y-74168000D01*
D31*
X115062000Y-83820000D03*
X156591003Y-81025997D03*
X192659012Y-80010000D03*
X175006000Y-100203000D03*
X174117000Y-80010000D03*
X160020000Y-109220000D03*
X161290000Y-60325000D03*
X103504984Y-95250000D03*
X120015000Y-95885002D03*
X186055000Y-103505000D03*
X160575969Y-88104241D03*
X156083000Y-88025210D03*
X189230000Y-103505000D03*
X180975000Y-58278790D03*
X175006000Y-62865000D03*
X185913800Y-63500000D03*
X186944000Y-88900000D03*
X183515000Y-68453000D03*
X186817000Y-82550000D03*
X182245000Y-69342000D03*
X186817000Y-86360000D03*
X161820643Y-108054357D03*
X163195000Y-106680000D03*
X177165000Y-102235000D03*
X186055000Y-100965000D03*
X189230000Y-100965000D03*
X175006000Y-102235000D03*
X192277972Y-92710000D03*
X192278006Y-97917000D03*
X187325000Y-93980000D03*
X186055000Y-102235000D03*
X143256002Y-92329000D03*
X155067000Y-92329002D03*
X142747992Y-94234000D03*
X155067000Y-94233994D03*
X142240000Y-96139000D03*
X155067000Y-96138998D03*
X142240000Y-98044000D03*
X155067000Y-98044010D03*
X142748000Y-99949000D03*
X155067000Y-99949010D03*
X143256002Y-101854000D03*
X155067000Y-101854016D03*
X193294000Y-105410000D03*
X193294000Y-95250000D03*
X202819000Y-125603000D03*
X202819000Y-123063000D03*
X202819000Y-120523000D03*
X171243000Y-140335000D03*
X166243000Y-140335000D03*
X142795000Y-140335000D03*
X137795000Y-140335000D03*
X76247000Y-140335000D03*
X71247000Y-140335000D03*
X59610000Y-140335000D03*
X54610000Y-140335000D03*
X126158000Y-140335000D03*
X121158000Y-140335000D03*
X109521000Y-140335000D03*
X104521000Y-140335000D03*
X92884000Y-140335000D03*
X87884000Y-140335000D03*
X83693000Y-82804000D03*
X88773000Y-100584000D03*
X88773000Y-82804000D03*
X63373000Y-100584000D03*
X58293000Y-100584000D03*
X87430000Y-72840000D03*
X82930000Y-72840000D03*
X87430000Y-66340000D03*
X82930000Y-66340000D03*
X136525000Y-133350000D03*
X136525000Y-128350000D03*
X136525000Y-108350000D03*
X144025000Y-108350000D03*
X144025000Y-128350000D03*
X144025000Y-133350000D03*
X102990000Y-133350000D03*
X102990000Y-128350000D03*
X102990000Y-108350000D03*
X110490000Y-108350000D03*
X110490000Y-128350000D03*
X110490000Y-133350000D03*
X86480000Y-133350000D03*
X86480000Y-128350000D03*
X86480000Y-108350000D03*
X93980000Y-108350000D03*
X93980000Y-128350000D03*
X93980000Y-133350000D03*
X195580000Y-97663000D03*
X195580000Y-95123000D03*
X131990000Y-59590000D03*
X130720000Y-59590000D03*
X129450000Y-59590000D03*
X128180000Y-59590000D03*
X144780000Y-84328000D03*
X144780000Y-81788000D03*
X147320000Y-84328000D03*
X147320000Y-81788000D03*
X149860000Y-84328000D03*
X149860000Y-81788000D03*
X49805000Y-99575000D03*
X52705000Y-92075000D03*
X180975000Y-66040000D03*
X183515000Y-66040000D03*
X180975000Y-63500000D03*
X183515000Y-63500000D03*
X180975000Y-60960000D03*
X183515000Y-60960000D03*
X132430000Y-72840000D03*
X127930000Y-72840000D03*
X132430000Y-66340000D03*
X127930000Y-66340000D03*
X72430000Y-72840000D03*
X67930000Y-72840000D03*
X72430000Y-66340000D03*
X67930000Y-66340000D03*
X202819000Y-114427000D03*
X202819000Y-111887000D03*
X202819000Y-109347000D03*
X43180000Y-82590000D03*
X43180000Y-148590000D03*
X203200000Y-82590000D03*
X203200000Y-148590000D03*
X116990000Y-59590000D03*
X115720000Y-59590000D03*
X114450000Y-59590000D03*
X113180000Y-59590000D03*
X101990000Y-59590000D03*
X100720000Y-59590000D03*
X99450000Y-59590000D03*
X98180000Y-59590000D03*
X86990000Y-59590000D03*
X85720000Y-59590000D03*
X84450000Y-59590000D03*
X83180000Y-59590000D03*
X71990000Y-59590000D03*
X70720000Y-59590000D03*
X69450000Y-59590000D03*
X68180000Y-59590000D03*
X56990000Y-59590000D03*
X55720000Y-59590000D03*
X54450000Y-59590000D03*
X53180000Y-59590000D03*
X204180000Y-64590000D03*
X42180000Y-64590000D03*
X117430000Y-72840000D03*
X112930000Y-72840000D03*
X117430000Y-66340000D03*
X112930000Y-66340000D03*
X102430000Y-72840000D03*
X97930000Y-72840000D03*
X102430000Y-66340000D03*
X97930000Y-66340000D03*
X57430000Y-72840000D03*
X52930000Y-72840000D03*
X57430000Y-66340000D03*
X52930000Y-66340000D03*
X147320000Y-76590000D03*
X145415000Y-76590000D03*
X143510000Y-76590000D03*
X141605000Y-76590000D03*
X123825000Y-95885000D03*
X123825000Y-91440000D03*
X123825000Y-86995000D03*
X123825000Y-100330000D03*
X202819000Y-103124000D03*
X202819000Y-100584000D03*
X202819000Y-98044000D03*
X202819000Y-95504000D03*
X202819000Y-92964000D03*
X202819000Y-90424000D03*
X53460000Y-133350000D03*
X53460000Y-128350000D03*
X53460000Y-108350000D03*
X60960000Y-108350000D03*
X60960000Y-128350000D03*
X60960000Y-133350000D03*
X69970000Y-133350000D03*
X69970000Y-128350000D03*
X69970000Y-108350000D03*
X77470000Y-108350000D03*
X77470000Y-128350000D03*
X77470000Y-133350000D03*
X119754000Y-133350000D03*
X119754000Y-128350000D03*
X119754000Y-108350000D03*
X127254000Y-108350000D03*
X127254000Y-128350000D03*
X127254000Y-133350000D03*
X156990000Y-59590000D03*
X155720000Y-59590000D03*
X154450000Y-59590000D03*
X153180000Y-59590000D03*
X166780000Y-130175000D03*
X170180000Y-130175000D03*
X166780000Y-120255000D03*
X170180000Y-120255000D03*
X193040000Y-137160000D03*
X200640000Y-137160000D03*
M02*
