G04 #@! TF.GenerationSoftware,KiCad,Pcbnew,(5.0.0)*
G04 #@! TF.CreationDate,2018-09-10T10:35:59+01:00*
G04 #@! TF.ProjectId,AquaHub,417175614875622E6B696361645F7063,rev?*
G04 #@! TF.SameCoordinates,Original*
G04 #@! TF.FileFunction,Soldermask,Bot*
G04 #@! TF.FilePolarity,Negative*
%FSLAX46Y46*%
G04 Gerber Fmt 4.6, Leading zero omitted, Abs format (unit mm)*
G04 Created by KiCad (PCBNEW (5.0.0)) date 09/10/18 10:35:59*
%MOMM*%
%LPD*%
G01*
G04 APERTURE LIST*
%ADD10R,2.127200X2.127200*%
%ADD11O,2.127200X2.127200*%
%ADD12R,1.000000X1.900000*%
%ADD13O,1.470000X2.200000*%
%ADD14R,1.470000X2.200000*%
%ADD15C,2.400000*%
%ADD16R,2.400000X2.400000*%
%ADD17O,2.100000X2.100000*%
%ADD18R,2.100000X2.100000*%
%ADD19C,1.924000*%
%ADD20C,4.700000*%
%ADD21O,2.900000X1.900000*%
%ADD22R,2.900000X1.900000*%
%ADD23C,0.100000*%
%ADD24C,1.550000*%
%ADD25C,1.900000*%
%ADD26C,2.200000*%
%ADD27R,5.400000X5.400000*%
%ADD28R,1.300000X2.400000*%
%ADD29C,2.900000*%
%ADD30C,1.400000*%
%ADD31C,3.400000*%
G04 APERTURE END LIST*
D10*
G04 #@! TO.C,J12*
X153035000Y-46355000D03*
D11*
X150495000Y-46355000D03*
X153035000Y-48895000D03*
X150495000Y-48895000D03*
X153035000Y-51435000D03*
X150495000Y-51435000D03*
G04 #@! TD*
D12*
G04 #@! TO.C,U6*
X142875000Y-54610000D03*
X141605000Y-54610000D03*
X140335000Y-54610000D03*
X139065000Y-54610000D03*
X137795000Y-54610000D03*
X136525000Y-54610000D03*
X135255000Y-54610000D03*
X133985000Y-54610000D03*
X133985000Y-45310000D03*
X135255000Y-45310000D03*
X136525000Y-45310000D03*
X137795000Y-45310000D03*
X139065000Y-45310000D03*
X140335000Y-45310000D03*
X141605000Y-45310000D03*
X142875000Y-45310000D03*
G04 #@! TD*
D11*
G04 #@! TO.C,J11*
X161925000Y-77470000D03*
X161925000Y-74930000D03*
X164465000Y-77470000D03*
X164465000Y-74930000D03*
X167005000Y-77470000D03*
D10*
X167005000Y-74930000D03*
G04 #@! TD*
D13*
G04 #@! TO.C,D1*
X120015000Y-44450000D03*
X118745000Y-44450000D03*
X117475000Y-44450000D03*
D14*
X116205000Y-44450000D03*
G04 #@! TD*
D15*
G04 #@! TO.C,SW1*
X115515000Y-50800000D03*
X120015000Y-50800000D03*
X115515000Y-57300000D03*
X120015000Y-57300000D03*
G04 #@! TD*
G04 #@! TO.C,SW5*
X69365000Y-57300000D03*
X64865000Y-57300000D03*
X69365000Y-50800000D03*
X64865000Y-50800000D03*
G04 #@! TD*
G04 #@! TO.C,V1*
X81453344Y-88927320D03*
X81452344Y-96547320D03*
X53465000Y-88927320D03*
D16*
X53465000Y-104140000D03*
G04 #@! TD*
D17*
G04 #@! TO.C,J9*
X142240000Y-74930000D03*
X144780000Y-74930000D03*
D18*
X147320000Y-74930000D03*
G04 #@! TD*
D19*
G04 #@! TO.C,K1*
X60960000Y-112776000D03*
X60960000Y-120396000D03*
X60960000Y-125476000D03*
X60960000Y-130556000D03*
X53340000Y-130556000D03*
X53340000Y-125476000D03*
X53340000Y-120396000D03*
X53340000Y-112776000D03*
G04 #@! TD*
G04 #@! TO.C,K2*
X76962000Y-112776000D03*
X76962000Y-120396000D03*
X76962000Y-125476000D03*
X76962000Y-130556000D03*
X69342000Y-130556000D03*
X69342000Y-125476000D03*
X69342000Y-120396000D03*
X69342000Y-112776000D03*
G04 #@! TD*
G04 #@! TO.C,K3*
X94234000Y-112776000D03*
X94234000Y-120396000D03*
X94234000Y-125476000D03*
X94234000Y-130556000D03*
X86614000Y-130556000D03*
X86614000Y-125476000D03*
X86614000Y-120396000D03*
X86614000Y-112776000D03*
G04 #@! TD*
G04 #@! TO.C,K4*
X109982000Y-112776000D03*
X109982000Y-120396000D03*
X109982000Y-125476000D03*
X109982000Y-130556000D03*
X102362000Y-130556000D03*
X102362000Y-125476000D03*
X102362000Y-120396000D03*
X102362000Y-112776000D03*
G04 #@! TD*
G04 #@! TO.C,K5*
X127254000Y-112776000D03*
X127254000Y-120396000D03*
X127254000Y-125476000D03*
X127254000Y-130556000D03*
X119634000Y-130556000D03*
X119634000Y-125476000D03*
X119634000Y-120396000D03*
X119634000Y-112776000D03*
G04 #@! TD*
G04 #@! TO.C,K6*
X143510000Y-112776000D03*
X143510000Y-120396000D03*
X143510000Y-125476000D03*
X143510000Y-130556000D03*
X135890000Y-130556000D03*
X135890000Y-125476000D03*
X135890000Y-120396000D03*
X135890000Y-112776000D03*
G04 #@! TD*
D20*
G04 #@! TO.C,MH1*
X43180000Y-68580000D03*
G04 #@! TD*
G04 #@! TO.C,MH2*
X43180000Y-154940000D03*
G04 #@! TD*
G04 #@! TO.C,MH3*
X202565000Y-68580000D03*
G04 #@! TD*
G04 #@! TO.C,MH4*
X203200000Y-154940000D03*
G04 #@! TD*
D12*
G04 #@! TO.C,U4*
X170180000Y-89215000D03*
X168910000Y-89215000D03*
X167640000Y-89215000D03*
X166370000Y-89215000D03*
X165100000Y-89215000D03*
X163830000Y-89215000D03*
X162560000Y-89215000D03*
X161290000Y-89215000D03*
X161290000Y-94615000D03*
X162560000Y-94615000D03*
X163830000Y-94615000D03*
X165100000Y-94615000D03*
X166370000Y-94615000D03*
X167640000Y-94615000D03*
X168910000Y-94615000D03*
X170180000Y-94615000D03*
G04 #@! TD*
D21*
G04 #@! TO.C,U5*
X90170000Y-90805000D03*
X90170000Y-88265000D03*
D22*
X90170000Y-85725000D03*
G04 #@! TD*
D17*
G04 #@! TO.C,J10*
X186690000Y-74930000D03*
X189230000Y-74930000D03*
X191770000Y-74930000D03*
D18*
X194310000Y-74930000D03*
G04 #@! TD*
D23*
G04 #@! TO.C,C3*
G36*
X199861071Y-106416623D02*
X199893781Y-106421475D01*
X199925857Y-106429509D01*
X199956991Y-106440649D01*
X199986884Y-106454787D01*
X200015247Y-106471787D01*
X200041807Y-106491485D01*
X200066308Y-106513692D01*
X200088515Y-106538193D01*
X200108213Y-106564753D01*
X200125213Y-106593116D01*
X200139351Y-106623009D01*
X200150491Y-106654143D01*
X200158525Y-106686219D01*
X200163377Y-106718929D01*
X200165000Y-106751956D01*
X200165000Y-107878044D01*
X200163377Y-107911071D01*
X200158525Y-107943781D01*
X200150491Y-107975857D01*
X200139351Y-108006991D01*
X200125213Y-108036884D01*
X200108213Y-108065247D01*
X200088515Y-108091807D01*
X200066308Y-108116308D01*
X200041807Y-108138515D01*
X200015247Y-108158213D01*
X199986884Y-108175213D01*
X199956991Y-108189351D01*
X199925857Y-108200491D01*
X199893781Y-108208525D01*
X199861071Y-108213377D01*
X199828044Y-108215000D01*
X198951956Y-108215000D01*
X198918929Y-108213377D01*
X198886219Y-108208525D01*
X198854143Y-108200491D01*
X198823009Y-108189351D01*
X198793116Y-108175213D01*
X198764753Y-108158213D01*
X198738193Y-108138515D01*
X198713692Y-108116308D01*
X198691485Y-108091807D01*
X198671787Y-108065247D01*
X198654787Y-108036884D01*
X198640649Y-108006991D01*
X198629509Y-107975857D01*
X198621475Y-107943781D01*
X198616623Y-107911071D01*
X198615000Y-107878044D01*
X198615000Y-106751956D01*
X198616623Y-106718929D01*
X198621475Y-106686219D01*
X198629509Y-106654143D01*
X198640649Y-106623009D01*
X198654787Y-106593116D01*
X198671787Y-106564753D01*
X198691485Y-106538193D01*
X198713692Y-106513692D01*
X198738193Y-106491485D01*
X198764753Y-106471787D01*
X198793116Y-106454787D01*
X198823009Y-106440649D01*
X198854143Y-106429509D01*
X198886219Y-106421475D01*
X198918929Y-106416623D01*
X198951956Y-106415000D01*
X199828044Y-106415000D01*
X199861071Y-106416623D01*
X199861071Y-106416623D01*
G37*
D24*
X199390000Y-107315000D03*
D23*
G36*
X197811071Y-106416623D02*
X197843781Y-106421475D01*
X197875857Y-106429509D01*
X197906991Y-106440649D01*
X197936884Y-106454787D01*
X197965247Y-106471787D01*
X197991807Y-106491485D01*
X198016308Y-106513692D01*
X198038515Y-106538193D01*
X198058213Y-106564753D01*
X198075213Y-106593116D01*
X198089351Y-106623009D01*
X198100491Y-106654143D01*
X198108525Y-106686219D01*
X198113377Y-106718929D01*
X198115000Y-106751956D01*
X198115000Y-107878044D01*
X198113377Y-107911071D01*
X198108525Y-107943781D01*
X198100491Y-107975857D01*
X198089351Y-108006991D01*
X198075213Y-108036884D01*
X198058213Y-108065247D01*
X198038515Y-108091807D01*
X198016308Y-108116308D01*
X197991807Y-108138515D01*
X197965247Y-108158213D01*
X197936884Y-108175213D01*
X197906991Y-108189351D01*
X197875857Y-108200491D01*
X197843781Y-108208525D01*
X197811071Y-108213377D01*
X197778044Y-108215000D01*
X196901956Y-108215000D01*
X196868929Y-108213377D01*
X196836219Y-108208525D01*
X196804143Y-108200491D01*
X196773009Y-108189351D01*
X196743116Y-108175213D01*
X196714753Y-108158213D01*
X196688193Y-108138515D01*
X196663692Y-108116308D01*
X196641485Y-108091807D01*
X196621787Y-108065247D01*
X196604787Y-108036884D01*
X196590649Y-108006991D01*
X196579509Y-107975857D01*
X196571475Y-107943781D01*
X196566623Y-107911071D01*
X196565000Y-107878044D01*
X196565000Y-106751956D01*
X196566623Y-106718929D01*
X196571475Y-106686219D01*
X196579509Y-106654143D01*
X196590649Y-106623009D01*
X196604787Y-106593116D01*
X196621787Y-106564753D01*
X196641485Y-106538193D01*
X196663692Y-106513692D01*
X196688193Y-106491485D01*
X196714753Y-106471787D01*
X196743116Y-106454787D01*
X196773009Y-106440649D01*
X196804143Y-106429509D01*
X196836219Y-106421475D01*
X196868929Y-106416623D01*
X196901956Y-106415000D01*
X197778044Y-106415000D01*
X197811071Y-106416623D01*
X197811071Y-106416623D01*
G37*
D24*
X197340000Y-107315000D03*
G04 #@! TD*
D23*
G04 #@! TO.C,R4*
G36*
X199861071Y-103876623D02*
X199893781Y-103881475D01*
X199925857Y-103889509D01*
X199956991Y-103900649D01*
X199986884Y-103914787D01*
X200015247Y-103931787D01*
X200041807Y-103951485D01*
X200066308Y-103973692D01*
X200088515Y-103998193D01*
X200108213Y-104024753D01*
X200125213Y-104053116D01*
X200139351Y-104083009D01*
X200150491Y-104114143D01*
X200158525Y-104146219D01*
X200163377Y-104178929D01*
X200165000Y-104211956D01*
X200165000Y-105338044D01*
X200163377Y-105371071D01*
X200158525Y-105403781D01*
X200150491Y-105435857D01*
X200139351Y-105466991D01*
X200125213Y-105496884D01*
X200108213Y-105525247D01*
X200088515Y-105551807D01*
X200066308Y-105576308D01*
X200041807Y-105598515D01*
X200015247Y-105618213D01*
X199986884Y-105635213D01*
X199956991Y-105649351D01*
X199925857Y-105660491D01*
X199893781Y-105668525D01*
X199861071Y-105673377D01*
X199828044Y-105675000D01*
X198951956Y-105675000D01*
X198918929Y-105673377D01*
X198886219Y-105668525D01*
X198854143Y-105660491D01*
X198823009Y-105649351D01*
X198793116Y-105635213D01*
X198764753Y-105618213D01*
X198738193Y-105598515D01*
X198713692Y-105576308D01*
X198691485Y-105551807D01*
X198671787Y-105525247D01*
X198654787Y-105496884D01*
X198640649Y-105466991D01*
X198629509Y-105435857D01*
X198621475Y-105403781D01*
X198616623Y-105371071D01*
X198615000Y-105338044D01*
X198615000Y-104211956D01*
X198616623Y-104178929D01*
X198621475Y-104146219D01*
X198629509Y-104114143D01*
X198640649Y-104083009D01*
X198654787Y-104053116D01*
X198671787Y-104024753D01*
X198691485Y-103998193D01*
X198713692Y-103973692D01*
X198738193Y-103951485D01*
X198764753Y-103931787D01*
X198793116Y-103914787D01*
X198823009Y-103900649D01*
X198854143Y-103889509D01*
X198886219Y-103881475D01*
X198918929Y-103876623D01*
X198951956Y-103875000D01*
X199828044Y-103875000D01*
X199861071Y-103876623D01*
X199861071Y-103876623D01*
G37*
D24*
X199390000Y-104775000D03*
D23*
G36*
X197811071Y-103876623D02*
X197843781Y-103881475D01*
X197875857Y-103889509D01*
X197906991Y-103900649D01*
X197936884Y-103914787D01*
X197965247Y-103931787D01*
X197991807Y-103951485D01*
X198016308Y-103973692D01*
X198038515Y-103998193D01*
X198058213Y-104024753D01*
X198075213Y-104053116D01*
X198089351Y-104083009D01*
X198100491Y-104114143D01*
X198108525Y-104146219D01*
X198113377Y-104178929D01*
X198115000Y-104211956D01*
X198115000Y-105338044D01*
X198113377Y-105371071D01*
X198108525Y-105403781D01*
X198100491Y-105435857D01*
X198089351Y-105466991D01*
X198075213Y-105496884D01*
X198058213Y-105525247D01*
X198038515Y-105551807D01*
X198016308Y-105576308D01*
X197991807Y-105598515D01*
X197965247Y-105618213D01*
X197936884Y-105635213D01*
X197906991Y-105649351D01*
X197875857Y-105660491D01*
X197843781Y-105668525D01*
X197811071Y-105673377D01*
X197778044Y-105675000D01*
X196901956Y-105675000D01*
X196868929Y-105673377D01*
X196836219Y-105668525D01*
X196804143Y-105660491D01*
X196773009Y-105649351D01*
X196743116Y-105635213D01*
X196714753Y-105618213D01*
X196688193Y-105598515D01*
X196663692Y-105576308D01*
X196641485Y-105551807D01*
X196621787Y-105525247D01*
X196604787Y-105496884D01*
X196590649Y-105466991D01*
X196579509Y-105435857D01*
X196571475Y-105403781D01*
X196566623Y-105371071D01*
X196565000Y-105338044D01*
X196565000Y-104211956D01*
X196566623Y-104178929D01*
X196571475Y-104146219D01*
X196579509Y-104114143D01*
X196590649Y-104083009D01*
X196604787Y-104053116D01*
X196621787Y-104024753D01*
X196641485Y-103998193D01*
X196663692Y-103973692D01*
X196688193Y-103951485D01*
X196714753Y-103931787D01*
X196743116Y-103914787D01*
X196773009Y-103900649D01*
X196804143Y-103889509D01*
X196836219Y-103881475D01*
X196868929Y-103876623D01*
X196901956Y-103875000D01*
X197778044Y-103875000D01*
X197811071Y-103876623D01*
X197811071Y-103876623D01*
G37*
D24*
X197340000Y-104775000D03*
G04 #@! TD*
D23*
G04 #@! TO.C,C4*
G36*
X187914372Y-105941525D02*
X187945112Y-105946085D01*
X187975257Y-105953636D01*
X188004516Y-105964105D01*
X188032609Y-105977392D01*
X188059264Y-105993368D01*
X188084224Y-106011880D01*
X188107250Y-106032750D01*
X188128120Y-106055776D01*
X188146632Y-106080736D01*
X188162608Y-106107391D01*
X188175895Y-106135484D01*
X188186364Y-106164743D01*
X188193915Y-106194888D01*
X188198475Y-106225628D01*
X188200000Y-106256667D01*
X188200000Y-108373333D01*
X188198475Y-108404372D01*
X188193915Y-108435112D01*
X188186364Y-108465257D01*
X188175895Y-108494516D01*
X188162608Y-108522609D01*
X188146632Y-108549264D01*
X188128120Y-108574224D01*
X188107250Y-108597250D01*
X188084224Y-108618120D01*
X188059264Y-108636632D01*
X188032609Y-108652608D01*
X188004516Y-108665895D01*
X187975257Y-108676364D01*
X187945112Y-108683915D01*
X187914372Y-108688475D01*
X187883333Y-108690000D01*
X186616667Y-108690000D01*
X186585628Y-108688475D01*
X186554888Y-108683915D01*
X186524743Y-108676364D01*
X186495484Y-108665895D01*
X186467391Y-108652608D01*
X186440736Y-108636632D01*
X186415776Y-108618120D01*
X186392750Y-108597250D01*
X186371880Y-108574224D01*
X186353368Y-108549264D01*
X186337392Y-108522609D01*
X186324105Y-108494516D01*
X186313636Y-108465257D01*
X186306085Y-108435112D01*
X186301525Y-108404372D01*
X186300000Y-108373333D01*
X186300000Y-106256667D01*
X186301525Y-106225628D01*
X186306085Y-106194888D01*
X186313636Y-106164743D01*
X186324105Y-106135484D01*
X186337392Y-106107391D01*
X186353368Y-106080736D01*
X186371880Y-106055776D01*
X186392750Y-106032750D01*
X186415776Y-106011880D01*
X186440736Y-105993368D01*
X186467391Y-105977392D01*
X186495484Y-105964105D01*
X186524743Y-105953636D01*
X186554888Y-105946085D01*
X186585628Y-105941525D01*
X186616667Y-105940000D01*
X187883333Y-105940000D01*
X187914372Y-105941525D01*
X187914372Y-105941525D01*
G37*
D25*
X187250000Y-107315000D03*
D23*
G36*
X191164372Y-105941525D02*
X191195112Y-105946085D01*
X191225257Y-105953636D01*
X191254516Y-105964105D01*
X191282609Y-105977392D01*
X191309264Y-105993368D01*
X191334224Y-106011880D01*
X191357250Y-106032750D01*
X191378120Y-106055776D01*
X191396632Y-106080736D01*
X191412608Y-106107391D01*
X191425895Y-106135484D01*
X191436364Y-106164743D01*
X191443915Y-106194888D01*
X191448475Y-106225628D01*
X191450000Y-106256667D01*
X191450000Y-108373333D01*
X191448475Y-108404372D01*
X191443915Y-108435112D01*
X191436364Y-108465257D01*
X191425895Y-108494516D01*
X191412608Y-108522609D01*
X191396632Y-108549264D01*
X191378120Y-108574224D01*
X191357250Y-108597250D01*
X191334224Y-108618120D01*
X191309264Y-108636632D01*
X191282609Y-108652608D01*
X191254516Y-108665895D01*
X191225257Y-108676364D01*
X191195112Y-108683915D01*
X191164372Y-108688475D01*
X191133333Y-108690000D01*
X189866667Y-108690000D01*
X189835628Y-108688475D01*
X189804888Y-108683915D01*
X189774743Y-108676364D01*
X189745484Y-108665895D01*
X189717391Y-108652608D01*
X189690736Y-108636632D01*
X189665776Y-108618120D01*
X189642750Y-108597250D01*
X189621880Y-108574224D01*
X189603368Y-108549264D01*
X189587392Y-108522609D01*
X189574105Y-108494516D01*
X189563636Y-108465257D01*
X189556085Y-108435112D01*
X189551525Y-108404372D01*
X189550000Y-108373333D01*
X189550000Y-106256667D01*
X189551525Y-106225628D01*
X189556085Y-106194888D01*
X189563636Y-106164743D01*
X189574105Y-106135484D01*
X189587392Y-106107391D01*
X189603368Y-106080736D01*
X189621880Y-106055776D01*
X189642750Y-106032750D01*
X189665776Y-106011880D01*
X189690736Y-105993368D01*
X189717391Y-105977392D01*
X189745484Y-105964105D01*
X189774743Y-105953636D01*
X189804888Y-105946085D01*
X189835628Y-105941525D01*
X189866667Y-105940000D01*
X191133333Y-105940000D01*
X191164372Y-105941525D01*
X191164372Y-105941525D01*
G37*
D25*
X190500000Y-107315000D03*
G04 #@! TD*
D26*
G04 #@! TO.C,RV1*
X42450000Y-100210000D03*
X44450000Y-92710000D03*
G04 #@! TD*
D13*
G04 #@! TO.C,D2*
X107315000Y-44450000D03*
X106045000Y-44450000D03*
X104775000Y-44450000D03*
D14*
X103505000Y-44450000D03*
G04 #@! TD*
D13*
G04 #@! TO.C,D3*
X94615000Y-44450000D03*
X93345000Y-44450000D03*
X92075000Y-44450000D03*
D14*
X90805000Y-44450000D03*
G04 #@! TD*
D13*
G04 #@! TO.C,D4*
X81915000Y-44450000D03*
X80645000Y-44450000D03*
X79375000Y-44450000D03*
D14*
X78105000Y-44450000D03*
G04 #@! TD*
D13*
G04 #@! TO.C,D5*
X69215000Y-44450000D03*
X67945000Y-44450000D03*
X66675000Y-44450000D03*
D14*
X65405000Y-44450000D03*
G04 #@! TD*
D13*
G04 #@! TO.C,D6*
X56515000Y-44450000D03*
X55245000Y-44450000D03*
X53975000Y-44450000D03*
D14*
X52705000Y-44450000D03*
G04 #@! TD*
D27*
G04 #@! TO.C,U1*
X193160000Y-92685000D03*
D28*
X200660000Y-83185000D03*
X199390000Y-83185000D03*
X198120000Y-83185000D03*
X196850000Y-83185000D03*
X195580000Y-83185000D03*
X194310000Y-83185000D03*
X193040000Y-83185000D03*
X191770000Y-83185000D03*
X190500000Y-83185000D03*
X189230000Y-83185000D03*
X187960000Y-83185000D03*
X186690000Y-83185000D03*
X185420000Y-83185000D03*
X184150000Y-83185000D03*
X182880000Y-83185000D03*
X181610000Y-83185000D03*
X180340000Y-83185000D03*
X177800000Y-83185000D03*
X179070000Y-83185000D03*
X177800000Y-100185000D03*
X179070000Y-100185000D03*
X180340000Y-100185000D03*
X181610000Y-100185000D03*
X182880000Y-100185000D03*
X184150000Y-100185000D03*
X185420000Y-100185000D03*
X186690000Y-100185000D03*
X187960000Y-100185000D03*
X189230000Y-100185000D03*
X190500000Y-100185000D03*
X191770000Y-100185000D03*
X193040000Y-100185000D03*
X194310000Y-100185000D03*
X195580000Y-100185000D03*
X196850000Y-100185000D03*
X198120000Y-100185000D03*
X199390000Y-100185000D03*
X200660000Y-100185000D03*
G04 #@! TD*
D29*
G04 #@! TO.C,MH5*
X204470000Y-49530000D03*
G04 #@! TD*
G04 #@! TO.C,MH6*
X41910000Y-49530000D03*
G04 #@! TD*
D15*
G04 #@! TO.C,SW2*
X102965000Y-50800000D03*
X107465000Y-50800000D03*
X102965000Y-57300000D03*
X107465000Y-57300000D03*
G04 #@! TD*
G04 #@! TO.C,SW3*
X94765000Y-57300000D03*
X90265000Y-57300000D03*
X94765000Y-50800000D03*
X90265000Y-50800000D03*
G04 #@! TD*
G04 #@! TO.C,SW4*
X77415000Y-50800000D03*
X81915000Y-50800000D03*
X77415000Y-57300000D03*
X81915000Y-57300000D03*
G04 #@! TD*
G04 #@! TO.C,SW6*
X57205000Y-57300000D03*
X52705000Y-57300000D03*
X57205000Y-50800000D03*
X52705000Y-50800000D03*
G04 #@! TD*
D30*
G04 #@! TO.C,MH7*
X147320000Y-62230000D03*
G04 #@! TD*
G04 #@! TO.C,MH8*
X145415000Y-62230000D03*
G04 #@! TD*
G04 #@! TO.C,MH9*
X143510000Y-62230000D03*
G04 #@! TD*
G04 #@! TO.C,MH10*
X141605000Y-62230000D03*
G04 #@! TD*
D31*
G04 #@! TO.C,J1*
X52070000Y-144780000D03*
X57150000Y-144780000D03*
X62230000Y-144780000D03*
G04 #@! TD*
G04 #@! TO.C,J2*
X68580000Y-144780000D03*
X73660000Y-144780000D03*
X78740000Y-144780000D03*
G04 #@! TD*
G04 #@! TO.C,J3*
X95250000Y-144780000D03*
X90170000Y-144780000D03*
X85090000Y-144780000D03*
G04 #@! TD*
G04 #@! TO.C,J4*
X101600000Y-144780000D03*
X106680000Y-144780000D03*
X111760000Y-144780000D03*
G04 #@! TD*
G04 #@! TO.C,J5*
X118110000Y-144780000D03*
X123190000Y-144780000D03*
X128270000Y-144780000D03*
G04 #@! TD*
G04 #@! TO.C,J6*
X144780000Y-144780000D03*
X139700000Y-144780000D03*
X134620000Y-144780000D03*
G04 #@! TD*
G04 #@! TO.C,J7*
X161290000Y-144780000D03*
X156210000Y-144780000D03*
X151130000Y-144780000D03*
G04 #@! TD*
G04 #@! TO.C,J8*
X194310000Y-144780000D03*
X189230000Y-144780000D03*
X184150000Y-144780000D03*
G04 #@! TD*
M02*
