%TF.GenerationSoftware,KiCad,Pcbnew,(5.0.0)*%
%TF.CreationDate,2018-09-17T09:03:24+01:00*%
%TF.ProjectId,AquaHub,417175614875622E6B696361645F7063,rev?*%
%TF.SameCoordinates,Original*%
%TF.FileFunction,Legend,Top*%
%TF.FilePolarity,Positive*%
%FSLAX46Y46*%
G04 Gerber Fmt 4.6, Leading zero omitted, Abs format (unit mm)*
G04 Created by KiCad (PCBNEW (5.0.0)) date 09/17/18 09:03:24*
%MOMM*%
%LPD*%
G01*
G04 APERTURE LIST*
%ADD10C,0.300000*%
%ADD11C,0.150000*%
%ADD12C,0.080000*%
%ADD13C,0.200000*%
%ADD14C,0.015000*%
%ADD15C,0.120000*%
%ADD16C,0.050000*%
%ADD17C,0.500000*%
G04 APERTURE END LIST*
D10*
X98973999Y-94722071D02*
X98973999Y-93222071D01*
X99545428Y-93222071D01*
X99688285Y-93293500D01*
X99759714Y-93364928D01*
X99831142Y-93507785D01*
X99831142Y-93722071D01*
X99759714Y-93864928D01*
X99688285Y-93936357D01*
X99545428Y-94007785D01*
X98973999Y-94007785D01*
X100688285Y-94722071D02*
X100545428Y-94650642D01*
X100473999Y-94579214D01*
X100402571Y-94436357D01*
X100402571Y-94007785D01*
X100473999Y-93864928D01*
X100545428Y-93793500D01*
X100688285Y-93722071D01*
X100902571Y-93722071D01*
X101045428Y-93793500D01*
X101116857Y-93864928D01*
X101188285Y-94007785D01*
X101188285Y-94436357D01*
X101116857Y-94579214D01*
X101045428Y-94650642D01*
X100902571Y-94722071D01*
X100688285Y-94722071D01*
X101688285Y-93722071D02*
X101973999Y-94722071D01*
X102259714Y-94007785D01*
X102545428Y-94722071D01*
X102831142Y-93722071D01*
X103973999Y-94650642D02*
X103831142Y-94722071D01*
X103545428Y-94722071D01*
X103402571Y-94650642D01*
X103331142Y-94507785D01*
X103331142Y-93936357D01*
X103402571Y-93793500D01*
X103545428Y-93722071D01*
X103831142Y-93722071D01*
X103973999Y-93793500D01*
X104045428Y-93936357D01*
X104045428Y-94079214D01*
X103331142Y-94222071D01*
X104688285Y-94722071D02*
X104688285Y-93722071D01*
X104688285Y-94007785D02*
X104759714Y-93864928D01*
X104831142Y-93793500D01*
X104973999Y-93722071D01*
X105116857Y-93722071D01*
X106759714Y-94722071D02*
X106759714Y-93222071D01*
X107259714Y-94293500D01*
X107759714Y-93222071D01*
X107759714Y-94722071D01*
X109116857Y-94722071D02*
X109116857Y-93936357D01*
X109045428Y-93793500D01*
X108902571Y-93722071D01*
X108616857Y-93722071D01*
X108473999Y-93793500D01*
X109116857Y-94650642D02*
X108973999Y-94722071D01*
X108616857Y-94722071D01*
X108473999Y-94650642D01*
X108402571Y-94507785D01*
X108402571Y-94364928D01*
X108473999Y-94222071D01*
X108616857Y-94150642D01*
X108973999Y-94150642D01*
X109116857Y-94079214D01*
X109831142Y-93722071D02*
X109831142Y-94722071D01*
X109831142Y-93864928D02*
X109902571Y-93793500D01*
X110045428Y-93722071D01*
X110259714Y-93722071D01*
X110402571Y-93793500D01*
X110473999Y-93936357D01*
X110473999Y-94722071D01*
X111831142Y-94722071D02*
X111831142Y-93936357D01*
X111759714Y-93793500D01*
X111616857Y-93722071D01*
X111331142Y-93722071D01*
X111188285Y-93793500D01*
X111831142Y-94650642D02*
X111688285Y-94722071D01*
X111331142Y-94722071D01*
X111188285Y-94650642D01*
X111116857Y-94507785D01*
X111116857Y-94364928D01*
X111188285Y-94222071D01*
X111331142Y-94150642D01*
X111688285Y-94150642D01*
X111831142Y-94079214D01*
X113188285Y-93722071D02*
X113188285Y-94936357D01*
X113116857Y-95079214D01*
X113045428Y-95150642D01*
X112902571Y-95222071D01*
X112688285Y-95222071D01*
X112545428Y-95150642D01*
X113188285Y-94650642D02*
X113045428Y-94722071D01*
X112759714Y-94722071D01*
X112616857Y-94650642D01*
X112545428Y-94579214D01*
X112473999Y-94436357D01*
X112473999Y-94007785D01*
X112545428Y-93864928D01*
X112616857Y-93793500D01*
X112759714Y-93722071D01*
X113045428Y-93722071D01*
X113188285Y-93793500D01*
X114473999Y-94650642D02*
X114331142Y-94722071D01*
X114045428Y-94722071D01*
X113902571Y-94650642D01*
X113831142Y-94507785D01*
X113831142Y-93936357D01*
X113902571Y-93793500D01*
X114045428Y-93722071D01*
X114331142Y-93722071D01*
X114473999Y-93793500D01*
X114545428Y-93936357D01*
X114545428Y-94079214D01*
X113831142Y-94222071D01*
X115188285Y-94722071D02*
X115188285Y-93722071D01*
X115188285Y-93864928D02*
X115259714Y-93793500D01*
X115402571Y-93722071D01*
X115616857Y-93722071D01*
X115759714Y-93793500D01*
X115831142Y-93936357D01*
X115831142Y-94722071D01*
X115831142Y-93936357D02*
X115902571Y-93793500D01*
X116045428Y-93722071D01*
X116259714Y-93722071D01*
X116402571Y-93793500D01*
X116473999Y-93936357D01*
X116473999Y-94722071D01*
X117759714Y-94650642D02*
X117616857Y-94722071D01*
X117331142Y-94722071D01*
X117188285Y-94650642D01*
X117116857Y-94507785D01*
X117116857Y-93936357D01*
X117188285Y-93793500D01*
X117331142Y-93722071D01*
X117616857Y-93722071D01*
X117759714Y-93793500D01*
X117831142Y-93936357D01*
X117831142Y-94079214D01*
X117116857Y-94222071D01*
X118473999Y-93722071D02*
X118473999Y-94722071D01*
X118473999Y-93864928D02*
X118545428Y-93793500D01*
X118688285Y-93722071D01*
X118902571Y-93722071D01*
X119045428Y-93793500D01*
X119116857Y-93936357D01*
X119116857Y-94722071D01*
X119616857Y-93722071D02*
X120188285Y-93722071D01*
X119831142Y-93222071D02*
X119831142Y-94507785D01*
X119902571Y-94650642D01*
X120045428Y-94722071D01*
X120188285Y-94722071D01*
D11*
X154193857Y-101782571D02*
X153860523Y-101782571D01*
X153860523Y-102306380D02*
X153860523Y-101306380D01*
X154336714Y-101306380D01*
X153836714Y-99941071D02*
X154170047Y-99941071D01*
X154312904Y-100464880D02*
X153836714Y-100464880D01*
X153836714Y-99464880D01*
X154312904Y-99464880D01*
X153789095Y-98496380D02*
X153789095Y-97496380D01*
X154027190Y-97496380D01*
X154170047Y-97544000D01*
X154265285Y-97639238D01*
X154312904Y-97734476D01*
X154360523Y-97924952D01*
X154360523Y-98067809D01*
X154312904Y-98258285D01*
X154265285Y-98353523D01*
X154170047Y-98448761D01*
X154027190Y-98496380D01*
X153789095Y-98496380D01*
X154360523Y-96496142D02*
X154312904Y-96543761D01*
X154170047Y-96591380D01*
X154074809Y-96591380D01*
X153931952Y-96543761D01*
X153836714Y-96448523D01*
X153789095Y-96353285D01*
X153741476Y-96162809D01*
X153741476Y-96019952D01*
X153789095Y-95829476D01*
X153836714Y-95734238D01*
X153931952Y-95639000D01*
X154074809Y-95591380D01*
X154170047Y-95591380D01*
X154312904Y-95639000D01*
X154360523Y-95686619D01*
X154122428Y-94162571D02*
X154265285Y-94210190D01*
X154312904Y-94257809D01*
X154360523Y-94353047D01*
X154360523Y-94495904D01*
X154312904Y-94591142D01*
X154265285Y-94638761D01*
X154170047Y-94686380D01*
X153789095Y-94686380D01*
X153789095Y-93686380D01*
X154122428Y-93686380D01*
X154217666Y-93734000D01*
X154265285Y-93781619D01*
X154312904Y-93876857D01*
X154312904Y-93972095D01*
X154265285Y-94067333D01*
X154217666Y-94114952D01*
X154122428Y-94162571D01*
X153789095Y-94162571D01*
X153812904Y-92495666D02*
X154289095Y-92495666D01*
X153717666Y-92781380D02*
X154051000Y-91781380D01*
X154384333Y-92781380D01*
X148764976Y-104592380D02*
X148764976Y-103592380D01*
X149003071Y-103592380D01*
X149145928Y-103640000D01*
X149241166Y-103735238D01*
X149288785Y-103830476D01*
X149336404Y-104020952D01*
X149336404Y-104163809D01*
X149288785Y-104354285D01*
X149241166Y-104449523D01*
X149145928Y-104544761D01*
X149003071Y-104592380D01*
X148764976Y-104592380D01*
X149907833Y-104020952D02*
X149812595Y-103973333D01*
X149764976Y-103925714D01*
X149717357Y-103830476D01*
X149717357Y-103782857D01*
X149764976Y-103687619D01*
X149812595Y-103640000D01*
X149907833Y-103592380D01*
X150098309Y-103592380D01*
X150193547Y-103640000D01*
X150241166Y-103687619D01*
X150288785Y-103782857D01*
X150288785Y-103830476D01*
X150241166Y-103925714D01*
X150193547Y-103973333D01*
X150098309Y-104020952D01*
X149907833Y-104020952D01*
X149812595Y-104068571D01*
X149764976Y-104116190D01*
X149717357Y-104211428D01*
X149717357Y-104401904D01*
X149764976Y-104497142D01*
X149812595Y-104544761D01*
X149907833Y-104592380D01*
X150098309Y-104592380D01*
X150193547Y-104544761D01*
X150241166Y-104497142D01*
X150288785Y-104401904D01*
X150288785Y-104211428D01*
X150241166Y-104116190D01*
X150193547Y-104068571D01*
X150098309Y-104020952D01*
X150717357Y-104211428D02*
X151479261Y-104211428D01*
X151955452Y-104592380D02*
X151955452Y-103592380D01*
X152193547Y-103592380D01*
X152336404Y-103640000D01*
X152431642Y-103735238D01*
X152479261Y-103830476D01*
X152526880Y-104020952D01*
X152526880Y-104163809D01*
X152479261Y-104354285D01*
X152431642Y-104449523D01*
X152336404Y-104544761D01*
X152193547Y-104592380D01*
X151955452Y-104592380D01*
X153479261Y-104592380D02*
X152907833Y-104592380D01*
X153193547Y-104592380D02*
X153193547Y-103592380D01*
X153098309Y-103735238D01*
X153003071Y-103830476D01*
X152907833Y-103878095D01*
X153860214Y-103687619D02*
X153907833Y-103640000D01*
X154003071Y-103592380D01*
X154241166Y-103592380D01*
X154336404Y-103640000D01*
X154384023Y-103687619D01*
X154431642Y-103782857D01*
X154431642Y-103878095D01*
X154384023Y-104020952D01*
X153812595Y-104592380D01*
X154431642Y-104592380D01*
D12*
X55880000Y-104140000D02*
X55880000Y-102870000D01*
X66040000Y-104140000D02*
X55880000Y-104140000D01*
X66040000Y-102870000D02*
X66040000Y-104140000D01*
X55880000Y-102870000D02*
X66040000Y-102870000D01*
X169545000Y-110490000D02*
X169545000Y-102870000D01*
X182880000Y-110490000D02*
X169545000Y-110490000D01*
X182880000Y-102870000D02*
X182880000Y-110490000D01*
X169545000Y-102870000D02*
X182880000Y-102870000D01*
D10*
X170899000Y-104818571D02*
X170184714Y-104818571D01*
X170184714Y-103318571D01*
X171399000Y-104032857D02*
X171899000Y-104032857D01*
X172113285Y-104818571D02*
X171399000Y-104818571D01*
X171399000Y-103318571D01*
X172113285Y-103318571D01*
X172756142Y-104818571D02*
X172756142Y-103318571D01*
X173113285Y-103318571D01*
X173327571Y-103390000D01*
X173470428Y-103532857D01*
X173541857Y-103675714D01*
X173613285Y-103961428D01*
X173613285Y-104175714D01*
X173541857Y-104461428D01*
X173470428Y-104604285D01*
X173327571Y-104747142D01*
X173113285Y-104818571D01*
X172756142Y-104818571D01*
X175327571Y-104747142D02*
X175541857Y-104818571D01*
X175899000Y-104818571D01*
X176041857Y-104747142D01*
X176113285Y-104675714D01*
X176184714Y-104532857D01*
X176184714Y-104390000D01*
X176113285Y-104247142D01*
X176041857Y-104175714D01*
X175899000Y-104104285D01*
X175613285Y-104032857D01*
X175470428Y-103961428D01*
X175399000Y-103890000D01*
X175327571Y-103747142D01*
X175327571Y-103604285D01*
X175399000Y-103461428D01*
X175470428Y-103390000D01*
X175613285Y-103318571D01*
X175970428Y-103318571D01*
X176184714Y-103390000D01*
X176827571Y-104818571D02*
X176827571Y-103318571D01*
X177470428Y-104818571D02*
X177470428Y-104032857D01*
X177399000Y-103890000D01*
X177256142Y-103818571D01*
X177041857Y-103818571D01*
X176899000Y-103890000D01*
X176827571Y-103961428D01*
X178184714Y-104818571D02*
X178184714Y-103818571D01*
X178184714Y-103318571D02*
X178113285Y-103390000D01*
X178184714Y-103461428D01*
X178256142Y-103390000D01*
X178184714Y-103318571D01*
X178184714Y-103461428D01*
X178684714Y-103818571D02*
X179256142Y-103818571D01*
X178899000Y-104818571D02*
X178899000Y-103532857D01*
X178970428Y-103390000D01*
X179113285Y-103318571D01*
X179256142Y-103318571D01*
X179541857Y-103818571D02*
X180113285Y-103818571D01*
X179756142Y-103318571D02*
X179756142Y-104604285D01*
X179827571Y-104747142D01*
X179970428Y-104818571D01*
X180113285Y-104818571D01*
X181184714Y-104747142D02*
X181041857Y-104818571D01*
X180756142Y-104818571D01*
X180613285Y-104747142D01*
X180541857Y-104604285D01*
X180541857Y-104032857D01*
X180613285Y-103890000D01*
X180756142Y-103818571D01*
X181041857Y-103818571D01*
X181184714Y-103890000D01*
X181256142Y-104032857D01*
X181256142Y-104175714D01*
X180541857Y-104318571D01*
X181899000Y-104818571D02*
X181899000Y-103818571D01*
X181899000Y-104104285D02*
X181970428Y-103961428D01*
X182041857Y-103890000D01*
X182184714Y-103818571D01*
X182327571Y-103818571D01*
X151479714Y-56233142D02*
X151694000Y-56304571D01*
X152051142Y-56304571D01*
X152194000Y-56233142D01*
X152265428Y-56161714D01*
X152336857Y-56018857D01*
X152336857Y-55876000D01*
X152265428Y-55733142D01*
X152194000Y-55661714D01*
X152051142Y-55590285D01*
X151765428Y-55518857D01*
X151622571Y-55447428D01*
X151551142Y-55376000D01*
X151479714Y-55233142D01*
X151479714Y-55090285D01*
X151551142Y-54947428D01*
X151622571Y-54876000D01*
X151765428Y-54804571D01*
X152122571Y-54804571D01*
X152336857Y-54876000D01*
X152765428Y-54804571D02*
X153622571Y-54804571D01*
X153194000Y-56304571D02*
X153194000Y-54804571D01*
X154051142Y-55876000D02*
X154765428Y-55876000D01*
X153908285Y-56304571D02*
X154408285Y-54804571D01*
X154908285Y-56304571D01*
X155194000Y-54804571D02*
X156051142Y-54804571D01*
X155622571Y-56304571D02*
X155622571Y-54804571D01*
X156551142Y-54804571D02*
X156551142Y-56018857D01*
X156622571Y-56161714D01*
X156694000Y-56233142D01*
X156836857Y-56304571D01*
X157122571Y-56304571D01*
X157265428Y-56233142D01*
X157336857Y-56161714D01*
X157408285Y-56018857D01*
X157408285Y-54804571D01*
X158051142Y-56233142D02*
X158265428Y-56304571D01*
X158622571Y-56304571D01*
X158765428Y-56233142D01*
X158836857Y-56161714D01*
X158908285Y-56018857D01*
X158908285Y-55876000D01*
X158836857Y-55733142D01*
X158765428Y-55661714D01*
X158622571Y-55590285D01*
X158336857Y-55518857D01*
X158194000Y-55447428D01*
X158122571Y-55376000D01*
X158051142Y-55233142D01*
X158051142Y-55090285D01*
X158122571Y-54947428D01*
X158194000Y-54876000D01*
X158336857Y-54804571D01*
X158694000Y-54804571D01*
X158908285Y-54876000D01*
X199068571Y-92214000D02*
X198925714Y-92142571D01*
X198711428Y-92142571D01*
X198497142Y-92214000D01*
X198354285Y-92356857D01*
X198282857Y-92499714D01*
X198211428Y-92785428D01*
X198211428Y-92999714D01*
X198282857Y-93285428D01*
X198354285Y-93428285D01*
X198497142Y-93571142D01*
X198711428Y-93642571D01*
X198854285Y-93642571D01*
X199068571Y-93571142D01*
X199140000Y-93499714D01*
X199140000Y-92999714D01*
X198854285Y-92999714D01*
X200068571Y-92142571D02*
X200211428Y-92142571D01*
X200354285Y-92214000D01*
X200425714Y-92285428D01*
X200497142Y-92428285D01*
X200568571Y-92714000D01*
X200568571Y-93071142D01*
X200497142Y-93356857D01*
X200425714Y-93499714D01*
X200354285Y-93571142D01*
X200211428Y-93642571D01*
X200068571Y-93642571D01*
X199925714Y-93571142D01*
X199854285Y-93499714D01*
X199782857Y-93356857D01*
X199711428Y-93071142D01*
X199711428Y-92714000D01*
X199782857Y-92428285D01*
X199854285Y-92285428D01*
X199925714Y-92214000D01*
X200068571Y-92142571D01*
X198282857Y-95396857D02*
X198782857Y-95396857D01*
X198997142Y-96182571D02*
X198282857Y-96182571D01*
X198282857Y-94682571D01*
X198997142Y-94682571D01*
X199640000Y-96182571D02*
X199640000Y-94682571D01*
X200497142Y-96182571D01*
X200497142Y-94682571D01*
X197231142Y-119773000D02*
X197088285Y-119701571D01*
X196874000Y-119701571D01*
X196659714Y-119773000D01*
X196516857Y-119915857D01*
X196445428Y-120058714D01*
X196374000Y-120344428D01*
X196374000Y-120558714D01*
X196445428Y-120844428D01*
X196516857Y-120987285D01*
X196659714Y-121130142D01*
X196874000Y-121201571D01*
X197016857Y-121201571D01*
X197231142Y-121130142D01*
X197302571Y-121058714D01*
X197302571Y-120558714D01*
X197016857Y-120558714D01*
X197945428Y-121201571D02*
X197945428Y-119701571D01*
X198802571Y-121201571D01*
X198802571Y-119701571D01*
X199516857Y-121201571D02*
X199516857Y-119701571D01*
X199874000Y-119701571D01*
X200088285Y-119773000D01*
X200231142Y-119915857D01*
X200302571Y-120058714D01*
X200374000Y-120344428D01*
X200374000Y-120558714D01*
X200302571Y-120844428D01*
X200231142Y-120987285D01*
X200088285Y-121130142D01*
X199874000Y-121201571D01*
X199516857Y-121201571D01*
X196374000Y-124781571D02*
X196874000Y-126281571D01*
X197374000Y-124781571D01*
X198731142Y-126138714D02*
X198659714Y-126210142D01*
X198445428Y-126281571D01*
X198302571Y-126281571D01*
X198088285Y-126210142D01*
X197945428Y-126067285D01*
X197874000Y-125924428D01*
X197802571Y-125638714D01*
X197802571Y-125424428D01*
X197874000Y-125138714D01*
X197945428Y-124995857D01*
X198088285Y-124853000D01*
X198302571Y-124781571D01*
X198445428Y-124781571D01*
X198659714Y-124853000D01*
X198731142Y-124924428D01*
X200231142Y-126138714D02*
X200159714Y-126210142D01*
X199945428Y-126281571D01*
X199802571Y-126281571D01*
X199588285Y-126210142D01*
X199445428Y-126067285D01*
X199374000Y-125924428D01*
X199302571Y-125638714D01*
X199302571Y-125424428D01*
X199374000Y-125138714D01*
X199445428Y-124995857D01*
X199588285Y-124853000D01*
X199802571Y-124781571D01*
X199945428Y-124781571D01*
X200159714Y-124853000D01*
X200231142Y-124924428D01*
X205426571Y-125777285D02*
X205426571Y-124920142D01*
X206926571Y-125348714D02*
X205426571Y-125348714D01*
X206140857Y-124420142D02*
X206140857Y-123920142D01*
X206926571Y-123705857D02*
X206926571Y-124420142D01*
X205426571Y-124420142D01*
X205426571Y-123705857D01*
X206926571Y-123063000D02*
X205426571Y-123063000D01*
X206498000Y-122563000D01*
X205426571Y-122063000D01*
X206926571Y-122063000D01*
X206926571Y-121348714D02*
X205426571Y-121348714D01*
X205426571Y-120777285D01*
X205498000Y-120634428D01*
X205569428Y-120563000D01*
X205712285Y-120491571D01*
X205926571Y-120491571D01*
X206069428Y-120563000D01*
X206140857Y-120634428D01*
X206212285Y-120777285D01*
X206212285Y-121348714D01*
X197231142Y-108597000D02*
X197088285Y-108525571D01*
X196874000Y-108525571D01*
X196659714Y-108597000D01*
X196516857Y-108739857D01*
X196445428Y-108882714D01*
X196374000Y-109168428D01*
X196374000Y-109382714D01*
X196445428Y-109668428D01*
X196516857Y-109811285D01*
X196659714Y-109954142D01*
X196874000Y-110025571D01*
X197016857Y-110025571D01*
X197231142Y-109954142D01*
X197302571Y-109882714D01*
X197302571Y-109382714D01*
X197016857Y-109382714D01*
X197945428Y-110025571D02*
X197945428Y-108525571D01*
X198802571Y-110025571D01*
X198802571Y-108525571D01*
X199516857Y-110025571D02*
X199516857Y-108525571D01*
X199874000Y-108525571D01*
X200088285Y-108597000D01*
X200231142Y-108739857D01*
X200302571Y-108882714D01*
X200374000Y-109168428D01*
X200374000Y-109382714D01*
X200302571Y-109668428D01*
X200231142Y-109811285D01*
X200088285Y-109954142D01*
X199874000Y-110025571D01*
X199516857Y-110025571D01*
X196374000Y-113605571D02*
X196874000Y-115105571D01*
X197374000Y-113605571D01*
X198731142Y-114962714D02*
X198659714Y-115034142D01*
X198445428Y-115105571D01*
X198302571Y-115105571D01*
X198088285Y-115034142D01*
X197945428Y-114891285D01*
X197874000Y-114748428D01*
X197802571Y-114462714D01*
X197802571Y-114248428D01*
X197874000Y-113962714D01*
X197945428Y-113819857D01*
X198088285Y-113677000D01*
X198302571Y-113605571D01*
X198445428Y-113605571D01*
X198659714Y-113677000D01*
X198731142Y-113748428D01*
X200231142Y-114962714D02*
X200159714Y-115034142D01*
X199945428Y-115105571D01*
X199802571Y-115105571D01*
X199588285Y-115034142D01*
X199445428Y-114891285D01*
X199374000Y-114748428D01*
X199302571Y-114462714D01*
X199302571Y-114248428D01*
X199374000Y-113962714D01*
X199445428Y-113819857D01*
X199588285Y-113677000D01*
X199802571Y-113605571D01*
X199945428Y-113605571D01*
X200159714Y-113677000D01*
X200231142Y-113748428D01*
D12*
X175895000Y-133985000D02*
X175895000Y-116205000D01*
X164465000Y-133985000D02*
X175895000Y-133985000D01*
X164465000Y-116205000D02*
X164465000Y-133985000D01*
X175895000Y-116205000D02*
X164465000Y-116205000D01*
D10*
X174303571Y-128595000D02*
X175303571Y-128595000D01*
X173732142Y-128952142D02*
X174803571Y-129309285D01*
X174803571Y-128380714D01*
X174875000Y-127880714D02*
X174875000Y-127166428D01*
X175303571Y-128023571D02*
X173803571Y-127523571D01*
X175303571Y-127023571D01*
X174517857Y-124880714D02*
X174517857Y-125380714D01*
X175303571Y-125380714D02*
X173803571Y-125380714D01*
X173803571Y-124666428D01*
X174303571Y-123452142D02*
X175303571Y-123452142D01*
X174303571Y-124095000D02*
X175089285Y-124095000D01*
X175232142Y-124023571D01*
X175303571Y-123880714D01*
X175303571Y-123666428D01*
X175232142Y-123523571D01*
X175160714Y-123452142D01*
X175232142Y-122809285D02*
X175303571Y-122666428D01*
X175303571Y-122380714D01*
X175232142Y-122237857D01*
X175089285Y-122166428D01*
X175017857Y-122166428D01*
X174875000Y-122237857D01*
X174803571Y-122380714D01*
X174803571Y-122595000D01*
X174732142Y-122737857D01*
X174589285Y-122809285D01*
X174517857Y-122809285D01*
X174375000Y-122737857D01*
X174303571Y-122595000D01*
X174303571Y-122380714D01*
X174375000Y-122237857D01*
X175232142Y-120952142D02*
X175303571Y-121095000D01*
X175303571Y-121380714D01*
X175232142Y-121523571D01*
X175089285Y-121595000D01*
X174517857Y-121595000D01*
X174375000Y-121523571D01*
X174303571Y-121380714D01*
X174303571Y-121095000D01*
X174375000Y-120952142D01*
X174517857Y-120880714D01*
X174660714Y-120880714D01*
X174803571Y-121595000D01*
X190409285Y-61835000D02*
X191123571Y-61835000D01*
X190266428Y-62263571D02*
X190766428Y-60763571D01*
X191266428Y-62263571D01*
X192409285Y-61263571D02*
X192409285Y-62763571D01*
X192409285Y-62192142D02*
X192266428Y-62263571D01*
X191980714Y-62263571D01*
X191837857Y-62192142D01*
X191766428Y-62120714D01*
X191695000Y-61977857D01*
X191695000Y-61549285D01*
X191766428Y-61406428D01*
X191837857Y-61335000D01*
X191980714Y-61263571D01*
X192266428Y-61263571D01*
X192409285Y-61335000D01*
X193766428Y-61263571D02*
X193766428Y-62263571D01*
X193123571Y-61263571D02*
X193123571Y-62049285D01*
X193195000Y-62192142D01*
X193337857Y-62263571D01*
X193552142Y-62263571D01*
X193695000Y-62192142D01*
X193766428Y-62120714D01*
X195123571Y-62263571D02*
X195123571Y-61477857D01*
X195052142Y-61335000D01*
X194909285Y-61263571D01*
X194623571Y-61263571D01*
X194480714Y-61335000D01*
X195123571Y-62192142D02*
X194980714Y-62263571D01*
X194623571Y-62263571D01*
X194480714Y-62192142D01*
X194409285Y-62049285D01*
X194409285Y-61906428D01*
X194480714Y-61763571D01*
X194623571Y-61692142D01*
X194980714Y-61692142D01*
X195123571Y-61620714D01*
X195837857Y-62263571D02*
X195837857Y-60763571D01*
X195837857Y-61477857D02*
X196695000Y-61477857D01*
X196695000Y-62263571D02*
X196695000Y-60763571D01*
X198052142Y-61263571D02*
X198052142Y-62263571D01*
X197409285Y-61263571D02*
X197409285Y-62049285D01*
X197480714Y-62192142D01*
X197623571Y-62263571D01*
X197837857Y-62263571D01*
X197980714Y-62192142D01*
X198052142Y-62120714D01*
X198766428Y-62263571D02*
X198766428Y-60763571D01*
X198766428Y-61335000D02*
X198909285Y-61263571D01*
X199195000Y-61263571D01*
X199337857Y-61335000D01*
X199409285Y-61406428D01*
X199480714Y-61549285D01*
X199480714Y-61977857D01*
X199409285Y-62120714D01*
X199337857Y-62192142D01*
X199195000Y-62263571D01*
X198909285Y-62263571D01*
X198766428Y-62192142D01*
X188730714Y-64813571D02*
X188730714Y-63313571D01*
X189302142Y-63313571D01*
X189445000Y-63385000D01*
X189516428Y-63456428D01*
X189587857Y-63599285D01*
X189587857Y-63813571D01*
X189516428Y-63956428D01*
X189445000Y-64027857D01*
X189302142Y-64099285D01*
X188730714Y-64099285D01*
X190445000Y-64813571D02*
X190302142Y-64742142D01*
X190230714Y-64670714D01*
X190159285Y-64527857D01*
X190159285Y-64099285D01*
X190230714Y-63956428D01*
X190302142Y-63885000D01*
X190445000Y-63813571D01*
X190659285Y-63813571D01*
X190802142Y-63885000D01*
X190873571Y-63956428D01*
X190945000Y-64099285D01*
X190945000Y-64527857D01*
X190873571Y-64670714D01*
X190802142Y-64742142D01*
X190659285Y-64813571D01*
X190445000Y-64813571D01*
X191445000Y-63813571D02*
X191730714Y-64813571D01*
X192016428Y-64099285D01*
X192302142Y-64813571D01*
X192587857Y-63813571D01*
X193730714Y-64742142D02*
X193587857Y-64813571D01*
X193302142Y-64813571D01*
X193159285Y-64742142D01*
X193087857Y-64599285D01*
X193087857Y-64027857D01*
X193159285Y-63885000D01*
X193302142Y-63813571D01*
X193587857Y-63813571D01*
X193730714Y-63885000D01*
X193802142Y-64027857D01*
X193802142Y-64170714D01*
X193087857Y-64313571D01*
X194445000Y-64813571D02*
X194445000Y-63813571D01*
X194445000Y-64099285D02*
X194516428Y-63956428D01*
X194587857Y-63885000D01*
X194730714Y-63813571D01*
X194873571Y-63813571D01*
X195873571Y-64027857D02*
X196087857Y-64099285D01*
X196159285Y-64170714D01*
X196230714Y-64313571D01*
X196230714Y-64527857D01*
X196159285Y-64670714D01*
X196087857Y-64742142D01*
X195945000Y-64813571D01*
X195373571Y-64813571D01*
X195373571Y-63313571D01*
X195873571Y-63313571D01*
X196016428Y-63385000D01*
X196087857Y-63456428D01*
X196159285Y-63599285D01*
X196159285Y-63742142D01*
X196087857Y-63885000D01*
X196016428Y-63956428D01*
X195873571Y-64027857D01*
X195373571Y-64027857D01*
X197087857Y-64813571D02*
X196945000Y-64742142D01*
X196873571Y-64670714D01*
X196802142Y-64527857D01*
X196802142Y-64099285D01*
X196873571Y-63956428D01*
X196945000Y-63885000D01*
X197087857Y-63813571D01*
X197302142Y-63813571D01*
X197445000Y-63885000D01*
X197516428Y-63956428D01*
X197587857Y-64099285D01*
X197587857Y-64527857D01*
X197516428Y-64670714D01*
X197445000Y-64742142D01*
X197302142Y-64813571D01*
X197087857Y-64813571D01*
X198873571Y-64813571D02*
X198873571Y-64027857D01*
X198802142Y-63885000D01*
X198659285Y-63813571D01*
X198373571Y-63813571D01*
X198230714Y-63885000D01*
X198873571Y-64742142D02*
X198730714Y-64813571D01*
X198373571Y-64813571D01*
X198230714Y-64742142D01*
X198159285Y-64599285D01*
X198159285Y-64456428D01*
X198230714Y-64313571D01*
X198373571Y-64242142D01*
X198730714Y-64242142D01*
X198873571Y-64170714D01*
X199587857Y-64813571D02*
X199587857Y-63813571D01*
X199587857Y-64099285D02*
X199659285Y-63956428D01*
X199730714Y-63885000D01*
X199873571Y-63813571D01*
X200016428Y-63813571D01*
X201159285Y-64813571D02*
X201159285Y-63313571D01*
X201159285Y-64742142D02*
X201016428Y-64813571D01*
X200730714Y-64813571D01*
X200587857Y-64742142D01*
X200516428Y-64670714D01*
X200445000Y-64527857D01*
X200445000Y-64099285D01*
X200516428Y-63956428D01*
X200587857Y-63885000D01*
X200730714Y-63813571D01*
X201016428Y-63813571D01*
X201159285Y-63885000D01*
X192802142Y-66363571D02*
X193159285Y-67363571D01*
X193516428Y-66363571D01*
X194873571Y-67363571D02*
X194016428Y-67363571D01*
X194445000Y-67363571D02*
X194445000Y-65863571D01*
X194302142Y-66077857D01*
X194159285Y-66220714D01*
X194016428Y-66292142D01*
X195516428Y-67220714D02*
X195587857Y-67292142D01*
X195516428Y-67363571D01*
X195445000Y-67292142D01*
X195516428Y-67220714D01*
X195516428Y-67363571D01*
X196516428Y-65863571D02*
X196659285Y-65863571D01*
X196802142Y-65935000D01*
X196873571Y-66006428D01*
X196945000Y-66149285D01*
X197016428Y-66435000D01*
X197016428Y-66792142D01*
X196945000Y-67077857D01*
X196873571Y-67220714D01*
X196802142Y-67292142D01*
X196659285Y-67363571D01*
X196516428Y-67363571D01*
X196373571Y-67292142D01*
X196302142Y-67220714D01*
X196230714Y-67077857D01*
X196159285Y-66792142D01*
X196159285Y-66435000D01*
X196230714Y-66149285D01*
X196302142Y-66006428D01*
X196373571Y-65935000D01*
X196516428Y-65863571D01*
D13*
X126621904Y-100782380D02*
X126050476Y-100782380D01*
X126336190Y-100782380D02*
X126336190Y-99782380D01*
X126240952Y-99925238D01*
X126145714Y-100020476D01*
X126050476Y-100068095D01*
X127002857Y-99877619D02*
X127050476Y-99830000D01*
X127145714Y-99782380D01*
X127383809Y-99782380D01*
X127479047Y-99830000D01*
X127526666Y-99877619D01*
X127574285Y-99972857D01*
X127574285Y-100068095D01*
X127526666Y-100210952D01*
X126955238Y-100782380D01*
X127574285Y-100782380D01*
X127860000Y-99782380D02*
X128193333Y-100782380D01*
X128526666Y-99782380D01*
D12*
X121920000Y-84455000D02*
G75*
G02X121285000Y-83820000I0J635000D01*
G01*
X121285000Y-103505000D02*
G75*
G02X121920000Y-102870000I635000J0D01*
G01*
X121285000Y-83820000D02*
X121285000Y-80645000D01*
X129540000Y-84455000D02*
X121920000Y-84455000D01*
X129540000Y-102870000D02*
X129540000Y-84455000D01*
X121920000Y-102870000D02*
X129540000Y-102870000D01*
D13*
X126002857Y-90892380D02*
X126621904Y-90892380D01*
X126288571Y-91273333D01*
X126431428Y-91273333D01*
X126526666Y-91320952D01*
X126574285Y-91368571D01*
X126621904Y-91463809D01*
X126621904Y-91701904D01*
X126574285Y-91797142D01*
X126526666Y-91844761D01*
X126431428Y-91892380D01*
X126145714Y-91892380D01*
X126050476Y-91844761D01*
X126002857Y-91797142D01*
X127050476Y-91797142D02*
X127098095Y-91844761D01*
X127050476Y-91892380D01*
X127002857Y-91844761D01*
X127050476Y-91797142D01*
X127050476Y-91892380D01*
X127431428Y-90892380D02*
X128050476Y-90892380D01*
X127717142Y-91273333D01*
X127860000Y-91273333D01*
X127955238Y-91320952D01*
X128002857Y-91368571D01*
X128050476Y-91463809D01*
X128050476Y-91701904D01*
X128002857Y-91797142D01*
X127955238Y-91844761D01*
X127860000Y-91892380D01*
X127574285Y-91892380D01*
X127479047Y-91844761D01*
X127431428Y-91797142D01*
X128336190Y-90892380D02*
X128669523Y-91892380D01*
X129002857Y-90892380D01*
X126621904Y-86495000D02*
X126526666Y-86447380D01*
X126383809Y-86447380D01*
X126240952Y-86495000D01*
X126145714Y-86590238D01*
X126098095Y-86685476D01*
X126050476Y-86875952D01*
X126050476Y-87018809D01*
X126098095Y-87209285D01*
X126145714Y-87304523D01*
X126240952Y-87399761D01*
X126383809Y-87447380D01*
X126479047Y-87447380D01*
X126621904Y-87399761D01*
X126669523Y-87352142D01*
X126669523Y-87018809D01*
X126479047Y-87018809D01*
X127098095Y-87447380D02*
X127098095Y-86447380D01*
X127669523Y-87447380D01*
X127669523Y-86447380D01*
X128145714Y-87447380D02*
X128145714Y-86447380D01*
X128383809Y-86447380D01*
X128526666Y-86495000D01*
X128621904Y-86590238D01*
X128669523Y-86685476D01*
X128717142Y-86875952D01*
X128717142Y-87018809D01*
X128669523Y-87209285D01*
X128621904Y-87304523D01*
X128526666Y-87399761D01*
X128383809Y-87447380D01*
X128145714Y-87447380D01*
X126574285Y-95337380D02*
X126098095Y-95337380D01*
X126050476Y-95813571D01*
X126098095Y-95765952D01*
X126193333Y-95718333D01*
X126431428Y-95718333D01*
X126526666Y-95765952D01*
X126574285Y-95813571D01*
X126621904Y-95908809D01*
X126621904Y-96146904D01*
X126574285Y-96242142D01*
X126526666Y-96289761D01*
X126431428Y-96337380D01*
X126193333Y-96337380D01*
X126098095Y-96289761D01*
X126050476Y-96242142D01*
X126907619Y-95337380D02*
X127240952Y-96337380D01*
X127574285Y-95337380D01*
D12*
X149860000Y-126365000D02*
X149860000Y-107315000D01*
X160655000Y-126365000D02*
X149860000Y-126365000D01*
X160655000Y-107315000D02*
X160655000Y-126365000D01*
X149860000Y-107315000D02*
X160655000Y-107315000D01*
X149225000Y-102870000D02*
X149225000Y-90170000D01*
X166370000Y-102870000D02*
X149225000Y-102870000D01*
X166370000Y-90170000D02*
X166370000Y-102870000D01*
X149225000Y-90170000D02*
X166370000Y-90170000D01*
D10*
X151983214Y-123709000D02*
X152054642Y-123780428D01*
X152126071Y-123994714D01*
X152126071Y-124137571D01*
X152054642Y-124351857D01*
X151911785Y-124494714D01*
X151768928Y-124566142D01*
X151483214Y-124637571D01*
X151268928Y-124637571D01*
X150983214Y-124566142D01*
X150840357Y-124494714D01*
X150697500Y-124351857D01*
X150626071Y-124137571D01*
X150626071Y-123994714D01*
X150697500Y-123780428D01*
X150768928Y-123709000D01*
X151126071Y-122423285D02*
X152126071Y-122423285D01*
X151126071Y-123066142D02*
X151911785Y-123066142D01*
X152054642Y-122994714D01*
X152126071Y-122851857D01*
X152126071Y-122637571D01*
X152054642Y-122494714D01*
X151983214Y-122423285D01*
X152126071Y-121709000D02*
X151126071Y-121709000D01*
X151411785Y-121709000D02*
X151268928Y-121637571D01*
X151197500Y-121566142D01*
X151126071Y-121423285D01*
X151126071Y-121280428D01*
X152126071Y-120780428D02*
X151126071Y-120780428D01*
X151411785Y-120780428D02*
X151268928Y-120709000D01*
X151197500Y-120637571D01*
X151126071Y-120494714D01*
X151126071Y-120351857D01*
X152054642Y-119280428D02*
X152126071Y-119423285D01*
X152126071Y-119709000D01*
X152054642Y-119851857D01*
X151911785Y-119923285D01*
X151340357Y-119923285D01*
X151197500Y-119851857D01*
X151126071Y-119709000D01*
X151126071Y-119423285D01*
X151197500Y-119280428D01*
X151340357Y-119209000D01*
X151483214Y-119209000D01*
X151626071Y-119923285D01*
X151126071Y-118566142D02*
X152126071Y-118566142D01*
X151268928Y-118566142D02*
X151197500Y-118494714D01*
X151126071Y-118351857D01*
X151126071Y-118137571D01*
X151197500Y-117994714D01*
X151340357Y-117923285D01*
X152126071Y-117923285D01*
X151126071Y-117423285D02*
X151126071Y-116851857D01*
X150626071Y-117209000D02*
X151911785Y-117209000D01*
X152054642Y-117137571D01*
X152126071Y-116994714D01*
X152126071Y-116851857D01*
X152054642Y-115280428D02*
X152126071Y-115066142D01*
X152126071Y-114709000D01*
X152054642Y-114566142D01*
X151983214Y-114494714D01*
X151840357Y-114423285D01*
X151697500Y-114423285D01*
X151554642Y-114494714D01*
X151483214Y-114566142D01*
X151411785Y-114709000D01*
X151340357Y-114994714D01*
X151268928Y-115137571D01*
X151197500Y-115209000D01*
X151054642Y-115280428D01*
X150911785Y-115280428D01*
X150768928Y-115209000D01*
X150697500Y-115137571D01*
X150626071Y-114994714D01*
X150626071Y-114637571D01*
X150697500Y-114423285D01*
X152054642Y-113209000D02*
X152126071Y-113351857D01*
X152126071Y-113637571D01*
X152054642Y-113780428D01*
X151911785Y-113851857D01*
X151340357Y-113851857D01*
X151197500Y-113780428D01*
X151126071Y-113637571D01*
X151126071Y-113351857D01*
X151197500Y-113209000D01*
X151340357Y-113137571D01*
X151483214Y-113137571D01*
X151626071Y-113851857D01*
X151126071Y-112494714D02*
X152126071Y-112494714D01*
X151268928Y-112494714D02*
X151197500Y-112423285D01*
X151126071Y-112280428D01*
X151126071Y-112066142D01*
X151197500Y-111923285D01*
X151340357Y-111851857D01*
X152126071Y-111851857D01*
X152054642Y-111209000D02*
X152126071Y-111066142D01*
X152126071Y-110780428D01*
X152054642Y-110637571D01*
X151911785Y-110566142D01*
X151840357Y-110566142D01*
X151697500Y-110637571D01*
X151626071Y-110780428D01*
X151626071Y-110994714D01*
X151554642Y-111137571D01*
X151411785Y-111209000D01*
X151340357Y-111209000D01*
X151197500Y-111137571D01*
X151126071Y-110994714D01*
X151126071Y-110780428D01*
X151197500Y-110637571D01*
X152126071Y-109709000D02*
X152054642Y-109851857D01*
X151983214Y-109923285D01*
X151840357Y-109994714D01*
X151411785Y-109994714D01*
X151268928Y-109923285D01*
X151197500Y-109851857D01*
X151126071Y-109709000D01*
X151126071Y-109494714D01*
X151197500Y-109351857D01*
X151268928Y-109280428D01*
X151411785Y-109209000D01*
X151840357Y-109209000D01*
X151983214Y-109280428D01*
X152054642Y-109351857D01*
X152126071Y-109494714D01*
X152126071Y-109709000D01*
X152126071Y-108566142D02*
X151126071Y-108566142D01*
X151411785Y-108566142D02*
X151268928Y-108494714D01*
X151197500Y-108423285D01*
X151126071Y-108280428D01*
X151126071Y-108137571D01*
D12*
X121285000Y-103505000D02*
X121285000Y-106680000D01*
X92075000Y-80645000D02*
X121285000Y-80645000D01*
D13*
X157197357Y-100716785D02*
X156625928Y-101116785D01*
X157197357Y-101402500D02*
X155997357Y-101402500D01*
X155997357Y-100945357D01*
X156054500Y-100831071D01*
X156111642Y-100773928D01*
X156225928Y-100716785D01*
X156397357Y-100716785D01*
X156511642Y-100773928D01*
X156568785Y-100831071D01*
X156625928Y-100945357D01*
X156625928Y-101402500D01*
X157140214Y-99745357D02*
X157197357Y-99859642D01*
X157197357Y-100088214D01*
X157140214Y-100202500D01*
X157025928Y-100259642D01*
X156568785Y-100259642D01*
X156454500Y-100202500D01*
X156397357Y-100088214D01*
X156397357Y-99859642D01*
X156454500Y-99745357D01*
X156568785Y-99688214D01*
X156683071Y-99688214D01*
X156797357Y-100259642D01*
X157197357Y-99002500D02*
X157140214Y-99116785D01*
X157025928Y-99173928D01*
X155997357Y-99173928D01*
X157197357Y-98031071D02*
X156568785Y-98031071D01*
X156454500Y-98088214D01*
X156397357Y-98202500D01*
X156397357Y-98431071D01*
X156454500Y-98545357D01*
X157140214Y-98031071D02*
X157197357Y-98145357D01*
X157197357Y-98431071D01*
X157140214Y-98545357D01*
X157025928Y-98602500D01*
X156911642Y-98602500D01*
X156797357Y-98545357D01*
X156740214Y-98431071D01*
X156740214Y-98145357D01*
X156683071Y-98031071D01*
X156397357Y-97573928D02*
X157197357Y-97288214D01*
X156397357Y-97002500D02*
X157197357Y-97288214D01*
X157483071Y-97402500D01*
X157540214Y-97459642D01*
X157597357Y-97573928D01*
X157197357Y-95631071D02*
X155997357Y-95631071D01*
X155997357Y-95345357D01*
X156054500Y-95173928D01*
X156168785Y-95059642D01*
X156283071Y-95002500D01*
X156511642Y-94945357D01*
X156683071Y-94945357D01*
X156911642Y-95002500D01*
X157025928Y-95059642D01*
X157140214Y-95173928D01*
X157197357Y-95345357D01*
X157197357Y-95631071D01*
X157197357Y-94431071D02*
X156397357Y-94431071D01*
X156625928Y-94431071D02*
X156511642Y-94373928D01*
X156454500Y-94316785D01*
X156397357Y-94202500D01*
X156397357Y-94088214D01*
X157197357Y-93688214D02*
X156397357Y-93688214D01*
X155997357Y-93688214D02*
X156054500Y-93745357D01*
X156111642Y-93688214D01*
X156054500Y-93631071D01*
X155997357Y-93688214D01*
X156111642Y-93688214D01*
X156397357Y-93231071D02*
X157197357Y-92945357D01*
X156397357Y-92659642D01*
X157140214Y-91745357D02*
X157197357Y-91859642D01*
X157197357Y-92088214D01*
X157140214Y-92202500D01*
X157025928Y-92259642D01*
X156568785Y-92259642D01*
X156454500Y-92202500D01*
X156397357Y-92088214D01*
X156397357Y-91859642D01*
X156454500Y-91745357D01*
X156568785Y-91688214D01*
X156683071Y-91688214D01*
X156797357Y-92259642D01*
X157197357Y-91173928D02*
X156397357Y-91173928D01*
X156625928Y-91173928D02*
X156511642Y-91116785D01*
X156454500Y-91059642D01*
X156397357Y-90945357D01*
X156397357Y-90831071D01*
D10*
X55394285Y-55482857D02*
X54894285Y-55482857D01*
X54894285Y-56268571D02*
X54894285Y-54768571D01*
X55608571Y-54768571D01*
X69858571Y-55482857D02*
X70358571Y-55482857D01*
X70572857Y-56268571D02*
X69858571Y-56268571D01*
X69858571Y-54768571D01*
X70572857Y-54768571D01*
X84787142Y-56268571D02*
X84787142Y-54768571D01*
X85144285Y-54768571D01*
X85358571Y-54840000D01*
X85501428Y-54982857D01*
X85572857Y-55125714D01*
X85644285Y-55411428D01*
X85644285Y-55625714D01*
X85572857Y-55911428D01*
X85501428Y-56054285D01*
X85358571Y-56197142D01*
X85144285Y-56268571D01*
X84787142Y-56268571D01*
X100644285Y-56125714D02*
X100572857Y-56197142D01*
X100358571Y-56268571D01*
X100215714Y-56268571D01*
X100001428Y-56197142D01*
X99858571Y-56054285D01*
X99787142Y-55911428D01*
X99715714Y-55625714D01*
X99715714Y-55411428D01*
X99787142Y-55125714D01*
X99858571Y-54982857D01*
X100001428Y-54840000D01*
X100215714Y-54768571D01*
X100358571Y-54768571D01*
X100572857Y-54840000D01*
X100644285Y-54911428D01*
X115287142Y-55482857D02*
X115501428Y-55554285D01*
X115572857Y-55625714D01*
X115644285Y-55768571D01*
X115644285Y-55982857D01*
X115572857Y-56125714D01*
X115501428Y-56197142D01*
X115358571Y-56268571D01*
X114787142Y-56268571D01*
X114787142Y-54768571D01*
X115287142Y-54768571D01*
X115430000Y-54840000D01*
X115501428Y-54911428D01*
X115572857Y-55054285D01*
X115572857Y-55197142D01*
X115501428Y-55340000D01*
X115430000Y-55411428D01*
X115287142Y-55482857D01*
X114787142Y-55482857D01*
X129822857Y-55840000D02*
X130537142Y-55840000D01*
X129680000Y-56268571D02*
X130180000Y-54768571D01*
X130680000Y-56268571D01*
X206140857Y-113668714D02*
X206140857Y-114168714D01*
X206926571Y-114168714D02*
X205426571Y-114168714D01*
X205426571Y-113454428D01*
X206926571Y-112168714D02*
X206926571Y-112883000D01*
X205426571Y-112883000D01*
X205426571Y-111383000D02*
X205426571Y-111097285D01*
X205498000Y-110954428D01*
X205640857Y-110811571D01*
X205926571Y-110740142D01*
X206426571Y-110740142D01*
X206712285Y-110811571D01*
X206855142Y-110954428D01*
X206926571Y-111097285D01*
X206926571Y-111383000D01*
X206855142Y-111525857D01*
X206712285Y-111668714D01*
X206426571Y-111740142D01*
X205926571Y-111740142D01*
X205640857Y-111668714D01*
X205498000Y-111525857D01*
X205426571Y-111383000D01*
X205426571Y-110240142D02*
X206926571Y-109883000D01*
X205855142Y-109597285D01*
X206926571Y-109311571D01*
X205426571Y-108954428D01*
X205045571Y-99166857D02*
X206259857Y-99166857D01*
X206402714Y-99095428D01*
X206474142Y-99024000D01*
X206545571Y-98881142D01*
X206545571Y-98595428D01*
X206474142Y-98452571D01*
X206402714Y-98381142D01*
X206259857Y-98309714D01*
X205045571Y-98309714D01*
X206117000Y-97666857D02*
X206117000Y-96952571D01*
X206545571Y-97809714D02*
X205045571Y-97309714D01*
X206545571Y-96809714D01*
X206545571Y-95452571D02*
X205831285Y-95952571D01*
X206545571Y-96309714D02*
X205045571Y-96309714D01*
X205045571Y-95738285D01*
X205117000Y-95595428D01*
X205188428Y-95524000D01*
X205331285Y-95452571D01*
X205545571Y-95452571D01*
X205688428Y-95524000D01*
X205759857Y-95595428D01*
X205831285Y-95738285D01*
X205831285Y-96309714D01*
X205045571Y-95024000D02*
X205045571Y-94166857D01*
X206545571Y-94595428D02*
X205045571Y-94595428D01*
X191178571Y-104913571D02*
X189678571Y-104913571D01*
X189678571Y-104342142D01*
X189750000Y-104199285D01*
X189821428Y-104127857D01*
X189964285Y-104056428D01*
X190178571Y-104056428D01*
X190321428Y-104127857D01*
X190392857Y-104199285D01*
X190464285Y-104342142D01*
X190464285Y-104913571D01*
X191178571Y-102556428D02*
X190464285Y-103056428D01*
X191178571Y-103413571D02*
X189678571Y-103413571D01*
X189678571Y-102842142D01*
X189750000Y-102699285D01*
X189821428Y-102627857D01*
X189964285Y-102556428D01*
X190178571Y-102556428D01*
X190321428Y-102627857D01*
X190392857Y-102699285D01*
X190464285Y-102842142D01*
X190464285Y-103413571D01*
X189678571Y-101627857D02*
X189678571Y-101342142D01*
X189750000Y-101199285D01*
X189892857Y-101056428D01*
X190178571Y-100985000D01*
X190678571Y-100985000D01*
X190964285Y-101056428D01*
X191107142Y-101199285D01*
X191178571Y-101342142D01*
X191178571Y-101627857D01*
X191107142Y-101770714D01*
X190964285Y-101913571D01*
X190678571Y-101985000D01*
X190178571Y-101985000D01*
X189892857Y-101913571D01*
X189750000Y-101770714D01*
X189678571Y-101627857D01*
X189750000Y-99556428D02*
X189678571Y-99699285D01*
X189678571Y-99913571D01*
X189750000Y-100127857D01*
X189892857Y-100270714D01*
X190035714Y-100342142D01*
X190321428Y-100413571D01*
X190535714Y-100413571D01*
X190821428Y-100342142D01*
X190964285Y-100270714D01*
X191107142Y-100127857D01*
X191178571Y-99913571D01*
X191178571Y-99770714D01*
X191107142Y-99556428D01*
X191035714Y-99485000D01*
X190535714Y-99485000D01*
X190535714Y-99770714D01*
X54181428Y-152443571D02*
X54181428Y-150943571D01*
X55038571Y-152443571D01*
X55038571Y-150943571D01*
X60154285Y-152443571D02*
X59440000Y-152443571D01*
X59440000Y-150943571D01*
X76664285Y-152443571D02*
X75950000Y-152443571D01*
X75950000Y-150943571D01*
X70691428Y-152443571D02*
X70691428Y-150943571D01*
X71548571Y-152443571D01*
X71548571Y-150943571D01*
X93174285Y-152443571D02*
X92460000Y-152443571D01*
X92460000Y-150943571D01*
X87201428Y-152443571D02*
X87201428Y-150943571D01*
X88058571Y-152443571D01*
X88058571Y-150943571D01*
X104346428Y-152443571D02*
X104346428Y-150943571D01*
X105203571Y-152443571D01*
X105203571Y-150943571D01*
X110319285Y-152443571D02*
X109605000Y-152443571D01*
X109605000Y-150943571D01*
X120856428Y-152443571D02*
X120856428Y-150943571D01*
X121713571Y-152443571D01*
X121713571Y-150943571D01*
X126829285Y-152443571D02*
X126115000Y-152443571D01*
X126115000Y-150943571D01*
X137366428Y-152443571D02*
X137366428Y-150943571D01*
X138223571Y-152443571D01*
X138223571Y-150943571D01*
X143339285Y-152443571D02*
X142625000Y-152443571D01*
X142625000Y-150943571D01*
D13*
X51562000Y-146050000D02*
X51562000Y-153670000D01*
X62611000Y-146050000D02*
X62611000Y-153670000D01*
X68199000Y-146050000D02*
X68199000Y-153670000D01*
X79248000Y-146050000D02*
X79248000Y-153670000D01*
X84836000Y-146050000D02*
X84836000Y-153670000D01*
X95885000Y-146050000D02*
X95885000Y-153670000D01*
X101600000Y-146050000D02*
X101600000Y-153670000D01*
X112395000Y-146050000D02*
X112395000Y-153670000D01*
X118110000Y-146050000D02*
X118110000Y-153670000D01*
X129159000Y-146050000D02*
X129159000Y-153670000D01*
X134747000Y-146050000D02*
X134747000Y-153670000D01*
X145796000Y-146050000D02*
X145796000Y-153670000D01*
D10*
X52058714Y-149197142D02*
X52273000Y-149268571D01*
X52630142Y-149268571D01*
X52773000Y-149197142D01*
X52844428Y-149125714D01*
X52915857Y-148982857D01*
X52915857Y-148840000D01*
X52844428Y-148697142D01*
X52773000Y-148625714D01*
X52630142Y-148554285D01*
X52344428Y-148482857D01*
X52201571Y-148411428D01*
X52130142Y-148340000D01*
X52058714Y-148197142D01*
X52058714Y-148054285D01*
X52130142Y-147911428D01*
X52201571Y-147840000D01*
X52344428Y-147768571D01*
X52701571Y-147768571D01*
X52915857Y-147840000D01*
X53415857Y-147768571D02*
X53773000Y-149268571D01*
X54058714Y-148197142D01*
X54344428Y-149268571D01*
X54701571Y-147768571D01*
X55273000Y-149268571D02*
X55273000Y-147768571D01*
X55773000Y-147768571D02*
X56630142Y-147768571D01*
X56201571Y-149268571D02*
X56201571Y-147768571D01*
X57987285Y-149125714D02*
X57915857Y-149197142D01*
X57701571Y-149268571D01*
X57558714Y-149268571D01*
X57344428Y-149197142D01*
X57201571Y-149054285D01*
X57130142Y-148911428D01*
X57058714Y-148625714D01*
X57058714Y-148411428D01*
X57130142Y-148125714D01*
X57201571Y-147982857D01*
X57344428Y-147840000D01*
X57558714Y-147768571D01*
X57701571Y-147768571D01*
X57915857Y-147840000D01*
X57987285Y-147911428D01*
X58630142Y-149268571D02*
X58630142Y-147768571D01*
X58630142Y-148482857D02*
X59487285Y-148482857D01*
X59487285Y-149268571D02*
X59487285Y-147768571D01*
X61273000Y-148840000D02*
X61987285Y-148840000D01*
X61130142Y-149268571D02*
X61630142Y-147768571D01*
X62130142Y-149268571D01*
X68715571Y-149197142D02*
X68929857Y-149268571D01*
X69287000Y-149268571D01*
X69429857Y-149197142D01*
X69501285Y-149125714D01*
X69572714Y-148982857D01*
X69572714Y-148840000D01*
X69501285Y-148697142D01*
X69429857Y-148625714D01*
X69287000Y-148554285D01*
X69001285Y-148482857D01*
X68858428Y-148411428D01*
X68787000Y-148340000D01*
X68715571Y-148197142D01*
X68715571Y-148054285D01*
X68787000Y-147911428D01*
X68858428Y-147840000D01*
X69001285Y-147768571D01*
X69358428Y-147768571D01*
X69572714Y-147840000D01*
X70072714Y-147768571D02*
X70429857Y-149268571D01*
X70715571Y-148197142D01*
X71001285Y-149268571D01*
X71358428Y-147768571D01*
X71929857Y-149268571D02*
X71929857Y-147768571D01*
X72429857Y-147768571D02*
X73287000Y-147768571D01*
X72858428Y-149268571D02*
X72858428Y-147768571D01*
X74644142Y-149125714D02*
X74572714Y-149197142D01*
X74358428Y-149268571D01*
X74215571Y-149268571D01*
X74001285Y-149197142D01*
X73858428Y-149054285D01*
X73787000Y-148911428D01*
X73715571Y-148625714D01*
X73715571Y-148411428D01*
X73787000Y-148125714D01*
X73858428Y-147982857D01*
X74001285Y-147840000D01*
X74215571Y-147768571D01*
X74358428Y-147768571D01*
X74572714Y-147840000D01*
X74644142Y-147911428D01*
X75287000Y-149268571D02*
X75287000Y-147768571D01*
X75287000Y-148482857D02*
X76144142Y-148482857D01*
X76144142Y-149268571D02*
X76144142Y-147768571D01*
X78501285Y-148482857D02*
X78715571Y-148554285D01*
X78787000Y-148625714D01*
X78858428Y-148768571D01*
X78858428Y-148982857D01*
X78787000Y-149125714D01*
X78715571Y-149197142D01*
X78572714Y-149268571D01*
X78001285Y-149268571D01*
X78001285Y-147768571D01*
X78501285Y-147768571D01*
X78644142Y-147840000D01*
X78715571Y-147911428D01*
X78787000Y-148054285D01*
X78787000Y-148197142D01*
X78715571Y-148340000D01*
X78644142Y-148411428D01*
X78501285Y-148482857D01*
X78001285Y-148482857D01*
X85225571Y-149197142D02*
X85439857Y-149268571D01*
X85797000Y-149268571D01*
X85939857Y-149197142D01*
X86011285Y-149125714D01*
X86082714Y-148982857D01*
X86082714Y-148840000D01*
X86011285Y-148697142D01*
X85939857Y-148625714D01*
X85797000Y-148554285D01*
X85511285Y-148482857D01*
X85368428Y-148411428D01*
X85297000Y-148340000D01*
X85225571Y-148197142D01*
X85225571Y-148054285D01*
X85297000Y-147911428D01*
X85368428Y-147840000D01*
X85511285Y-147768571D01*
X85868428Y-147768571D01*
X86082714Y-147840000D01*
X86582714Y-147768571D02*
X86939857Y-149268571D01*
X87225571Y-148197142D01*
X87511285Y-149268571D01*
X87868428Y-147768571D01*
X88439857Y-149268571D02*
X88439857Y-147768571D01*
X88939857Y-147768571D02*
X89797000Y-147768571D01*
X89368428Y-149268571D02*
X89368428Y-147768571D01*
X91154142Y-149125714D02*
X91082714Y-149197142D01*
X90868428Y-149268571D01*
X90725571Y-149268571D01*
X90511285Y-149197142D01*
X90368428Y-149054285D01*
X90297000Y-148911428D01*
X90225571Y-148625714D01*
X90225571Y-148411428D01*
X90297000Y-148125714D01*
X90368428Y-147982857D01*
X90511285Y-147840000D01*
X90725571Y-147768571D01*
X90868428Y-147768571D01*
X91082714Y-147840000D01*
X91154142Y-147911428D01*
X91797000Y-149268571D02*
X91797000Y-147768571D01*
X91797000Y-148482857D02*
X92654142Y-148482857D01*
X92654142Y-149268571D02*
X92654142Y-147768571D01*
X95368428Y-149125714D02*
X95297000Y-149197142D01*
X95082714Y-149268571D01*
X94939857Y-149268571D01*
X94725571Y-149197142D01*
X94582714Y-149054285D01*
X94511285Y-148911428D01*
X94439857Y-148625714D01*
X94439857Y-148411428D01*
X94511285Y-148125714D01*
X94582714Y-147982857D01*
X94725571Y-147840000D01*
X94939857Y-147768571D01*
X95082714Y-147768571D01*
X95297000Y-147840000D01*
X95368428Y-147911428D01*
X101862571Y-149197142D02*
X102076857Y-149268571D01*
X102434000Y-149268571D01*
X102576857Y-149197142D01*
X102648285Y-149125714D01*
X102719714Y-148982857D01*
X102719714Y-148840000D01*
X102648285Y-148697142D01*
X102576857Y-148625714D01*
X102434000Y-148554285D01*
X102148285Y-148482857D01*
X102005428Y-148411428D01*
X101934000Y-148340000D01*
X101862571Y-148197142D01*
X101862571Y-148054285D01*
X101934000Y-147911428D01*
X102005428Y-147840000D01*
X102148285Y-147768571D01*
X102505428Y-147768571D01*
X102719714Y-147840000D01*
X103219714Y-147768571D02*
X103576857Y-149268571D01*
X103862571Y-148197142D01*
X104148285Y-149268571D01*
X104505428Y-147768571D01*
X105076857Y-149268571D02*
X105076857Y-147768571D01*
X105576857Y-147768571D02*
X106434000Y-147768571D01*
X106005428Y-149268571D02*
X106005428Y-147768571D01*
X107791142Y-149125714D02*
X107719714Y-149197142D01*
X107505428Y-149268571D01*
X107362571Y-149268571D01*
X107148285Y-149197142D01*
X107005428Y-149054285D01*
X106934000Y-148911428D01*
X106862571Y-148625714D01*
X106862571Y-148411428D01*
X106934000Y-148125714D01*
X107005428Y-147982857D01*
X107148285Y-147840000D01*
X107362571Y-147768571D01*
X107505428Y-147768571D01*
X107719714Y-147840000D01*
X107791142Y-147911428D01*
X108434000Y-149268571D02*
X108434000Y-147768571D01*
X108434000Y-148482857D02*
X109291142Y-148482857D01*
X109291142Y-149268571D02*
X109291142Y-147768571D01*
X111148285Y-149268571D02*
X111148285Y-147768571D01*
X111505428Y-147768571D01*
X111719714Y-147840000D01*
X111862571Y-147982857D01*
X111934000Y-148125714D01*
X112005428Y-148411428D01*
X112005428Y-148625714D01*
X111934000Y-148911428D01*
X111862571Y-149054285D01*
X111719714Y-149197142D01*
X111505428Y-149268571D01*
X111148285Y-149268571D01*
X118698000Y-149197142D02*
X118912285Y-149268571D01*
X119269428Y-149268571D01*
X119412285Y-149197142D01*
X119483714Y-149125714D01*
X119555142Y-148982857D01*
X119555142Y-148840000D01*
X119483714Y-148697142D01*
X119412285Y-148625714D01*
X119269428Y-148554285D01*
X118983714Y-148482857D01*
X118840857Y-148411428D01*
X118769428Y-148340000D01*
X118698000Y-148197142D01*
X118698000Y-148054285D01*
X118769428Y-147911428D01*
X118840857Y-147840000D01*
X118983714Y-147768571D01*
X119340857Y-147768571D01*
X119555142Y-147840000D01*
X120055142Y-147768571D02*
X120412285Y-149268571D01*
X120698000Y-148197142D01*
X120983714Y-149268571D01*
X121340857Y-147768571D01*
X121912285Y-149268571D02*
X121912285Y-147768571D01*
X122412285Y-147768571D02*
X123269428Y-147768571D01*
X122840857Y-149268571D02*
X122840857Y-147768571D01*
X124626571Y-149125714D02*
X124555142Y-149197142D01*
X124340857Y-149268571D01*
X124198000Y-149268571D01*
X123983714Y-149197142D01*
X123840857Y-149054285D01*
X123769428Y-148911428D01*
X123698000Y-148625714D01*
X123698000Y-148411428D01*
X123769428Y-148125714D01*
X123840857Y-147982857D01*
X123983714Y-147840000D01*
X124198000Y-147768571D01*
X124340857Y-147768571D01*
X124555142Y-147840000D01*
X124626571Y-147911428D01*
X125269428Y-149268571D02*
X125269428Y-147768571D01*
X125269428Y-148482857D02*
X126126571Y-148482857D01*
X126126571Y-149268571D02*
X126126571Y-147768571D01*
X127983714Y-148482857D02*
X128483714Y-148482857D01*
X128698000Y-149268571D02*
X127983714Y-149268571D01*
X127983714Y-147768571D01*
X128698000Y-147768571D01*
X135370714Y-149197142D02*
X135585000Y-149268571D01*
X135942142Y-149268571D01*
X136085000Y-149197142D01*
X136156428Y-149125714D01*
X136227857Y-148982857D01*
X136227857Y-148840000D01*
X136156428Y-148697142D01*
X136085000Y-148625714D01*
X135942142Y-148554285D01*
X135656428Y-148482857D01*
X135513571Y-148411428D01*
X135442142Y-148340000D01*
X135370714Y-148197142D01*
X135370714Y-148054285D01*
X135442142Y-147911428D01*
X135513571Y-147840000D01*
X135656428Y-147768571D01*
X136013571Y-147768571D01*
X136227857Y-147840000D01*
X136727857Y-147768571D02*
X137085000Y-149268571D01*
X137370714Y-148197142D01*
X137656428Y-149268571D01*
X138013571Y-147768571D01*
X138585000Y-149268571D02*
X138585000Y-147768571D01*
X139085000Y-147768571D02*
X139942142Y-147768571D01*
X139513571Y-149268571D02*
X139513571Y-147768571D01*
X141299285Y-149125714D02*
X141227857Y-149197142D01*
X141013571Y-149268571D01*
X140870714Y-149268571D01*
X140656428Y-149197142D01*
X140513571Y-149054285D01*
X140442142Y-148911428D01*
X140370714Y-148625714D01*
X140370714Y-148411428D01*
X140442142Y-148125714D01*
X140513571Y-147982857D01*
X140656428Y-147840000D01*
X140870714Y-147768571D01*
X141013571Y-147768571D01*
X141227857Y-147840000D01*
X141299285Y-147911428D01*
X141942142Y-149268571D02*
X141942142Y-147768571D01*
X141942142Y-148482857D02*
X142799285Y-148482857D01*
X142799285Y-149268571D02*
X142799285Y-147768571D01*
X145156428Y-148482857D02*
X144656428Y-148482857D01*
X144656428Y-149268571D02*
X144656428Y-147768571D01*
X145370714Y-147768571D01*
X43557000Y-129796142D02*
X43557000Y-129081857D01*
X43985571Y-129939000D02*
X42485571Y-129439000D01*
X43985571Y-128939000D01*
X42985571Y-127796142D02*
X44485571Y-127796142D01*
X43914142Y-127796142D02*
X43985571Y-127939000D01*
X43985571Y-128224714D01*
X43914142Y-128367571D01*
X43842714Y-128439000D01*
X43699857Y-128510428D01*
X43271285Y-128510428D01*
X43128428Y-128439000D01*
X43057000Y-128367571D01*
X42985571Y-128224714D01*
X42985571Y-127939000D01*
X43057000Y-127796142D01*
X42985571Y-126439000D02*
X43985571Y-126439000D01*
X42985571Y-127081857D02*
X43771285Y-127081857D01*
X43914142Y-127010428D01*
X43985571Y-126867571D01*
X43985571Y-126653285D01*
X43914142Y-126510428D01*
X43842714Y-126439000D01*
X43985571Y-125081857D02*
X43199857Y-125081857D01*
X43057000Y-125153285D01*
X42985571Y-125296142D01*
X42985571Y-125581857D01*
X43057000Y-125724714D01*
X43914142Y-125081857D02*
X43985571Y-125224714D01*
X43985571Y-125581857D01*
X43914142Y-125724714D01*
X43771285Y-125796142D01*
X43628428Y-125796142D01*
X43485571Y-125724714D01*
X43414142Y-125581857D01*
X43414142Y-125224714D01*
X43342714Y-125081857D01*
X43985571Y-124367571D02*
X42485571Y-124367571D01*
X43199857Y-124367571D02*
X43199857Y-123510428D01*
X43985571Y-123510428D02*
X42485571Y-123510428D01*
X42985571Y-122153285D02*
X43985571Y-122153285D01*
X42985571Y-122796142D02*
X43771285Y-122796142D01*
X43914142Y-122724714D01*
X43985571Y-122581857D01*
X43985571Y-122367571D01*
X43914142Y-122224714D01*
X43842714Y-122153285D01*
X43985571Y-121439000D02*
X42485571Y-121439000D01*
X43057000Y-121439000D02*
X42985571Y-121296142D01*
X42985571Y-121010428D01*
X43057000Y-120867571D01*
X43128428Y-120796142D01*
X43271285Y-120724714D01*
X43699857Y-120724714D01*
X43842714Y-120796142D01*
X43914142Y-120867571D01*
X43985571Y-121010428D01*
X43985571Y-121296142D01*
X43914142Y-121439000D01*
X43985571Y-118939000D02*
X42485571Y-118939000D01*
X42485571Y-118367571D01*
X42557000Y-118224714D01*
X42628428Y-118153285D01*
X42771285Y-118081857D01*
X42985571Y-118081857D01*
X43128428Y-118153285D01*
X43199857Y-118224714D01*
X43271285Y-118367571D01*
X43271285Y-118939000D01*
X43985571Y-117224714D02*
X43914142Y-117367571D01*
X43842714Y-117439000D01*
X43699857Y-117510428D01*
X43271285Y-117510428D01*
X43128428Y-117439000D01*
X43057000Y-117367571D01*
X42985571Y-117224714D01*
X42985571Y-117010428D01*
X43057000Y-116867571D01*
X43128428Y-116796142D01*
X43271285Y-116724714D01*
X43699857Y-116724714D01*
X43842714Y-116796142D01*
X43914142Y-116867571D01*
X43985571Y-117010428D01*
X43985571Y-117224714D01*
X42985571Y-116224714D02*
X43985571Y-115939000D01*
X43271285Y-115653285D01*
X43985571Y-115367571D01*
X42985571Y-115081857D01*
X43914142Y-113939000D02*
X43985571Y-114081857D01*
X43985571Y-114367571D01*
X43914142Y-114510428D01*
X43771285Y-114581857D01*
X43199857Y-114581857D01*
X43057000Y-114510428D01*
X42985571Y-114367571D01*
X42985571Y-114081857D01*
X43057000Y-113939000D01*
X43199857Y-113867571D01*
X43342714Y-113867571D01*
X43485571Y-114581857D01*
X43985571Y-113224714D02*
X42985571Y-113224714D01*
X43271285Y-113224714D02*
X43128428Y-113153285D01*
X43057000Y-113081857D01*
X42985571Y-112939000D01*
X42985571Y-112796142D01*
X43199857Y-111796142D02*
X43271285Y-111581857D01*
X43342714Y-111510428D01*
X43485571Y-111439000D01*
X43699857Y-111439000D01*
X43842714Y-111510428D01*
X43914142Y-111581857D01*
X43985571Y-111724714D01*
X43985571Y-112296142D01*
X42485571Y-112296142D01*
X42485571Y-111796142D01*
X42557000Y-111653285D01*
X42628428Y-111581857D01*
X42771285Y-111510428D01*
X42914142Y-111510428D01*
X43057000Y-111581857D01*
X43128428Y-111653285D01*
X43199857Y-111796142D01*
X43199857Y-112296142D01*
X43985571Y-110581857D02*
X43914142Y-110724714D01*
X43842714Y-110796142D01*
X43699857Y-110867571D01*
X43271285Y-110867571D01*
X43128428Y-110796142D01*
X43057000Y-110724714D01*
X42985571Y-110581857D01*
X42985571Y-110367571D01*
X43057000Y-110224714D01*
X43128428Y-110153285D01*
X43271285Y-110081857D01*
X43699857Y-110081857D01*
X43842714Y-110153285D01*
X43914142Y-110224714D01*
X43985571Y-110367571D01*
X43985571Y-110581857D01*
X43985571Y-108796142D02*
X43199857Y-108796142D01*
X43057000Y-108867571D01*
X42985571Y-109010428D01*
X42985571Y-109296142D01*
X43057000Y-109439000D01*
X43914142Y-108796142D02*
X43985571Y-108939000D01*
X43985571Y-109296142D01*
X43914142Y-109439000D01*
X43771285Y-109510428D01*
X43628428Y-109510428D01*
X43485571Y-109439000D01*
X43414142Y-109296142D01*
X43414142Y-108939000D01*
X43342714Y-108796142D01*
X43985571Y-108081857D02*
X42985571Y-108081857D01*
X43271285Y-108081857D02*
X43128428Y-108010428D01*
X43057000Y-107939000D01*
X42985571Y-107796142D01*
X42985571Y-107653285D01*
X43985571Y-106510428D02*
X42485571Y-106510428D01*
X43914142Y-106510428D02*
X43985571Y-106653285D01*
X43985571Y-106939000D01*
X43914142Y-107081857D01*
X43842714Y-107153285D01*
X43699857Y-107224714D01*
X43271285Y-107224714D01*
X43128428Y-107153285D01*
X43057000Y-107081857D01*
X42985571Y-106939000D01*
X42985571Y-106653285D01*
X43057000Y-106510428D01*
X42985571Y-104796142D02*
X43985571Y-104439000D01*
X42985571Y-104081857D01*
X43985571Y-102724714D02*
X43985571Y-103581857D01*
X43985571Y-103153285D02*
X42485571Y-103153285D01*
X42699857Y-103296142D01*
X42842714Y-103439000D01*
X42914142Y-103581857D01*
X43842714Y-102081857D02*
X43914142Y-102010428D01*
X43985571Y-102081857D01*
X43914142Y-102153285D01*
X43842714Y-102081857D01*
X43985571Y-102081857D01*
X42485571Y-101081857D02*
X42485571Y-100939000D01*
X42557000Y-100796142D01*
X42628428Y-100724714D01*
X42771285Y-100653285D01*
X43057000Y-100581857D01*
X43414142Y-100581857D01*
X43699857Y-100653285D01*
X43842714Y-100724714D01*
X43914142Y-100796142D01*
X43985571Y-100939000D01*
X43985571Y-101081857D01*
X43914142Y-101224714D01*
X43842714Y-101296142D01*
X43699857Y-101367571D01*
X43414142Y-101439000D01*
X43057000Y-101439000D01*
X42771285Y-101367571D01*
X42628428Y-101296142D01*
X42557000Y-101224714D01*
X42485571Y-101081857D01*
D13*
X174752000Y-146050000D02*
X174752000Y-153670000D01*
X163068000Y-146050000D02*
X163068000Y-153670000D01*
D10*
X163497285Y-149272523D02*
X163783000Y-149367761D01*
X164259190Y-149367761D01*
X164449666Y-149272523D01*
X164544904Y-149177285D01*
X164640142Y-148986809D01*
X164640142Y-148796333D01*
X164544904Y-148605857D01*
X164449666Y-148510619D01*
X164259190Y-148415380D01*
X163878238Y-148320142D01*
X163687761Y-148224904D01*
X163592523Y-148129666D01*
X163497285Y-147939190D01*
X163497285Y-147748714D01*
X163592523Y-147558238D01*
X163687761Y-147463000D01*
X163878238Y-147367761D01*
X164354428Y-147367761D01*
X164640142Y-147463000D01*
X165497285Y-147367761D02*
X165497285Y-148986809D01*
X165592523Y-149177285D01*
X165687761Y-149272523D01*
X165878238Y-149367761D01*
X166259190Y-149367761D01*
X166449666Y-149272523D01*
X166544904Y-149177285D01*
X166640142Y-148986809D01*
X166640142Y-147367761D01*
X167592523Y-149367761D02*
X167592523Y-147367761D01*
X168354428Y-147367761D01*
X168544904Y-147463000D01*
X168640142Y-147558238D01*
X168735380Y-147748714D01*
X168735380Y-148034428D01*
X168640142Y-148224904D01*
X168544904Y-148320142D01*
X168354428Y-148415380D01*
X167592523Y-148415380D01*
X169592523Y-149367761D02*
X169592523Y-147367761D01*
X170354428Y-147367761D01*
X170544904Y-147463000D01*
X170640142Y-147558238D01*
X170735380Y-147748714D01*
X170735380Y-148034428D01*
X170640142Y-148224904D01*
X170544904Y-148320142D01*
X170354428Y-148415380D01*
X169592523Y-148415380D01*
X172544904Y-149367761D02*
X171592523Y-149367761D01*
X171592523Y-147367761D01*
X173592523Y-148415380D02*
X173592523Y-149367761D01*
X172925857Y-147367761D02*
X173592523Y-148415380D01*
X174259190Y-147367761D01*
D13*
X50800000Y-102870000D02*
X47879000Y-102870000D01*
X50800000Y-106045000D02*
X50800000Y-102870000D01*
X146050000Y-115570000D02*
X146050000Y-118110000D01*
X140680000Y-77590000D02*
X140680000Y-75590000D01*
X148180000Y-75590000D02*
X148180000Y-77590000D01*
X148180000Y-77590000D02*
X208180000Y-77590000D01*
X208180000Y-75590000D02*
X148180000Y-75590000D01*
X208180000Y-53590000D02*
X208180000Y-75590000D01*
X38180000Y-53590000D02*
X208180000Y-53590000D01*
X38180000Y-75590000D02*
X38180000Y-53590000D01*
X140680000Y-75590000D02*
X38180000Y-75590000D01*
D10*
X165941428Y-152443571D02*
X165941428Y-150943571D01*
X166798571Y-152443571D01*
X166798571Y-150943571D01*
X171914285Y-152443571D02*
X171200000Y-152443571D01*
X171200000Y-150943571D01*
X196755000Y-102302571D02*
X197255000Y-103802571D01*
X197755000Y-102302571D01*
X199112142Y-103659714D02*
X199040714Y-103731142D01*
X198826428Y-103802571D01*
X198683571Y-103802571D01*
X198469285Y-103731142D01*
X198326428Y-103588285D01*
X198255000Y-103445428D01*
X198183571Y-103159714D01*
X198183571Y-102945428D01*
X198255000Y-102659714D01*
X198326428Y-102516857D01*
X198469285Y-102374000D01*
X198683571Y-102302571D01*
X198826428Y-102302571D01*
X199040714Y-102374000D01*
X199112142Y-102445428D01*
X200612142Y-103659714D02*
X200540714Y-103731142D01*
X200326428Y-103802571D01*
X200183571Y-103802571D01*
X199969285Y-103731142D01*
X199826428Y-103588285D01*
X199755000Y-103445428D01*
X199683571Y-103159714D01*
X199683571Y-102945428D01*
X199755000Y-102659714D01*
X199826428Y-102516857D01*
X199969285Y-102374000D01*
X200183571Y-102302571D01*
X200326428Y-102302571D01*
X200540714Y-102374000D01*
X200612142Y-102445428D01*
X198374142Y-99762571D02*
X199231285Y-99762571D01*
X198802714Y-101262571D02*
X198802714Y-99762571D01*
X199588428Y-99762571D02*
X200588428Y-101262571D01*
X200588428Y-99762571D02*
X199588428Y-101262571D01*
X199140000Y-98722571D02*
X198640000Y-98008285D01*
X198282857Y-98722571D02*
X198282857Y-97222571D01*
X198854285Y-97222571D01*
X198997142Y-97294000D01*
X199068571Y-97365428D01*
X199140000Y-97508285D01*
X199140000Y-97722571D01*
X199068571Y-97865428D01*
X198997142Y-97936857D01*
X198854285Y-98008285D01*
X198282857Y-98008285D01*
X199640000Y-97222571D02*
X200640000Y-98722571D01*
X200640000Y-97222571D02*
X199640000Y-98722571D01*
X197231142Y-89674000D02*
X197088285Y-89602571D01*
X196874000Y-89602571D01*
X196659714Y-89674000D01*
X196516857Y-89816857D01*
X196445428Y-89959714D01*
X196374000Y-90245428D01*
X196374000Y-90459714D01*
X196445428Y-90745428D01*
X196516857Y-90888285D01*
X196659714Y-91031142D01*
X196874000Y-91102571D01*
X197016857Y-91102571D01*
X197231142Y-91031142D01*
X197302571Y-90959714D01*
X197302571Y-90459714D01*
X197016857Y-90459714D01*
X197945428Y-91102571D02*
X197945428Y-89602571D01*
X198802571Y-91102571D01*
X198802571Y-89602571D01*
X199516857Y-91102571D02*
X199516857Y-89602571D01*
X199874000Y-89602571D01*
X200088285Y-89674000D01*
X200231142Y-89816857D01*
X200302571Y-89959714D01*
X200374000Y-90245428D01*
X200374000Y-90459714D01*
X200302571Y-90745428D01*
X200231142Y-90888285D01*
X200088285Y-91031142D01*
X199874000Y-91102571D01*
X199516857Y-91102571D01*
D13*
X48006000Y-118364000D02*
X47879000Y-102870000D01*
X146050000Y-118110000D02*
X48006000Y-118364000D01*
X50800000Y-115570000D02*
X146050000Y-115570000D01*
X50800000Y-106045000D02*
X50800000Y-115570000D01*
X38180000Y-153590000D02*
X208180000Y-153590000D01*
X38180000Y-77590000D02*
X38180000Y-153590000D01*
X140680000Y-77590000D02*
X38180000Y-77590000D01*
X208180000Y-77590000D02*
X208180000Y-153590000D01*
D14*
X147297000Y-96062000D02*
X146797000Y-96062000D01*
X146497000Y-96062000D02*
X145997000Y-96062000D01*
X145697000Y-96062000D02*
X145197000Y-96062000D01*
X144897000Y-96062000D02*
X144247000Y-96062000D01*
X148247000Y-96062000D02*
X147597000Y-96062000D01*
X147197000Y-96062000D02*
X147197000Y-96462000D01*
X147597000Y-96062000D02*
G75*
G02X147297000Y-96062000I-150000J0D01*
G01*
X147197000Y-96462000D02*
X147697000Y-96462000D01*
X147697000Y-96462000D02*
X147697000Y-96062000D01*
X146897000Y-96462000D02*
X146897000Y-96062000D01*
X146397000Y-96062000D02*
X146397000Y-96462000D01*
X146797000Y-96062000D02*
G75*
G02X146497000Y-96062000I-150000J0D01*
G01*
X146397000Y-96462000D02*
X146897000Y-96462000D01*
X145597000Y-96462000D02*
X146097000Y-96462000D01*
X145997000Y-96062000D02*
G75*
G02X145697000Y-96062000I-150000J0D01*
G01*
X145597000Y-96062000D02*
X145597000Y-96462000D01*
X146097000Y-96462000D02*
X146097000Y-96062000D01*
X144797000Y-96462000D02*
X145297000Y-96462000D01*
X145297000Y-96462000D02*
X145297000Y-96062000D01*
X145197000Y-96062000D02*
G75*
G02X144897000Y-96062000I-150000J0D01*
G01*
X144797000Y-96062000D02*
X144797000Y-96462000D01*
X145197000Y-98162000D02*
X145697000Y-98162000D01*
X145997000Y-98162000D02*
X146497000Y-98162000D01*
X146797000Y-98162000D02*
X147297000Y-98162000D01*
X147597000Y-98162000D02*
X148247000Y-98162000D01*
X144797000Y-97762000D02*
X144797000Y-98162000D01*
X145297000Y-98162000D02*
X145297000Y-97762000D01*
X144897000Y-98162000D02*
G75*
G02X145197000Y-98162000I150000J0D01*
G01*
X145297000Y-97762000D02*
X144797000Y-97762000D01*
X146097000Y-97762000D02*
X145597000Y-97762000D01*
X145697000Y-98162000D02*
G75*
G02X145997000Y-98162000I150000J0D01*
G01*
X146097000Y-98162000D02*
X146097000Y-97762000D01*
X145597000Y-97762000D02*
X145597000Y-98162000D01*
X146897000Y-97762000D02*
X146397000Y-97762000D01*
X146397000Y-97762000D02*
X146397000Y-98162000D01*
X146497000Y-98162000D02*
G75*
G02X146797000Y-98162000I150000J0D01*
G01*
X146897000Y-98162000D02*
X146897000Y-97762000D01*
X147297000Y-98162000D02*
G75*
G02X147597000Y-98162000I150000J0D01*
G01*
X147697000Y-97762000D02*
X147197000Y-97762000D01*
X147697000Y-98162000D02*
X147697000Y-97762000D01*
X147197000Y-97762000D02*
X147197000Y-98162000D01*
X147847000Y-96862000D02*
X147847000Y-97362000D01*
X148247000Y-96862000D02*
X147847000Y-96862000D01*
X147847000Y-97362000D02*
X148247000Y-97362000D01*
X144647000Y-96862000D02*
X144247000Y-96862000D01*
X144647000Y-97362000D02*
X144647000Y-96862000D01*
X144247000Y-97362000D02*
X144647000Y-97362000D01*
X148247000Y-96962000D02*
X148247000Y-96062000D01*
X148247000Y-97262000D02*
G75*
G02X148247000Y-96962000I0J150000D01*
G01*
X148247000Y-98162000D02*
X148247000Y-97262000D01*
X144247000Y-97262000D02*
X144247000Y-98162000D01*
X144247000Y-96962000D02*
G75*
G02X144247000Y-97262000I0J-150000D01*
G01*
X144247000Y-98162000D02*
X144897000Y-98162000D01*
X144247000Y-96062000D02*
X144247000Y-96962000D01*
D15*
X201489000Y-119193000D02*
X202819000Y-119193000D01*
X201489000Y-120523000D02*
X201489000Y-119193000D01*
X201489000Y-121793000D02*
X204149000Y-121793000D01*
X204149000Y-121793000D02*
X204149000Y-126933000D01*
X201489000Y-121793000D02*
X201489000Y-126933000D01*
X201489000Y-126933000D02*
X204149000Y-126933000D01*
X163443000Y-145635000D02*
X163843000Y-145635000D01*
X163443000Y-144995000D02*
X163443000Y-145635000D01*
X169985000Y-141327000D02*
X169590000Y-141723000D01*
X172631000Y-138681000D02*
X172251000Y-139061000D01*
X170236000Y-141609000D02*
X169856000Y-141989000D01*
X172897000Y-138947000D02*
X172502000Y-139343000D01*
X164695000Y-141616000D02*
X164589000Y-141723000D01*
X167631000Y-138681000D02*
X167524000Y-138788000D01*
X164961000Y-141882000D02*
X164855000Y-141989000D01*
X167897000Y-138947000D02*
X167790000Y-139054000D01*
X173803000Y-136275000D02*
X173803000Y-145395000D01*
X163683000Y-136275000D02*
X163683000Y-145395000D01*
X163683000Y-145395000D02*
X173803000Y-145395000D01*
X163683000Y-136275000D02*
X173803000Y-136275000D01*
X163683000Y-143835000D02*
X173803000Y-143835000D01*
X163683000Y-144935000D02*
X173803000Y-144935000D01*
X173423000Y-140335000D02*
G75*
G03X173423000Y-140335000I-2180000J0D01*
G01*
X168423000Y-140335000D02*
G75*
G03X168423000Y-140335000I-2180000J0D01*
G01*
X134995000Y-145635000D02*
X135395000Y-145635000D01*
X134995000Y-144995000D02*
X134995000Y-145635000D01*
X141537000Y-141327000D02*
X141142000Y-141723000D01*
X144183000Y-138681000D02*
X143803000Y-139061000D01*
X141788000Y-141609000D02*
X141408000Y-141989000D01*
X144449000Y-138947000D02*
X144054000Y-139343000D01*
X136247000Y-141616000D02*
X136141000Y-141723000D01*
X139183000Y-138681000D02*
X139076000Y-138788000D01*
X136513000Y-141882000D02*
X136407000Y-141989000D01*
X139449000Y-138947000D02*
X139342000Y-139054000D01*
X145355000Y-136275000D02*
X145355000Y-145395000D01*
X135235000Y-136275000D02*
X135235000Y-145395000D01*
X135235000Y-145395000D02*
X145355000Y-145395000D01*
X135235000Y-136275000D02*
X145355000Y-136275000D01*
X135235000Y-143835000D02*
X145355000Y-143835000D01*
X135235000Y-144935000D02*
X145355000Y-144935000D01*
X144975000Y-140335000D02*
G75*
G03X144975000Y-140335000I-2180000J0D01*
G01*
X139975000Y-140335000D02*
G75*
G03X139975000Y-140335000I-2180000J0D01*
G01*
X68447000Y-145635000D02*
X68847000Y-145635000D01*
X68447000Y-144995000D02*
X68447000Y-145635000D01*
X74989000Y-141327000D02*
X74594000Y-141723000D01*
X77635000Y-138681000D02*
X77255000Y-139061000D01*
X75240000Y-141609000D02*
X74860000Y-141989000D01*
X77901000Y-138947000D02*
X77506000Y-139343000D01*
X69699000Y-141616000D02*
X69593000Y-141723000D01*
X72635000Y-138681000D02*
X72528000Y-138788000D01*
X69965000Y-141882000D02*
X69859000Y-141989000D01*
X72901000Y-138947000D02*
X72794000Y-139054000D01*
X78807000Y-136275000D02*
X78807000Y-145395000D01*
X68687000Y-136275000D02*
X68687000Y-145395000D01*
X68687000Y-145395000D02*
X78807000Y-145395000D01*
X68687000Y-136275000D02*
X78807000Y-136275000D01*
X68687000Y-143835000D02*
X78807000Y-143835000D01*
X68687000Y-144935000D02*
X78807000Y-144935000D01*
X78427000Y-140335000D02*
G75*
G03X78427000Y-140335000I-2180000J0D01*
G01*
X73427000Y-140335000D02*
G75*
G03X73427000Y-140335000I-2180000J0D01*
G01*
X51810000Y-145635000D02*
X52210000Y-145635000D01*
X51810000Y-144995000D02*
X51810000Y-145635000D01*
X58352000Y-141327000D02*
X57957000Y-141723000D01*
X60998000Y-138681000D02*
X60618000Y-139061000D01*
X58603000Y-141609000D02*
X58223000Y-141989000D01*
X61264000Y-138947000D02*
X60869000Y-139343000D01*
X53062000Y-141616000D02*
X52956000Y-141723000D01*
X55998000Y-138681000D02*
X55891000Y-138788000D01*
X53328000Y-141882000D02*
X53222000Y-141989000D01*
X56264000Y-138947000D02*
X56157000Y-139054000D01*
X62170000Y-136275000D02*
X62170000Y-145395000D01*
X52050000Y-136275000D02*
X52050000Y-145395000D01*
X52050000Y-145395000D02*
X62170000Y-145395000D01*
X52050000Y-136275000D02*
X62170000Y-136275000D01*
X52050000Y-143835000D02*
X62170000Y-143835000D01*
X52050000Y-144935000D02*
X62170000Y-144935000D01*
X61790000Y-140335000D02*
G75*
G03X61790000Y-140335000I-2180000J0D01*
G01*
X56790000Y-140335000D02*
G75*
G03X56790000Y-140335000I-2180000J0D01*
G01*
X118358000Y-145635000D02*
X118758000Y-145635000D01*
X118358000Y-144995000D02*
X118358000Y-145635000D01*
X124900000Y-141327000D02*
X124505000Y-141723000D01*
X127546000Y-138681000D02*
X127166000Y-139061000D01*
X125151000Y-141609000D02*
X124771000Y-141989000D01*
X127812000Y-138947000D02*
X127417000Y-139343000D01*
X119610000Y-141616000D02*
X119504000Y-141723000D01*
X122546000Y-138681000D02*
X122439000Y-138788000D01*
X119876000Y-141882000D02*
X119770000Y-141989000D01*
X122812000Y-138947000D02*
X122705000Y-139054000D01*
X128718000Y-136275000D02*
X128718000Y-145395000D01*
X118598000Y-136275000D02*
X118598000Y-145395000D01*
X118598000Y-145395000D02*
X128718000Y-145395000D01*
X118598000Y-136275000D02*
X128718000Y-136275000D01*
X118598000Y-143835000D02*
X128718000Y-143835000D01*
X118598000Y-144935000D02*
X128718000Y-144935000D01*
X128338000Y-140335000D02*
G75*
G03X128338000Y-140335000I-2180000J0D01*
G01*
X123338000Y-140335000D02*
G75*
G03X123338000Y-140335000I-2180000J0D01*
G01*
X101721000Y-145635000D02*
X102121000Y-145635000D01*
X101721000Y-144995000D02*
X101721000Y-145635000D01*
X108263000Y-141327000D02*
X107868000Y-141723000D01*
X110909000Y-138681000D02*
X110529000Y-139061000D01*
X108514000Y-141609000D02*
X108134000Y-141989000D01*
X111175000Y-138947000D02*
X110780000Y-139343000D01*
X102973000Y-141616000D02*
X102867000Y-141723000D01*
X105909000Y-138681000D02*
X105802000Y-138788000D01*
X103239000Y-141882000D02*
X103133000Y-141989000D01*
X106175000Y-138947000D02*
X106068000Y-139054000D01*
X112081000Y-136275000D02*
X112081000Y-145395000D01*
X101961000Y-136275000D02*
X101961000Y-145395000D01*
X101961000Y-145395000D02*
X112081000Y-145395000D01*
X101961000Y-136275000D02*
X112081000Y-136275000D01*
X101961000Y-143835000D02*
X112081000Y-143835000D01*
X101961000Y-144935000D02*
X112081000Y-144935000D01*
X111701000Y-140335000D02*
G75*
G03X111701000Y-140335000I-2180000J0D01*
G01*
X106701000Y-140335000D02*
G75*
G03X106701000Y-140335000I-2180000J0D01*
G01*
X85084000Y-145635000D02*
X85484000Y-145635000D01*
X85084000Y-144995000D02*
X85084000Y-145635000D01*
X91626000Y-141327000D02*
X91231000Y-141723000D01*
X94272000Y-138681000D02*
X93892000Y-139061000D01*
X91877000Y-141609000D02*
X91497000Y-141989000D01*
X94538000Y-138947000D02*
X94143000Y-139343000D01*
X86336000Y-141616000D02*
X86230000Y-141723000D01*
X89272000Y-138681000D02*
X89165000Y-138788000D01*
X86602000Y-141882000D02*
X86496000Y-141989000D01*
X89538000Y-138947000D02*
X89431000Y-139054000D01*
X95444000Y-136275000D02*
X95444000Y-145395000D01*
X85324000Y-136275000D02*
X85324000Y-145395000D01*
X85324000Y-145395000D02*
X95444000Y-145395000D01*
X85324000Y-136275000D02*
X95444000Y-136275000D01*
X85324000Y-143835000D02*
X95444000Y-143835000D01*
X85324000Y-144935000D02*
X95444000Y-144935000D01*
X95064000Y-140335000D02*
G75*
G03X95064000Y-140335000I-2180000J0D01*
G01*
X90064000Y-140335000D02*
G75*
G03X90064000Y-140335000I-2180000J0D01*
G01*
X92043000Y-103684000D02*
X92043000Y-79684000D01*
X55043000Y-79684000D02*
X92043000Y-79684000D01*
X55043000Y-103684000D02*
X55043000Y-79684000D01*
X92043000Y-103684000D02*
X55043000Y-103684000D01*
X84430000Y-73090000D02*
X85930000Y-73090000D01*
X88430000Y-71840000D02*
X88430000Y-67340000D01*
X85930000Y-66090000D02*
X84430000Y-66090000D01*
X81930000Y-67340000D02*
X81930000Y-71840000D01*
D16*
X146675000Y-106450000D02*
X146675000Y-135450000D01*
X133875000Y-106450000D02*
X146675000Y-106450000D01*
X133875000Y-135450000D02*
X133875000Y-106450000D01*
X146675000Y-135450000D02*
X133875000Y-135450000D01*
X113140000Y-106450000D02*
X113140000Y-135450000D01*
X100340000Y-106450000D02*
X113140000Y-106450000D01*
X100340000Y-135450000D02*
X100340000Y-106450000D01*
X113140000Y-135450000D02*
X100340000Y-135450000D01*
X96630000Y-106450000D02*
X96630000Y-135450000D01*
X83830000Y-106450000D02*
X96630000Y-106450000D01*
X83830000Y-135450000D02*
X83830000Y-106450000D01*
X96630000Y-135450000D02*
X83830000Y-135450000D01*
D15*
X194250000Y-93793000D02*
X195580000Y-93793000D01*
X194250000Y-95123000D02*
X194250000Y-93793000D01*
X194250000Y-96393000D02*
X196910000Y-96393000D01*
X196910000Y-96393000D02*
X196910000Y-98993000D01*
X194250000Y-96393000D02*
X194250000Y-98993000D01*
X194250000Y-98993000D02*
X196910000Y-98993000D01*
X127525000Y-60670000D02*
X127525000Y-61135000D01*
X127525000Y-58045000D02*
X127525000Y-58510000D01*
X132339479Y-60670429D02*
G75*
G02X127830316Y-60670000I-2254479J1080429D01*
G01*
X132339479Y-58509571D02*
G75*
G03X127830316Y-58510000I-2254479J-1080429D01*
G01*
X132872815Y-60670827D02*
G75*
G02X127525000Y-61134830I-2787815J1080827D01*
G01*
X132872815Y-58509173D02*
G75*
G03X127525000Y-58045170I-2787815J-1080827D01*
G01*
X155460000Y-78133000D02*
X155460000Y-80673000D01*
X155460000Y-78133000D02*
X152920000Y-78133000D01*
X155210000Y-78383000D02*
X155210000Y-87733000D01*
X139430000Y-78383000D02*
X155210000Y-78383000D01*
X139430000Y-87733000D02*
X139430000Y-78383000D01*
X155210000Y-87733000D02*
X139430000Y-87733000D01*
X114842500Y-91917500D02*
X115467500Y-91917500D01*
X115155000Y-92230000D02*
X115155000Y-91605000D01*
X118535563Y-91365000D02*
X119600000Y-90300563D01*
X115144437Y-91365000D02*
X114080000Y-90300563D01*
X115144437Y-91365000D02*
X115780000Y-91365000D01*
X118535563Y-91365000D02*
X117900000Y-91365000D01*
X119600000Y-90300563D02*
X119600000Y-85845000D01*
X114080000Y-90300563D02*
X114080000Y-85845000D01*
X114080000Y-85845000D02*
X115780000Y-85845000D01*
X119600000Y-85845000D02*
X117900000Y-85845000D01*
X163181000Y-84068000D02*
X163181000Y-79683000D01*
X160161000Y-84068000D02*
X163181000Y-84068000D01*
X160161000Y-79683000D02*
X160161000Y-84068000D01*
D11*
X54305000Y-88075000D02*
X48205000Y-88075000D01*
X54305000Y-103575000D02*
X48205000Y-103575000D01*
X54305000Y-88075000D02*
X54305000Y-103575000D01*
X48205000Y-88075000D02*
X48205000Y-103575000D01*
D15*
X105285000Y-102875000D02*
X104185000Y-102875000D01*
X105285000Y-103145000D02*
X105285000Y-102875000D01*
X106785000Y-103145000D02*
X105285000Y-103145000D01*
X105285000Y-96515000D02*
X102455000Y-96515000D01*
X105285000Y-96245000D02*
X105285000Y-96515000D01*
X106785000Y-96245000D02*
X105285000Y-96245000D01*
D11*
X164195000Y-58450000D02*
X162670000Y-58450000D01*
X164195000Y-70075000D02*
X171945000Y-70075000D01*
X164195000Y-56925000D02*
X171945000Y-56925000D01*
X164195000Y-70075000D02*
X164195000Y-68470000D01*
X171945000Y-70075000D02*
X171945000Y-68470000D01*
X171945000Y-56925000D02*
X171945000Y-58530000D01*
X164195000Y-56925000D02*
X164195000Y-58450000D01*
D15*
X193564252Y-108637000D02*
X193041748Y-108637000D01*
X193564252Y-110057000D02*
X193041748Y-110057000D01*
X129430000Y-73090000D02*
X130930000Y-73090000D01*
X133430000Y-71840000D02*
X133430000Y-67340000D01*
X130930000Y-66090000D02*
X129430000Y-66090000D01*
X126930000Y-67340000D02*
X126930000Y-71840000D01*
X69430000Y-73090000D02*
X70930000Y-73090000D01*
X73430000Y-71840000D02*
X73430000Y-67340000D01*
X70930000Y-66090000D02*
X69430000Y-66090000D01*
X66930000Y-67340000D02*
X66930000Y-71840000D01*
X201489000Y-108017000D02*
X202819000Y-108017000D01*
X201489000Y-109347000D02*
X201489000Y-108017000D01*
X201489000Y-110617000D02*
X204149000Y-110617000D01*
X204149000Y-110617000D02*
X204149000Y-115757000D01*
X201489000Y-110617000D02*
X201489000Y-115757000D01*
X201489000Y-115757000D02*
X204149000Y-115757000D01*
D11*
X153312979Y-122584195D02*
X153312979Y-123984195D01*
X158412979Y-122584195D02*
X158412979Y-118434195D01*
X153262979Y-122584195D02*
X153262979Y-118434195D01*
X158412979Y-122584195D02*
X158267979Y-122584195D01*
X158412979Y-118434195D02*
X158267979Y-118434195D01*
X153262979Y-118434195D02*
X153407979Y-118434195D01*
X153262979Y-122584195D02*
X153312979Y-122584195D01*
X163779000Y-100935000D02*
X165154000Y-100935000D01*
X163779000Y-90810000D02*
X159629000Y-90810000D01*
X163779000Y-100960000D02*
X159629000Y-100960000D01*
X163779000Y-90810000D02*
X163779000Y-90915000D01*
X159629000Y-90810000D02*
X159629000Y-90915000D01*
X159629000Y-100960000D02*
X159629000Y-100855000D01*
X163779000Y-100960000D02*
X163779000Y-100935000D01*
D15*
X159079000Y-82294252D02*
X159079000Y-81771748D01*
X157659000Y-82294252D02*
X157659000Y-81771748D01*
X155177748Y-112470000D02*
X155700252Y-112470000D01*
X155177748Y-111050000D02*
X155700252Y-111050000D01*
X193023748Y-112597000D02*
X193546252Y-112597000D01*
X193023748Y-111177000D02*
X193546252Y-111177000D01*
X112525000Y-60670000D02*
X112525000Y-61135000D01*
X112525000Y-58045000D02*
X112525000Y-58510000D01*
X117339479Y-60670429D02*
G75*
G02X112830316Y-60670000I-2254479J1080429D01*
G01*
X117339479Y-58509571D02*
G75*
G03X112830316Y-58510000I-2254479J-1080429D01*
G01*
X117872815Y-60670827D02*
G75*
G02X112525000Y-61134830I-2787815J1080827D01*
G01*
X117872815Y-58509173D02*
G75*
G03X112525000Y-58045170I-2787815J-1080827D01*
G01*
X97525000Y-60670000D02*
X97525000Y-61135000D01*
X97525000Y-58045000D02*
X97525000Y-58510000D01*
X102339479Y-60670429D02*
G75*
G02X97830316Y-60670000I-2254479J1080429D01*
G01*
X102339479Y-58509571D02*
G75*
G03X97830316Y-58510000I-2254479J-1080429D01*
G01*
X102872815Y-60670827D02*
G75*
G02X97525000Y-61134830I-2787815J1080827D01*
G01*
X102872815Y-58509173D02*
G75*
G03X97525000Y-58045170I-2787815J-1080827D01*
G01*
X82525000Y-60670000D02*
X82525000Y-61135000D01*
X82525000Y-58045000D02*
X82525000Y-58510000D01*
X87339479Y-60670429D02*
G75*
G02X82830316Y-60670000I-2254479J1080429D01*
G01*
X87339479Y-58509571D02*
G75*
G03X82830316Y-58510000I-2254479J-1080429D01*
G01*
X87872815Y-60670827D02*
G75*
G02X82525000Y-61134830I-2787815J1080827D01*
G01*
X87872815Y-58509173D02*
G75*
G03X82525000Y-58045170I-2787815J-1080827D01*
G01*
X67525000Y-60670000D02*
X67525000Y-61135000D01*
X67525000Y-58045000D02*
X67525000Y-58510000D01*
X72339479Y-60670429D02*
G75*
G02X67830316Y-60670000I-2254479J1080429D01*
G01*
X72339479Y-58509571D02*
G75*
G03X67830316Y-58510000I-2254479J-1080429D01*
G01*
X72872815Y-60670827D02*
G75*
G02X67525000Y-61134830I-2787815J1080827D01*
G01*
X72872815Y-58509173D02*
G75*
G03X67525000Y-58045170I-2787815J-1080827D01*
G01*
X52525000Y-60670000D02*
X52525000Y-61135000D01*
X52525000Y-58045000D02*
X52525000Y-58510000D01*
X57339479Y-60670429D02*
G75*
G02X52830316Y-60670000I-2254479J1080429D01*
G01*
X57339479Y-58509571D02*
G75*
G03X52830316Y-58510000I-2254479J-1080429D01*
G01*
X57872815Y-60670827D02*
G75*
G02X52525000Y-61134830I-2787815J1080827D01*
G01*
X57872815Y-58509173D02*
G75*
G03X52525000Y-58045170I-2787815J-1080827D01*
G01*
X114430000Y-73090000D02*
X115930000Y-73090000D01*
X118430000Y-71840000D02*
X118430000Y-67340000D01*
X115930000Y-66090000D02*
X114430000Y-66090000D01*
X111930000Y-67340000D02*
X111930000Y-71840000D01*
X99430000Y-73090000D02*
X100930000Y-73090000D01*
X103430000Y-71840000D02*
X103430000Y-67340000D01*
X100930000Y-66090000D02*
X99430000Y-66090000D01*
X96930000Y-67340000D02*
X96930000Y-71840000D01*
X54430000Y-73090000D02*
X55930000Y-73090000D01*
X58430000Y-71840000D02*
X58430000Y-67340000D01*
X55930000Y-66090000D02*
X54430000Y-66090000D01*
X51930000Y-67340000D02*
X51930000Y-71840000D01*
X95548750Y-92468750D02*
X96336250Y-92468750D01*
X95942500Y-92862500D02*
X95942500Y-92075000D01*
X100135563Y-91835000D02*
X101200000Y-90770563D01*
X95444437Y-91835000D02*
X94380000Y-90770563D01*
X95444437Y-91835000D02*
X96730000Y-91835000D01*
X100135563Y-91835000D02*
X98850000Y-91835000D01*
X101200000Y-90770563D02*
X101200000Y-85015000D01*
X94380000Y-90770563D02*
X94380000Y-85015000D01*
X94380000Y-85015000D02*
X96730000Y-85015000D01*
X101200000Y-85015000D02*
X98850000Y-85015000D01*
X95548750Y-103898750D02*
X96336250Y-103898750D01*
X95942500Y-104292500D02*
X95942500Y-103505000D01*
X100135563Y-103265000D02*
X101200000Y-102200563D01*
X95444437Y-103265000D02*
X94380000Y-102200563D01*
X95444437Y-103265000D02*
X96730000Y-103265000D01*
X100135563Y-103265000D02*
X98850000Y-103265000D01*
X101200000Y-102200563D02*
X101200000Y-96445000D01*
X94380000Y-102200563D02*
X94380000Y-96445000D01*
X94380000Y-96445000D02*
X96730000Y-96445000D01*
X101200000Y-96445000D02*
X98850000Y-96445000D01*
X114842500Y-103347500D02*
X115467500Y-103347500D01*
X115155000Y-103660000D02*
X115155000Y-103035000D01*
X118535563Y-102795000D02*
X119600000Y-101730563D01*
X115144437Y-102795000D02*
X114080000Y-101730563D01*
X115144437Y-102795000D02*
X115780000Y-102795000D01*
X118535563Y-102795000D02*
X117900000Y-102795000D01*
X119600000Y-101730563D02*
X119600000Y-97275000D01*
X114080000Y-101730563D02*
X114080000Y-97275000D01*
X114080000Y-97275000D02*
X115780000Y-97275000D01*
X119600000Y-97275000D02*
X117900000Y-97275000D01*
X105285000Y-91825000D02*
X104185000Y-91825000D01*
X105285000Y-92095000D02*
X105285000Y-91825000D01*
X106785000Y-92095000D02*
X105285000Y-92095000D01*
X105285000Y-85465000D02*
X102455000Y-85465000D01*
X105285000Y-85195000D02*
X105285000Y-85465000D01*
X106785000Y-85195000D02*
X105285000Y-85195000D01*
D11*
X189704000Y-72510000D02*
X171704000Y-72510000D01*
X189704000Y-98010000D02*
X171704000Y-98010000D01*
X189704000Y-72510000D02*
X189704000Y-98010000D01*
X171704000Y-72510000D02*
X171704000Y-98010000D01*
X189704000Y-78510000D02*
X171704000Y-78510000D01*
D17*
X171081981Y-78656000D02*
G75*
G03X171081981Y-78656000I-283981J0D01*
G01*
D11*
X125575000Y-95885000D02*
G75*
G03X125575000Y-95885000I-1750000J0D01*
G01*
X125575000Y-91440000D02*
G75*
G03X125575000Y-91440000I-1750000J0D01*
G01*
X125575000Y-86995000D02*
G75*
G03X125575000Y-86995000I-1750000J0D01*
G01*
X125575000Y-100330000D02*
G75*
G03X125575000Y-100330000I-1750000J0D01*
G01*
D15*
X193546252Y-122353000D02*
X193023748Y-122353000D01*
X193546252Y-123773000D02*
X193023748Y-123773000D01*
X167184000Y-82043748D02*
X167184000Y-82566252D01*
X168604000Y-82043748D02*
X168604000Y-82566252D01*
X196036000Y-102378252D02*
X196036000Y-101855748D01*
X194616000Y-102378252D02*
X194616000Y-101855748D01*
X201489000Y-89094000D02*
X202819000Y-89094000D01*
X201489000Y-90424000D02*
X201489000Y-89094000D01*
X201489000Y-91694000D02*
X204149000Y-91694000D01*
X204149000Y-91694000D02*
X204149000Y-104454000D01*
X201489000Y-91694000D02*
X201489000Y-104454000D01*
X201489000Y-104454000D02*
X204149000Y-104454000D01*
D16*
X63610000Y-106450000D02*
X63610000Y-135450000D01*
X50810000Y-106450000D02*
X63610000Y-106450000D01*
X50810000Y-135450000D02*
X50810000Y-106450000D01*
X63610000Y-135450000D02*
X50810000Y-135450000D01*
X80120000Y-106450000D02*
X80120000Y-135450000D01*
X67320000Y-106450000D02*
X80120000Y-106450000D01*
X67320000Y-135450000D02*
X67320000Y-106450000D01*
X80120000Y-135450000D02*
X67320000Y-135450000D01*
X129904000Y-106450000D02*
X129904000Y-135450000D01*
X117104000Y-106450000D02*
X129904000Y-106450000D01*
X117104000Y-135450000D02*
X117104000Y-106450000D01*
X129904000Y-135450000D02*
X117104000Y-135450000D01*
D15*
X152525000Y-60670000D02*
X152525000Y-61135000D01*
X152525000Y-58045000D02*
X152525000Y-58510000D01*
X157339479Y-60670429D02*
G75*
G02X152830316Y-60670000I-2254479J1080429D01*
G01*
X157339479Y-58509571D02*
G75*
G03X152830316Y-58510000I-2254479J-1080429D01*
G01*
X157872815Y-60670827D02*
G75*
G02X152525000Y-61134830I-2787815J1080827D01*
G01*
X157872815Y-58509173D02*
G75*
G03X152525000Y-58045170I-2787815J-1080827D01*
G01*
X177310000Y-105674000D02*
X178770000Y-105674000D01*
X177310000Y-108834000D02*
X179470000Y-108834000D01*
X177310000Y-108834000D02*
X177310000Y-107904000D01*
X177310000Y-105674000D02*
X177310000Y-106604000D01*
X175208000Y-107440252D02*
X175208000Y-106917748D01*
X173788000Y-107440252D02*
X173788000Y-106917748D01*
X172922000Y-107440252D02*
X172922000Y-106917748D01*
X171502000Y-107440252D02*
X171502000Y-106917748D01*
X160222000Y-60069252D02*
X160222000Y-59546748D01*
X158802000Y-60069252D02*
X158802000Y-59546748D01*
X170480000Y-123615000D02*
X170480000Y-126815000D01*
X166480000Y-126815000D02*
X166480000Y-123615000D01*
X168480000Y-124465000D02*
X168480000Y-125965000D01*
X171950000Y-133315000D02*
X171950000Y-117115000D01*
X165010000Y-133315000D02*
X171950000Y-133315000D01*
X165010000Y-117115000D02*
X165010000Y-133315000D01*
X171950000Y-117115000D02*
X165010000Y-117115000D01*
X202940000Y-137160000D02*
G75*
G03X202940000Y-137160000I-6100000J0D01*
G01*
X155610267Y-108710000D02*
X155267733Y-108710000D01*
X155610267Y-109730000D02*
X155267733Y-109730000D01*
X155267733Y-113790000D02*
X155610267Y-113790000D01*
X155267733Y-114810000D02*
X155610267Y-114810000D01*
X150765500Y-93064000D02*
X153225500Y-93064000D01*
X153225500Y-93064000D02*
X153225500Y-91594000D01*
X153225500Y-91594000D02*
X150765500Y-91594000D01*
X153225500Y-93499000D02*
X150765500Y-93499000D01*
X153225500Y-94969000D02*
X153225500Y-93499000D01*
X150765500Y-94969000D02*
X153225500Y-94969000D01*
X150765500Y-96874000D02*
X153225500Y-96874000D01*
X153225500Y-96874000D02*
X153225500Y-95404000D01*
X153225500Y-95404000D02*
X150765500Y-95404000D01*
X153225500Y-97309000D02*
X150765500Y-97309000D01*
X153225500Y-98779000D02*
X153225500Y-97309000D01*
X150765500Y-98779000D02*
X153225500Y-98779000D01*
X150765500Y-100684000D02*
X153225500Y-100684000D01*
X153225500Y-100684000D02*
X153225500Y-99214000D01*
X153225500Y-99214000D02*
X150765500Y-99214000D01*
X153225500Y-101119000D02*
X150765500Y-101119000D01*
X153225500Y-102589000D02*
X153225500Y-101119000D01*
X150765500Y-102589000D02*
X153225500Y-102589000D01*
D11*
X145556523Y-95064380D02*
X145223190Y-94588190D01*
X144985095Y-95064380D02*
X144985095Y-94064380D01*
X145366047Y-94064380D01*
X145461285Y-94112000D01*
X145508904Y-94159619D01*
X145556523Y-94254857D01*
X145556523Y-94397714D01*
X145508904Y-94492952D01*
X145461285Y-94540571D01*
X145366047Y-94588190D01*
X144985095Y-94588190D01*
X145985095Y-95064380D02*
X145985095Y-94064380D01*
X146556523Y-95064380D01*
X146556523Y-94064380D01*
X147556523Y-95064380D02*
X146985095Y-95064380D01*
X147270809Y-95064380D02*
X147270809Y-94064380D01*
X147175571Y-94207238D01*
X147080333Y-94302476D01*
X146985095Y-94350095D01*
X202009476Y-127595380D02*
X202009476Y-128309666D01*
X201961857Y-128452523D01*
X201866619Y-128547761D01*
X201723761Y-128595380D01*
X201628523Y-128595380D01*
X203009476Y-128595380D02*
X202438047Y-128595380D01*
X202723761Y-128595380D02*
X202723761Y-127595380D01*
X202628523Y-127738238D01*
X202533285Y-127833476D01*
X202438047Y-127881095D01*
X203866619Y-127928714D02*
X203866619Y-128595380D01*
X203628523Y-127547761D02*
X203390428Y-128262047D01*
X204009476Y-128262047D01*
X161591666Y-139787380D02*
X161591666Y-140501666D01*
X161544047Y-140644523D01*
X161448809Y-140739761D01*
X161305952Y-140787380D01*
X161210714Y-140787380D01*
X162210714Y-140215952D02*
X162115476Y-140168333D01*
X162067857Y-140120714D01*
X162020238Y-140025476D01*
X162020238Y-139977857D01*
X162067857Y-139882619D01*
X162115476Y-139835000D01*
X162210714Y-139787380D01*
X162401190Y-139787380D01*
X162496428Y-139835000D01*
X162544047Y-139882619D01*
X162591666Y-139977857D01*
X162591666Y-140025476D01*
X162544047Y-140120714D01*
X162496428Y-140168333D01*
X162401190Y-140215952D01*
X162210714Y-140215952D01*
X162115476Y-140263571D01*
X162067857Y-140311190D01*
X162020238Y-140406428D01*
X162020238Y-140596904D01*
X162067857Y-140692142D01*
X162115476Y-140739761D01*
X162210714Y-140787380D01*
X162401190Y-140787380D01*
X162496428Y-140739761D01*
X162544047Y-140692142D01*
X162591666Y-140596904D01*
X162591666Y-140406428D01*
X162544047Y-140311190D01*
X162496428Y-140263571D01*
X162401190Y-140215952D01*
X133651666Y-139787380D02*
X133651666Y-140501666D01*
X133604047Y-140644523D01*
X133508809Y-140739761D01*
X133365952Y-140787380D01*
X133270714Y-140787380D01*
X134556428Y-139787380D02*
X134365952Y-139787380D01*
X134270714Y-139835000D01*
X134223095Y-139882619D01*
X134127857Y-140025476D01*
X134080238Y-140215952D01*
X134080238Y-140596904D01*
X134127857Y-140692142D01*
X134175476Y-140739761D01*
X134270714Y-140787380D01*
X134461190Y-140787380D01*
X134556428Y-140739761D01*
X134604047Y-140692142D01*
X134651666Y-140596904D01*
X134651666Y-140358809D01*
X134604047Y-140263571D01*
X134556428Y-140215952D01*
X134461190Y-140168333D01*
X134270714Y-140168333D01*
X134175476Y-140215952D01*
X134127857Y-140263571D01*
X134080238Y-140358809D01*
X66976666Y-139787380D02*
X66976666Y-140501666D01*
X66929047Y-140644523D01*
X66833809Y-140739761D01*
X66690952Y-140787380D01*
X66595714Y-140787380D01*
X67405238Y-139882619D02*
X67452857Y-139835000D01*
X67548095Y-139787380D01*
X67786190Y-139787380D01*
X67881428Y-139835000D01*
X67929047Y-139882619D01*
X67976666Y-139977857D01*
X67976666Y-140073095D01*
X67929047Y-140215952D01*
X67357619Y-140787380D01*
X67976666Y-140787380D01*
X50466666Y-139787380D02*
X50466666Y-140501666D01*
X50419047Y-140644523D01*
X50323809Y-140739761D01*
X50180952Y-140787380D01*
X50085714Y-140787380D01*
X51466666Y-140787380D02*
X50895238Y-140787380D01*
X51180952Y-140787380D02*
X51180952Y-139787380D01*
X51085714Y-139930238D01*
X50990476Y-140025476D01*
X50895238Y-140073095D01*
X117141666Y-139787380D02*
X117141666Y-140501666D01*
X117094047Y-140644523D01*
X116998809Y-140739761D01*
X116855952Y-140787380D01*
X116760714Y-140787380D01*
X118094047Y-139787380D02*
X117617857Y-139787380D01*
X117570238Y-140263571D01*
X117617857Y-140215952D01*
X117713095Y-140168333D01*
X117951190Y-140168333D01*
X118046428Y-140215952D01*
X118094047Y-140263571D01*
X118141666Y-140358809D01*
X118141666Y-140596904D01*
X118094047Y-140692142D01*
X118046428Y-140739761D01*
X117951190Y-140787380D01*
X117713095Y-140787380D01*
X117617857Y-140739761D01*
X117570238Y-140692142D01*
X99996666Y-139787380D02*
X99996666Y-140501666D01*
X99949047Y-140644523D01*
X99853809Y-140739761D01*
X99710952Y-140787380D01*
X99615714Y-140787380D01*
X100901428Y-140120714D02*
X100901428Y-140787380D01*
X100663333Y-139739761D02*
X100425238Y-140454047D01*
X101044285Y-140454047D01*
X83486666Y-139787380D02*
X83486666Y-140501666D01*
X83439047Y-140644523D01*
X83343809Y-140739761D01*
X83200952Y-140787380D01*
X83105714Y-140787380D01*
X83867619Y-139787380D02*
X84486666Y-139787380D01*
X84153333Y-140168333D01*
X84296190Y-140168333D01*
X84391428Y-140215952D01*
X84439047Y-140263571D01*
X84486666Y-140358809D01*
X84486666Y-140596904D01*
X84439047Y-140692142D01*
X84391428Y-140739761D01*
X84296190Y-140787380D01*
X84010476Y-140787380D01*
X83915238Y-140739761D01*
X83867619Y-140692142D01*
X56213476Y-78446380D02*
X56546809Y-79446380D01*
X56880142Y-78446380D01*
X57737285Y-79446380D02*
X57165857Y-79446380D01*
X57451571Y-79446380D02*
X57451571Y-78446380D01*
X57356333Y-78589238D01*
X57261095Y-78684476D01*
X57165857Y-78732095D01*
X90469761Y-70923333D02*
X90517380Y-70780476D01*
X90517380Y-70542380D01*
X90469761Y-70447142D01*
X90422142Y-70399523D01*
X90326904Y-70351904D01*
X90231666Y-70351904D01*
X90136428Y-70399523D01*
X90088809Y-70447142D01*
X90041190Y-70542380D01*
X89993571Y-70732857D01*
X89945952Y-70828095D01*
X89898333Y-70875714D01*
X89803095Y-70923333D01*
X89707857Y-70923333D01*
X89612619Y-70875714D01*
X89565000Y-70828095D01*
X89517380Y-70732857D01*
X89517380Y-70494761D01*
X89565000Y-70351904D01*
X89517380Y-70018571D02*
X90517380Y-69780476D01*
X89803095Y-69590000D01*
X90517380Y-69399523D01*
X89517380Y-69161428D01*
X89850714Y-68351904D02*
X90517380Y-68351904D01*
X89469761Y-68590000D02*
X90184047Y-68828095D01*
X90184047Y-68209047D01*
X148177380Y-120938095D02*
X147177380Y-120938095D01*
X148177380Y-120366666D02*
X147605952Y-120795238D01*
X147177380Y-120366666D02*
X147748809Y-120938095D01*
X147177380Y-119509523D02*
X147177380Y-119700000D01*
X147225000Y-119795238D01*
X147272619Y-119842857D01*
X147415476Y-119938095D01*
X147605952Y-119985714D01*
X147986904Y-119985714D01*
X148082142Y-119938095D01*
X148129761Y-119890476D01*
X148177380Y-119795238D01*
X148177380Y-119604761D01*
X148129761Y-119509523D01*
X148082142Y-119461904D01*
X147986904Y-119414285D01*
X147748809Y-119414285D01*
X147653571Y-119461904D01*
X147605952Y-119509523D01*
X147558333Y-119604761D01*
X147558333Y-119795238D01*
X147605952Y-119890476D01*
X147653571Y-119938095D01*
X147748809Y-119985714D01*
X114642380Y-120938095D02*
X113642380Y-120938095D01*
X114642380Y-120366666D02*
X114070952Y-120795238D01*
X113642380Y-120366666D02*
X114213809Y-120938095D01*
X113975714Y-119509523D02*
X114642380Y-119509523D01*
X113594761Y-119747619D02*
X114309047Y-119985714D01*
X114309047Y-119366666D01*
X98132380Y-120938095D02*
X97132380Y-120938095D01*
X98132380Y-120366666D02*
X97560952Y-120795238D01*
X97132380Y-120366666D02*
X97703809Y-120938095D01*
X97132380Y-120033333D02*
X97132380Y-119414285D01*
X97513333Y-119747619D01*
X97513333Y-119604761D01*
X97560952Y-119509523D01*
X97608571Y-119461904D01*
X97703809Y-119414285D01*
X97941904Y-119414285D01*
X98037142Y-119461904D01*
X98084761Y-119509523D01*
X98132380Y-119604761D01*
X98132380Y-119890476D01*
X98084761Y-119985714D01*
X98037142Y-120033333D01*
X194770476Y-91908380D02*
X194770476Y-92622666D01*
X194722857Y-92765523D01*
X194627619Y-92860761D01*
X194484761Y-92908380D01*
X194389523Y-92908380D01*
X195770476Y-92908380D02*
X195199047Y-92908380D01*
X195484761Y-92908380D02*
X195484761Y-91908380D01*
X195389523Y-92051238D01*
X195294285Y-92146476D01*
X195199047Y-92194095D01*
X196103809Y-91908380D02*
X196722857Y-91908380D01*
X196389523Y-92289333D01*
X196532380Y-92289333D01*
X196627619Y-92336952D01*
X196675238Y-92384571D01*
X196722857Y-92479809D01*
X196722857Y-92717904D01*
X196675238Y-92813142D01*
X196627619Y-92860761D01*
X196532380Y-92908380D01*
X196246666Y-92908380D01*
X196151428Y-92860761D01*
X196103809Y-92813142D01*
X133791904Y-59892380D02*
X133791904Y-58892380D01*
X134030000Y-58892380D01*
X134172857Y-58940000D01*
X134268095Y-59035238D01*
X134315714Y-59130476D01*
X134363333Y-59320952D01*
X134363333Y-59463809D01*
X134315714Y-59654285D01*
X134268095Y-59749523D01*
X134172857Y-59844761D01*
X134030000Y-59892380D01*
X133791904Y-59892380D01*
X135315714Y-59892380D02*
X134744285Y-59892380D01*
X135030000Y-59892380D02*
X135030000Y-58892380D01*
X134934761Y-59035238D01*
X134839523Y-59130476D01*
X134744285Y-59178095D01*
X139779476Y-88098380D02*
X139779476Y-88812666D01*
X139731857Y-88955523D01*
X139636619Y-89050761D01*
X139493761Y-89098380D01*
X139398523Y-89098380D01*
X140779476Y-89098380D02*
X140208047Y-89098380D01*
X140493761Y-89098380D02*
X140493761Y-88098380D01*
X140398523Y-88241238D01*
X140303285Y-88336476D01*
X140208047Y-88384095D01*
X141731857Y-89098380D02*
X141160428Y-89098380D01*
X141446142Y-89098380D02*
X141446142Y-88098380D01*
X141350904Y-88241238D01*
X141255666Y-88336476D01*
X141160428Y-88384095D01*
X116673333Y-84177142D02*
X116625714Y-84224761D01*
X116482857Y-84272380D01*
X116387619Y-84272380D01*
X116244761Y-84224761D01*
X116149523Y-84129523D01*
X116101904Y-84034285D01*
X116054285Y-83843809D01*
X116054285Y-83700952D01*
X116101904Y-83510476D01*
X116149523Y-83415238D01*
X116244761Y-83320000D01*
X116387619Y-83272380D01*
X116482857Y-83272380D01*
X116625714Y-83320000D01*
X116673333Y-83367619D01*
X117006666Y-83272380D02*
X117673333Y-83272380D01*
X117244761Y-84272380D01*
X161504333Y-85245142D02*
X161456714Y-85292761D01*
X161313857Y-85340380D01*
X161218619Y-85340380D01*
X161075761Y-85292761D01*
X160980523Y-85197523D01*
X160932904Y-85102285D01*
X160885285Y-84911809D01*
X160885285Y-84768952D01*
X160932904Y-84578476D01*
X160980523Y-84483238D01*
X161075761Y-84388000D01*
X161218619Y-84340380D01*
X161313857Y-84340380D01*
X161456714Y-84388000D01*
X161504333Y-84435619D01*
X162361476Y-84673714D02*
X162361476Y-85340380D01*
X162123380Y-84292761D02*
X161885285Y-85007047D01*
X162504333Y-85007047D01*
X50712761Y-87320380D02*
X50379428Y-86844190D01*
X50141333Y-87320380D02*
X50141333Y-86320380D01*
X50522285Y-86320380D01*
X50617523Y-86368000D01*
X50665142Y-86415619D01*
X50712761Y-86510857D01*
X50712761Y-86653714D01*
X50665142Y-86748952D01*
X50617523Y-86796571D01*
X50522285Y-86844190D01*
X50141333Y-86844190D01*
X50998476Y-86320380D02*
X51331809Y-87320380D01*
X51665142Y-86320380D01*
X52522285Y-87320380D02*
X51950857Y-87320380D01*
X52236571Y-87320380D02*
X52236571Y-86320380D01*
X52141333Y-86463238D01*
X52046095Y-86558476D01*
X51950857Y-86606095D01*
X108508095Y-103592380D02*
X108508095Y-104401904D01*
X108555714Y-104497142D01*
X108603333Y-104544761D01*
X108698571Y-104592380D01*
X108889047Y-104592380D01*
X108984285Y-104544761D01*
X109031904Y-104497142D01*
X109079523Y-104401904D01*
X109079523Y-103592380D01*
X109460476Y-103592380D02*
X110079523Y-103592380D01*
X109746190Y-103973333D01*
X109889047Y-103973333D01*
X109984285Y-104020952D01*
X110031904Y-104068571D01*
X110079523Y-104163809D01*
X110079523Y-104401904D01*
X110031904Y-104497142D01*
X109984285Y-104544761D01*
X109889047Y-104592380D01*
X109603333Y-104592380D01*
X109508095Y-104544761D01*
X109460476Y-104497142D01*
X167308095Y-55452380D02*
X167308095Y-56261904D01*
X167355714Y-56357142D01*
X167403333Y-56404761D01*
X167498571Y-56452380D01*
X167689047Y-56452380D01*
X167784285Y-56404761D01*
X167831904Y-56357142D01*
X167879523Y-56261904D01*
X167879523Y-55452380D01*
X168784285Y-55452380D02*
X168593809Y-55452380D01*
X168498571Y-55500000D01*
X168450952Y-55547619D01*
X168355714Y-55690476D01*
X168308095Y-55880952D01*
X168308095Y-56261904D01*
X168355714Y-56357142D01*
X168403333Y-56404761D01*
X168498571Y-56452380D01*
X168689047Y-56452380D01*
X168784285Y-56404761D01*
X168831904Y-56357142D01*
X168879523Y-56261904D01*
X168879523Y-56023809D01*
X168831904Y-55928571D01*
X168784285Y-55880952D01*
X168689047Y-55833333D01*
X168498571Y-55833333D01*
X168403333Y-55880952D01*
X168355714Y-55928571D01*
X168308095Y-56023809D01*
X190079333Y-109799380D02*
X189746000Y-109323190D01*
X189507904Y-109799380D02*
X189507904Y-108799380D01*
X189888857Y-108799380D01*
X189984095Y-108847000D01*
X190031714Y-108894619D01*
X190079333Y-108989857D01*
X190079333Y-109132714D01*
X190031714Y-109227952D01*
X189984095Y-109275571D01*
X189888857Y-109323190D01*
X189507904Y-109323190D01*
X190412666Y-108799380D02*
X191031714Y-108799380D01*
X190698380Y-109180333D01*
X190841238Y-109180333D01*
X190936476Y-109227952D01*
X190984095Y-109275571D01*
X191031714Y-109370809D01*
X191031714Y-109608904D01*
X190984095Y-109704142D01*
X190936476Y-109751761D01*
X190841238Y-109799380D01*
X190555523Y-109799380D01*
X190460285Y-109751761D01*
X190412666Y-109704142D01*
X135469761Y-70923333D02*
X135517380Y-70780476D01*
X135517380Y-70542380D01*
X135469761Y-70447142D01*
X135422142Y-70399523D01*
X135326904Y-70351904D01*
X135231666Y-70351904D01*
X135136428Y-70399523D01*
X135088809Y-70447142D01*
X135041190Y-70542380D01*
X134993571Y-70732857D01*
X134945952Y-70828095D01*
X134898333Y-70875714D01*
X134803095Y-70923333D01*
X134707857Y-70923333D01*
X134612619Y-70875714D01*
X134565000Y-70828095D01*
X134517380Y-70732857D01*
X134517380Y-70494761D01*
X134565000Y-70351904D01*
X134517380Y-70018571D02*
X135517380Y-69780476D01*
X134803095Y-69590000D01*
X135517380Y-69399523D01*
X134517380Y-69161428D01*
X135517380Y-68256666D02*
X135517380Y-68828095D01*
X135517380Y-68542380D02*
X134517380Y-68542380D01*
X134660238Y-68637619D01*
X134755476Y-68732857D01*
X134803095Y-68828095D01*
X75469761Y-70923333D02*
X75517380Y-70780476D01*
X75517380Y-70542380D01*
X75469761Y-70447142D01*
X75422142Y-70399523D01*
X75326904Y-70351904D01*
X75231666Y-70351904D01*
X75136428Y-70399523D01*
X75088809Y-70447142D01*
X75041190Y-70542380D01*
X74993571Y-70732857D01*
X74945952Y-70828095D01*
X74898333Y-70875714D01*
X74803095Y-70923333D01*
X74707857Y-70923333D01*
X74612619Y-70875714D01*
X74565000Y-70828095D01*
X74517380Y-70732857D01*
X74517380Y-70494761D01*
X74565000Y-70351904D01*
X74517380Y-70018571D02*
X75517380Y-69780476D01*
X74803095Y-69590000D01*
X75517380Y-69399523D01*
X74517380Y-69161428D01*
X74517380Y-68304285D02*
X74517380Y-68780476D01*
X74993571Y-68828095D01*
X74945952Y-68780476D01*
X74898333Y-68685238D01*
X74898333Y-68447142D01*
X74945952Y-68351904D01*
X74993571Y-68304285D01*
X75088809Y-68256666D01*
X75326904Y-68256666D01*
X75422142Y-68304285D01*
X75469761Y-68351904D01*
X75517380Y-68447142D01*
X75517380Y-68685238D01*
X75469761Y-68780476D01*
X75422142Y-68828095D01*
X202485666Y-116546380D02*
X202485666Y-117260666D01*
X202438047Y-117403523D01*
X202342809Y-117498761D01*
X202199952Y-117546380D01*
X202104714Y-117546380D01*
X203009476Y-117546380D02*
X203199952Y-117546380D01*
X203295190Y-117498761D01*
X203342809Y-117451142D01*
X203438047Y-117308285D01*
X203485666Y-117117809D01*
X203485666Y-116736857D01*
X203438047Y-116641619D01*
X203390428Y-116594000D01*
X203295190Y-116546380D01*
X203104714Y-116546380D01*
X203009476Y-116594000D01*
X202961857Y-116641619D01*
X202914238Y-116736857D01*
X202914238Y-116974952D01*
X202961857Y-117070190D01*
X203009476Y-117117809D01*
X203104714Y-117165428D01*
X203295190Y-117165428D01*
X203390428Y-117117809D01*
X203438047Y-117070190D01*
X203485666Y-116974952D01*
X155448095Y-124547380D02*
X155448095Y-125356904D01*
X155495714Y-125452142D01*
X155543333Y-125499761D01*
X155638571Y-125547380D01*
X155829047Y-125547380D01*
X155924285Y-125499761D01*
X155971904Y-125452142D01*
X156019523Y-125356904D01*
X156019523Y-124547380D01*
X156448095Y-124642619D02*
X156495714Y-124595000D01*
X156590952Y-124547380D01*
X156829047Y-124547380D01*
X156924285Y-124595000D01*
X156971904Y-124642619D01*
X157019523Y-124737857D01*
X157019523Y-124833095D01*
X156971904Y-124975952D01*
X156400476Y-125547380D01*
X157019523Y-125547380D01*
X160942095Y-88987380D02*
X160942095Y-89796904D01*
X160989714Y-89892142D01*
X161037333Y-89939761D01*
X161132571Y-89987380D01*
X161323047Y-89987380D01*
X161418285Y-89939761D01*
X161465904Y-89892142D01*
X161513523Y-89796904D01*
X161513523Y-88987380D01*
X162418285Y-89320714D02*
X162418285Y-89987380D01*
X162180190Y-88939761D02*
X161942095Y-89654047D01*
X162561142Y-89654047D01*
X156170333Y-83778142D02*
X156122714Y-83825761D01*
X155979857Y-83873380D01*
X155884619Y-83873380D01*
X155741761Y-83825761D01*
X155646523Y-83730523D01*
X155598904Y-83635285D01*
X155551285Y-83444809D01*
X155551285Y-83301952D01*
X155598904Y-83111476D01*
X155646523Y-83016238D01*
X155741761Y-82921000D01*
X155884619Y-82873380D01*
X155979857Y-82873380D01*
X156122714Y-82921000D01*
X156170333Y-82968619D01*
X156503666Y-82873380D02*
X157122714Y-82873380D01*
X156789380Y-83254333D01*
X156932238Y-83254333D01*
X157027476Y-83301952D01*
X157075095Y-83349571D01*
X157122714Y-83444809D01*
X157122714Y-83682904D01*
X157075095Y-83778142D01*
X157027476Y-83825761D01*
X156932238Y-83873380D01*
X156646523Y-83873380D01*
X156551285Y-83825761D01*
X156503666Y-83778142D01*
X158202333Y-112212380D02*
X157869000Y-111736190D01*
X157630904Y-112212380D02*
X157630904Y-111212380D01*
X158011857Y-111212380D01*
X158107095Y-111260000D01*
X158154714Y-111307619D01*
X158202333Y-111402857D01*
X158202333Y-111545714D01*
X158154714Y-111640952D01*
X158107095Y-111688571D01*
X158011857Y-111736190D01*
X157630904Y-111736190D01*
X159154714Y-112212380D02*
X158583285Y-112212380D01*
X158869000Y-112212380D02*
X158869000Y-111212380D01*
X158773761Y-111355238D01*
X158678523Y-111450476D01*
X158583285Y-111498095D01*
X190079333Y-112339380D02*
X189746000Y-111863190D01*
X189507904Y-112339380D02*
X189507904Y-111339380D01*
X189888857Y-111339380D01*
X189984095Y-111387000D01*
X190031714Y-111434619D01*
X190079333Y-111529857D01*
X190079333Y-111672714D01*
X190031714Y-111767952D01*
X189984095Y-111815571D01*
X189888857Y-111863190D01*
X189507904Y-111863190D01*
X190460285Y-111434619D02*
X190507904Y-111387000D01*
X190603142Y-111339380D01*
X190841238Y-111339380D01*
X190936476Y-111387000D01*
X190984095Y-111434619D01*
X191031714Y-111529857D01*
X191031714Y-111625095D01*
X190984095Y-111767952D01*
X190412666Y-112339380D01*
X191031714Y-112339380D01*
X118791904Y-59892380D02*
X118791904Y-58892380D01*
X119030000Y-58892380D01*
X119172857Y-58940000D01*
X119268095Y-59035238D01*
X119315714Y-59130476D01*
X119363333Y-59320952D01*
X119363333Y-59463809D01*
X119315714Y-59654285D01*
X119268095Y-59749523D01*
X119172857Y-59844761D01*
X119030000Y-59892380D01*
X118791904Y-59892380D01*
X119744285Y-58987619D02*
X119791904Y-58940000D01*
X119887142Y-58892380D01*
X120125238Y-58892380D01*
X120220476Y-58940000D01*
X120268095Y-58987619D01*
X120315714Y-59082857D01*
X120315714Y-59178095D01*
X120268095Y-59320952D01*
X119696666Y-59892380D01*
X120315714Y-59892380D01*
X103791904Y-59892380D02*
X103791904Y-58892380D01*
X104030000Y-58892380D01*
X104172857Y-58940000D01*
X104268095Y-59035238D01*
X104315714Y-59130476D01*
X104363333Y-59320952D01*
X104363333Y-59463809D01*
X104315714Y-59654285D01*
X104268095Y-59749523D01*
X104172857Y-59844761D01*
X104030000Y-59892380D01*
X103791904Y-59892380D01*
X104696666Y-58892380D02*
X105315714Y-58892380D01*
X104982380Y-59273333D01*
X105125238Y-59273333D01*
X105220476Y-59320952D01*
X105268095Y-59368571D01*
X105315714Y-59463809D01*
X105315714Y-59701904D01*
X105268095Y-59797142D01*
X105220476Y-59844761D01*
X105125238Y-59892380D01*
X104839523Y-59892380D01*
X104744285Y-59844761D01*
X104696666Y-59797142D01*
X88791904Y-59892380D02*
X88791904Y-58892380D01*
X89030000Y-58892380D01*
X89172857Y-58940000D01*
X89268095Y-59035238D01*
X89315714Y-59130476D01*
X89363333Y-59320952D01*
X89363333Y-59463809D01*
X89315714Y-59654285D01*
X89268095Y-59749523D01*
X89172857Y-59844761D01*
X89030000Y-59892380D01*
X88791904Y-59892380D01*
X90220476Y-59225714D02*
X90220476Y-59892380D01*
X89982380Y-58844761D02*
X89744285Y-59559047D01*
X90363333Y-59559047D01*
X73791904Y-59892380D02*
X73791904Y-58892380D01*
X74030000Y-58892380D01*
X74172857Y-58940000D01*
X74268095Y-59035238D01*
X74315714Y-59130476D01*
X74363333Y-59320952D01*
X74363333Y-59463809D01*
X74315714Y-59654285D01*
X74268095Y-59749523D01*
X74172857Y-59844761D01*
X74030000Y-59892380D01*
X73791904Y-59892380D01*
X75268095Y-58892380D02*
X74791904Y-58892380D01*
X74744285Y-59368571D01*
X74791904Y-59320952D01*
X74887142Y-59273333D01*
X75125238Y-59273333D01*
X75220476Y-59320952D01*
X75268095Y-59368571D01*
X75315714Y-59463809D01*
X75315714Y-59701904D01*
X75268095Y-59797142D01*
X75220476Y-59844761D01*
X75125238Y-59892380D01*
X74887142Y-59892380D01*
X74791904Y-59844761D01*
X74744285Y-59797142D01*
X58791904Y-59892380D02*
X58791904Y-58892380D01*
X59030000Y-58892380D01*
X59172857Y-58940000D01*
X59268095Y-59035238D01*
X59315714Y-59130476D01*
X59363333Y-59320952D01*
X59363333Y-59463809D01*
X59315714Y-59654285D01*
X59268095Y-59749523D01*
X59172857Y-59844761D01*
X59030000Y-59892380D01*
X58791904Y-59892380D01*
X60220476Y-58892380D02*
X60030000Y-58892380D01*
X59934761Y-58940000D01*
X59887142Y-58987619D01*
X59791904Y-59130476D01*
X59744285Y-59320952D01*
X59744285Y-59701904D01*
X59791904Y-59797142D01*
X59839523Y-59844761D01*
X59934761Y-59892380D01*
X60125238Y-59892380D01*
X60220476Y-59844761D01*
X60268095Y-59797142D01*
X60315714Y-59701904D01*
X60315714Y-59463809D01*
X60268095Y-59368571D01*
X60220476Y-59320952D01*
X60125238Y-59273333D01*
X59934761Y-59273333D01*
X59839523Y-59320952D01*
X59791904Y-59368571D01*
X59744285Y-59463809D01*
X120469761Y-70923333D02*
X120517380Y-70780476D01*
X120517380Y-70542380D01*
X120469761Y-70447142D01*
X120422142Y-70399523D01*
X120326904Y-70351904D01*
X120231666Y-70351904D01*
X120136428Y-70399523D01*
X120088809Y-70447142D01*
X120041190Y-70542380D01*
X119993571Y-70732857D01*
X119945952Y-70828095D01*
X119898333Y-70875714D01*
X119803095Y-70923333D01*
X119707857Y-70923333D01*
X119612619Y-70875714D01*
X119565000Y-70828095D01*
X119517380Y-70732857D01*
X119517380Y-70494761D01*
X119565000Y-70351904D01*
X119517380Y-70018571D02*
X120517380Y-69780476D01*
X119803095Y-69590000D01*
X120517380Y-69399523D01*
X119517380Y-69161428D01*
X119612619Y-68828095D02*
X119565000Y-68780476D01*
X119517380Y-68685238D01*
X119517380Y-68447142D01*
X119565000Y-68351904D01*
X119612619Y-68304285D01*
X119707857Y-68256666D01*
X119803095Y-68256666D01*
X119945952Y-68304285D01*
X120517380Y-68875714D01*
X120517380Y-68256666D01*
X105469761Y-70923333D02*
X105517380Y-70780476D01*
X105517380Y-70542380D01*
X105469761Y-70447142D01*
X105422142Y-70399523D01*
X105326904Y-70351904D01*
X105231666Y-70351904D01*
X105136428Y-70399523D01*
X105088809Y-70447142D01*
X105041190Y-70542380D01*
X104993571Y-70732857D01*
X104945952Y-70828095D01*
X104898333Y-70875714D01*
X104803095Y-70923333D01*
X104707857Y-70923333D01*
X104612619Y-70875714D01*
X104565000Y-70828095D01*
X104517380Y-70732857D01*
X104517380Y-70494761D01*
X104565000Y-70351904D01*
X104517380Y-70018571D02*
X105517380Y-69780476D01*
X104803095Y-69590000D01*
X105517380Y-69399523D01*
X104517380Y-69161428D01*
X104517380Y-68875714D02*
X104517380Y-68256666D01*
X104898333Y-68590000D01*
X104898333Y-68447142D01*
X104945952Y-68351904D01*
X104993571Y-68304285D01*
X105088809Y-68256666D01*
X105326904Y-68256666D01*
X105422142Y-68304285D01*
X105469761Y-68351904D01*
X105517380Y-68447142D01*
X105517380Y-68732857D01*
X105469761Y-68828095D01*
X105422142Y-68875714D01*
X60469761Y-70923333D02*
X60517380Y-70780476D01*
X60517380Y-70542380D01*
X60469761Y-70447142D01*
X60422142Y-70399523D01*
X60326904Y-70351904D01*
X60231666Y-70351904D01*
X60136428Y-70399523D01*
X60088809Y-70447142D01*
X60041190Y-70542380D01*
X59993571Y-70732857D01*
X59945952Y-70828095D01*
X59898333Y-70875714D01*
X59803095Y-70923333D01*
X59707857Y-70923333D01*
X59612619Y-70875714D01*
X59565000Y-70828095D01*
X59517380Y-70732857D01*
X59517380Y-70494761D01*
X59565000Y-70351904D01*
X59517380Y-70018571D02*
X60517380Y-69780476D01*
X59803095Y-69590000D01*
X60517380Y-69399523D01*
X59517380Y-69161428D01*
X59517380Y-68351904D02*
X59517380Y-68542380D01*
X59565000Y-68637619D01*
X59612619Y-68685238D01*
X59755476Y-68780476D01*
X59945952Y-68828095D01*
X60326904Y-68828095D01*
X60422142Y-68780476D01*
X60469761Y-68732857D01*
X60517380Y-68637619D01*
X60517380Y-68447142D01*
X60469761Y-68351904D01*
X60422142Y-68304285D01*
X60326904Y-68256666D01*
X60088809Y-68256666D01*
X59993571Y-68304285D01*
X59945952Y-68351904D01*
X59898333Y-68447142D01*
X59898333Y-68637619D01*
X59945952Y-68732857D01*
X59993571Y-68780476D01*
X60088809Y-68828095D01*
X97623333Y-82907142D02*
X97575714Y-82954761D01*
X97432857Y-83002380D01*
X97337619Y-83002380D01*
X97194761Y-82954761D01*
X97099523Y-82859523D01*
X97051904Y-82764285D01*
X97004285Y-82573809D01*
X97004285Y-82430952D01*
X97051904Y-82240476D01*
X97099523Y-82145238D01*
X97194761Y-82050000D01*
X97337619Y-82002380D01*
X97432857Y-82002380D01*
X97575714Y-82050000D01*
X97623333Y-82097619D01*
X98528095Y-82002380D02*
X98051904Y-82002380D01*
X98004285Y-82478571D01*
X98051904Y-82430952D01*
X98147142Y-82383333D01*
X98385238Y-82383333D01*
X98480476Y-82430952D01*
X98528095Y-82478571D01*
X98575714Y-82573809D01*
X98575714Y-82811904D01*
X98528095Y-82907142D01*
X98480476Y-82954761D01*
X98385238Y-83002380D01*
X98147142Y-83002380D01*
X98051904Y-82954761D01*
X98004285Y-82907142D01*
X97623333Y-105767142D02*
X97575714Y-105814761D01*
X97432857Y-105862380D01*
X97337619Y-105862380D01*
X97194761Y-105814761D01*
X97099523Y-105719523D01*
X97051904Y-105624285D01*
X97004285Y-105433809D01*
X97004285Y-105290952D01*
X97051904Y-105100476D01*
X97099523Y-105005238D01*
X97194761Y-104910000D01*
X97337619Y-104862380D01*
X97432857Y-104862380D01*
X97575714Y-104910000D01*
X97623333Y-104957619D01*
X98480476Y-104862380D02*
X98290000Y-104862380D01*
X98194761Y-104910000D01*
X98147142Y-104957619D01*
X98051904Y-105100476D01*
X98004285Y-105290952D01*
X98004285Y-105671904D01*
X98051904Y-105767142D01*
X98099523Y-105814761D01*
X98194761Y-105862380D01*
X98385238Y-105862380D01*
X98480476Y-105814761D01*
X98528095Y-105767142D01*
X98575714Y-105671904D01*
X98575714Y-105433809D01*
X98528095Y-105338571D01*
X98480476Y-105290952D01*
X98385238Y-105243333D01*
X98194761Y-105243333D01*
X98099523Y-105290952D01*
X98051904Y-105338571D01*
X98004285Y-105433809D01*
X116673333Y-105132142D02*
X116625714Y-105179761D01*
X116482857Y-105227380D01*
X116387619Y-105227380D01*
X116244761Y-105179761D01*
X116149523Y-105084523D01*
X116101904Y-104989285D01*
X116054285Y-104798809D01*
X116054285Y-104655952D01*
X116101904Y-104465476D01*
X116149523Y-104370238D01*
X116244761Y-104275000D01*
X116387619Y-104227380D01*
X116482857Y-104227380D01*
X116625714Y-104275000D01*
X116673333Y-104322619D01*
X117244761Y-104655952D02*
X117149523Y-104608333D01*
X117101904Y-104560714D01*
X117054285Y-104465476D01*
X117054285Y-104417857D01*
X117101904Y-104322619D01*
X117149523Y-104275000D01*
X117244761Y-104227380D01*
X117435238Y-104227380D01*
X117530476Y-104275000D01*
X117578095Y-104322619D01*
X117625714Y-104417857D01*
X117625714Y-104465476D01*
X117578095Y-104560714D01*
X117530476Y-104608333D01*
X117435238Y-104655952D01*
X117244761Y-104655952D01*
X117149523Y-104703571D01*
X117101904Y-104751190D01*
X117054285Y-104846428D01*
X117054285Y-105036904D01*
X117101904Y-105132142D01*
X117149523Y-105179761D01*
X117244761Y-105227380D01*
X117435238Y-105227380D01*
X117530476Y-105179761D01*
X117578095Y-105132142D01*
X117625714Y-105036904D01*
X117625714Y-104846428D01*
X117578095Y-104751190D01*
X117530476Y-104703571D01*
X117435238Y-104655952D01*
X108688095Y-83907380D02*
X108688095Y-84716904D01*
X108735714Y-84812142D01*
X108783333Y-84859761D01*
X108878571Y-84907380D01*
X109069047Y-84907380D01*
X109164285Y-84859761D01*
X109211904Y-84812142D01*
X109259523Y-84716904D01*
X109259523Y-83907380D01*
X110211904Y-83907380D02*
X109735714Y-83907380D01*
X109688095Y-84383571D01*
X109735714Y-84335952D01*
X109830952Y-84288333D01*
X110069047Y-84288333D01*
X110164285Y-84335952D01*
X110211904Y-84383571D01*
X110259523Y-84478809D01*
X110259523Y-84716904D01*
X110211904Y-84812142D01*
X110164285Y-84859761D01*
X110069047Y-84907380D01*
X109830952Y-84907380D01*
X109735714Y-84859761D01*
X109688095Y-84812142D01*
X171704095Y-98766380D02*
X171704095Y-99575904D01*
X171751714Y-99671142D01*
X171799333Y-99718761D01*
X171894571Y-99766380D01*
X172085047Y-99766380D01*
X172180285Y-99718761D01*
X172227904Y-99671142D01*
X172275523Y-99575904D01*
X172275523Y-98766380D01*
X173275523Y-99766380D02*
X172704095Y-99766380D01*
X172989809Y-99766380D02*
X172989809Y-98766380D01*
X172894571Y-98909238D01*
X172799333Y-99004476D01*
X172704095Y-99052095D01*
X185839571Y-90458380D02*
X185839571Y-90125047D01*
X186363380Y-89982190D02*
X186363380Y-90458380D01*
X185363380Y-90458380D01*
X185363380Y-89982190D01*
X186315761Y-89601238D02*
X186363380Y-89458380D01*
X186363380Y-89220285D01*
X186315761Y-89125047D01*
X186268142Y-89077428D01*
X186172904Y-89029809D01*
X186077666Y-89029809D01*
X185982428Y-89077428D01*
X185934809Y-89125047D01*
X185887190Y-89220285D01*
X185839571Y-89410761D01*
X185791952Y-89506000D01*
X185744333Y-89553619D01*
X185649095Y-89601238D01*
X185553857Y-89601238D01*
X185458619Y-89553619D01*
X185411000Y-89506000D01*
X185363380Y-89410761D01*
X185363380Y-89172666D01*
X185411000Y-89029809D01*
X186363380Y-88601238D02*
X185363380Y-88601238D01*
X185363380Y-88220285D01*
X185411000Y-88125047D01*
X185458619Y-88077428D01*
X185553857Y-88029809D01*
X185696714Y-88029809D01*
X185791952Y-88077428D01*
X185839571Y-88125047D01*
X185887190Y-88220285D01*
X185887190Y-88601238D01*
X185363380Y-87696476D02*
X185363380Y-87077428D01*
X185744333Y-87410761D01*
X185744333Y-87267904D01*
X185791952Y-87172666D01*
X185839571Y-87125047D01*
X185934809Y-87077428D01*
X186172904Y-87077428D01*
X186268142Y-87125047D01*
X186315761Y-87172666D01*
X186363380Y-87267904D01*
X186363380Y-87553619D01*
X186315761Y-87648857D01*
X186268142Y-87696476D01*
X185458619Y-86696476D02*
X185411000Y-86648857D01*
X185363380Y-86553619D01*
X185363380Y-86315523D01*
X185411000Y-86220285D01*
X185458619Y-86172666D01*
X185553857Y-86125047D01*
X185649095Y-86125047D01*
X185791952Y-86172666D01*
X186363380Y-86744095D01*
X186363380Y-86125047D01*
X185982428Y-85696476D02*
X185982428Y-84934571D01*
X185363380Y-84553619D02*
X186363380Y-84315523D01*
X185649095Y-84125047D01*
X186363380Y-83934571D01*
X185363380Y-83696476D01*
X186363380Y-82744095D02*
X185887190Y-83077428D01*
X186363380Y-83315523D02*
X185363380Y-83315523D01*
X185363380Y-82934571D01*
X185411000Y-82839333D01*
X185458619Y-82791714D01*
X185553857Y-82744095D01*
X185696714Y-82744095D01*
X185791952Y-82791714D01*
X185839571Y-82839333D01*
X185887190Y-82934571D01*
X185887190Y-83315523D01*
X185363380Y-82125047D02*
X185363380Y-81934571D01*
X185411000Y-81839333D01*
X185506238Y-81744095D01*
X185696714Y-81696476D01*
X186030047Y-81696476D01*
X186220523Y-81744095D01*
X186315761Y-81839333D01*
X186363380Y-81934571D01*
X186363380Y-82125047D01*
X186315761Y-82220285D01*
X186220523Y-82315523D01*
X186030047Y-82363142D01*
X185696714Y-82363142D01*
X185506238Y-82315523D01*
X185411000Y-82220285D01*
X185363380Y-82125047D01*
X185363380Y-81077428D02*
X185363380Y-80886952D01*
X185411000Y-80791714D01*
X185506238Y-80696476D01*
X185696714Y-80648857D01*
X186030047Y-80648857D01*
X186220523Y-80696476D01*
X186315761Y-80791714D01*
X186363380Y-80886952D01*
X186363380Y-81077428D01*
X186315761Y-81172666D01*
X186220523Y-81267904D01*
X186030047Y-81315523D01*
X185696714Y-81315523D01*
X185506238Y-81267904D01*
X185411000Y-81172666D01*
X185363380Y-81077428D01*
X186363380Y-80220285D02*
X185363380Y-80220285D01*
X186077666Y-79886952D01*
X185363380Y-79553619D01*
X186363380Y-79553619D01*
X187490571Y-92720428D02*
X187490571Y-92387095D01*
X188014380Y-92244238D02*
X188014380Y-92720428D01*
X187014380Y-92720428D01*
X187014380Y-92244238D01*
X187966761Y-91863285D02*
X188014380Y-91768047D01*
X188014380Y-91577571D01*
X187966761Y-91482333D01*
X187871523Y-91434714D01*
X187823904Y-91434714D01*
X187728666Y-91482333D01*
X187681047Y-91577571D01*
X187681047Y-91720428D01*
X187633428Y-91815666D01*
X187538190Y-91863285D01*
X187490571Y-91863285D01*
X187395333Y-91815666D01*
X187347714Y-91720428D01*
X187347714Y-91577571D01*
X187395333Y-91482333D01*
X187347714Y-91006142D02*
X188347714Y-91006142D01*
X187395333Y-91006142D02*
X187347714Y-90910904D01*
X187347714Y-90720428D01*
X187395333Y-90625190D01*
X187442952Y-90577571D01*
X187538190Y-90529952D01*
X187823904Y-90529952D01*
X187919142Y-90577571D01*
X187966761Y-90625190D01*
X188014380Y-90720428D01*
X188014380Y-90910904D01*
X187966761Y-91006142D01*
X188014380Y-90101380D02*
X187347714Y-90101380D01*
X187538190Y-90101380D02*
X187442952Y-90053761D01*
X187395333Y-90006142D01*
X187347714Y-89910904D01*
X187347714Y-89815666D01*
X187966761Y-89101380D02*
X188014380Y-89196619D01*
X188014380Y-89387095D01*
X187966761Y-89482333D01*
X187871523Y-89529952D01*
X187490571Y-89529952D01*
X187395333Y-89482333D01*
X187347714Y-89387095D01*
X187347714Y-89196619D01*
X187395333Y-89101380D01*
X187490571Y-89053761D01*
X187585809Y-89053761D01*
X187681047Y-89529952D01*
X187966761Y-88672809D02*
X188014380Y-88577571D01*
X188014380Y-88387095D01*
X187966761Y-88291857D01*
X187871523Y-88244238D01*
X187823904Y-88244238D01*
X187728666Y-88291857D01*
X187681047Y-88387095D01*
X187681047Y-88529952D01*
X187633428Y-88625190D01*
X187538190Y-88672809D01*
X187490571Y-88672809D01*
X187395333Y-88625190D01*
X187347714Y-88529952D01*
X187347714Y-88387095D01*
X187395333Y-88291857D01*
X187966761Y-87863285D02*
X188014380Y-87768047D01*
X188014380Y-87577571D01*
X187966761Y-87482333D01*
X187871523Y-87434714D01*
X187823904Y-87434714D01*
X187728666Y-87482333D01*
X187681047Y-87577571D01*
X187681047Y-87720428D01*
X187633428Y-87815666D01*
X187538190Y-87863285D01*
X187490571Y-87863285D01*
X187395333Y-87815666D01*
X187347714Y-87720428D01*
X187347714Y-87577571D01*
X187395333Y-87482333D01*
X188014380Y-87006142D02*
X187347714Y-87006142D01*
X187014380Y-87006142D02*
X187062000Y-87053761D01*
X187109619Y-87006142D01*
X187062000Y-86958523D01*
X187014380Y-87006142D01*
X187109619Y-87006142D01*
X187347714Y-86672809D02*
X187347714Y-86291857D01*
X188014380Y-86529952D02*
X187157238Y-86529952D01*
X187062000Y-86482333D01*
X187014380Y-86387095D01*
X187014380Y-86291857D01*
X187966761Y-85244238D02*
X188014380Y-85101380D01*
X188014380Y-84863285D01*
X187966761Y-84768047D01*
X187919142Y-84720428D01*
X187823904Y-84672809D01*
X187728666Y-84672809D01*
X187633428Y-84720428D01*
X187585809Y-84768047D01*
X187538190Y-84863285D01*
X187490571Y-85053761D01*
X187442952Y-85149000D01*
X187395333Y-85196619D01*
X187300095Y-85244238D01*
X187204857Y-85244238D01*
X187109619Y-85196619D01*
X187062000Y-85149000D01*
X187014380Y-85053761D01*
X187014380Y-84815666D01*
X187062000Y-84672809D01*
X187347714Y-84339476D02*
X188014380Y-84101380D01*
X187347714Y-83863285D02*
X188014380Y-84101380D01*
X188252476Y-84196619D01*
X188300095Y-84244238D01*
X188347714Y-84339476D01*
X187966761Y-83529952D02*
X188014380Y-83434714D01*
X188014380Y-83244238D01*
X187966761Y-83149000D01*
X187871523Y-83101380D01*
X187823904Y-83101380D01*
X187728666Y-83149000D01*
X187681047Y-83244238D01*
X187681047Y-83387095D01*
X187633428Y-83482333D01*
X187538190Y-83529952D01*
X187490571Y-83529952D01*
X187395333Y-83482333D01*
X187347714Y-83387095D01*
X187347714Y-83244238D01*
X187395333Y-83149000D01*
X187347714Y-82815666D02*
X187347714Y-82434714D01*
X187014380Y-82672809D02*
X187871523Y-82672809D01*
X187966761Y-82625190D01*
X188014380Y-82529952D01*
X188014380Y-82434714D01*
X187966761Y-81720428D02*
X188014380Y-81815666D01*
X188014380Y-82006142D01*
X187966761Y-82101380D01*
X187871523Y-82149000D01*
X187490571Y-82149000D01*
X187395333Y-82101380D01*
X187347714Y-82006142D01*
X187347714Y-81815666D01*
X187395333Y-81720428D01*
X187490571Y-81672809D01*
X187585809Y-81672809D01*
X187681047Y-82149000D01*
X188014380Y-81244238D02*
X187347714Y-81244238D01*
X187442952Y-81244238D02*
X187395333Y-81196619D01*
X187347714Y-81101380D01*
X187347714Y-80958523D01*
X187395333Y-80863285D01*
X187490571Y-80815666D01*
X188014380Y-80815666D01*
X187490571Y-80815666D02*
X187395333Y-80768047D01*
X187347714Y-80672809D01*
X187347714Y-80529952D01*
X187395333Y-80434714D01*
X187490571Y-80387095D01*
X188014380Y-80387095D01*
X187966761Y-79958523D02*
X188014380Y-79863285D01*
X188014380Y-79672809D01*
X187966761Y-79577571D01*
X187871523Y-79529952D01*
X187823904Y-79529952D01*
X187728666Y-79577571D01*
X187681047Y-79672809D01*
X187681047Y-79815666D01*
X187633428Y-79910904D01*
X187538190Y-79958523D01*
X187490571Y-79958523D01*
X187395333Y-79910904D01*
X187347714Y-79815666D01*
X187347714Y-79672809D01*
X187395333Y-79577571D01*
X190206333Y-123515380D02*
X189873000Y-123039190D01*
X189634904Y-123515380D02*
X189634904Y-122515380D01*
X190015857Y-122515380D01*
X190111095Y-122563000D01*
X190158714Y-122610619D01*
X190206333Y-122705857D01*
X190206333Y-122848714D01*
X190158714Y-122943952D01*
X190111095Y-122991571D01*
X190015857Y-123039190D01*
X189634904Y-123039190D01*
X191063476Y-122848714D02*
X191063476Y-123515380D01*
X190825380Y-122467761D02*
X190587285Y-123182047D01*
X191206333Y-123182047D01*
X169996380Y-82471666D02*
X169520190Y-82805000D01*
X169996380Y-83043095D02*
X168996380Y-83043095D01*
X168996380Y-82662142D01*
X169044000Y-82566904D01*
X169091619Y-82519285D01*
X169186857Y-82471666D01*
X169329714Y-82471666D01*
X169424952Y-82519285D01*
X169472571Y-82566904D01*
X169520190Y-82662142D01*
X169520190Y-83043095D01*
X168996380Y-81566904D02*
X168996380Y-82043095D01*
X169472571Y-82090714D01*
X169424952Y-82043095D01*
X169377333Y-81947857D01*
X169377333Y-81709761D01*
X169424952Y-81614523D01*
X169472571Y-81566904D01*
X169567809Y-81519285D01*
X169805904Y-81519285D01*
X169901142Y-81566904D01*
X169948761Y-81614523D01*
X169996380Y-81709761D01*
X169996380Y-81947857D01*
X169948761Y-82043095D01*
X169901142Y-82090714D01*
X195159333Y-105245380D02*
X194826000Y-104769190D01*
X194587904Y-105245380D02*
X194587904Y-104245380D01*
X194968857Y-104245380D01*
X195064095Y-104293000D01*
X195111714Y-104340619D01*
X195159333Y-104435857D01*
X195159333Y-104578714D01*
X195111714Y-104673952D01*
X195064095Y-104721571D01*
X194968857Y-104769190D01*
X194587904Y-104769190D01*
X196016476Y-104245380D02*
X195826000Y-104245380D01*
X195730761Y-104293000D01*
X195683142Y-104340619D01*
X195587904Y-104483476D01*
X195540285Y-104673952D01*
X195540285Y-105054904D01*
X195587904Y-105150142D01*
X195635523Y-105197761D01*
X195730761Y-105245380D01*
X195921238Y-105245380D01*
X196016476Y-105197761D01*
X196064095Y-105150142D01*
X196111714Y-105054904D01*
X196111714Y-104816809D01*
X196064095Y-104721571D01*
X196016476Y-104673952D01*
X195921238Y-104626333D01*
X195730761Y-104626333D01*
X195635523Y-104673952D01*
X195587904Y-104721571D01*
X195540285Y-104816809D01*
X202009476Y-87546380D02*
X202009476Y-88260666D01*
X201961857Y-88403523D01*
X201866619Y-88498761D01*
X201723761Y-88546380D01*
X201628523Y-88546380D01*
X203009476Y-88546380D02*
X202438047Y-88546380D01*
X202723761Y-88546380D02*
X202723761Y-87546380D01*
X202628523Y-87689238D01*
X202533285Y-87784476D01*
X202438047Y-87832095D01*
X203628523Y-87546380D02*
X203723761Y-87546380D01*
X203819000Y-87594000D01*
X203866619Y-87641619D01*
X203914238Y-87736857D01*
X203961857Y-87927333D01*
X203961857Y-88165428D01*
X203914238Y-88355904D01*
X203866619Y-88451142D01*
X203819000Y-88498761D01*
X203723761Y-88546380D01*
X203628523Y-88546380D01*
X203533285Y-88498761D01*
X203485666Y-88451142D01*
X203438047Y-88355904D01*
X203390428Y-88165428D01*
X203390428Y-87927333D01*
X203438047Y-87736857D01*
X203485666Y-87641619D01*
X203533285Y-87594000D01*
X203628523Y-87546380D01*
X65112380Y-120938095D02*
X64112380Y-120938095D01*
X65112380Y-120366666D02*
X64540952Y-120795238D01*
X64112380Y-120366666D02*
X64683809Y-120938095D01*
X65112380Y-119414285D02*
X65112380Y-119985714D01*
X65112380Y-119700000D02*
X64112380Y-119700000D01*
X64255238Y-119795238D01*
X64350476Y-119890476D01*
X64398095Y-119985714D01*
X81622380Y-120938095D02*
X80622380Y-120938095D01*
X81622380Y-120366666D02*
X81050952Y-120795238D01*
X80622380Y-120366666D02*
X81193809Y-120938095D01*
X80717619Y-119985714D02*
X80670000Y-119938095D01*
X80622380Y-119842857D01*
X80622380Y-119604761D01*
X80670000Y-119509523D01*
X80717619Y-119461904D01*
X80812857Y-119414285D01*
X80908095Y-119414285D01*
X81050952Y-119461904D01*
X81622380Y-120033333D01*
X81622380Y-119414285D01*
X131406380Y-120938095D02*
X130406380Y-120938095D01*
X131406380Y-120366666D02*
X130834952Y-120795238D01*
X130406380Y-120366666D02*
X130977809Y-120938095D01*
X130406380Y-119461904D02*
X130406380Y-119938095D01*
X130882571Y-119985714D01*
X130834952Y-119938095D01*
X130787333Y-119842857D01*
X130787333Y-119604761D01*
X130834952Y-119509523D01*
X130882571Y-119461904D01*
X130977809Y-119414285D01*
X131215904Y-119414285D01*
X131311142Y-119461904D01*
X131358761Y-119509523D01*
X131406380Y-119604761D01*
X131406380Y-119842857D01*
X131358761Y-119938095D01*
X131311142Y-119985714D01*
X150391904Y-60015380D02*
X150391904Y-59015380D01*
X150630000Y-59015380D01*
X150772857Y-59063000D01*
X150868095Y-59158238D01*
X150915714Y-59253476D01*
X150963333Y-59443952D01*
X150963333Y-59586809D01*
X150915714Y-59777285D01*
X150868095Y-59872523D01*
X150772857Y-59967761D01*
X150630000Y-60015380D01*
X150391904Y-60015380D01*
X151296666Y-59015380D02*
X151963333Y-59015380D01*
X151534761Y-60015380D01*
X178212761Y-110402619D02*
X178117523Y-110355000D01*
X178022285Y-110259761D01*
X177879428Y-110116904D01*
X177784190Y-110069285D01*
X177688952Y-110069285D01*
X177736571Y-110307380D02*
X177641333Y-110259761D01*
X177546095Y-110164523D01*
X177498476Y-109974047D01*
X177498476Y-109640714D01*
X177546095Y-109450238D01*
X177641333Y-109355000D01*
X177736571Y-109307380D01*
X177927047Y-109307380D01*
X178022285Y-109355000D01*
X178117523Y-109450238D01*
X178165142Y-109640714D01*
X178165142Y-109974047D01*
X178117523Y-110164523D01*
X178022285Y-110259761D01*
X177927047Y-110307380D01*
X177736571Y-110307380D01*
X179117523Y-110307380D02*
X178546095Y-110307380D01*
X178831809Y-110307380D02*
X178831809Y-109307380D01*
X178736571Y-109450238D01*
X178641333Y-109545476D01*
X178546095Y-109593095D01*
X174331333Y-110416380D02*
X173998000Y-109940190D01*
X173759904Y-110416380D02*
X173759904Y-109416380D01*
X174140857Y-109416380D01*
X174236095Y-109464000D01*
X174283714Y-109511619D01*
X174331333Y-109606857D01*
X174331333Y-109749714D01*
X174283714Y-109844952D01*
X174236095Y-109892571D01*
X174140857Y-109940190D01*
X173759904Y-109940190D01*
X174902761Y-109844952D02*
X174807523Y-109797333D01*
X174759904Y-109749714D01*
X174712285Y-109654476D01*
X174712285Y-109606857D01*
X174759904Y-109511619D01*
X174807523Y-109464000D01*
X174902761Y-109416380D01*
X175093238Y-109416380D01*
X175188476Y-109464000D01*
X175236095Y-109511619D01*
X175283714Y-109606857D01*
X175283714Y-109654476D01*
X175236095Y-109749714D01*
X175188476Y-109797333D01*
X175093238Y-109844952D01*
X174902761Y-109844952D01*
X174807523Y-109892571D01*
X174759904Y-109940190D01*
X174712285Y-110035428D01*
X174712285Y-110225904D01*
X174759904Y-110321142D01*
X174807523Y-110368761D01*
X174902761Y-110416380D01*
X175093238Y-110416380D01*
X175188476Y-110368761D01*
X175236095Y-110321142D01*
X175283714Y-110225904D01*
X175283714Y-110035428D01*
X175236095Y-109940190D01*
X175188476Y-109892571D01*
X175093238Y-109844952D01*
X172027333Y-110434380D02*
X171694000Y-109958190D01*
X171455904Y-110434380D02*
X171455904Y-109434380D01*
X171836857Y-109434380D01*
X171932095Y-109482000D01*
X171979714Y-109529619D01*
X172027333Y-109624857D01*
X172027333Y-109767714D01*
X171979714Y-109862952D01*
X171932095Y-109910571D01*
X171836857Y-109958190D01*
X171455904Y-109958190D01*
X172503523Y-110434380D02*
X172694000Y-110434380D01*
X172789238Y-110386761D01*
X172836857Y-110339142D01*
X172932095Y-110196285D01*
X172979714Y-110005809D01*
X172979714Y-109624857D01*
X172932095Y-109529619D01*
X172884476Y-109482000D01*
X172789238Y-109434380D01*
X172598761Y-109434380D01*
X172503523Y-109482000D01*
X172455904Y-109529619D01*
X172408285Y-109624857D01*
X172408285Y-109862952D01*
X172455904Y-109958190D01*
X172503523Y-110005809D01*
X172598761Y-110053428D01*
X172789238Y-110053428D01*
X172884476Y-110005809D01*
X172932095Y-109958190D01*
X172979714Y-109862952D01*
X159345333Y-62809380D02*
X159012000Y-62333190D01*
X158773904Y-62809380D02*
X158773904Y-61809380D01*
X159154857Y-61809380D01*
X159250095Y-61857000D01*
X159297714Y-61904619D01*
X159345333Y-61999857D01*
X159345333Y-62142714D01*
X159297714Y-62237952D01*
X159250095Y-62285571D01*
X159154857Y-62333190D01*
X158773904Y-62333190D01*
X159678666Y-61809380D02*
X160345333Y-61809380D01*
X159916761Y-62809380D01*
X172778571Y-125548333D02*
X172778571Y-125881666D01*
X173302380Y-125881666D02*
X172302380Y-125881666D01*
X172302380Y-125405476D01*
X173302380Y-124500714D02*
X173302380Y-125072142D01*
X173302380Y-124786428D02*
X172302380Y-124786428D01*
X172445238Y-124881666D01*
X172540476Y-124976904D01*
X172588095Y-125072142D01*
X196197142Y-130412380D02*
X195720952Y-130412380D01*
X195720952Y-129412380D01*
X196482857Y-130364761D02*
X196625714Y-130412380D01*
X196863809Y-130412380D01*
X196959047Y-130364761D01*
X197006666Y-130317142D01*
X197054285Y-130221904D01*
X197054285Y-130126666D01*
X197006666Y-130031428D01*
X196959047Y-129983809D01*
X196863809Y-129936190D01*
X196673333Y-129888571D01*
X196578095Y-129840952D01*
X196530476Y-129793333D01*
X196482857Y-129698095D01*
X196482857Y-129602857D01*
X196530476Y-129507619D01*
X196578095Y-129460000D01*
X196673333Y-129412380D01*
X196911428Y-129412380D01*
X197054285Y-129460000D01*
X198006666Y-130412380D02*
X197435238Y-130412380D01*
X197720952Y-130412380D02*
X197720952Y-129412380D01*
X197625714Y-129555238D01*
X197530476Y-129650476D01*
X197435238Y-129698095D01*
X192649047Y-134691428D02*
X193410952Y-134691428D01*
X193030000Y-135072380D02*
X193030000Y-134310476D01*
X155272333Y-111007142D02*
X155224714Y-111054761D01*
X155081857Y-111102380D01*
X154986619Y-111102380D01*
X154843761Y-111054761D01*
X154748523Y-110959523D01*
X154700904Y-110864285D01*
X154653285Y-110673809D01*
X154653285Y-110530952D01*
X154700904Y-110340476D01*
X154748523Y-110245238D01*
X154843761Y-110150000D01*
X154986619Y-110102380D01*
X155081857Y-110102380D01*
X155224714Y-110150000D01*
X155272333Y-110197619D01*
X156224714Y-111102380D02*
X155653285Y-111102380D01*
X155939000Y-111102380D02*
X155939000Y-110102380D01*
X155843761Y-110245238D01*
X155748523Y-110340476D01*
X155653285Y-110388095D01*
X155272333Y-113227142D02*
X155224714Y-113274761D01*
X155081857Y-113322380D01*
X154986619Y-113322380D01*
X154843761Y-113274761D01*
X154748523Y-113179523D01*
X154700904Y-113084285D01*
X154653285Y-112893809D01*
X154653285Y-112750952D01*
X154700904Y-112560476D01*
X154748523Y-112465238D01*
X154843761Y-112370000D01*
X154986619Y-112322380D01*
X155081857Y-112322380D01*
X155224714Y-112370000D01*
X155272333Y-112417619D01*
X155653285Y-112417619D02*
X155700904Y-112370000D01*
X155796142Y-112322380D01*
X156034238Y-112322380D01*
X156129476Y-112370000D01*
X156177095Y-112417619D01*
X156224714Y-112512857D01*
X156224714Y-112608095D01*
X156177095Y-112750952D01*
X155605666Y-113322380D01*
X156224714Y-113322380D01*
M02*
