%TF.GenerationSoftware,KiCad,Pcbnew,(5.0.0)*%
%TF.CreationDate,2018-09-12T13:45:47+01:00*%
%TF.ProjectId,AquaHub,417175614875622E6B696361645F7063,rev?*%
%TF.SameCoordinates,Original*%
%TF.FileFunction,Legend,Bot*%
%TF.FilePolarity,Positive*%
%FSLAX46Y46*%
G04 Gerber Fmt 4.6, Leading zero omitted, Abs format (unit mm)*
G04 Created by KiCad (PCBNEW (5.0.0)) date 09/12/18 13:45:47*
%MOMM*%
%LPD*%
G01*
G04 APERTURE LIST*
%ADD10C,0.200000*%
%ADD11C,0.120000*%
%ADD12C,0.150000*%
%ADD13C,0.500000*%
G04 APERTURE END LIST*
D10*
X55118000Y-106680000D02*
X48006000Y-106680000D01*
X55118000Y-109728000D02*
X55118000Y-106680000D01*
X51054000Y-109728000D02*
X55118000Y-109728000D01*
X146050000Y-115570000D02*
X146050000Y-118110000D01*
X140335000Y-63500000D02*
X140335000Y-60960000D01*
X148590000Y-60960000D02*
X148590000Y-63500000D01*
X148590000Y-63500000D02*
X208280000Y-63500000D01*
X208280000Y-60960000D02*
X148590000Y-60960000D01*
X208280000Y-37465000D02*
X208280000Y-60960000D01*
X38100000Y-37465000D02*
X208280000Y-37465000D01*
X38100000Y-60960000D02*
X38100000Y-37465000D01*
X140335000Y-60960000D02*
X38100000Y-60960000D01*
X48006000Y-118364000D02*
X48006000Y-106680000D01*
X146050000Y-118110000D02*
X48006000Y-118364000D01*
X51054000Y-115316000D02*
X146050000Y-115570000D01*
X51054000Y-109728000D02*
X51054000Y-115316000D01*
X38100000Y-153670000D02*
X208280000Y-153670000D01*
X38100000Y-63500000D02*
X38100000Y-153670000D01*
X140335000Y-63500000D02*
X38100000Y-63500000D01*
X208280000Y-63500000D02*
X208280000Y-153670000D01*
D11*
X147090000Y-41005000D02*
X147090000Y-56785000D01*
X147090000Y-56785000D02*
X156440000Y-56785000D01*
X156440000Y-56785000D02*
X156440000Y-41005000D01*
X156440000Y-41005000D02*
X147090000Y-41005000D01*
X156690000Y-40755000D02*
X156690000Y-43295000D01*
X156690000Y-40755000D02*
X154150000Y-40755000D01*
D12*
X145005000Y-53835000D02*
X143480000Y-53835000D01*
X145005000Y-46085000D02*
X143400000Y-46085000D01*
X131855000Y-46085000D02*
X133460000Y-46085000D01*
X131855000Y-53835000D02*
X133460000Y-53835000D01*
X145005000Y-53835000D02*
X145005000Y-46085000D01*
X131855000Y-53835000D02*
X131855000Y-46085000D01*
X143480000Y-53835000D02*
X143480000Y-55360000D01*
X142885000Y-99725000D02*
X144260000Y-99725000D01*
X142885000Y-109850000D02*
X138735000Y-109850000D01*
X142885000Y-99700000D02*
X138735000Y-99700000D01*
X142885000Y-109850000D02*
X142885000Y-109745000D01*
X138735000Y-109850000D02*
X138735000Y-109745000D01*
X138735000Y-99700000D02*
X138735000Y-99805000D01*
X142885000Y-99700000D02*
X142885000Y-99725000D01*
D11*
X199075000Y-107053748D02*
X199075000Y-107576252D01*
X197655000Y-107053748D02*
X197655000Y-107576252D01*
X195185000Y-104960000D02*
X195185000Y-109345000D01*
X192165000Y-104960000D02*
X195185000Y-104960000D01*
X192165000Y-109345000D02*
X192165000Y-104960000D01*
D13*
X201742981Y-101681000D02*
G75*
G03X201742981Y-101681000I-283981J0D01*
G01*
D12*
X201605000Y-82775000D02*
X201605000Y-100775000D01*
X207605000Y-100775000D02*
X182105000Y-100775000D01*
X207605000Y-82775000D02*
X182105000Y-82775000D01*
X182105000Y-82775000D02*
X182105000Y-100775000D01*
X207605000Y-82775000D02*
X207605000Y-100775000D01*
X152574523Y-39203380D02*
X152574523Y-39917666D01*
X152622142Y-40060523D01*
X152717380Y-40155761D01*
X152860238Y-40203380D01*
X152955476Y-40203380D01*
X151574523Y-40203380D02*
X152145952Y-40203380D01*
X151860238Y-40203380D02*
X151860238Y-39203380D01*
X151955476Y-39346238D01*
X152050714Y-39441476D01*
X152145952Y-39489095D01*
X151193571Y-39298619D02*
X151145952Y-39251000D01*
X151050714Y-39203380D01*
X150812619Y-39203380D01*
X150717380Y-39251000D01*
X150669761Y-39298619D01*
X150622142Y-39393857D01*
X150622142Y-39489095D01*
X150669761Y-39631952D01*
X151241190Y-40203380D01*
X150622142Y-40203380D01*
X145382380Y-49198095D02*
X146191904Y-49198095D01*
X146287142Y-49245714D01*
X146334761Y-49293333D01*
X146382380Y-49388571D01*
X146382380Y-49579047D01*
X146334761Y-49674285D01*
X146287142Y-49721904D01*
X146191904Y-49769523D01*
X145382380Y-49769523D01*
X145382380Y-50674285D02*
X145382380Y-50483809D01*
X145430000Y-50388571D01*
X145477619Y-50340952D01*
X145620476Y-50245714D01*
X145810952Y-50198095D01*
X146191904Y-50198095D01*
X146287142Y-50245714D01*
X146334761Y-50293333D01*
X146382380Y-50388571D01*
X146382380Y-50579047D01*
X146334761Y-50674285D01*
X146287142Y-50721904D01*
X146191904Y-50769523D01*
X145953809Y-50769523D01*
X145858571Y-50721904D01*
X145810952Y-50674285D01*
X145763333Y-50579047D01*
X145763333Y-50388571D01*
X145810952Y-50293333D01*
X145858571Y-50245714D01*
X145953809Y-50198095D01*
X141571904Y-110577380D02*
X141571904Y-111386904D01*
X141524285Y-111482142D01*
X141476666Y-111529761D01*
X141381428Y-111577380D01*
X141190952Y-111577380D01*
X141095714Y-111529761D01*
X141048095Y-111482142D01*
X141000476Y-111386904D01*
X141000476Y-110577380D01*
X140095714Y-110910714D02*
X140095714Y-111577380D01*
X140333809Y-110529761D02*
X140571904Y-111244047D01*
X139952857Y-111244047D01*
X198722142Y-110323333D02*
X198769761Y-110275714D01*
X198817380Y-110132857D01*
X198817380Y-110037619D01*
X198769761Y-109894761D01*
X198674523Y-109799523D01*
X198579285Y-109751904D01*
X198388809Y-109704285D01*
X198245952Y-109704285D01*
X198055476Y-109751904D01*
X197960238Y-109799523D01*
X197865000Y-109894761D01*
X197817380Y-110037619D01*
X197817380Y-110132857D01*
X197865000Y-110275714D01*
X197912619Y-110323333D01*
X197817380Y-110656666D02*
X197817380Y-111275714D01*
X198198333Y-110942380D01*
X198198333Y-111085238D01*
X198245952Y-111180476D01*
X198293571Y-111228095D01*
X198388809Y-111275714D01*
X198626904Y-111275714D01*
X198722142Y-111228095D01*
X198769761Y-111180476D01*
X198817380Y-111085238D01*
X198817380Y-110799523D01*
X198769761Y-110704285D01*
X198722142Y-110656666D01*
X194032142Y-111593333D02*
X194079761Y-111545714D01*
X194127380Y-111402857D01*
X194127380Y-111307619D01*
X194079761Y-111164761D01*
X193984523Y-111069523D01*
X193889285Y-111021904D01*
X193698809Y-110974285D01*
X193555952Y-110974285D01*
X193365476Y-111021904D01*
X193270238Y-111069523D01*
X193175000Y-111164761D01*
X193127380Y-111307619D01*
X193127380Y-111402857D01*
X193175000Y-111545714D01*
X193222619Y-111593333D01*
X193460714Y-112450476D02*
X194127380Y-112450476D01*
X193079761Y-112212380D02*
X193794047Y-111974285D01*
X193794047Y-112593333D01*
X203324380Y-79456095D02*
X204133904Y-79456095D01*
X204229142Y-79503714D01*
X204276761Y-79551333D01*
X204324380Y-79646571D01*
X204324380Y-79837047D01*
X204276761Y-79932285D01*
X204229142Y-79979904D01*
X204133904Y-80027523D01*
X203324380Y-80027523D01*
X204324380Y-81027523D02*
X204324380Y-80456095D01*
X204324380Y-80741809D02*
X203324380Y-80741809D01*
X203467238Y-80646571D01*
X203562476Y-80551333D01*
X203610095Y-80456095D01*
X200537428Y-84845571D02*
X200204095Y-84845571D01*
X200061238Y-85369380D02*
X200537428Y-85369380D01*
X200537428Y-84369380D01*
X200061238Y-84369380D01*
X199680285Y-85321761D02*
X199585047Y-85369380D01*
X199394571Y-85369380D01*
X199299333Y-85321761D01*
X199251714Y-85226523D01*
X199251714Y-85178904D01*
X199299333Y-85083666D01*
X199394571Y-85036047D01*
X199537428Y-85036047D01*
X199632666Y-84988428D01*
X199680285Y-84893190D01*
X199680285Y-84845571D01*
X199632666Y-84750333D01*
X199537428Y-84702714D01*
X199394571Y-84702714D01*
X199299333Y-84750333D01*
X198823142Y-84702714D02*
X198823142Y-85702714D01*
X198823142Y-84750333D02*
X198727904Y-84702714D01*
X198537428Y-84702714D01*
X198442190Y-84750333D01*
X198394571Y-84797952D01*
X198346952Y-84893190D01*
X198346952Y-85178904D01*
X198394571Y-85274142D01*
X198442190Y-85321761D01*
X198537428Y-85369380D01*
X198727904Y-85369380D01*
X198823142Y-85321761D01*
X197918380Y-85369380D02*
X197918380Y-84702714D01*
X197918380Y-84893190D02*
X197870761Y-84797952D01*
X197823142Y-84750333D01*
X197727904Y-84702714D01*
X197632666Y-84702714D01*
X196918380Y-85321761D02*
X197013619Y-85369380D01*
X197204095Y-85369380D01*
X197299333Y-85321761D01*
X197346952Y-85226523D01*
X197346952Y-84845571D01*
X197299333Y-84750333D01*
X197204095Y-84702714D01*
X197013619Y-84702714D01*
X196918380Y-84750333D01*
X196870761Y-84845571D01*
X196870761Y-84940809D01*
X197346952Y-85036047D01*
X196489809Y-85321761D02*
X196394571Y-85369380D01*
X196204095Y-85369380D01*
X196108857Y-85321761D01*
X196061238Y-85226523D01*
X196061238Y-85178904D01*
X196108857Y-85083666D01*
X196204095Y-85036047D01*
X196346952Y-85036047D01*
X196442190Y-84988428D01*
X196489809Y-84893190D01*
X196489809Y-84845571D01*
X196442190Y-84750333D01*
X196346952Y-84702714D01*
X196204095Y-84702714D01*
X196108857Y-84750333D01*
X195680285Y-85321761D02*
X195585047Y-85369380D01*
X195394571Y-85369380D01*
X195299333Y-85321761D01*
X195251714Y-85226523D01*
X195251714Y-85178904D01*
X195299333Y-85083666D01*
X195394571Y-85036047D01*
X195537428Y-85036047D01*
X195632666Y-84988428D01*
X195680285Y-84893190D01*
X195680285Y-84845571D01*
X195632666Y-84750333D01*
X195537428Y-84702714D01*
X195394571Y-84702714D01*
X195299333Y-84750333D01*
X194823142Y-85369380D02*
X194823142Y-84702714D01*
X194823142Y-84369380D02*
X194870761Y-84417000D01*
X194823142Y-84464619D01*
X194775523Y-84417000D01*
X194823142Y-84369380D01*
X194823142Y-84464619D01*
X194489809Y-84702714D02*
X194108857Y-84702714D01*
X194346952Y-85369380D02*
X194346952Y-84512238D01*
X194299333Y-84417000D01*
X194204095Y-84369380D01*
X194108857Y-84369380D01*
X193061238Y-85321761D02*
X192918380Y-85369380D01*
X192680285Y-85369380D01*
X192585047Y-85321761D01*
X192537428Y-85274142D01*
X192489809Y-85178904D01*
X192489809Y-85083666D01*
X192537428Y-84988428D01*
X192585047Y-84940809D01*
X192680285Y-84893190D01*
X192870761Y-84845571D01*
X192966000Y-84797952D01*
X193013619Y-84750333D01*
X193061238Y-84655095D01*
X193061238Y-84559857D01*
X193013619Y-84464619D01*
X192966000Y-84417000D01*
X192870761Y-84369380D01*
X192632666Y-84369380D01*
X192489809Y-84417000D01*
X192156476Y-84702714D02*
X191918380Y-85369380D01*
X191680285Y-84702714D02*
X191918380Y-85369380D01*
X192013619Y-85607476D01*
X192061238Y-85655095D01*
X192156476Y-85702714D01*
X191346952Y-85321761D02*
X191251714Y-85369380D01*
X191061238Y-85369380D01*
X190966000Y-85321761D01*
X190918380Y-85226523D01*
X190918380Y-85178904D01*
X190966000Y-85083666D01*
X191061238Y-85036047D01*
X191204095Y-85036047D01*
X191299333Y-84988428D01*
X191346952Y-84893190D01*
X191346952Y-84845571D01*
X191299333Y-84750333D01*
X191204095Y-84702714D01*
X191061238Y-84702714D01*
X190966000Y-84750333D01*
X190632666Y-84702714D02*
X190251714Y-84702714D01*
X190489809Y-84369380D02*
X190489809Y-85226523D01*
X190442190Y-85321761D01*
X190346952Y-85369380D01*
X190251714Y-85369380D01*
X189537428Y-85321761D02*
X189632666Y-85369380D01*
X189823142Y-85369380D01*
X189918380Y-85321761D01*
X189966000Y-85226523D01*
X189966000Y-84845571D01*
X189918380Y-84750333D01*
X189823142Y-84702714D01*
X189632666Y-84702714D01*
X189537428Y-84750333D01*
X189489809Y-84845571D01*
X189489809Y-84940809D01*
X189966000Y-85036047D01*
X189061238Y-85369380D02*
X189061238Y-84702714D01*
X189061238Y-84797952D02*
X189013619Y-84750333D01*
X188918380Y-84702714D01*
X188775523Y-84702714D01*
X188680285Y-84750333D01*
X188632666Y-84845571D01*
X188632666Y-85369380D01*
X188632666Y-84845571D02*
X188585047Y-84750333D01*
X188489809Y-84702714D01*
X188346952Y-84702714D01*
X188251714Y-84750333D01*
X188204095Y-84845571D01*
X188204095Y-85369380D01*
X187775523Y-85321761D02*
X187680285Y-85369380D01*
X187489809Y-85369380D01*
X187394571Y-85321761D01*
X187346952Y-85226523D01*
X187346952Y-85178904D01*
X187394571Y-85083666D01*
X187489809Y-85036047D01*
X187632666Y-85036047D01*
X187727904Y-84988428D01*
X187775523Y-84893190D01*
X187775523Y-84845571D01*
X187727904Y-84750333D01*
X187632666Y-84702714D01*
X187489809Y-84702714D01*
X187394571Y-84750333D01*
X200561380Y-86496571D02*
X200228047Y-86496571D01*
X200085190Y-87020380D02*
X200561380Y-87020380D01*
X200561380Y-86020380D01*
X200085190Y-86020380D01*
X199704238Y-86972761D02*
X199561380Y-87020380D01*
X199323285Y-87020380D01*
X199228047Y-86972761D01*
X199180428Y-86925142D01*
X199132809Y-86829904D01*
X199132809Y-86734666D01*
X199180428Y-86639428D01*
X199228047Y-86591809D01*
X199323285Y-86544190D01*
X199513761Y-86496571D01*
X199609000Y-86448952D01*
X199656619Y-86401333D01*
X199704238Y-86306095D01*
X199704238Y-86210857D01*
X199656619Y-86115619D01*
X199609000Y-86068000D01*
X199513761Y-86020380D01*
X199275666Y-86020380D01*
X199132809Y-86068000D01*
X198704238Y-87020380D02*
X198704238Y-86020380D01*
X198323285Y-86020380D01*
X198228047Y-86068000D01*
X198180428Y-86115619D01*
X198132809Y-86210857D01*
X198132809Y-86353714D01*
X198180428Y-86448952D01*
X198228047Y-86496571D01*
X198323285Y-86544190D01*
X198704238Y-86544190D01*
X197799476Y-86020380D02*
X197180428Y-86020380D01*
X197513761Y-86401333D01*
X197370904Y-86401333D01*
X197275666Y-86448952D01*
X197228047Y-86496571D01*
X197180428Y-86591809D01*
X197180428Y-86829904D01*
X197228047Y-86925142D01*
X197275666Y-86972761D01*
X197370904Y-87020380D01*
X197656619Y-87020380D01*
X197751857Y-86972761D01*
X197799476Y-86925142D01*
X196799476Y-86115619D02*
X196751857Y-86068000D01*
X196656619Y-86020380D01*
X196418523Y-86020380D01*
X196323285Y-86068000D01*
X196275666Y-86115619D01*
X196228047Y-86210857D01*
X196228047Y-86306095D01*
X196275666Y-86448952D01*
X196847095Y-87020380D01*
X196228047Y-87020380D01*
X195799476Y-86639428D02*
X195037571Y-86639428D01*
X194656619Y-86020380D02*
X194418523Y-87020380D01*
X194228047Y-86306095D01*
X194037571Y-87020380D01*
X193799476Y-86020380D01*
X192847095Y-87020380D02*
X193180428Y-86544190D01*
X193418523Y-87020380D02*
X193418523Y-86020380D01*
X193037571Y-86020380D01*
X192942333Y-86068000D01*
X192894714Y-86115619D01*
X192847095Y-86210857D01*
X192847095Y-86353714D01*
X192894714Y-86448952D01*
X192942333Y-86496571D01*
X193037571Y-86544190D01*
X193418523Y-86544190D01*
X192228047Y-86020380D02*
X192037571Y-86020380D01*
X191942333Y-86068000D01*
X191847095Y-86163238D01*
X191799476Y-86353714D01*
X191799476Y-86687047D01*
X191847095Y-86877523D01*
X191942333Y-86972761D01*
X192037571Y-87020380D01*
X192228047Y-87020380D01*
X192323285Y-86972761D01*
X192418523Y-86877523D01*
X192466142Y-86687047D01*
X192466142Y-86353714D01*
X192418523Y-86163238D01*
X192323285Y-86068000D01*
X192228047Y-86020380D01*
X191180428Y-86020380D02*
X190989952Y-86020380D01*
X190894714Y-86068000D01*
X190799476Y-86163238D01*
X190751857Y-86353714D01*
X190751857Y-86687047D01*
X190799476Y-86877523D01*
X190894714Y-86972761D01*
X190989952Y-87020380D01*
X191180428Y-87020380D01*
X191275666Y-86972761D01*
X191370904Y-86877523D01*
X191418523Y-86687047D01*
X191418523Y-86353714D01*
X191370904Y-86163238D01*
X191275666Y-86068000D01*
X191180428Y-86020380D01*
X190323285Y-87020380D02*
X190323285Y-86020380D01*
X189989952Y-86734666D01*
X189656619Y-86020380D01*
X189656619Y-87020380D01*
M02*
