G04 #@! TF.GenerationSoftware,KiCad,Pcbnew,(6.0.0-rc1-dev-904-g29e0e6921)*
G04 #@! TF.CreationDate,2018-10-19T00:50:27+01:00*
G04 #@! TF.ProjectId,AquaHub,417175614875622E6B696361645F7063,rev?*
G04 #@! TF.SameCoordinates,Original*
G04 #@! TF.FileFunction,Soldermask,Bot*
G04 #@! TF.FilePolarity,Negative*
%FSLAX46Y46*%
G04 Gerber Fmt 4.6, Leading zero omitted, Abs format (unit mm)*
G04 Created by KiCad (PCBNEW (6.0.0-rc1-dev-904-g29e0e6921)) date 19/10/2018 00:50:27*
%MOMM*%
%LPD*%
G01*
G04 APERTURE LIST*
%ADD10C,0.100000*%
G04 APERTURE END LIST*
D10*
G36*
X233409122Y-137246115D02*
X233525041Y-137269173D01*
X233852620Y-137404861D01*
X234143511Y-137599228D01*
X234147436Y-137601851D01*
X234398149Y-137852564D01*
X234398151Y-137852567D01*
X234595139Y-138147380D01*
X234730827Y-138474959D01*
X234753885Y-138590878D01*
X234800000Y-138822714D01*
X234800000Y-139177286D01*
X234753885Y-139409122D01*
X234730827Y-139525041D01*
X234634881Y-139756674D01*
X234595140Y-139852618D01*
X234398149Y-140147436D01*
X234147436Y-140398149D01*
X234147433Y-140398151D01*
X233852620Y-140595139D01*
X233525041Y-140730827D01*
X233409122Y-140753885D01*
X233177286Y-140800000D01*
X232822714Y-140800000D01*
X232590878Y-140753885D01*
X232474959Y-140730827D01*
X232147380Y-140595139D01*
X231852567Y-140398151D01*
X231852564Y-140398149D01*
X231601851Y-140147436D01*
X231404860Y-139852618D01*
X231365119Y-139756674D01*
X231269173Y-139525041D01*
X231246115Y-139409122D01*
X231200000Y-139177286D01*
X231200000Y-138822714D01*
X231246115Y-138590878D01*
X231269173Y-138474959D01*
X231404861Y-138147380D01*
X231601849Y-137852567D01*
X231601851Y-137852564D01*
X231852564Y-137601851D01*
X231856489Y-137599228D01*
X232147380Y-137404861D01*
X232474959Y-137269173D01*
X232590878Y-137246115D01*
X232822714Y-137200000D01*
X233177286Y-137200000D01*
X233409122Y-137246115D01*
X233409122Y-137246115D01*
G37*
G36*
X57409122Y-137246115D02*
X57525041Y-137269173D01*
X57852620Y-137404861D01*
X58143511Y-137599228D01*
X58147436Y-137601851D01*
X58398149Y-137852564D01*
X58398151Y-137852567D01*
X58595139Y-138147380D01*
X58730827Y-138474959D01*
X58753885Y-138590878D01*
X58800000Y-138822714D01*
X58800000Y-139177286D01*
X58753885Y-139409122D01*
X58730827Y-139525041D01*
X58634881Y-139756674D01*
X58595140Y-139852618D01*
X58398149Y-140147436D01*
X58147436Y-140398149D01*
X58147433Y-140398151D01*
X57852620Y-140595139D01*
X57525041Y-140730827D01*
X57409122Y-140753885D01*
X57177286Y-140800000D01*
X56822714Y-140800000D01*
X56590878Y-140753885D01*
X56474959Y-140730827D01*
X56147380Y-140595139D01*
X55852567Y-140398151D01*
X55852564Y-140398149D01*
X55601851Y-140147436D01*
X55404860Y-139852618D01*
X55365119Y-139756674D01*
X55269173Y-139525041D01*
X55246115Y-139409122D01*
X55200000Y-139177286D01*
X55200000Y-138822714D01*
X55246115Y-138590878D01*
X55269173Y-138474959D01*
X55404861Y-138147380D01*
X55601849Y-137852567D01*
X55601851Y-137852564D01*
X55852564Y-137601851D01*
X55856489Y-137599228D01*
X56147380Y-137404861D01*
X56474959Y-137269173D01*
X56590878Y-137246115D01*
X56822714Y-137200000D01*
X57177286Y-137200000D01*
X57409122Y-137246115D01*
X57409122Y-137246115D01*
G37*
G36*
X137384000Y-139835000D02*
X134384000Y-139835000D01*
X134384000Y-136835000D01*
X137384000Y-136835000D01*
X137384000Y-139835000D01*
X137384000Y-139835000D01*
G37*
G36*
X187295000Y-139835000D02*
X184295000Y-139835000D01*
X184295000Y-136835000D01*
X187295000Y-136835000D01*
X187295000Y-139835000D01*
X187295000Y-139835000D01*
G37*
G36*
X219583935Y-136873429D02*
X219680534Y-136892644D01*
X219953517Y-137005717D01*
X220195920Y-137167687D01*
X220199197Y-137169876D01*
X220408124Y-137378803D01*
X220408126Y-137378806D01*
X220557161Y-137601851D01*
X220572284Y-137624485D01*
X220685356Y-137897467D01*
X220735068Y-138147382D01*
X220743000Y-138187263D01*
X220743000Y-138482737D01*
X220685356Y-138772534D01*
X220572283Y-139045517D01*
X220484237Y-139177286D01*
X220408124Y-139291197D01*
X220199197Y-139500124D01*
X220199194Y-139500126D01*
X219953517Y-139664283D01*
X219680534Y-139777356D01*
X219583935Y-139796571D01*
X219390739Y-139835000D01*
X219095261Y-139835000D01*
X218902065Y-139796571D01*
X218805466Y-139777356D01*
X218532483Y-139664283D01*
X218286806Y-139500126D01*
X218286803Y-139500124D01*
X218077876Y-139291197D01*
X218001763Y-139177286D01*
X217913717Y-139045517D01*
X217800644Y-138772534D01*
X217743000Y-138482737D01*
X217743000Y-138187263D01*
X217750933Y-138147382D01*
X217800644Y-137897467D01*
X217913716Y-137624485D01*
X217928840Y-137601851D01*
X218077874Y-137378806D01*
X218077876Y-137378803D01*
X218286803Y-137169876D01*
X218290080Y-137167687D01*
X218532483Y-137005717D01*
X218805466Y-136892644D01*
X218902065Y-136873429D01*
X219095261Y-136835000D01*
X219390739Y-136835000D01*
X219583935Y-136873429D01*
X219583935Y-136873429D01*
G37*
G36*
X215743000Y-139835000D02*
X212743000Y-139835000D01*
X212743000Y-136835000D01*
X215743000Y-136835000D01*
X215743000Y-139835000D01*
X215743000Y-139835000D01*
G37*
G36*
X124587935Y-136873429D02*
X124684534Y-136892644D01*
X124957517Y-137005717D01*
X125199920Y-137167687D01*
X125203197Y-137169876D01*
X125412124Y-137378803D01*
X125412126Y-137378806D01*
X125561161Y-137601851D01*
X125576284Y-137624485D01*
X125689356Y-137897467D01*
X125739068Y-138147382D01*
X125747000Y-138187263D01*
X125747000Y-138482737D01*
X125689356Y-138772534D01*
X125576283Y-139045517D01*
X125488237Y-139177286D01*
X125412124Y-139291197D01*
X125203197Y-139500124D01*
X125203194Y-139500126D01*
X124957517Y-139664283D01*
X124684534Y-139777356D01*
X124587935Y-139796571D01*
X124394739Y-139835000D01*
X124099261Y-139835000D01*
X123906065Y-139796571D01*
X123809466Y-139777356D01*
X123536483Y-139664283D01*
X123290806Y-139500126D01*
X123290803Y-139500124D01*
X123081876Y-139291197D01*
X123005763Y-139177286D01*
X122917717Y-139045517D01*
X122804644Y-138772534D01*
X122747000Y-138482737D01*
X122747000Y-138187263D01*
X122754933Y-138147382D01*
X122804644Y-137897467D01*
X122917716Y-137624485D01*
X122932840Y-137601851D01*
X123081874Y-137378806D01*
X123081876Y-137378803D01*
X123290803Y-137169876D01*
X123294080Y-137167687D01*
X123536483Y-137005717D01*
X123809466Y-136892644D01*
X123906065Y-136873429D01*
X124099261Y-136835000D01*
X124394739Y-136835000D01*
X124587935Y-136873429D01*
X124587935Y-136873429D01*
G37*
G36*
X120747000Y-139835000D02*
X117747000Y-139835000D01*
X117747000Y-136835000D01*
X120747000Y-136835000D01*
X120747000Y-139835000D01*
X120747000Y-139835000D01*
G37*
G36*
X107950935Y-136873429D02*
X108047534Y-136892644D01*
X108320517Y-137005717D01*
X108562920Y-137167687D01*
X108566197Y-137169876D01*
X108775124Y-137378803D01*
X108775126Y-137378806D01*
X108924161Y-137601851D01*
X108939284Y-137624485D01*
X109052356Y-137897467D01*
X109102068Y-138147382D01*
X109110000Y-138187263D01*
X109110000Y-138482737D01*
X109052356Y-138772534D01*
X108939283Y-139045517D01*
X108851237Y-139177286D01*
X108775124Y-139291197D01*
X108566197Y-139500124D01*
X108566194Y-139500126D01*
X108320517Y-139664283D01*
X108047534Y-139777356D01*
X107950935Y-139796571D01*
X107757739Y-139835000D01*
X107462261Y-139835000D01*
X107269065Y-139796571D01*
X107172466Y-139777356D01*
X106899483Y-139664283D01*
X106653806Y-139500126D01*
X106653803Y-139500124D01*
X106444876Y-139291197D01*
X106368763Y-139177286D01*
X106280717Y-139045517D01*
X106167644Y-138772534D01*
X106110000Y-138482737D01*
X106110000Y-138187263D01*
X106117933Y-138147382D01*
X106167644Y-137897467D01*
X106280716Y-137624485D01*
X106295840Y-137601851D01*
X106444874Y-137378806D01*
X106444876Y-137378803D01*
X106653803Y-137169876D01*
X106657080Y-137167687D01*
X106899483Y-137005717D01*
X107172466Y-136892644D01*
X107269065Y-136873429D01*
X107462261Y-136835000D01*
X107757739Y-136835000D01*
X107950935Y-136873429D01*
X107950935Y-136873429D01*
G37*
G36*
X104110000Y-139835000D02*
X101110000Y-139835000D01*
X101110000Y-136835000D01*
X104110000Y-136835000D01*
X104110000Y-139835000D01*
X104110000Y-139835000D01*
G37*
G36*
X191135935Y-136873429D02*
X191232534Y-136892644D01*
X191505517Y-137005717D01*
X191747920Y-137167687D01*
X191751197Y-137169876D01*
X191960124Y-137378803D01*
X191960126Y-137378806D01*
X192109161Y-137601851D01*
X192124284Y-137624485D01*
X192237356Y-137897467D01*
X192287068Y-138147382D01*
X192295000Y-138187263D01*
X192295000Y-138482737D01*
X192237356Y-138772534D01*
X192124283Y-139045517D01*
X192036237Y-139177286D01*
X191960124Y-139291197D01*
X191751197Y-139500124D01*
X191751194Y-139500126D01*
X191505517Y-139664283D01*
X191232534Y-139777356D01*
X191135935Y-139796571D01*
X190942739Y-139835000D01*
X190647261Y-139835000D01*
X190454065Y-139796571D01*
X190357466Y-139777356D01*
X190084483Y-139664283D01*
X189838806Y-139500126D01*
X189838803Y-139500124D01*
X189629876Y-139291197D01*
X189553763Y-139177286D01*
X189465717Y-139045517D01*
X189352644Y-138772534D01*
X189295000Y-138482737D01*
X189295000Y-138187263D01*
X189302933Y-138147382D01*
X189352644Y-137897467D01*
X189465716Y-137624485D01*
X189480840Y-137601851D01*
X189629874Y-137378806D01*
X189629876Y-137378803D01*
X189838803Y-137169876D01*
X189842080Y-137167687D01*
X190084483Y-137005717D01*
X190357466Y-136892644D01*
X190454065Y-136873429D01*
X190647261Y-136835000D01*
X190942739Y-136835000D01*
X191135935Y-136873429D01*
X191135935Y-136873429D01*
G37*
G36*
X174498935Y-136873429D02*
X174595534Y-136892644D01*
X174868517Y-137005717D01*
X175110920Y-137167687D01*
X175114197Y-137169876D01*
X175323124Y-137378803D01*
X175323126Y-137378806D01*
X175472161Y-137601851D01*
X175487284Y-137624485D01*
X175600356Y-137897467D01*
X175650068Y-138147382D01*
X175658000Y-138187263D01*
X175658000Y-138482737D01*
X175600356Y-138772534D01*
X175487283Y-139045517D01*
X175399237Y-139177286D01*
X175323124Y-139291197D01*
X175114197Y-139500124D01*
X175114194Y-139500126D01*
X174868517Y-139664283D01*
X174595534Y-139777356D01*
X174498935Y-139796571D01*
X174305739Y-139835000D01*
X174010261Y-139835000D01*
X173817065Y-139796571D01*
X173720466Y-139777356D01*
X173447483Y-139664283D01*
X173201806Y-139500126D01*
X173201803Y-139500124D01*
X172992876Y-139291197D01*
X172916763Y-139177286D01*
X172828717Y-139045517D01*
X172715644Y-138772534D01*
X172658000Y-138482737D01*
X172658000Y-138187263D01*
X172665933Y-138147382D01*
X172715644Y-137897467D01*
X172828716Y-137624485D01*
X172843840Y-137601851D01*
X172992874Y-137378806D01*
X172992876Y-137378803D01*
X173201803Y-137169876D01*
X173205080Y-137167687D01*
X173447483Y-137005717D01*
X173720466Y-136892644D01*
X173817065Y-136873429D01*
X174010261Y-136835000D01*
X174305739Y-136835000D01*
X174498935Y-136873429D01*
X174498935Y-136873429D01*
G37*
G36*
X170658000Y-139835000D02*
X167658000Y-139835000D01*
X167658000Y-136835000D01*
X170658000Y-136835000D01*
X170658000Y-139835000D01*
X170658000Y-139835000D01*
G37*
G36*
X157861935Y-136873429D02*
X157958534Y-136892644D01*
X158231517Y-137005717D01*
X158473920Y-137167687D01*
X158477197Y-137169876D01*
X158686124Y-137378803D01*
X158686126Y-137378806D01*
X158835161Y-137601851D01*
X158850284Y-137624485D01*
X158963356Y-137897467D01*
X159013068Y-138147382D01*
X159021000Y-138187263D01*
X159021000Y-138482737D01*
X158963356Y-138772534D01*
X158850283Y-139045517D01*
X158762237Y-139177286D01*
X158686124Y-139291197D01*
X158477197Y-139500124D01*
X158477194Y-139500126D01*
X158231517Y-139664283D01*
X157958534Y-139777356D01*
X157861935Y-139796571D01*
X157668739Y-139835000D01*
X157373261Y-139835000D01*
X157180065Y-139796571D01*
X157083466Y-139777356D01*
X156810483Y-139664283D01*
X156564806Y-139500126D01*
X156564803Y-139500124D01*
X156355876Y-139291197D01*
X156279763Y-139177286D01*
X156191717Y-139045517D01*
X156078644Y-138772534D01*
X156021000Y-138482737D01*
X156021000Y-138187263D01*
X156028933Y-138147382D01*
X156078644Y-137897467D01*
X156191716Y-137624485D01*
X156206840Y-137601851D01*
X156355874Y-137378806D01*
X156355876Y-137378803D01*
X156564803Y-137169876D01*
X156568080Y-137167687D01*
X156810483Y-137005717D01*
X157083466Y-136892644D01*
X157180065Y-136873429D01*
X157373261Y-136835000D01*
X157668739Y-136835000D01*
X157861935Y-136873429D01*
X157861935Y-136873429D01*
G37*
G36*
X154021000Y-139835000D02*
X151021000Y-139835000D01*
X151021000Y-136835000D01*
X154021000Y-136835000D01*
X154021000Y-139835000D01*
X154021000Y-139835000D01*
G37*
G36*
X141224935Y-136873429D02*
X141321534Y-136892644D01*
X141594517Y-137005717D01*
X141836920Y-137167687D01*
X141840197Y-137169876D01*
X142049124Y-137378803D01*
X142049126Y-137378806D01*
X142198161Y-137601851D01*
X142213284Y-137624485D01*
X142326356Y-137897467D01*
X142376068Y-138147382D01*
X142384000Y-138187263D01*
X142384000Y-138482737D01*
X142326356Y-138772534D01*
X142213283Y-139045517D01*
X142125237Y-139177286D01*
X142049124Y-139291197D01*
X141840197Y-139500124D01*
X141840194Y-139500126D01*
X141594517Y-139664283D01*
X141321534Y-139777356D01*
X141224935Y-139796571D01*
X141031739Y-139835000D01*
X140736261Y-139835000D01*
X140543065Y-139796571D01*
X140446466Y-139777356D01*
X140173483Y-139664283D01*
X139927806Y-139500126D01*
X139927803Y-139500124D01*
X139718876Y-139291197D01*
X139642763Y-139177286D01*
X139554717Y-139045517D01*
X139441644Y-138772534D01*
X139384000Y-138482737D01*
X139384000Y-138187263D01*
X139391933Y-138147382D01*
X139441644Y-137897467D01*
X139554716Y-137624485D01*
X139569840Y-137601851D01*
X139718874Y-137378806D01*
X139718876Y-137378803D01*
X139927803Y-137169876D01*
X139931080Y-137167687D01*
X140173483Y-137005717D01*
X140446466Y-136892644D01*
X140543065Y-136873429D01*
X140736261Y-136835000D01*
X141031739Y-136835000D01*
X141224935Y-136873429D01*
X141224935Y-136873429D01*
G37*
G36*
X110410000Y-132800000D02*
X107510000Y-132800000D01*
X107510000Y-129900000D01*
X110410000Y-129900000D01*
X110410000Y-132800000D01*
X110410000Y-132800000D01*
G37*
G36*
X118392947Y-129955722D02*
X118656833Y-130065027D01*
X118894324Y-130223713D01*
X119096287Y-130425676D01*
X119254973Y-130663167D01*
X119364278Y-130927053D01*
X119420000Y-131207186D01*
X119420000Y-131492814D01*
X119364278Y-131772947D01*
X119254973Y-132036833D01*
X119096287Y-132274324D01*
X118894324Y-132476287D01*
X118656833Y-132634973D01*
X118392947Y-132744278D01*
X118112814Y-132800000D01*
X117827186Y-132800000D01*
X117547053Y-132744278D01*
X117283167Y-132634973D01*
X117045676Y-132476287D01*
X116843713Y-132274324D01*
X116685027Y-132036833D01*
X116575722Y-131772947D01*
X116520000Y-131492814D01*
X116520000Y-131207186D01*
X116575722Y-130927053D01*
X116685027Y-130663167D01*
X116843713Y-130425676D01*
X117045676Y-130223713D01*
X117283167Y-130065027D01*
X117547053Y-129955722D01*
X117827186Y-129900000D01*
X118112814Y-129900000D01*
X118392947Y-129955722D01*
X118392947Y-129955722D01*
G37*
G36*
X134902947Y-129955722D02*
X135166833Y-130065027D01*
X135404324Y-130223713D01*
X135606287Y-130425676D01*
X135764973Y-130663167D01*
X135874278Y-130927053D01*
X135930000Y-131207186D01*
X135930000Y-131492814D01*
X135874278Y-131772947D01*
X135764973Y-132036833D01*
X135606287Y-132274324D01*
X135404324Y-132476287D01*
X135166833Y-132634973D01*
X134902947Y-132744278D01*
X134622814Y-132800000D01*
X134337186Y-132800000D01*
X134057053Y-132744278D01*
X133793167Y-132634973D01*
X133555676Y-132476287D01*
X133353713Y-132274324D01*
X133195027Y-132036833D01*
X133085722Y-131772947D01*
X133030000Y-131492814D01*
X133030000Y-131207186D01*
X133085722Y-130927053D01*
X133195027Y-130663167D01*
X133353713Y-130425676D01*
X133555676Y-130223713D01*
X133793167Y-130065027D01*
X134057053Y-129955722D01*
X134337186Y-129900000D01*
X134622814Y-129900000D01*
X134902947Y-129955722D01*
X134902947Y-129955722D01*
G37*
G36*
X143430000Y-132800000D02*
X140530000Y-132800000D01*
X140530000Y-129900000D01*
X143430000Y-129900000D01*
X143430000Y-132800000D01*
X143430000Y-132800000D01*
G37*
G36*
X151412947Y-129955722D02*
X151676833Y-130065027D01*
X151914324Y-130223713D01*
X152116287Y-130425676D01*
X152274973Y-130663167D01*
X152384278Y-130927053D01*
X152440000Y-131207186D01*
X152440000Y-131492814D01*
X152384278Y-131772947D01*
X152274973Y-132036833D01*
X152116287Y-132274324D01*
X151914324Y-132476287D01*
X151676833Y-132634973D01*
X151412947Y-132744278D01*
X151132814Y-132800000D01*
X150847186Y-132800000D01*
X150567053Y-132744278D01*
X150303167Y-132634973D01*
X150065676Y-132476287D01*
X149863713Y-132274324D01*
X149705027Y-132036833D01*
X149595722Y-131772947D01*
X149540000Y-131492814D01*
X149540000Y-131207186D01*
X149595722Y-130927053D01*
X149705027Y-130663167D01*
X149863713Y-130425676D01*
X150065676Y-130223713D01*
X150303167Y-130065027D01*
X150567053Y-129955722D01*
X150847186Y-129900000D01*
X151132814Y-129900000D01*
X151412947Y-129955722D01*
X151412947Y-129955722D01*
G37*
G36*
X168176947Y-129955722D02*
X168440833Y-130065027D01*
X168678324Y-130223713D01*
X168880287Y-130425676D01*
X169038973Y-130663167D01*
X169148278Y-130927053D01*
X169204000Y-131207186D01*
X169204000Y-131492814D01*
X169148278Y-131772947D01*
X169038973Y-132036833D01*
X168880287Y-132274324D01*
X168678324Y-132476287D01*
X168440833Y-132634973D01*
X168176947Y-132744278D01*
X167896814Y-132800000D01*
X167611186Y-132800000D01*
X167331053Y-132744278D01*
X167067167Y-132634973D01*
X166829676Y-132476287D01*
X166627713Y-132274324D01*
X166469027Y-132036833D01*
X166359722Y-131772947D01*
X166304000Y-131492814D01*
X166304000Y-131207186D01*
X166359722Y-130927053D01*
X166469027Y-130663167D01*
X166627713Y-130425676D01*
X166829676Y-130223713D01*
X167067167Y-130065027D01*
X167331053Y-129955722D01*
X167611186Y-129900000D01*
X167896814Y-129900000D01*
X168176947Y-129955722D01*
X168176947Y-129955722D01*
G37*
G36*
X176704000Y-132800000D02*
X173804000Y-132800000D01*
X173804000Y-129900000D01*
X176704000Y-129900000D01*
X176704000Y-132800000D01*
X176704000Y-132800000D01*
G37*
G36*
X126920000Y-132800000D02*
X124020000Y-132800000D01*
X124020000Y-129900000D01*
X126920000Y-129900000D01*
X126920000Y-132800000D01*
X126920000Y-132800000D01*
G37*
G36*
X193475000Y-132800000D02*
X190575000Y-132800000D01*
X190575000Y-129900000D01*
X193475000Y-129900000D01*
X193475000Y-132800000D01*
X193475000Y-132800000D01*
G37*
G36*
X101882947Y-129955722D02*
X102146833Y-130065027D01*
X102384324Y-130223713D01*
X102586287Y-130425676D01*
X102744973Y-130663167D01*
X102854278Y-130927053D01*
X102910000Y-131207186D01*
X102910000Y-131492814D01*
X102854278Y-131772947D01*
X102744973Y-132036833D01*
X102586287Y-132274324D01*
X102384324Y-132476287D01*
X102146833Y-132634973D01*
X101882947Y-132744278D01*
X101602814Y-132800000D01*
X101317186Y-132800000D01*
X101037053Y-132744278D01*
X100773167Y-132634973D01*
X100535676Y-132476287D01*
X100333713Y-132274324D01*
X100175027Y-132036833D01*
X100065722Y-131772947D01*
X100010000Y-131492814D01*
X100010000Y-131207186D01*
X100065722Y-130927053D01*
X100175027Y-130663167D01*
X100333713Y-130425676D01*
X100535676Y-130223713D01*
X100773167Y-130065027D01*
X101037053Y-129955722D01*
X101317186Y-129900000D01*
X101602814Y-129900000D01*
X101882947Y-129955722D01*
X101882947Y-129955722D01*
G37*
G36*
X184947947Y-129955722D02*
X185211833Y-130065027D01*
X185449324Y-130223713D01*
X185651287Y-130425676D01*
X185809973Y-130663167D01*
X185919278Y-130927053D01*
X185975000Y-131207186D01*
X185975000Y-131492814D01*
X185919278Y-131772947D01*
X185809973Y-132036833D01*
X185651287Y-132274324D01*
X185449324Y-132476287D01*
X185211833Y-132634973D01*
X184947947Y-132744278D01*
X184667814Y-132800000D01*
X184382186Y-132800000D01*
X184102053Y-132744278D01*
X183838167Y-132634973D01*
X183600676Y-132476287D01*
X183398713Y-132274324D01*
X183240027Y-132036833D01*
X183130722Y-131772947D01*
X183075000Y-131492814D01*
X183075000Y-131207186D01*
X183130722Y-130927053D01*
X183240027Y-130663167D01*
X183398713Y-130425676D01*
X183600676Y-130223713D01*
X183838167Y-130065027D01*
X184102053Y-129955722D01*
X184382186Y-129900000D01*
X184667814Y-129900000D01*
X184947947Y-129955722D01*
X184947947Y-129955722D01*
G37*
G36*
X159940000Y-132800000D02*
X157040000Y-132800000D01*
X157040000Y-129900000D01*
X159940000Y-129900000D01*
X159940000Y-132800000D01*
X159940000Y-132800000D01*
G37*
G36*
X220021159Y-127985399D02*
X220187658Y-128001798D01*
X220351750Y-128051575D01*
X220508110Y-128099006D01*
X220803441Y-128256864D01*
X221062298Y-128469302D01*
X221274736Y-128728159D01*
X221432594Y-129023490D01*
X221432594Y-129023491D01*
X221529802Y-129343942D01*
X221562625Y-129677200D01*
X221529802Y-130010458D01*
X221465112Y-130223711D01*
X221432594Y-130330910D01*
X221274736Y-130626241D01*
X221062298Y-130885098D01*
X220803441Y-131097536D01*
X220508110Y-131255394D01*
X220401292Y-131287797D01*
X220187658Y-131352602D01*
X220021159Y-131369001D01*
X219937911Y-131377200D01*
X218770889Y-131377200D01*
X218687641Y-131369001D01*
X218521142Y-131352602D01*
X218307508Y-131287797D01*
X218200690Y-131255394D01*
X217905359Y-131097536D01*
X217646502Y-130885098D01*
X217434064Y-130626241D01*
X217276206Y-130330910D01*
X217243688Y-130223711D01*
X217178998Y-130010458D01*
X217146175Y-129677200D01*
X217178998Y-129343942D01*
X217276206Y-129023491D01*
X217276206Y-129023490D01*
X217434064Y-128728159D01*
X217646502Y-128469302D01*
X217905359Y-128256864D01*
X218200690Y-128099006D01*
X218357050Y-128051575D01*
X218521142Y-128001798D01*
X218687641Y-127985399D01*
X218770889Y-127977200D01*
X219937911Y-127977200D01*
X220021159Y-127985399D01*
X220021159Y-127985399D01*
G37*
G36*
X93420857Y-127848272D02*
X93621042Y-127931191D01*
X93621045Y-127931193D01*
X93726713Y-128001798D01*
X93801213Y-128051578D01*
X93954422Y-128204787D01*
X94074809Y-128384958D01*
X94157728Y-128585143D01*
X94200000Y-128797658D01*
X94200000Y-129014342D01*
X94157728Y-129226857D01*
X94074809Y-129427042D01*
X93954422Y-129607213D01*
X93801213Y-129760422D01*
X93621042Y-129880809D01*
X93420857Y-129963728D01*
X93208342Y-130006000D01*
X92991658Y-130006000D01*
X92779143Y-129963728D01*
X92578958Y-129880809D01*
X92398787Y-129760422D01*
X92245578Y-129607213D01*
X92125191Y-129427042D01*
X92042272Y-129226857D01*
X92000000Y-129014342D01*
X92000000Y-128797658D01*
X92042272Y-128585143D01*
X92125191Y-128384958D01*
X92245578Y-128204787D01*
X92398787Y-128051578D01*
X92473288Y-128001798D01*
X92578955Y-127931193D01*
X92578958Y-127931191D01*
X92779143Y-127848272D01*
X92991658Y-127806000D01*
X93208342Y-127806000D01*
X93420857Y-127848272D01*
X93420857Y-127848272D01*
G37*
G36*
X86544000Y-128200000D02*
X84144000Y-128200000D01*
X84144000Y-125800000D01*
X86544000Y-125800000D01*
X86544000Y-128200000D01*
X86544000Y-128200000D01*
G37*
G36*
X158912947Y-124955722D02*
X159176833Y-125065027D01*
X159414324Y-125223713D01*
X159616287Y-125425676D01*
X159774973Y-125663167D01*
X159884278Y-125927053D01*
X159940000Y-126207186D01*
X159940000Y-126492814D01*
X159884278Y-126772947D01*
X159774973Y-127036833D01*
X159616287Y-127274324D01*
X159414324Y-127476287D01*
X159176833Y-127634973D01*
X158912947Y-127744278D01*
X158632814Y-127800000D01*
X158347186Y-127800000D01*
X158067053Y-127744278D01*
X157803167Y-127634973D01*
X157565676Y-127476287D01*
X157363713Y-127274324D01*
X157205027Y-127036833D01*
X157095722Y-126772947D01*
X157040000Y-126492814D01*
X157040000Y-126207186D01*
X157095722Y-125927053D01*
X157205027Y-125663167D01*
X157363713Y-125425676D01*
X157565676Y-125223713D01*
X157803167Y-125065027D01*
X158067053Y-124955722D01*
X158347186Y-124900000D01*
X158632814Y-124900000D01*
X158912947Y-124955722D01*
X158912947Y-124955722D01*
G37*
G36*
X101882947Y-124955722D02*
X102146833Y-125065027D01*
X102384324Y-125223713D01*
X102586287Y-125425676D01*
X102744973Y-125663167D01*
X102854278Y-125927053D01*
X102910000Y-126207186D01*
X102910000Y-126492814D01*
X102854278Y-126772947D01*
X102744973Y-127036833D01*
X102586287Y-127274324D01*
X102384324Y-127476287D01*
X102146833Y-127634973D01*
X101882947Y-127744278D01*
X101602814Y-127800000D01*
X101317186Y-127800000D01*
X101037053Y-127744278D01*
X100773167Y-127634973D01*
X100535676Y-127476287D01*
X100333713Y-127274324D01*
X100175027Y-127036833D01*
X100065722Y-126772947D01*
X100010000Y-126492814D01*
X100010000Y-126207186D01*
X100065722Y-125927053D01*
X100175027Y-125663167D01*
X100333713Y-125425676D01*
X100535676Y-125223713D01*
X100773167Y-125065027D01*
X101037053Y-124955722D01*
X101317186Y-124900000D01*
X101602814Y-124900000D01*
X101882947Y-124955722D01*
X101882947Y-124955722D01*
G37*
G36*
X109382947Y-124955722D02*
X109646833Y-125065027D01*
X109884324Y-125223713D01*
X110086287Y-125425676D01*
X110244973Y-125663167D01*
X110354278Y-125927053D01*
X110410000Y-126207186D01*
X110410000Y-126492814D01*
X110354278Y-126772947D01*
X110244973Y-127036833D01*
X110086287Y-127274324D01*
X109884324Y-127476287D01*
X109646833Y-127634973D01*
X109382947Y-127744278D01*
X109102814Y-127800000D01*
X108817186Y-127800000D01*
X108537053Y-127744278D01*
X108273167Y-127634973D01*
X108035676Y-127476287D01*
X107833713Y-127274324D01*
X107675027Y-127036833D01*
X107565722Y-126772947D01*
X107510000Y-126492814D01*
X107510000Y-126207186D01*
X107565722Y-125927053D01*
X107675027Y-125663167D01*
X107833713Y-125425676D01*
X108035676Y-125223713D01*
X108273167Y-125065027D01*
X108537053Y-124955722D01*
X108817186Y-124900000D01*
X109102814Y-124900000D01*
X109382947Y-124955722D01*
X109382947Y-124955722D01*
G37*
G36*
X118392947Y-124955722D02*
X118656833Y-125065027D01*
X118894324Y-125223713D01*
X119096287Y-125425676D01*
X119254973Y-125663167D01*
X119364278Y-125927053D01*
X119420000Y-126207186D01*
X119420000Y-126492814D01*
X119364278Y-126772947D01*
X119254973Y-127036833D01*
X119096287Y-127274324D01*
X118894324Y-127476287D01*
X118656833Y-127634973D01*
X118392947Y-127744278D01*
X118112814Y-127800000D01*
X117827186Y-127800000D01*
X117547053Y-127744278D01*
X117283167Y-127634973D01*
X117045676Y-127476287D01*
X116843713Y-127274324D01*
X116685027Y-127036833D01*
X116575722Y-126772947D01*
X116520000Y-126492814D01*
X116520000Y-126207186D01*
X116575722Y-125927053D01*
X116685027Y-125663167D01*
X116843713Y-125425676D01*
X117045676Y-125223713D01*
X117283167Y-125065027D01*
X117547053Y-124955722D01*
X117827186Y-124900000D01*
X118112814Y-124900000D01*
X118392947Y-124955722D01*
X118392947Y-124955722D01*
G37*
G36*
X168176947Y-124955722D02*
X168440833Y-125065027D01*
X168678324Y-125223713D01*
X168880287Y-125425676D01*
X169038973Y-125663167D01*
X169148278Y-125927053D01*
X169204000Y-126207186D01*
X169204000Y-126492814D01*
X169148278Y-126772947D01*
X169038973Y-127036833D01*
X168880287Y-127274324D01*
X168678324Y-127476287D01*
X168440833Y-127634973D01*
X168176947Y-127744278D01*
X167896814Y-127800000D01*
X167611186Y-127800000D01*
X167331053Y-127744278D01*
X167067167Y-127634973D01*
X166829676Y-127476287D01*
X166627713Y-127274324D01*
X166469027Y-127036833D01*
X166359722Y-126772947D01*
X166304000Y-126492814D01*
X166304000Y-126207186D01*
X166359722Y-125927053D01*
X166469027Y-125663167D01*
X166627713Y-125425676D01*
X166829676Y-125223713D01*
X167067167Y-125065027D01*
X167331053Y-124955722D01*
X167611186Y-124900000D01*
X167896814Y-124900000D01*
X168176947Y-124955722D01*
X168176947Y-124955722D01*
G37*
G36*
X175676947Y-124955722D02*
X175940833Y-125065027D01*
X176178324Y-125223713D01*
X176380287Y-125425676D01*
X176538973Y-125663167D01*
X176648278Y-125927053D01*
X176704000Y-126207186D01*
X176704000Y-126492814D01*
X176648278Y-126772947D01*
X176538973Y-127036833D01*
X176380287Y-127274324D01*
X176178324Y-127476287D01*
X175940833Y-127634973D01*
X175676947Y-127744278D01*
X175396814Y-127800000D01*
X175111186Y-127800000D01*
X174831053Y-127744278D01*
X174567167Y-127634973D01*
X174329676Y-127476287D01*
X174127713Y-127274324D01*
X173969027Y-127036833D01*
X173859722Y-126772947D01*
X173804000Y-126492814D01*
X173804000Y-126207186D01*
X173859722Y-125927053D01*
X173969027Y-125663167D01*
X174127713Y-125425676D01*
X174329676Y-125223713D01*
X174567167Y-125065027D01*
X174831053Y-124955722D01*
X175111186Y-124900000D01*
X175396814Y-124900000D01*
X175676947Y-124955722D01*
X175676947Y-124955722D01*
G37*
G36*
X142402947Y-124955722D02*
X142666833Y-125065027D01*
X142904324Y-125223713D01*
X143106287Y-125425676D01*
X143264973Y-125663167D01*
X143374278Y-125927053D01*
X143430000Y-126207186D01*
X143430000Y-126492814D01*
X143374278Y-126772947D01*
X143264973Y-127036833D01*
X143106287Y-127274324D01*
X142904324Y-127476287D01*
X142666833Y-127634973D01*
X142402947Y-127744278D01*
X142122814Y-127800000D01*
X141837186Y-127800000D01*
X141557053Y-127744278D01*
X141293167Y-127634973D01*
X141055676Y-127476287D01*
X140853713Y-127274324D01*
X140695027Y-127036833D01*
X140585722Y-126772947D01*
X140530000Y-126492814D01*
X140530000Y-126207186D01*
X140585722Y-125927053D01*
X140695027Y-125663167D01*
X140853713Y-125425676D01*
X141055676Y-125223713D01*
X141293167Y-125065027D01*
X141557053Y-124955722D01*
X141837186Y-124900000D01*
X142122814Y-124900000D01*
X142402947Y-124955722D01*
X142402947Y-124955722D01*
G37*
G36*
X184947947Y-124955722D02*
X185211833Y-125065027D01*
X185449324Y-125223713D01*
X185651287Y-125425676D01*
X185809973Y-125663167D01*
X185919278Y-125927053D01*
X185975000Y-126207186D01*
X185975000Y-126492814D01*
X185919278Y-126772947D01*
X185809973Y-127036833D01*
X185651287Y-127274324D01*
X185449324Y-127476287D01*
X185211833Y-127634973D01*
X184947947Y-127744278D01*
X184667814Y-127800000D01*
X184382186Y-127800000D01*
X184102053Y-127744278D01*
X183838167Y-127634973D01*
X183600676Y-127476287D01*
X183398713Y-127274324D01*
X183240027Y-127036833D01*
X183130722Y-126772947D01*
X183075000Y-126492814D01*
X183075000Y-126207186D01*
X183130722Y-125927053D01*
X183240027Y-125663167D01*
X183398713Y-125425676D01*
X183600676Y-125223713D01*
X183838167Y-125065027D01*
X184102053Y-124955722D01*
X184382186Y-124900000D01*
X184667814Y-124900000D01*
X184947947Y-124955722D01*
X184947947Y-124955722D01*
G37*
G36*
X192447947Y-124955722D02*
X192711833Y-125065027D01*
X192949324Y-125223713D01*
X193151287Y-125425676D01*
X193309973Y-125663167D01*
X193419278Y-125927053D01*
X193475000Y-126207186D01*
X193475000Y-126492814D01*
X193419278Y-126772947D01*
X193309973Y-127036833D01*
X193151287Y-127274324D01*
X192949324Y-127476287D01*
X192711833Y-127634973D01*
X192447947Y-127744278D01*
X192167814Y-127800000D01*
X191882186Y-127800000D01*
X191602053Y-127744278D01*
X191338167Y-127634973D01*
X191100676Y-127476287D01*
X190898713Y-127274324D01*
X190740027Y-127036833D01*
X190630722Y-126772947D01*
X190575000Y-126492814D01*
X190575000Y-126207186D01*
X190630722Y-125927053D01*
X190740027Y-125663167D01*
X190898713Y-125425676D01*
X191100676Y-125223713D01*
X191338167Y-125065027D01*
X191602053Y-124955722D01*
X191882186Y-124900000D01*
X192167814Y-124900000D01*
X192447947Y-124955722D01*
X192447947Y-124955722D01*
G37*
G36*
X125892947Y-124955722D02*
X126156833Y-125065027D01*
X126394324Y-125223713D01*
X126596287Y-125425676D01*
X126754973Y-125663167D01*
X126864278Y-125927053D01*
X126920000Y-126207186D01*
X126920000Y-126492814D01*
X126864278Y-126772947D01*
X126754973Y-127036833D01*
X126596287Y-127274324D01*
X126394324Y-127476287D01*
X126156833Y-127634973D01*
X125892947Y-127744278D01*
X125612814Y-127800000D01*
X125327186Y-127800000D01*
X125047053Y-127744278D01*
X124783167Y-127634973D01*
X124545676Y-127476287D01*
X124343713Y-127274324D01*
X124185027Y-127036833D01*
X124075722Y-126772947D01*
X124020000Y-126492814D01*
X124020000Y-126207186D01*
X124075722Y-125927053D01*
X124185027Y-125663167D01*
X124343713Y-125425676D01*
X124545676Y-125223713D01*
X124783167Y-125065027D01*
X125047053Y-124955722D01*
X125327186Y-124900000D01*
X125612814Y-124900000D01*
X125892947Y-124955722D01*
X125892947Y-124955722D01*
G37*
G36*
X151412947Y-124955722D02*
X151676833Y-125065027D01*
X151914324Y-125223713D01*
X152116287Y-125425676D01*
X152274973Y-125663167D01*
X152384278Y-125927053D01*
X152440000Y-126207186D01*
X152440000Y-126492814D01*
X152384278Y-126772947D01*
X152274973Y-127036833D01*
X152116287Y-127274324D01*
X151914324Y-127476287D01*
X151676833Y-127634973D01*
X151412947Y-127744278D01*
X151132814Y-127800000D01*
X150847186Y-127800000D01*
X150567053Y-127744278D01*
X150303167Y-127634973D01*
X150065676Y-127476287D01*
X149863713Y-127274324D01*
X149705027Y-127036833D01*
X149595722Y-126772947D01*
X149540000Y-126492814D01*
X149540000Y-126207186D01*
X149595722Y-125927053D01*
X149705027Y-125663167D01*
X149863713Y-125425676D01*
X150065676Y-125223713D01*
X150303167Y-125065027D01*
X150567053Y-124955722D01*
X150847186Y-124900000D01*
X151132814Y-124900000D01*
X151412947Y-124955722D01*
X151412947Y-124955722D01*
G37*
G36*
X134902947Y-124955722D02*
X135166833Y-125065027D01*
X135404324Y-125223713D01*
X135606287Y-125425676D01*
X135764973Y-125663167D01*
X135874278Y-125927053D01*
X135930000Y-126207186D01*
X135930000Y-126492814D01*
X135874278Y-126772947D01*
X135764973Y-127036833D01*
X135606287Y-127274324D01*
X135404324Y-127476287D01*
X135166833Y-127634973D01*
X134902947Y-127744278D01*
X134622814Y-127800000D01*
X134337186Y-127800000D01*
X134057053Y-127744278D01*
X133793167Y-127634973D01*
X133555676Y-127476287D01*
X133353713Y-127274324D01*
X133195027Y-127036833D01*
X133085722Y-126772947D01*
X133030000Y-126492814D01*
X133030000Y-126207186D01*
X133085722Y-125927053D01*
X133195027Y-125663167D01*
X133353713Y-125425676D01*
X133555676Y-125223713D01*
X133793167Y-125065027D01*
X134057053Y-124955722D01*
X134337186Y-124900000D01*
X134622814Y-124900000D01*
X134902947Y-124955722D01*
X134902947Y-124955722D01*
G37*
G36*
X220021159Y-120685399D02*
X220187658Y-120701798D01*
X220399682Y-120766115D01*
X220508110Y-120799006D01*
X220803441Y-120956864D01*
X221062298Y-121169302D01*
X221274736Y-121428159D01*
X221432594Y-121723490D01*
X221456352Y-121801809D01*
X221529802Y-122043942D01*
X221562625Y-122377200D01*
X221529802Y-122710458D01*
X221486835Y-122852101D01*
X221432594Y-123030910D01*
X221274736Y-123326241D01*
X221062298Y-123585098D01*
X220803441Y-123797536D01*
X220508110Y-123955394D01*
X220401292Y-123987797D01*
X220187658Y-124052602D01*
X220021159Y-124069001D01*
X219937911Y-124077200D01*
X218770889Y-124077200D01*
X218687641Y-124069001D01*
X218521142Y-124052602D01*
X218307508Y-123987797D01*
X218200690Y-123955394D01*
X217905359Y-123797536D01*
X217646502Y-123585098D01*
X217434064Y-123326241D01*
X217276206Y-123030910D01*
X217221965Y-122852101D01*
X217178998Y-122710458D01*
X217146175Y-122377200D01*
X217178998Y-122043942D01*
X217252448Y-121801809D01*
X217276206Y-121723490D01*
X217434064Y-121428159D01*
X217646502Y-121169302D01*
X217905359Y-120956864D01*
X218200690Y-120799006D01*
X218309118Y-120766115D01*
X218521142Y-120701798D01*
X218687641Y-120685399D01*
X218770889Y-120677200D01*
X219937911Y-120677200D01*
X220021159Y-120685399D01*
X220021159Y-120685399D01*
G37*
G36*
X85694026Y-120766115D02*
X85912412Y-120856573D01*
X86108958Y-120987901D01*
X86276099Y-121155042D01*
X86407427Y-121351588D01*
X86497885Y-121569974D01*
X86544000Y-121801809D01*
X86544000Y-122038191D01*
X86497885Y-122270026D01*
X86407427Y-122488412D01*
X86276099Y-122684958D01*
X86108958Y-122852099D01*
X85912412Y-122983427D01*
X85694026Y-123073885D01*
X85462191Y-123120000D01*
X85225809Y-123120000D01*
X84993974Y-123073885D01*
X84775588Y-122983427D01*
X84579042Y-122852099D01*
X84411901Y-122684958D01*
X84280573Y-122488412D01*
X84190115Y-122270026D01*
X84144000Y-122038191D01*
X84144000Y-121801809D01*
X84190115Y-121569974D01*
X84280573Y-121351588D01*
X84411901Y-121155042D01*
X84579042Y-120987901D01*
X84775588Y-120856573D01*
X84993974Y-120766115D01*
X85225809Y-120720000D01*
X85462191Y-120720000D01*
X85694026Y-120766115D01*
X85694026Y-120766115D01*
G37*
G36*
X96320857Y-120348272D02*
X96521042Y-120431191D01*
X96701213Y-120551578D01*
X96854422Y-120704787D01*
X96854424Y-120704790D01*
X96854425Y-120704791D01*
X96918042Y-120800000D01*
X96974809Y-120884958D01*
X97057728Y-121085143D01*
X97100000Y-121297658D01*
X97100000Y-121514342D01*
X97057728Y-121726857D01*
X96974809Y-121927042D01*
X96854422Y-122107213D01*
X96701213Y-122260422D01*
X96701210Y-122260424D01*
X96701209Y-122260425D01*
X96526443Y-122377200D01*
X96521042Y-122380809D01*
X96320857Y-122463728D01*
X96108342Y-122506000D01*
X95891658Y-122506000D01*
X95679143Y-122463728D01*
X95478958Y-122380809D01*
X95473557Y-122377200D01*
X95298791Y-122260425D01*
X95298790Y-122260424D01*
X95298787Y-122260422D01*
X95145578Y-122107213D01*
X95025191Y-121927042D01*
X94942272Y-121726857D01*
X94900000Y-121514342D01*
X94900000Y-121297658D01*
X94942272Y-121085143D01*
X95025191Y-120884958D01*
X95081958Y-120800000D01*
X95145575Y-120704791D01*
X95145576Y-120704790D01*
X95145578Y-120704787D01*
X95298787Y-120551578D01*
X95478958Y-120431191D01*
X95679143Y-120348272D01*
X95891658Y-120306000D01*
X96108342Y-120306000D01*
X96320857Y-120348272D01*
X96320857Y-120348272D01*
G37*
G36*
X57409122Y-117246115D02*
X57525041Y-117269173D01*
X57852620Y-117404861D01*
X58143511Y-117599228D01*
X58147436Y-117601851D01*
X58398149Y-117852564D01*
X58595140Y-118147382D01*
X58730827Y-118474960D01*
X58800000Y-118822714D01*
X58800000Y-119177286D01*
X58730827Y-119525040D01*
X58595140Y-119852618D01*
X58398149Y-120147436D01*
X58147436Y-120398149D01*
X58147433Y-120398151D01*
X57852620Y-120595139D01*
X57525041Y-120730827D01*
X57409122Y-120753885D01*
X57177286Y-120800000D01*
X56822714Y-120800000D01*
X56590878Y-120753885D01*
X56474959Y-120730827D01*
X56147380Y-120595139D01*
X55852567Y-120398151D01*
X55852564Y-120398149D01*
X55601851Y-120147436D01*
X55404860Y-119852618D01*
X55269173Y-119525040D01*
X55200000Y-119177286D01*
X55200000Y-118822714D01*
X55269173Y-118474960D01*
X55404860Y-118147382D01*
X55601851Y-117852564D01*
X55852564Y-117601851D01*
X55856489Y-117599228D01*
X56147380Y-117404861D01*
X56474959Y-117269173D01*
X56590878Y-117246115D01*
X56822714Y-117200000D01*
X57177286Y-117200000D01*
X57409122Y-117246115D01*
X57409122Y-117246115D01*
G37*
G36*
X233409122Y-117246115D02*
X233525041Y-117269173D01*
X233852620Y-117404861D01*
X234143511Y-117599228D01*
X234147436Y-117601851D01*
X234398149Y-117852564D01*
X234595140Y-118147382D01*
X234730827Y-118474960D01*
X234800000Y-118822714D01*
X234800000Y-119177286D01*
X234730827Y-119525040D01*
X234595140Y-119852618D01*
X234398149Y-120147436D01*
X234147436Y-120398149D01*
X234147433Y-120398151D01*
X233852620Y-120595139D01*
X233525041Y-120730827D01*
X233409122Y-120753885D01*
X233177286Y-120800000D01*
X232822714Y-120800000D01*
X232590878Y-120753885D01*
X232474959Y-120730827D01*
X232147380Y-120595139D01*
X231852567Y-120398151D01*
X231852564Y-120398149D01*
X231601851Y-120147436D01*
X231404860Y-119852618D01*
X231269173Y-119525040D01*
X231200000Y-119177286D01*
X231200000Y-118822714D01*
X231269173Y-118474960D01*
X231404860Y-118147382D01*
X231601851Y-117852564D01*
X231852564Y-117601851D01*
X231856489Y-117599228D01*
X232147380Y-117404861D01*
X232474959Y-117269173D01*
X232590878Y-117246115D01*
X232822714Y-117200000D01*
X233177286Y-117200000D01*
X233409122Y-117246115D01*
X233409122Y-117246115D01*
G37*
G36*
X220021159Y-113135399D02*
X220187658Y-113151798D01*
X220401292Y-113216603D01*
X220508110Y-113249006D01*
X220803441Y-113406864D01*
X221062298Y-113619302D01*
X221274736Y-113878159D01*
X221432594Y-114173490D01*
X221432594Y-114173491D01*
X221529802Y-114493942D01*
X221562625Y-114827200D01*
X221529802Y-115160458D01*
X221464997Y-115374092D01*
X221432594Y-115480910D01*
X221274736Y-115776241D01*
X221062298Y-116035098D01*
X220803441Y-116247536D01*
X220508110Y-116405394D01*
X220401292Y-116437797D01*
X220187658Y-116502602D01*
X220021159Y-116519001D01*
X219937911Y-116527200D01*
X218770889Y-116527200D01*
X218687641Y-116519001D01*
X218521142Y-116502602D01*
X218307508Y-116437797D01*
X218200690Y-116405394D01*
X217905359Y-116247536D01*
X217646502Y-116035098D01*
X217434064Y-115776241D01*
X217276206Y-115480910D01*
X217243803Y-115374092D01*
X217178998Y-115160458D01*
X217146175Y-114827200D01*
X217178998Y-114493942D01*
X217276206Y-114173491D01*
X217276206Y-114173490D01*
X217434064Y-113878159D01*
X217646502Y-113619302D01*
X217905359Y-113406864D01*
X218200690Y-113249006D01*
X218307508Y-113216603D01*
X218521142Y-113151798D01*
X218687641Y-113135399D01*
X218770889Y-113127200D01*
X219937911Y-113127200D01*
X220021159Y-113135399D01*
X220021159Y-113135399D01*
G37*
G36*
X220021159Y-105835399D02*
X220187658Y-105851798D01*
X220401292Y-105916603D01*
X220508110Y-105949006D01*
X220803441Y-106106864D01*
X221062298Y-106319302D01*
X221274736Y-106578159D01*
X221432594Y-106873490D01*
X221432594Y-106873491D01*
X221529802Y-107193942D01*
X221562625Y-107527200D01*
X221529802Y-107860458D01*
X221464997Y-108074092D01*
X221432594Y-108180910D01*
X221274736Y-108476241D01*
X221062298Y-108735098D01*
X220803441Y-108947536D01*
X220508110Y-109105394D01*
X220401292Y-109137797D01*
X220187658Y-109202602D01*
X220021159Y-109219001D01*
X219937911Y-109227200D01*
X218770889Y-109227200D01*
X218687641Y-109219001D01*
X218521142Y-109202602D01*
X218307508Y-109137797D01*
X218200690Y-109105394D01*
X217905359Y-108947536D01*
X217646502Y-108735098D01*
X217434064Y-108476241D01*
X217276206Y-108180910D01*
X217243803Y-108074092D01*
X217178998Y-107860458D01*
X217146175Y-107527200D01*
X217178998Y-107193942D01*
X217276206Y-106873491D01*
X217276206Y-106873490D01*
X217434064Y-106578159D01*
X217646502Y-106319302D01*
X217905359Y-106106864D01*
X218200690Y-105949006D01*
X218307508Y-105916603D01*
X218521142Y-105851798D01*
X218687641Y-105835399D01*
X218770889Y-105827200D01*
X219937911Y-105827200D01*
X220021159Y-105835399D01*
X220021159Y-105835399D01*
G37*
G36*
X118392947Y-104955722D02*
X118656833Y-105065027D01*
X118894324Y-105223713D01*
X119096287Y-105425676D01*
X119254973Y-105663167D01*
X119364278Y-105927053D01*
X119420000Y-106207186D01*
X119420000Y-106492814D01*
X119364278Y-106772947D01*
X119254973Y-107036833D01*
X119096287Y-107274324D01*
X118894324Y-107476287D01*
X118656833Y-107634973D01*
X118392947Y-107744278D01*
X118112814Y-107800000D01*
X117827186Y-107800000D01*
X117547053Y-107744278D01*
X117283167Y-107634973D01*
X117045676Y-107476287D01*
X116843713Y-107274324D01*
X116685027Y-107036833D01*
X116575722Y-106772947D01*
X116520000Y-106492814D01*
X116520000Y-106207186D01*
X116575722Y-105927053D01*
X116685027Y-105663167D01*
X116843713Y-105425676D01*
X117045676Y-105223713D01*
X117283167Y-105065027D01*
X117547053Y-104955722D01*
X117827186Y-104900000D01*
X118112814Y-104900000D01*
X118392947Y-104955722D01*
X118392947Y-104955722D01*
G37*
G36*
X134902947Y-104955722D02*
X135166833Y-105065027D01*
X135404324Y-105223713D01*
X135606287Y-105425676D01*
X135764973Y-105663167D01*
X135874278Y-105927053D01*
X135930000Y-106207186D01*
X135930000Y-106492814D01*
X135874278Y-106772947D01*
X135764973Y-107036833D01*
X135606287Y-107274324D01*
X135404324Y-107476287D01*
X135166833Y-107634973D01*
X134902947Y-107744278D01*
X134622814Y-107800000D01*
X134337186Y-107800000D01*
X134057053Y-107744278D01*
X133793167Y-107634973D01*
X133555676Y-107476287D01*
X133353713Y-107274324D01*
X133195027Y-107036833D01*
X133085722Y-106772947D01*
X133030000Y-106492814D01*
X133030000Y-106207186D01*
X133085722Y-105927053D01*
X133195027Y-105663167D01*
X133353713Y-105425676D01*
X133555676Y-105223713D01*
X133793167Y-105065027D01*
X134057053Y-104955722D01*
X134337186Y-104900000D01*
X134622814Y-104900000D01*
X134902947Y-104955722D01*
X134902947Y-104955722D01*
G37*
G36*
X142402947Y-104955722D02*
X142666833Y-105065027D01*
X142904324Y-105223713D01*
X143106287Y-105425676D01*
X143264973Y-105663167D01*
X143374278Y-105927053D01*
X143430000Y-106207186D01*
X143430000Y-106492814D01*
X143374278Y-106772947D01*
X143264973Y-107036833D01*
X143106287Y-107274324D01*
X142904324Y-107476287D01*
X142666833Y-107634973D01*
X142402947Y-107744278D01*
X142122814Y-107800000D01*
X141837186Y-107800000D01*
X141557053Y-107744278D01*
X141293167Y-107634973D01*
X141055676Y-107476287D01*
X140853713Y-107274324D01*
X140695027Y-107036833D01*
X140585722Y-106772947D01*
X140530000Y-106492814D01*
X140530000Y-106207186D01*
X140585722Y-105927053D01*
X140695027Y-105663167D01*
X140853713Y-105425676D01*
X141055676Y-105223713D01*
X141293167Y-105065027D01*
X141557053Y-104955722D01*
X141837186Y-104900000D01*
X142122814Y-104900000D01*
X142402947Y-104955722D01*
X142402947Y-104955722D01*
G37*
G36*
X151412947Y-104955722D02*
X151676833Y-105065027D01*
X151914324Y-105223713D01*
X152116287Y-105425676D01*
X152274973Y-105663167D01*
X152384278Y-105927053D01*
X152440000Y-106207186D01*
X152440000Y-106492814D01*
X152384278Y-106772947D01*
X152274973Y-107036833D01*
X152116287Y-107274324D01*
X151914324Y-107476287D01*
X151676833Y-107634973D01*
X151412947Y-107744278D01*
X151132814Y-107800000D01*
X150847186Y-107800000D01*
X150567053Y-107744278D01*
X150303167Y-107634973D01*
X150065676Y-107476287D01*
X149863713Y-107274324D01*
X149705027Y-107036833D01*
X149595722Y-106772947D01*
X149540000Y-106492814D01*
X149540000Y-106207186D01*
X149595722Y-105927053D01*
X149705027Y-105663167D01*
X149863713Y-105425676D01*
X150065676Y-105223713D01*
X150303167Y-105065027D01*
X150567053Y-104955722D01*
X150847186Y-104900000D01*
X151132814Y-104900000D01*
X151412947Y-104955722D01*
X151412947Y-104955722D01*
G37*
G36*
X158912947Y-104955722D02*
X159176833Y-105065027D01*
X159414324Y-105223713D01*
X159616287Y-105425676D01*
X159774973Y-105663167D01*
X159884278Y-105927053D01*
X159940000Y-106207186D01*
X159940000Y-106492814D01*
X159884278Y-106772947D01*
X159774973Y-107036833D01*
X159616287Y-107274324D01*
X159414324Y-107476287D01*
X159176833Y-107634973D01*
X158912947Y-107744278D01*
X158632814Y-107800000D01*
X158347186Y-107800000D01*
X158067053Y-107744278D01*
X157803167Y-107634973D01*
X157565676Y-107476287D01*
X157363713Y-107274324D01*
X157205027Y-107036833D01*
X157095722Y-106772947D01*
X157040000Y-106492814D01*
X157040000Y-106207186D01*
X157095722Y-105927053D01*
X157205027Y-105663167D01*
X157363713Y-105425676D01*
X157565676Y-105223713D01*
X157803167Y-105065027D01*
X158067053Y-104955722D01*
X158347186Y-104900000D01*
X158632814Y-104900000D01*
X158912947Y-104955722D01*
X158912947Y-104955722D01*
G37*
G36*
X168176947Y-104955722D02*
X168440833Y-105065027D01*
X168678324Y-105223713D01*
X168880287Y-105425676D01*
X169038973Y-105663167D01*
X169148278Y-105927053D01*
X169204000Y-106207186D01*
X169204000Y-106492814D01*
X169148278Y-106772947D01*
X169038973Y-107036833D01*
X168880287Y-107274324D01*
X168678324Y-107476287D01*
X168440833Y-107634973D01*
X168176947Y-107744278D01*
X167896814Y-107800000D01*
X167611186Y-107800000D01*
X167331053Y-107744278D01*
X167067167Y-107634973D01*
X166829676Y-107476287D01*
X166627713Y-107274324D01*
X166469027Y-107036833D01*
X166359722Y-106772947D01*
X166304000Y-106492814D01*
X166304000Y-106207186D01*
X166359722Y-105927053D01*
X166469027Y-105663167D01*
X166627713Y-105425676D01*
X166829676Y-105223713D01*
X167067167Y-105065027D01*
X167331053Y-104955722D01*
X167611186Y-104900000D01*
X167896814Y-104900000D01*
X168176947Y-104955722D01*
X168176947Y-104955722D01*
G37*
G36*
X109382947Y-104955722D02*
X109646833Y-105065027D01*
X109884324Y-105223713D01*
X110086287Y-105425676D01*
X110244973Y-105663167D01*
X110354278Y-105927053D01*
X110410000Y-106207186D01*
X110410000Y-106492814D01*
X110354278Y-106772947D01*
X110244973Y-107036833D01*
X110086287Y-107274324D01*
X109884324Y-107476287D01*
X109646833Y-107634973D01*
X109382947Y-107744278D01*
X109102814Y-107800000D01*
X108817186Y-107800000D01*
X108537053Y-107744278D01*
X108273167Y-107634973D01*
X108035676Y-107476287D01*
X107833713Y-107274324D01*
X107675027Y-107036833D01*
X107565722Y-106772947D01*
X107510000Y-106492814D01*
X107510000Y-106207186D01*
X107565722Y-105927053D01*
X107675027Y-105663167D01*
X107833713Y-105425676D01*
X108035676Y-105223713D01*
X108273167Y-105065027D01*
X108537053Y-104955722D01*
X108817186Y-104900000D01*
X109102814Y-104900000D01*
X109382947Y-104955722D01*
X109382947Y-104955722D01*
G37*
G36*
X175676947Y-104955722D02*
X175940833Y-105065027D01*
X176178324Y-105223713D01*
X176380287Y-105425676D01*
X176538973Y-105663167D01*
X176648278Y-105927053D01*
X176704000Y-106207186D01*
X176704000Y-106492814D01*
X176648278Y-106772947D01*
X176538973Y-107036833D01*
X176380287Y-107274324D01*
X176178324Y-107476287D01*
X175940833Y-107634973D01*
X175676947Y-107744278D01*
X175396814Y-107800000D01*
X175111186Y-107800000D01*
X174831053Y-107744278D01*
X174567167Y-107634973D01*
X174329676Y-107476287D01*
X174127713Y-107274324D01*
X173969027Y-107036833D01*
X173859722Y-106772947D01*
X173804000Y-106492814D01*
X173804000Y-106207186D01*
X173859722Y-105927053D01*
X173969027Y-105663167D01*
X174127713Y-105425676D01*
X174329676Y-105223713D01*
X174567167Y-105065027D01*
X174831053Y-104955722D01*
X175111186Y-104900000D01*
X175396814Y-104900000D01*
X175676947Y-104955722D01*
X175676947Y-104955722D01*
G37*
G36*
X125892947Y-104955722D02*
X126156833Y-105065027D01*
X126394324Y-105223713D01*
X126596287Y-105425676D01*
X126754973Y-105663167D01*
X126864278Y-105927053D01*
X126920000Y-106207186D01*
X126920000Y-106492814D01*
X126864278Y-106772947D01*
X126754973Y-107036833D01*
X126596287Y-107274324D01*
X126394324Y-107476287D01*
X126156833Y-107634973D01*
X125892947Y-107744278D01*
X125612814Y-107800000D01*
X125327186Y-107800000D01*
X125047053Y-107744278D01*
X124783167Y-107634973D01*
X124545676Y-107476287D01*
X124343713Y-107274324D01*
X124185027Y-107036833D01*
X124075722Y-106772947D01*
X124020000Y-106492814D01*
X124020000Y-106207186D01*
X124075722Y-105927053D01*
X124185027Y-105663167D01*
X124343713Y-105425676D01*
X124545676Y-105223713D01*
X124783167Y-105065027D01*
X125047053Y-104955722D01*
X125327186Y-104900000D01*
X125612814Y-104900000D01*
X125892947Y-104955722D01*
X125892947Y-104955722D01*
G37*
G36*
X192447947Y-104955722D02*
X192711833Y-105065027D01*
X192949324Y-105223713D01*
X193151287Y-105425676D01*
X193309973Y-105663167D01*
X193419278Y-105927053D01*
X193475000Y-106207186D01*
X193475000Y-106492814D01*
X193419278Y-106772947D01*
X193309973Y-107036833D01*
X193151287Y-107274324D01*
X192949324Y-107476287D01*
X192711833Y-107634973D01*
X192447947Y-107744278D01*
X192167814Y-107800000D01*
X191882186Y-107800000D01*
X191602053Y-107744278D01*
X191338167Y-107634973D01*
X191100676Y-107476287D01*
X190898713Y-107274324D01*
X190740027Y-107036833D01*
X190630722Y-106772947D01*
X190575000Y-106492814D01*
X190575000Y-106207186D01*
X190630722Y-105927053D01*
X190740027Y-105663167D01*
X190898713Y-105425676D01*
X191100676Y-105223713D01*
X191338167Y-105065027D01*
X191602053Y-104955722D01*
X191882186Y-104900000D01*
X192167814Y-104900000D01*
X192447947Y-104955722D01*
X192447947Y-104955722D01*
G37*
G36*
X184947947Y-104955722D02*
X185211833Y-105065027D01*
X185449324Y-105223713D01*
X185651287Y-105425676D01*
X185809973Y-105663167D01*
X185919278Y-105927053D01*
X185975000Y-106207186D01*
X185975000Y-106492814D01*
X185919278Y-106772947D01*
X185809973Y-107036833D01*
X185651287Y-107274324D01*
X185449324Y-107476287D01*
X185211833Y-107634973D01*
X184947947Y-107744278D01*
X184667814Y-107800000D01*
X184382186Y-107800000D01*
X184102053Y-107744278D01*
X183838167Y-107634973D01*
X183600676Y-107476287D01*
X183398713Y-107274324D01*
X183240027Y-107036833D01*
X183130722Y-106772947D01*
X183075000Y-106492814D01*
X183075000Y-106207186D01*
X183130722Y-105927053D01*
X183240027Y-105663167D01*
X183398713Y-105425676D01*
X183600676Y-105223713D01*
X183838167Y-105065027D01*
X184102053Y-104955722D01*
X184382186Y-104900000D01*
X184667814Y-104900000D01*
X184947947Y-104955722D01*
X184947947Y-104955722D01*
G37*
G36*
X101882947Y-104955722D02*
X102146833Y-105065027D01*
X102384324Y-105223713D01*
X102586287Y-105425676D01*
X102744973Y-105663167D01*
X102854278Y-105927053D01*
X102910000Y-106207186D01*
X102910000Y-106492814D01*
X102854278Y-106772947D01*
X102744973Y-107036833D01*
X102586287Y-107274324D01*
X102384324Y-107476287D01*
X102146833Y-107634973D01*
X101882947Y-107744278D01*
X101602814Y-107800000D01*
X101317186Y-107800000D01*
X101037053Y-107744278D01*
X100773167Y-107634973D01*
X100535676Y-107476287D01*
X100333713Y-107274324D01*
X100175027Y-107036833D01*
X100065722Y-106772947D01*
X100010000Y-106492814D01*
X100010000Y-106207186D01*
X100065722Y-105927053D01*
X100175027Y-105663167D01*
X100333713Y-105425676D01*
X100535676Y-105223713D01*
X100773167Y-105065027D01*
X101037053Y-104955722D01*
X101317186Y-104900000D01*
X101602814Y-104900000D01*
X101882947Y-104955722D01*
X101882947Y-104955722D01*
G37*
G36*
X67914026Y-100446115D02*
X68132412Y-100536573D01*
X68328958Y-100667901D01*
X68496099Y-100835042D01*
X68627427Y-101031588D01*
X68717885Y-101249974D01*
X68764000Y-101481809D01*
X68764000Y-101718191D01*
X68717885Y-101950026D01*
X68627427Y-102168412D01*
X68496099Y-102364958D01*
X68328958Y-102532099D01*
X68132412Y-102663427D01*
X67914026Y-102753885D01*
X67682191Y-102800000D01*
X67445809Y-102800000D01*
X67213974Y-102753885D01*
X66995588Y-102663427D01*
X66799042Y-102532099D01*
X66631901Y-102364958D01*
X66500573Y-102168412D01*
X66410115Y-101950026D01*
X66364000Y-101718191D01*
X66364000Y-101481809D01*
X66410115Y-101249974D01*
X66500573Y-101031588D01*
X66631901Y-100835042D01*
X66799042Y-100667901D01*
X66995588Y-100536573D01*
X67213974Y-100446115D01*
X67445809Y-100400000D01*
X67682191Y-100400000D01*
X67914026Y-100446115D01*
X67914026Y-100446115D01*
G37*
G36*
X57409122Y-97246115D02*
X57525041Y-97269173D01*
X57852620Y-97404861D01*
X58119861Y-97583426D01*
X58147436Y-97601851D01*
X58398149Y-97852564D01*
X58595140Y-98147382D01*
X58730827Y-98474960D01*
X58800000Y-98822714D01*
X58800000Y-99177286D01*
X58730827Y-99525040D01*
X58595140Y-99852618D01*
X58398149Y-100147436D01*
X58147436Y-100398149D01*
X58147433Y-100398151D01*
X57852620Y-100595139D01*
X57525041Y-100730827D01*
X57409122Y-100753885D01*
X57177286Y-100800000D01*
X56822714Y-100800000D01*
X56590878Y-100753885D01*
X56474959Y-100730827D01*
X56147380Y-100595139D01*
X55852567Y-100398151D01*
X55852564Y-100398149D01*
X55601851Y-100147436D01*
X55404860Y-99852618D01*
X55269173Y-99525040D01*
X55200000Y-99177286D01*
X55200000Y-98822714D01*
X55269173Y-98474960D01*
X55404860Y-98147382D01*
X55601851Y-97852564D01*
X55852564Y-97601851D01*
X55880139Y-97583426D01*
X56147380Y-97404861D01*
X56474959Y-97269173D01*
X56590878Y-97246115D01*
X56822714Y-97200000D01*
X57177286Y-97200000D01*
X57409122Y-97246115D01*
X57409122Y-97246115D01*
G37*
G36*
X233409122Y-97246115D02*
X233525041Y-97269173D01*
X233852620Y-97404861D01*
X234119861Y-97583426D01*
X234147436Y-97601851D01*
X234398149Y-97852564D01*
X234595140Y-98147382D01*
X234730827Y-98474960D01*
X234800000Y-98822714D01*
X234800000Y-99177286D01*
X234730827Y-99525040D01*
X234595140Y-99852618D01*
X234398149Y-100147436D01*
X234147436Y-100398149D01*
X234147433Y-100398151D01*
X233852620Y-100595139D01*
X233525041Y-100730827D01*
X233409122Y-100753885D01*
X233177286Y-100800000D01*
X232822714Y-100800000D01*
X232590878Y-100753885D01*
X232474959Y-100730827D01*
X232147380Y-100595139D01*
X231852567Y-100398151D01*
X231852564Y-100398149D01*
X231601851Y-100147436D01*
X231404860Y-99852618D01*
X231269173Y-99525040D01*
X231200000Y-99177286D01*
X231200000Y-98822714D01*
X231269173Y-98474960D01*
X231404860Y-98147382D01*
X231601851Y-97852564D01*
X231852564Y-97601851D01*
X231880139Y-97583426D01*
X232147380Y-97404861D01*
X232474959Y-97269173D01*
X232590878Y-97246115D01*
X232822714Y-97200000D01*
X233177286Y-97200000D01*
X233409122Y-97246115D01*
X233409122Y-97246115D01*
G37*
G36*
X67914026Y-95366115D02*
X68132412Y-95456573D01*
X68328958Y-95587901D01*
X68496099Y-95755042D01*
X68627427Y-95951588D01*
X68717885Y-96169974D01*
X68764000Y-96401809D01*
X68764000Y-96638191D01*
X68717885Y-96870026D01*
X68627427Y-97088412D01*
X68496099Y-97284958D01*
X68328958Y-97452099D01*
X68132412Y-97583427D01*
X67914026Y-97673885D01*
X67682191Y-97720000D01*
X67445809Y-97720000D01*
X67213974Y-97673885D01*
X66995588Y-97583427D01*
X66799042Y-97452099D01*
X66631901Y-97284958D01*
X66500573Y-97088412D01*
X66410115Y-96870026D01*
X66364000Y-96638191D01*
X66364000Y-96401809D01*
X66410115Y-96169974D01*
X66500573Y-95951588D01*
X66631901Y-95755042D01*
X66799042Y-95587901D01*
X66995588Y-95456573D01*
X67213974Y-95366115D01*
X67445809Y-95320000D01*
X67682191Y-95320000D01*
X67914026Y-95366115D01*
X67914026Y-95366115D01*
G37*
G36*
X85694026Y-95366115D02*
X85912412Y-95456573D01*
X86108958Y-95587901D01*
X86276099Y-95755042D01*
X86407427Y-95951588D01*
X86497885Y-96169974D01*
X86544000Y-96401809D01*
X86544000Y-96638191D01*
X86497885Y-96870026D01*
X86407427Y-97088412D01*
X86276099Y-97284958D01*
X86108958Y-97452099D01*
X85912412Y-97583427D01*
X85694026Y-97673885D01*
X85462191Y-97720000D01*
X85225809Y-97720000D01*
X84993974Y-97673885D01*
X84775588Y-97583427D01*
X84579042Y-97452099D01*
X84411901Y-97284958D01*
X84280573Y-97088412D01*
X84190115Y-96870026D01*
X84144000Y-96638191D01*
X84144000Y-96401809D01*
X84190115Y-96169974D01*
X84280573Y-95951588D01*
X84411901Y-95755042D01*
X84579042Y-95587901D01*
X84775588Y-95456573D01*
X84993974Y-95366115D01*
X85225809Y-95320000D01*
X85462191Y-95320000D01*
X85694026Y-95366115D01*
X85694026Y-95366115D01*
G37*
G36*
X179024503Y-94963789D02*
X179224991Y-95024607D01*
X179409764Y-95123369D01*
X179571718Y-95256282D01*
X179704631Y-95418236D01*
X179803393Y-95603009D01*
X179864211Y-95803497D01*
X179884746Y-96012000D01*
X179864211Y-96220503D01*
X179803393Y-96420991D01*
X179704631Y-96605764D01*
X179571718Y-96767718D01*
X179409764Y-96900631D01*
X179224991Y-96999393D01*
X179024503Y-97060211D01*
X178868251Y-97075600D01*
X178763749Y-97075600D01*
X178607497Y-97060211D01*
X178407009Y-96999393D01*
X178222236Y-96900631D01*
X178060282Y-96767718D01*
X177927369Y-96605764D01*
X177828607Y-96420991D01*
X177767789Y-96220503D01*
X177747254Y-96012000D01*
X177767789Y-95803497D01*
X177828607Y-95603009D01*
X177927369Y-95418236D01*
X178060282Y-95256282D01*
X178222236Y-95123369D01*
X178407009Y-95024607D01*
X178607497Y-94963789D01*
X178763749Y-94948400D01*
X178868251Y-94948400D01*
X179024503Y-94963789D01*
X179024503Y-94963789D01*
G37*
G36*
X186644503Y-94963789D02*
X186844991Y-95024607D01*
X187029764Y-95123369D01*
X187191718Y-95256282D01*
X187324631Y-95418236D01*
X187423393Y-95603009D01*
X187484211Y-95803497D01*
X187504746Y-96012000D01*
X187484211Y-96220503D01*
X187423393Y-96420991D01*
X187324631Y-96605764D01*
X187191718Y-96767718D01*
X187029764Y-96900631D01*
X186844991Y-96999393D01*
X186644503Y-97060211D01*
X186488251Y-97075600D01*
X186383749Y-97075600D01*
X186227497Y-97060211D01*
X186027009Y-96999393D01*
X185842236Y-96900631D01*
X185680282Y-96767718D01*
X185547369Y-96605764D01*
X185448607Y-96420991D01*
X185387789Y-96220503D01*
X185367254Y-96012000D01*
X185387789Y-95803497D01*
X185448607Y-95603009D01*
X185547369Y-95418236D01*
X185680282Y-95256282D01*
X185842236Y-95123369D01*
X186027009Y-95024607D01*
X186227497Y-94963789D01*
X186383749Y-94948400D01*
X186488251Y-94948400D01*
X186644503Y-94963789D01*
X186644503Y-94963789D01*
G37*
G36*
X184104503Y-94963789D02*
X184304991Y-95024607D01*
X184489764Y-95123369D01*
X184651718Y-95256282D01*
X184784631Y-95418236D01*
X184883393Y-95603009D01*
X184944211Y-95803497D01*
X184964746Y-96012000D01*
X184944211Y-96220503D01*
X184883393Y-96420991D01*
X184784631Y-96605764D01*
X184651718Y-96767718D01*
X184489764Y-96900631D01*
X184304991Y-96999393D01*
X184104503Y-97060211D01*
X183948251Y-97075600D01*
X183843749Y-97075600D01*
X183687497Y-97060211D01*
X183487009Y-96999393D01*
X183302236Y-96900631D01*
X183140282Y-96767718D01*
X183007369Y-96605764D01*
X182908607Y-96420991D01*
X182847789Y-96220503D01*
X182827254Y-96012000D01*
X182847789Y-95803497D01*
X182908607Y-95603009D01*
X183007369Y-95418236D01*
X183140282Y-95256282D01*
X183302236Y-95123369D01*
X183487009Y-95024607D01*
X183687497Y-94963789D01*
X183843749Y-94948400D01*
X183948251Y-94948400D01*
X184104503Y-94963789D01*
X184104503Y-94963789D01*
G37*
G36*
X181564503Y-94963789D02*
X181764991Y-95024607D01*
X181949764Y-95123369D01*
X182111718Y-95256282D01*
X182244631Y-95418236D01*
X182343393Y-95603009D01*
X182404211Y-95803497D01*
X182424746Y-96012000D01*
X182404211Y-96220503D01*
X182343393Y-96420991D01*
X182244631Y-96605764D01*
X182111718Y-96767718D01*
X181949764Y-96900631D01*
X181764991Y-96999393D01*
X181564503Y-97060211D01*
X181408251Y-97075600D01*
X181303749Y-97075600D01*
X181147497Y-97060211D01*
X180947009Y-96999393D01*
X180762236Y-96900631D01*
X180600282Y-96767718D01*
X180467369Y-96605764D01*
X180368607Y-96420991D01*
X180307789Y-96220503D01*
X180287254Y-96012000D01*
X180307789Y-95803497D01*
X180368607Y-95603009D01*
X180467369Y-95418236D01*
X180600282Y-95256282D01*
X180762236Y-95123369D01*
X180947009Y-95024607D01*
X181147497Y-94963789D01*
X181303749Y-94948400D01*
X181408251Y-94948400D01*
X181564503Y-94963789D01*
X181564503Y-94963789D01*
G37*
G36*
X177339600Y-97075600D02*
X175212400Y-97075600D01*
X175212400Y-94948400D01*
X177339600Y-94948400D01*
X177339600Y-97075600D01*
X177339600Y-97075600D01*
G37*
G36*
X179024503Y-92423789D02*
X179224991Y-92484607D01*
X179409764Y-92583369D01*
X179571718Y-92716282D01*
X179704631Y-92878236D01*
X179803393Y-93063009D01*
X179864211Y-93263497D01*
X179884746Y-93472000D01*
X179864211Y-93680503D01*
X179803393Y-93880991D01*
X179704631Y-94065764D01*
X179571718Y-94227718D01*
X179409764Y-94360631D01*
X179224991Y-94459393D01*
X179024503Y-94520211D01*
X178868251Y-94535600D01*
X178763749Y-94535600D01*
X178607497Y-94520211D01*
X178407009Y-94459393D01*
X178222236Y-94360631D01*
X178060282Y-94227718D01*
X177927369Y-94065764D01*
X177828607Y-93880991D01*
X177767789Y-93680503D01*
X177747254Y-93472000D01*
X177767789Y-93263497D01*
X177828607Y-93063009D01*
X177927369Y-92878236D01*
X178060282Y-92716282D01*
X178222236Y-92583369D01*
X178407009Y-92484607D01*
X178607497Y-92423789D01*
X178763749Y-92408400D01*
X178868251Y-92408400D01*
X179024503Y-92423789D01*
X179024503Y-92423789D01*
G37*
G36*
X176484503Y-92423789D02*
X176684991Y-92484607D01*
X176869764Y-92583369D01*
X177031718Y-92716282D01*
X177164631Y-92878236D01*
X177263393Y-93063009D01*
X177324211Y-93263497D01*
X177344746Y-93472000D01*
X177324211Y-93680503D01*
X177263393Y-93880991D01*
X177164631Y-94065764D01*
X177031718Y-94227718D01*
X176869764Y-94360631D01*
X176684991Y-94459393D01*
X176484503Y-94520211D01*
X176328251Y-94535600D01*
X176223749Y-94535600D01*
X176067497Y-94520211D01*
X175867009Y-94459393D01*
X175682236Y-94360631D01*
X175520282Y-94227718D01*
X175387369Y-94065764D01*
X175288607Y-93880991D01*
X175227789Y-93680503D01*
X175207254Y-93472000D01*
X175227789Y-93263497D01*
X175288607Y-93063009D01*
X175387369Y-92878236D01*
X175520282Y-92716282D01*
X175682236Y-92583369D01*
X175867009Y-92484607D01*
X176067497Y-92423789D01*
X176223749Y-92408400D01*
X176328251Y-92408400D01*
X176484503Y-92423789D01*
X176484503Y-92423789D01*
G37*
G36*
X181564503Y-92423789D02*
X181764991Y-92484607D01*
X181949764Y-92583369D01*
X182111718Y-92716282D01*
X182244631Y-92878236D01*
X182343393Y-93063009D01*
X182404211Y-93263497D01*
X182424746Y-93472000D01*
X182404211Y-93680503D01*
X182343393Y-93880991D01*
X182244631Y-94065764D01*
X182111718Y-94227718D01*
X181949764Y-94360631D01*
X181764991Y-94459393D01*
X181564503Y-94520211D01*
X181408251Y-94535600D01*
X181303749Y-94535600D01*
X181147497Y-94520211D01*
X180947009Y-94459393D01*
X180762236Y-94360631D01*
X180600282Y-94227718D01*
X180467369Y-94065764D01*
X180368607Y-93880991D01*
X180307789Y-93680503D01*
X180287254Y-93472000D01*
X180307789Y-93263497D01*
X180368607Y-93063009D01*
X180467369Y-92878236D01*
X180600282Y-92716282D01*
X180762236Y-92583369D01*
X180947009Y-92484607D01*
X181147497Y-92423789D01*
X181303749Y-92408400D01*
X181408251Y-92408400D01*
X181564503Y-92423789D01*
X181564503Y-92423789D01*
G37*
G36*
X184104503Y-92423789D02*
X184304991Y-92484607D01*
X184489764Y-92583369D01*
X184651718Y-92716282D01*
X184784631Y-92878236D01*
X184883393Y-93063009D01*
X184944211Y-93263497D01*
X184964746Y-93472000D01*
X184944211Y-93680503D01*
X184883393Y-93880991D01*
X184784631Y-94065764D01*
X184651718Y-94227718D01*
X184489764Y-94360631D01*
X184304991Y-94459393D01*
X184104503Y-94520211D01*
X183948251Y-94535600D01*
X183843749Y-94535600D01*
X183687497Y-94520211D01*
X183487009Y-94459393D01*
X183302236Y-94360631D01*
X183140282Y-94227718D01*
X183007369Y-94065764D01*
X182908607Y-93880991D01*
X182847789Y-93680503D01*
X182827254Y-93472000D01*
X182847789Y-93263497D01*
X182908607Y-93063009D01*
X183007369Y-92878236D01*
X183140282Y-92716282D01*
X183302236Y-92583369D01*
X183487009Y-92484607D01*
X183687497Y-92423789D01*
X183843749Y-92408400D01*
X183948251Y-92408400D01*
X184104503Y-92423789D01*
X184104503Y-92423789D01*
G37*
G36*
X186644503Y-92423789D02*
X186844991Y-92484607D01*
X187029764Y-92583369D01*
X187191718Y-92716282D01*
X187324631Y-92878236D01*
X187423393Y-93063009D01*
X187484211Y-93263497D01*
X187504746Y-93472000D01*
X187484211Y-93680503D01*
X187423393Y-93880991D01*
X187324631Y-94065764D01*
X187191718Y-94227718D01*
X187029764Y-94360631D01*
X186844991Y-94459393D01*
X186644503Y-94520211D01*
X186488251Y-94535600D01*
X186383749Y-94535600D01*
X186227497Y-94520211D01*
X186027009Y-94459393D01*
X185842236Y-94360631D01*
X185680282Y-94227718D01*
X185547369Y-94065764D01*
X185448607Y-93880991D01*
X185387789Y-93680503D01*
X185367254Y-93472000D01*
X185387789Y-93263497D01*
X185448607Y-93063009D01*
X185547369Y-92878236D01*
X185680282Y-92716282D01*
X185842236Y-92583369D01*
X186027009Y-92484607D01*
X186227497Y-92423789D01*
X186383749Y-92408400D01*
X186488251Y-92408400D01*
X186644503Y-92423789D01*
X186644503Y-92423789D01*
G37*
G36*
X180204183Y-86854901D02*
X180331574Y-86907669D01*
X180429763Y-86973276D01*
X180446225Y-86984276D01*
X180543725Y-87081776D01*
X180620332Y-87196427D01*
X180673100Y-87323818D01*
X180700000Y-87459056D01*
X180700000Y-87596946D01*
X180673100Y-87732184D01*
X180620332Y-87859575D01*
X180543725Y-87974226D01*
X180446225Y-88071726D01*
X180331574Y-88148333D01*
X180204183Y-88201101D01*
X180068945Y-88228001D01*
X179931055Y-88228001D01*
X179795817Y-88201101D01*
X179668426Y-88148333D01*
X179553775Y-88071726D01*
X179456275Y-87974226D01*
X179379668Y-87859575D01*
X179326900Y-87732184D01*
X179300000Y-87596946D01*
X179300000Y-87459056D01*
X179326900Y-87323818D01*
X179379668Y-87196427D01*
X179456275Y-87081776D01*
X179553775Y-86984276D01*
X179570238Y-86973276D01*
X179668426Y-86907669D01*
X179795817Y-86854901D01*
X179931055Y-86828001D01*
X180068945Y-86828001D01*
X180204183Y-86854901D01*
X180204183Y-86854901D01*
G37*
G36*
X182204183Y-86854901D02*
X182331574Y-86907669D01*
X182429763Y-86973276D01*
X182446225Y-86984276D01*
X182543725Y-87081776D01*
X182620332Y-87196427D01*
X182673100Y-87323818D01*
X182700000Y-87459056D01*
X182700000Y-87596946D01*
X182673100Y-87732184D01*
X182620332Y-87859575D01*
X182543725Y-87974226D01*
X182446225Y-88071726D01*
X182331574Y-88148333D01*
X182204183Y-88201101D01*
X182068945Y-88228001D01*
X181931055Y-88228001D01*
X181795817Y-88201101D01*
X181668426Y-88148333D01*
X181553775Y-88071726D01*
X181456275Y-87974226D01*
X181379668Y-87859575D01*
X181326900Y-87732184D01*
X181300000Y-87596946D01*
X181300000Y-87459056D01*
X181326900Y-87323818D01*
X181379668Y-87196427D01*
X181456275Y-87081776D01*
X181553775Y-86984276D01*
X181570238Y-86973276D01*
X181668426Y-86907669D01*
X181795817Y-86854901D01*
X181931055Y-86828001D01*
X182068945Y-86828001D01*
X182204183Y-86854901D01*
X182204183Y-86854901D01*
G37*
G36*
X184204183Y-86854901D02*
X184331574Y-86907669D01*
X184429763Y-86973276D01*
X184446225Y-86984276D01*
X184543725Y-87081776D01*
X184620332Y-87196427D01*
X184673100Y-87323818D01*
X184700000Y-87459056D01*
X184700000Y-87596946D01*
X184673100Y-87732184D01*
X184620332Y-87859575D01*
X184543725Y-87974226D01*
X184446225Y-88071726D01*
X184331574Y-88148333D01*
X184204183Y-88201101D01*
X184068945Y-88228001D01*
X183931055Y-88228001D01*
X183795817Y-88201101D01*
X183668426Y-88148333D01*
X183553775Y-88071726D01*
X183456275Y-87974226D01*
X183379668Y-87859575D01*
X183326900Y-87732184D01*
X183300000Y-87596946D01*
X183300000Y-87459056D01*
X183326900Y-87323818D01*
X183379668Y-87196427D01*
X183456275Y-87081776D01*
X183553775Y-86984276D01*
X183570238Y-86973276D01*
X183668426Y-86907669D01*
X183795817Y-86854901D01*
X183931055Y-86828001D01*
X184068945Y-86828001D01*
X184204183Y-86854901D01*
X184204183Y-86854901D01*
G37*
G36*
X178204183Y-86854901D02*
X178331574Y-86907669D01*
X178429763Y-86973276D01*
X178446225Y-86984276D01*
X178543725Y-87081776D01*
X178620332Y-87196427D01*
X178673100Y-87323818D01*
X178700000Y-87459056D01*
X178700000Y-87596946D01*
X178673100Y-87732184D01*
X178620332Y-87859575D01*
X178543725Y-87974226D01*
X178446225Y-88071726D01*
X178331574Y-88148333D01*
X178204183Y-88201101D01*
X178068945Y-88228001D01*
X177931055Y-88228001D01*
X177795817Y-88201101D01*
X177668426Y-88148333D01*
X177553775Y-88071726D01*
X177456275Y-87974226D01*
X177379668Y-87859575D01*
X177326900Y-87732184D01*
X177300000Y-87596946D01*
X177300000Y-87459056D01*
X177326900Y-87323818D01*
X177379668Y-87196427D01*
X177456275Y-87081776D01*
X177553775Y-86984276D01*
X177570238Y-86973276D01*
X177668426Y-86907669D01*
X177795817Y-86854901D01*
X177931055Y-86828001D01*
X178068945Y-86828001D01*
X178204183Y-86854901D01*
X178204183Y-86854901D01*
G37*
G36*
X71204183Y-86843901D02*
X71331574Y-86896669D01*
X71446225Y-86973276D01*
X71543725Y-87070776D01*
X71620332Y-87185427D01*
X71673100Y-87312818D01*
X71700000Y-87448056D01*
X71700000Y-87585946D01*
X71673100Y-87721184D01*
X71620332Y-87848575D01*
X71543726Y-87963225D01*
X71446224Y-88060727D01*
X71429761Y-88071727D01*
X71331574Y-88137333D01*
X71204183Y-88190101D01*
X71068945Y-88217001D01*
X70931055Y-88217001D01*
X70795817Y-88190101D01*
X70668426Y-88137333D01*
X70570239Y-88071727D01*
X70553776Y-88060727D01*
X70456274Y-87963225D01*
X70379668Y-87848575D01*
X70326900Y-87721184D01*
X70300000Y-87585946D01*
X70300000Y-87448056D01*
X70326900Y-87312818D01*
X70379668Y-87185427D01*
X70456275Y-87070776D01*
X70553775Y-86973276D01*
X70668426Y-86896669D01*
X70795817Y-86843901D01*
X70931055Y-86817001D01*
X71068945Y-86817001D01*
X71204183Y-86843901D01*
X71204183Y-86843901D01*
G37*
G36*
X73204183Y-86843901D02*
X73331574Y-86896669D01*
X73446225Y-86973276D01*
X73543725Y-87070776D01*
X73620332Y-87185427D01*
X73673100Y-87312818D01*
X73700000Y-87448056D01*
X73700000Y-87585946D01*
X73673100Y-87721184D01*
X73620332Y-87848575D01*
X73543726Y-87963225D01*
X73446224Y-88060727D01*
X73429761Y-88071727D01*
X73331574Y-88137333D01*
X73204183Y-88190101D01*
X73068945Y-88217001D01*
X72931055Y-88217001D01*
X72795817Y-88190101D01*
X72668426Y-88137333D01*
X72570239Y-88071727D01*
X72553776Y-88060727D01*
X72456274Y-87963225D01*
X72379668Y-87848575D01*
X72326900Y-87721184D01*
X72300000Y-87585946D01*
X72300000Y-87448056D01*
X72326900Y-87312818D01*
X72379668Y-87185427D01*
X72456275Y-87070776D01*
X72553775Y-86973276D01*
X72668426Y-86896669D01*
X72795817Y-86843901D01*
X72931055Y-86817001D01*
X73068945Y-86817001D01*
X73204183Y-86843901D01*
X73204183Y-86843901D01*
G37*
G36*
X67204183Y-86843901D02*
X67331574Y-86896669D01*
X67446225Y-86973276D01*
X67543725Y-87070776D01*
X67620332Y-87185427D01*
X67673100Y-87312818D01*
X67700000Y-87448056D01*
X67700000Y-87585946D01*
X67673100Y-87721184D01*
X67620332Y-87848575D01*
X67543726Y-87963225D01*
X67446224Y-88060727D01*
X67429761Y-88071727D01*
X67331574Y-88137333D01*
X67204183Y-88190101D01*
X67068945Y-88217001D01*
X66931055Y-88217001D01*
X66795817Y-88190101D01*
X66668426Y-88137333D01*
X66570239Y-88071727D01*
X66553776Y-88060727D01*
X66456274Y-87963225D01*
X66379668Y-87848575D01*
X66326900Y-87721184D01*
X66300000Y-87585946D01*
X66300000Y-87448056D01*
X66326900Y-87312818D01*
X66379668Y-87185427D01*
X66456275Y-87070776D01*
X66553775Y-86973276D01*
X66668426Y-86896669D01*
X66795817Y-86843901D01*
X66931055Y-86817001D01*
X67068945Y-86817001D01*
X67204183Y-86843901D01*
X67204183Y-86843901D01*
G37*
G36*
X69204183Y-86843901D02*
X69331574Y-86896669D01*
X69446225Y-86973276D01*
X69543725Y-87070776D01*
X69620332Y-87185427D01*
X69673100Y-87312818D01*
X69700000Y-87448056D01*
X69700000Y-87585946D01*
X69673100Y-87721184D01*
X69620332Y-87848575D01*
X69543726Y-87963225D01*
X69446224Y-88060727D01*
X69429761Y-88071727D01*
X69331574Y-88137333D01*
X69204183Y-88190101D01*
X69068945Y-88217001D01*
X68931055Y-88217001D01*
X68795817Y-88190101D01*
X68668426Y-88137333D01*
X68570239Y-88071727D01*
X68553776Y-88060727D01*
X68456274Y-87963225D01*
X68379668Y-87848575D01*
X68326900Y-87721184D01*
X68300000Y-87585946D01*
X68300000Y-87448056D01*
X68326900Y-87312818D01*
X68379668Y-87185427D01*
X68456275Y-87070776D01*
X68553775Y-86973276D01*
X68668426Y-86896669D01*
X68795817Y-86843901D01*
X68931055Y-86817001D01*
X69068945Y-86817001D01*
X69204183Y-86843901D01*
X69204183Y-86843901D01*
G37*
G36*
X184104503Y-81501789D02*
X184304991Y-81562607D01*
X184489764Y-81661369D01*
X184651718Y-81794282D01*
X184784631Y-81956236D01*
X184883393Y-82141009D01*
X184944211Y-82341497D01*
X184964746Y-82550000D01*
X184944211Y-82758503D01*
X184883393Y-82958991D01*
X184784631Y-83143764D01*
X184651718Y-83305718D01*
X184489764Y-83438631D01*
X184304991Y-83537393D01*
X184104503Y-83598211D01*
X183948251Y-83613600D01*
X183843749Y-83613600D01*
X183687497Y-83598211D01*
X183487009Y-83537393D01*
X183302236Y-83438631D01*
X183140282Y-83305718D01*
X183007369Y-83143764D01*
X182908607Y-82958991D01*
X182847789Y-82758503D01*
X182827254Y-82550000D01*
X182847789Y-82341497D01*
X182908607Y-82141009D01*
X183007369Y-81956236D01*
X183140282Y-81794282D01*
X183302236Y-81661369D01*
X183487009Y-81562607D01*
X183687497Y-81501789D01*
X183843749Y-81486400D01*
X183948251Y-81486400D01*
X184104503Y-81501789D01*
X184104503Y-81501789D01*
G37*
G36*
X181564503Y-81501789D02*
X181764991Y-81562607D01*
X181949764Y-81661369D01*
X182111718Y-81794282D01*
X182244631Y-81956236D01*
X182343393Y-82141009D01*
X182404211Y-82341497D01*
X182424746Y-82550000D01*
X182404211Y-82758503D01*
X182343393Y-82958991D01*
X182244631Y-83143764D01*
X182111718Y-83305718D01*
X181949764Y-83438631D01*
X181764991Y-83537393D01*
X181564503Y-83598211D01*
X181408251Y-83613600D01*
X181303749Y-83613600D01*
X181147497Y-83598211D01*
X180947009Y-83537393D01*
X180762236Y-83438631D01*
X180600282Y-83305718D01*
X180467369Y-83143764D01*
X180368607Y-82958991D01*
X180307789Y-82758503D01*
X180287254Y-82550000D01*
X180307789Y-82341497D01*
X180368607Y-82141009D01*
X180467369Y-81956236D01*
X180600282Y-81794282D01*
X180762236Y-81661369D01*
X180947009Y-81562607D01*
X181147497Y-81501789D01*
X181303749Y-81486400D01*
X181408251Y-81486400D01*
X181564503Y-81501789D01*
X181564503Y-81501789D01*
G37*
G36*
X179024503Y-81501789D02*
X179224991Y-81562607D01*
X179409764Y-81661369D01*
X179571718Y-81794282D01*
X179704631Y-81956236D01*
X179803393Y-82141009D01*
X179864211Y-82341497D01*
X179884746Y-82550000D01*
X179864211Y-82758503D01*
X179803393Y-82958991D01*
X179704631Y-83143764D01*
X179571718Y-83305718D01*
X179409764Y-83438631D01*
X179224991Y-83537393D01*
X179024503Y-83598211D01*
X178868251Y-83613600D01*
X178763749Y-83613600D01*
X178607497Y-83598211D01*
X178407009Y-83537393D01*
X178222236Y-83438631D01*
X178060282Y-83305718D01*
X177927369Y-83143764D01*
X177828607Y-82958991D01*
X177767789Y-82758503D01*
X177747254Y-82550000D01*
X177767789Y-82341497D01*
X177828607Y-82141009D01*
X177927369Y-81956236D01*
X178060282Y-81794282D01*
X178222236Y-81661369D01*
X178407009Y-81562607D01*
X178607497Y-81501789D01*
X178763749Y-81486400D01*
X178868251Y-81486400D01*
X179024503Y-81501789D01*
X179024503Y-81501789D01*
G37*
G36*
X177339600Y-83613600D02*
X175212400Y-83613600D01*
X175212400Y-81486400D01*
X177339600Y-81486400D01*
X177339600Y-83613600D01*
X177339600Y-83613600D01*
G37*
G36*
X186644503Y-81501789D02*
X186844991Y-81562607D01*
X187029764Y-81661369D01*
X187191718Y-81794282D01*
X187324631Y-81956236D01*
X187423393Y-82141009D01*
X187484211Y-82341497D01*
X187504746Y-82550000D01*
X187484211Y-82758503D01*
X187423393Y-82958991D01*
X187324631Y-83143764D01*
X187191718Y-83305718D01*
X187029764Y-83438631D01*
X186844991Y-83537393D01*
X186644503Y-83598211D01*
X186488251Y-83613600D01*
X186383749Y-83613600D01*
X186227497Y-83598211D01*
X186027009Y-83537393D01*
X185842236Y-83438631D01*
X185680282Y-83305718D01*
X185547369Y-83143764D01*
X185448607Y-82958991D01*
X185387789Y-82758503D01*
X185367254Y-82550000D01*
X185387789Y-82341497D01*
X185448607Y-82141009D01*
X185547369Y-81956236D01*
X185680282Y-81794282D01*
X185842236Y-81661369D01*
X186027009Y-81562607D01*
X186227497Y-81501789D01*
X186383749Y-81486400D01*
X186488251Y-81486400D01*
X186644503Y-81501789D01*
X186644503Y-81501789D01*
G37*
G36*
X186644503Y-78961789D02*
X186844991Y-79022607D01*
X187029764Y-79121369D01*
X187191718Y-79254282D01*
X187324631Y-79416236D01*
X187423393Y-79601009D01*
X187484211Y-79801497D01*
X187504746Y-80010000D01*
X187484211Y-80218503D01*
X187423393Y-80418991D01*
X187324631Y-80603764D01*
X187191718Y-80765718D01*
X187029764Y-80898631D01*
X186844991Y-80997393D01*
X186644503Y-81058211D01*
X186488251Y-81073600D01*
X186383749Y-81073600D01*
X186227497Y-81058211D01*
X186027009Y-80997393D01*
X185842236Y-80898631D01*
X185680282Y-80765718D01*
X185547369Y-80603764D01*
X185448607Y-80418991D01*
X185387789Y-80218503D01*
X185367254Y-80010000D01*
X185387789Y-79801497D01*
X185448607Y-79601009D01*
X185547369Y-79416236D01*
X185680282Y-79254282D01*
X185842236Y-79121369D01*
X186027009Y-79022607D01*
X186227497Y-78961789D01*
X186383749Y-78946400D01*
X186488251Y-78946400D01*
X186644503Y-78961789D01*
X186644503Y-78961789D01*
G37*
G36*
X176484503Y-78961789D02*
X176684991Y-79022607D01*
X176869764Y-79121369D01*
X177031718Y-79254282D01*
X177164631Y-79416236D01*
X177263393Y-79601009D01*
X177324211Y-79801497D01*
X177344746Y-80010000D01*
X177324211Y-80218503D01*
X177263393Y-80418991D01*
X177164631Y-80603764D01*
X177031718Y-80765718D01*
X176869764Y-80898631D01*
X176684991Y-80997393D01*
X176484503Y-81058211D01*
X176328251Y-81073600D01*
X176223749Y-81073600D01*
X176067497Y-81058211D01*
X175867009Y-80997393D01*
X175682236Y-80898631D01*
X175520282Y-80765718D01*
X175387369Y-80603764D01*
X175288607Y-80418991D01*
X175227789Y-80218503D01*
X175207254Y-80010000D01*
X175227789Y-79801497D01*
X175288607Y-79601009D01*
X175387369Y-79416236D01*
X175520282Y-79254282D01*
X175682236Y-79121369D01*
X175867009Y-79022607D01*
X176067497Y-78961789D01*
X176223749Y-78946400D01*
X176328251Y-78946400D01*
X176484503Y-78961789D01*
X176484503Y-78961789D01*
G37*
G36*
X179024503Y-78961789D02*
X179224991Y-79022607D01*
X179409764Y-79121369D01*
X179571718Y-79254282D01*
X179704631Y-79416236D01*
X179803393Y-79601009D01*
X179864211Y-79801497D01*
X179884746Y-80010000D01*
X179864211Y-80218503D01*
X179803393Y-80418991D01*
X179704631Y-80603764D01*
X179571718Y-80765718D01*
X179409764Y-80898631D01*
X179224991Y-80997393D01*
X179024503Y-81058211D01*
X178868251Y-81073600D01*
X178763749Y-81073600D01*
X178607497Y-81058211D01*
X178407009Y-80997393D01*
X178222236Y-80898631D01*
X178060282Y-80765718D01*
X177927369Y-80603764D01*
X177828607Y-80418991D01*
X177767789Y-80218503D01*
X177747254Y-80010000D01*
X177767789Y-79801497D01*
X177828607Y-79601009D01*
X177927369Y-79416236D01*
X178060282Y-79254282D01*
X178222236Y-79121369D01*
X178407009Y-79022607D01*
X178607497Y-78961789D01*
X178763749Y-78946400D01*
X178868251Y-78946400D01*
X179024503Y-78961789D01*
X179024503Y-78961789D01*
G37*
G36*
X181564503Y-78961789D02*
X181764991Y-79022607D01*
X181949764Y-79121369D01*
X182111718Y-79254282D01*
X182244631Y-79416236D01*
X182343393Y-79601009D01*
X182404211Y-79801497D01*
X182424746Y-80010000D01*
X182404211Y-80218503D01*
X182343393Y-80418991D01*
X182244631Y-80603764D01*
X182111718Y-80765718D01*
X181949764Y-80898631D01*
X181764991Y-80997393D01*
X181564503Y-81058211D01*
X181408251Y-81073600D01*
X181303749Y-81073600D01*
X181147497Y-81058211D01*
X180947009Y-80997393D01*
X180762236Y-80898631D01*
X180600282Y-80765718D01*
X180467369Y-80603764D01*
X180368607Y-80418991D01*
X180307789Y-80218503D01*
X180287254Y-80010000D01*
X180307789Y-79801497D01*
X180368607Y-79601009D01*
X180467369Y-79416236D01*
X180600282Y-79254282D01*
X180762236Y-79121369D01*
X180947009Y-79022607D01*
X181147497Y-78961789D01*
X181303749Y-78946400D01*
X181408251Y-78946400D01*
X181564503Y-78961789D01*
X181564503Y-78961789D01*
G37*
G36*
X184104503Y-78961789D02*
X184304991Y-79022607D01*
X184489764Y-79121369D01*
X184651718Y-79254282D01*
X184784631Y-79416236D01*
X184883393Y-79601009D01*
X184944211Y-79801497D01*
X184964746Y-80010000D01*
X184944211Y-80218503D01*
X184883393Y-80418991D01*
X184784631Y-80603764D01*
X184651718Y-80765718D01*
X184489764Y-80898631D01*
X184304991Y-80997393D01*
X184104503Y-81058211D01*
X183948251Y-81073600D01*
X183843749Y-81073600D01*
X183687497Y-81058211D01*
X183487009Y-80997393D01*
X183302236Y-80898631D01*
X183140282Y-80765718D01*
X183007369Y-80603764D01*
X182908607Y-80418991D01*
X182847789Y-80218503D01*
X182827254Y-80010000D01*
X182847789Y-79801497D01*
X182908607Y-79601009D01*
X183007369Y-79416236D01*
X183140282Y-79254282D01*
X183302236Y-79121369D01*
X183487009Y-79022607D01*
X183687497Y-78961789D01*
X183843749Y-78946400D01*
X183948251Y-78946400D01*
X184104503Y-78961789D01*
X184104503Y-78961789D01*
G37*
G36*
X163168703Y-76446486D02*
X163459883Y-76567097D01*
X163721944Y-76742201D01*
X163944799Y-76965056D01*
X164119903Y-77227117D01*
X164240514Y-77518297D01*
X164302000Y-77827412D01*
X164302000Y-78142588D01*
X164240514Y-78451703D01*
X164119903Y-78742883D01*
X163944799Y-79004944D01*
X163721944Y-79227799D01*
X163459883Y-79402903D01*
X163168703Y-79523514D01*
X162859588Y-79585000D01*
X162544412Y-79585000D01*
X162235297Y-79523514D01*
X161944117Y-79402903D01*
X161682056Y-79227799D01*
X161459201Y-79004944D01*
X161284097Y-78742883D01*
X161163486Y-78451703D01*
X161102000Y-78142588D01*
X161102000Y-77827412D01*
X161163486Y-77518297D01*
X161284097Y-77227117D01*
X161459201Y-76965056D01*
X161682056Y-76742201D01*
X161944117Y-76567097D01*
X162235297Y-76446486D01*
X162544412Y-76385000D01*
X162859588Y-76385000D01*
X163168703Y-76446486D01*
X163168703Y-76446486D01*
G37*
G36*
X103066703Y-76446486D02*
X103357883Y-76567097D01*
X103619944Y-76742201D01*
X103842799Y-76965056D01*
X104017903Y-77227117D01*
X104138514Y-77518297D01*
X104200000Y-77827412D01*
X104200000Y-78142588D01*
X104138514Y-78451703D01*
X104017903Y-78742883D01*
X103842799Y-79004944D01*
X103619944Y-79227799D01*
X103357883Y-79402903D01*
X103066703Y-79523514D01*
X102757588Y-79585000D01*
X102442412Y-79585000D01*
X102133297Y-79523514D01*
X101842117Y-79402903D01*
X101580056Y-79227799D01*
X101357201Y-79004944D01*
X101182097Y-78742883D01*
X101061486Y-78451703D01*
X101000000Y-78142588D01*
X101000000Y-77827412D01*
X101061486Y-77518297D01*
X101182097Y-77227117D01*
X101357201Y-76965056D01*
X101580056Y-76742201D01*
X101842117Y-76567097D01*
X102133297Y-76446486D01*
X102442412Y-76385000D01*
X102757588Y-76385000D01*
X103066703Y-76446486D01*
X103066703Y-76446486D01*
G37*
G36*
X133006703Y-76446486D02*
X133297883Y-76567097D01*
X133559944Y-76742201D01*
X133782799Y-76965056D01*
X133957903Y-77227117D01*
X134078514Y-77518297D01*
X134140000Y-77827412D01*
X134140000Y-78142588D01*
X134078514Y-78451703D01*
X133957903Y-78742883D01*
X133782799Y-79004944D01*
X133559944Y-79227799D01*
X133297883Y-79402903D01*
X133006703Y-79523514D01*
X132697588Y-79585000D01*
X132382412Y-79585000D01*
X132073297Y-79523514D01*
X131782117Y-79402903D01*
X131520056Y-79227799D01*
X131297201Y-79004944D01*
X131122097Y-78742883D01*
X131001486Y-78451703D01*
X130940000Y-78142588D01*
X130940000Y-77827412D01*
X131001486Y-77518297D01*
X131122097Y-77227117D01*
X131297201Y-76965056D01*
X131520056Y-76742201D01*
X131782117Y-76567097D01*
X132073297Y-76446486D01*
X132382412Y-76385000D01*
X132697588Y-76385000D01*
X133006703Y-76446486D01*
X133006703Y-76446486D01*
G37*
G36*
X84400000Y-79300000D02*
X82000000Y-79300000D01*
X82000000Y-76900000D01*
X84400000Y-76900000D01*
X84400000Y-79300000D01*
X84400000Y-79300000D01*
G37*
G36*
X57409122Y-73246115D02*
X57525041Y-73269173D01*
X57852620Y-73404861D01*
X58143511Y-73599228D01*
X58147436Y-73601851D01*
X58398149Y-73852564D01*
X58398151Y-73852567D01*
X58531210Y-74051703D01*
X58595140Y-74147382D01*
X58601786Y-74163427D01*
X58676120Y-74342884D01*
X58730827Y-74474960D01*
X58800000Y-74822714D01*
X58800000Y-75177286D01*
X58730827Y-75525040D01*
X58595140Y-75852618D01*
X58398149Y-76147436D01*
X58147436Y-76398149D01*
X58147433Y-76398151D01*
X57852620Y-76595139D01*
X57525041Y-76730827D01*
X57409122Y-76753885D01*
X57177286Y-76800000D01*
X56822714Y-76800000D01*
X56590878Y-76753885D01*
X56474959Y-76730827D01*
X56147380Y-76595139D01*
X55852567Y-76398151D01*
X55852564Y-76398149D01*
X55601851Y-76147436D01*
X55404860Y-75852618D01*
X55269173Y-75525040D01*
X55200000Y-75177286D01*
X55200000Y-74822714D01*
X55269173Y-74474960D01*
X55323881Y-74342884D01*
X55398214Y-74163427D01*
X55404860Y-74147382D01*
X55468791Y-74051703D01*
X55601849Y-73852567D01*
X55601851Y-73852564D01*
X55852564Y-73601851D01*
X55856489Y-73599228D01*
X56147380Y-73404861D01*
X56474959Y-73269173D01*
X56590878Y-73246115D01*
X56822714Y-73200000D01*
X57177286Y-73200000D01*
X57409122Y-73246115D01*
X57409122Y-73246115D01*
G37*
G36*
X233409122Y-73246115D02*
X233525041Y-73269173D01*
X233852620Y-73404861D01*
X234143511Y-73599228D01*
X234147436Y-73601851D01*
X234398149Y-73852564D01*
X234398151Y-73852567D01*
X234531210Y-74051703D01*
X234595140Y-74147382D01*
X234601786Y-74163427D01*
X234676120Y-74342884D01*
X234730827Y-74474960D01*
X234800000Y-74822714D01*
X234800000Y-75177286D01*
X234730827Y-75525040D01*
X234595140Y-75852618D01*
X234398149Y-76147436D01*
X234147436Y-76398149D01*
X234147433Y-76398151D01*
X233852620Y-76595139D01*
X233525041Y-76730827D01*
X233409122Y-76753885D01*
X233177286Y-76800000D01*
X232822714Y-76800000D01*
X232590878Y-76753885D01*
X232474959Y-76730827D01*
X232147380Y-76595139D01*
X231852567Y-76398151D01*
X231852564Y-76398149D01*
X231601851Y-76147436D01*
X231404860Y-75852618D01*
X231269173Y-75525040D01*
X231200000Y-75177286D01*
X231200000Y-74822714D01*
X231269173Y-74474960D01*
X231323881Y-74342884D01*
X231398214Y-74163427D01*
X231404860Y-74147382D01*
X231468791Y-74051703D01*
X231601849Y-73852567D01*
X231601851Y-73852564D01*
X231852564Y-73601851D01*
X231856489Y-73599228D01*
X232147380Y-73404861D01*
X232474959Y-73269173D01*
X232590878Y-73246115D01*
X232822714Y-73200000D01*
X233177286Y-73200000D01*
X233409122Y-73246115D01*
X233409122Y-73246115D01*
G37*
G36*
X163168703Y-72046486D02*
X163459883Y-72167097D01*
X163721944Y-72342201D01*
X163944799Y-72565056D01*
X164119903Y-72827117D01*
X164240514Y-73118297D01*
X164302000Y-73427412D01*
X164302000Y-73742588D01*
X164240514Y-74051703D01*
X164119903Y-74342883D01*
X163944799Y-74604944D01*
X163721944Y-74827799D01*
X163459883Y-75002903D01*
X163168703Y-75123514D01*
X162859588Y-75185000D01*
X162544412Y-75185000D01*
X162235297Y-75123514D01*
X161944117Y-75002903D01*
X161682056Y-74827799D01*
X161459201Y-74604944D01*
X161284097Y-74342883D01*
X161163486Y-74051703D01*
X161102000Y-73742588D01*
X161102000Y-73427412D01*
X161163486Y-73118297D01*
X161284097Y-72827117D01*
X161459201Y-72565056D01*
X161682056Y-72342201D01*
X161944117Y-72167097D01*
X162235297Y-72046486D01*
X162544412Y-71985000D01*
X162859588Y-71985000D01*
X163168703Y-72046486D01*
X163168703Y-72046486D01*
G37*
G36*
X133006703Y-72046486D02*
X133297883Y-72167097D01*
X133559944Y-72342201D01*
X133782799Y-72565056D01*
X133957903Y-72827117D01*
X134078514Y-73118297D01*
X134140000Y-73427412D01*
X134140000Y-73742588D01*
X134078514Y-74051703D01*
X133957903Y-74342883D01*
X133782799Y-74604944D01*
X133559944Y-74827799D01*
X133297883Y-75002903D01*
X133006703Y-75123514D01*
X132697588Y-75185000D01*
X132382412Y-75185000D01*
X132073297Y-75123514D01*
X131782117Y-75002903D01*
X131520056Y-74827799D01*
X131297201Y-74604944D01*
X131122097Y-74342883D01*
X131001486Y-74051703D01*
X130940000Y-73742588D01*
X130940000Y-73427412D01*
X131001486Y-73118297D01*
X131122097Y-72827117D01*
X131297201Y-72565056D01*
X131520056Y-72342201D01*
X131782117Y-72167097D01*
X132073297Y-72046486D01*
X132382412Y-71985000D01*
X132697588Y-71985000D01*
X133006703Y-72046486D01*
X133006703Y-72046486D01*
G37*
G36*
X103066703Y-72046486D02*
X103357883Y-72167097D01*
X103619944Y-72342201D01*
X103842799Y-72565056D01*
X104017903Y-72827117D01*
X104138514Y-73118297D01*
X104200000Y-73427412D01*
X104200000Y-73742588D01*
X104138514Y-74051703D01*
X104017903Y-74342883D01*
X103842799Y-74604944D01*
X103619944Y-74827799D01*
X103357883Y-75002903D01*
X103066703Y-75123514D01*
X102757588Y-75185000D01*
X102442412Y-75185000D01*
X102133297Y-75123514D01*
X101842117Y-75002903D01*
X101580056Y-74827799D01*
X101357201Y-74604944D01*
X101182097Y-74342883D01*
X101061486Y-74051703D01*
X101000000Y-73742588D01*
X101000000Y-73427412D01*
X101061486Y-73118297D01*
X101182097Y-72827117D01*
X101357201Y-72565056D01*
X101580056Y-72342201D01*
X101842117Y-72167097D01*
X102133297Y-72046486D01*
X102442412Y-71985000D01*
X102757588Y-71985000D01*
X103066703Y-72046486D01*
X103066703Y-72046486D01*
G37*
G36*
X83550026Y-71946115D02*
X83768412Y-72036573D01*
X83964958Y-72167901D01*
X84132099Y-72335042D01*
X84263427Y-72531588D01*
X84353885Y-72749974D01*
X84400000Y-72981809D01*
X84400000Y-73218191D01*
X84353885Y-73450026D01*
X84263427Y-73668412D01*
X84132099Y-73864958D01*
X83964958Y-74032099D01*
X83768412Y-74163427D01*
X83550026Y-74253885D01*
X83318191Y-74300000D01*
X83081809Y-74300000D01*
X82849974Y-74253885D01*
X82631588Y-74163427D01*
X82435042Y-74032099D01*
X82267901Y-73864958D01*
X82136573Y-73668412D01*
X82046115Y-73450026D01*
X82000000Y-73218191D01*
X82000000Y-72981809D01*
X82046115Y-72749974D01*
X82136573Y-72531588D01*
X82267901Y-72335042D01*
X82435042Y-72167901D01*
X82631588Y-72036573D01*
X82849974Y-71946115D01*
X83081809Y-71900000D01*
X83318191Y-71900000D01*
X83550026Y-71946115D01*
X83550026Y-71946115D01*
G37*
G36*
X227184707Y-69861596D02*
X227261836Y-69869193D01*
X227393787Y-69909220D01*
X227459763Y-69929233D01*
X227642172Y-70026733D01*
X227802054Y-70157946D01*
X227933267Y-70317828D01*
X228030767Y-70500237D01*
X228030767Y-70500238D01*
X228090807Y-70698164D01*
X228111080Y-70904000D01*
X228090807Y-71109836D01*
X228050780Y-71241787D01*
X228030767Y-71307763D01*
X227933267Y-71490172D01*
X227802054Y-71650054D01*
X227642172Y-71781267D01*
X227459763Y-71878767D01*
X227393787Y-71898780D01*
X227261836Y-71938807D01*
X227187636Y-71946115D01*
X227107580Y-71954000D01*
X227004420Y-71954000D01*
X226924364Y-71946115D01*
X226850164Y-71938807D01*
X226718213Y-71898780D01*
X226652237Y-71878767D01*
X226469828Y-71781267D01*
X226309946Y-71650054D01*
X226178733Y-71490172D01*
X226081233Y-71307763D01*
X226061220Y-71241787D01*
X226021193Y-71109836D01*
X226000920Y-70904000D01*
X226021193Y-70698164D01*
X226081233Y-70500238D01*
X226081233Y-70500237D01*
X226178733Y-70317828D01*
X226309946Y-70157946D01*
X226469828Y-70026733D01*
X226652237Y-69929233D01*
X226718213Y-69909220D01*
X226850164Y-69869193D01*
X226927293Y-69861596D01*
X227004420Y-69854000D01*
X227107580Y-69854000D01*
X227184707Y-69861596D01*
X227184707Y-69861596D01*
G37*
G36*
X227184707Y-67321596D02*
X227261836Y-67329193D01*
X227393787Y-67369220D01*
X227459763Y-67389233D01*
X227642172Y-67486733D01*
X227802054Y-67617946D01*
X227933267Y-67777828D01*
X228030767Y-67960237D01*
X228030767Y-67960238D01*
X228090807Y-68158164D01*
X228111080Y-68364000D01*
X228090807Y-68569836D01*
X228050780Y-68701787D01*
X228030767Y-68767763D01*
X227933267Y-68950172D01*
X227802054Y-69110054D01*
X227642172Y-69241267D01*
X227459763Y-69338767D01*
X227393787Y-69358780D01*
X227261836Y-69398807D01*
X227184707Y-69406404D01*
X227107580Y-69414000D01*
X227004420Y-69414000D01*
X226927293Y-69406404D01*
X226850164Y-69398807D01*
X226718213Y-69358780D01*
X226652237Y-69338767D01*
X226469828Y-69241267D01*
X226309946Y-69110054D01*
X226178733Y-68950172D01*
X226081233Y-68767763D01*
X226061220Y-68701787D01*
X226021193Y-68569836D01*
X226000920Y-68364000D01*
X226021193Y-68158164D01*
X226081233Y-67960238D01*
X226081233Y-67960237D01*
X226178733Y-67777828D01*
X226309946Y-67617946D01*
X226469828Y-67486733D01*
X226652237Y-67389233D01*
X226718213Y-67369220D01*
X226850164Y-67329193D01*
X226927293Y-67321596D01*
X227004420Y-67314000D01*
X227107580Y-67314000D01*
X227184707Y-67321596D01*
X227184707Y-67321596D01*
G37*
G36*
X227184707Y-64781596D02*
X227261836Y-64789193D01*
X227393787Y-64829220D01*
X227459763Y-64849233D01*
X227642172Y-64946733D01*
X227802054Y-65077946D01*
X227933267Y-65237828D01*
X228030767Y-65420237D01*
X228030767Y-65420238D01*
X228090807Y-65618164D01*
X228111080Y-65824000D01*
X228090807Y-66029836D01*
X228050780Y-66161787D01*
X228030767Y-66227763D01*
X227933267Y-66410172D01*
X227802054Y-66570054D01*
X227642172Y-66701267D01*
X227459763Y-66798767D01*
X227393787Y-66818780D01*
X227261836Y-66858807D01*
X227184707Y-66866404D01*
X227107580Y-66874000D01*
X227004420Y-66874000D01*
X226927293Y-66866404D01*
X226850164Y-66858807D01*
X226718213Y-66818780D01*
X226652237Y-66798767D01*
X226469828Y-66701267D01*
X226309946Y-66570054D01*
X226178733Y-66410172D01*
X226081233Y-66227763D01*
X226061220Y-66161787D01*
X226021193Y-66029836D01*
X226000920Y-65824000D01*
X226021193Y-65618164D01*
X226081233Y-65420238D01*
X226081233Y-65420237D01*
X226178733Y-65237828D01*
X226309946Y-65077946D01*
X226469828Y-64946733D01*
X226652237Y-64849233D01*
X226718213Y-64829220D01*
X226850164Y-64789193D01*
X226927293Y-64781596D01*
X227004420Y-64774000D01*
X227107580Y-64774000D01*
X227184707Y-64781596D01*
X227184707Y-64781596D01*
G37*
G36*
X193582000Y-64423000D02*
X191482000Y-64423000D01*
X191482000Y-62323000D01*
X193582000Y-62323000D01*
X193582000Y-64423000D01*
X193582000Y-64423000D01*
G37*
G36*
X227184707Y-62241596D02*
X227261836Y-62249193D01*
X227393787Y-62289220D01*
X227459763Y-62309233D01*
X227642172Y-62406733D01*
X227802054Y-62537946D01*
X227933267Y-62697828D01*
X228030767Y-62880237D01*
X228030767Y-62880238D01*
X228090807Y-63078164D01*
X228111080Y-63284000D01*
X228090807Y-63489836D01*
X228050780Y-63621787D01*
X228030767Y-63687763D01*
X227933267Y-63870172D01*
X227802054Y-64030054D01*
X227642172Y-64161267D01*
X227459763Y-64258767D01*
X227393787Y-64278780D01*
X227261836Y-64318807D01*
X227184707Y-64326404D01*
X227107580Y-64334000D01*
X227004420Y-64334000D01*
X226927293Y-64326404D01*
X226850164Y-64318807D01*
X226718213Y-64278780D01*
X226652237Y-64258767D01*
X226469828Y-64161267D01*
X226309946Y-64030054D01*
X226178733Y-63870172D01*
X226081233Y-63687763D01*
X226061220Y-63621787D01*
X226021193Y-63489836D01*
X226000920Y-63284000D01*
X226021193Y-63078164D01*
X226081233Y-62880238D01*
X226081233Y-62880237D01*
X226178733Y-62697828D01*
X226309946Y-62537946D01*
X226469828Y-62406733D01*
X226652237Y-62309233D01*
X226718213Y-62289220D01*
X226850164Y-62249193D01*
X226927293Y-62241596D01*
X227004420Y-62234000D01*
X227107580Y-62234000D01*
X227184707Y-62241596D01*
X227184707Y-62241596D01*
G37*
G36*
X192660707Y-59790597D02*
X192737836Y-59798193D01*
X192869787Y-59838220D01*
X192935763Y-59858233D01*
X193118172Y-59955733D01*
X193278054Y-60086946D01*
X193409267Y-60246828D01*
X193506767Y-60429237D01*
X193506767Y-60429238D01*
X193566807Y-60627164D01*
X193587080Y-60833000D01*
X193566807Y-61038836D01*
X193533765Y-61147762D01*
X193506767Y-61236763D01*
X193409267Y-61419172D01*
X193278054Y-61579054D01*
X193118172Y-61710267D01*
X192935763Y-61807767D01*
X192869787Y-61827780D01*
X192737836Y-61867807D01*
X192660707Y-61875404D01*
X192583580Y-61883000D01*
X192480420Y-61883000D01*
X192403293Y-61875404D01*
X192326164Y-61867807D01*
X192194213Y-61827780D01*
X192128237Y-61807767D01*
X191945828Y-61710267D01*
X191785946Y-61579054D01*
X191654733Y-61419172D01*
X191557233Y-61236763D01*
X191530235Y-61147762D01*
X191497193Y-61038836D01*
X191476920Y-60833000D01*
X191497193Y-60627164D01*
X191557233Y-60429238D01*
X191557233Y-60429237D01*
X191654733Y-60246828D01*
X191785946Y-60086946D01*
X191945828Y-59955733D01*
X192128237Y-59858233D01*
X192194213Y-59838220D01*
X192326164Y-59798193D01*
X192403293Y-59790597D01*
X192480420Y-59783000D01*
X192583580Y-59783000D01*
X192660707Y-59790597D01*
X192660707Y-59790597D01*
G37*
G36*
X227184707Y-59701597D02*
X227261836Y-59709193D01*
X227393787Y-59749220D01*
X227459763Y-59769233D01*
X227642172Y-59866733D01*
X227802054Y-59997946D01*
X227933267Y-60157828D01*
X228030767Y-60340237D01*
X228030767Y-60340238D01*
X228090807Y-60538164D01*
X228111080Y-60744000D01*
X228090807Y-60949836D01*
X228063810Y-61038834D01*
X228030767Y-61147763D01*
X227933267Y-61330172D01*
X227802054Y-61490054D01*
X227642172Y-61621267D01*
X227459763Y-61718767D01*
X227393787Y-61738780D01*
X227261836Y-61778807D01*
X227184707Y-61786403D01*
X227107580Y-61794000D01*
X227004420Y-61794000D01*
X226927293Y-61786403D01*
X226850164Y-61778807D01*
X226718213Y-61738780D01*
X226652237Y-61718767D01*
X226469828Y-61621267D01*
X226309946Y-61490054D01*
X226178733Y-61330172D01*
X226081233Y-61147763D01*
X226048190Y-61038834D01*
X226021193Y-60949836D01*
X226000920Y-60744000D01*
X226021193Y-60538164D01*
X226081233Y-60340238D01*
X226081233Y-60340237D01*
X226178733Y-60157828D01*
X226309946Y-59997946D01*
X226469828Y-59866733D01*
X226652237Y-59769233D01*
X226718213Y-59749220D01*
X226850164Y-59709193D01*
X226927293Y-59701597D01*
X227004420Y-59694000D01*
X227107580Y-59694000D01*
X227184707Y-59701597D01*
X227184707Y-59701597D01*
G37*
G36*
X228106000Y-59254000D02*
X226006000Y-59254000D01*
X226006000Y-57154000D01*
X228106000Y-57154000D01*
X228106000Y-59254000D01*
X228106000Y-59254000D01*
G37*
G36*
X137879196Y-56249958D02*
X138115780Y-56347954D01*
X138328705Y-56490226D01*
X138509774Y-56671295D01*
X138652046Y-56884220D01*
X138750042Y-57120804D01*
X138800000Y-57371960D01*
X138800000Y-57628040D01*
X138750042Y-57879196D01*
X138652046Y-58115780D01*
X138509774Y-58328705D01*
X138328705Y-58509774D01*
X138115780Y-58652046D01*
X137879196Y-58750042D01*
X137628040Y-58800000D01*
X137371960Y-58800000D01*
X137120804Y-58750042D01*
X136884220Y-58652046D01*
X136671295Y-58509774D01*
X136490226Y-58328705D01*
X136347954Y-58115780D01*
X136249958Y-57879196D01*
X136200000Y-57628040D01*
X136200000Y-57371960D01*
X136249958Y-57120804D01*
X136347954Y-56884220D01*
X136490226Y-56671295D01*
X136671295Y-56490226D01*
X136884220Y-56347954D01*
X137120804Y-56249958D01*
X137371960Y-56200000D01*
X137628040Y-56200000D01*
X137879196Y-56249958D01*
X137879196Y-56249958D01*
G37*
G36*
X132879196Y-56249958D02*
X133115780Y-56347954D01*
X133328705Y-56490226D01*
X133509774Y-56671295D01*
X133652046Y-56884220D01*
X133750042Y-57120804D01*
X133800000Y-57371960D01*
X133800000Y-57628040D01*
X133750042Y-57879196D01*
X133652046Y-58115780D01*
X133509774Y-58328705D01*
X133328705Y-58509774D01*
X133115780Y-58652046D01*
X132879196Y-58750042D01*
X132628040Y-58800000D01*
X132371960Y-58800000D01*
X132120804Y-58750042D01*
X131884220Y-58652046D01*
X131671295Y-58509774D01*
X131490226Y-58328705D01*
X131347954Y-58115780D01*
X131249958Y-57879196D01*
X131200000Y-57628040D01*
X131200000Y-57371960D01*
X131249958Y-57120804D01*
X131347954Y-56884220D01*
X131490226Y-56671295D01*
X131671295Y-56490226D01*
X131884220Y-56347954D01*
X132120804Y-56249958D01*
X132371960Y-56200000D01*
X132628040Y-56200000D01*
X132879196Y-56249958D01*
X132879196Y-56249958D01*
G37*
G36*
X177879196Y-56249958D02*
X178115780Y-56347954D01*
X178328705Y-56490226D01*
X178509774Y-56671295D01*
X178652046Y-56884220D01*
X178750042Y-57120804D01*
X178800000Y-57371960D01*
X178800000Y-57628040D01*
X178750042Y-57879196D01*
X178652046Y-58115780D01*
X178509774Y-58328705D01*
X178328705Y-58509774D01*
X178115780Y-58652046D01*
X177879196Y-58750042D01*
X177628040Y-58800000D01*
X177371960Y-58800000D01*
X177120804Y-58750042D01*
X176884220Y-58652046D01*
X176671295Y-58509774D01*
X176490226Y-58328705D01*
X176347954Y-58115780D01*
X176249958Y-57879196D01*
X176200000Y-57628040D01*
X176200000Y-57371960D01*
X176249958Y-57120804D01*
X176347954Y-56884220D01*
X176490226Y-56671295D01*
X176671295Y-56490226D01*
X176884220Y-56347954D01*
X177120804Y-56249958D01*
X177371960Y-56200000D01*
X177628040Y-56200000D01*
X177879196Y-56249958D01*
X177879196Y-56249958D01*
G37*
G36*
X172879196Y-56249958D02*
X173115780Y-56347954D01*
X173328705Y-56490226D01*
X173509774Y-56671295D01*
X173652046Y-56884220D01*
X173750042Y-57120804D01*
X173800000Y-57371960D01*
X173800000Y-57628040D01*
X173750042Y-57879196D01*
X173652046Y-58115780D01*
X173509774Y-58328705D01*
X173328705Y-58509774D01*
X173115780Y-58652046D01*
X172879196Y-58750042D01*
X172628040Y-58800000D01*
X172371960Y-58800000D01*
X172120804Y-58750042D01*
X171884220Y-58652046D01*
X171671295Y-58509774D01*
X171490226Y-58328705D01*
X171347954Y-58115780D01*
X171249958Y-57879196D01*
X171200000Y-57628040D01*
X171200000Y-57371960D01*
X171249958Y-57120804D01*
X171347954Y-56884220D01*
X171490226Y-56671295D01*
X171671295Y-56490226D01*
X171884220Y-56347954D01*
X172120804Y-56249958D01*
X172371960Y-56200000D01*
X172628040Y-56200000D01*
X172879196Y-56249958D01*
X172879196Y-56249958D01*
G37*
G36*
X97879196Y-56249958D02*
X98115780Y-56347954D01*
X98328705Y-56490226D01*
X98509774Y-56671295D01*
X98652046Y-56884220D01*
X98750042Y-57120804D01*
X98800000Y-57371960D01*
X98800000Y-57628040D01*
X98750042Y-57879196D01*
X98652046Y-58115780D01*
X98509774Y-58328705D01*
X98328705Y-58509774D01*
X98115780Y-58652046D01*
X97879196Y-58750042D01*
X97628040Y-58800000D01*
X97371960Y-58800000D01*
X97120804Y-58750042D01*
X96884220Y-58652046D01*
X96671295Y-58509774D01*
X96490226Y-58328705D01*
X96347954Y-58115780D01*
X96249958Y-57879196D01*
X96200000Y-57628040D01*
X96200000Y-57371960D01*
X96249958Y-57120804D01*
X96347954Y-56884220D01*
X96490226Y-56671295D01*
X96671295Y-56490226D01*
X96884220Y-56347954D01*
X97120804Y-56249958D01*
X97371960Y-56200000D01*
X97628040Y-56200000D01*
X97879196Y-56249958D01*
X97879196Y-56249958D01*
G37*
G36*
X157879196Y-56249958D02*
X158115780Y-56347954D01*
X158328705Y-56490226D01*
X158509774Y-56671295D01*
X158652046Y-56884220D01*
X158750042Y-57120804D01*
X158800000Y-57371960D01*
X158800000Y-57628040D01*
X158750042Y-57879196D01*
X158652046Y-58115780D01*
X158509774Y-58328705D01*
X158328705Y-58509774D01*
X158115780Y-58652046D01*
X157879196Y-58750042D01*
X157628040Y-58800000D01*
X157371960Y-58800000D01*
X157120804Y-58750042D01*
X156884220Y-58652046D01*
X156671295Y-58509774D01*
X156490226Y-58328705D01*
X156347954Y-58115780D01*
X156249958Y-57879196D01*
X156200000Y-57628040D01*
X156200000Y-57371960D01*
X156249958Y-57120804D01*
X156347954Y-56884220D01*
X156490226Y-56671295D01*
X156671295Y-56490226D01*
X156884220Y-56347954D01*
X157120804Y-56249958D01*
X157371960Y-56200000D01*
X157628040Y-56200000D01*
X157879196Y-56249958D01*
X157879196Y-56249958D01*
G37*
G36*
X152879196Y-56249958D02*
X153115780Y-56347954D01*
X153328705Y-56490226D01*
X153509774Y-56671295D01*
X153652046Y-56884220D01*
X153750042Y-57120804D01*
X153800000Y-57371960D01*
X153800000Y-57628040D01*
X153750042Y-57879196D01*
X153652046Y-58115780D01*
X153509774Y-58328705D01*
X153328705Y-58509774D01*
X153115780Y-58652046D01*
X152879196Y-58750042D01*
X152628040Y-58800000D01*
X152371960Y-58800000D01*
X152120804Y-58750042D01*
X151884220Y-58652046D01*
X151671295Y-58509774D01*
X151490226Y-58328705D01*
X151347954Y-58115780D01*
X151249958Y-57879196D01*
X151200000Y-57628040D01*
X151200000Y-57371960D01*
X151249958Y-57120804D01*
X151347954Y-56884220D01*
X151490226Y-56671295D01*
X151671295Y-56490226D01*
X151884220Y-56347954D01*
X152120804Y-56249958D01*
X152371960Y-56200000D01*
X152628040Y-56200000D01*
X152879196Y-56249958D01*
X152879196Y-56249958D01*
G37*
G36*
X112879196Y-56249958D02*
X113115780Y-56347954D01*
X113328705Y-56490226D01*
X113509774Y-56671295D01*
X113652046Y-56884220D01*
X113750042Y-57120804D01*
X113800000Y-57371960D01*
X113800000Y-57628040D01*
X113750042Y-57879196D01*
X113652046Y-58115780D01*
X113509774Y-58328705D01*
X113328705Y-58509774D01*
X113115780Y-58652046D01*
X112879196Y-58750042D01*
X112628040Y-58800000D01*
X112371960Y-58800000D01*
X112120804Y-58750042D01*
X111884220Y-58652046D01*
X111671295Y-58509774D01*
X111490226Y-58328705D01*
X111347954Y-58115780D01*
X111249958Y-57879196D01*
X111200000Y-57628040D01*
X111200000Y-57371960D01*
X111249958Y-57120804D01*
X111347954Y-56884220D01*
X111490226Y-56671295D01*
X111671295Y-56490226D01*
X111884220Y-56347954D01*
X112120804Y-56249958D01*
X112371960Y-56200000D01*
X112628040Y-56200000D01*
X112879196Y-56249958D01*
X112879196Y-56249958D01*
G37*
G36*
X117879196Y-56249958D02*
X118115780Y-56347954D01*
X118328705Y-56490226D01*
X118509774Y-56671295D01*
X118652046Y-56884220D01*
X118750042Y-57120804D01*
X118800000Y-57371960D01*
X118800000Y-57628040D01*
X118750042Y-57879196D01*
X118652046Y-58115780D01*
X118509774Y-58328705D01*
X118328705Y-58509774D01*
X118115780Y-58652046D01*
X117879196Y-58750042D01*
X117628040Y-58800000D01*
X117371960Y-58800000D01*
X117120804Y-58750042D01*
X116884220Y-58652046D01*
X116671295Y-58509774D01*
X116490226Y-58328705D01*
X116347954Y-58115780D01*
X116249958Y-57879196D01*
X116200000Y-57628040D01*
X116200000Y-57371960D01*
X116249958Y-57120804D01*
X116347954Y-56884220D01*
X116490226Y-56671295D01*
X116671295Y-56490226D01*
X116884220Y-56347954D01*
X117120804Y-56249958D01*
X117371960Y-56200000D01*
X117628040Y-56200000D01*
X117879196Y-56249958D01*
X117879196Y-56249958D01*
G37*
G36*
X197879196Y-56249958D02*
X198115780Y-56347954D01*
X198328705Y-56490226D01*
X198509774Y-56671295D01*
X198652046Y-56884220D01*
X198750042Y-57120804D01*
X198800000Y-57371960D01*
X198800000Y-57628040D01*
X198750042Y-57879196D01*
X198652046Y-58115780D01*
X198509774Y-58328705D01*
X198328705Y-58509774D01*
X198115780Y-58652046D01*
X197879196Y-58750042D01*
X197628040Y-58800000D01*
X197371960Y-58800000D01*
X197120804Y-58750042D01*
X196884220Y-58652046D01*
X196671295Y-58509774D01*
X196490226Y-58328705D01*
X196347954Y-58115780D01*
X196249958Y-57879196D01*
X196200000Y-57628040D01*
X196200000Y-57371960D01*
X196249958Y-57120804D01*
X196347954Y-56884220D01*
X196490226Y-56671295D01*
X196671295Y-56490226D01*
X196884220Y-56347954D01*
X197120804Y-56249958D01*
X197371960Y-56200000D01*
X197628040Y-56200000D01*
X197879196Y-56249958D01*
X197879196Y-56249958D01*
G37*
G36*
X192879196Y-56249958D02*
X193115780Y-56347954D01*
X193328705Y-56490226D01*
X193509774Y-56671295D01*
X193652046Y-56884220D01*
X193750042Y-57120804D01*
X193800000Y-57371960D01*
X193800000Y-57628040D01*
X193750042Y-57879196D01*
X193652046Y-58115780D01*
X193509774Y-58328705D01*
X193328705Y-58509774D01*
X193115780Y-58652046D01*
X192879196Y-58750042D01*
X192628040Y-58800000D01*
X192371960Y-58800000D01*
X192120804Y-58750042D01*
X191884220Y-58652046D01*
X191671295Y-58509774D01*
X191490226Y-58328705D01*
X191347954Y-58115780D01*
X191249958Y-57879196D01*
X191200000Y-57628040D01*
X191200000Y-57371960D01*
X191249958Y-57120804D01*
X191347954Y-56884220D01*
X191490226Y-56671295D01*
X191671295Y-56490226D01*
X191884220Y-56347954D01*
X192120804Y-56249958D01*
X192371960Y-56200000D01*
X192628040Y-56200000D01*
X192879196Y-56249958D01*
X192879196Y-56249958D01*
G37*
G36*
X92879196Y-56249958D02*
X93115780Y-56347954D01*
X93328705Y-56490226D01*
X93509774Y-56671295D01*
X93652046Y-56884220D01*
X93750042Y-57120804D01*
X93800000Y-57371960D01*
X93800000Y-57628040D01*
X93750042Y-57879196D01*
X93652046Y-58115780D01*
X93509774Y-58328705D01*
X93328705Y-58509774D01*
X93115780Y-58652046D01*
X92879196Y-58750042D01*
X92628040Y-58800000D01*
X92371960Y-58800000D01*
X92120804Y-58750042D01*
X91884220Y-58652046D01*
X91671295Y-58509774D01*
X91490226Y-58328705D01*
X91347954Y-58115780D01*
X91249958Y-57879196D01*
X91200000Y-57628040D01*
X91200000Y-57371960D01*
X91249958Y-57120804D01*
X91347954Y-56884220D01*
X91490226Y-56671295D01*
X91671295Y-56490226D01*
X91884220Y-56347954D01*
X92120804Y-56249958D01*
X92371960Y-56200000D01*
X92628040Y-56200000D01*
X92879196Y-56249958D01*
X92879196Y-56249958D01*
G37*
G36*
X57409122Y-53246115D02*
X57525041Y-53269173D01*
X57852620Y-53404861D01*
X58009633Y-53509774D01*
X58147436Y-53601851D01*
X58398149Y-53852564D01*
X58595140Y-54147382D01*
X58730827Y-54474960D01*
X58800000Y-54822714D01*
X58800000Y-55177286D01*
X58730827Y-55525040D01*
X58595140Y-55852618D01*
X58398149Y-56147436D01*
X58147436Y-56398149D01*
X58147433Y-56398151D01*
X57852620Y-56595139D01*
X57525041Y-56730827D01*
X57409122Y-56753885D01*
X57177286Y-56800000D01*
X56822714Y-56800000D01*
X56590878Y-56753885D01*
X56474959Y-56730827D01*
X56147380Y-56595139D01*
X55852567Y-56398151D01*
X55852564Y-56398149D01*
X55601851Y-56147436D01*
X55404860Y-55852618D01*
X55269173Y-55525040D01*
X55200000Y-55177286D01*
X55200000Y-54822714D01*
X55269173Y-54474960D01*
X55404860Y-54147382D01*
X55601851Y-53852564D01*
X55852564Y-53601851D01*
X55990367Y-53509774D01*
X56147380Y-53404861D01*
X56474959Y-53269173D01*
X56590878Y-53246115D01*
X56822714Y-53200000D01*
X57177286Y-53200000D01*
X57409122Y-53246115D01*
X57409122Y-53246115D01*
G37*
G36*
X233409122Y-53246115D02*
X233525041Y-53269173D01*
X233852620Y-53404861D01*
X234009633Y-53509774D01*
X234147436Y-53601851D01*
X234398149Y-53852564D01*
X234595140Y-54147382D01*
X234730827Y-54474960D01*
X234800000Y-54822714D01*
X234800000Y-55177286D01*
X234730827Y-55525040D01*
X234595140Y-55852618D01*
X234398149Y-56147436D01*
X234147436Y-56398149D01*
X234147433Y-56398151D01*
X233852620Y-56595139D01*
X233525041Y-56730827D01*
X233409122Y-56753885D01*
X233177286Y-56800000D01*
X232822714Y-56800000D01*
X232590878Y-56753885D01*
X232474959Y-56730827D01*
X232147380Y-56595139D01*
X231852567Y-56398151D01*
X231852564Y-56398149D01*
X231601851Y-56147436D01*
X231404860Y-55852618D01*
X231269173Y-55525040D01*
X231200000Y-55177286D01*
X231200000Y-54822714D01*
X231269173Y-54474960D01*
X231404860Y-54147382D01*
X231601851Y-53852564D01*
X231852564Y-53601851D01*
X231990367Y-53509774D01*
X232147380Y-53404861D01*
X232474959Y-53269173D01*
X232590878Y-53246115D01*
X232822714Y-53200000D01*
X233177286Y-53200000D01*
X233409122Y-53246115D01*
X233409122Y-53246115D01*
G37*
G36*
X152879196Y-51249958D02*
X153115780Y-51347954D01*
X153328705Y-51490226D01*
X153509774Y-51671295D01*
X153652046Y-51884220D01*
X153750042Y-52120804D01*
X153800000Y-52371960D01*
X153800000Y-52628040D01*
X153750042Y-52879196D01*
X153652046Y-53115780D01*
X153509774Y-53328705D01*
X153328705Y-53509774D01*
X153115780Y-53652046D01*
X152879196Y-53750042D01*
X152628040Y-53800000D01*
X152371960Y-53800000D01*
X152120804Y-53750042D01*
X151884220Y-53652046D01*
X151671295Y-53509774D01*
X151490226Y-53328705D01*
X151347954Y-53115780D01*
X151249958Y-52879196D01*
X151200000Y-52628040D01*
X151200000Y-52371960D01*
X151249958Y-52120804D01*
X151347954Y-51884220D01*
X151490226Y-51671295D01*
X151671295Y-51490226D01*
X151884220Y-51347954D01*
X152120804Y-51249958D01*
X152371960Y-51200000D01*
X152628040Y-51200000D01*
X152879196Y-51249958D01*
X152879196Y-51249958D01*
G37*
G36*
X157879196Y-51249958D02*
X158115780Y-51347954D01*
X158328705Y-51490226D01*
X158509774Y-51671295D01*
X158652046Y-51884220D01*
X158750042Y-52120804D01*
X158800000Y-52371960D01*
X158800000Y-52628040D01*
X158750042Y-52879196D01*
X158652046Y-53115780D01*
X158509774Y-53328705D01*
X158328705Y-53509774D01*
X158115780Y-53652046D01*
X157879196Y-53750042D01*
X157628040Y-53800000D01*
X157371960Y-53800000D01*
X157120804Y-53750042D01*
X156884220Y-53652046D01*
X156671295Y-53509774D01*
X156490226Y-53328705D01*
X156347954Y-53115780D01*
X156249958Y-52879196D01*
X156200000Y-52628040D01*
X156200000Y-52371960D01*
X156249958Y-52120804D01*
X156347954Y-51884220D01*
X156490226Y-51671295D01*
X156671295Y-51490226D01*
X156884220Y-51347954D01*
X157120804Y-51249958D01*
X157371960Y-51200000D01*
X157628040Y-51200000D01*
X157879196Y-51249958D01*
X157879196Y-51249958D01*
G37*
G36*
X172879196Y-51249958D02*
X173115780Y-51347954D01*
X173328705Y-51490226D01*
X173509774Y-51671295D01*
X173652046Y-51884220D01*
X173750042Y-52120804D01*
X173800000Y-52371960D01*
X173800000Y-52628040D01*
X173750042Y-52879196D01*
X173652046Y-53115780D01*
X173509774Y-53328705D01*
X173328705Y-53509774D01*
X173115780Y-53652046D01*
X172879196Y-53750042D01*
X172628040Y-53800000D01*
X172371960Y-53800000D01*
X172120804Y-53750042D01*
X171884220Y-53652046D01*
X171671295Y-53509774D01*
X171490226Y-53328705D01*
X171347954Y-53115780D01*
X171249958Y-52879196D01*
X171200000Y-52628040D01*
X171200000Y-52371960D01*
X171249958Y-52120804D01*
X171347954Y-51884220D01*
X171490226Y-51671295D01*
X171671295Y-51490226D01*
X171884220Y-51347954D01*
X172120804Y-51249958D01*
X172371960Y-51200000D01*
X172628040Y-51200000D01*
X172879196Y-51249958D01*
X172879196Y-51249958D01*
G37*
G36*
X177879196Y-51249958D02*
X178115780Y-51347954D01*
X178328705Y-51490226D01*
X178509774Y-51671295D01*
X178652046Y-51884220D01*
X178750042Y-52120804D01*
X178800000Y-52371960D01*
X178800000Y-52628040D01*
X178750042Y-52879196D01*
X178652046Y-53115780D01*
X178509774Y-53328705D01*
X178328705Y-53509774D01*
X178115780Y-53652046D01*
X177879196Y-53750042D01*
X177628040Y-53800000D01*
X177371960Y-53800000D01*
X177120804Y-53750042D01*
X176884220Y-53652046D01*
X176671295Y-53509774D01*
X176490226Y-53328705D01*
X176347954Y-53115780D01*
X176249958Y-52879196D01*
X176200000Y-52628040D01*
X176200000Y-52371960D01*
X176249958Y-52120804D01*
X176347954Y-51884220D01*
X176490226Y-51671295D01*
X176671295Y-51490226D01*
X176884220Y-51347954D01*
X177120804Y-51249958D01*
X177371960Y-51200000D01*
X177628040Y-51200000D01*
X177879196Y-51249958D01*
X177879196Y-51249958D01*
G37*
G36*
X137879196Y-51249958D02*
X138115780Y-51347954D01*
X138328705Y-51490226D01*
X138509774Y-51671295D01*
X138652046Y-51884220D01*
X138750042Y-52120804D01*
X138800000Y-52371960D01*
X138800000Y-52628040D01*
X138750042Y-52879196D01*
X138652046Y-53115780D01*
X138509774Y-53328705D01*
X138328705Y-53509774D01*
X138115780Y-53652046D01*
X137879196Y-53750042D01*
X137628040Y-53800000D01*
X137371960Y-53800000D01*
X137120804Y-53750042D01*
X136884220Y-53652046D01*
X136671295Y-53509774D01*
X136490226Y-53328705D01*
X136347954Y-53115780D01*
X136249958Y-52879196D01*
X136200000Y-52628040D01*
X136200000Y-52371960D01*
X136249958Y-52120804D01*
X136347954Y-51884220D01*
X136490226Y-51671295D01*
X136671295Y-51490226D01*
X136884220Y-51347954D01*
X137120804Y-51249958D01*
X137371960Y-51200000D01*
X137628040Y-51200000D01*
X137879196Y-51249958D01*
X137879196Y-51249958D01*
G37*
G36*
X197879196Y-51249958D02*
X198115780Y-51347954D01*
X198328705Y-51490226D01*
X198509774Y-51671295D01*
X198652046Y-51884220D01*
X198750042Y-52120804D01*
X198800000Y-52371960D01*
X198800000Y-52628040D01*
X198750042Y-52879196D01*
X198652046Y-53115780D01*
X198509774Y-53328705D01*
X198328705Y-53509774D01*
X198115780Y-53652046D01*
X197879196Y-53750042D01*
X197628040Y-53800000D01*
X197371960Y-53800000D01*
X197120804Y-53750042D01*
X196884220Y-53652046D01*
X196671295Y-53509774D01*
X196490226Y-53328705D01*
X196347954Y-53115780D01*
X196249958Y-52879196D01*
X196200000Y-52628040D01*
X196200000Y-52371960D01*
X196249958Y-52120804D01*
X196347954Y-51884220D01*
X196490226Y-51671295D01*
X196671295Y-51490226D01*
X196884220Y-51347954D01*
X197120804Y-51249958D01*
X197371960Y-51200000D01*
X197628040Y-51200000D01*
X197879196Y-51249958D01*
X197879196Y-51249958D01*
G37*
G36*
X132879196Y-51249958D02*
X133115780Y-51347954D01*
X133328705Y-51490226D01*
X133509774Y-51671295D01*
X133652046Y-51884220D01*
X133750042Y-52120804D01*
X133800000Y-52371960D01*
X133800000Y-52628040D01*
X133750042Y-52879196D01*
X133652046Y-53115780D01*
X133509774Y-53328705D01*
X133328705Y-53509774D01*
X133115780Y-53652046D01*
X132879196Y-53750042D01*
X132628040Y-53800000D01*
X132371960Y-53800000D01*
X132120804Y-53750042D01*
X131884220Y-53652046D01*
X131671295Y-53509774D01*
X131490226Y-53328705D01*
X131347954Y-53115780D01*
X131249958Y-52879196D01*
X131200000Y-52628040D01*
X131200000Y-52371960D01*
X131249958Y-52120804D01*
X131347954Y-51884220D01*
X131490226Y-51671295D01*
X131671295Y-51490226D01*
X131884220Y-51347954D01*
X132120804Y-51249958D01*
X132371960Y-51200000D01*
X132628040Y-51200000D01*
X132879196Y-51249958D01*
X132879196Y-51249958D01*
G37*
G36*
X117879196Y-51249958D02*
X118115780Y-51347954D01*
X118328705Y-51490226D01*
X118509774Y-51671295D01*
X118652046Y-51884220D01*
X118750042Y-52120804D01*
X118800000Y-52371960D01*
X118800000Y-52628040D01*
X118750042Y-52879196D01*
X118652046Y-53115780D01*
X118509774Y-53328705D01*
X118328705Y-53509774D01*
X118115780Y-53652046D01*
X117879196Y-53750042D01*
X117628040Y-53800000D01*
X117371960Y-53800000D01*
X117120804Y-53750042D01*
X116884220Y-53652046D01*
X116671295Y-53509774D01*
X116490226Y-53328705D01*
X116347954Y-53115780D01*
X116249958Y-52879196D01*
X116200000Y-52628040D01*
X116200000Y-52371960D01*
X116249958Y-52120804D01*
X116347954Y-51884220D01*
X116490226Y-51671295D01*
X116671295Y-51490226D01*
X116884220Y-51347954D01*
X117120804Y-51249958D01*
X117371960Y-51200000D01*
X117628040Y-51200000D01*
X117879196Y-51249958D01*
X117879196Y-51249958D01*
G37*
G36*
X112879196Y-51249958D02*
X113115780Y-51347954D01*
X113328705Y-51490226D01*
X113509774Y-51671295D01*
X113652046Y-51884220D01*
X113750042Y-52120804D01*
X113800000Y-52371960D01*
X113800000Y-52628040D01*
X113750042Y-52879196D01*
X113652046Y-53115780D01*
X113509774Y-53328705D01*
X113328705Y-53509774D01*
X113115780Y-53652046D01*
X112879196Y-53750042D01*
X112628040Y-53800000D01*
X112371960Y-53800000D01*
X112120804Y-53750042D01*
X111884220Y-53652046D01*
X111671295Y-53509774D01*
X111490226Y-53328705D01*
X111347954Y-53115780D01*
X111249958Y-52879196D01*
X111200000Y-52628040D01*
X111200000Y-52371960D01*
X111249958Y-52120804D01*
X111347954Y-51884220D01*
X111490226Y-51671295D01*
X111671295Y-51490226D01*
X111884220Y-51347954D01*
X112120804Y-51249958D01*
X112371960Y-51200000D01*
X112628040Y-51200000D01*
X112879196Y-51249958D01*
X112879196Y-51249958D01*
G37*
G36*
X92879196Y-51249958D02*
X93115780Y-51347954D01*
X93328705Y-51490226D01*
X93509774Y-51671295D01*
X93652046Y-51884220D01*
X93750042Y-52120804D01*
X93800000Y-52371960D01*
X93800000Y-52628040D01*
X93750042Y-52879196D01*
X93652046Y-53115780D01*
X93509774Y-53328705D01*
X93328705Y-53509774D01*
X93115780Y-53652046D01*
X92879196Y-53750042D01*
X92628040Y-53800000D01*
X92371960Y-53800000D01*
X92120804Y-53750042D01*
X91884220Y-53652046D01*
X91671295Y-53509774D01*
X91490226Y-53328705D01*
X91347954Y-53115780D01*
X91249958Y-52879196D01*
X91200000Y-52628040D01*
X91200000Y-52371960D01*
X91249958Y-52120804D01*
X91347954Y-51884220D01*
X91490226Y-51671295D01*
X91671295Y-51490226D01*
X91884220Y-51347954D01*
X92120804Y-51249958D01*
X92371960Y-51200000D01*
X92628040Y-51200000D01*
X92879196Y-51249958D01*
X92879196Y-51249958D01*
G37*
G36*
X97879196Y-51249958D02*
X98115780Y-51347954D01*
X98328705Y-51490226D01*
X98509774Y-51671295D01*
X98652046Y-51884220D01*
X98750042Y-52120804D01*
X98800000Y-52371960D01*
X98800000Y-52628040D01*
X98750042Y-52879196D01*
X98652046Y-53115780D01*
X98509774Y-53328705D01*
X98328705Y-53509774D01*
X98115780Y-53652046D01*
X97879196Y-53750042D01*
X97628040Y-53800000D01*
X97371960Y-53800000D01*
X97120804Y-53750042D01*
X96884220Y-53652046D01*
X96671295Y-53509774D01*
X96490226Y-53328705D01*
X96347954Y-53115780D01*
X96249958Y-52879196D01*
X96200000Y-52628040D01*
X96200000Y-52371960D01*
X96249958Y-52120804D01*
X96347954Y-51884220D01*
X96490226Y-51671295D01*
X96671295Y-51490226D01*
X96884220Y-51347954D01*
X97120804Y-51249958D01*
X97371960Y-51200000D01*
X97628040Y-51200000D01*
X97879196Y-51249958D01*
X97879196Y-51249958D01*
G37*
G36*
X192879196Y-51249958D02*
X193115780Y-51347954D01*
X193328705Y-51490226D01*
X193509774Y-51671295D01*
X193652046Y-51884220D01*
X193750042Y-52120804D01*
X193800000Y-52371960D01*
X193800000Y-52628040D01*
X193750042Y-52879196D01*
X193652046Y-53115780D01*
X193509774Y-53328705D01*
X193328705Y-53509774D01*
X193115780Y-53652046D01*
X192879196Y-53750042D01*
X192628040Y-53800000D01*
X192371960Y-53800000D01*
X192120804Y-53750042D01*
X191884220Y-53652046D01*
X191671295Y-53509774D01*
X191490226Y-53328705D01*
X191347954Y-53115780D01*
X191249958Y-52879196D01*
X191200000Y-52628040D01*
X191200000Y-52371960D01*
X191249958Y-52120804D01*
X191347954Y-51884220D01*
X191490226Y-51671295D01*
X191671295Y-51490226D01*
X191884220Y-51347954D01*
X192120804Y-51249958D01*
X192371960Y-51200000D01*
X192628040Y-51200000D01*
X192879196Y-51249958D01*
X192879196Y-51249958D01*
G37*
G36*
X186761183Y-44857900D02*
X186888574Y-44910668D01*
X187003225Y-44987275D01*
X187100725Y-45084775D01*
X187177332Y-45199426D01*
X187230100Y-45326817D01*
X187257000Y-45462055D01*
X187257000Y-45599945D01*
X187230100Y-45735183D01*
X187177332Y-45862574D01*
X187100725Y-45977225D01*
X187003225Y-46074725D01*
X186888574Y-46151332D01*
X186761183Y-46204100D01*
X186625945Y-46231000D01*
X186488055Y-46231000D01*
X186352817Y-46204100D01*
X186225426Y-46151332D01*
X186110775Y-46074725D01*
X186013275Y-45977225D01*
X185936668Y-45862574D01*
X185883900Y-45735183D01*
X185857000Y-45599945D01*
X185857000Y-45462055D01*
X185883900Y-45326817D01*
X185936668Y-45199426D01*
X186013275Y-45084775D01*
X186110775Y-44987275D01*
X186225426Y-44910668D01*
X186352817Y-44857900D01*
X186488055Y-44831000D01*
X186625945Y-44831000D01*
X186761183Y-44857900D01*
X186761183Y-44857900D01*
G37*
G36*
X188661183Y-44857900D02*
X188788574Y-44910668D01*
X188903225Y-44987275D01*
X189000725Y-45084775D01*
X189077332Y-45199426D01*
X189130100Y-45326817D01*
X189157000Y-45462055D01*
X189157000Y-45599945D01*
X189130100Y-45735183D01*
X189077332Y-45862574D01*
X189000725Y-45977225D01*
X188903225Y-46074725D01*
X188788574Y-46151332D01*
X188661183Y-46204100D01*
X188525945Y-46231000D01*
X188388055Y-46231000D01*
X188252817Y-46204100D01*
X188125426Y-46151332D01*
X188010775Y-46074725D01*
X187913275Y-45977225D01*
X187836668Y-45862574D01*
X187783900Y-45735183D01*
X187757000Y-45599945D01*
X187757000Y-45462055D01*
X187783900Y-45326817D01*
X187836668Y-45199426D01*
X187913275Y-45084775D01*
X188010775Y-44987275D01*
X188125426Y-44910668D01*
X188252817Y-44857900D01*
X188388055Y-44831000D01*
X188525945Y-44831000D01*
X188661183Y-44857900D01*
X188661183Y-44857900D01*
G37*
G36*
X116100000Y-43640000D02*
X113900000Y-43640000D01*
X113900000Y-41440000D01*
X116100000Y-41440000D01*
X116100000Y-43640000D01*
X116100000Y-43640000D01*
G37*
G36*
X76100000Y-43640000D02*
X73900000Y-43640000D01*
X73900000Y-41440000D01*
X76100000Y-41440000D01*
X76100000Y-43640000D01*
X76100000Y-43640000D01*
G37*
G36*
X96100000Y-43640000D02*
X93900000Y-43640000D01*
X93900000Y-41440000D01*
X96100000Y-41440000D01*
X96100000Y-43640000D01*
X96100000Y-43640000D01*
G37*
G36*
X136100000Y-43640000D02*
X133900000Y-43640000D01*
X133900000Y-41440000D01*
X136100000Y-41440000D01*
X136100000Y-43640000D01*
X136100000Y-43640000D01*
G37*
G36*
X156100000Y-43640000D02*
X153900000Y-43640000D01*
X153900000Y-41440000D01*
X156100000Y-41440000D01*
X156100000Y-43640000D01*
X156100000Y-43640000D01*
G37*
G36*
X176100000Y-43640000D02*
X173900000Y-43640000D01*
X173900000Y-41440000D01*
X176100000Y-41440000D01*
X176100000Y-43640000D01*
X176100000Y-43640000D01*
G37*
G36*
X196172000Y-43640000D02*
X193972000Y-43640000D01*
X193972000Y-41440000D01*
X196172000Y-41440000D01*
X196172000Y-43640000D01*
X196172000Y-43640000D01*
G37*
G36*
X75320857Y-38942272D02*
X75521042Y-39025191D01*
X75701213Y-39145578D01*
X75854422Y-39298787D01*
X75974809Y-39478958D01*
X76057728Y-39679143D01*
X76100000Y-39891658D01*
X76100000Y-40108342D01*
X76057728Y-40320857D01*
X75974809Y-40521042D01*
X75854422Y-40701213D01*
X75701213Y-40854422D01*
X75521042Y-40974809D01*
X75320857Y-41057728D01*
X75108342Y-41100000D01*
X74891658Y-41100000D01*
X74679143Y-41057728D01*
X74478958Y-40974809D01*
X74298787Y-40854422D01*
X74145578Y-40701213D01*
X74025191Y-40521042D01*
X73942272Y-40320857D01*
X73900000Y-40108342D01*
X73900000Y-39891658D01*
X73942272Y-39679143D01*
X74025191Y-39478958D01*
X74145578Y-39298787D01*
X74298787Y-39145578D01*
X74478958Y-39025191D01*
X74679143Y-38942272D01*
X74891658Y-38900000D01*
X75108342Y-38900000D01*
X75320857Y-38942272D01*
X75320857Y-38942272D01*
G37*
G36*
X95320857Y-38942272D02*
X95521042Y-39025191D01*
X95701213Y-39145578D01*
X95854422Y-39298787D01*
X95974809Y-39478958D01*
X96057728Y-39679143D01*
X96100000Y-39891658D01*
X96100000Y-40108342D01*
X96057728Y-40320857D01*
X95974809Y-40521042D01*
X95854422Y-40701213D01*
X95701213Y-40854422D01*
X95521042Y-40974809D01*
X95320857Y-41057728D01*
X95108342Y-41100000D01*
X94891658Y-41100000D01*
X94679143Y-41057728D01*
X94478958Y-40974809D01*
X94298787Y-40854422D01*
X94145578Y-40701213D01*
X94025191Y-40521042D01*
X93942272Y-40320857D01*
X93900000Y-40108342D01*
X93900000Y-39891658D01*
X93942272Y-39679143D01*
X94025191Y-39478958D01*
X94145578Y-39298787D01*
X94298787Y-39145578D01*
X94478958Y-39025191D01*
X94679143Y-38942272D01*
X94891658Y-38900000D01*
X95108342Y-38900000D01*
X95320857Y-38942272D01*
X95320857Y-38942272D01*
G37*
G36*
X115320857Y-38942272D02*
X115521042Y-39025191D01*
X115701213Y-39145578D01*
X115854422Y-39298787D01*
X115974809Y-39478958D01*
X116057728Y-39679143D01*
X116100000Y-39891658D01*
X116100000Y-40108342D01*
X116057728Y-40320857D01*
X115974809Y-40521042D01*
X115854422Y-40701213D01*
X115701213Y-40854422D01*
X115521042Y-40974809D01*
X115320857Y-41057728D01*
X115108342Y-41100000D01*
X114891658Y-41100000D01*
X114679143Y-41057728D01*
X114478958Y-40974809D01*
X114298787Y-40854422D01*
X114145578Y-40701213D01*
X114025191Y-40521042D01*
X113942272Y-40320857D01*
X113900000Y-40108342D01*
X113900000Y-39891658D01*
X113942272Y-39679143D01*
X114025191Y-39478958D01*
X114145578Y-39298787D01*
X114298787Y-39145578D01*
X114478958Y-39025191D01*
X114679143Y-38942272D01*
X114891658Y-38900000D01*
X115108342Y-38900000D01*
X115320857Y-38942272D01*
X115320857Y-38942272D01*
G37*
G36*
X135320857Y-38942272D02*
X135521042Y-39025191D01*
X135701213Y-39145578D01*
X135854422Y-39298787D01*
X135974809Y-39478958D01*
X136057728Y-39679143D01*
X136100000Y-39891658D01*
X136100000Y-40108342D01*
X136057728Y-40320857D01*
X135974809Y-40521042D01*
X135854422Y-40701213D01*
X135701213Y-40854422D01*
X135521042Y-40974809D01*
X135320857Y-41057728D01*
X135108342Y-41100000D01*
X134891658Y-41100000D01*
X134679143Y-41057728D01*
X134478958Y-40974809D01*
X134298787Y-40854422D01*
X134145578Y-40701213D01*
X134025191Y-40521042D01*
X133942272Y-40320857D01*
X133900000Y-40108342D01*
X133900000Y-39891658D01*
X133942272Y-39679143D01*
X134025191Y-39478958D01*
X134145578Y-39298787D01*
X134298787Y-39145578D01*
X134478958Y-39025191D01*
X134679143Y-38942272D01*
X134891658Y-38900000D01*
X135108342Y-38900000D01*
X135320857Y-38942272D01*
X135320857Y-38942272D01*
G37*
G36*
X155320857Y-38942272D02*
X155521042Y-39025191D01*
X155701213Y-39145578D01*
X155854422Y-39298787D01*
X155974809Y-39478958D01*
X156057728Y-39679143D01*
X156100000Y-39891658D01*
X156100000Y-40108342D01*
X156057728Y-40320857D01*
X155974809Y-40521042D01*
X155854422Y-40701213D01*
X155701213Y-40854422D01*
X155521042Y-40974809D01*
X155320857Y-41057728D01*
X155108342Y-41100000D01*
X154891658Y-41100000D01*
X154679143Y-41057728D01*
X154478958Y-40974809D01*
X154298787Y-40854422D01*
X154145578Y-40701213D01*
X154025191Y-40521042D01*
X153942272Y-40320857D01*
X153900000Y-40108342D01*
X153900000Y-39891658D01*
X153942272Y-39679143D01*
X154025191Y-39478958D01*
X154145578Y-39298787D01*
X154298787Y-39145578D01*
X154478958Y-39025191D01*
X154679143Y-38942272D01*
X154891658Y-38900000D01*
X155108342Y-38900000D01*
X155320857Y-38942272D01*
X155320857Y-38942272D01*
G37*
G36*
X175320857Y-38942272D02*
X175521042Y-39025191D01*
X175701213Y-39145578D01*
X175854422Y-39298787D01*
X175974809Y-39478958D01*
X176057728Y-39679143D01*
X176100000Y-39891658D01*
X176100000Y-40108342D01*
X176057728Y-40320857D01*
X175974809Y-40521042D01*
X175854422Y-40701213D01*
X175701213Y-40854422D01*
X175521042Y-40974809D01*
X175320857Y-41057728D01*
X175108342Y-41100000D01*
X174891658Y-41100000D01*
X174679143Y-41057728D01*
X174478958Y-40974809D01*
X174298787Y-40854422D01*
X174145578Y-40701213D01*
X174025191Y-40521042D01*
X173942272Y-40320857D01*
X173900000Y-40108342D01*
X173900000Y-39891658D01*
X173942272Y-39679143D01*
X174025191Y-39478958D01*
X174145578Y-39298787D01*
X174298787Y-39145578D01*
X174478958Y-39025191D01*
X174679143Y-38942272D01*
X174891658Y-38900000D01*
X175108342Y-38900000D01*
X175320857Y-38942272D01*
X175320857Y-38942272D01*
G37*
G36*
X195392857Y-38942272D02*
X195593042Y-39025191D01*
X195773213Y-39145578D01*
X195926422Y-39298787D01*
X196046809Y-39478958D01*
X196129728Y-39679143D01*
X196172000Y-39891658D01*
X196172000Y-40108342D01*
X196129728Y-40320857D01*
X196046809Y-40521042D01*
X195926422Y-40701213D01*
X195773213Y-40854422D01*
X195593042Y-40974809D01*
X195392857Y-41057728D01*
X195180342Y-41100000D01*
X194963658Y-41100000D01*
X194751143Y-41057728D01*
X194550958Y-40974809D01*
X194370787Y-40854422D01*
X194217578Y-40701213D01*
X194097191Y-40521042D01*
X194014272Y-40320857D01*
X193972000Y-40108342D01*
X193972000Y-39891658D01*
X194014272Y-39679143D01*
X194097191Y-39478958D01*
X194217578Y-39298787D01*
X194370787Y-39145578D01*
X194550958Y-39025191D01*
X194751143Y-38942272D01*
X194963658Y-38900000D01*
X195180342Y-38900000D01*
X195392857Y-38942272D01*
X195392857Y-38942272D01*
G37*
G36*
X205520000Y-40369200D02*
X203420000Y-40369200D01*
X203420000Y-38269200D01*
X205520000Y-38269200D01*
X205520000Y-40369200D01*
X205520000Y-40369200D01*
G37*
G36*
X202058707Y-38276797D02*
X202135836Y-38284393D01*
X202267787Y-38324420D01*
X202333763Y-38344433D01*
X202516172Y-38441933D01*
X202676054Y-38573146D01*
X202807267Y-38733028D01*
X202904767Y-38915437D01*
X202904767Y-38915438D01*
X202964807Y-39113364D01*
X202985080Y-39319200D01*
X202964807Y-39525036D01*
X202924780Y-39656987D01*
X202904767Y-39722963D01*
X202807267Y-39905372D01*
X202676054Y-40065254D01*
X202516172Y-40196467D01*
X202333763Y-40293967D01*
X202267787Y-40313980D01*
X202135836Y-40354007D01*
X202058707Y-40361604D01*
X201981580Y-40369200D01*
X201878420Y-40369200D01*
X201801293Y-40361603D01*
X201724164Y-40354007D01*
X201592213Y-40313980D01*
X201526237Y-40293967D01*
X201343828Y-40196467D01*
X201183946Y-40065254D01*
X201052733Y-39905372D01*
X200955233Y-39722963D01*
X200935220Y-39656987D01*
X200895193Y-39525036D01*
X200874920Y-39319200D01*
X200895193Y-39113364D01*
X200955233Y-38915438D01*
X200955233Y-38915437D01*
X201052733Y-38733028D01*
X201183946Y-38573146D01*
X201343828Y-38441933D01*
X201526237Y-38344433D01*
X201592213Y-38324420D01*
X201724164Y-38284393D01*
X201801293Y-38276796D01*
X201878420Y-38269200D01*
X201981580Y-38269200D01*
X202058707Y-38276797D01*
X202058707Y-38276797D01*
G37*
G36*
X199518707Y-38276797D02*
X199595836Y-38284393D01*
X199727787Y-38324420D01*
X199793763Y-38344433D01*
X199976172Y-38441933D01*
X200136054Y-38573146D01*
X200267267Y-38733028D01*
X200364767Y-38915437D01*
X200364767Y-38915438D01*
X200424807Y-39113364D01*
X200445080Y-39319200D01*
X200424807Y-39525036D01*
X200384780Y-39656987D01*
X200364767Y-39722963D01*
X200267267Y-39905372D01*
X200136054Y-40065254D01*
X199976172Y-40196467D01*
X199793763Y-40293967D01*
X199727787Y-40313980D01*
X199595836Y-40354007D01*
X199518707Y-40361604D01*
X199441580Y-40369200D01*
X199338420Y-40369200D01*
X199261293Y-40361603D01*
X199184164Y-40354007D01*
X199052213Y-40313980D01*
X198986237Y-40293967D01*
X198803828Y-40196467D01*
X198643946Y-40065254D01*
X198512733Y-39905372D01*
X198415233Y-39722963D01*
X198395220Y-39656987D01*
X198355193Y-39525036D01*
X198334920Y-39319200D01*
X198355193Y-39113364D01*
X198415233Y-38915438D01*
X198415233Y-38915437D01*
X198512733Y-38733028D01*
X198643946Y-38573146D01*
X198803828Y-38441933D01*
X198986237Y-38344433D01*
X199052213Y-38324420D01*
X199184164Y-38284393D01*
X199261293Y-38276796D01*
X199338420Y-38269200D01*
X199441580Y-38269200D01*
X199518707Y-38276797D01*
X199518707Y-38276797D01*
G37*
M02*
