%TF.GenerationSoftware,KiCad,Pcbnew,(5.0.0)*%
%TF.CreationDate,2018-09-16T11:13:21+01:00*%
%TF.ProjectId,AquaHub,417175614875622E6B696361645F7063,rev?*%
%TF.SameCoordinates,Original*%
%TF.FileFunction,Other,Fab,Bot*%
%FSLAX46Y46*%
G04 Gerber Fmt 4.6, Leading zero omitted, Abs format (unit mm)*
G04 Created by KiCad (PCBNEW (5.0.0)) date 09/16/18 11:13:21*
%MOMM*%
%LPD*%
G01*
G04 APERTURE LIST*
%ADD10C,0.080000*%
%ADD11C,0.200000*%
%ADD12C,0.100000*%
%ADD13C,0.150000*%
G04 APERTURE END LIST*
D10*
X55880000Y-104140000D02*
X55880000Y-102870000D01*
X66040000Y-104140000D02*
X55880000Y-104140000D01*
X66040000Y-102870000D02*
X66040000Y-104140000D01*
X55880000Y-102870000D02*
X66040000Y-102870000D01*
D11*
X50800000Y-102870000D02*
X47879000Y-102870000D01*
X50800000Y-106045000D02*
X50800000Y-102870000D01*
X146050000Y-115570000D02*
X146050000Y-118110000D01*
X140680000Y-77590000D02*
X140680000Y-75590000D01*
X148180000Y-75590000D02*
X148180000Y-77590000D01*
X148180000Y-77590000D02*
X208180000Y-77590000D01*
X208180000Y-75590000D02*
X148180000Y-75590000D01*
X208180000Y-53590000D02*
X208180000Y-75590000D01*
X38180000Y-53590000D02*
X208180000Y-53590000D01*
X38180000Y-75590000D02*
X38180000Y-53590000D01*
X140680000Y-75590000D02*
X38180000Y-75590000D01*
X48006000Y-118364000D02*
X47879000Y-102870000D01*
X146050000Y-118110000D02*
X48006000Y-118364000D01*
X50800000Y-115570000D02*
X146050000Y-115570000D01*
X50800000Y-106045000D02*
X50800000Y-115570000D01*
X38180000Y-153590000D02*
X208180000Y-153590000D01*
X38180000Y-77590000D02*
X38180000Y-153590000D01*
X140680000Y-77590000D02*
X38180000Y-77590000D01*
X208180000Y-77590000D02*
X208180000Y-153590000D01*
D12*
X186670000Y-71140000D02*
X186120000Y-70580000D01*
X186670000Y-55860000D02*
X186120000Y-56400000D01*
X177820000Y-71140000D02*
X178370000Y-70580000D01*
X177820000Y-55860000D02*
X178370000Y-56400000D01*
X178370000Y-70580000D02*
X186120000Y-70580000D01*
X177820000Y-71140000D02*
X186670000Y-71140000D01*
X178370000Y-56400000D02*
X186120000Y-56400000D01*
X177820000Y-55860000D02*
X186670000Y-55860000D01*
X186120000Y-65750000D02*
X186670000Y-65750000D01*
X186120000Y-61250000D02*
X186670000Y-61250000D01*
X186120000Y-65750000D02*
X186120000Y-70580000D01*
X186120000Y-56400000D02*
X186120000Y-61250000D01*
X186670000Y-55860000D02*
X186670000Y-71140000D01*
X178370000Y-56400000D02*
X178370000Y-70580000D01*
X177820000Y-55860000D02*
X177820000Y-71140000D01*
X157880000Y-65590000D02*
G75*
G03X157880000Y-65590000I-2500000J0D01*
G01*
X152730000Y-62940000D02*
X152730000Y-68240000D01*
X157030000Y-62940000D02*
X152730000Y-62940000D01*
X157030000Y-68240000D02*
X152730000Y-68240000D01*
X158030000Y-63940000D02*
X158030000Y-67240000D01*
X158030000Y-63940000D02*
X157030000Y-62940000D01*
X158030000Y-67240000D02*
X157030000Y-68240000D01*
X157413956Y-64390000D02*
X156913956Y-64390000D01*
X157163956Y-64140000D02*
X157163956Y-64640000D01*
D13*
X184983095Y-73096380D02*
X184983095Y-72096380D01*
X184506904Y-73096380D02*
X184506904Y-72096380D01*
X184268809Y-72096380D01*
X184125952Y-72144000D01*
X184030714Y-72239238D01*
X183983095Y-72334476D01*
X183935476Y-72524952D01*
X183935476Y-72667809D01*
X183983095Y-72858285D01*
X184030714Y-72953523D01*
X184125952Y-73048761D01*
X184268809Y-73096380D01*
X184506904Y-73096380D01*
X182935476Y-73001142D02*
X182983095Y-73048761D01*
X183125952Y-73096380D01*
X183221190Y-73096380D01*
X183364047Y-73048761D01*
X183459285Y-72953523D01*
X183506904Y-72858285D01*
X183554523Y-72667809D01*
X183554523Y-72524952D01*
X183506904Y-72334476D01*
X183459285Y-72239238D01*
X183364047Y-72144000D01*
X183221190Y-72096380D01*
X183125952Y-72096380D01*
X182983095Y-72144000D01*
X182935476Y-72191619D01*
X182745000Y-73191619D02*
X181983095Y-73191619D01*
X181792619Y-72191619D02*
X181745000Y-72144000D01*
X181649761Y-72096380D01*
X181411666Y-72096380D01*
X181316428Y-72144000D01*
X181268809Y-72191619D01*
X181221190Y-72286857D01*
X181221190Y-72382095D01*
X181268809Y-72524952D01*
X181840238Y-73096380D01*
X181221190Y-73096380D01*
X180887857Y-73096380D02*
X180364047Y-72429714D01*
X180887857Y-72429714D02*
X180364047Y-73096380D01*
X180078333Y-72096380D02*
X179459285Y-72096380D01*
X179792619Y-72477333D01*
X179649761Y-72477333D01*
X179554523Y-72524952D01*
X179506904Y-72572571D01*
X179459285Y-72667809D01*
X179459285Y-72905904D01*
X179506904Y-73001142D01*
X179554523Y-73048761D01*
X179649761Y-73096380D01*
X179935476Y-73096380D01*
X180030714Y-73048761D01*
X180078333Y-73001142D01*
X183054523Y-62952380D02*
X183054523Y-63666666D01*
X183102142Y-63809523D01*
X183197380Y-63904761D01*
X183340238Y-63952380D01*
X183435476Y-63952380D01*
X182054523Y-63952380D02*
X182625952Y-63952380D01*
X182340238Y-63952380D02*
X182340238Y-62952380D01*
X182435476Y-63095238D01*
X182530714Y-63190476D01*
X182625952Y-63238095D01*
X181673571Y-63047619D02*
X181625952Y-63000000D01*
X181530714Y-62952380D01*
X181292619Y-62952380D01*
X181197380Y-63000000D01*
X181149761Y-63047619D01*
X181102142Y-63142857D01*
X181102142Y-63238095D01*
X181149761Y-63380952D01*
X181721190Y-63952380D01*
X181102142Y-63952380D01*
X157403809Y-69742380D02*
X157975238Y-69742380D01*
X157689523Y-69742380D02*
X157689523Y-68742380D01*
X157784761Y-68885238D01*
X157880000Y-68980476D01*
X157975238Y-69028095D01*
X156784761Y-68742380D02*
X156689523Y-68742380D01*
X156594285Y-68790000D01*
X156546666Y-68837619D01*
X156499047Y-68932857D01*
X156451428Y-69123333D01*
X156451428Y-69361428D01*
X156499047Y-69551904D01*
X156546666Y-69647142D01*
X156594285Y-69694761D01*
X156689523Y-69742380D01*
X156784761Y-69742380D01*
X156880000Y-69694761D01*
X156927619Y-69647142D01*
X156975238Y-69551904D01*
X157022857Y-69361428D01*
X157022857Y-69123333D01*
X156975238Y-68932857D01*
X156927619Y-68837619D01*
X156880000Y-68790000D01*
X156784761Y-68742380D01*
X155832380Y-68742380D02*
X155737142Y-68742380D01*
X155641904Y-68790000D01*
X155594285Y-68837619D01*
X155546666Y-68932857D01*
X155499047Y-69123333D01*
X155499047Y-69361428D01*
X155546666Y-69551904D01*
X155594285Y-69647142D01*
X155641904Y-69694761D01*
X155737142Y-69742380D01*
X155832380Y-69742380D01*
X155927619Y-69694761D01*
X155975238Y-69647142D01*
X156022857Y-69551904D01*
X156070476Y-69361428D01*
X156070476Y-69123333D01*
X156022857Y-68932857D01*
X155975238Y-68837619D01*
X155927619Y-68790000D01*
X155832380Y-68742380D01*
X154880000Y-68742380D02*
X154784761Y-68742380D01*
X154689523Y-68790000D01*
X154641904Y-68837619D01*
X154594285Y-68932857D01*
X154546666Y-69123333D01*
X154546666Y-69361428D01*
X154594285Y-69551904D01*
X154641904Y-69647142D01*
X154689523Y-69694761D01*
X154784761Y-69742380D01*
X154880000Y-69742380D01*
X154975238Y-69694761D01*
X155022857Y-69647142D01*
X155070476Y-69551904D01*
X155118095Y-69361428D01*
X155118095Y-69123333D01*
X155070476Y-68932857D01*
X155022857Y-68837619D01*
X154975238Y-68790000D01*
X154880000Y-68742380D01*
X153689523Y-69075714D02*
X153689523Y-69742380D01*
X154118095Y-69075714D02*
X154118095Y-69599523D01*
X154070476Y-69694761D01*
X153975238Y-69742380D01*
X153832380Y-69742380D01*
X153737142Y-69694761D01*
X153689523Y-69647142D01*
X152880000Y-69218571D02*
X153213333Y-69218571D01*
X153213333Y-69742380D02*
X153213333Y-68742380D01*
X152737142Y-68742380D01*
X155546666Y-65947142D02*
X155594285Y-65994761D01*
X155737142Y-66042380D01*
X155832380Y-66042380D01*
X155975238Y-65994761D01*
X156070476Y-65899523D01*
X156118095Y-65804285D01*
X156165714Y-65613809D01*
X156165714Y-65470952D01*
X156118095Y-65280476D01*
X156070476Y-65185238D01*
X155975238Y-65090000D01*
X155832380Y-65042380D01*
X155737142Y-65042380D01*
X155594285Y-65090000D01*
X155546666Y-65137619D01*
X155070476Y-66042380D02*
X154880000Y-66042380D01*
X154784761Y-65994761D01*
X154737142Y-65947142D01*
X154641904Y-65804285D01*
X154594285Y-65613809D01*
X154594285Y-65232857D01*
X154641904Y-65137619D01*
X154689523Y-65090000D01*
X154784761Y-65042380D01*
X154975238Y-65042380D01*
X155070476Y-65090000D01*
X155118095Y-65137619D01*
X155165714Y-65232857D01*
X155165714Y-65470952D01*
X155118095Y-65566190D01*
X155070476Y-65613809D01*
X154975238Y-65661428D01*
X154784761Y-65661428D01*
X154689523Y-65613809D01*
X154641904Y-65566190D01*
X154594285Y-65470952D01*
M02*
