%TF.GenerationSoftware,KiCad,Pcbnew,(5.0.0)*%
%TF.CreationDate,2018-09-17T09:03:23+01:00*%
%TF.ProjectId,AquaHub,417175614875622E6B696361645F7063,rev?*%
%TF.SameCoordinates,Original*%
%TF.FileFunction,Copper,L1,Top,Signal*%
%TF.FilePolarity,Positive*%
%FSLAX46Y46*%
G04 Gerber Fmt 4.6, Leading zero omitted, Abs format (unit mm)*
G04 Created by KiCad (PCBNEW (5.0.0)) date 09/17/18 09:03:23*
%MOMM*%
%LPD*%
G01*
G04 APERTURE LIST*
%ADD10C,0.080000*%
%ADD11C,0.200000*%
%ADD12R,1.000000X0.500000*%
%ADD13R,0.500000X1.300000*%
%ADD14O,1.700000X1.700000*%
%ADD15R,1.700000X1.700000*%
%ADD16C,2.600000*%
%ADD17R,2.600000X2.600000*%
%ADD18C,2.000000*%
%ADD19R,2.000000X2.000000*%
%ADD20C,2.500000*%
%ADD21O,1.070000X1.800000*%
%ADD22R,1.070000X1.800000*%
%ADD23O,1.727200X1.727200*%
%ADD24R,1.727200X1.727200*%
%ADD25R,1.600000X3.000000*%
%ADD26C,0.150000*%
%ADD27C,1.500000*%
%ADD28C,1.800000*%
%ADD29R,6.400000X5.800000*%
%ADD30R,2.200000X1.200000*%
%ADD31R,1.500000X0.600000*%
%ADD32C,1.150000*%
%ADD33R,0.600000X1.550000*%
%ADD34R,1.600000X3.500000*%
%ADD35R,6.000000X6.000000*%
%ADD36O,2.500000X0.900000*%
%ADD37O,0.900000X2.500000*%
%ADD38C,2.800000*%
%ADD39R,0.900000X0.800000*%
%ADD40C,2.780000*%
%ADD41C,0.950000*%
%ADD42C,1.000000*%
%ADD43C,0.152400*%
%ADD44C,2.000000*%
%ADD45C,0.350000*%
G04 APERTURE END LIST*
D10*
X55880000Y-104140000D02*
X55880000Y-102870000D01*
X66040000Y-104140000D02*
X55880000Y-104140000D01*
X66040000Y-102870000D02*
X66040000Y-104140000D01*
X55880000Y-102870000D02*
X66040000Y-102870000D01*
D11*
X50800000Y-102870000D02*
X47879000Y-102870000D01*
X50800000Y-106045000D02*
X50800000Y-102870000D01*
X146050000Y-115570000D02*
X146050000Y-118110000D01*
X140680000Y-77590000D02*
X140680000Y-75590000D01*
X148180000Y-75590000D02*
X148180000Y-77590000D01*
X148180000Y-77590000D02*
X208180000Y-77590000D01*
X208180000Y-75590000D02*
X148180000Y-75590000D01*
X208180000Y-53590000D02*
X208180000Y-75590000D01*
X38180000Y-53590000D02*
X208180000Y-53590000D01*
X38180000Y-75590000D02*
X38180000Y-53590000D01*
X140680000Y-75590000D02*
X38180000Y-75590000D01*
X48006000Y-118364000D02*
X47879000Y-102870000D01*
X146050000Y-118110000D02*
X48006000Y-118364000D01*
X50800000Y-115570000D02*
X146050000Y-115570000D01*
X50800000Y-106045000D02*
X50800000Y-115570000D01*
X38180000Y-153590000D02*
X208180000Y-153590000D01*
X38180000Y-77590000D02*
X38180000Y-153590000D01*
X140680000Y-77590000D02*
X38180000Y-77590000D01*
X208180000Y-77590000D02*
X208180000Y-153590000D01*
D12*
X144247000Y-97112000D03*
X148147000Y-97112000D03*
D13*
X147447000Y-98212000D03*
X146647000Y-98212000D03*
X145847000Y-98212000D03*
X145047000Y-98212000D03*
X145047000Y-96012000D03*
X145847000Y-96012000D03*
X146647000Y-96012000D03*
X147447000Y-96012000D03*
D14*
X202819000Y-125603000D03*
X202819000Y-123063000D03*
D15*
X202819000Y-120523000D03*
D16*
X171243000Y-140335000D03*
D17*
X166243000Y-140335000D03*
D16*
X142795000Y-140335000D03*
D17*
X137795000Y-140335000D03*
D16*
X76247000Y-140335000D03*
D17*
X71247000Y-140335000D03*
D16*
X59610000Y-140335000D03*
D17*
X54610000Y-140335000D03*
D16*
X126158000Y-140335000D03*
D17*
X121158000Y-140335000D03*
D16*
X109521000Y-140335000D03*
D17*
X104521000Y-140335000D03*
D16*
X92884000Y-140335000D03*
D17*
X87884000Y-140335000D03*
D18*
X83693000Y-82804000D03*
X88773000Y-100584000D03*
X88773000Y-82804000D03*
X63373000Y-100584000D03*
D19*
X58293000Y-100584000D03*
D18*
X87430000Y-72840000D03*
X82930000Y-72840000D03*
X87430000Y-66340000D03*
X82930000Y-66340000D03*
D20*
X136525000Y-133350000D03*
X136525000Y-128350000D03*
X136525000Y-108350000D03*
X144025000Y-108350000D03*
X144025000Y-128350000D03*
X144025000Y-133350000D03*
X102990000Y-133350000D03*
X102990000Y-128350000D03*
X102990000Y-108350000D03*
X110490000Y-108350000D03*
X110490000Y-128350000D03*
X110490000Y-133350000D03*
X86480000Y-133350000D03*
X86480000Y-128350000D03*
X86480000Y-108350000D03*
X93980000Y-108350000D03*
X93980000Y-128350000D03*
X93980000Y-133350000D03*
D14*
X195580000Y-97663000D03*
D15*
X195580000Y-95123000D03*
D21*
X131990000Y-59590000D03*
X130720000Y-59590000D03*
X129450000Y-59590000D03*
D22*
X128180000Y-59590000D03*
D23*
X144780000Y-84328000D03*
X144780000Y-81788000D03*
X147320000Y-84328000D03*
X147320000Y-81788000D03*
X149860000Y-84328000D03*
D24*
X149860000Y-81788000D03*
D25*
X116840000Y-86405000D03*
X116840000Y-90805000D03*
D26*
G36*
X162620504Y-79059204D02*
X162644773Y-79062804D01*
X162668571Y-79068765D01*
X162691671Y-79077030D01*
X162713849Y-79087520D01*
X162734893Y-79100133D01*
X162754598Y-79114747D01*
X162772777Y-79131223D01*
X162789253Y-79149402D01*
X162803867Y-79169107D01*
X162816480Y-79190151D01*
X162826970Y-79212329D01*
X162835235Y-79235429D01*
X162841196Y-79259227D01*
X162844796Y-79283496D01*
X162846000Y-79308000D01*
X162846000Y-80308000D01*
X162844796Y-80332504D01*
X162841196Y-80356773D01*
X162835235Y-80380571D01*
X162826970Y-80403671D01*
X162816480Y-80425849D01*
X162803867Y-80446893D01*
X162789253Y-80466598D01*
X162772777Y-80484777D01*
X162754598Y-80501253D01*
X162734893Y-80515867D01*
X162713849Y-80528480D01*
X162691671Y-80538970D01*
X162668571Y-80547235D01*
X162644773Y-80553196D01*
X162620504Y-80556796D01*
X162596000Y-80558000D01*
X160746000Y-80558000D01*
X160721496Y-80556796D01*
X160697227Y-80553196D01*
X160673429Y-80547235D01*
X160650329Y-80538970D01*
X160628151Y-80528480D01*
X160607107Y-80515867D01*
X160587402Y-80501253D01*
X160569223Y-80484777D01*
X160552747Y-80466598D01*
X160538133Y-80446893D01*
X160525520Y-80425849D01*
X160515030Y-80403671D01*
X160506765Y-80380571D01*
X160500804Y-80356773D01*
X160497204Y-80332504D01*
X160496000Y-80308000D01*
X160496000Y-79308000D01*
X160497204Y-79283496D01*
X160500804Y-79259227D01*
X160506765Y-79235429D01*
X160515030Y-79212329D01*
X160525520Y-79190151D01*
X160538133Y-79169107D01*
X160552747Y-79149402D01*
X160569223Y-79131223D01*
X160587402Y-79114747D01*
X160607107Y-79100133D01*
X160628151Y-79087520D01*
X160650329Y-79077030D01*
X160673429Y-79068765D01*
X160697227Y-79062804D01*
X160721496Y-79059204D01*
X160746000Y-79058000D01*
X162596000Y-79058000D01*
X162620504Y-79059204D01*
X162620504Y-79059204D01*
G37*
D27*
X161671000Y-79808000D03*
D26*
G36*
X162620504Y-82309204D02*
X162644773Y-82312804D01*
X162668571Y-82318765D01*
X162691671Y-82327030D01*
X162713849Y-82337520D01*
X162734893Y-82350133D01*
X162754598Y-82364747D01*
X162772777Y-82381223D01*
X162789253Y-82399402D01*
X162803867Y-82419107D01*
X162816480Y-82440151D01*
X162826970Y-82462329D01*
X162835235Y-82485429D01*
X162841196Y-82509227D01*
X162844796Y-82533496D01*
X162846000Y-82558000D01*
X162846000Y-83558000D01*
X162844796Y-83582504D01*
X162841196Y-83606773D01*
X162835235Y-83630571D01*
X162826970Y-83653671D01*
X162816480Y-83675849D01*
X162803867Y-83696893D01*
X162789253Y-83716598D01*
X162772777Y-83734777D01*
X162754598Y-83751253D01*
X162734893Y-83765867D01*
X162713849Y-83778480D01*
X162691671Y-83788970D01*
X162668571Y-83797235D01*
X162644773Y-83803196D01*
X162620504Y-83806796D01*
X162596000Y-83808000D01*
X160746000Y-83808000D01*
X160721496Y-83806796D01*
X160697227Y-83803196D01*
X160673429Y-83797235D01*
X160650329Y-83788970D01*
X160628151Y-83778480D01*
X160607107Y-83765867D01*
X160587402Y-83751253D01*
X160569223Y-83734777D01*
X160552747Y-83716598D01*
X160538133Y-83696893D01*
X160525520Y-83675849D01*
X160515030Y-83653671D01*
X160506765Y-83630571D01*
X160500804Y-83606773D01*
X160497204Y-83582504D01*
X160496000Y-83558000D01*
X160496000Y-82558000D01*
X160497204Y-82533496D01*
X160500804Y-82509227D01*
X160506765Y-82485429D01*
X160515030Y-82462329D01*
X160525520Y-82440151D01*
X160538133Y-82419107D01*
X160552747Y-82399402D01*
X160569223Y-82381223D01*
X160587402Y-82364747D01*
X160607107Y-82350133D01*
X160628151Y-82337520D01*
X160650329Y-82327030D01*
X160673429Y-82318765D01*
X160697227Y-82312804D01*
X160721496Y-82309204D01*
X160746000Y-82308000D01*
X162596000Y-82308000D01*
X162620504Y-82309204D01*
X162620504Y-82309204D01*
G37*
D27*
X161671000Y-83058000D03*
D28*
X49805000Y-99575000D03*
X52705000Y-92075000D03*
D29*
X109855000Y-99695000D03*
D30*
X103555000Y-101975000D03*
X103555000Y-99695000D03*
X103555000Y-97415000D03*
D23*
X180975000Y-66040000D03*
X183515000Y-66040000D03*
X180975000Y-63500000D03*
X183515000Y-63500000D03*
X180975000Y-60960000D03*
D24*
X183515000Y-60960000D03*
D31*
X172720000Y-59055000D03*
X172720000Y-60325000D03*
X172720000Y-61595000D03*
X172720000Y-62865000D03*
X172720000Y-64135000D03*
X172720000Y-65405000D03*
X172720000Y-66675000D03*
X172720000Y-67945000D03*
X163420000Y-67945000D03*
X163420000Y-66675000D03*
X163420000Y-65405000D03*
X163420000Y-64135000D03*
X163420000Y-62865000D03*
X163420000Y-61595000D03*
X163420000Y-60325000D03*
X163420000Y-59055000D03*
D26*
G36*
X192627505Y-108648204D02*
X192651773Y-108651804D01*
X192675572Y-108657765D01*
X192698671Y-108666030D01*
X192720850Y-108676520D01*
X192741893Y-108689132D01*
X192761599Y-108703747D01*
X192779777Y-108720223D01*
X192796253Y-108738401D01*
X192810868Y-108758107D01*
X192823480Y-108779150D01*
X192833970Y-108801329D01*
X192842235Y-108824428D01*
X192848196Y-108848227D01*
X192851796Y-108872495D01*
X192853000Y-108896999D01*
X192853000Y-109797001D01*
X192851796Y-109821505D01*
X192848196Y-109845773D01*
X192842235Y-109869572D01*
X192833970Y-109892671D01*
X192823480Y-109914850D01*
X192810868Y-109935893D01*
X192796253Y-109955599D01*
X192779777Y-109973777D01*
X192761599Y-109990253D01*
X192741893Y-110004868D01*
X192720850Y-110017480D01*
X192698671Y-110027970D01*
X192675572Y-110036235D01*
X192651773Y-110042196D01*
X192627505Y-110045796D01*
X192603001Y-110047000D01*
X191952999Y-110047000D01*
X191928495Y-110045796D01*
X191904227Y-110042196D01*
X191880428Y-110036235D01*
X191857329Y-110027970D01*
X191835150Y-110017480D01*
X191814107Y-110004868D01*
X191794401Y-109990253D01*
X191776223Y-109973777D01*
X191759747Y-109955599D01*
X191745132Y-109935893D01*
X191732520Y-109914850D01*
X191722030Y-109892671D01*
X191713765Y-109869572D01*
X191707804Y-109845773D01*
X191704204Y-109821505D01*
X191703000Y-109797001D01*
X191703000Y-108896999D01*
X191704204Y-108872495D01*
X191707804Y-108848227D01*
X191713765Y-108824428D01*
X191722030Y-108801329D01*
X191732520Y-108779150D01*
X191745132Y-108758107D01*
X191759747Y-108738401D01*
X191776223Y-108720223D01*
X191794401Y-108703747D01*
X191814107Y-108689132D01*
X191835150Y-108676520D01*
X191857329Y-108666030D01*
X191880428Y-108657765D01*
X191904227Y-108651804D01*
X191928495Y-108648204D01*
X191952999Y-108647000D01*
X192603001Y-108647000D01*
X192627505Y-108648204D01*
X192627505Y-108648204D01*
G37*
D32*
X192278000Y-109347000D03*
D26*
G36*
X194677505Y-108648204D02*
X194701773Y-108651804D01*
X194725572Y-108657765D01*
X194748671Y-108666030D01*
X194770850Y-108676520D01*
X194791893Y-108689132D01*
X194811599Y-108703747D01*
X194829777Y-108720223D01*
X194846253Y-108738401D01*
X194860868Y-108758107D01*
X194873480Y-108779150D01*
X194883970Y-108801329D01*
X194892235Y-108824428D01*
X194898196Y-108848227D01*
X194901796Y-108872495D01*
X194903000Y-108896999D01*
X194903000Y-109797001D01*
X194901796Y-109821505D01*
X194898196Y-109845773D01*
X194892235Y-109869572D01*
X194883970Y-109892671D01*
X194873480Y-109914850D01*
X194860868Y-109935893D01*
X194846253Y-109955599D01*
X194829777Y-109973777D01*
X194811599Y-109990253D01*
X194791893Y-110004868D01*
X194770850Y-110017480D01*
X194748671Y-110027970D01*
X194725572Y-110036235D01*
X194701773Y-110042196D01*
X194677505Y-110045796D01*
X194653001Y-110047000D01*
X194002999Y-110047000D01*
X193978495Y-110045796D01*
X193954227Y-110042196D01*
X193930428Y-110036235D01*
X193907329Y-110027970D01*
X193885150Y-110017480D01*
X193864107Y-110004868D01*
X193844401Y-109990253D01*
X193826223Y-109973777D01*
X193809747Y-109955599D01*
X193795132Y-109935893D01*
X193782520Y-109914850D01*
X193772030Y-109892671D01*
X193763765Y-109869572D01*
X193757804Y-109845773D01*
X193754204Y-109821505D01*
X193753000Y-109797001D01*
X193753000Y-108896999D01*
X193754204Y-108872495D01*
X193757804Y-108848227D01*
X193763765Y-108824428D01*
X193772030Y-108801329D01*
X193782520Y-108779150D01*
X193795132Y-108758107D01*
X193809747Y-108738401D01*
X193826223Y-108720223D01*
X193844401Y-108703747D01*
X193864107Y-108689132D01*
X193885150Y-108676520D01*
X193907329Y-108666030D01*
X193930428Y-108657765D01*
X193954227Y-108651804D01*
X193978495Y-108648204D01*
X194002999Y-108647000D01*
X194653001Y-108647000D01*
X194677505Y-108648204D01*
X194677505Y-108648204D01*
G37*
D32*
X194328000Y-109347000D03*
D18*
X132430000Y-72840000D03*
X127930000Y-72840000D03*
X132430000Y-66340000D03*
X127930000Y-66340000D03*
X72430000Y-72840000D03*
X67930000Y-72840000D03*
X72430000Y-66340000D03*
X67930000Y-66340000D03*
D14*
X202819000Y-114427000D03*
X202819000Y-111887000D03*
D15*
X202819000Y-109347000D03*
D33*
X153932979Y-117809195D03*
X155202979Y-117809195D03*
X156472979Y-117809195D03*
X157742979Y-117809195D03*
X157742979Y-123209195D03*
X156472979Y-123209195D03*
X155202979Y-123209195D03*
X153932979Y-123209195D03*
D31*
X159004000Y-100330000D03*
X159004000Y-99060000D03*
X159004000Y-97790000D03*
X159004000Y-96520000D03*
X159004000Y-95250000D03*
X159004000Y-93980000D03*
X159004000Y-92710000D03*
X159004000Y-91440000D03*
X164404000Y-91440000D03*
X164404000Y-92710000D03*
X164404000Y-93980000D03*
X164404000Y-95250000D03*
X164404000Y-96520000D03*
X164404000Y-97790000D03*
X164404000Y-99060000D03*
X164404000Y-100330000D03*
D26*
G36*
X158843505Y-80434204D02*
X158867773Y-80437804D01*
X158891572Y-80443765D01*
X158914671Y-80452030D01*
X158936850Y-80462520D01*
X158957893Y-80475132D01*
X158977599Y-80489747D01*
X158995777Y-80506223D01*
X159012253Y-80524401D01*
X159026868Y-80544107D01*
X159039480Y-80565150D01*
X159049970Y-80587329D01*
X159058235Y-80610428D01*
X159064196Y-80634227D01*
X159067796Y-80658495D01*
X159069000Y-80682999D01*
X159069000Y-81333001D01*
X159067796Y-81357505D01*
X159064196Y-81381773D01*
X159058235Y-81405572D01*
X159049970Y-81428671D01*
X159039480Y-81450850D01*
X159026868Y-81471893D01*
X159012253Y-81491599D01*
X158995777Y-81509777D01*
X158977599Y-81526253D01*
X158957893Y-81540868D01*
X158936850Y-81553480D01*
X158914671Y-81563970D01*
X158891572Y-81572235D01*
X158867773Y-81578196D01*
X158843505Y-81581796D01*
X158819001Y-81583000D01*
X157918999Y-81583000D01*
X157894495Y-81581796D01*
X157870227Y-81578196D01*
X157846428Y-81572235D01*
X157823329Y-81563970D01*
X157801150Y-81553480D01*
X157780107Y-81540868D01*
X157760401Y-81526253D01*
X157742223Y-81509777D01*
X157725747Y-81491599D01*
X157711132Y-81471893D01*
X157698520Y-81450850D01*
X157688030Y-81428671D01*
X157679765Y-81405572D01*
X157673804Y-81381773D01*
X157670204Y-81357505D01*
X157669000Y-81333001D01*
X157669000Y-80682999D01*
X157670204Y-80658495D01*
X157673804Y-80634227D01*
X157679765Y-80610428D01*
X157688030Y-80587329D01*
X157698520Y-80565150D01*
X157711132Y-80544107D01*
X157725747Y-80524401D01*
X157742223Y-80506223D01*
X157760401Y-80489747D01*
X157780107Y-80475132D01*
X157801150Y-80462520D01*
X157823329Y-80452030D01*
X157846428Y-80443765D01*
X157870227Y-80437804D01*
X157894495Y-80434204D01*
X157918999Y-80433000D01*
X158819001Y-80433000D01*
X158843505Y-80434204D01*
X158843505Y-80434204D01*
G37*
D32*
X158369000Y-81008000D03*
D26*
G36*
X158843505Y-82484204D02*
X158867773Y-82487804D01*
X158891572Y-82493765D01*
X158914671Y-82502030D01*
X158936850Y-82512520D01*
X158957893Y-82525132D01*
X158977599Y-82539747D01*
X158995777Y-82556223D01*
X159012253Y-82574401D01*
X159026868Y-82594107D01*
X159039480Y-82615150D01*
X159049970Y-82637329D01*
X159058235Y-82660428D01*
X159064196Y-82684227D01*
X159067796Y-82708495D01*
X159069000Y-82732999D01*
X159069000Y-83383001D01*
X159067796Y-83407505D01*
X159064196Y-83431773D01*
X159058235Y-83455572D01*
X159049970Y-83478671D01*
X159039480Y-83500850D01*
X159026868Y-83521893D01*
X159012253Y-83541599D01*
X158995777Y-83559777D01*
X158977599Y-83576253D01*
X158957893Y-83590868D01*
X158936850Y-83603480D01*
X158914671Y-83613970D01*
X158891572Y-83622235D01*
X158867773Y-83628196D01*
X158843505Y-83631796D01*
X158819001Y-83633000D01*
X157918999Y-83633000D01*
X157894495Y-83631796D01*
X157870227Y-83628196D01*
X157846428Y-83622235D01*
X157823329Y-83613970D01*
X157801150Y-83603480D01*
X157780107Y-83590868D01*
X157760401Y-83576253D01*
X157742223Y-83559777D01*
X157725747Y-83541599D01*
X157711132Y-83521893D01*
X157698520Y-83500850D01*
X157688030Y-83478671D01*
X157679765Y-83455572D01*
X157673804Y-83431773D01*
X157670204Y-83407505D01*
X157669000Y-83383001D01*
X157669000Y-82732999D01*
X157670204Y-82708495D01*
X157673804Y-82684227D01*
X157679765Y-82660428D01*
X157688030Y-82637329D01*
X157698520Y-82615150D01*
X157711132Y-82594107D01*
X157725747Y-82574401D01*
X157742223Y-82556223D01*
X157760401Y-82539747D01*
X157780107Y-82525132D01*
X157801150Y-82512520D01*
X157823329Y-82502030D01*
X157846428Y-82493765D01*
X157870227Y-82487804D01*
X157894495Y-82484204D01*
X157918999Y-82483000D01*
X158819001Y-82483000D01*
X158843505Y-82484204D01*
X158843505Y-82484204D01*
G37*
D32*
X158369000Y-83058000D03*
D26*
G36*
X156813505Y-111061204D02*
X156837773Y-111064804D01*
X156861572Y-111070765D01*
X156884671Y-111079030D01*
X156906850Y-111089520D01*
X156927893Y-111102132D01*
X156947599Y-111116747D01*
X156965777Y-111133223D01*
X156982253Y-111151401D01*
X156996868Y-111171107D01*
X157009480Y-111192150D01*
X157019970Y-111214329D01*
X157028235Y-111237428D01*
X157034196Y-111261227D01*
X157037796Y-111285495D01*
X157039000Y-111309999D01*
X157039000Y-112210001D01*
X157037796Y-112234505D01*
X157034196Y-112258773D01*
X157028235Y-112282572D01*
X157019970Y-112305671D01*
X157009480Y-112327850D01*
X156996868Y-112348893D01*
X156982253Y-112368599D01*
X156965777Y-112386777D01*
X156947599Y-112403253D01*
X156927893Y-112417868D01*
X156906850Y-112430480D01*
X156884671Y-112440970D01*
X156861572Y-112449235D01*
X156837773Y-112455196D01*
X156813505Y-112458796D01*
X156789001Y-112460000D01*
X156138999Y-112460000D01*
X156114495Y-112458796D01*
X156090227Y-112455196D01*
X156066428Y-112449235D01*
X156043329Y-112440970D01*
X156021150Y-112430480D01*
X156000107Y-112417868D01*
X155980401Y-112403253D01*
X155962223Y-112386777D01*
X155945747Y-112368599D01*
X155931132Y-112348893D01*
X155918520Y-112327850D01*
X155908030Y-112305671D01*
X155899765Y-112282572D01*
X155893804Y-112258773D01*
X155890204Y-112234505D01*
X155889000Y-112210001D01*
X155889000Y-111309999D01*
X155890204Y-111285495D01*
X155893804Y-111261227D01*
X155899765Y-111237428D01*
X155908030Y-111214329D01*
X155918520Y-111192150D01*
X155931132Y-111171107D01*
X155945747Y-111151401D01*
X155962223Y-111133223D01*
X155980401Y-111116747D01*
X156000107Y-111102132D01*
X156021150Y-111089520D01*
X156043329Y-111079030D01*
X156066428Y-111070765D01*
X156090227Y-111064804D01*
X156114495Y-111061204D01*
X156138999Y-111060000D01*
X156789001Y-111060000D01*
X156813505Y-111061204D01*
X156813505Y-111061204D01*
G37*
D32*
X156464000Y-111760000D03*
D26*
G36*
X154763505Y-111061204D02*
X154787773Y-111064804D01*
X154811572Y-111070765D01*
X154834671Y-111079030D01*
X154856850Y-111089520D01*
X154877893Y-111102132D01*
X154897599Y-111116747D01*
X154915777Y-111133223D01*
X154932253Y-111151401D01*
X154946868Y-111171107D01*
X154959480Y-111192150D01*
X154969970Y-111214329D01*
X154978235Y-111237428D01*
X154984196Y-111261227D01*
X154987796Y-111285495D01*
X154989000Y-111309999D01*
X154989000Y-112210001D01*
X154987796Y-112234505D01*
X154984196Y-112258773D01*
X154978235Y-112282572D01*
X154969970Y-112305671D01*
X154959480Y-112327850D01*
X154946868Y-112348893D01*
X154932253Y-112368599D01*
X154915777Y-112386777D01*
X154897599Y-112403253D01*
X154877893Y-112417868D01*
X154856850Y-112430480D01*
X154834671Y-112440970D01*
X154811572Y-112449235D01*
X154787773Y-112455196D01*
X154763505Y-112458796D01*
X154739001Y-112460000D01*
X154088999Y-112460000D01*
X154064495Y-112458796D01*
X154040227Y-112455196D01*
X154016428Y-112449235D01*
X153993329Y-112440970D01*
X153971150Y-112430480D01*
X153950107Y-112417868D01*
X153930401Y-112403253D01*
X153912223Y-112386777D01*
X153895747Y-112368599D01*
X153881132Y-112348893D01*
X153868520Y-112327850D01*
X153858030Y-112305671D01*
X153849765Y-112282572D01*
X153843804Y-112258773D01*
X153840204Y-112234505D01*
X153839000Y-112210001D01*
X153839000Y-111309999D01*
X153840204Y-111285495D01*
X153843804Y-111261227D01*
X153849765Y-111237428D01*
X153858030Y-111214329D01*
X153868520Y-111192150D01*
X153881132Y-111171107D01*
X153895747Y-111151401D01*
X153912223Y-111133223D01*
X153930401Y-111116747D01*
X153950107Y-111102132D01*
X153971150Y-111089520D01*
X153993329Y-111079030D01*
X154016428Y-111070765D01*
X154040227Y-111064804D01*
X154064495Y-111061204D01*
X154088999Y-111060000D01*
X154739001Y-111060000D01*
X154763505Y-111061204D01*
X154763505Y-111061204D01*
G37*
D32*
X154414000Y-111760000D03*
D26*
G36*
X194659505Y-111188204D02*
X194683773Y-111191804D01*
X194707572Y-111197765D01*
X194730671Y-111206030D01*
X194752850Y-111216520D01*
X194773893Y-111229132D01*
X194793599Y-111243747D01*
X194811777Y-111260223D01*
X194828253Y-111278401D01*
X194842868Y-111298107D01*
X194855480Y-111319150D01*
X194865970Y-111341329D01*
X194874235Y-111364428D01*
X194880196Y-111388227D01*
X194883796Y-111412495D01*
X194885000Y-111436999D01*
X194885000Y-112337001D01*
X194883796Y-112361505D01*
X194880196Y-112385773D01*
X194874235Y-112409572D01*
X194865970Y-112432671D01*
X194855480Y-112454850D01*
X194842868Y-112475893D01*
X194828253Y-112495599D01*
X194811777Y-112513777D01*
X194793599Y-112530253D01*
X194773893Y-112544868D01*
X194752850Y-112557480D01*
X194730671Y-112567970D01*
X194707572Y-112576235D01*
X194683773Y-112582196D01*
X194659505Y-112585796D01*
X194635001Y-112587000D01*
X193984999Y-112587000D01*
X193960495Y-112585796D01*
X193936227Y-112582196D01*
X193912428Y-112576235D01*
X193889329Y-112567970D01*
X193867150Y-112557480D01*
X193846107Y-112544868D01*
X193826401Y-112530253D01*
X193808223Y-112513777D01*
X193791747Y-112495599D01*
X193777132Y-112475893D01*
X193764520Y-112454850D01*
X193754030Y-112432671D01*
X193745765Y-112409572D01*
X193739804Y-112385773D01*
X193736204Y-112361505D01*
X193735000Y-112337001D01*
X193735000Y-111436999D01*
X193736204Y-111412495D01*
X193739804Y-111388227D01*
X193745765Y-111364428D01*
X193754030Y-111341329D01*
X193764520Y-111319150D01*
X193777132Y-111298107D01*
X193791747Y-111278401D01*
X193808223Y-111260223D01*
X193826401Y-111243747D01*
X193846107Y-111229132D01*
X193867150Y-111216520D01*
X193889329Y-111206030D01*
X193912428Y-111197765D01*
X193936227Y-111191804D01*
X193960495Y-111188204D01*
X193984999Y-111187000D01*
X194635001Y-111187000D01*
X194659505Y-111188204D01*
X194659505Y-111188204D01*
G37*
D32*
X194310000Y-111887000D03*
D26*
G36*
X192609505Y-111188204D02*
X192633773Y-111191804D01*
X192657572Y-111197765D01*
X192680671Y-111206030D01*
X192702850Y-111216520D01*
X192723893Y-111229132D01*
X192743599Y-111243747D01*
X192761777Y-111260223D01*
X192778253Y-111278401D01*
X192792868Y-111298107D01*
X192805480Y-111319150D01*
X192815970Y-111341329D01*
X192824235Y-111364428D01*
X192830196Y-111388227D01*
X192833796Y-111412495D01*
X192835000Y-111436999D01*
X192835000Y-112337001D01*
X192833796Y-112361505D01*
X192830196Y-112385773D01*
X192824235Y-112409572D01*
X192815970Y-112432671D01*
X192805480Y-112454850D01*
X192792868Y-112475893D01*
X192778253Y-112495599D01*
X192761777Y-112513777D01*
X192743599Y-112530253D01*
X192723893Y-112544868D01*
X192702850Y-112557480D01*
X192680671Y-112567970D01*
X192657572Y-112576235D01*
X192633773Y-112582196D01*
X192609505Y-112585796D01*
X192585001Y-112587000D01*
X191934999Y-112587000D01*
X191910495Y-112585796D01*
X191886227Y-112582196D01*
X191862428Y-112576235D01*
X191839329Y-112567970D01*
X191817150Y-112557480D01*
X191796107Y-112544868D01*
X191776401Y-112530253D01*
X191758223Y-112513777D01*
X191741747Y-112495599D01*
X191727132Y-112475893D01*
X191714520Y-112454850D01*
X191704030Y-112432671D01*
X191695765Y-112409572D01*
X191689804Y-112385773D01*
X191686204Y-112361505D01*
X191685000Y-112337001D01*
X191685000Y-111436999D01*
X191686204Y-111412495D01*
X191689804Y-111388227D01*
X191695765Y-111364428D01*
X191704030Y-111341329D01*
X191714520Y-111319150D01*
X191727132Y-111298107D01*
X191741747Y-111278401D01*
X191758223Y-111260223D01*
X191776401Y-111243747D01*
X191796107Y-111229132D01*
X191817150Y-111216520D01*
X191839329Y-111206030D01*
X191862428Y-111197765D01*
X191886227Y-111191804D01*
X191910495Y-111188204D01*
X191934999Y-111187000D01*
X192585001Y-111187000D01*
X192609505Y-111188204D01*
X192609505Y-111188204D01*
G37*
D32*
X192260000Y-111887000D03*
D21*
X116990000Y-59590000D03*
X115720000Y-59590000D03*
X114450000Y-59590000D03*
D22*
X113180000Y-59590000D03*
D21*
X101990000Y-59590000D03*
X100720000Y-59590000D03*
X99450000Y-59590000D03*
D22*
X98180000Y-59590000D03*
D21*
X86990000Y-59590000D03*
X85720000Y-59590000D03*
X84450000Y-59590000D03*
D22*
X83180000Y-59590000D03*
D21*
X71990000Y-59590000D03*
X70720000Y-59590000D03*
X69450000Y-59590000D03*
D22*
X68180000Y-59590000D03*
D21*
X56990000Y-59590000D03*
X55720000Y-59590000D03*
X54450000Y-59590000D03*
D22*
X53180000Y-59590000D03*
D18*
X117430000Y-72840000D03*
X112930000Y-72840000D03*
X117430000Y-66340000D03*
X112930000Y-66340000D03*
X102430000Y-72840000D03*
X97930000Y-72840000D03*
X102430000Y-66340000D03*
X97930000Y-66340000D03*
X57430000Y-72840000D03*
X52930000Y-72840000D03*
X57430000Y-66340000D03*
X52930000Y-66340000D03*
D34*
X97790000Y-85725000D03*
X97790000Y-91125000D03*
X97790000Y-97155000D03*
X97790000Y-102555000D03*
D25*
X116840000Y-97835000D03*
X116840000Y-102235000D03*
D29*
X109855000Y-88645000D03*
D30*
X103555000Y-90925000D03*
X103555000Y-88645000D03*
X103555000Y-86365000D03*
D35*
X180404000Y-87710000D03*
D36*
X171704000Y-80010000D03*
X171704000Y-81280000D03*
X171704000Y-82550000D03*
X171704000Y-83820000D03*
X171704000Y-85090000D03*
X171704000Y-86360000D03*
X171704000Y-87630000D03*
X171704000Y-88900000D03*
X171704000Y-90170000D03*
X171704000Y-91440000D03*
X171704000Y-92710000D03*
X171704000Y-93980000D03*
X171704000Y-95250000D03*
X171704000Y-96520000D03*
D37*
X174989000Y-98010000D03*
X176259000Y-98010000D03*
X177529000Y-98010000D03*
X178799000Y-98010000D03*
X180069000Y-98010000D03*
X181339000Y-98010000D03*
X182609000Y-98010000D03*
X183879000Y-98010000D03*
X185149000Y-98010000D03*
X186419000Y-98010000D03*
D36*
X189704000Y-96520000D03*
X189704000Y-95250000D03*
X189704000Y-93980000D03*
X189704000Y-92710000D03*
X189704000Y-91440000D03*
X189704000Y-90170000D03*
X189704000Y-88900000D03*
X189704000Y-87630000D03*
X189704000Y-86360000D03*
X189704000Y-85090000D03*
X189704000Y-83820000D03*
X189704000Y-82550000D03*
X189704000Y-81280000D03*
X189704000Y-80010000D03*
D38*
X123825000Y-95885000D03*
X123825000Y-91440000D03*
X123825000Y-86995000D03*
X123825000Y-100330000D03*
D26*
G36*
X192609505Y-122364204D02*
X192633773Y-122367804D01*
X192657572Y-122373765D01*
X192680671Y-122382030D01*
X192702850Y-122392520D01*
X192723893Y-122405132D01*
X192743599Y-122419747D01*
X192761777Y-122436223D01*
X192778253Y-122454401D01*
X192792868Y-122474107D01*
X192805480Y-122495150D01*
X192815970Y-122517329D01*
X192824235Y-122540428D01*
X192830196Y-122564227D01*
X192833796Y-122588495D01*
X192835000Y-122612999D01*
X192835000Y-123513001D01*
X192833796Y-123537505D01*
X192830196Y-123561773D01*
X192824235Y-123585572D01*
X192815970Y-123608671D01*
X192805480Y-123630850D01*
X192792868Y-123651893D01*
X192778253Y-123671599D01*
X192761777Y-123689777D01*
X192743599Y-123706253D01*
X192723893Y-123720868D01*
X192702850Y-123733480D01*
X192680671Y-123743970D01*
X192657572Y-123752235D01*
X192633773Y-123758196D01*
X192609505Y-123761796D01*
X192585001Y-123763000D01*
X191934999Y-123763000D01*
X191910495Y-123761796D01*
X191886227Y-123758196D01*
X191862428Y-123752235D01*
X191839329Y-123743970D01*
X191817150Y-123733480D01*
X191796107Y-123720868D01*
X191776401Y-123706253D01*
X191758223Y-123689777D01*
X191741747Y-123671599D01*
X191727132Y-123651893D01*
X191714520Y-123630850D01*
X191704030Y-123608671D01*
X191695765Y-123585572D01*
X191689804Y-123561773D01*
X191686204Y-123537505D01*
X191685000Y-123513001D01*
X191685000Y-122612999D01*
X191686204Y-122588495D01*
X191689804Y-122564227D01*
X191695765Y-122540428D01*
X191704030Y-122517329D01*
X191714520Y-122495150D01*
X191727132Y-122474107D01*
X191741747Y-122454401D01*
X191758223Y-122436223D01*
X191776401Y-122419747D01*
X191796107Y-122405132D01*
X191817150Y-122392520D01*
X191839329Y-122382030D01*
X191862428Y-122373765D01*
X191886227Y-122367804D01*
X191910495Y-122364204D01*
X191934999Y-122363000D01*
X192585001Y-122363000D01*
X192609505Y-122364204D01*
X192609505Y-122364204D01*
G37*
D32*
X192260000Y-123063000D03*
D26*
G36*
X194659505Y-122364204D02*
X194683773Y-122367804D01*
X194707572Y-122373765D01*
X194730671Y-122382030D01*
X194752850Y-122392520D01*
X194773893Y-122405132D01*
X194793599Y-122419747D01*
X194811777Y-122436223D01*
X194828253Y-122454401D01*
X194842868Y-122474107D01*
X194855480Y-122495150D01*
X194865970Y-122517329D01*
X194874235Y-122540428D01*
X194880196Y-122564227D01*
X194883796Y-122588495D01*
X194885000Y-122612999D01*
X194885000Y-123513001D01*
X194883796Y-123537505D01*
X194880196Y-123561773D01*
X194874235Y-123585572D01*
X194865970Y-123608671D01*
X194855480Y-123630850D01*
X194842868Y-123651893D01*
X194828253Y-123671599D01*
X194811777Y-123689777D01*
X194793599Y-123706253D01*
X194773893Y-123720868D01*
X194752850Y-123733480D01*
X194730671Y-123743970D01*
X194707572Y-123752235D01*
X194683773Y-123758196D01*
X194659505Y-123761796D01*
X194635001Y-123763000D01*
X193984999Y-123763000D01*
X193960495Y-123761796D01*
X193936227Y-123758196D01*
X193912428Y-123752235D01*
X193889329Y-123743970D01*
X193867150Y-123733480D01*
X193846107Y-123720868D01*
X193826401Y-123706253D01*
X193808223Y-123689777D01*
X193791747Y-123671599D01*
X193777132Y-123651893D01*
X193764520Y-123630850D01*
X193754030Y-123608671D01*
X193745765Y-123585572D01*
X193739804Y-123561773D01*
X193736204Y-123537505D01*
X193735000Y-123513001D01*
X193735000Y-122612999D01*
X193736204Y-122588495D01*
X193739804Y-122564227D01*
X193745765Y-122540428D01*
X193754030Y-122517329D01*
X193764520Y-122495150D01*
X193777132Y-122474107D01*
X193791747Y-122454401D01*
X193808223Y-122436223D01*
X193826401Y-122419747D01*
X193846107Y-122405132D01*
X193867150Y-122392520D01*
X193889329Y-122382030D01*
X193912428Y-122373765D01*
X193936227Y-122367804D01*
X193960495Y-122364204D01*
X193984999Y-122363000D01*
X194635001Y-122363000D01*
X194659505Y-122364204D01*
X194659505Y-122364204D01*
G37*
D32*
X194310000Y-123063000D03*
D26*
G36*
X168368505Y-82756204D02*
X168392773Y-82759804D01*
X168416572Y-82765765D01*
X168439671Y-82774030D01*
X168461850Y-82784520D01*
X168482893Y-82797132D01*
X168502599Y-82811747D01*
X168520777Y-82828223D01*
X168537253Y-82846401D01*
X168551868Y-82866107D01*
X168564480Y-82887150D01*
X168574970Y-82909329D01*
X168583235Y-82932428D01*
X168589196Y-82956227D01*
X168592796Y-82980495D01*
X168594000Y-83004999D01*
X168594000Y-83655001D01*
X168592796Y-83679505D01*
X168589196Y-83703773D01*
X168583235Y-83727572D01*
X168574970Y-83750671D01*
X168564480Y-83772850D01*
X168551868Y-83793893D01*
X168537253Y-83813599D01*
X168520777Y-83831777D01*
X168502599Y-83848253D01*
X168482893Y-83862868D01*
X168461850Y-83875480D01*
X168439671Y-83885970D01*
X168416572Y-83894235D01*
X168392773Y-83900196D01*
X168368505Y-83903796D01*
X168344001Y-83905000D01*
X167443999Y-83905000D01*
X167419495Y-83903796D01*
X167395227Y-83900196D01*
X167371428Y-83894235D01*
X167348329Y-83885970D01*
X167326150Y-83875480D01*
X167305107Y-83862868D01*
X167285401Y-83848253D01*
X167267223Y-83831777D01*
X167250747Y-83813599D01*
X167236132Y-83793893D01*
X167223520Y-83772850D01*
X167213030Y-83750671D01*
X167204765Y-83727572D01*
X167198804Y-83703773D01*
X167195204Y-83679505D01*
X167194000Y-83655001D01*
X167194000Y-83004999D01*
X167195204Y-82980495D01*
X167198804Y-82956227D01*
X167204765Y-82932428D01*
X167213030Y-82909329D01*
X167223520Y-82887150D01*
X167236132Y-82866107D01*
X167250747Y-82846401D01*
X167267223Y-82828223D01*
X167285401Y-82811747D01*
X167305107Y-82797132D01*
X167326150Y-82784520D01*
X167348329Y-82774030D01*
X167371428Y-82765765D01*
X167395227Y-82759804D01*
X167419495Y-82756204D01*
X167443999Y-82755000D01*
X168344001Y-82755000D01*
X168368505Y-82756204D01*
X168368505Y-82756204D01*
G37*
D32*
X167894000Y-83330000D03*
D26*
G36*
X168368505Y-80706204D02*
X168392773Y-80709804D01*
X168416572Y-80715765D01*
X168439671Y-80724030D01*
X168461850Y-80734520D01*
X168482893Y-80747132D01*
X168502599Y-80761747D01*
X168520777Y-80778223D01*
X168537253Y-80796401D01*
X168551868Y-80816107D01*
X168564480Y-80837150D01*
X168574970Y-80859329D01*
X168583235Y-80882428D01*
X168589196Y-80906227D01*
X168592796Y-80930495D01*
X168594000Y-80954999D01*
X168594000Y-81605001D01*
X168592796Y-81629505D01*
X168589196Y-81653773D01*
X168583235Y-81677572D01*
X168574970Y-81700671D01*
X168564480Y-81722850D01*
X168551868Y-81743893D01*
X168537253Y-81763599D01*
X168520777Y-81781777D01*
X168502599Y-81798253D01*
X168482893Y-81812868D01*
X168461850Y-81825480D01*
X168439671Y-81835970D01*
X168416572Y-81844235D01*
X168392773Y-81850196D01*
X168368505Y-81853796D01*
X168344001Y-81855000D01*
X167443999Y-81855000D01*
X167419495Y-81853796D01*
X167395227Y-81850196D01*
X167371428Y-81844235D01*
X167348329Y-81835970D01*
X167326150Y-81825480D01*
X167305107Y-81812868D01*
X167285401Y-81798253D01*
X167267223Y-81781777D01*
X167250747Y-81763599D01*
X167236132Y-81743893D01*
X167223520Y-81722850D01*
X167213030Y-81700671D01*
X167204765Y-81677572D01*
X167198804Y-81653773D01*
X167195204Y-81629505D01*
X167194000Y-81605001D01*
X167194000Y-80954999D01*
X167195204Y-80930495D01*
X167198804Y-80906227D01*
X167204765Y-80882428D01*
X167213030Y-80859329D01*
X167223520Y-80837150D01*
X167236132Y-80816107D01*
X167250747Y-80796401D01*
X167267223Y-80778223D01*
X167285401Y-80761747D01*
X167305107Y-80747132D01*
X167326150Y-80734520D01*
X167348329Y-80724030D01*
X167371428Y-80715765D01*
X167395227Y-80709804D01*
X167419495Y-80706204D01*
X167443999Y-80705000D01*
X168344001Y-80705000D01*
X168368505Y-80706204D01*
X168368505Y-80706204D01*
G37*
D32*
X167894000Y-81280000D03*
D26*
G36*
X195800505Y-100518204D02*
X195824773Y-100521804D01*
X195848572Y-100527765D01*
X195871671Y-100536030D01*
X195893850Y-100546520D01*
X195914893Y-100559132D01*
X195934599Y-100573747D01*
X195952777Y-100590223D01*
X195969253Y-100608401D01*
X195983868Y-100628107D01*
X195996480Y-100649150D01*
X196006970Y-100671329D01*
X196015235Y-100694428D01*
X196021196Y-100718227D01*
X196024796Y-100742495D01*
X196026000Y-100766999D01*
X196026000Y-101417001D01*
X196024796Y-101441505D01*
X196021196Y-101465773D01*
X196015235Y-101489572D01*
X196006970Y-101512671D01*
X195996480Y-101534850D01*
X195983868Y-101555893D01*
X195969253Y-101575599D01*
X195952777Y-101593777D01*
X195934599Y-101610253D01*
X195914893Y-101624868D01*
X195893850Y-101637480D01*
X195871671Y-101647970D01*
X195848572Y-101656235D01*
X195824773Y-101662196D01*
X195800505Y-101665796D01*
X195776001Y-101667000D01*
X194875999Y-101667000D01*
X194851495Y-101665796D01*
X194827227Y-101662196D01*
X194803428Y-101656235D01*
X194780329Y-101647970D01*
X194758150Y-101637480D01*
X194737107Y-101624868D01*
X194717401Y-101610253D01*
X194699223Y-101593777D01*
X194682747Y-101575599D01*
X194668132Y-101555893D01*
X194655520Y-101534850D01*
X194645030Y-101512671D01*
X194636765Y-101489572D01*
X194630804Y-101465773D01*
X194627204Y-101441505D01*
X194626000Y-101417001D01*
X194626000Y-100766999D01*
X194627204Y-100742495D01*
X194630804Y-100718227D01*
X194636765Y-100694428D01*
X194645030Y-100671329D01*
X194655520Y-100649150D01*
X194668132Y-100628107D01*
X194682747Y-100608401D01*
X194699223Y-100590223D01*
X194717401Y-100573747D01*
X194737107Y-100559132D01*
X194758150Y-100546520D01*
X194780329Y-100536030D01*
X194803428Y-100527765D01*
X194827227Y-100521804D01*
X194851495Y-100518204D01*
X194875999Y-100517000D01*
X195776001Y-100517000D01*
X195800505Y-100518204D01*
X195800505Y-100518204D01*
G37*
D32*
X195326000Y-101092000D03*
D26*
G36*
X195800505Y-102568204D02*
X195824773Y-102571804D01*
X195848572Y-102577765D01*
X195871671Y-102586030D01*
X195893850Y-102596520D01*
X195914893Y-102609132D01*
X195934599Y-102623747D01*
X195952777Y-102640223D01*
X195969253Y-102658401D01*
X195983868Y-102678107D01*
X195996480Y-102699150D01*
X196006970Y-102721329D01*
X196015235Y-102744428D01*
X196021196Y-102768227D01*
X196024796Y-102792495D01*
X196026000Y-102816999D01*
X196026000Y-103467001D01*
X196024796Y-103491505D01*
X196021196Y-103515773D01*
X196015235Y-103539572D01*
X196006970Y-103562671D01*
X195996480Y-103584850D01*
X195983868Y-103605893D01*
X195969253Y-103625599D01*
X195952777Y-103643777D01*
X195934599Y-103660253D01*
X195914893Y-103674868D01*
X195893850Y-103687480D01*
X195871671Y-103697970D01*
X195848572Y-103706235D01*
X195824773Y-103712196D01*
X195800505Y-103715796D01*
X195776001Y-103717000D01*
X194875999Y-103717000D01*
X194851495Y-103715796D01*
X194827227Y-103712196D01*
X194803428Y-103706235D01*
X194780329Y-103697970D01*
X194758150Y-103687480D01*
X194737107Y-103674868D01*
X194717401Y-103660253D01*
X194699223Y-103643777D01*
X194682747Y-103625599D01*
X194668132Y-103605893D01*
X194655520Y-103584850D01*
X194645030Y-103562671D01*
X194636765Y-103539572D01*
X194630804Y-103515773D01*
X194627204Y-103491505D01*
X194626000Y-103467001D01*
X194626000Y-102816999D01*
X194627204Y-102792495D01*
X194630804Y-102768227D01*
X194636765Y-102744428D01*
X194645030Y-102721329D01*
X194655520Y-102699150D01*
X194668132Y-102678107D01*
X194682747Y-102658401D01*
X194699223Y-102640223D01*
X194717401Y-102623747D01*
X194737107Y-102609132D01*
X194758150Y-102596520D01*
X194780329Y-102586030D01*
X194803428Y-102577765D01*
X194827227Y-102571804D01*
X194851495Y-102568204D01*
X194875999Y-102567000D01*
X195776001Y-102567000D01*
X195800505Y-102568204D01*
X195800505Y-102568204D01*
G37*
D32*
X195326000Y-103142000D03*
D14*
X202819000Y-103124000D03*
X202819000Y-100584000D03*
X202819000Y-98044000D03*
X202819000Y-95504000D03*
X202819000Y-92964000D03*
D15*
X202819000Y-90424000D03*
D20*
X53460000Y-133350000D03*
X53460000Y-128350000D03*
X53460000Y-108350000D03*
X60960000Y-108350000D03*
X60960000Y-128350000D03*
X60960000Y-133350000D03*
X69970000Y-133350000D03*
X69970000Y-128350000D03*
X69970000Y-108350000D03*
X77470000Y-108350000D03*
X77470000Y-128350000D03*
X77470000Y-133350000D03*
X119754000Y-133350000D03*
X119754000Y-128350000D03*
X119754000Y-108350000D03*
X127254000Y-108350000D03*
X127254000Y-128350000D03*
X127254000Y-133350000D03*
D21*
X156990000Y-59590000D03*
X155720000Y-59590000D03*
X154450000Y-59590000D03*
D22*
X153180000Y-59590000D03*
D39*
X177070000Y-107254000D03*
X179070000Y-106304000D03*
X179070000Y-108204000D03*
D26*
G36*
X174972505Y-105580204D02*
X174996773Y-105583804D01*
X175020572Y-105589765D01*
X175043671Y-105598030D01*
X175065850Y-105608520D01*
X175086893Y-105621132D01*
X175106599Y-105635747D01*
X175124777Y-105652223D01*
X175141253Y-105670401D01*
X175155868Y-105690107D01*
X175168480Y-105711150D01*
X175178970Y-105733329D01*
X175187235Y-105756428D01*
X175193196Y-105780227D01*
X175196796Y-105804495D01*
X175198000Y-105828999D01*
X175198000Y-106479001D01*
X175196796Y-106503505D01*
X175193196Y-106527773D01*
X175187235Y-106551572D01*
X175178970Y-106574671D01*
X175168480Y-106596850D01*
X175155868Y-106617893D01*
X175141253Y-106637599D01*
X175124777Y-106655777D01*
X175106599Y-106672253D01*
X175086893Y-106686868D01*
X175065850Y-106699480D01*
X175043671Y-106709970D01*
X175020572Y-106718235D01*
X174996773Y-106724196D01*
X174972505Y-106727796D01*
X174948001Y-106729000D01*
X174047999Y-106729000D01*
X174023495Y-106727796D01*
X173999227Y-106724196D01*
X173975428Y-106718235D01*
X173952329Y-106709970D01*
X173930150Y-106699480D01*
X173909107Y-106686868D01*
X173889401Y-106672253D01*
X173871223Y-106655777D01*
X173854747Y-106637599D01*
X173840132Y-106617893D01*
X173827520Y-106596850D01*
X173817030Y-106574671D01*
X173808765Y-106551572D01*
X173802804Y-106527773D01*
X173799204Y-106503505D01*
X173798000Y-106479001D01*
X173798000Y-105828999D01*
X173799204Y-105804495D01*
X173802804Y-105780227D01*
X173808765Y-105756428D01*
X173817030Y-105733329D01*
X173827520Y-105711150D01*
X173840132Y-105690107D01*
X173854747Y-105670401D01*
X173871223Y-105652223D01*
X173889401Y-105635747D01*
X173909107Y-105621132D01*
X173930150Y-105608520D01*
X173952329Y-105598030D01*
X173975428Y-105589765D01*
X173999227Y-105583804D01*
X174023495Y-105580204D01*
X174047999Y-105579000D01*
X174948001Y-105579000D01*
X174972505Y-105580204D01*
X174972505Y-105580204D01*
G37*
D32*
X174498000Y-106154000D03*
D26*
G36*
X174972505Y-107630204D02*
X174996773Y-107633804D01*
X175020572Y-107639765D01*
X175043671Y-107648030D01*
X175065850Y-107658520D01*
X175086893Y-107671132D01*
X175106599Y-107685747D01*
X175124777Y-107702223D01*
X175141253Y-107720401D01*
X175155868Y-107740107D01*
X175168480Y-107761150D01*
X175178970Y-107783329D01*
X175187235Y-107806428D01*
X175193196Y-107830227D01*
X175196796Y-107854495D01*
X175198000Y-107878999D01*
X175198000Y-108529001D01*
X175196796Y-108553505D01*
X175193196Y-108577773D01*
X175187235Y-108601572D01*
X175178970Y-108624671D01*
X175168480Y-108646850D01*
X175155868Y-108667893D01*
X175141253Y-108687599D01*
X175124777Y-108705777D01*
X175106599Y-108722253D01*
X175086893Y-108736868D01*
X175065850Y-108749480D01*
X175043671Y-108759970D01*
X175020572Y-108768235D01*
X174996773Y-108774196D01*
X174972505Y-108777796D01*
X174948001Y-108779000D01*
X174047999Y-108779000D01*
X174023495Y-108777796D01*
X173999227Y-108774196D01*
X173975428Y-108768235D01*
X173952329Y-108759970D01*
X173930150Y-108749480D01*
X173909107Y-108736868D01*
X173889401Y-108722253D01*
X173871223Y-108705777D01*
X173854747Y-108687599D01*
X173840132Y-108667893D01*
X173827520Y-108646850D01*
X173817030Y-108624671D01*
X173808765Y-108601572D01*
X173802804Y-108577773D01*
X173799204Y-108553505D01*
X173798000Y-108529001D01*
X173798000Y-107878999D01*
X173799204Y-107854495D01*
X173802804Y-107830227D01*
X173808765Y-107806428D01*
X173817030Y-107783329D01*
X173827520Y-107761150D01*
X173840132Y-107740107D01*
X173854747Y-107720401D01*
X173871223Y-107702223D01*
X173889401Y-107685747D01*
X173909107Y-107671132D01*
X173930150Y-107658520D01*
X173952329Y-107648030D01*
X173975428Y-107639765D01*
X173999227Y-107633804D01*
X174023495Y-107630204D01*
X174047999Y-107629000D01*
X174948001Y-107629000D01*
X174972505Y-107630204D01*
X174972505Y-107630204D01*
G37*
D32*
X174498000Y-108204000D03*
D26*
G36*
X172686505Y-105580204D02*
X172710773Y-105583804D01*
X172734572Y-105589765D01*
X172757671Y-105598030D01*
X172779850Y-105608520D01*
X172800893Y-105621132D01*
X172820599Y-105635747D01*
X172838777Y-105652223D01*
X172855253Y-105670401D01*
X172869868Y-105690107D01*
X172882480Y-105711150D01*
X172892970Y-105733329D01*
X172901235Y-105756428D01*
X172907196Y-105780227D01*
X172910796Y-105804495D01*
X172912000Y-105828999D01*
X172912000Y-106479001D01*
X172910796Y-106503505D01*
X172907196Y-106527773D01*
X172901235Y-106551572D01*
X172892970Y-106574671D01*
X172882480Y-106596850D01*
X172869868Y-106617893D01*
X172855253Y-106637599D01*
X172838777Y-106655777D01*
X172820599Y-106672253D01*
X172800893Y-106686868D01*
X172779850Y-106699480D01*
X172757671Y-106709970D01*
X172734572Y-106718235D01*
X172710773Y-106724196D01*
X172686505Y-106727796D01*
X172662001Y-106729000D01*
X171761999Y-106729000D01*
X171737495Y-106727796D01*
X171713227Y-106724196D01*
X171689428Y-106718235D01*
X171666329Y-106709970D01*
X171644150Y-106699480D01*
X171623107Y-106686868D01*
X171603401Y-106672253D01*
X171585223Y-106655777D01*
X171568747Y-106637599D01*
X171554132Y-106617893D01*
X171541520Y-106596850D01*
X171531030Y-106574671D01*
X171522765Y-106551572D01*
X171516804Y-106527773D01*
X171513204Y-106503505D01*
X171512000Y-106479001D01*
X171512000Y-105828999D01*
X171513204Y-105804495D01*
X171516804Y-105780227D01*
X171522765Y-105756428D01*
X171531030Y-105733329D01*
X171541520Y-105711150D01*
X171554132Y-105690107D01*
X171568747Y-105670401D01*
X171585223Y-105652223D01*
X171603401Y-105635747D01*
X171623107Y-105621132D01*
X171644150Y-105608520D01*
X171666329Y-105598030D01*
X171689428Y-105589765D01*
X171713227Y-105583804D01*
X171737495Y-105580204D01*
X171761999Y-105579000D01*
X172662001Y-105579000D01*
X172686505Y-105580204D01*
X172686505Y-105580204D01*
G37*
D32*
X172212000Y-106154000D03*
D26*
G36*
X172686505Y-107630204D02*
X172710773Y-107633804D01*
X172734572Y-107639765D01*
X172757671Y-107648030D01*
X172779850Y-107658520D01*
X172800893Y-107671132D01*
X172820599Y-107685747D01*
X172838777Y-107702223D01*
X172855253Y-107720401D01*
X172869868Y-107740107D01*
X172882480Y-107761150D01*
X172892970Y-107783329D01*
X172901235Y-107806428D01*
X172907196Y-107830227D01*
X172910796Y-107854495D01*
X172912000Y-107878999D01*
X172912000Y-108529001D01*
X172910796Y-108553505D01*
X172907196Y-108577773D01*
X172901235Y-108601572D01*
X172892970Y-108624671D01*
X172882480Y-108646850D01*
X172869868Y-108667893D01*
X172855253Y-108687599D01*
X172838777Y-108705777D01*
X172820599Y-108722253D01*
X172800893Y-108736868D01*
X172779850Y-108749480D01*
X172757671Y-108759970D01*
X172734572Y-108768235D01*
X172710773Y-108774196D01*
X172686505Y-108777796D01*
X172662001Y-108779000D01*
X171761999Y-108779000D01*
X171737495Y-108777796D01*
X171713227Y-108774196D01*
X171689428Y-108768235D01*
X171666329Y-108759970D01*
X171644150Y-108749480D01*
X171623107Y-108736868D01*
X171603401Y-108722253D01*
X171585223Y-108705777D01*
X171568747Y-108687599D01*
X171554132Y-108667893D01*
X171541520Y-108646850D01*
X171531030Y-108624671D01*
X171522765Y-108601572D01*
X171516804Y-108577773D01*
X171513204Y-108553505D01*
X171512000Y-108529001D01*
X171512000Y-107878999D01*
X171513204Y-107854495D01*
X171516804Y-107830227D01*
X171522765Y-107806428D01*
X171531030Y-107783329D01*
X171541520Y-107761150D01*
X171554132Y-107740107D01*
X171568747Y-107720401D01*
X171585223Y-107702223D01*
X171603401Y-107685747D01*
X171623107Y-107671132D01*
X171644150Y-107658520D01*
X171666329Y-107648030D01*
X171689428Y-107639765D01*
X171713227Y-107633804D01*
X171737495Y-107630204D01*
X171761999Y-107629000D01*
X172662001Y-107629000D01*
X172686505Y-107630204D01*
X172686505Y-107630204D01*
G37*
D32*
X172212000Y-108204000D03*
D26*
G36*
X159986505Y-58209204D02*
X160010773Y-58212804D01*
X160034572Y-58218765D01*
X160057671Y-58227030D01*
X160079850Y-58237520D01*
X160100893Y-58250132D01*
X160120599Y-58264747D01*
X160138777Y-58281223D01*
X160155253Y-58299401D01*
X160169868Y-58319107D01*
X160182480Y-58340150D01*
X160192970Y-58362329D01*
X160201235Y-58385428D01*
X160207196Y-58409227D01*
X160210796Y-58433495D01*
X160212000Y-58457999D01*
X160212000Y-59108001D01*
X160210796Y-59132505D01*
X160207196Y-59156773D01*
X160201235Y-59180572D01*
X160192970Y-59203671D01*
X160182480Y-59225850D01*
X160169868Y-59246893D01*
X160155253Y-59266599D01*
X160138777Y-59284777D01*
X160120599Y-59301253D01*
X160100893Y-59315868D01*
X160079850Y-59328480D01*
X160057671Y-59338970D01*
X160034572Y-59347235D01*
X160010773Y-59353196D01*
X159986505Y-59356796D01*
X159962001Y-59358000D01*
X159061999Y-59358000D01*
X159037495Y-59356796D01*
X159013227Y-59353196D01*
X158989428Y-59347235D01*
X158966329Y-59338970D01*
X158944150Y-59328480D01*
X158923107Y-59315868D01*
X158903401Y-59301253D01*
X158885223Y-59284777D01*
X158868747Y-59266599D01*
X158854132Y-59246893D01*
X158841520Y-59225850D01*
X158831030Y-59203671D01*
X158822765Y-59180572D01*
X158816804Y-59156773D01*
X158813204Y-59132505D01*
X158812000Y-59108001D01*
X158812000Y-58457999D01*
X158813204Y-58433495D01*
X158816804Y-58409227D01*
X158822765Y-58385428D01*
X158831030Y-58362329D01*
X158841520Y-58340150D01*
X158854132Y-58319107D01*
X158868747Y-58299401D01*
X158885223Y-58281223D01*
X158903401Y-58264747D01*
X158923107Y-58250132D01*
X158944150Y-58237520D01*
X158966329Y-58227030D01*
X158989428Y-58218765D01*
X159013227Y-58212804D01*
X159037495Y-58209204D01*
X159061999Y-58208000D01*
X159962001Y-58208000D01*
X159986505Y-58209204D01*
X159986505Y-58209204D01*
G37*
D32*
X159512000Y-58783000D03*
D26*
G36*
X159986505Y-60259204D02*
X160010773Y-60262804D01*
X160034572Y-60268765D01*
X160057671Y-60277030D01*
X160079850Y-60287520D01*
X160100893Y-60300132D01*
X160120599Y-60314747D01*
X160138777Y-60331223D01*
X160155253Y-60349401D01*
X160169868Y-60369107D01*
X160182480Y-60390150D01*
X160192970Y-60412329D01*
X160201235Y-60435428D01*
X160207196Y-60459227D01*
X160210796Y-60483495D01*
X160212000Y-60507999D01*
X160212000Y-61158001D01*
X160210796Y-61182505D01*
X160207196Y-61206773D01*
X160201235Y-61230572D01*
X160192970Y-61253671D01*
X160182480Y-61275850D01*
X160169868Y-61296893D01*
X160155253Y-61316599D01*
X160138777Y-61334777D01*
X160120599Y-61351253D01*
X160100893Y-61365868D01*
X160079850Y-61378480D01*
X160057671Y-61388970D01*
X160034572Y-61397235D01*
X160010773Y-61403196D01*
X159986505Y-61406796D01*
X159962001Y-61408000D01*
X159061999Y-61408000D01*
X159037495Y-61406796D01*
X159013227Y-61403196D01*
X158989428Y-61397235D01*
X158966329Y-61388970D01*
X158944150Y-61378480D01*
X158923107Y-61365868D01*
X158903401Y-61351253D01*
X158885223Y-61334777D01*
X158868747Y-61316599D01*
X158854132Y-61296893D01*
X158841520Y-61275850D01*
X158831030Y-61253671D01*
X158822765Y-61230572D01*
X158816804Y-61206773D01*
X158813204Y-61182505D01*
X158812000Y-61158001D01*
X158812000Y-60507999D01*
X158813204Y-60483495D01*
X158816804Y-60459227D01*
X158822765Y-60435428D01*
X158831030Y-60412329D01*
X158841520Y-60390150D01*
X158854132Y-60369107D01*
X158868747Y-60349401D01*
X158885223Y-60331223D01*
X158903401Y-60314747D01*
X158923107Y-60300132D01*
X158944150Y-60287520D01*
X158966329Y-60277030D01*
X158989428Y-60268765D01*
X159013227Y-60262804D01*
X159037495Y-60259204D01*
X159061999Y-60258000D01*
X159962001Y-60258000D01*
X159986505Y-60259204D01*
X159986505Y-60259204D01*
G37*
D32*
X159512000Y-60833000D03*
D40*
X166780000Y-130175000D03*
X170180000Y-130175000D03*
X166780000Y-120255000D03*
X170180000Y-120255000D03*
D19*
X193040000Y-137160000D03*
D18*
X200640000Y-137160000D03*
D26*
G36*
X154874779Y-108746144D02*
X154897834Y-108749563D01*
X154920443Y-108755227D01*
X154942387Y-108763079D01*
X154963457Y-108773044D01*
X154983448Y-108785026D01*
X155002168Y-108798910D01*
X155019438Y-108814562D01*
X155035090Y-108831832D01*
X155048974Y-108850552D01*
X155060956Y-108870543D01*
X155070921Y-108891613D01*
X155078773Y-108913557D01*
X155084437Y-108936166D01*
X155087856Y-108959221D01*
X155089000Y-108982500D01*
X155089000Y-109457500D01*
X155087856Y-109480779D01*
X155084437Y-109503834D01*
X155078773Y-109526443D01*
X155070921Y-109548387D01*
X155060956Y-109569457D01*
X155048974Y-109589448D01*
X155035090Y-109608168D01*
X155019438Y-109625438D01*
X155002168Y-109641090D01*
X154983448Y-109654974D01*
X154963457Y-109666956D01*
X154942387Y-109676921D01*
X154920443Y-109684773D01*
X154897834Y-109690437D01*
X154874779Y-109693856D01*
X154851500Y-109695000D01*
X154276500Y-109695000D01*
X154253221Y-109693856D01*
X154230166Y-109690437D01*
X154207557Y-109684773D01*
X154185613Y-109676921D01*
X154164543Y-109666956D01*
X154144552Y-109654974D01*
X154125832Y-109641090D01*
X154108562Y-109625438D01*
X154092910Y-109608168D01*
X154079026Y-109589448D01*
X154067044Y-109569457D01*
X154057079Y-109548387D01*
X154049227Y-109526443D01*
X154043563Y-109503834D01*
X154040144Y-109480779D01*
X154039000Y-109457500D01*
X154039000Y-108982500D01*
X154040144Y-108959221D01*
X154043563Y-108936166D01*
X154049227Y-108913557D01*
X154057079Y-108891613D01*
X154067044Y-108870543D01*
X154079026Y-108850552D01*
X154092910Y-108831832D01*
X154108562Y-108814562D01*
X154125832Y-108798910D01*
X154144552Y-108785026D01*
X154164543Y-108773044D01*
X154185613Y-108763079D01*
X154207557Y-108755227D01*
X154230166Y-108749563D01*
X154253221Y-108746144D01*
X154276500Y-108745000D01*
X154851500Y-108745000D01*
X154874779Y-108746144D01*
X154874779Y-108746144D01*
G37*
D41*
X154564000Y-109220000D03*
D26*
G36*
X156624779Y-108746144D02*
X156647834Y-108749563D01*
X156670443Y-108755227D01*
X156692387Y-108763079D01*
X156713457Y-108773044D01*
X156733448Y-108785026D01*
X156752168Y-108798910D01*
X156769438Y-108814562D01*
X156785090Y-108831832D01*
X156798974Y-108850552D01*
X156810956Y-108870543D01*
X156820921Y-108891613D01*
X156828773Y-108913557D01*
X156834437Y-108936166D01*
X156837856Y-108959221D01*
X156839000Y-108982500D01*
X156839000Y-109457500D01*
X156837856Y-109480779D01*
X156834437Y-109503834D01*
X156828773Y-109526443D01*
X156820921Y-109548387D01*
X156810956Y-109569457D01*
X156798974Y-109589448D01*
X156785090Y-109608168D01*
X156769438Y-109625438D01*
X156752168Y-109641090D01*
X156733448Y-109654974D01*
X156713457Y-109666956D01*
X156692387Y-109676921D01*
X156670443Y-109684773D01*
X156647834Y-109690437D01*
X156624779Y-109693856D01*
X156601500Y-109695000D01*
X156026500Y-109695000D01*
X156003221Y-109693856D01*
X155980166Y-109690437D01*
X155957557Y-109684773D01*
X155935613Y-109676921D01*
X155914543Y-109666956D01*
X155894552Y-109654974D01*
X155875832Y-109641090D01*
X155858562Y-109625438D01*
X155842910Y-109608168D01*
X155829026Y-109589448D01*
X155817044Y-109569457D01*
X155807079Y-109548387D01*
X155799227Y-109526443D01*
X155793563Y-109503834D01*
X155790144Y-109480779D01*
X155789000Y-109457500D01*
X155789000Y-108982500D01*
X155790144Y-108959221D01*
X155793563Y-108936166D01*
X155799227Y-108913557D01*
X155807079Y-108891613D01*
X155817044Y-108870543D01*
X155829026Y-108850552D01*
X155842910Y-108831832D01*
X155858562Y-108814562D01*
X155875832Y-108798910D01*
X155894552Y-108785026D01*
X155914543Y-108773044D01*
X155935613Y-108763079D01*
X155957557Y-108755227D01*
X155980166Y-108749563D01*
X156003221Y-108746144D01*
X156026500Y-108745000D01*
X156601500Y-108745000D01*
X156624779Y-108746144D01*
X156624779Y-108746144D01*
G37*
D41*
X156314000Y-109220000D03*
D26*
G36*
X154874779Y-113826144D02*
X154897834Y-113829563D01*
X154920443Y-113835227D01*
X154942387Y-113843079D01*
X154963457Y-113853044D01*
X154983448Y-113865026D01*
X155002168Y-113878910D01*
X155019438Y-113894562D01*
X155035090Y-113911832D01*
X155048974Y-113930552D01*
X155060956Y-113950543D01*
X155070921Y-113971613D01*
X155078773Y-113993557D01*
X155084437Y-114016166D01*
X155087856Y-114039221D01*
X155089000Y-114062500D01*
X155089000Y-114537500D01*
X155087856Y-114560779D01*
X155084437Y-114583834D01*
X155078773Y-114606443D01*
X155070921Y-114628387D01*
X155060956Y-114649457D01*
X155048974Y-114669448D01*
X155035090Y-114688168D01*
X155019438Y-114705438D01*
X155002168Y-114721090D01*
X154983448Y-114734974D01*
X154963457Y-114746956D01*
X154942387Y-114756921D01*
X154920443Y-114764773D01*
X154897834Y-114770437D01*
X154874779Y-114773856D01*
X154851500Y-114775000D01*
X154276500Y-114775000D01*
X154253221Y-114773856D01*
X154230166Y-114770437D01*
X154207557Y-114764773D01*
X154185613Y-114756921D01*
X154164543Y-114746956D01*
X154144552Y-114734974D01*
X154125832Y-114721090D01*
X154108562Y-114705438D01*
X154092910Y-114688168D01*
X154079026Y-114669448D01*
X154067044Y-114649457D01*
X154057079Y-114628387D01*
X154049227Y-114606443D01*
X154043563Y-114583834D01*
X154040144Y-114560779D01*
X154039000Y-114537500D01*
X154039000Y-114062500D01*
X154040144Y-114039221D01*
X154043563Y-114016166D01*
X154049227Y-113993557D01*
X154057079Y-113971613D01*
X154067044Y-113950543D01*
X154079026Y-113930552D01*
X154092910Y-113911832D01*
X154108562Y-113894562D01*
X154125832Y-113878910D01*
X154144552Y-113865026D01*
X154164543Y-113853044D01*
X154185613Y-113843079D01*
X154207557Y-113835227D01*
X154230166Y-113829563D01*
X154253221Y-113826144D01*
X154276500Y-113825000D01*
X154851500Y-113825000D01*
X154874779Y-113826144D01*
X154874779Y-113826144D01*
G37*
D41*
X154564000Y-114300000D03*
D26*
G36*
X156624779Y-113826144D02*
X156647834Y-113829563D01*
X156670443Y-113835227D01*
X156692387Y-113843079D01*
X156713457Y-113853044D01*
X156733448Y-113865026D01*
X156752168Y-113878910D01*
X156769438Y-113894562D01*
X156785090Y-113911832D01*
X156798974Y-113930552D01*
X156810956Y-113950543D01*
X156820921Y-113971613D01*
X156828773Y-113993557D01*
X156834437Y-114016166D01*
X156837856Y-114039221D01*
X156839000Y-114062500D01*
X156839000Y-114537500D01*
X156837856Y-114560779D01*
X156834437Y-114583834D01*
X156828773Y-114606443D01*
X156820921Y-114628387D01*
X156810956Y-114649457D01*
X156798974Y-114669448D01*
X156785090Y-114688168D01*
X156769438Y-114705438D01*
X156752168Y-114721090D01*
X156733448Y-114734974D01*
X156713457Y-114746956D01*
X156692387Y-114756921D01*
X156670443Y-114764773D01*
X156647834Y-114770437D01*
X156624779Y-114773856D01*
X156601500Y-114775000D01*
X156026500Y-114775000D01*
X156003221Y-114773856D01*
X155980166Y-114770437D01*
X155957557Y-114764773D01*
X155935613Y-114756921D01*
X155914543Y-114746956D01*
X155894552Y-114734974D01*
X155875832Y-114721090D01*
X155858562Y-114705438D01*
X155842910Y-114688168D01*
X155829026Y-114669448D01*
X155817044Y-114649457D01*
X155807079Y-114628387D01*
X155799227Y-114606443D01*
X155793563Y-114583834D01*
X155790144Y-114560779D01*
X155789000Y-114537500D01*
X155789000Y-114062500D01*
X155790144Y-114039221D01*
X155793563Y-114016166D01*
X155799227Y-113993557D01*
X155807079Y-113971613D01*
X155817044Y-113950543D01*
X155829026Y-113930552D01*
X155842910Y-113911832D01*
X155858562Y-113894562D01*
X155875832Y-113878910D01*
X155894552Y-113865026D01*
X155914543Y-113853044D01*
X155935613Y-113843079D01*
X155957557Y-113835227D01*
X155980166Y-113829563D01*
X156003221Y-113826144D01*
X156026500Y-113825000D01*
X156601500Y-113825000D01*
X156624779Y-113826144D01*
X156624779Y-113826144D01*
G37*
D41*
X156314000Y-114300000D03*
D26*
G36*
X152751279Y-91855144D02*
X152774334Y-91858563D01*
X152796943Y-91864227D01*
X152818887Y-91872079D01*
X152839957Y-91882044D01*
X152859948Y-91894026D01*
X152878668Y-91907910D01*
X152895938Y-91923562D01*
X152911590Y-91940832D01*
X152925474Y-91959552D01*
X152937456Y-91979543D01*
X152947421Y-92000613D01*
X152955273Y-92022557D01*
X152960937Y-92045166D01*
X152964356Y-92068221D01*
X152965500Y-92091500D01*
X152965500Y-92566500D01*
X152964356Y-92589779D01*
X152960937Y-92612834D01*
X152955273Y-92635443D01*
X152947421Y-92657387D01*
X152937456Y-92678457D01*
X152925474Y-92698448D01*
X152911590Y-92717168D01*
X152895938Y-92734438D01*
X152878668Y-92750090D01*
X152859948Y-92763974D01*
X152839957Y-92775956D01*
X152818887Y-92785921D01*
X152796943Y-92793773D01*
X152774334Y-92799437D01*
X152751279Y-92802856D01*
X152728000Y-92804000D01*
X152153000Y-92804000D01*
X152129721Y-92802856D01*
X152106666Y-92799437D01*
X152084057Y-92793773D01*
X152062113Y-92785921D01*
X152041043Y-92775956D01*
X152021052Y-92763974D01*
X152002332Y-92750090D01*
X151985062Y-92734438D01*
X151969410Y-92717168D01*
X151955526Y-92698448D01*
X151943544Y-92678457D01*
X151933579Y-92657387D01*
X151925727Y-92635443D01*
X151920063Y-92612834D01*
X151916644Y-92589779D01*
X151915500Y-92566500D01*
X151915500Y-92091500D01*
X151916644Y-92068221D01*
X151920063Y-92045166D01*
X151925727Y-92022557D01*
X151933579Y-92000613D01*
X151943544Y-91979543D01*
X151955526Y-91959552D01*
X151969410Y-91940832D01*
X151985062Y-91923562D01*
X152002332Y-91907910D01*
X152021052Y-91894026D01*
X152041043Y-91882044D01*
X152062113Y-91872079D01*
X152084057Y-91864227D01*
X152106666Y-91858563D01*
X152129721Y-91855144D01*
X152153000Y-91854000D01*
X152728000Y-91854000D01*
X152751279Y-91855144D01*
X152751279Y-91855144D01*
G37*
D41*
X152440500Y-92329000D03*
D26*
G36*
X151001279Y-91855144D02*
X151024334Y-91858563D01*
X151046943Y-91864227D01*
X151068887Y-91872079D01*
X151089957Y-91882044D01*
X151109948Y-91894026D01*
X151128668Y-91907910D01*
X151145938Y-91923562D01*
X151161590Y-91940832D01*
X151175474Y-91959552D01*
X151187456Y-91979543D01*
X151197421Y-92000613D01*
X151205273Y-92022557D01*
X151210937Y-92045166D01*
X151214356Y-92068221D01*
X151215500Y-92091500D01*
X151215500Y-92566500D01*
X151214356Y-92589779D01*
X151210937Y-92612834D01*
X151205273Y-92635443D01*
X151197421Y-92657387D01*
X151187456Y-92678457D01*
X151175474Y-92698448D01*
X151161590Y-92717168D01*
X151145938Y-92734438D01*
X151128668Y-92750090D01*
X151109948Y-92763974D01*
X151089957Y-92775956D01*
X151068887Y-92785921D01*
X151046943Y-92793773D01*
X151024334Y-92799437D01*
X151001279Y-92802856D01*
X150978000Y-92804000D01*
X150403000Y-92804000D01*
X150379721Y-92802856D01*
X150356666Y-92799437D01*
X150334057Y-92793773D01*
X150312113Y-92785921D01*
X150291043Y-92775956D01*
X150271052Y-92763974D01*
X150252332Y-92750090D01*
X150235062Y-92734438D01*
X150219410Y-92717168D01*
X150205526Y-92698448D01*
X150193544Y-92678457D01*
X150183579Y-92657387D01*
X150175727Y-92635443D01*
X150170063Y-92612834D01*
X150166644Y-92589779D01*
X150165500Y-92566500D01*
X150165500Y-92091500D01*
X150166644Y-92068221D01*
X150170063Y-92045166D01*
X150175727Y-92022557D01*
X150183579Y-92000613D01*
X150193544Y-91979543D01*
X150205526Y-91959552D01*
X150219410Y-91940832D01*
X150235062Y-91923562D01*
X150252332Y-91907910D01*
X150271052Y-91894026D01*
X150291043Y-91882044D01*
X150312113Y-91872079D01*
X150334057Y-91864227D01*
X150356666Y-91858563D01*
X150379721Y-91855144D01*
X150403000Y-91854000D01*
X150978000Y-91854000D01*
X151001279Y-91855144D01*
X151001279Y-91855144D01*
G37*
D41*
X150690500Y-92329000D03*
D26*
G36*
X151001279Y-93760144D02*
X151024334Y-93763563D01*
X151046943Y-93769227D01*
X151068887Y-93777079D01*
X151089957Y-93787044D01*
X151109948Y-93799026D01*
X151128668Y-93812910D01*
X151145938Y-93828562D01*
X151161590Y-93845832D01*
X151175474Y-93864552D01*
X151187456Y-93884543D01*
X151197421Y-93905613D01*
X151205273Y-93927557D01*
X151210937Y-93950166D01*
X151214356Y-93973221D01*
X151215500Y-93996500D01*
X151215500Y-94471500D01*
X151214356Y-94494779D01*
X151210937Y-94517834D01*
X151205273Y-94540443D01*
X151197421Y-94562387D01*
X151187456Y-94583457D01*
X151175474Y-94603448D01*
X151161590Y-94622168D01*
X151145938Y-94639438D01*
X151128668Y-94655090D01*
X151109948Y-94668974D01*
X151089957Y-94680956D01*
X151068887Y-94690921D01*
X151046943Y-94698773D01*
X151024334Y-94704437D01*
X151001279Y-94707856D01*
X150978000Y-94709000D01*
X150403000Y-94709000D01*
X150379721Y-94707856D01*
X150356666Y-94704437D01*
X150334057Y-94698773D01*
X150312113Y-94690921D01*
X150291043Y-94680956D01*
X150271052Y-94668974D01*
X150252332Y-94655090D01*
X150235062Y-94639438D01*
X150219410Y-94622168D01*
X150205526Y-94603448D01*
X150193544Y-94583457D01*
X150183579Y-94562387D01*
X150175727Y-94540443D01*
X150170063Y-94517834D01*
X150166644Y-94494779D01*
X150165500Y-94471500D01*
X150165500Y-93996500D01*
X150166644Y-93973221D01*
X150170063Y-93950166D01*
X150175727Y-93927557D01*
X150183579Y-93905613D01*
X150193544Y-93884543D01*
X150205526Y-93864552D01*
X150219410Y-93845832D01*
X150235062Y-93828562D01*
X150252332Y-93812910D01*
X150271052Y-93799026D01*
X150291043Y-93787044D01*
X150312113Y-93777079D01*
X150334057Y-93769227D01*
X150356666Y-93763563D01*
X150379721Y-93760144D01*
X150403000Y-93759000D01*
X150978000Y-93759000D01*
X151001279Y-93760144D01*
X151001279Y-93760144D01*
G37*
D41*
X150690500Y-94234000D03*
D26*
G36*
X152751279Y-93760144D02*
X152774334Y-93763563D01*
X152796943Y-93769227D01*
X152818887Y-93777079D01*
X152839957Y-93787044D01*
X152859948Y-93799026D01*
X152878668Y-93812910D01*
X152895938Y-93828562D01*
X152911590Y-93845832D01*
X152925474Y-93864552D01*
X152937456Y-93884543D01*
X152947421Y-93905613D01*
X152955273Y-93927557D01*
X152960937Y-93950166D01*
X152964356Y-93973221D01*
X152965500Y-93996500D01*
X152965500Y-94471500D01*
X152964356Y-94494779D01*
X152960937Y-94517834D01*
X152955273Y-94540443D01*
X152947421Y-94562387D01*
X152937456Y-94583457D01*
X152925474Y-94603448D01*
X152911590Y-94622168D01*
X152895938Y-94639438D01*
X152878668Y-94655090D01*
X152859948Y-94668974D01*
X152839957Y-94680956D01*
X152818887Y-94690921D01*
X152796943Y-94698773D01*
X152774334Y-94704437D01*
X152751279Y-94707856D01*
X152728000Y-94709000D01*
X152153000Y-94709000D01*
X152129721Y-94707856D01*
X152106666Y-94704437D01*
X152084057Y-94698773D01*
X152062113Y-94690921D01*
X152041043Y-94680956D01*
X152021052Y-94668974D01*
X152002332Y-94655090D01*
X151985062Y-94639438D01*
X151969410Y-94622168D01*
X151955526Y-94603448D01*
X151943544Y-94583457D01*
X151933579Y-94562387D01*
X151925727Y-94540443D01*
X151920063Y-94517834D01*
X151916644Y-94494779D01*
X151915500Y-94471500D01*
X151915500Y-93996500D01*
X151916644Y-93973221D01*
X151920063Y-93950166D01*
X151925727Y-93927557D01*
X151933579Y-93905613D01*
X151943544Y-93884543D01*
X151955526Y-93864552D01*
X151969410Y-93845832D01*
X151985062Y-93828562D01*
X152002332Y-93812910D01*
X152021052Y-93799026D01*
X152041043Y-93787044D01*
X152062113Y-93777079D01*
X152084057Y-93769227D01*
X152106666Y-93763563D01*
X152129721Y-93760144D01*
X152153000Y-93759000D01*
X152728000Y-93759000D01*
X152751279Y-93760144D01*
X152751279Y-93760144D01*
G37*
D41*
X152440500Y-94234000D03*
D26*
G36*
X152751279Y-95665144D02*
X152774334Y-95668563D01*
X152796943Y-95674227D01*
X152818887Y-95682079D01*
X152839957Y-95692044D01*
X152859948Y-95704026D01*
X152878668Y-95717910D01*
X152895938Y-95733562D01*
X152911590Y-95750832D01*
X152925474Y-95769552D01*
X152937456Y-95789543D01*
X152947421Y-95810613D01*
X152955273Y-95832557D01*
X152960937Y-95855166D01*
X152964356Y-95878221D01*
X152965500Y-95901500D01*
X152965500Y-96376500D01*
X152964356Y-96399779D01*
X152960937Y-96422834D01*
X152955273Y-96445443D01*
X152947421Y-96467387D01*
X152937456Y-96488457D01*
X152925474Y-96508448D01*
X152911590Y-96527168D01*
X152895938Y-96544438D01*
X152878668Y-96560090D01*
X152859948Y-96573974D01*
X152839957Y-96585956D01*
X152818887Y-96595921D01*
X152796943Y-96603773D01*
X152774334Y-96609437D01*
X152751279Y-96612856D01*
X152728000Y-96614000D01*
X152153000Y-96614000D01*
X152129721Y-96612856D01*
X152106666Y-96609437D01*
X152084057Y-96603773D01*
X152062113Y-96595921D01*
X152041043Y-96585956D01*
X152021052Y-96573974D01*
X152002332Y-96560090D01*
X151985062Y-96544438D01*
X151969410Y-96527168D01*
X151955526Y-96508448D01*
X151943544Y-96488457D01*
X151933579Y-96467387D01*
X151925727Y-96445443D01*
X151920063Y-96422834D01*
X151916644Y-96399779D01*
X151915500Y-96376500D01*
X151915500Y-95901500D01*
X151916644Y-95878221D01*
X151920063Y-95855166D01*
X151925727Y-95832557D01*
X151933579Y-95810613D01*
X151943544Y-95789543D01*
X151955526Y-95769552D01*
X151969410Y-95750832D01*
X151985062Y-95733562D01*
X152002332Y-95717910D01*
X152021052Y-95704026D01*
X152041043Y-95692044D01*
X152062113Y-95682079D01*
X152084057Y-95674227D01*
X152106666Y-95668563D01*
X152129721Y-95665144D01*
X152153000Y-95664000D01*
X152728000Y-95664000D01*
X152751279Y-95665144D01*
X152751279Y-95665144D01*
G37*
D41*
X152440500Y-96139000D03*
D26*
G36*
X151001279Y-95665144D02*
X151024334Y-95668563D01*
X151046943Y-95674227D01*
X151068887Y-95682079D01*
X151089957Y-95692044D01*
X151109948Y-95704026D01*
X151128668Y-95717910D01*
X151145938Y-95733562D01*
X151161590Y-95750832D01*
X151175474Y-95769552D01*
X151187456Y-95789543D01*
X151197421Y-95810613D01*
X151205273Y-95832557D01*
X151210937Y-95855166D01*
X151214356Y-95878221D01*
X151215500Y-95901500D01*
X151215500Y-96376500D01*
X151214356Y-96399779D01*
X151210937Y-96422834D01*
X151205273Y-96445443D01*
X151197421Y-96467387D01*
X151187456Y-96488457D01*
X151175474Y-96508448D01*
X151161590Y-96527168D01*
X151145938Y-96544438D01*
X151128668Y-96560090D01*
X151109948Y-96573974D01*
X151089957Y-96585956D01*
X151068887Y-96595921D01*
X151046943Y-96603773D01*
X151024334Y-96609437D01*
X151001279Y-96612856D01*
X150978000Y-96614000D01*
X150403000Y-96614000D01*
X150379721Y-96612856D01*
X150356666Y-96609437D01*
X150334057Y-96603773D01*
X150312113Y-96595921D01*
X150291043Y-96585956D01*
X150271052Y-96573974D01*
X150252332Y-96560090D01*
X150235062Y-96544438D01*
X150219410Y-96527168D01*
X150205526Y-96508448D01*
X150193544Y-96488457D01*
X150183579Y-96467387D01*
X150175727Y-96445443D01*
X150170063Y-96422834D01*
X150166644Y-96399779D01*
X150165500Y-96376500D01*
X150165500Y-95901500D01*
X150166644Y-95878221D01*
X150170063Y-95855166D01*
X150175727Y-95832557D01*
X150183579Y-95810613D01*
X150193544Y-95789543D01*
X150205526Y-95769552D01*
X150219410Y-95750832D01*
X150235062Y-95733562D01*
X150252332Y-95717910D01*
X150271052Y-95704026D01*
X150291043Y-95692044D01*
X150312113Y-95682079D01*
X150334057Y-95674227D01*
X150356666Y-95668563D01*
X150379721Y-95665144D01*
X150403000Y-95664000D01*
X150978000Y-95664000D01*
X151001279Y-95665144D01*
X151001279Y-95665144D01*
G37*
D41*
X150690500Y-96139000D03*
D26*
G36*
X151001279Y-97570144D02*
X151024334Y-97573563D01*
X151046943Y-97579227D01*
X151068887Y-97587079D01*
X151089957Y-97597044D01*
X151109948Y-97609026D01*
X151128668Y-97622910D01*
X151145938Y-97638562D01*
X151161590Y-97655832D01*
X151175474Y-97674552D01*
X151187456Y-97694543D01*
X151197421Y-97715613D01*
X151205273Y-97737557D01*
X151210937Y-97760166D01*
X151214356Y-97783221D01*
X151215500Y-97806500D01*
X151215500Y-98281500D01*
X151214356Y-98304779D01*
X151210937Y-98327834D01*
X151205273Y-98350443D01*
X151197421Y-98372387D01*
X151187456Y-98393457D01*
X151175474Y-98413448D01*
X151161590Y-98432168D01*
X151145938Y-98449438D01*
X151128668Y-98465090D01*
X151109948Y-98478974D01*
X151089957Y-98490956D01*
X151068887Y-98500921D01*
X151046943Y-98508773D01*
X151024334Y-98514437D01*
X151001279Y-98517856D01*
X150978000Y-98519000D01*
X150403000Y-98519000D01*
X150379721Y-98517856D01*
X150356666Y-98514437D01*
X150334057Y-98508773D01*
X150312113Y-98500921D01*
X150291043Y-98490956D01*
X150271052Y-98478974D01*
X150252332Y-98465090D01*
X150235062Y-98449438D01*
X150219410Y-98432168D01*
X150205526Y-98413448D01*
X150193544Y-98393457D01*
X150183579Y-98372387D01*
X150175727Y-98350443D01*
X150170063Y-98327834D01*
X150166644Y-98304779D01*
X150165500Y-98281500D01*
X150165500Y-97806500D01*
X150166644Y-97783221D01*
X150170063Y-97760166D01*
X150175727Y-97737557D01*
X150183579Y-97715613D01*
X150193544Y-97694543D01*
X150205526Y-97674552D01*
X150219410Y-97655832D01*
X150235062Y-97638562D01*
X150252332Y-97622910D01*
X150271052Y-97609026D01*
X150291043Y-97597044D01*
X150312113Y-97587079D01*
X150334057Y-97579227D01*
X150356666Y-97573563D01*
X150379721Y-97570144D01*
X150403000Y-97569000D01*
X150978000Y-97569000D01*
X151001279Y-97570144D01*
X151001279Y-97570144D01*
G37*
D41*
X150690500Y-98044000D03*
D26*
G36*
X152751279Y-97570144D02*
X152774334Y-97573563D01*
X152796943Y-97579227D01*
X152818887Y-97587079D01*
X152839957Y-97597044D01*
X152859948Y-97609026D01*
X152878668Y-97622910D01*
X152895938Y-97638562D01*
X152911590Y-97655832D01*
X152925474Y-97674552D01*
X152937456Y-97694543D01*
X152947421Y-97715613D01*
X152955273Y-97737557D01*
X152960937Y-97760166D01*
X152964356Y-97783221D01*
X152965500Y-97806500D01*
X152965500Y-98281500D01*
X152964356Y-98304779D01*
X152960937Y-98327834D01*
X152955273Y-98350443D01*
X152947421Y-98372387D01*
X152937456Y-98393457D01*
X152925474Y-98413448D01*
X152911590Y-98432168D01*
X152895938Y-98449438D01*
X152878668Y-98465090D01*
X152859948Y-98478974D01*
X152839957Y-98490956D01*
X152818887Y-98500921D01*
X152796943Y-98508773D01*
X152774334Y-98514437D01*
X152751279Y-98517856D01*
X152728000Y-98519000D01*
X152153000Y-98519000D01*
X152129721Y-98517856D01*
X152106666Y-98514437D01*
X152084057Y-98508773D01*
X152062113Y-98500921D01*
X152041043Y-98490956D01*
X152021052Y-98478974D01*
X152002332Y-98465090D01*
X151985062Y-98449438D01*
X151969410Y-98432168D01*
X151955526Y-98413448D01*
X151943544Y-98393457D01*
X151933579Y-98372387D01*
X151925727Y-98350443D01*
X151920063Y-98327834D01*
X151916644Y-98304779D01*
X151915500Y-98281500D01*
X151915500Y-97806500D01*
X151916644Y-97783221D01*
X151920063Y-97760166D01*
X151925727Y-97737557D01*
X151933579Y-97715613D01*
X151943544Y-97694543D01*
X151955526Y-97674552D01*
X151969410Y-97655832D01*
X151985062Y-97638562D01*
X152002332Y-97622910D01*
X152021052Y-97609026D01*
X152041043Y-97597044D01*
X152062113Y-97587079D01*
X152084057Y-97579227D01*
X152106666Y-97573563D01*
X152129721Y-97570144D01*
X152153000Y-97569000D01*
X152728000Y-97569000D01*
X152751279Y-97570144D01*
X152751279Y-97570144D01*
G37*
D41*
X152440500Y-98044000D03*
D26*
G36*
X152751279Y-99475144D02*
X152774334Y-99478563D01*
X152796943Y-99484227D01*
X152818887Y-99492079D01*
X152839957Y-99502044D01*
X152859948Y-99514026D01*
X152878668Y-99527910D01*
X152895938Y-99543562D01*
X152911590Y-99560832D01*
X152925474Y-99579552D01*
X152937456Y-99599543D01*
X152947421Y-99620613D01*
X152955273Y-99642557D01*
X152960937Y-99665166D01*
X152964356Y-99688221D01*
X152965500Y-99711500D01*
X152965500Y-100186500D01*
X152964356Y-100209779D01*
X152960937Y-100232834D01*
X152955273Y-100255443D01*
X152947421Y-100277387D01*
X152937456Y-100298457D01*
X152925474Y-100318448D01*
X152911590Y-100337168D01*
X152895938Y-100354438D01*
X152878668Y-100370090D01*
X152859948Y-100383974D01*
X152839957Y-100395956D01*
X152818887Y-100405921D01*
X152796943Y-100413773D01*
X152774334Y-100419437D01*
X152751279Y-100422856D01*
X152728000Y-100424000D01*
X152153000Y-100424000D01*
X152129721Y-100422856D01*
X152106666Y-100419437D01*
X152084057Y-100413773D01*
X152062113Y-100405921D01*
X152041043Y-100395956D01*
X152021052Y-100383974D01*
X152002332Y-100370090D01*
X151985062Y-100354438D01*
X151969410Y-100337168D01*
X151955526Y-100318448D01*
X151943544Y-100298457D01*
X151933579Y-100277387D01*
X151925727Y-100255443D01*
X151920063Y-100232834D01*
X151916644Y-100209779D01*
X151915500Y-100186500D01*
X151915500Y-99711500D01*
X151916644Y-99688221D01*
X151920063Y-99665166D01*
X151925727Y-99642557D01*
X151933579Y-99620613D01*
X151943544Y-99599543D01*
X151955526Y-99579552D01*
X151969410Y-99560832D01*
X151985062Y-99543562D01*
X152002332Y-99527910D01*
X152021052Y-99514026D01*
X152041043Y-99502044D01*
X152062113Y-99492079D01*
X152084057Y-99484227D01*
X152106666Y-99478563D01*
X152129721Y-99475144D01*
X152153000Y-99474000D01*
X152728000Y-99474000D01*
X152751279Y-99475144D01*
X152751279Y-99475144D01*
G37*
D41*
X152440500Y-99949000D03*
D26*
G36*
X151001279Y-99475144D02*
X151024334Y-99478563D01*
X151046943Y-99484227D01*
X151068887Y-99492079D01*
X151089957Y-99502044D01*
X151109948Y-99514026D01*
X151128668Y-99527910D01*
X151145938Y-99543562D01*
X151161590Y-99560832D01*
X151175474Y-99579552D01*
X151187456Y-99599543D01*
X151197421Y-99620613D01*
X151205273Y-99642557D01*
X151210937Y-99665166D01*
X151214356Y-99688221D01*
X151215500Y-99711500D01*
X151215500Y-100186500D01*
X151214356Y-100209779D01*
X151210937Y-100232834D01*
X151205273Y-100255443D01*
X151197421Y-100277387D01*
X151187456Y-100298457D01*
X151175474Y-100318448D01*
X151161590Y-100337168D01*
X151145938Y-100354438D01*
X151128668Y-100370090D01*
X151109948Y-100383974D01*
X151089957Y-100395956D01*
X151068887Y-100405921D01*
X151046943Y-100413773D01*
X151024334Y-100419437D01*
X151001279Y-100422856D01*
X150978000Y-100424000D01*
X150403000Y-100424000D01*
X150379721Y-100422856D01*
X150356666Y-100419437D01*
X150334057Y-100413773D01*
X150312113Y-100405921D01*
X150291043Y-100395956D01*
X150271052Y-100383974D01*
X150252332Y-100370090D01*
X150235062Y-100354438D01*
X150219410Y-100337168D01*
X150205526Y-100318448D01*
X150193544Y-100298457D01*
X150183579Y-100277387D01*
X150175727Y-100255443D01*
X150170063Y-100232834D01*
X150166644Y-100209779D01*
X150165500Y-100186500D01*
X150165500Y-99711500D01*
X150166644Y-99688221D01*
X150170063Y-99665166D01*
X150175727Y-99642557D01*
X150183579Y-99620613D01*
X150193544Y-99599543D01*
X150205526Y-99579552D01*
X150219410Y-99560832D01*
X150235062Y-99543562D01*
X150252332Y-99527910D01*
X150271052Y-99514026D01*
X150291043Y-99502044D01*
X150312113Y-99492079D01*
X150334057Y-99484227D01*
X150356666Y-99478563D01*
X150379721Y-99475144D01*
X150403000Y-99474000D01*
X150978000Y-99474000D01*
X151001279Y-99475144D01*
X151001279Y-99475144D01*
G37*
D41*
X150690500Y-99949000D03*
D26*
G36*
X151001279Y-101380144D02*
X151024334Y-101383563D01*
X151046943Y-101389227D01*
X151068887Y-101397079D01*
X151089957Y-101407044D01*
X151109948Y-101419026D01*
X151128668Y-101432910D01*
X151145938Y-101448562D01*
X151161590Y-101465832D01*
X151175474Y-101484552D01*
X151187456Y-101504543D01*
X151197421Y-101525613D01*
X151205273Y-101547557D01*
X151210937Y-101570166D01*
X151214356Y-101593221D01*
X151215500Y-101616500D01*
X151215500Y-102091500D01*
X151214356Y-102114779D01*
X151210937Y-102137834D01*
X151205273Y-102160443D01*
X151197421Y-102182387D01*
X151187456Y-102203457D01*
X151175474Y-102223448D01*
X151161590Y-102242168D01*
X151145938Y-102259438D01*
X151128668Y-102275090D01*
X151109948Y-102288974D01*
X151089957Y-102300956D01*
X151068887Y-102310921D01*
X151046943Y-102318773D01*
X151024334Y-102324437D01*
X151001279Y-102327856D01*
X150978000Y-102329000D01*
X150403000Y-102329000D01*
X150379721Y-102327856D01*
X150356666Y-102324437D01*
X150334057Y-102318773D01*
X150312113Y-102310921D01*
X150291043Y-102300956D01*
X150271052Y-102288974D01*
X150252332Y-102275090D01*
X150235062Y-102259438D01*
X150219410Y-102242168D01*
X150205526Y-102223448D01*
X150193544Y-102203457D01*
X150183579Y-102182387D01*
X150175727Y-102160443D01*
X150170063Y-102137834D01*
X150166644Y-102114779D01*
X150165500Y-102091500D01*
X150165500Y-101616500D01*
X150166644Y-101593221D01*
X150170063Y-101570166D01*
X150175727Y-101547557D01*
X150183579Y-101525613D01*
X150193544Y-101504543D01*
X150205526Y-101484552D01*
X150219410Y-101465832D01*
X150235062Y-101448562D01*
X150252332Y-101432910D01*
X150271052Y-101419026D01*
X150291043Y-101407044D01*
X150312113Y-101397079D01*
X150334057Y-101389227D01*
X150356666Y-101383563D01*
X150379721Y-101380144D01*
X150403000Y-101379000D01*
X150978000Y-101379000D01*
X151001279Y-101380144D01*
X151001279Y-101380144D01*
G37*
D41*
X150690500Y-101854000D03*
D26*
G36*
X152751279Y-101380144D02*
X152774334Y-101383563D01*
X152796943Y-101389227D01*
X152818887Y-101397079D01*
X152839957Y-101407044D01*
X152859948Y-101419026D01*
X152878668Y-101432910D01*
X152895938Y-101448562D01*
X152911590Y-101465832D01*
X152925474Y-101484552D01*
X152937456Y-101504543D01*
X152947421Y-101525613D01*
X152955273Y-101547557D01*
X152960937Y-101570166D01*
X152964356Y-101593221D01*
X152965500Y-101616500D01*
X152965500Y-102091500D01*
X152964356Y-102114779D01*
X152960937Y-102137834D01*
X152955273Y-102160443D01*
X152947421Y-102182387D01*
X152937456Y-102203457D01*
X152925474Y-102223448D01*
X152911590Y-102242168D01*
X152895938Y-102259438D01*
X152878668Y-102275090D01*
X152859948Y-102288974D01*
X152839957Y-102300956D01*
X152818887Y-102310921D01*
X152796943Y-102318773D01*
X152774334Y-102324437D01*
X152751279Y-102327856D01*
X152728000Y-102329000D01*
X152153000Y-102329000D01*
X152129721Y-102327856D01*
X152106666Y-102324437D01*
X152084057Y-102318773D01*
X152062113Y-102310921D01*
X152041043Y-102300956D01*
X152021052Y-102288974D01*
X152002332Y-102275090D01*
X151985062Y-102259438D01*
X151969410Y-102242168D01*
X151955526Y-102223448D01*
X151943544Y-102203457D01*
X151933579Y-102182387D01*
X151925727Y-102160443D01*
X151920063Y-102137834D01*
X151916644Y-102114779D01*
X151915500Y-102091500D01*
X151915500Y-101616500D01*
X151916644Y-101593221D01*
X151920063Y-101570166D01*
X151925727Y-101547557D01*
X151933579Y-101525613D01*
X151943544Y-101504543D01*
X151955526Y-101484552D01*
X151969410Y-101465832D01*
X151985062Y-101448562D01*
X152002332Y-101432910D01*
X152021052Y-101419026D01*
X152041043Y-101407044D01*
X152062113Y-101397079D01*
X152084057Y-101389227D01*
X152106666Y-101383563D01*
X152129721Y-101380144D01*
X152153000Y-101379000D01*
X152728000Y-101379000D01*
X152751279Y-101380144D01*
X152751279Y-101380144D01*
G37*
D41*
X152440500Y-101854000D03*
D42*
X115062000Y-83820000D03*
X156591003Y-81025997D03*
X192659012Y-80010000D03*
X175006000Y-100203000D03*
X174117000Y-80010000D03*
X160020000Y-109220000D03*
X161290000Y-60325000D03*
X103504984Y-95250000D03*
X120015000Y-95885002D03*
X186055000Y-103505000D03*
X160575969Y-88104241D03*
X156083000Y-88025210D03*
X189230000Y-103505000D03*
X180975000Y-58278790D03*
X175006000Y-62865000D03*
X185913800Y-63500000D03*
X186944000Y-88900000D03*
X183515000Y-68453000D03*
X186817000Y-82550000D03*
X182245000Y-69342000D03*
X186817000Y-86360000D03*
X161820643Y-108054357D03*
X163195000Y-106680000D03*
X177165000Y-102235000D03*
X186055000Y-100965000D03*
X189230000Y-100965000D03*
X175006000Y-102235000D03*
X192277972Y-92710000D03*
X192278006Y-97917000D03*
X187325000Y-93980000D03*
X186055000Y-102235000D03*
X143256002Y-92329000D03*
X155067000Y-92329002D03*
X142747992Y-94234000D03*
X155067000Y-94233994D03*
X142240000Y-96139000D03*
X155067000Y-96138998D03*
X142240000Y-98044000D03*
X155067000Y-98044010D03*
X142748000Y-99949000D03*
X155067000Y-99949010D03*
X143256002Y-101854000D03*
X155067000Y-101854016D03*
X193294000Y-105410000D03*
X193294000Y-95250000D03*
D43*
X97795000Y-86365000D02*
X97155000Y-85725000D01*
X102690000Y-86365000D02*
X97795000Y-86365000D01*
X157742979Y-117809195D02*
X156472979Y-117809195D01*
X202565000Y-90170000D02*
X202819000Y-90424000D01*
X115062000Y-83927000D02*
X115062000Y-83820000D01*
X116840000Y-86405000D02*
X116840000Y-85705000D01*
X116840000Y-85705000D02*
X115062000Y-83927000D01*
X156472979Y-114308979D02*
X156464000Y-114300000D01*
X156472979Y-117809195D02*
X156472979Y-114308979D01*
X156464000Y-111760000D02*
X156464000Y-114300000D01*
X194310000Y-109347000D02*
X202819000Y-109347000D01*
X164404000Y-91440000D02*
X161798000Y-91440000D01*
X161798000Y-91440000D02*
X156591003Y-86233003D01*
X156591003Y-86233003D02*
X156591003Y-81025997D01*
X156591006Y-81026000D02*
X156591003Y-81025997D01*
X160782000Y-81026000D02*
X156591006Y-81026000D01*
X171704000Y-80010000D02*
X161798000Y-80010000D01*
X161798000Y-80010000D02*
X160782000Y-81026000D01*
X171704000Y-80010000D02*
X174117000Y-80010000D01*
X174117000Y-80010000D02*
X189704000Y-80010000D01*
X185894000Y-80010000D02*
X192659012Y-80010000D01*
X156464000Y-111760000D02*
X156464000Y-109220000D01*
X175006000Y-99568000D02*
X174989000Y-98010000D01*
X175006000Y-100203000D02*
X175006000Y-99568000D01*
X160020000Y-109220000D02*
X158115000Y-109220010D01*
X156464000Y-109220000D02*
X160020000Y-109220000D01*
X161290000Y-60325000D02*
X163420000Y-60325000D01*
X163420000Y-59055000D02*
X163420000Y-60325000D01*
X163420000Y-60325000D02*
X163420000Y-61595000D01*
X164465000Y-67945000D02*
X163420000Y-67945000D01*
X164846000Y-67564000D02*
X164465000Y-67945000D01*
X164846000Y-61976000D02*
X164846000Y-67564000D01*
X163420000Y-61595000D02*
X164465000Y-61595000D01*
X164465000Y-61595000D02*
X164846000Y-61976000D01*
X91694000Y-85725000D02*
X97155000Y-85725000D01*
X88773000Y-82804000D02*
X91694000Y-85725000D01*
X103555000Y-95300016D02*
X103504984Y-95250000D01*
X116840000Y-97835000D02*
X115887600Y-97835000D01*
X103555000Y-97415000D02*
X103555000Y-95300016D01*
X113302600Y-95250000D02*
X103504984Y-95250000D01*
X115887600Y-97835000D02*
X113302600Y-95250000D01*
X102235000Y-95250000D02*
X103504984Y-95250000D01*
X97155000Y-97155000D02*
X100330000Y-97155000D01*
X100330000Y-97155000D02*
X102235000Y-95250000D01*
X116840000Y-88057400D02*
X120015000Y-91232400D01*
X118110002Y-97790000D02*
X120015000Y-95885002D01*
X116840000Y-97790000D02*
X118110002Y-97790000D01*
X120015000Y-91232400D02*
X120015000Y-95885002D01*
X116840000Y-86405000D02*
X116840000Y-88057400D01*
X102690000Y-88645000D02*
X108990000Y-88645000D01*
X111150000Y-90805000D02*
X108990000Y-88645000D01*
X116840000Y-90805000D02*
X111150000Y-90805000D01*
X180975000Y-67056000D02*
X180975000Y-66040000D01*
X108990000Y-83415000D02*
X108990000Y-88645000D01*
X109982000Y-82423000D02*
X108990000Y-83415000D01*
X121285000Y-83185000D02*
X120523000Y-82423000D01*
X120523000Y-82423000D02*
X109982000Y-82423000D01*
X144653000Y-84328000D02*
X144780000Y-84328000D01*
X142748000Y-82423000D02*
X144653000Y-84328000D01*
X122047000Y-82423000D02*
X142748000Y-82423000D01*
X121270620Y-83199380D02*
X122047000Y-82423000D01*
X123825000Y-95885000D02*
X121270620Y-93330620D01*
X121270620Y-93330620D02*
X121270620Y-83199380D01*
X144780000Y-86233000D02*
X144780000Y-84328000D01*
X145288000Y-86741000D02*
X144780000Y-86233000D01*
X161671000Y-106807000D02*
X161671000Y-92329000D01*
X161671000Y-92329000D02*
X156083000Y-86741000D01*
X156083000Y-86741000D02*
X145288000Y-86741000D01*
X191389000Y-122174000D02*
X191389000Y-114554000D01*
X202819000Y-125603000D02*
X194818000Y-125603000D01*
X194818000Y-125603000D02*
X191389000Y-122174000D01*
X164338000Y-109474000D02*
X161671000Y-106807000D01*
X184796589Y-111644589D02*
X182626000Y-109474000D01*
X155720000Y-58002600D02*
X155720000Y-59055000D01*
X155720000Y-58002600D02*
X156132600Y-57590000D01*
X172720000Y-58602600D02*
X172720000Y-59055000D01*
X171707400Y-57590000D02*
X172720000Y-58602600D01*
X156132600Y-57590000D02*
X171707400Y-57590000D01*
X155307400Y-57590000D02*
X131080000Y-57590000D01*
X155720000Y-58002600D02*
X155307400Y-57590000D01*
X130720000Y-59055000D02*
X130720000Y-58002600D01*
X131080000Y-57642600D02*
X131080000Y-57590000D01*
X130720000Y-58002600D02*
X131080000Y-57642600D01*
X100720000Y-59590000D02*
X100720000Y-59955000D01*
X180086000Y-67437000D02*
X180594000Y-67437000D01*
X142733799Y-76462423D02*
X142742239Y-76453983D01*
X142733799Y-82408799D02*
X142741161Y-77214939D01*
X142733799Y-77207577D02*
X142733799Y-76462423D01*
X142742239Y-76453983D02*
X142742239Y-73430993D01*
X145830821Y-70342411D02*
X177180589Y-70342411D01*
X180594000Y-67437000D02*
X180975000Y-67056000D01*
X177180589Y-70342411D02*
X180086000Y-67437000D01*
X142742239Y-73430993D02*
X145830821Y-70342411D01*
X142741161Y-77214939D02*
X142733799Y-77207577D01*
X115680000Y-60590000D02*
X115680000Y-61090000D01*
X115680000Y-59630000D02*
X115720000Y-59590000D01*
X115680000Y-61090000D02*
X115680000Y-59630000D01*
X100720000Y-59955000D02*
X100680000Y-59995000D01*
X100680000Y-59995000D02*
X100680000Y-61590000D01*
X70680000Y-59590000D02*
X70680000Y-61590000D01*
X70720000Y-59590000D02*
X70680000Y-59590000D01*
X85680000Y-59995000D02*
X85680000Y-61590000D01*
X85720000Y-59590000D02*
X85720000Y-59955000D01*
X85720000Y-59955000D02*
X85680000Y-59995000D01*
X56180000Y-61590000D02*
X100680000Y-61590000D01*
X55680000Y-61090000D02*
X56180000Y-61590000D01*
X55720000Y-59590000D02*
X55680000Y-59630000D01*
X55680000Y-59630000D02*
X55680000Y-61090000D01*
X115680000Y-61590000D02*
X115680000Y-61090000D01*
X100680000Y-61590000D02*
X115680000Y-61590000D01*
X130680000Y-59630000D02*
X130720000Y-59590000D01*
X130680000Y-61090000D02*
X130680000Y-59630000D01*
X115680000Y-61590000D02*
X130180000Y-61590000D01*
X130180000Y-61590000D02*
X130680000Y-61090000D01*
X182626000Y-109474000D02*
X172212000Y-109474000D01*
X172212000Y-109474000D02*
X164338000Y-109474000D01*
X172230000Y-109456000D02*
X172212000Y-109474000D01*
X172212000Y-108204000D02*
X172212000Y-109474000D01*
X181356000Y-67437000D02*
X180975000Y-67056000D01*
X185039000Y-66802000D02*
X184404000Y-67437000D01*
X185039000Y-59944001D02*
X185039000Y-66802000D01*
X184404000Y-67437000D02*
X181356000Y-67437000D01*
X184149999Y-59055000D02*
X185039000Y-59944001D01*
X172847000Y-59055000D02*
X184149999Y-59055000D01*
X188479589Y-111644589D02*
X191389000Y-114554000D01*
X184796589Y-111644589D02*
X188479589Y-111644589D01*
X152908000Y-110876000D02*
X154564000Y-109220000D01*
X152908000Y-115856816D02*
X152908000Y-110876000D01*
X153932979Y-117809195D02*
X153932979Y-116881795D01*
X153932979Y-116881795D02*
X152908000Y-115856816D01*
X156342000Y-107442000D02*
X154564000Y-109220000D01*
X161036000Y-107442000D02*
X156342000Y-107442000D01*
X161671000Y-106807000D02*
X161036000Y-107442000D01*
X191516000Y-114427000D02*
X191389000Y-114554000D01*
X202819000Y-114427000D02*
X191516000Y-114427000D01*
X194310000Y-111887000D02*
X202819000Y-111887000D01*
X102870000Y-99695000D02*
X109170000Y-99695000D01*
X111710000Y-102235000D02*
X109170000Y-99695000D01*
X116840000Y-102235000D02*
X111710000Y-102235000D01*
X126365000Y-93980000D02*
X123825000Y-91440000D01*
X118364000Y-102235000D02*
X122555000Y-98044000D01*
X122555000Y-98044000D02*
X125476000Y-98044000D01*
X125476000Y-98044000D02*
X126365000Y-97155000D01*
X126365000Y-97155000D02*
X126365000Y-93980000D01*
X116840000Y-102235000D02*
X118364000Y-102235000D01*
X158623000Y-82804000D02*
X158369000Y-83058000D01*
X163449000Y-83058000D02*
X161671000Y-83058000D01*
X171704000Y-81280000D02*
X165227000Y-81280000D01*
X165227000Y-81280000D02*
X163449000Y-83058000D01*
X158369000Y-83058000D02*
X161671000Y-83058000D01*
X174821000Y-108204000D02*
X179070000Y-108204000D01*
X174498000Y-107881000D02*
X174821000Y-108204000D01*
X179070000Y-108204000D02*
X181356000Y-108204000D01*
X181356000Y-108204000D02*
X186055000Y-103505000D01*
X158369000Y-83058000D02*
X158369000Y-85852000D01*
X158369000Y-85852000D02*
X160598605Y-88081605D01*
X160598605Y-88081605D02*
X160575969Y-88104241D01*
X155375894Y-88025210D02*
X156083000Y-88025210D01*
X132969000Y-88011000D02*
X155375894Y-88025210D01*
X123825000Y-91440000D02*
X129540000Y-91440000D01*
X129540000Y-91440000D02*
X132969000Y-88011000D01*
X182880000Y-81280000D02*
X185137411Y-83537411D01*
X189230000Y-103124000D02*
X189230000Y-103505000D01*
X187734588Y-102009588D02*
X189230000Y-103505000D01*
X202819000Y-103124000D02*
X189230000Y-103124000D01*
X185137411Y-93961027D02*
X187734588Y-96558204D01*
X185137411Y-83537411D02*
X185137411Y-93961027D01*
X171704000Y-81280000D02*
X182880000Y-81280000D01*
X187734588Y-96558204D02*
X187734588Y-102009588D01*
X60979000Y-108331000D02*
X60960000Y-108350000D01*
X62992000Y-108331000D02*
X60979000Y-108331000D01*
X65024000Y-110363000D02*
X62992000Y-108331000D01*
X73689234Y-110363000D02*
X65024000Y-110363000D01*
X77470000Y-108350000D02*
X75702234Y-108350000D01*
X75702234Y-108350000D02*
X73689234Y-110363000D01*
X77489000Y-108331000D02*
X77470000Y-108350000D01*
X93872000Y-108458000D02*
X92104234Y-108458000D01*
X93980000Y-108350000D02*
X93872000Y-108458000D01*
X92104234Y-108458000D02*
X90199234Y-110363000D01*
X90199234Y-110363000D02*
X81407000Y-110363000D01*
X81407000Y-110363000D02*
X79375000Y-108331000D01*
X79375000Y-108331000D02*
X77489000Y-108331000D01*
X94088000Y-108458000D02*
X93980000Y-108350000D01*
X110382000Y-108458000D02*
X108614234Y-108458000D01*
X110490000Y-108350000D02*
X110382000Y-108458000D01*
X108614234Y-108458000D02*
X106709234Y-110363000D01*
X106709234Y-110363000D02*
X97917000Y-110363000D01*
X97917000Y-110363000D02*
X96012000Y-108458000D01*
X96012000Y-108458000D02*
X94088000Y-108458000D01*
X110598000Y-108458000D02*
X110490000Y-108350000D01*
X112395000Y-108458000D02*
X110598000Y-108458000D01*
X114300000Y-110363000D02*
X112395000Y-108458000D01*
X123063000Y-110363000D02*
X114300000Y-110363000D01*
X127254000Y-108350000D02*
X125076000Y-108350000D01*
X125076000Y-108350000D02*
X123063000Y-110363000D01*
X127273000Y-108331000D02*
X127254000Y-108350000D01*
X129286000Y-108331000D02*
X127273000Y-108331000D01*
X131318000Y-110363000D02*
X129286000Y-108331000D01*
X144025000Y-108350000D02*
X142012000Y-110363000D01*
X142012000Y-110363000D02*
X131318000Y-110363000D01*
X96773994Y-94361006D02*
X94615000Y-94361006D01*
X97790000Y-93345000D02*
X96773994Y-94361006D01*
X102690000Y-90925000D02*
X97790000Y-90925000D01*
X97790000Y-90925000D02*
X97790000Y-93345000D01*
X94615000Y-99060000D02*
X94615000Y-94361006D01*
X95250000Y-99695000D02*
X94615000Y-99060000D01*
X97155000Y-99695000D02*
X95250000Y-99695000D01*
X97790000Y-100330000D02*
X97155000Y-99695000D01*
X119380000Y-104775000D02*
X104140000Y-104775000D01*
X123825000Y-100330000D02*
X119380000Y-104775000D01*
X104140000Y-104775000D02*
X103505000Y-104140000D01*
X103505000Y-104140000D02*
X103505000Y-101975000D01*
X103505000Y-101975000D02*
X97735000Y-101975000D01*
X97790000Y-101920000D02*
X97790000Y-100330000D01*
X97735000Y-101975000D02*
X97790000Y-101920000D01*
X148147000Y-97112000D02*
X144247000Y-97112000D01*
X148082000Y-97155000D02*
X160274000Y-97155000D01*
X160655000Y-96774000D02*
X160274000Y-97155000D01*
X160655000Y-91821000D02*
X160655000Y-96774000D01*
X159004000Y-91440000D02*
X160274000Y-91440000D01*
X160274000Y-91440000D02*
X160655000Y-91821000D01*
X153270000Y-108350000D02*
X144025000Y-108350000D01*
X160655000Y-100965000D02*
X153270000Y-108350000D01*
X160274000Y-97155000D02*
X160655000Y-97536000D01*
X160655000Y-97536000D02*
X160655000Y-100965000D01*
X83820000Y-82931000D02*
X83693000Y-82804000D01*
X83820000Y-93345000D02*
X83820000Y-82931000D01*
X93598994Y-93345000D02*
X94615000Y-94361006D01*
X83820000Y-93345000D02*
X93598994Y-93345000D01*
X72910642Y-105143358D02*
X83820000Y-93345000D01*
X52844642Y-105143358D02*
X72910642Y-105143358D01*
X59036000Y-108350000D02*
X57023000Y-110363000D01*
X60960000Y-108350000D02*
X59036000Y-108350000D01*
X57023000Y-110363000D02*
X52197000Y-110363000D01*
X52197000Y-110363000D02*
X51435000Y-109601000D01*
X51435000Y-109601000D02*
X51435000Y-106553000D01*
X51435000Y-106553000D02*
X52844642Y-105143358D01*
X156476420Y-123190000D02*
X157734000Y-123190000D01*
D44*
X170180000Y-120255000D02*
X166780000Y-120255000D01*
X163845000Y-123190000D02*
X166780000Y-120255000D01*
X157099000Y-123190000D02*
X163845000Y-123190000D01*
D43*
X128180000Y-59590000D02*
X116990000Y-59590000D01*
X113180000Y-59590000D02*
X101990000Y-59590000D01*
X98180000Y-59590000D02*
X86990000Y-59590000D01*
X83180000Y-59590000D02*
X71990000Y-59590000D01*
X68180000Y-59590000D02*
X56990000Y-59590000D01*
X179705000Y-59690000D02*
X180975000Y-60960000D01*
X168656000Y-59690000D02*
X179705000Y-59690000D01*
X167132000Y-58166000D02*
X168656000Y-59690000D01*
X161290000Y-58166000D02*
X167132000Y-58166000D01*
X159512000Y-58783000D02*
X160673000Y-58783000D01*
X160673000Y-58783000D02*
X161290000Y-58166000D01*
X177565000Y-71990000D02*
X178943000Y-70612000D01*
X146543799Y-79233799D02*
X146543799Y-72277201D01*
X178943000Y-70612000D02*
X183007000Y-70612000D01*
X186690000Y-66929000D02*
X186690000Y-61096617D01*
X149860000Y-84328000D02*
X148590000Y-83058000D01*
X186690000Y-61096617D02*
X183872173Y-58278790D01*
X183872173Y-58278790D02*
X180975000Y-58278790D01*
X146543799Y-72277201D02*
X146831000Y-71990000D01*
X183007000Y-70612000D02*
X186690000Y-66929000D01*
X148590000Y-81280000D02*
X146543799Y-79233799D01*
X148590000Y-83058000D02*
X148590000Y-81280000D01*
X146831000Y-71990000D02*
X177565000Y-71990000D01*
X154168382Y-84328000D02*
X149860000Y-84328000D01*
X171087000Y-106154000D02*
X169784799Y-107456201D01*
X172212000Y-106154000D02*
X171087000Y-106154000D01*
X169784799Y-107456201D02*
X162822423Y-107456201D01*
X162822423Y-107456201D02*
X162023411Y-106657189D01*
X162023411Y-106657189D02*
X162023410Y-92183026D01*
X162023410Y-92183026D02*
X154168382Y-84328000D01*
X173548000Y-107254000D02*
X177070000Y-107254000D01*
X172212000Y-106154000D02*
X172448000Y-106154000D01*
X172448000Y-106154000D02*
X173548000Y-107254000D01*
X172847000Y-62865000D02*
X175006000Y-62865000D01*
X182885778Y-70231000D02*
X185913800Y-67202978D01*
X146723000Y-71590000D02*
X177466616Y-71590000D01*
X146191201Y-72121799D02*
X146723000Y-71590000D01*
X185913800Y-67202978D02*
X185913800Y-63500000D01*
X177466616Y-71590000D02*
X178825616Y-70231000D01*
X147320000Y-81788000D02*
X147320000Y-80518000D01*
X178825616Y-70231000D02*
X182885778Y-70231000D01*
X147320000Y-80518000D02*
X146191201Y-79389201D01*
X146191201Y-79389201D02*
X146191201Y-72121799D01*
X189704000Y-88900000D02*
X186944000Y-88900000D01*
X132430000Y-70540000D02*
X132430000Y-72840000D01*
X167627000Y-69990000D02*
X132980000Y-69990000D01*
X169672000Y-67945000D02*
X167627000Y-69990000D01*
X172720000Y-67945000D02*
X169672000Y-67945000D01*
X132980000Y-69990000D02*
X132430000Y-70540000D01*
X120670360Y-69599640D02*
X167509360Y-69599640D01*
X117430000Y-72840000D02*
X120670360Y-69599640D01*
X167509360Y-69599640D02*
X170434000Y-66675000D01*
X170434000Y-66675000D02*
X172720000Y-66675000D01*
X162517600Y-62865000D02*
X163420000Y-62865000D01*
X157392600Y-67990000D02*
X162517600Y-62865000D01*
X102430000Y-66340000D02*
X104080000Y-67990000D01*
X104080000Y-67990000D02*
X157392600Y-67990000D01*
X161745984Y-64135000D02*
X163420000Y-64135000D01*
X157490984Y-68390000D02*
X161745984Y-64135000D01*
X87980000Y-68390000D02*
X157490984Y-68390000D01*
X87430000Y-66340000D02*
X87430000Y-67840000D01*
X87430000Y-67840000D02*
X87980000Y-68390000D01*
X72380000Y-66390000D02*
X72430000Y-66340000D01*
X72380000Y-68190000D02*
X72380000Y-66390000D01*
X72980000Y-68790000D02*
X72380000Y-68190000D01*
X157589368Y-68790000D02*
X72980000Y-68790000D01*
X163420000Y-65405000D02*
X160974368Y-65405000D01*
X160974368Y-65405000D02*
X157589368Y-68790000D01*
X160202752Y-66675000D02*
X163420000Y-66675000D01*
X157687752Y-69190000D02*
X160202752Y-66675000D01*
X57980000Y-69190000D02*
X157687752Y-69190000D01*
X57430000Y-66340000D02*
X57430000Y-68640000D01*
X57430000Y-68640000D02*
X57980000Y-69190000D01*
X182651401Y-65176401D02*
X183515000Y-66040000D01*
X182245000Y-64770000D02*
X182651401Y-65176401D01*
X179705000Y-64770000D02*
X182245000Y-64770000D01*
X172847000Y-61595000D02*
X176530000Y-61595000D01*
X176530000Y-61595000D02*
X179705000Y-64770000D01*
X144780000Y-81788000D02*
X144780000Y-79248000D01*
X144286201Y-78754201D02*
X144751411Y-79219411D01*
X177269848Y-70790000D02*
X145881616Y-70790000D01*
X179606848Y-68453000D02*
X177269848Y-70790000D01*
X144286201Y-72385415D02*
X144286201Y-78754201D01*
X145881616Y-70790000D02*
X144286201Y-72385415D01*
X183515000Y-68453000D02*
X179606848Y-68453000D01*
X189704000Y-82550000D02*
X186817000Y-82550000D01*
X177800000Y-60325000D02*
X180975000Y-63500000D01*
X172847000Y-60325000D02*
X177800000Y-60325000D01*
X146050000Y-80010000D02*
X145161000Y-79121000D01*
X147320000Y-84328000D02*
X146050000Y-83058000D01*
X146050000Y-83058000D02*
X146050000Y-80010000D01*
X179216232Y-69342000D02*
X182245000Y-69342000D01*
X177368232Y-71190000D02*
X179216232Y-69342000D01*
X144638799Y-72531201D02*
X145980000Y-71190000D01*
X144638799Y-78598799D02*
X144638799Y-72531201D01*
X145103822Y-79063822D02*
X144638799Y-78598799D01*
X145980000Y-71190000D02*
X177368232Y-71190000D01*
X189704000Y-86360000D02*
X186817000Y-86360000D01*
X169799000Y-91440000D02*
X171704000Y-91440000D01*
X164465000Y-95250000D02*
X165989000Y-95250000D01*
X165989000Y-95250000D02*
X169799000Y-91440000D01*
X165862000Y-93980000D02*
X164338000Y-93980000D01*
X171704000Y-90170000D02*
X169672000Y-90170000D01*
X169672000Y-90170000D02*
X165862000Y-93980000D01*
X164404000Y-100330000D02*
X165306400Y-100330000D01*
X169926000Y-96520000D02*
X171704000Y-96520000D01*
X165227000Y-100330000D02*
X166116000Y-100330000D01*
X166116000Y-100330000D02*
X169926000Y-96520000D01*
X169926000Y-95250000D02*
X171704000Y-95250000D01*
X164338000Y-99060000D02*
X166116000Y-99060000D01*
X166116000Y-99060000D02*
X169926000Y-95250000D01*
X165989000Y-97790000D02*
X164465000Y-97790000D01*
X171704000Y-93980000D02*
X169799000Y-93980000D01*
X169799000Y-93980000D02*
X165989000Y-97790000D01*
X165989000Y-96520000D02*
X164465000Y-96520000D01*
X171704000Y-92710000D02*
X169799000Y-92710000D01*
X169799000Y-92710000D02*
X165989000Y-96520000D01*
X154414000Y-115806000D02*
X154414000Y-114300000D01*
X155202979Y-117809195D02*
X155202979Y-116594979D01*
X155202979Y-116594979D02*
X154414000Y-115806000D01*
X154414000Y-111760000D02*
X154414000Y-114300000D01*
X178435000Y-100965000D02*
X186055000Y-100965000D01*
X177165000Y-102235000D02*
X178435000Y-100965000D01*
X155512790Y-108769594D02*
X156228027Y-108054357D01*
X156228027Y-108054357D02*
X161820643Y-108054357D01*
X155512790Y-110661210D02*
X155512790Y-108769594D01*
X154414000Y-111760000D02*
X155512790Y-110661210D01*
X167640000Y-102235000D02*
X175006000Y-102235000D01*
X163195000Y-106680000D02*
X167640000Y-102235000D01*
X189704000Y-92710000D02*
X192277972Y-92710000D01*
X189230000Y-100965000D02*
X192278000Y-97917000D01*
X192278000Y-97917000D02*
X192278006Y-97917000D01*
X201168000Y-100135081D02*
X201616919Y-100584000D01*
X201168000Y-94811819D02*
X201168000Y-100135081D01*
X203835000Y-94234000D02*
X201745819Y-94234000D01*
X201616919Y-100584000D02*
X202819000Y-100584000D01*
X193675000Y-83820000D02*
X201549000Y-91694000D01*
X201549000Y-91694000D02*
X203708000Y-91694000D01*
X203708000Y-91694000D02*
X204343000Y-92329000D01*
X201745819Y-94234000D02*
X201168000Y-94811819D01*
X204343000Y-92329000D02*
X204343000Y-93726000D01*
X204343000Y-93726000D02*
X203835000Y-94234000D01*
X193675000Y-83820000D02*
X189704000Y-83820000D01*
X186436000Y-85090000D02*
X189704000Y-85090000D01*
X188086999Y-96412231D02*
X185489822Y-93815054D01*
X188086999Y-100970779D02*
X188086999Y-96412231D01*
X189602578Y-102093798D02*
X189210018Y-102093798D01*
X189616780Y-102108000D02*
X189602578Y-102093798D01*
X185489822Y-86036178D02*
X186436000Y-85090000D01*
X202819000Y-98044000D02*
X204216000Y-99441000D01*
X204216000Y-99441000D02*
X204216000Y-101346000D01*
X204216000Y-101346000D02*
X203708000Y-101854000D01*
X185489822Y-93815054D02*
X185489822Y-86036178D01*
X203708000Y-101854000D02*
X200533000Y-101854000D01*
X200533000Y-101854000D02*
X200279000Y-102108000D01*
X189210018Y-102093798D02*
X188086999Y-100970779D01*
X200279000Y-102108000D02*
X189616780Y-102108000D01*
X192260000Y-109365000D02*
X192278000Y-109347000D01*
X192260000Y-111887000D02*
X192260000Y-109365000D01*
X187325000Y-93980000D02*
X189704000Y-93980000D01*
X192278000Y-109347000D02*
X192278000Y-108458000D01*
X192278000Y-108458000D02*
X186055000Y-102235000D01*
D44*
X151130000Y-123190000D02*
X151149195Y-123209195D01*
D43*
X153936420Y-123190000D02*
X155194000Y-123190000D01*
D44*
X60960000Y-123190000D02*
X50800000Y-123190000D01*
X77470000Y-123190000D02*
X60960000Y-123190000D01*
X93980000Y-123190000D02*
X77470000Y-123190000D01*
X127254000Y-123190000D02*
X110490000Y-123190000D01*
X110490000Y-123190000D02*
X93980000Y-123190000D01*
X144025000Y-123190000D02*
X127254000Y-123190000D01*
X144025000Y-128350000D02*
X144025000Y-123190000D01*
X154559000Y-123190000D02*
X144025000Y-123190000D01*
X127254000Y-128350000D02*
X127254000Y-123190000D01*
X110490000Y-128350000D02*
X110490000Y-123190000D01*
X77470000Y-128350000D02*
X77470000Y-123190000D01*
X60960000Y-128350000D02*
X60960000Y-123190000D01*
X93980000Y-128350000D02*
X93980000Y-123190000D01*
X52705000Y-92075000D02*
X52768500Y-92011500D01*
X58293000Y-94107000D02*
X58293000Y-100584000D01*
X52705000Y-92075000D02*
X56261000Y-92075000D01*
X56261000Y-92075000D02*
X58293000Y-94107000D01*
X49149000Y-92075000D02*
X52705000Y-92075000D01*
X46355000Y-94869000D02*
X49149000Y-92075000D01*
X46355000Y-122301000D02*
X46355000Y-94869000D01*
X50866509Y-123190000D02*
X47244000Y-123190000D01*
X47244000Y-123190000D02*
X46355000Y-122301000D01*
X59610000Y-140335000D02*
X60960000Y-133350000D01*
X76200000Y-140335000D02*
X77470000Y-133350000D01*
X76247000Y-140335000D02*
X76200000Y-140335000D01*
X92837000Y-140335000D02*
X93980000Y-133350000D01*
X92884000Y-140335000D02*
X92837000Y-140335000D01*
X102997000Y-133350000D02*
X102870000Y-133350000D01*
X109521000Y-140335000D02*
X110490000Y-133350000D01*
X126158000Y-140335000D02*
X127254000Y-133350000D01*
X119888000Y-133477000D02*
X120015000Y-133350000D01*
X142795000Y-140335000D02*
X144018000Y-133350000D01*
D43*
X158554000Y-93980000D02*
X159004000Y-93980000D01*
X155067000Y-92329000D02*
X155194000Y-92329000D01*
X152590500Y-92329000D02*
X155067000Y-92329000D01*
X157988000Y-93980000D02*
X159004000Y-93980000D01*
X155067000Y-92329000D02*
X156337000Y-92329000D01*
X156337000Y-92329000D02*
X157988000Y-93980000D01*
X138557000Y-92329000D02*
X143256002Y-92329000D01*
X125390231Y-105495769D02*
X138557000Y-92329000D01*
X53460000Y-108350000D02*
X56314231Y-105495769D01*
X56314231Y-105495769D02*
X125390231Y-105495769D01*
X158554000Y-95250000D02*
X159004000Y-95250000D01*
X152590500Y-94234000D02*
X155067000Y-94234000D01*
X155067006Y-94234000D02*
X155067000Y-94233994D01*
X156972000Y-94234000D02*
X155067006Y-94234000D01*
X159004000Y-95250000D02*
X157988000Y-95250000D01*
X157988000Y-95250000D02*
X156972000Y-94234000D01*
X137150384Y-94234000D02*
X142747992Y-94234000D01*
X125536206Y-105848178D02*
X137150384Y-94234000D01*
X69970000Y-108350000D02*
X72471822Y-105848178D01*
X72471822Y-105848178D02*
X125536206Y-105848178D01*
X158554000Y-96520000D02*
X159004000Y-96520000D01*
X152590500Y-96139000D02*
X155067000Y-96139000D01*
X155448002Y-96520000D02*
X155067000Y-96138998D01*
X159004000Y-96520000D02*
X155448002Y-96520000D01*
X135743768Y-96139000D02*
X142240000Y-96139000D01*
X125682179Y-106200589D02*
X135743768Y-96139000D01*
X86480000Y-108350000D02*
X88629411Y-106200589D01*
X88629411Y-106200589D02*
X125682179Y-106200589D01*
X152590500Y-98044000D02*
X155067000Y-98044000D01*
X155321010Y-97790000D02*
X155067000Y-98044010D01*
X159004000Y-97790000D02*
X155321010Y-97790000D01*
X104787000Y-106553000D02*
X102990000Y-108350000D01*
X125828152Y-106553000D02*
X104787000Y-106553000D01*
X142240000Y-98044000D02*
X134337152Y-98044000D01*
X134337152Y-98044000D02*
X125828152Y-106553000D01*
X152590500Y-99949000D02*
X155067000Y-99949000D01*
X155067010Y-99949000D02*
X155067000Y-99949010D01*
X157099000Y-99949000D02*
X155067010Y-99949000D01*
X159004000Y-99060000D02*
X157988000Y-99060000D01*
X157988000Y-99060000D02*
X157099000Y-99949000D01*
X142748000Y-99568000D02*
X142748000Y-99949000D01*
X142367000Y-99949000D02*
X142748000Y-99568000D01*
X132930536Y-99949000D02*
X142367000Y-99949000D01*
X119754000Y-108350000D02*
X124529536Y-108350000D01*
X124529536Y-108350000D02*
X132930536Y-99949000D01*
X152590500Y-101854000D02*
X155067000Y-101854000D01*
X155067016Y-101854000D02*
X155067000Y-101854016D01*
X156464000Y-101854000D02*
X155067016Y-101854000D01*
X159004000Y-100330000D02*
X157988000Y-100330000D01*
X157988000Y-100330000D02*
X156464000Y-101854000D01*
X139446000Y-101854000D02*
X143256000Y-101854000D01*
X136525000Y-108350000D02*
X136525000Y-104775000D01*
X136525000Y-104775000D02*
X139446000Y-101854000D01*
X194328000Y-123063000D02*
X202819000Y-123063000D01*
X189704000Y-95250000D02*
X193294000Y-95250000D01*
X193294000Y-112649000D02*
X193294000Y-105410000D01*
X196469000Y-123063000D02*
X204216000Y-115316000D01*
X194310000Y-123063000D02*
X196469000Y-123063000D01*
X204216000Y-115316000D02*
X204216000Y-113665000D01*
X204216000Y-113665000D02*
X203708000Y-113157000D01*
X203708000Y-113157000D02*
X193802000Y-113157000D01*
X193802000Y-113157000D02*
X193294000Y-112649000D01*
D44*
X166780000Y-130175000D02*
X170180000Y-130175000D01*
X170815000Y-130810000D02*
X170180000Y-130175000D01*
X171243000Y-140335000D02*
X171243000Y-131238000D01*
X171243000Y-131238000D02*
X170815000Y-130810000D01*
D43*
X168674000Y-82550000D02*
X167894000Y-83330000D01*
X171704000Y-82550000D02*
X168674000Y-82550000D01*
X203581000Y-104394000D02*
X204568410Y-103406590D01*
X188722000Y-104394000D02*
X203581000Y-104394000D01*
X183642000Y-82550000D02*
X184785000Y-83693000D01*
X204568410Y-103406590D02*
X204568410Y-97253410D01*
X171704000Y-82550000D02*
X183642000Y-82550000D01*
X184785000Y-83693000D02*
X184785000Y-94107000D01*
X184785000Y-94107000D02*
X187382177Y-96704177D01*
X204568410Y-97253410D02*
X203668999Y-96353999D01*
X187382177Y-96704177D02*
X187382177Y-103054177D01*
X203668999Y-96353999D02*
X202819000Y-95504000D01*
X187382177Y-103054177D02*
X188722000Y-104394000D01*
X132080000Y-58990000D02*
X132680000Y-59590000D01*
X132680000Y-59590000D02*
X153180000Y-59590000D01*
X156990000Y-59955000D02*
X156990000Y-59590000D01*
X157868000Y-60833000D02*
X156990000Y-59955000D01*
X159512000Y-60833000D02*
X157868000Y-60833000D01*
X176276000Y-98027000D02*
X176259000Y-98010000D01*
X176276000Y-105664000D02*
X175768000Y-106172000D01*
X176276000Y-105664000D02*
X176276000Y-98027000D01*
X174498000Y-106172000D02*
X175768000Y-106172000D01*
X176911000Y-106299000D02*
X176276000Y-105664000D01*
X179070000Y-106299000D02*
X176911000Y-106299000D01*
X145847000Y-95199000D02*
X145847000Y-96012000D01*
X150690500Y-92329000D02*
X148717000Y-92329000D01*
X148717000Y-92329000D02*
X145847000Y-95199000D01*
X146647000Y-95209600D02*
X146647000Y-96012000D01*
X147622600Y-94234000D02*
X146647000Y-95209600D01*
X150690500Y-94234000D02*
X147622600Y-94234000D01*
X147447000Y-96139000D02*
X147447000Y-96012000D01*
X150690500Y-96139000D02*
X147447000Y-96139000D01*
X147615000Y-98044000D02*
X147447000Y-98212000D01*
X150690500Y-98044000D02*
X147615000Y-98044000D01*
X146647000Y-99014400D02*
X146647000Y-98212000D01*
X147581600Y-99949000D02*
X146647000Y-99014400D01*
X150690500Y-99949000D02*
X147581600Y-99949000D01*
X145847000Y-99014400D02*
X145847000Y-98212000D01*
X148686600Y-101854000D02*
X145847000Y-99014400D01*
X150690500Y-101854000D02*
X148686600Y-101854000D01*
X193675000Y-96520000D02*
X189704000Y-96520000D01*
X195580000Y-95250000D02*
X195072000Y-95123000D01*
X195072000Y-95123000D02*
X193675000Y-96520000D01*
X196850000Y-96520000D02*
X195580000Y-95250000D01*
X196850000Y-100711000D02*
X196850000Y-96520000D01*
X195199000Y-101092000D02*
X196469000Y-101092000D01*
X196469000Y-101092000D02*
X196850000Y-100711000D01*
X197866000Y-92964000D02*
X202819000Y-92964000D01*
X195580000Y-95250000D02*
X197866000Y-92964000D01*
X195580000Y-137160000D02*
X193040000Y-137160000D01*
X204978000Y-127762000D02*
X195580000Y-137160000D01*
X204978000Y-90424000D02*
X204978000Y-127762000D01*
X189704000Y-81280000D02*
X195834000Y-81280000D01*
X195834000Y-81280000D02*
X204978000Y-90424000D01*
D45*
X115062000Y-83820000D03*
X156591003Y-81025997D03*
X192659012Y-80010000D03*
X175006000Y-100203000D03*
X174117000Y-80010000D03*
X160020000Y-109220000D03*
X161290000Y-60325000D03*
X103504984Y-95250000D03*
X120015000Y-95885002D03*
X186055000Y-103505000D03*
X160575969Y-88104241D03*
X156083000Y-88025210D03*
X189230000Y-103505000D03*
X180975000Y-58278790D03*
X175006000Y-62865000D03*
X185913800Y-63500000D03*
X186944000Y-88900000D03*
X183515000Y-68453000D03*
X186817000Y-82550000D03*
X182245000Y-69342000D03*
X186817000Y-86360000D03*
X161820643Y-108054357D03*
X163195000Y-106680000D03*
X177165000Y-102235000D03*
X186055000Y-100965000D03*
X189230000Y-100965000D03*
X175006000Y-102235000D03*
X192277972Y-92710000D03*
X192278006Y-97917000D03*
X187325000Y-93980000D03*
X186055000Y-102235000D03*
X143256002Y-92329000D03*
X155067000Y-92329002D03*
X142747992Y-94234000D03*
X155067000Y-94233994D03*
X142240000Y-96139000D03*
X155067000Y-96138998D03*
X142240000Y-98044000D03*
X155067000Y-98044010D03*
X142748000Y-99949000D03*
X155067000Y-99949010D03*
X143256002Y-101854000D03*
X155067000Y-101854016D03*
X193294000Y-105410000D03*
X193294000Y-95250000D03*
X202819000Y-125603000D03*
X202819000Y-123063000D03*
X202819000Y-120523000D03*
X171243000Y-140335000D03*
X166243000Y-140335000D03*
X142795000Y-140335000D03*
X137795000Y-140335000D03*
X76247000Y-140335000D03*
X71247000Y-140335000D03*
X59610000Y-140335000D03*
X54610000Y-140335000D03*
X126158000Y-140335000D03*
X121158000Y-140335000D03*
X109521000Y-140335000D03*
X104521000Y-140335000D03*
X92884000Y-140335000D03*
X87884000Y-140335000D03*
X83693000Y-82804000D03*
X88773000Y-100584000D03*
X88773000Y-82804000D03*
X63373000Y-100584000D03*
X58293000Y-100584000D03*
X87430000Y-72840000D03*
X82930000Y-72840000D03*
X87430000Y-66340000D03*
X82930000Y-66340000D03*
X136525000Y-133350000D03*
X136525000Y-128350000D03*
X136525000Y-108350000D03*
X144025000Y-108350000D03*
X144025000Y-128350000D03*
X144025000Y-133350000D03*
X102990000Y-133350000D03*
X102990000Y-128350000D03*
X102990000Y-108350000D03*
X110490000Y-108350000D03*
X110490000Y-128350000D03*
X110490000Y-133350000D03*
X86480000Y-133350000D03*
X86480000Y-128350000D03*
X86480000Y-108350000D03*
X93980000Y-108350000D03*
X93980000Y-128350000D03*
X93980000Y-133350000D03*
X195580000Y-97663000D03*
X195580000Y-95123000D03*
X131990000Y-59590000D03*
X130720000Y-59590000D03*
X129450000Y-59590000D03*
X128180000Y-59590000D03*
X144780000Y-84328000D03*
X144780000Y-81788000D03*
X147320000Y-84328000D03*
X147320000Y-81788000D03*
X149860000Y-84328000D03*
X149860000Y-81788000D03*
X49805000Y-99575000D03*
X52705000Y-92075000D03*
X180975000Y-66040000D03*
X183515000Y-66040000D03*
X180975000Y-63500000D03*
X183515000Y-63500000D03*
X180975000Y-60960000D03*
X183515000Y-60960000D03*
X132430000Y-72840000D03*
X127930000Y-72840000D03*
X132430000Y-66340000D03*
X127930000Y-66340000D03*
X72430000Y-72840000D03*
X67930000Y-72840000D03*
X72430000Y-66340000D03*
X67930000Y-66340000D03*
X202819000Y-114427000D03*
X202819000Y-111887000D03*
X202819000Y-109347000D03*
X43180000Y-82590000D03*
X43180000Y-148590000D03*
X203200000Y-82590000D03*
X203200000Y-148590000D03*
X116990000Y-59590000D03*
X115720000Y-59590000D03*
X114450000Y-59590000D03*
X113180000Y-59590000D03*
X101990000Y-59590000D03*
X100720000Y-59590000D03*
X99450000Y-59590000D03*
X98180000Y-59590000D03*
X86990000Y-59590000D03*
X85720000Y-59590000D03*
X84450000Y-59590000D03*
X83180000Y-59590000D03*
X71990000Y-59590000D03*
X70720000Y-59590000D03*
X69450000Y-59590000D03*
X68180000Y-59590000D03*
X56990000Y-59590000D03*
X55720000Y-59590000D03*
X54450000Y-59590000D03*
X53180000Y-59590000D03*
X204180000Y-64590000D03*
X42180000Y-64590000D03*
X117430000Y-72840000D03*
X112930000Y-72840000D03*
X117430000Y-66340000D03*
X112930000Y-66340000D03*
X102430000Y-72840000D03*
X97930000Y-72840000D03*
X102430000Y-66340000D03*
X97930000Y-66340000D03*
X57430000Y-72840000D03*
X52930000Y-72840000D03*
X57430000Y-66340000D03*
X52930000Y-66340000D03*
X147320000Y-76590000D03*
X145415000Y-76590000D03*
X143510000Y-76590000D03*
X141605000Y-76590000D03*
X123825000Y-95885000D03*
X123825000Y-91440000D03*
X123825000Y-86995000D03*
X123825000Y-100330000D03*
X202819000Y-103124000D03*
X202819000Y-100584000D03*
X202819000Y-98044000D03*
X202819000Y-95504000D03*
X202819000Y-92964000D03*
X202819000Y-90424000D03*
X53460000Y-133350000D03*
X53460000Y-128350000D03*
X53460000Y-108350000D03*
X60960000Y-108350000D03*
X60960000Y-128350000D03*
X60960000Y-133350000D03*
X69970000Y-133350000D03*
X69970000Y-128350000D03*
X69970000Y-108350000D03*
X77470000Y-108350000D03*
X77470000Y-128350000D03*
X77470000Y-133350000D03*
X119754000Y-133350000D03*
X119754000Y-128350000D03*
X119754000Y-108350000D03*
X127254000Y-108350000D03*
X127254000Y-128350000D03*
X127254000Y-133350000D03*
X156990000Y-59590000D03*
X155720000Y-59590000D03*
X154450000Y-59590000D03*
X153180000Y-59590000D03*
X166780000Y-130175000D03*
X170180000Y-130175000D03*
X166780000Y-120255000D03*
X170180000Y-120255000D03*
X193040000Y-137160000D03*
X200640000Y-137160000D03*
M02*
