G04 #@! TF.GenerationSoftware,KiCad,Pcbnew,(5.0.0)*
G04 #@! TF.CreationDate,2018-09-10T10:35:59+01:00*
G04 #@! TF.ProjectId,AquaHub,417175614875622E6B696361645F7063,rev?*
G04 #@! TF.SameCoordinates,Original*
G04 #@! TF.FileFunction,Legend,Bot*
G04 #@! TF.FilePolarity,Positive*
%FSLAX46Y46*%
G04 Gerber Fmt 4.6, Leading zero omitted, Abs format (unit mm)*
G04 Created by KiCad (PCBNEW (5.0.0)) date 09/10/18 10:35:59*
%MOMM*%
%LPD*%
G01*
G04 APERTURE LIST*
%ADD10C,0.120000*%
%ADD11C,0.150000*%
G04 APERTURE END LIST*
D10*
G04 #@! TO.C,J12*
X147090000Y-41005000D02*
X147090000Y-56785000D01*
X147090000Y-56785000D02*
X156440000Y-56785000D01*
X156440000Y-56785000D02*
X156440000Y-41005000D01*
X156440000Y-41005000D02*
X147090000Y-41005000D01*
X156690000Y-40755000D02*
X156690000Y-43295000D01*
X156690000Y-40755000D02*
X154150000Y-40755000D01*
D11*
G04 #@! TO.C,U6*
X145005000Y-53835000D02*
X143480000Y-53835000D01*
X145005000Y-46085000D02*
X143400000Y-46085000D01*
X131855000Y-46085000D02*
X133460000Y-46085000D01*
X131855000Y-53835000D02*
X133460000Y-53835000D01*
X145005000Y-53835000D02*
X145005000Y-46085000D01*
X131855000Y-53835000D02*
X131855000Y-46085000D01*
X143480000Y-53835000D02*
X143480000Y-55360000D01*
G04 #@! TO.C,U4*
X170785000Y-93990000D02*
X170785000Y-95365000D01*
X160660000Y-93990000D02*
X160660000Y-89840000D01*
X170810000Y-93990000D02*
X170810000Y-89840000D01*
X160660000Y-93990000D02*
X160765000Y-93990000D01*
X160660000Y-89840000D02*
X160765000Y-89840000D01*
X170810000Y-89840000D02*
X170705000Y-89840000D01*
X170810000Y-93990000D02*
X170785000Y-93990000D01*
D10*
G04 #@! TO.C,C3*
X198103748Y-106605000D02*
X198626252Y-106605000D01*
X198103748Y-108025000D02*
X198626252Y-108025000D01*
G04 #@! TO.C,R4*
X198103748Y-104065000D02*
X198626252Y-104065000D01*
X198103748Y-105485000D02*
X198626252Y-105485000D01*
G04 #@! TO.C,C4*
X191510000Y-108825000D02*
X187125000Y-108825000D01*
X191510000Y-105805000D02*
X191510000Y-108825000D01*
X187125000Y-105805000D02*
X191510000Y-105805000D01*
G04 #@! TO.C,U1*
X200025000Y-101464000D02*
X200025000Y-98924000D01*
X201295000Y-84446000D02*
X177038000Y-84446000D01*
X201295000Y-98924000D02*
X177038000Y-98924000D01*
X201295000Y-81906000D02*
X201295000Y-84446000D01*
X177038000Y-81906000D02*
X201295000Y-81906000D01*
X176530000Y-82668000D02*
X177038000Y-82668000D01*
X177038000Y-84446000D02*
X177038000Y-81906000D01*
X177038000Y-101455000D02*
X177038000Y-98924000D01*
X177038079Y-100693000D02*
X176530000Y-100693000D01*
X201295000Y-101455000D02*
X201295000Y-98924000D01*
X201295000Y-101455000D02*
X177032868Y-101455000D01*
X201800000Y-100685000D02*
X201779000Y-100685000D01*
X176530000Y-100693000D02*
X176530000Y-82685000D01*
X201330000Y-82685000D02*
X208100000Y-82685000D01*
X201800000Y-100685000D02*
X201800000Y-82685000D01*
X208100000Y-100685000D02*
X201304495Y-100685000D01*
X208100000Y-100685000D02*
X208100000Y-82685000D01*
G04 #@! TO.C,J12*
D11*
X152574523Y-39203380D02*
X152574523Y-39917666D01*
X152622142Y-40060523D01*
X152717380Y-40155761D01*
X152860238Y-40203380D01*
X152955476Y-40203380D01*
X151574523Y-40203380D02*
X152145952Y-40203380D01*
X151860238Y-40203380D02*
X151860238Y-39203380D01*
X151955476Y-39346238D01*
X152050714Y-39441476D01*
X152145952Y-39489095D01*
X151193571Y-39298619D02*
X151145952Y-39251000D01*
X151050714Y-39203380D01*
X150812619Y-39203380D01*
X150717380Y-39251000D01*
X150669761Y-39298619D01*
X150622142Y-39393857D01*
X150622142Y-39489095D01*
X150669761Y-39631952D01*
X151241190Y-40203380D01*
X150622142Y-40203380D01*
G04 #@! TO.C,U6*
X145382380Y-49198095D02*
X146191904Y-49198095D01*
X146287142Y-49245714D01*
X146334761Y-49293333D01*
X146382380Y-49388571D01*
X146382380Y-49579047D01*
X146334761Y-49674285D01*
X146287142Y-49721904D01*
X146191904Y-49769523D01*
X145382380Y-49769523D01*
X145382380Y-50674285D02*
X145382380Y-50483809D01*
X145430000Y-50388571D01*
X145477619Y-50340952D01*
X145620476Y-50245714D01*
X145810952Y-50198095D01*
X146191904Y-50198095D01*
X146287142Y-50245714D01*
X146334761Y-50293333D01*
X146382380Y-50388571D01*
X146382380Y-50579047D01*
X146334761Y-50674285D01*
X146287142Y-50721904D01*
X146191904Y-50769523D01*
X145953809Y-50769523D01*
X145858571Y-50721904D01*
X145810952Y-50674285D01*
X145763333Y-50579047D01*
X145763333Y-50388571D01*
X145810952Y-50293333D01*
X145858571Y-50245714D01*
X145953809Y-50198095D01*
G04 #@! TO.C,U4*
X158837380Y-91153095D02*
X159646904Y-91153095D01*
X159742142Y-91200714D01*
X159789761Y-91248333D01*
X159837380Y-91343571D01*
X159837380Y-91534047D01*
X159789761Y-91629285D01*
X159742142Y-91676904D01*
X159646904Y-91724523D01*
X158837380Y-91724523D01*
X159170714Y-92629285D02*
X159837380Y-92629285D01*
X158789761Y-92391190D02*
X159504047Y-92153095D01*
X159504047Y-92772142D01*
G04 #@! TO.C,C3*
X195746666Y-107672142D02*
X195794285Y-107719761D01*
X195937142Y-107767380D01*
X196032380Y-107767380D01*
X196175238Y-107719761D01*
X196270476Y-107624523D01*
X196318095Y-107529285D01*
X196365714Y-107338809D01*
X196365714Y-107195952D01*
X196318095Y-107005476D01*
X196270476Y-106910238D01*
X196175238Y-106815000D01*
X196032380Y-106767380D01*
X195937142Y-106767380D01*
X195794285Y-106815000D01*
X195746666Y-106862619D01*
X195413333Y-106767380D02*
X194794285Y-106767380D01*
X195127619Y-107148333D01*
X194984761Y-107148333D01*
X194889523Y-107195952D01*
X194841904Y-107243571D01*
X194794285Y-107338809D01*
X194794285Y-107576904D01*
X194841904Y-107672142D01*
X194889523Y-107719761D01*
X194984761Y-107767380D01*
X195270476Y-107767380D01*
X195365714Y-107719761D01*
X195413333Y-107672142D01*
G04 #@! TO.C,R4*
X195746666Y-105227380D02*
X196080000Y-104751190D01*
X196318095Y-105227380D02*
X196318095Y-104227380D01*
X195937142Y-104227380D01*
X195841904Y-104275000D01*
X195794285Y-104322619D01*
X195746666Y-104417857D01*
X195746666Y-104560714D01*
X195794285Y-104655952D01*
X195841904Y-104703571D01*
X195937142Y-104751190D01*
X196318095Y-104751190D01*
X194889523Y-104560714D02*
X194889523Y-105227380D01*
X195127619Y-104179761D02*
X195365714Y-104894047D01*
X194746666Y-104894047D01*
G04 #@! TO.C,C4*
X193206666Y-107672142D02*
X193254285Y-107719761D01*
X193397142Y-107767380D01*
X193492380Y-107767380D01*
X193635238Y-107719761D01*
X193730476Y-107624523D01*
X193778095Y-107529285D01*
X193825714Y-107338809D01*
X193825714Y-107195952D01*
X193778095Y-107005476D01*
X193730476Y-106910238D01*
X193635238Y-106815000D01*
X193492380Y-106767380D01*
X193397142Y-106767380D01*
X193254285Y-106815000D01*
X193206666Y-106862619D01*
X192349523Y-107100714D02*
X192349523Y-107767380D01*
X192587619Y-106719761D02*
X192825714Y-107434047D01*
X192206666Y-107434047D01*
G04 #@! TO.C,U1*
X174712380Y-90678095D02*
X175521904Y-90678095D01*
X175617142Y-90725714D01*
X175664761Y-90773333D01*
X175712380Y-90868571D01*
X175712380Y-91059047D01*
X175664761Y-91154285D01*
X175617142Y-91201904D01*
X175521904Y-91249523D01*
X174712380Y-91249523D01*
X175712380Y-92249523D02*
X175712380Y-91678095D01*
X175712380Y-91963809D02*
X174712380Y-91963809D01*
X174855238Y-91868571D01*
X174950476Y-91773333D01*
X174998095Y-91678095D01*
X205450000Y-85542142D02*
X205450000Y-86494523D01*
X206307142Y-85351666D02*
X203307142Y-86018333D01*
X206307142Y-86685000D01*
X206307142Y-87351666D02*
X203307142Y-87351666D01*
X206307142Y-88494523D01*
X203307142Y-88494523D01*
X203307142Y-89161190D02*
X203307142Y-90304047D01*
X206307142Y-89732619D02*
X203307142Y-89732619D01*
X204735714Y-90970714D02*
X204735714Y-91637380D01*
X206307142Y-91923095D02*
X206307142Y-90970714D01*
X203307142Y-90970714D01*
X203307142Y-91923095D01*
X206307142Y-92780238D02*
X203307142Y-92780238D01*
X206307142Y-93923095D01*
X203307142Y-93923095D01*
X206307142Y-94875476D02*
X203307142Y-94875476D01*
X206307142Y-96018333D01*
X203307142Y-96018333D01*
X205450000Y-96875476D02*
X205450000Y-97827857D01*
X206307142Y-96685000D02*
X203307142Y-97351666D01*
X206307142Y-98018333D01*
G04 #@! TD*
M02*
