%TF.GenerationSoftware,KiCad,Pcbnew,(5.0.0)*%
%TF.CreationDate,2018-10-01T00:30:33+01:00*%
%TF.ProjectId,AquaHub,417175614875622E6B696361645F7063,rev?*%
%TF.SameCoordinates,Original*%
%TF.FileFunction,Paste,Top*%
%TF.FilePolarity,Positive*%
%FSLAX46Y46*%
G04 Gerber Fmt 4.6, Leading zero omitted, Abs format (unit mm)*
G04 Created by KiCad (PCBNEW (5.0.0)) date 10/01/18 00:30:33*
%MOMM*%
%LPD*%
G01*
G04 APERTURE LIST*
%ADD10C,0.080000*%
%ADD11C,0.200000*%
%ADD12R,1.000000X0.500000*%
%ADD13R,0.500000X1.300000*%
%ADD14R,1.600000X3.000000*%
%ADD15C,0.150000*%
%ADD16C,1.500000*%
%ADD17R,3.050000X2.750000*%
%ADD18R,2.200000X1.200000*%
%ADD19R,0.600000X1.550000*%
%ADD20R,1.500000X0.600000*%
%ADD21C,1.150000*%
%ADD22R,1.600000X3.500000*%
%ADD23R,0.900000X0.800000*%
%ADD24C,0.950000*%
%ADD25O,2.500000X0.900000*%
%ADD26O,0.900000X2.500000*%
%ADD27R,6.000000X6.000000*%
G04 APERTURE END LIST*
D10*
X55880000Y-104140000D02*
X55880000Y-102870000D01*
X66040000Y-104140000D02*
X55880000Y-104140000D01*
X66040000Y-102870000D02*
X66040000Y-104140000D01*
X55880000Y-102870000D02*
X66040000Y-102870000D01*
D11*
X50800000Y-102870000D02*
X47879000Y-102870000D01*
X50800000Y-106045000D02*
X50800000Y-102870000D01*
X146050000Y-115570000D02*
X146050000Y-118110000D01*
X140680000Y-77590000D02*
X140680000Y-75590000D01*
X148180000Y-75590000D02*
X148180000Y-77590000D01*
X148180000Y-77590000D02*
X208180000Y-77590000D01*
X208180000Y-75590000D02*
X148180000Y-75590000D01*
X208180000Y-53590000D02*
X208180000Y-75590000D01*
X38180000Y-53590000D02*
X208180000Y-53590000D01*
X38180000Y-75590000D02*
X38180000Y-53590000D01*
X140680000Y-75590000D02*
X38180000Y-75590000D01*
X48006000Y-118364000D02*
X47879000Y-102870000D01*
X146050000Y-118110000D02*
X48006000Y-118364000D01*
X50800000Y-115570000D02*
X146050000Y-115570000D01*
X50800000Y-106045000D02*
X50800000Y-115570000D01*
X38180000Y-153590000D02*
X208180000Y-153590000D01*
X38180000Y-77590000D02*
X38180000Y-153590000D01*
X140680000Y-77590000D02*
X38180000Y-77590000D01*
X208180000Y-77590000D02*
X208180000Y-153590000D01*
D12*
X144247000Y-97112000D03*
X148147000Y-97112000D03*
D13*
X147447000Y-98212000D03*
X146647000Y-98212000D03*
X145847000Y-98212000D03*
X145047000Y-98212000D03*
X145047000Y-96012000D03*
X145847000Y-96012000D03*
X146647000Y-96012000D03*
X147447000Y-96012000D03*
D14*
X116840000Y-86405000D03*
X116840000Y-90805000D03*
D15*
G36*
X162620504Y-79059204D02*
X162644773Y-79062804D01*
X162668571Y-79068765D01*
X162691671Y-79077030D01*
X162713849Y-79087520D01*
X162734893Y-79100133D01*
X162754598Y-79114747D01*
X162772777Y-79131223D01*
X162789253Y-79149402D01*
X162803867Y-79169107D01*
X162816480Y-79190151D01*
X162826970Y-79212329D01*
X162835235Y-79235429D01*
X162841196Y-79259227D01*
X162844796Y-79283496D01*
X162846000Y-79308000D01*
X162846000Y-80308000D01*
X162844796Y-80332504D01*
X162841196Y-80356773D01*
X162835235Y-80380571D01*
X162826970Y-80403671D01*
X162816480Y-80425849D01*
X162803867Y-80446893D01*
X162789253Y-80466598D01*
X162772777Y-80484777D01*
X162754598Y-80501253D01*
X162734893Y-80515867D01*
X162713849Y-80528480D01*
X162691671Y-80538970D01*
X162668571Y-80547235D01*
X162644773Y-80553196D01*
X162620504Y-80556796D01*
X162596000Y-80558000D01*
X160746000Y-80558000D01*
X160721496Y-80556796D01*
X160697227Y-80553196D01*
X160673429Y-80547235D01*
X160650329Y-80538970D01*
X160628151Y-80528480D01*
X160607107Y-80515867D01*
X160587402Y-80501253D01*
X160569223Y-80484777D01*
X160552747Y-80466598D01*
X160538133Y-80446893D01*
X160525520Y-80425849D01*
X160515030Y-80403671D01*
X160506765Y-80380571D01*
X160500804Y-80356773D01*
X160497204Y-80332504D01*
X160496000Y-80308000D01*
X160496000Y-79308000D01*
X160497204Y-79283496D01*
X160500804Y-79259227D01*
X160506765Y-79235429D01*
X160515030Y-79212329D01*
X160525520Y-79190151D01*
X160538133Y-79169107D01*
X160552747Y-79149402D01*
X160569223Y-79131223D01*
X160587402Y-79114747D01*
X160607107Y-79100133D01*
X160628151Y-79087520D01*
X160650329Y-79077030D01*
X160673429Y-79068765D01*
X160697227Y-79062804D01*
X160721496Y-79059204D01*
X160746000Y-79058000D01*
X162596000Y-79058000D01*
X162620504Y-79059204D01*
X162620504Y-79059204D01*
G37*
D16*
X161671000Y-79808000D03*
D15*
G36*
X162620504Y-82309204D02*
X162644773Y-82312804D01*
X162668571Y-82318765D01*
X162691671Y-82327030D01*
X162713849Y-82337520D01*
X162734893Y-82350133D01*
X162754598Y-82364747D01*
X162772777Y-82381223D01*
X162789253Y-82399402D01*
X162803867Y-82419107D01*
X162816480Y-82440151D01*
X162826970Y-82462329D01*
X162835235Y-82485429D01*
X162841196Y-82509227D01*
X162844796Y-82533496D01*
X162846000Y-82558000D01*
X162846000Y-83558000D01*
X162844796Y-83582504D01*
X162841196Y-83606773D01*
X162835235Y-83630571D01*
X162826970Y-83653671D01*
X162816480Y-83675849D01*
X162803867Y-83696893D01*
X162789253Y-83716598D01*
X162772777Y-83734777D01*
X162754598Y-83751253D01*
X162734893Y-83765867D01*
X162713849Y-83778480D01*
X162691671Y-83788970D01*
X162668571Y-83797235D01*
X162644773Y-83803196D01*
X162620504Y-83806796D01*
X162596000Y-83808000D01*
X160746000Y-83808000D01*
X160721496Y-83806796D01*
X160697227Y-83803196D01*
X160673429Y-83797235D01*
X160650329Y-83788970D01*
X160628151Y-83778480D01*
X160607107Y-83765867D01*
X160587402Y-83751253D01*
X160569223Y-83734777D01*
X160552747Y-83716598D01*
X160538133Y-83696893D01*
X160525520Y-83675849D01*
X160515030Y-83653671D01*
X160506765Y-83630571D01*
X160500804Y-83606773D01*
X160497204Y-83582504D01*
X160496000Y-83558000D01*
X160496000Y-82558000D01*
X160497204Y-82533496D01*
X160500804Y-82509227D01*
X160506765Y-82485429D01*
X160515030Y-82462329D01*
X160525520Y-82440151D01*
X160538133Y-82419107D01*
X160552747Y-82399402D01*
X160569223Y-82381223D01*
X160587402Y-82364747D01*
X160607107Y-82350133D01*
X160628151Y-82337520D01*
X160650329Y-82327030D01*
X160673429Y-82318765D01*
X160697227Y-82312804D01*
X160721496Y-82309204D01*
X160746000Y-82308000D01*
X162596000Y-82308000D01*
X162620504Y-82309204D01*
X162620504Y-82309204D01*
G37*
D16*
X161671000Y-83058000D03*
D17*
X108180000Y-101220000D03*
X111530000Y-98170000D03*
X108180000Y-98170000D03*
X111530000Y-101220000D03*
D18*
X103555000Y-101975000D03*
X103555000Y-99695000D03*
X103555000Y-97415000D03*
D19*
X153932979Y-117809195D03*
X155202979Y-117809195D03*
X156472979Y-117809195D03*
X157742979Y-117809195D03*
X157742979Y-123209195D03*
X156472979Y-123209195D03*
X155202979Y-123209195D03*
X153932979Y-123209195D03*
D20*
X159004000Y-100330000D03*
X159004000Y-99060000D03*
X159004000Y-97790000D03*
X159004000Y-96520000D03*
X159004000Y-95250000D03*
X159004000Y-93980000D03*
X159004000Y-92710000D03*
X159004000Y-91440000D03*
X164404000Y-91440000D03*
X164404000Y-92710000D03*
X164404000Y-93980000D03*
X164404000Y-95250000D03*
X164404000Y-96520000D03*
X164404000Y-97790000D03*
X164404000Y-99060000D03*
X164404000Y-100330000D03*
D15*
G36*
X158843505Y-80434204D02*
X158867773Y-80437804D01*
X158891572Y-80443765D01*
X158914671Y-80452030D01*
X158936850Y-80462520D01*
X158957893Y-80475132D01*
X158977599Y-80489747D01*
X158995777Y-80506223D01*
X159012253Y-80524401D01*
X159026868Y-80544107D01*
X159039480Y-80565150D01*
X159049970Y-80587329D01*
X159058235Y-80610428D01*
X159064196Y-80634227D01*
X159067796Y-80658495D01*
X159069000Y-80682999D01*
X159069000Y-81333001D01*
X159067796Y-81357505D01*
X159064196Y-81381773D01*
X159058235Y-81405572D01*
X159049970Y-81428671D01*
X159039480Y-81450850D01*
X159026868Y-81471893D01*
X159012253Y-81491599D01*
X158995777Y-81509777D01*
X158977599Y-81526253D01*
X158957893Y-81540868D01*
X158936850Y-81553480D01*
X158914671Y-81563970D01*
X158891572Y-81572235D01*
X158867773Y-81578196D01*
X158843505Y-81581796D01*
X158819001Y-81583000D01*
X157918999Y-81583000D01*
X157894495Y-81581796D01*
X157870227Y-81578196D01*
X157846428Y-81572235D01*
X157823329Y-81563970D01*
X157801150Y-81553480D01*
X157780107Y-81540868D01*
X157760401Y-81526253D01*
X157742223Y-81509777D01*
X157725747Y-81491599D01*
X157711132Y-81471893D01*
X157698520Y-81450850D01*
X157688030Y-81428671D01*
X157679765Y-81405572D01*
X157673804Y-81381773D01*
X157670204Y-81357505D01*
X157669000Y-81333001D01*
X157669000Y-80682999D01*
X157670204Y-80658495D01*
X157673804Y-80634227D01*
X157679765Y-80610428D01*
X157688030Y-80587329D01*
X157698520Y-80565150D01*
X157711132Y-80544107D01*
X157725747Y-80524401D01*
X157742223Y-80506223D01*
X157760401Y-80489747D01*
X157780107Y-80475132D01*
X157801150Y-80462520D01*
X157823329Y-80452030D01*
X157846428Y-80443765D01*
X157870227Y-80437804D01*
X157894495Y-80434204D01*
X157918999Y-80433000D01*
X158819001Y-80433000D01*
X158843505Y-80434204D01*
X158843505Y-80434204D01*
G37*
D21*
X158369000Y-81008000D03*
D15*
G36*
X158843505Y-82484204D02*
X158867773Y-82487804D01*
X158891572Y-82493765D01*
X158914671Y-82502030D01*
X158936850Y-82512520D01*
X158957893Y-82525132D01*
X158977599Y-82539747D01*
X158995777Y-82556223D01*
X159012253Y-82574401D01*
X159026868Y-82594107D01*
X159039480Y-82615150D01*
X159049970Y-82637329D01*
X159058235Y-82660428D01*
X159064196Y-82684227D01*
X159067796Y-82708495D01*
X159069000Y-82732999D01*
X159069000Y-83383001D01*
X159067796Y-83407505D01*
X159064196Y-83431773D01*
X159058235Y-83455572D01*
X159049970Y-83478671D01*
X159039480Y-83500850D01*
X159026868Y-83521893D01*
X159012253Y-83541599D01*
X158995777Y-83559777D01*
X158977599Y-83576253D01*
X158957893Y-83590868D01*
X158936850Y-83603480D01*
X158914671Y-83613970D01*
X158891572Y-83622235D01*
X158867773Y-83628196D01*
X158843505Y-83631796D01*
X158819001Y-83633000D01*
X157918999Y-83633000D01*
X157894495Y-83631796D01*
X157870227Y-83628196D01*
X157846428Y-83622235D01*
X157823329Y-83613970D01*
X157801150Y-83603480D01*
X157780107Y-83590868D01*
X157760401Y-83576253D01*
X157742223Y-83559777D01*
X157725747Y-83541599D01*
X157711132Y-83521893D01*
X157698520Y-83500850D01*
X157688030Y-83478671D01*
X157679765Y-83455572D01*
X157673804Y-83431773D01*
X157670204Y-83407505D01*
X157669000Y-83383001D01*
X157669000Y-82732999D01*
X157670204Y-82708495D01*
X157673804Y-82684227D01*
X157679765Y-82660428D01*
X157688030Y-82637329D01*
X157698520Y-82615150D01*
X157711132Y-82594107D01*
X157725747Y-82574401D01*
X157742223Y-82556223D01*
X157760401Y-82539747D01*
X157780107Y-82525132D01*
X157801150Y-82512520D01*
X157823329Y-82502030D01*
X157846428Y-82493765D01*
X157870227Y-82487804D01*
X157894495Y-82484204D01*
X157918999Y-82483000D01*
X158819001Y-82483000D01*
X158843505Y-82484204D01*
X158843505Y-82484204D01*
G37*
D21*
X158369000Y-83058000D03*
D22*
X97790000Y-85725000D03*
X97790000Y-91125000D03*
X97790000Y-97155000D03*
X97790000Y-102555000D03*
D14*
X116840000Y-97835000D03*
X116840000Y-102235000D03*
D17*
X108180000Y-90170000D03*
X111530000Y-87120000D03*
X108180000Y-87120000D03*
X111530000Y-90170000D03*
D18*
X103555000Y-90925000D03*
X103555000Y-88645000D03*
X103555000Y-86365000D03*
D23*
X177070000Y-107254000D03*
X179070000Y-106304000D03*
X179070000Y-108204000D03*
D15*
G36*
X154874779Y-108746144D02*
X154897834Y-108749563D01*
X154920443Y-108755227D01*
X154942387Y-108763079D01*
X154963457Y-108773044D01*
X154983448Y-108785026D01*
X155002168Y-108798910D01*
X155019438Y-108814562D01*
X155035090Y-108831832D01*
X155048974Y-108850552D01*
X155060956Y-108870543D01*
X155070921Y-108891613D01*
X155078773Y-108913557D01*
X155084437Y-108936166D01*
X155087856Y-108959221D01*
X155089000Y-108982500D01*
X155089000Y-109457500D01*
X155087856Y-109480779D01*
X155084437Y-109503834D01*
X155078773Y-109526443D01*
X155070921Y-109548387D01*
X155060956Y-109569457D01*
X155048974Y-109589448D01*
X155035090Y-109608168D01*
X155019438Y-109625438D01*
X155002168Y-109641090D01*
X154983448Y-109654974D01*
X154963457Y-109666956D01*
X154942387Y-109676921D01*
X154920443Y-109684773D01*
X154897834Y-109690437D01*
X154874779Y-109693856D01*
X154851500Y-109695000D01*
X154276500Y-109695000D01*
X154253221Y-109693856D01*
X154230166Y-109690437D01*
X154207557Y-109684773D01*
X154185613Y-109676921D01*
X154164543Y-109666956D01*
X154144552Y-109654974D01*
X154125832Y-109641090D01*
X154108562Y-109625438D01*
X154092910Y-109608168D01*
X154079026Y-109589448D01*
X154067044Y-109569457D01*
X154057079Y-109548387D01*
X154049227Y-109526443D01*
X154043563Y-109503834D01*
X154040144Y-109480779D01*
X154039000Y-109457500D01*
X154039000Y-108982500D01*
X154040144Y-108959221D01*
X154043563Y-108936166D01*
X154049227Y-108913557D01*
X154057079Y-108891613D01*
X154067044Y-108870543D01*
X154079026Y-108850552D01*
X154092910Y-108831832D01*
X154108562Y-108814562D01*
X154125832Y-108798910D01*
X154144552Y-108785026D01*
X154164543Y-108773044D01*
X154185613Y-108763079D01*
X154207557Y-108755227D01*
X154230166Y-108749563D01*
X154253221Y-108746144D01*
X154276500Y-108745000D01*
X154851500Y-108745000D01*
X154874779Y-108746144D01*
X154874779Y-108746144D01*
G37*
D24*
X154564000Y-109220000D03*
D15*
G36*
X156624779Y-108746144D02*
X156647834Y-108749563D01*
X156670443Y-108755227D01*
X156692387Y-108763079D01*
X156713457Y-108773044D01*
X156733448Y-108785026D01*
X156752168Y-108798910D01*
X156769438Y-108814562D01*
X156785090Y-108831832D01*
X156798974Y-108850552D01*
X156810956Y-108870543D01*
X156820921Y-108891613D01*
X156828773Y-108913557D01*
X156834437Y-108936166D01*
X156837856Y-108959221D01*
X156839000Y-108982500D01*
X156839000Y-109457500D01*
X156837856Y-109480779D01*
X156834437Y-109503834D01*
X156828773Y-109526443D01*
X156820921Y-109548387D01*
X156810956Y-109569457D01*
X156798974Y-109589448D01*
X156785090Y-109608168D01*
X156769438Y-109625438D01*
X156752168Y-109641090D01*
X156733448Y-109654974D01*
X156713457Y-109666956D01*
X156692387Y-109676921D01*
X156670443Y-109684773D01*
X156647834Y-109690437D01*
X156624779Y-109693856D01*
X156601500Y-109695000D01*
X156026500Y-109695000D01*
X156003221Y-109693856D01*
X155980166Y-109690437D01*
X155957557Y-109684773D01*
X155935613Y-109676921D01*
X155914543Y-109666956D01*
X155894552Y-109654974D01*
X155875832Y-109641090D01*
X155858562Y-109625438D01*
X155842910Y-109608168D01*
X155829026Y-109589448D01*
X155817044Y-109569457D01*
X155807079Y-109548387D01*
X155799227Y-109526443D01*
X155793563Y-109503834D01*
X155790144Y-109480779D01*
X155789000Y-109457500D01*
X155789000Y-108982500D01*
X155790144Y-108959221D01*
X155793563Y-108936166D01*
X155799227Y-108913557D01*
X155807079Y-108891613D01*
X155817044Y-108870543D01*
X155829026Y-108850552D01*
X155842910Y-108831832D01*
X155858562Y-108814562D01*
X155875832Y-108798910D01*
X155894552Y-108785026D01*
X155914543Y-108773044D01*
X155935613Y-108763079D01*
X155957557Y-108755227D01*
X155980166Y-108749563D01*
X156003221Y-108746144D01*
X156026500Y-108745000D01*
X156601500Y-108745000D01*
X156624779Y-108746144D01*
X156624779Y-108746144D01*
G37*
D24*
X156314000Y-109220000D03*
D15*
G36*
X154874779Y-113826144D02*
X154897834Y-113829563D01*
X154920443Y-113835227D01*
X154942387Y-113843079D01*
X154963457Y-113853044D01*
X154983448Y-113865026D01*
X155002168Y-113878910D01*
X155019438Y-113894562D01*
X155035090Y-113911832D01*
X155048974Y-113930552D01*
X155060956Y-113950543D01*
X155070921Y-113971613D01*
X155078773Y-113993557D01*
X155084437Y-114016166D01*
X155087856Y-114039221D01*
X155089000Y-114062500D01*
X155089000Y-114537500D01*
X155087856Y-114560779D01*
X155084437Y-114583834D01*
X155078773Y-114606443D01*
X155070921Y-114628387D01*
X155060956Y-114649457D01*
X155048974Y-114669448D01*
X155035090Y-114688168D01*
X155019438Y-114705438D01*
X155002168Y-114721090D01*
X154983448Y-114734974D01*
X154963457Y-114746956D01*
X154942387Y-114756921D01*
X154920443Y-114764773D01*
X154897834Y-114770437D01*
X154874779Y-114773856D01*
X154851500Y-114775000D01*
X154276500Y-114775000D01*
X154253221Y-114773856D01*
X154230166Y-114770437D01*
X154207557Y-114764773D01*
X154185613Y-114756921D01*
X154164543Y-114746956D01*
X154144552Y-114734974D01*
X154125832Y-114721090D01*
X154108562Y-114705438D01*
X154092910Y-114688168D01*
X154079026Y-114669448D01*
X154067044Y-114649457D01*
X154057079Y-114628387D01*
X154049227Y-114606443D01*
X154043563Y-114583834D01*
X154040144Y-114560779D01*
X154039000Y-114537500D01*
X154039000Y-114062500D01*
X154040144Y-114039221D01*
X154043563Y-114016166D01*
X154049227Y-113993557D01*
X154057079Y-113971613D01*
X154067044Y-113950543D01*
X154079026Y-113930552D01*
X154092910Y-113911832D01*
X154108562Y-113894562D01*
X154125832Y-113878910D01*
X154144552Y-113865026D01*
X154164543Y-113853044D01*
X154185613Y-113843079D01*
X154207557Y-113835227D01*
X154230166Y-113829563D01*
X154253221Y-113826144D01*
X154276500Y-113825000D01*
X154851500Y-113825000D01*
X154874779Y-113826144D01*
X154874779Y-113826144D01*
G37*
D24*
X154564000Y-114300000D03*
D15*
G36*
X156624779Y-113826144D02*
X156647834Y-113829563D01*
X156670443Y-113835227D01*
X156692387Y-113843079D01*
X156713457Y-113853044D01*
X156733448Y-113865026D01*
X156752168Y-113878910D01*
X156769438Y-113894562D01*
X156785090Y-113911832D01*
X156798974Y-113930552D01*
X156810956Y-113950543D01*
X156820921Y-113971613D01*
X156828773Y-113993557D01*
X156834437Y-114016166D01*
X156837856Y-114039221D01*
X156839000Y-114062500D01*
X156839000Y-114537500D01*
X156837856Y-114560779D01*
X156834437Y-114583834D01*
X156828773Y-114606443D01*
X156820921Y-114628387D01*
X156810956Y-114649457D01*
X156798974Y-114669448D01*
X156785090Y-114688168D01*
X156769438Y-114705438D01*
X156752168Y-114721090D01*
X156733448Y-114734974D01*
X156713457Y-114746956D01*
X156692387Y-114756921D01*
X156670443Y-114764773D01*
X156647834Y-114770437D01*
X156624779Y-114773856D01*
X156601500Y-114775000D01*
X156026500Y-114775000D01*
X156003221Y-114773856D01*
X155980166Y-114770437D01*
X155957557Y-114764773D01*
X155935613Y-114756921D01*
X155914543Y-114746956D01*
X155894552Y-114734974D01*
X155875832Y-114721090D01*
X155858562Y-114705438D01*
X155842910Y-114688168D01*
X155829026Y-114669448D01*
X155817044Y-114649457D01*
X155807079Y-114628387D01*
X155799227Y-114606443D01*
X155793563Y-114583834D01*
X155790144Y-114560779D01*
X155789000Y-114537500D01*
X155789000Y-114062500D01*
X155790144Y-114039221D01*
X155793563Y-114016166D01*
X155799227Y-113993557D01*
X155807079Y-113971613D01*
X155817044Y-113950543D01*
X155829026Y-113930552D01*
X155842910Y-113911832D01*
X155858562Y-113894562D01*
X155875832Y-113878910D01*
X155894552Y-113865026D01*
X155914543Y-113853044D01*
X155935613Y-113843079D01*
X155957557Y-113835227D01*
X155980166Y-113829563D01*
X156003221Y-113826144D01*
X156026500Y-113825000D01*
X156601500Y-113825000D01*
X156624779Y-113826144D01*
X156624779Y-113826144D01*
G37*
D24*
X156314000Y-114300000D03*
D15*
G36*
X152751279Y-91855144D02*
X152774334Y-91858563D01*
X152796943Y-91864227D01*
X152818887Y-91872079D01*
X152839957Y-91882044D01*
X152859948Y-91894026D01*
X152878668Y-91907910D01*
X152895938Y-91923562D01*
X152911590Y-91940832D01*
X152925474Y-91959552D01*
X152937456Y-91979543D01*
X152947421Y-92000613D01*
X152955273Y-92022557D01*
X152960937Y-92045166D01*
X152964356Y-92068221D01*
X152965500Y-92091500D01*
X152965500Y-92566500D01*
X152964356Y-92589779D01*
X152960937Y-92612834D01*
X152955273Y-92635443D01*
X152947421Y-92657387D01*
X152937456Y-92678457D01*
X152925474Y-92698448D01*
X152911590Y-92717168D01*
X152895938Y-92734438D01*
X152878668Y-92750090D01*
X152859948Y-92763974D01*
X152839957Y-92775956D01*
X152818887Y-92785921D01*
X152796943Y-92793773D01*
X152774334Y-92799437D01*
X152751279Y-92802856D01*
X152728000Y-92804000D01*
X152153000Y-92804000D01*
X152129721Y-92802856D01*
X152106666Y-92799437D01*
X152084057Y-92793773D01*
X152062113Y-92785921D01*
X152041043Y-92775956D01*
X152021052Y-92763974D01*
X152002332Y-92750090D01*
X151985062Y-92734438D01*
X151969410Y-92717168D01*
X151955526Y-92698448D01*
X151943544Y-92678457D01*
X151933579Y-92657387D01*
X151925727Y-92635443D01*
X151920063Y-92612834D01*
X151916644Y-92589779D01*
X151915500Y-92566500D01*
X151915500Y-92091500D01*
X151916644Y-92068221D01*
X151920063Y-92045166D01*
X151925727Y-92022557D01*
X151933579Y-92000613D01*
X151943544Y-91979543D01*
X151955526Y-91959552D01*
X151969410Y-91940832D01*
X151985062Y-91923562D01*
X152002332Y-91907910D01*
X152021052Y-91894026D01*
X152041043Y-91882044D01*
X152062113Y-91872079D01*
X152084057Y-91864227D01*
X152106666Y-91858563D01*
X152129721Y-91855144D01*
X152153000Y-91854000D01*
X152728000Y-91854000D01*
X152751279Y-91855144D01*
X152751279Y-91855144D01*
G37*
D24*
X152440500Y-92329000D03*
D15*
G36*
X151001279Y-91855144D02*
X151024334Y-91858563D01*
X151046943Y-91864227D01*
X151068887Y-91872079D01*
X151089957Y-91882044D01*
X151109948Y-91894026D01*
X151128668Y-91907910D01*
X151145938Y-91923562D01*
X151161590Y-91940832D01*
X151175474Y-91959552D01*
X151187456Y-91979543D01*
X151197421Y-92000613D01*
X151205273Y-92022557D01*
X151210937Y-92045166D01*
X151214356Y-92068221D01*
X151215500Y-92091500D01*
X151215500Y-92566500D01*
X151214356Y-92589779D01*
X151210937Y-92612834D01*
X151205273Y-92635443D01*
X151197421Y-92657387D01*
X151187456Y-92678457D01*
X151175474Y-92698448D01*
X151161590Y-92717168D01*
X151145938Y-92734438D01*
X151128668Y-92750090D01*
X151109948Y-92763974D01*
X151089957Y-92775956D01*
X151068887Y-92785921D01*
X151046943Y-92793773D01*
X151024334Y-92799437D01*
X151001279Y-92802856D01*
X150978000Y-92804000D01*
X150403000Y-92804000D01*
X150379721Y-92802856D01*
X150356666Y-92799437D01*
X150334057Y-92793773D01*
X150312113Y-92785921D01*
X150291043Y-92775956D01*
X150271052Y-92763974D01*
X150252332Y-92750090D01*
X150235062Y-92734438D01*
X150219410Y-92717168D01*
X150205526Y-92698448D01*
X150193544Y-92678457D01*
X150183579Y-92657387D01*
X150175727Y-92635443D01*
X150170063Y-92612834D01*
X150166644Y-92589779D01*
X150165500Y-92566500D01*
X150165500Y-92091500D01*
X150166644Y-92068221D01*
X150170063Y-92045166D01*
X150175727Y-92022557D01*
X150183579Y-92000613D01*
X150193544Y-91979543D01*
X150205526Y-91959552D01*
X150219410Y-91940832D01*
X150235062Y-91923562D01*
X150252332Y-91907910D01*
X150271052Y-91894026D01*
X150291043Y-91882044D01*
X150312113Y-91872079D01*
X150334057Y-91864227D01*
X150356666Y-91858563D01*
X150379721Y-91855144D01*
X150403000Y-91854000D01*
X150978000Y-91854000D01*
X151001279Y-91855144D01*
X151001279Y-91855144D01*
G37*
D24*
X150690500Y-92329000D03*
D15*
G36*
X151001279Y-93760144D02*
X151024334Y-93763563D01*
X151046943Y-93769227D01*
X151068887Y-93777079D01*
X151089957Y-93787044D01*
X151109948Y-93799026D01*
X151128668Y-93812910D01*
X151145938Y-93828562D01*
X151161590Y-93845832D01*
X151175474Y-93864552D01*
X151187456Y-93884543D01*
X151197421Y-93905613D01*
X151205273Y-93927557D01*
X151210937Y-93950166D01*
X151214356Y-93973221D01*
X151215500Y-93996500D01*
X151215500Y-94471500D01*
X151214356Y-94494779D01*
X151210937Y-94517834D01*
X151205273Y-94540443D01*
X151197421Y-94562387D01*
X151187456Y-94583457D01*
X151175474Y-94603448D01*
X151161590Y-94622168D01*
X151145938Y-94639438D01*
X151128668Y-94655090D01*
X151109948Y-94668974D01*
X151089957Y-94680956D01*
X151068887Y-94690921D01*
X151046943Y-94698773D01*
X151024334Y-94704437D01*
X151001279Y-94707856D01*
X150978000Y-94709000D01*
X150403000Y-94709000D01*
X150379721Y-94707856D01*
X150356666Y-94704437D01*
X150334057Y-94698773D01*
X150312113Y-94690921D01*
X150291043Y-94680956D01*
X150271052Y-94668974D01*
X150252332Y-94655090D01*
X150235062Y-94639438D01*
X150219410Y-94622168D01*
X150205526Y-94603448D01*
X150193544Y-94583457D01*
X150183579Y-94562387D01*
X150175727Y-94540443D01*
X150170063Y-94517834D01*
X150166644Y-94494779D01*
X150165500Y-94471500D01*
X150165500Y-93996500D01*
X150166644Y-93973221D01*
X150170063Y-93950166D01*
X150175727Y-93927557D01*
X150183579Y-93905613D01*
X150193544Y-93884543D01*
X150205526Y-93864552D01*
X150219410Y-93845832D01*
X150235062Y-93828562D01*
X150252332Y-93812910D01*
X150271052Y-93799026D01*
X150291043Y-93787044D01*
X150312113Y-93777079D01*
X150334057Y-93769227D01*
X150356666Y-93763563D01*
X150379721Y-93760144D01*
X150403000Y-93759000D01*
X150978000Y-93759000D01*
X151001279Y-93760144D01*
X151001279Y-93760144D01*
G37*
D24*
X150690500Y-94234000D03*
D15*
G36*
X152751279Y-93760144D02*
X152774334Y-93763563D01*
X152796943Y-93769227D01*
X152818887Y-93777079D01*
X152839957Y-93787044D01*
X152859948Y-93799026D01*
X152878668Y-93812910D01*
X152895938Y-93828562D01*
X152911590Y-93845832D01*
X152925474Y-93864552D01*
X152937456Y-93884543D01*
X152947421Y-93905613D01*
X152955273Y-93927557D01*
X152960937Y-93950166D01*
X152964356Y-93973221D01*
X152965500Y-93996500D01*
X152965500Y-94471500D01*
X152964356Y-94494779D01*
X152960937Y-94517834D01*
X152955273Y-94540443D01*
X152947421Y-94562387D01*
X152937456Y-94583457D01*
X152925474Y-94603448D01*
X152911590Y-94622168D01*
X152895938Y-94639438D01*
X152878668Y-94655090D01*
X152859948Y-94668974D01*
X152839957Y-94680956D01*
X152818887Y-94690921D01*
X152796943Y-94698773D01*
X152774334Y-94704437D01*
X152751279Y-94707856D01*
X152728000Y-94709000D01*
X152153000Y-94709000D01*
X152129721Y-94707856D01*
X152106666Y-94704437D01*
X152084057Y-94698773D01*
X152062113Y-94690921D01*
X152041043Y-94680956D01*
X152021052Y-94668974D01*
X152002332Y-94655090D01*
X151985062Y-94639438D01*
X151969410Y-94622168D01*
X151955526Y-94603448D01*
X151943544Y-94583457D01*
X151933579Y-94562387D01*
X151925727Y-94540443D01*
X151920063Y-94517834D01*
X151916644Y-94494779D01*
X151915500Y-94471500D01*
X151915500Y-93996500D01*
X151916644Y-93973221D01*
X151920063Y-93950166D01*
X151925727Y-93927557D01*
X151933579Y-93905613D01*
X151943544Y-93884543D01*
X151955526Y-93864552D01*
X151969410Y-93845832D01*
X151985062Y-93828562D01*
X152002332Y-93812910D01*
X152021052Y-93799026D01*
X152041043Y-93787044D01*
X152062113Y-93777079D01*
X152084057Y-93769227D01*
X152106666Y-93763563D01*
X152129721Y-93760144D01*
X152153000Y-93759000D01*
X152728000Y-93759000D01*
X152751279Y-93760144D01*
X152751279Y-93760144D01*
G37*
D24*
X152440500Y-94234000D03*
D15*
G36*
X152751279Y-95665144D02*
X152774334Y-95668563D01*
X152796943Y-95674227D01*
X152818887Y-95682079D01*
X152839957Y-95692044D01*
X152859948Y-95704026D01*
X152878668Y-95717910D01*
X152895938Y-95733562D01*
X152911590Y-95750832D01*
X152925474Y-95769552D01*
X152937456Y-95789543D01*
X152947421Y-95810613D01*
X152955273Y-95832557D01*
X152960937Y-95855166D01*
X152964356Y-95878221D01*
X152965500Y-95901500D01*
X152965500Y-96376500D01*
X152964356Y-96399779D01*
X152960937Y-96422834D01*
X152955273Y-96445443D01*
X152947421Y-96467387D01*
X152937456Y-96488457D01*
X152925474Y-96508448D01*
X152911590Y-96527168D01*
X152895938Y-96544438D01*
X152878668Y-96560090D01*
X152859948Y-96573974D01*
X152839957Y-96585956D01*
X152818887Y-96595921D01*
X152796943Y-96603773D01*
X152774334Y-96609437D01*
X152751279Y-96612856D01*
X152728000Y-96614000D01*
X152153000Y-96614000D01*
X152129721Y-96612856D01*
X152106666Y-96609437D01*
X152084057Y-96603773D01*
X152062113Y-96595921D01*
X152041043Y-96585956D01*
X152021052Y-96573974D01*
X152002332Y-96560090D01*
X151985062Y-96544438D01*
X151969410Y-96527168D01*
X151955526Y-96508448D01*
X151943544Y-96488457D01*
X151933579Y-96467387D01*
X151925727Y-96445443D01*
X151920063Y-96422834D01*
X151916644Y-96399779D01*
X151915500Y-96376500D01*
X151915500Y-95901500D01*
X151916644Y-95878221D01*
X151920063Y-95855166D01*
X151925727Y-95832557D01*
X151933579Y-95810613D01*
X151943544Y-95789543D01*
X151955526Y-95769552D01*
X151969410Y-95750832D01*
X151985062Y-95733562D01*
X152002332Y-95717910D01*
X152021052Y-95704026D01*
X152041043Y-95692044D01*
X152062113Y-95682079D01*
X152084057Y-95674227D01*
X152106666Y-95668563D01*
X152129721Y-95665144D01*
X152153000Y-95664000D01*
X152728000Y-95664000D01*
X152751279Y-95665144D01*
X152751279Y-95665144D01*
G37*
D24*
X152440500Y-96139000D03*
D15*
G36*
X151001279Y-95665144D02*
X151024334Y-95668563D01*
X151046943Y-95674227D01*
X151068887Y-95682079D01*
X151089957Y-95692044D01*
X151109948Y-95704026D01*
X151128668Y-95717910D01*
X151145938Y-95733562D01*
X151161590Y-95750832D01*
X151175474Y-95769552D01*
X151187456Y-95789543D01*
X151197421Y-95810613D01*
X151205273Y-95832557D01*
X151210937Y-95855166D01*
X151214356Y-95878221D01*
X151215500Y-95901500D01*
X151215500Y-96376500D01*
X151214356Y-96399779D01*
X151210937Y-96422834D01*
X151205273Y-96445443D01*
X151197421Y-96467387D01*
X151187456Y-96488457D01*
X151175474Y-96508448D01*
X151161590Y-96527168D01*
X151145938Y-96544438D01*
X151128668Y-96560090D01*
X151109948Y-96573974D01*
X151089957Y-96585956D01*
X151068887Y-96595921D01*
X151046943Y-96603773D01*
X151024334Y-96609437D01*
X151001279Y-96612856D01*
X150978000Y-96614000D01*
X150403000Y-96614000D01*
X150379721Y-96612856D01*
X150356666Y-96609437D01*
X150334057Y-96603773D01*
X150312113Y-96595921D01*
X150291043Y-96585956D01*
X150271052Y-96573974D01*
X150252332Y-96560090D01*
X150235062Y-96544438D01*
X150219410Y-96527168D01*
X150205526Y-96508448D01*
X150193544Y-96488457D01*
X150183579Y-96467387D01*
X150175727Y-96445443D01*
X150170063Y-96422834D01*
X150166644Y-96399779D01*
X150165500Y-96376500D01*
X150165500Y-95901500D01*
X150166644Y-95878221D01*
X150170063Y-95855166D01*
X150175727Y-95832557D01*
X150183579Y-95810613D01*
X150193544Y-95789543D01*
X150205526Y-95769552D01*
X150219410Y-95750832D01*
X150235062Y-95733562D01*
X150252332Y-95717910D01*
X150271052Y-95704026D01*
X150291043Y-95692044D01*
X150312113Y-95682079D01*
X150334057Y-95674227D01*
X150356666Y-95668563D01*
X150379721Y-95665144D01*
X150403000Y-95664000D01*
X150978000Y-95664000D01*
X151001279Y-95665144D01*
X151001279Y-95665144D01*
G37*
D24*
X150690500Y-96139000D03*
D15*
G36*
X151001279Y-97570144D02*
X151024334Y-97573563D01*
X151046943Y-97579227D01*
X151068887Y-97587079D01*
X151089957Y-97597044D01*
X151109948Y-97609026D01*
X151128668Y-97622910D01*
X151145938Y-97638562D01*
X151161590Y-97655832D01*
X151175474Y-97674552D01*
X151187456Y-97694543D01*
X151197421Y-97715613D01*
X151205273Y-97737557D01*
X151210937Y-97760166D01*
X151214356Y-97783221D01*
X151215500Y-97806500D01*
X151215500Y-98281500D01*
X151214356Y-98304779D01*
X151210937Y-98327834D01*
X151205273Y-98350443D01*
X151197421Y-98372387D01*
X151187456Y-98393457D01*
X151175474Y-98413448D01*
X151161590Y-98432168D01*
X151145938Y-98449438D01*
X151128668Y-98465090D01*
X151109948Y-98478974D01*
X151089957Y-98490956D01*
X151068887Y-98500921D01*
X151046943Y-98508773D01*
X151024334Y-98514437D01*
X151001279Y-98517856D01*
X150978000Y-98519000D01*
X150403000Y-98519000D01*
X150379721Y-98517856D01*
X150356666Y-98514437D01*
X150334057Y-98508773D01*
X150312113Y-98500921D01*
X150291043Y-98490956D01*
X150271052Y-98478974D01*
X150252332Y-98465090D01*
X150235062Y-98449438D01*
X150219410Y-98432168D01*
X150205526Y-98413448D01*
X150193544Y-98393457D01*
X150183579Y-98372387D01*
X150175727Y-98350443D01*
X150170063Y-98327834D01*
X150166644Y-98304779D01*
X150165500Y-98281500D01*
X150165500Y-97806500D01*
X150166644Y-97783221D01*
X150170063Y-97760166D01*
X150175727Y-97737557D01*
X150183579Y-97715613D01*
X150193544Y-97694543D01*
X150205526Y-97674552D01*
X150219410Y-97655832D01*
X150235062Y-97638562D01*
X150252332Y-97622910D01*
X150271052Y-97609026D01*
X150291043Y-97597044D01*
X150312113Y-97587079D01*
X150334057Y-97579227D01*
X150356666Y-97573563D01*
X150379721Y-97570144D01*
X150403000Y-97569000D01*
X150978000Y-97569000D01*
X151001279Y-97570144D01*
X151001279Y-97570144D01*
G37*
D24*
X150690500Y-98044000D03*
D15*
G36*
X152751279Y-97570144D02*
X152774334Y-97573563D01*
X152796943Y-97579227D01*
X152818887Y-97587079D01*
X152839957Y-97597044D01*
X152859948Y-97609026D01*
X152878668Y-97622910D01*
X152895938Y-97638562D01*
X152911590Y-97655832D01*
X152925474Y-97674552D01*
X152937456Y-97694543D01*
X152947421Y-97715613D01*
X152955273Y-97737557D01*
X152960937Y-97760166D01*
X152964356Y-97783221D01*
X152965500Y-97806500D01*
X152965500Y-98281500D01*
X152964356Y-98304779D01*
X152960937Y-98327834D01*
X152955273Y-98350443D01*
X152947421Y-98372387D01*
X152937456Y-98393457D01*
X152925474Y-98413448D01*
X152911590Y-98432168D01*
X152895938Y-98449438D01*
X152878668Y-98465090D01*
X152859948Y-98478974D01*
X152839957Y-98490956D01*
X152818887Y-98500921D01*
X152796943Y-98508773D01*
X152774334Y-98514437D01*
X152751279Y-98517856D01*
X152728000Y-98519000D01*
X152153000Y-98519000D01*
X152129721Y-98517856D01*
X152106666Y-98514437D01*
X152084057Y-98508773D01*
X152062113Y-98500921D01*
X152041043Y-98490956D01*
X152021052Y-98478974D01*
X152002332Y-98465090D01*
X151985062Y-98449438D01*
X151969410Y-98432168D01*
X151955526Y-98413448D01*
X151943544Y-98393457D01*
X151933579Y-98372387D01*
X151925727Y-98350443D01*
X151920063Y-98327834D01*
X151916644Y-98304779D01*
X151915500Y-98281500D01*
X151915500Y-97806500D01*
X151916644Y-97783221D01*
X151920063Y-97760166D01*
X151925727Y-97737557D01*
X151933579Y-97715613D01*
X151943544Y-97694543D01*
X151955526Y-97674552D01*
X151969410Y-97655832D01*
X151985062Y-97638562D01*
X152002332Y-97622910D01*
X152021052Y-97609026D01*
X152041043Y-97597044D01*
X152062113Y-97587079D01*
X152084057Y-97579227D01*
X152106666Y-97573563D01*
X152129721Y-97570144D01*
X152153000Y-97569000D01*
X152728000Y-97569000D01*
X152751279Y-97570144D01*
X152751279Y-97570144D01*
G37*
D24*
X152440500Y-98044000D03*
D15*
G36*
X152751279Y-99475144D02*
X152774334Y-99478563D01*
X152796943Y-99484227D01*
X152818887Y-99492079D01*
X152839957Y-99502044D01*
X152859948Y-99514026D01*
X152878668Y-99527910D01*
X152895938Y-99543562D01*
X152911590Y-99560832D01*
X152925474Y-99579552D01*
X152937456Y-99599543D01*
X152947421Y-99620613D01*
X152955273Y-99642557D01*
X152960937Y-99665166D01*
X152964356Y-99688221D01*
X152965500Y-99711500D01*
X152965500Y-100186500D01*
X152964356Y-100209779D01*
X152960937Y-100232834D01*
X152955273Y-100255443D01*
X152947421Y-100277387D01*
X152937456Y-100298457D01*
X152925474Y-100318448D01*
X152911590Y-100337168D01*
X152895938Y-100354438D01*
X152878668Y-100370090D01*
X152859948Y-100383974D01*
X152839957Y-100395956D01*
X152818887Y-100405921D01*
X152796943Y-100413773D01*
X152774334Y-100419437D01*
X152751279Y-100422856D01*
X152728000Y-100424000D01*
X152153000Y-100424000D01*
X152129721Y-100422856D01*
X152106666Y-100419437D01*
X152084057Y-100413773D01*
X152062113Y-100405921D01*
X152041043Y-100395956D01*
X152021052Y-100383974D01*
X152002332Y-100370090D01*
X151985062Y-100354438D01*
X151969410Y-100337168D01*
X151955526Y-100318448D01*
X151943544Y-100298457D01*
X151933579Y-100277387D01*
X151925727Y-100255443D01*
X151920063Y-100232834D01*
X151916644Y-100209779D01*
X151915500Y-100186500D01*
X151915500Y-99711500D01*
X151916644Y-99688221D01*
X151920063Y-99665166D01*
X151925727Y-99642557D01*
X151933579Y-99620613D01*
X151943544Y-99599543D01*
X151955526Y-99579552D01*
X151969410Y-99560832D01*
X151985062Y-99543562D01*
X152002332Y-99527910D01*
X152021052Y-99514026D01*
X152041043Y-99502044D01*
X152062113Y-99492079D01*
X152084057Y-99484227D01*
X152106666Y-99478563D01*
X152129721Y-99475144D01*
X152153000Y-99474000D01*
X152728000Y-99474000D01*
X152751279Y-99475144D01*
X152751279Y-99475144D01*
G37*
D24*
X152440500Y-99949000D03*
D15*
G36*
X151001279Y-99475144D02*
X151024334Y-99478563D01*
X151046943Y-99484227D01*
X151068887Y-99492079D01*
X151089957Y-99502044D01*
X151109948Y-99514026D01*
X151128668Y-99527910D01*
X151145938Y-99543562D01*
X151161590Y-99560832D01*
X151175474Y-99579552D01*
X151187456Y-99599543D01*
X151197421Y-99620613D01*
X151205273Y-99642557D01*
X151210937Y-99665166D01*
X151214356Y-99688221D01*
X151215500Y-99711500D01*
X151215500Y-100186500D01*
X151214356Y-100209779D01*
X151210937Y-100232834D01*
X151205273Y-100255443D01*
X151197421Y-100277387D01*
X151187456Y-100298457D01*
X151175474Y-100318448D01*
X151161590Y-100337168D01*
X151145938Y-100354438D01*
X151128668Y-100370090D01*
X151109948Y-100383974D01*
X151089957Y-100395956D01*
X151068887Y-100405921D01*
X151046943Y-100413773D01*
X151024334Y-100419437D01*
X151001279Y-100422856D01*
X150978000Y-100424000D01*
X150403000Y-100424000D01*
X150379721Y-100422856D01*
X150356666Y-100419437D01*
X150334057Y-100413773D01*
X150312113Y-100405921D01*
X150291043Y-100395956D01*
X150271052Y-100383974D01*
X150252332Y-100370090D01*
X150235062Y-100354438D01*
X150219410Y-100337168D01*
X150205526Y-100318448D01*
X150193544Y-100298457D01*
X150183579Y-100277387D01*
X150175727Y-100255443D01*
X150170063Y-100232834D01*
X150166644Y-100209779D01*
X150165500Y-100186500D01*
X150165500Y-99711500D01*
X150166644Y-99688221D01*
X150170063Y-99665166D01*
X150175727Y-99642557D01*
X150183579Y-99620613D01*
X150193544Y-99599543D01*
X150205526Y-99579552D01*
X150219410Y-99560832D01*
X150235062Y-99543562D01*
X150252332Y-99527910D01*
X150271052Y-99514026D01*
X150291043Y-99502044D01*
X150312113Y-99492079D01*
X150334057Y-99484227D01*
X150356666Y-99478563D01*
X150379721Y-99475144D01*
X150403000Y-99474000D01*
X150978000Y-99474000D01*
X151001279Y-99475144D01*
X151001279Y-99475144D01*
G37*
D24*
X150690500Y-99949000D03*
D15*
G36*
X151001279Y-101380144D02*
X151024334Y-101383563D01*
X151046943Y-101389227D01*
X151068887Y-101397079D01*
X151089957Y-101407044D01*
X151109948Y-101419026D01*
X151128668Y-101432910D01*
X151145938Y-101448562D01*
X151161590Y-101465832D01*
X151175474Y-101484552D01*
X151187456Y-101504543D01*
X151197421Y-101525613D01*
X151205273Y-101547557D01*
X151210937Y-101570166D01*
X151214356Y-101593221D01*
X151215500Y-101616500D01*
X151215500Y-102091500D01*
X151214356Y-102114779D01*
X151210937Y-102137834D01*
X151205273Y-102160443D01*
X151197421Y-102182387D01*
X151187456Y-102203457D01*
X151175474Y-102223448D01*
X151161590Y-102242168D01*
X151145938Y-102259438D01*
X151128668Y-102275090D01*
X151109948Y-102288974D01*
X151089957Y-102300956D01*
X151068887Y-102310921D01*
X151046943Y-102318773D01*
X151024334Y-102324437D01*
X151001279Y-102327856D01*
X150978000Y-102329000D01*
X150403000Y-102329000D01*
X150379721Y-102327856D01*
X150356666Y-102324437D01*
X150334057Y-102318773D01*
X150312113Y-102310921D01*
X150291043Y-102300956D01*
X150271052Y-102288974D01*
X150252332Y-102275090D01*
X150235062Y-102259438D01*
X150219410Y-102242168D01*
X150205526Y-102223448D01*
X150193544Y-102203457D01*
X150183579Y-102182387D01*
X150175727Y-102160443D01*
X150170063Y-102137834D01*
X150166644Y-102114779D01*
X150165500Y-102091500D01*
X150165500Y-101616500D01*
X150166644Y-101593221D01*
X150170063Y-101570166D01*
X150175727Y-101547557D01*
X150183579Y-101525613D01*
X150193544Y-101504543D01*
X150205526Y-101484552D01*
X150219410Y-101465832D01*
X150235062Y-101448562D01*
X150252332Y-101432910D01*
X150271052Y-101419026D01*
X150291043Y-101407044D01*
X150312113Y-101397079D01*
X150334057Y-101389227D01*
X150356666Y-101383563D01*
X150379721Y-101380144D01*
X150403000Y-101379000D01*
X150978000Y-101379000D01*
X151001279Y-101380144D01*
X151001279Y-101380144D01*
G37*
D24*
X150690500Y-101854000D03*
D15*
G36*
X152751279Y-101380144D02*
X152774334Y-101383563D01*
X152796943Y-101389227D01*
X152818887Y-101397079D01*
X152839957Y-101407044D01*
X152859948Y-101419026D01*
X152878668Y-101432910D01*
X152895938Y-101448562D01*
X152911590Y-101465832D01*
X152925474Y-101484552D01*
X152937456Y-101504543D01*
X152947421Y-101525613D01*
X152955273Y-101547557D01*
X152960937Y-101570166D01*
X152964356Y-101593221D01*
X152965500Y-101616500D01*
X152965500Y-102091500D01*
X152964356Y-102114779D01*
X152960937Y-102137834D01*
X152955273Y-102160443D01*
X152947421Y-102182387D01*
X152937456Y-102203457D01*
X152925474Y-102223448D01*
X152911590Y-102242168D01*
X152895938Y-102259438D01*
X152878668Y-102275090D01*
X152859948Y-102288974D01*
X152839957Y-102300956D01*
X152818887Y-102310921D01*
X152796943Y-102318773D01*
X152774334Y-102324437D01*
X152751279Y-102327856D01*
X152728000Y-102329000D01*
X152153000Y-102329000D01*
X152129721Y-102327856D01*
X152106666Y-102324437D01*
X152084057Y-102318773D01*
X152062113Y-102310921D01*
X152041043Y-102300956D01*
X152021052Y-102288974D01*
X152002332Y-102275090D01*
X151985062Y-102259438D01*
X151969410Y-102242168D01*
X151955526Y-102223448D01*
X151943544Y-102203457D01*
X151933579Y-102182387D01*
X151925727Y-102160443D01*
X151920063Y-102137834D01*
X151916644Y-102114779D01*
X151915500Y-102091500D01*
X151915500Y-101616500D01*
X151916644Y-101593221D01*
X151920063Y-101570166D01*
X151925727Y-101547557D01*
X151933579Y-101525613D01*
X151943544Y-101504543D01*
X151955526Y-101484552D01*
X151969410Y-101465832D01*
X151985062Y-101448562D01*
X152002332Y-101432910D01*
X152021052Y-101419026D01*
X152041043Y-101407044D01*
X152062113Y-101397079D01*
X152084057Y-101389227D01*
X152106666Y-101383563D01*
X152129721Y-101380144D01*
X152153000Y-101379000D01*
X152728000Y-101379000D01*
X152751279Y-101380144D01*
X152751279Y-101380144D01*
G37*
D24*
X152440500Y-101854000D03*
D20*
X163420000Y-59055000D03*
X163420000Y-60325000D03*
X163420000Y-61595000D03*
X163420000Y-62865000D03*
X163420000Y-64135000D03*
X163420000Y-65405000D03*
X163420000Y-66675000D03*
X163420000Y-67945000D03*
X172720000Y-67945000D03*
X172720000Y-66675000D03*
X172720000Y-65405000D03*
X172720000Y-64135000D03*
X172720000Y-62865000D03*
X172720000Y-61595000D03*
X172720000Y-60325000D03*
X172720000Y-59055000D03*
D25*
X189704000Y-80135000D03*
X189704000Y-81405000D03*
X189704000Y-82675000D03*
X189704000Y-83945000D03*
X189704000Y-85215000D03*
X189704000Y-86485000D03*
X189704000Y-87755000D03*
X189704000Y-89025000D03*
X189704000Y-90295000D03*
X189704000Y-91565000D03*
X189704000Y-92835000D03*
X189704000Y-94105000D03*
X189704000Y-95375000D03*
X189704000Y-96645000D03*
D26*
X186419000Y-98135000D03*
X185149000Y-98135000D03*
X183879000Y-98135000D03*
X182609000Y-98135000D03*
X181339000Y-98135000D03*
X180069000Y-98135000D03*
X178799000Y-98135000D03*
X177529000Y-98135000D03*
X176259000Y-98135000D03*
X174989000Y-98135000D03*
D25*
X171704000Y-96645000D03*
X171704000Y-95375000D03*
X171704000Y-94105000D03*
X171704000Y-92835000D03*
X171704000Y-91565000D03*
X171704000Y-90295000D03*
X171704000Y-89025000D03*
X171704000Y-87755000D03*
X171704000Y-86485000D03*
X171704000Y-85215000D03*
X171704000Y-83945000D03*
X171704000Y-82675000D03*
X171704000Y-81405000D03*
X171704000Y-80135000D03*
D27*
X180404000Y-87835000D03*
D15*
G36*
X194470779Y-111413144D02*
X194493834Y-111416563D01*
X194516443Y-111422227D01*
X194538387Y-111430079D01*
X194559457Y-111440044D01*
X194579448Y-111452026D01*
X194598168Y-111465910D01*
X194615438Y-111481562D01*
X194631090Y-111498832D01*
X194644974Y-111517552D01*
X194656956Y-111537543D01*
X194666921Y-111558613D01*
X194674773Y-111580557D01*
X194680437Y-111603166D01*
X194683856Y-111626221D01*
X194685000Y-111649500D01*
X194685000Y-112124500D01*
X194683856Y-112147779D01*
X194680437Y-112170834D01*
X194674773Y-112193443D01*
X194666921Y-112215387D01*
X194656956Y-112236457D01*
X194644974Y-112256448D01*
X194631090Y-112275168D01*
X194615438Y-112292438D01*
X194598168Y-112308090D01*
X194579448Y-112321974D01*
X194559457Y-112333956D01*
X194538387Y-112343921D01*
X194516443Y-112351773D01*
X194493834Y-112357437D01*
X194470779Y-112360856D01*
X194447500Y-112362000D01*
X193872500Y-112362000D01*
X193849221Y-112360856D01*
X193826166Y-112357437D01*
X193803557Y-112351773D01*
X193781613Y-112343921D01*
X193760543Y-112333956D01*
X193740552Y-112321974D01*
X193721832Y-112308090D01*
X193704562Y-112292438D01*
X193688910Y-112275168D01*
X193675026Y-112256448D01*
X193663044Y-112236457D01*
X193653079Y-112215387D01*
X193645227Y-112193443D01*
X193639563Y-112170834D01*
X193636144Y-112147779D01*
X193635000Y-112124500D01*
X193635000Y-111649500D01*
X193636144Y-111626221D01*
X193639563Y-111603166D01*
X193645227Y-111580557D01*
X193653079Y-111558613D01*
X193663044Y-111537543D01*
X193675026Y-111517552D01*
X193688910Y-111498832D01*
X193704562Y-111481562D01*
X193721832Y-111465910D01*
X193740552Y-111452026D01*
X193760543Y-111440044D01*
X193781613Y-111430079D01*
X193803557Y-111422227D01*
X193826166Y-111416563D01*
X193849221Y-111413144D01*
X193872500Y-111412000D01*
X194447500Y-111412000D01*
X194470779Y-111413144D01*
X194470779Y-111413144D01*
G37*
D24*
X194160000Y-111887000D03*
D15*
G36*
X192720779Y-111413144D02*
X192743834Y-111416563D01*
X192766443Y-111422227D01*
X192788387Y-111430079D01*
X192809457Y-111440044D01*
X192829448Y-111452026D01*
X192848168Y-111465910D01*
X192865438Y-111481562D01*
X192881090Y-111498832D01*
X192894974Y-111517552D01*
X192906956Y-111537543D01*
X192916921Y-111558613D01*
X192924773Y-111580557D01*
X192930437Y-111603166D01*
X192933856Y-111626221D01*
X192935000Y-111649500D01*
X192935000Y-112124500D01*
X192933856Y-112147779D01*
X192930437Y-112170834D01*
X192924773Y-112193443D01*
X192916921Y-112215387D01*
X192906956Y-112236457D01*
X192894974Y-112256448D01*
X192881090Y-112275168D01*
X192865438Y-112292438D01*
X192848168Y-112308090D01*
X192829448Y-112321974D01*
X192809457Y-112333956D01*
X192788387Y-112343921D01*
X192766443Y-112351773D01*
X192743834Y-112357437D01*
X192720779Y-112360856D01*
X192697500Y-112362000D01*
X192122500Y-112362000D01*
X192099221Y-112360856D01*
X192076166Y-112357437D01*
X192053557Y-112351773D01*
X192031613Y-112343921D01*
X192010543Y-112333956D01*
X191990552Y-112321974D01*
X191971832Y-112308090D01*
X191954562Y-112292438D01*
X191938910Y-112275168D01*
X191925026Y-112256448D01*
X191913044Y-112236457D01*
X191903079Y-112215387D01*
X191895227Y-112193443D01*
X191889563Y-112170834D01*
X191886144Y-112147779D01*
X191885000Y-112124500D01*
X191885000Y-111649500D01*
X191886144Y-111626221D01*
X191889563Y-111603166D01*
X191895227Y-111580557D01*
X191903079Y-111558613D01*
X191913044Y-111537543D01*
X191925026Y-111517552D01*
X191938910Y-111498832D01*
X191954562Y-111481562D01*
X191971832Y-111465910D01*
X191990552Y-111452026D01*
X192010543Y-111440044D01*
X192031613Y-111430079D01*
X192053557Y-111422227D01*
X192076166Y-111416563D01*
X192099221Y-111413144D01*
X192122500Y-111412000D01*
X192697500Y-111412000D01*
X192720779Y-111413144D01*
X192720779Y-111413144D01*
G37*
D24*
X192410000Y-111887000D03*
D15*
G36*
X194488779Y-108873144D02*
X194511834Y-108876563D01*
X194534443Y-108882227D01*
X194556387Y-108890079D01*
X194577457Y-108900044D01*
X194597448Y-108912026D01*
X194616168Y-108925910D01*
X194633438Y-108941562D01*
X194649090Y-108958832D01*
X194662974Y-108977552D01*
X194674956Y-108997543D01*
X194684921Y-109018613D01*
X194692773Y-109040557D01*
X194698437Y-109063166D01*
X194701856Y-109086221D01*
X194703000Y-109109500D01*
X194703000Y-109584500D01*
X194701856Y-109607779D01*
X194698437Y-109630834D01*
X194692773Y-109653443D01*
X194684921Y-109675387D01*
X194674956Y-109696457D01*
X194662974Y-109716448D01*
X194649090Y-109735168D01*
X194633438Y-109752438D01*
X194616168Y-109768090D01*
X194597448Y-109781974D01*
X194577457Y-109793956D01*
X194556387Y-109803921D01*
X194534443Y-109811773D01*
X194511834Y-109817437D01*
X194488779Y-109820856D01*
X194465500Y-109822000D01*
X193890500Y-109822000D01*
X193867221Y-109820856D01*
X193844166Y-109817437D01*
X193821557Y-109811773D01*
X193799613Y-109803921D01*
X193778543Y-109793956D01*
X193758552Y-109781974D01*
X193739832Y-109768090D01*
X193722562Y-109752438D01*
X193706910Y-109735168D01*
X193693026Y-109716448D01*
X193681044Y-109696457D01*
X193671079Y-109675387D01*
X193663227Y-109653443D01*
X193657563Y-109630834D01*
X193654144Y-109607779D01*
X193653000Y-109584500D01*
X193653000Y-109109500D01*
X193654144Y-109086221D01*
X193657563Y-109063166D01*
X193663227Y-109040557D01*
X193671079Y-109018613D01*
X193681044Y-108997543D01*
X193693026Y-108977552D01*
X193706910Y-108958832D01*
X193722562Y-108941562D01*
X193739832Y-108925910D01*
X193758552Y-108912026D01*
X193778543Y-108900044D01*
X193799613Y-108890079D01*
X193821557Y-108882227D01*
X193844166Y-108876563D01*
X193867221Y-108873144D01*
X193890500Y-108872000D01*
X194465500Y-108872000D01*
X194488779Y-108873144D01*
X194488779Y-108873144D01*
G37*
D24*
X194178000Y-109347000D03*
D15*
G36*
X192738779Y-108873144D02*
X192761834Y-108876563D01*
X192784443Y-108882227D01*
X192806387Y-108890079D01*
X192827457Y-108900044D01*
X192847448Y-108912026D01*
X192866168Y-108925910D01*
X192883438Y-108941562D01*
X192899090Y-108958832D01*
X192912974Y-108977552D01*
X192924956Y-108997543D01*
X192934921Y-109018613D01*
X192942773Y-109040557D01*
X192948437Y-109063166D01*
X192951856Y-109086221D01*
X192953000Y-109109500D01*
X192953000Y-109584500D01*
X192951856Y-109607779D01*
X192948437Y-109630834D01*
X192942773Y-109653443D01*
X192934921Y-109675387D01*
X192924956Y-109696457D01*
X192912974Y-109716448D01*
X192899090Y-109735168D01*
X192883438Y-109752438D01*
X192866168Y-109768090D01*
X192847448Y-109781974D01*
X192827457Y-109793956D01*
X192806387Y-109803921D01*
X192784443Y-109811773D01*
X192761834Y-109817437D01*
X192738779Y-109820856D01*
X192715500Y-109822000D01*
X192140500Y-109822000D01*
X192117221Y-109820856D01*
X192094166Y-109817437D01*
X192071557Y-109811773D01*
X192049613Y-109803921D01*
X192028543Y-109793956D01*
X192008552Y-109781974D01*
X191989832Y-109768090D01*
X191972562Y-109752438D01*
X191956910Y-109735168D01*
X191943026Y-109716448D01*
X191931044Y-109696457D01*
X191921079Y-109675387D01*
X191913227Y-109653443D01*
X191907563Y-109630834D01*
X191904144Y-109607779D01*
X191903000Y-109584500D01*
X191903000Y-109109500D01*
X191904144Y-109086221D01*
X191907563Y-109063166D01*
X191913227Y-109040557D01*
X191921079Y-109018613D01*
X191931044Y-108997543D01*
X191943026Y-108977552D01*
X191956910Y-108958832D01*
X191972562Y-108941562D01*
X191989832Y-108925910D01*
X192008552Y-108912026D01*
X192028543Y-108900044D01*
X192049613Y-108890079D01*
X192071557Y-108882227D01*
X192094166Y-108876563D01*
X192117221Y-108873144D01*
X192140500Y-108872000D01*
X192715500Y-108872000D01*
X192738779Y-108873144D01*
X192738779Y-108873144D01*
G37*
D24*
X192428000Y-109347000D03*
D15*
G36*
X194470779Y-122589144D02*
X194493834Y-122592563D01*
X194516443Y-122598227D01*
X194538387Y-122606079D01*
X194559457Y-122616044D01*
X194579448Y-122628026D01*
X194598168Y-122641910D01*
X194615438Y-122657562D01*
X194631090Y-122674832D01*
X194644974Y-122693552D01*
X194656956Y-122713543D01*
X194666921Y-122734613D01*
X194674773Y-122756557D01*
X194680437Y-122779166D01*
X194683856Y-122802221D01*
X194685000Y-122825500D01*
X194685000Y-123300500D01*
X194683856Y-123323779D01*
X194680437Y-123346834D01*
X194674773Y-123369443D01*
X194666921Y-123391387D01*
X194656956Y-123412457D01*
X194644974Y-123432448D01*
X194631090Y-123451168D01*
X194615438Y-123468438D01*
X194598168Y-123484090D01*
X194579448Y-123497974D01*
X194559457Y-123509956D01*
X194538387Y-123519921D01*
X194516443Y-123527773D01*
X194493834Y-123533437D01*
X194470779Y-123536856D01*
X194447500Y-123538000D01*
X193872500Y-123538000D01*
X193849221Y-123536856D01*
X193826166Y-123533437D01*
X193803557Y-123527773D01*
X193781613Y-123519921D01*
X193760543Y-123509956D01*
X193740552Y-123497974D01*
X193721832Y-123484090D01*
X193704562Y-123468438D01*
X193688910Y-123451168D01*
X193675026Y-123432448D01*
X193663044Y-123412457D01*
X193653079Y-123391387D01*
X193645227Y-123369443D01*
X193639563Y-123346834D01*
X193636144Y-123323779D01*
X193635000Y-123300500D01*
X193635000Y-122825500D01*
X193636144Y-122802221D01*
X193639563Y-122779166D01*
X193645227Y-122756557D01*
X193653079Y-122734613D01*
X193663044Y-122713543D01*
X193675026Y-122693552D01*
X193688910Y-122674832D01*
X193704562Y-122657562D01*
X193721832Y-122641910D01*
X193740552Y-122628026D01*
X193760543Y-122616044D01*
X193781613Y-122606079D01*
X193803557Y-122598227D01*
X193826166Y-122592563D01*
X193849221Y-122589144D01*
X193872500Y-122588000D01*
X194447500Y-122588000D01*
X194470779Y-122589144D01*
X194470779Y-122589144D01*
G37*
D24*
X194160000Y-123063000D03*
D15*
G36*
X192720779Y-122589144D02*
X192743834Y-122592563D01*
X192766443Y-122598227D01*
X192788387Y-122606079D01*
X192809457Y-122616044D01*
X192829448Y-122628026D01*
X192848168Y-122641910D01*
X192865438Y-122657562D01*
X192881090Y-122674832D01*
X192894974Y-122693552D01*
X192906956Y-122713543D01*
X192916921Y-122734613D01*
X192924773Y-122756557D01*
X192930437Y-122779166D01*
X192933856Y-122802221D01*
X192935000Y-122825500D01*
X192935000Y-123300500D01*
X192933856Y-123323779D01*
X192930437Y-123346834D01*
X192924773Y-123369443D01*
X192916921Y-123391387D01*
X192906956Y-123412457D01*
X192894974Y-123432448D01*
X192881090Y-123451168D01*
X192865438Y-123468438D01*
X192848168Y-123484090D01*
X192829448Y-123497974D01*
X192809457Y-123509956D01*
X192788387Y-123519921D01*
X192766443Y-123527773D01*
X192743834Y-123533437D01*
X192720779Y-123536856D01*
X192697500Y-123538000D01*
X192122500Y-123538000D01*
X192099221Y-123536856D01*
X192076166Y-123533437D01*
X192053557Y-123527773D01*
X192031613Y-123519921D01*
X192010543Y-123509956D01*
X191990552Y-123497974D01*
X191971832Y-123484090D01*
X191954562Y-123468438D01*
X191938910Y-123451168D01*
X191925026Y-123432448D01*
X191913044Y-123412457D01*
X191903079Y-123391387D01*
X191895227Y-123369443D01*
X191889563Y-123346834D01*
X191886144Y-123323779D01*
X191885000Y-123300500D01*
X191885000Y-122825500D01*
X191886144Y-122802221D01*
X191889563Y-122779166D01*
X191895227Y-122756557D01*
X191903079Y-122734613D01*
X191913044Y-122713543D01*
X191925026Y-122693552D01*
X191938910Y-122674832D01*
X191954562Y-122657562D01*
X191971832Y-122641910D01*
X191990552Y-122628026D01*
X192010543Y-122616044D01*
X192031613Y-122606079D01*
X192053557Y-122598227D01*
X192076166Y-122592563D01*
X192099221Y-122589144D01*
X192122500Y-122588000D01*
X192697500Y-122588000D01*
X192720779Y-122589144D01*
X192720779Y-122589144D01*
G37*
D24*
X192410000Y-123063000D03*
D15*
G36*
X168154779Y-82656144D02*
X168177834Y-82659563D01*
X168200443Y-82665227D01*
X168222387Y-82673079D01*
X168243457Y-82683044D01*
X168263448Y-82695026D01*
X168282168Y-82708910D01*
X168299438Y-82724562D01*
X168315090Y-82741832D01*
X168328974Y-82760552D01*
X168340956Y-82780543D01*
X168350921Y-82801613D01*
X168358773Y-82823557D01*
X168364437Y-82846166D01*
X168367856Y-82869221D01*
X168369000Y-82892500D01*
X168369000Y-83467500D01*
X168367856Y-83490779D01*
X168364437Y-83513834D01*
X168358773Y-83536443D01*
X168350921Y-83558387D01*
X168340956Y-83579457D01*
X168328974Y-83599448D01*
X168315090Y-83618168D01*
X168299438Y-83635438D01*
X168282168Y-83651090D01*
X168263448Y-83664974D01*
X168243457Y-83676956D01*
X168222387Y-83686921D01*
X168200443Y-83694773D01*
X168177834Y-83700437D01*
X168154779Y-83703856D01*
X168131500Y-83705000D01*
X167656500Y-83705000D01*
X167633221Y-83703856D01*
X167610166Y-83700437D01*
X167587557Y-83694773D01*
X167565613Y-83686921D01*
X167544543Y-83676956D01*
X167524552Y-83664974D01*
X167505832Y-83651090D01*
X167488562Y-83635438D01*
X167472910Y-83618168D01*
X167459026Y-83599448D01*
X167447044Y-83579457D01*
X167437079Y-83558387D01*
X167429227Y-83536443D01*
X167423563Y-83513834D01*
X167420144Y-83490779D01*
X167419000Y-83467500D01*
X167419000Y-82892500D01*
X167420144Y-82869221D01*
X167423563Y-82846166D01*
X167429227Y-82823557D01*
X167437079Y-82801613D01*
X167447044Y-82780543D01*
X167459026Y-82760552D01*
X167472910Y-82741832D01*
X167488562Y-82724562D01*
X167505832Y-82708910D01*
X167524552Y-82695026D01*
X167544543Y-82683044D01*
X167565613Y-82673079D01*
X167587557Y-82665227D01*
X167610166Y-82659563D01*
X167633221Y-82656144D01*
X167656500Y-82655000D01*
X168131500Y-82655000D01*
X168154779Y-82656144D01*
X168154779Y-82656144D01*
G37*
D24*
X167894000Y-83180000D03*
D15*
G36*
X168154779Y-80906144D02*
X168177834Y-80909563D01*
X168200443Y-80915227D01*
X168222387Y-80923079D01*
X168243457Y-80933044D01*
X168263448Y-80945026D01*
X168282168Y-80958910D01*
X168299438Y-80974562D01*
X168315090Y-80991832D01*
X168328974Y-81010552D01*
X168340956Y-81030543D01*
X168350921Y-81051613D01*
X168358773Y-81073557D01*
X168364437Y-81096166D01*
X168367856Y-81119221D01*
X168369000Y-81142500D01*
X168369000Y-81717500D01*
X168367856Y-81740779D01*
X168364437Y-81763834D01*
X168358773Y-81786443D01*
X168350921Y-81808387D01*
X168340956Y-81829457D01*
X168328974Y-81849448D01*
X168315090Y-81868168D01*
X168299438Y-81885438D01*
X168282168Y-81901090D01*
X168263448Y-81914974D01*
X168243457Y-81926956D01*
X168222387Y-81936921D01*
X168200443Y-81944773D01*
X168177834Y-81950437D01*
X168154779Y-81953856D01*
X168131500Y-81955000D01*
X167656500Y-81955000D01*
X167633221Y-81953856D01*
X167610166Y-81950437D01*
X167587557Y-81944773D01*
X167565613Y-81936921D01*
X167544543Y-81926956D01*
X167524552Y-81914974D01*
X167505832Y-81901090D01*
X167488562Y-81885438D01*
X167472910Y-81868168D01*
X167459026Y-81849448D01*
X167447044Y-81829457D01*
X167437079Y-81808387D01*
X167429227Y-81786443D01*
X167423563Y-81763834D01*
X167420144Y-81740779D01*
X167419000Y-81717500D01*
X167419000Y-81142500D01*
X167420144Y-81119221D01*
X167423563Y-81096166D01*
X167429227Y-81073557D01*
X167437079Y-81051613D01*
X167447044Y-81030543D01*
X167459026Y-81010552D01*
X167472910Y-80991832D01*
X167488562Y-80974562D01*
X167505832Y-80958910D01*
X167524552Y-80945026D01*
X167544543Y-80933044D01*
X167565613Y-80923079D01*
X167587557Y-80915227D01*
X167610166Y-80909563D01*
X167633221Y-80906144D01*
X167656500Y-80905000D01*
X168131500Y-80905000D01*
X168154779Y-80906144D01*
X168154779Y-80906144D01*
G37*
D24*
X167894000Y-81430000D03*
D15*
G36*
X195586779Y-102468144D02*
X195609834Y-102471563D01*
X195632443Y-102477227D01*
X195654387Y-102485079D01*
X195675457Y-102495044D01*
X195695448Y-102507026D01*
X195714168Y-102520910D01*
X195731438Y-102536562D01*
X195747090Y-102553832D01*
X195760974Y-102572552D01*
X195772956Y-102592543D01*
X195782921Y-102613613D01*
X195790773Y-102635557D01*
X195796437Y-102658166D01*
X195799856Y-102681221D01*
X195801000Y-102704500D01*
X195801000Y-103279500D01*
X195799856Y-103302779D01*
X195796437Y-103325834D01*
X195790773Y-103348443D01*
X195782921Y-103370387D01*
X195772956Y-103391457D01*
X195760974Y-103411448D01*
X195747090Y-103430168D01*
X195731438Y-103447438D01*
X195714168Y-103463090D01*
X195695448Y-103476974D01*
X195675457Y-103488956D01*
X195654387Y-103498921D01*
X195632443Y-103506773D01*
X195609834Y-103512437D01*
X195586779Y-103515856D01*
X195563500Y-103517000D01*
X195088500Y-103517000D01*
X195065221Y-103515856D01*
X195042166Y-103512437D01*
X195019557Y-103506773D01*
X194997613Y-103498921D01*
X194976543Y-103488956D01*
X194956552Y-103476974D01*
X194937832Y-103463090D01*
X194920562Y-103447438D01*
X194904910Y-103430168D01*
X194891026Y-103411448D01*
X194879044Y-103391457D01*
X194869079Y-103370387D01*
X194861227Y-103348443D01*
X194855563Y-103325834D01*
X194852144Y-103302779D01*
X194851000Y-103279500D01*
X194851000Y-102704500D01*
X194852144Y-102681221D01*
X194855563Y-102658166D01*
X194861227Y-102635557D01*
X194869079Y-102613613D01*
X194879044Y-102592543D01*
X194891026Y-102572552D01*
X194904910Y-102553832D01*
X194920562Y-102536562D01*
X194937832Y-102520910D01*
X194956552Y-102507026D01*
X194976543Y-102495044D01*
X194997613Y-102485079D01*
X195019557Y-102477227D01*
X195042166Y-102471563D01*
X195065221Y-102468144D01*
X195088500Y-102467000D01*
X195563500Y-102467000D01*
X195586779Y-102468144D01*
X195586779Y-102468144D01*
G37*
D24*
X195326000Y-102992000D03*
D15*
G36*
X195586779Y-100718144D02*
X195609834Y-100721563D01*
X195632443Y-100727227D01*
X195654387Y-100735079D01*
X195675457Y-100745044D01*
X195695448Y-100757026D01*
X195714168Y-100770910D01*
X195731438Y-100786562D01*
X195747090Y-100803832D01*
X195760974Y-100822552D01*
X195772956Y-100842543D01*
X195782921Y-100863613D01*
X195790773Y-100885557D01*
X195796437Y-100908166D01*
X195799856Y-100931221D01*
X195801000Y-100954500D01*
X195801000Y-101529500D01*
X195799856Y-101552779D01*
X195796437Y-101575834D01*
X195790773Y-101598443D01*
X195782921Y-101620387D01*
X195772956Y-101641457D01*
X195760974Y-101661448D01*
X195747090Y-101680168D01*
X195731438Y-101697438D01*
X195714168Y-101713090D01*
X195695448Y-101726974D01*
X195675457Y-101738956D01*
X195654387Y-101748921D01*
X195632443Y-101756773D01*
X195609834Y-101762437D01*
X195586779Y-101765856D01*
X195563500Y-101767000D01*
X195088500Y-101767000D01*
X195065221Y-101765856D01*
X195042166Y-101762437D01*
X195019557Y-101756773D01*
X194997613Y-101748921D01*
X194976543Y-101738956D01*
X194956552Y-101726974D01*
X194937832Y-101713090D01*
X194920562Y-101697438D01*
X194904910Y-101680168D01*
X194891026Y-101661448D01*
X194879044Y-101641457D01*
X194869079Y-101620387D01*
X194861227Y-101598443D01*
X194855563Y-101575834D01*
X194852144Y-101552779D01*
X194851000Y-101529500D01*
X194851000Y-100954500D01*
X194852144Y-100931221D01*
X194855563Y-100908166D01*
X194861227Y-100885557D01*
X194869079Y-100863613D01*
X194879044Y-100842543D01*
X194891026Y-100822552D01*
X194904910Y-100803832D01*
X194920562Y-100786562D01*
X194937832Y-100770910D01*
X194956552Y-100757026D01*
X194976543Y-100745044D01*
X194997613Y-100735079D01*
X195019557Y-100727227D01*
X195042166Y-100721563D01*
X195065221Y-100718144D01*
X195088500Y-100717000D01*
X195563500Y-100717000D01*
X195586779Y-100718144D01*
X195586779Y-100718144D01*
G37*
D24*
X195326000Y-101242000D03*
D15*
G36*
X159772779Y-58409144D02*
X159795834Y-58412563D01*
X159818443Y-58418227D01*
X159840387Y-58426079D01*
X159861457Y-58436044D01*
X159881448Y-58448026D01*
X159900168Y-58461910D01*
X159917438Y-58477562D01*
X159933090Y-58494832D01*
X159946974Y-58513552D01*
X159958956Y-58533543D01*
X159968921Y-58554613D01*
X159976773Y-58576557D01*
X159982437Y-58599166D01*
X159985856Y-58622221D01*
X159987000Y-58645500D01*
X159987000Y-59220500D01*
X159985856Y-59243779D01*
X159982437Y-59266834D01*
X159976773Y-59289443D01*
X159968921Y-59311387D01*
X159958956Y-59332457D01*
X159946974Y-59352448D01*
X159933090Y-59371168D01*
X159917438Y-59388438D01*
X159900168Y-59404090D01*
X159881448Y-59417974D01*
X159861457Y-59429956D01*
X159840387Y-59439921D01*
X159818443Y-59447773D01*
X159795834Y-59453437D01*
X159772779Y-59456856D01*
X159749500Y-59458000D01*
X159274500Y-59458000D01*
X159251221Y-59456856D01*
X159228166Y-59453437D01*
X159205557Y-59447773D01*
X159183613Y-59439921D01*
X159162543Y-59429956D01*
X159142552Y-59417974D01*
X159123832Y-59404090D01*
X159106562Y-59388438D01*
X159090910Y-59371168D01*
X159077026Y-59352448D01*
X159065044Y-59332457D01*
X159055079Y-59311387D01*
X159047227Y-59289443D01*
X159041563Y-59266834D01*
X159038144Y-59243779D01*
X159037000Y-59220500D01*
X159037000Y-58645500D01*
X159038144Y-58622221D01*
X159041563Y-58599166D01*
X159047227Y-58576557D01*
X159055079Y-58554613D01*
X159065044Y-58533543D01*
X159077026Y-58513552D01*
X159090910Y-58494832D01*
X159106562Y-58477562D01*
X159123832Y-58461910D01*
X159142552Y-58448026D01*
X159162543Y-58436044D01*
X159183613Y-58426079D01*
X159205557Y-58418227D01*
X159228166Y-58412563D01*
X159251221Y-58409144D01*
X159274500Y-58408000D01*
X159749500Y-58408000D01*
X159772779Y-58409144D01*
X159772779Y-58409144D01*
G37*
D24*
X159512000Y-58933000D03*
D15*
G36*
X159772779Y-60159144D02*
X159795834Y-60162563D01*
X159818443Y-60168227D01*
X159840387Y-60176079D01*
X159861457Y-60186044D01*
X159881448Y-60198026D01*
X159900168Y-60211910D01*
X159917438Y-60227562D01*
X159933090Y-60244832D01*
X159946974Y-60263552D01*
X159958956Y-60283543D01*
X159968921Y-60304613D01*
X159976773Y-60326557D01*
X159982437Y-60349166D01*
X159985856Y-60372221D01*
X159987000Y-60395500D01*
X159987000Y-60970500D01*
X159985856Y-60993779D01*
X159982437Y-61016834D01*
X159976773Y-61039443D01*
X159968921Y-61061387D01*
X159958956Y-61082457D01*
X159946974Y-61102448D01*
X159933090Y-61121168D01*
X159917438Y-61138438D01*
X159900168Y-61154090D01*
X159881448Y-61167974D01*
X159861457Y-61179956D01*
X159840387Y-61189921D01*
X159818443Y-61197773D01*
X159795834Y-61203437D01*
X159772779Y-61206856D01*
X159749500Y-61208000D01*
X159274500Y-61208000D01*
X159251221Y-61206856D01*
X159228166Y-61203437D01*
X159205557Y-61197773D01*
X159183613Y-61189921D01*
X159162543Y-61179956D01*
X159142552Y-61167974D01*
X159123832Y-61154090D01*
X159106562Y-61138438D01*
X159090910Y-61121168D01*
X159077026Y-61102448D01*
X159065044Y-61082457D01*
X159055079Y-61061387D01*
X159047227Y-61039443D01*
X159041563Y-61016834D01*
X159038144Y-60993779D01*
X159037000Y-60970500D01*
X159037000Y-60395500D01*
X159038144Y-60372221D01*
X159041563Y-60349166D01*
X159047227Y-60326557D01*
X159055079Y-60304613D01*
X159065044Y-60283543D01*
X159077026Y-60263552D01*
X159090910Y-60244832D01*
X159106562Y-60227562D01*
X159123832Y-60211910D01*
X159142552Y-60198026D01*
X159162543Y-60186044D01*
X159183613Y-60176079D01*
X159205557Y-60168227D01*
X159228166Y-60162563D01*
X159251221Y-60159144D01*
X159274500Y-60158000D01*
X159749500Y-60158000D01*
X159772779Y-60159144D01*
X159772779Y-60159144D01*
G37*
D24*
X159512000Y-60683000D03*
D15*
G36*
X156624779Y-111286144D02*
X156647834Y-111289563D01*
X156670443Y-111295227D01*
X156692387Y-111303079D01*
X156713457Y-111313044D01*
X156733448Y-111325026D01*
X156752168Y-111338910D01*
X156769438Y-111354562D01*
X156785090Y-111371832D01*
X156798974Y-111390552D01*
X156810956Y-111410543D01*
X156820921Y-111431613D01*
X156828773Y-111453557D01*
X156834437Y-111476166D01*
X156837856Y-111499221D01*
X156839000Y-111522500D01*
X156839000Y-111997500D01*
X156837856Y-112020779D01*
X156834437Y-112043834D01*
X156828773Y-112066443D01*
X156820921Y-112088387D01*
X156810956Y-112109457D01*
X156798974Y-112129448D01*
X156785090Y-112148168D01*
X156769438Y-112165438D01*
X156752168Y-112181090D01*
X156733448Y-112194974D01*
X156713457Y-112206956D01*
X156692387Y-112216921D01*
X156670443Y-112224773D01*
X156647834Y-112230437D01*
X156624779Y-112233856D01*
X156601500Y-112235000D01*
X156026500Y-112235000D01*
X156003221Y-112233856D01*
X155980166Y-112230437D01*
X155957557Y-112224773D01*
X155935613Y-112216921D01*
X155914543Y-112206956D01*
X155894552Y-112194974D01*
X155875832Y-112181090D01*
X155858562Y-112165438D01*
X155842910Y-112148168D01*
X155829026Y-112129448D01*
X155817044Y-112109457D01*
X155807079Y-112088387D01*
X155799227Y-112066443D01*
X155793563Y-112043834D01*
X155790144Y-112020779D01*
X155789000Y-111997500D01*
X155789000Y-111522500D01*
X155790144Y-111499221D01*
X155793563Y-111476166D01*
X155799227Y-111453557D01*
X155807079Y-111431613D01*
X155817044Y-111410543D01*
X155829026Y-111390552D01*
X155842910Y-111371832D01*
X155858562Y-111354562D01*
X155875832Y-111338910D01*
X155894552Y-111325026D01*
X155914543Y-111313044D01*
X155935613Y-111303079D01*
X155957557Y-111295227D01*
X155980166Y-111289563D01*
X156003221Y-111286144D01*
X156026500Y-111285000D01*
X156601500Y-111285000D01*
X156624779Y-111286144D01*
X156624779Y-111286144D01*
G37*
D24*
X156314000Y-111760000D03*
D15*
G36*
X154874779Y-111286144D02*
X154897834Y-111289563D01*
X154920443Y-111295227D01*
X154942387Y-111303079D01*
X154963457Y-111313044D01*
X154983448Y-111325026D01*
X155002168Y-111338910D01*
X155019438Y-111354562D01*
X155035090Y-111371832D01*
X155048974Y-111390552D01*
X155060956Y-111410543D01*
X155070921Y-111431613D01*
X155078773Y-111453557D01*
X155084437Y-111476166D01*
X155087856Y-111499221D01*
X155089000Y-111522500D01*
X155089000Y-111997500D01*
X155087856Y-112020779D01*
X155084437Y-112043834D01*
X155078773Y-112066443D01*
X155070921Y-112088387D01*
X155060956Y-112109457D01*
X155048974Y-112129448D01*
X155035090Y-112148168D01*
X155019438Y-112165438D01*
X155002168Y-112181090D01*
X154983448Y-112194974D01*
X154963457Y-112206956D01*
X154942387Y-112216921D01*
X154920443Y-112224773D01*
X154897834Y-112230437D01*
X154874779Y-112233856D01*
X154851500Y-112235000D01*
X154276500Y-112235000D01*
X154253221Y-112233856D01*
X154230166Y-112230437D01*
X154207557Y-112224773D01*
X154185613Y-112216921D01*
X154164543Y-112206956D01*
X154144552Y-112194974D01*
X154125832Y-112181090D01*
X154108562Y-112165438D01*
X154092910Y-112148168D01*
X154079026Y-112129448D01*
X154067044Y-112109457D01*
X154057079Y-112088387D01*
X154049227Y-112066443D01*
X154043563Y-112043834D01*
X154040144Y-112020779D01*
X154039000Y-111997500D01*
X154039000Y-111522500D01*
X154040144Y-111499221D01*
X154043563Y-111476166D01*
X154049227Y-111453557D01*
X154057079Y-111431613D01*
X154067044Y-111410543D01*
X154079026Y-111390552D01*
X154092910Y-111371832D01*
X154108562Y-111354562D01*
X154125832Y-111338910D01*
X154144552Y-111325026D01*
X154164543Y-111313044D01*
X154185613Y-111303079D01*
X154207557Y-111295227D01*
X154230166Y-111289563D01*
X154253221Y-111286144D01*
X154276500Y-111285000D01*
X154851500Y-111285000D01*
X154874779Y-111286144D01*
X154874779Y-111286144D01*
G37*
D24*
X154564000Y-111760000D03*
D15*
G36*
X174758779Y-107530144D02*
X174781834Y-107533563D01*
X174804443Y-107539227D01*
X174826387Y-107547079D01*
X174847457Y-107557044D01*
X174867448Y-107569026D01*
X174886168Y-107582910D01*
X174903438Y-107598562D01*
X174919090Y-107615832D01*
X174932974Y-107634552D01*
X174944956Y-107654543D01*
X174954921Y-107675613D01*
X174962773Y-107697557D01*
X174968437Y-107720166D01*
X174971856Y-107743221D01*
X174973000Y-107766500D01*
X174973000Y-108341500D01*
X174971856Y-108364779D01*
X174968437Y-108387834D01*
X174962773Y-108410443D01*
X174954921Y-108432387D01*
X174944956Y-108453457D01*
X174932974Y-108473448D01*
X174919090Y-108492168D01*
X174903438Y-108509438D01*
X174886168Y-108525090D01*
X174867448Y-108538974D01*
X174847457Y-108550956D01*
X174826387Y-108560921D01*
X174804443Y-108568773D01*
X174781834Y-108574437D01*
X174758779Y-108577856D01*
X174735500Y-108579000D01*
X174260500Y-108579000D01*
X174237221Y-108577856D01*
X174214166Y-108574437D01*
X174191557Y-108568773D01*
X174169613Y-108560921D01*
X174148543Y-108550956D01*
X174128552Y-108538974D01*
X174109832Y-108525090D01*
X174092562Y-108509438D01*
X174076910Y-108492168D01*
X174063026Y-108473448D01*
X174051044Y-108453457D01*
X174041079Y-108432387D01*
X174033227Y-108410443D01*
X174027563Y-108387834D01*
X174024144Y-108364779D01*
X174023000Y-108341500D01*
X174023000Y-107766500D01*
X174024144Y-107743221D01*
X174027563Y-107720166D01*
X174033227Y-107697557D01*
X174041079Y-107675613D01*
X174051044Y-107654543D01*
X174063026Y-107634552D01*
X174076910Y-107615832D01*
X174092562Y-107598562D01*
X174109832Y-107582910D01*
X174128552Y-107569026D01*
X174148543Y-107557044D01*
X174169613Y-107547079D01*
X174191557Y-107539227D01*
X174214166Y-107533563D01*
X174237221Y-107530144D01*
X174260500Y-107529000D01*
X174735500Y-107529000D01*
X174758779Y-107530144D01*
X174758779Y-107530144D01*
G37*
D24*
X174498000Y-108054000D03*
D15*
G36*
X174758779Y-105780144D02*
X174781834Y-105783563D01*
X174804443Y-105789227D01*
X174826387Y-105797079D01*
X174847457Y-105807044D01*
X174867448Y-105819026D01*
X174886168Y-105832910D01*
X174903438Y-105848562D01*
X174919090Y-105865832D01*
X174932974Y-105884552D01*
X174944956Y-105904543D01*
X174954921Y-105925613D01*
X174962773Y-105947557D01*
X174968437Y-105970166D01*
X174971856Y-105993221D01*
X174973000Y-106016500D01*
X174973000Y-106591500D01*
X174971856Y-106614779D01*
X174968437Y-106637834D01*
X174962773Y-106660443D01*
X174954921Y-106682387D01*
X174944956Y-106703457D01*
X174932974Y-106723448D01*
X174919090Y-106742168D01*
X174903438Y-106759438D01*
X174886168Y-106775090D01*
X174867448Y-106788974D01*
X174847457Y-106800956D01*
X174826387Y-106810921D01*
X174804443Y-106818773D01*
X174781834Y-106824437D01*
X174758779Y-106827856D01*
X174735500Y-106829000D01*
X174260500Y-106829000D01*
X174237221Y-106827856D01*
X174214166Y-106824437D01*
X174191557Y-106818773D01*
X174169613Y-106810921D01*
X174148543Y-106800956D01*
X174128552Y-106788974D01*
X174109832Y-106775090D01*
X174092562Y-106759438D01*
X174076910Y-106742168D01*
X174063026Y-106723448D01*
X174051044Y-106703457D01*
X174041079Y-106682387D01*
X174033227Y-106660443D01*
X174027563Y-106637834D01*
X174024144Y-106614779D01*
X174023000Y-106591500D01*
X174023000Y-106016500D01*
X174024144Y-105993221D01*
X174027563Y-105970166D01*
X174033227Y-105947557D01*
X174041079Y-105925613D01*
X174051044Y-105904543D01*
X174063026Y-105884552D01*
X174076910Y-105865832D01*
X174092562Y-105848562D01*
X174109832Y-105832910D01*
X174128552Y-105819026D01*
X174148543Y-105807044D01*
X174169613Y-105797079D01*
X174191557Y-105789227D01*
X174214166Y-105783563D01*
X174237221Y-105780144D01*
X174260500Y-105779000D01*
X174735500Y-105779000D01*
X174758779Y-105780144D01*
X174758779Y-105780144D01*
G37*
D24*
X174498000Y-106304000D03*
D15*
G36*
X172472779Y-107530144D02*
X172495834Y-107533563D01*
X172518443Y-107539227D01*
X172540387Y-107547079D01*
X172561457Y-107557044D01*
X172581448Y-107569026D01*
X172600168Y-107582910D01*
X172617438Y-107598562D01*
X172633090Y-107615832D01*
X172646974Y-107634552D01*
X172658956Y-107654543D01*
X172668921Y-107675613D01*
X172676773Y-107697557D01*
X172682437Y-107720166D01*
X172685856Y-107743221D01*
X172687000Y-107766500D01*
X172687000Y-108341500D01*
X172685856Y-108364779D01*
X172682437Y-108387834D01*
X172676773Y-108410443D01*
X172668921Y-108432387D01*
X172658956Y-108453457D01*
X172646974Y-108473448D01*
X172633090Y-108492168D01*
X172617438Y-108509438D01*
X172600168Y-108525090D01*
X172581448Y-108538974D01*
X172561457Y-108550956D01*
X172540387Y-108560921D01*
X172518443Y-108568773D01*
X172495834Y-108574437D01*
X172472779Y-108577856D01*
X172449500Y-108579000D01*
X171974500Y-108579000D01*
X171951221Y-108577856D01*
X171928166Y-108574437D01*
X171905557Y-108568773D01*
X171883613Y-108560921D01*
X171862543Y-108550956D01*
X171842552Y-108538974D01*
X171823832Y-108525090D01*
X171806562Y-108509438D01*
X171790910Y-108492168D01*
X171777026Y-108473448D01*
X171765044Y-108453457D01*
X171755079Y-108432387D01*
X171747227Y-108410443D01*
X171741563Y-108387834D01*
X171738144Y-108364779D01*
X171737000Y-108341500D01*
X171737000Y-107766500D01*
X171738144Y-107743221D01*
X171741563Y-107720166D01*
X171747227Y-107697557D01*
X171755079Y-107675613D01*
X171765044Y-107654543D01*
X171777026Y-107634552D01*
X171790910Y-107615832D01*
X171806562Y-107598562D01*
X171823832Y-107582910D01*
X171842552Y-107569026D01*
X171862543Y-107557044D01*
X171883613Y-107547079D01*
X171905557Y-107539227D01*
X171928166Y-107533563D01*
X171951221Y-107530144D01*
X171974500Y-107529000D01*
X172449500Y-107529000D01*
X172472779Y-107530144D01*
X172472779Y-107530144D01*
G37*
D24*
X172212000Y-108054000D03*
D15*
G36*
X172472779Y-105780144D02*
X172495834Y-105783563D01*
X172518443Y-105789227D01*
X172540387Y-105797079D01*
X172561457Y-105807044D01*
X172581448Y-105819026D01*
X172600168Y-105832910D01*
X172617438Y-105848562D01*
X172633090Y-105865832D01*
X172646974Y-105884552D01*
X172658956Y-105904543D01*
X172668921Y-105925613D01*
X172676773Y-105947557D01*
X172682437Y-105970166D01*
X172685856Y-105993221D01*
X172687000Y-106016500D01*
X172687000Y-106591500D01*
X172685856Y-106614779D01*
X172682437Y-106637834D01*
X172676773Y-106660443D01*
X172668921Y-106682387D01*
X172658956Y-106703457D01*
X172646974Y-106723448D01*
X172633090Y-106742168D01*
X172617438Y-106759438D01*
X172600168Y-106775090D01*
X172581448Y-106788974D01*
X172561457Y-106800956D01*
X172540387Y-106810921D01*
X172518443Y-106818773D01*
X172495834Y-106824437D01*
X172472779Y-106827856D01*
X172449500Y-106829000D01*
X171974500Y-106829000D01*
X171951221Y-106827856D01*
X171928166Y-106824437D01*
X171905557Y-106818773D01*
X171883613Y-106810921D01*
X171862543Y-106800956D01*
X171842552Y-106788974D01*
X171823832Y-106775090D01*
X171806562Y-106759438D01*
X171790910Y-106742168D01*
X171777026Y-106723448D01*
X171765044Y-106703457D01*
X171755079Y-106682387D01*
X171747227Y-106660443D01*
X171741563Y-106637834D01*
X171738144Y-106614779D01*
X171737000Y-106591500D01*
X171737000Y-106016500D01*
X171738144Y-105993221D01*
X171741563Y-105970166D01*
X171747227Y-105947557D01*
X171755079Y-105925613D01*
X171765044Y-105904543D01*
X171777026Y-105884552D01*
X171790910Y-105865832D01*
X171806562Y-105848562D01*
X171823832Y-105832910D01*
X171842552Y-105819026D01*
X171862543Y-105807044D01*
X171883613Y-105797079D01*
X171905557Y-105789227D01*
X171928166Y-105783563D01*
X171951221Y-105780144D01*
X171974500Y-105779000D01*
X172449500Y-105779000D01*
X172472779Y-105780144D01*
X172472779Y-105780144D01*
G37*
D24*
X172212000Y-106304000D03*
M02*
