%TF.GenerationSoftware,KiCad,Pcbnew,(6.0.0-rc1-dev-714-g3024ded91)*%
%TF.CreationDate,2018-10-09T21:15:08+01:00*%
%TF.ProjectId,AquaHub,417175614875622E6B696361645F7063,rev?*%
%TF.SameCoordinates,Original*%
%TF.FileFunction,Legend,Bot*%
%TF.FilePolarity,Positive*%
%FSLAX46Y46*%
G04 Gerber Fmt 4.6, Leading zero omitted, Abs format (unit mm)*
G04 Created by KiCad (PCBNEW (6.0.0-rc1-dev-714-g3024ded91)) date 10/09/18 21:15:08*
%MOMM*%
%LPD*%
G01*
G04 APERTURE LIST*
%ADD10C,0.080000*%
%ADD11C,0.200000*%
%ADD12C,0.120000*%
%ADD13C,0.150000*%
G04 APERTURE END LIST*
D10*
X55880000Y-104140000D02*
X55880000Y-102870000D01*
X66040000Y-104140000D02*
X55880000Y-104140000D01*
X66040000Y-102870000D02*
X66040000Y-104140000D01*
X55880000Y-102870000D02*
X66040000Y-102870000D01*
D11*
X50800000Y-102870000D02*
X47879000Y-102870000D01*
X50800000Y-106045000D02*
X50800000Y-102870000D01*
X146050000Y-115570000D02*
X146050000Y-118110000D01*
X140680000Y-77590000D02*
X140680000Y-75590000D01*
X148180000Y-75590000D02*
X148180000Y-77590000D01*
X148180000Y-77590000D02*
X208180000Y-77590000D01*
X208180000Y-75590000D02*
X148180000Y-75590000D01*
X208180000Y-53590000D02*
X208180000Y-75590000D01*
X38180000Y-53590000D02*
X208180000Y-53590000D01*
X38180000Y-75590000D02*
X38180000Y-53590000D01*
X140680000Y-75590000D02*
X38180000Y-75590000D01*
X48006000Y-118364000D02*
X47879000Y-102870000D01*
X146050000Y-118110000D02*
X48006000Y-118364000D01*
X50800000Y-115570000D02*
X146050000Y-115570000D01*
X50800000Y-106045000D02*
X50800000Y-115570000D01*
X38180000Y-153590000D02*
X208180000Y-153590000D01*
X38180000Y-77590000D02*
X38180000Y-153590000D01*
X140680000Y-77590000D02*
X38180000Y-77590000D01*
X208180000Y-77590000D02*
X208180000Y-153590000D01*
D12*
X160380000Y-62580000D02*
X160380000Y-63580000D01*
X160880000Y-63080000D02*
X159880000Y-63080000D01*
X159640000Y-68785563D02*
X158575563Y-69850000D01*
X159640000Y-62394437D02*
X158575563Y-61330000D01*
X159640000Y-62394437D02*
X159640000Y-64080000D01*
X159640000Y-68785563D02*
X159640000Y-67100000D01*
X158575563Y-69850000D02*
X151120000Y-69850000D01*
X158575563Y-61330000D02*
X151120000Y-61330000D01*
X151120000Y-61330000D02*
X151120000Y-64080000D01*
X151120000Y-69850000D02*
X151120000Y-67100000D01*
X183362000Y-58100000D02*
X182412000Y-58100000D01*
X182412000Y-58100000D02*
X182412000Y-59050000D01*
X182412000Y-59050000D02*
X181722000Y-59050000D01*
X183362000Y-67570000D02*
X182412000Y-67570000D01*
X182412000Y-67570000D02*
X182412000Y-66620000D01*
X186332000Y-58470000D02*
X186332000Y-67200000D01*
D13*
X155546666Y-60747142D02*
X155594285Y-60794761D01*
X155737142Y-60842380D01*
X155832380Y-60842380D01*
X155975238Y-60794761D01*
X156070476Y-60699523D01*
X156118095Y-60604285D01*
X156165714Y-60413809D01*
X156165714Y-60270952D01*
X156118095Y-60080476D01*
X156070476Y-59985238D01*
X155975238Y-59890000D01*
X155832380Y-59842380D01*
X155737142Y-59842380D01*
X155594285Y-59890000D01*
X155546666Y-59937619D01*
X155070476Y-60842380D02*
X154880000Y-60842380D01*
X154784761Y-60794761D01*
X154737142Y-60747142D01*
X154641904Y-60604285D01*
X154594285Y-60413809D01*
X154594285Y-60032857D01*
X154641904Y-59937619D01*
X154689523Y-59890000D01*
X154784761Y-59842380D01*
X154975238Y-59842380D01*
X155070476Y-59890000D01*
X155118095Y-59937619D01*
X155165714Y-60032857D01*
X155165714Y-60270952D01*
X155118095Y-60366190D01*
X155070476Y-60413809D01*
X154975238Y-60461428D01*
X154784761Y-60461428D01*
X154689523Y-60413809D01*
X154641904Y-60366190D01*
X154594285Y-60270952D01*
X186713880Y-62055476D02*
X187428166Y-62055476D01*
X187571023Y-62007857D01*
X187666261Y-61912619D01*
X187713880Y-61769761D01*
X187713880Y-61674523D01*
X187713880Y-63055476D02*
X187713880Y-62484047D01*
X187713880Y-62769761D02*
X186713880Y-62769761D01*
X186856738Y-62674523D01*
X186951976Y-62579285D01*
X186999595Y-62484047D01*
X186809119Y-63436428D02*
X186761500Y-63484047D01*
X186713880Y-63579285D01*
X186713880Y-63817380D01*
X186761500Y-63912619D01*
X186809119Y-63960238D01*
X186904357Y-64007857D01*
X186999595Y-64007857D01*
X187142452Y-63960238D01*
X187713880Y-63388809D01*
X187713880Y-64007857D01*
M02*
