%TF.GenerationSoftware,KiCad,Pcbnew,(6.0.0-rc1-dev-714-g3024ded91)*%
%TF.CreationDate,2018-10-09T21:15:09+01:00*%
%TF.ProjectId,AquaHub,417175614875622E6B696361645F7063,rev?*%
%TF.SameCoordinates,Original*%
%TF.FileFunction,Profile,NP*%
%FSLAX46Y46*%
G04 Gerber Fmt 4.6, Leading zero omitted, Abs format (unit mm)*
G04 Created by KiCad (PCBNEW (6.0.0-rc1-dev-714-g3024ded91)) date 10/09/18 21:15:09*
%MOMM*%
%LPD*%
G01*
G04 APERTURE LIST*
%ADD10C,0.080000*%
%ADD11C,0.200000*%
G04 APERTURE END LIST*
D10*
X55880000Y-104140000D02*
X55880000Y-102870000D01*
X66040000Y-104140000D02*
X55880000Y-104140000D01*
X66040000Y-102870000D02*
X66040000Y-104140000D01*
X55880000Y-102870000D02*
X66040000Y-102870000D01*
D11*
X50800000Y-102870000D02*
X47879000Y-102870000D01*
X50800000Y-106045000D02*
X50800000Y-102870000D01*
X146050000Y-115570000D02*
X146050000Y-118110000D01*
X140680000Y-77590000D02*
X140680000Y-75590000D01*
X148180000Y-75590000D02*
X148180000Y-77590000D01*
X148180000Y-77590000D02*
X208180000Y-77590000D01*
X208180000Y-75590000D02*
X148180000Y-75590000D01*
X208180000Y-53590000D02*
X208180000Y-75590000D01*
X38180000Y-53590000D02*
X208180000Y-53590000D01*
X38180000Y-75590000D02*
X38180000Y-53590000D01*
X140680000Y-75590000D02*
X38180000Y-75590000D01*
X48006000Y-118364000D02*
X47879000Y-102870000D01*
X146050000Y-118110000D02*
X48006000Y-118364000D01*
X50800000Y-115570000D02*
X146050000Y-115570000D01*
X50800000Y-106045000D02*
X50800000Y-115570000D01*
X38180000Y-153590000D02*
X208180000Y-153590000D01*
X38180000Y-77590000D02*
X38180000Y-153590000D01*
X140680000Y-77590000D02*
X38180000Y-77590000D01*
X208180000Y-77590000D02*
X208180000Y-153590000D01*
M02*
