%TF.GenerationSoftware,KiCad,Pcbnew,(5.0.0)*%
%TF.CreationDate,2018-09-13T00:45:37+01:00*%
%TF.ProjectId,AquaHub,417175614875622E6B696361645F7063,rev?*%
%TF.SameCoordinates,Original*%
%TF.FileFunction,Copper,L1,Top,Signal*%
%TF.FilePolarity,Positive*%
%FSLAX46Y46*%
G04 Gerber Fmt 4.6, Leading zero omitted, Abs format (unit mm)*
G04 Created by KiCad (PCBNEW (5.0.0)) date 09/13/18 00:45:37*
%MOMM*%
%LPD*%
G01*
G04 APERTURE LIST*
%ADD10C,0.200000*%
%ADD11O,1.070000X1.800000*%
%ADD12R,1.070000X1.800000*%
%ADD13O,1.727200X1.727200*%
%ADD14R,1.727200X1.727200*%
%ADD15R,1.600000X3.000000*%
%ADD16C,0.150000*%
%ADD17C,1.500000*%
%ADD18C,1.800000*%
%ADD19R,2.200000X1.200000*%
%ADD20R,6.400000X5.800000*%
%ADD21R,1.500000X0.600000*%
%ADD22C,1.150000*%
%ADD23C,2.000000*%
%ADD24R,2.000000X2.000000*%
%ADD25O,1.700000X1.700000*%
%ADD26R,1.700000X1.700000*%
%ADD27C,1.524000*%
%ADD28R,0.600000X1.550000*%
%ADD29R,1.600000X3.500000*%
%ADD30C,2.600000*%
%ADD31R,2.600000X2.600000*%
%ADD32O,2.500000X0.900000*%
%ADD33O,0.900000X2.500000*%
%ADD34R,6.000000X6.000000*%
%ADD35C,2.800000*%
%ADD36R,4.750000X3.000000*%
%ADD37C,1.000000*%
%ADD38C,0.152400*%
%ADD39C,2.000000*%
%ADD40C,0.350000*%
G04 APERTURE END LIST*
D10*
X55118000Y-106680000D02*
X48006000Y-106680000D01*
X55118000Y-109728000D02*
X55118000Y-106680000D01*
X51054000Y-109728000D02*
X55118000Y-109728000D01*
X146050000Y-115570000D02*
X146050000Y-118110000D01*
X140335000Y-78105000D02*
X140335000Y-75565000D01*
X148590000Y-75565000D02*
X148590000Y-78105000D01*
X148590000Y-78105000D02*
X208280000Y-78105000D01*
X208280000Y-75565000D02*
X148590000Y-75565000D01*
X208280000Y-52070000D02*
X208280000Y-75565000D01*
X38100000Y-52070000D02*
X208280000Y-52070000D01*
X38100000Y-75565000D02*
X38100000Y-52070000D01*
X140335000Y-75565000D02*
X38100000Y-75565000D01*
X48006000Y-118364000D02*
X48006000Y-106680000D01*
X146050000Y-118110000D02*
X48006000Y-118364000D01*
X51054000Y-115316000D02*
X146050000Y-115570000D01*
X51054000Y-109728000D02*
X51054000Y-115316000D01*
X38100000Y-153670000D02*
X208280000Y-153670000D01*
X38100000Y-78105000D02*
X38100000Y-153670000D01*
X140335000Y-78105000D02*
X38100000Y-78105000D01*
X208280000Y-78105000D02*
X208280000Y-153670000D01*
D11*
X120015000Y-59055000D03*
X118745000Y-59055000D03*
X117475000Y-59055000D03*
D12*
X116205000Y-59055000D03*
D13*
X144780000Y-84328000D03*
X144780000Y-81788000D03*
X147320000Y-84328000D03*
X147320000Y-81788000D03*
X149860000Y-84328000D03*
D14*
X149860000Y-81788000D03*
D15*
X116840000Y-86405000D03*
X116840000Y-90805000D03*
D16*
G36*
X168081504Y-79515204D02*
X168105773Y-79518804D01*
X168129571Y-79524765D01*
X168152671Y-79533030D01*
X168174849Y-79543520D01*
X168195893Y-79556133D01*
X168215598Y-79570747D01*
X168233777Y-79587223D01*
X168250253Y-79605402D01*
X168264867Y-79625107D01*
X168277480Y-79646151D01*
X168287970Y-79668329D01*
X168296235Y-79691429D01*
X168302196Y-79715227D01*
X168305796Y-79739496D01*
X168307000Y-79764000D01*
X168307000Y-80764000D01*
X168305796Y-80788504D01*
X168302196Y-80812773D01*
X168296235Y-80836571D01*
X168287970Y-80859671D01*
X168277480Y-80881849D01*
X168264867Y-80902893D01*
X168250253Y-80922598D01*
X168233777Y-80940777D01*
X168215598Y-80957253D01*
X168195893Y-80971867D01*
X168174849Y-80984480D01*
X168152671Y-80994970D01*
X168129571Y-81003235D01*
X168105773Y-81009196D01*
X168081504Y-81012796D01*
X168057000Y-81014000D01*
X166207000Y-81014000D01*
X166182496Y-81012796D01*
X166158227Y-81009196D01*
X166134429Y-81003235D01*
X166111329Y-80994970D01*
X166089151Y-80984480D01*
X166068107Y-80971867D01*
X166048402Y-80957253D01*
X166030223Y-80940777D01*
X166013747Y-80922598D01*
X165999133Y-80902893D01*
X165986520Y-80881849D01*
X165976030Y-80859671D01*
X165967765Y-80836571D01*
X165961804Y-80812773D01*
X165958204Y-80788504D01*
X165957000Y-80764000D01*
X165957000Y-79764000D01*
X165958204Y-79739496D01*
X165961804Y-79715227D01*
X165967765Y-79691429D01*
X165976030Y-79668329D01*
X165986520Y-79646151D01*
X165999133Y-79625107D01*
X166013747Y-79605402D01*
X166030223Y-79587223D01*
X166048402Y-79570747D01*
X166068107Y-79556133D01*
X166089151Y-79543520D01*
X166111329Y-79533030D01*
X166134429Y-79524765D01*
X166158227Y-79518804D01*
X166182496Y-79515204D01*
X166207000Y-79514000D01*
X168057000Y-79514000D01*
X168081504Y-79515204D01*
X168081504Y-79515204D01*
G37*
D17*
X167132000Y-80264000D03*
D16*
G36*
X168081504Y-82765204D02*
X168105773Y-82768804D01*
X168129571Y-82774765D01*
X168152671Y-82783030D01*
X168174849Y-82793520D01*
X168195893Y-82806133D01*
X168215598Y-82820747D01*
X168233777Y-82837223D01*
X168250253Y-82855402D01*
X168264867Y-82875107D01*
X168277480Y-82896151D01*
X168287970Y-82918329D01*
X168296235Y-82941429D01*
X168302196Y-82965227D01*
X168305796Y-82989496D01*
X168307000Y-83014000D01*
X168307000Y-84014000D01*
X168305796Y-84038504D01*
X168302196Y-84062773D01*
X168296235Y-84086571D01*
X168287970Y-84109671D01*
X168277480Y-84131849D01*
X168264867Y-84152893D01*
X168250253Y-84172598D01*
X168233777Y-84190777D01*
X168215598Y-84207253D01*
X168195893Y-84221867D01*
X168174849Y-84234480D01*
X168152671Y-84244970D01*
X168129571Y-84253235D01*
X168105773Y-84259196D01*
X168081504Y-84262796D01*
X168057000Y-84264000D01*
X166207000Y-84264000D01*
X166182496Y-84262796D01*
X166158227Y-84259196D01*
X166134429Y-84253235D01*
X166111329Y-84244970D01*
X166089151Y-84234480D01*
X166068107Y-84221867D01*
X166048402Y-84207253D01*
X166030223Y-84190777D01*
X166013747Y-84172598D01*
X165999133Y-84152893D01*
X165986520Y-84131849D01*
X165976030Y-84109671D01*
X165967765Y-84086571D01*
X165961804Y-84062773D01*
X165958204Y-84038504D01*
X165957000Y-84014000D01*
X165957000Y-83014000D01*
X165958204Y-82989496D01*
X165961804Y-82965227D01*
X165967765Y-82941429D01*
X165976030Y-82918329D01*
X165986520Y-82896151D01*
X165999133Y-82875107D01*
X166013747Y-82855402D01*
X166030223Y-82837223D01*
X166048402Y-82820747D01*
X166068107Y-82806133D01*
X166089151Y-82793520D01*
X166111329Y-82783030D01*
X166134429Y-82774765D01*
X166158227Y-82768804D01*
X166182496Y-82765204D01*
X166207000Y-82764000D01*
X168057000Y-82764000D01*
X168081504Y-82765204D01*
X168081504Y-82765204D01*
G37*
D17*
X167132000Y-83514000D03*
D18*
X49805000Y-104020000D03*
X52705000Y-96520000D03*
D19*
X102870000Y-97415000D03*
X102870000Y-99695000D03*
X102870000Y-101975000D03*
D20*
X109170000Y-99695000D03*
D14*
X153035000Y-60960000D03*
D13*
X150495000Y-60960000D03*
X153035000Y-63500000D03*
X150495000Y-63500000D03*
X153035000Y-66040000D03*
X150495000Y-66040000D03*
D21*
X133067000Y-59055000D03*
X133067000Y-60325000D03*
X133067000Y-61595000D03*
X133067000Y-62865000D03*
X133067000Y-64135000D03*
X133067000Y-65405000D03*
X133067000Y-66675000D03*
X133067000Y-67945000D03*
X142367000Y-67945000D03*
X142367000Y-66675000D03*
X142367000Y-65405000D03*
X142367000Y-64135000D03*
X142367000Y-62865000D03*
X142367000Y-61595000D03*
X142367000Y-60325000D03*
X142367000Y-59055000D03*
D16*
G36*
X192627505Y-111823204D02*
X192651773Y-111826804D01*
X192675572Y-111832765D01*
X192698671Y-111841030D01*
X192720850Y-111851520D01*
X192741893Y-111864132D01*
X192761599Y-111878747D01*
X192779777Y-111895223D01*
X192796253Y-111913401D01*
X192810868Y-111933107D01*
X192823480Y-111954150D01*
X192833970Y-111976329D01*
X192842235Y-111999428D01*
X192848196Y-112023227D01*
X192851796Y-112047495D01*
X192853000Y-112071999D01*
X192853000Y-112972001D01*
X192851796Y-112996505D01*
X192848196Y-113020773D01*
X192842235Y-113044572D01*
X192833970Y-113067671D01*
X192823480Y-113089850D01*
X192810868Y-113110893D01*
X192796253Y-113130599D01*
X192779777Y-113148777D01*
X192761599Y-113165253D01*
X192741893Y-113179868D01*
X192720850Y-113192480D01*
X192698671Y-113202970D01*
X192675572Y-113211235D01*
X192651773Y-113217196D01*
X192627505Y-113220796D01*
X192603001Y-113222000D01*
X191952999Y-113222000D01*
X191928495Y-113220796D01*
X191904227Y-113217196D01*
X191880428Y-113211235D01*
X191857329Y-113202970D01*
X191835150Y-113192480D01*
X191814107Y-113179868D01*
X191794401Y-113165253D01*
X191776223Y-113148777D01*
X191759747Y-113130599D01*
X191745132Y-113110893D01*
X191732520Y-113089850D01*
X191722030Y-113067671D01*
X191713765Y-113044572D01*
X191707804Y-113020773D01*
X191704204Y-112996505D01*
X191703000Y-112972001D01*
X191703000Y-112071999D01*
X191704204Y-112047495D01*
X191707804Y-112023227D01*
X191713765Y-111999428D01*
X191722030Y-111976329D01*
X191732520Y-111954150D01*
X191745132Y-111933107D01*
X191759747Y-111913401D01*
X191776223Y-111895223D01*
X191794401Y-111878747D01*
X191814107Y-111864132D01*
X191835150Y-111851520D01*
X191857329Y-111841030D01*
X191880428Y-111832765D01*
X191904227Y-111826804D01*
X191928495Y-111823204D01*
X191952999Y-111822000D01*
X192603001Y-111822000D01*
X192627505Y-111823204D01*
X192627505Y-111823204D01*
G37*
D22*
X192278000Y-112522000D03*
D16*
G36*
X194677505Y-111823204D02*
X194701773Y-111826804D01*
X194725572Y-111832765D01*
X194748671Y-111841030D01*
X194770850Y-111851520D01*
X194791893Y-111864132D01*
X194811599Y-111878747D01*
X194829777Y-111895223D01*
X194846253Y-111913401D01*
X194860868Y-111933107D01*
X194873480Y-111954150D01*
X194883970Y-111976329D01*
X194892235Y-111999428D01*
X194898196Y-112023227D01*
X194901796Y-112047495D01*
X194903000Y-112071999D01*
X194903000Y-112972001D01*
X194901796Y-112996505D01*
X194898196Y-113020773D01*
X194892235Y-113044572D01*
X194883970Y-113067671D01*
X194873480Y-113089850D01*
X194860868Y-113110893D01*
X194846253Y-113130599D01*
X194829777Y-113148777D01*
X194811599Y-113165253D01*
X194791893Y-113179868D01*
X194770850Y-113192480D01*
X194748671Y-113202970D01*
X194725572Y-113211235D01*
X194701773Y-113217196D01*
X194677505Y-113220796D01*
X194653001Y-113222000D01*
X194002999Y-113222000D01*
X193978495Y-113220796D01*
X193954227Y-113217196D01*
X193930428Y-113211235D01*
X193907329Y-113202970D01*
X193885150Y-113192480D01*
X193864107Y-113179868D01*
X193844401Y-113165253D01*
X193826223Y-113148777D01*
X193809747Y-113130599D01*
X193795132Y-113110893D01*
X193782520Y-113089850D01*
X193772030Y-113067671D01*
X193763765Y-113044572D01*
X193757804Y-113020773D01*
X193754204Y-112996505D01*
X193753000Y-112972001D01*
X193753000Y-112071999D01*
X193754204Y-112047495D01*
X193757804Y-112023227D01*
X193763765Y-111999428D01*
X193772030Y-111976329D01*
X193782520Y-111954150D01*
X193795132Y-111933107D01*
X193809747Y-111913401D01*
X193826223Y-111895223D01*
X193844401Y-111878747D01*
X193864107Y-111864132D01*
X193885150Y-111851520D01*
X193907329Y-111841030D01*
X193930428Y-111832765D01*
X193954227Y-111826804D01*
X193978495Y-111823204D01*
X194002999Y-111822000D01*
X194653001Y-111822000D01*
X194677505Y-111823204D01*
X194677505Y-111823204D01*
G37*
D22*
X194328000Y-112522000D03*
D23*
X115515000Y-65405000D03*
X120015000Y-65405000D03*
X115515000Y-71905000D03*
X120015000Y-71905000D03*
X69365000Y-71905000D03*
X64865000Y-71905000D03*
X69365000Y-65405000D03*
X64865000Y-65405000D03*
X89708344Y-88927320D03*
X89707344Y-96547320D03*
X61720000Y-88927320D03*
D24*
X61720000Y-104140000D03*
D25*
X202819000Y-117602000D03*
X202819000Y-115062000D03*
D26*
X202819000Y-112522000D03*
D27*
X60960000Y-113030000D03*
X60960000Y-120650000D03*
X60960000Y-125730000D03*
X60960000Y-130810000D03*
X53340000Y-130810000D03*
X53340000Y-125730000D03*
X53340000Y-120650000D03*
X53340000Y-113030000D03*
X77470000Y-113030000D03*
X77470000Y-120650000D03*
X77470000Y-125730000D03*
X77470000Y-130810000D03*
X69850000Y-130810000D03*
X69850000Y-125730000D03*
X69850000Y-120650000D03*
X69850000Y-113030000D03*
X93980000Y-113030000D03*
X93980000Y-120650000D03*
X93980000Y-125730000D03*
X93980000Y-130810000D03*
X86360000Y-130810000D03*
X86360000Y-125730000D03*
X86360000Y-120650000D03*
X86360000Y-113030000D03*
X110490000Y-112776000D03*
X110490000Y-120396000D03*
X110490000Y-125476000D03*
X110490000Y-130556000D03*
X102870000Y-130556000D03*
X102870000Y-125476000D03*
X102870000Y-120396000D03*
X102870000Y-112776000D03*
X127254000Y-112776000D03*
X127254000Y-120396000D03*
X127254000Y-125476000D03*
X127254000Y-130556000D03*
X119634000Y-130556000D03*
X119634000Y-125476000D03*
X119634000Y-120396000D03*
X119634000Y-112776000D03*
X144145000Y-112776000D03*
X144145000Y-120396000D03*
X144145000Y-125476000D03*
X144145000Y-130556000D03*
X136525000Y-130556000D03*
X136525000Y-125476000D03*
X136525000Y-120396000D03*
X136525000Y-112776000D03*
D28*
X162187979Y-117809195D03*
X163457979Y-117809195D03*
X164727979Y-117809195D03*
X165997979Y-117809195D03*
X165997979Y-123209195D03*
X164727979Y-123209195D03*
X163457979Y-123209195D03*
X162187979Y-123209195D03*
D21*
X159004000Y-100330000D03*
X159004000Y-99060000D03*
X159004000Y-97790000D03*
X159004000Y-96520000D03*
X159004000Y-95250000D03*
X159004000Y-93980000D03*
X159004000Y-92710000D03*
X159004000Y-91440000D03*
X164404000Y-91440000D03*
X164404000Y-92710000D03*
X164404000Y-93980000D03*
X164404000Y-95250000D03*
X164404000Y-96520000D03*
X164404000Y-97790000D03*
X164404000Y-99060000D03*
X164404000Y-100330000D03*
D25*
X202819000Y-98044000D03*
X202819000Y-95504000D03*
X202819000Y-92964000D03*
D26*
X202819000Y-90424000D03*
D16*
G36*
X164050505Y-80452204D02*
X164074773Y-80455804D01*
X164098572Y-80461765D01*
X164121671Y-80470030D01*
X164143850Y-80480520D01*
X164164893Y-80493132D01*
X164184599Y-80507747D01*
X164202777Y-80524223D01*
X164219253Y-80542401D01*
X164233868Y-80562107D01*
X164246480Y-80583150D01*
X164256970Y-80605329D01*
X164265235Y-80628428D01*
X164271196Y-80652227D01*
X164274796Y-80676495D01*
X164276000Y-80700999D01*
X164276000Y-81351001D01*
X164274796Y-81375505D01*
X164271196Y-81399773D01*
X164265235Y-81423572D01*
X164256970Y-81446671D01*
X164246480Y-81468850D01*
X164233868Y-81489893D01*
X164219253Y-81509599D01*
X164202777Y-81527777D01*
X164184599Y-81544253D01*
X164164893Y-81558868D01*
X164143850Y-81571480D01*
X164121671Y-81581970D01*
X164098572Y-81590235D01*
X164074773Y-81596196D01*
X164050505Y-81599796D01*
X164026001Y-81601000D01*
X163125999Y-81601000D01*
X163101495Y-81599796D01*
X163077227Y-81596196D01*
X163053428Y-81590235D01*
X163030329Y-81581970D01*
X163008150Y-81571480D01*
X162987107Y-81558868D01*
X162967401Y-81544253D01*
X162949223Y-81527777D01*
X162932747Y-81509599D01*
X162918132Y-81489893D01*
X162905520Y-81468850D01*
X162895030Y-81446671D01*
X162886765Y-81423572D01*
X162880804Y-81399773D01*
X162877204Y-81375505D01*
X162876000Y-81351001D01*
X162876000Y-80700999D01*
X162877204Y-80676495D01*
X162880804Y-80652227D01*
X162886765Y-80628428D01*
X162895030Y-80605329D01*
X162905520Y-80583150D01*
X162918132Y-80562107D01*
X162932747Y-80542401D01*
X162949223Y-80524223D01*
X162967401Y-80507747D01*
X162987107Y-80493132D01*
X163008150Y-80480520D01*
X163030329Y-80470030D01*
X163053428Y-80461765D01*
X163077227Y-80455804D01*
X163101495Y-80452204D01*
X163125999Y-80451000D01*
X164026001Y-80451000D01*
X164050505Y-80452204D01*
X164050505Y-80452204D01*
G37*
D22*
X163576000Y-81026000D03*
D16*
G36*
X164050505Y-82502204D02*
X164074773Y-82505804D01*
X164098572Y-82511765D01*
X164121671Y-82520030D01*
X164143850Y-82530520D01*
X164164893Y-82543132D01*
X164184599Y-82557747D01*
X164202777Y-82574223D01*
X164219253Y-82592401D01*
X164233868Y-82612107D01*
X164246480Y-82633150D01*
X164256970Y-82655329D01*
X164265235Y-82678428D01*
X164271196Y-82702227D01*
X164274796Y-82726495D01*
X164276000Y-82750999D01*
X164276000Y-83401001D01*
X164274796Y-83425505D01*
X164271196Y-83449773D01*
X164265235Y-83473572D01*
X164256970Y-83496671D01*
X164246480Y-83518850D01*
X164233868Y-83539893D01*
X164219253Y-83559599D01*
X164202777Y-83577777D01*
X164184599Y-83594253D01*
X164164893Y-83608868D01*
X164143850Y-83621480D01*
X164121671Y-83631970D01*
X164098572Y-83640235D01*
X164074773Y-83646196D01*
X164050505Y-83649796D01*
X164026001Y-83651000D01*
X163125999Y-83651000D01*
X163101495Y-83649796D01*
X163077227Y-83646196D01*
X163053428Y-83640235D01*
X163030329Y-83631970D01*
X163008150Y-83621480D01*
X162987107Y-83608868D01*
X162967401Y-83594253D01*
X162949223Y-83577777D01*
X162932747Y-83559599D01*
X162918132Y-83539893D01*
X162905520Y-83518850D01*
X162895030Y-83496671D01*
X162886765Y-83473572D01*
X162880804Y-83449773D01*
X162877204Y-83425505D01*
X162876000Y-83401001D01*
X162876000Y-82750999D01*
X162877204Y-82726495D01*
X162880804Y-82702227D01*
X162886765Y-82678428D01*
X162895030Y-82655329D01*
X162905520Y-82633150D01*
X162918132Y-82612107D01*
X162932747Y-82592401D01*
X162949223Y-82574223D01*
X162967401Y-82557747D01*
X162987107Y-82543132D01*
X163008150Y-82530520D01*
X163030329Y-82520030D01*
X163053428Y-82511765D01*
X163077227Y-82505804D01*
X163101495Y-82502204D01*
X163125999Y-82501000D01*
X164026001Y-82501000D01*
X164050505Y-82502204D01*
X164050505Y-82502204D01*
G37*
D22*
X163576000Y-83076000D03*
D16*
G36*
X165068505Y-108521204D02*
X165092773Y-108524804D01*
X165116572Y-108530765D01*
X165139671Y-108539030D01*
X165161850Y-108549520D01*
X165182893Y-108562132D01*
X165202599Y-108576747D01*
X165220777Y-108593223D01*
X165237253Y-108611401D01*
X165251868Y-108631107D01*
X165264480Y-108652150D01*
X165274970Y-108674329D01*
X165283235Y-108697428D01*
X165289196Y-108721227D01*
X165292796Y-108745495D01*
X165294000Y-108769999D01*
X165294000Y-109670001D01*
X165292796Y-109694505D01*
X165289196Y-109718773D01*
X165283235Y-109742572D01*
X165274970Y-109765671D01*
X165264480Y-109787850D01*
X165251868Y-109808893D01*
X165237253Y-109828599D01*
X165220777Y-109846777D01*
X165202599Y-109863253D01*
X165182893Y-109877868D01*
X165161850Y-109890480D01*
X165139671Y-109900970D01*
X165116572Y-109909235D01*
X165092773Y-109915196D01*
X165068505Y-109918796D01*
X165044001Y-109920000D01*
X164393999Y-109920000D01*
X164369495Y-109918796D01*
X164345227Y-109915196D01*
X164321428Y-109909235D01*
X164298329Y-109900970D01*
X164276150Y-109890480D01*
X164255107Y-109877868D01*
X164235401Y-109863253D01*
X164217223Y-109846777D01*
X164200747Y-109828599D01*
X164186132Y-109808893D01*
X164173520Y-109787850D01*
X164163030Y-109765671D01*
X164154765Y-109742572D01*
X164148804Y-109718773D01*
X164145204Y-109694505D01*
X164144000Y-109670001D01*
X164144000Y-108769999D01*
X164145204Y-108745495D01*
X164148804Y-108721227D01*
X164154765Y-108697428D01*
X164163030Y-108674329D01*
X164173520Y-108652150D01*
X164186132Y-108631107D01*
X164200747Y-108611401D01*
X164217223Y-108593223D01*
X164235401Y-108576747D01*
X164255107Y-108562132D01*
X164276150Y-108549520D01*
X164298329Y-108539030D01*
X164321428Y-108530765D01*
X164345227Y-108524804D01*
X164369495Y-108521204D01*
X164393999Y-108520000D01*
X165044001Y-108520000D01*
X165068505Y-108521204D01*
X165068505Y-108521204D01*
G37*
D22*
X164719000Y-109220000D03*
D16*
G36*
X163018505Y-108521204D02*
X163042773Y-108524804D01*
X163066572Y-108530765D01*
X163089671Y-108539030D01*
X163111850Y-108549520D01*
X163132893Y-108562132D01*
X163152599Y-108576747D01*
X163170777Y-108593223D01*
X163187253Y-108611401D01*
X163201868Y-108631107D01*
X163214480Y-108652150D01*
X163224970Y-108674329D01*
X163233235Y-108697428D01*
X163239196Y-108721227D01*
X163242796Y-108745495D01*
X163244000Y-108769999D01*
X163244000Y-109670001D01*
X163242796Y-109694505D01*
X163239196Y-109718773D01*
X163233235Y-109742572D01*
X163224970Y-109765671D01*
X163214480Y-109787850D01*
X163201868Y-109808893D01*
X163187253Y-109828599D01*
X163170777Y-109846777D01*
X163152599Y-109863253D01*
X163132893Y-109877868D01*
X163111850Y-109890480D01*
X163089671Y-109900970D01*
X163066572Y-109909235D01*
X163042773Y-109915196D01*
X163018505Y-109918796D01*
X162994001Y-109920000D01*
X162343999Y-109920000D01*
X162319495Y-109918796D01*
X162295227Y-109915196D01*
X162271428Y-109909235D01*
X162248329Y-109900970D01*
X162226150Y-109890480D01*
X162205107Y-109877868D01*
X162185401Y-109863253D01*
X162167223Y-109846777D01*
X162150747Y-109828599D01*
X162136132Y-109808893D01*
X162123520Y-109787850D01*
X162113030Y-109765671D01*
X162104765Y-109742572D01*
X162098804Y-109718773D01*
X162095204Y-109694505D01*
X162094000Y-109670001D01*
X162094000Y-108769999D01*
X162095204Y-108745495D01*
X162098804Y-108721227D01*
X162104765Y-108697428D01*
X162113030Y-108674329D01*
X162123520Y-108652150D01*
X162136132Y-108631107D01*
X162150747Y-108611401D01*
X162167223Y-108593223D01*
X162185401Y-108576747D01*
X162205107Y-108562132D01*
X162226150Y-108549520D01*
X162248329Y-108539030D01*
X162271428Y-108530765D01*
X162295227Y-108524804D01*
X162319495Y-108521204D01*
X162343999Y-108520000D01*
X162994001Y-108520000D01*
X163018505Y-108521204D01*
X163018505Y-108521204D01*
G37*
D22*
X162669000Y-109220000D03*
D16*
G36*
X165068505Y-113601204D02*
X165092773Y-113604804D01*
X165116572Y-113610765D01*
X165139671Y-113619030D01*
X165161850Y-113629520D01*
X165182893Y-113642132D01*
X165202599Y-113656747D01*
X165220777Y-113673223D01*
X165237253Y-113691401D01*
X165251868Y-113711107D01*
X165264480Y-113732150D01*
X165274970Y-113754329D01*
X165283235Y-113777428D01*
X165289196Y-113801227D01*
X165292796Y-113825495D01*
X165294000Y-113849999D01*
X165294000Y-114750001D01*
X165292796Y-114774505D01*
X165289196Y-114798773D01*
X165283235Y-114822572D01*
X165274970Y-114845671D01*
X165264480Y-114867850D01*
X165251868Y-114888893D01*
X165237253Y-114908599D01*
X165220777Y-114926777D01*
X165202599Y-114943253D01*
X165182893Y-114957868D01*
X165161850Y-114970480D01*
X165139671Y-114980970D01*
X165116572Y-114989235D01*
X165092773Y-114995196D01*
X165068505Y-114998796D01*
X165044001Y-115000000D01*
X164393999Y-115000000D01*
X164369495Y-114998796D01*
X164345227Y-114995196D01*
X164321428Y-114989235D01*
X164298329Y-114980970D01*
X164276150Y-114970480D01*
X164255107Y-114957868D01*
X164235401Y-114943253D01*
X164217223Y-114926777D01*
X164200747Y-114908599D01*
X164186132Y-114888893D01*
X164173520Y-114867850D01*
X164163030Y-114845671D01*
X164154765Y-114822572D01*
X164148804Y-114798773D01*
X164145204Y-114774505D01*
X164144000Y-114750001D01*
X164144000Y-113849999D01*
X164145204Y-113825495D01*
X164148804Y-113801227D01*
X164154765Y-113777428D01*
X164163030Y-113754329D01*
X164173520Y-113732150D01*
X164186132Y-113711107D01*
X164200747Y-113691401D01*
X164217223Y-113673223D01*
X164235401Y-113656747D01*
X164255107Y-113642132D01*
X164276150Y-113629520D01*
X164298329Y-113619030D01*
X164321428Y-113610765D01*
X164345227Y-113604804D01*
X164369495Y-113601204D01*
X164393999Y-113600000D01*
X165044001Y-113600000D01*
X165068505Y-113601204D01*
X165068505Y-113601204D01*
G37*
D22*
X164719000Y-114300000D03*
D16*
G36*
X163018505Y-113601204D02*
X163042773Y-113604804D01*
X163066572Y-113610765D01*
X163089671Y-113619030D01*
X163111850Y-113629520D01*
X163132893Y-113642132D01*
X163152599Y-113656747D01*
X163170777Y-113673223D01*
X163187253Y-113691401D01*
X163201868Y-113711107D01*
X163214480Y-113732150D01*
X163224970Y-113754329D01*
X163233235Y-113777428D01*
X163239196Y-113801227D01*
X163242796Y-113825495D01*
X163244000Y-113849999D01*
X163244000Y-114750001D01*
X163242796Y-114774505D01*
X163239196Y-114798773D01*
X163233235Y-114822572D01*
X163224970Y-114845671D01*
X163214480Y-114867850D01*
X163201868Y-114888893D01*
X163187253Y-114908599D01*
X163170777Y-114926777D01*
X163152599Y-114943253D01*
X163132893Y-114957868D01*
X163111850Y-114970480D01*
X163089671Y-114980970D01*
X163066572Y-114989235D01*
X163042773Y-114995196D01*
X163018505Y-114998796D01*
X162994001Y-115000000D01*
X162343999Y-115000000D01*
X162319495Y-114998796D01*
X162295227Y-114995196D01*
X162271428Y-114989235D01*
X162248329Y-114980970D01*
X162226150Y-114970480D01*
X162205107Y-114957868D01*
X162185401Y-114943253D01*
X162167223Y-114926777D01*
X162150747Y-114908599D01*
X162136132Y-114888893D01*
X162123520Y-114867850D01*
X162113030Y-114845671D01*
X162104765Y-114822572D01*
X162098804Y-114798773D01*
X162095204Y-114774505D01*
X162094000Y-114750001D01*
X162094000Y-113849999D01*
X162095204Y-113825495D01*
X162098804Y-113801227D01*
X162104765Y-113777428D01*
X162113030Y-113754329D01*
X162123520Y-113732150D01*
X162136132Y-113711107D01*
X162150747Y-113691401D01*
X162167223Y-113673223D01*
X162185401Y-113656747D01*
X162205107Y-113642132D01*
X162226150Y-113629520D01*
X162248329Y-113619030D01*
X162271428Y-113610765D01*
X162295227Y-113604804D01*
X162319495Y-113601204D01*
X162343999Y-113600000D01*
X162994001Y-113600000D01*
X163018505Y-113601204D01*
X163018505Y-113601204D01*
G37*
D22*
X162669000Y-114300000D03*
D16*
G36*
X165068505Y-111061204D02*
X165092773Y-111064804D01*
X165116572Y-111070765D01*
X165139671Y-111079030D01*
X165161850Y-111089520D01*
X165182893Y-111102132D01*
X165202599Y-111116747D01*
X165220777Y-111133223D01*
X165237253Y-111151401D01*
X165251868Y-111171107D01*
X165264480Y-111192150D01*
X165274970Y-111214329D01*
X165283235Y-111237428D01*
X165289196Y-111261227D01*
X165292796Y-111285495D01*
X165294000Y-111309999D01*
X165294000Y-112210001D01*
X165292796Y-112234505D01*
X165289196Y-112258773D01*
X165283235Y-112282572D01*
X165274970Y-112305671D01*
X165264480Y-112327850D01*
X165251868Y-112348893D01*
X165237253Y-112368599D01*
X165220777Y-112386777D01*
X165202599Y-112403253D01*
X165182893Y-112417868D01*
X165161850Y-112430480D01*
X165139671Y-112440970D01*
X165116572Y-112449235D01*
X165092773Y-112455196D01*
X165068505Y-112458796D01*
X165044001Y-112460000D01*
X164393999Y-112460000D01*
X164369495Y-112458796D01*
X164345227Y-112455196D01*
X164321428Y-112449235D01*
X164298329Y-112440970D01*
X164276150Y-112430480D01*
X164255107Y-112417868D01*
X164235401Y-112403253D01*
X164217223Y-112386777D01*
X164200747Y-112368599D01*
X164186132Y-112348893D01*
X164173520Y-112327850D01*
X164163030Y-112305671D01*
X164154765Y-112282572D01*
X164148804Y-112258773D01*
X164145204Y-112234505D01*
X164144000Y-112210001D01*
X164144000Y-111309999D01*
X164145204Y-111285495D01*
X164148804Y-111261227D01*
X164154765Y-111237428D01*
X164163030Y-111214329D01*
X164173520Y-111192150D01*
X164186132Y-111171107D01*
X164200747Y-111151401D01*
X164217223Y-111133223D01*
X164235401Y-111116747D01*
X164255107Y-111102132D01*
X164276150Y-111089520D01*
X164298329Y-111079030D01*
X164321428Y-111070765D01*
X164345227Y-111064804D01*
X164369495Y-111061204D01*
X164393999Y-111060000D01*
X165044001Y-111060000D01*
X165068505Y-111061204D01*
X165068505Y-111061204D01*
G37*
D22*
X164719000Y-111760000D03*
D16*
G36*
X163018505Y-111061204D02*
X163042773Y-111064804D01*
X163066572Y-111070765D01*
X163089671Y-111079030D01*
X163111850Y-111089520D01*
X163132893Y-111102132D01*
X163152599Y-111116747D01*
X163170777Y-111133223D01*
X163187253Y-111151401D01*
X163201868Y-111171107D01*
X163214480Y-111192150D01*
X163224970Y-111214329D01*
X163233235Y-111237428D01*
X163239196Y-111261227D01*
X163242796Y-111285495D01*
X163244000Y-111309999D01*
X163244000Y-112210001D01*
X163242796Y-112234505D01*
X163239196Y-112258773D01*
X163233235Y-112282572D01*
X163224970Y-112305671D01*
X163214480Y-112327850D01*
X163201868Y-112348893D01*
X163187253Y-112368599D01*
X163170777Y-112386777D01*
X163152599Y-112403253D01*
X163132893Y-112417868D01*
X163111850Y-112430480D01*
X163089671Y-112440970D01*
X163066572Y-112449235D01*
X163042773Y-112455196D01*
X163018505Y-112458796D01*
X162994001Y-112460000D01*
X162343999Y-112460000D01*
X162319495Y-112458796D01*
X162295227Y-112455196D01*
X162271428Y-112449235D01*
X162248329Y-112440970D01*
X162226150Y-112430480D01*
X162205107Y-112417868D01*
X162185401Y-112403253D01*
X162167223Y-112386777D01*
X162150747Y-112368599D01*
X162136132Y-112348893D01*
X162123520Y-112327850D01*
X162113030Y-112305671D01*
X162104765Y-112282572D01*
X162098804Y-112258773D01*
X162095204Y-112234505D01*
X162094000Y-112210001D01*
X162094000Y-111309999D01*
X162095204Y-111285495D01*
X162098804Y-111261227D01*
X162104765Y-111237428D01*
X162113030Y-111214329D01*
X162123520Y-111192150D01*
X162136132Y-111171107D01*
X162150747Y-111151401D01*
X162167223Y-111133223D01*
X162185401Y-111116747D01*
X162205107Y-111102132D01*
X162226150Y-111089520D01*
X162248329Y-111079030D01*
X162271428Y-111070765D01*
X162295227Y-111064804D01*
X162319495Y-111061204D01*
X162343999Y-111060000D01*
X162994001Y-111060000D01*
X163018505Y-111061204D01*
X163018505Y-111061204D01*
G37*
D22*
X162669000Y-111760000D03*
D16*
G36*
X194659505Y-114363204D02*
X194683773Y-114366804D01*
X194707572Y-114372765D01*
X194730671Y-114381030D01*
X194752850Y-114391520D01*
X194773893Y-114404132D01*
X194793599Y-114418747D01*
X194811777Y-114435223D01*
X194828253Y-114453401D01*
X194842868Y-114473107D01*
X194855480Y-114494150D01*
X194865970Y-114516329D01*
X194874235Y-114539428D01*
X194880196Y-114563227D01*
X194883796Y-114587495D01*
X194885000Y-114611999D01*
X194885000Y-115512001D01*
X194883796Y-115536505D01*
X194880196Y-115560773D01*
X194874235Y-115584572D01*
X194865970Y-115607671D01*
X194855480Y-115629850D01*
X194842868Y-115650893D01*
X194828253Y-115670599D01*
X194811777Y-115688777D01*
X194793599Y-115705253D01*
X194773893Y-115719868D01*
X194752850Y-115732480D01*
X194730671Y-115742970D01*
X194707572Y-115751235D01*
X194683773Y-115757196D01*
X194659505Y-115760796D01*
X194635001Y-115762000D01*
X193984999Y-115762000D01*
X193960495Y-115760796D01*
X193936227Y-115757196D01*
X193912428Y-115751235D01*
X193889329Y-115742970D01*
X193867150Y-115732480D01*
X193846107Y-115719868D01*
X193826401Y-115705253D01*
X193808223Y-115688777D01*
X193791747Y-115670599D01*
X193777132Y-115650893D01*
X193764520Y-115629850D01*
X193754030Y-115607671D01*
X193745765Y-115584572D01*
X193739804Y-115560773D01*
X193736204Y-115536505D01*
X193735000Y-115512001D01*
X193735000Y-114611999D01*
X193736204Y-114587495D01*
X193739804Y-114563227D01*
X193745765Y-114539428D01*
X193754030Y-114516329D01*
X193764520Y-114494150D01*
X193777132Y-114473107D01*
X193791747Y-114453401D01*
X193808223Y-114435223D01*
X193826401Y-114418747D01*
X193846107Y-114404132D01*
X193867150Y-114391520D01*
X193889329Y-114381030D01*
X193912428Y-114372765D01*
X193936227Y-114366804D01*
X193960495Y-114363204D01*
X193984999Y-114362000D01*
X194635001Y-114362000D01*
X194659505Y-114363204D01*
X194659505Y-114363204D01*
G37*
D22*
X194310000Y-115062000D03*
D16*
G36*
X192609505Y-114363204D02*
X192633773Y-114366804D01*
X192657572Y-114372765D01*
X192680671Y-114381030D01*
X192702850Y-114391520D01*
X192723893Y-114404132D01*
X192743599Y-114418747D01*
X192761777Y-114435223D01*
X192778253Y-114453401D01*
X192792868Y-114473107D01*
X192805480Y-114494150D01*
X192815970Y-114516329D01*
X192824235Y-114539428D01*
X192830196Y-114563227D01*
X192833796Y-114587495D01*
X192835000Y-114611999D01*
X192835000Y-115512001D01*
X192833796Y-115536505D01*
X192830196Y-115560773D01*
X192824235Y-115584572D01*
X192815970Y-115607671D01*
X192805480Y-115629850D01*
X192792868Y-115650893D01*
X192778253Y-115670599D01*
X192761777Y-115688777D01*
X192743599Y-115705253D01*
X192723893Y-115719868D01*
X192702850Y-115732480D01*
X192680671Y-115742970D01*
X192657572Y-115751235D01*
X192633773Y-115757196D01*
X192609505Y-115760796D01*
X192585001Y-115762000D01*
X191934999Y-115762000D01*
X191910495Y-115760796D01*
X191886227Y-115757196D01*
X191862428Y-115751235D01*
X191839329Y-115742970D01*
X191817150Y-115732480D01*
X191796107Y-115719868D01*
X191776401Y-115705253D01*
X191758223Y-115688777D01*
X191741747Y-115670599D01*
X191727132Y-115650893D01*
X191714520Y-115629850D01*
X191704030Y-115607671D01*
X191695765Y-115584572D01*
X191689804Y-115560773D01*
X191686204Y-115536505D01*
X191685000Y-115512001D01*
X191685000Y-114611999D01*
X191686204Y-114587495D01*
X191689804Y-114563227D01*
X191695765Y-114539428D01*
X191704030Y-114516329D01*
X191714520Y-114494150D01*
X191727132Y-114473107D01*
X191741747Y-114453401D01*
X191758223Y-114435223D01*
X191776401Y-114418747D01*
X191796107Y-114404132D01*
X191817150Y-114391520D01*
X191839329Y-114381030D01*
X191862428Y-114372765D01*
X191886227Y-114366804D01*
X191910495Y-114363204D01*
X191934999Y-114362000D01*
X192585001Y-114362000D01*
X192609505Y-114363204D01*
X192609505Y-114363204D01*
G37*
D22*
X192260000Y-115062000D03*
D11*
X107315000Y-59055000D03*
X106045000Y-59055000D03*
X104775000Y-59055000D03*
D12*
X103505000Y-59055000D03*
D11*
X94615000Y-59055000D03*
X93345000Y-59055000D03*
X92075000Y-59055000D03*
D12*
X90805000Y-59055000D03*
D11*
X81915000Y-59055000D03*
X80645000Y-59055000D03*
X79375000Y-59055000D03*
D12*
X78105000Y-59055000D03*
D11*
X69215000Y-59055000D03*
X67945000Y-59055000D03*
X66675000Y-59055000D03*
D12*
X65405000Y-59055000D03*
D11*
X56515000Y-59055000D03*
X55245000Y-59055000D03*
X53975000Y-59055000D03*
D12*
X52705000Y-59055000D03*
D23*
X102965000Y-65405000D03*
X107465000Y-65405000D03*
X102965000Y-71905000D03*
X107465000Y-71905000D03*
X94765000Y-71905000D03*
X90265000Y-71905000D03*
X94765000Y-65405000D03*
X90265000Y-65405000D03*
X77415000Y-65405000D03*
X81915000Y-65405000D03*
X77415000Y-71905000D03*
X81915000Y-71905000D03*
X57205000Y-71905000D03*
X52705000Y-71905000D03*
X57205000Y-65405000D03*
X52705000Y-65405000D03*
D29*
X97155000Y-85725000D03*
X97155000Y-91125000D03*
X97155000Y-102555000D03*
X97155000Y-97155000D03*
D15*
X116840000Y-102235000D03*
X116840000Y-97835000D03*
D20*
X108990000Y-88645000D03*
D19*
X102690000Y-90925000D03*
X102690000Y-88645000D03*
X102690000Y-86365000D03*
D30*
X92884000Y-140335000D03*
D31*
X87884000Y-140335000D03*
X104521000Y-140335000D03*
D30*
X109521000Y-140335000D03*
X126158000Y-140335000D03*
D31*
X121158000Y-140335000D03*
D30*
X59610000Y-140335000D03*
D31*
X54610000Y-140335000D03*
X178435000Y-140335000D03*
D30*
X183435000Y-140335000D03*
X188435000Y-140335000D03*
D32*
X189704000Y-80010000D03*
X189704000Y-81280000D03*
X189704000Y-82550000D03*
X189704000Y-83820000D03*
X189704000Y-85090000D03*
X189704000Y-86360000D03*
X189704000Y-87630000D03*
X189704000Y-88900000D03*
X189704000Y-90170000D03*
X189704000Y-91440000D03*
X189704000Y-92710000D03*
X189704000Y-93980000D03*
X189704000Y-95250000D03*
X189704000Y-96520000D03*
D33*
X186419000Y-98010000D03*
X185149000Y-98010000D03*
X183879000Y-98010000D03*
X182609000Y-98010000D03*
X181339000Y-98010000D03*
X180069000Y-98010000D03*
X178799000Y-98010000D03*
X177529000Y-98010000D03*
X176259000Y-98010000D03*
X174989000Y-98010000D03*
D32*
X171704000Y-96520000D03*
X171704000Y-95250000D03*
X171704000Y-93980000D03*
X171704000Y-92710000D03*
X171704000Y-91440000D03*
X171704000Y-90170000D03*
X171704000Y-88900000D03*
X171704000Y-87630000D03*
X171704000Y-86360000D03*
X171704000Y-85090000D03*
X171704000Y-83820000D03*
X171704000Y-82550000D03*
X171704000Y-81280000D03*
X171704000Y-80010000D03*
D34*
X180404000Y-87710000D03*
D30*
X76247000Y-140335000D03*
D31*
X71247000Y-140335000D03*
X137795000Y-140335000D03*
D30*
X142795000Y-140335000D03*
D31*
X155575000Y-140335000D03*
D30*
X160575000Y-140335000D03*
X165575000Y-140335000D03*
D26*
X202819000Y-106680000D03*
D25*
X202819000Y-104140000D03*
D35*
X123825000Y-95885000D03*
X123825000Y-91440000D03*
X123825000Y-86995000D03*
X123825000Y-100330000D03*
D36*
X178435000Y-123190000D03*
X178435000Y-131690000D03*
D37*
X115062000Y-83820000D03*
X131318000Y-57150000D03*
X168148000Y-111760000D03*
X162052000Y-81788000D03*
X193675000Y-80010000D03*
X156083000Y-88011000D03*
X160575969Y-88104241D03*
X150495000Y-58278800D03*
X144526000Y-62865000D03*
X155433800Y-63500000D03*
X164352210Y-85090000D03*
X164338000Y-87629994D03*
X153035000Y-68453000D03*
X151765000Y-69342000D03*
X164352210Y-86360000D03*
D38*
X90370664Y-88265000D02*
X89708344Y-88927320D01*
X97415000Y-97415000D02*
X97155000Y-97155000D01*
X102870000Y-97415000D02*
X97415000Y-97415000D01*
X97795000Y-86365000D02*
X97155000Y-85725000D01*
X102690000Y-86365000D02*
X97795000Y-86365000D01*
X165997979Y-117809195D02*
X164727979Y-117809195D01*
X202565000Y-90170000D02*
X202819000Y-90424000D01*
X171704000Y-80010000D02*
X189704000Y-80010000D01*
X167386000Y-80010000D02*
X167132000Y-80264000D01*
X171704000Y-80010000D02*
X167386000Y-80010000D01*
X164338000Y-80264000D02*
X163576000Y-81026000D01*
X167132000Y-80264000D02*
X164338000Y-80264000D01*
X174989000Y-98010000D02*
X174989000Y-80027000D01*
X115062000Y-83927000D02*
X115062000Y-83820000D01*
X116840000Y-86405000D02*
X116840000Y-85705000D01*
X116840000Y-85705000D02*
X115062000Y-83927000D01*
X102870000Y-96662600D02*
X102870000Y-97415000D01*
X104282600Y-95250000D02*
X102870000Y-96662600D01*
X115062000Y-95250000D02*
X104282600Y-95250000D01*
X116840000Y-97835000D02*
X116840000Y-97028000D01*
X116840000Y-97028000D02*
X115062000Y-95250000D01*
X90297000Y-85725000D02*
X97155000Y-85725000D01*
X89708344Y-88927320D02*
X89708344Y-86313656D01*
X89708344Y-86313656D02*
X90297000Y-85725000D01*
X133067000Y-59055000D02*
X133067000Y-60325000D01*
X133067000Y-61595000D02*
X133067000Y-60325000D01*
X133517000Y-67945000D02*
X133067000Y-67945000D01*
X134366000Y-67096000D02*
X133517000Y-67945000D01*
X134366000Y-62444000D02*
X134366000Y-67096000D01*
X133067000Y-61595000D02*
X133517000Y-61595000D01*
X133517000Y-61595000D02*
X134366000Y-62444000D01*
X133067000Y-57756000D02*
X133067000Y-59055000D01*
X131318000Y-57150000D02*
X132461000Y-57150000D01*
X132461000Y-57150000D02*
X133067000Y-57756000D01*
X164727979Y-114308979D02*
X164719000Y-114300000D01*
X164727979Y-117809195D02*
X164727979Y-114308979D01*
X164719000Y-111760000D02*
X164719000Y-114300000D01*
X164719000Y-109220000D02*
X164719000Y-111760000D01*
X168148000Y-111760000D02*
X164719000Y-111760000D01*
X162759106Y-81788000D02*
X162052000Y-81788000D01*
X162814000Y-81788000D02*
X162759106Y-81788000D01*
X163576000Y-81026000D02*
X162814000Y-81788000D01*
X161552001Y-82287999D02*
X162052000Y-81788000D01*
X159258000Y-84582000D02*
X161552001Y-82287999D01*
X159258000Y-88900000D02*
X159258000Y-84582000D01*
X164404000Y-91440000D02*
X161798000Y-91440000D01*
X161798000Y-91440000D02*
X159258000Y-88900000D01*
X116840000Y-97135000D02*
X116840000Y-97835000D01*
X120142000Y-93833000D02*
X116840000Y-97135000D01*
X120142000Y-88754600D02*
X120142000Y-93833000D01*
X116840000Y-86405000D02*
X117792400Y-86405000D01*
X117792400Y-86405000D02*
X120142000Y-88754600D01*
X185894000Y-80010000D02*
X191770000Y-80010000D01*
X191770000Y-80010000D02*
X193675000Y-80010000D01*
X194310000Y-112522000D02*
X202819000Y-112522000D01*
X80010000Y-60960000D02*
X68580000Y-60960000D01*
X92590000Y-60960000D02*
X81280000Y-60960000D01*
X80645000Y-60325000D02*
X80645000Y-59055000D01*
X118110000Y-60960000D02*
X106680000Y-60960000D01*
X105410000Y-60960000D02*
X94100000Y-60960000D01*
X118745000Y-58690000D02*
X118745000Y-59055000D01*
X68580000Y-60960000D02*
X67945000Y-60325000D01*
X118745000Y-59055000D02*
X118745000Y-60325000D01*
X93345000Y-59055000D02*
X93345000Y-60205000D01*
X94100000Y-60960000D02*
X93345000Y-60205000D01*
X67310000Y-60960000D02*
X55880000Y-60960000D01*
X67945000Y-60325000D02*
X67945000Y-59055000D01*
X55245000Y-60325000D02*
X55245000Y-59055000D01*
X80645000Y-60325000D02*
X80010000Y-60960000D01*
X93345000Y-60205000D02*
X92590000Y-60960000D01*
X106045000Y-60325000D02*
X105410000Y-60960000D01*
X106680000Y-60960000D02*
X106045000Y-60325000D01*
X55880000Y-60960000D02*
X55245000Y-60325000D01*
X81280000Y-60960000D02*
X80645000Y-60325000D01*
X118745000Y-60325000D02*
X118110000Y-60960000D01*
X106045000Y-60325000D02*
X106045000Y-59055000D01*
X67945000Y-60325000D02*
X67310000Y-60960000D01*
X102690000Y-88645000D02*
X108990000Y-88645000D01*
X111150000Y-90805000D02*
X108990000Y-88645000D01*
X116840000Y-90805000D02*
X111150000Y-90805000D01*
X142367000Y-56896000D02*
X142367000Y-59055000D01*
X141224000Y-55753000D02*
X142367000Y-56896000D01*
X120994600Y-55753000D02*
X141224000Y-55753000D01*
X118745000Y-59055000D02*
X118745000Y-58002600D01*
X118745000Y-58002600D02*
X120994600Y-55753000D01*
X153670000Y-59055000D02*
X154559000Y-59944000D01*
X150495000Y-67056000D02*
X150495000Y-66040000D01*
X142367000Y-59055000D02*
X153670000Y-59055000D01*
X154559000Y-59944000D02*
X154559000Y-66802000D01*
X154559000Y-66802000D02*
X153924000Y-67437000D01*
X153924000Y-67437000D02*
X150876000Y-67437000D01*
X150876000Y-67437000D02*
X150495000Y-67056000D01*
X144780000Y-86233000D02*
X144780000Y-84328000D01*
X145288000Y-86741000D02*
X144780000Y-86233000D01*
X156083000Y-86741000D02*
X145288000Y-86741000D01*
X161163000Y-91821000D02*
X156083000Y-86741000D01*
X161163000Y-108839000D02*
X161163000Y-91821000D01*
X161544000Y-109220000D02*
X162669000Y-109220000D01*
X161163000Y-108839000D02*
X161544000Y-109220000D01*
X161544000Y-109220000D02*
X161163000Y-109601000D01*
X162187979Y-116881795D02*
X162187979Y-117809195D01*
X161163000Y-115856816D02*
X162187979Y-116881795D01*
X161163000Y-109601000D02*
X161163000Y-115856816D01*
X203668999Y-98893999D02*
X202819000Y-98044000D01*
X206121000Y-101346000D02*
X203668999Y-98893999D01*
X206121000Y-116459000D02*
X206121000Y-101346000D01*
X202819000Y-117602000D02*
X204978000Y-117602000D01*
X204978000Y-117602000D02*
X206121000Y-116459000D01*
X108990000Y-83415000D02*
X108990000Y-88645000D01*
X109982000Y-82423000D02*
X108990000Y-83415000D01*
X121285000Y-83185000D02*
X120523000Y-82423000D01*
X120523000Y-82423000D02*
X109982000Y-82423000D01*
X150114000Y-67437000D02*
X150495000Y-67056000D01*
X149606000Y-67437000D02*
X150114000Y-67437000D01*
X142733799Y-74309201D02*
X149606000Y-67437000D01*
X142733799Y-82408799D02*
X142733799Y-74309201D01*
X144653000Y-84328000D02*
X144780000Y-84328000D01*
X142748000Y-82423000D02*
X144653000Y-84328000D01*
X122047000Y-82423000D02*
X142748000Y-82423000D01*
X121270620Y-83199380D02*
X122047000Y-82423000D01*
X123825000Y-95885000D02*
X121270620Y-93330620D01*
X121270620Y-93330620D02*
X121270620Y-83199380D01*
X162669000Y-108420000D02*
X162669000Y-109220000D01*
X163322000Y-107442000D02*
X162669000Y-108095000D01*
X167414589Y-109502589D02*
X165354000Y-107442000D01*
X165354000Y-107442000D02*
X163322000Y-107442000D01*
X183416589Y-109502589D02*
X167414589Y-109502589D01*
X162669000Y-108095000D02*
X162669000Y-108420000D01*
X191516000Y-117602000D02*
X183416589Y-109502589D01*
X202819000Y-117602000D02*
X191516000Y-117602000D01*
D39*
X59610000Y-132160000D02*
X60960000Y-130810000D01*
X59610000Y-140335000D02*
X59610000Y-132160000D01*
D38*
X194310000Y-115062000D02*
X202819000Y-115062000D01*
X102870000Y-99695000D02*
X109170000Y-99695000D01*
X111710000Y-102235000D02*
X109170000Y-99695000D01*
X116840000Y-102235000D02*
X111710000Y-102235000D01*
X169366000Y-81280000D02*
X167132000Y-83514000D01*
X171704000Y-81280000D02*
X169366000Y-81280000D01*
X163594000Y-83058000D02*
X163576000Y-83076000D01*
X167132000Y-83514000D02*
X166676000Y-83058000D01*
X166676000Y-83058000D02*
X163594000Y-83058000D01*
X163576000Y-85104210D02*
X161075968Y-87604242D01*
X161075968Y-87604242D02*
X160575969Y-88104241D01*
X163576000Y-83076000D02*
X163576000Y-85104210D01*
X132080000Y-88011000D02*
X156083000Y-88011000D01*
X132016400Y-88011000D02*
X132080000Y-88011000D01*
X131699000Y-88011000D02*
X132080000Y-88011000D01*
X129669999Y-90040001D02*
X131699000Y-88011000D01*
X123825000Y-91440000D02*
X125224999Y-90040001D01*
X125224999Y-90040001D02*
X129669999Y-90040001D01*
X125224999Y-92839999D02*
X123825000Y-91440000D01*
X118364000Y-102235000D02*
X122555000Y-98044000D01*
X122555000Y-98044000D02*
X125476000Y-98044000D01*
X125476000Y-98044000D02*
X126365000Y-97155000D01*
X126365000Y-97155000D02*
X126365000Y-93980000D01*
X116840000Y-102235000D02*
X118364000Y-102235000D01*
X126365000Y-93980000D02*
X125224999Y-92839999D01*
X60960000Y-113030000D02*
X62230000Y-114300000D01*
X110490000Y-112776000D02*
X110490000Y-114300000D01*
X94234000Y-112776000D02*
X94234000Y-114300000D01*
X62230000Y-114300000D02*
X94234000Y-114300000D01*
X76962000Y-112776000D02*
X76962000Y-114300000D01*
X97735000Y-101975000D02*
X97155000Y-102555000D01*
X102870000Y-101975000D02*
X97735000Y-101975000D01*
X97355000Y-90925000D02*
X97155000Y-91125000D01*
X102690000Y-90925000D02*
X97355000Y-90925000D01*
X127254000Y-112776000D02*
X127254000Y-114300000D01*
X142621000Y-114300000D02*
X144145000Y-112776000D01*
X127254000Y-114300000D02*
X142621000Y-114300000D01*
X127254000Y-114300000D02*
X94234000Y-114300000D01*
X97155000Y-100652600D02*
X94615000Y-98112600D01*
X91893658Y-94361006D02*
X94615000Y-94361006D01*
X94615000Y-98112600D02*
X94615000Y-94361006D01*
X97155000Y-91125000D02*
X97155000Y-92075000D01*
X89707344Y-96547320D02*
X91893658Y-94361006D01*
X94868994Y-94361006D02*
X94615000Y-94361006D01*
X97155000Y-92075000D02*
X94868994Y-94361006D01*
X97155000Y-102555000D02*
X97155000Y-100652600D01*
X89662000Y-96592664D02*
X89707344Y-96547320D01*
X89662000Y-107950000D02*
X89662000Y-96592664D01*
X89154000Y-108458000D02*
X89662000Y-107950000D01*
X57413618Y-108458000D02*
X89154000Y-108458000D01*
X52832000Y-114300000D02*
X52070000Y-113538000D01*
X62230000Y-114300000D02*
X52832000Y-114300000D01*
X52070000Y-113538000D02*
X52070000Y-111760000D01*
X52070000Y-111760000D02*
X53725790Y-110104210D01*
X53725790Y-110104210D02*
X55767408Y-110104210D01*
X55767408Y-110104210D02*
X57413618Y-108458000D01*
X160274000Y-91440000D02*
X160782000Y-91948000D01*
X144018000Y-102743000D02*
X144018000Y-112649000D01*
X159004000Y-91440000D02*
X160274000Y-91440000D01*
X144018000Y-112649000D02*
X144145000Y-112776000D01*
X160782000Y-91948000D02*
X160782000Y-100965000D01*
X160782000Y-100965000D02*
X159893000Y-101854000D01*
X159893000Y-101854000D02*
X144907000Y-101854000D01*
X144907000Y-101854000D02*
X144018000Y-102743000D01*
X122425001Y-101729999D02*
X123825000Y-100330000D01*
X118618000Y-105537000D02*
X122425001Y-101729999D01*
X104013000Y-105537000D02*
X118618000Y-105537000D01*
X102870000Y-101975000D02*
X102870000Y-104394000D01*
X102870000Y-104394000D02*
X104013000Y-105537000D01*
X158554000Y-93980000D02*
X159004000Y-93980000D01*
X57559589Y-108810411D02*
X128425589Y-108810411D01*
X53340000Y-113030000D02*
X57559589Y-108810411D01*
X128425589Y-108810411D02*
X143256000Y-93980000D01*
X143256000Y-93980000D02*
X159004000Y-93980000D01*
X158554000Y-95250000D02*
X159004000Y-95250000D01*
X142484384Y-95250000D02*
X158877000Y-95250000D01*
X128557360Y-109177024D02*
X142484384Y-95250000D01*
X69850000Y-113030000D02*
X73702976Y-109177024D01*
X73702976Y-109177024D02*
X128557360Y-109177024D01*
X86614000Y-112776000D02*
X86360000Y-112776000D01*
X158554000Y-96520000D02*
X159004000Y-96520000D01*
X141712768Y-96520000D02*
X159004000Y-96520000D01*
X128703334Y-109529434D02*
X141712768Y-96520000D01*
X86360000Y-113030000D02*
X89860565Y-109529435D01*
X89860565Y-109529435D02*
X128703334Y-109529434D01*
X105764154Y-109881846D02*
X102870000Y-112776000D01*
X128849306Y-109881846D02*
X105764154Y-109881846D01*
X159004000Y-97790000D02*
X140941152Y-97790000D01*
X140941152Y-97790000D02*
X128849306Y-109881846D01*
X140169536Y-99060000D02*
X159004000Y-99060000D01*
X128993536Y-110236000D02*
X140169536Y-99060000D01*
X119634000Y-112776000D02*
X122174000Y-110236000D01*
X122174000Y-110236000D02*
X128993536Y-110236000D01*
X136525000Y-103251000D02*
X136525000Y-112776000D01*
X159004000Y-100330000D02*
X139446000Y-100330000D01*
X139446000Y-100330000D02*
X136525000Y-103251000D01*
D39*
X54610000Y-132080000D02*
X53340000Y-130810000D01*
X54610000Y-140335000D02*
X54610000Y-132080000D01*
X76247000Y-132033000D02*
X77470000Y-130810000D01*
X76247000Y-140335000D02*
X76247000Y-132033000D01*
X71247000Y-132207000D02*
X69850000Y-130810000D01*
X71247000Y-140335000D02*
X71247000Y-132207000D01*
X92884000Y-131906000D02*
X93980000Y-130810000D01*
X92884000Y-140335000D02*
X92884000Y-131906000D01*
X87884000Y-132334000D02*
X86360000Y-130810000D01*
X87884000Y-140335000D02*
X87884000Y-132334000D01*
X109521000Y-131525000D02*
X110490000Y-130556000D01*
X109521000Y-140335000D02*
X109521000Y-131525000D01*
X104521000Y-132207000D02*
X102870000Y-130556000D01*
X104521000Y-140335000D02*
X104521000Y-132207000D01*
X126158000Y-131652000D02*
X127254000Y-130556000D01*
X126158000Y-140335000D02*
X126158000Y-131652000D01*
X121158000Y-132080000D02*
X119634000Y-130556000D01*
X121158000Y-140335000D02*
X121158000Y-132080000D01*
X142795000Y-131906000D02*
X144145000Y-130556000D01*
X142795000Y-140335000D02*
X142795000Y-131906000D01*
X137795000Y-131826000D02*
X136525000Y-130556000D01*
X137795000Y-140335000D02*
X137795000Y-131826000D01*
D38*
X164731420Y-123190000D02*
X165989000Y-123190000D01*
D39*
X178435000Y-123190000D02*
X165354000Y-123190000D01*
D38*
X116205000Y-59055000D02*
X107315000Y-59055000D01*
X103505000Y-59055000D02*
X94615000Y-59055000D01*
X90805000Y-59055000D02*
X81915000Y-59055000D01*
X78105000Y-59055000D02*
X69215000Y-59055000D01*
X65405000Y-59055000D02*
X56515000Y-59055000D01*
X149631401Y-60096401D02*
X150495000Y-60960000D01*
X149283799Y-59748799D02*
X149631401Y-60096401D01*
X141513637Y-59748799D02*
X149283799Y-59748799D01*
X138138637Y-56373799D02*
X141513637Y-59748799D01*
X123383601Y-56373799D02*
X138138637Y-56373799D01*
X120702400Y-59055000D02*
X123383601Y-56373799D01*
X120015000Y-59055000D02*
X120702400Y-59055000D01*
X151081314Y-84328000D02*
X149860000Y-84328000D01*
X154168382Y-84328000D02*
X151081314Y-84328000D01*
X176259000Y-98010000D02*
X176259000Y-100093000D01*
X175006000Y-101346000D02*
X162560000Y-101346000D01*
X176259000Y-100093000D02*
X175006000Y-101346000D01*
X162560000Y-101346000D02*
X161544000Y-100330000D01*
X161544000Y-100330000D02*
X161544000Y-91703618D01*
X161544000Y-91703618D02*
X154168382Y-84328000D01*
X153392183Y-58278800D02*
X150495000Y-58278800D01*
X156210000Y-66929000D02*
X156210000Y-61096617D01*
X152527000Y-70612000D02*
X156210000Y-66929000D01*
X146558000Y-76448222D02*
X146558000Y-72517000D01*
X146543799Y-76462423D02*
X146558000Y-76448222D01*
X156210000Y-61096617D02*
X153392183Y-58278800D01*
X146558000Y-72517000D02*
X148463000Y-70612000D01*
X148463000Y-70612000D02*
X152527000Y-70612000D01*
X146543799Y-78373201D02*
X146543799Y-76462423D01*
X146558000Y-79248000D02*
X146558000Y-78359000D01*
X148590000Y-81280000D02*
X146558000Y-79248000D01*
X149860000Y-84328000D02*
X148590000Y-83058000D01*
X148590000Y-83058000D02*
X148590000Y-81280000D01*
X142367000Y-62865000D02*
X144526000Y-62865000D01*
X171704000Y-86360000D02*
X165622210Y-86360000D01*
X165622210Y-86360000D02*
X164352210Y-85090000D01*
X155433800Y-67202978D02*
X155433800Y-63500000D01*
X152405778Y-70231000D02*
X155433800Y-67202978D01*
X148345616Y-70231000D02*
X152405778Y-70231000D01*
X146191201Y-78217799D02*
X146191201Y-72385415D01*
X146191201Y-72385415D02*
X148345616Y-70231000D01*
X147320000Y-80508384D02*
X146177000Y-79365384D01*
X146177000Y-79365384D02*
X146177000Y-78232000D01*
X147320000Y-81788000D02*
X147320000Y-80508384D01*
X141582000Y-71905000D02*
X120015000Y-71905000D01*
X142367000Y-67945000D02*
X142367000Y-71120000D01*
X142367000Y-71120000D02*
X141582000Y-71905000D01*
X128006536Y-69469000D02*
X133477000Y-69469000D01*
X136271000Y-66675000D02*
X142367000Y-66675000D01*
X127993896Y-69481640D02*
X128006536Y-69469000D01*
X107465000Y-71905000D02*
X109888360Y-69481640D01*
X133477000Y-69469000D02*
X136271000Y-66675000D01*
X109888360Y-69481640D02*
X127993896Y-69481640D01*
X131445000Y-62865000D02*
X133067000Y-62865000D01*
X126238000Y-68072000D02*
X131445000Y-62865000D01*
X94765000Y-65405000D02*
X97432000Y-68072000D01*
X97432000Y-68072000D02*
X126238000Y-68072000D01*
X131445000Y-64135000D02*
X133067000Y-64135000D01*
X81915000Y-65405000D02*
X84934409Y-68424409D01*
X84934409Y-68424409D02*
X127155591Y-68424409D01*
X127155591Y-68424409D02*
X131445000Y-64135000D01*
X131445000Y-65405000D02*
X133067000Y-65405000D01*
X127714590Y-68764178D02*
X128085822Y-68764178D01*
X72736820Y-68776820D02*
X127701948Y-68776820D01*
X128085822Y-68764178D02*
X131445000Y-65405000D01*
X127701948Y-68776820D02*
X127714590Y-68764178D01*
X69365000Y-65405000D02*
X72736820Y-68776820D01*
X131445000Y-66675000D02*
X133067000Y-66675000D01*
X127860563Y-69116589D02*
X129003411Y-69116589D01*
X60929231Y-69129231D02*
X127847922Y-69129230D01*
X57205000Y-65405000D02*
X60929231Y-69129231D01*
X127847922Y-69129230D02*
X127860563Y-69116589D01*
X129003411Y-69116589D02*
X131445000Y-66675000D01*
X165608006Y-88900000D02*
X164338000Y-87629994D01*
X171704000Y-88900000D02*
X165608006Y-88900000D01*
X152171401Y-65176401D02*
X153035000Y-66040000D01*
X151765000Y-64770000D02*
X152171401Y-65176401D01*
X149225000Y-64770000D02*
X151765000Y-64770000D01*
X142367000Y-61595000D02*
X146050000Y-61595000D01*
X146050000Y-61595000D02*
X149225000Y-64770000D01*
X144286200Y-73293648D02*
X149126848Y-68453000D01*
X149126848Y-68453000D02*
X153035000Y-68453000D01*
X144751411Y-79219411D02*
X144286200Y-78754200D01*
X144286200Y-78754200D02*
X144286200Y-73293648D01*
X144780000Y-79883000D02*
X144780000Y-79248000D01*
X144780000Y-81788000D02*
X144780000Y-79883000D01*
X147320000Y-60325000D02*
X150495000Y-63500000D01*
X142367000Y-60325000D02*
X147320000Y-60325000D01*
X165622210Y-87630000D02*
X164352210Y-86360000D01*
X171704000Y-87630000D02*
X165622210Y-87630000D01*
X148736232Y-69342000D02*
X151765000Y-69342000D01*
X144638611Y-73439621D02*
X148736232Y-69342000D01*
X145103822Y-79063822D02*
X144638611Y-78598611D01*
X144638611Y-78598611D02*
X144638611Y-73439621D01*
X146050000Y-80010000D02*
X145161000Y-79121000D01*
X147320000Y-84328000D02*
X146050000Y-83058000D01*
X146050000Y-83058000D02*
X146050000Y-80010000D01*
X169799000Y-91440000D02*
X171704000Y-91440000D01*
X164465000Y-95250000D02*
X165989000Y-95250000D01*
X165989000Y-95250000D02*
X169799000Y-91440000D01*
X165862000Y-93980000D02*
X164338000Y-93980000D01*
X171704000Y-90170000D02*
X169672000Y-90170000D01*
X169672000Y-90170000D02*
X165862000Y-93980000D01*
X164404000Y-100330000D02*
X165306400Y-100330000D01*
X169926000Y-96520000D02*
X171704000Y-96520000D01*
X165227000Y-100330000D02*
X166116000Y-100330000D01*
X166116000Y-100330000D02*
X169926000Y-96520000D01*
X169926000Y-95250000D02*
X171704000Y-95250000D01*
X164338000Y-99060000D02*
X166116000Y-99060000D01*
X166116000Y-99060000D02*
X169926000Y-95250000D01*
X165989000Y-97790000D02*
X164465000Y-97790000D01*
X171704000Y-93980000D02*
X169799000Y-93980000D01*
X169799000Y-93980000D02*
X165989000Y-97790000D01*
X165989000Y-96520000D02*
X164465000Y-96520000D01*
X171704000Y-92710000D02*
X169799000Y-92710000D01*
X169799000Y-92710000D02*
X165989000Y-96520000D01*
X162669000Y-115806000D02*
X162669000Y-114300000D01*
X163457979Y-117809195D02*
X163457979Y-116594979D01*
X163457979Y-116594979D02*
X162669000Y-115806000D01*
X162669000Y-112560000D02*
X162669000Y-114300000D01*
X162669000Y-111760000D02*
X162669000Y-112560000D01*
X205105000Y-93091000D02*
X205105000Y-90170000D01*
X192795616Y-119380000D02*
X205984384Y-119380000D01*
X205984384Y-119380000D02*
X206473411Y-118890973D01*
X205105000Y-90170000D02*
X196215000Y-81280000D01*
X167268616Y-109855000D02*
X183270616Y-109855000D01*
X206473411Y-118890973D02*
X206473411Y-94459411D01*
X183270616Y-109855000D02*
X192795616Y-119380000D01*
X196215000Y-81280000D02*
X191106400Y-81280000D01*
X206473411Y-94459411D02*
X205105000Y-93091000D01*
X165208027Y-107794411D02*
X167268616Y-109855000D01*
X191106400Y-81280000D02*
X189704000Y-81280000D01*
X163703000Y-110726000D02*
X163703000Y-108204000D01*
X162669000Y-111760000D02*
X163703000Y-110726000D01*
X164112589Y-107794411D02*
X165208027Y-107794411D01*
X163703000Y-108204000D02*
X164112589Y-107794411D01*
X201295000Y-93980000D02*
X202819000Y-95504000D01*
X189704000Y-83820000D02*
X194310000Y-83820000D01*
X198120000Y-87630000D02*
X198120000Y-90805000D01*
X194310000Y-83820000D02*
X198120000Y-87630000D01*
X198120000Y-90805000D02*
X201295000Y-93980000D01*
X193040000Y-85090000D02*
X189704000Y-85090000D01*
X194564000Y-86614000D02*
X193040000Y-85090000D01*
X204343000Y-94488000D02*
X204343000Y-96139000D01*
X202819000Y-92964000D02*
X204343000Y-94488000D01*
X204343000Y-96139000D02*
X203708000Y-96774000D01*
X203708000Y-96774000D02*
X201549000Y-96774000D01*
X201549000Y-96774000D02*
X194564000Y-89789000D01*
X194564000Y-89789000D02*
X194564000Y-86614000D01*
X198755000Y-96520000D02*
X189704000Y-96520000D01*
X200025000Y-97790000D02*
X198755000Y-96520000D01*
X200025000Y-106045000D02*
X200025000Y-97790000D01*
X202819000Y-106680000D02*
X200660000Y-106680000D01*
X200660000Y-106680000D02*
X200025000Y-106045000D01*
X192260000Y-112540000D02*
X192278000Y-112522000D01*
X192260000Y-115062000D02*
X192260000Y-112540000D01*
X192278000Y-104902000D02*
X192278000Y-112522000D01*
X192278000Y-102108000D02*
X192278000Y-104902000D01*
X186419000Y-98010000D02*
X188180000Y-98010000D01*
X188180000Y-98010000D02*
X192278000Y-102108000D01*
D39*
X178435000Y-140335000D02*
X178435000Y-131826000D01*
X151130000Y-123190000D02*
X151149195Y-123209195D01*
D38*
X162191420Y-123190000D02*
X163449000Y-123190000D01*
D39*
X60960000Y-120650000D02*
X60960000Y-123190000D01*
X60960000Y-123190000D02*
X50800000Y-123190000D01*
X77470000Y-120650000D02*
X77470000Y-123190000D01*
X77470000Y-123190000D02*
X60960000Y-123190000D01*
X93980000Y-120650000D02*
X93980000Y-123190000D01*
X93980000Y-123190000D02*
X77470000Y-123190000D01*
X110490000Y-120396000D02*
X110490000Y-123190000D01*
X127254000Y-123190000D02*
X110490000Y-123190000D01*
X110490000Y-123190000D02*
X93980000Y-123190000D01*
X127254000Y-120396000D02*
X127254000Y-123190000D01*
X144145000Y-120396000D02*
X144145000Y-123190000D01*
X144145000Y-123190000D02*
X127254000Y-123190000D01*
X155575000Y-140335000D02*
X155575000Y-123190000D01*
X162814000Y-123190000D02*
X155575000Y-123190000D01*
X155575000Y-123190000D02*
X144145000Y-123190000D01*
X56515000Y-88900000D02*
X61595000Y-88900000D01*
X53340000Y-92075000D02*
X56515000Y-88900000D01*
X52705000Y-96520000D02*
X53340000Y-95885000D01*
X53340000Y-95885000D02*
X53340000Y-92075000D01*
X49530000Y-96520000D02*
X52705000Y-96520000D01*
X46355000Y-99695000D02*
X49530000Y-96520000D01*
X46355000Y-122301000D02*
X46355000Y-99695000D01*
X50866509Y-123190000D02*
X47244000Y-123190000D01*
X47244000Y-123190000D02*
X46355000Y-122301000D01*
X160655000Y-142875000D02*
X160655000Y-140335000D01*
X162560000Y-144780000D02*
X160655000Y-142875000D01*
X180828477Y-144780000D02*
X162560000Y-144780000D01*
X183435000Y-140335000D02*
X183435000Y-142173477D01*
X183435000Y-142173477D02*
X180828477Y-144780000D01*
D40*
X115062000Y-83820000D03*
X131318000Y-57150000D03*
X168148000Y-111760000D03*
X162052000Y-81788000D03*
X193675000Y-80010000D03*
X156083000Y-88011000D03*
X160575969Y-88104241D03*
X150495000Y-58278800D03*
X144526000Y-62865000D03*
X155433800Y-63500000D03*
X164352210Y-85090000D03*
X164338000Y-87629994D03*
X153035000Y-68453000D03*
X151765000Y-69342000D03*
X164352210Y-86360000D03*
X120015000Y-59055000D03*
X118745000Y-59055000D03*
X117475000Y-59055000D03*
X116205000Y-59055000D03*
X144780000Y-84328000D03*
X144780000Y-81788000D03*
X147320000Y-84328000D03*
X147320000Y-81788000D03*
X149860000Y-84328000D03*
X149860000Y-81788000D03*
X49805000Y-104020000D03*
X52705000Y-96520000D03*
X153035000Y-60960000D03*
X150495000Y-60960000D03*
X153035000Y-63500000D03*
X150495000Y-63500000D03*
X153035000Y-66040000D03*
X150495000Y-66040000D03*
X115515000Y-65405000D03*
X120015000Y-65405000D03*
X115515000Y-71905000D03*
X120015000Y-71905000D03*
X69365000Y-71905000D03*
X64865000Y-71905000D03*
X69365000Y-65405000D03*
X64865000Y-65405000D03*
X89708344Y-88927320D03*
X89707344Y-96547320D03*
X61720000Y-88927320D03*
X61720000Y-104140000D03*
X202819000Y-117602000D03*
X202819000Y-115062000D03*
X202819000Y-112522000D03*
X60960000Y-113030000D03*
X60960000Y-120650000D03*
X60960000Y-125730000D03*
X60960000Y-130810000D03*
X53340000Y-130810000D03*
X53340000Y-125730000D03*
X53340000Y-120650000D03*
X53340000Y-113030000D03*
X77470000Y-113030000D03*
X77470000Y-120650000D03*
X77470000Y-125730000D03*
X77470000Y-130810000D03*
X69850000Y-130810000D03*
X69850000Y-125730000D03*
X69850000Y-120650000D03*
X69850000Y-113030000D03*
X93980000Y-113030000D03*
X93980000Y-120650000D03*
X93980000Y-125730000D03*
X93980000Y-130810000D03*
X86360000Y-130810000D03*
X86360000Y-125730000D03*
X86360000Y-120650000D03*
X86360000Y-113030000D03*
X110490000Y-112776000D03*
X110490000Y-120396000D03*
X110490000Y-125476000D03*
X110490000Y-130556000D03*
X102870000Y-130556000D03*
X102870000Y-125476000D03*
X102870000Y-120396000D03*
X102870000Y-112776000D03*
X127254000Y-112776000D03*
X127254000Y-120396000D03*
X127254000Y-125476000D03*
X127254000Y-130556000D03*
X119634000Y-130556000D03*
X119634000Y-125476000D03*
X119634000Y-120396000D03*
X119634000Y-112776000D03*
X144145000Y-112776000D03*
X144145000Y-120396000D03*
X144145000Y-125476000D03*
X144145000Y-130556000D03*
X136525000Y-130556000D03*
X136525000Y-125476000D03*
X136525000Y-120396000D03*
X136525000Y-112776000D03*
X43180000Y-83185000D03*
X43180000Y-148590000D03*
X203200000Y-83185000D03*
X203200000Y-148590000D03*
X202819000Y-98044000D03*
X202819000Y-95504000D03*
X202819000Y-92964000D03*
X202819000Y-90424000D03*
X107315000Y-59055000D03*
X106045000Y-59055000D03*
X104775000Y-59055000D03*
X103505000Y-59055000D03*
X94615000Y-59055000D03*
X93345000Y-59055000D03*
X92075000Y-59055000D03*
X90805000Y-59055000D03*
X81915000Y-59055000D03*
X80645000Y-59055000D03*
X79375000Y-59055000D03*
X78105000Y-59055000D03*
X69215000Y-59055000D03*
X67945000Y-59055000D03*
X66675000Y-59055000D03*
X65405000Y-59055000D03*
X56515000Y-59055000D03*
X55245000Y-59055000D03*
X53975000Y-59055000D03*
X52705000Y-59055000D03*
X204470000Y-64135000D03*
X41910000Y-64135000D03*
X102965000Y-65405000D03*
X107465000Y-65405000D03*
X102965000Y-71905000D03*
X107465000Y-71905000D03*
X94765000Y-71905000D03*
X90265000Y-71905000D03*
X94765000Y-65405000D03*
X90265000Y-65405000D03*
X77415000Y-65405000D03*
X81915000Y-65405000D03*
X77415000Y-71905000D03*
X81915000Y-71905000D03*
X57205000Y-71905000D03*
X52705000Y-71905000D03*
X57205000Y-65405000D03*
X52705000Y-65405000D03*
X147320000Y-76835000D03*
X145415000Y-76835000D03*
X143510000Y-76835000D03*
X141605000Y-76835000D03*
X92884000Y-140335000D03*
X87884000Y-140335000D03*
X104521000Y-140335000D03*
X109521000Y-140335000D03*
X126158000Y-140335000D03*
X121158000Y-140335000D03*
X59610000Y-140335000D03*
X54610000Y-140335000D03*
X178435000Y-140335000D03*
X183435000Y-140335000D03*
X188435000Y-140335000D03*
X76247000Y-140335000D03*
X71247000Y-140335000D03*
X137795000Y-140335000D03*
X142795000Y-140335000D03*
X155575000Y-140335000D03*
X160575000Y-140335000D03*
X165575000Y-140335000D03*
X202819000Y-106680000D03*
X202819000Y-104140000D03*
X123825000Y-95885000D03*
X123825000Y-91440000D03*
X123825000Y-86995000D03*
X123825000Y-100330000D03*
M02*
