G04 #@! TF.GenerationSoftware,KiCad,Pcbnew,(6.0.0-rc1-dev-904-g29e0e6921)*
G04 #@! TF.CreationDate,2018-11-17T01:03:25+00:00*
G04 #@! TF.ProjectId,AquaHub,417175614875622E6B696361645F7063,2*
G04 #@! TF.SameCoordinates,Original*
G04 #@! TF.FileFunction,Legend,Top*
G04 #@! TF.FilePolarity,Positive*
%FSLAX46Y46*%
G04 Gerber Fmt 4.6, Leading zero omitted, Abs format (unit mm)*
G04 Created by KiCad (PCBNEW (6.0.0-rc1-dev-904-g29e0e6921)) date 17/11/2018 01:03:25*
%MOMM*%
%LPD*%
G01*
G04 APERTURE LIST*
%ADD10C,0.200000*%
%ADD11C,0.080000*%
%ADD12C,0.150000*%
%ADD13C,0.087400*%
%ADD14C,0.300000*%
%ADD15C,0.120000*%
G04 APERTURE END LIST*
D10*
X203436500Y-63378357D02*
X204122214Y-63378357D01*
X203779357Y-64578357D02*
X203779357Y-63378357D01*
X204979357Y-64521214D02*
X204865071Y-64578357D01*
X204636500Y-64578357D01*
X204522214Y-64521214D01*
X204465071Y-64406928D01*
X204465071Y-63949785D01*
X204522214Y-63835500D01*
X204636500Y-63778357D01*
X204865071Y-63778357D01*
X204979357Y-63835500D01*
X205036500Y-63949785D01*
X205036500Y-64064071D01*
X204465071Y-64178357D01*
X205550785Y-64578357D02*
X205550785Y-63778357D01*
X205550785Y-63892642D02*
X205607928Y-63835500D01*
X205722214Y-63778357D01*
X205893642Y-63778357D01*
X206007928Y-63835500D01*
X206065071Y-63949785D01*
X206065071Y-64578357D01*
X206065071Y-63949785D02*
X206122214Y-63835500D01*
X206236500Y-63778357D01*
X206407928Y-63778357D01*
X206522214Y-63835500D01*
X206579357Y-63949785D01*
X206579357Y-64578357D01*
X207150785Y-63778357D02*
X207150785Y-64978357D01*
X207150785Y-63835500D02*
X207265071Y-63778357D01*
X207493642Y-63778357D01*
X207607928Y-63835500D01*
X207665071Y-63892642D01*
X207722214Y-64006928D01*
X207722214Y-64349785D01*
X207665071Y-64464071D01*
X207607928Y-64521214D01*
X207493642Y-64578357D01*
X207265071Y-64578357D01*
X207150785Y-64521214D01*
D11*
X211500000Y-63500000D02*
X211500000Y-70000000D01*
X200000000Y-63500000D02*
X200000000Y-70000000D01*
X200500000Y-70500000D02*
X211000000Y-70500000D01*
X200500000Y-63000000D02*
X211000000Y-63000000D01*
X211000000Y-63000000D02*
G75*
G02X211500000Y-63500000I0J-500000D01*
G01*
X211500000Y-70000000D02*
G75*
G02X211000000Y-70500000I-500000J0D01*
G01*
X200500000Y-70500000D02*
G75*
G02X200000000Y-70000000I0J500000D01*
G01*
X200000000Y-63500000D02*
G75*
G02X200500000Y-63000000I500000J0D01*
G01*
D12*
X239000000Y-105000000D02*
G75*
G03X239000000Y-105000000I-3000000J0D01*
G01*
X239000000Y-85000000D02*
G75*
G03X239000000Y-85000000I-3000000J0D01*
G01*
X239000000Y-65000000D02*
G75*
G03X239000000Y-65000000I-3000000J0D01*
G01*
X231000000Y-44000000D02*
G75*
G03X231000000Y-44000000I-3000000J0D01*
G01*
X71000000Y-40000000D02*
G75*
G03X71000000Y-40000000I-3000000J0D01*
G01*
X63000000Y-65000000D02*
G75*
G03X63000000Y-65000000I-3000000J0D01*
G01*
X63000000Y-85000000D02*
G75*
G03X63000000Y-85000000I-3000000J0D01*
G01*
X63000000Y-105000000D02*
G75*
G03X63000000Y-105000000I-3000000J0D01*
G01*
X64000000Y-35000000D02*
X64000000Y-49000000D01*
X64000000Y-35000000D02*
G75*
G02X66000000Y-33000000I2000000J0D01*
G01*
X230000000Y-33000000D02*
X66000000Y-33000000D01*
X236000000Y-53000000D02*
X240000000Y-53000000D01*
X232000000Y-35000000D02*
X232000000Y-49000000D01*
X230000000Y-33000000D02*
G75*
G02X232000000Y-35000000I0J-2000000D01*
G01*
X236000000Y-53000000D02*
G75*
G02X232000000Y-49000000I0J4000000D01*
G01*
X240000000Y-53000000D02*
G75*
G02X242000000Y-55000000I0J-2000000D01*
G01*
X242000000Y-119000000D02*
X242000000Y-55000000D01*
X56000000Y-121000000D02*
X240000000Y-121000000D01*
X242000000Y-119000000D02*
G75*
G02X240000000Y-121000000I-2000000J0D01*
G01*
X56000000Y-121000000D02*
G75*
G02X54000000Y-119000000I0J2000000D01*
G01*
X54000000Y-55000000D02*
X54000000Y-119000000D01*
X60000000Y-53000000D02*
X56000000Y-53000000D01*
X64000000Y-49000000D02*
G75*
G02X60000000Y-53000000I-4000000J0D01*
G01*
X54000000Y-55000000D02*
G75*
G02X56000000Y-53000000I2000000J0D01*
G01*
D11*
X119750000Y-45250000D02*
G75*
G02X119250000Y-45750000I-500000J0D01*
G01*
X119250000Y-39250000D02*
G75*
G02X119750000Y-39750000I0J-500000D01*
G01*
X232000000Y-104500000D02*
G75*
G02X231500000Y-105000000I-500000J0D01*
G01*
X231500000Y-78500000D02*
G75*
G02X232000000Y-79000000I0J-500000D01*
G01*
X221750000Y-79000000D02*
G75*
G02X222250000Y-78500000I500000J0D01*
G01*
X222250000Y-105000000D02*
G75*
G02X221750000Y-104500000I0J500000D01*
G01*
X207000000Y-72500000D02*
G75*
G02X207500000Y-72000000I500000J0D01*
G01*
X207500000Y-90250000D02*
G75*
G02X207000000Y-89750000I0J500000D01*
G01*
X216000000Y-72000000D02*
G75*
G02X216500000Y-72500000I0J-500000D01*
G01*
X216500000Y-89750000D02*
G75*
G02X216000000Y-90250000I-500000J0D01*
G01*
X183250000Y-58250000D02*
G75*
G02X183750000Y-57750000I500000J0D01*
G01*
X183750000Y-70500000D02*
G75*
G02X183250000Y-70000000I0J500000D01*
G01*
X192750000Y-57750000D02*
G75*
G02X193250000Y-58250000I0J-500000D01*
G01*
X193250000Y-70000000D02*
G75*
G02X192750000Y-70500000I-500000J0D01*
G01*
X167500000Y-44500000D02*
G75*
G02X167000000Y-45000000I-500000J0D01*
G01*
X167498000Y-41759500D02*
G75*
G02X167998000Y-41259500I500000J0D01*
G01*
X177250000Y-41250000D02*
G75*
G02X177750000Y-41750000I0J-500000D01*
G01*
X177750000Y-56750000D02*
G75*
G02X177250000Y-57250000I-500000J0D01*
G01*
X159750000Y-57250000D02*
G75*
G02X159250000Y-56750000I0J500000D01*
G01*
X159250000Y-45500000D02*
G75*
G02X159750000Y-45000000I500000J0D01*
G01*
X133750000Y-57500000D02*
G75*
G02X133250000Y-57000000I0J500000D01*
G01*
X133250000Y-43500000D02*
G75*
G02X133750000Y-43000000I500000J0D01*
G01*
X147750000Y-43000000D02*
G75*
G02X148250000Y-43500000I0J-500000D01*
G01*
X148250000Y-57000000D02*
G75*
G02X147750000Y-57500000I-500000J0D01*
G01*
X129000000Y-46250000D02*
G75*
G02X129500000Y-46750000I0J-500000D01*
G01*
X129500000Y-57000000D02*
G75*
G02X129000000Y-57500000I-500000J0D01*
G01*
X111000000Y-57500000D02*
G75*
G02X110500000Y-57000000I0J500000D01*
G01*
X110500000Y-46750000D02*
G75*
G02X111000000Y-46250000I500000J0D01*
G01*
X104000000Y-59500000D02*
G75*
G02X104500000Y-59000000I500000J0D01*
G01*
X104500000Y-72000000D02*
G75*
G02X104000000Y-71500000I0J500000D01*
G01*
X161000000Y-71500000D02*
G75*
G02X160500000Y-72000000I-500000J0D01*
G01*
X160500000Y-59000000D02*
G75*
G02X161000000Y-59500000I0J-500000D01*
G01*
X162000000Y-59500000D02*
G75*
G02X162500000Y-59000000I500000J0D01*
G01*
X162500000Y-72000000D02*
G75*
G02X162000000Y-71500000I0J500000D01*
G01*
X178000000Y-71500000D02*
G75*
G02X177500000Y-72000000I-500000J0D01*
G01*
X177500000Y-59000000D02*
G75*
G02X178000000Y-59500000I0J-500000D01*
G01*
X162000000Y-71500000D02*
X162000000Y-59500000D01*
X162500000Y-72000000D02*
X177500000Y-72000000D01*
D13*
X178000000Y-59500000D02*
X178000000Y-71500000D01*
D11*
X162500000Y-59000000D02*
X177500000Y-59000000D01*
X167000000Y-45000000D02*
X159750000Y-45000000D01*
X167500000Y-41750000D02*
X167500000Y-44500000D01*
X119750000Y-39750000D02*
X119750000Y-45250000D01*
X109750000Y-39250000D02*
X119250000Y-39250000D01*
X109825428Y-45750000D02*
X119250000Y-45750000D01*
X109825428Y-45785224D02*
G75*
G02X109750000Y-39250000I-6829428J3189224D01*
G01*
D12*
X124488981Y-48692000D02*
G75*
G03X124488981Y-48692000I-283981J0D01*
G01*
X171378000Y-46449000D02*
G75*
G03X171378000Y-46449000I-635000J0D01*
G01*
X137456000Y-46096000D02*
G75*
G03X137456000Y-46096000I-635000J0D01*
G01*
X188234210Y-60383500D02*
G75*
G03X188234210Y-60383500I-359210J0D01*
G01*
X211002000Y-86200000D02*
G75*
G03X211002000Y-86200000I-254000J0D01*
G01*
D10*
X166595404Y-61643952D02*
X166773976Y-61703476D01*
X167071595Y-61703476D01*
X167190642Y-61643952D01*
X167250166Y-61584428D01*
X167309690Y-61465380D01*
X167309690Y-61346333D01*
X167250166Y-61227285D01*
X167190642Y-61167761D01*
X167071595Y-61108238D01*
X166833500Y-61048714D01*
X166714452Y-60989190D01*
X166654928Y-60929666D01*
X166595404Y-60810619D01*
X166595404Y-60691571D01*
X166654928Y-60572523D01*
X166714452Y-60513000D01*
X166833500Y-60453476D01*
X167131119Y-60453476D01*
X167309690Y-60513000D01*
X168559690Y-61584428D02*
X168500166Y-61643952D01*
X168321595Y-61703476D01*
X168202547Y-61703476D01*
X168023976Y-61643952D01*
X167904928Y-61524904D01*
X167845404Y-61405857D01*
X167785880Y-61167761D01*
X167785880Y-60989190D01*
X167845404Y-60751095D01*
X167904928Y-60632047D01*
X168023976Y-60513000D01*
X168202547Y-60453476D01*
X168321595Y-60453476D01*
X168500166Y-60513000D01*
X168559690Y-60572523D01*
X169690642Y-61703476D02*
X169095404Y-61703476D01*
X169095404Y-60453476D01*
X170629642Y-61643952D02*
X170808214Y-61703476D01*
X171105833Y-61703476D01*
X171224880Y-61643952D01*
X171284404Y-61584428D01*
X171343928Y-61465380D01*
X171343928Y-61346333D01*
X171284404Y-61227285D01*
X171224880Y-61167761D01*
X171105833Y-61108238D01*
X170867738Y-61048714D01*
X170748690Y-60989190D01*
X170689166Y-60929666D01*
X170629642Y-60810619D01*
X170629642Y-60691571D01*
X170689166Y-60572523D01*
X170748690Y-60513000D01*
X170867738Y-60453476D01*
X171165357Y-60453476D01*
X171343928Y-60513000D01*
X171879642Y-61703476D02*
X171879642Y-60453476D01*
X172177261Y-60453476D01*
X172355833Y-60513000D01*
X172474880Y-60632047D01*
X172534404Y-60751095D01*
X172593928Y-60989190D01*
X172593928Y-61167761D01*
X172534404Y-61405857D01*
X172474880Y-61524904D01*
X172355833Y-61643952D01*
X172177261Y-61703476D01*
X171879642Y-61703476D01*
X173070119Y-61346333D02*
X173665357Y-61346333D01*
X172951071Y-61703476D02*
X173367738Y-60453476D01*
X173784404Y-61703476D01*
D12*
X207952380Y-101952380D02*
X207952380Y-100952380D01*
X207952380Y-101428571D02*
X208523809Y-101428571D01*
X208523809Y-101952380D02*
X208523809Y-100952380D01*
X209000000Y-101952380D02*
X209000000Y-100952380D01*
X210000000Y-101000000D02*
X209904761Y-100952380D01*
X209761904Y-100952380D01*
X209619047Y-101000000D01*
X209523809Y-101095238D01*
X209476190Y-101190476D01*
X209428571Y-101380952D01*
X209428571Y-101523809D01*
X209476190Y-101714285D01*
X209523809Y-101809523D01*
X209619047Y-101904761D01*
X209761904Y-101952380D01*
X209857142Y-101952380D01*
X210000000Y-101904761D01*
X210047619Y-101857142D01*
X210047619Y-101523809D01*
X209857142Y-101523809D01*
X210476190Y-101952380D02*
X210476190Y-100952380D01*
X210476190Y-101428571D02*
X211047619Y-101428571D01*
X211047619Y-101952380D02*
X211047619Y-100952380D01*
X212142857Y-100952380D02*
X212476190Y-101952380D01*
X212809523Y-100952380D01*
X213333333Y-100952380D02*
X213523809Y-100952380D01*
X213619047Y-101000000D01*
X213714285Y-101095238D01*
X213761904Y-101285714D01*
X213761904Y-101619047D01*
X213714285Y-101809523D01*
X213619047Y-101904761D01*
X213523809Y-101952380D01*
X213333333Y-101952380D01*
X213238095Y-101904761D01*
X213142857Y-101809523D01*
X213095238Y-101619047D01*
X213095238Y-101285714D01*
X213142857Y-101095238D01*
X213238095Y-101000000D01*
X213333333Y-100952380D01*
X214666666Y-101952380D02*
X214190476Y-101952380D01*
X214190476Y-100952380D01*
X214857142Y-100952380D02*
X215428571Y-100952380D01*
X215142857Y-101952380D02*
X215142857Y-100952380D01*
X215714285Y-101666666D02*
X216190476Y-101666666D01*
X215619047Y-101952380D02*
X215952380Y-100952380D01*
X216285714Y-101952380D01*
X217142857Y-101000000D02*
X217047619Y-100952380D01*
X216904761Y-100952380D01*
X216761904Y-101000000D01*
X216666666Y-101095238D01*
X216619047Y-101190476D01*
X216571428Y-101380952D01*
X216571428Y-101523809D01*
X216619047Y-101714285D01*
X216666666Y-101809523D01*
X216761904Y-101904761D01*
X216904761Y-101952380D01*
X217000000Y-101952380D01*
X217142857Y-101904761D01*
X217190476Y-101857142D01*
X217190476Y-101523809D01*
X217000000Y-101523809D01*
X217619047Y-101428571D02*
X217952380Y-101428571D01*
X218095238Y-101952380D02*
X217619047Y-101952380D01*
X217619047Y-100952380D01*
X218095238Y-100952380D01*
D14*
X208733333Y-100223809D02*
X208733333Y-98623809D01*
X209114285Y-98623809D01*
X209342857Y-98700000D01*
X209495238Y-98852380D01*
X209571428Y-99004761D01*
X209647619Y-99309523D01*
X209647619Y-99538095D01*
X209571428Y-99842857D01*
X209495238Y-99995238D01*
X209342857Y-100147619D01*
X209114285Y-100223809D01*
X208733333Y-100223809D01*
X210257142Y-99766666D02*
X211019047Y-99766666D01*
X210104761Y-100223809D02*
X210638095Y-98623809D01*
X211171428Y-100223809D01*
X211704761Y-100223809D02*
X211704761Y-98623809D01*
X212619047Y-100223809D01*
X212619047Y-98623809D01*
X214219047Y-98700000D02*
X214066666Y-98623809D01*
X213838095Y-98623809D01*
X213609523Y-98700000D01*
X213457142Y-98852380D01*
X213380952Y-99004761D01*
X213304761Y-99309523D01*
X213304761Y-99538095D01*
X213380952Y-99842857D01*
X213457142Y-99995238D01*
X213609523Y-100147619D01*
X213838095Y-100223809D01*
X213990476Y-100223809D01*
X214219047Y-100147619D01*
X214295238Y-100071428D01*
X214295238Y-99538095D01*
X213990476Y-99538095D01*
X214980952Y-99385714D02*
X215514285Y-99385714D01*
X215742857Y-100223809D02*
X214980952Y-100223809D01*
X214980952Y-98623809D01*
X215742857Y-98623809D01*
X217342857Y-100223809D02*
X216809523Y-99461904D01*
X216428571Y-100223809D02*
X216428571Y-98623809D01*
X217038095Y-98623809D01*
X217190476Y-98700000D01*
X217266666Y-98776190D01*
X217342857Y-98928571D01*
X217342857Y-99157142D01*
X217266666Y-99309523D01*
X217190476Y-99385714D01*
X217038095Y-99461904D01*
X216428571Y-99461904D01*
D10*
X166174761Y-70359476D02*
X166948571Y-70359476D01*
X166531904Y-70835666D01*
X166710476Y-70835666D01*
X166829523Y-70895190D01*
X166889047Y-70954714D01*
X166948571Y-71073761D01*
X166948571Y-71371380D01*
X166889047Y-71490428D01*
X166829523Y-71549952D01*
X166710476Y-71609476D01*
X166353333Y-71609476D01*
X166234285Y-71549952D01*
X166174761Y-71490428D01*
X167484285Y-71490428D02*
X167543809Y-71549952D01*
X167484285Y-71609476D01*
X167424761Y-71549952D01*
X167484285Y-71490428D01*
X167484285Y-71609476D01*
X167960476Y-70359476D02*
X168734285Y-70359476D01*
X168317619Y-70835666D01*
X168496190Y-70835666D01*
X168615238Y-70895190D01*
X168674761Y-70954714D01*
X168734285Y-71073761D01*
X168734285Y-71371380D01*
X168674761Y-71490428D01*
X168615238Y-71549952D01*
X168496190Y-71609476D01*
X168139047Y-71609476D01*
X168020000Y-71549952D01*
X167960476Y-71490428D01*
X169091428Y-70359476D02*
X169508095Y-71609476D01*
X169924761Y-70359476D01*
X171845904Y-70315476D02*
X171250666Y-70315476D01*
X171191142Y-70910714D01*
X171250666Y-70851190D01*
X171369714Y-70791666D01*
X171667333Y-70791666D01*
X171786380Y-70851190D01*
X171845904Y-70910714D01*
X171905428Y-71029761D01*
X171905428Y-71327380D01*
X171845904Y-71446428D01*
X171786380Y-71505952D01*
X171667333Y-71565476D01*
X171369714Y-71565476D01*
X171250666Y-71505952D01*
X171191142Y-71446428D01*
X172262571Y-70315476D02*
X172679238Y-71565476D01*
X173095904Y-70315476D01*
X175374190Y-71609476D02*
X174659904Y-71609476D01*
X175017047Y-71609476D02*
X175017047Y-70359476D01*
X174898000Y-70538047D01*
X174778952Y-70657095D01*
X174659904Y-70716619D01*
X175850380Y-70478523D02*
X175909904Y-70419000D01*
X176028952Y-70359476D01*
X176326571Y-70359476D01*
X176445619Y-70419000D01*
X176505142Y-70478523D01*
X176564666Y-70597571D01*
X176564666Y-70716619D01*
X176505142Y-70895190D01*
X175790857Y-71609476D01*
X176564666Y-71609476D01*
X176921809Y-70359476D02*
X177338476Y-71609476D01*
X177755142Y-70359476D01*
X163003619Y-70419000D02*
X162884571Y-70359476D01*
X162706000Y-70359476D01*
X162527428Y-70419000D01*
X162408380Y-70538047D01*
X162348857Y-70657095D01*
X162289333Y-70895190D01*
X162289333Y-71073761D01*
X162348857Y-71311857D01*
X162408380Y-71430904D01*
X162527428Y-71549952D01*
X162706000Y-71609476D01*
X162825047Y-71609476D01*
X163003619Y-71549952D01*
X163063142Y-71490428D01*
X163063142Y-71073761D01*
X162825047Y-71073761D01*
X163598857Y-71609476D02*
X163598857Y-70359476D01*
X164313142Y-71609476D01*
X164313142Y-70359476D01*
X164908380Y-71609476D02*
X164908380Y-70359476D01*
X165206000Y-70359476D01*
X165384571Y-70419000D01*
X165503619Y-70538047D01*
X165563142Y-70657095D01*
X165622666Y-70895190D01*
X165622666Y-71073761D01*
X165563142Y-71311857D01*
X165503619Y-71430904D01*
X165384571Y-71549952D01*
X165206000Y-71609476D01*
X164908380Y-71609476D01*
D12*
X117511421Y-54472000D02*
G75*
G03X117511421Y-54472000I-141421J0D01*
G01*
X117370000Y-54472000D02*
X119070000Y-55172000D01*
X117370000Y-54472000D02*
X116370000Y-53972000D01*
X116370000Y-52752000D02*
X116290000Y-52592000D01*
X115680000Y-53502000D02*
X115490000Y-53382000D01*
X115650000Y-55502000D02*
X115460000Y-55602000D01*
X116350000Y-56272000D02*
X116270000Y-56402000D01*
X118380000Y-56262000D02*
X118460000Y-56392000D01*
X119120000Y-55482000D02*
X119290000Y-55582000D01*
X119130000Y-53452000D02*
X119300000Y-53352000D01*
X118370000Y-52742000D02*
X118490000Y-52542000D01*
X117370000Y-52242000D02*
X117370000Y-52472000D01*
X117370000Y-56702000D02*
X117370000Y-56472000D01*
X119370000Y-54472000D02*
X119600000Y-54472000D01*
X115140000Y-54472000D02*
X115370000Y-54472000D01*
X119606068Y-54472000D02*
G75*
G03X119606068Y-54472000I-2236068J0D01*
G01*
D10*
X168890428Y-56791357D02*
X168319000Y-56791357D01*
X168319000Y-55591357D01*
X169290428Y-56162785D02*
X169690428Y-56162785D01*
X169861857Y-56791357D02*
X169290428Y-56791357D01*
X169290428Y-55591357D01*
X169861857Y-55591357D01*
X170376142Y-56791357D02*
X170376142Y-55591357D01*
X170661857Y-55591357D01*
X170833285Y-55648500D01*
X170947571Y-55762785D01*
X171004714Y-55877071D01*
X171061857Y-56105642D01*
X171061857Y-56277071D01*
X171004714Y-56505642D01*
X170947571Y-56619928D01*
X170833285Y-56734214D01*
X170661857Y-56791357D01*
X170376142Y-56791357D01*
X172490428Y-56791357D02*
X172490428Y-55591357D01*
X172776142Y-55591357D01*
X172947571Y-55648500D01*
X173061857Y-55762785D01*
X173119000Y-55877071D01*
X173176142Y-56105642D01*
X173176142Y-56277071D01*
X173119000Y-56505642D01*
X173061857Y-56619928D01*
X172947571Y-56734214D01*
X172776142Y-56791357D01*
X172490428Y-56791357D01*
X173690428Y-56791357D02*
X173690428Y-55991357D01*
X173690428Y-56219928D02*
X173747571Y-56105642D01*
X173804714Y-56048500D01*
X173919000Y-55991357D01*
X174033285Y-55991357D01*
X174433285Y-56791357D02*
X174433285Y-55991357D01*
X174433285Y-55591357D02*
X174376142Y-55648500D01*
X174433285Y-55705642D01*
X174490428Y-55648500D01*
X174433285Y-55591357D01*
X174433285Y-55705642D01*
X174890428Y-55991357D02*
X175176142Y-56791357D01*
X175461857Y-55991357D01*
X176376142Y-56734214D02*
X176261857Y-56791357D01*
X176033285Y-56791357D01*
X175919000Y-56734214D01*
X175861857Y-56619928D01*
X175861857Y-56162785D01*
X175919000Y-56048500D01*
X176033285Y-55991357D01*
X176261857Y-55991357D01*
X176376142Y-56048500D01*
X176433285Y-56162785D01*
X176433285Y-56277071D01*
X175861857Y-56391357D01*
X176947571Y-56791357D02*
X176947571Y-55991357D01*
X176947571Y-56219928D02*
X177004714Y-56105642D01*
X177061857Y-56048500D01*
X177176142Y-55991357D01*
X177290428Y-55991357D01*
D11*
X159250000Y-45500000D02*
X159250000Y-56750000D01*
X177250000Y-41250000D02*
X168000000Y-41250000D01*
X177750000Y-56750000D02*
X177750000Y-41750000D01*
X159750000Y-57250000D02*
X177250000Y-57250000D01*
D14*
X72201071Y-119678571D02*
X72388571Y-118178571D01*
X72754642Y-119250000D01*
X73388571Y-118178571D01*
X73201071Y-119678571D01*
X74558214Y-119678571D02*
X74656428Y-118892857D01*
X74602857Y-118750000D01*
X74468928Y-118678571D01*
X74183214Y-118678571D01*
X74031428Y-118750000D01*
X74567142Y-119607142D02*
X74415357Y-119678571D01*
X74058214Y-119678571D01*
X73924285Y-119607142D01*
X73870714Y-119464285D01*
X73888571Y-119321428D01*
X73977857Y-119178571D01*
X74129642Y-119107142D01*
X74486785Y-119107142D01*
X74638571Y-119035714D01*
X75272500Y-119678571D02*
X75397500Y-118678571D01*
X75361785Y-118964285D02*
X75451071Y-118821428D01*
X75531428Y-118750000D01*
X75683214Y-118678571D01*
X75826071Y-118678571D01*
X76201071Y-119678571D02*
X76388571Y-118178571D01*
X76415357Y-119107142D02*
X76772500Y-119678571D01*
X76897500Y-118678571D02*
X76254642Y-119250000D01*
X78558214Y-119678571D02*
X78745714Y-118178571D01*
X78656428Y-118892857D02*
X79513571Y-118892857D01*
X79415357Y-119678571D02*
X79602857Y-118178571D01*
X80772500Y-119678571D02*
X80870714Y-118892857D01*
X80817142Y-118750000D01*
X80683214Y-118678571D01*
X80397500Y-118678571D01*
X80245714Y-118750000D01*
X80781428Y-119607142D02*
X80629642Y-119678571D01*
X80272500Y-119678571D01*
X80138571Y-119607142D01*
X80085000Y-119464285D01*
X80102857Y-119321428D01*
X80192142Y-119178571D01*
X80343928Y-119107142D01*
X80701071Y-119107142D01*
X80852857Y-119035714D01*
X81611785Y-118678571D02*
X81486785Y-119678571D01*
X81593928Y-118821428D02*
X81674285Y-118750000D01*
X81826071Y-118678571D01*
X82040357Y-118678571D01*
X82174285Y-118750000D01*
X82227857Y-118892857D01*
X82129642Y-119678571D01*
X82754642Y-118678571D02*
X83326071Y-118678571D01*
X82843928Y-119678571D02*
X83004642Y-118392857D01*
X83093928Y-118250000D01*
X83245714Y-118178571D01*
X83388571Y-118178571D01*
X83915357Y-119678571D02*
X83781428Y-119607142D01*
X83718928Y-119535714D01*
X83665357Y-119392857D01*
X83718928Y-118964285D01*
X83808214Y-118821428D01*
X83888571Y-118750000D01*
X84040357Y-118678571D01*
X84254642Y-118678571D01*
X84388571Y-118750000D01*
X84451071Y-118821428D01*
X84504642Y-118964285D01*
X84451071Y-119392857D01*
X84361785Y-119535714D01*
X84281428Y-119607142D01*
X84129642Y-119678571D01*
X83915357Y-119678571D01*
X85058214Y-119678571D02*
X85183214Y-118678571D01*
X85147500Y-118964285D02*
X85236785Y-118821428D01*
X85317142Y-118750000D01*
X85468928Y-118678571D01*
X85611785Y-118678571D01*
X86629642Y-119678571D02*
X86817142Y-118178571D01*
X86638571Y-119607142D02*
X86486785Y-119678571D01*
X86201071Y-119678571D01*
X86067142Y-119607142D01*
X86004642Y-119535714D01*
X85951071Y-119392857D01*
X86004642Y-118964285D01*
X86093928Y-118821428D01*
X86174285Y-118750000D01*
X86326071Y-118678571D01*
X86611785Y-118678571D01*
X86745714Y-118750000D01*
X88585000Y-118321428D02*
X88665357Y-118250000D01*
X88817142Y-118178571D01*
X89174285Y-118178571D01*
X89308214Y-118250000D01*
X89370714Y-118321428D01*
X89424285Y-118464285D01*
X89406428Y-118607142D01*
X89308214Y-118821428D01*
X88343928Y-119678571D01*
X89272500Y-119678571D01*
X90388571Y-118178571D02*
X90531428Y-118178571D01*
X90665357Y-118250000D01*
X90727857Y-118321428D01*
X90781428Y-118464285D01*
X90817142Y-118750000D01*
X90772500Y-119107142D01*
X90665357Y-119392857D01*
X90576071Y-119535714D01*
X90495714Y-119607142D01*
X90343928Y-119678571D01*
X90201071Y-119678571D01*
X90067142Y-119607142D01*
X90004642Y-119535714D01*
X89951071Y-119392857D01*
X89915357Y-119107142D01*
X89960000Y-118750000D01*
X90067142Y-118464285D01*
X90156428Y-118321428D01*
X90236785Y-118250000D01*
X90388571Y-118178571D01*
X92129642Y-119678571D02*
X91272500Y-119678571D01*
X91701071Y-119678571D02*
X91888571Y-118178571D01*
X91718928Y-118392857D01*
X91558214Y-118535714D01*
X91406428Y-118607142D01*
X93093928Y-118821428D02*
X92960000Y-118750000D01*
X92897500Y-118678571D01*
X92843928Y-118535714D01*
X92852857Y-118464285D01*
X92942142Y-118321428D01*
X93022500Y-118250000D01*
X93174285Y-118178571D01*
X93460000Y-118178571D01*
X93593928Y-118250000D01*
X93656428Y-118321428D01*
X93710000Y-118464285D01*
X93701071Y-118535714D01*
X93611785Y-118678571D01*
X93531428Y-118750000D01*
X93379642Y-118821428D01*
X93093928Y-118821428D01*
X92942142Y-118892857D01*
X92861785Y-118964285D01*
X92772500Y-119107142D01*
X92736785Y-119392857D01*
X92790357Y-119535714D01*
X92852857Y-119607142D01*
X92986785Y-119678571D01*
X93272500Y-119678571D01*
X93424285Y-119607142D01*
X93504642Y-119535714D01*
X93593928Y-119392857D01*
X93629642Y-119107142D01*
X93576071Y-118964285D01*
X93513571Y-118892857D01*
X93379642Y-118821428D01*
X240678571Y-100821428D02*
X239178571Y-100821428D01*
X240678571Y-100178571D02*
X239892857Y-100178571D01*
X239750000Y-100250000D01*
X239678571Y-100392857D01*
X239678571Y-100607142D01*
X239750000Y-100750000D01*
X239821428Y-100821428D01*
X239678571Y-99678571D02*
X239678571Y-99107142D01*
X239178571Y-99464285D02*
X240464285Y-99464285D01*
X240607142Y-99392857D01*
X240678571Y-99250000D01*
X240678571Y-99107142D01*
X239678571Y-98821428D02*
X239678571Y-98250000D01*
X239178571Y-98607142D02*
X240464285Y-98607142D01*
X240607142Y-98535714D01*
X240678571Y-98392857D01*
X240678571Y-98250000D01*
X239678571Y-97750000D02*
X241178571Y-97750000D01*
X239750000Y-97750000D02*
X239678571Y-97607142D01*
X239678571Y-97321428D01*
X239750000Y-97178571D01*
X239821428Y-97107142D01*
X239964285Y-97035714D01*
X240392857Y-97035714D01*
X240535714Y-97107142D01*
X240607142Y-97178571D01*
X240678571Y-97321428D01*
X240678571Y-97607142D01*
X240607142Y-97750000D01*
X240607142Y-96464285D02*
X240678571Y-96321428D01*
X240678571Y-96035714D01*
X240607142Y-95892857D01*
X240464285Y-95821428D01*
X240392857Y-95821428D01*
X240250000Y-95892857D01*
X240178571Y-96035714D01*
X240178571Y-96250000D01*
X240107142Y-96392857D01*
X239964285Y-96464285D01*
X239892857Y-96464285D01*
X239750000Y-96392857D01*
X239678571Y-96250000D01*
X239678571Y-96035714D01*
X239750000Y-95892857D01*
X240535714Y-95178571D02*
X240607142Y-95107142D01*
X240678571Y-95178571D01*
X240607142Y-95250000D01*
X240535714Y-95178571D01*
X240678571Y-95178571D01*
X239750000Y-95178571D02*
X239821428Y-95107142D01*
X239892857Y-95178571D01*
X239821428Y-95250000D01*
X239750000Y-95178571D01*
X239892857Y-95178571D01*
X239107142Y-93392857D02*
X241035714Y-94678571D01*
X239107142Y-91821428D02*
X241035714Y-93107142D01*
X240607142Y-90678571D02*
X240678571Y-90821428D01*
X240678571Y-91107142D01*
X240607142Y-91250000D01*
X240535714Y-91321428D01*
X240392857Y-91392857D01*
X239964285Y-91392857D01*
X239821428Y-91321428D01*
X239750000Y-91250000D01*
X239678571Y-91107142D01*
X239678571Y-90821428D01*
X239750000Y-90678571D01*
X239678571Y-90178571D02*
X240678571Y-89821428D01*
X239678571Y-89464285D02*
X240678571Y-89821428D01*
X241035714Y-89964285D01*
X241107142Y-90035714D01*
X241178571Y-90178571D01*
X240678571Y-88678571D02*
X240607142Y-88821428D01*
X240464285Y-88892857D01*
X239178571Y-88892857D01*
X240678571Y-88107142D02*
X239678571Y-88107142D01*
X239178571Y-88107142D02*
X239250000Y-88178571D01*
X239321428Y-88107142D01*
X239250000Y-88035714D01*
X239178571Y-88107142D01*
X239321428Y-88107142D01*
X239678571Y-87392857D02*
X240678571Y-87392857D01*
X239821428Y-87392857D02*
X239750000Y-87321428D01*
X239678571Y-87178571D01*
X239678571Y-86964285D01*
X239750000Y-86821428D01*
X239892857Y-86750000D01*
X240678571Y-86750000D01*
X240678571Y-85392857D02*
X239178571Y-85392857D01*
X240607142Y-85392857D02*
X240678571Y-85535714D01*
X240678571Y-85821428D01*
X240607142Y-85964285D01*
X240535714Y-86035714D01*
X240392857Y-86107142D01*
X239964285Y-86107142D01*
X239821428Y-86035714D01*
X239750000Y-85964285D01*
X239678571Y-85821428D01*
X239678571Y-85535714D01*
X239750000Y-85392857D01*
X240678571Y-84678571D02*
X239678571Y-84678571D01*
X239964285Y-84678571D02*
X239821428Y-84607142D01*
X239750000Y-84535714D01*
X239678571Y-84392857D01*
X239678571Y-84250000D01*
X240678571Y-83750000D02*
X239678571Y-83750000D01*
X239178571Y-83750000D02*
X239250000Y-83821428D01*
X239321428Y-83750000D01*
X239250000Y-83678571D01*
X239178571Y-83750000D01*
X239321428Y-83750000D01*
X240607142Y-82392857D02*
X240678571Y-82535714D01*
X240678571Y-82821428D01*
X240607142Y-82964285D01*
X240535714Y-83035714D01*
X240392857Y-83107142D01*
X239964285Y-83107142D01*
X239821428Y-83035714D01*
X239750000Y-82964285D01*
X239678571Y-82821428D01*
X239678571Y-82535714D01*
X239750000Y-82392857D01*
X240535714Y-81750000D02*
X240607142Y-81678571D01*
X240678571Y-81750000D01*
X240607142Y-81821428D01*
X240535714Y-81750000D01*
X240678571Y-81750000D01*
X239678571Y-81035714D02*
X240678571Y-81035714D01*
X239821428Y-81035714D02*
X239750000Y-80964285D01*
X239678571Y-80821428D01*
X239678571Y-80607142D01*
X239750000Y-80464285D01*
X239892857Y-80392857D01*
X240678571Y-80392857D01*
X240607142Y-79107142D02*
X240678571Y-79250000D01*
X240678571Y-79535714D01*
X240607142Y-79678571D01*
X240464285Y-79750000D01*
X239892857Y-79750000D01*
X239750000Y-79678571D01*
X239678571Y-79535714D01*
X239678571Y-79250000D01*
X239750000Y-79107142D01*
X239892857Y-79035714D01*
X240035714Y-79035714D01*
X240178571Y-79750000D01*
X239678571Y-78607142D02*
X239678571Y-78035714D01*
X239178571Y-78392857D02*
X240464285Y-78392857D01*
X240607142Y-78321428D01*
X240678571Y-78178571D01*
X240678571Y-78035714D01*
X239107142Y-76464285D02*
X241035714Y-77750000D01*
X240678571Y-75321428D02*
X239892857Y-75321428D01*
X239750000Y-75392857D01*
X239678571Y-75535714D01*
X239678571Y-75821428D01*
X239750000Y-75964285D01*
X240607142Y-75321428D02*
X240678571Y-75464285D01*
X240678571Y-75821428D01*
X240607142Y-75964285D01*
X240464285Y-76035714D01*
X240321428Y-76035714D01*
X240178571Y-75964285D01*
X240107142Y-75821428D01*
X240107142Y-75464285D01*
X240035714Y-75321428D01*
X239678571Y-73964285D02*
X241178571Y-73964285D01*
X240607142Y-73964285D02*
X240678571Y-74107142D01*
X240678571Y-74392857D01*
X240607142Y-74535714D01*
X240535714Y-74607142D01*
X240392857Y-74678571D01*
X239964285Y-74678571D01*
X239821428Y-74607142D01*
X239750000Y-74535714D01*
X239678571Y-74392857D01*
X239678571Y-74107142D01*
X239750000Y-73964285D01*
X239678571Y-72607142D02*
X240678571Y-72607142D01*
X239678571Y-73250000D02*
X240464285Y-73250000D01*
X240607142Y-73178571D01*
X240678571Y-73035714D01*
X240678571Y-72821428D01*
X240607142Y-72678571D01*
X240535714Y-72607142D01*
X240678571Y-71250000D02*
X239892857Y-71250000D01*
X239750000Y-71321428D01*
X239678571Y-71464285D01*
X239678571Y-71750000D01*
X239750000Y-71892857D01*
X240607142Y-71250000D02*
X240678571Y-71392857D01*
X240678571Y-71750000D01*
X240607142Y-71892857D01*
X240464285Y-71964285D01*
X240321428Y-71964285D01*
X240178571Y-71892857D01*
X240107142Y-71750000D01*
X240107142Y-71392857D01*
X240035714Y-71250000D01*
X240678571Y-70535714D02*
X239178571Y-70535714D01*
X240678571Y-69892857D02*
X239892857Y-69892857D01*
X239750000Y-69964285D01*
X239678571Y-70107142D01*
X239678571Y-70321428D01*
X239750000Y-70464285D01*
X239821428Y-70535714D01*
X239678571Y-68535714D02*
X240678571Y-68535714D01*
X239678571Y-69178571D02*
X240464285Y-69178571D01*
X240607142Y-69107142D01*
X240678571Y-68964285D01*
X240678571Y-68750000D01*
X240607142Y-68607142D01*
X240535714Y-68535714D01*
X240678571Y-67821428D02*
X239178571Y-67821428D01*
X239750000Y-67821428D02*
X239678571Y-67678571D01*
X239678571Y-67392857D01*
X239750000Y-67250000D01*
X239821428Y-67178571D01*
X239964285Y-67107142D01*
X240392857Y-67107142D01*
X240535714Y-67178571D01*
X240607142Y-67250000D01*
X240678571Y-67392857D01*
X240678571Y-67678571D01*
X240607142Y-67821428D01*
D10*
X123341642Y-56042071D02*
X123284500Y-56099214D01*
X123113071Y-56156357D01*
X122998785Y-56156357D01*
X122827357Y-56099214D01*
X122713071Y-55984928D01*
X122655928Y-55870642D01*
X122598785Y-55642071D01*
X122598785Y-55470642D01*
X122655928Y-55242071D01*
X122713071Y-55127785D01*
X122827357Y-55013500D01*
X122998785Y-54956357D01*
X123113071Y-54956357D01*
X123284500Y-55013500D01*
X123341642Y-55070642D01*
X124427357Y-56156357D02*
X123855928Y-56156357D01*
X123855928Y-54956357D01*
X125055928Y-54956357D02*
X125284500Y-54956357D01*
X125398785Y-55013500D01*
X125513071Y-55127785D01*
X125570214Y-55356357D01*
X125570214Y-55756357D01*
X125513071Y-55984928D01*
X125398785Y-56099214D01*
X125284500Y-56156357D01*
X125055928Y-56156357D01*
X124941642Y-56099214D01*
X124827357Y-55984928D01*
X124770214Y-55756357D01*
X124770214Y-55356357D01*
X124827357Y-55127785D01*
X124941642Y-55013500D01*
X125055928Y-54956357D01*
X126770214Y-56042071D02*
X126713071Y-56099214D01*
X126541642Y-56156357D01*
X126427357Y-56156357D01*
X126255928Y-56099214D01*
X126141642Y-55984928D01*
X126084500Y-55870642D01*
X126027357Y-55642071D01*
X126027357Y-55470642D01*
X126084500Y-55242071D01*
X126141642Y-55127785D01*
X126255928Y-55013500D01*
X126427357Y-54956357D01*
X126541642Y-54956357D01*
X126713071Y-55013500D01*
X126770214Y-55070642D01*
X127284500Y-56156357D02*
X127284500Y-54956357D01*
X127970214Y-56156357D02*
X127455928Y-55470642D01*
X127970214Y-54956357D02*
X127284500Y-55642071D01*
D11*
X160500000Y-59000000D02*
X104500000Y-59000000D01*
X161000000Y-71500000D02*
X161000000Y-59500000D01*
X104500000Y-72000000D02*
X160500000Y-72000000D01*
X104000000Y-59500000D02*
X104000000Y-71500000D01*
D10*
X135391142Y-56480285D02*
X135562571Y-56537428D01*
X135619714Y-56594571D01*
X135676857Y-56708857D01*
X135676857Y-56880285D01*
X135619714Y-56994571D01*
X135562571Y-57051714D01*
X135448285Y-57108857D01*
X134991142Y-57108857D01*
X134991142Y-55908857D01*
X135391142Y-55908857D01*
X135505428Y-55966000D01*
X135562571Y-56023142D01*
X135619714Y-56137428D01*
X135619714Y-56251714D01*
X135562571Y-56366000D01*
X135505428Y-56423142D01*
X135391142Y-56480285D01*
X134991142Y-56480285D01*
X136705428Y-56308857D02*
X136705428Y-57108857D01*
X136191142Y-56308857D02*
X136191142Y-56937428D01*
X136248285Y-57051714D01*
X136362571Y-57108857D01*
X136534000Y-57108857D01*
X136648285Y-57051714D01*
X136705428Y-56994571D01*
X137105428Y-56308857D02*
X137562571Y-56308857D01*
X137276857Y-55908857D02*
X137276857Y-56937428D01*
X137334000Y-57051714D01*
X137448285Y-57108857D01*
X137562571Y-57108857D01*
X137791142Y-56308857D02*
X138248285Y-56308857D01*
X137962571Y-55908857D02*
X137962571Y-56937428D01*
X138019714Y-57051714D01*
X138134000Y-57108857D01*
X138248285Y-57108857D01*
X138819714Y-57108857D02*
X138705428Y-57051714D01*
X138648285Y-56994571D01*
X138591142Y-56880285D01*
X138591142Y-56537428D01*
X138648285Y-56423142D01*
X138705428Y-56366000D01*
X138819714Y-56308857D01*
X138991142Y-56308857D01*
X139105428Y-56366000D01*
X139162571Y-56423142D01*
X139219714Y-56537428D01*
X139219714Y-56880285D01*
X139162571Y-56994571D01*
X139105428Y-57051714D01*
X138991142Y-57108857D01*
X138819714Y-57108857D01*
X139734000Y-56308857D02*
X139734000Y-57108857D01*
X139734000Y-56423142D02*
X139791142Y-56366000D01*
X139905428Y-56308857D01*
X140076857Y-56308857D01*
X140191142Y-56366000D01*
X140248285Y-56480285D01*
X140248285Y-57108857D01*
X141734000Y-57108857D02*
X141734000Y-55908857D01*
X142305428Y-56308857D02*
X142305428Y-57108857D01*
X142305428Y-56423142D02*
X142362571Y-56366000D01*
X142476857Y-56308857D01*
X142648285Y-56308857D01*
X142762571Y-56366000D01*
X142819714Y-56480285D01*
X142819714Y-57108857D01*
X143391142Y-56308857D02*
X143391142Y-57508857D01*
X143391142Y-56366000D02*
X143505428Y-56308857D01*
X143734000Y-56308857D01*
X143848285Y-56366000D01*
X143905428Y-56423142D01*
X143962571Y-56537428D01*
X143962571Y-56880285D01*
X143905428Y-56994571D01*
X143848285Y-57051714D01*
X143734000Y-57108857D01*
X143505428Y-57108857D01*
X143391142Y-57051714D01*
X144991142Y-56308857D02*
X144991142Y-57108857D01*
X144476857Y-56308857D02*
X144476857Y-56937428D01*
X144534000Y-57051714D01*
X144648285Y-57108857D01*
X144819714Y-57108857D01*
X144934000Y-57051714D01*
X144991142Y-56994571D01*
X145391142Y-56308857D02*
X145848285Y-56308857D01*
X145562571Y-55908857D02*
X145562571Y-56937428D01*
X145619714Y-57051714D01*
X145734000Y-57108857D01*
X145848285Y-57108857D01*
D11*
X147750000Y-57500000D02*
X133750000Y-57500000D01*
X148250000Y-43500000D02*
X148250000Y-57000000D01*
X133750000Y-43000000D02*
X147750000Y-43000000D01*
X133250000Y-57000000D02*
X133238500Y-43500000D01*
X111000000Y-46250000D02*
X129000000Y-46250000D01*
X110500000Y-57000000D02*
X110500000Y-46750000D01*
X129000000Y-57500000D02*
X111000000Y-57500000D01*
X129500000Y-46750000D02*
X129500000Y-57000000D01*
X183250000Y-58250000D02*
X183250000Y-70000000D01*
X192750000Y-57750000D02*
X183750000Y-57750000D01*
X193250000Y-70000000D02*
X193250000Y-58250000D01*
X183750000Y-70500000D02*
X192750000Y-70500000D01*
D14*
X228172571Y-57680571D02*
X228172571Y-56823428D01*
X229672571Y-57252000D02*
X228172571Y-57252000D01*
D10*
X184910904Y-34488619D02*
X184339476Y-34488619D01*
X184625190Y-33488619D02*
X184625190Y-34488619D01*
X184101380Y-34488619D02*
X183434714Y-33488619D01*
X183434714Y-34488619D02*
X184101380Y-33488619D01*
X110520000Y-71442857D02*
X110520000Y-70242857D01*
X110977142Y-70242857D01*
X111091428Y-70300000D01*
X111148571Y-70357142D01*
X111205714Y-70471428D01*
X111205714Y-70642857D01*
X111148571Y-70757142D01*
X111091428Y-70814285D01*
X110977142Y-70871428D01*
X110520000Y-70871428D01*
X111891428Y-71442857D02*
X111777142Y-71385714D01*
X111720000Y-71328571D01*
X111662857Y-71214285D01*
X111662857Y-70871428D01*
X111720000Y-70757142D01*
X111777142Y-70700000D01*
X111891428Y-70642857D01*
X112062857Y-70642857D01*
X112177142Y-70700000D01*
X112234285Y-70757142D01*
X112291428Y-70871428D01*
X112291428Y-71214285D01*
X112234285Y-71328571D01*
X112177142Y-71385714D01*
X112062857Y-71442857D01*
X111891428Y-71442857D01*
X112691428Y-70642857D02*
X112920000Y-71442857D01*
X113148571Y-70871428D01*
X113377142Y-71442857D01*
X113605714Y-70642857D01*
X114520000Y-71385714D02*
X114405714Y-71442857D01*
X114177142Y-71442857D01*
X114062857Y-71385714D01*
X114005714Y-71271428D01*
X114005714Y-70814285D01*
X114062857Y-70700000D01*
X114177142Y-70642857D01*
X114405714Y-70642857D01*
X114520000Y-70700000D01*
X114577142Y-70814285D01*
X114577142Y-70928571D01*
X114005714Y-71042857D01*
X115091428Y-71442857D02*
X115091428Y-70642857D01*
X115091428Y-70871428D02*
X115148571Y-70757142D01*
X115205714Y-70700000D01*
X115320000Y-70642857D01*
X115434285Y-70642857D01*
X116748571Y-71442857D02*
X116748571Y-70242857D01*
X117148571Y-71100000D01*
X117548571Y-70242857D01*
X117548571Y-71442857D01*
X118634285Y-71442857D02*
X118634285Y-70814285D01*
X118577142Y-70700000D01*
X118462857Y-70642857D01*
X118234285Y-70642857D01*
X118120000Y-70700000D01*
X118634285Y-71385714D02*
X118520000Y-71442857D01*
X118234285Y-71442857D01*
X118120000Y-71385714D01*
X118062857Y-71271428D01*
X118062857Y-71157142D01*
X118120000Y-71042857D01*
X118234285Y-70985714D01*
X118520000Y-70985714D01*
X118634285Y-70928571D01*
X119205714Y-70642857D02*
X119205714Y-71442857D01*
X119205714Y-70757142D02*
X119262857Y-70700000D01*
X119377142Y-70642857D01*
X119548571Y-70642857D01*
X119662857Y-70700000D01*
X119720000Y-70814285D01*
X119720000Y-71442857D01*
X120805714Y-71442857D02*
X120805714Y-70814285D01*
X120748571Y-70700000D01*
X120634285Y-70642857D01*
X120405714Y-70642857D01*
X120291428Y-70700000D01*
X120805714Y-71385714D02*
X120691428Y-71442857D01*
X120405714Y-71442857D01*
X120291428Y-71385714D01*
X120234285Y-71271428D01*
X120234285Y-71157142D01*
X120291428Y-71042857D01*
X120405714Y-70985714D01*
X120691428Y-70985714D01*
X120805714Y-70928571D01*
X121891428Y-70642857D02*
X121891428Y-71614285D01*
X121834285Y-71728571D01*
X121777142Y-71785714D01*
X121662857Y-71842857D01*
X121491428Y-71842857D01*
X121377142Y-71785714D01*
X121891428Y-71385714D02*
X121777142Y-71442857D01*
X121548571Y-71442857D01*
X121434285Y-71385714D01*
X121377142Y-71328571D01*
X121320000Y-71214285D01*
X121320000Y-70871428D01*
X121377142Y-70757142D01*
X121434285Y-70700000D01*
X121548571Y-70642857D01*
X121777142Y-70642857D01*
X121891428Y-70700000D01*
X122920000Y-71385714D02*
X122805714Y-71442857D01*
X122577142Y-71442857D01*
X122462857Y-71385714D01*
X122405714Y-71271428D01*
X122405714Y-70814285D01*
X122462857Y-70700000D01*
X122577142Y-70642857D01*
X122805714Y-70642857D01*
X122920000Y-70700000D01*
X122977142Y-70814285D01*
X122977142Y-70928571D01*
X122405714Y-71042857D01*
X123491428Y-71442857D02*
X123491428Y-70642857D01*
X123491428Y-70757142D02*
X123548571Y-70700000D01*
X123662857Y-70642857D01*
X123834285Y-70642857D01*
X123948571Y-70700000D01*
X124005714Y-70814285D01*
X124005714Y-71442857D01*
X124005714Y-70814285D02*
X124062857Y-70700000D01*
X124177142Y-70642857D01*
X124348571Y-70642857D01*
X124462857Y-70700000D01*
X124520000Y-70814285D01*
X124520000Y-71442857D01*
X125548571Y-71385714D02*
X125434285Y-71442857D01*
X125205714Y-71442857D01*
X125091428Y-71385714D01*
X125034285Y-71271428D01*
X125034285Y-70814285D01*
X125091428Y-70700000D01*
X125205714Y-70642857D01*
X125434285Y-70642857D01*
X125548571Y-70700000D01*
X125605714Y-70814285D01*
X125605714Y-70928571D01*
X125034285Y-71042857D01*
X126120000Y-70642857D02*
X126120000Y-71442857D01*
X126120000Y-70757142D02*
X126177142Y-70700000D01*
X126291428Y-70642857D01*
X126462857Y-70642857D01*
X126577142Y-70700000D01*
X126634285Y-70814285D01*
X126634285Y-71442857D01*
X127034285Y-70642857D02*
X127491428Y-70642857D01*
X127205714Y-70242857D02*
X127205714Y-71271428D01*
X127262857Y-71385714D01*
X127377142Y-71442857D01*
X127491428Y-71442857D01*
X176743285Y-34441000D02*
X176838523Y-34488619D01*
X176981380Y-34488619D01*
X177124238Y-34441000D01*
X177219476Y-34345761D01*
X177267095Y-34250523D01*
X177314714Y-34060047D01*
X177314714Y-33917190D01*
X177267095Y-33726714D01*
X177219476Y-33631476D01*
X177124238Y-33536238D01*
X176981380Y-33488619D01*
X176886142Y-33488619D01*
X176743285Y-33536238D01*
X176695666Y-33583857D01*
X176695666Y-33917190D01*
X176886142Y-33917190D01*
X176076619Y-34488619D02*
X175981380Y-34488619D01*
X175886142Y-34441000D01*
X175838523Y-34393380D01*
X175790904Y-34298142D01*
X175743285Y-34107666D01*
X175743285Y-33869571D01*
X175790904Y-33679095D01*
X175838523Y-33583857D01*
X175886142Y-33536238D01*
X175981380Y-33488619D01*
X176076619Y-33488619D01*
X176171857Y-33536238D01*
X176219476Y-33583857D01*
X176267095Y-33679095D01*
X176314714Y-33869571D01*
X176314714Y-34107666D01*
X176267095Y-34298142D01*
X176219476Y-34393380D01*
X176171857Y-34441000D01*
X176076619Y-34488619D01*
X179807095Y-34012428D02*
X179473761Y-34012428D01*
X179330904Y-33488619D02*
X179807095Y-33488619D01*
X179807095Y-34488619D01*
X179330904Y-34488619D01*
X178902333Y-33488619D02*
X178902333Y-34488619D01*
X178330904Y-33488619D01*
X178330904Y-34488619D01*
D14*
X228244000Y-54529857D02*
X228172571Y-54672714D01*
X228172571Y-54887000D01*
X228244000Y-55101285D01*
X228386857Y-55244142D01*
X228529714Y-55315571D01*
X228815428Y-55387000D01*
X229029714Y-55387000D01*
X229315428Y-55315571D01*
X229458285Y-55244142D01*
X229601142Y-55101285D01*
X229672571Y-54887000D01*
X229672571Y-54744142D01*
X229601142Y-54529857D01*
X229529714Y-54458428D01*
X229029714Y-54458428D01*
X229029714Y-54744142D01*
X229672571Y-53815571D02*
X228172571Y-53815571D01*
X229672571Y-52958428D01*
X228172571Y-52958428D01*
X229672571Y-52244142D02*
X228172571Y-52244142D01*
X228172571Y-51887000D01*
X228244000Y-51672714D01*
X228386857Y-51529857D01*
X228529714Y-51458428D01*
X228815428Y-51387000D01*
X229029714Y-51387000D01*
X229315428Y-51458428D01*
X229458285Y-51529857D01*
X229601142Y-51672714D01*
X229672571Y-51887000D01*
X229672571Y-52244142D01*
X228172571Y-63062000D02*
X229672571Y-62562000D01*
X228172571Y-62062000D01*
X229529714Y-60704857D02*
X229601142Y-60776285D01*
X229672571Y-60990571D01*
X229672571Y-61133428D01*
X229601142Y-61347714D01*
X229458285Y-61490571D01*
X229315428Y-61562000D01*
X229029714Y-61633428D01*
X228815428Y-61633428D01*
X228529714Y-61562000D01*
X228386857Y-61490571D01*
X228244000Y-61347714D01*
X228172571Y-61133428D01*
X228172571Y-60990571D01*
X228244000Y-60776285D01*
X228315428Y-60704857D01*
X229529714Y-59204857D02*
X229601142Y-59276285D01*
X229672571Y-59490571D01*
X229672571Y-59633428D01*
X229601142Y-59847714D01*
X229458285Y-59990571D01*
X229315428Y-60062000D01*
X229029714Y-60133428D01*
X228815428Y-60133428D01*
X228529714Y-60062000D01*
X228386857Y-59990571D01*
X228244000Y-59847714D01*
X228172571Y-59633428D01*
X228172571Y-59490571D01*
X228244000Y-59276285D01*
X228315428Y-59204857D01*
D11*
X232000000Y-104500000D02*
X232000000Y-79000000D01*
X222250000Y-105000000D02*
X231500000Y-105000000D01*
X221750000Y-79000000D02*
X221750000Y-104500000D01*
X231500000Y-78500000D02*
X222250000Y-78500000D01*
D14*
X222928571Y-93000000D02*
X223928571Y-93000000D01*
X222357142Y-93357142D02*
X223428571Y-93714285D01*
X223428571Y-92785714D01*
X223500000Y-92285714D02*
X223500000Y-91571428D01*
X223928571Y-92428571D02*
X222428571Y-91928571D01*
X223928571Y-91428571D01*
X223142857Y-89285714D02*
X223142857Y-89785714D01*
X223928571Y-89785714D02*
X222428571Y-89785714D01*
X222428571Y-89071428D01*
X222928571Y-87857142D02*
X223928571Y-87857142D01*
X222928571Y-88500000D02*
X223714285Y-88500000D01*
X223857142Y-88428571D01*
X223928571Y-88285714D01*
X223928571Y-88071428D01*
X223857142Y-87928571D01*
X223785714Y-87857142D01*
X223857142Y-87214285D02*
X223928571Y-87071428D01*
X223928571Y-86785714D01*
X223857142Y-86642857D01*
X223714285Y-86571428D01*
X223642857Y-86571428D01*
X223500000Y-86642857D01*
X223428571Y-86785714D01*
X223428571Y-87000000D01*
X223357142Y-87142857D01*
X223214285Y-87214285D01*
X223142857Y-87214285D01*
X223000000Y-87142857D01*
X222928571Y-87000000D01*
X222928571Y-86785714D01*
X223000000Y-86642857D01*
X223857142Y-85357142D02*
X223928571Y-85500000D01*
X223928571Y-85785714D01*
X223857142Y-85928571D01*
X223714285Y-86000000D01*
X223142857Y-86000000D01*
X223000000Y-85928571D01*
X222928571Y-85785714D01*
X222928571Y-85500000D01*
X223000000Y-85357142D01*
X223142857Y-85285714D01*
X223285714Y-85285714D01*
X223428571Y-86000000D01*
D11*
X207000000Y-89750000D02*
X207000000Y-72500000D01*
X216000000Y-90250000D02*
X207500000Y-90250000D01*
X216500000Y-72500000D02*
X216500000Y-89750000D01*
X207500000Y-72000000D02*
X216000000Y-72000000D01*
D14*
X208745214Y-88105000D02*
X208816642Y-88176428D01*
X208888071Y-88390714D01*
X208888071Y-88533571D01*
X208816642Y-88747857D01*
X208673785Y-88890714D01*
X208530928Y-88962142D01*
X208245214Y-89033571D01*
X208030928Y-89033571D01*
X207745214Y-88962142D01*
X207602357Y-88890714D01*
X207459500Y-88747857D01*
X207388071Y-88533571D01*
X207388071Y-88390714D01*
X207459500Y-88176428D01*
X207530928Y-88105000D01*
X207888071Y-86819285D02*
X208888071Y-86819285D01*
X207888071Y-87462142D02*
X208673785Y-87462142D01*
X208816642Y-87390714D01*
X208888071Y-87247857D01*
X208888071Y-87033571D01*
X208816642Y-86890714D01*
X208745214Y-86819285D01*
X208888071Y-86105000D02*
X207888071Y-86105000D01*
X208173785Y-86105000D02*
X208030928Y-86033571D01*
X207959500Y-85962142D01*
X207888071Y-85819285D01*
X207888071Y-85676428D01*
X208888071Y-85176428D02*
X207888071Y-85176428D01*
X208173785Y-85176428D02*
X208030928Y-85105000D01*
X207959500Y-85033571D01*
X207888071Y-84890714D01*
X207888071Y-84747857D01*
X208816642Y-83676428D02*
X208888071Y-83819285D01*
X208888071Y-84105000D01*
X208816642Y-84247857D01*
X208673785Y-84319285D01*
X208102357Y-84319285D01*
X207959500Y-84247857D01*
X207888071Y-84105000D01*
X207888071Y-83819285D01*
X207959500Y-83676428D01*
X208102357Y-83605000D01*
X208245214Y-83605000D01*
X208388071Y-84319285D01*
X207888071Y-82962142D02*
X208888071Y-82962142D01*
X208030928Y-82962142D02*
X207959500Y-82890714D01*
X207888071Y-82747857D01*
X207888071Y-82533571D01*
X207959500Y-82390714D01*
X208102357Y-82319285D01*
X208888071Y-82319285D01*
X207888071Y-81819285D02*
X207888071Y-81247857D01*
X207388071Y-81605000D02*
X208673785Y-81605000D01*
X208816642Y-81533571D01*
X208888071Y-81390714D01*
X208888071Y-81247857D01*
X208816642Y-79676428D02*
X208888071Y-79462142D01*
X208888071Y-79105000D01*
X208816642Y-78962142D01*
X208745214Y-78890714D01*
X208602357Y-78819285D01*
X208459500Y-78819285D01*
X208316642Y-78890714D01*
X208245214Y-78962142D01*
X208173785Y-79105000D01*
X208102357Y-79390714D01*
X208030928Y-79533571D01*
X207959500Y-79605000D01*
X207816642Y-79676428D01*
X207673785Y-79676428D01*
X207530928Y-79605000D01*
X207459500Y-79533571D01*
X207388071Y-79390714D01*
X207388071Y-79033571D01*
X207459500Y-78819285D01*
X208816642Y-77605000D02*
X208888071Y-77747857D01*
X208888071Y-78033571D01*
X208816642Y-78176428D01*
X208673785Y-78247857D01*
X208102357Y-78247857D01*
X207959500Y-78176428D01*
X207888071Y-78033571D01*
X207888071Y-77747857D01*
X207959500Y-77605000D01*
X208102357Y-77533571D01*
X208245214Y-77533571D01*
X208388071Y-78247857D01*
X207888071Y-76890714D02*
X208888071Y-76890714D01*
X208030928Y-76890714D02*
X207959500Y-76819285D01*
X207888071Y-76676428D01*
X207888071Y-76462142D01*
X207959500Y-76319285D01*
X208102357Y-76247857D01*
X208888071Y-76247857D01*
X208816642Y-75605000D02*
X208888071Y-75462142D01*
X208888071Y-75176428D01*
X208816642Y-75033571D01*
X208673785Y-74962142D01*
X208602357Y-74962142D01*
X208459500Y-75033571D01*
X208388071Y-75176428D01*
X208388071Y-75390714D01*
X208316642Y-75533571D01*
X208173785Y-75605000D01*
X208102357Y-75605000D01*
X207959500Y-75533571D01*
X207888071Y-75390714D01*
X207888071Y-75176428D01*
X207959500Y-75033571D01*
X208888071Y-74105000D02*
X208816642Y-74247857D01*
X208745214Y-74319285D01*
X208602357Y-74390714D01*
X208173785Y-74390714D01*
X208030928Y-74319285D01*
X207959500Y-74247857D01*
X207888071Y-74105000D01*
X207888071Y-73890714D01*
X207959500Y-73747857D01*
X208030928Y-73676428D01*
X208173785Y-73605000D01*
X208602357Y-73605000D01*
X208745214Y-73676428D01*
X208816642Y-73747857D01*
X208888071Y-73890714D01*
X208888071Y-74105000D01*
X208888071Y-72962142D02*
X207888071Y-72962142D01*
X208173785Y-72962142D02*
X208030928Y-72890714D01*
X207959500Y-72819285D01*
X207888071Y-72676428D01*
X207888071Y-72533571D01*
D10*
X184820357Y-69081285D02*
X184248928Y-69481285D01*
X184820357Y-69767000D02*
X183620357Y-69767000D01*
X183620357Y-69309857D01*
X183677500Y-69195571D01*
X183734642Y-69138428D01*
X183848928Y-69081285D01*
X184020357Y-69081285D01*
X184134642Y-69138428D01*
X184191785Y-69195571D01*
X184248928Y-69309857D01*
X184248928Y-69767000D01*
X184763214Y-68109857D02*
X184820357Y-68224142D01*
X184820357Y-68452714D01*
X184763214Y-68567000D01*
X184648928Y-68624142D01*
X184191785Y-68624142D01*
X184077500Y-68567000D01*
X184020357Y-68452714D01*
X184020357Y-68224142D01*
X184077500Y-68109857D01*
X184191785Y-68052714D01*
X184306071Y-68052714D01*
X184420357Y-68624142D01*
X184820357Y-67367000D02*
X184763214Y-67481285D01*
X184648928Y-67538428D01*
X183620357Y-67538428D01*
X184820357Y-66395571D02*
X184191785Y-66395571D01*
X184077500Y-66452714D01*
X184020357Y-66567000D01*
X184020357Y-66795571D01*
X184077500Y-66909857D01*
X184763214Y-66395571D02*
X184820357Y-66509857D01*
X184820357Y-66795571D01*
X184763214Y-66909857D01*
X184648928Y-66967000D01*
X184534642Y-66967000D01*
X184420357Y-66909857D01*
X184363214Y-66795571D01*
X184363214Y-66509857D01*
X184306071Y-66395571D01*
X184020357Y-65938428D02*
X184820357Y-65652714D01*
X184020357Y-65367000D02*
X184820357Y-65652714D01*
X185106071Y-65767000D01*
X185163214Y-65824142D01*
X185220357Y-65938428D01*
X184820357Y-63995571D02*
X183620357Y-63995571D01*
X183620357Y-63709857D01*
X183677500Y-63538428D01*
X183791785Y-63424142D01*
X183906071Y-63367000D01*
X184134642Y-63309857D01*
X184306071Y-63309857D01*
X184534642Y-63367000D01*
X184648928Y-63424142D01*
X184763214Y-63538428D01*
X184820357Y-63709857D01*
X184820357Y-63995571D01*
X184820357Y-62795571D02*
X184020357Y-62795571D01*
X184248928Y-62795571D02*
X184134642Y-62738428D01*
X184077500Y-62681285D01*
X184020357Y-62567000D01*
X184020357Y-62452714D01*
X184820357Y-62052714D02*
X184020357Y-62052714D01*
X183620357Y-62052714D02*
X183677500Y-62109857D01*
X183734642Y-62052714D01*
X183677500Y-61995571D01*
X183620357Y-62052714D01*
X183734642Y-62052714D01*
X184020357Y-61595571D02*
X184820357Y-61309857D01*
X184020357Y-61024142D01*
X184763214Y-60109857D02*
X184820357Y-60224142D01*
X184820357Y-60452714D01*
X184763214Y-60567000D01*
X184648928Y-60624142D01*
X184191785Y-60624142D01*
X184077500Y-60567000D01*
X184020357Y-60452714D01*
X184020357Y-60224142D01*
X184077500Y-60109857D01*
X184191785Y-60052714D01*
X184306071Y-60052714D01*
X184420357Y-60624142D01*
X184820357Y-59538428D02*
X184020357Y-59538428D01*
X184248928Y-59538428D02*
X184134642Y-59481285D01*
X184077500Y-59424142D01*
X184020357Y-59309857D01*
X184020357Y-59195571D01*
D12*
X191845238Y-37297619D02*
X191845238Y-36488095D01*
X191797619Y-36392857D01*
X191750000Y-36345238D01*
X191654761Y-36297619D01*
X191464285Y-36297619D01*
X191369047Y-36345238D01*
X191321428Y-36392857D01*
X191273809Y-36488095D01*
X191273809Y-37297619D01*
X190845238Y-36583333D02*
X190369047Y-36583333D01*
X190940476Y-36297619D02*
X190607142Y-37297619D01*
X190273809Y-36297619D01*
X189369047Y-36297619D02*
X189702380Y-36773809D01*
X189940476Y-36297619D02*
X189940476Y-37297619D01*
X189559523Y-37297619D01*
X189464285Y-37250000D01*
X189416666Y-37202380D01*
X189369047Y-37107142D01*
X189369047Y-36964285D01*
X189416666Y-36869047D01*
X189464285Y-36821428D01*
X189559523Y-36773809D01*
X189940476Y-36773809D01*
X189083333Y-37297619D02*
X188511904Y-37297619D01*
X188797619Y-36297619D02*
X188797619Y-37297619D01*
D14*
X110181428Y-119443571D02*
X110181428Y-117943571D01*
X111038571Y-119443571D01*
X111038571Y-117943571D01*
X116154285Y-119443571D02*
X115440000Y-119443571D01*
X115440000Y-117943571D01*
X132664285Y-119443571D02*
X131950000Y-119443571D01*
X131950000Y-117943571D01*
X126691428Y-119443571D02*
X126691428Y-117943571D01*
X127548571Y-119443571D01*
X127548571Y-117943571D01*
X149174285Y-119443571D02*
X148460000Y-119443571D01*
X148460000Y-117943571D01*
X143201428Y-119443571D02*
X143201428Y-117943571D01*
X144058571Y-119443571D01*
X144058571Y-117943571D01*
X160346428Y-119443571D02*
X160346428Y-117943571D01*
X161203571Y-119443571D01*
X161203571Y-117943571D01*
X166319285Y-119443571D02*
X165605000Y-119443571D01*
X165605000Y-117943571D01*
X176856428Y-119443571D02*
X176856428Y-117943571D01*
X177713571Y-119443571D01*
X177713571Y-117943571D01*
X182829285Y-119443571D02*
X182115000Y-119443571D01*
X182115000Y-117943571D01*
X193366428Y-119443571D02*
X193366428Y-117943571D01*
X194223571Y-119443571D01*
X194223571Y-117943571D01*
X199339285Y-119443571D02*
X198625000Y-119443571D01*
X198625000Y-117943571D01*
X55750000Y-70392857D02*
X55750000Y-71107142D01*
X55321428Y-70250000D02*
X56821428Y-70750000D01*
X55321428Y-71250000D01*
X56321428Y-72392857D02*
X54821428Y-72392857D01*
X55392857Y-72392857D02*
X55321428Y-72250000D01*
X55321428Y-71964285D01*
X55392857Y-71821428D01*
X55464285Y-71750000D01*
X55607142Y-71678571D01*
X56035714Y-71678571D01*
X56178571Y-71750000D01*
X56250000Y-71821428D01*
X56321428Y-71964285D01*
X56321428Y-72250000D01*
X56250000Y-72392857D01*
X56321428Y-73750000D02*
X55321428Y-73750000D01*
X56321428Y-73107142D02*
X55535714Y-73107142D01*
X55392857Y-73178571D01*
X55321428Y-73321428D01*
X55321428Y-73535714D01*
X55392857Y-73678571D01*
X55464285Y-73750000D01*
X55321428Y-75107142D02*
X56107142Y-75107142D01*
X56250000Y-75035714D01*
X56321428Y-74892857D01*
X56321428Y-74607142D01*
X56250000Y-74464285D01*
X55392857Y-75107142D02*
X55321428Y-74964285D01*
X55321428Y-74607142D01*
X55392857Y-74464285D01*
X55535714Y-74392857D01*
X55678571Y-74392857D01*
X55821428Y-74464285D01*
X55892857Y-74607142D01*
X55892857Y-74964285D01*
X55964285Y-75107142D01*
X55321428Y-75821428D02*
X56821428Y-75821428D01*
X56107142Y-75821428D02*
X56107142Y-76678571D01*
X55321428Y-76678571D02*
X56821428Y-76678571D01*
X56321428Y-78035714D02*
X55321428Y-78035714D01*
X56321428Y-77392857D02*
X55535714Y-77392857D01*
X55392857Y-77464285D01*
X55321428Y-77607142D01*
X55321428Y-77821428D01*
X55392857Y-77964285D01*
X55464285Y-78035714D01*
X55321428Y-78750000D02*
X56821428Y-78750000D01*
X56250000Y-78750000D02*
X56321428Y-78892857D01*
X56321428Y-79178571D01*
X56250000Y-79321428D01*
X56178571Y-79392857D01*
X56035714Y-79464285D01*
X55607142Y-79464285D01*
X55464285Y-79392857D01*
X55392857Y-79321428D01*
X55321428Y-79178571D01*
X55321428Y-78892857D01*
X55392857Y-78750000D01*
X55321428Y-81250000D02*
X56821428Y-81250000D01*
X56821428Y-81821428D01*
X56750000Y-81964285D01*
X56678571Y-82035714D01*
X56535714Y-82107142D01*
X56321428Y-82107142D01*
X56178571Y-82035714D01*
X56107142Y-81964285D01*
X56035714Y-81821428D01*
X56035714Y-81250000D01*
X55321428Y-82964285D02*
X55392857Y-82821428D01*
X55464285Y-82750000D01*
X55607142Y-82678571D01*
X56035714Y-82678571D01*
X56178571Y-82750000D01*
X56250000Y-82821428D01*
X56321428Y-82964285D01*
X56321428Y-83178571D01*
X56250000Y-83321428D01*
X56178571Y-83392857D01*
X56035714Y-83464285D01*
X55607142Y-83464285D01*
X55464285Y-83392857D01*
X55392857Y-83321428D01*
X55321428Y-83178571D01*
X55321428Y-82964285D01*
X56321428Y-83964285D02*
X55321428Y-84250000D01*
X56035714Y-84535714D01*
X55321428Y-84821428D01*
X56321428Y-85107142D01*
X55392857Y-86250000D02*
X55321428Y-86107142D01*
X55321428Y-85821428D01*
X55392857Y-85678571D01*
X55535714Y-85607142D01*
X56107142Y-85607142D01*
X56250000Y-85678571D01*
X56321428Y-85821428D01*
X56321428Y-86107142D01*
X56250000Y-86250000D01*
X56107142Y-86321428D01*
X55964285Y-86321428D01*
X55821428Y-85607142D01*
X55321428Y-86964285D02*
X56321428Y-86964285D01*
X56035714Y-86964285D02*
X56178571Y-87035714D01*
X56250000Y-87107142D01*
X56321428Y-87250000D01*
X56321428Y-87392857D01*
X56107142Y-88392857D02*
X56035714Y-88607142D01*
X55964285Y-88678571D01*
X55821428Y-88750000D01*
X55607142Y-88750000D01*
X55464285Y-88678571D01*
X55392857Y-88607142D01*
X55321428Y-88464285D01*
X55321428Y-87892857D01*
X56821428Y-87892857D01*
X56821428Y-88392857D01*
X56750000Y-88535714D01*
X56678571Y-88607142D01*
X56535714Y-88678571D01*
X56392857Y-88678571D01*
X56250000Y-88607142D01*
X56178571Y-88535714D01*
X56107142Y-88392857D01*
X56107142Y-87892857D01*
X55321428Y-89607142D02*
X55392857Y-89464285D01*
X55464285Y-89392857D01*
X55607142Y-89321428D01*
X56035714Y-89321428D01*
X56178571Y-89392857D01*
X56250000Y-89464285D01*
X56321428Y-89607142D01*
X56321428Y-89821428D01*
X56250000Y-89964285D01*
X56178571Y-90035714D01*
X56035714Y-90107142D01*
X55607142Y-90107142D01*
X55464285Y-90035714D01*
X55392857Y-89964285D01*
X55321428Y-89821428D01*
X55321428Y-89607142D01*
X55321428Y-91392857D02*
X56107142Y-91392857D01*
X56250000Y-91321428D01*
X56321428Y-91178571D01*
X56321428Y-90892857D01*
X56250000Y-90750000D01*
X55392857Y-91392857D02*
X55321428Y-91250000D01*
X55321428Y-90892857D01*
X55392857Y-90750000D01*
X55535714Y-90678571D01*
X55678571Y-90678571D01*
X55821428Y-90750000D01*
X55892857Y-90892857D01*
X55892857Y-91250000D01*
X55964285Y-91392857D01*
X55321428Y-92107142D02*
X56321428Y-92107142D01*
X56035714Y-92107142D02*
X56178571Y-92178571D01*
X56250000Y-92250000D01*
X56321428Y-92392857D01*
X56321428Y-92535714D01*
X55321428Y-93678571D02*
X56821428Y-93678571D01*
X55392857Y-93678571D02*
X55321428Y-93535714D01*
X55321428Y-93250000D01*
X55392857Y-93107142D01*
X55464285Y-93035714D01*
X55607142Y-92964285D01*
X56035714Y-92964285D01*
X56178571Y-93035714D01*
X56250000Y-93107142D01*
X56321428Y-93250000D01*
X56321428Y-93535714D01*
X56250000Y-93678571D01*
X56321428Y-95392857D02*
X55321428Y-95750000D01*
X56321428Y-96107142D01*
X56678571Y-96607142D02*
X56750000Y-96678571D01*
X56821428Y-96821428D01*
X56821428Y-97178571D01*
X56750000Y-97321428D01*
X56678571Y-97392857D01*
X56535714Y-97464285D01*
X56392857Y-97464285D01*
X56178571Y-97392857D01*
X55321428Y-96535714D01*
X55321428Y-97464285D01*
X55464285Y-98107142D02*
X55392857Y-98178571D01*
X55321428Y-98107142D01*
X55392857Y-98035714D01*
X55464285Y-98107142D01*
X55321428Y-98107142D01*
X56821428Y-99107142D02*
X56821428Y-99250000D01*
X56750000Y-99392857D01*
X56678571Y-99464285D01*
X56535714Y-99535714D01*
X56250000Y-99607142D01*
X55892857Y-99607142D01*
X55607142Y-99535714D01*
X55464285Y-99464285D01*
X55392857Y-99392857D01*
X55321428Y-99250000D01*
X55321428Y-99107142D01*
X55392857Y-98964285D01*
X55464285Y-98892857D01*
X55607142Y-98821428D01*
X55892857Y-98750000D01*
X56250000Y-98750000D01*
X56535714Y-98821428D01*
X56678571Y-98892857D01*
X56750000Y-98964285D01*
X56821428Y-99107142D01*
X213441428Y-119443571D02*
X213441428Y-117943571D01*
X214298571Y-119443571D01*
X214298571Y-117943571D01*
X219414285Y-119443571D02*
X218700000Y-119443571D01*
X218700000Y-117943571D01*
D10*
X188403333Y-34488619D02*
X188070000Y-33488619D01*
X187736666Y-34488619D01*
X186831904Y-33583857D02*
X186879523Y-33536238D01*
X187022380Y-33488619D01*
X187117619Y-33488619D01*
X187260476Y-33536238D01*
X187355714Y-33631476D01*
X187403333Y-33726714D01*
X187450952Y-33917190D01*
X187450952Y-34060047D01*
X187403333Y-34250523D01*
X187355714Y-34345761D01*
X187260476Y-34441000D01*
X187117619Y-34488619D01*
X187022380Y-34488619D01*
X186879523Y-34441000D01*
X186831904Y-34393380D01*
X185831904Y-33583857D02*
X185879523Y-33536238D01*
X186022380Y-33488619D01*
X186117619Y-33488619D01*
X186260476Y-33536238D01*
X186355714Y-33631476D01*
X186403333Y-33726714D01*
X186450952Y-33917190D01*
X186450952Y-34060047D01*
X186403333Y-34250523D01*
X186355714Y-34345761D01*
X186260476Y-34441000D01*
X186117619Y-34488619D01*
X186022380Y-34488619D01*
X185879523Y-34441000D01*
X185831904Y-34393380D01*
X181775666Y-33488619D02*
X182109000Y-33964809D01*
X182347095Y-33488619D02*
X182347095Y-34488619D01*
X181966142Y-34488619D01*
X181870904Y-34441000D01*
X181823285Y-34393380D01*
X181775666Y-34298142D01*
X181775666Y-34155285D01*
X181823285Y-34060047D01*
X181870904Y-34012428D01*
X181966142Y-33964809D01*
X182347095Y-33964809D01*
X181442333Y-34488619D02*
X180775666Y-33488619D01*
X180775666Y-34488619D02*
X181442333Y-33488619D01*
X174369904Y-34441000D02*
X174465142Y-34488619D01*
X174608000Y-34488619D01*
X174750857Y-34441000D01*
X174846095Y-34345761D01*
X174893714Y-34250523D01*
X174941333Y-34060047D01*
X174941333Y-33917190D01*
X174893714Y-33726714D01*
X174846095Y-33631476D01*
X174750857Y-33536238D01*
X174608000Y-33488619D01*
X174512761Y-33488619D01*
X174369904Y-33536238D01*
X174322285Y-33583857D01*
X174322285Y-33917190D01*
X174512761Y-33917190D01*
X173893714Y-33488619D02*
X173893714Y-34488619D01*
X173322285Y-33488619D01*
X173322285Y-34488619D01*
X172846095Y-33488619D02*
X172846095Y-34488619D01*
X172608000Y-34488619D01*
X172465142Y-34441000D01*
X172369904Y-34345761D01*
X172322285Y-34250523D01*
X172274666Y-34060047D01*
X172274666Y-33917190D01*
X172322285Y-33726714D01*
X172369904Y-33631476D01*
X172465142Y-33536238D01*
X172608000Y-33488619D01*
X172846095Y-33488619D01*
D15*
G04 #@! TO.C,Y1*
X120507000Y-48366200D02*
X110807000Y-48366200D01*
X120507000Y-50266200D02*
X120507000Y-48366200D01*
G04 #@! TO.C,U9*
X206600000Y-65600000D02*
X204300000Y-65600000D01*
X205000000Y-68800000D02*
X206600000Y-68800000D01*
G04 #@! TO.C,SW7*
X186230000Y-38920000D02*
X179770000Y-38920000D01*
X186230000Y-43450000D02*
X186230000Y-40850000D01*
X186230000Y-45380000D02*
X179770000Y-45380000D01*
X179770000Y-43450000D02*
X179770000Y-40850000D01*
X186230000Y-45350000D02*
X186230000Y-45380000D01*
X186230000Y-38920000D02*
X186230000Y-38950000D01*
X179770000Y-38920000D02*
X179770000Y-38950000D01*
X179770000Y-45380000D02*
X179770000Y-45350000D01*
G04 #@! TO.C,R17*
X210310000Y-67496267D02*
X210310000Y-67153733D01*
X209290000Y-67496267D02*
X209290000Y-67153733D01*
G04 #@! TO.C,Q2*
X116964000Y-41636000D02*
X118124000Y-41636000D01*
X116964000Y-43556000D02*
X118374000Y-43556000D01*
X116964000Y-43556000D02*
X116964000Y-43246000D01*
X116964000Y-41636000D02*
X116964000Y-41946000D01*
G04 #@! TO.C,J8*
X159242000Y-35813000D02*
X159242000Y-36873000D01*
X158182000Y-35813000D02*
X159242000Y-35813000D01*
X159242000Y-37873000D02*
X159242000Y-39933000D01*
X157182000Y-37873000D02*
X159242000Y-37873000D01*
X157182000Y-35813000D02*
X157182000Y-37873000D01*
X159242000Y-39933000D02*
X143122000Y-39933000D01*
X157182000Y-35813000D02*
X143122000Y-35813000D01*
X143122000Y-35813000D02*
X143122000Y-39933000D01*
G04 #@! TO.C,C11*
X202510000Y-67461252D02*
X202510000Y-66938748D01*
X201090000Y-67461252D02*
X201090000Y-66938748D01*
G04 #@! TO.C,U1*
X218130000Y-58740000D02*
X215345957Y-58740000D01*
X218130000Y-57746902D02*
X218130000Y-58740000D01*
X199870000Y-32980000D02*
X199870000Y-39844196D01*
X198600000Y-40000000D02*
X199600000Y-40000000D01*
X198600000Y-41200000D02*
X198600000Y-40000000D01*
X199600000Y-41200000D02*
X198600000Y-41200000D01*
X218130000Y-32980000D02*
X199870000Y-32980000D01*
X202654043Y-58740000D02*
X199870000Y-58740000D01*
X218130000Y-32980000D02*
X218130000Y-39840014D01*
X199870000Y-57740592D02*
X199870000Y-58740000D01*
X218130002Y-39100000D02*
X199869998Y-39100000D01*
G04 #@! TO.C,BT1*
X73820000Y-58250000D02*
X80700000Y-64630000D01*
X73820000Y-56680000D02*
X73820000Y-58250000D01*
X95180000Y-58250000D02*
X88300000Y-64630000D01*
X95180000Y-56680000D02*
X95180000Y-58250000D01*
X95180000Y-56680000D02*
X100110010Y-56680000D01*
X100110000Y-56680000D02*
X100110000Y-51330000D01*
X100110040Y-51320000D02*
X95180000Y-51320000D01*
X95180000Y-51320000D02*
X95180000Y-47700000D01*
X89816452Y-45507247D02*
G75*
G02X95180000Y-47700000I2233548J-2192753D01*
G01*
X89806422Y-45532608D02*
G75*
G02X79330001Y-45669999I-5306422J5132608D01*
G01*
X73822942Y-47700000D02*
G75*
G02X79319999Y-45660001I3127058J0D01*
G01*
X73820000Y-51320000D02*
X73820000Y-47720000D01*
X68880000Y-51320000D02*
X73820000Y-51320000D01*
X68880000Y-56680000D02*
X68880000Y-51320000D01*
X68880000Y-56680000D02*
X73820000Y-56680000D01*
X88300000Y-64630000D02*
X80700000Y-64630000D01*
G04 #@! TO.C,TP1*
X165456000Y-67996000D02*
G75*
G03X165456000Y-67996000I-1500000J0D01*
G01*
D12*
G04 #@! TO.C,U4*
X187082500Y-59644000D02*
X185707500Y-59644000D01*
X187082500Y-69769000D02*
X191232500Y-69769000D01*
X187082500Y-59619000D02*
X191232500Y-59619000D01*
X187082500Y-69769000D02*
X187082500Y-69664000D01*
X191232500Y-69769000D02*
X191232500Y-69664000D01*
X191232500Y-59619000D02*
X191232500Y-59724000D01*
X187082500Y-59619000D02*
X187082500Y-59644000D01*
D15*
G04 #@! TO.C,TP8*
X169520000Y-63932000D02*
G75*
G03X169520000Y-63932000I-1500000J0D01*
G01*
G04 #@! TO.C,TP7*
X173584000Y-63932000D02*
G75*
G03X173584000Y-63932000I-1500000J0D01*
G01*
G04 #@! TO.C,TP4*
X177648000Y-67985000D02*
G75*
G03X177648000Y-67985000I-1500000J0D01*
G01*
G04 #@! TO.C,TP2*
X169520000Y-67996000D02*
G75*
G03X169520000Y-67996000I-1500000J0D01*
G01*
G04 #@! TO.C,TP3*
X173584000Y-67996000D02*
G75*
G03X173584000Y-67996000I-1500000J0D01*
G01*
G04 #@! TO.C,R16*
X164381267Y-55421000D02*
X164038733Y-55421000D01*
X164381267Y-56441000D02*
X164038733Y-56441000D01*
G04 #@! TO.C,R15*
X164381267Y-53770000D02*
X164038733Y-53770000D01*
X164381267Y-54790000D02*
X164038733Y-54790000D01*
G04 #@! TO.C,R14*
X164381267Y-52119000D02*
X164038733Y-52119000D01*
X164381267Y-53139000D02*
X164038733Y-53139000D01*
G04 #@! TO.C,R13*
X164381267Y-50468000D02*
X164038733Y-50468000D01*
X164381267Y-51488000D02*
X164038733Y-51488000D01*
G04 #@! TO.C,R12*
X164381267Y-48817000D02*
X164038733Y-48817000D01*
X164381267Y-49837000D02*
X164038733Y-49837000D01*
G04 #@! TO.C,R11*
X164395267Y-47166000D02*
X164052733Y-47166000D01*
X164395267Y-48186000D02*
X164052733Y-48186000D01*
G04 #@! TO.C,R10*
X164395267Y-45515000D02*
X164052733Y-45515000D01*
X164395267Y-46535000D02*
X164052733Y-46535000D01*
G04 #@! TO.C,J10*
X172659000Y-37957000D02*
X172659000Y-36627000D01*
X173989000Y-37957000D02*
X172659000Y-37957000D01*
X175259000Y-37957000D02*
X175259000Y-35297000D01*
X175259000Y-35297000D02*
X188019000Y-35297000D01*
X175259000Y-37957000D02*
X188019000Y-37957000D01*
X188019000Y-37957000D02*
X188019000Y-35297000D01*
D12*
G04 #@! TO.C,U8*
X169883000Y-45209000D02*
X169883000Y-45234000D01*
X174033000Y-45209000D02*
X174033000Y-45314000D01*
X174033000Y-55359000D02*
X174033000Y-55254000D01*
X169883000Y-55359000D02*
X169883000Y-55254000D01*
X169883000Y-45209000D02*
X174033000Y-45209000D01*
X169883000Y-55359000D02*
X174033000Y-55359000D01*
X169883000Y-45234000D02*
X168508000Y-45234000D01*
G04 #@! TO.C,U6*
X135578500Y-45168500D02*
X134053500Y-45168500D01*
X135578500Y-55543500D02*
X143328500Y-55543500D01*
X135578500Y-44893500D02*
X143328500Y-44893500D01*
X135578500Y-55543500D02*
X135578500Y-55188500D01*
X143328500Y-55543500D02*
X143328500Y-55188500D01*
X143328500Y-44893500D02*
X143328500Y-45248500D01*
X135578500Y-44893500D02*
X135578500Y-45168500D01*
D15*
G04 #@! TO.C,J14*
X223679200Y-52831000D02*
X225009200Y-52831000D01*
X223679200Y-54161000D02*
X223679200Y-52831000D01*
X223679200Y-55431000D02*
X226339200Y-55431000D01*
X226339200Y-55431000D02*
X226339200Y-60571000D01*
X223679200Y-55431000D02*
X223679200Y-60571000D01*
X223679200Y-60571000D02*
X226339200Y-60571000D01*
G04 #@! TO.C,K1*
X120160000Y-105550000D02*
X120160000Y-103050000D01*
X119740000Y-77320000D02*
X119740000Y-106580000D01*
X106680000Y-77320000D02*
X119740000Y-77320000D01*
X106680000Y-106580000D02*
X106680000Y-77320000D01*
X119740000Y-106580000D02*
X106680000Y-106580000D01*
G04 #@! TO.C,K6*
X203225000Y-105550000D02*
X203225000Y-103050000D01*
X202805000Y-77320000D02*
X202805000Y-106580000D01*
X189745000Y-77320000D02*
X202805000Y-77320000D01*
X189745000Y-106580000D02*
X189745000Y-77320000D01*
X202805000Y-106580000D02*
X189745000Y-106580000D01*
G04 #@! TO.C,J7*
X210943000Y-116635000D02*
X211343000Y-116635000D01*
X210943000Y-115995000D02*
X210943000Y-116635000D01*
X217485000Y-112327000D02*
X217090000Y-112723000D01*
X220131000Y-109681000D02*
X219751000Y-110061000D01*
X217736000Y-112609000D02*
X217356000Y-112989000D01*
X220397000Y-109947000D02*
X220002000Y-110343000D01*
X212195000Y-112616000D02*
X212089000Y-112723000D01*
X215131000Y-109681000D02*
X215024000Y-109788000D01*
X212461000Y-112882000D02*
X212355000Y-112989000D01*
X215397000Y-109947000D02*
X215290000Y-110054000D01*
X221303000Y-107275000D02*
X221303000Y-116395000D01*
X211183000Y-107275000D02*
X211183000Y-116395000D01*
X211183000Y-116395000D02*
X221303000Y-116395000D01*
X211183000Y-107275000D02*
X221303000Y-107275000D01*
X211183000Y-114835000D02*
X221303000Y-114835000D01*
X211183000Y-115935000D02*
X221303000Y-115935000D01*
X220923000Y-111335000D02*
G75*
G03X220923000Y-111335000I-2180000J0D01*
G01*
X215923000Y-111335000D02*
G75*
G03X215923000Y-111335000I-2180000J0D01*
G01*
G04 #@! TO.C,J6*
X190995000Y-116635000D02*
X191395000Y-116635000D01*
X190995000Y-115995000D02*
X190995000Y-116635000D01*
X197537000Y-112327000D02*
X197142000Y-112723000D01*
X200183000Y-109681000D02*
X199803000Y-110061000D01*
X197788000Y-112609000D02*
X197408000Y-112989000D01*
X200449000Y-109947000D02*
X200054000Y-110343000D01*
X192247000Y-112616000D02*
X192141000Y-112723000D01*
X195183000Y-109681000D02*
X195076000Y-109788000D01*
X192513000Y-112882000D02*
X192407000Y-112989000D01*
X195449000Y-109947000D02*
X195342000Y-110054000D01*
X201355000Y-107275000D02*
X201355000Y-116395000D01*
X191235000Y-107275000D02*
X191235000Y-116395000D01*
X191235000Y-116395000D02*
X201355000Y-116395000D01*
X191235000Y-107275000D02*
X201355000Y-107275000D01*
X191235000Y-114835000D02*
X201355000Y-114835000D01*
X191235000Y-115935000D02*
X201355000Y-115935000D01*
X200975000Y-111335000D02*
G75*
G03X200975000Y-111335000I-2180000J0D01*
G01*
X195975000Y-111335000D02*
G75*
G03X195975000Y-111335000I-2180000J0D01*
G01*
G04 #@! TO.C,J2*
X124447000Y-116635000D02*
X124847000Y-116635000D01*
X124447000Y-115995000D02*
X124447000Y-116635000D01*
X130989000Y-112327000D02*
X130594000Y-112723000D01*
X133635000Y-109681000D02*
X133255000Y-110061000D01*
X131240000Y-112609000D02*
X130860000Y-112989000D01*
X133901000Y-109947000D02*
X133506000Y-110343000D01*
X125699000Y-112616000D02*
X125593000Y-112723000D01*
X128635000Y-109681000D02*
X128528000Y-109788000D01*
X125965000Y-112882000D02*
X125859000Y-112989000D01*
X128901000Y-109947000D02*
X128794000Y-110054000D01*
X134807000Y-107275000D02*
X134807000Y-116395000D01*
X124687000Y-107275000D02*
X124687000Y-116395000D01*
X124687000Y-116395000D02*
X134807000Y-116395000D01*
X124687000Y-107275000D02*
X134807000Y-107275000D01*
X124687000Y-114835000D02*
X134807000Y-114835000D01*
X124687000Y-115935000D02*
X134807000Y-115935000D01*
X134427000Y-111335000D02*
G75*
G03X134427000Y-111335000I-2180000J0D01*
G01*
X129427000Y-111335000D02*
G75*
G03X129427000Y-111335000I-2180000J0D01*
G01*
G04 #@! TO.C,J1*
X107810000Y-116635000D02*
X108210000Y-116635000D01*
X107810000Y-115995000D02*
X107810000Y-116635000D01*
X114352000Y-112327000D02*
X113957000Y-112723000D01*
X116998000Y-109681000D02*
X116618000Y-110061000D01*
X114603000Y-112609000D02*
X114223000Y-112989000D01*
X117264000Y-109947000D02*
X116869000Y-110343000D01*
X109062000Y-112616000D02*
X108956000Y-112723000D01*
X111998000Y-109681000D02*
X111891000Y-109788000D01*
X109328000Y-112882000D02*
X109222000Y-112989000D01*
X112264000Y-109947000D02*
X112157000Y-110054000D01*
X118170000Y-107275000D02*
X118170000Y-116395000D01*
X108050000Y-107275000D02*
X108050000Y-116395000D01*
X108050000Y-116395000D02*
X118170000Y-116395000D01*
X108050000Y-107275000D02*
X118170000Y-107275000D01*
X108050000Y-114835000D02*
X118170000Y-114835000D01*
X108050000Y-115935000D02*
X118170000Y-115935000D01*
X117790000Y-111335000D02*
G75*
G03X117790000Y-111335000I-2180000J0D01*
G01*
X112790000Y-111335000D02*
G75*
G03X112790000Y-111335000I-2180000J0D01*
G01*
G04 #@! TO.C,J5*
X174358000Y-116635000D02*
X174758000Y-116635000D01*
X174358000Y-115995000D02*
X174358000Y-116635000D01*
X180900000Y-112327000D02*
X180505000Y-112723000D01*
X183546000Y-109681000D02*
X183166000Y-110061000D01*
X181151000Y-112609000D02*
X180771000Y-112989000D01*
X183812000Y-109947000D02*
X183417000Y-110343000D01*
X175610000Y-112616000D02*
X175504000Y-112723000D01*
X178546000Y-109681000D02*
X178439000Y-109788000D01*
X175876000Y-112882000D02*
X175770000Y-112989000D01*
X178812000Y-109947000D02*
X178705000Y-110054000D01*
X184718000Y-107275000D02*
X184718000Y-116395000D01*
X174598000Y-107275000D02*
X174598000Y-116395000D01*
X174598000Y-116395000D02*
X184718000Y-116395000D01*
X174598000Y-107275000D02*
X184718000Y-107275000D01*
X174598000Y-114835000D02*
X184718000Y-114835000D01*
X174598000Y-115935000D02*
X184718000Y-115935000D01*
X184338000Y-111335000D02*
G75*
G03X184338000Y-111335000I-2180000J0D01*
G01*
X179338000Y-111335000D02*
G75*
G03X179338000Y-111335000I-2180000J0D01*
G01*
G04 #@! TO.C,J4*
X157721000Y-116635000D02*
X158121000Y-116635000D01*
X157721000Y-115995000D02*
X157721000Y-116635000D01*
X164263000Y-112327000D02*
X163868000Y-112723000D01*
X166909000Y-109681000D02*
X166529000Y-110061000D01*
X164514000Y-112609000D02*
X164134000Y-112989000D01*
X167175000Y-109947000D02*
X166780000Y-110343000D01*
X158973000Y-112616000D02*
X158867000Y-112723000D01*
X161909000Y-109681000D02*
X161802000Y-109788000D01*
X159239000Y-112882000D02*
X159133000Y-112989000D01*
X162175000Y-109947000D02*
X162068000Y-110054000D01*
X168081000Y-107275000D02*
X168081000Y-116395000D01*
X157961000Y-107275000D02*
X157961000Y-116395000D01*
X157961000Y-116395000D02*
X168081000Y-116395000D01*
X157961000Y-107275000D02*
X168081000Y-107275000D01*
X157961000Y-114835000D02*
X168081000Y-114835000D01*
X157961000Y-115935000D02*
X168081000Y-115935000D01*
X167701000Y-111335000D02*
G75*
G03X167701000Y-111335000I-2180000J0D01*
G01*
X162701000Y-111335000D02*
G75*
G03X162701000Y-111335000I-2180000J0D01*
G01*
G04 #@! TO.C,J3*
X141084000Y-116635000D02*
X141484000Y-116635000D01*
X141084000Y-115995000D02*
X141084000Y-116635000D01*
X147626000Y-112327000D02*
X147231000Y-112723000D01*
X150272000Y-109681000D02*
X149892000Y-110061000D01*
X147877000Y-112609000D02*
X147497000Y-112989000D01*
X150538000Y-109947000D02*
X150143000Y-110343000D01*
X142336000Y-112616000D02*
X142230000Y-112723000D01*
X145272000Y-109681000D02*
X145165000Y-109788000D01*
X142602000Y-112882000D02*
X142496000Y-112989000D01*
X145538000Y-109947000D02*
X145431000Y-110054000D01*
X151444000Y-107275000D02*
X151444000Y-116395000D01*
X141324000Y-107275000D02*
X141324000Y-116395000D01*
X141324000Y-116395000D02*
X151444000Y-116395000D01*
X141324000Y-107275000D02*
X151444000Y-107275000D01*
X141324000Y-114835000D02*
X151444000Y-114835000D01*
X141324000Y-115935000D02*
X151444000Y-115935000D01*
X151064000Y-111335000D02*
G75*
G03X151064000Y-111335000I-2180000J0D01*
G01*
X146064000Y-111335000D02*
G75*
G03X146064000Y-111335000I-2180000J0D01*
G01*
G04 #@! TO.C,C7*
X125262500Y-68412500D02*
X125887500Y-68412500D01*
X125575000Y-68725000D02*
X125575000Y-68100000D01*
X128955563Y-67860000D02*
X130020000Y-66795563D01*
X125564437Y-67860000D02*
X124500000Y-66795563D01*
X125564437Y-67860000D02*
X126200000Y-67860000D01*
X128955563Y-67860000D02*
X128320000Y-67860000D01*
X130020000Y-66795563D02*
X130020000Y-62340000D01*
X124500000Y-66795563D02*
X124500000Y-62340000D01*
X124500000Y-62340000D02*
X126200000Y-62340000D01*
X130020000Y-62340000D02*
X128320000Y-62340000D01*
D12*
G04 #@! TO.C,RV1*
X105600000Y-90406000D02*
X99500000Y-90406000D01*
X105600000Y-105906000D02*
X99500000Y-105906000D01*
X105600000Y-90406000D02*
X105600000Y-105906000D01*
X99500000Y-90406000D02*
X99500000Y-105906000D01*
D15*
G04 #@! TO.C,U3*
X145745000Y-68625000D02*
X144645000Y-68625000D01*
X145745000Y-68895000D02*
X145745000Y-68625000D01*
X147245000Y-68895000D02*
X145745000Y-68895000D01*
X145745000Y-62265000D02*
X142915000Y-62265000D01*
X145745000Y-61995000D02*
X145745000Y-62265000D01*
X147245000Y-61995000D02*
X145745000Y-61995000D01*
D12*
G04 #@! TO.C,U2*
X210074979Y-86980195D02*
X210074979Y-88380195D01*
X215174979Y-86980195D02*
X215174979Y-82830195D01*
X210024979Y-86980195D02*
X210024979Y-82830195D01*
X215174979Y-86980195D02*
X215029979Y-86980195D01*
X215174979Y-82830195D02*
X215029979Y-82830195D01*
X210024979Y-82830195D02*
X210169979Y-82830195D01*
X210024979Y-86980195D02*
X210074979Y-86980195D01*
D15*
G04 #@! TO.C,C5*
X106038750Y-69298750D02*
X106826250Y-69298750D01*
X106432500Y-69692500D02*
X106432500Y-68905000D01*
X110625563Y-68665000D02*
X111690000Y-67600563D01*
X105934437Y-68665000D02*
X104870000Y-67600563D01*
X105934437Y-68665000D02*
X107220000Y-68665000D01*
X110625563Y-68665000D02*
X109340000Y-68665000D01*
X111690000Y-67600563D02*
X111690000Y-61845000D01*
X104870000Y-67600563D02*
X104870000Y-61845000D01*
X104870000Y-61845000D02*
X107220000Y-61845000D01*
X111690000Y-61845000D02*
X109340000Y-61845000D01*
G04 #@! TO.C,C6*
X136008750Y-69648750D02*
X136796250Y-69648750D01*
X136402500Y-70042500D02*
X136402500Y-69255000D01*
X140595563Y-69015000D02*
X141660000Y-67950563D01*
X135904437Y-69015000D02*
X134840000Y-67950563D01*
X135904437Y-69015000D02*
X137190000Y-69015000D01*
X140595563Y-69015000D02*
X139310000Y-69015000D01*
X141660000Y-67950563D02*
X141660000Y-62195000D01*
X134840000Y-67950563D02*
X134840000Y-62195000D01*
X134840000Y-62195000D02*
X137190000Y-62195000D01*
X141660000Y-62195000D02*
X139310000Y-62195000D01*
G04 #@! TO.C,C8*
X155302500Y-69097500D02*
X155927500Y-69097500D01*
X155615000Y-69410000D02*
X155615000Y-68785000D01*
X158995563Y-68545000D02*
X160060000Y-67480563D01*
X155604437Y-68545000D02*
X154540000Y-67480563D01*
X155604437Y-68545000D02*
X156240000Y-68545000D01*
X158995563Y-68545000D02*
X158360000Y-68545000D01*
X160060000Y-67480563D02*
X160060000Y-63025000D01*
X154540000Y-67480563D02*
X154540000Y-63025000D01*
X154540000Y-63025000D02*
X156240000Y-63025000D01*
X160060000Y-63025000D02*
X158360000Y-63025000D01*
G04 #@! TO.C,U5*
X115790000Y-68660000D02*
X114690000Y-68660000D01*
X115790000Y-68930000D02*
X115790000Y-68660000D01*
X117290000Y-68930000D02*
X115790000Y-68930000D01*
X115790000Y-62300000D02*
X112960000Y-62300000D01*
X115790000Y-62030000D02*
X115790000Y-62300000D01*
X117290000Y-62030000D02*
X115790000Y-62030000D01*
G04 #@! TO.C,C1*
X212372267Y-73106000D02*
X212029733Y-73106000D01*
X212372267Y-74126000D02*
X212029733Y-74126000D01*
G04 #@! TO.C,C2*
X212029733Y-79206000D02*
X212372267Y-79206000D01*
X212029733Y-78186000D02*
X212372267Y-78186000D01*
G04 #@! TO.C,V1*
X96844000Y-99000000D02*
X96844000Y-101000000D01*
X96584000Y-66130000D02*
X72324000Y-66130000D01*
X72324000Y-103390000D02*
X72324000Y-66130000D01*
X96584000Y-103390000D02*
X72324000Y-103390000D01*
X96584000Y-66130000D02*
X96594000Y-103390000D01*
G04 #@! TO.C,R3*
X195252000Y-42453733D02*
X195252000Y-42796267D01*
X196272000Y-42453733D02*
X196272000Y-42796267D01*
G04 #@! TO.C,R1*
X212029733Y-76666000D02*
X212372267Y-76666000D01*
X212029733Y-75646000D02*
X212372267Y-75646000D01*
G04 #@! TO.C,K2*
X136670000Y-105550000D02*
X136670000Y-103050000D01*
X136250000Y-77320000D02*
X136250000Y-106580000D01*
X123190000Y-77320000D02*
X136250000Y-77320000D01*
X123190000Y-106580000D02*
X123190000Y-77320000D01*
X136250000Y-106580000D02*
X123190000Y-106580000D01*
G04 #@! TO.C,K3*
X153180000Y-105550000D02*
X153180000Y-103050000D01*
X152760000Y-77320000D02*
X152760000Y-106580000D01*
X139700000Y-77320000D02*
X152760000Y-77320000D01*
X139700000Y-106580000D02*
X139700000Y-77320000D01*
X152760000Y-106580000D02*
X139700000Y-106580000D01*
G04 #@! TO.C,K4*
X169690000Y-105550000D02*
X169690000Y-103050000D01*
X169270000Y-77320000D02*
X169270000Y-106580000D01*
X156210000Y-77320000D02*
X169270000Y-77320000D01*
X156210000Y-106580000D02*
X156210000Y-77320000D01*
X169270000Y-106580000D02*
X156210000Y-106580000D01*
G04 #@! TO.C,K5*
X186454000Y-105550000D02*
X186454000Y-103050000D01*
X186034000Y-77320000D02*
X186034000Y-106580000D01*
X172974000Y-77320000D02*
X186034000Y-77320000D01*
X172974000Y-106580000D02*
X172974000Y-77320000D01*
X186034000Y-106580000D02*
X172974000Y-106580000D01*
G04 #@! TO.C,R9*
X112646000Y-42424733D02*
X112646000Y-42767267D01*
X113666000Y-42424733D02*
X113666000Y-42767267D01*
G04 #@! TO.C,R8*
X110487000Y-42424733D02*
X110487000Y-42767267D01*
X111507000Y-42424733D02*
X111507000Y-42767267D01*
G04 #@! TO.C,LS1*
X104495999Y-49036000D02*
G75*
G02X101496000Y-49036000I-1499999J6400000D01*
G01*
X109226000Y-42636000D02*
G75*
G03X109226000Y-42636000I-6230000J0D01*
G01*
G04 #@! TO.C,R5*
X215244767Y-62342500D02*
X214902233Y-62342500D01*
X215244767Y-63362500D02*
X214902233Y-63362500D01*
G04 #@! TO.C,R6*
X214902233Y-65394500D02*
X215244767Y-65394500D01*
X214902233Y-64374500D02*
X215244767Y-64374500D01*
D12*
G04 #@! TO.C,U7*
X123353600Y-48113000D02*
X121953600Y-48113000D01*
X123353600Y-53213000D02*
X127503600Y-53213000D01*
X123353600Y-48063000D02*
X127503600Y-48063000D01*
X123353600Y-53213000D02*
X123353600Y-53068000D01*
X127503600Y-53213000D02*
X127503600Y-53068000D01*
X127503600Y-48063000D02*
X127503600Y-48208000D01*
X123353600Y-48063000D02*
X123353600Y-48113000D01*
D15*
G04 #@! TO.C,R4*
X225186267Y-61918000D02*
X224843733Y-61918000D01*
X225186267Y-62938000D02*
X224843733Y-62938000D01*
G04 #@! TO.C,R7*
X196216000Y-47480267D02*
X196216000Y-47137733D01*
X195196000Y-47480267D02*
X195196000Y-47137733D01*
G04 #@! TO.C,C9*
X169994733Y-43169000D02*
X170337267Y-43169000D01*
X169994733Y-44189000D02*
X170337267Y-44189000D01*
G04 #@! TO.C,R2*
X147955500Y-48537233D02*
X147955500Y-48879767D01*
X146935500Y-48537233D02*
X146935500Y-48879767D01*
G04 #@! TO.C,C3*
X192202000Y-42848252D02*
X192202000Y-42325748D01*
X193622000Y-42848252D02*
X193622000Y-42325748D01*
G04 #@! TO.C,C4*
X225236252Y-49540000D02*
X224713748Y-49540000D01*
X225236252Y-50960000D02*
X224713748Y-50960000D01*
G04 #@! TO.C,C10*
X188790000Y-42736252D02*
X188790000Y-42213748D01*
X190210000Y-42736252D02*
X190210000Y-42213748D01*
G04 #@! TO.C,Y1*
D12*
X115180809Y-51242390D02*
X115180809Y-51718580D01*
X114847476Y-50718580D02*
X115180809Y-51242390D01*
X115514142Y-50718580D01*
X116371285Y-51718580D02*
X115799857Y-51718580D01*
X116085571Y-51718580D02*
X116085571Y-50718580D01*
X115990333Y-50861438D01*
X115895095Y-50956676D01*
X115799857Y-51004295D01*
G04 #@! TO.C,U9*
X205038095Y-69322880D02*
X205038095Y-70132404D01*
X205085714Y-70227642D01*
X205133333Y-70275261D01*
X205228571Y-70322880D01*
X205419047Y-70322880D01*
X205514285Y-70275261D01*
X205561904Y-70227642D01*
X205609523Y-70132404D01*
X205609523Y-69322880D01*
X206133333Y-70322880D02*
X206323809Y-70322880D01*
X206419047Y-70275261D01*
X206466666Y-70227642D01*
X206561904Y-70084785D01*
X206609523Y-69894309D01*
X206609523Y-69513357D01*
X206561904Y-69418119D01*
X206514285Y-69370500D01*
X206419047Y-69322880D01*
X206228571Y-69322880D01*
X206133333Y-69370500D01*
X206085714Y-69418119D01*
X206038095Y-69513357D01*
X206038095Y-69751452D01*
X206085714Y-69846690D01*
X206133333Y-69894309D01*
X206228571Y-69941928D01*
X206419047Y-69941928D01*
X206514285Y-69894309D01*
X206561904Y-69846690D01*
X206609523Y-69751452D01*
G04 #@! TO.C,SW7*
X181666666Y-46604761D02*
X181809523Y-46652380D01*
X182047619Y-46652380D01*
X182142857Y-46604761D01*
X182190476Y-46557142D01*
X182238095Y-46461904D01*
X182238095Y-46366666D01*
X182190476Y-46271428D01*
X182142857Y-46223809D01*
X182047619Y-46176190D01*
X181857142Y-46128571D01*
X181761904Y-46080952D01*
X181714285Y-46033333D01*
X181666666Y-45938095D01*
X181666666Y-45842857D01*
X181714285Y-45747619D01*
X181761904Y-45700000D01*
X181857142Y-45652380D01*
X182095238Y-45652380D01*
X182238095Y-45700000D01*
X182571428Y-45652380D02*
X182809523Y-46652380D01*
X183000000Y-45938095D01*
X183190476Y-46652380D01*
X183428571Y-45652380D01*
X183714285Y-45652380D02*
X184380952Y-45652380D01*
X183952380Y-46652380D01*
G04 #@! TO.C,R17*
X209157142Y-70322880D02*
X208823809Y-69846690D01*
X208585714Y-70322880D02*
X208585714Y-69322880D01*
X208966666Y-69322880D01*
X209061904Y-69370500D01*
X209109523Y-69418119D01*
X209157142Y-69513357D01*
X209157142Y-69656214D01*
X209109523Y-69751452D01*
X209061904Y-69799071D01*
X208966666Y-69846690D01*
X208585714Y-69846690D01*
X210109523Y-70322880D02*
X209538095Y-70322880D01*
X209823809Y-70322880D02*
X209823809Y-69322880D01*
X209728571Y-69465738D01*
X209633333Y-69560976D01*
X209538095Y-69608595D01*
X210442857Y-69322880D02*
X211109523Y-69322880D01*
X210680952Y-70322880D01*
G04 #@! TO.C,Q2*
X117378761Y-45393619D02*
X117283523Y-45346000D01*
X117188285Y-45250761D01*
X117045428Y-45107904D01*
X116950190Y-45060285D01*
X116854952Y-45060285D01*
X116902571Y-45298380D02*
X116807333Y-45250761D01*
X116712095Y-45155523D01*
X116664476Y-44965047D01*
X116664476Y-44631714D01*
X116712095Y-44441238D01*
X116807333Y-44346000D01*
X116902571Y-44298380D01*
X117093047Y-44298380D01*
X117188285Y-44346000D01*
X117283523Y-44441238D01*
X117331142Y-44631714D01*
X117331142Y-44965047D01*
X117283523Y-45155523D01*
X117188285Y-45250761D01*
X117093047Y-45298380D01*
X116902571Y-45298380D01*
X117712095Y-44393619D02*
X117759714Y-44346000D01*
X117854952Y-44298380D01*
X118093047Y-44298380D01*
X118188285Y-44346000D01*
X118235904Y-44393619D01*
X118283523Y-44488857D01*
X118283523Y-44584095D01*
X118235904Y-44726952D01*
X117664476Y-45298380D01*
X118283523Y-45298380D01*
G04 #@! TO.C,J8*
X159694380Y-38206333D02*
X160408666Y-38206333D01*
X160551523Y-38253952D01*
X160646761Y-38349190D01*
X160694380Y-38492047D01*
X160694380Y-38587285D01*
X160122952Y-37587285D02*
X160075333Y-37682523D01*
X160027714Y-37730142D01*
X159932476Y-37777761D01*
X159884857Y-37777761D01*
X159789619Y-37730142D01*
X159742000Y-37682523D01*
X159694380Y-37587285D01*
X159694380Y-37396809D01*
X159742000Y-37301571D01*
X159789619Y-37253952D01*
X159884857Y-37206333D01*
X159932476Y-37206333D01*
X160027714Y-37253952D01*
X160075333Y-37301571D01*
X160122952Y-37396809D01*
X160122952Y-37587285D01*
X160170571Y-37682523D01*
X160218190Y-37730142D01*
X160313428Y-37777761D01*
X160503904Y-37777761D01*
X160599142Y-37730142D01*
X160646761Y-37682523D01*
X160694380Y-37587285D01*
X160694380Y-37396809D01*
X160646761Y-37301571D01*
X160599142Y-37253952D01*
X160503904Y-37206333D01*
X160313428Y-37206333D01*
X160218190Y-37253952D01*
X160170571Y-37301571D01*
X160122952Y-37396809D01*
G04 #@! TO.C,C11*
X201157142Y-70227642D02*
X201109523Y-70275261D01*
X200966666Y-70322880D01*
X200871428Y-70322880D01*
X200728571Y-70275261D01*
X200633333Y-70180023D01*
X200585714Y-70084785D01*
X200538095Y-69894309D01*
X200538095Y-69751452D01*
X200585714Y-69560976D01*
X200633333Y-69465738D01*
X200728571Y-69370500D01*
X200871428Y-69322880D01*
X200966666Y-69322880D01*
X201109523Y-69370500D01*
X201157142Y-69418119D01*
X202109523Y-70322880D02*
X201538095Y-70322880D01*
X201823809Y-70322880D02*
X201823809Y-69322880D01*
X201728571Y-69465738D01*
X201633333Y-69560976D01*
X201538095Y-69608595D01*
X203061904Y-70322880D02*
X202490476Y-70322880D01*
X202776190Y-70322880D02*
X202776190Y-69322880D01*
X202680952Y-69465738D01*
X202585714Y-69560976D01*
X202490476Y-69608595D01*
G04 #@! TO.C,U1*
X208331795Y-60338080D02*
X208331795Y-61147604D01*
X208379414Y-61242842D01*
X208427033Y-61290461D01*
X208522271Y-61338080D01*
X208712747Y-61338080D01*
X208807985Y-61290461D01*
X208855604Y-61242842D01*
X208903223Y-61147604D01*
X208903223Y-60338080D01*
X209903223Y-61338080D02*
X209331795Y-61338080D01*
X209617509Y-61338080D02*
X209617509Y-60338080D01*
X209522271Y-60480938D01*
X209427033Y-60576176D01*
X209331795Y-60623795D01*
X202187380Y-35728571D02*
X202520714Y-35728571D01*
X202663571Y-36252380D02*
X202187380Y-36252380D01*
X202187380Y-35252380D01*
X202663571Y-35252380D01*
X203044523Y-36204761D02*
X203187380Y-36252380D01*
X203425476Y-36252380D01*
X203520714Y-36204761D01*
X203568333Y-36157142D01*
X203615952Y-36061904D01*
X203615952Y-35966666D01*
X203568333Y-35871428D01*
X203520714Y-35823809D01*
X203425476Y-35776190D01*
X203235000Y-35728571D01*
X203139761Y-35680952D01*
X203092142Y-35633333D01*
X203044523Y-35538095D01*
X203044523Y-35442857D01*
X203092142Y-35347619D01*
X203139761Y-35300000D01*
X203235000Y-35252380D01*
X203473095Y-35252380D01*
X203615952Y-35300000D01*
X204044523Y-36252380D02*
X204044523Y-35252380D01*
X204425476Y-35252380D01*
X204520714Y-35300000D01*
X204568333Y-35347619D01*
X204615952Y-35442857D01*
X204615952Y-35585714D01*
X204568333Y-35680952D01*
X204520714Y-35728571D01*
X204425476Y-35776190D01*
X204044523Y-35776190D01*
X204949285Y-35252380D02*
X205568333Y-35252380D01*
X205235000Y-35633333D01*
X205377857Y-35633333D01*
X205473095Y-35680952D01*
X205520714Y-35728571D01*
X205568333Y-35823809D01*
X205568333Y-36061904D01*
X205520714Y-36157142D01*
X205473095Y-36204761D01*
X205377857Y-36252380D01*
X205092142Y-36252380D01*
X204996904Y-36204761D01*
X204949285Y-36157142D01*
X205949285Y-35347619D02*
X205996904Y-35300000D01*
X206092142Y-35252380D01*
X206330238Y-35252380D01*
X206425476Y-35300000D01*
X206473095Y-35347619D01*
X206520714Y-35442857D01*
X206520714Y-35538095D01*
X206473095Y-35680952D01*
X205901666Y-36252380D01*
X206520714Y-36252380D01*
X206711190Y-36347619D02*
X207473095Y-36347619D01*
X207615952Y-35252380D02*
X207854047Y-36252380D01*
X208044523Y-35538095D01*
X208235000Y-36252380D01*
X208473095Y-35252380D01*
X209425476Y-36252380D02*
X209092142Y-35776190D01*
X208854047Y-36252380D02*
X208854047Y-35252380D01*
X209235000Y-35252380D01*
X209330238Y-35300000D01*
X209377857Y-35347619D01*
X209425476Y-35442857D01*
X209425476Y-35585714D01*
X209377857Y-35680952D01*
X209330238Y-35728571D01*
X209235000Y-35776190D01*
X208854047Y-35776190D01*
X210044523Y-35252380D02*
X210235000Y-35252380D01*
X210330238Y-35300000D01*
X210425476Y-35395238D01*
X210473095Y-35585714D01*
X210473095Y-35919047D01*
X210425476Y-36109523D01*
X210330238Y-36204761D01*
X210235000Y-36252380D01*
X210044523Y-36252380D01*
X209949285Y-36204761D01*
X209854047Y-36109523D01*
X209806428Y-35919047D01*
X209806428Y-35585714D01*
X209854047Y-35395238D01*
X209949285Y-35300000D01*
X210044523Y-35252380D01*
X211092142Y-35252380D02*
X211282619Y-35252380D01*
X211377857Y-35300000D01*
X211473095Y-35395238D01*
X211520714Y-35585714D01*
X211520714Y-35919047D01*
X211473095Y-36109523D01*
X211377857Y-36204761D01*
X211282619Y-36252380D01*
X211092142Y-36252380D01*
X210996904Y-36204761D01*
X210901666Y-36109523D01*
X210854047Y-35919047D01*
X210854047Y-35585714D01*
X210901666Y-35395238D01*
X210996904Y-35300000D01*
X211092142Y-35252380D01*
X211949285Y-36252380D02*
X211949285Y-35252380D01*
X212282619Y-35966666D01*
X212615952Y-35252380D01*
X212615952Y-36252380D01*
X212854047Y-36347619D02*
X213615952Y-36347619D01*
X213758809Y-35252380D02*
X214377857Y-35252380D01*
X214044523Y-35633333D01*
X214187380Y-35633333D01*
X214282619Y-35680952D01*
X214330238Y-35728571D01*
X214377857Y-35823809D01*
X214377857Y-36061904D01*
X214330238Y-36157142D01*
X214282619Y-36204761D01*
X214187380Y-36252380D01*
X213901666Y-36252380D01*
X213806428Y-36204761D01*
X213758809Y-36157142D01*
X214758809Y-35347619D02*
X214806428Y-35300000D01*
X214901666Y-35252380D01*
X215139761Y-35252380D01*
X215234999Y-35300000D01*
X215282619Y-35347619D01*
X215330238Y-35442857D01*
X215330238Y-35538095D01*
X215282619Y-35680952D01*
X214711190Y-36252380D01*
X215330238Y-36252380D01*
X215758809Y-36252380D02*
X215758809Y-35252380D01*
X215996904Y-35252380D01*
X216139761Y-35300000D01*
X216234999Y-35395238D01*
X216282619Y-35490476D01*
X216330238Y-35680952D01*
X216330238Y-35823809D01*
X216282619Y-36014285D01*
X216234999Y-36109523D01*
X216139761Y-36204761D01*
X215996904Y-36252380D01*
X215758809Y-36252380D01*
G04 #@! TO.C,BT1*
X75691885Y-62640771D02*
X75834742Y-62688390D01*
X75882361Y-62736009D01*
X75929980Y-62831247D01*
X75929980Y-62974104D01*
X75882361Y-63069342D01*
X75834742Y-63116961D01*
X75739504Y-63164580D01*
X75358552Y-63164580D01*
X75358552Y-62164580D01*
X75691885Y-62164580D01*
X75787123Y-62212200D01*
X75834742Y-62259819D01*
X75882361Y-62355057D01*
X75882361Y-62450295D01*
X75834742Y-62545533D01*
X75787123Y-62593152D01*
X75691885Y-62640771D01*
X75358552Y-62640771D01*
X76215695Y-62164580D02*
X76787123Y-62164580D01*
X76501409Y-63164580D02*
X76501409Y-62164580D01*
X77644266Y-63164580D02*
X77072838Y-63164580D01*
X77358552Y-63164580D02*
X77358552Y-62164580D01*
X77263314Y-62307438D01*
X77168076Y-62402676D01*
X77072838Y-62450295D01*
G04 #@! TO.C,F1*
X230782971Y-92660533D02*
X230782971Y-92993866D01*
X231306780Y-92993866D02*
X230306780Y-92993866D01*
X230306780Y-92517676D01*
X231306780Y-91612914D02*
X231306780Y-92184342D01*
X231306780Y-91898628D02*
X230306780Y-91898628D01*
X230449638Y-91993866D01*
X230544876Y-92089104D01*
X230592495Y-92184342D01*
G04 #@! TO.C,U4*
X188395595Y-58024980D02*
X188395595Y-58834504D01*
X188443214Y-58929742D01*
X188490833Y-58977361D01*
X188586071Y-59024980D01*
X188776547Y-59024980D01*
X188871785Y-58977361D01*
X188919404Y-58929742D01*
X188967023Y-58834504D01*
X188967023Y-58024980D01*
X189871785Y-58358314D02*
X189871785Y-59024980D01*
X189633690Y-57977361D02*
X189395595Y-58691647D01*
X190014642Y-58691647D01*
G04 #@! TO.C,R16*
X160265142Y-56256378D02*
X159931809Y-55780188D01*
X159693714Y-56256378D02*
X159693714Y-55256378D01*
X160074666Y-55256378D01*
X160169904Y-55303998D01*
X160217523Y-55351617D01*
X160265142Y-55446855D01*
X160265142Y-55589712D01*
X160217523Y-55684950D01*
X160169904Y-55732569D01*
X160074666Y-55780188D01*
X159693714Y-55780188D01*
X161217523Y-56256378D02*
X160646095Y-56256378D01*
X160931809Y-56256378D02*
X160931809Y-55256378D01*
X160836571Y-55399236D01*
X160741333Y-55494474D01*
X160646095Y-55542093D01*
X162074666Y-55256378D02*
X161884190Y-55256378D01*
X161788952Y-55303998D01*
X161741333Y-55351617D01*
X161646095Y-55494474D01*
X161598476Y-55684950D01*
X161598476Y-56065902D01*
X161646095Y-56161140D01*
X161693714Y-56208759D01*
X161788952Y-56256378D01*
X161979428Y-56256378D01*
X162074666Y-56208759D01*
X162122285Y-56161140D01*
X162169904Y-56065902D01*
X162169904Y-55827807D01*
X162122285Y-55732569D01*
X162074666Y-55684950D01*
X161979428Y-55637331D01*
X161788952Y-55637331D01*
X161693714Y-55684950D01*
X161646095Y-55732569D01*
X161598476Y-55827807D01*
G04 #@! TO.C,R15*
X160265142Y-54626545D02*
X159931809Y-54150355D01*
X159693714Y-54626545D02*
X159693714Y-53626545D01*
X160074666Y-53626545D01*
X160169904Y-53674165D01*
X160217523Y-53721784D01*
X160265142Y-53817022D01*
X160265142Y-53959879D01*
X160217523Y-54055117D01*
X160169904Y-54102736D01*
X160074666Y-54150355D01*
X159693714Y-54150355D01*
X161217523Y-54626545D02*
X160646095Y-54626545D01*
X160931809Y-54626545D02*
X160931809Y-53626545D01*
X160836571Y-53769403D01*
X160741333Y-53864641D01*
X160646095Y-53912260D01*
X162122285Y-53626545D02*
X161646095Y-53626545D01*
X161598476Y-54102736D01*
X161646095Y-54055117D01*
X161741333Y-54007498D01*
X161979428Y-54007498D01*
X162074666Y-54055117D01*
X162122285Y-54102736D01*
X162169904Y-54197974D01*
X162169904Y-54436069D01*
X162122285Y-54531307D01*
X162074666Y-54578926D01*
X161979428Y-54626545D01*
X161741333Y-54626545D01*
X161646095Y-54578926D01*
X161598476Y-54531307D01*
G04 #@! TO.C,R14*
X160265142Y-52996712D02*
X159931809Y-52520522D01*
X159693714Y-52996712D02*
X159693714Y-51996712D01*
X160074666Y-51996712D01*
X160169904Y-52044332D01*
X160217523Y-52091951D01*
X160265142Y-52187189D01*
X160265142Y-52330046D01*
X160217523Y-52425284D01*
X160169904Y-52472903D01*
X160074666Y-52520522D01*
X159693714Y-52520522D01*
X161217523Y-52996712D02*
X160646095Y-52996712D01*
X160931809Y-52996712D02*
X160931809Y-51996712D01*
X160836571Y-52139570D01*
X160741333Y-52234808D01*
X160646095Y-52282427D01*
X162074666Y-52330046D02*
X162074666Y-52996712D01*
X161836571Y-51949093D02*
X161598476Y-52663379D01*
X162217523Y-52663379D01*
G04 #@! TO.C,R13*
X160265142Y-51366879D02*
X159931809Y-50890689D01*
X159693714Y-51366879D02*
X159693714Y-50366879D01*
X160074666Y-50366879D01*
X160169904Y-50414499D01*
X160217523Y-50462118D01*
X160265142Y-50557356D01*
X160265142Y-50700213D01*
X160217523Y-50795451D01*
X160169904Y-50843070D01*
X160074666Y-50890689D01*
X159693714Y-50890689D01*
X161217523Y-51366879D02*
X160646095Y-51366879D01*
X160931809Y-51366879D02*
X160931809Y-50366879D01*
X160836571Y-50509737D01*
X160741333Y-50604975D01*
X160646095Y-50652594D01*
X161550857Y-50366879D02*
X162169904Y-50366879D01*
X161836571Y-50747832D01*
X161979428Y-50747832D01*
X162074666Y-50795451D01*
X162122285Y-50843070D01*
X162169904Y-50938308D01*
X162169904Y-51176403D01*
X162122285Y-51271641D01*
X162074666Y-51319260D01*
X161979428Y-51366879D01*
X161693714Y-51366879D01*
X161598476Y-51319260D01*
X161550857Y-51271641D01*
G04 #@! TO.C,R12*
X160265142Y-49737046D02*
X159931809Y-49260856D01*
X159693714Y-49737046D02*
X159693714Y-48737046D01*
X160074666Y-48737046D01*
X160169904Y-48784666D01*
X160217523Y-48832285D01*
X160265142Y-48927523D01*
X160265142Y-49070380D01*
X160217523Y-49165618D01*
X160169904Y-49213237D01*
X160074666Y-49260856D01*
X159693714Y-49260856D01*
X161217523Y-49737046D02*
X160646095Y-49737046D01*
X160931809Y-49737046D02*
X160931809Y-48737046D01*
X160836571Y-48879904D01*
X160741333Y-48975142D01*
X160646095Y-49022761D01*
X161598476Y-48832285D02*
X161646095Y-48784666D01*
X161741333Y-48737046D01*
X161979428Y-48737046D01*
X162074666Y-48784666D01*
X162122285Y-48832285D01*
X162169904Y-48927523D01*
X162169904Y-49022761D01*
X162122285Y-49165618D01*
X161550857Y-49737046D01*
X162169904Y-49737046D01*
G04 #@! TO.C,R11*
X160265142Y-48107213D02*
X159931809Y-47631023D01*
X159693714Y-48107213D02*
X159693714Y-47107213D01*
X160074666Y-47107213D01*
X160169904Y-47154833D01*
X160217523Y-47202452D01*
X160265142Y-47297690D01*
X160265142Y-47440547D01*
X160217523Y-47535785D01*
X160169904Y-47583404D01*
X160074666Y-47631023D01*
X159693714Y-47631023D01*
X161217523Y-48107213D02*
X160646095Y-48107213D01*
X160931809Y-48107213D02*
X160931809Y-47107213D01*
X160836571Y-47250071D01*
X160741333Y-47345309D01*
X160646095Y-47392928D01*
X162169904Y-48107213D02*
X161598476Y-48107213D01*
X161884190Y-48107213D02*
X161884190Y-47107213D01*
X161788952Y-47250071D01*
X161693714Y-47345309D01*
X161598476Y-47392928D01*
G04 #@! TO.C,R10*
X160265142Y-46477380D02*
X159931809Y-46001190D01*
X159693714Y-46477380D02*
X159693714Y-45477380D01*
X160074666Y-45477380D01*
X160169904Y-45525000D01*
X160217523Y-45572619D01*
X160265142Y-45667857D01*
X160265142Y-45810714D01*
X160217523Y-45905952D01*
X160169904Y-45953571D01*
X160074666Y-46001190D01*
X159693714Y-46001190D01*
X161217523Y-46477380D02*
X160646095Y-46477380D01*
X160931809Y-46477380D02*
X160931809Y-45477380D01*
X160836571Y-45620238D01*
X160741333Y-45715476D01*
X160646095Y-45763095D01*
X161836571Y-45477380D02*
X161931809Y-45477380D01*
X162027047Y-45525000D01*
X162074666Y-45572619D01*
X162122285Y-45667857D01*
X162169904Y-45858333D01*
X162169904Y-46096428D01*
X162122285Y-46286904D01*
X162074666Y-46382142D01*
X162027047Y-46429761D01*
X161931809Y-46477380D01*
X161836571Y-46477380D01*
X161741333Y-46429761D01*
X161693714Y-46382142D01*
X161646095Y-46286904D01*
X161598476Y-46096428D01*
X161598476Y-45858333D01*
X161646095Y-45667857D01*
X161693714Y-45572619D01*
X161741333Y-45525000D01*
X161836571Y-45477380D01*
G04 #@! TO.C,J10*
X171377380Y-37436523D02*
X172091666Y-37436523D01*
X172234523Y-37484142D01*
X172329761Y-37579380D01*
X172377380Y-37722238D01*
X172377380Y-37817476D01*
X172377380Y-36436523D02*
X172377380Y-37007952D01*
X172377380Y-36722238D02*
X171377380Y-36722238D01*
X171520238Y-36817476D01*
X171615476Y-36912714D01*
X171663095Y-37007952D01*
X171377380Y-35817476D02*
X171377380Y-35722238D01*
X171425000Y-35627000D01*
X171472619Y-35579380D01*
X171567857Y-35531761D01*
X171758333Y-35484142D01*
X171996428Y-35484142D01*
X172186904Y-35531761D01*
X172282142Y-35579380D01*
X172329761Y-35627000D01*
X172377380Y-35722238D01*
X172377380Y-35817476D01*
X172329761Y-35912714D01*
X172282142Y-35960333D01*
X172186904Y-36007952D01*
X171996428Y-36055571D01*
X171758333Y-36055571D01*
X171567857Y-36007952D01*
X171472619Y-35960333D01*
X171425000Y-35912714D01*
X171377380Y-35817476D01*
G04 #@! TO.C,U8*
X173163595Y-43762880D02*
X173163595Y-44572404D01*
X173211214Y-44667642D01*
X173258833Y-44715261D01*
X173354071Y-44762880D01*
X173544547Y-44762880D01*
X173639785Y-44715261D01*
X173687404Y-44667642D01*
X173735023Y-44572404D01*
X173735023Y-43762880D01*
X174354071Y-44191452D02*
X174258833Y-44143833D01*
X174211214Y-44096214D01*
X174163595Y-44000976D01*
X174163595Y-43953357D01*
X174211214Y-43858119D01*
X174258833Y-43810500D01*
X174354071Y-43762880D01*
X174544547Y-43762880D01*
X174639785Y-43810500D01*
X174687404Y-43858119D01*
X174735023Y-43953357D01*
X174735023Y-44000976D01*
X174687404Y-44096214D01*
X174639785Y-44143833D01*
X174544547Y-44191452D01*
X174354071Y-44191452D01*
X174258833Y-44239071D01*
X174211214Y-44286690D01*
X174163595Y-44381928D01*
X174163595Y-44572404D01*
X174211214Y-44667642D01*
X174258833Y-44715261D01*
X174354071Y-44762880D01*
X174544547Y-44762880D01*
X174639785Y-44715261D01*
X174687404Y-44667642D01*
X174735023Y-44572404D01*
X174735023Y-44381928D01*
X174687404Y-44286690D01*
X174639785Y-44239071D01*
X174544547Y-44191452D01*
G04 #@! TO.C,U6*
X138691595Y-43420880D02*
X138691595Y-44230404D01*
X138739214Y-44325642D01*
X138786833Y-44373261D01*
X138882071Y-44420880D01*
X139072547Y-44420880D01*
X139167785Y-44373261D01*
X139215404Y-44325642D01*
X139263023Y-44230404D01*
X139263023Y-43420880D01*
X140167785Y-43420880D02*
X139977309Y-43420880D01*
X139882071Y-43468500D01*
X139834452Y-43516119D01*
X139739214Y-43658976D01*
X139691595Y-43849452D01*
X139691595Y-44230404D01*
X139739214Y-44325642D01*
X139786833Y-44373261D01*
X139882071Y-44420880D01*
X140072547Y-44420880D01*
X140167785Y-44373261D01*
X140215404Y-44325642D01*
X140263023Y-44230404D01*
X140263023Y-43992309D01*
X140215404Y-43897071D01*
X140167785Y-43849452D01*
X140072547Y-43801833D01*
X139882071Y-43801833D01*
X139786833Y-43849452D01*
X139739214Y-43897071D01*
X139691595Y-43992309D01*
G04 #@! TO.C,J14*
X223047619Y-55940476D02*
X222333333Y-55940476D01*
X222190476Y-55892857D01*
X222095238Y-55797619D01*
X222047619Y-55654761D01*
X222047619Y-55559523D01*
X222047619Y-56940476D02*
X222047619Y-56369047D01*
X222047619Y-56654761D02*
X223047619Y-56654761D01*
X222904761Y-56559523D01*
X222809523Y-56464285D01*
X222761904Y-56369047D01*
X222714285Y-57797619D02*
X222047619Y-57797619D01*
X223095238Y-57559523D02*
X222380952Y-57321428D01*
X222380952Y-57940476D01*
G04 #@! TO.C,K1*
X112862404Y-76452380D02*
X112862404Y-75452380D01*
X113433833Y-76452380D02*
X113005261Y-75880952D01*
X113433833Y-75452380D02*
X112862404Y-76023809D01*
X114386214Y-76452380D02*
X113814785Y-76452380D01*
X114100500Y-76452380D02*
X114100500Y-75452380D01*
X114005261Y-75595238D01*
X113910023Y-75690476D01*
X113814785Y-75738095D01*
G04 #@! TO.C,K6*
X195261904Y-76452380D02*
X195261904Y-75452380D01*
X195833333Y-76452380D02*
X195404761Y-75880952D01*
X195833333Y-75452380D02*
X195261904Y-76023809D01*
X196690476Y-75452380D02*
X196500000Y-75452380D01*
X196404761Y-75500000D01*
X196357142Y-75547619D01*
X196261904Y-75690476D01*
X196214285Y-75880952D01*
X196214285Y-76261904D01*
X196261904Y-76357142D01*
X196309523Y-76404761D01*
X196404761Y-76452380D01*
X196595238Y-76452380D01*
X196690476Y-76404761D01*
X196738095Y-76357142D01*
X196785714Y-76261904D01*
X196785714Y-76023809D01*
X196738095Y-75928571D01*
X196690476Y-75880952D01*
X196595238Y-75833333D01*
X196404761Y-75833333D01*
X196309523Y-75880952D01*
X196261904Y-75928571D01*
X196214285Y-76023809D01*
G04 #@! TO.C,J7*
X222166666Y-110702380D02*
X222166666Y-111416666D01*
X222119047Y-111559523D01*
X222023809Y-111654761D01*
X221880952Y-111702380D01*
X221785714Y-111702380D01*
X222547619Y-110702380D02*
X223214285Y-110702380D01*
X222785714Y-111702380D01*
G04 #@! TO.C,J6*
X189651666Y-110787380D02*
X189651666Y-111501666D01*
X189604047Y-111644523D01*
X189508809Y-111739761D01*
X189365952Y-111787380D01*
X189270714Y-111787380D01*
X190556428Y-110787380D02*
X190365952Y-110787380D01*
X190270714Y-110835000D01*
X190223095Y-110882619D01*
X190127857Y-111025476D01*
X190080238Y-111215952D01*
X190080238Y-111596904D01*
X190127857Y-111692142D01*
X190175476Y-111739761D01*
X190270714Y-111787380D01*
X190461190Y-111787380D01*
X190556428Y-111739761D01*
X190604047Y-111692142D01*
X190651666Y-111596904D01*
X190651666Y-111358809D01*
X190604047Y-111263571D01*
X190556428Y-111215952D01*
X190461190Y-111168333D01*
X190270714Y-111168333D01*
X190175476Y-111215952D01*
X190127857Y-111263571D01*
X190080238Y-111358809D01*
G04 #@! TO.C,J2*
X122976666Y-110787380D02*
X122976666Y-111501666D01*
X122929047Y-111644523D01*
X122833809Y-111739761D01*
X122690952Y-111787380D01*
X122595714Y-111787380D01*
X123405238Y-110882619D02*
X123452857Y-110835000D01*
X123548095Y-110787380D01*
X123786190Y-110787380D01*
X123881428Y-110835000D01*
X123929047Y-110882619D01*
X123976666Y-110977857D01*
X123976666Y-111073095D01*
X123929047Y-111215952D01*
X123357619Y-111787380D01*
X123976666Y-111787380D01*
G04 #@! TO.C,J1*
X106466666Y-110787380D02*
X106466666Y-111501666D01*
X106419047Y-111644523D01*
X106323809Y-111739761D01*
X106180952Y-111787380D01*
X106085714Y-111787380D01*
X107466666Y-111787380D02*
X106895238Y-111787380D01*
X107180952Y-111787380D02*
X107180952Y-110787380D01*
X107085714Y-110930238D01*
X106990476Y-111025476D01*
X106895238Y-111073095D01*
G04 #@! TO.C,J5*
X173141666Y-110787380D02*
X173141666Y-111501666D01*
X173094047Y-111644523D01*
X172998809Y-111739761D01*
X172855952Y-111787380D01*
X172760714Y-111787380D01*
X174094047Y-110787380D02*
X173617857Y-110787380D01*
X173570238Y-111263571D01*
X173617857Y-111215952D01*
X173713095Y-111168333D01*
X173951190Y-111168333D01*
X174046428Y-111215952D01*
X174094047Y-111263571D01*
X174141666Y-111358809D01*
X174141666Y-111596904D01*
X174094047Y-111692142D01*
X174046428Y-111739761D01*
X173951190Y-111787380D01*
X173713095Y-111787380D01*
X173617857Y-111739761D01*
X173570238Y-111692142D01*
G04 #@! TO.C,J4*
X155996666Y-110787380D02*
X155996666Y-111501666D01*
X155949047Y-111644523D01*
X155853809Y-111739761D01*
X155710952Y-111787380D01*
X155615714Y-111787380D01*
X156901428Y-111120714D02*
X156901428Y-111787380D01*
X156663333Y-110739761D02*
X156425238Y-111454047D01*
X157044285Y-111454047D01*
G04 #@! TO.C,J3*
X139486666Y-110787380D02*
X139486666Y-111501666D01*
X139439047Y-111644523D01*
X139343809Y-111739761D01*
X139200952Y-111787380D01*
X139105714Y-111787380D01*
X139867619Y-110787380D02*
X140486666Y-110787380D01*
X140153333Y-111168333D01*
X140296190Y-111168333D01*
X140391428Y-111215952D01*
X140439047Y-111263571D01*
X140486666Y-111358809D01*
X140486666Y-111596904D01*
X140439047Y-111692142D01*
X140391428Y-111739761D01*
X140296190Y-111787380D01*
X140010476Y-111787380D01*
X139915238Y-111739761D01*
X139867619Y-111692142D01*
G04 #@! TO.C,C7*
X127093333Y-60672142D02*
X127045714Y-60719761D01*
X126902857Y-60767380D01*
X126807619Y-60767380D01*
X126664761Y-60719761D01*
X126569523Y-60624523D01*
X126521904Y-60529285D01*
X126474285Y-60338809D01*
X126474285Y-60195952D01*
X126521904Y-60005476D01*
X126569523Y-59910238D01*
X126664761Y-59815000D01*
X126807619Y-59767380D01*
X126902857Y-59767380D01*
X127045714Y-59815000D01*
X127093333Y-59862619D01*
X127426666Y-59767380D02*
X128093333Y-59767380D01*
X127664761Y-60767380D01*
G04 #@! TO.C,RV1*
X102273761Y-107691380D02*
X101940428Y-107215190D01*
X101702333Y-107691380D02*
X101702333Y-106691380D01*
X102083285Y-106691380D01*
X102178523Y-106739000D01*
X102226142Y-106786619D01*
X102273761Y-106881857D01*
X102273761Y-107024714D01*
X102226142Y-107119952D01*
X102178523Y-107167571D01*
X102083285Y-107215190D01*
X101702333Y-107215190D01*
X102559476Y-106691380D02*
X102892809Y-107691380D01*
X103226142Y-106691380D01*
X104083285Y-107691380D02*
X103511857Y-107691380D01*
X103797571Y-107691380D02*
X103797571Y-106691380D01*
X103702333Y-106834238D01*
X103607095Y-106929476D01*
X103511857Y-106977095D01*
G04 #@! TO.C,U3*
X149780095Y-60889880D02*
X149780095Y-61699404D01*
X149827714Y-61794642D01*
X149875333Y-61842261D01*
X149970571Y-61889880D01*
X150161047Y-61889880D01*
X150256285Y-61842261D01*
X150303904Y-61794642D01*
X150351523Y-61699404D01*
X150351523Y-60889880D01*
X150732476Y-60889880D02*
X151351523Y-60889880D01*
X151018190Y-61270833D01*
X151161047Y-61270833D01*
X151256285Y-61318452D01*
X151303904Y-61366071D01*
X151351523Y-61461309D01*
X151351523Y-61699404D01*
X151303904Y-61794642D01*
X151256285Y-61842261D01*
X151161047Y-61889880D01*
X150875333Y-61889880D01*
X150780095Y-61842261D01*
X150732476Y-61794642D01*
G04 #@! TO.C,U2*
X212210095Y-88943380D02*
X212210095Y-89752904D01*
X212257714Y-89848142D01*
X212305333Y-89895761D01*
X212400571Y-89943380D01*
X212591047Y-89943380D01*
X212686285Y-89895761D01*
X212733904Y-89848142D01*
X212781523Y-89752904D01*
X212781523Y-88943380D01*
X213210095Y-89038619D02*
X213257714Y-88991000D01*
X213352952Y-88943380D01*
X213591047Y-88943380D01*
X213686285Y-88991000D01*
X213733904Y-89038619D01*
X213781523Y-89133857D01*
X213781523Y-89229095D01*
X213733904Y-89371952D01*
X213162476Y-89943380D01*
X213781523Y-89943380D01*
G04 #@! TO.C,C5*
X108293333Y-60143642D02*
X108245714Y-60191261D01*
X108102857Y-60238880D01*
X108007619Y-60238880D01*
X107864761Y-60191261D01*
X107769523Y-60096023D01*
X107721904Y-60000785D01*
X107674285Y-59810309D01*
X107674285Y-59667452D01*
X107721904Y-59476976D01*
X107769523Y-59381738D01*
X107864761Y-59286500D01*
X108007619Y-59238880D01*
X108102857Y-59238880D01*
X108245714Y-59286500D01*
X108293333Y-59334119D01*
X109198095Y-59238880D02*
X108721904Y-59238880D01*
X108674285Y-59715071D01*
X108721904Y-59667452D01*
X108817142Y-59619833D01*
X109055238Y-59619833D01*
X109150476Y-59667452D01*
X109198095Y-59715071D01*
X109245714Y-59810309D01*
X109245714Y-60048404D01*
X109198095Y-60143642D01*
X109150476Y-60191261D01*
X109055238Y-60238880D01*
X108817142Y-60238880D01*
X108721904Y-60191261D01*
X108674285Y-60143642D01*
G04 #@! TO.C,C6*
X138083333Y-60357142D02*
X138035714Y-60404761D01*
X137892857Y-60452380D01*
X137797619Y-60452380D01*
X137654761Y-60404761D01*
X137559523Y-60309523D01*
X137511904Y-60214285D01*
X137464285Y-60023809D01*
X137464285Y-59880952D01*
X137511904Y-59690476D01*
X137559523Y-59595238D01*
X137654761Y-59500000D01*
X137797619Y-59452380D01*
X137892857Y-59452380D01*
X138035714Y-59500000D01*
X138083333Y-59547619D01*
X138940476Y-59452380D02*
X138750000Y-59452380D01*
X138654761Y-59500000D01*
X138607142Y-59547619D01*
X138511904Y-59690476D01*
X138464285Y-59880952D01*
X138464285Y-60261904D01*
X138511904Y-60357142D01*
X138559523Y-60404761D01*
X138654761Y-60452380D01*
X138845238Y-60452380D01*
X138940476Y-60404761D01*
X138988095Y-60357142D01*
X139035714Y-60261904D01*
X139035714Y-60023809D01*
X138988095Y-59928571D01*
X138940476Y-59880952D01*
X138845238Y-59833333D01*
X138654761Y-59833333D01*
X138559523Y-59880952D01*
X138511904Y-59928571D01*
X138464285Y-60023809D01*
G04 #@! TO.C,C8*
X157133333Y-61357142D02*
X157085714Y-61404761D01*
X156942857Y-61452380D01*
X156847619Y-61452380D01*
X156704761Y-61404761D01*
X156609523Y-61309523D01*
X156561904Y-61214285D01*
X156514285Y-61023809D01*
X156514285Y-60880952D01*
X156561904Y-60690476D01*
X156609523Y-60595238D01*
X156704761Y-60500000D01*
X156847619Y-60452380D01*
X156942857Y-60452380D01*
X157085714Y-60500000D01*
X157133333Y-60547619D01*
X157704761Y-60880952D02*
X157609523Y-60833333D01*
X157561904Y-60785714D01*
X157514285Y-60690476D01*
X157514285Y-60642857D01*
X157561904Y-60547619D01*
X157609523Y-60500000D01*
X157704761Y-60452380D01*
X157895238Y-60452380D01*
X157990476Y-60500000D01*
X158038095Y-60547619D01*
X158085714Y-60642857D01*
X158085714Y-60690476D01*
X158038095Y-60785714D01*
X157990476Y-60833333D01*
X157895238Y-60880952D01*
X157704761Y-60880952D01*
X157609523Y-60928571D01*
X157561904Y-60976190D01*
X157514285Y-61071428D01*
X157514285Y-61261904D01*
X157561904Y-61357142D01*
X157609523Y-61404761D01*
X157704761Y-61452380D01*
X157895238Y-61452380D01*
X157990476Y-61404761D01*
X158038095Y-61357142D01*
X158085714Y-61261904D01*
X158085714Y-61071428D01*
X158038095Y-60976190D01*
X157990476Y-60928571D01*
X157895238Y-60880952D01*
G04 #@! TO.C,U5*
X119681095Y-60953380D02*
X119681095Y-61762904D01*
X119728714Y-61858142D01*
X119776333Y-61905761D01*
X119871571Y-61953380D01*
X120062047Y-61953380D01*
X120157285Y-61905761D01*
X120204904Y-61858142D01*
X120252523Y-61762904D01*
X120252523Y-60953380D01*
X121204904Y-60953380D02*
X120728714Y-60953380D01*
X120681095Y-61429571D01*
X120728714Y-61381952D01*
X120823952Y-61334333D01*
X121062047Y-61334333D01*
X121157285Y-61381952D01*
X121204904Y-61429571D01*
X121252523Y-61524809D01*
X121252523Y-61762904D01*
X121204904Y-61858142D01*
X121157285Y-61905761D01*
X121062047Y-61953380D01*
X120823952Y-61953380D01*
X120728714Y-61905761D01*
X120681095Y-61858142D01*
G04 #@! TO.C,C1*
X214710333Y-76513142D02*
X214662714Y-76560761D01*
X214519857Y-76608380D01*
X214424619Y-76608380D01*
X214281761Y-76560761D01*
X214186523Y-76465523D01*
X214138904Y-76370285D01*
X214091285Y-76179809D01*
X214091285Y-76036952D01*
X214138904Y-75846476D01*
X214186523Y-75751238D01*
X214281761Y-75656000D01*
X214424619Y-75608380D01*
X214519857Y-75608380D01*
X214662714Y-75656000D01*
X214710333Y-75703619D01*
X215662714Y-76608380D02*
X215091285Y-76608380D01*
X215377000Y-76608380D02*
X215377000Y-75608380D01*
X215281761Y-75751238D01*
X215186523Y-75846476D01*
X215091285Y-75894095D01*
G04 #@! TO.C,C2*
X214710333Y-79053142D02*
X214662714Y-79100761D01*
X214519857Y-79148380D01*
X214424619Y-79148380D01*
X214281761Y-79100761D01*
X214186523Y-79005523D01*
X214138904Y-78910285D01*
X214091285Y-78719809D01*
X214091285Y-78576952D01*
X214138904Y-78386476D01*
X214186523Y-78291238D01*
X214281761Y-78196000D01*
X214424619Y-78148380D01*
X214519857Y-78148380D01*
X214662714Y-78196000D01*
X214710333Y-78243619D01*
X215091285Y-78243619D02*
X215138904Y-78196000D01*
X215234142Y-78148380D01*
X215472238Y-78148380D01*
X215567476Y-78196000D01*
X215615095Y-78243619D01*
X215662714Y-78338857D01*
X215662714Y-78434095D01*
X215615095Y-78576952D01*
X215043666Y-79148380D01*
X215662714Y-79148380D01*
G04 #@! TO.C,V1*
X92544476Y-103842380D02*
X92877809Y-104842380D01*
X93211142Y-103842380D01*
X94068285Y-104842380D02*
X93496857Y-104842380D01*
X93782571Y-104842380D02*
X93782571Y-103842380D01*
X93687333Y-103985238D01*
X93592095Y-104080476D01*
X93496857Y-104128095D01*
G04 #@! TO.C,R3*
X195539333Y-40762380D02*
X195206000Y-40286190D01*
X194967904Y-40762380D02*
X194967904Y-39762380D01*
X195348857Y-39762380D01*
X195444095Y-39810000D01*
X195491714Y-39857619D01*
X195539333Y-39952857D01*
X195539333Y-40095714D01*
X195491714Y-40190952D01*
X195444095Y-40238571D01*
X195348857Y-40286190D01*
X194967904Y-40286190D01*
X195872666Y-39762380D02*
X196491714Y-39762380D01*
X196158380Y-40143333D01*
X196301238Y-40143333D01*
X196396476Y-40190952D01*
X196444095Y-40238571D01*
X196491714Y-40333809D01*
X196491714Y-40571904D01*
X196444095Y-40667142D01*
X196396476Y-40714761D01*
X196301238Y-40762380D01*
X196015523Y-40762380D01*
X195920285Y-40714761D01*
X195872666Y-40667142D01*
G04 #@! TO.C,R1*
X214710333Y-74068380D02*
X214377000Y-73592190D01*
X214138904Y-74068380D02*
X214138904Y-73068380D01*
X214519857Y-73068380D01*
X214615095Y-73116000D01*
X214662714Y-73163619D01*
X214710333Y-73258857D01*
X214710333Y-73401714D01*
X214662714Y-73496952D01*
X214615095Y-73544571D01*
X214519857Y-73592190D01*
X214138904Y-73592190D01*
X215662714Y-74068380D02*
X215091285Y-74068380D01*
X215377000Y-74068380D02*
X215377000Y-73068380D01*
X215281761Y-73211238D01*
X215186523Y-73306476D01*
X215091285Y-73354095D01*
G04 #@! TO.C,K2*
X129261904Y-76452380D02*
X129261904Y-75452380D01*
X129833333Y-76452380D02*
X129404761Y-75880952D01*
X129833333Y-75452380D02*
X129261904Y-76023809D01*
X130214285Y-75547619D02*
X130261904Y-75500000D01*
X130357142Y-75452380D01*
X130595238Y-75452380D01*
X130690476Y-75500000D01*
X130738095Y-75547619D01*
X130785714Y-75642857D01*
X130785714Y-75738095D01*
X130738095Y-75880952D01*
X130166666Y-76452380D01*
X130785714Y-76452380D01*
G04 #@! TO.C,K3*
X145261904Y-76452380D02*
X145261904Y-75452380D01*
X145833333Y-76452380D02*
X145404761Y-75880952D01*
X145833333Y-75452380D02*
X145261904Y-76023809D01*
X146166666Y-75452380D02*
X146785714Y-75452380D01*
X146452380Y-75833333D01*
X146595238Y-75833333D01*
X146690476Y-75880952D01*
X146738095Y-75928571D01*
X146785714Y-76023809D01*
X146785714Y-76261904D01*
X146738095Y-76357142D01*
X146690476Y-76404761D01*
X146595238Y-76452380D01*
X146309523Y-76452380D01*
X146214285Y-76404761D01*
X146166666Y-76357142D01*
G04 #@! TO.C,K4*
X162261904Y-76452380D02*
X162261904Y-75452380D01*
X162833333Y-76452380D02*
X162404761Y-75880952D01*
X162833333Y-75452380D02*
X162261904Y-76023809D01*
X163690476Y-75785714D02*
X163690476Y-76452380D01*
X163452380Y-75404761D02*
X163214285Y-76119047D01*
X163833333Y-76119047D01*
G04 #@! TO.C,K5*
X179261904Y-76452380D02*
X179261904Y-75452380D01*
X179833333Y-76452380D02*
X179404761Y-75880952D01*
X179833333Y-75452380D02*
X179261904Y-76023809D01*
X180738095Y-75452380D02*
X180261904Y-75452380D01*
X180214285Y-75928571D01*
X180261904Y-75880952D01*
X180357142Y-75833333D01*
X180595238Y-75833333D01*
X180690476Y-75880952D01*
X180738095Y-75928571D01*
X180785714Y-76023809D01*
X180785714Y-76261904D01*
X180738095Y-76357142D01*
X180690476Y-76404761D01*
X180595238Y-76452380D01*
X180357142Y-76452380D01*
X180261904Y-76404761D01*
X180214285Y-76357142D01*
G04 #@! TO.C,R9*
X113006000Y-40541142D02*
X112706000Y-40112571D01*
X112491714Y-40541142D02*
X112491714Y-39641142D01*
X112834571Y-39641142D01*
X112920285Y-39684000D01*
X112963142Y-39726857D01*
X113006000Y-39812571D01*
X113006000Y-39941142D01*
X112963142Y-40026857D01*
X112920285Y-40069714D01*
X112834571Y-40112571D01*
X112491714Y-40112571D01*
X113434571Y-40541142D02*
X113606000Y-40541142D01*
X113691714Y-40498285D01*
X113734571Y-40455428D01*
X113820285Y-40326857D01*
X113863142Y-40155428D01*
X113863142Y-39812571D01*
X113820285Y-39726857D01*
X113777428Y-39684000D01*
X113691714Y-39641142D01*
X113520285Y-39641142D01*
X113434571Y-39684000D01*
X113391714Y-39726857D01*
X113348857Y-39812571D01*
X113348857Y-40026857D01*
X113391714Y-40112571D01*
X113434571Y-40155428D01*
X113520285Y-40198285D01*
X113691714Y-40198285D01*
X113777428Y-40155428D01*
X113820285Y-40112571D01*
X113863142Y-40026857D01*
G04 #@! TO.C,R8*
X110793000Y-40590142D02*
X110493000Y-40161571D01*
X110278714Y-40590142D02*
X110278714Y-39690142D01*
X110621571Y-39690142D01*
X110707285Y-39733000D01*
X110750142Y-39775857D01*
X110793000Y-39861571D01*
X110793000Y-39990142D01*
X110750142Y-40075857D01*
X110707285Y-40118714D01*
X110621571Y-40161571D01*
X110278714Y-40161571D01*
X111307285Y-40075857D02*
X111221571Y-40033000D01*
X111178714Y-39990142D01*
X111135857Y-39904428D01*
X111135857Y-39861571D01*
X111178714Y-39775857D01*
X111221571Y-39733000D01*
X111307285Y-39690142D01*
X111478714Y-39690142D01*
X111564428Y-39733000D01*
X111607285Y-39775857D01*
X111650142Y-39861571D01*
X111650142Y-39904428D01*
X111607285Y-39990142D01*
X111564428Y-40033000D01*
X111478714Y-40075857D01*
X111307285Y-40075857D01*
X111221571Y-40118714D01*
X111178714Y-40161571D01*
X111135857Y-40247285D01*
X111135857Y-40418714D01*
X111178714Y-40504428D01*
X111221571Y-40547285D01*
X111307285Y-40590142D01*
X111478714Y-40590142D01*
X111564428Y-40547285D01*
X111607285Y-40504428D01*
X111650142Y-40418714D01*
X111650142Y-40247285D01*
X111607285Y-40161571D01*
X111564428Y-40118714D01*
X111478714Y-40075857D01*
G04 #@! TO.C,LS1*
X93844142Y-40000380D02*
X93367952Y-40000380D01*
X93367952Y-39000380D01*
X94129857Y-39952761D02*
X94272714Y-40000380D01*
X94510809Y-40000380D01*
X94606047Y-39952761D01*
X94653666Y-39905142D01*
X94701285Y-39809904D01*
X94701285Y-39714666D01*
X94653666Y-39619428D01*
X94606047Y-39571809D01*
X94510809Y-39524190D01*
X94320333Y-39476571D01*
X94225095Y-39428952D01*
X94177476Y-39381333D01*
X94129857Y-39286095D01*
X94129857Y-39190857D01*
X94177476Y-39095619D01*
X94225095Y-39048000D01*
X94320333Y-39000380D01*
X94558428Y-39000380D01*
X94701285Y-39048000D01*
X95653666Y-40000380D02*
X95082238Y-40000380D01*
X95367952Y-40000380D02*
X95367952Y-39000380D01*
X95272714Y-39143238D01*
X95177476Y-39238476D01*
X95082238Y-39286095D01*
G04 #@! TO.C,R5*
X217700833Y-63368380D02*
X217367500Y-62892190D01*
X217129404Y-63368380D02*
X217129404Y-62368380D01*
X217510357Y-62368380D01*
X217605595Y-62416000D01*
X217653214Y-62463619D01*
X217700833Y-62558857D01*
X217700833Y-62701714D01*
X217653214Y-62796952D01*
X217605595Y-62844571D01*
X217510357Y-62892190D01*
X217129404Y-62892190D01*
X218605595Y-62368380D02*
X218129404Y-62368380D01*
X218081785Y-62844571D01*
X218129404Y-62796952D01*
X218224642Y-62749333D01*
X218462738Y-62749333D01*
X218557976Y-62796952D01*
X218605595Y-62844571D01*
X218653214Y-62939809D01*
X218653214Y-63177904D01*
X218605595Y-63273142D01*
X218557976Y-63320761D01*
X218462738Y-63368380D01*
X218224642Y-63368380D01*
X218129404Y-63320761D01*
X218081785Y-63273142D01*
G04 #@! TO.C,R6*
X217700833Y-65336880D02*
X217367500Y-64860690D01*
X217129404Y-65336880D02*
X217129404Y-64336880D01*
X217510357Y-64336880D01*
X217605595Y-64384500D01*
X217653214Y-64432119D01*
X217700833Y-64527357D01*
X217700833Y-64670214D01*
X217653214Y-64765452D01*
X217605595Y-64813071D01*
X217510357Y-64860690D01*
X217129404Y-64860690D01*
X218557976Y-64336880D02*
X218367500Y-64336880D01*
X218272261Y-64384500D01*
X218224642Y-64432119D01*
X218129404Y-64574976D01*
X218081785Y-64765452D01*
X218081785Y-65146404D01*
X218129404Y-65241642D01*
X218177023Y-65289261D01*
X218272261Y-65336880D01*
X218462738Y-65336880D01*
X218557976Y-65289261D01*
X218605595Y-65241642D01*
X218653214Y-65146404D01*
X218653214Y-64908309D01*
X218605595Y-64813071D01*
X218557976Y-64765452D01*
X218462738Y-64717833D01*
X218272261Y-64717833D01*
X218177023Y-64765452D01*
X218129404Y-64813071D01*
X218081785Y-64908309D01*
G04 #@! TO.C,U7*
X124666695Y-46590380D02*
X124666695Y-47399904D01*
X124714314Y-47495142D01*
X124761933Y-47542761D01*
X124857171Y-47590380D01*
X125047647Y-47590380D01*
X125142885Y-47542761D01*
X125190504Y-47495142D01*
X125238123Y-47399904D01*
X125238123Y-46590380D01*
X125619076Y-46590380D02*
X126285742Y-46590380D01*
X125857171Y-47590380D01*
G04 #@! TO.C,R4*
X224848333Y-64310380D02*
X224515000Y-63834190D01*
X224276904Y-64310380D02*
X224276904Y-63310380D01*
X224657857Y-63310380D01*
X224753095Y-63358000D01*
X224800714Y-63405619D01*
X224848333Y-63500857D01*
X224848333Y-63643714D01*
X224800714Y-63738952D01*
X224753095Y-63786571D01*
X224657857Y-63834190D01*
X224276904Y-63834190D01*
X225705476Y-63643714D02*
X225705476Y-64310380D01*
X225467380Y-63262761D02*
X225229285Y-63977047D01*
X225848333Y-63977047D01*
G04 #@! TO.C,R7*
X195539333Y-50160380D02*
X195206000Y-49684190D01*
X194967904Y-50160380D02*
X194967904Y-49160380D01*
X195348857Y-49160380D01*
X195444095Y-49208000D01*
X195491714Y-49255619D01*
X195539333Y-49350857D01*
X195539333Y-49493714D01*
X195491714Y-49588952D01*
X195444095Y-49636571D01*
X195348857Y-49684190D01*
X194967904Y-49684190D01*
X195872666Y-49160380D02*
X196539333Y-49160380D01*
X196110761Y-50160380D01*
G04 #@! TO.C,C9*
X170018333Y-42536142D02*
X169970714Y-42583761D01*
X169827857Y-42631380D01*
X169732619Y-42631380D01*
X169589761Y-42583761D01*
X169494523Y-42488523D01*
X169446904Y-42393285D01*
X169399285Y-42202809D01*
X169399285Y-42059952D01*
X169446904Y-41869476D01*
X169494523Y-41774238D01*
X169589761Y-41679000D01*
X169732619Y-41631380D01*
X169827857Y-41631380D01*
X169970714Y-41679000D01*
X170018333Y-41726619D01*
X170494523Y-42631380D02*
X170685000Y-42631380D01*
X170780238Y-42583761D01*
X170827857Y-42536142D01*
X170923095Y-42393285D01*
X170970714Y-42202809D01*
X170970714Y-41821857D01*
X170923095Y-41726619D01*
X170875476Y-41679000D01*
X170780238Y-41631380D01*
X170589761Y-41631380D01*
X170494523Y-41679000D01*
X170446904Y-41726619D01*
X170399285Y-41821857D01*
X170399285Y-42059952D01*
X170446904Y-42155190D01*
X170494523Y-42202809D01*
X170589761Y-42250428D01*
X170780238Y-42250428D01*
X170875476Y-42202809D01*
X170923095Y-42155190D01*
X170970714Y-42059952D01*
G04 #@! TO.C,R2*
X147897880Y-51528166D02*
X147421690Y-51861500D01*
X147897880Y-52099595D02*
X146897880Y-52099595D01*
X146897880Y-51718642D01*
X146945500Y-51623404D01*
X146993119Y-51575785D01*
X147088357Y-51528166D01*
X147231214Y-51528166D01*
X147326452Y-51575785D01*
X147374071Y-51623404D01*
X147421690Y-51718642D01*
X147421690Y-52099595D01*
X146993119Y-51147214D02*
X146945500Y-51099595D01*
X146897880Y-51004357D01*
X146897880Y-50766261D01*
X146945500Y-50671023D01*
X146993119Y-50623404D01*
X147088357Y-50575785D01*
X147183595Y-50575785D01*
X147326452Y-50623404D01*
X147897880Y-51194833D01*
X147897880Y-50575785D01*
G04 #@! TO.C,C3*
X192643733Y-40438542D02*
X192596114Y-40486161D01*
X192453257Y-40533780D01*
X192358019Y-40533780D01*
X192215161Y-40486161D01*
X192119923Y-40390923D01*
X192072304Y-40295685D01*
X192024685Y-40105209D01*
X192024685Y-39962352D01*
X192072304Y-39771876D01*
X192119923Y-39676638D01*
X192215161Y-39581400D01*
X192358019Y-39533780D01*
X192453257Y-39533780D01*
X192596114Y-39581400D01*
X192643733Y-39629019D01*
X192977066Y-39533780D02*
X193596114Y-39533780D01*
X193262780Y-39914733D01*
X193405638Y-39914733D01*
X193500876Y-39962352D01*
X193548495Y-40009971D01*
X193596114Y-40105209D01*
X193596114Y-40343304D01*
X193548495Y-40438542D01*
X193500876Y-40486161D01*
X193405638Y-40533780D01*
X193119923Y-40533780D01*
X193024685Y-40486161D01*
X192977066Y-40438542D01*
G04 #@! TO.C,C4*
X224808333Y-48857142D02*
X224760714Y-48904761D01*
X224617857Y-48952380D01*
X224522619Y-48952380D01*
X224379761Y-48904761D01*
X224284523Y-48809523D01*
X224236904Y-48714285D01*
X224189285Y-48523809D01*
X224189285Y-48380952D01*
X224236904Y-48190476D01*
X224284523Y-48095238D01*
X224379761Y-48000000D01*
X224522619Y-47952380D01*
X224617857Y-47952380D01*
X224760714Y-48000000D01*
X224808333Y-48047619D01*
X225665476Y-48285714D02*
X225665476Y-48952380D01*
X225427380Y-47904761D02*
X225189285Y-48619047D01*
X225808333Y-48619047D01*
G04 #@! TO.C,C10*
X188857142Y-40357142D02*
X188809523Y-40404761D01*
X188666666Y-40452380D01*
X188571428Y-40452380D01*
X188428571Y-40404761D01*
X188333333Y-40309523D01*
X188285714Y-40214285D01*
X188238095Y-40023809D01*
X188238095Y-39880952D01*
X188285714Y-39690476D01*
X188333333Y-39595238D01*
X188428571Y-39500000D01*
X188571428Y-39452380D01*
X188666666Y-39452380D01*
X188809523Y-39500000D01*
X188857142Y-39547619D01*
X189809523Y-40452380D02*
X189238095Y-40452380D01*
X189523809Y-40452380D02*
X189523809Y-39452380D01*
X189428571Y-39595238D01*
X189333333Y-39690476D01*
X189238095Y-39738095D01*
X190428571Y-39452380D02*
X190523809Y-39452380D01*
X190619047Y-39500000D01*
X190666666Y-39547619D01*
X190714285Y-39642857D01*
X190761904Y-39833333D01*
X190761904Y-40071428D01*
X190714285Y-40261904D01*
X190666666Y-40357142D01*
X190619047Y-40404761D01*
X190523809Y-40452380D01*
X190428571Y-40452380D01*
X190333333Y-40404761D01*
X190285714Y-40357142D01*
X190238095Y-40261904D01*
X190190476Y-40071428D01*
X190190476Y-39833333D01*
X190238095Y-39642857D01*
X190285714Y-39547619D01*
X190333333Y-39500000D01*
X190428571Y-39452380D01*
G04 #@! TD*
M02*
