%TF.GenerationSoftware,KiCad,Pcbnew,(5.0.0)*%
%TF.CreationDate,2018-09-16T11:13:20+01:00*%
%TF.ProjectId,AquaHub,417175614875622E6B696361645F7063,rev?*%
%TF.SameCoordinates,Original*%
%TF.FileFunction,Copper,L2,Bot,Signal*%
%TF.FilePolarity,Positive*%
%FSLAX46Y46*%
G04 Gerber Fmt 4.6, Leading zero omitted, Abs format (unit mm)*
G04 Created by KiCad (PCBNEW (5.0.0)) date 09/16/18 11:13:20*
%MOMM*%
%LPD*%
G01*
G04 APERTURE LIST*
%ADD10C,0.080000*%
%ADD11C,0.200000*%
%ADD12R,2.000000X2.000000*%
%ADD13C,2.000000*%
%ADD14C,2.500000*%
%ADD15O,1.700000X1.700000*%
%ADD16R,1.700000X1.700000*%
%ADD17O,1.070000X1.800000*%
%ADD18R,1.070000X1.800000*%
%ADD19O,1.727200X1.727200*%
%ADD20R,1.727200X1.727200*%
%ADD21C,1.800000*%
%ADD22C,2.600000*%
%ADD23R,2.600000X2.600000*%
%ADD24C,2.800000*%
%ADD25R,3.000000X1.600000*%
%ADD26C,2.780000*%
%ADD27C,1.000000*%
%ADD28C,0.152400*%
%ADD29C,2.000000*%
%ADD30C,0.254000*%
%ADD31C,0.350000*%
G04 APERTURE END LIST*
D10*
X55880000Y-104140000D02*
X55880000Y-102870000D01*
X66040000Y-104140000D02*
X55880000Y-104140000D01*
X66040000Y-102870000D02*
X66040000Y-104140000D01*
X55880000Y-102870000D02*
X66040000Y-102870000D01*
D11*
X50800000Y-102870000D02*
X47879000Y-102870000D01*
X50800000Y-106045000D02*
X50800000Y-102870000D01*
X146050000Y-115570000D02*
X146050000Y-118110000D01*
X140680000Y-77590000D02*
X140680000Y-75590000D01*
X148180000Y-75590000D02*
X148180000Y-77590000D01*
X148180000Y-77590000D02*
X208180000Y-77590000D01*
X208180000Y-75590000D02*
X148180000Y-75590000D01*
X208180000Y-53590000D02*
X208180000Y-75590000D01*
X38180000Y-53590000D02*
X208180000Y-53590000D01*
X38180000Y-75590000D02*
X38180000Y-53590000D01*
X140680000Y-75590000D02*
X38180000Y-75590000D01*
X48006000Y-118364000D02*
X47879000Y-102870000D01*
X146050000Y-118110000D02*
X48006000Y-118364000D01*
X50800000Y-115570000D02*
X146050000Y-115570000D01*
X50800000Y-106045000D02*
X50800000Y-115570000D01*
X38180000Y-153590000D02*
X208180000Y-153590000D01*
X38180000Y-77590000D02*
X38180000Y-153590000D01*
X140680000Y-77590000D02*
X38180000Y-77590000D01*
X208180000Y-77590000D02*
X208180000Y-153590000D01*
D12*
X58293000Y-100584000D03*
D13*
X63373000Y-100584000D03*
X88773000Y-82804000D03*
X88773000Y-100584000D03*
X83693000Y-82804000D03*
X87430000Y-72840000D03*
X82930000Y-72840000D03*
X87430000Y-66340000D03*
X82930000Y-66340000D03*
D14*
X136525000Y-133350000D03*
X136525000Y-128350000D03*
X136525000Y-108350000D03*
X144025000Y-108350000D03*
X144025000Y-128350000D03*
X144025000Y-133350000D03*
X102990000Y-133350000D03*
X102990000Y-128350000D03*
X102990000Y-108350000D03*
X110490000Y-108350000D03*
X110490000Y-128350000D03*
X110490000Y-133350000D03*
X86480000Y-133350000D03*
X86480000Y-128350000D03*
X86480000Y-108350000D03*
X93980000Y-108350000D03*
X93980000Y-128350000D03*
X93980000Y-133350000D03*
D15*
X194691000Y-97663000D03*
D16*
X194691000Y-95123000D03*
D17*
X131990000Y-59590000D03*
X130720000Y-59590000D03*
X129450000Y-59590000D03*
D18*
X128180000Y-59590000D03*
D19*
X144780000Y-84328000D03*
X144780000Y-81788000D03*
X147320000Y-84328000D03*
X147320000Y-81788000D03*
X149860000Y-84328000D03*
D20*
X149860000Y-81788000D03*
D21*
X49805000Y-99575000D03*
X52705000Y-92075000D03*
D19*
X180975000Y-66040000D03*
X183515000Y-66040000D03*
X180975000Y-63500000D03*
X183515000Y-63500000D03*
X180975000Y-60960000D03*
D20*
X183515000Y-60960000D03*
D13*
X132430000Y-72840000D03*
X127930000Y-72840000D03*
X132430000Y-66340000D03*
X127930000Y-66340000D03*
X72430000Y-72840000D03*
X67930000Y-72840000D03*
X72430000Y-66340000D03*
X67930000Y-66340000D03*
D15*
X202819000Y-126492000D03*
X202819000Y-123952000D03*
D16*
X202819000Y-121412000D03*
D17*
X116990000Y-59590000D03*
X115720000Y-59590000D03*
X114450000Y-59590000D03*
D18*
X113180000Y-59590000D03*
D17*
X101990000Y-59590000D03*
X100720000Y-59590000D03*
X99450000Y-59590000D03*
D18*
X98180000Y-59590000D03*
D17*
X86990000Y-59590000D03*
X85720000Y-59590000D03*
X84450000Y-59590000D03*
D18*
X83180000Y-59590000D03*
D17*
X71990000Y-59590000D03*
X70720000Y-59590000D03*
X69450000Y-59590000D03*
D18*
X68180000Y-59590000D03*
D17*
X56990000Y-59590000D03*
X55720000Y-59590000D03*
X54450000Y-59590000D03*
D18*
X53180000Y-59590000D03*
D13*
X117430000Y-72840000D03*
X112930000Y-72840000D03*
X117430000Y-66340000D03*
X112930000Y-66340000D03*
X102430000Y-72840000D03*
X97930000Y-72840000D03*
X102430000Y-66340000D03*
X97930000Y-66340000D03*
X57430000Y-72840000D03*
X52930000Y-72840000D03*
X57430000Y-66340000D03*
X52930000Y-66340000D03*
D22*
X92884000Y-140335000D03*
D23*
X87884000Y-140335000D03*
D22*
X109521000Y-140335000D03*
D23*
X104521000Y-140335000D03*
D22*
X126158000Y-140335000D03*
D23*
X121158000Y-140335000D03*
D22*
X59610000Y-140335000D03*
D23*
X54610000Y-140335000D03*
D22*
X76247000Y-140335000D03*
D23*
X71247000Y-140335000D03*
D22*
X142795000Y-140335000D03*
D23*
X137795000Y-140335000D03*
D24*
X123825000Y-95885000D03*
X123825000Y-91440000D03*
X123825000Y-86995000D03*
X123825000Y-100330000D03*
D15*
X202819000Y-137668000D03*
X202819000Y-135128000D03*
D16*
X202819000Y-132588000D03*
D22*
X171243000Y-140335000D03*
D23*
X166243000Y-140335000D03*
D15*
X202819000Y-103124000D03*
X202819000Y-100584000D03*
X202819000Y-98044000D03*
X202819000Y-95504000D03*
X202819000Y-92964000D03*
D16*
X202819000Y-90424000D03*
D14*
X53460000Y-133350000D03*
X53460000Y-128350000D03*
X53460000Y-108350000D03*
X60960000Y-108350000D03*
X60960000Y-128350000D03*
X60960000Y-133350000D03*
X69970000Y-133350000D03*
X69970000Y-128350000D03*
X69970000Y-108350000D03*
X77470000Y-108350000D03*
X77470000Y-128350000D03*
X77470000Y-133350000D03*
X119754000Y-133350000D03*
X119754000Y-128350000D03*
X119754000Y-108350000D03*
X127254000Y-108350000D03*
X127254000Y-128350000D03*
X127254000Y-133350000D03*
D17*
X156990000Y-59590000D03*
X155720000Y-59590000D03*
X154450000Y-59590000D03*
D18*
X153180000Y-59590000D03*
D25*
X157580000Y-65590000D03*
X153180000Y-65590000D03*
D26*
X170180000Y-120255000D03*
X166780000Y-120255000D03*
X170180000Y-130175000D03*
X166780000Y-130175000D03*
D27*
X115062000Y-83820000D03*
X156591003Y-81025997D03*
X192659012Y-80010000D03*
X175006000Y-100203000D03*
X174117000Y-80010000D03*
X160020000Y-109220000D03*
X161290000Y-60325000D03*
X156083000Y-88011000D03*
X160575969Y-88104241D03*
X191770000Y-103124000D03*
X184150000Y-103124000D03*
X180975000Y-58278790D03*
X175006000Y-62865000D03*
X185913800Y-63500000D03*
X164352210Y-85090000D03*
X164338000Y-87629994D03*
X183515000Y-68453000D03*
X182245000Y-69342000D03*
X164352210Y-86360000D03*
X153035000Y-91440000D03*
X142240000Y-91440000D03*
X153035000Y-93345000D03*
X142240000Y-93345000D03*
D28*
X120650000Y-83820000D02*
X123825000Y-86995000D01*
X115062000Y-83820000D02*
X120650000Y-83820000D01*
X148209000Y-79629000D02*
X131191000Y-79629000D01*
X131191000Y-79629000D02*
X123825000Y-86995000D01*
X149860000Y-80264000D02*
X149860000Y-81788000D01*
X148209000Y-79629000D02*
X149225000Y-79629000D01*
X149225000Y-79629000D02*
X149860000Y-80264000D01*
X149860000Y-81788000D02*
X155829000Y-81788000D01*
X156091004Y-81525996D02*
X156591003Y-81025997D01*
X155829000Y-81788000D02*
X156091004Y-81525996D01*
X174989000Y-80027000D02*
X175006000Y-80010000D01*
X199644000Y-93599000D02*
X202819000Y-90424000D01*
X199644000Y-96901000D02*
X199644000Y-93599000D01*
X194691000Y-97663000D02*
X198882000Y-97663000D01*
X198882000Y-97663000D02*
X199644000Y-96901000D01*
X203962000Y-121412000D02*
X202819000Y-121412000D01*
X204851000Y-92456000D02*
X202819000Y-90424000D01*
X203962000Y-121412000D02*
X204851000Y-120523000D01*
X204851000Y-120523000D02*
X204851000Y-92456000D01*
X204470000Y-132588000D02*
X202819000Y-132588000D01*
X204851000Y-132207000D02*
X204470000Y-132588000D01*
X203962000Y-121412000D02*
X204851000Y-122301000D01*
X204851000Y-122301000D02*
X204851000Y-132207000D01*
X202819000Y-90424000D02*
X202819000Y-89421600D01*
X202819000Y-89421600D02*
X193407400Y-80010000D01*
X193407400Y-80010000D02*
X193366118Y-80010000D01*
X193366118Y-80010000D02*
X192659012Y-80010000D01*
X190627000Y-109220000D02*
X202819000Y-121412000D01*
X160020000Y-109220000D02*
X190627000Y-109220000D01*
X160020000Y-107315010D02*
X160020000Y-109220000D01*
X175006000Y-100203000D02*
X167132010Y-100203000D01*
X167132010Y-100203000D02*
X160020000Y-107315010D01*
X161290000Y-58801000D02*
X161290000Y-59055000D01*
X162678999Y-57412001D02*
X161290000Y-58801000D01*
X183142001Y-57412001D02*
X162678999Y-57412001D01*
X183515000Y-60960000D02*
X183515000Y-57785000D01*
X183515000Y-57785000D02*
X183142001Y-57412001D01*
X161290000Y-59055000D02*
X161290000Y-60325000D01*
X185420000Y-60960000D02*
X183515000Y-60960000D01*
X186690000Y-66675000D02*
X186690000Y-62230000D01*
X146939000Y-79629000D02*
X146304000Y-78994000D01*
X146304000Y-78994000D02*
X146304000Y-71247000D01*
X148209000Y-79629000D02*
X146939000Y-79629000D01*
X146304000Y-71247000D02*
X147066000Y-70485000D01*
X186690000Y-62230000D02*
X185420000Y-60960000D01*
X147066000Y-70485000D02*
X182880000Y-70485000D01*
X182880000Y-70485000D02*
X186690000Y-66675000D01*
X154450000Y-57720000D02*
X154450000Y-59055000D01*
X52930000Y-71090000D02*
X52930000Y-66340000D01*
X52930000Y-72840000D02*
X52930000Y-71090000D01*
X69450000Y-57170000D02*
X69450000Y-59590000D01*
X69430000Y-57150000D02*
X69450000Y-57170000D01*
X84450000Y-57170000D02*
X84450000Y-59590000D01*
X84430000Y-57150000D02*
X84450000Y-57170000D01*
X114450000Y-57170000D02*
X114450000Y-59590000D01*
X114430000Y-57150000D02*
X114450000Y-57170000D01*
X129450000Y-57210000D02*
X129450000Y-59590000D01*
X129430000Y-57190000D02*
X129450000Y-57210000D01*
X129450000Y-64820000D02*
X127930000Y-66340000D01*
X129450000Y-59590000D02*
X129450000Y-64820000D01*
X127930000Y-66340000D02*
X127930000Y-72840000D01*
X114450000Y-64820000D02*
X112930000Y-66340000D01*
X114450000Y-59590000D02*
X114450000Y-64820000D01*
X112930000Y-66340000D02*
X112930000Y-72840000D01*
X99450000Y-64820000D02*
X97930000Y-66340000D01*
X99450000Y-59590000D02*
X99450000Y-64820000D01*
X97930000Y-66340000D02*
X97930000Y-72840000D01*
X84450000Y-64820000D02*
X82930000Y-66340000D01*
X84450000Y-59590000D02*
X84450000Y-64820000D01*
X82930000Y-66340000D02*
X82930000Y-72840000D01*
X69450000Y-64820000D02*
X67930000Y-66340000D01*
X69450000Y-59590000D02*
X69450000Y-64820000D01*
X67930000Y-67754213D02*
X67930000Y-72840000D01*
X67930000Y-66340000D02*
X67930000Y-67754213D01*
X129430000Y-57190000D02*
X129430000Y-57090000D01*
X153980000Y-57090000D02*
X129430000Y-57090000D01*
X154450000Y-57720000D02*
X154450000Y-57560000D01*
X154450000Y-57560000D02*
X153980000Y-57090000D01*
X114430000Y-57090000D02*
X114430000Y-57150000D01*
X129430000Y-57090000D02*
X114430000Y-57090000D01*
X99430000Y-59590000D02*
X99450000Y-59590000D01*
X99430000Y-57150000D02*
X99430000Y-59590000D01*
X99430000Y-57090000D02*
X99430000Y-57150000D01*
X114430000Y-57090000D02*
X99430000Y-57090000D01*
X84430000Y-57150000D02*
X84430000Y-57090000D01*
X99370000Y-57090000D02*
X84430000Y-57090000D01*
X99430000Y-57150000D02*
X99370000Y-57090000D01*
X69370000Y-57090000D02*
X69430000Y-57150000D01*
X84430000Y-57090000D02*
X69370000Y-57090000D01*
X66180000Y-57090000D02*
X69370000Y-57090000D01*
X54680000Y-57090000D02*
X66180000Y-57090000D01*
X54430000Y-57340000D02*
X54680000Y-57090000D01*
X52930000Y-66340000D02*
X54430000Y-64840000D01*
X54430000Y-64840000D02*
X54430000Y-57340000D01*
X154450000Y-60642400D02*
X154450000Y-59590000D01*
X154450000Y-63367600D02*
X154450000Y-60642400D01*
X153180000Y-64637600D02*
X154450000Y-63367600D01*
X153180000Y-65590000D02*
X153180000Y-64637600D01*
X154450000Y-57620000D02*
X154450000Y-57720000D01*
X155047000Y-57023000D02*
X154450000Y-57620000D01*
X161290000Y-58801000D02*
X159512000Y-57023000D01*
X159512000Y-57023000D02*
X155047000Y-57023000D01*
X88900000Y-82931000D02*
X88773000Y-82804000D01*
X115062000Y-83820000D02*
X114173000Y-82931000D01*
X114173000Y-82931000D02*
X88900000Y-82931000D01*
X155720000Y-60642400D02*
X155720000Y-59590000D01*
X155720000Y-62777600D02*
X155720000Y-60642400D01*
X157580000Y-64637600D02*
X155720000Y-62777600D01*
X157580000Y-65590000D02*
X157580000Y-64637600D01*
X160482728Y-88011000D02*
X160575969Y-88104241D01*
X156083000Y-88011000D02*
X160482728Y-88011000D01*
X191770000Y-103124000D02*
X184150000Y-103124000D01*
X180975000Y-60960000D02*
X180975000Y-58278790D01*
X175641000Y-62230000D02*
X175006000Y-62865000D01*
X183515000Y-63500000D02*
X182245000Y-62230000D01*
X182245000Y-62230000D02*
X175641000Y-62230000D01*
X185913800Y-63500000D02*
X183515000Y-63500000D01*
X163463210Y-85979000D02*
X164352210Y-85090000D01*
X149225000Y-85979000D02*
X163463210Y-85979000D01*
X148590000Y-85344000D02*
X149225000Y-85979000D01*
X147320000Y-81788000D02*
X148590000Y-83058000D01*
X148590000Y-83058000D02*
X148590000Y-85344000D01*
X132430000Y-67754213D02*
X132430000Y-72840000D01*
X132430000Y-66340000D02*
X132430000Y-67754213D01*
X117430000Y-67754213D02*
X117430000Y-72840000D01*
X117430000Y-66340000D02*
X117430000Y-67754213D01*
X102430000Y-67754213D02*
X102430000Y-72840000D01*
X102430000Y-66340000D02*
X102430000Y-67754213D01*
X87430000Y-66340000D02*
X87430000Y-72840000D01*
X72430000Y-66340000D02*
X72430000Y-72840000D01*
X57430000Y-72840000D02*
X57430000Y-66340000D01*
X145643599Y-82651599D02*
X145542000Y-82550000D01*
X145542000Y-82550000D02*
X144780000Y-81788000D01*
X183515000Y-68453000D02*
X183515000Y-66040000D01*
X163434804Y-86726798D02*
X164338000Y-87629994D01*
X147061415Y-86726798D02*
X163434804Y-86726798D01*
X146050000Y-85715383D02*
X147061415Y-86726798D01*
X145542000Y-82550000D02*
X146050000Y-83058000D01*
X146050000Y-83058000D02*
X146050000Y-85715383D01*
X182245000Y-64770000D02*
X180975000Y-63500000D01*
X182245000Y-69342000D02*
X182245000Y-64770000D01*
X147320000Y-84328000D02*
X147320000Y-85549314D01*
X147320000Y-85549314D02*
X148130686Y-86360000D01*
X148130686Y-86360000D02*
X164352210Y-86360000D01*
D29*
X135890000Y-123190000D02*
X119634000Y-123190000D01*
X166116000Y-140462000D02*
X166243000Y-140335000D01*
X157480000Y-140335000D02*
X166243000Y-140335000D01*
X151257000Y-134112000D02*
X157480000Y-140335000D01*
X151257000Y-127000000D02*
X151257000Y-134112000D01*
X147447000Y-123190000D02*
X151257000Y-127000000D01*
X53460000Y-128350000D02*
X53460000Y-123190000D01*
X53460000Y-123190000D02*
X53340000Y-123190000D01*
X69970000Y-128350000D02*
X69970000Y-123190000D01*
X69850000Y-123190000D02*
X69970000Y-123190000D01*
X69970000Y-123190000D02*
X53340000Y-123190000D01*
X86480000Y-128350000D02*
X86480000Y-123190000D01*
X86360000Y-123190000D02*
X86480000Y-123190000D01*
X86480000Y-123190000D02*
X69850000Y-123190000D01*
X102990000Y-128350000D02*
X102990000Y-123190000D01*
X86360000Y-123190000D02*
X102990000Y-123190000D01*
X102990000Y-123190000D02*
X102362000Y-123190000D01*
X119754000Y-128350000D02*
X119754000Y-123190000D01*
X119634000Y-123190000D02*
X119754000Y-123190000D01*
X119754000Y-123190000D02*
X102362000Y-123190000D01*
X136525000Y-128350000D02*
X136525000Y-123190000D01*
X135890000Y-123190000D02*
X136525000Y-123190000D01*
X136525000Y-123190000D02*
X147447000Y-123190000D01*
X62373001Y-99584001D02*
X63373000Y-100584000D01*
X59436000Y-96647000D02*
X62373001Y-99584001D01*
X52733000Y-96647000D02*
X59436000Y-96647000D01*
X49805000Y-99575000D02*
X52733000Y-96647000D01*
X49403000Y-99822000D02*
X49530000Y-99695000D01*
X48133000Y-99822000D02*
X49403000Y-99822000D01*
X46355000Y-101600000D02*
X48133000Y-99822000D01*
X46355000Y-122301000D02*
X46355000Y-101600000D01*
X53460000Y-123190000D02*
X47244000Y-123190000D01*
X47244000Y-123190000D02*
X46355000Y-122301000D01*
D28*
X153035000Y-91440000D02*
X142240000Y-91440000D01*
X153035000Y-93345000D02*
X142240000Y-93345000D01*
D30*
G36*
X207445000Y-79989606D02*
X207445001Y-140990393D01*
X206322395Y-142113000D01*
X188012606Y-142113000D01*
X186817000Y-140917394D01*
X186817000Y-135128000D01*
X201304908Y-135128000D01*
X201420161Y-135707418D01*
X201748375Y-136198625D01*
X202046761Y-136398000D01*
X201748375Y-136597375D01*
X201420161Y-137088582D01*
X201304908Y-137668000D01*
X201420161Y-138247418D01*
X201748375Y-138738625D01*
X202239582Y-139066839D01*
X202672744Y-139153000D01*
X202965256Y-139153000D01*
X203398418Y-139066839D01*
X203889625Y-138738625D01*
X204217839Y-138247418D01*
X204333092Y-137668000D01*
X204217839Y-137088582D01*
X203889625Y-136597375D01*
X203591239Y-136398000D01*
X203889625Y-136198625D01*
X204217839Y-135707418D01*
X204333092Y-135128000D01*
X204217839Y-134548582D01*
X203889625Y-134057375D01*
X203867967Y-134042904D01*
X204028698Y-133976327D01*
X204207327Y-133797699D01*
X204304000Y-133564310D01*
X204304000Y-132873750D01*
X204145250Y-132715000D01*
X202946000Y-132715000D01*
X202946000Y-132735000D01*
X202692000Y-132735000D01*
X202692000Y-132715000D01*
X201492750Y-132715000D01*
X201334000Y-132873750D01*
X201334000Y-133564310D01*
X201430673Y-133797699D01*
X201609302Y-133976327D01*
X201770033Y-134042904D01*
X201748375Y-134057375D01*
X201420161Y-134548582D01*
X201304908Y-135128000D01*
X186817000Y-135128000D01*
X186817000Y-131611690D01*
X201334000Y-131611690D01*
X201334000Y-132302250D01*
X201492750Y-132461000D01*
X202692000Y-132461000D01*
X202692000Y-131261750D01*
X202946000Y-131261750D01*
X202946000Y-132461000D01*
X204145250Y-132461000D01*
X204304000Y-132302250D01*
X204304000Y-131611690D01*
X204207327Y-131378301D01*
X204028698Y-131199673D01*
X203795309Y-131103000D01*
X203104750Y-131103000D01*
X202946000Y-131261750D01*
X202692000Y-131261750D01*
X202533250Y-131103000D01*
X201842691Y-131103000D01*
X201609302Y-131199673D01*
X201430673Y-131378301D01*
X201334000Y-131611690D01*
X186817000Y-131611690D01*
X186817000Y-123952000D01*
X201304908Y-123952000D01*
X201420161Y-124531418D01*
X201748375Y-125022625D01*
X202046761Y-125222000D01*
X201748375Y-125421375D01*
X201420161Y-125912582D01*
X201304908Y-126492000D01*
X201420161Y-127071418D01*
X201748375Y-127562625D01*
X202239582Y-127890839D01*
X202672744Y-127977000D01*
X202965256Y-127977000D01*
X203398418Y-127890839D01*
X203889625Y-127562625D01*
X204217839Y-127071418D01*
X204333092Y-126492000D01*
X204217839Y-125912582D01*
X203889625Y-125421375D01*
X203591239Y-125222000D01*
X203889625Y-125022625D01*
X204217839Y-124531418D01*
X204333092Y-123952000D01*
X204217839Y-123372582D01*
X203889625Y-122881375D01*
X203867967Y-122866904D01*
X204028698Y-122800327D01*
X204207327Y-122621699D01*
X204304000Y-122388310D01*
X204304000Y-121697750D01*
X204145250Y-121539000D01*
X202946000Y-121539000D01*
X202946000Y-121559000D01*
X202692000Y-121559000D01*
X202692000Y-121539000D01*
X201492750Y-121539000D01*
X201334000Y-121697750D01*
X201334000Y-122388310D01*
X201430673Y-122621699D01*
X201609302Y-122800327D01*
X201770033Y-122866904D01*
X201748375Y-122881375D01*
X201420161Y-123372582D01*
X201304908Y-123952000D01*
X186817000Y-123952000D01*
X186817000Y-120435690D01*
X201334000Y-120435690D01*
X201334000Y-121126250D01*
X201492750Y-121285000D01*
X202692000Y-121285000D01*
X202692000Y-120085750D01*
X202946000Y-120085750D01*
X202946000Y-121285000D01*
X204145250Y-121285000D01*
X204304000Y-121126250D01*
X204304000Y-120435690D01*
X204207327Y-120202301D01*
X204028698Y-120023673D01*
X203795309Y-119927000D01*
X203104750Y-119927000D01*
X202946000Y-120085750D01*
X202692000Y-120085750D01*
X202533250Y-119927000D01*
X201842691Y-119927000D01*
X201609302Y-120023673D01*
X201430673Y-120202301D01*
X201334000Y-120435690D01*
X186817000Y-120435690D01*
X186817000Y-116840000D01*
X186807333Y-116791399D01*
X186779803Y-116750197D01*
X185509803Y-115480197D01*
X185468601Y-115452667D01*
X185420000Y-115443000D01*
X146774137Y-115443000D01*
X146742354Y-115283217D01*
X146579905Y-115040095D01*
X146336783Y-114877646D01*
X146122388Y-114835000D01*
X146050000Y-114820601D01*
X145977612Y-114835000D01*
X94694606Y-114835000D01*
X94107000Y-114247394D01*
X94107000Y-110235000D01*
X94354950Y-110235000D01*
X95047767Y-109948026D01*
X95578026Y-109417767D01*
X95865000Y-108724950D01*
X95865000Y-107975050D01*
X101105000Y-107975050D01*
X101105000Y-108724950D01*
X101391974Y-109417767D01*
X101922233Y-109948026D01*
X102615050Y-110235000D01*
X103364950Y-110235000D01*
X104057767Y-109948026D01*
X104588026Y-109417767D01*
X104875000Y-108724950D01*
X104875000Y-107975050D01*
X108605000Y-107975050D01*
X108605000Y-108724950D01*
X108891974Y-109417767D01*
X109422233Y-109948026D01*
X110115050Y-110235000D01*
X110864950Y-110235000D01*
X111557767Y-109948026D01*
X112088026Y-109417767D01*
X112375000Y-108724950D01*
X112375000Y-107975050D01*
X117869000Y-107975050D01*
X117869000Y-108724950D01*
X118155974Y-109417767D01*
X118686233Y-109948026D01*
X119379050Y-110235000D01*
X120128950Y-110235000D01*
X120821767Y-109948026D01*
X121352026Y-109417767D01*
X121639000Y-108724950D01*
X121639000Y-107975050D01*
X125369000Y-107975050D01*
X125369000Y-108724950D01*
X125655974Y-109417767D01*
X126186233Y-109948026D01*
X126879050Y-110235000D01*
X127628950Y-110235000D01*
X128321767Y-109948026D01*
X128852026Y-109417767D01*
X129139000Y-108724950D01*
X129139000Y-107975050D01*
X134640000Y-107975050D01*
X134640000Y-108724950D01*
X134926974Y-109417767D01*
X135457233Y-109948026D01*
X136150050Y-110235000D01*
X136899950Y-110235000D01*
X137592767Y-109948026D01*
X138123026Y-109417767D01*
X138410000Y-108724950D01*
X138410000Y-107975050D01*
X142140000Y-107975050D01*
X142140000Y-108724950D01*
X142426974Y-109417767D01*
X142957233Y-109948026D01*
X143650050Y-110235000D01*
X144399950Y-110235000D01*
X145092767Y-109948026D01*
X145623026Y-109417767D01*
X145910000Y-108724950D01*
X145910000Y-107975050D01*
X145623026Y-107282233D01*
X145092767Y-106751974D01*
X144399950Y-106465000D01*
X143650050Y-106465000D01*
X142957233Y-106751974D01*
X142426974Y-107282233D01*
X142140000Y-107975050D01*
X138410000Y-107975050D01*
X138123026Y-107282233D01*
X137592767Y-106751974D01*
X136899950Y-106465000D01*
X136150050Y-106465000D01*
X135457233Y-106751974D01*
X134926974Y-107282233D01*
X134640000Y-107975050D01*
X129139000Y-107975050D01*
X128852026Y-107282233D01*
X128321767Y-106751974D01*
X127628950Y-106465000D01*
X126879050Y-106465000D01*
X126186233Y-106751974D01*
X125655974Y-107282233D01*
X125369000Y-107975050D01*
X121639000Y-107975050D01*
X121352026Y-107282233D01*
X120821767Y-106751974D01*
X120128950Y-106465000D01*
X119379050Y-106465000D01*
X118686233Y-106751974D01*
X118155974Y-107282233D01*
X117869000Y-107975050D01*
X112375000Y-107975050D01*
X112088026Y-107282233D01*
X111557767Y-106751974D01*
X110864950Y-106465000D01*
X110115050Y-106465000D01*
X109422233Y-106751974D01*
X108891974Y-107282233D01*
X108605000Y-107975050D01*
X104875000Y-107975050D01*
X104588026Y-107282233D01*
X104057767Y-106751974D01*
X103364950Y-106465000D01*
X102615050Y-106465000D01*
X101922233Y-106751974D01*
X101391974Y-107282233D01*
X101105000Y-107975050D01*
X95865000Y-107975050D01*
X95578026Y-107282233D01*
X95047767Y-106751974D01*
X94354950Y-106465000D01*
X94107000Y-106465000D01*
X94107000Y-102898234D01*
X183015000Y-102898234D01*
X183015000Y-103349766D01*
X183187793Y-103766926D01*
X183507074Y-104086207D01*
X183924234Y-104259000D01*
X184375766Y-104259000D01*
X184792926Y-104086207D01*
X185043933Y-103835200D01*
X190876067Y-103835200D01*
X191127074Y-104086207D01*
X191544234Y-104259000D01*
X191995766Y-104259000D01*
X192412926Y-104086207D01*
X192732207Y-103766926D01*
X192905000Y-103349766D01*
X192905000Y-102898234D01*
X192732207Y-102481074D01*
X192412926Y-102161793D01*
X191995766Y-101989000D01*
X191544234Y-101989000D01*
X191127074Y-102161793D01*
X190876067Y-102412800D01*
X185043933Y-102412800D01*
X184792926Y-102161793D01*
X184375766Y-101989000D01*
X183924234Y-101989000D01*
X183507074Y-102161793D01*
X183187793Y-102481074D01*
X183015000Y-102898234D01*
X94107000Y-102898234D01*
X94107000Y-99925213D01*
X121790000Y-99925213D01*
X121790000Y-100734787D01*
X122099810Y-101482735D01*
X122672265Y-102055190D01*
X123420213Y-102365000D01*
X124229787Y-102365000D01*
X124977735Y-102055190D01*
X125550190Y-101482735D01*
X125860000Y-100734787D01*
X125860000Y-99925213D01*
X125550190Y-99177265D01*
X124977735Y-98604810D01*
X124229787Y-98295000D01*
X123420213Y-98295000D01*
X122672265Y-98604810D01*
X122099810Y-99177265D01*
X121790000Y-99925213D01*
X94107000Y-99925213D01*
X94107000Y-98019890D01*
X193249524Y-98019890D01*
X193419355Y-98429924D01*
X193809642Y-98858183D01*
X194334108Y-99104486D01*
X194564000Y-98983819D01*
X194564000Y-97790000D01*
X194818000Y-97790000D01*
X194818000Y-98983819D01*
X195047892Y-99104486D01*
X195572358Y-98858183D01*
X195962645Y-98429924D01*
X196132476Y-98019890D01*
X196011155Y-97790000D01*
X194818000Y-97790000D01*
X194564000Y-97790000D01*
X193370845Y-97790000D01*
X193249524Y-98019890D01*
X94107000Y-98019890D01*
X94107000Y-96520000D01*
X94097333Y-96471399D01*
X94069803Y-96430197D01*
X93119819Y-95480213D01*
X121790000Y-95480213D01*
X121790000Y-96289787D01*
X122099810Y-97037735D01*
X122672265Y-97610190D01*
X123420213Y-97920000D01*
X124229787Y-97920000D01*
X124977735Y-97610190D01*
X125550190Y-97037735D01*
X125860000Y-96289787D01*
X125860000Y-95480213D01*
X125550190Y-94732265D01*
X124977735Y-94159810D01*
X124229787Y-93850000D01*
X123420213Y-93850000D01*
X122672265Y-94159810D01*
X122099810Y-94732265D01*
X121790000Y-95480213D01*
X93119819Y-95480213D01*
X92799803Y-95160197D01*
X92758601Y-95132667D01*
X92710000Y-95123000D01*
X82602606Y-95123000D01*
X81407000Y-93927394D01*
X81407000Y-91035213D01*
X121790000Y-91035213D01*
X121790000Y-91844787D01*
X122099810Y-92592735D01*
X122672265Y-93165190D01*
X123420213Y-93475000D01*
X124229787Y-93475000D01*
X124977735Y-93165190D01*
X125550190Y-92592735D01*
X125860000Y-91844787D01*
X125860000Y-91214234D01*
X141105000Y-91214234D01*
X141105000Y-91665766D01*
X141277793Y-92082926D01*
X141587367Y-92392500D01*
X141277793Y-92702074D01*
X141105000Y-93119234D01*
X141105000Y-93570766D01*
X141277793Y-93987926D01*
X141597074Y-94307207D01*
X142014234Y-94480000D01*
X142465766Y-94480000D01*
X142882926Y-94307207D01*
X143133933Y-94056200D01*
X152141067Y-94056200D01*
X152392074Y-94307207D01*
X152809234Y-94480000D01*
X153260766Y-94480000D01*
X153677926Y-94307207D01*
X153712133Y-94273000D01*
X193193560Y-94273000D01*
X193193560Y-95973000D01*
X193242843Y-96220765D01*
X193383191Y-96430809D01*
X193593235Y-96571157D01*
X193696708Y-96591739D01*
X193419355Y-96896076D01*
X193249524Y-97306110D01*
X193370845Y-97536000D01*
X194564000Y-97536000D01*
X194564000Y-97516000D01*
X194818000Y-97516000D01*
X194818000Y-97536000D01*
X196011155Y-97536000D01*
X196132476Y-97306110D01*
X195962645Y-96896076D01*
X195685292Y-96591739D01*
X195788765Y-96571157D01*
X195998809Y-96430809D01*
X196139157Y-96220765D01*
X196188440Y-95973000D01*
X196188440Y-94273000D01*
X196139157Y-94025235D01*
X195998809Y-93815191D01*
X195788765Y-93674843D01*
X195541000Y-93625560D01*
X193841000Y-93625560D01*
X193593235Y-93674843D01*
X193383191Y-93815191D01*
X193242843Y-94025235D01*
X193193560Y-94273000D01*
X153712133Y-94273000D01*
X153997207Y-93987926D01*
X154170000Y-93570766D01*
X154170000Y-93119234D01*
X154105701Y-92964000D01*
X201304908Y-92964000D01*
X201420161Y-93543418D01*
X201748375Y-94034625D01*
X202046761Y-94234000D01*
X201748375Y-94433375D01*
X201420161Y-94924582D01*
X201304908Y-95504000D01*
X201420161Y-96083418D01*
X201748375Y-96574625D01*
X202046761Y-96774000D01*
X201748375Y-96973375D01*
X201420161Y-97464582D01*
X201304908Y-98044000D01*
X201420161Y-98623418D01*
X201748375Y-99114625D01*
X202046761Y-99314000D01*
X201748375Y-99513375D01*
X201420161Y-100004582D01*
X201304908Y-100584000D01*
X201420161Y-101163418D01*
X201748375Y-101654625D01*
X202046761Y-101854000D01*
X201748375Y-102053375D01*
X201420161Y-102544582D01*
X201304908Y-103124000D01*
X201420161Y-103703418D01*
X201748375Y-104194625D01*
X202239582Y-104522839D01*
X202672744Y-104609000D01*
X202965256Y-104609000D01*
X203398418Y-104522839D01*
X203889625Y-104194625D01*
X204217839Y-103703418D01*
X204333092Y-103124000D01*
X204217839Y-102544582D01*
X203889625Y-102053375D01*
X203591239Y-101854000D01*
X203889625Y-101654625D01*
X204217839Y-101163418D01*
X204333092Y-100584000D01*
X204217839Y-100004582D01*
X203889625Y-99513375D01*
X203591239Y-99314000D01*
X203889625Y-99114625D01*
X204217839Y-98623418D01*
X204333092Y-98044000D01*
X204217839Y-97464582D01*
X203889625Y-96973375D01*
X203591239Y-96774000D01*
X203889625Y-96574625D01*
X204217839Y-96083418D01*
X204333092Y-95504000D01*
X204217839Y-94924582D01*
X203889625Y-94433375D01*
X203591239Y-94234000D01*
X203889625Y-94034625D01*
X204217839Y-93543418D01*
X204333092Y-92964000D01*
X204217839Y-92384582D01*
X203889625Y-91893375D01*
X203867967Y-91878904D01*
X204028698Y-91812327D01*
X204207327Y-91633699D01*
X204304000Y-91400310D01*
X204304000Y-90709750D01*
X204145250Y-90551000D01*
X202946000Y-90551000D01*
X202946000Y-90571000D01*
X202692000Y-90571000D01*
X202692000Y-90551000D01*
X201492750Y-90551000D01*
X201334000Y-90709750D01*
X201334000Y-91400310D01*
X201430673Y-91633699D01*
X201609302Y-91812327D01*
X201770033Y-91878904D01*
X201748375Y-91893375D01*
X201420161Y-92384582D01*
X201304908Y-92964000D01*
X154105701Y-92964000D01*
X153997207Y-92702074D01*
X153687633Y-92392500D01*
X153997207Y-92082926D01*
X154170000Y-91665766D01*
X154170000Y-91214234D01*
X153997207Y-90797074D01*
X153677926Y-90477793D01*
X153260766Y-90305000D01*
X152809234Y-90305000D01*
X152392074Y-90477793D01*
X152141067Y-90728800D01*
X143133933Y-90728800D01*
X142882926Y-90477793D01*
X142465766Y-90305000D01*
X142014234Y-90305000D01*
X141597074Y-90477793D01*
X141277793Y-90797074D01*
X141105000Y-91214234D01*
X125860000Y-91214234D01*
X125860000Y-91035213D01*
X125550190Y-90287265D01*
X124977735Y-89714810D01*
X124332850Y-89447690D01*
X201334000Y-89447690D01*
X201334000Y-90138250D01*
X201492750Y-90297000D01*
X202692000Y-90297000D01*
X202692000Y-89097750D01*
X202946000Y-89097750D01*
X202946000Y-90297000D01*
X204145250Y-90297000D01*
X204304000Y-90138250D01*
X204304000Y-89447690D01*
X204207327Y-89214301D01*
X204028698Y-89035673D01*
X203795309Y-88939000D01*
X203104750Y-88939000D01*
X202946000Y-89097750D01*
X202692000Y-89097750D01*
X202533250Y-88939000D01*
X201842691Y-88939000D01*
X201609302Y-89035673D01*
X201430673Y-89214301D01*
X201334000Y-89447690D01*
X124332850Y-89447690D01*
X124229787Y-89405000D01*
X123420213Y-89405000D01*
X122672265Y-89714810D01*
X122099810Y-90287265D01*
X121790000Y-91035213D01*
X81407000Y-91035213D01*
X81407000Y-88436724D01*
X122562882Y-88436724D01*
X122710455Y-88745106D01*
X123465031Y-89038405D01*
X124274409Y-89020614D01*
X124939545Y-88745106D01*
X125087118Y-88436724D01*
X123825000Y-87174605D01*
X122562882Y-88436724D01*
X81407000Y-88436724D01*
X81407000Y-86635031D01*
X121781595Y-86635031D01*
X121799386Y-87444409D01*
X122074894Y-88109545D01*
X122383276Y-88257118D01*
X123645395Y-86995000D01*
X124004605Y-86995000D01*
X125266724Y-88257118D01*
X125575106Y-88109545D01*
X125868405Y-87354969D01*
X125850614Y-86545591D01*
X125575106Y-85880455D01*
X125266724Y-85732882D01*
X124004605Y-86995000D01*
X123645395Y-86995000D01*
X122383276Y-85732882D01*
X122074894Y-85880455D01*
X121781595Y-86635031D01*
X81407000Y-86635031D01*
X81407000Y-85553276D01*
X122562882Y-85553276D01*
X123825000Y-86815395D01*
X125087118Y-85553276D01*
X124939545Y-85244894D01*
X124184969Y-84951595D01*
X123375591Y-84969386D01*
X122710455Y-85244894D01*
X122562882Y-85553276D01*
X81407000Y-85553276D01*
X81407000Y-82478778D01*
X82058000Y-82478778D01*
X82058000Y-83129222D01*
X82306914Y-83730153D01*
X82766847Y-84190086D01*
X83367778Y-84439000D01*
X84018222Y-84439000D01*
X84619153Y-84190086D01*
X84852707Y-83956532D01*
X87800073Y-83956532D01*
X87898736Y-84223387D01*
X88508461Y-84449908D01*
X89158460Y-84425856D01*
X89647264Y-84223387D01*
X89745927Y-83956532D01*
X88773000Y-82983605D01*
X87800073Y-83956532D01*
X84852707Y-83956532D01*
X85079086Y-83730153D01*
X85328000Y-83129222D01*
X85328000Y-82539461D01*
X87127092Y-82539461D01*
X87151144Y-83189460D01*
X87353613Y-83678264D01*
X87620468Y-83776927D01*
X88593395Y-82804000D01*
X88952605Y-82804000D01*
X89925532Y-83776927D01*
X90192387Y-83678264D01*
X90418908Y-83068539D01*
X90394856Y-82418540D01*
X90192387Y-81929736D01*
X89925532Y-81831073D01*
X88952605Y-82804000D01*
X88593395Y-82804000D01*
X87620468Y-81831073D01*
X87353613Y-81929736D01*
X87127092Y-82539461D01*
X85328000Y-82539461D01*
X85328000Y-82478778D01*
X85079086Y-81877847D01*
X84852707Y-81651468D01*
X87800073Y-81651468D01*
X88773000Y-82624395D01*
X89609395Y-81788000D01*
X143252041Y-81788000D01*
X143368350Y-82372725D01*
X143699570Y-82868430D01*
X143983281Y-83058000D01*
X143699570Y-83247570D01*
X143368350Y-83743275D01*
X143252041Y-84328000D01*
X143368350Y-84912725D01*
X143699570Y-85408430D01*
X144195275Y-85739650D01*
X144632402Y-85826600D01*
X144927598Y-85826600D01*
X145331028Y-85746353D01*
X145380065Y-85992879D01*
X145497576Y-86168747D01*
X145497579Y-86168750D01*
X145537255Y-86228129D01*
X145596634Y-86267805D01*
X146508993Y-87180165D01*
X146548669Y-87239544D01*
X146608048Y-87279220D01*
X146608050Y-87279222D01*
X146672382Y-87322207D01*
X146783919Y-87396734D01*
X146991369Y-87437998D01*
X146991373Y-87437998D01*
X147061415Y-87451930D01*
X147131457Y-87437998D01*
X155091830Y-87437998D01*
X154948000Y-87785234D01*
X154948000Y-88236766D01*
X155120793Y-88653926D01*
X155440074Y-88973207D01*
X155857234Y-89146000D01*
X156308766Y-89146000D01*
X156725926Y-88973207D01*
X156976933Y-88722200D01*
X159603420Y-88722200D01*
X159613762Y-88747167D01*
X159933043Y-89066448D01*
X160350203Y-89239241D01*
X160801735Y-89239241D01*
X161218895Y-89066448D01*
X161538176Y-88747167D01*
X161710969Y-88330007D01*
X161710969Y-87878475D01*
X161538176Y-87461315D01*
X161514859Y-87437998D01*
X163140216Y-87437998D01*
X163203000Y-87500782D01*
X163203000Y-87855760D01*
X163375793Y-88272920D01*
X163695074Y-88592201D01*
X164112234Y-88764994D01*
X164563766Y-88764994D01*
X164980926Y-88592201D01*
X165300207Y-88272920D01*
X165473000Y-87855760D01*
X165473000Y-87404228D01*
X165309014Y-87008329D01*
X165314417Y-87002926D01*
X165487210Y-86585766D01*
X165487210Y-86134234D01*
X165317700Y-85725000D01*
X165487210Y-85315766D01*
X165487210Y-84864234D01*
X165314417Y-84447074D01*
X164995136Y-84127793D01*
X164577976Y-83955000D01*
X164126444Y-83955000D01*
X163709284Y-84127793D01*
X163390003Y-84447074D01*
X163217210Y-84864234D01*
X163217210Y-85219212D01*
X163168622Y-85267800D01*
X151034396Y-85267800D01*
X151271650Y-84912725D01*
X151387959Y-84328000D01*
X151271650Y-83743275D01*
X150941234Y-83248773D01*
X151083299Y-83189927D01*
X151261927Y-83011298D01*
X151358600Y-82777909D01*
X151358600Y-82073750D01*
X151320879Y-82036029D01*
X200415000Y-82036029D01*
X200415000Y-83143971D01*
X200838991Y-84167576D01*
X201622424Y-84951009D01*
X202646029Y-85375000D01*
X203753971Y-85375000D01*
X204777576Y-84951009D01*
X205561009Y-84167576D01*
X205985000Y-83143971D01*
X205985000Y-82036029D01*
X205561009Y-81012424D01*
X204777576Y-80228991D01*
X203753971Y-79805000D01*
X202646029Y-79805000D01*
X201622424Y-80228991D01*
X200838991Y-81012424D01*
X200415000Y-82036029D01*
X151320879Y-82036029D01*
X151199850Y-81915000D01*
X149987000Y-81915000D01*
X149987000Y-81935000D01*
X149733000Y-81935000D01*
X149733000Y-81915000D01*
X149713000Y-81915000D01*
X149713000Y-81661000D01*
X149733000Y-81661000D01*
X149733000Y-80448150D01*
X149987000Y-80448150D01*
X149987000Y-81661000D01*
X151199850Y-81661000D01*
X151358600Y-81502250D01*
X151358600Y-80798091D01*
X151261927Y-80564702D01*
X151083299Y-80386073D01*
X150849910Y-80289400D01*
X150145750Y-80289400D01*
X149987000Y-80448150D01*
X149733000Y-80448150D01*
X149574250Y-80289400D01*
X148870090Y-80289400D01*
X148636701Y-80386073D01*
X148458073Y-80564702D01*
X148399228Y-80706767D01*
X147904725Y-80376350D01*
X147467598Y-80289400D01*
X147172402Y-80289400D01*
X146735275Y-80376350D01*
X146239570Y-80707570D01*
X146050000Y-80991281D01*
X145860430Y-80707570D01*
X145364725Y-80376350D01*
X144927598Y-80289400D01*
X144632402Y-80289400D01*
X144195275Y-80376350D01*
X143699570Y-80707570D01*
X143368350Y-81203275D01*
X143252041Y-81788000D01*
X89609395Y-81788000D01*
X89745927Y-81651468D01*
X89647264Y-81384613D01*
X89037539Y-81158092D01*
X88387540Y-81182144D01*
X87898736Y-81384613D01*
X87800073Y-81651468D01*
X84852707Y-81651468D01*
X84619153Y-81417914D01*
X84018222Y-81169000D01*
X83367778Y-81169000D01*
X82766847Y-81417914D01*
X82306914Y-81877847D01*
X82058000Y-82478778D01*
X81407000Y-82478778D01*
X81407000Y-80062606D01*
X82602606Y-78867000D01*
X206322394Y-78867000D01*
X207445000Y-79989606D01*
X207445000Y-79989606D01*
G37*
X207445000Y-79989606D02*
X207445001Y-140990393D01*
X206322395Y-142113000D01*
X188012606Y-142113000D01*
X186817000Y-140917394D01*
X186817000Y-135128000D01*
X201304908Y-135128000D01*
X201420161Y-135707418D01*
X201748375Y-136198625D01*
X202046761Y-136398000D01*
X201748375Y-136597375D01*
X201420161Y-137088582D01*
X201304908Y-137668000D01*
X201420161Y-138247418D01*
X201748375Y-138738625D01*
X202239582Y-139066839D01*
X202672744Y-139153000D01*
X202965256Y-139153000D01*
X203398418Y-139066839D01*
X203889625Y-138738625D01*
X204217839Y-138247418D01*
X204333092Y-137668000D01*
X204217839Y-137088582D01*
X203889625Y-136597375D01*
X203591239Y-136398000D01*
X203889625Y-136198625D01*
X204217839Y-135707418D01*
X204333092Y-135128000D01*
X204217839Y-134548582D01*
X203889625Y-134057375D01*
X203867967Y-134042904D01*
X204028698Y-133976327D01*
X204207327Y-133797699D01*
X204304000Y-133564310D01*
X204304000Y-132873750D01*
X204145250Y-132715000D01*
X202946000Y-132715000D01*
X202946000Y-132735000D01*
X202692000Y-132735000D01*
X202692000Y-132715000D01*
X201492750Y-132715000D01*
X201334000Y-132873750D01*
X201334000Y-133564310D01*
X201430673Y-133797699D01*
X201609302Y-133976327D01*
X201770033Y-134042904D01*
X201748375Y-134057375D01*
X201420161Y-134548582D01*
X201304908Y-135128000D01*
X186817000Y-135128000D01*
X186817000Y-131611690D01*
X201334000Y-131611690D01*
X201334000Y-132302250D01*
X201492750Y-132461000D01*
X202692000Y-132461000D01*
X202692000Y-131261750D01*
X202946000Y-131261750D01*
X202946000Y-132461000D01*
X204145250Y-132461000D01*
X204304000Y-132302250D01*
X204304000Y-131611690D01*
X204207327Y-131378301D01*
X204028698Y-131199673D01*
X203795309Y-131103000D01*
X203104750Y-131103000D01*
X202946000Y-131261750D01*
X202692000Y-131261750D01*
X202533250Y-131103000D01*
X201842691Y-131103000D01*
X201609302Y-131199673D01*
X201430673Y-131378301D01*
X201334000Y-131611690D01*
X186817000Y-131611690D01*
X186817000Y-123952000D01*
X201304908Y-123952000D01*
X201420161Y-124531418D01*
X201748375Y-125022625D01*
X202046761Y-125222000D01*
X201748375Y-125421375D01*
X201420161Y-125912582D01*
X201304908Y-126492000D01*
X201420161Y-127071418D01*
X201748375Y-127562625D01*
X202239582Y-127890839D01*
X202672744Y-127977000D01*
X202965256Y-127977000D01*
X203398418Y-127890839D01*
X203889625Y-127562625D01*
X204217839Y-127071418D01*
X204333092Y-126492000D01*
X204217839Y-125912582D01*
X203889625Y-125421375D01*
X203591239Y-125222000D01*
X203889625Y-125022625D01*
X204217839Y-124531418D01*
X204333092Y-123952000D01*
X204217839Y-123372582D01*
X203889625Y-122881375D01*
X203867967Y-122866904D01*
X204028698Y-122800327D01*
X204207327Y-122621699D01*
X204304000Y-122388310D01*
X204304000Y-121697750D01*
X204145250Y-121539000D01*
X202946000Y-121539000D01*
X202946000Y-121559000D01*
X202692000Y-121559000D01*
X202692000Y-121539000D01*
X201492750Y-121539000D01*
X201334000Y-121697750D01*
X201334000Y-122388310D01*
X201430673Y-122621699D01*
X201609302Y-122800327D01*
X201770033Y-122866904D01*
X201748375Y-122881375D01*
X201420161Y-123372582D01*
X201304908Y-123952000D01*
X186817000Y-123952000D01*
X186817000Y-120435690D01*
X201334000Y-120435690D01*
X201334000Y-121126250D01*
X201492750Y-121285000D01*
X202692000Y-121285000D01*
X202692000Y-120085750D01*
X202946000Y-120085750D01*
X202946000Y-121285000D01*
X204145250Y-121285000D01*
X204304000Y-121126250D01*
X204304000Y-120435690D01*
X204207327Y-120202301D01*
X204028698Y-120023673D01*
X203795309Y-119927000D01*
X203104750Y-119927000D01*
X202946000Y-120085750D01*
X202692000Y-120085750D01*
X202533250Y-119927000D01*
X201842691Y-119927000D01*
X201609302Y-120023673D01*
X201430673Y-120202301D01*
X201334000Y-120435690D01*
X186817000Y-120435690D01*
X186817000Y-116840000D01*
X186807333Y-116791399D01*
X186779803Y-116750197D01*
X185509803Y-115480197D01*
X185468601Y-115452667D01*
X185420000Y-115443000D01*
X146774137Y-115443000D01*
X146742354Y-115283217D01*
X146579905Y-115040095D01*
X146336783Y-114877646D01*
X146122388Y-114835000D01*
X146050000Y-114820601D01*
X145977612Y-114835000D01*
X94694606Y-114835000D01*
X94107000Y-114247394D01*
X94107000Y-110235000D01*
X94354950Y-110235000D01*
X95047767Y-109948026D01*
X95578026Y-109417767D01*
X95865000Y-108724950D01*
X95865000Y-107975050D01*
X101105000Y-107975050D01*
X101105000Y-108724950D01*
X101391974Y-109417767D01*
X101922233Y-109948026D01*
X102615050Y-110235000D01*
X103364950Y-110235000D01*
X104057767Y-109948026D01*
X104588026Y-109417767D01*
X104875000Y-108724950D01*
X104875000Y-107975050D01*
X108605000Y-107975050D01*
X108605000Y-108724950D01*
X108891974Y-109417767D01*
X109422233Y-109948026D01*
X110115050Y-110235000D01*
X110864950Y-110235000D01*
X111557767Y-109948026D01*
X112088026Y-109417767D01*
X112375000Y-108724950D01*
X112375000Y-107975050D01*
X117869000Y-107975050D01*
X117869000Y-108724950D01*
X118155974Y-109417767D01*
X118686233Y-109948026D01*
X119379050Y-110235000D01*
X120128950Y-110235000D01*
X120821767Y-109948026D01*
X121352026Y-109417767D01*
X121639000Y-108724950D01*
X121639000Y-107975050D01*
X125369000Y-107975050D01*
X125369000Y-108724950D01*
X125655974Y-109417767D01*
X126186233Y-109948026D01*
X126879050Y-110235000D01*
X127628950Y-110235000D01*
X128321767Y-109948026D01*
X128852026Y-109417767D01*
X129139000Y-108724950D01*
X129139000Y-107975050D01*
X134640000Y-107975050D01*
X134640000Y-108724950D01*
X134926974Y-109417767D01*
X135457233Y-109948026D01*
X136150050Y-110235000D01*
X136899950Y-110235000D01*
X137592767Y-109948026D01*
X138123026Y-109417767D01*
X138410000Y-108724950D01*
X138410000Y-107975050D01*
X142140000Y-107975050D01*
X142140000Y-108724950D01*
X142426974Y-109417767D01*
X142957233Y-109948026D01*
X143650050Y-110235000D01*
X144399950Y-110235000D01*
X145092767Y-109948026D01*
X145623026Y-109417767D01*
X145910000Y-108724950D01*
X145910000Y-107975050D01*
X145623026Y-107282233D01*
X145092767Y-106751974D01*
X144399950Y-106465000D01*
X143650050Y-106465000D01*
X142957233Y-106751974D01*
X142426974Y-107282233D01*
X142140000Y-107975050D01*
X138410000Y-107975050D01*
X138123026Y-107282233D01*
X137592767Y-106751974D01*
X136899950Y-106465000D01*
X136150050Y-106465000D01*
X135457233Y-106751974D01*
X134926974Y-107282233D01*
X134640000Y-107975050D01*
X129139000Y-107975050D01*
X128852026Y-107282233D01*
X128321767Y-106751974D01*
X127628950Y-106465000D01*
X126879050Y-106465000D01*
X126186233Y-106751974D01*
X125655974Y-107282233D01*
X125369000Y-107975050D01*
X121639000Y-107975050D01*
X121352026Y-107282233D01*
X120821767Y-106751974D01*
X120128950Y-106465000D01*
X119379050Y-106465000D01*
X118686233Y-106751974D01*
X118155974Y-107282233D01*
X117869000Y-107975050D01*
X112375000Y-107975050D01*
X112088026Y-107282233D01*
X111557767Y-106751974D01*
X110864950Y-106465000D01*
X110115050Y-106465000D01*
X109422233Y-106751974D01*
X108891974Y-107282233D01*
X108605000Y-107975050D01*
X104875000Y-107975050D01*
X104588026Y-107282233D01*
X104057767Y-106751974D01*
X103364950Y-106465000D01*
X102615050Y-106465000D01*
X101922233Y-106751974D01*
X101391974Y-107282233D01*
X101105000Y-107975050D01*
X95865000Y-107975050D01*
X95578026Y-107282233D01*
X95047767Y-106751974D01*
X94354950Y-106465000D01*
X94107000Y-106465000D01*
X94107000Y-102898234D01*
X183015000Y-102898234D01*
X183015000Y-103349766D01*
X183187793Y-103766926D01*
X183507074Y-104086207D01*
X183924234Y-104259000D01*
X184375766Y-104259000D01*
X184792926Y-104086207D01*
X185043933Y-103835200D01*
X190876067Y-103835200D01*
X191127074Y-104086207D01*
X191544234Y-104259000D01*
X191995766Y-104259000D01*
X192412926Y-104086207D01*
X192732207Y-103766926D01*
X192905000Y-103349766D01*
X192905000Y-102898234D01*
X192732207Y-102481074D01*
X192412926Y-102161793D01*
X191995766Y-101989000D01*
X191544234Y-101989000D01*
X191127074Y-102161793D01*
X190876067Y-102412800D01*
X185043933Y-102412800D01*
X184792926Y-102161793D01*
X184375766Y-101989000D01*
X183924234Y-101989000D01*
X183507074Y-102161793D01*
X183187793Y-102481074D01*
X183015000Y-102898234D01*
X94107000Y-102898234D01*
X94107000Y-99925213D01*
X121790000Y-99925213D01*
X121790000Y-100734787D01*
X122099810Y-101482735D01*
X122672265Y-102055190D01*
X123420213Y-102365000D01*
X124229787Y-102365000D01*
X124977735Y-102055190D01*
X125550190Y-101482735D01*
X125860000Y-100734787D01*
X125860000Y-99925213D01*
X125550190Y-99177265D01*
X124977735Y-98604810D01*
X124229787Y-98295000D01*
X123420213Y-98295000D01*
X122672265Y-98604810D01*
X122099810Y-99177265D01*
X121790000Y-99925213D01*
X94107000Y-99925213D01*
X94107000Y-98019890D01*
X193249524Y-98019890D01*
X193419355Y-98429924D01*
X193809642Y-98858183D01*
X194334108Y-99104486D01*
X194564000Y-98983819D01*
X194564000Y-97790000D01*
X194818000Y-97790000D01*
X194818000Y-98983819D01*
X195047892Y-99104486D01*
X195572358Y-98858183D01*
X195962645Y-98429924D01*
X196132476Y-98019890D01*
X196011155Y-97790000D01*
X194818000Y-97790000D01*
X194564000Y-97790000D01*
X193370845Y-97790000D01*
X193249524Y-98019890D01*
X94107000Y-98019890D01*
X94107000Y-96520000D01*
X94097333Y-96471399D01*
X94069803Y-96430197D01*
X93119819Y-95480213D01*
X121790000Y-95480213D01*
X121790000Y-96289787D01*
X122099810Y-97037735D01*
X122672265Y-97610190D01*
X123420213Y-97920000D01*
X124229787Y-97920000D01*
X124977735Y-97610190D01*
X125550190Y-97037735D01*
X125860000Y-96289787D01*
X125860000Y-95480213D01*
X125550190Y-94732265D01*
X124977735Y-94159810D01*
X124229787Y-93850000D01*
X123420213Y-93850000D01*
X122672265Y-94159810D01*
X122099810Y-94732265D01*
X121790000Y-95480213D01*
X93119819Y-95480213D01*
X92799803Y-95160197D01*
X92758601Y-95132667D01*
X92710000Y-95123000D01*
X82602606Y-95123000D01*
X81407000Y-93927394D01*
X81407000Y-91035213D01*
X121790000Y-91035213D01*
X121790000Y-91844787D01*
X122099810Y-92592735D01*
X122672265Y-93165190D01*
X123420213Y-93475000D01*
X124229787Y-93475000D01*
X124977735Y-93165190D01*
X125550190Y-92592735D01*
X125860000Y-91844787D01*
X125860000Y-91214234D01*
X141105000Y-91214234D01*
X141105000Y-91665766D01*
X141277793Y-92082926D01*
X141587367Y-92392500D01*
X141277793Y-92702074D01*
X141105000Y-93119234D01*
X141105000Y-93570766D01*
X141277793Y-93987926D01*
X141597074Y-94307207D01*
X142014234Y-94480000D01*
X142465766Y-94480000D01*
X142882926Y-94307207D01*
X143133933Y-94056200D01*
X152141067Y-94056200D01*
X152392074Y-94307207D01*
X152809234Y-94480000D01*
X153260766Y-94480000D01*
X153677926Y-94307207D01*
X153712133Y-94273000D01*
X193193560Y-94273000D01*
X193193560Y-95973000D01*
X193242843Y-96220765D01*
X193383191Y-96430809D01*
X193593235Y-96571157D01*
X193696708Y-96591739D01*
X193419355Y-96896076D01*
X193249524Y-97306110D01*
X193370845Y-97536000D01*
X194564000Y-97536000D01*
X194564000Y-97516000D01*
X194818000Y-97516000D01*
X194818000Y-97536000D01*
X196011155Y-97536000D01*
X196132476Y-97306110D01*
X195962645Y-96896076D01*
X195685292Y-96591739D01*
X195788765Y-96571157D01*
X195998809Y-96430809D01*
X196139157Y-96220765D01*
X196188440Y-95973000D01*
X196188440Y-94273000D01*
X196139157Y-94025235D01*
X195998809Y-93815191D01*
X195788765Y-93674843D01*
X195541000Y-93625560D01*
X193841000Y-93625560D01*
X193593235Y-93674843D01*
X193383191Y-93815191D01*
X193242843Y-94025235D01*
X193193560Y-94273000D01*
X153712133Y-94273000D01*
X153997207Y-93987926D01*
X154170000Y-93570766D01*
X154170000Y-93119234D01*
X154105701Y-92964000D01*
X201304908Y-92964000D01*
X201420161Y-93543418D01*
X201748375Y-94034625D01*
X202046761Y-94234000D01*
X201748375Y-94433375D01*
X201420161Y-94924582D01*
X201304908Y-95504000D01*
X201420161Y-96083418D01*
X201748375Y-96574625D01*
X202046761Y-96774000D01*
X201748375Y-96973375D01*
X201420161Y-97464582D01*
X201304908Y-98044000D01*
X201420161Y-98623418D01*
X201748375Y-99114625D01*
X202046761Y-99314000D01*
X201748375Y-99513375D01*
X201420161Y-100004582D01*
X201304908Y-100584000D01*
X201420161Y-101163418D01*
X201748375Y-101654625D01*
X202046761Y-101854000D01*
X201748375Y-102053375D01*
X201420161Y-102544582D01*
X201304908Y-103124000D01*
X201420161Y-103703418D01*
X201748375Y-104194625D01*
X202239582Y-104522839D01*
X202672744Y-104609000D01*
X202965256Y-104609000D01*
X203398418Y-104522839D01*
X203889625Y-104194625D01*
X204217839Y-103703418D01*
X204333092Y-103124000D01*
X204217839Y-102544582D01*
X203889625Y-102053375D01*
X203591239Y-101854000D01*
X203889625Y-101654625D01*
X204217839Y-101163418D01*
X204333092Y-100584000D01*
X204217839Y-100004582D01*
X203889625Y-99513375D01*
X203591239Y-99314000D01*
X203889625Y-99114625D01*
X204217839Y-98623418D01*
X204333092Y-98044000D01*
X204217839Y-97464582D01*
X203889625Y-96973375D01*
X203591239Y-96774000D01*
X203889625Y-96574625D01*
X204217839Y-96083418D01*
X204333092Y-95504000D01*
X204217839Y-94924582D01*
X203889625Y-94433375D01*
X203591239Y-94234000D01*
X203889625Y-94034625D01*
X204217839Y-93543418D01*
X204333092Y-92964000D01*
X204217839Y-92384582D01*
X203889625Y-91893375D01*
X203867967Y-91878904D01*
X204028698Y-91812327D01*
X204207327Y-91633699D01*
X204304000Y-91400310D01*
X204304000Y-90709750D01*
X204145250Y-90551000D01*
X202946000Y-90551000D01*
X202946000Y-90571000D01*
X202692000Y-90571000D01*
X202692000Y-90551000D01*
X201492750Y-90551000D01*
X201334000Y-90709750D01*
X201334000Y-91400310D01*
X201430673Y-91633699D01*
X201609302Y-91812327D01*
X201770033Y-91878904D01*
X201748375Y-91893375D01*
X201420161Y-92384582D01*
X201304908Y-92964000D01*
X154105701Y-92964000D01*
X153997207Y-92702074D01*
X153687633Y-92392500D01*
X153997207Y-92082926D01*
X154170000Y-91665766D01*
X154170000Y-91214234D01*
X153997207Y-90797074D01*
X153677926Y-90477793D01*
X153260766Y-90305000D01*
X152809234Y-90305000D01*
X152392074Y-90477793D01*
X152141067Y-90728800D01*
X143133933Y-90728800D01*
X142882926Y-90477793D01*
X142465766Y-90305000D01*
X142014234Y-90305000D01*
X141597074Y-90477793D01*
X141277793Y-90797074D01*
X141105000Y-91214234D01*
X125860000Y-91214234D01*
X125860000Y-91035213D01*
X125550190Y-90287265D01*
X124977735Y-89714810D01*
X124332850Y-89447690D01*
X201334000Y-89447690D01*
X201334000Y-90138250D01*
X201492750Y-90297000D01*
X202692000Y-90297000D01*
X202692000Y-89097750D01*
X202946000Y-89097750D01*
X202946000Y-90297000D01*
X204145250Y-90297000D01*
X204304000Y-90138250D01*
X204304000Y-89447690D01*
X204207327Y-89214301D01*
X204028698Y-89035673D01*
X203795309Y-88939000D01*
X203104750Y-88939000D01*
X202946000Y-89097750D01*
X202692000Y-89097750D01*
X202533250Y-88939000D01*
X201842691Y-88939000D01*
X201609302Y-89035673D01*
X201430673Y-89214301D01*
X201334000Y-89447690D01*
X124332850Y-89447690D01*
X124229787Y-89405000D01*
X123420213Y-89405000D01*
X122672265Y-89714810D01*
X122099810Y-90287265D01*
X121790000Y-91035213D01*
X81407000Y-91035213D01*
X81407000Y-88436724D01*
X122562882Y-88436724D01*
X122710455Y-88745106D01*
X123465031Y-89038405D01*
X124274409Y-89020614D01*
X124939545Y-88745106D01*
X125087118Y-88436724D01*
X123825000Y-87174605D01*
X122562882Y-88436724D01*
X81407000Y-88436724D01*
X81407000Y-86635031D01*
X121781595Y-86635031D01*
X121799386Y-87444409D01*
X122074894Y-88109545D01*
X122383276Y-88257118D01*
X123645395Y-86995000D01*
X124004605Y-86995000D01*
X125266724Y-88257118D01*
X125575106Y-88109545D01*
X125868405Y-87354969D01*
X125850614Y-86545591D01*
X125575106Y-85880455D01*
X125266724Y-85732882D01*
X124004605Y-86995000D01*
X123645395Y-86995000D01*
X122383276Y-85732882D01*
X122074894Y-85880455D01*
X121781595Y-86635031D01*
X81407000Y-86635031D01*
X81407000Y-85553276D01*
X122562882Y-85553276D01*
X123825000Y-86815395D01*
X125087118Y-85553276D01*
X124939545Y-85244894D01*
X124184969Y-84951595D01*
X123375591Y-84969386D01*
X122710455Y-85244894D01*
X122562882Y-85553276D01*
X81407000Y-85553276D01*
X81407000Y-82478778D01*
X82058000Y-82478778D01*
X82058000Y-83129222D01*
X82306914Y-83730153D01*
X82766847Y-84190086D01*
X83367778Y-84439000D01*
X84018222Y-84439000D01*
X84619153Y-84190086D01*
X84852707Y-83956532D01*
X87800073Y-83956532D01*
X87898736Y-84223387D01*
X88508461Y-84449908D01*
X89158460Y-84425856D01*
X89647264Y-84223387D01*
X89745927Y-83956532D01*
X88773000Y-82983605D01*
X87800073Y-83956532D01*
X84852707Y-83956532D01*
X85079086Y-83730153D01*
X85328000Y-83129222D01*
X85328000Y-82539461D01*
X87127092Y-82539461D01*
X87151144Y-83189460D01*
X87353613Y-83678264D01*
X87620468Y-83776927D01*
X88593395Y-82804000D01*
X88952605Y-82804000D01*
X89925532Y-83776927D01*
X90192387Y-83678264D01*
X90418908Y-83068539D01*
X90394856Y-82418540D01*
X90192387Y-81929736D01*
X89925532Y-81831073D01*
X88952605Y-82804000D01*
X88593395Y-82804000D01*
X87620468Y-81831073D01*
X87353613Y-81929736D01*
X87127092Y-82539461D01*
X85328000Y-82539461D01*
X85328000Y-82478778D01*
X85079086Y-81877847D01*
X84852707Y-81651468D01*
X87800073Y-81651468D01*
X88773000Y-82624395D01*
X89609395Y-81788000D01*
X143252041Y-81788000D01*
X143368350Y-82372725D01*
X143699570Y-82868430D01*
X143983281Y-83058000D01*
X143699570Y-83247570D01*
X143368350Y-83743275D01*
X143252041Y-84328000D01*
X143368350Y-84912725D01*
X143699570Y-85408430D01*
X144195275Y-85739650D01*
X144632402Y-85826600D01*
X144927598Y-85826600D01*
X145331028Y-85746353D01*
X145380065Y-85992879D01*
X145497576Y-86168747D01*
X145497579Y-86168750D01*
X145537255Y-86228129D01*
X145596634Y-86267805D01*
X146508993Y-87180165D01*
X146548669Y-87239544D01*
X146608048Y-87279220D01*
X146608050Y-87279222D01*
X146672382Y-87322207D01*
X146783919Y-87396734D01*
X146991369Y-87437998D01*
X146991373Y-87437998D01*
X147061415Y-87451930D01*
X147131457Y-87437998D01*
X155091830Y-87437998D01*
X154948000Y-87785234D01*
X154948000Y-88236766D01*
X155120793Y-88653926D01*
X155440074Y-88973207D01*
X155857234Y-89146000D01*
X156308766Y-89146000D01*
X156725926Y-88973207D01*
X156976933Y-88722200D01*
X159603420Y-88722200D01*
X159613762Y-88747167D01*
X159933043Y-89066448D01*
X160350203Y-89239241D01*
X160801735Y-89239241D01*
X161218895Y-89066448D01*
X161538176Y-88747167D01*
X161710969Y-88330007D01*
X161710969Y-87878475D01*
X161538176Y-87461315D01*
X161514859Y-87437998D01*
X163140216Y-87437998D01*
X163203000Y-87500782D01*
X163203000Y-87855760D01*
X163375793Y-88272920D01*
X163695074Y-88592201D01*
X164112234Y-88764994D01*
X164563766Y-88764994D01*
X164980926Y-88592201D01*
X165300207Y-88272920D01*
X165473000Y-87855760D01*
X165473000Y-87404228D01*
X165309014Y-87008329D01*
X165314417Y-87002926D01*
X165487210Y-86585766D01*
X165487210Y-86134234D01*
X165317700Y-85725000D01*
X165487210Y-85315766D01*
X165487210Y-84864234D01*
X165314417Y-84447074D01*
X164995136Y-84127793D01*
X164577976Y-83955000D01*
X164126444Y-83955000D01*
X163709284Y-84127793D01*
X163390003Y-84447074D01*
X163217210Y-84864234D01*
X163217210Y-85219212D01*
X163168622Y-85267800D01*
X151034396Y-85267800D01*
X151271650Y-84912725D01*
X151387959Y-84328000D01*
X151271650Y-83743275D01*
X150941234Y-83248773D01*
X151083299Y-83189927D01*
X151261927Y-83011298D01*
X151358600Y-82777909D01*
X151358600Y-82073750D01*
X151320879Y-82036029D01*
X200415000Y-82036029D01*
X200415000Y-83143971D01*
X200838991Y-84167576D01*
X201622424Y-84951009D01*
X202646029Y-85375000D01*
X203753971Y-85375000D01*
X204777576Y-84951009D01*
X205561009Y-84167576D01*
X205985000Y-83143971D01*
X205985000Y-82036029D01*
X205561009Y-81012424D01*
X204777576Y-80228991D01*
X203753971Y-79805000D01*
X202646029Y-79805000D01*
X201622424Y-80228991D01*
X200838991Y-81012424D01*
X200415000Y-82036029D01*
X151320879Y-82036029D01*
X151199850Y-81915000D01*
X149987000Y-81915000D01*
X149987000Y-81935000D01*
X149733000Y-81935000D01*
X149733000Y-81915000D01*
X149713000Y-81915000D01*
X149713000Y-81661000D01*
X149733000Y-81661000D01*
X149733000Y-80448150D01*
X149987000Y-80448150D01*
X149987000Y-81661000D01*
X151199850Y-81661000D01*
X151358600Y-81502250D01*
X151358600Y-80798091D01*
X151261927Y-80564702D01*
X151083299Y-80386073D01*
X150849910Y-80289400D01*
X150145750Y-80289400D01*
X149987000Y-80448150D01*
X149733000Y-80448150D01*
X149574250Y-80289400D01*
X148870090Y-80289400D01*
X148636701Y-80386073D01*
X148458073Y-80564702D01*
X148399228Y-80706767D01*
X147904725Y-80376350D01*
X147467598Y-80289400D01*
X147172402Y-80289400D01*
X146735275Y-80376350D01*
X146239570Y-80707570D01*
X146050000Y-80991281D01*
X145860430Y-80707570D01*
X145364725Y-80376350D01*
X144927598Y-80289400D01*
X144632402Y-80289400D01*
X144195275Y-80376350D01*
X143699570Y-80707570D01*
X143368350Y-81203275D01*
X143252041Y-81788000D01*
X89609395Y-81788000D01*
X89745927Y-81651468D01*
X89647264Y-81384613D01*
X89037539Y-81158092D01*
X88387540Y-81182144D01*
X87898736Y-81384613D01*
X87800073Y-81651468D01*
X84852707Y-81651468D01*
X84619153Y-81417914D01*
X84018222Y-81169000D01*
X83367778Y-81169000D01*
X82766847Y-81417914D01*
X82306914Y-81877847D01*
X82058000Y-82478778D01*
X81407000Y-82478778D01*
X81407000Y-80062606D01*
X82602606Y-78867000D01*
X206322394Y-78867000D01*
X207445000Y-79989606D01*
G36*
X206883000Y-74168000D02*
X133414239Y-74168000D01*
X133816086Y-73766153D01*
X134065000Y-73165222D01*
X134065000Y-72514778D01*
X133816086Y-71913847D01*
X133356153Y-71453914D01*
X133141200Y-71364877D01*
X133141200Y-67815123D01*
X133356153Y-67726086D01*
X133816086Y-67266153D01*
X134065000Y-66665222D01*
X134065000Y-66014778D01*
X134007413Y-65875750D01*
X151045000Y-65875750D01*
X151045000Y-66516310D01*
X151141673Y-66749699D01*
X151320302Y-66928327D01*
X151553691Y-67025000D01*
X152894250Y-67025000D01*
X153053000Y-66866250D01*
X153053000Y-65717000D01*
X153307000Y-65717000D01*
X153307000Y-66866250D01*
X153465750Y-67025000D01*
X154806309Y-67025000D01*
X155039698Y-66928327D01*
X155218327Y-66749699D01*
X155315000Y-66516310D01*
X155315000Y-65875750D01*
X155156250Y-65717000D01*
X153307000Y-65717000D01*
X153053000Y-65717000D01*
X151203750Y-65717000D01*
X151045000Y-65875750D01*
X134007413Y-65875750D01*
X133816086Y-65413847D01*
X133356153Y-64953914D01*
X132755222Y-64705000D01*
X132104778Y-64705000D01*
X131503847Y-64953914D01*
X131043914Y-65413847D01*
X130795000Y-66014778D01*
X130795000Y-66665222D01*
X131043914Y-67266153D01*
X131503847Y-67726086D01*
X131718800Y-67815123D01*
X131718801Y-71364877D01*
X131503847Y-71453914D01*
X131043914Y-71913847D01*
X130795000Y-72514778D01*
X130795000Y-73165222D01*
X131043914Y-73766153D01*
X131445761Y-74168000D01*
X128838052Y-74168000D01*
X128902927Y-73992532D01*
X127930000Y-73019605D01*
X126957073Y-73992532D01*
X127021948Y-74168000D01*
X118414239Y-74168000D01*
X118816086Y-73766153D01*
X119065000Y-73165222D01*
X119065000Y-72575461D01*
X126284092Y-72575461D01*
X126308144Y-73225460D01*
X126510613Y-73714264D01*
X126777468Y-73812927D01*
X127750395Y-72840000D01*
X128109605Y-72840000D01*
X129082532Y-73812927D01*
X129349387Y-73714264D01*
X129575908Y-73104539D01*
X129551856Y-72454540D01*
X129349387Y-71965736D01*
X129082532Y-71867073D01*
X128109605Y-72840000D01*
X127750395Y-72840000D01*
X126777468Y-71867073D01*
X126510613Y-71965736D01*
X126284092Y-72575461D01*
X119065000Y-72575461D01*
X119065000Y-72514778D01*
X118816086Y-71913847D01*
X118589707Y-71687468D01*
X126957073Y-71687468D01*
X127930000Y-72660395D01*
X128902927Y-71687468D01*
X128804264Y-71420613D01*
X128194539Y-71194092D01*
X127544540Y-71218144D01*
X127055736Y-71420613D01*
X126957073Y-71687468D01*
X118589707Y-71687468D01*
X118356153Y-71453914D01*
X118141200Y-71364877D01*
X118141200Y-67815123D01*
X118356153Y-67726086D01*
X118589707Y-67492532D01*
X126957073Y-67492532D01*
X127055736Y-67759387D01*
X127665461Y-67985908D01*
X128315460Y-67961856D01*
X128804264Y-67759387D01*
X128902927Y-67492532D01*
X127930000Y-66519605D01*
X126957073Y-67492532D01*
X118589707Y-67492532D01*
X118816086Y-67266153D01*
X119065000Y-66665222D01*
X119065000Y-66075461D01*
X126284092Y-66075461D01*
X126308144Y-66725460D01*
X126510613Y-67214264D01*
X126777468Y-67312927D01*
X127750395Y-66340000D01*
X128109605Y-66340000D01*
X129082532Y-67312927D01*
X129349387Y-67214264D01*
X129575908Y-66604539D01*
X129551856Y-65954540D01*
X129349387Y-65465736D01*
X129082532Y-65367073D01*
X128109605Y-66340000D01*
X127750395Y-66340000D01*
X126777468Y-65367073D01*
X126510613Y-65465736D01*
X126284092Y-66075461D01*
X119065000Y-66075461D01*
X119065000Y-66014778D01*
X118816086Y-65413847D01*
X118589707Y-65187468D01*
X126957073Y-65187468D01*
X127930000Y-66160395D01*
X128902927Y-65187468D01*
X128804264Y-64920613D01*
X128194539Y-64694092D01*
X127544540Y-64718144D01*
X127055736Y-64920613D01*
X126957073Y-65187468D01*
X118589707Y-65187468D01*
X118356153Y-64953914D01*
X117755222Y-64705000D01*
X117104778Y-64705000D01*
X116503847Y-64953914D01*
X116043914Y-65413847D01*
X115795000Y-66014778D01*
X115795000Y-66665222D01*
X116043914Y-67266153D01*
X116503847Y-67726086D01*
X116718800Y-67815123D01*
X116718801Y-71364877D01*
X116503847Y-71453914D01*
X116043914Y-71913847D01*
X115795000Y-72514778D01*
X115795000Y-73165222D01*
X116043914Y-73766153D01*
X116445761Y-74168000D01*
X113838052Y-74168000D01*
X113902927Y-73992532D01*
X112930000Y-73019605D01*
X111957073Y-73992532D01*
X112021948Y-74168000D01*
X103414239Y-74168000D01*
X103816086Y-73766153D01*
X104065000Y-73165222D01*
X104065000Y-72575461D01*
X111284092Y-72575461D01*
X111308144Y-73225460D01*
X111510613Y-73714264D01*
X111777468Y-73812927D01*
X112750395Y-72840000D01*
X113109605Y-72840000D01*
X114082532Y-73812927D01*
X114349387Y-73714264D01*
X114575908Y-73104539D01*
X114551856Y-72454540D01*
X114349387Y-71965736D01*
X114082532Y-71867073D01*
X113109605Y-72840000D01*
X112750395Y-72840000D01*
X111777468Y-71867073D01*
X111510613Y-71965736D01*
X111284092Y-72575461D01*
X104065000Y-72575461D01*
X104065000Y-72514778D01*
X103816086Y-71913847D01*
X103589707Y-71687468D01*
X111957073Y-71687468D01*
X112930000Y-72660395D01*
X113902927Y-71687468D01*
X113804264Y-71420613D01*
X113194539Y-71194092D01*
X112544540Y-71218144D01*
X112055736Y-71420613D01*
X111957073Y-71687468D01*
X103589707Y-71687468D01*
X103356153Y-71453914D01*
X103141200Y-71364877D01*
X103141200Y-67815123D01*
X103356153Y-67726086D01*
X103589707Y-67492532D01*
X111957073Y-67492532D01*
X112055736Y-67759387D01*
X112665461Y-67985908D01*
X113315460Y-67961856D01*
X113804264Y-67759387D01*
X113902927Y-67492532D01*
X112930000Y-66519605D01*
X111957073Y-67492532D01*
X103589707Y-67492532D01*
X103816086Y-67266153D01*
X104065000Y-66665222D01*
X104065000Y-66075461D01*
X111284092Y-66075461D01*
X111308144Y-66725460D01*
X111510613Y-67214264D01*
X111777468Y-67312927D01*
X112750395Y-66340000D01*
X113109605Y-66340000D01*
X114082532Y-67312927D01*
X114349387Y-67214264D01*
X114575908Y-66604539D01*
X114551856Y-65954540D01*
X114349387Y-65465736D01*
X114082532Y-65367073D01*
X113109605Y-66340000D01*
X112750395Y-66340000D01*
X111777468Y-65367073D01*
X111510613Y-65465736D01*
X111284092Y-66075461D01*
X104065000Y-66075461D01*
X104065000Y-66014778D01*
X103816086Y-65413847D01*
X103589707Y-65187468D01*
X111957073Y-65187468D01*
X112930000Y-66160395D01*
X113902927Y-65187468D01*
X113804264Y-64920613D01*
X113194539Y-64694092D01*
X112544540Y-64718144D01*
X112055736Y-64920613D01*
X111957073Y-65187468D01*
X103589707Y-65187468D01*
X103356153Y-64953914D01*
X102755222Y-64705000D01*
X102104778Y-64705000D01*
X101503847Y-64953914D01*
X101043914Y-65413847D01*
X100795000Y-66014778D01*
X100795000Y-66665222D01*
X101043914Y-67266153D01*
X101503847Y-67726086D01*
X101718800Y-67815123D01*
X101718801Y-71364877D01*
X101503847Y-71453914D01*
X101043914Y-71913847D01*
X100795000Y-72514778D01*
X100795000Y-73165222D01*
X101043914Y-73766153D01*
X101445761Y-74168000D01*
X98838052Y-74168000D01*
X98902927Y-73992532D01*
X97930000Y-73019605D01*
X96957073Y-73992532D01*
X97021948Y-74168000D01*
X88414239Y-74168000D01*
X88816086Y-73766153D01*
X89065000Y-73165222D01*
X89065000Y-72575461D01*
X96284092Y-72575461D01*
X96308144Y-73225460D01*
X96510613Y-73714264D01*
X96777468Y-73812927D01*
X97750395Y-72840000D01*
X98109605Y-72840000D01*
X99082532Y-73812927D01*
X99349387Y-73714264D01*
X99575908Y-73104539D01*
X99551856Y-72454540D01*
X99349387Y-71965736D01*
X99082532Y-71867073D01*
X98109605Y-72840000D01*
X97750395Y-72840000D01*
X96777468Y-71867073D01*
X96510613Y-71965736D01*
X96284092Y-72575461D01*
X89065000Y-72575461D01*
X89065000Y-72514778D01*
X88816086Y-71913847D01*
X88589707Y-71687468D01*
X96957073Y-71687468D01*
X97930000Y-72660395D01*
X98902927Y-71687468D01*
X98804264Y-71420613D01*
X98194539Y-71194092D01*
X97544540Y-71218144D01*
X97055736Y-71420613D01*
X96957073Y-71687468D01*
X88589707Y-71687468D01*
X88356153Y-71453914D01*
X88141200Y-71364877D01*
X88141200Y-67815123D01*
X88356153Y-67726086D01*
X88589707Y-67492532D01*
X96957073Y-67492532D01*
X97055736Y-67759387D01*
X97665461Y-67985908D01*
X98315460Y-67961856D01*
X98804264Y-67759387D01*
X98902927Y-67492532D01*
X97930000Y-66519605D01*
X96957073Y-67492532D01*
X88589707Y-67492532D01*
X88816086Y-67266153D01*
X89065000Y-66665222D01*
X89065000Y-66075461D01*
X96284092Y-66075461D01*
X96308144Y-66725460D01*
X96510613Y-67214264D01*
X96777468Y-67312927D01*
X97750395Y-66340000D01*
X98109605Y-66340000D01*
X99082532Y-67312927D01*
X99349387Y-67214264D01*
X99575908Y-66604539D01*
X99551856Y-65954540D01*
X99349387Y-65465736D01*
X99082532Y-65367073D01*
X98109605Y-66340000D01*
X97750395Y-66340000D01*
X96777468Y-65367073D01*
X96510613Y-65465736D01*
X96284092Y-66075461D01*
X89065000Y-66075461D01*
X89065000Y-66014778D01*
X88816086Y-65413847D01*
X88589707Y-65187468D01*
X96957073Y-65187468D01*
X97930000Y-66160395D01*
X98902927Y-65187468D01*
X98804264Y-64920613D01*
X98194539Y-64694092D01*
X97544540Y-64718144D01*
X97055736Y-64920613D01*
X96957073Y-65187468D01*
X88589707Y-65187468D01*
X88356153Y-64953914D01*
X87755222Y-64705000D01*
X87104778Y-64705000D01*
X86503847Y-64953914D01*
X86043914Y-65413847D01*
X85795000Y-66014778D01*
X85795000Y-66665222D01*
X86043914Y-67266153D01*
X86503847Y-67726086D01*
X86718800Y-67815123D01*
X86718801Y-71364877D01*
X86503847Y-71453914D01*
X86043914Y-71913847D01*
X85795000Y-72514778D01*
X85795000Y-73165222D01*
X86043914Y-73766153D01*
X86445761Y-74168000D01*
X83838052Y-74168000D01*
X83902927Y-73992532D01*
X82930000Y-73019605D01*
X81957073Y-73992532D01*
X82021948Y-74168000D01*
X73414239Y-74168000D01*
X73816086Y-73766153D01*
X74065000Y-73165222D01*
X74065000Y-72575461D01*
X81284092Y-72575461D01*
X81308144Y-73225460D01*
X81510613Y-73714264D01*
X81777468Y-73812927D01*
X82750395Y-72840000D01*
X83109605Y-72840000D01*
X84082532Y-73812927D01*
X84349387Y-73714264D01*
X84575908Y-73104539D01*
X84551856Y-72454540D01*
X84349387Y-71965736D01*
X84082532Y-71867073D01*
X83109605Y-72840000D01*
X82750395Y-72840000D01*
X81777468Y-71867073D01*
X81510613Y-71965736D01*
X81284092Y-72575461D01*
X74065000Y-72575461D01*
X74065000Y-72514778D01*
X73816086Y-71913847D01*
X73589707Y-71687468D01*
X81957073Y-71687468D01*
X82930000Y-72660395D01*
X83902927Y-71687468D01*
X83804264Y-71420613D01*
X83194539Y-71194092D01*
X82544540Y-71218144D01*
X82055736Y-71420613D01*
X81957073Y-71687468D01*
X73589707Y-71687468D01*
X73356153Y-71453914D01*
X73141200Y-71364877D01*
X73141200Y-67815123D01*
X73356153Y-67726086D01*
X73589707Y-67492532D01*
X81957073Y-67492532D01*
X82055736Y-67759387D01*
X82665461Y-67985908D01*
X83315460Y-67961856D01*
X83804264Y-67759387D01*
X83902927Y-67492532D01*
X82930000Y-66519605D01*
X81957073Y-67492532D01*
X73589707Y-67492532D01*
X73816086Y-67266153D01*
X74065000Y-66665222D01*
X74065000Y-66075461D01*
X81284092Y-66075461D01*
X81308144Y-66725460D01*
X81510613Y-67214264D01*
X81777468Y-67312927D01*
X82750395Y-66340000D01*
X83109605Y-66340000D01*
X84082532Y-67312927D01*
X84349387Y-67214264D01*
X84575908Y-66604539D01*
X84551856Y-65954540D01*
X84349387Y-65465736D01*
X84082532Y-65367073D01*
X83109605Y-66340000D01*
X82750395Y-66340000D01*
X81777468Y-65367073D01*
X81510613Y-65465736D01*
X81284092Y-66075461D01*
X74065000Y-66075461D01*
X74065000Y-66014778D01*
X73816086Y-65413847D01*
X73589707Y-65187468D01*
X81957073Y-65187468D01*
X82930000Y-66160395D01*
X83902927Y-65187468D01*
X83804264Y-64920613D01*
X83194539Y-64694092D01*
X82544540Y-64718144D01*
X82055736Y-64920613D01*
X81957073Y-65187468D01*
X73589707Y-65187468D01*
X73356153Y-64953914D01*
X72755222Y-64705000D01*
X72104778Y-64705000D01*
X71503847Y-64953914D01*
X71043914Y-65413847D01*
X70795000Y-66014778D01*
X70795000Y-66665222D01*
X71043914Y-67266153D01*
X71503847Y-67726086D01*
X71718800Y-67815123D01*
X71718801Y-71364877D01*
X71503847Y-71453914D01*
X71043914Y-71913847D01*
X70795000Y-72514778D01*
X70795000Y-73165222D01*
X71043914Y-73766153D01*
X71445761Y-74168000D01*
X68838052Y-74168000D01*
X68902927Y-73992532D01*
X67930000Y-73019605D01*
X66957073Y-73992532D01*
X67021948Y-74168000D01*
X58414239Y-74168000D01*
X58816086Y-73766153D01*
X59065000Y-73165222D01*
X59065000Y-72575461D01*
X66284092Y-72575461D01*
X66308144Y-73225460D01*
X66510613Y-73714264D01*
X66777468Y-73812927D01*
X67750395Y-72840000D01*
X68109605Y-72840000D01*
X69082532Y-73812927D01*
X69349387Y-73714264D01*
X69575908Y-73104539D01*
X69551856Y-72454540D01*
X69349387Y-71965736D01*
X69082532Y-71867073D01*
X68109605Y-72840000D01*
X67750395Y-72840000D01*
X66777468Y-71867073D01*
X66510613Y-71965736D01*
X66284092Y-72575461D01*
X59065000Y-72575461D01*
X59065000Y-72514778D01*
X58816086Y-71913847D01*
X58589707Y-71687468D01*
X66957073Y-71687468D01*
X67930000Y-72660395D01*
X68902927Y-71687468D01*
X68804264Y-71420613D01*
X68194539Y-71194092D01*
X67544540Y-71218144D01*
X67055736Y-71420613D01*
X66957073Y-71687468D01*
X58589707Y-71687468D01*
X58356153Y-71453914D01*
X58141200Y-71364877D01*
X58141200Y-67815123D01*
X58356153Y-67726086D01*
X58589707Y-67492532D01*
X66957073Y-67492532D01*
X67055736Y-67759387D01*
X67665461Y-67985908D01*
X68315460Y-67961856D01*
X68804264Y-67759387D01*
X68902927Y-67492532D01*
X67930000Y-66519605D01*
X66957073Y-67492532D01*
X58589707Y-67492532D01*
X58816086Y-67266153D01*
X59065000Y-66665222D01*
X59065000Y-66075461D01*
X66284092Y-66075461D01*
X66308144Y-66725460D01*
X66510613Y-67214264D01*
X66777468Y-67312927D01*
X67750395Y-66340000D01*
X68109605Y-66340000D01*
X69082532Y-67312927D01*
X69349387Y-67214264D01*
X69575908Y-66604539D01*
X69551856Y-65954540D01*
X69349387Y-65465736D01*
X69082532Y-65367073D01*
X68109605Y-66340000D01*
X67750395Y-66340000D01*
X66777468Y-65367073D01*
X66510613Y-65465736D01*
X66284092Y-66075461D01*
X59065000Y-66075461D01*
X59065000Y-66014778D01*
X58816086Y-65413847D01*
X58589707Y-65187468D01*
X66957073Y-65187468D01*
X67930000Y-66160395D01*
X68902927Y-65187468D01*
X68804264Y-64920613D01*
X68194539Y-64694092D01*
X67544540Y-64718144D01*
X67055736Y-64920613D01*
X66957073Y-65187468D01*
X58589707Y-65187468D01*
X58356153Y-64953914D01*
X57755222Y-64705000D01*
X57104778Y-64705000D01*
X56503847Y-64953914D01*
X56043914Y-65413847D01*
X55795000Y-66014778D01*
X55795000Y-66665222D01*
X56043914Y-67266153D01*
X56503847Y-67726086D01*
X56718801Y-67815123D01*
X56718800Y-71364877D01*
X56503847Y-71453914D01*
X56043914Y-71913847D01*
X55795000Y-72514778D01*
X55795000Y-73165222D01*
X56043914Y-73766153D01*
X56445761Y-74168000D01*
X53838052Y-74168000D01*
X53902927Y-73992532D01*
X52930000Y-73019605D01*
X51957073Y-73992532D01*
X52021948Y-74168000D01*
X39497000Y-74168000D01*
X39497000Y-72575461D01*
X51284092Y-72575461D01*
X51308144Y-73225460D01*
X51510613Y-73714264D01*
X51777468Y-73812927D01*
X52750395Y-72840000D01*
X53109605Y-72840000D01*
X54082532Y-73812927D01*
X54349387Y-73714264D01*
X54575908Y-73104539D01*
X54551856Y-72454540D01*
X54349387Y-71965736D01*
X54082532Y-71867073D01*
X53109605Y-72840000D01*
X52750395Y-72840000D01*
X51777468Y-71867073D01*
X51510613Y-71965736D01*
X51284092Y-72575461D01*
X39497000Y-72575461D01*
X39497000Y-71687468D01*
X51957073Y-71687468D01*
X52930000Y-72660395D01*
X53902927Y-71687468D01*
X53804264Y-71420613D01*
X53194539Y-71194092D01*
X52544540Y-71218144D01*
X52055736Y-71420613D01*
X51957073Y-71687468D01*
X39497000Y-71687468D01*
X39497000Y-67492532D01*
X51957073Y-67492532D01*
X52055736Y-67759387D01*
X52665461Y-67985908D01*
X53315460Y-67961856D01*
X53804264Y-67759387D01*
X53902927Y-67492532D01*
X52930000Y-66519605D01*
X51957073Y-67492532D01*
X39497000Y-67492532D01*
X39497000Y-64215050D01*
X40295000Y-64215050D01*
X40295000Y-64964950D01*
X40581974Y-65657767D01*
X41112233Y-66188026D01*
X41805050Y-66475000D01*
X42554950Y-66475000D01*
X43247767Y-66188026D01*
X43360332Y-66075461D01*
X51284092Y-66075461D01*
X51308144Y-66725460D01*
X51510613Y-67214264D01*
X51777468Y-67312927D01*
X52750395Y-66340000D01*
X53109605Y-66340000D01*
X54082532Y-67312927D01*
X54349387Y-67214264D01*
X54575908Y-66604539D01*
X54551856Y-65954540D01*
X54349387Y-65465736D01*
X54082532Y-65367073D01*
X53109605Y-66340000D01*
X52750395Y-66340000D01*
X51777468Y-65367073D01*
X51510613Y-65465736D01*
X51284092Y-66075461D01*
X43360332Y-66075461D01*
X43778026Y-65657767D01*
X43972830Y-65187468D01*
X51957073Y-65187468D01*
X52930000Y-66160395D01*
X53902927Y-65187468D01*
X53804264Y-64920613D01*
X53194539Y-64694092D01*
X52544540Y-64718144D01*
X52055736Y-64920613D01*
X51957073Y-65187468D01*
X43972830Y-65187468D01*
X44065000Y-64964950D01*
X44065000Y-64663690D01*
X151045000Y-64663690D01*
X151045000Y-65304250D01*
X151203750Y-65463000D01*
X153053000Y-65463000D01*
X153053000Y-64313750D01*
X153307000Y-64313750D01*
X153307000Y-65463000D01*
X155156250Y-65463000D01*
X155315000Y-65304250D01*
X155315000Y-64663690D01*
X155218327Y-64430301D01*
X155039698Y-64251673D01*
X154806309Y-64155000D01*
X153465750Y-64155000D01*
X153307000Y-64313750D01*
X153053000Y-64313750D01*
X152894250Y-64155000D01*
X151553691Y-64155000D01*
X151320302Y-64251673D01*
X151141673Y-64430301D01*
X151045000Y-64663690D01*
X44065000Y-64663690D01*
X44065000Y-64215050D01*
X43778026Y-63522233D01*
X43247767Y-62991974D01*
X42554950Y-62705000D01*
X41805050Y-62705000D01*
X41112233Y-62991974D01*
X40581974Y-63522233D01*
X40295000Y-64215050D01*
X39497000Y-64215050D01*
X39497000Y-58690000D01*
X51997560Y-58690000D01*
X51997560Y-60490000D01*
X52046843Y-60737765D01*
X52187191Y-60947809D01*
X52397235Y-61088157D01*
X52645000Y-61137440D01*
X53715000Y-61137440D01*
X53962765Y-61088157D01*
X54042736Y-61034722D01*
X54142617Y-61083900D01*
X54323000Y-60958244D01*
X54323000Y-60688280D01*
X54362440Y-60490000D01*
X54362440Y-59109770D01*
X54550000Y-59109770D01*
X54550000Y-60070231D01*
X54577000Y-60205969D01*
X54577000Y-60958244D01*
X54757383Y-61083900D01*
X55071850Y-60929066D01*
X55263490Y-61057115D01*
X55720000Y-61147921D01*
X56176511Y-61057115D01*
X56355001Y-60937853D01*
X56533490Y-61057115D01*
X56990000Y-61147921D01*
X57446511Y-61057115D01*
X57833523Y-60798523D01*
X58092115Y-60411511D01*
X58160000Y-60070230D01*
X58160000Y-59109769D01*
X58092115Y-58768489D01*
X58039671Y-58690000D01*
X66997560Y-58690000D01*
X66997560Y-60490000D01*
X67046843Y-60737765D01*
X67187191Y-60947809D01*
X67397235Y-61088157D01*
X67645000Y-61137440D01*
X68715000Y-61137440D01*
X68962765Y-61088157D01*
X69042736Y-61034722D01*
X69142617Y-61083900D01*
X69323000Y-60958244D01*
X69323000Y-60688280D01*
X69362440Y-60490000D01*
X69362440Y-59109770D01*
X69550000Y-59109770D01*
X69550000Y-60070231D01*
X69577000Y-60205969D01*
X69577000Y-60958244D01*
X69757383Y-61083900D01*
X70071850Y-60929066D01*
X70263490Y-61057115D01*
X70720000Y-61147921D01*
X71176511Y-61057115D01*
X71355001Y-60937853D01*
X71533490Y-61057115D01*
X71990000Y-61147921D01*
X72446511Y-61057115D01*
X72833523Y-60798523D01*
X73092115Y-60411511D01*
X73160000Y-60070230D01*
X73160000Y-59109769D01*
X73092115Y-58768489D01*
X73039671Y-58690000D01*
X81997560Y-58690000D01*
X81997560Y-60490000D01*
X82046843Y-60737765D01*
X82187191Y-60947809D01*
X82397235Y-61088157D01*
X82645000Y-61137440D01*
X83715000Y-61137440D01*
X83962765Y-61088157D01*
X84042736Y-61034722D01*
X84142617Y-61083900D01*
X84323000Y-60958244D01*
X84323000Y-60688280D01*
X84362440Y-60490000D01*
X84362440Y-59109770D01*
X84550000Y-59109770D01*
X84550000Y-60070231D01*
X84577000Y-60205969D01*
X84577000Y-60958244D01*
X84757383Y-61083900D01*
X85071850Y-60929066D01*
X85263490Y-61057115D01*
X85720000Y-61147921D01*
X86176511Y-61057115D01*
X86355001Y-60937853D01*
X86533490Y-61057115D01*
X86990000Y-61147921D01*
X87446511Y-61057115D01*
X87833523Y-60798523D01*
X88092115Y-60411511D01*
X88160000Y-60070230D01*
X88160000Y-59109769D01*
X88092115Y-58768489D01*
X88039671Y-58690000D01*
X96997560Y-58690000D01*
X96997560Y-60490000D01*
X97046843Y-60737765D01*
X97187191Y-60947809D01*
X97397235Y-61088157D01*
X97645000Y-61137440D01*
X98715000Y-61137440D01*
X98962765Y-61088157D01*
X99042736Y-61034722D01*
X99142617Y-61083900D01*
X99323000Y-60958244D01*
X99323000Y-60688280D01*
X99362440Y-60490000D01*
X99362440Y-59109770D01*
X99550000Y-59109770D01*
X99550000Y-60070231D01*
X99577000Y-60205969D01*
X99577000Y-60958244D01*
X99757383Y-61083900D01*
X100071850Y-60929066D01*
X100263490Y-61057115D01*
X100720000Y-61147921D01*
X101176511Y-61057115D01*
X101355001Y-60937853D01*
X101533490Y-61057115D01*
X101990000Y-61147921D01*
X102446511Y-61057115D01*
X102833523Y-60798523D01*
X103092115Y-60411511D01*
X103160000Y-60070230D01*
X103160000Y-59109769D01*
X103092115Y-58768489D01*
X103039671Y-58690000D01*
X111997560Y-58690000D01*
X111997560Y-60490000D01*
X112046843Y-60737765D01*
X112187191Y-60947809D01*
X112397235Y-61088157D01*
X112645000Y-61137440D01*
X113715000Y-61137440D01*
X113962765Y-61088157D01*
X114042736Y-61034722D01*
X114142617Y-61083900D01*
X114323000Y-60958244D01*
X114323000Y-60688280D01*
X114362440Y-60490000D01*
X114362440Y-59109770D01*
X114550000Y-59109770D01*
X114550000Y-60070231D01*
X114577000Y-60205969D01*
X114577000Y-60958244D01*
X114757383Y-61083900D01*
X115071850Y-60929066D01*
X115263490Y-61057115D01*
X115720000Y-61147921D01*
X116176511Y-61057115D01*
X116355001Y-60937853D01*
X116533490Y-61057115D01*
X116990000Y-61147921D01*
X117446511Y-61057115D01*
X117833523Y-60798523D01*
X118092115Y-60411511D01*
X118160000Y-60070230D01*
X118160000Y-59109769D01*
X118092115Y-58768489D01*
X118039671Y-58690000D01*
X126997560Y-58690000D01*
X126997560Y-60490000D01*
X127046843Y-60737765D01*
X127187191Y-60947809D01*
X127397235Y-61088157D01*
X127645000Y-61137440D01*
X128715000Y-61137440D01*
X128962765Y-61088157D01*
X129042736Y-61034722D01*
X129142617Y-61083900D01*
X129323000Y-60958244D01*
X129323000Y-60688280D01*
X129362440Y-60490000D01*
X129362440Y-59109770D01*
X129550000Y-59109770D01*
X129550000Y-60070231D01*
X129577000Y-60205969D01*
X129577000Y-60958244D01*
X129757383Y-61083900D01*
X130071850Y-60929066D01*
X130263490Y-61057115D01*
X130720000Y-61147921D01*
X131176511Y-61057115D01*
X131355001Y-60937853D01*
X131533490Y-61057115D01*
X131990000Y-61147921D01*
X132446511Y-61057115D01*
X132833523Y-60798523D01*
X133092115Y-60411511D01*
X133160000Y-60070230D01*
X133160000Y-59109769D01*
X133092115Y-58768489D01*
X133039671Y-58690000D01*
X151997560Y-58690000D01*
X151997560Y-60490000D01*
X152046843Y-60737765D01*
X152187191Y-60947809D01*
X152397235Y-61088157D01*
X152645000Y-61137440D01*
X153715000Y-61137440D01*
X153962765Y-61088157D01*
X154042736Y-61034722D01*
X154142617Y-61083900D01*
X154323000Y-60958244D01*
X154323000Y-60688280D01*
X154362440Y-60490000D01*
X154362440Y-59109770D01*
X154550000Y-59109770D01*
X154550000Y-60070231D01*
X154577000Y-60205969D01*
X154577000Y-60958244D01*
X154757383Y-61083900D01*
X155008801Y-60960109D01*
X155008800Y-62707558D01*
X154994868Y-62777600D01*
X155008800Y-62847641D01*
X155008800Y-62847645D01*
X155050064Y-63055095D01*
X155050065Y-63055096D01*
X155167576Y-63230964D01*
X155167578Y-63230966D01*
X155207254Y-63290345D01*
X155266634Y-63330022D01*
X156079309Y-64142697D01*
X155832235Y-64191843D01*
X155622191Y-64332191D01*
X155481843Y-64542235D01*
X155432560Y-64790000D01*
X155432560Y-66390000D01*
X155481843Y-66637765D01*
X155622191Y-66847809D01*
X155832235Y-66988157D01*
X156080000Y-67037440D01*
X159080000Y-67037440D01*
X159327765Y-66988157D01*
X159537809Y-66847809D01*
X159678157Y-66637765D01*
X159727440Y-66390000D01*
X159727440Y-64790000D01*
X159678157Y-64542235D01*
X159537809Y-64332191D01*
X159327765Y-64191843D01*
X159080000Y-64142560D01*
X158104577Y-64142560D01*
X158092746Y-64124854D01*
X158033367Y-64085178D01*
X156587423Y-62639234D01*
X173871000Y-62639234D01*
X173871000Y-63090766D01*
X174043793Y-63507926D01*
X174363074Y-63827207D01*
X174780234Y-64000000D01*
X175231766Y-64000000D01*
X175648926Y-63827207D01*
X175968207Y-63507926D01*
X176141000Y-63090766D01*
X176141000Y-62941200D01*
X179558193Y-62941200D01*
X179447041Y-63500000D01*
X179563350Y-64084725D01*
X179894570Y-64580430D01*
X180178281Y-64770000D01*
X179894570Y-64959570D01*
X179563350Y-65455275D01*
X179447041Y-66040000D01*
X179563350Y-66624725D01*
X179894570Y-67120430D01*
X180390275Y-67451650D01*
X180827402Y-67538600D01*
X181122598Y-67538600D01*
X181533800Y-67456807D01*
X181533800Y-68448067D01*
X181282793Y-68699074D01*
X181110000Y-69116234D01*
X181110000Y-69567766D01*
X181282793Y-69984926D01*
X181602074Y-70304207D01*
X182019234Y-70477000D01*
X182470766Y-70477000D01*
X182887926Y-70304207D01*
X183207207Y-69984926D01*
X183371619Y-69588000D01*
X183740766Y-69588000D01*
X184157926Y-69415207D01*
X184477207Y-69095926D01*
X184650000Y-68678766D01*
X184650000Y-68227234D01*
X184477207Y-67810074D01*
X184226200Y-67559067D01*
X184226200Y-67367142D01*
X184595430Y-67120430D01*
X184926650Y-66624725D01*
X185042959Y-66040000D01*
X184926650Y-65455275D01*
X184595430Y-64959570D01*
X184311719Y-64770000D01*
X184595430Y-64580430D01*
X184842142Y-64211200D01*
X185019867Y-64211200D01*
X185270874Y-64462207D01*
X185688034Y-64635000D01*
X186139566Y-64635000D01*
X186556726Y-64462207D01*
X186803883Y-64215050D01*
X202295000Y-64215050D01*
X202295000Y-64964950D01*
X202581974Y-65657767D01*
X203112233Y-66188026D01*
X203805050Y-66475000D01*
X204554950Y-66475000D01*
X205247767Y-66188026D01*
X205778026Y-65657767D01*
X206065000Y-64964950D01*
X206065000Y-64215050D01*
X205778026Y-63522233D01*
X205247767Y-62991974D01*
X204554950Y-62705000D01*
X203805050Y-62705000D01*
X203112233Y-62991974D01*
X202581974Y-63522233D01*
X202295000Y-64215050D01*
X186803883Y-64215050D01*
X186876007Y-64142926D01*
X187048800Y-63725766D01*
X187048800Y-63274234D01*
X186876007Y-62857074D01*
X186556726Y-62537793D01*
X186139566Y-62365000D01*
X185688034Y-62365000D01*
X185270874Y-62537793D01*
X185019867Y-62788800D01*
X184842142Y-62788800D01*
X184596233Y-62420772D01*
X184738298Y-62361927D01*
X184916927Y-62183299D01*
X185013600Y-61949910D01*
X185013600Y-61245750D01*
X184854850Y-61087000D01*
X183642000Y-61087000D01*
X183642000Y-61107000D01*
X183388000Y-61107000D01*
X183388000Y-61087000D01*
X183368000Y-61087000D01*
X183368000Y-60833000D01*
X183388000Y-60833000D01*
X183388000Y-59620150D01*
X183642000Y-59620150D01*
X183642000Y-60833000D01*
X184854850Y-60833000D01*
X185013600Y-60674250D01*
X185013600Y-59970090D01*
X184916927Y-59736701D01*
X184738298Y-59558073D01*
X184504909Y-59461400D01*
X183800750Y-59461400D01*
X183642000Y-59620150D01*
X183388000Y-59620150D01*
X183229250Y-59461400D01*
X182525091Y-59461400D01*
X182291702Y-59558073D01*
X182113073Y-59736701D01*
X182054227Y-59878766D01*
X181686200Y-59632858D01*
X181686200Y-59172723D01*
X181937207Y-58921716D01*
X182110000Y-58504556D01*
X182110000Y-58053024D01*
X181937207Y-57635864D01*
X181617926Y-57316583D01*
X181200766Y-57143790D01*
X180749234Y-57143790D01*
X180332074Y-57316583D01*
X180012793Y-57635864D01*
X179840000Y-58053024D01*
X179840000Y-58504556D01*
X180012793Y-58921716D01*
X180263801Y-59172724D01*
X180263800Y-59632858D01*
X179894570Y-59879570D01*
X179563350Y-60375275D01*
X179447041Y-60960000D01*
X179558193Y-61518800D01*
X175711042Y-61518800D01*
X175641000Y-61504868D01*
X175570958Y-61518800D01*
X175570954Y-61518800D01*
X175363504Y-61560064D01*
X175363502Y-61560065D01*
X175363503Y-61560065D01*
X175187635Y-61677576D01*
X175187633Y-61677578D01*
X175128254Y-61717254D01*
X175119737Y-61730000D01*
X174780234Y-61730000D01*
X174363074Y-61902793D01*
X174043793Y-62222074D01*
X173871000Y-62639234D01*
X156587423Y-62639234D01*
X156431200Y-62483012D01*
X156431200Y-60988767D01*
X156533490Y-61057115D01*
X156990000Y-61147921D01*
X157446511Y-61057115D01*
X157833523Y-60798523D01*
X158092115Y-60411511D01*
X158160000Y-60070230D01*
X158160000Y-59109769D01*
X158092115Y-58768489D01*
X157833523Y-58381477D01*
X157446510Y-58122885D01*
X156990000Y-58032079D01*
X156533489Y-58122885D01*
X156355000Y-58242147D01*
X156176510Y-58122885D01*
X155720000Y-58032079D01*
X155263489Y-58122885D01*
X155071849Y-58250934D01*
X154757383Y-58096100D01*
X154577000Y-58221756D01*
X154577000Y-58974032D01*
X154550000Y-59109770D01*
X154362440Y-59109770D01*
X154362440Y-58690000D01*
X154323000Y-58491720D01*
X154323000Y-58221756D01*
X154142617Y-58096100D01*
X154042736Y-58145278D01*
X153962765Y-58091843D01*
X153715000Y-58042560D01*
X152645000Y-58042560D01*
X152397235Y-58091843D01*
X152187191Y-58232191D01*
X152046843Y-58442235D01*
X151997560Y-58690000D01*
X133039671Y-58690000D01*
X132833523Y-58381477D01*
X132446510Y-58122885D01*
X131990000Y-58032079D01*
X131533489Y-58122885D01*
X131355000Y-58242147D01*
X131176510Y-58122885D01*
X130720000Y-58032079D01*
X130263489Y-58122885D01*
X130071849Y-58250934D01*
X129757383Y-58096100D01*
X129577000Y-58221756D01*
X129577000Y-58974032D01*
X129550000Y-59109770D01*
X129362440Y-59109770D01*
X129362440Y-58690000D01*
X129323000Y-58491720D01*
X129323000Y-58221756D01*
X129142617Y-58096100D01*
X129042736Y-58145278D01*
X128962765Y-58091843D01*
X128715000Y-58042560D01*
X127645000Y-58042560D01*
X127397235Y-58091843D01*
X127187191Y-58232191D01*
X127046843Y-58442235D01*
X126997560Y-58690000D01*
X118039671Y-58690000D01*
X117833523Y-58381477D01*
X117446510Y-58122885D01*
X116990000Y-58032079D01*
X116533489Y-58122885D01*
X116355000Y-58242147D01*
X116176510Y-58122885D01*
X115720000Y-58032079D01*
X115263489Y-58122885D01*
X115071849Y-58250934D01*
X114757383Y-58096100D01*
X114577000Y-58221756D01*
X114577000Y-58974032D01*
X114550000Y-59109770D01*
X114362440Y-59109770D01*
X114362440Y-58690000D01*
X114323000Y-58491720D01*
X114323000Y-58221756D01*
X114142617Y-58096100D01*
X114042736Y-58145278D01*
X113962765Y-58091843D01*
X113715000Y-58042560D01*
X112645000Y-58042560D01*
X112397235Y-58091843D01*
X112187191Y-58232191D01*
X112046843Y-58442235D01*
X111997560Y-58690000D01*
X103039671Y-58690000D01*
X102833523Y-58381477D01*
X102446510Y-58122885D01*
X101990000Y-58032079D01*
X101533489Y-58122885D01*
X101355000Y-58242147D01*
X101176510Y-58122885D01*
X100720000Y-58032079D01*
X100263489Y-58122885D01*
X100071849Y-58250934D01*
X99757383Y-58096100D01*
X99577000Y-58221756D01*
X99577000Y-58974032D01*
X99550000Y-59109770D01*
X99362440Y-59109770D01*
X99362440Y-58690000D01*
X99323000Y-58491720D01*
X99323000Y-58221756D01*
X99142617Y-58096100D01*
X99042736Y-58145278D01*
X98962765Y-58091843D01*
X98715000Y-58042560D01*
X97645000Y-58042560D01*
X97397235Y-58091843D01*
X97187191Y-58232191D01*
X97046843Y-58442235D01*
X96997560Y-58690000D01*
X88039671Y-58690000D01*
X87833523Y-58381477D01*
X87446510Y-58122885D01*
X86990000Y-58032079D01*
X86533489Y-58122885D01*
X86355000Y-58242147D01*
X86176510Y-58122885D01*
X85720000Y-58032079D01*
X85263489Y-58122885D01*
X85071849Y-58250934D01*
X84757383Y-58096100D01*
X84577000Y-58221756D01*
X84577000Y-58974032D01*
X84550000Y-59109770D01*
X84362440Y-59109770D01*
X84362440Y-58690000D01*
X84323000Y-58491720D01*
X84323000Y-58221756D01*
X84142617Y-58096100D01*
X84042736Y-58145278D01*
X83962765Y-58091843D01*
X83715000Y-58042560D01*
X82645000Y-58042560D01*
X82397235Y-58091843D01*
X82187191Y-58232191D01*
X82046843Y-58442235D01*
X81997560Y-58690000D01*
X73039671Y-58690000D01*
X72833523Y-58381477D01*
X72446510Y-58122885D01*
X71990000Y-58032079D01*
X71533489Y-58122885D01*
X71355000Y-58242147D01*
X71176510Y-58122885D01*
X70720000Y-58032079D01*
X70263489Y-58122885D01*
X70071849Y-58250934D01*
X69757383Y-58096100D01*
X69577000Y-58221756D01*
X69577000Y-58974032D01*
X69550000Y-59109770D01*
X69362440Y-59109770D01*
X69362440Y-58690000D01*
X69323000Y-58491720D01*
X69323000Y-58221756D01*
X69142617Y-58096100D01*
X69042736Y-58145278D01*
X68962765Y-58091843D01*
X68715000Y-58042560D01*
X67645000Y-58042560D01*
X67397235Y-58091843D01*
X67187191Y-58232191D01*
X67046843Y-58442235D01*
X66997560Y-58690000D01*
X58039671Y-58690000D01*
X57833523Y-58381477D01*
X57446510Y-58122885D01*
X56990000Y-58032079D01*
X56533489Y-58122885D01*
X56355000Y-58242147D01*
X56176510Y-58122885D01*
X55720000Y-58032079D01*
X55263489Y-58122885D01*
X55071849Y-58250934D01*
X54757383Y-58096100D01*
X54577000Y-58221756D01*
X54577000Y-58974032D01*
X54550000Y-59109770D01*
X54362440Y-59109770D01*
X54362440Y-58690000D01*
X54323000Y-58491720D01*
X54323000Y-58221756D01*
X54142617Y-58096100D01*
X54042736Y-58145278D01*
X53962765Y-58091843D01*
X53715000Y-58042560D01*
X52645000Y-58042560D01*
X52397235Y-58091843D01*
X52187191Y-58232191D01*
X52046843Y-58442235D01*
X51997560Y-58690000D01*
X39497000Y-58690000D01*
X39497000Y-54737000D01*
X206883000Y-54737000D01*
X206883000Y-74168000D01*
X206883000Y-74168000D01*
G37*
X206883000Y-74168000D02*
X133414239Y-74168000D01*
X133816086Y-73766153D01*
X134065000Y-73165222D01*
X134065000Y-72514778D01*
X133816086Y-71913847D01*
X133356153Y-71453914D01*
X133141200Y-71364877D01*
X133141200Y-67815123D01*
X133356153Y-67726086D01*
X133816086Y-67266153D01*
X134065000Y-66665222D01*
X134065000Y-66014778D01*
X134007413Y-65875750D01*
X151045000Y-65875750D01*
X151045000Y-66516310D01*
X151141673Y-66749699D01*
X151320302Y-66928327D01*
X151553691Y-67025000D01*
X152894250Y-67025000D01*
X153053000Y-66866250D01*
X153053000Y-65717000D01*
X153307000Y-65717000D01*
X153307000Y-66866250D01*
X153465750Y-67025000D01*
X154806309Y-67025000D01*
X155039698Y-66928327D01*
X155218327Y-66749699D01*
X155315000Y-66516310D01*
X155315000Y-65875750D01*
X155156250Y-65717000D01*
X153307000Y-65717000D01*
X153053000Y-65717000D01*
X151203750Y-65717000D01*
X151045000Y-65875750D01*
X134007413Y-65875750D01*
X133816086Y-65413847D01*
X133356153Y-64953914D01*
X132755222Y-64705000D01*
X132104778Y-64705000D01*
X131503847Y-64953914D01*
X131043914Y-65413847D01*
X130795000Y-66014778D01*
X130795000Y-66665222D01*
X131043914Y-67266153D01*
X131503847Y-67726086D01*
X131718800Y-67815123D01*
X131718801Y-71364877D01*
X131503847Y-71453914D01*
X131043914Y-71913847D01*
X130795000Y-72514778D01*
X130795000Y-73165222D01*
X131043914Y-73766153D01*
X131445761Y-74168000D01*
X128838052Y-74168000D01*
X128902927Y-73992532D01*
X127930000Y-73019605D01*
X126957073Y-73992532D01*
X127021948Y-74168000D01*
X118414239Y-74168000D01*
X118816086Y-73766153D01*
X119065000Y-73165222D01*
X119065000Y-72575461D01*
X126284092Y-72575461D01*
X126308144Y-73225460D01*
X126510613Y-73714264D01*
X126777468Y-73812927D01*
X127750395Y-72840000D01*
X128109605Y-72840000D01*
X129082532Y-73812927D01*
X129349387Y-73714264D01*
X129575908Y-73104539D01*
X129551856Y-72454540D01*
X129349387Y-71965736D01*
X129082532Y-71867073D01*
X128109605Y-72840000D01*
X127750395Y-72840000D01*
X126777468Y-71867073D01*
X126510613Y-71965736D01*
X126284092Y-72575461D01*
X119065000Y-72575461D01*
X119065000Y-72514778D01*
X118816086Y-71913847D01*
X118589707Y-71687468D01*
X126957073Y-71687468D01*
X127930000Y-72660395D01*
X128902927Y-71687468D01*
X128804264Y-71420613D01*
X128194539Y-71194092D01*
X127544540Y-71218144D01*
X127055736Y-71420613D01*
X126957073Y-71687468D01*
X118589707Y-71687468D01*
X118356153Y-71453914D01*
X118141200Y-71364877D01*
X118141200Y-67815123D01*
X118356153Y-67726086D01*
X118589707Y-67492532D01*
X126957073Y-67492532D01*
X127055736Y-67759387D01*
X127665461Y-67985908D01*
X128315460Y-67961856D01*
X128804264Y-67759387D01*
X128902927Y-67492532D01*
X127930000Y-66519605D01*
X126957073Y-67492532D01*
X118589707Y-67492532D01*
X118816086Y-67266153D01*
X119065000Y-66665222D01*
X119065000Y-66075461D01*
X126284092Y-66075461D01*
X126308144Y-66725460D01*
X126510613Y-67214264D01*
X126777468Y-67312927D01*
X127750395Y-66340000D01*
X128109605Y-66340000D01*
X129082532Y-67312927D01*
X129349387Y-67214264D01*
X129575908Y-66604539D01*
X129551856Y-65954540D01*
X129349387Y-65465736D01*
X129082532Y-65367073D01*
X128109605Y-66340000D01*
X127750395Y-66340000D01*
X126777468Y-65367073D01*
X126510613Y-65465736D01*
X126284092Y-66075461D01*
X119065000Y-66075461D01*
X119065000Y-66014778D01*
X118816086Y-65413847D01*
X118589707Y-65187468D01*
X126957073Y-65187468D01*
X127930000Y-66160395D01*
X128902927Y-65187468D01*
X128804264Y-64920613D01*
X128194539Y-64694092D01*
X127544540Y-64718144D01*
X127055736Y-64920613D01*
X126957073Y-65187468D01*
X118589707Y-65187468D01*
X118356153Y-64953914D01*
X117755222Y-64705000D01*
X117104778Y-64705000D01*
X116503847Y-64953914D01*
X116043914Y-65413847D01*
X115795000Y-66014778D01*
X115795000Y-66665222D01*
X116043914Y-67266153D01*
X116503847Y-67726086D01*
X116718800Y-67815123D01*
X116718801Y-71364877D01*
X116503847Y-71453914D01*
X116043914Y-71913847D01*
X115795000Y-72514778D01*
X115795000Y-73165222D01*
X116043914Y-73766153D01*
X116445761Y-74168000D01*
X113838052Y-74168000D01*
X113902927Y-73992532D01*
X112930000Y-73019605D01*
X111957073Y-73992532D01*
X112021948Y-74168000D01*
X103414239Y-74168000D01*
X103816086Y-73766153D01*
X104065000Y-73165222D01*
X104065000Y-72575461D01*
X111284092Y-72575461D01*
X111308144Y-73225460D01*
X111510613Y-73714264D01*
X111777468Y-73812927D01*
X112750395Y-72840000D01*
X113109605Y-72840000D01*
X114082532Y-73812927D01*
X114349387Y-73714264D01*
X114575908Y-73104539D01*
X114551856Y-72454540D01*
X114349387Y-71965736D01*
X114082532Y-71867073D01*
X113109605Y-72840000D01*
X112750395Y-72840000D01*
X111777468Y-71867073D01*
X111510613Y-71965736D01*
X111284092Y-72575461D01*
X104065000Y-72575461D01*
X104065000Y-72514778D01*
X103816086Y-71913847D01*
X103589707Y-71687468D01*
X111957073Y-71687468D01*
X112930000Y-72660395D01*
X113902927Y-71687468D01*
X113804264Y-71420613D01*
X113194539Y-71194092D01*
X112544540Y-71218144D01*
X112055736Y-71420613D01*
X111957073Y-71687468D01*
X103589707Y-71687468D01*
X103356153Y-71453914D01*
X103141200Y-71364877D01*
X103141200Y-67815123D01*
X103356153Y-67726086D01*
X103589707Y-67492532D01*
X111957073Y-67492532D01*
X112055736Y-67759387D01*
X112665461Y-67985908D01*
X113315460Y-67961856D01*
X113804264Y-67759387D01*
X113902927Y-67492532D01*
X112930000Y-66519605D01*
X111957073Y-67492532D01*
X103589707Y-67492532D01*
X103816086Y-67266153D01*
X104065000Y-66665222D01*
X104065000Y-66075461D01*
X111284092Y-66075461D01*
X111308144Y-66725460D01*
X111510613Y-67214264D01*
X111777468Y-67312927D01*
X112750395Y-66340000D01*
X113109605Y-66340000D01*
X114082532Y-67312927D01*
X114349387Y-67214264D01*
X114575908Y-66604539D01*
X114551856Y-65954540D01*
X114349387Y-65465736D01*
X114082532Y-65367073D01*
X113109605Y-66340000D01*
X112750395Y-66340000D01*
X111777468Y-65367073D01*
X111510613Y-65465736D01*
X111284092Y-66075461D01*
X104065000Y-66075461D01*
X104065000Y-66014778D01*
X103816086Y-65413847D01*
X103589707Y-65187468D01*
X111957073Y-65187468D01*
X112930000Y-66160395D01*
X113902927Y-65187468D01*
X113804264Y-64920613D01*
X113194539Y-64694092D01*
X112544540Y-64718144D01*
X112055736Y-64920613D01*
X111957073Y-65187468D01*
X103589707Y-65187468D01*
X103356153Y-64953914D01*
X102755222Y-64705000D01*
X102104778Y-64705000D01*
X101503847Y-64953914D01*
X101043914Y-65413847D01*
X100795000Y-66014778D01*
X100795000Y-66665222D01*
X101043914Y-67266153D01*
X101503847Y-67726086D01*
X101718800Y-67815123D01*
X101718801Y-71364877D01*
X101503847Y-71453914D01*
X101043914Y-71913847D01*
X100795000Y-72514778D01*
X100795000Y-73165222D01*
X101043914Y-73766153D01*
X101445761Y-74168000D01*
X98838052Y-74168000D01*
X98902927Y-73992532D01*
X97930000Y-73019605D01*
X96957073Y-73992532D01*
X97021948Y-74168000D01*
X88414239Y-74168000D01*
X88816086Y-73766153D01*
X89065000Y-73165222D01*
X89065000Y-72575461D01*
X96284092Y-72575461D01*
X96308144Y-73225460D01*
X96510613Y-73714264D01*
X96777468Y-73812927D01*
X97750395Y-72840000D01*
X98109605Y-72840000D01*
X99082532Y-73812927D01*
X99349387Y-73714264D01*
X99575908Y-73104539D01*
X99551856Y-72454540D01*
X99349387Y-71965736D01*
X99082532Y-71867073D01*
X98109605Y-72840000D01*
X97750395Y-72840000D01*
X96777468Y-71867073D01*
X96510613Y-71965736D01*
X96284092Y-72575461D01*
X89065000Y-72575461D01*
X89065000Y-72514778D01*
X88816086Y-71913847D01*
X88589707Y-71687468D01*
X96957073Y-71687468D01*
X97930000Y-72660395D01*
X98902927Y-71687468D01*
X98804264Y-71420613D01*
X98194539Y-71194092D01*
X97544540Y-71218144D01*
X97055736Y-71420613D01*
X96957073Y-71687468D01*
X88589707Y-71687468D01*
X88356153Y-71453914D01*
X88141200Y-71364877D01*
X88141200Y-67815123D01*
X88356153Y-67726086D01*
X88589707Y-67492532D01*
X96957073Y-67492532D01*
X97055736Y-67759387D01*
X97665461Y-67985908D01*
X98315460Y-67961856D01*
X98804264Y-67759387D01*
X98902927Y-67492532D01*
X97930000Y-66519605D01*
X96957073Y-67492532D01*
X88589707Y-67492532D01*
X88816086Y-67266153D01*
X89065000Y-66665222D01*
X89065000Y-66075461D01*
X96284092Y-66075461D01*
X96308144Y-66725460D01*
X96510613Y-67214264D01*
X96777468Y-67312927D01*
X97750395Y-66340000D01*
X98109605Y-66340000D01*
X99082532Y-67312927D01*
X99349387Y-67214264D01*
X99575908Y-66604539D01*
X99551856Y-65954540D01*
X99349387Y-65465736D01*
X99082532Y-65367073D01*
X98109605Y-66340000D01*
X97750395Y-66340000D01*
X96777468Y-65367073D01*
X96510613Y-65465736D01*
X96284092Y-66075461D01*
X89065000Y-66075461D01*
X89065000Y-66014778D01*
X88816086Y-65413847D01*
X88589707Y-65187468D01*
X96957073Y-65187468D01*
X97930000Y-66160395D01*
X98902927Y-65187468D01*
X98804264Y-64920613D01*
X98194539Y-64694092D01*
X97544540Y-64718144D01*
X97055736Y-64920613D01*
X96957073Y-65187468D01*
X88589707Y-65187468D01*
X88356153Y-64953914D01*
X87755222Y-64705000D01*
X87104778Y-64705000D01*
X86503847Y-64953914D01*
X86043914Y-65413847D01*
X85795000Y-66014778D01*
X85795000Y-66665222D01*
X86043914Y-67266153D01*
X86503847Y-67726086D01*
X86718800Y-67815123D01*
X86718801Y-71364877D01*
X86503847Y-71453914D01*
X86043914Y-71913847D01*
X85795000Y-72514778D01*
X85795000Y-73165222D01*
X86043914Y-73766153D01*
X86445761Y-74168000D01*
X83838052Y-74168000D01*
X83902927Y-73992532D01*
X82930000Y-73019605D01*
X81957073Y-73992532D01*
X82021948Y-74168000D01*
X73414239Y-74168000D01*
X73816086Y-73766153D01*
X74065000Y-73165222D01*
X74065000Y-72575461D01*
X81284092Y-72575461D01*
X81308144Y-73225460D01*
X81510613Y-73714264D01*
X81777468Y-73812927D01*
X82750395Y-72840000D01*
X83109605Y-72840000D01*
X84082532Y-73812927D01*
X84349387Y-73714264D01*
X84575908Y-73104539D01*
X84551856Y-72454540D01*
X84349387Y-71965736D01*
X84082532Y-71867073D01*
X83109605Y-72840000D01*
X82750395Y-72840000D01*
X81777468Y-71867073D01*
X81510613Y-71965736D01*
X81284092Y-72575461D01*
X74065000Y-72575461D01*
X74065000Y-72514778D01*
X73816086Y-71913847D01*
X73589707Y-71687468D01*
X81957073Y-71687468D01*
X82930000Y-72660395D01*
X83902927Y-71687468D01*
X83804264Y-71420613D01*
X83194539Y-71194092D01*
X82544540Y-71218144D01*
X82055736Y-71420613D01*
X81957073Y-71687468D01*
X73589707Y-71687468D01*
X73356153Y-71453914D01*
X73141200Y-71364877D01*
X73141200Y-67815123D01*
X73356153Y-67726086D01*
X73589707Y-67492532D01*
X81957073Y-67492532D01*
X82055736Y-67759387D01*
X82665461Y-67985908D01*
X83315460Y-67961856D01*
X83804264Y-67759387D01*
X83902927Y-67492532D01*
X82930000Y-66519605D01*
X81957073Y-67492532D01*
X73589707Y-67492532D01*
X73816086Y-67266153D01*
X74065000Y-66665222D01*
X74065000Y-66075461D01*
X81284092Y-66075461D01*
X81308144Y-66725460D01*
X81510613Y-67214264D01*
X81777468Y-67312927D01*
X82750395Y-66340000D01*
X83109605Y-66340000D01*
X84082532Y-67312927D01*
X84349387Y-67214264D01*
X84575908Y-66604539D01*
X84551856Y-65954540D01*
X84349387Y-65465736D01*
X84082532Y-65367073D01*
X83109605Y-66340000D01*
X82750395Y-66340000D01*
X81777468Y-65367073D01*
X81510613Y-65465736D01*
X81284092Y-66075461D01*
X74065000Y-66075461D01*
X74065000Y-66014778D01*
X73816086Y-65413847D01*
X73589707Y-65187468D01*
X81957073Y-65187468D01*
X82930000Y-66160395D01*
X83902927Y-65187468D01*
X83804264Y-64920613D01*
X83194539Y-64694092D01*
X82544540Y-64718144D01*
X82055736Y-64920613D01*
X81957073Y-65187468D01*
X73589707Y-65187468D01*
X73356153Y-64953914D01*
X72755222Y-64705000D01*
X72104778Y-64705000D01*
X71503847Y-64953914D01*
X71043914Y-65413847D01*
X70795000Y-66014778D01*
X70795000Y-66665222D01*
X71043914Y-67266153D01*
X71503847Y-67726086D01*
X71718800Y-67815123D01*
X71718801Y-71364877D01*
X71503847Y-71453914D01*
X71043914Y-71913847D01*
X70795000Y-72514778D01*
X70795000Y-73165222D01*
X71043914Y-73766153D01*
X71445761Y-74168000D01*
X68838052Y-74168000D01*
X68902927Y-73992532D01*
X67930000Y-73019605D01*
X66957073Y-73992532D01*
X67021948Y-74168000D01*
X58414239Y-74168000D01*
X58816086Y-73766153D01*
X59065000Y-73165222D01*
X59065000Y-72575461D01*
X66284092Y-72575461D01*
X66308144Y-73225460D01*
X66510613Y-73714264D01*
X66777468Y-73812927D01*
X67750395Y-72840000D01*
X68109605Y-72840000D01*
X69082532Y-73812927D01*
X69349387Y-73714264D01*
X69575908Y-73104539D01*
X69551856Y-72454540D01*
X69349387Y-71965736D01*
X69082532Y-71867073D01*
X68109605Y-72840000D01*
X67750395Y-72840000D01*
X66777468Y-71867073D01*
X66510613Y-71965736D01*
X66284092Y-72575461D01*
X59065000Y-72575461D01*
X59065000Y-72514778D01*
X58816086Y-71913847D01*
X58589707Y-71687468D01*
X66957073Y-71687468D01*
X67930000Y-72660395D01*
X68902927Y-71687468D01*
X68804264Y-71420613D01*
X68194539Y-71194092D01*
X67544540Y-71218144D01*
X67055736Y-71420613D01*
X66957073Y-71687468D01*
X58589707Y-71687468D01*
X58356153Y-71453914D01*
X58141200Y-71364877D01*
X58141200Y-67815123D01*
X58356153Y-67726086D01*
X58589707Y-67492532D01*
X66957073Y-67492532D01*
X67055736Y-67759387D01*
X67665461Y-67985908D01*
X68315460Y-67961856D01*
X68804264Y-67759387D01*
X68902927Y-67492532D01*
X67930000Y-66519605D01*
X66957073Y-67492532D01*
X58589707Y-67492532D01*
X58816086Y-67266153D01*
X59065000Y-66665222D01*
X59065000Y-66075461D01*
X66284092Y-66075461D01*
X66308144Y-66725460D01*
X66510613Y-67214264D01*
X66777468Y-67312927D01*
X67750395Y-66340000D01*
X68109605Y-66340000D01*
X69082532Y-67312927D01*
X69349387Y-67214264D01*
X69575908Y-66604539D01*
X69551856Y-65954540D01*
X69349387Y-65465736D01*
X69082532Y-65367073D01*
X68109605Y-66340000D01*
X67750395Y-66340000D01*
X66777468Y-65367073D01*
X66510613Y-65465736D01*
X66284092Y-66075461D01*
X59065000Y-66075461D01*
X59065000Y-66014778D01*
X58816086Y-65413847D01*
X58589707Y-65187468D01*
X66957073Y-65187468D01*
X67930000Y-66160395D01*
X68902927Y-65187468D01*
X68804264Y-64920613D01*
X68194539Y-64694092D01*
X67544540Y-64718144D01*
X67055736Y-64920613D01*
X66957073Y-65187468D01*
X58589707Y-65187468D01*
X58356153Y-64953914D01*
X57755222Y-64705000D01*
X57104778Y-64705000D01*
X56503847Y-64953914D01*
X56043914Y-65413847D01*
X55795000Y-66014778D01*
X55795000Y-66665222D01*
X56043914Y-67266153D01*
X56503847Y-67726086D01*
X56718801Y-67815123D01*
X56718800Y-71364877D01*
X56503847Y-71453914D01*
X56043914Y-71913847D01*
X55795000Y-72514778D01*
X55795000Y-73165222D01*
X56043914Y-73766153D01*
X56445761Y-74168000D01*
X53838052Y-74168000D01*
X53902927Y-73992532D01*
X52930000Y-73019605D01*
X51957073Y-73992532D01*
X52021948Y-74168000D01*
X39497000Y-74168000D01*
X39497000Y-72575461D01*
X51284092Y-72575461D01*
X51308144Y-73225460D01*
X51510613Y-73714264D01*
X51777468Y-73812927D01*
X52750395Y-72840000D01*
X53109605Y-72840000D01*
X54082532Y-73812927D01*
X54349387Y-73714264D01*
X54575908Y-73104539D01*
X54551856Y-72454540D01*
X54349387Y-71965736D01*
X54082532Y-71867073D01*
X53109605Y-72840000D01*
X52750395Y-72840000D01*
X51777468Y-71867073D01*
X51510613Y-71965736D01*
X51284092Y-72575461D01*
X39497000Y-72575461D01*
X39497000Y-71687468D01*
X51957073Y-71687468D01*
X52930000Y-72660395D01*
X53902927Y-71687468D01*
X53804264Y-71420613D01*
X53194539Y-71194092D01*
X52544540Y-71218144D01*
X52055736Y-71420613D01*
X51957073Y-71687468D01*
X39497000Y-71687468D01*
X39497000Y-67492532D01*
X51957073Y-67492532D01*
X52055736Y-67759387D01*
X52665461Y-67985908D01*
X53315460Y-67961856D01*
X53804264Y-67759387D01*
X53902927Y-67492532D01*
X52930000Y-66519605D01*
X51957073Y-67492532D01*
X39497000Y-67492532D01*
X39497000Y-64215050D01*
X40295000Y-64215050D01*
X40295000Y-64964950D01*
X40581974Y-65657767D01*
X41112233Y-66188026D01*
X41805050Y-66475000D01*
X42554950Y-66475000D01*
X43247767Y-66188026D01*
X43360332Y-66075461D01*
X51284092Y-66075461D01*
X51308144Y-66725460D01*
X51510613Y-67214264D01*
X51777468Y-67312927D01*
X52750395Y-66340000D01*
X53109605Y-66340000D01*
X54082532Y-67312927D01*
X54349387Y-67214264D01*
X54575908Y-66604539D01*
X54551856Y-65954540D01*
X54349387Y-65465736D01*
X54082532Y-65367073D01*
X53109605Y-66340000D01*
X52750395Y-66340000D01*
X51777468Y-65367073D01*
X51510613Y-65465736D01*
X51284092Y-66075461D01*
X43360332Y-66075461D01*
X43778026Y-65657767D01*
X43972830Y-65187468D01*
X51957073Y-65187468D01*
X52930000Y-66160395D01*
X53902927Y-65187468D01*
X53804264Y-64920613D01*
X53194539Y-64694092D01*
X52544540Y-64718144D01*
X52055736Y-64920613D01*
X51957073Y-65187468D01*
X43972830Y-65187468D01*
X44065000Y-64964950D01*
X44065000Y-64663690D01*
X151045000Y-64663690D01*
X151045000Y-65304250D01*
X151203750Y-65463000D01*
X153053000Y-65463000D01*
X153053000Y-64313750D01*
X153307000Y-64313750D01*
X153307000Y-65463000D01*
X155156250Y-65463000D01*
X155315000Y-65304250D01*
X155315000Y-64663690D01*
X155218327Y-64430301D01*
X155039698Y-64251673D01*
X154806309Y-64155000D01*
X153465750Y-64155000D01*
X153307000Y-64313750D01*
X153053000Y-64313750D01*
X152894250Y-64155000D01*
X151553691Y-64155000D01*
X151320302Y-64251673D01*
X151141673Y-64430301D01*
X151045000Y-64663690D01*
X44065000Y-64663690D01*
X44065000Y-64215050D01*
X43778026Y-63522233D01*
X43247767Y-62991974D01*
X42554950Y-62705000D01*
X41805050Y-62705000D01*
X41112233Y-62991974D01*
X40581974Y-63522233D01*
X40295000Y-64215050D01*
X39497000Y-64215050D01*
X39497000Y-58690000D01*
X51997560Y-58690000D01*
X51997560Y-60490000D01*
X52046843Y-60737765D01*
X52187191Y-60947809D01*
X52397235Y-61088157D01*
X52645000Y-61137440D01*
X53715000Y-61137440D01*
X53962765Y-61088157D01*
X54042736Y-61034722D01*
X54142617Y-61083900D01*
X54323000Y-60958244D01*
X54323000Y-60688280D01*
X54362440Y-60490000D01*
X54362440Y-59109770D01*
X54550000Y-59109770D01*
X54550000Y-60070231D01*
X54577000Y-60205969D01*
X54577000Y-60958244D01*
X54757383Y-61083900D01*
X55071850Y-60929066D01*
X55263490Y-61057115D01*
X55720000Y-61147921D01*
X56176511Y-61057115D01*
X56355001Y-60937853D01*
X56533490Y-61057115D01*
X56990000Y-61147921D01*
X57446511Y-61057115D01*
X57833523Y-60798523D01*
X58092115Y-60411511D01*
X58160000Y-60070230D01*
X58160000Y-59109769D01*
X58092115Y-58768489D01*
X58039671Y-58690000D01*
X66997560Y-58690000D01*
X66997560Y-60490000D01*
X67046843Y-60737765D01*
X67187191Y-60947809D01*
X67397235Y-61088157D01*
X67645000Y-61137440D01*
X68715000Y-61137440D01*
X68962765Y-61088157D01*
X69042736Y-61034722D01*
X69142617Y-61083900D01*
X69323000Y-60958244D01*
X69323000Y-60688280D01*
X69362440Y-60490000D01*
X69362440Y-59109770D01*
X69550000Y-59109770D01*
X69550000Y-60070231D01*
X69577000Y-60205969D01*
X69577000Y-60958244D01*
X69757383Y-61083900D01*
X70071850Y-60929066D01*
X70263490Y-61057115D01*
X70720000Y-61147921D01*
X71176511Y-61057115D01*
X71355001Y-60937853D01*
X71533490Y-61057115D01*
X71990000Y-61147921D01*
X72446511Y-61057115D01*
X72833523Y-60798523D01*
X73092115Y-60411511D01*
X73160000Y-60070230D01*
X73160000Y-59109769D01*
X73092115Y-58768489D01*
X73039671Y-58690000D01*
X81997560Y-58690000D01*
X81997560Y-60490000D01*
X82046843Y-60737765D01*
X82187191Y-60947809D01*
X82397235Y-61088157D01*
X82645000Y-61137440D01*
X83715000Y-61137440D01*
X83962765Y-61088157D01*
X84042736Y-61034722D01*
X84142617Y-61083900D01*
X84323000Y-60958244D01*
X84323000Y-60688280D01*
X84362440Y-60490000D01*
X84362440Y-59109770D01*
X84550000Y-59109770D01*
X84550000Y-60070231D01*
X84577000Y-60205969D01*
X84577000Y-60958244D01*
X84757383Y-61083900D01*
X85071850Y-60929066D01*
X85263490Y-61057115D01*
X85720000Y-61147921D01*
X86176511Y-61057115D01*
X86355001Y-60937853D01*
X86533490Y-61057115D01*
X86990000Y-61147921D01*
X87446511Y-61057115D01*
X87833523Y-60798523D01*
X88092115Y-60411511D01*
X88160000Y-60070230D01*
X88160000Y-59109769D01*
X88092115Y-58768489D01*
X88039671Y-58690000D01*
X96997560Y-58690000D01*
X96997560Y-60490000D01*
X97046843Y-60737765D01*
X97187191Y-60947809D01*
X97397235Y-61088157D01*
X97645000Y-61137440D01*
X98715000Y-61137440D01*
X98962765Y-61088157D01*
X99042736Y-61034722D01*
X99142617Y-61083900D01*
X99323000Y-60958244D01*
X99323000Y-60688280D01*
X99362440Y-60490000D01*
X99362440Y-59109770D01*
X99550000Y-59109770D01*
X99550000Y-60070231D01*
X99577000Y-60205969D01*
X99577000Y-60958244D01*
X99757383Y-61083900D01*
X100071850Y-60929066D01*
X100263490Y-61057115D01*
X100720000Y-61147921D01*
X101176511Y-61057115D01*
X101355001Y-60937853D01*
X101533490Y-61057115D01*
X101990000Y-61147921D01*
X102446511Y-61057115D01*
X102833523Y-60798523D01*
X103092115Y-60411511D01*
X103160000Y-60070230D01*
X103160000Y-59109769D01*
X103092115Y-58768489D01*
X103039671Y-58690000D01*
X111997560Y-58690000D01*
X111997560Y-60490000D01*
X112046843Y-60737765D01*
X112187191Y-60947809D01*
X112397235Y-61088157D01*
X112645000Y-61137440D01*
X113715000Y-61137440D01*
X113962765Y-61088157D01*
X114042736Y-61034722D01*
X114142617Y-61083900D01*
X114323000Y-60958244D01*
X114323000Y-60688280D01*
X114362440Y-60490000D01*
X114362440Y-59109770D01*
X114550000Y-59109770D01*
X114550000Y-60070231D01*
X114577000Y-60205969D01*
X114577000Y-60958244D01*
X114757383Y-61083900D01*
X115071850Y-60929066D01*
X115263490Y-61057115D01*
X115720000Y-61147921D01*
X116176511Y-61057115D01*
X116355001Y-60937853D01*
X116533490Y-61057115D01*
X116990000Y-61147921D01*
X117446511Y-61057115D01*
X117833523Y-60798523D01*
X118092115Y-60411511D01*
X118160000Y-60070230D01*
X118160000Y-59109769D01*
X118092115Y-58768489D01*
X118039671Y-58690000D01*
X126997560Y-58690000D01*
X126997560Y-60490000D01*
X127046843Y-60737765D01*
X127187191Y-60947809D01*
X127397235Y-61088157D01*
X127645000Y-61137440D01*
X128715000Y-61137440D01*
X128962765Y-61088157D01*
X129042736Y-61034722D01*
X129142617Y-61083900D01*
X129323000Y-60958244D01*
X129323000Y-60688280D01*
X129362440Y-60490000D01*
X129362440Y-59109770D01*
X129550000Y-59109770D01*
X129550000Y-60070231D01*
X129577000Y-60205969D01*
X129577000Y-60958244D01*
X129757383Y-61083900D01*
X130071850Y-60929066D01*
X130263490Y-61057115D01*
X130720000Y-61147921D01*
X131176511Y-61057115D01*
X131355001Y-60937853D01*
X131533490Y-61057115D01*
X131990000Y-61147921D01*
X132446511Y-61057115D01*
X132833523Y-60798523D01*
X133092115Y-60411511D01*
X133160000Y-60070230D01*
X133160000Y-59109769D01*
X133092115Y-58768489D01*
X133039671Y-58690000D01*
X151997560Y-58690000D01*
X151997560Y-60490000D01*
X152046843Y-60737765D01*
X152187191Y-60947809D01*
X152397235Y-61088157D01*
X152645000Y-61137440D01*
X153715000Y-61137440D01*
X153962765Y-61088157D01*
X154042736Y-61034722D01*
X154142617Y-61083900D01*
X154323000Y-60958244D01*
X154323000Y-60688280D01*
X154362440Y-60490000D01*
X154362440Y-59109770D01*
X154550000Y-59109770D01*
X154550000Y-60070231D01*
X154577000Y-60205969D01*
X154577000Y-60958244D01*
X154757383Y-61083900D01*
X155008801Y-60960109D01*
X155008800Y-62707558D01*
X154994868Y-62777600D01*
X155008800Y-62847641D01*
X155008800Y-62847645D01*
X155050064Y-63055095D01*
X155050065Y-63055096D01*
X155167576Y-63230964D01*
X155167578Y-63230966D01*
X155207254Y-63290345D01*
X155266634Y-63330022D01*
X156079309Y-64142697D01*
X155832235Y-64191843D01*
X155622191Y-64332191D01*
X155481843Y-64542235D01*
X155432560Y-64790000D01*
X155432560Y-66390000D01*
X155481843Y-66637765D01*
X155622191Y-66847809D01*
X155832235Y-66988157D01*
X156080000Y-67037440D01*
X159080000Y-67037440D01*
X159327765Y-66988157D01*
X159537809Y-66847809D01*
X159678157Y-66637765D01*
X159727440Y-66390000D01*
X159727440Y-64790000D01*
X159678157Y-64542235D01*
X159537809Y-64332191D01*
X159327765Y-64191843D01*
X159080000Y-64142560D01*
X158104577Y-64142560D01*
X158092746Y-64124854D01*
X158033367Y-64085178D01*
X156587423Y-62639234D01*
X173871000Y-62639234D01*
X173871000Y-63090766D01*
X174043793Y-63507926D01*
X174363074Y-63827207D01*
X174780234Y-64000000D01*
X175231766Y-64000000D01*
X175648926Y-63827207D01*
X175968207Y-63507926D01*
X176141000Y-63090766D01*
X176141000Y-62941200D01*
X179558193Y-62941200D01*
X179447041Y-63500000D01*
X179563350Y-64084725D01*
X179894570Y-64580430D01*
X180178281Y-64770000D01*
X179894570Y-64959570D01*
X179563350Y-65455275D01*
X179447041Y-66040000D01*
X179563350Y-66624725D01*
X179894570Y-67120430D01*
X180390275Y-67451650D01*
X180827402Y-67538600D01*
X181122598Y-67538600D01*
X181533800Y-67456807D01*
X181533800Y-68448067D01*
X181282793Y-68699074D01*
X181110000Y-69116234D01*
X181110000Y-69567766D01*
X181282793Y-69984926D01*
X181602074Y-70304207D01*
X182019234Y-70477000D01*
X182470766Y-70477000D01*
X182887926Y-70304207D01*
X183207207Y-69984926D01*
X183371619Y-69588000D01*
X183740766Y-69588000D01*
X184157926Y-69415207D01*
X184477207Y-69095926D01*
X184650000Y-68678766D01*
X184650000Y-68227234D01*
X184477207Y-67810074D01*
X184226200Y-67559067D01*
X184226200Y-67367142D01*
X184595430Y-67120430D01*
X184926650Y-66624725D01*
X185042959Y-66040000D01*
X184926650Y-65455275D01*
X184595430Y-64959570D01*
X184311719Y-64770000D01*
X184595430Y-64580430D01*
X184842142Y-64211200D01*
X185019867Y-64211200D01*
X185270874Y-64462207D01*
X185688034Y-64635000D01*
X186139566Y-64635000D01*
X186556726Y-64462207D01*
X186803883Y-64215050D01*
X202295000Y-64215050D01*
X202295000Y-64964950D01*
X202581974Y-65657767D01*
X203112233Y-66188026D01*
X203805050Y-66475000D01*
X204554950Y-66475000D01*
X205247767Y-66188026D01*
X205778026Y-65657767D01*
X206065000Y-64964950D01*
X206065000Y-64215050D01*
X205778026Y-63522233D01*
X205247767Y-62991974D01*
X204554950Y-62705000D01*
X203805050Y-62705000D01*
X203112233Y-62991974D01*
X202581974Y-63522233D01*
X202295000Y-64215050D01*
X186803883Y-64215050D01*
X186876007Y-64142926D01*
X187048800Y-63725766D01*
X187048800Y-63274234D01*
X186876007Y-62857074D01*
X186556726Y-62537793D01*
X186139566Y-62365000D01*
X185688034Y-62365000D01*
X185270874Y-62537793D01*
X185019867Y-62788800D01*
X184842142Y-62788800D01*
X184596233Y-62420772D01*
X184738298Y-62361927D01*
X184916927Y-62183299D01*
X185013600Y-61949910D01*
X185013600Y-61245750D01*
X184854850Y-61087000D01*
X183642000Y-61087000D01*
X183642000Y-61107000D01*
X183388000Y-61107000D01*
X183388000Y-61087000D01*
X183368000Y-61087000D01*
X183368000Y-60833000D01*
X183388000Y-60833000D01*
X183388000Y-59620150D01*
X183642000Y-59620150D01*
X183642000Y-60833000D01*
X184854850Y-60833000D01*
X185013600Y-60674250D01*
X185013600Y-59970090D01*
X184916927Y-59736701D01*
X184738298Y-59558073D01*
X184504909Y-59461400D01*
X183800750Y-59461400D01*
X183642000Y-59620150D01*
X183388000Y-59620150D01*
X183229250Y-59461400D01*
X182525091Y-59461400D01*
X182291702Y-59558073D01*
X182113073Y-59736701D01*
X182054227Y-59878766D01*
X181686200Y-59632858D01*
X181686200Y-59172723D01*
X181937207Y-58921716D01*
X182110000Y-58504556D01*
X182110000Y-58053024D01*
X181937207Y-57635864D01*
X181617926Y-57316583D01*
X181200766Y-57143790D01*
X180749234Y-57143790D01*
X180332074Y-57316583D01*
X180012793Y-57635864D01*
X179840000Y-58053024D01*
X179840000Y-58504556D01*
X180012793Y-58921716D01*
X180263801Y-59172724D01*
X180263800Y-59632858D01*
X179894570Y-59879570D01*
X179563350Y-60375275D01*
X179447041Y-60960000D01*
X179558193Y-61518800D01*
X175711042Y-61518800D01*
X175641000Y-61504868D01*
X175570958Y-61518800D01*
X175570954Y-61518800D01*
X175363504Y-61560064D01*
X175363502Y-61560065D01*
X175363503Y-61560065D01*
X175187635Y-61677576D01*
X175187633Y-61677578D01*
X175128254Y-61717254D01*
X175119737Y-61730000D01*
X174780234Y-61730000D01*
X174363074Y-61902793D01*
X174043793Y-62222074D01*
X173871000Y-62639234D01*
X156587423Y-62639234D01*
X156431200Y-62483012D01*
X156431200Y-60988767D01*
X156533490Y-61057115D01*
X156990000Y-61147921D01*
X157446511Y-61057115D01*
X157833523Y-60798523D01*
X158092115Y-60411511D01*
X158160000Y-60070230D01*
X158160000Y-59109769D01*
X158092115Y-58768489D01*
X157833523Y-58381477D01*
X157446510Y-58122885D01*
X156990000Y-58032079D01*
X156533489Y-58122885D01*
X156355000Y-58242147D01*
X156176510Y-58122885D01*
X155720000Y-58032079D01*
X155263489Y-58122885D01*
X155071849Y-58250934D01*
X154757383Y-58096100D01*
X154577000Y-58221756D01*
X154577000Y-58974032D01*
X154550000Y-59109770D01*
X154362440Y-59109770D01*
X154362440Y-58690000D01*
X154323000Y-58491720D01*
X154323000Y-58221756D01*
X154142617Y-58096100D01*
X154042736Y-58145278D01*
X153962765Y-58091843D01*
X153715000Y-58042560D01*
X152645000Y-58042560D01*
X152397235Y-58091843D01*
X152187191Y-58232191D01*
X152046843Y-58442235D01*
X151997560Y-58690000D01*
X133039671Y-58690000D01*
X132833523Y-58381477D01*
X132446510Y-58122885D01*
X131990000Y-58032079D01*
X131533489Y-58122885D01*
X131355000Y-58242147D01*
X131176510Y-58122885D01*
X130720000Y-58032079D01*
X130263489Y-58122885D01*
X130071849Y-58250934D01*
X129757383Y-58096100D01*
X129577000Y-58221756D01*
X129577000Y-58974032D01*
X129550000Y-59109770D01*
X129362440Y-59109770D01*
X129362440Y-58690000D01*
X129323000Y-58491720D01*
X129323000Y-58221756D01*
X129142617Y-58096100D01*
X129042736Y-58145278D01*
X128962765Y-58091843D01*
X128715000Y-58042560D01*
X127645000Y-58042560D01*
X127397235Y-58091843D01*
X127187191Y-58232191D01*
X127046843Y-58442235D01*
X126997560Y-58690000D01*
X118039671Y-58690000D01*
X117833523Y-58381477D01*
X117446510Y-58122885D01*
X116990000Y-58032079D01*
X116533489Y-58122885D01*
X116355000Y-58242147D01*
X116176510Y-58122885D01*
X115720000Y-58032079D01*
X115263489Y-58122885D01*
X115071849Y-58250934D01*
X114757383Y-58096100D01*
X114577000Y-58221756D01*
X114577000Y-58974032D01*
X114550000Y-59109770D01*
X114362440Y-59109770D01*
X114362440Y-58690000D01*
X114323000Y-58491720D01*
X114323000Y-58221756D01*
X114142617Y-58096100D01*
X114042736Y-58145278D01*
X113962765Y-58091843D01*
X113715000Y-58042560D01*
X112645000Y-58042560D01*
X112397235Y-58091843D01*
X112187191Y-58232191D01*
X112046843Y-58442235D01*
X111997560Y-58690000D01*
X103039671Y-58690000D01*
X102833523Y-58381477D01*
X102446510Y-58122885D01*
X101990000Y-58032079D01*
X101533489Y-58122885D01*
X101355000Y-58242147D01*
X101176510Y-58122885D01*
X100720000Y-58032079D01*
X100263489Y-58122885D01*
X100071849Y-58250934D01*
X99757383Y-58096100D01*
X99577000Y-58221756D01*
X99577000Y-58974032D01*
X99550000Y-59109770D01*
X99362440Y-59109770D01*
X99362440Y-58690000D01*
X99323000Y-58491720D01*
X99323000Y-58221756D01*
X99142617Y-58096100D01*
X99042736Y-58145278D01*
X98962765Y-58091843D01*
X98715000Y-58042560D01*
X97645000Y-58042560D01*
X97397235Y-58091843D01*
X97187191Y-58232191D01*
X97046843Y-58442235D01*
X96997560Y-58690000D01*
X88039671Y-58690000D01*
X87833523Y-58381477D01*
X87446510Y-58122885D01*
X86990000Y-58032079D01*
X86533489Y-58122885D01*
X86355000Y-58242147D01*
X86176510Y-58122885D01*
X85720000Y-58032079D01*
X85263489Y-58122885D01*
X85071849Y-58250934D01*
X84757383Y-58096100D01*
X84577000Y-58221756D01*
X84577000Y-58974032D01*
X84550000Y-59109770D01*
X84362440Y-59109770D01*
X84362440Y-58690000D01*
X84323000Y-58491720D01*
X84323000Y-58221756D01*
X84142617Y-58096100D01*
X84042736Y-58145278D01*
X83962765Y-58091843D01*
X83715000Y-58042560D01*
X82645000Y-58042560D01*
X82397235Y-58091843D01*
X82187191Y-58232191D01*
X82046843Y-58442235D01*
X81997560Y-58690000D01*
X73039671Y-58690000D01*
X72833523Y-58381477D01*
X72446510Y-58122885D01*
X71990000Y-58032079D01*
X71533489Y-58122885D01*
X71355000Y-58242147D01*
X71176510Y-58122885D01*
X70720000Y-58032079D01*
X70263489Y-58122885D01*
X70071849Y-58250934D01*
X69757383Y-58096100D01*
X69577000Y-58221756D01*
X69577000Y-58974032D01*
X69550000Y-59109770D01*
X69362440Y-59109770D01*
X69362440Y-58690000D01*
X69323000Y-58491720D01*
X69323000Y-58221756D01*
X69142617Y-58096100D01*
X69042736Y-58145278D01*
X68962765Y-58091843D01*
X68715000Y-58042560D01*
X67645000Y-58042560D01*
X67397235Y-58091843D01*
X67187191Y-58232191D01*
X67046843Y-58442235D01*
X66997560Y-58690000D01*
X58039671Y-58690000D01*
X57833523Y-58381477D01*
X57446510Y-58122885D01*
X56990000Y-58032079D01*
X56533489Y-58122885D01*
X56355000Y-58242147D01*
X56176510Y-58122885D01*
X55720000Y-58032079D01*
X55263489Y-58122885D01*
X55071849Y-58250934D01*
X54757383Y-58096100D01*
X54577000Y-58221756D01*
X54577000Y-58974032D01*
X54550000Y-59109770D01*
X54362440Y-59109770D01*
X54362440Y-58690000D01*
X54323000Y-58491720D01*
X54323000Y-58221756D01*
X54142617Y-58096100D01*
X54042736Y-58145278D01*
X53962765Y-58091843D01*
X53715000Y-58042560D01*
X52645000Y-58042560D01*
X52397235Y-58091843D01*
X52187191Y-58232191D01*
X52046843Y-58442235D01*
X51997560Y-58690000D01*
X39497000Y-58690000D01*
X39497000Y-54737000D01*
X206883000Y-54737000D01*
X206883000Y-74168000D01*
D31*
X115062000Y-83820000D03*
X156591003Y-81025997D03*
X192659012Y-80010000D03*
X175006000Y-100203000D03*
X174117000Y-80010000D03*
X160020000Y-109220000D03*
X161290000Y-60325000D03*
X156083000Y-88011000D03*
X160575969Y-88104241D03*
X191770000Y-103124000D03*
X184150000Y-103124000D03*
X180975000Y-58278790D03*
X175006000Y-62865000D03*
X185913800Y-63500000D03*
X164352210Y-85090000D03*
X164338000Y-87629994D03*
X183515000Y-68453000D03*
X182245000Y-69342000D03*
X164352210Y-86360000D03*
X153035000Y-91440000D03*
X142240000Y-91440000D03*
X153035000Y-93345000D03*
X142240000Y-93345000D03*
X58293000Y-100584000D03*
X63373000Y-100584000D03*
X88773000Y-82804000D03*
X88773000Y-100584000D03*
X83693000Y-82804000D03*
X87430000Y-72840000D03*
X82930000Y-72840000D03*
X87430000Y-66340000D03*
X82930000Y-66340000D03*
X136525000Y-133350000D03*
X136525000Y-128350000D03*
X136525000Y-108350000D03*
X144025000Y-108350000D03*
X144025000Y-128350000D03*
X144025000Y-133350000D03*
X102990000Y-133350000D03*
X102990000Y-128350000D03*
X102990000Y-108350000D03*
X110490000Y-108350000D03*
X110490000Y-128350000D03*
X110490000Y-133350000D03*
X86480000Y-133350000D03*
X86480000Y-128350000D03*
X86480000Y-108350000D03*
X93980000Y-108350000D03*
X93980000Y-128350000D03*
X93980000Y-133350000D03*
X194691000Y-97663000D03*
X194691000Y-95123000D03*
X131990000Y-59590000D03*
X130720000Y-59590000D03*
X129450000Y-59590000D03*
X128180000Y-59590000D03*
X144780000Y-84328000D03*
X144780000Y-81788000D03*
X147320000Y-84328000D03*
X147320000Y-81788000D03*
X149860000Y-84328000D03*
X149860000Y-81788000D03*
X49805000Y-99575000D03*
X52705000Y-92075000D03*
X180975000Y-66040000D03*
X183515000Y-66040000D03*
X180975000Y-63500000D03*
X183515000Y-63500000D03*
X180975000Y-60960000D03*
X183515000Y-60960000D03*
X132430000Y-72840000D03*
X127930000Y-72840000D03*
X132430000Y-66340000D03*
X127930000Y-66340000D03*
X72430000Y-72840000D03*
X67930000Y-72840000D03*
X72430000Y-66340000D03*
X67930000Y-66340000D03*
X202819000Y-126492000D03*
X202819000Y-123952000D03*
X202819000Y-121412000D03*
X43180000Y-82590000D03*
X43180000Y-148590000D03*
X203200000Y-82590000D03*
X203200000Y-148590000D03*
X116990000Y-59590000D03*
X115720000Y-59590000D03*
X114450000Y-59590000D03*
X113180000Y-59590000D03*
X101990000Y-59590000D03*
X100720000Y-59590000D03*
X99450000Y-59590000D03*
X98180000Y-59590000D03*
X86990000Y-59590000D03*
X85720000Y-59590000D03*
X84450000Y-59590000D03*
X83180000Y-59590000D03*
X71990000Y-59590000D03*
X70720000Y-59590000D03*
X69450000Y-59590000D03*
X68180000Y-59590000D03*
X56990000Y-59590000D03*
X55720000Y-59590000D03*
X54450000Y-59590000D03*
X53180000Y-59590000D03*
X204180000Y-64590000D03*
X42180000Y-64590000D03*
X117430000Y-72840000D03*
X112930000Y-72840000D03*
X117430000Y-66340000D03*
X112930000Y-66340000D03*
X102430000Y-72840000D03*
X97930000Y-72840000D03*
X102430000Y-66340000D03*
X97930000Y-66340000D03*
X57430000Y-72840000D03*
X52930000Y-72840000D03*
X57430000Y-66340000D03*
X52930000Y-66340000D03*
X147320000Y-76590000D03*
X145415000Y-76590000D03*
X143510000Y-76590000D03*
X141605000Y-76590000D03*
X92884000Y-140335000D03*
X87884000Y-140335000D03*
X109521000Y-140335000D03*
X104521000Y-140335000D03*
X126158000Y-140335000D03*
X121158000Y-140335000D03*
X59610000Y-140335000D03*
X54610000Y-140335000D03*
X76247000Y-140335000D03*
X71247000Y-140335000D03*
X142795000Y-140335000D03*
X137795000Y-140335000D03*
X123825000Y-95885000D03*
X123825000Y-91440000D03*
X123825000Y-86995000D03*
X123825000Y-100330000D03*
X202819000Y-137668000D03*
X202819000Y-135128000D03*
X202819000Y-132588000D03*
X171243000Y-140335000D03*
X166243000Y-140335000D03*
X202819000Y-103124000D03*
X202819000Y-100584000D03*
X202819000Y-98044000D03*
X202819000Y-95504000D03*
X202819000Y-92964000D03*
X202819000Y-90424000D03*
X53460000Y-133350000D03*
X53460000Y-128350000D03*
X53460000Y-108350000D03*
X60960000Y-108350000D03*
X60960000Y-128350000D03*
X60960000Y-133350000D03*
X69970000Y-133350000D03*
X69970000Y-128350000D03*
X69970000Y-108350000D03*
X77470000Y-108350000D03*
X77470000Y-128350000D03*
X77470000Y-133350000D03*
X119754000Y-133350000D03*
X119754000Y-128350000D03*
X119754000Y-108350000D03*
X127254000Y-108350000D03*
X127254000Y-128350000D03*
X127254000Y-133350000D03*
X156990000Y-59590000D03*
X155720000Y-59590000D03*
X154450000Y-59590000D03*
X153180000Y-59590000D03*
X170180000Y-120255000D03*
X166780000Y-120255000D03*
X170180000Y-130175000D03*
X166780000Y-130175000D03*
M02*
