%TF.GenerationSoftware,KiCad,Pcbnew,(5.0.0)*%
%TF.CreationDate,2018-09-12T13:39:34+01:00*%
%TF.ProjectId,AquaHub,417175614875622E6B696361645F7063,rev?*%
%TF.SameCoordinates,Original*%
%TF.FileFunction,Other,Fab,Top*%
%FSLAX46Y46*%
G04 Gerber Fmt 4.6, Leading zero omitted, Abs format (unit mm)*
G04 Created by KiCad (PCBNEW (5.0.0)) date 09/12/18 13:39:34*
%MOMM*%
%LPD*%
G01*
G04 APERTURE LIST*
%ADD10C,0.200000*%
%ADD11C,0.100000*%
%ADD12C,0.150000*%
%ADD13C,0.080000*%
%ADD14C,0.114000*%
G04 APERTURE END LIST*
D10*
X55118000Y-106680000D02*
X48006000Y-106680000D01*
X55118000Y-109728000D02*
X55118000Y-106680000D01*
X51054000Y-109728000D02*
X55118000Y-109728000D01*
X146050000Y-115570000D02*
X146050000Y-118110000D01*
X140335000Y-63500000D02*
X140335000Y-60960000D01*
X148590000Y-60960000D02*
X148590000Y-63500000D01*
X148590000Y-63500000D02*
X208280000Y-63500000D01*
X208280000Y-60960000D02*
X148590000Y-60960000D01*
X208280000Y-37465000D02*
X208280000Y-60960000D01*
X38100000Y-37465000D02*
X208280000Y-37465000D01*
X38100000Y-60960000D02*
X38100000Y-37465000D01*
X140335000Y-60960000D02*
X38100000Y-60960000D01*
X48006000Y-118364000D02*
X48006000Y-106680000D01*
X146050000Y-118110000D02*
X48006000Y-118364000D01*
X51054000Y-115316000D02*
X146050000Y-115570000D01*
X51054000Y-109728000D02*
X51054000Y-115316000D01*
X38100000Y-153670000D02*
X208280000Y-153670000D01*
X38100000Y-63500000D02*
X38100000Y-153670000D01*
X140335000Y-63500000D02*
X38100000Y-63500000D01*
X208280000Y-63500000D02*
X208280000Y-153670000D01*
D11*
X46050000Y-88710000D02*
X39950000Y-88710000D01*
X46050000Y-104210000D02*
X39950000Y-104210000D01*
X46050000Y-88710000D02*
X46050000Y-104210000D01*
X39950000Y-88710000D02*
X39950000Y-104210000D01*
X102765000Y-96995000D02*
X103765000Y-96995000D01*
X103765000Y-96995000D02*
X103765000Y-102395000D01*
X103765000Y-102395000D02*
X102765000Y-102395000D01*
X102765000Y-96445000D02*
X102765000Y-102945000D01*
X102765000Y-102945000D02*
X96545000Y-102945000D01*
X96545000Y-102945000D02*
X96545000Y-97445000D01*
X96545000Y-97445000D02*
X97545000Y-96445000D01*
X97545000Y-96445000D02*
X102765000Y-96445000D01*
X96950000Y-97040000D02*
X93845000Y-97040000D01*
X93845000Y-97040000D02*
X93845000Y-97790000D01*
X93845000Y-97790000D02*
X96545000Y-97790000D01*
X96545000Y-99320000D02*
X93845000Y-99320000D01*
X93845000Y-99320000D02*
X93845000Y-100070000D01*
X93845000Y-100070000D02*
X96545000Y-100070000D01*
X96545000Y-101600000D02*
X93845000Y-101600000D01*
X93845000Y-101600000D02*
X93845000Y-102350000D01*
X93845000Y-102350000D02*
X96545000Y-102350000D01*
X148625000Y-80765000D02*
X148625000Y-78765000D01*
X149825000Y-80765000D02*
X148625000Y-80765000D01*
X149825000Y-78765000D02*
X149825000Y-80765000D01*
X148625000Y-78765000D02*
X149825000Y-78765000D01*
X156825000Y-71775000D02*
X157385000Y-72325000D01*
X172105000Y-71775000D02*
X171565000Y-72325000D01*
X156825000Y-80625000D02*
X157385000Y-80075000D01*
X172105000Y-80625000D02*
X171565000Y-80075000D01*
X157385000Y-80075000D02*
X157385000Y-72325000D01*
X156825000Y-80625000D02*
X156825000Y-71775000D01*
X171565000Y-80075000D02*
X171565000Y-72325000D01*
X172105000Y-80625000D02*
X172105000Y-71775000D01*
X162215000Y-72325000D02*
X162215000Y-71775000D01*
X166715000Y-72325000D02*
X166715000Y-71775000D01*
X162215000Y-72325000D02*
X157385000Y-72325000D01*
X171565000Y-72325000D02*
X166715000Y-72325000D01*
X172105000Y-71775000D02*
X156825000Y-71775000D01*
X171565000Y-80075000D02*
X157385000Y-80075000D01*
X172105000Y-80625000D02*
X156825000Y-80625000D01*
X115610000Y-42980306D02*
X115610000Y-45919694D01*
X120610000Y-44450000D02*
G75*
G03X120610000Y-44450000I-2500000J0D01*
G01*
X115609984Y-45919666D02*
G75*
G03X115610000Y-42980306I2500016J1469666D01*
G01*
X120765000Y-54050000D02*
X120765000Y-57050000D01*
X120765000Y-57050000D02*
X114765000Y-57050000D01*
X114765000Y-57050000D02*
X114765000Y-51050000D01*
X114765000Y-51050000D02*
X120765000Y-51050000D01*
X120765000Y-51050000D02*
X120765000Y-54050000D01*
X119780564Y-54050000D02*
G75*
G03X119780564Y-54050000I-2015564J0D01*
G01*
X69130564Y-54050000D02*
G75*
G03X69130564Y-54050000I-2015564J0D01*
G01*
X70115000Y-51050000D02*
X70115000Y-54050000D01*
X64115000Y-51050000D02*
X70115000Y-51050000D01*
X64115000Y-57050000D02*
X64115000Y-51050000D01*
X70115000Y-57050000D02*
X64115000Y-57050000D01*
X70115000Y-54050000D02*
X70115000Y-57050000D01*
X81452344Y-107647320D02*
X50673344Y-107647320D01*
X84373344Y-104675739D02*
X84373344Y-85447320D01*
X50673344Y-107647320D02*
X50673344Y-85447320D01*
X50673344Y-85447320D02*
X84373344Y-85447320D01*
X81452344Y-107647320D02*
X84373344Y-104675320D01*
X52195000Y-102997000D02*
X52195000Y-105410000D01*
X52195000Y-105410000D02*
X54608000Y-105410000D01*
X147955000Y-73660000D02*
X148590000Y-74295000D01*
X140970000Y-73660000D02*
X147955000Y-73660000D01*
X140970000Y-76200000D02*
X140970000Y-73660000D01*
X148590000Y-76200000D02*
X140970000Y-76200000D01*
X148590000Y-74295000D02*
X148590000Y-76200000D01*
X162642979Y-122459195D02*
X161642979Y-121459195D01*
X166542979Y-122459195D02*
X162642979Y-122459195D01*
X166542979Y-118559195D02*
X166542979Y-122459195D01*
X161642979Y-118559195D02*
X166542979Y-118559195D01*
X161642979Y-121459195D02*
X161642979Y-118559195D01*
X194945000Y-73660000D02*
X195580000Y-74295000D01*
X185420000Y-73660000D02*
X194945000Y-73660000D01*
X185420000Y-76200000D02*
X185420000Y-73660000D01*
X195580000Y-76200000D02*
X185420000Y-76200000D01*
X195580000Y-74295000D02*
X195580000Y-76200000D01*
X165075000Y-112360000D02*
X163075000Y-112360000D01*
X165075000Y-111160000D02*
X165075000Y-112360000D01*
X163075000Y-111160000D02*
X165075000Y-111160000D01*
X163075000Y-112360000D02*
X163075000Y-111160000D01*
X158977979Y-115939195D02*
X158977979Y-117939195D01*
X157777979Y-115939195D02*
X158977979Y-115939195D01*
X157777979Y-117939195D02*
X157777979Y-115939195D01*
X158977979Y-117939195D02*
X157777979Y-117939195D01*
X165075000Y-114900000D02*
X163075000Y-114900000D01*
X165075000Y-113700000D02*
X165075000Y-114900000D01*
X163075000Y-113700000D02*
X165075000Y-113700000D01*
X163075000Y-114900000D02*
X163075000Y-113700000D01*
X143475000Y-78765000D02*
X143475000Y-80765000D01*
X142275000Y-78765000D02*
X143475000Y-78765000D01*
X142275000Y-80765000D02*
X142275000Y-78765000D01*
X143475000Y-80765000D02*
X142275000Y-80765000D01*
X102910000Y-42980306D02*
X102910000Y-45919694D01*
X107910000Y-44450000D02*
G75*
G03X107910000Y-44450000I-2500000J0D01*
G01*
X102909984Y-45919666D02*
G75*
G03X102910000Y-42980306I2500016J1469666D01*
G01*
X90210000Y-42980306D02*
X90210000Y-45919694D01*
X95210000Y-44450000D02*
G75*
G03X95210000Y-44450000I-2500000J0D01*
G01*
X90209984Y-45919666D02*
G75*
G03X90210000Y-42980306I2500016J1469666D01*
G01*
X77510000Y-42980306D02*
X77510000Y-45919694D01*
X82510000Y-44450000D02*
G75*
G03X82510000Y-44450000I-2500000J0D01*
G01*
X77509984Y-45919666D02*
G75*
G03X77510000Y-42980306I2500016J1469666D01*
G01*
X64810000Y-42980306D02*
X64810000Y-45919694D01*
X69810000Y-44450000D02*
G75*
G03X69810000Y-44450000I-2500000J0D01*
G01*
X64809984Y-45919666D02*
G75*
G03X64810000Y-42980306I2500016J1469666D01*
G01*
X52110000Y-42980306D02*
X52110000Y-45919694D01*
X57110000Y-44450000D02*
G75*
G03X57110000Y-44450000I-2500000J0D01*
G01*
X52109984Y-45919666D02*
G75*
G03X52110000Y-42980306I2500016J1469666D01*
G01*
X108215000Y-54050000D02*
X108215000Y-57050000D01*
X108215000Y-57050000D02*
X102215000Y-57050000D01*
X102215000Y-57050000D02*
X102215000Y-51050000D01*
X102215000Y-51050000D02*
X108215000Y-51050000D01*
X108215000Y-51050000D02*
X108215000Y-54050000D01*
X107230564Y-54050000D02*
G75*
G03X107230564Y-54050000I-2015564J0D01*
G01*
X94530564Y-54050000D02*
G75*
G03X94530564Y-54050000I-2015564J0D01*
G01*
X95515000Y-51050000D02*
X95515000Y-54050000D01*
X89515000Y-51050000D02*
X95515000Y-51050000D01*
X89515000Y-57050000D02*
X89515000Y-51050000D01*
X95515000Y-57050000D02*
X89515000Y-57050000D01*
X95515000Y-54050000D02*
X95515000Y-57050000D01*
X82665000Y-54050000D02*
X82665000Y-57050000D01*
X82665000Y-57050000D02*
X76665000Y-57050000D01*
X76665000Y-57050000D02*
X76665000Y-51050000D01*
X76665000Y-51050000D02*
X82665000Y-51050000D01*
X82665000Y-51050000D02*
X82665000Y-54050000D01*
X81680564Y-54050000D02*
G75*
G03X81680564Y-54050000I-2015564J0D01*
G01*
X56970564Y-54050000D02*
G75*
G03X56970564Y-54050000I-2015564J0D01*
G01*
X57955000Y-51050000D02*
X57955000Y-54050000D01*
X51955000Y-51050000D02*
X57955000Y-51050000D01*
X51955000Y-57050000D02*
X51955000Y-51050000D01*
X57955000Y-57050000D02*
X51955000Y-57050000D01*
X57955000Y-54050000D02*
X57955000Y-57050000D01*
X87255000Y-90814838D02*
X87885000Y-90814838D01*
X87570000Y-91129838D02*
X87570000Y-90499838D01*
X91200000Y-91725000D02*
X92200000Y-90725000D01*
X86600000Y-91725000D02*
X85600000Y-90725000D01*
X86600000Y-91725000D02*
X91200000Y-91725000D01*
X92200000Y-90725000D02*
X92200000Y-85125000D01*
X85600000Y-90725000D02*
X85600000Y-85125000D01*
X85600000Y-85125000D02*
X92200000Y-85125000D01*
X92050000Y-88425000D02*
G75*
G03X92050000Y-88425000I-3150000J0D01*
G01*
X92050000Y-99855000D02*
G75*
G03X92050000Y-99855000I-3150000J0D01*
G01*
X85600000Y-96555000D02*
X92200000Y-96555000D01*
X85600000Y-102155000D02*
X85600000Y-96555000D01*
X92200000Y-102155000D02*
X92200000Y-96555000D01*
X86600000Y-103155000D02*
X91200000Y-103155000D01*
X86600000Y-103155000D02*
X85600000Y-102155000D01*
X91200000Y-103155000D02*
X92200000Y-102155000D01*
X87570000Y-102559838D02*
X87570000Y-101929838D01*
X87255000Y-102244838D02*
X87885000Y-102244838D01*
X107135000Y-90388956D02*
X107635000Y-90388956D01*
X107385000Y-90638956D02*
X107385000Y-90138956D01*
X110235000Y-91255000D02*
X111235000Y-90255000D01*
X106935000Y-91255000D02*
X105935000Y-90255000D01*
X106935000Y-91255000D02*
X110235000Y-91255000D01*
X111235000Y-90255000D02*
X111235000Y-85955000D01*
X105935000Y-90255000D02*
X105935000Y-85955000D01*
X105935000Y-85955000D02*
X111235000Y-85955000D01*
X111085000Y-88605000D02*
G75*
G03X111085000Y-88605000I-2500000J0D01*
G01*
X111085000Y-100035000D02*
G75*
G03X111085000Y-100035000I-2500000J0D01*
G01*
X105935000Y-97385000D02*
X111235000Y-97385000D01*
X105935000Y-101685000D02*
X105935000Y-97385000D01*
X111235000Y-101685000D02*
X111235000Y-97385000D01*
X106935000Y-102685000D02*
X110235000Y-102685000D01*
X106935000Y-102685000D02*
X105935000Y-101685000D01*
X110235000Y-102685000D02*
X111235000Y-101685000D01*
X107385000Y-102068956D02*
X107385000Y-101568956D01*
X107135000Y-101818956D02*
X107635000Y-101818956D01*
X93665000Y-91300000D02*
X96365000Y-91300000D01*
X93665000Y-90550000D02*
X93665000Y-91300000D01*
X96365000Y-90550000D02*
X93665000Y-90550000D01*
X93665000Y-89020000D02*
X96365000Y-89020000D01*
X93665000Y-88270000D02*
X93665000Y-89020000D01*
X96365000Y-88270000D02*
X93665000Y-88270000D01*
X93665000Y-86740000D02*
X96365000Y-86740000D01*
X93665000Y-85990000D02*
X93665000Y-86740000D01*
X96770000Y-85990000D02*
X93665000Y-85990000D01*
X97365000Y-85395000D02*
X102585000Y-85395000D01*
X96365000Y-86395000D02*
X97365000Y-85395000D01*
X96365000Y-91895000D02*
X96365000Y-86395000D01*
X102585000Y-91895000D02*
X96365000Y-91895000D01*
X102585000Y-85395000D02*
X102585000Y-91895000D01*
X103585000Y-91345000D02*
X102585000Y-91345000D01*
X103585000Y-85945000D02*
X103585000Y-91345000D01*
X102585000Y-85945000D02*
X103585000Y-85945000D01*
X94157000Y-138818000D02*
X91368000Y-141608000D01*
X94401000Y-139062000D02*
X91612000Y-141852000D01*
X89157000Y-138818000D02*
X86367000Y-141608000D01*
X89401000Y-139062000D02*
X86611000Y-141852000D01*
X85384000Y-143835000D02*
X95384000Y-143835000D01*
X85384000Y-144935000D02*
X95384000Y-144935000D01*
X85384000Y-144935000D02*
X85384000Y-136335000D01*
X85784000Y-145335000D02*
X85384000Y-144935000D01*
X95384000Y-145335000D02*
X85784000Y-145335000D01*
X95384000Y-136335000D02*
X95384000Y-145335000D01*
X85384000Y-136335000D02*
X95384000Y-136335000D01*
X94884000Y-140335000D02*
G75*
G03X94884000Y-140335000I-2000000J0D01*
G01*
X89884000Y-140335000D02*
G75*
G03X89884000Y-140335000I-2000000J0D01*
G01*
X106521000Y-140335000D02*
G75*
G03X106521000Y-140335000I-2000000J0D01*
G01*
X111521000Y-140335000D02*
G75*
G03X111521000Y-140335000I-2000000J0D01*
G01*
X102021000Y-136335000D02*
X112021000Y-136335000D01*
X112021000Y-136335000D02*
X112021000Y-145335000D01*
X112021000Y-145335000D02*
X102421000Y-145335000D01*
X102421000Y-145335000D02*
X102021000Y-144935000D01*
X102021000Y-144935000D02*
X102021000Y-136335000D01*
X102021000Y-144935000D02*
X112021000Y-144935000D01*
X102021000Y-143835000D02*
X112021000Y-143835000D01*
X106038000Y-139062000D02*
X103248000Y-141852000D01*
X105794000Y-138818000D02*
X103004000Y-141608000D01*
X111038000Y-139062000D02*
X108249000Y-141852000D01*
X110794000Y-138818000D02*
X108005000Y-141608000D01*
X127431000Y-138818000D02*
X124642000Y-141608000D01*
X127675000Y-139062000D02*
X124886000Y-141852000D01*
X122431000Y-138818000D02*
X119641000Y-141608000D01*
X122675000Y-139062000D02*
X119885000Y-141852000D01*
X118658000Y-143835000D02*
X128658000Y-143835000D01*
X118658000Y-144935000D02*
X128658000Y-144935000D01*
X118658000Y-144935000D02*
X118658000Y-136335000D01*
X119058000Y-145335000D02*
X118658000Y-144935000D01*
X128658000Y-145335000D02*
X119058000Y-145335000D01*
X128658000Y-136335000D02*
X128658000Y-145335000D01*
X118658000Y-136335000D02*
X128658000Y-136335000D01*
X128158000Y-140335000D02*
G75*
G03X128158000Y-140335000I-2000000J0D01*
G01*
X123158000Y-140335000D02*
G75*
G03X123158000Y-140335000I-2000000J0D01*
G01*
X60883000Y-138818000D02*
X58094000Y-141608000D01*
X61127000Y-139062000D02*
X58338000Y-141852000D01*
X55883000Y-138818000D02*
X53093000Y-141608000D01*
X56127000Y-139062000D02*
X53337000Y-141852000D01*
X52110000Y-143835000D02*
X62110000Y-143835000D01*
X52110000Y-144935000D02*
X62110000Y-144935000D01*
X52110000Y-144935000D02*
X52110000Y-136335000D01*
X52510000Y-145335000D02*
X52110000Y-144935000D01*
X62110000Y-145335000D02*
X52510000Y-145335000D01*
X62110000Y-136335000D02*
X62110000Y-145335000D01*
X52110000Y-136335000D02*
X62110000Y-136335000D01*
X61610000Y-140335000D02*
G75*
G03X61610000Y-140335000I-2000000J0D01*
G01*
X56610000Y-140335000D02*
G75*
G03X56610000Y-140335000I-2000000J0D01*
G01*
X180435000Y-140335000D02*
G75*
G03X180435000Y-140335000I-2000000J0D01*
G01*
X185435000Y-140335000D02*
G75*
G03X185435000Y-140335000I-2000000J0D01*
G01*
X190435000Y-140335000D02*
G75*
G03X190435000Y-140335000I-2000000J0D01*
G01*
X175935000Y-136335000D02*
X190935000Y-136335000D01*
X190935000Y-136335000D02*
X190935000Y-145335000D01*
X190935000Y-145335000D02*
X176335000Y-145335000D01*
X176335000Y-145335000D02*
X175935000Y-144935000D01*
X175935000Y-144935000D02*
X175935000Y-136335000D01*
X175935000Y-144935000D02*
X190935000Y-144935000D01*
X175935000Y-143835000D02*
X190935000Y-143835000D01*
X179952000Y-139062000D02*
X177162000Y-141852000D01*
X179708000Y-138818000D02*
X176918000Y-141608000D01*
X184952000Y-139062000D02*
X182163000Y-141852000D01*
X184708000Y-138818000D02*
X181919000Y-141608000D01*
X189952000Y-139062000D02*
X187163000Y-141852000D01*
X189708000Y-138818000D02*
X186919000Y-141608000D01*
X77520000Y-138818000D02*
X74731000Y-141608000D01*
X77764000Y-139062000D02*
X74975000Y-141852000D01*
X72520000Y-138818000D02*
X69730000Y-141608000D01*
X72764000Y-139062000D02*
X69974000Y-141852000D01*
X68747000Y-143835000D02*
X78747000Y-143835000D01*
X68747000Y-144935000D02*
X78747000Y-144935000D01*
X68747000Y-144935000D02*
X68747000Y-136335000D01*
X69147000Y-145335000D02*
X68747000Y-144935000D01*
X78747000Y-145335000D02*
X69147000Y-145335000D01*
X78747000Y-136335000D02*
X78747000Y-145335000D01*
X68747000Y-136335000D02*
X78747000Y-136335000D01*
X78247000Y-140335000D02*
G75*
G03X78247000Y-140335000I-2000000J0D01*
G01*
X73247000Y-140335000D02*
G75*
G03X73247000Y-140335000I-2000000J0D01*
G01*
X139795000Y-140335000D02*
G75*
G03X139795000Y-140335000I-2000000J0D01*
G01*
X144795000Y-140335000D02*
G75*
G03X144795000Y-140335000I-2000000J0D01*
G01*
X135295000Y-136335000D02*
X145295000Y-136335000D01*
X145295000Y-136335000D02*
X145295000Y-145335000D01*
X145295000Y-145335000D02*
X135695000Y-145335000D01*
X135695000Y-145335000D02*
X135295000Y-144935000D01*
X135295000Y-144935000D02*
X135295000Y-136335000D01*
X135295000Y-144935000D02*
X145295000Y-144935000D01*
X135295000Y-143835000D02*
X145295000Y-143835000D01*
X139312000Y-139062000D02*
X136522000Y-141852000D01*
X139068000Y-138818000D02*
X136278000Y-141608000D01*
X144312000Y-139062000D02*
X141523000Y-141852000D01*
X144068000Y-138818000D02*
X141279000Y-141608000D01*
X157575000Y-140335000D02*
G75*
G03X157575000Y-140335000I-2000000J0D01*
G01*
X162575000Y-140335000D02*
G75*
G03X162575000Y-140335000I-2000000J0D01*
G01*
X167575000Y-140335000D02*
G75*
G03X167575000Y-140335000I-2000000J0D01*
G01*
X153075000Y-136335000D02*
X168075000Y-136335000D01*
X168075000Y-136335000D02*
X168075000Y-145335000D01*
X168075000Y-145335000D02*
X153475000Y-145335000D01*
X153475000Y-145335000D02*
X153075000Y-144935000D01*
X153075000Y-144935000D02*
X153075000Y-136335000D01*
X153075000Y-144935000D02*
X168075000Y-144935000D01*
X153075000Y-143835000D02*
X168075000Y-143835000D01*
X157092000Y-139062000D02*
X154302000Y-141852000D01*
X156848000Y-138818000D02*
X154058000Y-141608000D01*
X162092000Y-139062000D02*
X159303000Y-141852000D01*
X161848000Y-138818000D02*
X159059000Y-141608000D01*
X167092000Y-139062000D02*
X164303000Y-141852000D01*
X166848000Y-138818000D02*
X164059000Y-141608000D01*
X183832500Y-73160000D02*
X182880000Y-73160000D01*
X182880000Y-73160000D02*
X182880000Y-71160000D01*
X182880000Y-71160000D02*
X184150000Y-71160000D01*
X184150000Y-71160000D02*
X184150000Y-72842500D01*
X184150000Y-72842500D02*
X183832500Y-73160000D01*
D12*
X47454761Y-99221904D02*
X47502380Y-99079047D01*
X47502380Y-98840952D01*
X47454761Y-98745714D01*
X47407142Y-98698095D01*
X47311904Y-98650476D01*
X47216666Y-98650476D01*
X47121428Y-98698095D01*
X47073809Y-98745714D01*
X47026190Y-98840952D01*
X46978571Y-99031428D01*
X46930952Y-99126666D01*
X46883333Y-99174285D01*
X46788095Y-99221904D01*
X46692857Y-99221904D01*
X46597619Y-99174285D01*
X46550000Y-99126666D01*
X46502380Y-99031428D01*
X46502380Y-98793333D01*
X46550000Y-98650476D01*
X47502380Y-97698095D02*
X47502380Y-98269523D01*
X47502380Y-97983809D02*
X46502380Y-97983809D01*
X46645238Y-98079047D01*
X46740476Y-98174285D01*
X46788095Y-98269523D01*
X46835714Y-96840952D02*
X47502380Y-96840952D01*
X46454761Y-97079047D02*
X47169047Y-97317142D01*
X47169047Y-96698095D01*
X47502380Y-96317142D02*
X46502380Y-96317142D01*
X47216666Y-95983809D01*
X46502380Y-95650476D01*
X47502380Y-95650476D01*
X46502380Y-94983809D02*
X46502380Y-94793333D01*
X46550000Y-94698095D01*
X46645238Y-94602857D01*
X46835714Y-94555238D01*
X47169047Y-94555238D01*
X47359523Y-94602857D01*
X47454761Y-94698095D01*
X47502380Y-94793333D01*
X47502380Y-94983809D01*
X47454761Y-95079047D01*
X47359523Y-95174285D01*
X47169047Y-95221904D01*
X46835714Y-95221904D01*
X46645238Y-95174285D01*
X46550000Y-95079047D01*
X46502380Y-94983809D01*
X46502380Y-94269523D02*
X47502380Y-93936190D01*
X46502380Y-93602857D01*
X43452380Y-97055238D02*
X42976190Y-97388571D01*
X43452380Y-97626666D02*
X42452380Y-97626666D01*
X42452380Y-97245714D01*
X42500000Y-97150476D01*
X42547619Y-97102857D01*
X42642857Y-97055238D01*
X42785714Y-97055238D01*
X42880952Y-97102857D01*
X42928571Y-97150476D01*
X42976190Y-97245714D01*
X42976190Y-97626666D01*
X42452380Y-96769523D02*
X43452380Y-96436190D01*
X42452380Y-96102857D01*
X43452380Y-95245714D02*
X43452380Y-95817142D01*
X43452380Y-95531428D02*
X42452380Y-95531428D01*
X42595238Y-95626666D01*
X42690476Y-95721904D01*
X42738095Y-95817142D01*
X93291190Y-104647380D02*
X93291190Y-103647380D01*
X93862619Y-104647380D01*
X93862619Y-103647380D01*
X94910238Y-104552142D02*
X94862619Y-104599761D01*
X94719761Y-104647380D01*
X94624523Y-104647380D01*
X94481666Y-104599761D01*
X94386428Y-104504523D01*
X94338809Y-104409285D01*
X94291190Y-104218809D01*
X94291190Y-104075952D01*
X94338809Y-103885476D01*
X94386428Y-103790238D01*
X94481666Y-103695000D01*
X94624523Y-103647380D01*
X94719761Y-103647380D01*
X94862619Y-103695000D01*
X94910238Y-103742619D01*
X95338809Y-104647380D02*
X95338809Y-103647380D01*
X95719761Y-103647380D01*
X95815000Y-103695000D01*
X95862619Y-103742619D01*
X95910238Y-103837857D01*
X95910238Y-103980714D01*
X95862619Y-104075952D01*
X95815000Y-104123571D01*
X95719761Y-104171190D01*
X95338809Y-104171190D01*
X96862619Y-104647380D02*
X96291190Y-104647380D01*
X96576904Y-104647380D02*
X96576904Y-103647380D01*
X96481666Y-103790238D01*
X96386428Y-103885476D01*
X96291190Y-103933095D01*
X97815000Y-104647380D02*
X97243571Y-104647380D01*
X97529285Y-104647380D02*
X97529285Y-103647380D01*
X97434047Y-103790238D01*
X97338809Y-103885476D01*
X97243571Y-103933095D01*
X98767380Y-104647380D02*
X98195952Y-104647380D01*
X98481666Y-104647380D02*
X98481666Y-103647380D01*
X98386428Y-103790238D01*
X98291190Y-103885476D01*
X98195952Y-103933095D01*
X99100714Y-103647380D02*
X99767380Y-103647380D01*
X99338809Y-104647380D01*
X100148333Y-104647380D02*
X100148333Y-103647380D01*
X100386428Y-103647380D01*
X100529285Y-103695000D01*
X100624523Y-103790238D01*
X100672142Y-103885476D01*
X100719761Y-104075952D01*
X100719761Y-104218809D01*
X100672142Y-104409285D01*
X100624523Y-104504523D01*
X100529285Y-104599761D01*
X100386428Y-104647380D01*
X100148333Y-104647380D01*
X101005476Y-103647380D02*
X101576904Y-103647380D01*
X101291190Y-104647380D02*
X101291190Y-103647380D01*
X101815000Y-103647380D02*
X102434047Y-103647380D01*
X102100714Y-104028333D01*
X102243571Y-104028333D01*
X102338809Y-104075952D01*
X102386428Y-104123571D01*
X102434047Y-104218809D01*
X102434047Y-104456904D01*
X102386428Y-104552142D01*
X102338809Y-104599761D01*
X102243571Y-104647380D01*
X101957857Y-104647380D01*
X101862619Y-104599761D01*
X101815000Y-104552142D01*
X102767380Y-103647380D02*
X103386428Y-103647380D01*
X103053095Y-104028333D01*
X103195952Y-104028333D01*
X103291190Y-104075952D01*
X103338809Y-104123571D01*
X103386428Y-104218809D01*
X103386428Y-104456904D01*
X103338809Y-104552142D01*
X103291190Y-104599761D01*
X103195952Y-104647380D01*
X102910238Y-104647380D01*
X102815000Y-104599761D01*
X102767380Y-104552142D01*
X104338809Y-103695000D02*
X104243571Y-103647380D01*
X104100714Y-103647380D01*
X103957857Y-103695000D01*
X103862619Y-103790238D01*
X103815000Y-103885476D01*
X103767380Y-104075952D01*
X103767380Y-104218809D01*
X103815000Y-104409285D01*
X103862619Y-104504523D01*
X103957857Y-104599761D01*
X104100714Y-104647380D01*
X104195952Y-104647380D01*
X104338809Y-104599761D01*
X104386428Y-104552142D01*
X104386428Y-104218809D01*
X104195952Y-104218809D01*
X98053095Y-99147380D02*
X98053095Y-99956904D01*
X98100714Y-100052142D01*
X98148333Y-100099761D01*
X98243571Y-100147380D01*
X98434047Y-100147380D01*
X98529285Y-100099761D01*
X98576904Y-100052142D01*
X98624523Y-99956904D01*
X98624523Y-99147380D01*
X99005476Y-99147380D02*
X99624523Y-99147380D01*
X99291190Y-99528333D01*
X99434047Y-99528333D01*
X99529285Y-99575952D01*
X99576904Y-99623571D01*
X99624523Y-99718809D01*
X99624523Y-99956904D01*
X99576904Y-100052142D01*
X99529285Y-100099761D01*
X99434047Y-100147380D01*
X99148333Y-100147380D01*
X99053095Y-100099761D01*
X99005476Y-100052142D01*
X147027380Y-81312619D02*
X147027380Y-80693571D01*
X147408333Y-81026904D01*
X147408333Y-80884047D01*
X147455952Y-80788809D01*
X147503571Y-80741190D01*
X147598809Y-80693571D01*
X147836904Y-80693571D01*
X147932142Y-80741190D01*
X147979761Y-80788809D01*
X148027380Y-80884047D01*
X148027380Y-81169761D01*
X147979761Y-81265000D01*
X147932142Y-81312619D01*
X147932142Y-80265000D02*
X147979761Y-80217380D01*
X148027380Y-80265000D01*
X147979761Y-80312619D01*
X147932142Y-80265000D01*
X148027380Y-80265000D01*
X147027380Y-79884047D02*
X147027380Y-79265000D01*
X147408333Y-79598333D01*
X147408333Y-79455476D01*
X147455952Y-79360238D01*
X147503571Y-79312619D01*
X147598809Y-79265000D01*
X147836904Y-79265000D01*
X147932142Y-79312619D01*
X147979761Y-79360238D01*
X148027380Y-79455476D01*
X148027380Y-79741190D01*
X147979761Y-79836428D01*
X147932142Y-79884047D01*
X148027380Y-78836428D02*
X147027380Y-78836428D01*
X148027380Y-78265000D02*
X147455952Y-78693571D01*
X147027380Y-78265000D02*
X147598809Y-78836428D01*
D13*
X149451190Y-79848333D02*
X149213095Y-80015000D01*
X149451190Y-80134047D02*
X148951190Y-80134047D01*
X148951190Y-79943571D01*
X148975000Y-79895952D01*
X148998809Y-79872142D01*
X149046428Y-79848333D01*
X149117857Y-79848333D01*
X149165476Y-79872142D01*
X149189285Y-79895952D01*
X149213095Y-79943571D01*
X149213095Y-80134047D01*
X148951190Y-79681666D02*
X148951190Y-79372142D01*
X149141666Y-79538809D01*
X149141666Y-79467380D01*
X149165476Y-79419761D01*
X149189285Y-79395952D01*
X149236904Y-79372142D01*
X149355952Y-79372142D01*
X149403571Y-79395952D01*
X149427380Y-79419761D01*
X149451190Y-79467380D01*
X149451190Y-79610238D01*
X149427380Y-79657857D01*
X149403571Y-79681666D01*
D12*
X155678142Y-79938095D02*
X155725761Y-79985714D01*
X155773380Y-80128571D01*
X155773380Y-80223809D01*
X155725761Y-80366666D01*
X155630523Y-80461904D01*
X155535285Y-80509523D01*
X155344809Y-80557142D01*
X155201952Y-80557142D01*
X155011476Y-80509523D01*
X154916238Y-80461904D01*
X154821000Y-80366666D01*
X154773380Y-80223809D01*
X154773380Y-80128571D01*
X154821000Y-79985714D01*
X154868619Y-79938095D01*
X155773380Y-79366666D02*
X155725761Y-79461904D01*
X155678142Y-79509523D01*
X155582904Y-79557142D01*
X155297190Y-79557142D01*
X155201952Y-79509523D01*
X155154333Y-79461904D01*
X155106714Y-79366666D01*
X155106714Y-79223809D01*
X155154333Y-79128571D01*
X155201952Y-79080952D01*
X155297190Y-79033333D01*
X155582904Y-79033333D01*
X155678142Y-79080952D01*
X155725761Y-79128571D01*
X155773380Y-79223809D01*
X155773380Y-79366666D01*
X155106714Y-78604761D02*
X155773380Y-78604761D01*
X155201952Y-78604761D02*
X155154333Y-78557142D01*
X155106714Y-78461904D01*
X155106714Y-78319047D01*
X155154333Y-78223809D01*
X155249571Y-78176190D01*
X155773380Y-78176190D01*
X155106714Y-77700000D02*
X155773380Y-77700000D01*
X155201952Y-77700000D02*
X155154333Y-77652380D01*
X155106714Y-77557142D01*
X155106714Y-77414285D01*
X155154333Y-77319047D01*
X155249571Y-77271428D01*
X155773380Y-77271428D01*
X155868619Y-77033333D02*
X155868619Y-76271428D01*
X154773380Y-75842857D02*
X154773380Y-75747619D01*
X154821000Y-75652380D01*
X154868619Y-75604761D01*
X154963857Y-75557142D01*
X155154333Y-75509523D01*
X155392428Y-75509523D01*
X155582904Y-75557142D01*
X155678142Y-75604761D01*
X155725761Y-75652380D01*
X155773380Y-75747619D01*
X155773380Y-75842857D01*
X155725761Y-75938095D01*
X155678142Y-75985714D01*
X155582904Y-76033333D01*
X155392428Y-76080952D01*
X155154333Y-76080952D01*
X154963857Y-76033333D01*
X154868619Y-75985714D01*
X154821000Y-75938095D01*
X154773380Y-75842857D01*
X155773380Y-74557142D02*
X155773380Y-75128571D01*
X155773380Y-74842857D02*
X154773380Y-74842857D01*
X154916238Y-74938095D01*
X155011476Y-75033333D01*
X155059095Y-75128571D01*
X155773380Y-74223809D02*
X155106714Y-73700000D01*
X155106714Y-74223809D02*
X155773380Y-73700000D01*
X154773380Y-73128571D02*
X154773380Y-73033333D01*
X154821000Y-72938095D01*
X154868619Y-72890476D01*
X154963857Y-72842857D01*
X155154333Y-72795238D01*
X155392428Y-72795238D01*
X155582904Y-72842857D01*
X155678142Y-72890476D01*
X155725761Y-72938095D01*
X155773380Y-73033333D01*
X155773380Y-73128571D01*
X155725761Y-73223809D01*
X155678142Y-73271428D01*
X155582904Y-73319047D01*
X155392428Y-73366666D01*
X155154333Y-73366666D01*
X154963857Y-73319047D01*
X154868619Y-73271428D01*
X154821000Y-73223809D01*
X154773380Y-73128571D01*
X154773380Y-71938095D02*
X154773380Y-72128571D01*
X154821000Y-72223809D01*
X154868619Y-72271428D01*
X155011476Y-72366666D01*
X155201952Y-72414285D01*
X155582904Y-72414285D01*
X155678142Y-72366666D01*
X155725761Y-72319047D01*
X155773380Y-72223809D01*
X155773380Y-72033333D01*
X155725761Y-71938095D01*
X155678142Y-71890476D01*
X155582904Y-71842857D01*
X155344809Y-71842857D01*
X155249571Y-71890476D01*
X155201952Y-71938095D01*
X155154333Y-72033333D01*
X155154333Y-72223809D01*
X155201952Y-72319047D01*
X155249571Y-72366666D01*
X155344809Y-72414285D01*
X163917380Y-77009523D02*
X164631666Y-77009523D01*
X164774523Y-77057142D01*
X164869761Y-77152380D01*
X164917380Y-77295238D01*
X164917380Y-77390476D01*
X164917380Y-76009523D02*
X164917380Y-76580952D01*
X164917380Y-76295238D02*
X163917380Y-76295238D01*
X164060238Y-76390476D01*
X164155476Y-76485714D01*
X164203095Y-76580952D01*
X164917380Y-75057142D02*
X164917380Y-75628571D01*
X164917380Y-75342857D02*
X163917380Y-75342857D01*
X164060238Y-75438095D01*
X164155476Y-75533333D01*
X164203095Y-75628571D01*
X115110000Y-48862380D02*
X115110000Y-47862380D01*
X115681428Y-48862380D01*
X115681428Y-47862380D01*
X116538571Y-48814761D02*
X116443333Y-48862380D01*
X116252857Y-48862380D01*
X116157619Y-48814761D01*
X116110000Y-48719523D01*
X116110000Y-48338571D01*
X116157619Y-48243333D01*
X116252857Y-48195714D01*
X116443333Y-48195714D01*
X116538571Y-48243333D01*
X116586190Y-48338571D01*
X116586190Y-48433809D01*
X116110000Y-48529047D01*
X117157619Y-48862380D02*
X117062380Y-48814761D01*
X117014761Y-48767142D01*
X116967142Y-48671904D01*
X116967142Y-48386190D01*
X117014761Y-48290952D01*
X117062380Y-48243333D01*
X117157619Y-48195714D01*
X117300476Y-48195714D01*
X117395714Y-48243333D01*
X117443333Y-48290952D01*
X117490952Y-48386190D01*
X117490952Y-48671904D01*
X117443333Y-48767142D01*
X117395714Y-48814761D01*
X117300476Y-48862380D01*
X117157619Y-48862380D01*
X117919523Y-48862380D02*
X117919523Y-47862380D01*
X118300476Y-47862380D01*
X118395714Y-47910000D01*
X118443333Y-47957619D01*
X118490952Y-48052857D01*
X118490952Y-48195714D01*
X118443333Y-48290952D01*
X118395714Y-48338571D01*
X118300476Y-48386190D01*
X117919523Y-48386190D01*
X118919523Y-48862380D02*
X118919523Y-48195714D01*
X118919523Y-47862380D02*
X118871904Y-47910000D01*
X118919523Y-47957619D01*
X118967142Y-47910000D01*
X118919523Y-47862380D01*
X118919523Y-47957619D01*
X119300476Y-48862380D02*
X119824285Y-48195714D01*
X119300476Y-48195714D02*
X119824285Y-48862380D01*
X120586190Y-48814761D02*
X120490952Y-48862380D01*
X120300476Y-48862380D01*
X120205238Y-48814761D01*
X120157619Y-48719523D01*
X120157619Y-48338571D01*
X120205238Y-48243333D01*
X120300476Y-48195714D01*
X120490952Y-48195714D01*
X120586190Y-48243333D01*
X120633809Y-48338571D01*
X120633809Y-48433809D01*
X120157619Y-48529047D01*
X121205238Y-48862380D02*
X121110000Y-48814761D01*
X121062380Y-48719523D01*
X121062380Y-47862380D01*
X117371904Y-40942380D02*
X117371904Y-39942380D01*
X117610000Y-39942380D01*
X117752857Y-39990000D01*
X117848095Y-40085238D01*
X117895714Y-40180476D01*
X117943333Y-40370952D01*
X117943333Y-40513809D01*
X117895714Y-40704285D01*
X117848095Y-40799523D01*
X117752857Y-40894761D01*
X117610000Y-40942380D01*
X117371904Y-40942380D01*
X118895714Y-40942380D02*
X118324285Y-40942380D01*
X118610000Y-40942380D02*
X118610000Y-39942380D01*
X118514761Y-40085238D01*
X118419523Y-40180476D01*
X118324285Y-40228095D01*
X113719761Y-57597619D02*
X113767380Y-57454761D01*
X113767380Y-57216666D01*
X113719761Y-57121428D01*
X113672142Y-57073809D01*
X113576904Y-57026190D01*
X113481666Y-57026190D01*
X113386428Y-57073809D01*
X113338809Y-57121428D01*
X113291190Y-57216666D01*
X113243571Y-57407142D01*
X113195952Y-57502380D01*
X113148333Y-57550000D01*
X113053095Y-57597619D01*
X112957857Y-57597619D01*
X112862619Y-57550000D01*
X112815000Y-57502380D01*
X112767380Y-57407142D01*
X112767380Y-57169047D01*
X112815000Y-57026190D01*
X112767380Y-56692857D02*
X113767380Y-56454761D01*
X113053095Y-56264285D01*
X113767380Y-56073809D01*
X112767380Y-55835714D01*
X113862619Y-55692857D02*
X113862619Y-54930952D01*
X113767380Y-54692857D02*
X112767380Y-54692857D01*
X112767380Y-54311904D01*
X112815000Y-54216666D01*
X112862619Y-54169047D01*
X112957857Y-54121428D01*
X113100714Y-54121428D01*
X113195952Y-54169047D01*
X113243571Y-54216666D01*
X113291190Y-54311904D01*
X113291190Y-54692857D01*
X113100714Y-53264285D02*
X113767380Y-53264285D01*
X113100714Y-53692857D02*
X113624523Y-53692857D01*
X113719761Y-53645238D01*
X113767380Y-53550000D01*
X113767380Y-53407142D01*
X113719761Y-53311904D01*
X113672142Y-53264285D01*
X113719761Y-52835714D02*
X113767380Y-52740476D01*
X113767380Y-52550000D01*
X113719761Y-52454761D01*
X113624523Y-52407142D01*
X113576904Y-52407142D01*
X113481666Y-52454761D01*
X113434047Y-52550000D01*
X113434047Y-52692857D01*
X113386428Y-52788095D01*
X113291190Y-52835714D01*
X113243571Y-52835714D01*
X113148333Y-52788095D01*
X113100714Y-52692857D01*
X113100714Y-52550000D01*
X113148333Y-52454761D01*
X113767380Y-51978571D02*
X112767380Y-51978571D01*
X113767380Y-51550000D02*
X113243571Y-51550000D01*
X113148333Y-51597619D01*
X113100714Y-51692857D01*
X113100714Y-51835714D01*
X113148333Y-51930952D01*
X113195952Y-51978571D01*
X118169761Y-55383333D02*
X118217380Y-55240476D01*
X118217380Y-55002380D01*
X118169761Y-54907142D01*
X118122142Y-54859523D01*
X118026904Y-54811904D01*
X117931666Y-54811904D01*
X117836428Y-54859523D01*
X117788809Y-54907142D01*
X117741190Y-55002380D01*
X117693571Y-55192857D01*
X117645952Y-55288095D01*
X117598333Y-55335714D01*
X117503095Y-55383333D01*
X117407857Y-55383333D01*
X117312619Y-55335714D01*
X117265000Y-55288095D01*
X117217380Y-55192857D01*
X117217380Y-54954761D01*
X117265000Y-54811904D01*
X117217380Y-54478571D02*
X118217380Y-54240476D01*
X117503095Y-54050000D01*
X118217380Y-53859523D01*
X117217380Y-53621428D01*
X118217380Y-52716666D02*
X118217380Y-53288095D01*
X118217380Y-53002380D02*
X117217380Y-53002380D01*
X117360238Y-53097619D01*
X117455476Y-53192857D01*
X117503095Y-53288095D01*
X63069761Y-57597619D02*
X63117380Y-57454761D01*
X63117380Y-57216666D01*
X63069761Y-57121428D01*
X63022142Y-57073809D01*
X62926904Y-57026190D01*
X62831666Y-57026190D01*
X62736428Y-57073809D01*
X62688809Y-57121428D01*
X62641190Y-57216666D01*
X62593571Y-57407142D01*
X62545952Y-57502380D01*
X62498333Y-57550000D01*
X62403095Y-57597619D01*
X62307857Y-57597619D01*
X62212619Y-57550000D01*
X62165000Y-57502380D01*
X62117380Y-57407142D01*
X62117380Y-57169047D01*
X62165000Y-57026190D01*
X62117380Y-56692857D02*
X63117380Y-56454761D01*
X62403095Y-56264285D01*
X63117380Y-56073809D01*
X62117380Y-55835714D01*
X63212619Y-55692857D02*
X63212619Y-54930952D01*
X63117380Y-54692857D02*
X62117380Y-54692857D01*
X62117380Y-54311904D01*
X62165000Y-54216666D01*
X62212619Y-54169047D01*
X62307857Y-54121428D01*
X62450714Y-54121428D01*
X62545952Y-54169047D01*
X62593571Y-54216666D01*
X62641190Y-54311904D01*
X62641190Y-54692857D01*
X62450714Y-53264285D02*
X63117380Y-53264285D01*
X62450714Y-53692857D02*
X62974523Y-53692857D01*
X63069761Y-53645238D01*
X63117380Y-53550000D01*
X63117380Y-53407142D01*
X63069761Y-53311904D01*
X63022142Y-53264285D01*
X63069761Y-52835714D02*
X63117380Y-52740476D01*
X63117380Y-52550000D01*
X63069761Y-52454761D01*
X62974523Y-52407142D01*
X62926904Y-52407142D01*
X62831666Y-52454761D01*
X62784047Y-52550000D01*
X62784047Y-52692857D01*
X62736428Y-52788095D01*
X62641190Y-52835714D01*
X62593571Y-52835714D01*
X62498333Y-52788095D01*
X62450714Y-52692857D01*
X62450714Y-52550000D01*
X62498333Y-52454761D01*
X63117380Y-51978571D02*
X62117380Y-51978571D01*
X63117380Y-51550000D02*
X62593571Y-51550000D01*
X62498333Y-51597619D01*
X62450714Y-51692857D01*
X62450714Y-51835714D01*
X62498333Y-51930952D01*
X62545952Y-51978571D01*
X67519761Y-55383333D02*
X67567380Y-55240476D01*
X67567380Y-55002380D01*
X67519761Y-54907142D01*
X67472142Y-54859523D01*
X67376904Y-54811904D01*
X67281666Y-54811904D01*
X67186428Y-54859523D01*
X67138809Y-54907142D01*
X67091190Y-55002380D01*
X67043571Y-55192857D01*
X66995952Y-55288095D01*
X66948333Y-55335714D01*
X66853095Y-55383333D01*
X66757857Y-55383333D01*
X66662619Y-55335714D01*
X66615000Y-55288095D01*
X66567380Y-55192857D01*
X66567380Y-54954761D01*
X66615000Y-54811904D01*
X66567380Y-54478571D02*
X67567380Y-54240476D01*
X66853095Y-54050000D01*
X67567380Y-53859523D01*
X66567380Y-53621428D01*
X66567380Y-52764285D02*
X66567380Y-53240476D01*
X67043571Y-53288095D01*
X66995952Y-53240476D01*
X66948333Y-53145238D01*
X66948333Y-52907142D01*
X66995952Y-52811904D01*
X67043571Y-52764285D01*
X67138809Y-52716666D01*
X67376904Y-52716666D01*
X67472142Y-52764285D01*
X67519761Y-52811904D01*
X67567380Y-52907142D01*
X67567380Y-53145238D01*
X67519761Y-53240476D01*
X67472142Y-53288095D01*
X63069952Y-87193380D02*
X62736619Y-86717190D01*
X62498523Y-87193380D02*
X62498523Y-86193380D01*
X62879476Y-86193380D01*
X62974714Y-86241000D01*
X63022333Y-86288619D01*
X63069952Y-86383857D01*
X63069952Y-86526714D01*
X63022333Y-86621952D01*
X62974714Y-86669571D01*
X62879476Y-86717190D01*
X62498523Y-86717190D01*
X63450904Y-86907666D02*
X63927095Y-86907666D01*
X63355666Y-87193380D02*
X63688999Y-86193380D01*
X64022333Y-87193380D01*
X64927095Y-87098142D02*
X64879476Y-87145761D01*
X64736619Y-87193380D01*
X64641380Y-87193380D01*
X64498523Y-87145761D01*
X64403285Y-87050523D01*
X64355666Y-86955285D01*
X64308047Y-86764809D01*
X64308047Y-86621952D01*
X64355666Y-86431476D01*
X64403285Y-86336238D01*
X64498523Y-86241000D01*
X64641380Y-86193380D01*
X64736619Y-86193380D01*
X64879476Y-86241000D01*
X64927095Y-86288619D01*
X65546142Y-86193380D02*
X65641380Y-86193380D01*
X65736619Y-86241000D01*
X65784238Y-86288619D01*
X65831857Y-86383857D01*
X65879476Y-86574333D01*
X65879476Y-86812428D01*
X65831857Y-87002904D01*
X65784238Y-87098142D01*
X65736619Y-87145761D01*
X65641380Y-87193380D01*
X65546142Y-87193380D01*
X65450904Y-87145761D01*
X65403285Y-87098142D01*
X65355666Y-87002904D01*
X65308047Y-86812428D01*
X65308047Y-86574333D01*
X65355666Y-86383857D01*
X65403285Y-86288619D01*
X65450904Y-86241000D01*
X65546142Y-86193380D01*
X66831857Y-87193380D02*
X66260428Y-87193380D01*
X66546142Y-87193380D02*
X66546142Y-86193380D01*
X66450904Y-86336238D01*
X66355666Y-86431476D01*
X66260428Y-86479095D01*
X67260428Y-86812428D02*
X68022333Y-86812428D01*
X69022333Y-87193380D02*
X68450904Y-87193380D01*
X68736619Y-87193380D02*
X68736619Y-86193380D01*
X68641380Y-86336238D01*
X68546142Y-86431476D01*
X68450904Y-86479095D01*
X69403285Y-86288619D02*
X69450904Y-86241000D01*
X69546142Y-86193380D01*
X69784238Y-86193380D01*
X69879476Y-86241000D01*
X69927095Y-86288619D01*
X69974714Y-86383857D01*
X69974714Y-86479095D01*
X69927095Y-86621952D01*
X69355666Y-87193380D01*
X69974714Y-87193380D01*
X70355666Y-87145761D02*
X70498523Y-87193380D01*
X70736619Y-87193380D01*
X70831857Y-87145761D01*
X70879476Y-87098142D01*
X70927095Y-87002904D01*
X70927095Y-86907666D01*
X70879476Y-86812428D01*
X70831857Y-86764809D01*
X70736619Y-86717190D01*
X70546142Y-86669571D01*
X70450904Y-86621952D01*
X70403285Y-86574333D01*
X70355666Y-86479095D01*
X70355666Y-86383857D01*
X70403285Y-86288619D01*
X70450904Y-86241000D01*
X70546142Y-86193380D01*
X70784238Y-86193380D01*
X70927095Y-86241000D01*
X71879476Y-86241000D02*
X71784238Y-86193380D01*
X71641380Y-86193380D01*
X71498523Y-86241000D01*
X71403285Y-86336238D01*
X71355666Y-86431476D01*
X71308047Y-86621952D01*
X71308047Y-86764809D01*
X71355666Y-86955285D01*
X71403285Y-87050523D01*
X71498523Y-87145761D01*
X71641380Y-87193380D01*
X71736619Y-87193380D01*
X71879476Y-87145761D01*
X71927095Y-87098142D01*
X71927095Y-86764809D01*
X71736619Y-86764809D01*
X72689000Y-86669571D02*
X72831857Y-86717190D01*
X72879476Y-86764809D01*
X72927095Y-86860047D01*
X72927095Y-87002904D01*
X72879476Y-87098142D01*
X72831857Y-87145761D01*
X72736619Y-87193380D01*
X72355666Y-87193380D01*
X72355666Y-86193380D01*
X72689000Y-86193380D01*
X72784238Y-86241000D01*
X72831857Y-86288619D01*
X72879476Y-86383857D01*
X72879476Y-86479095D01*
X72831857Y-86574333D01*
X72784238Y-86621952D01*
X72689000Y-86669571D01*
X72355666Y-86669571D01*
X66347714Y-95444571D02*
X66847714Y-96944571D01*
X67347714Y-95444571D01*
X68633428Y-96944571D02*
X67776285Y-96944571D01*
X68204857Y-96944571D02*
X68204857Y-95444571D01*
X68062000Y-95658857D01*
X67919142Y-95801714D01*
X67776285Y-95873142D01*
X140362380Y-78953809D02*
X139362380Y-78953809D01*
X139362380Y-78572857D01*
X139410000Y-78477619D01*
X139457619Y-78430000D01*
X139552857Y-78382380D01*
X139695714Y-78382380D01*
X139790952Y-78430000D01*
X139838571Y-78477619D01*
X139886190Y-78572857D01*
X139886190Y-78953809D01*
X140362380Y-77953809D02*
X139695714Y-77953809D01*
X139362380Y-77953809D02*
X139410000Y-78001428D01*
X139457619Y-77953809D01*
X139410000Y-77906190D01*
X139362380Y-77953809D01*
X139457619Y-77953809D01*
X139695714Y-77477619D02*
X140362380Y-77477619D01*
X139790952Y-77477619D02*
X139743333Y-77430000D01*
X139695714Y-77334761D01*
X139695714Y-77191904D01*
X139743333Y-77096666D01*
X139838571Y-77049047D01*
X140362380Y-77049047D01*
X140362380Y-76572857D02*
X139362380Y-76572857D01*
X139838571Y-76572857D02*
X139838571Y-76001428D01*
X140362380Y-76001428D02*
X139362380Y-76001428D01*
X140314761Y-75144285D02*
X140362380Y-75239523D01*
X140362380Y-75430000D01*
X140314761Y-75525238D01*
X140219523Y-75572857D01*
X139838571Y-75572857D01*
X139743333Y-75525238D01*
X139695714Y-75430000D01*
X139695714Y-75239523D01*
X139743333Y-75144285D01*
X139838571Y-75096666D01*
X139933809Y-75096666D01*
X140029047Y-75572857D01*
X140362380Y-74239523D02*
X139838571Y-74239523D01*
X139743333Y-74287142D01*
X139695714Y-74382380D01*
X139695714Y-74572857D01*
X139743333Y-74668095D01*
X140314761Y-74239523D02*
X140362380Y-74334761D01*
X140362380Y-74572857D01*
X140314761Y-74668095D01*
X140219523Y-74715714D01*
X140124285Y-74715714D01*
X140029047Y-74668095D01*
X139981428Y-74572857D01*
X139981428Y-74334761D01*
X139933809Y-74239523D01*
X140362380Y-73334761D02*
X139362380Y-73334761D01*
X140314761Y-73334761D02*
X140362380Y-73430000D01*
X140362380Y-73620476D01*
X140314761Y-73715714D01*
X140267142Y-73763333D01*
X140171904Y-73810952D01*
X139886190Y-73810952D01*
X139790952Y-73763333D01*
X139743333Y-73715714D01*
X139695714Y-73620476D01*
X139695714Y-73430000D01*
X139743333Y-73334761D01*
X140314761Y-72477619D02*
X140362380Y-72572857D01*
X140362380Y-72763333D01*
X140314761Y-72858571D01*
X140219523Y-72906190D01*
X139838571Y-72906190D01*
X139743333Y-72858571D01*
X139695714Y-72763333D01*
X139695714Y-72572857D01*
X139743333Y-72477619D01*
X139838571Y-72430000D01*
X139933809Y-72430000D01*
X140029047Y-72906190D01*
X140362380Y-72001428D02*
X139695714Y-72001428D01*
X139886190Y-72001428D02*
X139790952Y-71953809D01*
X139743333Y-71906190D01*
X139695714Y-71810952D01*
X139695714Y-71715714D01*
X139362380Y-71477619D02*
X139362380Y-70858571D01*
X139743333Y-71191904D01*
X139743333Y-71049047D01*
X139790952Y-70953809D01*
X139838571Y-70906190D01*
X139933809Y-70858571D01*
X140171904Y-70858571D01*
X140267142Y-70906190D01*
X140314761Y-70953809D01*
X140362380Y-71049047D01*
X140362380Y-71334761D01*
X140314761Y-71430000D01*
X140267142Y-71477619D01*
X144446666Y-74382380D02*
X144446666Y-75096666D01*
X144399047Y-75239523D01*
X144303809Y-75334761D01*
X144160952Y-75382380D01*
X144065714Y-75382380D01*
X144970476Y-75382380D02*
X145160952Y-75382380D01*
X145256190Y-75334761D01*
X145303809Y-75287142D01*
X145399047Y-75144285D01*
X145446666Y-74953809D01*
X145446666Y-74572857D01*
X145399047Y-74477619D01*
X145351428Y-74430000D01*
X145256190Y-74382380D01*
X145065714Y-74382380D01*
X144970476Y-74430000D01*
X144922857Y-74477619D01*
X144875238Y-74572857D01*
X144875238Y-74810952D01*
X144922857Y-74906190D01*
X144970476Y-74953809D01*
X145065714Y-75001428D01*
X145256190Y-75001428D01*
X145351428Y-74953809D01*
X145399047Y-74906190D01*
X145446666Y-74810952D01*
X57602380Y-117720476D02*
X56602380Y-117720476D01*
X57316666Y-117387142D01*
X56602380Y-117053809D01*
X57602380Y-117053809D01*
X56602380Y-116720476D02*
X56602380Y-116149047D01*
X57602380Y-116434761D02*
X56602380Y-116434761D01*
X56697619Y-115863333D02*
X56650000Y-115815714D01*
X56602380Y-115720476D01*
X56602380Y-115482380D01*
X56650000Y-115387142D01*
X56697619Y-115339523D01*
X56792857Y-115291904D01*
X56888095Y-115291904D01*
X57030952Y-115339523D01*
X57602380Y-115910952D01*
X57602380Y-115291904D01*
X57221428Y-114863333D02*
X57221428Y-114101428D01*
X57507142Y-113053809D02*
X57554761Y-113101428D01*
X57602380Y-113244285D01*
X57602380Y-113339523D01*
X57554761Y-113482380D01*
X57459523Y-113577619D01*
X57364285Y-113625238D01*
X57173809Y-113672857D01*
X57030952Y-113672857D01*
X56840476Y-113625238D01*
X56745238Y-113577619D01*
X56650000Y-113482380D01*
X56602380Y-113339523D01*
X56602380Y-113244285D01*
X56650000Y-113101428D01*
X56697619Y-113053809D01*
X57602380Y-112577619D02*
X57602380Y-112387142D01*
X57554761Y-112291904D01*
X57507142Y-112244285D01*
X57364285Y-112149047D01*
X57173809Y-112101428D01*
X56792857Y-112101428D01*
X56697619Y-112149047D01*
X56650000Y-112196666D01*
X56602380Y-112291904D01*
X56602380Y-112482380D01*
X56650000Y-112577619D01*
X56697619Y-112625238D01*
X56792857Y-112672857D01*
X57030952Y-112672857D01*
X57126190Y-112625238D01*
X57173809Y-112577619D01*
X57221428Y-112482380D01*
X57221428Y-112291904D01*
X57173809Y-112196666D01*
X57126190Y-112149047D01*
X57030952Y-112101428D01*
X56602380Y-111768095D02*
X56602380Y-111149047D01*
X56983333Y-111482380D01*
X56983333Y-111339523D01*
X57030952Y-111244285D01*
X57078571Y-111196666D01*
X57173809Y-111149047D01*
X57411904Y-111149047D01*
X57507142Y-111196666D01*
X57554761Y-111244285D01*
X57602380Y-111339523D01*
X57602380Y-111625238D01*
X57554761Y-111720476D01*
X57507142Y-111768095D01*
X56935714Y-110291904D02*
X57602380Y-110291904D01*
X56554761Y-110530000D02*
X57269047Y-110768095D01*
X57269047Y-110149047D01*
X56602380Y-109577619D02*
X56602380Y-109482380D01*
X56650000Y-109387142D01*
X56697619Y-109339523D01*
X56792857Y-109291904D01*
X56983333Y-109244285D01*
X57221428Y-109244285D01*
X57411904Y-109291904D01*
X57507142Y-109339523D01*
X57554761Y-109387142D01*
X57602380Y-109482380D01*
X57602380Y-109577619D01*
X57554761Y-109672857D01*
X57507142Y-109720476D01*
X57411904Y-109768095D01*
X57221428Y-109815714D01*
X56983333Y-109815714D01*
X56792857Y-109768095D01*
X56697619Y-109720476D01*
X56650000Y-109672857D01*
X56602380Y-109577619D01*
X56697619Y-108863333D02*
X56650000Y-108815714D01*
X56602380Y-108720476D01*
X56602380Y-108482380D01*
X56650000Y-108387142D01*
X56697619Y-108339523D01*
X56792857Y-108291904D01*
X56888095Y-108291904D01*
X57030952Y-108339523D01*
X57602380Y-108910952D01*
X57602380Y-108291904D01*
X74112380Y-117720476D02*
X73112380Y-117720476D01*
X73826666Y-117387142D01*
X73112380Y-117053809D01*
X74112380Y-117053809D01*
X73112380Y-116720476D02*
X73112380Y-116149047D01*
X74112380Y-116434761D02*
X73112380Y-116434761D01*
X73207619Y-115863333D02*
X73160000Y-115815714D01*
X73112380Y-115720476D01*
X73112380Y-115482380D01*
X73160000Y-115387142D01*
X73207619Y-115339523D01*
X73302857Y-115291904D01*
X73398095Y-115291904D01*
X73540952Y-115339523D01*
X74112380Y-115910952D01*
X74112380Y-115291904D01*
X73731428Y-114863333D02*
X73731428Y-114101428D01*
X74017142Y-113053809D02*
X74064761Y-113101428D01*
X74112380Y-113244285D01*
X74112380Y-113339523D01*
X74064761Y-113482380D01*
X73969523Y-113577619D01*
X73874285Y-113625238D01*
X73683809Y-113672857D01*
X73540952Y-113672857D01*
X73350476Y-113625238D01*
X73255238Y-113577619D01*
X73160000Y-113482380D01*
X73112380Y-113339523D01*
X73112380Y-113244285D01*
X73160000Y-113101428D01*
X73207619Y-113053809D01*
X74112380Y-112577619D02*
X74112380Y-112387142D01*
X74064761Y-112291904D01*
X74017142Y-112244285D01*
X73874285Y-112149047D01*
X73683809Y-112101428D01*
X73302857Y-112101428D01*
X73207619Y-112149047D01*
X73160000Y-112196666D01*
X73112380Y-112291904D01*
X73112380Y-112482380D01*
X73160000Y-112577619D01*
X73207619Y-112625238D01*
X73302857Y-112672857D01*
X73540952Y-112672857D01*
X73636190Y-112625238D01*
X73683809Y-112577619D01*
X73731428Y-112482380D01*
X73731428Y-112291904D01*
X73683809Y-112196666D01*
X73636190Y-112149047D01*
X73540952Y-112101428D01*
X73112380Y-111768095D02*
X73112380Y-111149047D01*
X73493333Y-111482380D01*
X73493333Y-111339523D01*
X73540952Y-111244285D01*
X73588571Y-111196666D01*
X73683809Y-111149047D01*
X73921904Y-111149047D01*
X74017142Y-111196666D01*
X74064761Y-111244285D01*
X74112380Y-111339523D01*
X74112380Y-111625238D01*
X74064761Y-111720476D01*
X74017142Y-111768095D01*
X73445714Y-110291904D02*
X74112380Y-110291904D01*
X73064761Y-110530000D02*
X73779047Y-110768095D01*
X73779047Y-110149047D01*
X73112380Y-109577619D02*
X73112380Y-109482380D01*
X73160000Y-109387142D01*
X73207619Y-109339523D01*
X73302857Y-109291904D01*
X73493333Y-109244285D01*
X73731428Y-109244285D01*
X73921904Y-109291904D01*
X74017142Y-109339523D01*
X74064761Y-109387142D01*
X74112380Y-109482380D01*
X74112380Y-109577619D01*
X74064761Y-109672857D01*
X74017142Y-109720476D01*
X73921904Y-109768095D01*
X73731428Y-109815714D01*
X73493333Y-109815714D01*
X73302857Y-109768095D01*
X73207619Y-109720476D01*
X73160000Y-109672857D01*
X73112380Y-109577619D01*
X73207619Y-108863333D02*
X73160000Y-108815714D01*
X73112380Y-108720476D01*
X73112380Y-108482380D01*
X73160000Y-108387142D01*
X73207619Y-108339523D01*
X73302857Y-108291904D01*
X73398095Y-108291904D01*
X73540952Y-108339523D01*
X74112380Y-108910952D01*
X74112380Y-108291904D01*
X90622380Y-117720476D02*
X89622380Y-117720476D01*
X90336666Y-117387142D01*
X89622380Y-117053809D01*
X90622380Y-117053809D01*
X89622380Y-116720476D02*
X89622380Y-116149047D01*
X90622380Y-116434761D02*
X89622380Y-116434761D01*
X89717619Y-115863333D02*
X89670000Y-115815714D01*
X89622380Y-115720476D01*
X89622380Y-115482380D01*
X89670000Y-115387142D01*
X89717619Y-115339523D01*
X89812857Y-115291904D01*
X89908095Y-115291904D01*
X90050952Y-115339523D01*
X90622380Y-115910952D01*
X90622380Y-115291904D01*
X90241428Y-114863333D02*
X90241428Y-114101428D01*
X90527142Y-113053809D02*
X90574761Y-113101428D01*
X90622380Y-113244285D01*
X90622380Y-113339523D01*
X90574761Y-113482380D01*
X90479523Y-113577619D01*
X90384285Y-113625238D01*
X90193809Y-113672857D01*
X90050952Y-113672857D01*
X89860476Y-113625238D01*
X89765238Y-113577619D01*
X89670000Y-113482380D01*
X89622380Y-113339523D01*
X89622380Y-113244285D01*
X89670000Y-113101428D01*
X89717619Y-113053809D01*
X90622380Y-112577619D02*
X90622380Y-112387142D01*
X90574761Y-112291904D01*
X90527142Y-112244285D01*
X90384285Y-112149047D01*
X90193809Y-112101428D01*
X89812857Y-112101428D01*
X89717619Y-112149047D01*
X89670000Y-112196666D01*
X89622380Y-112291904D01*
X89622380Y-112482380D01*
X89670000Y-112577619D01*
X89717619Y-112625238D01*
X89812857Y-112672857D01*
X90050952Y-112672857D01*
X90146190Y-112625238D01*
X90193809Y-112577619D01*
X90241428Y-112482380D01*
X90241428Y-112291904D01*
X90193809Y-112196666D01*
X90146190Y-112149047D01*
X90050952Y-112101428D01*
X89622380Y-111768095D02*
X89622380Y-111149047D01*
X90003333Y-111482380D01*
X90003333Y-111339523D01*
X90050952Y-111244285D01*
X90098571Y-111196666D01*
X90193809Y-111149047D01*
X90431904Y-111149047D01*
X90527142Y-111196666D01*
X90574761Y-111244285D01*
X90622380Y-111339523D01*
X90622380Y-111625238D01*
X90574761Y-111720476D01*
X90527142Y-111768095D01*
X89955714Y-110291904D02*
X90622380Y-110291904D01*
X89574761Y-110530000D02*
X90289047Y-110768095D01*
X90289047Y-110149047D01*
X89622380Y-109577619D02*
X89622380Y-109482380D01*
X89670000Y-109387142D01*
X89717619Y-109339523D01*
X89812857Y-109291904D01*
X90003333Y-109244285D01*
X90241428Y-109244285D01*
X90431904Y-109291904D01*
X90527142Y-109339523D01*
X90574761Y-109387142D01*
X90622380Y-109482380D01*
X90622380Y-109577619D01*
X90574761Y-109672857D01*
X90527142Y-109720476D01*
X90431904Y-109768095D01*
X90241428Y-109815714D01*
X90003333Y-109815714D01*
X89812857Y-109768095D01*
X89717619Y-109720476D01*
X89670000Y-109672857D01*
X89622380Y-109577619D01*
X89717619Y-108863333D02*
X89670000Y-108815714D01*
X89622380Y-108720476D01*
X89622380Y-108482380D01*
X89670000Y-108387142D01*
X89717619Y-108339523D01*
X89812857Y-108291904D01*
X89908095Y-108291904D01*
X90050952Y-108339523D01*
X90622380Y-108910952D01*
X90622380Y-108291904D01*
X107132380Y-117466476D02*
X106132380Y-117466476D01*
X106846666Y-117133142D01*
X106132380Y-116799809D01*
X107132380Y-116799809D01*
X106132380Y-116466476D02*
X106132380Y-115895047D01*
X107132380Y-116180761D02*
X106132380Y-116180761D01*
X106227619Y-115609333D02*
X106180000Y-115561714D01*
X106132380Y-115466476D01*
X106132380Y-115228380D01*
X106180000Y-115133142D01*
X106227619Y-115085523D01*
X106322857Y-115037904D01*
X106418095Y-115037904D01*
X106560952Y-115085523D01*
X107132380Y-115656952D01*
X107132380Y-115037904D01*
X106751428Y-114609333D02*
X106751428Y-113847428D01*
X107037142Y-112799809D02*
X107084761Y-112847428D01*
X107132380Y-112990285D01*
X107132380Y-113085523D01*
X107084761Y-113228380D01*
X106989523Y-113323619D01*
X106894285Y-113371238D01*
X106703809Y-113418857D01*
X106560952Y-113418857D01*
X106370476Y-113371238D01*
X106275238Y-113323619D01*
X106180000Y-113228380D01*
X106132380Y-113085523D01*
X106132380Y-112990285D01*
X106180000Y-112847428D01*
X106227619Y-112799809D01*
X107132380Y-112323619D02*
X107132380Y-112133142D01*
X107084761Y-112037904D01*
X107037142Y-111990285D01*
X106894285Y-111895047D01*
X106703809Y-111847428D01*
X106322857Y-111847428D01*
X106227619Y-111895047D01*
X106180000Y-111942666D01*
X106132380Y-112037904D01*
X106132380Y-112228380D01*
X106180000Y-112323619D01*
X106227619Y-112371238D01*
X106322857Y-112418857D01*
X106560952Y-112418857D01*
X106656190Y-112371238D01*
X106703809Y-112323619D01*
X106751428Y-112228380D01*
X106751428Y-112037904D01*
X106703809Y-111942666D01*
X106656190Y-111895047D01*
X106560952Y-111847428D01*
X106132380Y-111514095D02*
X106132380Y-110895047D01*
X106513333Y-111228380D01*
X106513333Y-111085523D01*
X106560952Y-110990285D01*
X106608571Y-110942666D01*
X106703809Y-110895047D01*
X106941904Y-110895047D01*
X107037142Y-110942666D01*
X107084761Y-110990285D01*
X107132380Y-111085523D01*
X107132380Y-111371238D01*
X107084761Y-111466476D01*
X107037142Y-111514095D01*
X106465714Y-110037904D02*
X107132380Y-110037904D01*
X106084761Y-110276000D02*
X106799047Y-110514095D01*
X106799047Y-109895047D01*
X106132380Y-109323619D02*
X106132380Y-109228380D01*
X106180000Y-109133142D01*
X106227619Y-109085523D01*
X106322857Y-109037904D01*
X106513333Y-108990285D01*
X106751428Y-108990285D01*
X106941904Y-109037904D01*
X107037142Y-109085523D01*
X107084761Y-109133142D01*
X107132380Y-109228380D01*
X107132380Y-109323619D01*
X107084761Y-109418857D01*
X107037142Y-109466476D01*
X106941904Y-109514095D01*
X106751428Y-109561714D01*
X106513333Y-109561714D01*
X106322857Y-109514095D01*
X106227619Y-109466476D01*
X106180000Y-109418857D01*
X106132380Y-109323619D01*
X106227619Y-108609333D02*
X106180000Y-108561714D01*
X106132380Y-108466476D01*
X106132380Y-108228380D01*
X106180000Y-108133142D01*
X106227619Y-108085523D01*
X106322857Y-108037904D01*
X106418095Y-108037904D01*
X106560952Y-108085523D01*
X107132380Y-108656952D01*
X107132380Y-108037904D01*
X123896380Y-117466476D02*
X122896380Y-117466476D01*
X123610666Y-117133142D01*
X122896380Y-116799809D01*
X123896380Y-116799809D01*
X122896380Y-116466476D02*
X122896380Y-115895047D01*
X123896380Y-116180761D02*
X122896380Y-116180761D01*
X122991619Y-115609333D02*
X122944000Y-115561714D01*
X122896380Y-115466476D01*
X122896380Y-115228380D01*
X122944000Y-115133142D01*
X122991619Y-115085523D01*
X123086857Y-115037904D01*
X123182095Y-115037904D01*
X123324952Y-115085523D01*
X123896380Y-115656952D01*
X123896380Y-115037904D01*
X123515428Y-114609333D02*
X123515428Y-113847428D01*
X123801142Y-112799809D02*
X123848761Y-112847428D01*
X123896380Y-112990285D01*
X123896380Y-113085523D01*
X123848761Y-113228380D01*
X123753523Y-113323619D01*
X123658285Y-113371238D01*
X123467809Y-113418857D01*
X123324952Y-113418857D01*
X123134476Y-113371238D01*
X123039238Y-113323619D01*
X122944000Y-113228380D01*
X122896380Y-113085523D01*
X122896380Y-112990285D01*
X122944000Y-112847428D01*
X122991619Y-112799809D01*
X123896380Y-112323619D02*
X123896380Y-112133142D01*
X123848761Y-112037904D01*
X123801142Y-111990285D01*
X123658285Y-111895047D01*
X123467809Y-111847428D01*
X123086857Y-111847428D01*
X122991619Y-111895047D01*
X122944000Y-111942666D01*
X122896380Y-112037904D01*
X122896380Y-112228380D01*
X122944000Y-112323619D01*
X122991619Y-112371238D01*
X123086857Y-112418857D01*
X123324952Y-112418857D01*
X123420190Y-112371238D01*
X123467809Y-112323619D01*
X123515428Y-112228380D01*
X123515428Y-112037904D01*
X123467809Y-111942666D01*
X123420190Y-111895047D01*
X123324952Y-111847428D01*
X122896380Y-111514095D02*
X122896380Y-110895047D01*
X123277333Y-111228380D01*
X123277333Y-111085523D01*
X123324952Y-110990285D01*
X123372571Y-110942666D01*
X123467809Y-110895047D01*
X123705904Y-110895047D01*
X123801142Y-110942666D01*
X123848761Y-110990285D01*
X123896380Y-111085523D01*
X123896380Y-111371238D01*
X123848761Y-111466476D01*
X123801142Y-111514095D01*
X123229714Y-110037904D02*
X123896380Y-110037904D01*
X122848761Y-110276000D02*
X123563047Y-110514095D01*
X123563047Y-109895047D01*
X122896380Y-109323619D02*
X122896380Y-109228380D01*
X122944000Y-109133142D01*
X122991619Y-109085523D01*
X123086857Y-109037904D01*
X123277333Y-108990285D01*
X123515428Y-108990285D01*
X123705904Y-109037904D01*
X123801142Y-109085523D01*
X123848761Y-109133142D01*
X123896380Y-109228380D01*
X123896380Y-109323619D01*
X123848761Y-109418857D01*
X123801142Y-109466476D01*
X123705904Y-109514095D01*
X123515428Y-109561714D01*
X123277333Y-109561714D01*
X123086857Y-109514095D01*
X122991619Y-109466476D01*
X122944000Y-109418857D01*
X122896380Y-109323619D01*
X122991619Y-108609333D02*
X122944000Y-108561714D01*
X122896380Y-108466476D01*
X122896380Y-108228380D01*
X122944000Y-108133142D01*
X122991619Y-108085523D01*
X123086857Y-108037904D01*
X123182095Y-108037904D01*
X123324952Y-108085523D01*
X123896380Y-108656952D01*
X123896380Y-108037904D01*
X140787380Y-117466476D02*
X139787380Y-117466476D01*
X140501666Y-117133142D01*
X139787380Y-116799809D01*
X140787380Y-116799809D01*
X139787380Y-116466476D02*
X139787380Y-115895047D01*
X140787380Y-116180761D02*
X139787380Y-116180761D01*
X139882619Y-115609333D02*
X139835000Y-115561714D01*
X139787380Y-115466476D01*
X139787380Y-115228380D01*
X139835000Y-115133142D01*
X139882619Y-115085523D01*
X139977857Y-115037904D01*
X140073095Y-115037904D01*
X140215952Y-115085523D01*
X140787380Y-115656952D01*
X140787380Y-115037904D01*
X140406428Y-114609333D02*
X140406428Y-113847428D01*
X140692142Y-112799809D02*
X140739761Y-112847428D01*
X140787380Y-112990285D01*
X140787380Y-113085523D01*
X140739761Y-113228380D01*
X140644523Y-113323619D01*
X140549285Y-113371238D01*
X140358809Y-113418857D01*
X140215952Y-113418857D01*
X140025476Y-113371238D01*
X139930238Y-113323619D01*
X139835000Y-113228380D01*
X139787380Y-113085523D01*
X139787380Y-112990285D01*
X139835000Y-112847428D01*
X139882619Y-112799809D01*
X140787380Y-112323619D02*
X140787380Y-112133142D01*
X140739761Y-112037904D01*
X140692142Y-111990285D01*
X140549285Y-111895047D01*
X140358809Y-111847428D01*
X139977857Y-111847428D01*
X139882619Y-111895047D01*
X139835000Y-111942666D01*
X139787380Y-112037904D01*
X139787380Y-112228380D01*
X139835000Y-112323619D01*
X139882619Y-112371238D01*
X139977857Y-112418857D01*
X140215952Y-112418857D01*
X140311190Y-112371238D01*
X140358809Y-112323619D01*
X140406428Y-112228380D01*
X140406428Y-112037904D01*
X140358809Y-111942666D01*
X140311190Y-111895047D01*
X140215952Y-111847428D01*
X139787380Y-111514095D02*
X139787380Y-110895047D01*
X140168333Y-111228380D01*
X140168333Y-111085523D01*
X140215952Y-110990285D01*
X140263571Y-110942666D01*
X140358809Y-110895047D01*
X140596904Y-110895047D01*
X140692142Y-110942666D01*
X140739761Y-110990285D01*
X140787380Y-111085523D01*
X140787380Y-111371238D01*
X140739761Y-111466476D01*
X140692142Y-111514095D01*
X140120714Y-110037904D02*
X140787380Y-110037904D01*
X139739761Y-110276000D02*
X140454047Y-110514095D01*
X140454047Y-109895047D01*
X139787380Y-109323619D02*
X139787380Y-109228380D01*
X139835000Y-109133142D01*
X139882619Y-109085523D01*
X139977857Y-109037904D01*
X140168333Y-108990285D01*
X140406428Y-108990285D01*
X140596904Y-109037904D01*
X140692142Y-109085523D01*
X140739761Y-109133142D01*
X140787380Y-109228380D01*
X140787380Y-109323619D01*
X140739761Y-109418857D01*
X140692142Y-109466476D01*
X140596904Y-109514095D01*
X140406428Y-109561714D01*
X140168333Y-109561714D01*
X139977857Y-109514095D01*
X139882619Y-109466476D01*
X139835000Y-109418857D01*
X139787380Y-109323619D01*
X139882619Y-108609333D02*
X139835000Y-108561714D01*
X139787380Y-108466476D01*
X139787380Y-108228380D01*
X139835000Y-108133142D01*
X139882619Y-108085523D01*
X139977857Y-108037904D01*
X140073095Y-108037904D01*
X140215952Y-108085523D01*
X140787380Y-108656952D01*
X140787380Y-108037904D01*
X168355359Y-133811099D02*
X167355359Y-133811099D01*
X168069645Y-133477766D01*
X167355359Y-133144433D01*
X168355359Y-133144433D01*
X168355359Y-132192052D02*
X168355359Y-132668242D01*
X167355359Y-132668242D01*
X167355359Y-131953956D02*
X168355359Y-131287290D01*
X167355359Y-131287290D02*
X168355359Y-131953956D01*
X168355359Y-130858718D02*
X168355359Y-130668242D01*
X168307740Y-130573004D01*
X168260121Y-130525385D01*
X168117264Y-130430147D01*
X167926788Y-130382528D01*
X167545836Y-130382528D01*
X167450598Y-130430147D01*
X167402979Y-130477766D01*
X167355359Y-130573004D01*
X167355359Y-130763480D01*
X167402979Y-130858718D01*
X167450598Y-130906337D01*
X167545836Y-130953956D01*
X167783931Y-130953956D01*
X167879169Y-130906337D01*
X167926788Y-130858718D01*
X167974407Y-130763480D01*
X167974407Y-130573004D01*
X167926788Y-130477766D01*
X167879169Y-130430147D01*
X167783931Y-130382528D01*
X168355359Y-129430147D02*
X168355359Y-130001575D01*
X168355359Y-129715861D02*
X167355359Y-129715861D01*
X167498217Y-129811099D01*
X167593455Y-129906337D01*
X167641074Y-130001575D01*
X167450598Y-129049195D02*
X167402979Y-129001575D01*
X167355359Y-128906337D01*
X167355359Y-128668242D01*
X167402979Y-128573004D01*
X167450598Y-128525385D01*
X167545836Y-128477766D01*
X167641074Y-128477766D01*
X167783931Y-128525385D01*
X168355359Y-129096814D01*
X168355359Y-128477766D01*
X168355359Y-127525385D02*
X168355359Y-128096814D01*
X168355359Y-127811099D02*
X167355359Y-127811099D01*
X167498217Y-127906337D01*
X167593455Y-128001575D01*
X167641074Y-128096814D01*
X167355359Y-126906337D02*
X167355359Y-126811099D01*
X167402979Y-126715861D01*
X167450598Y-126668242D01*
X167545836Y-126620623D01*
X167736312Y-126573004D01*
X167974407Y-126573004D01*
X168164883Y-126620623D01*
X168260121Y-126668242D01*
X168307740Y-126715861D01*
X168355359Y-126811099D01*
X168355359Y-126906337D01*
X168307740Y-127001575D01*
X168260121Y-127049195D01*
X168164883Y-127096814D01*
X167974407Y-127144433D01*
X167736312Y-127144433D01*
X167545836Y-127096814D01*
X167450598Y-127049195D01*
X167402979Y-127001575D01*
X167355359Y-126906337D01*
X168355359Y-126144433D02*
X167355359Y-126144433D01*
X168355359Y-125573004D02*
X167783931Y-126001575D01*
X167355359Y-125573004D02*
X167926788Y-126144433D01*
X168355359Y-125144433D02*
X167355359Y-125144433D01*
X167355359Y-124906337D01*
X167402979Y-124763480D01*
X167498217Y-124668242D01*
X167593455Y-124620623D01*
X167783931Y-124573004D01*
X167926788Y-124573004D01*
X168117264Y-124620623D01*
X168212502Y-124668242D01*
X168307740Y-124763480D01*
X168355359Y-124906337D01*
X168355359Y-125144433D01*
X168260121Y-123573004D02*
X168307740Y-123620623D01*
X168355359Y-123763480D01*
X168355359Y-123858718D01*
X168307740Y-124001575D01*
X168212502Y-124096814D01*
X168117264Y-124144433D01*
X167926788Y-124192052D01*
X167783931Y-124192052D01*
X167593455Y-124144433D01*
X167498217Y-124096814D01*
X167402979Y-124001575D01*
X167355359Y-123858718D01*
X167355359Y-123763480D01*
X167402979Y-123620623D01*
X167450598Y-123573004D01*
X167974407Y-123144433D02*
X167974407Y-122382528D01*
X168260121Y-121334909D02*
X168307740Y-121382528D01*
X168355359Y-121525385D01*
X168355359Y-121620623D01*
X168307740Y-121763480D01*
X168212502Y-121858718D01*
X168117264Y-121906337D01*
X167926788Y-121953956D01*
X167783931Y-121953956D01*
X167593455Y-121906337D01*
X167498217Y-121858718D01*
X167402979Y-121763480D01*
X167355359Y-121620623D01*
X167355359Y-121525385D01*
X167402979Y-121382528D01*
X167450598Y-121334909D01*
X168069645Y-120953956D02*
X168069645Y-120477766D01*
X168355359Y-121049195D02*
X167355359Y-120715861D01*
X168355359Y-120382528D01*
X168307740Y-120096814D02*
X168355359Y-119953956D01*
X168355359Y-119715861D01*
X168307740Y-119620623D01*
X168260121Y-119573004D01*
X168164883Y-119525385D01*
X168069645Y-119525385D01*
X167974407Y-119573004D01*
X167926788Y-119620623D01*
X167879169Y-119715861D01*
X167831550Y-119906337D01*
X167783931Y-120001575D01*
X167736312Y-120049195D01*
X167641074Y-120096814D01*
X167545836Y-120096814D01*
X167450598Y-120049195D01*
X167402979Y-120001575D01*
X167355359Y-119906337D01*
X167355359Y-119668242D01*
X167402979Y-119525385D01*
X167974407Y-119096814D02*
X167974407Y-118334909D01*
X168355359Y-117334909D02*
X168355359Y-117906337D01*
X168355359Y-117620623D02*
X167355359Y-117620623D01*
X167498217Y-117715861D01*
X167593455Y-117811099D01*
X167641074Y-117906337D01*
X167355359Y-116715861D02*
X167355359Y-116620623D01*
X167402979Y-116525385D01*
X167450598Y-116477766D01*
X167545836Y-116430147D01*
X167736312Y-116382528D01*
X167974407Y-116382528D01*
X168164883Y-116430147D01*
X168260121Y-116477766D01*
X168307740Y-116525385D01*
X168355359Y-116620623D01*
X168355359Y-116715861D01*
X168307740Y-116811099D01*
X168260121Y-116858718D01*
X168164883Y-116906337D01*
X167974407Y-116953956D01*
X167736312Y-116953956D01*
X167545836Y-116906337D01*
X167450598Y-116858718D01*
X167402979Y-116811099D01*
X167355359Y-116715861D01*
X167450598Y-116001575D02*
X167402979Y-115953956D01*
X167355359Y-115858718D01*
X167355359Y-115620623D01*
X167402979Y-115525385D01*
X167450598Y-115477766D01*
X167545836Y-115430147D01*
X167641074Y-115430147D01*
X167783931Y-115477766D01*
X168355359Y-116049195D01*
X168355359Y-115430147D01*
X167974407Y-115001575D02*
X167974407Y-114239671D01*
X168307740Y-113811099D02*
X168355359Y-113668242D01*
X168355359Y-113430147D01*
X168307740Y-113334909D01*
X168260121Y-113287290D01*
X168164883Y-113239671D01*
X168069645Y-113239671D01*
X167974407Y-113287290D01*
X167926788Y-113334909D01*
X167879169Y-113430147D01*
X167831550Y-113620623D01*
X167783931Y-113715861D01*
X167736312Y-113763480D01*
X167641074Y-113811099D01*
X167545836Y-113811099D01*
X167450598Y-113763480D01*
X167402979Y-113715861D01*
X167355359Y-113620623D01*
X167355359Y-113382528D01*
X167402979Y-113239671D01*
X168355359Y-112811099D02*
X167355359Y-112811099D01*
X167355359Y-112430147D01*
X167402979Y-112334909D01*
X167450598Y-112287290D01*
X167545836Y-112239671D01*
X167688693Y-112239671D01*
X167783931Y-112287290D01*
X167831550Y-112334909D01*
X167879169Y-112430147D01*
X167879169Y-112811099D01*
X163545359Y-121271099D02*
X164354883Y-121271099D01*
X164450121Y-121223480D01*
X164497740Y-121175861D01*
X164545359Y-121080623D01*
X164545359Y-120890147D01*
X164497740Y-120794909D01*
X164450121Y-120747290D01*
X164354883Y-120699671D01*
X163545359Y-120699671D01*
X163640598Y-120271099D02*
X163592979Y-120223480D01*
X163545359Y-120128242D01*
X163545359Y-119890147D01*
X163592979Y-119794909D01*
X163640598Y-119747290D01*
X163735836Y-119699671D01*
X163831074Y-119699671D01*
X163973931Y-119747290D01*
X164545359Y-120318718D01*
X164545359Y-119699671D01*
X42146666Y-69032380D02*
X42146666Y-68032380D01*
X42480000Y-68746666D01*
X42813333Y-68032380D01*
X42813333Y-69032380D01*
X43289523Y-69032380D02*
X43289523Y-68032380D01*
X43289523Y-68508571D02*
X43860952Y-68508571D01*
X43860952Y-69032380D02*
X43860952Y-68032380D01*
X44860952Y-69032380D02*
X44289523Y-69032380D01*
X44575238Y-69032380D02*
X44575238Y-68032380D01*
X44480000Y-68175238D01*
X44384761Y-68270476D01*
X44289523Y-68318095D01*
X42146666Y-149677380D02*
X42146666Y-148677380D01*
X42480000Y-149391666D01*
X42813333Y-148677380D01*
X42813333Y-149677380D01*
X43289523Y-149677380D02*
X43289523Y-148677380D01*
X43289523Y-149153571D02*
X43860952Y-149153571D01*
X43860952Y-149677380D02*
X43860952Y-148677380D01*
X44289523Y-148772619D02*
X44337142Y-148725000D01*
X44432380Y-148677380D01*
X44670476Y-148677380D01*
X44765714Y-148725000D01*
X44813333Y-148772619D01*
X44860952Y-148867857D01*
X44860952Y-148963095D01*
X44813333Y-149105952D01*
X44241904Y-149677380D01*
X44860952Y-149677380D01*
X201531666Y-69032380D02*
X201531666Y-68032380D01*
X201865000Y-68746666D01*
X202198333Y-68032380D01*
X202198333Y-69032380D01*
X202674523Y-69032380D02*
X202674523Y-68032380D01*
X202674523Y-68508571D02*
X203245952Y-68508571D01*
X203245952Y-69032380D02*
X203245952Y-68032380D01*
X203626904Y-68032380D02*
X204245952Y-68032380D01*
X203912619Y-68413333D01*
X204055476Y-68413333D01*
X204150714Y-68460952D01*
X204198333Y-68508571D01*
X204245952Y-68603809D01*
X204245952Y-68841904D01*
X204198333Y-68937142D01*
X204150714Y-68984761D01*
X204055476Y-69032380D01*
X203769761Y-69032380D01*
X203674523Y-68984761D01*
X203626904Y-68937142D01*
X202166666Y-149042380D02*
X202166666Y-148042380D01*
X202500000Y-148756666D01*
X202833333Y-148042380D01*
X202833333Y-149042380D01*
X203309523Y-149042380D02*
X203309523Y-148042380D01*
X203309523Y-148518571D02*
X203880952Y-148518571D01*
X203880952Y-149042380D02*
X203880952Y-148042380D01*
X204785714Y-148375714D02*
X204785714Y-149042380D01*
X204547619Y-147994761D02*
X204309523Y-148709047D01*
X204928571Y-148709047D01*
X184812380Y-78953809D02*
X183812380Y-78953809D01*
X183812380Y-78572857D01*
X183860000Y-78477619D01*
X183907619Y-78430000D01*
X184002857Y-78382380D01*
X184145714Y-78382380D01*
X184240952Y-78430000D01*
X184288571Y-78477619D01*
X184336190Y-78572857D01*
X184336190Y-78953809D01*
X184812380Y-77953809D02*
X184145714Y-77953809D01*
X183812380Y-77953809D02*
X183860000Y-78001428D01*
X183907619Y-77953809D01*
X183860000Y-77906190D01*
X183812380Y-77953809D01*
X183907619Y-77953809D01*
X184145714Y-77477619D02*
X184812380Y-77477619D01*
X184240952Y-77477619D02*
X184193333Y-77430000D01*
X184145714Y-77334761D01*
X184145714Y-77191904D01*
X184193333Y-77096666D01*
X184288571Y-77049047D01*
X184812380Y-77049047D01*
X184812380Y-76572857D02*
X183812380Y-76572857D01*
X184288571Y-76572857D02*
X184288571Y-76001428D01*
X184812380Y-76001428D02*
X183812380Y-76001428D01*
X184764761Y-75144285D02*
X184812380Y-75239523D01*
X184812380Y-75430000D01*
X184764761Y-75525238D01*
X184669523Y-75572857D01*
X184288571Y-75572857D01*
X184193333Y-75525238D01*
X184145714Y-75430000D01*
X184145714Y-75239523D01*
X184193333Y-75144285D01*
X184288571Y-75096666D01*
X184383809Y-75096666D01*
X184479047Y-75572857D01*
X184812380Y-74239523D02*
X184288571Y-74239523D01*
X184193333Y-74287142D01*
X184145714Y-74382380D01*
X184145714Y-74572857D01*
X184193333Y-74668095D01*
X184764761Y-74239523D02*
X184812380Y-74334761D01*
X184812380Y-74572857D01*
X184764761Y-74668095D01*
X184669523Y-74715714D01*
X184574285Y-74715714D01*
X184479047Y-74668095D01*
X184431428Y-74572857D01*
X184431428Y-74334761D01*
X184383809Y-74239523D01*
X184812380Y-73334761D02*
X183812380Y-73334761D01*
X184764761Y-73334761D02*
X184812380Y-73430000D01*
X184812380Y-73620476D01*
X184764761Y-73715714D01*
X184717142Y-73763333D01*
X184621904Y-73810952D01*
X184336190Y-73810952D01*
X184240952Y-73763333D01*
X184193333Y-73715714D01*
X184145714Y-73620476D01*
X184145714Y-73430000D01*
X184193333Y-73334761D01*
X184764761Y-72477619D02*
X184812380Y-72572857D01*
X184812380Y-72763333D01*
X184764761Y-72858571D01*
X184669523Y-72906190D01*
X184288571Y-72906190D01*
X184193333Y-72858571D01*
X184145714Y-72763333D01*
X184145714Y-72572857D01*
X184193333Y-72477619D01*
X184288571Y-72430000D01*
X184383809Y-72430000D01*
X184479047Y-72906190D01*
X184812380Y-72001428D02*
X184145714Y-72001428D01*
X184336190Y-72001428D02*
X184240952Y-71953809D01*
X184193333Y-71906190D01*
X184145714Y-71810952D01*
X184145714Y-71715714D01*
X184145714Y-70953809D02*
X184812380Y-70953809D01*
X183764761Y-71191904D02*
X184479047Y-71430000D01*
X184479047Y-70810952D01*
X189690476Y-74382380D02*
X189690476Y-75096666D01*
X189642857Y-75239523D01*
X189547619Y-75334761D01*
X189404761Y-75382380D01*
X189309523Y-75382380D01*
X190690476Y-75382380D02*
X190119047Y-75382380D01*
X190404761Y-75382380D02*
X190404761Y-74382380D01*
X190309523Y-74525238D01*
X190214285Y-74620476D01*
X190119047Y-74668095D01*
X191309523Y-74382380D02*
X191404761Y-74382380D01*
X191500000Y-74430000D01*
X191547619Y-74477619D01*
X191595238Y-74572857D01*
X191642857Y-74763333D01*
X191642857Y-75001428D01*
X191595238Y-75191904D01*
X191547619Y-75287142D01*
X191500000Y-75334761D01*
X191404761Y-75382380D01*
X191309523Y-75382380D01*
X191214285Y-75334761D01*
X191166666Y-75287142D01*
X191119047Y-75191904D01*
X191071428Y-75001428D01*
X191071428Y-74763333D01*
X191119047Y-74572857D01*
X191166666Y-74477619D01*
X191214285Y-74430000D01*
X191309523Y-74382380D01*
X162527380Y-113862380D02*
X161955952Y-113862380D01*
X162241666Y-113862380D02*
X162241666Y-112862380D01*
X162146428Y-113005238D01*
X162051190Y-113100476D01*
X161955952Y-113148095D01*
X163146428Y-112862380D02*
X163241666Y-112862380D01*
X163336904Y-112910000D01*
X163384523Y-112957619D01*
X163432142Y-113052857D01*
X163479761Y-113243333D01*
X163479761Y-113481428D01*
X163432142Y-113671904D01*
X163384523Y-113767142D01*
X163336904Y-113814761D01*
X163241666Y-113862380D01*
X163146428Y-113862380D01*
X163051190Y-113814761D01*
X163003571Y-113767142D01*
X162955952Y-113671904D01*
X162908333Y-113481428D01*
X162908333Y-113243333D01*
X162955952Y-113052857D01*
X163003571Y-112957619D01*
X163051190Y-112910000D01*
X163146428Y-112862380D01*
X164098809Y-112862380D02*
X164194047Y-112862380D01*
X164289285Y-112910000D01*
X164336904Y-112957619D01*
X164384523Y-113052857D01*
X164432142Y-113243333D01*
X164432142Y-113481428D01*
X164384523Y-113671904D01*
X164336904Y-113767142D01*
X164289285Y-113814761D01*
X164194047Y-113862380D01*
X164098809Y-113862380D01*
X164003571Y-113814761D01*
X163955952Y-113767142D01*
X163908333Y-113671904D01*
X163860714Y-113481428D01*
X163860714Y-113243333D01*
X163908333Y-113052857D01*
X163955952Y-112957619D01*
X164003571Y-112910000D01*
X164098809Y-112862380D01*
X164860714Y-113195714D02*
X164860714Y-113862380D01*
X164860714Y-113290952D02*
X164908333Y-113243333D01*
X165003571Y-113195714D01*
X165146428Y-113195714D01*
X165241666Y-113243333D01*
X165289285Y-113338571D01*
X165289285Y-113862380D01*
X166098809Y-113338571D02*
X165765476Y-113338571D01*
X165765476Y-113862380D02*
X165765476Y-112862380D01*
X166241666Y-112862380D01*
D13*
X163991666Y-111938571D02*
X163967857Y-111962380D01*
X163896428Y-111986190D01*
X163848809Y-111986190D01*
X163777380Y-111962380D01*
X163729761Y-111914761D01*
X163705952Y-111867142D01*
X163682142Y-111771904D01*
X163682142Y-111700476D01*
X163705952Y-111605238D01*
X163729761Y-111557619D01*
X163777380Y-111510000D01*
X163848809Y-111486190D01*
X163896428Y-111486190D01*
X163967857Y-111510000D01*
X163991666Y-111533809D01*
X164467857Y-111986190D02*
X164182142Y-111986190D01*
X164325000Y-111986190D02*
X164325000Y-111486190D01*
X164277380Y-111557619D01*
X164229761Y-111605238D01*
X164182142Y-111629047D01*
D12*
X160480359Y-118010623D02*
X160480359Y-118582052D01*
X160480359Y-118296337D02*
X159480359Y-118296337D01*
X159623217Y-118391575D01*
X159718455Y-118486814D01*
X159766074Y-118582052D01*
X159480359Y-117391575D02*
X159480359Y-117296337D01*
X159527979Y-117201099D01*
X159575598Y-117153480D01*
X159670836Y-117105861D01*
X159861312Y-117058242D01*
X160099407Y-117058242D01*
X160289883Y-117105861D01*
X160385121Y-117153480D01*
X160432740Y-117201099D01*
X160480359Y-117296337D01*
X160480359Y-117391575D01*
X160432740Y-117486814D01*
X160385121Y-117534433D01*
X160289883Y-117582052D01*
X160099407Y-117629671D01*
X159861312Y-117629671D01*
X159670836Y-117582052D01*
X159575598Y-117534433D01*
X159527979Y-117486814D01*
X159480359Y-117391575D01*
X159813693Y-116629671D02*
X160480359Y-116629671D01*
X159908931Y-116629671D02*
X159861312Y-116582052D01*
X159813693Y-116486814D01*
X159813693Y-116343956D01*
X159861312Y-116248718D01*
X159956550Y-116201099D01*
X160480359Y-116201099D01*
X159956550Y-115391575D02*
X159956550Y-115724909D01*
X160480359Y-115724909D02*
X159480359Y-115724909D01*
X159480359Y-115248718D01*
D13*
X158556550Y-117022528D02*
X158580359Y-117046337D01*
X158604169Y-117117766D01*
X158604169Y-117165385D01*
X158580359Y-117236814D01*
X158532740Y-117284433D01*
X158485121Y-117308242D01*
X158389883Y-117332052D01*
X158318455Y-117332052D01*
X158223217Y-117308242D01*
X158175598Y-117284433D01*
X158127979Y-117236814D01*
X158104169Y-117165385D01*
X158104169Y-117117766D01*
X158127979Y-117046337D01*
X158151788Y-117022528D01*
X158151788Y-116832052D02*
X158127979Y-116808242D01*
X158104169Y-116760623D01*
X158104169Y-116641575D01*
X158127979Y-116593956D01*
X158151788Y-116570147D01*
X158199407Y-116546337D01*
X158247026Y-116546337D01*
X158318455Y-116570147D01*
X158604169Y-116855861D01*
X158604169Y-116546337D01*
D12*
X160979761Y-115402380D02*
X160789285Y-115402380D01*
X160694047Y-115450000D01*
X160646428Y-115497619D01*
X160551190Y-115640476D01*
X160503571Y-115830952D01*
X160503571Y-116211904D01*
X160551190Y-116307142D01*
X160598809Y-116354761D01*
X160694047Y-116402380D01*
X160884523Y-116402380D01*
X160979761Y-116354761D01*
X161027380Y-116307142D01*
X161075000Y-116211904D01*
X161075000Y-115973809D01*
X161027380Y-115878571D01*
X160979761Y-115830952D01*
X160884523Y-115783333D01*
X160694047Y-115783333D01*
X160598809Y-115830952D01*
X160551190Y-115878571D01*
X160503571Y-115973809D01*
X161503571Y-116402380D02*
X161503571Y-115402380D01*
X161598809Y-116021428D02*
X161884523Y-116402380D01*
X161884523Y-115735714D02*
X161503571Y-116116666D01*
X162313095Y-116021428D02*
X163075000Y-116021428D01*
X164075000Y-116402380D02*
X163503571Y-116402380D01*
X163789285Y-116402380D02*
X163789285Y-115402380D01*
X163694047Y-115545238D01*
X163598809Y-115640476D01*
X163503571Y-115688095D01*
X164694047Y-115402380D02*
X164789285Y-115402380D01*
X164884523Y-115450000D01*
X164932142Y-115497619D01*
X164979761Y-115592857D01*
X165027380Y-115783333D01*
X165027380Y-116021428D01*
X164979761Y-116211904D01*
X164932142Y-116307142D01*
X164884523Y-116354761D01*
X164789285Y-116402380D01*
X164694047Y-116402380D01*
X164598809Y-116354761D01*
X164551190Y-116307142D01*
X164503571Y-116211904D01*
X164455952Y-116021428D01*
X164455952Y-115783333D01*
X164503571Y-115592857D01*
X164551190Y-115497619D01*
X164598809Y-115450000D01*
X164694047Y-115402380D01*
X165646428Y-115402380D02*
X165741666Y-115402380D01*
X165836904Y-115450000D01*
X165884523Y-115497619D01*
X165932142Y-115592857D01*
X165979761Y-115783333D01*
X165979761Y-116021428D01*
X165932142Y-116211904D01*
X165884523Y-116307142D01*
X165836904Y-116354761D01*
X165741666Y-116402380D01*
X165646428Y-116402380D01*
X165551190Y-116354761D01*
X165503571Y-116307142D01*
X165455952Y-116211904D01*
X165408333Y-116021428D01*
X165408333Y-115783333D01*
X165455952Y-115592857D01*
X165503571Y-115497619D01*
X165551190Y-115450000D01*
X165646428Y-115402380D01*
X166408333Y-116402380D02*
X166408333Y-115402380D01*
X166503571Y-116021428D02*
X166789285Y-116402380D01*
X166789285Y-115735714D02*
X166408333Y-116116666D01*
X167360714Y-116307142D02*
X167408333Y-116354761D01*
X167360714Y-116402380D01*
X167313095Y-116354761D01*
X167360714Y-116307142D01*
X167360714Y-116402380D01*
X167170238Y-115450000D02*
X167265476Y-115402380D01*
X167503571Y-115402380D01*
X167598809Y-115450000D01*
X167646428Y-115545238D01*
X167646428Y-115640476D01*
X167598809Y-115735714D01*
X167551190Y-115783333D01*
X167455952Y-115830952D01*
X167408333Y-115878571D01*
X167360714Y-115973809D01*
X167360714Y-116021428D01*
D13*
X163991666Y-114526190D02*
X163825000Y-114288095D01*
X163705952Y-114526190D02*
X163705952Y-114026190D01*
X163896428Y-114026190D01*
X163944047Y-114050000D01*
X163967857Y-114073809D01*
X163991666Y-114121428D01*
X163991666Y-114192857D01*
X163967857Y-114240476D01*
X163944047Y-114264285D01*
X163896428Y-114288095D01*
X163705952Y-114288095D01*
X164467857Y-114526190D02*
X164182142Y-114526190D01*
X164325000Y-114526190D02*
X164325000Y-114026190D01*
X164277380Y-114097619D01*
X164229761Y-114145238D01*
X164182142Y-114169047D01*
D12*
X144072619Y-81265000D02*
X144025000Y-81217380D01*
X143977380Y-81122142D01*
X143977380Y-80884047D01*
X144025000Y-80788809D01*
X144072619Y-80741190D01*
X144167857Y-80693571D01*
X144263095Y-80693571D01*
X144405952Y-80741190D01*
X144977380Y-81312619D01*
X144977380Y-80693571D01*
X144882142Y-80265000D02*
X144929761Y-80217380D01*
X144977380Y-80265000D01*
X144929761Y-80312619D01*
X144882142Y-80265000D01*
X144977380Y-80265000D01*
X144072619Y-79836428D02*
X144025000Y-79788809D01*
X143977380Y-79693571D01*
X143977380Y-79455476D01*
X144025000Y-79360238D01*
X144072619Y-79312619D01*
X144167857Y-79265000D01*
X144263095Y-79265000D01*
X144405952Y-79312619D01*
X144977380Y-79884047D01*
X144977380Y-79265000D01*
X144977380Y-78836428D02*
X143977380Y-78836428D01*
X144977380Y-78265000D02*
X144405952Y-78693571D01*
X143977380Y-78265000D02*
X144548809Y-78836428D01*
D13*
X143101190Y-79848333D02*
X142863095Y-80015000D01*
X143101190Y-80134047D02*
X142601190Y-80134047D01*
X142601190Y-79943571D01*
X142625000Y-79895952D01*
X142648809Y-79872142D01*
X142696428Y-79848333D01*
X142767857Y-79848333D01*
X142815476Y-79872142D01*
X142839285Y-79895952D01*
X142863095Y-79943571D01*
X142863095Y-80134047D01*
X142648809Y-79657857D02*
X142625000Y-79634047D01*
X142601190Y-79586428D01*
X142601190Y-79467380D01*
X142625000Y-79419761D01*
X142648809Y-79395952D01*
X142696428Y-79372142D01*
X142744047Y-79372142D01*
X142815476Y-79395952D01*
X143101190Y-79681666D01*
X143101190Y-79372142D01*
D12*
X102410000Y-48862380D02*
X102410000Y-47862380D01*
X102981428Y-48862380D01*
X102981428Y-47862380D01*
X103838571Y-48814761D02*
X103743333Y-48862380D01*
X103552857Y-48862380D01*
X103457619Y-48814761D01*
X103410000Y-48719523D01*
X103410000Y-48338571D01*
X103457619Y-48243333D01*
X103552857Y-48195714D01*
X103743333Y-48195714D01*
X103838571Y-48243333D01*
X103886190Y-48338571D01*
X103886190Y-48433809D01*
X103410000Y-48529047D01*
X104457619Y-48862380D02*
X104362380Y-48814761D01*
X104314761Y-48767142D01*
X104267142Y-48671904D01*
X104267142Y-48386190D01*
X104314761Y-48290952D01*
X104362380Y-48243333D01*
X104457619Y-48195714D01*
X104600476Y-48195714D01*
X104695714Y-48243333D01*
X104743333Y-48290952D01*
X104790952Y-48386190D01*
X104790952Y-48671904D01*
X104743333Y-48767142D01*
X104695714Y-48814761D01*
X104600476Y-48862380D01*
X104457619Y-48862380D01*
X105219523Y-48862380D02*
X105219523Y-47862380D01*
X105600476Y-47862380D01*
X105695714Y-47910000D01*
X105743333Y-47957619D01*
X105790952Y-48052857D01*
X105790952Y-48195714D01*
X105743333Y-48290952D01*
X105695714Y-48338571D01*
X105600476Y-48386190D01*
X105219523Y-48386190D01*
X106219523Y-48862380D02*
X106219523Y-48195714D01*
X106219523Y-47862380D02*
X106171904Y-47910000D01*
X106219523Y-47957619D01*
X106267142Y-47910000D01*
X106219523Y-47862380D01*
X106219523Y-47957619D01*
X106600476Y-48862380D02*
X107124285Y-48195714D01*
X106600476Y-48195714D02*
X107124285Y-48862380D01*
X107886190Y-48814761D02*
X107790952Y-48862380D01*
X107600476Y-48862380D01*
X107505238Y-48814761D01*
X107457619Y-48719523D01*
X107457619Y-48338571D01*
X107505238Y-48243333D01*
X107600476Y-48195714D01*
X107790952Y-48195714D01*
X107886190Y-48243333D01*
X107933809Y-48338571D01*
X107933809Y-48433809D01*
X107457619Y-48529047D01*
X108505238Y-48862380D02*
X108410000Y-48814761D01*
X108362380Y-48719523D01*
X108362380Y-47862380D01*
X104671904Y-40942380D02*
X104671904Y-39942380D01*
X104910000Y-39942380D01*
X105052857Y-39990000D01*
X105148095Y-40085238D01*
X105195714Y-40180476D01*
X105243333Y-40370952D01*
X105243333Y-40513809D01*
X105195714Y-40704285D01*
X105148095Y-40799523D01*
X105052857Y-40894761D01*
X104910000Y-40942380D01*
X104671904Y-40942380D01*
X105624285Y-40037619D02*
X105671904Y-39990000D01*
X105767142Y-39942380D01*
X106005238Y-39942380D01*
X106100476Y-39990000D01*
X106148095Y-40037619D01*
X106195714Y-40132857D01*
X106195714Y-40228095D01*
X106148095Y-40370952D01*
X105576666Y-40942380D01*
X106195714Y-40942380D01*
X89710000Y-48862380D02*
X89710000Y-47862380D01*
X90281428Y-48862380D01*
X90281428Y-47862380D01*
X91138571Y-48814761D02*
X91043333Y-48862380D01*
X90852857Y-48862380D01*
X90757619Y-48814761D01*
X90710000Y-48719523D01*
X90710000Y-48338571D01*
X90757619Y-48243333D01*
X90852857Y-48195714D01*
X91043333Y-48195714D01*
X91138571Y-48243333D01*
X91186190Y-48338571D01*
X91186190Y-48433809D01*
X90710000Y-48529047D01*
X91757619Y-48862380D02*
X91662380Y-48814761D01*
X91614761Y-48767142D01*
X91567142Y-48671904D01*
X91567142Y-48386190D01*
X91614761Y-48290952D01*
X91662380Y-48243333D01*
X91757619Y-48195714D01*
X91900476Y-48195714D01*
X91995714Y-48243333D01*
X92043333Y-48290952D01*
X92090952Y-48386190D01*
X92090952Y-48671904D01*
X92043333Y-48767142D01*
X91995714Y-48814761D01*
X91900476Y-48862380D01*
X91757619Y-48862380D01*
X92519523Y-48862380D02*
X92519523Y-47862380D01*
X92900476Y-47862380D01*
X92995714Y-47910000D01*
X93043333Y-47957619D01*
X93090952Y-48052857D01*
X93090952Y-48195714D01*
X93043333Y-48290952D01*
X92995714Y-48338571D01*
X92900476Y-48386190D01*
X92519523Y-48386190D01*
X93519523Y-48862380D02*
X93519523Y-48195714D01*
X93519523Y-47862380D02*
X93471904Y-47910000D01*
X93519523Y-47957619D01*
X93567142Y-47910000D01*
X93519523Y-47862380D01*
X93519523Y-47957619D01*
X93900476Y-48862380D02*
X94424285Y-48195714D01*
X93900476Y-48195714D02*
X94424285Y-48862380D01*
X95186190Y-48814761D02*
X95090952Y-48862380D01*
X94900476Y-48862380D01*
X94805238Y-48814761D01*
X94757619Y-48719523D01*
X94757619Y-48338571D01*
X94805238Y-48243333D01*
X94900476Y-48195714D01*
X95090952Y-48195714D01*
X95186190Y-48243333D01*
X95233809Y-48338571D01*
X95233809Y-48433809D01*
X94757619Y-48529047D01*
X95805238Y-48862380D02*
X95710000Y-48814761D01*
X95662380Y-48719523D01*
X95662380Y-47862380D01*
X91971904Y-40942380D02*
X91971904Y-39942380D01*
X92210000Y-39942380D01*
X92352857Y-39990000D01*
X92448095Y-40085238D01*
X92495714Y-40180476D01*
X92543333Y-40370952D01*
X92543333Y-40513809D01*
X92495714Y-40704285D01*
X92448095Y-40799523D01*
X92352857Y-40894761D01*
X92210000Y-40942380D01*
X91971904Y-40942380D01*
X92876666Y-39942380D02*
X93495714Y-39942380D01*
X93162380Y-40323333D01*
X93305238Y-40323333D01*
X93400476Y-40370952D01*
X93448095Y-40418571D01*
X93495714Y-40513809D01*
X93495714Y-40751904D01*
X93448095Y-40847142D01*
X93400476Y-40894761D01*
X93305238Y-40942380D01*
X93019523Y-40942380D01*
X92924285Y-40894761D01*
X92876666Y-40847142D01*
X77010000Y-48862380D02*
X77010000Y-47862380D01*
X77581428Y-48862380D01*
X77581428Y-47862380D01*
X78438571Y-48814761D02*
X78343333Y-48862380D01*
X78152857Y-48862380D01*
X78057619Y-48814761D01*
X78010000Y-48719523D01*
X78010000Y-48338571D01*
X78057619Y-48243333D01*
X78152857Y-48195714D01*
X78343333Y-48195714D01*
X78438571Y-48243333D01*
X78486190Y-48338571D01*
X78486190Y-48433809D01*
X78010000Y-48529047D01*
X79057619Y-48862380D02*
X78962380Y-48814761D01*
X78914761Y-48767142D01*
X78867142Y-48671904D01*
X78867142Y-48386190D01*
X78914761Y-48290952D01*
X78962380Y-48243333D01*
X79057619Y-48195714D01*
X79200476Y-48195714D01*
X79295714Y-48243333D01*
X79343333Y-48290952D01*
X79390952Y-48386190D01*
X79390952Y-48671904D01*
X79343333Y-48767142D01*
X79295714Y-48814761D01*
X79200476Y-48862380D01*
X79057619Y-48862380D01*
X79819523Y-48862380D02*
X79819523Y-47862380D01*
X80200476Y-47862380D01*
X80295714Y-47910000D01*
X80343333Y-47957619D01*
X80390952Y-48052857D01*
X80390952Y-48195714D01*
X80343333Y-48290952D01*
X80295714Y-48338571D01*
X80200476Y-48386190D01*
X79819523Y-48386190D01*
X80819523Y-48862380D02*
X80819523Y-48195714D01*
X80819523Y-47862380D02*
X80771904Y-47910000D01*
X80819523Y-47957619D01*
X80867142Y-47910000D01*
X80819523Y-47862380D01*
X80819523Y-47957619D01*
X81200476Y-48862380D02*
X81724285Y-48195714D01*
X81200476Y-48195714D02*
X81724285Y-48862380D01*
X82486190Y-48814761D02*
X82390952Y-48862380D01*
X82200476Y-48862380D01*
X82105238Y-48814761D01*
X82057619Y-48719523D01*
X82057619Y-48338571D01*
X82105238Y-48243333D01*
X82200476Y-48195714D01*
X82390952Y-48195714D01*
X82486190Y-48243333D01*
X82533809Y-48338571D01*
X82533809Y-48433809D01*
X82057619Y-48529047D01*
X83105238Y-48862380D02*
X83010000Y-48814761D01*
X82962380Y-48719523D01*
X82962380Y-47862380D01*
X79271904Y-40942380D02*
X79271904Y-39942380D01*
X79510000Y-39942380D01*
X79652857Y-39990000D01*
X79748095Y-40085238D01*
X79795714Y-40180476D01*
X79843333Y-40370952D01*
X79843333Y-40513809D01*
X79795714Y-40704285D01*
X79748095Y-40799523D01*
X79652857Y-40894761D01*
X79510000Y-40942380D01*
X79271904Y-40942380D01*
X80700476Y-40275714D02*
X80700476Y-40942380D01*
X80462380Y-39894761D02*
X80224285Y-40609047D01*
X80843333Y-40609047D01*
X64310000Y-48862380D02*
X64310000Y-47862380D01*
X64881428Y-48862380D01*
X64881428Y-47862380D01*
X65738571Y-48814761D02*
X65643333Y-48862380D01*
X65452857Y-48862380D01*
X65357619Y-48814761D01*
X65310000Y-48719523D01*
X65310000Y-48338571D01*
X65357619Y-48243333D01*
X65452857Y-48195714D01*
X65643333Y-48195714D01*
X65738571Y-48243333D01*
X65786190Y-48338571D01*
X65786190Y-48433809D01*
X65310000Y-48529047D01*
X66357619Y-48862380D02*
X66262380Y-48814761D01*
X66214761Y-48767142D01*
X66167142Y-48671904D01*
X66167142Y-48386190D01*
X66214761Y-48290952D01*
X66262380Y-48243333D01*
X66357619Y-48195714D01*
X66500476Y-48195714D01*
X66595714Y-48243333D01*
X66643333Y-48290952D01*
X66690952Y-48386190D01*
X66690952Y-48671904D01*
X66643333Y-48767142D01*
X66595714Y-48814761D01*
X66500476Y-48862380D01*
X66357619Y-48862380D01*
X67119523Y-48862380D02*
X67119523Y-47862380D01*
X67500476Y-47862380D01*
X67595714Y-47910000D01*
X67643333Y-47957619D01*
X67690952Y-48052857D01*
X67690952Y-48195714D01*
X67643333Y-48290952D01*
X67595714Y-48338571D01*
X67500476Y-48386190D01*
X67119523Y-48386190D01*
X68119523Y-48862380D02*
X68119523Y-48195714D01*
X68119523Y-47862380D02*
X68071904Y-47910000D01*
X68119523Y-47957619D01*
X68167142Y-47910000D01*
X68119523Y-47862380D01*
X68119523Y-47957619D01*
X68500476Y-48862380D02*
X69024285Y-48195714D01*
X68500476Y-48195714D02*
X69024285Y-48862380D01*
X69786190Y-48814761D02*
X69690952Y-48862380D01*
X69500476Y-48862380D01*
X69405238Y-48814761D01*
X69357619Y-48719523D01*
X69357619Y-48338571D01*
X69405238Y-48243333D01*
X69500476Y-48195714D01*
X69690952Y-48195714D01*
X69786190Y-48243333D01*
X69833809Y-48338571D01*
X69833809Y-48433809D01*
X69357619Y-48529047D01*
X70405238Y-48862380D02*
X70310000Y-48814761D01*
X70262380Y-48719523D01*
X70262380Y-47862380D01*
X66571904Y-40942380D02*
X66571904Y-39942380D01*
X66810000Y-39942380D01*
X66952857Y-39990000D01*
X67048095Y-40085238D01*
X67095714Y-40180476D01*
X67143333Y-40370952D01*
X67143333Y-40513809D01*
X67095714Y-40704285D01*
X67048095Y-40799523D01*
X66952857Y-40894761D01*
X66810000Y-40942380D01*
X66571904Y-40942380D01*
X68048095Y-39942380D02*
X67571904Y-39942380D01*
X67524285Y-40418571D01*
X67571904Y-40370952D01*
X67667142Y-40323333D01*
X67905238Y-40323333D01*
X68000476Y-40370952D01*
X68048095Y-40418571D01*
X68095714Y-40513809D01*
X68095714Y-40751904D01*
X68048095Y-40847142D01*
X68000476Y-40894761D01*
X67905238Y-40942380D01*
X67667142Y-40942380D01*
X67571904Y-40894761D01*
X67524285Y-40847142D01*
X51610000Y-48862380D02*
X51610000Y-47862380D01*
X52181428Y-48862380D01*
X52181428Y-47862380D01*
X53038571Y-48814761D02*
X52943333Y-48862380D01*
X52752857Y-48862380D01*
X52657619Y-48814761D01*
X52610000Y-48719523D01*
X52610000Y-48338571D01*
X52657619Y-48243333D01*
X52752857Y-48195714D01*
X52943333Y-48195714D01*
X53038571Y-48243333D01*
X53086190Y-48338571D01*
X53086190Y-48433809D01*
X52610000Y-48529047D01*
X53657619Y-48862380D02*
X53562380Y-48814761D01*
X53514761Y-48767142D01*
X53467142Y-48671904D01*
X53467142Y-48386190D01*
X53514761Y-48290952D01*
X53562380Y-48243333D01*
X53657619Y-48195714D01*
X53800476Y-48195714D01*
X53895714Y-48243333D01*
X53943333Y-48290952D01*
X53990952Y-48386190D01*
X53990952Y-48671904D01*
X53943333Y-48767142D01*
X53895714Y-48814761D01*
X53800476Y-48862380D01*
X53657619Y-48862380D01*
X54419523Y-48862380D02*
X54419523Y-47862380D01*
X54800476Y-47862380D01*
X54895714Y-47910000D01*
X54943333Y-47957619D01*
X54990952Y-48052857D01*
X54990952Y-48195714D01*
X54943333Y-48290952D01*
X54895714Y-48338571D01*
X54800476Y-48386190D01*
X54419523Y-48386190D01*
X55419523Y-48862380D02*
X55419523Y-48195714D01*
X55419523Y-47862380D02*
X55371904Y-47910000D01*
X55419523Y-47957619D01*
X55467142Y-47910000D01*
X55419523Y-47862380D01*
X55419523Y-47957619D01*
X55800476Y-48862380D02*
X56324285Y-48195714D01*
X55800476Y-48195714D02*
X56324285Y-48862380D01*
X57086190Y-48814761D02*
X56990952Y-48862380D01*
X56800476Y-48862380D01*
X56705238Y-48814761D01*
X56657619Y-48719523D01*
X56657619Y-48338571D01*
X56705238Y-48243333D01*
X56800476Y-48195714D01*
X56990952Y-48195714D01*
X57086190Y-48243333D01*
X57133809Y-48338571D01*
X57133809Y-48433809D01*
X56657619Y-48529047D01*
X57705238Y-48862380D02*
X57610000Y-48814761D01*
X57562380Y-48719523D01*
X57562380Y-47862380D01*
X53871904Y-40942380D02*
X53871904Y-39942380D01*
X54110000Y-39942380D01*
X54252857Y-39990000D01*
X54348095Y-40085238D01*
X54395714Y-40180476D01*
X54443333Y-40370952D01*
X54443333Y-40513809D01*
X54395714Y-40704285D01*
X54348095Y-40799523D01*
X54252857Y-40894761D01*
X54110000Y-40942380D01*
X53871904Y-40942380D01*
X55300476Y-39942380D02*
X55110000Y-39942380D01*
X55014761Y-39990000D01*
X54967142Y-40037619D01*
X54871904Y-40180476D01*
X54824285Y-40370952D01*
X54824285Y-40751904D01*
X54871904Y-40847142D01*
X54919523Y-40894761D01*
X55014761Y-40942380D01*
X55205238Y-40942380D01*
X55300476Y-40894761D01*
X55348095Y-40847142D01*
X55395714Y-40751904D01*
X55395714Y-40513809D01*
X55348095Y-40418571D01*
X55300476Y-40370952D01*
X55205238Y-40323333D01*
X55014761Y-40323333D01*
X54919523Y-40370952D01*
X54871904Y-40418571D01*
X54824285Y-40513809D01*
X199684285Y-46482380D02*
X199684285Y-45482380D01*
X200017619Y-46196666D01*
X200350952Y-45482380D01*
X200350952Y-46482380D01*
X200970000Y-46482380D02*
X200874761Y-46434761D01*
X200827142Y-46387142D01*
X200779523Y-46291904D01*
X200779523Y-46006190D01*
X200827142Y-45910952D01*
X200874761Y-45863333D01*
X200970000Y-45815714D01*
X201112857Y-45815714D01*
X201208095Y-45863333D01*
X201255714Y-45910952D01*
X201303333Y-46006190D01*
X201303333Y-46291904D01*
X201255714Y-46387142D01*
X201208095Y-46434761D01*
X201112857Y-46482380D01*
X200970000Y-46482380D01*
X202160476Y-45815714D02*
X202160476Y-46482380D01*
X201731904Y-45815714D02*
X201731904Y-46339523D01*
X201779523Y-46434761D01*
X201874761Y-46482380D01*
X202017619Y-46482380D01*
X202112857Y-46434761D01*
X202160476Y-46387142D01*
X202636666Y-45815714D02*
X202636666Y-46482380D01*
X202636666Y-45910952D02*
X202684285Y-45863333D01*
X202779523Y-45815714D01*
X202922380Y-45815714D01*
X203017619Y-45863333D01*
X203065238Y-45958571D01*
X203065238Y-46482380D01*
X203398571Y-45815714D02*
X203779523Y-45815714D01*
X203541428Y-45482380D02*
X203541428Y-46339523D01*
X203589047Y-46434761D01*
X203684285Y-46482380D01*
X203779523Y-46482380D01*
X204112857Y-46482380D02*
X204112857Y-45815714D01*
X204112857Y-45482380D02*
X204065238Y-45530000D01*
X204112857Y-45577619D01*
X204160476Y-45530000D01*
X204112857Y-45482380D01*
X204112857Y-45577619D01*
X204589047Y-45815714D02*
X204589047Y-46482380D01*
X204589047Y-45910952D02*
X204636666Y-45863333D01*
X204731904Y-45815714D01*
X204874761Y-45815714D01*
X204970000Y-45863333D01*
X205017619Y-45958571D01*
X205017619Y-46482380D01*
X205922380Y-45815714D02*
X205922380Y-46625238D01*
X205874761Y-46720476D01*
X205827142Y-46768095D01*
X205731904Y-46815714D01*
X205589047Y-46815714D01*
X205493809Y-46768095D01*
X205922380Y-46434761D02*
X205827142Y-46482380D01*
X205636666Y-46482380D01*
X205541428Y-46434761D01*
X205493809Y-46387142D01*
X205446190Y-46291904D01*
X205446190Y-46006190D01*
X205493809Y-45910952D01*
X205541428Y-45863333D01*
X205636666Y-45815714D01*
X205827142Y-45815714D01*
X205922380Y-45863333D01*
X206398571Y-46482380D02*
X206398571Y-45482380D01*
X206398571Y-45958571D02*
X206970000Y-45958571D01*
X206970000Y-46482380D02*
X206970000Y-45482380D01*
X207589047Y-46482380D02*
X207493809Y-46434761D01*
X207446190Y-46387142D01*
X207398571Y-46291904D01*
X207398571Y-46006190D01*
X207446190Y-45910952D01*
X207493809Y-45863333D01*
X207589047Y-45815714D01*
X207731904Y-45815714D01*
X207827142Y-45863333D01*
X207874761Y-45910952D01*
X207922380Y-46006190D01*
X207922380Y-46291904D01*
X207874761Y-46387142D01*
X207827142Y-46434761D01*
X207731904Y-46482380D01*
X207589047Y-46482380D01*
X208493809Y-46482380D02*
X208398571Y-46434761D01*
X208350952Y-46339523D01*
X208350952Y-45482380D01*
X209255714Y-46434761D02*
X209160476Y-46482380D01*
X208970000Y-46482380D01*
X208874761Y-46434761D01*
X208827142Y-46339523D01*
X208827142Y-45958571D01*
X208874761Y-45863333D01*
X208970000Y-45815714D01*
X209160476Y-45815714D01*
X209255714Y-45863333D01*
X209303333Y-45958571D01*
X209303333Y-46053809D01*
X208827142Y-46149047D01*
X202836666Y-49982380D02*
X202836666Y-48982380D01*
X203170000Y-49696666D01*
X203503333Y-48982380D01*
X203503333Y-49982380D01*
X203979523Y-49982380D02*
X203979523Y-48982380D01*
X203979523Y-49458571D02*
X204550952Y-49458571D01*
X204550952Y-49982380D02*
X204550952Y-48982380D01*
X205503333Y-48982380D02*
X205027142Y-48982380D01*
X204979523Y-49458571D01*
X205027142Y-49410952D01*
X205122380Y-49363333D01*
X205360476Y-49363333D01*
X205455714Y-49410952D01*
X205503333Y-49458571D01*
X205550952Y-49553809D01*
X205550952Y-49791904D01*
X205503333Y-49887142D01*
X205455714Y-49934761D01*
X205360476Y-49982380D01*
X205122380Y-49982380D01*
X205027142Y-49934761D01*
X204979523Y-49887142D01*
X37124285Y-46482380D02*
X37124285Y-45482380D01*
X37457619Y-46196666D01*
X37790952Y-45482380D01*
X37790952Y-46482380D01*
X38410000Y-46482380D02*
X38314761Y-46434761D01*
X38267142Y-46387142D01*
X38219523Y-46291904D01*
X38219523Y-46006190D01*
X38267142Y-45910952D01*
X38314761Y-45863333D01*
X38410000Y-45815714D01*
X38552857Y-45815714D01*
X38648095Y-45863333D01*
X38695714Y-45910952D01*
X38743333Y-46006190D01*
X38743333Y-46291904D01*
X38695714Y-46387142D01*
X38648095Y-46434761D01*
X38552857Y-46482380D01*
X38410000Y-46482380D01*
X39600476Y-45815714D02*
X39600476Y-46482380D01*
X39171904Y-45815714D02*
X39171904Y-46339523D01*
X39219523Y-46434761D01*
X39314761Y-46482380D01*
X39457619Y-46482380D01*
X39552857Y-46434761D01*
X39600476Y-46387142D01*
X40076666Y-45815714D02*
X40076666Y-46482380D01*
X40076666Y-45910952D02*
X40124285Y-45863333D01*
X40219523Y-45815714D01*
X40362380Y-45815714D01*
X40457619Y-45863333D01*
X40505238Y-45958571D01*
X40505238Y-46482380D01*
X40838571Y-45815714D02*
X41219523Y-45815714D01*
X40981428Y-45482380D02*
X40981428Y-46339523D01*
X41029047Y-46434761D01*
X41124285Y-46482380D01*
X41219523Y-46482380D01*
X41552857Y-46482380D02*
X41552857Y-45815714D01*
X41552857Y-45482380D02*
X41505238Y-45530000D01*
X41552857Y-45577619D01*
X41600476Y-45530000D01*
X41552857Y-45482380D01*
X41552857Y-45577619D01*
X42029047Y-45815714D02*
X42029047Y-46482380D01*
X42029047Y-45910952D02*
X42076666Y-45863333D01*
X42171904Y-45815714D01*
X42314761Y-45815714D01*
X42410000Y-45863333D01*
X42457619Y-45958571D01*
X42457619Y-46482380D01*
X43362380Y-45815714D02*
X43362380Y-46625238D01*
X43314761Y-46720476D01*
X43267142Y-46768095D01*
X43171904Y-46815714D01*
X43029047Y-46815714D01*
X42933809Y-46768095D01*
X43362380Y-46434761D02*
X43267142Y-46482380D01*
X43076666Y-46482380D01*
X42981428Y-46434761D01*
X42933809Y-46387142D01*
X42886190Y-46291904D01*
X42886190Y-46006190D01*
X42933809Y-45910952D01*
X42981428Y-45863333D01*
X43076666Y-45815714D01*
X43267142Y-45815714D01*
X43362380Y-45863333D01*
X43838571Y-46482380D02*
X43838571Y-45482380D01*
X43838571Y-45958571D02*
X44410000Y-45958571D01*
X44410000Y-46482380D02*
X44410000Y-45482380D01*
X45029047Y-46482380D02*
X44933809Y-46434761D01*
X44886190Y-46387142D01*
X44838571Y-46291904D01*
X44838571Y-46006190D01*
X44886190Y-45910952D01*
X44933809Y-45863333D01*
X45029047Y-45815714D01*
X45171904Y-45815714D01*
X45267142Y-45863333D01*
X45314761Y-45910952D01*
X45362380Y-46006190D01*
X45362380Y-46291904D01*
X45314761Y-46387142D01*
X45267142Y-46434761D01*
X45171904Y-46482380D01*
X45029047Y-46482380D01*
X45933809Y-46482380D02*
X45838571Y-46434761D01*
X45790952Y-46339523D01*
X45790952Y-45482380D01*
X46695714Y-46434761D02*
X46600476Y-46482380D01*
X46410000Y-46482380D01*
X46314761Y-46434761D01*
X46267142Y-46339523D01*
X46267142Y-45958571D01*
X46314761Y-45863333D01*
X46410000Y-45815714D01*
X46600476Y-45815714D01*
X46695714Y-45863333D01*
X46743333Y-45958571D01*
X46743333Y-46053809D01*
X46267142Y-46149047D01*
X40276666Y-49982380D02*
X40276666Y-48982380D01*
X40610000Y-49696666D01*
X40943333Y-48982380D01*
X40943333Y-49982380D01*
X41419523Y-49982380D02*
X41419523Y-48982380D01*
X41419523Y-49458571D02*
X41990952Y-49458571D01*
X41990952Y-49982380D02*
X41990952Y-48982380D01*
X42895714Y-48982380D02*
X42705238Y-48982380D01*
X42610000Y-49030000D01*
X42562380Y-49077619D01*
X42467142Y-49220476D01*
X42419523Y-49410952D01*
X42419523Y-49791904D01*
X42467142Y-49887142D01*
X42514761Y-49934761D01*
X42610000Y-49982380D01*
X42800476Y-49982380D01*
X42895714Y-49934761D01*
X42943333Y-49887142D01*
X42990952Y-49791904D01*
X42990952Y-49553809D01*
X42943333Y-49458571D01*
X42895714Y-49410952D01*
X42800476Y-49363333D01*
X42610000Y-49363333D01*
X42514761Y-49410952D01*
X42467142Y-49458571D01*
X42419523Y-49553809D01*
X101169761Y-57597619D02*
X101217380Y-57454761D01*
X101217380Y-57216666D01*
X101169761Y-57121428D01*
X101122142Y-57073809D01*
X101026904Y-57026190D01*
X100931666Y-57026190D01*
X100836428Y-57073809D01*
X100788809Y-57121428D01*
X100741190Y-57216666D01*
X100693571Y-57407142D01*
X100645952Y-57502380D01*
X100598333Y-57550000D01*
X100503095Y-57597619D01*
X100407857Y-57597619D01*
X100312619Y-57550000D01*
X100265000Y-57502380D01*
X100217380Y-57407142D01*
X100217380Y-57169047D01*
X100265000Y-57026190D01*
X100217380Y-56692857D02*
X101217380Y-56454761D01*
X100503095Y-56264285D01*
X101217380Y-56073809D01*
X100217380Y-55835714D01*
X101312619Y-55692857D02*
X101312619Y-54930952D01*
X101217380Y-54692857D02*
X100217380Y-54692857D01*
X100217380Y-54311904D01*
X100265000Y-54216666D01*
X100312619Y-54169047D01*
X100407857Y-54121428D01*
X100550714Y-54121428D01*
X100645952Y-54169047D01*
X100693571Y-54216666D01*
X100741190Y-54311904D01*
X100741190Y-54692857D01*
X100550714Y-53264285D02*
X101217380Y-53264285D01*
X100550714Y-53692857D02*
X101074523Y-53692857D01*
X101169761Y-53645238D01*
X101217380Y-53550000D01*
X101217380Y-53407142D01*
X101169761Y-53311904D01*
X101122142Y-53264285D01*
X101169761Y-52835714D02*
X101217380Y-52740476D01*
X101217380Y-52550000D01*
X101169761Y-52454761D01*
X101074523Y-52407142D01*
X101026904Y-52407142D01*
X100931666Y-52454761D01*
X100884047Y-52550000D01*
X100884047Y-52692857D01*
X100836428Y-52788095D01*
X100741190Y-52835714D01*
X100693571Y-52835714D01*
X100598333Y-52788095D01*
X100550714Y-52692857D01*
X100550714Y-52550000D01*
X100598333Y-52454761D01*
X101217380Y-51978571D02*
X100217380Y-51978571D01*
X101217380Y-51550000D02*
X100693571Y-51550000D01*
X100598333Y-51597619D01*
X100550714Y-51692857D01*
X100550714Y-51835714D01*
X100598333Y-51930952D01*
X100645952Y-51978571D01*
X105619761Y-55383333D02*
X105667380Y-55240476D01*
X105667380Y-55002380D01*
X105619761Y-54907142D01*
X105572142Y-54859523D01*
X105476904Y-54811904D01*
X105381666Y-54811904D01*
X105286428Y-54859523D01*
X105238809Y-54907142D01*
X105191190Y-55002380D01*
X105143571Y-55192857D01*
X105095952Y-55288095D01*
X105048333Y-55335714D01*
X104953095Y-55383333D01*
X104857857Y-55383333D01*
X104762619Y-55335714D01*
X104715000Y-55288095D01*
X104667380Y-55192857D01*
X104667380Y-54954761D01*
X104715000Y-54811904D01*
X104667380Y-54478571D02*
X105667380Y-54240476D01*
X104953095Y-54050000D01*
X105667380Y-53859523D01*
X104667380Y-53621428D01*
X104762619Y-53288095D02*
X104715000Y-53240476D01*
X104667380Y-53145238D01*
X104667380Y-52907142D01*
X104715000Y-52811904D01*
X104762619Y-52764285D01*
X104857857Y-52716666D01*
X104953095Y-52716666D01*
X105095952Y-52764285D01*
X105667380Y-53335714D01*
X105667380Y-52716666D01*
X88469761Y-57597619D02*
X88517380Y-57454761D01*
X88517380Y-57216666D01*
X88469761Y-57121428D01*
X88422142Y-57073809D01*
X88326904Y-57026190D01*
X88231666Y-57026190D01*
X88136428Y-57073809D01*
X88088809Y-57121428D01*
X88041190Y-57216666D01*
X87993571Y-57407142D01*
X87945952Y-57502380D01*
X87898333Y-57550000D01*
X87803095Y-57597619D01*
X87707857Y-57597619D01*
X87612619Y-57550000D01*
X87565000Y-57502380D01*
X87517380Y-57407142D01*
X87517380Y-57169047D01*
X87565000Y-57026190D01*
X87517380Y-56692857D02*
X88517380Y-56454761D01*
X87803095Y-56264285D01*
X88517380Y-56073809D01*
X87517380Y-55835714D01*
X88612619Y-55692857D02*
X88612619Y-54930952D01*
X88517380Y-54692857D02*
X87517380Y-54692857D01*
X87517380Y-54311904D01*
X87565000Y-54216666D01*
X87612619Y-54169047D01*
X87707857Y-54121428D01*
X87850714Y-54121428D01*
X87945952Y-54169047D01*
X87993571Y-54216666D01*
X88041190Y-54311904D01*
X88041190Y-54692857D01*
X87850714Y-53264285D02*
X88517380Y-53264285D01*
X87850714Y-53692857D02*
X88374523Y-53692857D01*
X88469761Y-53645238D01*
X88517380Y-53550000D01*
X88517380Y-53407142D01*
X88469761Y-53311904D01*
X88422142Y-53264285D01*
X88469761Y-52835714D02*
X88517380Y-52740476D01*
X88517380Y-52550000D01*
X88469761Y-52454761D01*
X88374523Y-52407142D01*
X88326904Y-52407142D01*
X88231666Y-52454761D01*
X88184047Y-52550000D01*
X88184047Y-52692857D01*
X88136428Y-52788095D01*
X88041190Y-52835714D01*
X87993571Y-52835714D01*
X87898333Y-52788095D01*
X87850714Y-52692857D01*
X87850714Y-52550000D01*
X87898333Y-52454761D01*
X88517380Y-51978571D02*
X87517380Y-51978571D01*
X88517380Y-51550000D02*
X87993571Y-51550000D01*
X87898333Y-51597619D01*
X87850714Y-51692857D01*
X87850714Y-51835714D01*
X87898333Y-51930952D01*
X87945952Y-51978571D01*
X92919761Y-55383333D02*
X92967380Y-55240476D01*
X92967380Y-55002380D01*
X92919761Y-54907142D01*
X92872142Y-54859523D01*
X92776904Y-54811904D01*
X92681666Y-54811904D01*
X92586428Y-54859523D01*
X92538809Y-54907142D01*
X92491190Y-55002380D01*
X92443571Y-55192857D01*
X92395952Y-55288095D01*
X92348333Y-55335714D01*
X92253095Y-55383333D01*
X92157857Y-55383333D01*
X92062619Y-55335714D01*
X92015000Y-55288095D01*
X91967380Y-55192857D01*
X91967380Y-54954761D01*
X92015000Y-54811904D01*
X91967380Y-54478571D02*
X92967380Y-54240476D01*
X92253095Y-54050000D01*
X92967380Y-53859523D01*
X91967380Y-53621428D01*
X91967380Y-53335714D02*
X91967380Y-52716666D01*
X92348333Y-53050000D01*
X92348333Y-52907142D01*
X92395952Y-52811904D01*
X92443571Y-52764285D01*
X92538809Y-52716666D01*
X92776904Y-52716666D01*
X92872142Y-52764285D01*
X92919761Y-52811904D01*
X92967380Y-52907142D01*
X92967380Y-53192857D01*
X92919761Y-53288095D01*
X92872142Y-53335714D01*
X75619761Y-57597619D02*
X75667380Y-57454761D01*
X75667380Y-57216666D01*
X75619761Y-57121428D01*
X75572142Y-57073809D01*
X75476904Y-57026190D01*
X75381666Y-57026190D01*
X75286428Y-57073809D01*
X75238809Y-57121428D01*
X75191190Y-57216666D01*
X75143571Y-57407142D01*
X75095952Y-57502380D01*
X75048333Y-57550000D01*
X74953095Y-57597619D01*
X74857857Y-57597619D01*
X74762619Y-57550000D01*
X74715000Y-57502380D01*
X74667380Y-57407142D01*
X74667380Y-57169047D01*
X74715000Y-57026190D01*
X74667380Y-56692857D02*
X75667380Y-56454761D01*
X74953095Y-56264285D01*
X75667380Y-56073809D01*
X74667380Y-55835714D01*
X75762619Y-55692857D02*
X75762619Y-54930952D01*
X75667380Y-54692857D02*
X74667380Y-54692857D01*
X74667380Y-54311904D01*
X74715000Y-54216666D01*
X74762619Y-54169047D01*
X74857857Y-54121428D01*
X75000714Y-54121428D01*
X75095952Y-54169047D01*
X75143571Y-54216666D01*
X75191190Y-54311904D01*
X75191190Y-54692857D01*
X75000714Y-53264285D02*
X75667380Y-53264285D01*
X75000714Y-53692857D02*
X75524523Y-53692857D01*
X75619761Y-53645238D01*
X75667380Y-53550000D01*
X75667380Y-53407142D01*
X75619761Y-53311904D01*
X75572142Y-53264285D01*
X75619761Y-52835714D02*
X75667380Y-52740476D01*
X75667380Y-52550000D01*
X75619761Y-52454761D01*
X75524523Y-52407142D01*
X75476904Y-52407142D01*
X75381666Y-52454761D01*
X75334047Y-52550000D01*
X75334047Y-52692857D01*
X75286428Y-52788095D01*
X75191190Y-52835714D01*
X75143571Y-52835714D01*
X75048333Y-52788095D01*
X75000714Y-52692857D01*
X75000714Y-52550000D01*
X75048333Y-52454761D01*
X75667380Y-51978571D02*
X74667380Y-51978571D01*
X75667380Y-51550000D02*
X75143571Y-51550000D01*
X75048333Y-51597619D01*
X75000714Y-51692857D01*
X75000714Y-51835714D01*
X75048333Y-51930952D01*
X75095952Y-51978571D01*
X80069761Y-55383333D02*
X80117380Y-55240476D01*
X80117380Y-55002380D01*
X80069761Y-54907142D01*
X80022142Y-54859523D01*
X79926904Y-54811904D01*
X79831666Y-54811904D01*
X79736428Y-54859523D01*
X79688809Y-54907142D01*
X79641190Y-55002380D01*
X79593571Y-55192857D01*
X79545952Y-55288095D01*
X79498333Y-55335714D01*
X79403095Y-55383333D01*
X79307857Y-55383333D01*
X79212619Y-55335714D01*
X79165000Y-55288095D01*
X79117380Y-55192857D01*
X79117380Y-54954761D01*
X79165000Y-54811904D01*
X79117380Y-54478571D02*
X80117380Y-54240476D01*
X79403095Y-54050000D01*
X80117380Y-53859523D01*
X79117380Y-53621428D01*
X79450714Y-52811904D02*
X80117380Y-52811904D01*
X79069761Y-53050000D02*
X79784047Y-53288095D01*
X79784047Y-52669047D01*
X50909761Y-57597619D02*
X50957380Y-57454761D01*
X50957380Y-57216666D01*
X50909761Y-57121428D01*
X50862142Y-57073809D01*
X50766904Y-57026190D01*
X50671666Y-57026190D01*
X50576428Y-57073809D01*
X50528809Y-57121428D01*
X50481190Y-57216666D01*
X50433571Y-57407142D01*
X50385952Y-57502380D01*
X50338333Y-57550000D01*
X50243095Y-57597619D01*
X50147857Y-57597619D01*
X50052619Y-57550000D01*
X50005000Y-57502380D01*
X49957380Y-57407142D01*
X49957380Y-57169047D01*
X50005000Y-57026190D01*
X49957380Y-56692857D02*
X50957380Y-56454761D01*
X50243095Y-56264285D01*
X50957380Y-56073809D01*
X49957380Y-55835714D01*
X51052619Y-55692857D02*
X51052619Y-54930952D01*
X50957380Y-54692857D02*
X49957380Y-54692857D01*
X49957380Y-54311904D01*
X50005000Y-54216666D01*
X50052619Y-54169047D01*
X50147857Y-54121428D01*
X50290714Y-54121428D01*
X50385952Y-54169047D01*
X50433571Y-54216666D01*
X50481190Y-54311904D01*
X50481190Y-54692857D01*
X50290714Y-53264285D02*
X50957380Y-53264285D01*
X50290714Y-53692857D02*
X50814523Y-53692857D01*
X50909761Y-53645238D01*
X50957380Y-53550000D01*
X50957380Y-53407142D01*
X50909761Y-53311904D01*
X50862142Y-53264285D01*
X50909761Y-52835714D02*
X50957380Y-52740476D01*
X50957380Y-52550000D01*
X50909761Y-52454761D01*
X50814523Y-52407142D01*
X50766904Y-52407142D01*
X50671666Y-52454761D01*
X50624047Y-52550000D01*
X50624047Y-52692857D01*
X50576428Y-52788095D01*
X50481190Y-52835714D01*
X50433571Y-52835714D01*
X50338333Y-52788095D01*
X50290714Y-52692857D01*
X50290714Y-52550000D01*
X50338333Y-52454761D01*
X50957380Y-51978571D02*
X49957380Y-51978571D01*
X50957380Y-51550000D02*
X50433571Y-51550000D01*
X50338333Y-51597619D01*
X50290714Y-51692857D01*
X50290714Y-51835714D01*
X50338333Y-51930952D01*
X50385952Y-51978571D01*
X55359761Y-55383333D02*
X55407380Y-55240476D01*
X55407380Y-55002380D01*
X55359761Y-54907142D01*
X55312142Y-54859523D01*
X55216904Y-54811904D01*
X55121666Y-54811904D01*
X55026428Y-54859523D01*
X54978809Y-54907142D01*
X54931190Y-55002380D01*
X54883571Y-55192857D01*
X54835952Y-55288095D01*
X54788333Y-55335714D01*
X54693095Y-55383333D01*
X54597857Y-55383333D01*
X54502619Y-55335714D01*
X54455000Y-55288095D01*
X54407380Y-55192857D01*
X54407380Y-54954761D01*
X54455000Y-54811904D01*
X54407380Y-54478571D02*
X55407380Y-54240476D01*
X54693095Y-54050000D01*
X55407380Y-53859523D01*
X54407380Y-53621428D01*
X54407380Y-52811904D02*
X54407380Y-53002380D01*
X54455000Y-53097619D01*
X54502619Y-53145238D01*
X54645476Y-53240476D01*
X54835952Y-53288095D01*
X55216904Y-53288095D01*
X55312142Y-53240476D01*
X55359761Y-53192857D01*
X55407380Y-53097619D01*
X55407380Y-52907142D01*
X55359761Y-52811904D01*
X55312142Y-52764285D01*
X55216904Y-52716666D01*
X54978809Y-52716666D01*
X54883571Y-52764285D01*
X54835952Y-52811904D01*
X54788333Y-52907142D01*
X54788333Y-53097619D01*
X54835952Y-53192857D01*
X54883571Y-53240476D01*
X54978809Y-53288095D01*
X93702380Y-89496428D02*
X93702380Y-90067857D01*
X93702380Y-89782142D02*
X92702380Y-89782142D01*
X92845238Y-89877380D01*
X92940476Y-89972619D01*
X92988095Y-90067857D01*
X92702380Y-88877380D02*
X92702380Y-88782142D01*
X92750000Y-88686904D01*
X92797619Y-88639285D01*
X92892857Y-88591666D01*
X93083333Y-88544047D01*
X93321428Y-88544047D01*
X93511904Y-88591666D01*
X93607142Y-88639285D01*
X93654761Y-88686904D01*
X93702380Y-88782142D01*
X93702380Y-88877380D01*
X93654761Y-88972619D01*
X93607142Y-89020238D01*
X93511904Y-89067857D01*
X93321428Y-89115476D01*
X93083333Y-89115476D01*
X92892857Y-89067857D01*
X92797619Y-89020238D01*
X92750000Y-88972619D01*
X92702380Y-88877380D01*
X93035714Y-87686904D02*
X93702380Y-87686904D01*
X93035714Y-88115476D02*
X93559523Y-88115476D01*
X93654761Y-88067857D01*
X93702380Y-87972619D01*
X93702380Y-87829761D01*
X93654761Y-87734523D01*
X93607142Y-87686904D01*
X93178571Y-86877380D02*
X93178571Y-87210714D01*
X93702380Y-87210714D02*
X92702380Y-87210714D01*
X92702380Y-86734523D01*
X89257142Y-88591666D02*
X89304761Y-88639285D01*
X89352380Y-88782142D01*
X89352380Y-88877380D01*
X89304761Y-89020238D01*
X89209523Y-89115476D01*
X89114285Y-89163095D01*
X88923809Y-89210714D01*
X88780952Y-89210714D01*
X88590476Y-89163095D01*
X88495238Y-89115476D01*
X88400000Y-89020238D01*
X88352380Y-88877380D01*
X88352380Y-88782142D01*
X88400000Y-88639285D01*
X88447619Y-88591666D01*
X88352380Y-87686904D02*
X88352380Y-88163095D01*
X88828571Y-88210714D01*
X88780952Y-88163095D01*
X88733333Y-88067857D01*
X88733333Y-87829761D01*
X88780952Y-87734523D01*
X88828571Y-87686904D01*
X88923809Y-87639285D01*
X89161904Y-87639285D01*
X89257142Y-87686904D01*
X89304761Y-87734523D01*
X89352380Y-87829761D01*
X89352380Y-88067857D01*
X89304761Y-88163095D01*
X89257142Y-88210714D01*
X93702380Y-100926428D02*
X93702380Y-101497857D01*
X93702380Y-101212142D02*
X92702380Y-101212142D01*
X92845238Y-101307380D01*
X92940476Y-101402619D01*
X92988095Y-101497857D01*
X92702380Y-100307380D02*
X92702380Y-100212142D01*
X92750000Y-100116904D01*
X92797619Y-100069285D01*
X92892857Y-100021666D01*
X93083333Y-99974047D01*
X93321428Y-99974047D01*
X93511904Y-100021666D01*
X93607142Y-100069285D01*
X93654761Y-100116904D01*
X93702380Y-100212142D01*
X93702380Y-100307380D01*
X93654761Y-100402619D01*
X93607142Y-100450238D01*
X93511904Y-100497857D01*
X93321428Y-100545476D01*
X93083333Y-100545476D01*
X92892857Y-100497857D01*
X92797619Y-100450238D01*
X92750000Y-100402619D01*
X92702380Y-100307380D01*
X93035714Y-99116904D02*
X93702380Y-99116904D01*
X93035714Y-99545476D02*
X93559523Y-99545476D01*
X93654761Y-99497857D01*
X93702380Y-99402619D01*
X93702380Y-99259761D01*
X93654761Y-99164523D01*
X93607142Y-99116904D01*
X93178571Y-98307380D02*
X93178571Y-98640714D01*
X93702380Y-98640714D02*
X92702380Y-98640714D01*
X92702380Y-98164523D01*
X89257142Y-100021666D02*
X89304761Y-100069285D01*
X89352380Y-100212142D01*
X89352380Y-100307380D01*
X89304761Y-100450238D01*
X89209523Y-100545476D01*
X89114285Y-100593095D01*
X88923809Y-100640714D01*
X88780952Y-100640714D01*
X88590476Y-100593095D01*
X88495238Y-100545476D01*
X88400000Y-100450238D01*
X88352380Y-100307380D01*
X88352380Y-100212142D01*
X88400000Y-100069285D01*
X88447619Y-100021666D01*
X88352380Y-99164523D02*
X88352380Y-99355000D01*
X88400000Y-99450238D01*
X88447619Y-99497857D01*
X88590476Y-99593095D01*
X88780952Y-99640714D01*
X89161904Y-99640714D01*
X89257142Y-99593095D01*
X89304761Y-99545476D01*
X89352380Y-99450238D01*
X89352380Y-99259761D01*
X89304761Y-99164523D01*
X89257142Y-99116904D01*
X89161904Y-99069285D01*
X88923809Y-99069285D01*
X88828571Y-99116904D01*
X88780952Y-99164523D01*
X88733333Y-99259761D01*
X88733333Y-99450238D01*
X88780952Y-99545476D01*
X88828571Y-99593095D01*
X88923809Y-99640714D01*
X112070714Y-90009761D02*
X112737380Y-90009761D01*
X111689761Y-90247857D02*
X112404047Y-90485952D01*
X112404047Y-89866904D01*
X112642142Y-89485952D02*
X112689761Y-89438333D01*
X112737380Y-89485952D01*
X112689761Y-89533571D01*
X112642142Y-89485952D01*
X112737380Y-89485952D01*
X111737380Y-89105000D02*
X111737380Y-88438333D01*
X112737380Y-88866904D01*
X112070714Y-87628809D02*
X112737380Y-87628809D01*
X112070714Y-88057380D02*
X112594523Y-88057380D01*
X112689761Y-88009761D01*
X112737380Y-87914523D01*
X112737380Y-87771666D01*
X112689761Y-87676428D01*
X112642142Y-87628809D01*
X112213571Y-86819285D02*
X112213571Y-87152619D01*
X112737380Y-87152619D02*
X111737380Y-87152619D01*
X111737380Y-86676428D01*
X108942142Y-88771666D02*
X108989761Y-88819285D01*
X109037380Y-88962142D01*
X109037380Y-89057380D01*
X108989761Y-89200238D01*
X108894523Y-89295476D01*
X108799285Y-89343095D01*
X108608809Y-89390714D01*
X108465952Y-89390714D01*
X108275476Y-89343095D01*
X108180238Y-89295476D01*
X108085000Y-89200238D01*
X108037380Y-89057380D01*
X108037380Y-88962142D01*
X108085000Y-88819285D01*
X108132619Y-88771666D01*
X108037380Y-88438333D02*
X108037380Y-87771666D01*
X109037380Y-88200238D01*
X112070714Y-101439761D02*
X112737380Y-101439761D01*
X111689761Y-101677857D02*
X112404047Y-101915952D01*
X112404047Y-101296904D01*
X112642142Y-100915952D02*
X112689761Y-100868333D01*
X112737380Y-100915952D01*
X112689761Y-100963571D01*
X112642142Y-100915952D01*
X112737380Y-100915952D01*
X111737380Y-100535000D02*
X111737380Y-99868333D01*
X112737380Y-100296904D01*
X112070714Y-99058809D02*
X112737380Y-99058809D01*
X112070714Y-99487380D02*
X112594523Y-99487380D01*
X112689761Y-99439761D01*
X112737380Y-99344523D01*
X112737380Y-99201666D01*
X112689761Y-99106428D01*
X112642142Y-99058809D01*
X112213571Y-98249285D02*
X112213571Y-98582619D01*
X112737380Y-98582619D02*
X111737380Y-98582619D01*
X111737380Y-98106428D01*
X108942142Y-100201666D02*
X108989761Y-100249285D01*
X109037380Y-100392142D01*
X109037380Y-100487380D01*
X108989761Y-100630238D01*
X108894523Y-100725476D01*
X108799285Y-100773095D01*
X108608809Y-100820714D01*
X108465952Y-100820714D01*
X108275476Y-100773095D01*
X108180238Y-100725476D01*
X108085000Y-100630238D01*
X108037380Y-100487380D01*
X108037380Y-100392142D01*
X108085000Y-100249285D01*
X108132619Y-100201666D01*
X108465952Y-99630238D02*
X108418333Y-99725476D01*
X108370714Y-99773095D01*
X108275476Y-99820714D01*
X108227857Y-99820714D01*
X108132619Y-99773095D01*
X108085000Y-99725476D01*
X108037380Y-99630238D01*
X108037380Y-99439761D01*
X108085000Y-99344523D01*
X108132619Y-99296904D01*
X108227857Y-99249285D01*
X108275476Y-99249285D01*
X108370714Y-99296904D01*
X108418333Y-99344523D01*
X108465952Y-99439761D01*
X108465952Y-99630238D01*
X108513571Y-99725476D01*
X108561190Y-99773095D01*
X108656428Y-99820714D01*
X108846904Y-99820714D01*
X108942142Y-99773095D01*
X108989761Y-99725476D01*
X109037380Y-99630238D01*
X109037380Y-99439761D01*
X108989761Y-99344523D01*
X108942142Y-99296904D01*
X108846904Y-99249285D01*
X108656428Y-99249285D01*
X108561190Y-99296904D01*
X108513571Y-99344523D01*
X108465952Y-99439761D01*
X93111190Y-93597380D02*
X93111190Y-92597380D01*
X93682619Y-93597380D01*
X93682619Y-92597380D01*
X94730238Y-93502142D02*
X94682619Y-93549761D01*
X94539761Y-93597380D01*
X94444523Y-93597380D01*
X94301666Y-93549761D01*
X94206428Y-93454523D01*
X94158809Y-93359285D01*
X94111190Y-93168809D01*
X94111190Y-93025952D01*
X94158809Y-92835476D01*
X94206428Y-92740238D01*
X94301666Y-92645000D01*
X94444523Y-92597380D01*
X94539761Y-92597380D01*
X94682619Y-92645000D01*
X94730238Y-92692619D01*
X95158809Y-93597380D02*
X95158809Y-92597380D01*
X95539761Y-92597380D01*
X95635000Y-92645000D01*
X95682619Y-92692619D01*
X95730238Y-92787857D01*
X95730238Y-92930714D01*
X95682619Y-93025952D01*
X95635000Y-93073571D01*
X95539761Y-93121190D01*
X95158809Y-93121190D01*
X96682619Y-93597380D02*
X96111190Y-93597380D01*
X96396904Y-93597380D02*
X96396904Y-92597380D01*
X96301666Y-92740238D01*
X96206428Y-92835476D01*
X96111190Y-92883095D01*
X97635000Y-93597380D02*
X97063571Y-93597380D01*
X97349285Y-93597380D02*
X97349285Y-92597380D01*
X97254047Y-92740238D01*
X97158809Y-92835476D01*
X97063571Y-92883095D01*
X98587380Y-93597380D02*
X98015952Y-93597380D01*
X98301666Y-93597380D02*
X98301666Y-92597380D01*
X98206428Y-92740238D01*
X98111190Y-92835476D01*
X98015952Y-92883095D01*
X98920714Y-92597380D02*
X99587380Y-92597380D01*
X99158809Y-93597380D01*
X99968333Y-93597380D02*
X99968333Y-92597380D01*
X100206428Y-92597380D01*
X100349285Y-92645000D01*
X100444523Y-92740238D01*
X100492142Y-92835476D01*
X100539761Y-93025952D01*
X100539761Y-93168809D01*
X100492142Y-93359285D01*
X100444523Y-93454523D01*
X100349285Y-93549761D01*
X100206428Y-93597380D01*
X99968333Y-93597380D01*
X100825476Y-92597380D02*
X101396904Y-92597380D01*
X101111190Y-93597380D02*
X101111190Y-92597380D01*
X102206428Y-92597380D02*
X101730238Y-92597380D01*
X101682619Y-93073571D01*
X101730238Y-93025952D01*
X101825476Y-92978333D01*
X102063571Y-92978333D01*
X102158809Y-93025952D01*
X102206428Y-93073571D01*
X102254047Y-93168809D01*
X102254047Y-93406904D01*
X102206428Y-93502142D01*
X102158809Y-93549761D01*
X102063571Y-93597380D01*
X101825476Y-93597380D01*
X101730238Y-93549761D01*
X101682619Y-93502142D01*
X102873095Y-92597380D02*
X102968333Y-92597380D01*
X103063571Y-92645000D01*
X103111190Y-92692619D01*
X103158809Y-92787857D01*
X103206428Y-92978333D01*
X103206428Y-93216428D01*
X103158809Y-93406904D01*
X103111190Y-93502142D01*
X103063571Y-93549761D01*
X102968333Y-93597380D01*
X102873095Y-93597380D01*
X102777857Y-93549761D01*
X102730238Y-93502142D01*
X102682619Y-93406904D01*
X102635000Y-93216428D01*
X102635000Y-92978333D01*
X102682619Y-92787857D01*
X102730238Y-92692619D01*
X102777857Y-92645000D01*
X102873095Y-92597380D01*
X104158809Y-92645000D02*
X104063571Y-92597380D01*
X103920714Y-92597380D01*
X103777857Y-92645000D01*
X103682619Y-92740238D01*
X103635000Y-92835476D01*
X103587380Y-93025952D01*
X103587380Y-93168809D01*
X103635000Y-93359285D01*
X103682619Y-93454523D01*
X103777857Y-93549761D01*
X103920714Y-93597380D01*
X104015952Y-93597380D01*
X104158809Y-93549761D01*
X104206428Y-93502142D01*
X104206428Y-93168809D01*
X104015952Y-93168809D01*
X97873095Y-88097380D02*
X97873095Y-88906904D01*
X97920714Y-89002142D01*
X97968333Y-89049761D01*
X98063571Y-89097380D01*
X98254047Y-89097380D01*
X98349285Y-89049761D01*
X98396904Y-89002142D01*
X98444523Y-88906904D01*
X98444523Y-88097380D01*
X99396904Y-88097380D02*
X98920714Y-88097380D01*
X98873095Y-88573571D01*
X98920714Y-88525952D01*
X99015952Y-88478333D01*
X99254047Y-88478333D01*
X99349285Y-88525952D01*
X99396904Y-88573571D01*
X99444523Y-88668809D01*
X99444523Y-88906904D01*
X99396904Y-89002142D01*
X99349285Y-89049761D01*
X99254047Y-89097380D01*
X99015952Y-89097380D01*
X98920714Y-89049761D01*
X98873095Y-89002142D01*
X82145904Y-146799761D02*
X82288761Y-146847380D01*
X82526857Y-146847380D01*
X82622095Y-146799761D01*
X82669714Y-146752142D01*
X82717333Y-146656904D01*
X82717333Y-146561666D01*
X82669714Y-146466428D01*
X82622095Y-146418809D01*
X82526857Y-146371190D01*
X82336380Y-146323571D01*
X82241142Y-146275952D01*
X82193523Y-146228333D01*
X82145904Y-146133095D01*
X82145904Y-146037857D01*
X82193523Y-145942619D01*
X82241142Y-145895000D01*
X82336380Y-145847380D01*
X82574476Y-145847380D01*
X82717333Y-145895000D01*
X83574476Y-146799761D02*
X83479238Y-146847380D01*
X83288761Y-146847380D01*
X83193523Y-146799761D01*
X83145904Y-146752142D01*
X83098285Y-146656904D01*
X83098285Y-146371190D01*
X83145904Y-146275952D01*
X83193523Y-146228333D01*
X83288761Y-146180714D01*
X83479238Y-146180714D01*
X83574476Y-146228333D01*
X84003047Y-146847380D02*
X84003047Y-146180714D01*
X84003047Y-146371190D02*
X84050666Y-146275952D01*
X84098285Y-146228333D01*
X84193523Y-146180714D01*
X84288761Y-146180714D01*
X85003047Y-146799761D02*
X84907809Y-146847380D01*
X84717333Y-146847380D01*
X84622095Y-146799761D01*
X84574476Y-146704523D01*
X84574476Y-146323571D01*
X84622095Y-146228333D01*
X84717333Y-146180714D01*
X84907809Y-146180714D01*
X85003047Y-146228333D01*
X85050666Y-146323571D01*
X85050666Y-146418809D01*
X84574476Y-146514047D01*
X85384000Y-146180714D02*
X85574476Y-146847380D01*
X85764952Y-146371190D01*
X85955428Y-146847380D01*
X86145904Y-146180714D01*
X86288761Y-146942619D02*
X87050666Y-146942619D01*
X87145904Y-145847380D02*
X87717333Y-145847380D01*
X87431619Y-146847380D02*
X87431619Y-145847380D01*
X88431619Y-146799761D02*
X88336380Y-146847380D01*
X88145904Y-146847380D01*
X88050666Y-146799761D01*
X88003047Y-146704523D01*
X88003047Y-146323571D01*
X88050666Y-146228333D01*
X88145904Y-146180714D01*
X88336380Y-146180714D01*
X88431619Y-146228333D01*
X88479238Y-146323571D01*
X88479238Y-146418809D01*
X88003047Y-146514047D01*
X88907809Y-146847380D02*
X88907809Y-146180714D01*
X88907809Y-146371190D02*
X88955428Y-146275952D01*
X89003047Y-146228333D01*
X89098285Y-146180714D01*
X89193523Y-146180714D01*
X89526857Y-146847380D02*
X89526857Y-146180714D01*
X89526857Y-146275952D02*
X89574476Y-146228333D01*
X89669714Y-146180714D01*
X89812571Y-146180714D01*
X89907809Y-146228333D01*
X89955428Y-146323571D01*
X89955428Y-146847380D01*
X89955428Y-146323571D02*
X90003047Y-146228333D01*
X90098285Y-146180714D01*
X90241142Y-146180714D01*
X90336380Y-146228333D01*
X90384000Y-146323571D01*
X90384000Y-146847380D01*
X90860190Y-146847380D02*
X90860190Y-146180714D01*
X90860190Y-145847380D02*
X90812571Y-145895000D01*
X90860190Y-145942619D01*
X90907809Y-145895000D01*
X90860190Y-145847380D01*
X90860190Y-145942619D01*
X91336380Y-146180714D02*
X91336380Y-146847380D01*
X91336380Y-146275952D02*
X91384000Y-146228333D01*
X91479238Y-146180714D01*
X91622095Y-146180714D01*
X91717333Y-146228333D01*
X91764952Y-146323571D01*
X91764952Y-146847380D01*
X92669714Y-146847380D02*
X92669714Y-146323571D01*
X92622095Y-146228333D01*
X92526857Y-146180714D01*
X92336380Y-146180714D01*
X92241142Y-146228333D01*
X92669714Y-146799761D02*
X92574476Y-146847380D01*
X92336380Y-146847380D01*
X92241142Y-146799761D01*
X92193523Y-146704523D01*
X92193523Y-146609285D01*
X92241142Y-146514047D01*
X92336380Y-146466428D01*
X92574476Y-146466428D01*
X92669714Y-146418809D01*
X93288761Y-146847380D02*
X93193523Y-146799761D01*
X93145904Y-146704523D01*
X93145904Y-145847380D01*
X93431619Y-146942619D02*
X94193523Y-146942619D01*
X94622095Y-145847380D02*
X94717333Y-145847380D01*
X94812571Y-145895000D01*
X94860190Y-145942619D01*
X94907809Y-146037857D01*
X94955428Y-146228333D01*
X94955428Y-146466428D01*
X94907809Y-146656904D01*
X94860190Y-146752142D01*
X94812571Y-146799761D01*
X94717333Y-146847380D01*
X94622095Y-146847380D01*
X94526857Y-146799761D01*
X94479238Y-146752142D01*
X94431619Y-146656904D01*
X94384000Y-146466428D01*
X94384000Y-146228333D01*
X94431619Y-146037857D01*
X94479238Y-145942619D01*
X94526857Y-145895000D01*
X94622095Y-145847380D01*
X95907809Y-146847380D02*
X95336380Y-146847380D01*
X95622095Y-146847380D02*
X95622095Y-145847380D01*
X95526857Y-145990238D01*
X95431619Y-146085476D01*
X95336380Y-146133095D01*
X96241142Y-146847380D02*
X96764952Y-146180714D01*
X96241142Y-146180714D02*
X96764952Y-146847380D01*
X97669714Y-146847380D02*
X97098285Y-146847380D01*
X97384000Y-146847380D02*
X97384000Y-145847380D01*
X97288761Y-145990238D01*
X97193523Y-146085476D01*
X97098285Y-146133095D01*
X98003047Y-145847380D02*
X98622095Y-145847380D01*
X98288761Y-146228333D01*
X98431619Y-146228333D01*
X98526857Y-146275952D01*
X98574476Y-146323571D01*
X98622095Y-146418809D01*
X98622095Y-146656904D01*
X98574476Y-146752142D01*
X98526857Y-146799761D01*
X98431619Y-146847380D01*
X98145904Y-146847380D01*
X98050666Y-146799761D01*
X98003047Y-146752142D01*
X90050666Y-142687380D02*
X90050666Y-143401666D01*
X90003047Y-143544523D01*
X89907809Y-143639761D01*
X89764952Y-143687380D01*
X89669714Y-143687380D01*
X90431619Y-142687380D02*
X91050666Y-142687380D01*
X90717333Y-143068333D01*
X90860190Y-143068333D01*
X90955428Y-143115952D01*
X91003047Y-143163571D01*
X91050666Y-143258809D01*
X91050666Y-143496904D01*
X91003047Y-143592142D01*
X90955428Y-143639761D01*
X90860190Y-143687380D01*
X90574476Y-143687380D01*
X90479238Y-143639761D01*
X90431619Y-143592142D01*
X98782904Y-146799761D02*
X98925761Y-146847380D01*
X99163857Y-146847380D01*
X99259095Y-146799761D01*
X99306714Y-146752142D01*
X99354333Y-146656904D01*
X99354333Y-146561666D01*
X99306714Y-146466428D01*
X99259095Y-146418809D01*
X99163857Y-146371190D01*
X98973380Y-146323571D01*
X98878142Y-146275952D01*
X98830523Y-146228333D01*
X98782904Y-146133095D01*
X98782904Y-146037857D01*
X98830523Y-145942619D01*
X98878142Y-145895000D01*
X98973380Y-145847380D01*
X99211476Y-145847380D01*
X99354333Y-145895000D01*
X100211476Y-146799761D02*
X100116238Y-146847380D01*
X99925761Y-146847380D01*
X99830523Y-146799761D01*
X99782904Y-146752142D01*
X99735285Y-146656904D01*
X99735285Y-146371190D01*
X99782904Y-146275952D01*
X99830523Y-146228333D01*
X99925761Y-146180714D01*
X100116238Y-146180714D01*
X100211476Y-146228333D01*
X100640047Y-146847380D02*
X100640047Y-146180714D01*
X100640047Y-146371190D02*
X100687666Y-146275952D01*
X100735285Y-146228333D01*
X100830523Y-146180714D01*
X100925761Y-146180714D01*
X101640047Y-146799761D02*
X101544809Y-146847380D01*
X101354333Y-146847380D01*
X101259095Y-146799761D01*
X101211476Y-146704523D01*
X101211476Y-146323571D01*
X101259095Y-146228333D01*
X101354333Y-146180714D01*
X101544809Y-146180714D01*
X101640047Y-146228333D01*
X101687666Y-146323571D01*
X101687666Y-146418809D01*
X101211476Y-146514047D01*
X102021000Y-146180714D02*
X102211476Y-146847380D01*
X102401952Y-146371190D01*
X102592428Y-146847380D01*
X102782904Y-146180714D01*
X102925761Y-146942619D02*
X103687666Y-146942619D01*
X103782904Y-145847380D02*
X104354333Y-145847380D01*
X104068619Y-146847380D02*
X104068619Y-145847380D01*
X105068619Y-146799761D02*
X104973380Y-146847380D01*
X104782904Y-146847380D01*
X104687666Y-146799761D01*
X104640047Y-146704523D01*
X104640047Y-146323571D01*
X104687666Y-146228333D01*
X104782904Y-146180714D01*
X104973380Y-146180714D01*
X105068619Y-146228333D01*
X105116238Y-146323571D01*
X105116238Y-146418809D01*
X104640047Y-146514047D01*
X105544809Y-146847380D02*
X105544809Y-146180714D01*
X105544809Y-146371190D02*
X105592428Y-146275952D01*
X105640047Y-146228333D01*
X105735285Y-146180714D01*
X105830523Y-146180714D01*
X106163857Y-146847380D02*
X106163857Y-146180714D01*
X106163857Y-146275952D02*
X106211476Y-146228333D01*
X106306714Y-146180714D01*
X106449571Y-146180714D01*
X106544809Y-146228333D01*
X106592428Y-146323571D01*
X106592428Y-146847380D01*
X106592428Y-146323571D02*
X106640047Y-146228333D01*
X106735285Y-146180714D01*
X106878142Y-146180714D01*
X106973380Y-146228333D01*
X107021000Y-146323571D01*
X107021000Y-146847380D01*
X107497190Y-146847380D02*
X107497190Y-146180714D01*
X107497190Y-145847380D02*
X107449571Y-145895000D01*
X107497190Y-145942619D01*
X107544809Y-145895000D01*
X107497190Y-145847380D01*
X107497190Y-145942619D01*
X107973380Y-146180714D02*
X107973380Y-146847380D01*
X107973380Y-146275952D02*
X108021000Y-146228333D01*
X108116238Y-146180714D01*
X108259095Y-146180714D01*
X108354333Y-146228333D01*
X108401952Y-146323571D01*
X108401952Y-146847380D01*
X109306714Y-146847380D02*
X109306714Y-146323571D01*
X109259095Y-146228333D01*
X109163857Y-146180714D01*
X108973380Y-146180714D01*
X108878142Y-146228333D01*
X109306714Y-146799761D02*
X109211476Y-146847380D01*
X108973380Y-146847380D01*
X108878142Y-146799761D01*
X108830523Y-146704523D01*
X108830523Y-146609285D01*
X108878142Y-146514047D01*
X108973380Y-146466428D01*
X109211476Y-146466428D01*
X109306714Y-146418809D01*
X109925761Y-146847380D02*
X109830523Y-146799761D01*
X109782904Y-146704523D01*
X109782904Y-145847380D01*
X110068619Y-146942619D02*
X110830523Y-146942619D01*
X111259095Y-145847380D02*
X111354333Y-145847380D01*
X111449571Y-145895000D01*
X111497190Y-145942619D01*
X111544809Y-146037857D01*
X111592428Y-146228333D01*
X111592428Y-146466428D01*
X111544809Y-146656904D01*
X111497190Y-146752142D01*
X111449571Y-146799761D01*
X111354333Y-146847380D01*
X111259095Y-146847380D01*
X111163857Y-146799761D01*
X111116238Y-146752142D01*
X111068619Y-146656904D01*
X111021000Y-146466428D01*
X111021000Y-146228333D01*
X111068619Y-146037857D01*
X111116238Y-145942619D01*
X111163857Y-145895000D01*
X111259095Y-145847380D01*
X112544809Y-146847380D02*
X111973380Y-146847380D01*
X112259095Y-146847380D02*
X112259095Y-145847380D01*
X112163857Y-145990238D01*
X112068619Y-146085476D01*
X111973380Y-146133095D01*
X112878142Y-146847380D02*
X113401952Y-146180714D01*
X112878142Y-146180714D02*
X113401952Y-146847380D01*
X114306714Y-146847380D02*
X113735285Y-146847380D01*
X114021000Y-146847380D02*
X114021000Y-145847380D01*
X113925761Y-145990238D01*
X113830523Y-146085476D01*
X113735285Y-146133095D01*
X114640047Y-145847380D02*
X115259095Y-145847380D01*
X114925761Y-146228333D01*
X115068619Y-146228333D01*
X115163857Y-146275952D01*
X115211476Y-146323571D01*
X115259095Y-146418809D01*
X115259095Y-146656904D01*
X115211476Y-146752142D01*
X115163857Y-146799761D01*
X115068619Y-146847380D01*
X114782904Y-146847380D01*
X114687666Y-146799761D01*
X114640047Y-146752142D01*
X106687666Y-142687380D02*
X106687666Y-143401666D01*
X106640047Y-143544523D01*
X106544809Y-143639761D01*
X106401952Y-143687380D01*
X106306714Y-143687380D01*
X107592428Y-143020714D02*
X107592428Y-143687380D01*
X107354333Y-142639761D02*
X107116238Y-143354047D01*
X107735285Y-143354047D01*
X115419904Y-146799761D02*
X115562761Y-146847380D01*
X115800857Y-146847380D01*
X115896095Y-146799761D01*
X115943714Y-146752142D01*
X115991333Y-146656904D01*
X115991333Y-146561666D01*
X115943714Y-146466428D01*
X115896095Y-146418809D01*
X115800857Y-146371190D01*
X115610380Y-146323571D01*
X115515142Y-146275952D01*
X115467523Y-146228333D01*
X115419904Y-146133095D01*
X115419904Y-146037857D01*
X115467523Y-145942619D01*
X115515142Y-145895000D01*
X115610380Y-145847380D01*
X115848476Y-145847380D01*
X115991333Y-145895000D01*
X116848476Y-146799761D02*
X116753238Y-146847380D01*
X116562761Y-146847380D01*
X116467523Y-146799761D01*
X116419904Y-146752142D01*
X116372285Y-146656904D01*
X116372285Y-146371190D01*
X116419904Y-146275952D01*
X116467523Y-146228333D01*
X116562761Y-146180714D01*
X116753238Y-146180714D01*
X116848476Y-146228333D01*
X117277047Y-146847380D02*
X117277047Y-146180714D01*
X117277047Y-146371190D02*
X117324666Y-146275952D01*
X117372285Y-146228333D01*
X117467523Y-146180714D01*
X117562761Y-146180714D01*
X118277047Y-146799761D02*
X118181809Y-146847380D01*
X117991333Y-146847380D01*
X117896095Y-146799761D01*
X117848476Y-146704523D01*
X117848476Y-146323571D01*
X117896095Y-146228333D01*
X117991333Y-146180714D01*
X118181809Y-146180714D01*
X118277047Y-146228333D01*
X118324666Y-146323571D01*
X118324666Y-146418809D01*
X117848476Y-146514047D01*
X118658000Y-146180714D02*
X118848476Y-146847380D01*
X119038952Y-146371190D01*
X119229428Y-146847380D01*
X119419904Y-146180714D01*
X119562761Y-146942619D02*
X120324666Y-146942619D01*
X120419904Y-145847380D02*
X120991333Y-145847380D01*
X120705619Y-146847380D02*
X120705619Y-145847380D01*
X121705619Y-146799761D02*
X121610380Y-146847380D01*
X121419904Y-146847380D01*
X121324666Y-146799761D01*
X121277047Y-146704523D01*
X121277047Y-146323571D01*
X121324666Y-146228333D01*
X121419904Y-146180714D01*
X121610380Y-146180714D01*
X121705619Y-146228333D01*
X121753238Y-146323571D01*
X121753238Y-146418809D01*
X121277047Y-146514047D01*
X122181809Y-146847380D02*
X122181809Y-146180714D01*
X122181809Y-146371190D02*
X122229428Y-146275952D01*
X122277047Y-146228333D01*
X122372285Y-146180714D01*
X122467523Y-146180714D01*
X122800857Y-146847380D02*
X122800857Y-146180714D01*
X122800857Y-146275952D02*
X122848476Y-146228333D01*
X122943714Y-146180714D01*
X123086571Y-146180714D01*
X123181809Y-146228333D01*
X123229428Y-146323571D01*
X123229428Y-146847380D01*
X123229428Y-146323571D02*
X123277047Y-146228333D01*
X123372285Y-146180714D01*
X123515142Y-146180714D01*
X123610380Y-146228333D01*
X123658000Y-146323571D01*
X123658000Y-146847380D01*
X124134190Y-146847380D02*
X124134190Y-146180714D01*
X124134190Y-145847380D02*
X124086571Y-145895000D01*
X124134190Y-145942619D01*
X124181809Y-145895000D01*
X124134190Y-145847380D01*
X124134190Y-145942619D01*
X124610380Y-146180714D02*
X124610380Y-146847380D01*
X124610380Y-146275952D02*
X124658000Y-146228333D01*
X124753238Y-146180714D01*
X124896095Y-146180714D01*
X124991333Y-146228333D01*
X125038952Y-146323571D01*
X125038952Y-146847380D01*
X125943714Y-146847380D02*
X125943714Y-146323571D01*
X125896095Y-146228333D01*
X125800857Y-146180714D01*
X125610380Y-146180714D01*
X125515142Y-146228333D01*
X125943714Y-146799761D02*
X125848476Y-146847380D01*
X125610380Y-146847380D01*
X125515142Y-146799761D01*
X125467523Y-146704523D01*
X125467523Y-146609285D01*
X125515142Y-146514047D01*
X125610380Y-146466428D01*
X125848476Y-146466428D01*
X125943714Y-146418809D01*
X126562761Y-146847380D02*
X126467523Y-146799761D01*
X126419904Y-146704523D01*
X126419904Y-145847380D01*
X126705619Y-146942619D02*
X127467523Y-146942619D01*
X127896095Y-145847380D02*
X127991333Y-145847380D01*
X128086571Y-145895000D01*
X128134190Y-145942619D01*
X128181809Y-146037857D01*
X128229428Y-146228333D01*
X128229428Y-146466428D01*
X128181809Y-146656904D01*
X128134190Y-146752142D01*
X128086571Y-146799761D01*
X127991333Y-146847380D01*
X127896095Y-146847380D01*
X127800857Y-146799761D01*
X127753238Y-146752142D01*
X127705619Y-146656904D01*
X127658000Y-146466428D01*
X127658000Y-146228333D01*
X127705619Y-146037857D01*
X127753238Y-145942619D01*
X127800857Y-145895000D01*
X127896095Y-145847380D01*
X129181809Y-146847380D02*
X128610380Y-146847380D01*
X128896095Y-146847380D02*
X128896095Y-145847380D01*
X128800857Y-145990238D01*
X128705619Y-146085476D01*
X128610380Y-146133095D01*
X129515142Y-146847380D02*
X130038952Y-146180714D01*
X129515142Y-146180714D02*
X130038952Y-146847380D01*
X130943714Y-146847380D02*
X130372285Y-146847380D01*
X130658000Y-146847380D02*
X130658000Y-145847380D01*
X130562761Y-145990238D01*
X130467523Y-146085476D01*
X130372285Y-146133095D01*
X131277047Y-145847380D02*
X131896095Y-145847380D01*
X131562761Y-146228333D01*
X131705619Y-146228333D01*
X131800857Y-146275952D01*
X131848476Y-146323571D01*
X131896095Y-146418809D01*
X131896095Y-146656904D01*
X131848476Y-146752142D01*
X131800857Y-146799761D01*
X131705619Y-146847380D01*
X131419904Y-146847380D01*
X131324666Y-146799761D01*
X131277047Y-146752142D01*
X123324666Y-142687380D02*
X123324666Y-143401666D01*
X123277047Y-143544523D01*
X123181809Y-143639761D01*
X123038952Y-143687380D01*
X122943714Y-143687380D01*
X124277047Y-142687380D02*
X123800857Y-142687380D01*
X123753238Y-143163571D01*
X123800857Y-143115952D01*
X123896095Y-143068333D01*
X124134190Y-143068333D01*
X124229428Y-143115952D01*
X124277047Y-143163571D01*
X124324666Y-143258809D01*
X124324666Y-143496904D01*
X124277047Y-143592142D01*
X124229428Y-143639761D01*
X124134190Y-143687380D01*
X123896095Y-143687380D01*
X123800857Y-143639761D01*
X123753238Y-143592142D01*
X48871904Y-146799761D02*
X49014761Y-146847380D01*
X49252857Y-146847380D01*
X49348095Y-146799761D01*
X49395714Y-146752142D01*
X49443333Y-146656904D01*
X49443333Y-146561666D01*
X49395714Y-146466428D01*
X49348095Y-146418809D01*
X49252857Y-146371190D01*
X49062380Y-146323571D01*
X48967142Y-146275952D01*
X48919523Y-146228333D01*
X48871904Y-146133095D01*
X48871904Y-146037857D01*
X48919523Y-145942619D01*
X48967142Y-145895000D01*
X49062380Y-145847380D01*
X49300476Y-145847380D01*
X49443333Y-145895000D01*
X50300476Y-146799761D02*
X50205238Y-146847380D01*
X50014761Y-146847380D01*
X49919523Y-146799761D01*
X49871904Y-146752142D01*
X49824285Y-146656904D01*
X49824285Y-146371190D01*
X49871904Y-146275952D01*
X49919523Y-146228333D01*
X50014761Y-146180714D01*
X50205238Y-146180714D01*
X50300476Y-146228333D01*
X50729047Y-146847380D02*
X50729047Y-146180714D01*
X50729047Y-146371190D02*
X50776666Y-146275952D01*
X50824285Y-146228333D01*
X50919523Y-146180714D01*
X51014761Y-146180714D01*
X51729047Y-146799761D02*
X51633809Y-146847380D01*
X51443333Y-146847380D01*
X51348095Y-146799761D01*
X51300476Y-146704523D01*
X51300476Y-146323571D01*
X51348095Y-146228333D01*
X51443333Y-146180714D01*
X51633809Y-146180714D01*
X51729047Y-146228333D01*
X51776666Y-146323571D01*
X51776666Y-146418809D01*
X51300476Y-146514047D01*
X52109999Y-146180714D02*
X52300476Y-146847380D01*
X52490952Y-146371190D01*
X52681428Y-146847380D01*
X52871904Y-146180714D01*
X53014761Y-146942619D02*
X53776666Y-146942619D01*
X53871904Y-145847380D02*
X54443333Y-145847380D01*
X54157619Y-146847380D02*
X54157619Y-145847380D01*
X55157619Y-146799761D02*
X55062380Y-146847380D01*
X54871904Y-146847380D01*
X54776666Y-146799761D01*
X54729047Y-146704523D01*
X54729047Y-146323571D01*
X54776666Y-146228333D01*
X54871904Y-146180714D01*
X55062380Y-146180714D01*
X55157619Y-146228333D01*
X55205238Y-146323571D01*
X55205238Y-146418809D01*
X54729047Y-146514047D01*
X55633809Y-146847380D02*
X55633809Y-146180714D01*
X55633809Y-146371190D02*
X55681428Y-146275952D01*
X55729047Y-146228333D01*
X55824285Y-146180714D01*
X55919523Y-146180714D01*
X56252857Y-146847380D02*
X56252857Y-146180714D01*
X56252857Y-146275952D02*
X56300476Y-146228333D01*
X56395714Y-146180714D01*
X56538571Y-146180714D01*
X56633809Y-146228333D01*
X56681428Y-146323571D01*
X56681428Y-146847380D01*
X56681428Y-146323571D02*
X56729047Y-146228333D01*
X56824285Y-146180714D01*
X56967142Y-146180714D01*
X57062380Y-146228333D01*
X57110000Y-146323571D01*
X57110000Y-146847380D01*
X57586190Y-146847380D02*
X57586190Y-146180714D01*
X57586190Y-145847380D02*
X57538571Y-145895000D01*
X57586190Y-145942619D01*
X57633809Y-145895000D01*
X57586190Y-145847380D01*
X57586190Y-145942619D01*
X58062380Y-146180714D02*
X58062380Y-146847380D01*
X58062380Y-146275952D02*
X58110000Y-146228333D01*
X58205238Y-146180714D01*
X58348095Y-146180714D01*
X58443333Y-146228333D01*
X58490952Y-146323571D01*
X58490952Y-146847380D01*
X59395714Y-146847380D02*
X59395714Y-146323571D01*
X59348095Y-146228333D01*
X59252857Y-146180714D01*
X59062380Y-146180714D01*
X58967142Y-146228333D01*
X59395714Y-146799761D02*
X59300476Y-146847380D01*
X59062380Y-146847380D01*
X58967142Y-146799761D01*
X58919523Y-146704523D01*
X58919523Y-146609285D01*
X58967142Y-146514047D01*
X59062380Y-146466428D01*
X59300476Y-146466428D01*
X59395714Y-146418809D01*
X60014761Y-146847380D02*
X59919523Y-146799761D01*
X59871904Y-146704523D01*
X59871904Y-145847380D01*
X60157619Y-146942619D02*
X60919523Y-146942619D01*
X61348095Y-145847380D02*
X61443333Y-145847380D01*
X61538571Y-145895000D01*
X61586190Y-145942619D01*
X61633809Y-146037857D01*
X61681428Y-146228333D01*
X61681428Y-146466428D01*
X61633809Y-146656904D01*
X61586190Y-146752142D01*
X61538571Y-146799761D01*
X61443333Y-146847380D01*
X61348095Y-146847380D01*
X61252857Y-146799761D01*
X61205238Y-146752142D01*
X61157619Y-146656904D01*
X61110000Y-146466428D01*
X61110000Y-146228333D01*
X61157619Y-146037857D01*
X61205238Y-145942619D01*
X61252857Y-145895000D01*
X61348095Y-145847380D01*
X62633809Y-146847380D02*
X62062380Y-146847380D01*
X62348095Y-146847380D02*
X62348095Y-145847380D01*
X62252857Y-145990238D01*
X62157619Y-146085476D01*
X62062380Y-146133095D01*
X62967142Y-146847380D02*
X63490952Y-146180714D01*
X62967142Y-146180714D02*
X63490952Y-146847380D01*
X64395714Y-146847380D02*
X63824285Y-146847380D01*
X64109999Y-146847380D02*
X64109999Y-145847380D01*
X64014761Y-145990238D01*
X63919523Y-146085476D01*
X63824285Y-146133095D01*
X64729047Y-145847380D02*
X65348095Y-145847380D01*
X65014761Y-146228333D01*
X65157619Y-146228333D01*
X65252857Y-146275952D01*
X65300476Y-146323571D01*
X65348095Y-146418809D01*
X65348095Y-146656904D01*
X65300476Y-146752142D01*
X65252857Y-146799761D01*
X65157619Y-146847380D01*
X64871904Y-146847380D01*
X64776666Y-146799761D01*
X64729047Y-146752142D01*
X56776666Y-142687380D02*
X56776666Y-143401666D01*
X56729047Y-143544523D01*
X56633809Y-143639761D01*
X56490952Y-143687380D01*
X56395714Y-143687380D01*
X57776666Y-143687380D02*
X57205238Y-143687380D01*
X57490952Y-143687380D02*
X57490952Y-142687380D01*
X57395714Y-142830238D01*
X57300476Y-142925476D01*
X57205238Y-142973095D01*
X177887380Y-146799761D02*
X178030238Y-146847380D01*
X178268333Y-146847380D01*
X178363571Y-146799761D01*
X178411190Y-146752142D01*
X178458809Y-146656904D01*
X178458809Y-146561666D01*
X178411190Y-146466428D01*
X178363571Y-146418809D01*
X178268333Y-146371190D01*
X178077857Y-146323571D01*
X177982619Y-146275952D01*
X177935000Y-146228333D01*
X177887380Y-146133095D01*
X177887380Y-146037857D01*
X177935000Y-145942619D01*
X177982619Y-145895000D01*
X178077857Y-145847380D01*
X178315952Y-145847380D01*
X178458809Y-145895000D01*
X179315952Y-146799761D02*
X179220714Y-146847380D01*
X179030238Y-146847380D01*
X178935000Y-146799761D01*
X178887380Y-146752142D01*
X178839761Y-146656904D01*
X178839761Y-146371190D01*
X178887380Y-146275952D01*
X178935000Y-146228333D01*
X179030238Y-146180714D01*
X179220714Y-146180714D01*
X179315952Y-146228333D01*
X179744523Y-146847380D02*
X179744523Y-146180714D01*
X179744523Y-146371190D02*
X179792142Y-146275952D01*
X179839761Y-146228333D01*
X179935000Y-146180714D01*
X180030238Y-146180714D01*
X180744523Y-146799761D02*
X180649285Y-146847380D01*
X180458809Y-146847380D01*
X180363571Y-146799761D01*
X180315952Y-146704523D01*
X180315952Y-146323571D01*
X180363571Y-146228333D01*
X180458809Y-146180714D01*
X180649285Y-146180714D01*
X180744523Y-146228333D01*
X180792142Y-146323571D01*
X180792142Y-146418809D01*
X180315952Y-146514047D01*
X181125476Y-146180714D02*
X181315952Y-146847380D01*
X181506428Y-146371190D01*
X181696904Y-146847380D01*
X181887380Y-146180714D01*
X182030238Y-146942619D02*
X182792142Y-146942619D01*
X182887380Y-145847380D02*
X183458809Y-145847380D01*
X183173095Y-146847380D02*
X183173095Y-145847380D01*
X184173095Y-146799761D02*
X184077857Y-146847380D01*
X183887380Y-146847380D01*
X183792142Y-146799761D01*
X183744523Y-146704523D01*
X183744523Y-146323571D01*
X183792142Y-146228333D01*
X183887380Y-146180714D01*
X184077857Y-146180714D01*
X184173095Y-146228333D01*
X184220714Y-146323571D01*
X184220714Y-146418809D01*
X183744523Y-146514047D01*
X184649285Y-146847380D02*
X184649285Y-146180714D01*
X184649285Y-146371190D02*
X184696904Y-146275952D01*
X184744523Y-146228333D01*
X184839761Y-146180714D01*
X184935000Y-146180714D01*
X185268333Y-146847380D02*
X185268333Y-146180714D01*
X185268333Y-146275952D02*
X185315952Y-146228333D01*
X185411190Y-146180714D01*
X185554047Y-146180714D01*
X185649285Y-146228333D01*
X185696904Y-146323571D01*
X185696904Y-146847380D01*
X185696904Y-146323571D02*
X185744523Y-146228333D01*
X185839761Y-146180714D01*
X185982619Y-146180714D01*
X186077857Y-146228333D01*
X186125476Y-146323571D01*
X186125476Y-146847380D01*
X186601666Y-146847380D02*
X186601666Y-146180714D01*
X186601666Y-145847380D02*
X186554047Y-145895000D01*
X186601666Y-145942619D01*
X186649285Y-145895000D01*
X186601666Y-145847380D01*
X186601666Y-145942619D01*
X187077857Y-146180714D02*
X187077857Y-146847380D01*
X187077857Y-146275952D02*
X187125476Y-146228333D01*
X187220714Y-146180714D01*
X187363571Y-146180714D01*
X187458809Y-146228333D01*
X187506428Y-146323571D01*
X187506428Y-146847380D01*
X188411190Y-146847380D02*
X188411190Y-146323571D01*
X188363571Y-146228333D01*
X188268333Y-146180714D01*
X188077857Y-146180714D01*
X187982619Y-146228333D01*
X188411190Y-146799761D02*
X188315952Y-146847380D01*
X188077857Y-146847380D01*
X187982619Y-146799761D01*
X187935000Y-146704523D01*
X187935000Y-146609285D01*
X187982619Y-146514047D01*
X188077857Y-146466428D01*
X188315952Y-146466428D01*
X188411190Y-146418809D01*
X189030238Y-146847380D02*
X188935000Y-146799761D01*
X188887380Y-146704523D01*
X188887380Y-145847380D01*
X183101666Y-142687380D02*
X183101666Y-143401666D01*
X183054047Y-143544523D01*
X182958809Y-143639761D01*
X182815952Y-143687380D01*
X182720714Y-143687380D01*
X183720714Y-143115952D02*
X183625476Y-143068333D01*
X183577857Y-143020714D01*
X183530238Y-142925476D01*
X183530238Y-142877857D01*
X183577857Y-142782619D01*
X183625476Y-142735000D01*
X183720714Y-142687380D01*
X183911190Y-142687380D01*
X184006428Y-142735000D01*
X184054047Y-142782619D01*
X184101666Y-142877857D01*
X184101666Y-142925476D01*
X184054047Y-143020714D01*
X184006428Y-143068333D01*
X183911190Y-143115952D01*
X183720714Y-143115952D01*
X183625476Y-143163571D01*
X183577857Y-143211190D01*
X183530238Y-143306428D01*
X183530238Y-143496904D01*
X183577857Y-143592142D01*
X183625476Y-143639761D01*
X183720714Y-143687380D01*
X183911190Y-143687380D01*
X184006428Y-143639761D01*
X184054047Y-143592142D01*
X184101666Y-143496904D01*
X184101666Y-143306428D01*
X184054047Y-143211190D01*
X184006428Y-143163571D01*
X183911190Y-143115952D01*
X65508904Y-146799761D02*
X65651761Y-146847380D01*
X65889857Y-146847380D01*
X65985095Y-146799761D01*
X66032714Y-146752142D01*
X66080333Y-146656904D01*
X66080333Y-146561666D01*
X66032714Y-146466428D01*
X65985095Y-146418809D01*
X65889857Y-146371190D01*
X65699380Y-146323571D01*
X65604142Y-146275952D01*
X65556523Y-146228333D01*
X65508904Y-146133095D01*
X65508904Y-146037857D01*
X65556523Y-145942619D01*
X65604142Y-145895000D01*
X65699380Y-145847380D01*
X65937476Y-145847380D01*
X66080333Y-145895000D01*
X66937476Y-146799761D02*
X66842238Y-146847380D01*
X66651761Y-146847380D01*
X66556523Y-146799761D01*
X66508904Y-146752142D01*
X66461285Y-146656904D01*
X66461285Y-146371190D01*
X66508904Y-146275952D01*
X66556523Y-146228333D01*
X66651761Y-146180714D01*
X66842238Y-146180714D01*
X66937476Y-146228333D01*
X67366047Y-146847380D02*
X67366047Y-146180714D01*
X67366047Y-146371190D02*
X67413666Y-146275952D01*
X67461285Y-146228333D01*
X67556523Y-146180714D01*
X67651761Y-146180714D01*
X68366047Y-146799761D02*
X68270809Y-146847380D01*
X68080333Y-146847380D01*
X67985095Y-146799761D01*
X67937476Y-146704523D01*
X67937476Y-146323571D01*
X67985095Y-146228333D01*
X68080333Y-146180714D01*
X68270809Y-146180714D01*
X68366047Y-146228333D01*
X68413666Y-146323571D01*
X68413666Y-146418809D01*
X67937476Y-146514047D01*
X68747000Y-146180714D02*
X68937476Y-146847380D01*
X69127952Y-146371190D01*
X69318428Y-146847380D01*
X69508904Y-146180714D01*
X69651761Y-146942619D02*
X70413666Y-146942619D01*
X70508904Y-145847380D02*
X71080333Y-145847380D01*
X70794619Y-146847380D02*
X70794619Y-145847380D01*
X71794619Y-146799761D02*
X71699380Y-146847380D01*
X71508904Y-146847380D01*
X71413666Y-146799761D01*
X71366047Y-146704523D01*
X71366047Y-146323571D01*
X71413666Y-146228333D01*
X71508904Y-146180714D01*
X71699380Y-146180714D01*
X71794619Y-146228333D01*
X71842238Y-146323571D01*
X71842238Y-146418809D01*
X71366047Y-146514047D01*
X72270809Y-146847380D02*
X72270809Y-146180714D01*
X72270809Y-146371190D02*
X72318428Y-146275952D01*
X72366047Y-146228333D01*
X72461285Y-146180714D01*
X72556523Y-146180714D01*
X72889857Y-146847380D02*
X72889857Y-146180714D01*
X72889857Y-146275952D02*
X72937476Y-146228333D01*
X73032714Y-146180714D01*
X73175571Y-146180714D01*
X73270809Y-146228333D01*
X73318428Y-146323571D01*
X73318428Y-146847380D01*
X73318428Y-146323571D02*
X73366047Y-146228333D01*
X73461285Y-146180714D01*
X73604142Y-146180714D01*
X73699380Y-146228333D01*
X73747000Y-146323571D01*
X73747000Y-146847380D01*
X74223190Y-146847380D02*
X74223190Y-146180714D01*
X74223190Y-145847380D02*
X74175571Y-145895000D01*
X74223190Y-145942619D01*
X74270809Y-145895000D01*
X74223190Y-145847380D01*
X74223190Y-145942619D01*
X74699380Y-146180714D02*
X74699380Y-146847380D01*
X74699380Y-146275952D02*
X74747000Y-146228333D01*
X74842238Y-146180714D01*
X74985095Y-146180714D01*
X75080333Y-146228333D01*
X75127952Y-146323571D01*
X75127952Y-146847380D01*
X76032714Y-146847380D02*
X76032714Y-146323571D01*
X75985095Y-146228333D01*
X75889857Y-146180714D01*
X75699380Y-146180714D01*
X75604142Y-146228333D01*
X76032714Y-146799761D02*
X75937476Y-146847380D01*
X75699380Y-146847380D01*
X75604142Y-146799761D01*
X75556523Y-146704523D01*
X75556523Y-146609285D01*
X75604142Y-146514047D01*
X75699380Y-146466428D01*
X75937476Y-146466428D01*
X76032714Y-146418809D01*
X76651761Y-146847380D02*
X76556523Y-146799761D01*
X76508904Y-146704523D01*
X76508904Y-145847380D01*
X76794619Y-146942619D02*
X77556523Y-146942619D01*
X77985095Y-145847380D02*
X78080333Y-145847380D01*
X78175571Y-145895000D01*
X78223190Y-145942619D01*
X78270809Y-146037857D01*
X78318428Y-146228333D01*
X78318428Y-146466428D01*
X78270809Y-146656904D01*
X78223190Y-146752142D01*
X78175571Y-146799761D01*
X78080333Y-146847380D01*
X77985095Y-146847380D01*
X77889857Y-146799761D01*
X77842238Y-146752142D01*
X77794619Y-146656904D01*
X77747000Y-146466428D01*
X77747000Y-146228333D01*
X77794619Y-146037857D01*
X77842238Y-145942619D01*
X77889857Y-145895000D01*
X77985095Y-145847380D01*
X79270809Y-146847380D02*
X78699380Y-146847380D01*
X78985095Y-146847380D02*
X78985095Y-145847380D01*
X78889857Y-145990238D01*
X78794619Y-146085476D01*
X78699380Y-146133095D01*
X79604142Y-146847380D02*
X80127952Y-146180714D01*
X79604142Y-146180714D02*
X80127952Y-146847380D01*
X81032714Y-146847380D02*
X80461285Y-146847380D01*
X80747000Y-146847380D02*
X80747000Y-145847380D01*
X80651761Y-145990238D01*
X80556523Y-146085476D01*
X80461285Y-146133095D01*
X81366047Y-145847380D02*
X81985095Y-145847380D01*
X81651761Y-146228333D01*
X81794619Y-146228333D01*
X81889857Y-146275952D01*
X81937476Y-146323571D01*
X81985095Y-146418809D01*
X81985095Y-146656904D01*
X81937476Y-146752142D01*
X81889857Y-146799761D01*
X81794619Y-146847380D01*
X81508904Y-146847380D01*
X81413666Y-146799761D01*
X81366047Y-146752142D01*
X73413666Y-142687380D02*
X73413666Y-143401666D01*
X73366047Y-143544523D01*
X73270809Y-143639761D01*
X73127952Y-143687380D01*
X73032714Y-143687380D01*
X73842238Y-142782619D02*
X73889857Y-142735000D01*
X73985095Y-142687380D01*
X74223190Y-142687380D01*
X74318428Y-142735000D01*
X74366047Y-142782619D01*
X74413666Y-142877857D01*
X74413666Y-142973095D01*
X74366047Y-143115952D01*
X73794619Y-143687380D01*
X74413666Y-143687380D01*
X132056904Y-146799761D02*
X132199761Y-146847380D01*
X132437857Y-146847380D01*
X132533095Y-146799761D01*
X132580714Y-146752142D01*
X132628333Y-146656904D01*
X132628333Y-146561666D01*
X132580714Y-146466428D01*
X132533095Y-146418809D01*
X132437857Y-146371190D01*
X132247380Y-146323571D01*
X132152142Y-146275952D01*
X132104523Y-146228333D01*
X132056904Y-146133095D01*
X132056904Y-146037857D01*
X132104523Y-145942619D01*
X132152142Y-145895000D01*
X132247380Y-145847380D01*
X132485476Y-145847380D01*
X132628333Y-145895000D01*
X133485476Y-146799761D02*
X133390238Y-146847380D01*
X133199761Y-146847380D01*
X133104523Y-146799761D01*
X133056904Y-146752142D01*
X133009285Y-146656904D01*
X133009285Y-146371190D01*
X133056904Y-146275952D01*
X133104523Y-146228333D01*
X133199761Y-146180714D01*
X133390238Y-146180714D01*
X133485476Y-146228333D01*
X133914047Y-146847380D02*
X133914047Y-146180714D01*
X133914047Y-146371190D02*
X133961666Y-146275952D01*
X134009285Y-146228333D01*
X134104523Y-146180714D01*
X134199761Y-146180714D01*
X134914047Y-146799761D02*
X134818809Y-146847380D01*
X134628333Y-146847380D01*
X134533095Y-146799761D01*
X134485476Y-146704523D01*
X134485476Y-146323571D01*
X134533095Y-146228333D01*
X134628333Y-146180714D01*
X134818809Y-146180714D01*
X134914047Y-146228333D01*
X134961666Y-146323571D01*
X134961666Y-146418809D01*
X134485476Y-146514047D01*
X135295000Y-146180714D02*
X135485476Y-146847380D01*
X135675952Y-146371190D01*
X135866428Y-146847380D01*
X136056904Y-146180714D01*
X136199761Y-146942619D02*
X136961666Y-146942619D01*
X137056904Y-145847380D02*
X137628333Y-145847380D01*
X137342619Y-146847380D02*
X137342619Y-145847380D01*
X138342619Y-146799761D02*
X138247380Y-146847380D01*
X138056904Y-146847380D01*
X137961666Y-146799761D01*
X137914047Y-146704523D01*
X137914047Y-146323571D01*
X137961666Y-146228333D01*
X138056904Y-146180714D01*
X138247380Y-146180714D01*
X138342619Y-146228333D01*
X138390238Y-146323571D01*
X138390238Y-146418809D01*
X137914047Y-146514047D01*
X138818809Y-146847380D02*
X138818809Y-146180714D01*
X138818809Y-146371190D02*
X138866428Y-146275952D01*
X138914047Y-146228333D01*
X139009285Y-146180714D01*
X139104523Y-146180714D01*
X139437857Y-146847380D02*
X139437857Y-146180714D01*
X139437857Y-146275952D02*
X139485476Y-146228333D01*
X139580714Y-146180714D01*
X139723571Y-146180714D01*
X139818809Y-146228333D01*
X139866428Y-146323571D01*
X139866428Y-146847380D01*
X139866428Y-146323571D02*
X139914047Y-146228333D01*
X140009285Y-146180714D01*
X140152142Y-146180714D01*
X140247380Y-146228333D01*
X140295000Y-146323571D01*
X140295000Y-146847380D01*
X140771190Y-146847380D02*
X140771190Y-146180714D01*
X140771190Y-145847380D02*
X140723571Y-145895000D01*
X140771190Y-145942619D01*
X140818809Y-145895000D01*
X140771190Y-145847380D01*
X140771190Y-145942619D01*
X141247380Y-146180714D02*
X141247380Y-146847380D01*
X141247380Y-146275952D02*
X141295000Y-146228333D01*
X141390238Y-146180714D01*
X141533095Y-146180714D01*
X141628333Y-146228333D01*
X141675952Y-146323571D01*
X141675952Y-146847380D01*
X142580714Y-146847380D02*
X142580714Y-146323571D01*
X142533095Y-146228333D01*
X142437857Y-146180714D01*
X142247380Y-146180714D01*
X142152142Y-146228333D01*
X142580714Y-146799761D02*
X142485476Y-146847380D01*
X142247380Y-146847380D01*
X142152142Y-146799761D01*
X142104523Y-146704523D01*
X142104523Y-146609285D01*
X142152142Y-146514047D01*
X142247380Y-146466428D01*
X142485476Y-146466428D01*
X142580714Y-146418809D01*
X143199761Y-146847380D02*
X143104523Y-146799761D01*
X143056904Y-146704523D01*
X143056904Y-145847380D01*
X143342619Y-146942619D02*
X144104523Y-146942619D01*
X144533095Y-145847380D02*
X144628333Y-145847380D01*
X144723571Y-145895000D01*
X144771190Y-145942619D01*
X144818809Y-146037857D01*
X144866428Y-146228333D01*
X144866428Y-146466428D01*
X144818809Y-146656904D01*
X144771190Y-146752142D01*
X144723571Y-146799761D01*
X144628333Y-146847380D01*
X144533095Y-146847380D01*
X144437857Y-146799761D01*
X144390238Y-146752142D01*
X144342619Y-146656904D01*
X144295000Y-146466428D01*
X144295000Y-146228333D01*
X144342619Y-146037857D01*
X144390238Y-145942619D01*
X144437857Y-145895000D01*
X144533095Y-145847380D01*
X145818809Y-146847380D02*
X145247380Y-146847380D01*
X145533095Y-146847380D02*
X145533095Y-145847380D01*
X145437857Y-145990238D01*
X145342619Y-146085476D01*
X145247380Y-146133095D01*
X146152142Y-146847380D02*
X146675952Y-146180714D01*
X146152142Y-146180714D02*
X146675952Y-146847380D01*
X147580714Y-146847380D02*
X147009285Y-146847380D01*
X147295000Y-146847380D02*
X147295000Y-145847380D01*
X147199761Y-145990238D01*
X147104523Y-146085476D01*
X147009285Y-146133095D01*
X147914047Y-145847380D02*
X148533095Y-145847380D01*
X148199761Y-146228333D01*
X148342619Y-146228333D01*
X148437857Y-146275952D01*
X148485476Y-146323571D01*
X148533095Y-146418809D01*
X148533095Y-146656904D01*
X148485476Y-146752142D01*
X148437857Y-146799761D01*
X148342619Y-146847380D01*
X148056904Y-146847380D01*
X147961666Y-146799761D01*
X147914047Y-146752142D01*
X139961666Y-142687380D02*
X139961666Y-143401666D01*
X139914047Y-143544523D01*
X139818809Y-143639761D01*
X139675952Y-143687380D01*
X139580714Y-143687380D01*
X140866428Y-142687380D02*
X140675952Y-142687380D01*
X140580714Y-142735000D01*
X140533095Y-142782619D01*
X140437857Y-142925476D01*
X140390238Y-143115952D01*
X140390238Y-143496904D01*
X140437857Y-143592142D01*
X140485476Y-143639761D01*
X140580714Y-143687380D01*
X140771190Y-143687380D01*
X140866428Y-143639761D01*
X140914047Y-143592142D01*
X140961666Y-143496904D01*
X140961666Y-143258809D01*
X140914047Y-143163571D01*
X140866428Y-143115952D01*
X140771190Y-143068333D01*
X140580714Y-143068333D01*
X140485476Y-143115952D01*
X140437857Y-143163571D01*
X140390238Y-143258809D01*
X152336904Y-146799761D02*
X152479761Y-146847380D01*
X152717857Y-146847380D01*
X152813095Y-146799761D01*
X152860714Y-146752142D01*
X152908333Y-146656904D01*
X152908333Y-146561666D01*
X152860714Y-146466428D01*
X152813095Y-146418809D01*
X152717857Y-146371190D01*
X152527380Y-146323571D01*
X152432142Y-146275952D01*
X152384523Y-146228333D01*
X152336904Y-146133095D01*
X152336904Y-146037857D01*
X152384523Y-145942619D01*
X152432142Y-145895000D01*
X152527380Y-145847380D01*
X152765476Y-145847380D01*
X152908333Y-145895000D01*
X153765476Y-146799761D02*
X153670238Y-146847380D01*
X153479761Y-146847380D01*
X153384523Y-146799761D01*
X153336904Y-146752142D01*
X153289285Y-146656904D01*
X153289285Y-146371190D01*
X153336904Y-146275952D01*
X153384523Y-146228333D01*
X153479761Y-146180714D01*
X153670238Y-146180714D01*
X153765476Y-146228333D01*
X154194047Y-146847380D02*
X154194047Y-146180714D01*
X154194047Y-146371190D02*
X154241666Y-146275952D01*
X154289285Y-146228333D01*
X154384523Y-146180714D01*
X154479761Y-146180714D01*
X155194047Y-146799761D02*
X155098809Y-146847380D01*
X154908333Y-146847380D01*
X154813095Y-146799761D01*
X154765476Y-146704523D01*
X154765476Y-146323571D01*
X154813095Y-146228333D01*
X154908333Y-146180714D01*
X155098809Y-146180714D01*
X155194047Y-146228333D01*
X155241666Y-146323571D01*
X155241666Y-146418809D01*
X154765476Y-146514047D01*
X155575000Y-146180714D02*
X155765476Y-146847380D01*
X155955952Y-146371190D01*
X156146428Y-146847380D01*
X156336904Y-146180714D01*
X156479761Y-146942619D02*
X157241666Y-146942619D01*
X157336904Y-145847380D02*
X157908333Y-145847380D01*
X157622619Y-146847380D02*
X157622619Y-145847380D01*
X158622619Y-146799761D02*
X158527380Y-146847380D01*
X158336904Y-146847380D01*
X158241666Y-146799761D01*
X158194047Y-146704523D01*
X158194047Y-146323571D01*
X158241666Y-146228333D01*
X158336904Y-146180714D01*
X158527380Y-146180714D01*
X158622619Y-146228333D01*
X158670238Y-146323571D01*
X158670238Y-146418809D01*
X158194047Y-146514047D01*
X159098809Y-146847380D02*
X159098809Y-146180714D01*
X159098809Y-146371190D02*
X159146428Y-146275952D01*
X159194047Y-146228333D01*
X159289285Y-146180714D01*
X159384523Y-146180714D01*
X159717857Y-146847380D02*
X159717857Y-146180714D01*
X159717857Y-146275952D02*
X159765476Y-146228333D01*
X159860714Y-146180714D01*
X160003571Y-146180714D01*
X160098809Y-146228333D01*
X160146428Y-146323571D01*
X160146428Y-146847380D01*
X160146428Y-146323571D02*
X160194047Y-146228333D01*
X160289285Y-146180714D01*
X160432142Y-146180714D01*
X160527380Y-146228333D01*
X160575000Y-146323571D01*
X160575000Y-146847380D01*
X161051190Y-146847380D02*
X161051190Y-146180714D01*
X161051190Y-145847380D02*
X161003571Y-145895000D01*
X161051190Y-145942619D01*
X161098809Y-145895000D01*
X161051190Y-145847380D01*
X161051190Y-145942619D01*
X161527380Y-146180714D02*
X161527380Y-146847380D01*
X161527380Y-146275952D02*
X161575000Y-146228333D01*
X161670238Y-146180714D01*
X161813095Y-146180714D01*
X161908333Y-146228333D01*
X161955952Y-146323571D01*
X161955952Y-146847380D01*
X162860714Y-146847380D02*
X162860714Y-146323571D01*
X162813095Y-146228333D01*
X162717857Y-146180714D01*
X162527380Y-146180714D01*
X162432142Y-146228333D01*
X162860714Y-146799761D02*
X162765476Y-146847380D01*
X162527380Y-146847380D01*
X162432142Y-146799761D01*
X162384523Y-146704523D01*
X162384523Y-146609285D01*
X162432142Y-146514047D01*
X162527380Y-146466428D01*
X162765476Y-146466428D01*
X162860714Y-146418809D01*
X163479761Y-146847380D02*
X163384523Y-146799761D01*
X163336904Y-146704523D01*
X163336904Y-145847380D01*
X163622619Y-146942619D02*
X164384523Y-146942619D01*
X164813095Y-145847380D02*
X164908333Y-145847380D01*
X165003571Y-145895000D01*
X165051190Y-145942619D01*
X165098809Y-146037857D01*
X165146428Y-146228333D01*
X165146428Y-146466428D01*
X165098809Y-146656904D01*
X165051190Y-146752142D01*
X165003571Y-146799761D01*
X164908333Y-146847380D01*
X164813095Y-146847380D01*
X164717857Y-146799761D01*
X164670238Y-146752142D01*
X164622619Y-146656904D01*
X164575000Y-146466428D01*
X164575000Y-146228333D01*
X164622619Y-146037857D01*
X164670238Y-145942619D01*
X164717857Y-145895000D01*
X164813095Y-145847380D01*
X166098809Y-146847380D02*
X165527380Y-146847380D01*
X165813095Y-146847380D02*
X165813095Y-145847380D01*
X165717857Y-145990238D01*
X165622619Y-146085476D01*
X165527380Y-146133095D01*
X166432142Y-146847380D02*
X166955952Y-146180714D01*
X166432142Y-146180714D02*
X166955952Y-146847380D01*
X167860714Y-146847380D02*
X167289285Y-146847380D01*
X167575000Y-146847380D02*
X167575000Y-145847380D01*
X167479761Y-145990238D01*
X167384523Y-146085476D01*
X167289285Y-146133095D01*
X168194047Y-145847380D02*
X168813095Y-145847380D01*
X168479761Y-146228333D01*
X168622619Y-146228333D01*
X168717857Y-146275952D01*
X168765476Y-146323571D01*
X168813095Y-146418809D01*
X168813095Y-146656904D01*
X168765476Y-146752142D01*
X168717857Y-146799761D01*
X168622619Y-146847380D01*
X168336904Y-146847380D01*
X168241666Y-146799761D01*
X168194047Y-146752142D01*
X160241666Y-142687380D02*
X160241666Y-143401666D01*
X160194047Y-143544523D01*
X160098809Y-143639761D01*
X159955952Y-143687380D01*
X159860714Y-143687380D01*
X160622619Y-142687380D02*
X161289285Y-142687380D01*
X160860714Y-143687380D01*
X179776904Y-70457142D02*
X179729285Y-70504761D01*
X179586428Y-70552380D01*
X179491190Y-70552380D01*
X179348333Y-70504761D01*
X179253095Y-70409523D01*
X179205476Y-70314285D01*
X179157857Y-70123809D01*
X179157857Y-69980952D01*
X179205476Y-69790476D01*
X179253095Y-69695238D01*
X179348333Y-69600000D01*
X179491190Y-69552380D01*
X179586428Y-69552380D01*
X179729285Y-69600000D01*
X179776904Y-69647619D01*
X180348333Y-70552380D02*
X180253095Y-70504761D01*
X180205476Y-70457142D01*
X180157857Y-70361904D01*
X180157857Y-70076190D01*
X180205476Y-69980952D01*
X180253095Y-69933333D01*
X180348333Y-69885714D01*
X180491190Y-69885714D01*
X180586428Y-69933333D01*
X180634047Y-69980952D01*
X180681666Y-70076190D01*
X180681666Y-70361904D01*
X180634047Y-70457142D01*
X180586428Y-70504761D01*
X180491190Y-70552380D01*
X180348333Y-70552380D01*
X181110238Y-69885714D02*
X181110238Y-70552380D01*
X181110238Y-69980952D02*
X181157857Y-69933333D01*
X181253095Y-69885714D01*
X181395952Y-69885714D01*
X181491190Y-69933333D01*
X181538809Y-70028571D01*
X181538809Y-70552380D01*
X182015000Y-69885714D02*
X182015000Y-70552380D01*
X182015000Y-69980952D02*
X182062619Y-69933333D01*
X182157857Y-69885714D01*
X182300714Y-69885714D01*
X182395952Y-69933333D01*
X182443571Y-70028571D01*
X182443571Y-70552380D01*
X182681666Y-70647619D02*
X183443571Y-70647619D01*
X183872142Y-69552380D02*
X183967380Y-69552380D01*
X184062619Y-69600000D01*
X184110238Y-69647619D01*
X184157857Y-69742857D01*
X184205476Y-69933333D01*
X184205476Y-70171428D01*
X184157857Y-70361904D01*
X184110238Y-70457142D01*
X184062619Y-70504761D01*
X183967380Y-70552380D01*
X183872142Y-70552380D01*
X183776904Y-70504761D01*
X183729285Y-70457142D01*
X183681666Y-70361904D01*
X183634047Y-70171428D01*
X183634047Y-69933333D01*
X183681666Y-69742857D01*
X183729285Y-69647619D01*
X183776904Y-69600000D01*
X183872142Y-69552380D01*
X185157857Y-70552380D02*
X184586428Y-70552380D01*
X184872142Y-70552380D02*
X184872142Y-69552380D01*
X184776904Y-69695238D01*
X184681666Y-69790476D01*
X184586428Y-69838095D01*
X185491190Y-70552380D02*
X186015000Y-69885714D01*
X185491190Y-69885714D02*
X186015000Y-70552380D01*
X186586428Y-69552380D02*
X186681666Y-69552380D01*
X186776904Y-69600000D01*
X186824523Y-69647619D01*
X186872142Y-69742857D01*
X186919761Y-69933333D01*
X186919761Y-70171428D01*
X186872142Y-70361904D01*
X186824523Y-70457142D01*
X186776904Y-70504761D01*
X186681666Y-70552380D01*
X186586428Y-70552380D01*
X186491190Y-70504761D01*
X186443571Y-70457142D01*
X186395952Y-70361904D01*
X186348333Y-70171428D01*
X186348333Y-69933333D01*
X186395952Y-69742857D01*
X186443571Y-69647619D01*
X186491190Y-69600000D01*
X186586428Y-69552380D01*
X187300714Y-69647619D02*
X187348333Y-69600000D01*
X187443571Y-69552380D01*
X187681666Y-69552380D01*
X187776904Y-69600000D01*
X187824523Y-69647619D01*
X187872142Y-69742857D01*
X187872142Y-69838095D01*
X187824523Y-69980952D01*
X187253095Y-70552380D01*
X187872142Y-70552380D01*
D14*
X183098809Y-72775238D02*
X183641666Y-72775238D01*
X183750238Y-72811428D01*
X183822619Y-72883809D01*
X183858809Y-72992380D01*
X183858809Y-73064761D01*
X183858809Y-72015238D02*
X183858809Y-72449523D01*
X183858809Y-72232380D02*
X183098809Y-72232380D01*
X183207380Y-72304761D01*
X183279761Y-72377142D01*
X183315952Y-72449523D01*
X183098809Y-71761904D02*
X183098809Y-71291428D01*
X183388333Y-71544761D01*
X183388333Y-71436190D01*
X183424523Y-71363809D01*
X183460714Y-71327619D01*
X183533095Y-71291428D01*
X183714047Y-71291428D01*
X183786428Y-71327619D01*
X183822619Y-71363809D01*
X183858809Y-71436190D01*
X183858809Y-71653333D01*
X183822619Y-71725714D01*
X183786428Y-71761904D01*
M02*
