%TF.GenerationSoftware,KiCad,Pcbnew,(6.0.0-rc1-dev-714-g3024ded91)*%
%TF.CreationDate,2018-10-09T21:15:09+01:00*%
%TF.ProjectId,AquaHub,417175614875622E6B696361645F7063,rev?*%
%TF.SameCoordinates,Original*%
%TF.FileFunction,Other,Fab,Bot*%
%FSLAX46Y46*%
G04 Gerber Fmt 4.6, Leading zero omitted, Abs format (unit mm)*
G04 Created by KiCad (PCBNEW (6.0.0-rc1-dev-714-g3024ded91)) date 10/09/18 21:15:09*
%MOMM*%
%LPD*%
G01*
G04 APERTURE LIST*
%ADD10C,0.080000*%
%ADD11C,0.200000*%
%ADD12C,0.100000*%
%ADD13C,0.150000*%
G04 APERTURE END LIST*
D10*
X55880000Y-104140000D02*
X55880000Y-102870000D01*
X66040000Y-104140000D02*
X55880000Y-104140000D01*
X66040000Y-102870000D02*
X66040000Y-104140000D01*
X55880000Y-102870000D02*
X66040000Y-102870000D01*
D11*
X50800000Y-102870000D02*
X47879000Y-102870000D01*
X50800000Y-106045000D02*
X50800000Y-102870000D01*
X146050000Y-115570000D02*
X146050000Y-118110000D01*
X140680000Y-77590000D02*
X140680000Y-75590000D01*
X148180000Y-75590000D02*
X148180000Y-77590000D01*
X148180000Y-77590000D02*
X208180000Y-77590000D01*
X208180000Y-75590000D02*
X148180000Y-75590000D01*
X208180000Y-53590000D02*
X208180000Y-75590000D01*
X38180000Y-53590000D02*
X208180000Y-53590000D01*
X38180000Y-75590000D02*
X38180000Y-53590000D01*
X140680000Y-75590000D02*
X38180000Y-75590000D01*
X48006000Y-118364000D02*
X47879000Y-102870000D01*
X146050000Y-118110000D02*
X48006000Y-118364000D01*
X50800000Y-115570000D02*
X146050000Y-115570000D01*
X50800000Y-106045000D02*
X50800000Y-115570000D01*
X38180000Y-153590000D02*
X208180000Y-153590000D01*
X38180000Y-77590000D02*
X38180000Y-153590000D01*
X140680000Y-77590000D02*
X38180000Y-77590000D01*
X208180000Y-77590000D02*
X208180000Y-153590000D01*
D12*
X158542278Y-63690000D02*
X158542278Y-64490000D01*
X158942278Y-64090000D02*
X158142278Y-64090000D01*
X159530000Y-68740000D02*
X158530000Y-69740000D01*
X159530000Y-62440000D02*
X158530000Y-61440000D01*
X159530000Y-62440000D02*
X159530000Y-68740000D01*
X158530000Y-69740000D02*
X151230000Y-69740000D01*
X158530000Y-61440000D02*
X151230000Y-61440000D01*
X151230000Y-61440000D02*
X151230000Y-69740000D01*
X159380000Y-65590000D02*
G75*
G03X159380000Y-65590000I-4000000J0D01*
G01*
X182522000Y-58210000D02*
X182522000Y-67460000D01*
X186222000Y-58210000D02*
X186222000Y-67460000D01*
X182522000Y-58210000D02*
X186222000Y-58210000D01*
X182522000Y-67460000D02*
X186222000Y-67460000D01*
X184847000Y-59560000D02*
X185447000Y-59560000D01*
X185447000Y-59560000D02*
X185447000Y-59860000D01*
X185447000Y-59860000D02*
X184847000Y-59860000D01*
X184847000Y-59860000D02*
X184847000Y-59560000D01*
X184847000Y-60810000D02*
X185447000Y-60810000D01*
X185447000Y-60810000D02*
X185447000Y-61110000D01*
X185447000Y-61110000D02*
X184847000Y-61110000D01*
X184847000Y-61110000D02*
X184847000Y-60810000D01*
X184847000Y-62060000D02*
X185447000Y-62060000D01*
X185447000Y-62060000D02*
X185447000Y-62360000D01*
X185447000Y-62360000D02*
X184847000Y-62360000D01*
X184847000Y-62360000D02*
X184847000Y-62060000D01*
X184847000Y-63310000D02*
X185447000Y-63310000D01*
X185447000Y-63310000D02*
X185447000Y-63610000D01*
X185447000Y-63610000D02*
X184847000Y-63610000D01*
X184847000Y-63610000D02*
X184847000Y-63310000D01*
X184847000Y-64560000D02*
X185447000Y-64560000D01*
X185447000Y-64560000D02*
X185447000Y-64860000D01*
X185447000Y-64860000D02*
X184847000Y-64860000D01*
X184847000Y-64860000D02*
X184847000Y-64560000D01*
X184847000Y-65810000D02*
X185447000Y-65810000D01*
X185447000Y-65810000D02*
X185447000Y-66110000D01*
X185447000Y-66110000D02*
X184847000Y-66110000D01*
X184847000Y-66110000D02*
X184847000Y-65810000D01*
X186222000Y-58210000D02*
X186222000Y-56710000D01*
X186222000Y-56710000D02*
X186022000Y-56510000D01*
X186022000Y-56510000D02*
X184222000Y-56510000D01*
X184222000Y-56510000D02*
X184022000Y-56710000D01*
X184022000Y-56710000D02*
X183422000Y-56710000D01*
X183422000Y-56710000D02*
X183422000Y-58210000D01*
X186222000Y-67460000D02*
X186222000Y-68960000D01*
X186222000Y-68960000D02*
X186022000Y-69160000D01*
X186022000Y-69160000D02*
X184222000Y-69160000D01*
X184222000Y-69160000D02*
X184022000Y-68960000D01*
X184022000Y-68960000D02*
X183422000Y-68960000D01*
X183422000Y-68960000D02*
X183422000Y-67460000D01*
X182522000Y-59210000D02*
X183229107Y-59710000D01*
X183229107Y-59710000D02*
X182522000Y-60210000D01*
D13*
X157499047Y-70337619D02*
X157451428Y-70290000D01*
X157356190Y-70242380D01*
X157118095Y-70242380D01*
X157022857Y-70290000D01*
X156975238Y-70337619D01*
X156927619Y-70432857D01*
X156927619Y-70528095D01*
X156975238Y-70670952D01*
X157546666Y-71242380D01*
X156927619Y-71242380D01*
X156546666Y-70337619D02*
X156499047Y-70290000D01*
X156403809Y-70242380D01*
X156165714Y-70242380D01*
X156070476Y-70290000D01*
X156022857Y-70337619D01*
X155975238Y-70432857D01*
X155975238Y-70528095D01*
X156022857Y-70670952D01*
X156594285Y-71242380D01*
X155975238Y-71242380D01*
X155356190Y-70242380D02*
X155260952Y-70242380D01*
X155165714Y-70290000D01*
X155118095Y-70337619D01*
X155070476Y-70432857D01*
X155022857Y-70623333D01*
X155022857Y-70861428D01*
X155070476Y-71051904D01*
X155118095Y-71147142D01*
X155165714Y-71194761D01*
X155260952Y-71242380D01*
X155356190Y-71242380D01*
X155451428Y-71194761D01*
X155499047Y-71147142D01*
X155546666Y-71051904D01*
X155594285Y-70861428D01*
X155594285Y-70623333D01*
X155546666Y-70432857D01*
X155499047Y-70337619D01*
X155451428Y-70290000D01*
X155356190Y-70242380D01*
X154165714Y-70575714D02*
X154165714Y-71242380D01*
X154594285Y-70575714D02*
X154594285Y-71099523D01*
X154546666Y-71194761D01*
X154451428Y-71242380D01*
X154308571Y-71242380D01*
X154213333Y-71194761D01*
X154165714Y-71147142D01*
X153356190Y-70718571D02*
X153689523Y-70718571D01*
X153689523Y-71242380D02*
X153689523Y-70242380D01*
X153213333Y-70242380D01*
X155546666Y-65947142D02*
X155594285Y-65994761D01*
X155737142Y-66042380D01*
X155832380Y-66042380D01*
X155975238Y-65994761D01*
X156070476Y-65899523D01*
X156118095Y-65804285D01*
X156165714Y-65613809D01*
X156165714Y-65470952D01*
X156118095Y-65280476D01*
X156070476Y-65185238D01*
X155975238Y-65090000D01*
X155832380Y-65042380D01*
X155737142Y-65042380D01*
X155594285Y-65090000D01*
X155546666Y-65137619D01*
X155070476Y-66042380D02*
X154880000Y-66042380D01*
X154784761Y-65994761D01*
X154737142Y-65947142D01*
X154641904Y-65804285D01*
X154594285Y-65613809D01*
X154594285Y-65232857D01*
X154641904Y-65137619D01*
X154689523Y-65090000D01*
X154784761Y-65042380D01*
X154975238Y-65042380D01*
X155070476Y-65090000D01*
X155118095Y-65137619D01*
X155165714Y-65232857D01*
X155165714Y-65470952D01*
X155118095Y-65566190D01*
X155070476Y-65613809D01*
X154975238Y-65661428D01*
X154784761Y-65661428D01*
X154689523Y-65613809D01*
X154641904Y-65566190D01*
X154594285Y-65470952D01*
X188274380Y-60096904D02*
X187274380Y-60096904D01*
X188274380Y-60573095D02*
X187274380Y-60573095D01*
X187274380Y-60811190D01*
X187322000Y-60954047D01*
X187417238Y-61049285D01*
X187512476Y-61096904D01*
X187702952Y-61144523D01*
X187845809Y-61144523D01*
X188036285Y-61096904D01*
X188131523Y-61049285D01*
X188226761Y-60954047D01*
X188274380Y-60811190D01*
X188274380Y-60573095D01*
X188179142Y-62144523D02*
X188226761Y-62096904D01*
X188274380Y-61954047D01*
X188274380Y-61858809D01*
X188226761Y-61715952D01*
X188131523Y-61620714D01*
X188036285Y-61573095D01*
X187845809Y-61525476D01*
X187702952Y-61525476D01*
X187512476Y-61573095D01*
X187417238Y-61620714D01*
X187322000Y-61715952D01*
X187274380Y-61858809D01*
X187274380Y-61954047D01*
X187322000Y-62096904D01*
X187369619Y-62144523D01*
X188369619Y-62335000D02*
X188369619Y-63096904D01*
X187369619Y-63287380D02*
X187322000Y-63335000D01*
X187274380Y-63430238D01*
X187274380Y-63668333D01*
X187322000Y-63763571D01*
X187369619Y-63811190D01*
X187464857Y-63858809D01*
X187560095Y-63858809D01*
X187702952Y-63811190D01*
X188274380Y-63239761D01*
X188274380Y-63858809D01*
X188274380Y-64192142D02*
X187607714Y-64715952D01*
X187607714Y-64192142D02*
X188274380Y-64715952D01*
X187274380Y-65001666D02*
X187274380Y-65620714D01*
X187655333Y-65287380D01*
X187655333Y-65430238D01*
X187702952Y-65525476D01*
X187750571Y-65573095D01*
X187845809Y-65620714D01*
X188083904Y-65620714D01*
X188179142Y-65573095D01*
X188226761Y-65525476D01*
X188274380Y-65430238D01*
X188274380Y-65144523D01*
X188226761Y-65049285D01*
X188179142Y-65001666D01*
X183474380Y-62025476D02*
X184188666Y-62025476D01*
X184331523Y-61977857D01*
X184426761Y-61882619D01*
X184474380Y-61739761D01*
X184474380Y-61644523D01*
X184474380Y-63025476D02*
X184474380Y-62454047D01*
X184474380Y-62739761D02*
X183474380Y-62739761D01*
X183617238Y-62644523D01*
X183712476Y-62549285D01*
X183760095Y-62454047D01*
X183569619Y-63406428D02*
X183522000Y-63454047D01*
X183474380Y-63549285D01*
X183474380Y-63787380D01*
X183522000Y-63882619D01*
X183569619Y-63930238D01*
X183664857Y-63977857D01*
X183760095Y-63977857D01*
X183902952Y-63930238D01*
X184474380Y-63358809D01*
X184474380Y-63977857D01*
M02*
