G04 #@! TF.GenerationSoftware,KiCad,Pcbnew,(6.0.0-rc1-dev-904-g29e0e6921)*
G04 #@! TF.CreationDate,2018-11-17T01:03:25+00:00*
G04 #@! TF.ProjectId,AquaHub,417175614875622E6B696361645F7063,2*
G04 #@! TF.SameCoordinates,Original*
G04 #@! TF.FileFunction,Copper,L2,Bot,Signal*
G04 #@! TF.FilePolarity,Positive*
%FSLAX46Y46*%
G04 Gerber Fmt 4.6, Leading zero omitted, Abs format (unit mm)*
G04 Created by KiCad (PCBNEW (6.0.0-rc1-dev-904-g29e0e6921)) date 17/11/2018 01:03:25*
%MOMM*%
%LPD*%
G01*
G04 APERTURE LIST*
G04 #@! TA.AperFunction,ComponentPad*
%ADD10O,1.350000X1.350000*%
G04 #@! TD*
G04 #@! TA.AperFunction,ComponentPad*
%ADD11R,1.350000X1.350000*%
G04 #@! TD*
G04 #@! TA.AperFunction,ComponentPad*
%ADD12O,4.000000X3.000000*%
G04 #@! TD*
G04 #@! TA.AperFunction,ComponentPad*
%ADD13C,2.000000*%
G04 #@! TD*
G04 #@! TA.AperFunction,ComponentPad*
%ADD14O,1.700000X1.700000*%
G04 #@! TD*
G04 #@! TA.AperFunction,ComponentPad*
%ADD15R,1.700000X1.700000*%
G04 #@! TD*
G04 #@! TA.AperFunction,ComponentPad*
%ADD16C,2.500000*%
G04 #@! TD*
G04 #@! TA.AperFunction,ComponentPad*
%ADD17R,2.500000X2.500000*%
G04 #@! TD*
G04 #@! TA.AperFunction,ComponentPad*
%ADD18C,2.600000*%
G04 #@! TD*
G04 #@! TA.AperFunction,ComponentPad*
%ADD19R,2.600000X2.600000*%
G04 #@! TD*
G04 #@! TA.AperFunction,ComponentPad*
%ADD20C,1.800000*%
G04 #@! TD*
G04 #@! TA.AperFunction,ComponentPad*
%ADD21R,2.000000X2.000000*%
G04 #@! TD*
G04 #@! TA.AperFunction,ViaPad*
%ADD22C,1.000000*%
G04 #@! TD*
G04 #@! TA.AperFunction,Conductor*
%ADD23C,0.508000*%
G04 #@! TD*
G04 #@! TA.AperFunction,Conductor*
%ADD24C,0.304800*%
G04 #@! TD*
G04 #@! TA.AperFunction,Conductor*
%ADD25C,0.152400*%
G04 #@! TD*
G04 #@! TA.AperFunction,Conductor*
%ADD26C,2.500000*%
G04 #@! TD*
G04 #@! TA.AperFunction,Conductor*
%ADD27C,0.254000*%
G04 #@! TD*
G04 APERTURE END LIST*
D10*
G04 #@! TO.P,J8,16*
G04 #@! TO.N,N/C*
X144182000Y-38873000D03*
G04 #@! TO.P,J8,15*
G04 #@! TO.N,GND*
X144182000Y-36873000D03*
G04 #@! TO.P,J8,14*
G04 #@! TO.N,SW_6*
X146182000Y-38873000D03*
G04 #@! TO.P,J8,13*
G04 #@! TO.N,SW_5*
X146182000Y-36873000D03*
G04 #@! TO.P,J8,12*
G04 #@! TO.N,SW_4*
X148182000Y-38873000D03*
G04 #@! TO.P,J8,11*
G04 #@! TO.N,SW_3*
X148182000Y-36873000D03*
G04 #@! TO.P,J8,10*
G04 #@! TO.N,SW_2*
X150182000Y-38873000D03*
G04 #@! TO.P,J8,9*
G04 #@! TO.N,SW_1*
X150182000Y-36873000D03*
G04 #@! TO.P,J8,8*
G04 #@! TO.N,LED_7*
X152182000Y-38873000D03*
G04 #@! TO.P,J8,7*
G04 #@! TO.N,LED_6*
X152182000Y-36873000D03*
G04 #@! TO.P,J8,6*
G04 #@! TO.N,LED_5*
X154182000Y-38873000D03*
G04 #@! TO.P,J8,5*
G04 #@! TO.N,LED_4*
X154182000Y-36873000D03*
G04 #@! TO.P,J8,4*
G04 #@! TO.N,LED_3*
X156182000Y-38873000D03*
G04 #@! TO.P,J8,3*
G04 #@! TO.N,LED_2*
X156182000Y-36873000D03*
G04 #@! TO.P,J8,2*
G04 #@! TO.N,LED_1*
X158182000Y-38873000D03*
D11*
G04 #@! TO.P,J8,1*
G04 #@! TO.N,+5V*
X158182000Y-36873000D03*
G04 #@! TD*
D12*
G04 #@! TO.P,F1,1*
G04 #@! TO.N,/PowerBoard/LIVE_IN*
X227354400Y-80827200D03*
X227354400Y-87827200D03*
G04 #@! TO.P,F1,2*
G04 #@! TO.N,/PowerBoard/UNFUSED_LIVE*
X227354400Y-97327200D03*
X227354400Y-104327200D03*
G04 #@! TD*
D13*
G04 #@! TO.P,TP1,1*
G04 #@! TO.N,GND*
X163956000Y-67996000D03*
G04 #@! TD*
G04 #@! TO.P,TP8,1*
G04 #@! TO.N,SDA*
X168020000Y-63932000D03*
G04 #@! TD*
G04 #@! TO.P,TP7,1*
G04 #@! TO.N,SCL*
X172084000Y-63932000D03*
G04 #@! TD*
G04 #@! TO.P,TP4,1*
G04 #@! TO.N,+12V*
X176148000Y-67985000D03*
G04 #@! TD*
G04 #@! TO.P,TP2,1*
G04 #@! TO.N,+3V3*
X168020000Y-67996000D03*
G04 #@! TD*
G04 #@! TO.P,TP3,1*
G04 #@! TO.N,+5V*
X172084000Y-67996000D03*
G04 #@! TD*
D14*
G04 #@! TO.P,J10,6*
G04 #@! TO.N,+3V3*
X186689000Y-36627000D03*
G04 #@! TO.P,J10,5*
G04 #@! TO.N,/TX*
X184149000Y-36627000D03*
G04 #@! TO.P,J10,4*
G04 #@! TO.N,/RX*
X181609000Y-36627000D03*
G04 #@! TO.P,J10,3*
G04 #@! TO.N,/EN*
X179069000Y-36627000D03*
G04 #@! TO.P,J10,2*
G04 #@! TO.N,/IO0*
X176529000Y-36627000D03*
D15*
G04 #@! TO.P,J10,1*
G04 #@! TO.N,GND*
X173989000Y-36627000D03*
G04 #@! TD*
D14*
G04 #@! TO.P,J14,3*
G04 #@! TO.N,+5V*
X225009200Y-59241000D03*
G04 #@! TO.P,J14,2*
G04 #@! TO.N,/Temp_Sense*
X225009200Y-56701000D03*
D15*
G04 #@! TO.P,J14,1*
G04 #@! TO.N,GND*
X225009200Y-54161000D03*
G04 #@! TD*
D16*
G04 #@! TO.P,K1,8*
G04 #@! TO.N,/PowerBoard/NEUTRAL1*
X109460000Y-104350000D03*
G04 #@! TO.P,K1,7*
G04 #@! TO.N,/PowerBoard/NEUTRAL*
X109460000Y-99350000D03*
G04 #@! TO.P,K1,5*
G04 #@! TO.N,+12V*
X109460000Y-79350000D03*
G04 #@! TO.P,K1,4*
G04 #@! TO.N,RE1*
X116960000Y-79350000D03*
G04 #@! TO.P,K1,2*
G04 #@! TO.N,/PowerBoard/LIVE*
X116960000Y-99350000D03*
D17*
G04 #@! TO.P,K1,1*
G04 #@! TO.N,/PowerBoard/LIVE1*
X116960000Y-104350000D03*
G04 #@! TD*
D16*
G04 #@! TO.P,K6,8*
G04 #@! TO.N,/PowerBoard/NEUTRAL6*
X192525000Y-104350000D03*
G04 #@! TO.P,K6,7*
G04 #@! TO.N,/PowerBoard/NEUTRAL*
X192525000Y-99350000D03*
G04 #@! TO.P,K6,5*
G04 #@! TO.N,+12V*
X192525000Y-79350000D03*
G04 #@! TO.P,K6,4*
G04 #@! TO.N,RE6*
X200025000Y-79350000D03*
G04 #@! TO.P,K6,2*
G04 #@! TO.N,/PowerBoard/LIVE*
X200025000Y-99350000D03*
D17*
G04 #@! TO.P,K6,1*
G04 #@! TO.N,/PowerBoard/LIVE6*
X200025000Y-104350000D03*
G04 #@! TD*
D18*
G04 #@! TO.P,J7,2*
G04 #@! TO.N,/PowerBoard/UNFUSED_LIVE*
X218743000Y-111335000D03*
D19*
G04 #@! TO.P,J7,1*
G04 #@! TO.N,/PowerBoard/NEUTRAL*
X213743000Y-111335000D03*
G04 #@! TD*
D18*
G04 #@! TO.P,J6,2*
G04 #@! TO.N,/PowerBoard/LIVE6*
X198795000Y-111335000D03*
D19*
G04 #@! TO.P,J6,1*
G04 #@! TO.N,/PowerBoard/NEUTRAL6*
X193795000Y-111335000D03*
G04 #@! TD*
D18*
G04 #@! TO.P,J2,2*
G04 #@! TO.N,/PowerBoard/LIVE2*
X132247000Y-111335000D03*
D19*
G04 #@! TO.P,J2,1*
G04 #@! TO.N,/PowerBoard/NEUTRAL2*
X127247000Y-111335000D03*
G04 #@! TD*
D18*
G04 #@! TO.P,J1,2*
G04 #@! TO.N,/PowerBoard/LIVE1*
X115610000Y-111335000D03*
D19*
G04 #@! TO.P,J1,1*
G04 #@! TO.N,/PowerBoard/NEUTRAL1*
X110610000Y-111335000D03*
G04 #@! TD*
D18*
G04 #@! TO.P,J5,2*
G04 #@! TO.N,/PowerBoard/LIVE5*
X182158000Y-111335000D03*
D19*
G04 #@! TO.P,J5,1*
G04 #@! TO.N,/PowerBoard/NEUTRAL5*
X177158000Y-111335000D03*
G04 #@! TD*
D18*
G04 #@! TO.P,J4,2*
G04 #@! TO.N,/PowerBoard/LIVE4*
X165521000Y-111335000D03*
D19*
G04 #@! TO.P,J4,1*
G04 #@! TO.N,/PowerBoard/NEUTRAL4*
X160521000Y-111335000D03*
G04 #@! TD*
D18*
G04 #@! TO.P,J3,2*
G04 #@! TO.N,/PowerBoard/LIVE3*
X148884000Y-111335000D03*
D19*
G04 #@! TO.P,J3,1*
G04 #@! TO.N,/PowerBoard/NEUTRAL3*
X143884000Y-111335000D03*
G04 #@! TD*
D20*
G04 #@! TO.P,RV1,2*
G04 #@! TO.N,/PowerBoard/NEUTRAL*
X101100000Y-101906000D03*
G04 #@! TO.P,RV1,1*
G04 #@! TO.N,/PowerBoard/LIVE*
X104000000Y-94406000D03*
G04 #@! TD*
D13*
G04 #@! TO.P,V1,5*
G04 #@! TO.N,+12V*
X75564000Y-74600000D03*
G04 #@! TO.P,V1,3*
G04 #@! TO.N,Net-(V1-Pad3)*
X93344000Y-69520000D03*
G04 #@! TO.P,V1,4*
G04 #@! TO.N,GND*
X75564000Y-69520000D03*
G04 #@! TO.P,V1,2*
G04 #@! TO.N,/PowerBoard/NEUTRAL*
X93344000Y-94920000D03*
D21*
G04 #@! TO.P,V1,1*
G04 #@! TO.N,/PowerBoard/LIVE*
X93344000Y-100000000D03*
G04 #@! TD*
D16*
G04 #@! TO.P,K2,8*
G04 #@! TO.N,/PowerBoard/NEUTRAL2*
X125970000Y-104350000D03*
G04 #@! TO.P,K2,7*
G04 #@! TO.N,/PowerBoard/NEUTRAL*
X125970000Y-99350000D03*
G04 #@! TO.P,K2,5*
G04 #@! TO.N,+12V*
X125970000Y-79350000D03*
G04 #@! TO.P,K2,4*
G04 #@! TO.N,RE2*
X133470000Y-79350000D03*
G04 #@! TO.P,K2,2*
G04 #@! TO.N,/PowerBoard/LIVE*
X133470000Y-99350000D03*
D17*
G04 #@! TO.P,K2,1*
G04 #@! TO.N,/PowerBoard/LIVE2*
X133470000Y-104350000D03*
G04 #@! TD*
D16*
G04 #@! TO.P,K3,8*
G04 #@! TO.N,/PowerBoard/NEUTRAL3*
X142480000Y-104350000D03*
G04 #@! TO.P,K3,7*
G04 #@! TO.N,/PowerBoard/NEUTRAL*
X142480000Y-99350000D03*
G04 #@! TO.P,K3,5*
G04 #@! TO.N,+12V*
X142480000Y-79350000D03*
G04 #@! TO.P,K3,4*
G04 #@! TO.N,RE3*
X149980000Y-79350000D03*
G04 #@! TO.P,K3,2*
G04 #@! TO.N,/PowerBoard/LIVE*
X149980000Y-99350000D03*
D17*
G04 #@! TO.P,K3,1*
G04 #@! TO.N,/PowerBoard/LIVE3*
X149980000Y-104350000D03*
G04 #@! TD*
D16*
G04 #@! TO.P,K4,8*
G04 #@! TO.N,/PowerBoard/NEUTRAL4*
X158990000Y-104350000D03*
G04 #@! TO.P,K4,7*
G04 #@! TO.N,/PowerBoard/NEUTRAL*
X158990000Y-99350000D03*
G04 #@! TO.P,K4,5*
G04 #@! TO.N,+12V*
X158990000Y-79350000D03*
G04 #@! TO.P,K4,4*
G04 #@! TO.N,RE4*
X166490000Y-79350000D03*
G04 #@! TO.P,K4,2*
G04 #@! TO.N,/PowerBoard/LIVE*
X166490000Y-99350000D03*
D17*
G04 #@! TO.P,K4,1*
G04 #@! TO.N,/PowerBoard/LIVE4*
X166490000Y-104350000D03*
G04 #@! TD*
D16*
G04 #@! TO.P,K5,8*
G04 #@! TO.N,/PowerBoard/NEUTRAL5*
X175754000Y-104350000D03*
G04 #@! TO.P,K5,7*
G04 #@! TO.N,/PowerBoard/NEUTRAL*
X175754000Y-99350000D03*
G04 #@! TO.P,K5,5*
G04 #@! TO.N,+12V*
X175754000Y-79350000D03*
G04 #@! TO.P,K5,4*
G04 #@! TO.N,RE5*
X183254000Y-79350000D03*
G04 #@! TO.P,K5,2*
G04 #@! TO.N,/PowerBoard/LIVE*
X183254000Y-99350000D03*
D17*
G04 #@! TO.P,K5,1*
G04 #@! TO.N,/PowerBoard/LIVE5*
X183254000Y-104350000D03*
G04 #@! TD*
D13*
G04 #@! TO.P,LS1,2*
G04 #@! TO.N,Net-(LS1-Pad2)*
X102996000Y-40136000D03*
D21*
G04 #@! TO.P,LS1,1*
G04 #@! TO.N,+5V*
X102996000Y-45136000D03*
G04 #@! TD*
D22*
G04 #@! TO.N,GND*
X213234979Y-80188000D03*
X203382000Y-55720000D03*
X172211000Y-53459000D03*
X172211010Y-54729000D03*
X172211000Y-45697786D03*
X183450500Y-69139000D03*
X132714000Y-63585000D03*
X202962655Y-40719411D03*
X132714000Y-54661000D03*
X120649000Y-52516010D03*
X84500000Y-54000000D03*
X215435350Y-41804822D03*
X104774000Y-60600000D03*
X120000000Y-43000000D03*
X187276210Y-41500000D03*
X201800000Y-64800000D03*
X211161000Y-50764000D03*
X211161000Y-45811000D03*
X206208000Y-45811000D03*
X206208000Y-50764000D03*
G04 #@! TO.N,+5V*
X164404000Y-43679000D03*
X146366500Y-45771000D03*
X189356000Y-70726500D03*
X140334000Y-58090000D03*
X140334000Y-65191000D03*
X146430000Y-51232000D03*
X197500000Y-74721135D03*
X151987494Y-47833506D03*
G04 #@! TO.N,+3V3*
X191261000Y-43612000D03*
X191261000Y-48057000D03*
X211500000Y-41700002D03*
X222000000Y-40600000D03*
G04 #@! TO.N,/Temp_Sense*
X220500004Y-55840000D03*
G04 #@! TO.N,/IO0*
X217423000Y-61011000D03*
X213486000Y-61011000D03*
X197484000Y-49454000D03*
X197483992Y-58217000D03*
G04 #@! TO.N,/Sounder*
X203199000Y-46152000D03*
X194055000Y-46406006D03*
G04 #@! TO.N,Power_Sense*
X222750000Y-58249976D03*
X222750000Y-60250012D03*
G04 #@! TO.N,SDA*
X141858000Y-47168000D03*
X170813944Y-47168000D03*
X170814000Y-59486992D03*
X142230550Y-59487004D03*
X179000000Y-64200000D03*
X189600000Y-65000000D03*
X208621000Y-64884500D03*
X203033000Y-64861000D03*
G04 #@! TO.N,SCL*
X180203395Y-62598501D03*
X173100000Y-47104500D03*
X173100000Y-58126562D03*
X180203395Y-62598501D03*
X188500000Y-62750000D03*
G04 #@! TD*
D23*
G04 #@! TO.N,GND*
X211964979Y-81458000D02*
X213234979Y-80188000D01*
X174242000Y-81458000D02*
X211964979Y-81458000D01*
X173354000Y-73965000D02*
X173354000Y-80570000D01*
X173354000Y-80570000D02*
X174242000Y-81458000D01*
X80010000Y-73966000D02*
X75564000Y-69520000D01*
X81787000Y-75743000D02*
X80010000Y-73966000D01*
X101599000Y-75743000D02*
X81787000Y-75743000D01*
X173354000Y-73965000D02*
X103377000Y-73965000D01*
X103377000Y-73965000D02*
X101599000Y-75743000D01*
D24*
X172211000Y-54728990D02*
X172211010Y-54729000D01*
X172211000Y-53459000D02*
X172211000Y-54728990D01*
X172210996Y-45697790D02*
X172211000Y-45697786D01*
X172211000Y-53459000D02*
X172211000Y-45697786D01*
D23*
X178624500Y-73965000D02*
X183450500Y-69139000D01*
X173354000Y-73965000D02*
X178624500Y-73965000D01*
X104774000Y-59487000D02*
X104774000Y-59487000D01*
X132714000Y-62662000D02*
X132714000Y-62662000D01*
X132714000Y-62877894D02*
X132714000Y-63585000D01*
X132714000Y-54661000D02*
X132714000Y-62877894D01*
D24*
X173989000Y-38689000D02*
X173989000Y-36627000D01*
X172211000Y-44990680D02*
X172211000Y-45697786D01*
X172211000Y-40489000D02*
X172211000Y-44990680D01*
X173989000Y-38689000D02*
X173989000Y-38711000D01*
X173989000Y-38711000D02*
X172211000Y-40489000D01*
D23*
X81499000Y-63585000D02*
X75564000Y-69520000D01*
X84500000Y-60500000D02*
X81499000Y-63585000D01*
X84499966Y-54000034D02*
X84500000Y-60500000D01*
X84500000Y-54000000D02*
X84499966Y-54000034D01*
X120649000Y-52516010D02*
X112857990Y-52516010D01*
X84500000Y-60500000D02*
X84600000Y-60600000D01*
X104066894Y-60600000D02*
X104774000Y-60600000D01*
X105273999Y-60100001D02*
X104774000Y-60600000D01*
X112857990Y-52516010D02*
X105273999Y-60100001D01*
X84600000Y-60600000D02*
X104066894Y-60600000D01*
X120649000Y-52516010D02*
X120649000Y-43649000D01*
X120649000Y-43649000D02*
X120499999Y-43499999D01*
X120499999Y-43499999D02*
X120000000Y-43000000D01*
D24*
X176800000Y-41500000D02*
X186569104Y-41500000D01*
X186569104Y-41500000D02*
X187276210Y-41500000D01*
X174000000Y-38700000D02*
X176800000Y-41500000D01*
D23*
X201800000Y-57302000D02*
X203382000Y-55720000D01*
X201800000Y-64800000D02*
X201800000Y-57302000D01*
D24*
X206208000Y-45811000D02*
X211161000Y-45811000D01*
X206208000Y-45811000D02*
X206208000Y-50764000D01*
X206208000Y-50764000D02*
X211161000Y-50764000D01*
X211161000Y-50764000D02*
X211161000Y-45811000D01*
X206208000Y-52894000D02*
X203382000Y-55720000D01*
X206208000Y-50764000D02*
X206208000Y-52894000D01*
X203462654Y-41219410D02*
X202962655Y-40719411D01*
X206208000Y-45811000D02*
X206208000Y-43964756D01*
X206208000Y-43964756D02*
X203462654Y-41219410D01*
X215435350Y-46465850D02*
X215435350Y-41804822D01*
X225009200Y-54161000D02*
X223130500Y-54161000D01*
X223130500Y-54161000D02*
X215435350Y-46465850D01*
X215167178Y-41804822D02*
X215435350Y-41804822D01*
X211161000Y-45811000D02*
X215167178Y-41804822D01*
D23*
G04 #@! TO.N,+5V*
X140334000Y-65191000D02*
X140334000Y-58797106D01*
X140334000Y-58797106D02*
X140334000Y-58090000D01*
X146366500Y-45771000D02*
X146366500Y-51168500D01*
X146366500Y-51168500D02*
X146430000Y-51232000D01*
X193505365Y-70726500D02*
X197000001Y-74221136D01*
X197000001Y-74221136D02*
X197500000Y-74721135D01*
X189356000Y-70726500D02*
X193505365Y-70726500D01*
X164404000Y-43679000D02*
X156142000Y-43679000D01*
X156142000Y-43679000D02*
X152487493Y-47333507D01*
X152487493Y-47333507D02*
X151987494Y-47833506D01*
G04 #@! TO.N,+3V3*
X191261000Y-41199000D02*
X186689000Y-36627000D01*
X191261000Y-43612000D02*
X191261000Y-41199000D01*
X191261000Y-46913992D02*
X191261000Y-43612000D01*
X191261000Y-48057000D02*
X191261000Y-46913992D01*
X211500000Y-41700002D02*
X212600002Y-40600000D01*
X212600002Y-40600000D02*
X221292894Y-40600000D01*
X221292894Y-40600000D02*
X222000000Y-40600000D01*
D25*
G04 #@! TO.N,/Temp_Sense*
X221207110Y-55840000D02*
X220500004Y-55840000D01*
X225009200Y-56701000D02*
X224090000Y-55840000D01*
X224090000Y-55840000D02*
X221207110Y-55840000D01*
D24*
G04 #@! TO.N,/IO0*
X217423000Y-61011000D02*
X213486000Y-61011000D01*
X197484000Y-49454000D02*
X197484000Y-58216992D01*
X197484000Y-58216992D02*
X197483992Y-58217000D01*
G04 #@! TO.N,/Sounder*
X194309006Y-46152000D02*
X194055000Y-46406006D01*
X203199000Y-46152000D02*
X194309006Y-46152000D01*
D25*
G04 #@! TO.N,Power_Sense*
X222750000Y-58249976D02*
X222750000Y-60250012D01*
D24*
G04 #@! TO.N,SDA*
X170813944Y-47168000D02*
X170813944Y-59486936D01*
X141858000Y-59108000D02*
X142230550Y-59487004D01*
X141858000Y-47168000D02*
X141858000Y-59108000D01*
X179800000Y-65000000D02*
X189600000Y-65000000D01*
X179000000Y-64200000D02*
X179800000Y-65000000D01*
X208621000Y-64884500D02*
X203056500Y-64884500D01*
X203056500Y-64884500D02*
X203033000Y-64861000D01*
G04 #@! TO.N,SCL*
X173100000Y-47104500D02*
X173100000Y-58126562D01*
X173100000Y-62916000D02*
X173100000Y-58126562D01*
X172084000Y-63932000D02*
X173100000Y-62916000D01*
X188348501Y-62598501D02*
X188500000Y-62750000D01*
X180203395Y-62598501D02*
X188348501Y-62598501D01*
D26*
G04 #@! TO.N,/PowerBoard/NEUTRAL6*
X193795000Y-111335000D02*
X192525000Y-104350000D01*
G04 #@! TO.N,/PowerBoard/NEUTRAL5*
X177158000Y-111335000D02*
X175754000Y-104350000D01*
G04 #@! TO.N,/PowerBoard/NEUTRAL4*
X160521000Y-111335000D02*
X158997000Y-104350000D01*
G04 #@! TO.N,/PowerBoard/NEUTRAL3*
X143884000Y-111335000D02*
X142480000Y-104350000D01*
G04 #@! TO.N,/PowerBoard/NEUTRAL2*
X127247000Y-111335000D02*
X125977000Y-104350000D01*
G04 #@! TO.N,/PowerBoard/NEUTRAL1*
X110610000Y-111335000D02*
X109467000Y-104350000D01*
G04 #@! TO.N,/PowerBoard/NEUTRAL*
X192525000Y-94190000D02*
X175754000Y-94190000D01*
X213616000Y-111462000D02*
X213743000Y-111335000D01*
X125970000Y-99350000D02*
X125970000Y-94190000D01*
X142480000Y-94190000D02*
X125970000Y-94190000D01*
X142480000Y-99350000D02*
X142480000Y-94190000D01*
X158990000Y-94190000D02*
X142480000Y-94190000D01*
X158990000Y-99350000D02*
X158990000Y-94190000D01*
X158990000Y-94190000D02*
X175754000Y-94190000D01*
X175754000Y-99350000D02*
X175754000Y-94190000D01*
X192525000Y-99350000D02*
X192525000Y-94190000D01*
X111536000Y-94190000D02*
X125970000Y-94190000D01*
X111505000Y-94159000D02*
X111536000Y-94190000D01*
X109460000Y-99350000D02*
X109460000Y-96204000D01*
X109460000Y-96204000D02*
X111505000Y-94159000D01*
X96920000Y-94920000D02*
X93344000Y-94920000D01*
X101100000Y-101906000D02*
X101100000Y-99100000D01*
X101100000Y-99100000D02*
X96920000Y-94920000D01*
X101000000Y-101815000D02*
X101091000Y-101906000D01*
X101000000Y-100000000D02*
X101000000Y-101815000D01*
X101634000Y-99366000D02*
X101000000Y-100000000D01*
X109460000Y-99350000D02*
X109444000Y-99366000D01*
X109444000Y-99366000D02*
X101634000Y-99366000D01*
X207257000Y-105112000D02*
X213743000Y-111335000D01*
X207257000Y-98000000D02*
X207257000Y-105112000D01*
X192525000Y-94190000D02*
X203447000Y-94190000D01*
X203447000Y-94190000D02*
X207257000Y-98000000D01*
G04 #@! TD*
D27*
G04 #@! TO.N,GND*
G36*
X188873000Y-37553765D02*
X188160477Y-36841242D01*
X188203092Y-36627000D01*
X188087839Y-36047582D01*
X187759625Y-35556375D01*
X187268418Y-35228161D01*
X186835256Y-35142000D01*
X186542744Y-35142000D01*
X186109582Y-35228161D01*
X185618375Y-35556375D01*
X185419000Y-35854761D01*
X185219625Y-35556375D01*
X184728418Y-35228161D01*
X184295256Y-35142000D01*
X184002744Y-35142000D01*
X183569582Y-35228161D01*
X183078375Y-35556375D01*
X182879000Y-35854761D01*
X182679625Y-35556375D01*
X182188418Y-35228161D01*
X181755256Y-35142000D01*
X181462744Y-35142000D01*
X181029582Y-35228161D01*
X180538375Y-35556375D01*
X180339000Y-35854761D01*
X180139625Y-35556375D01*
X179648418Y-35228161D01*
X179215256Y-35142000D01*
X178922744Y-35142000D01*
X178489582Y-35228161D01*
X177998375Y-35556375D01*
X177799000Y-35854761D01*
X177599625Y-35556375D01*
X177108418Y-35228161D01*
X176675256Y-35142000D01*
X176382744Y-35142000D01*
X175949582Y-35228161D01*
X175458375Y-35556375D01*
X175443904Y-35578033D01*
X175377327Y-35417302D01*
X175198699Y-35238673D01*
X174965310Y-35142000D01*
X174274750Y-35142000D01*
X174116000Y-35300750D01*
X174116000Y-36500000D01*
X174136000Y-36500000D01*
X174136000Y-36754000D01*
X174116000Y-36754000D01*
X174116000Y-37953250D01*
X174274750Y-38112000D01*
X174965310Y-38112000D01*
X175198699Y-38015327D01*
X175377327Y-37836698D01*
X175443904Y-37675967D01*
X175458375Y-37697625D01*
X175949582Y-38025839D01*
X176382744Y-38112000D01*
X176675256Y-38112000D01*
X177108418Y-38025839D01*
X177599625Y-37697625D01*
X177799000Y-37399239D01*
X177998375Y-37697625D01*
X178489582Y-38025839D01*
X178922744Y-38112000D01*
X179215256Y-38112000D01*
X179648418Y-38025839D01*
X180139625Y-37697625D01*
X180339000Y-37399239D01*
X180538375Y-37697625D01*
X181029582Y-38025839D01*
X181462744Y-38112000D01*
X181755256Y-38112000D01*
X182188418Y-38025839D01*
X182679625Y-37697625D01*
X182879000Y-37399239D01*
X183078375Y-37697625D01*
X183569582Y-38025839D01*
X184002744Y-38112000D01*
X184295256Y-38112000D01*
X184728418Y-38025839D01*
X185219625Y-37697625D01*
X185419000Y-37399239D01*
X185618375Y-37697625D01*
X186109582Y-38025839D01*
X186542744Y-38112000D01*
X186835256Y-38112000D01*
X186903242Y-38098477D01*
X190372001Y-41567237D01*
X190372000Y-42895867D01*
X190298793Y-42969074D01*
X190126000Y-43386234D01*
X190126000Y-43837766D01*
X190298793Y-44254926D01*
X190372001Y-44328134D01*
X190372000Y-47001547D01*
X190372001Y-47001551D01*
X190372001Y-47340866D01*
X190298793Y-47414074D01*
X190126000Y-47831234D01*
X190126000Y-48282766D01*
X190298793Y-48699926D01*
X190618074Y-49019207D01*
X191035234Y-49192000D01*
X191486766Y-49192000D01*
X191903926Y-49019207D01*
X192223207Y-48699926D01*
X192396000Y-48282766D01*
X192396000Y-47831234D01*
X192223207Y-47414074D01*
X192150000Y-47340867D01*
X192150000Y-46180240D01*
X192920000Y-46180240D01*
X192920000Y-46631772D01*
X193092793Y-47048932D01*
X193412074Y-47368213D01*
X193829234Y-47541006D01*
X194280766Y-47541006D01*
X194697926Y-47368213D01*
X195017207Y-47048932D01*
X195062577Y-46939400D01*
X202381267Y-46939400D01*
X202556074Y-47114207D01*
X202973234Y-47287000D01*
X203424766Y-47287000D01*
X203841926Y-47114207D01*
X204161207Y-46794926D01*
X204334000Y-46377766D01*
X204334000Y-45926234D01*
X204161207Y-45509074D01*
X203841926Y-45189793D01*
X203424766Y-45017000D01*
X202973234Y-45017000D01*
X202556074Y-45189793D01*
X202381267Y-45364600D01*
X194506722Y-45364600D01*
X194280766Y-45271006D01*
X193829234Y-45271006D01*
X193412074Y-45443799D01*
X193092793Y-45763080D01*
X192920000Y-46180240D01*
X192150000Y-46180240D01*
X192150000Y-44328133D01*
X192223207Y-44254926D01*
X192396000Y-43837766D01*
X192396000Y-43555431D01*
X225765000Y-43555431D01*
X225765000Y-44444569D01*
X226105259Y-45266026D01*
X226733974Y-45894741D01*
X227555431Y-46235000D01*
X228444569Y-46235000D01*
X229266026Y-45894741D01*
X229894741Y-45266026D01*
X230235000Y-44444569D01*
X230235000Y-43555431D01*
X229894741Y-42733974D01*
X229266026Y-42105259D01*
X228444569Y-41765000D01*
X227555431Y-41765000D01*
X226733974Y-42105259D01*
X226105259Y-42733974D01*
X225765000Y-43555431D01*
X192396000Y-43555431D01*
X192396000Y-43386234D01*
X192223207Y-42969074D01*
X192150000Y-42895867D01*
X192150000Y-41474236D01*
X210365000Y-41474236D01*
X210365000Y-41925768D01*
X210537793Y-42342928D01*
X210857074Y-42662209D01*
X211274234Y-42835002D01*
X211725766Y-42835002D01*
X212142926Y-42662209D01*
X212462207Y-42342928D01*
X212635000Y-41925768D01*
X212635000Y-41822237D01*
X212968238Y-41489000D01*
X221283867Y-41489000D01*
X221357074Y-41562207D01*
X221774234Y-41735000D01*
X222225766Y-41735000D01*
X222642926Y-41562207D01*
X222962207Y-41242926D01*
X223135000Y-40825766D01*
X223135000Y-40374234D01*
X222962207Y-39957074D01*
X222642926Y-39637793D01*
X222225766Y-39465000D01*
X221774234Y-39465000D01*
X221357074Y-39637793D01*
X221283867Y-39711000D01*
X212687557Y-39711000D01*
X212600002Y-39693584D01*
X212512447Y-39711000D01*
X212512446Y-39711000D01*
X212253132Y-39762581D01*
X211959069Y-39959067D01*
X211909473Y-40033294D01*
X211377765Y-40565002D01*
X211274234Y-40565002D01*
X210857074Y-40737795D01*
X210537793Y-41057076D01*
X210365000Y-41474236D01*
X192150000Y-41474236D01*
X192150000Y-41286550D01*
X192167415Y-41198999D01*
X192150000Y-41111448D01*
X192150000Y-41111444D01*
X192098419Y-40852130D01*
X191901933Y-40558067D01*
X191827707Y-40508471D01*
X190446236Y-39127000D01*
X232265000Y-39127000D01*
X232265001Y-49072388D01*
X232271419Y-49104652D01*
X232315323Y-49596592D01*
X232321412Y-49625865D01*
X232323029Y-49655726D01*
X232343969Y-49744307D01*
X232545376Y-50409300D01*
X232561257Y-50445825D01*
X232572500Y-50484024D01*
X232613255Y-50565412D01*
X232962241Y-51166236D01*
X232986098Y-51198126D01*
X233005829Y-51232718D01*
X233064215Y-51302546D01*
X233542060Y-51806970D01*
X233572608Y-51832512D01*
X233599771Y-51861641D01*
X233672655Y-51916165D01*
X234253727Y-52297133D01*
X234289339Y-52314966D01*
X234322469Y-52337061D01*
X234405941Y-52373356D01*
X235059069Y-52610430D01*
X235097822Y-52619591D01*
X235135152Y-52633474D01*
X235224735Y-52649592D01*
X235885569Y-52726637D01*
X235927612Y-52735000D01*
X239957298Y-52735000D01*
X240519918Y-52800594D01*
X241011944Y-52979191D01*
X241449692Y-53266192D01*
X241809668Y-53646190D01*
X242072576Y-54098821D01*
X242227220Y-54609416D01*
X242265001Y-55032743D01*
X242265001Y-71719323D01*
X204999741Y-71795412D01*
X204951160Y-71805179D01*
X204910014Y-71832793D01*
X204882568Y-71874051D01*
X204873000Y-71922412D01*
X204873000Y-83950524D01*
X61954221Y-83877572D01*
X61894741Y-83733974D01*
X61266026Y-83105259D01*
X60444569Y-82765000D01*
X59555431Y-82765000D01*
X58733974Y-83105259D01*
X58105259Y-83733974D01*
X58046605Y-83875577D01*
X53735000Y-83873376D01*
X53735000Y-78975050D01*
X107575000Y-78975050D01*
X107575000Y-79724950D01*
X107861974Y-80417767D01*
X108392233Y-80948026D01*
X109085050Y-81235000D01*
X109834950Y-81235000D01*
X110527767Y-80948026D01*
X111058026Y-80417767D01*
X111345000Y-79724950D01*
X111345000Y-78975050D01*
X115075000Y-78975050D01*
X115075000Y-79724950D01*
X115361974Y-80417767D01*
X115892233Y-80948026D01*
X116585050Y-81235000D01*
X117334950Y-81235000D01*
X118027767Y-80948026D01*
X118558026Y-80417767D01*
X118845000Y-79724950D01*
X118845000Y-78975050D01*
X124085000Y-78975050D01*
X124085000Y-79724950D01*
X124371974Y-80417767D01*
X124902233Y-80948026D01*
X125595050Y-81235000D01*
X126344950Y-81235000D01*
X127037767Y-80948026D01*
X127568026Y-80417767D01*
X127855000Y-79724950D01*
X127855000Y-78975050D01*
X131585000Y-78975050D01*
X131585000Y-79724950D01*
X131871974Y-80417767D01*
X132402233Y-80948026D01*
X133095050Y-81235000D01*
X133844950Y-81235000D01*
X134537767Y-80948026D01*
X135068026Y-80417767D01*
X135355000Y-79724950D01*
X135355000Y-78975050D01*
X140595000Y-78975050D01*
X140595000Y-79724950D01*
X140881974Y-80417767D01*
X141412233Y-80948026D01*
X142105050Y-81235000D01*
X142854950Y-81235000D01*
X143547767Y-80948026D01*
X144078026Y-80417767D01*
X144365000Y-79724950D01*
X144365000Y-78975050D01*
X148095000Y-78975050D01*
X148095000Y-79724950D01*
X148381974Y-80417767D01*
X148912233Y-80948026D01*
X149605050Y-81235000D01*
X150354950Y-81235000D01*
X151047767Y-80948026D01*
X151578026Y-80417767D01*
X151865000Y-79724950D01*
X151865000Y-78975050D01*
X157105000Y-78975050D01*
X157105000Y-79724950D01*
X157391974Y-80417767D01*
X157922233Y-80948026D01*
X158615050Y-81235000D01*
X159364950Y-81235000D01*
X160057767Y-80948026D01*
X160588026Y-80417767D01*
X160875000Y-79724950D01*
X160875000Y-78975050D01*
X164605000Y-78975050D01*
X164605000Y-79724950D01*
X164891974Y-80417767D01*
X165422233Y-80948026D01*
X166115050Y-81235000D01*
X166864950Y-81235000D01*
X167557767Y-80948026D01*
X168088026Y-80417767D01*
X168375000Y-79724950D01*
X168375000Y-78975050D01*
X173869000Y-78975050D01*
X173869000Y-79724950D01*
X174155974Y-80417767D01*
X174686233Y-80948026D01*
X175379050Y-81235000D01*
X176128950Y-81235000D01*
X176821767Y-80948026D01*
X177352026Y-80417767D01*
X177639000Y-79724950D01*
X177639000Y-78975050D01*
X181369000Y-78975050D01*
X181369000Y-79724950D01*
X181655974Y-80417767D01*
X182186233Y-80948026D01*
X182879050Y-81235000D01*
X183628950Y-81235000D01*
X184321767Y-80948026D01*
X184852026Y-80417767D01*
X185139000Y-79724950D01*
X185139000Y-78975050D01*
X190640000Y-78975050D01*
X190640000Y-79724950D01*
X190926974Y-80417767D01*
X191457233Y-80948026D01*
X192150050Y-81235000D01*
X192899950Y-81235000D01*
X193592767Y-80948026D01*
X194123026Y-80417767D01*
X194410000Y-79724950D01*
X194410000Y-78975050D01*
X198140000Y-78975050D01*
X198140000Y-79724950D01*
X198426974Y-80417767D01*
X198957233Y-80948026D01*
X199650050Y-81235000D01*
X200399950Y-81235000D01*
X201092767Y-80948026D01*
X201623026Y-80417767D01*
X201910000Y-79724950D01*
X201910000Y-78975050D01*
X201623026Y-78282233D01*
X201092767Y-77751974D01*
X200399950Y-77465000D01*
X199650050Y-77465000D01*
X198957233Y-77751974D01*
X198426974Y-78282233D01*
X198140000Y-78975050D01*
X194410000Y-78975050D01*
X194123026Y-78282233D01*
X193592767Y-77751974D01*
X192899950Y-77465000D01*
X192150050Y-77465000D01*
X191457233Y-77751974D01*
X190926974Y-78282233D01*
X190640000Y-78975050D01*
X185139000Y-78975050D01*
X184852026Y-78282233D01*
X184321767Y-77751974D01*
X183628950Y-77465000D01*
X182879050Y-77465000D01*
X182186233Y-77751974D01*
X181655974Y-78282233D01*
X181369000Y-78975050D01*
X177639000Y-78975050D01*
X177352026Y-78282233D01*
X176821767Y-77751974D01*
X176128950Y-77465000D01*
X175379050Y-77465000D01*
X174686233Y-77751974D01*
X174155974Y-78282233D01*
X173869000Y-78975050D01*
X168375000Y-78975050D01*
X168088026Y-78282233D01*
X167557767Y-77751974D01*
X166864950Y-77465000D01*
X166115050Y-77465000D01*
X165422233Y-77751974D01*
X164891974Y-78282233D01*
X164605000Y-78975050D01*
X160875000Y-78975050D01*
X160588026Y-78282233D01*
X160057767Y-77751974D01*
X159364950Y-77465000D01*
X158615050Y-77465000D01*
X157922233Y-77751974D01*
X157391974Y-78282233D01*
X157105000Y-78975050D01*
X151865000Y-78975050D01*
X151578026Y-78282233D01*
X151047767Y-77751974D01*
X150354950Y-77465000D01*
X149605050Y-77465000D01*
X148912233Y-77751974D01*
X148381974Y-78282233D01*
X148095000Y-78975050D01*
X144365000Y-78975050D01*
X144078026Y-78282233D01*
X143547767Y-77751974D01*
X142854950Y-77465000D01*
X142105050Y-77465000D01*
X141412233Y-77751974D01*
X140881974Y-78282233D01*
X140595000Y-78975050D01*
X135355000Y-78975050D01*
X135068026Y-78282233D01*
X134537767Y-77751974D01*
X133844950Y-77465000D01*
X133095050Y-77465000D01*
X132402233Y-77751974D01*
X131871974Y-78282233D01*
X131585000Y-78975050D01*
X127855000Y-78975050D01*
X127568026Y-78282233D01*
X127037767Y-77751974D01*
X126344950Y-77465000D01*
X125595050Y-77465000D01*
X124902233Y-77751974D01*
X124371974Y-78282233D01*
X124085000Y-78975050D01*
X118845000Y-78975050D01*
X118558026Y-78282233D01*
X118027767Y-77751974D01*
X117334950Y-77465000D01*
X116585050Y-77465000D01*
X115892233Y-77751974D01*
X115361974Y-78282233D01*
X115075000Y-78975050D01*
X111345000Y-78975050D01*
X111058026Y-78282233D01*
X110527767Y-77751974D01*
X109834950Y-77465000D01*
X109085050Y-77465000D01*
X108392233Y-77751974D01*
X107861974Y-78282233D01*
X107575000Y-78975050D01*
X53735000Y-78975050D01*
X53735000Y-74274778D01*
X73929000Y-74274778D01*
X73929000Y-74925222D01*
X74177914Y-75526153D01*
X74637847Y-75986086D01*
X75238778Y-76235000D01*
X75889222Y-76235000D01*
X76490153Y-75986086D01*
X76950086Y-75526153D01*
X77199000Y-74925222D01*
X77199000Y-74274778D01*
X76950086Y-73673847D01*
X76490153Y-73213914D01*
X75889222Y-72965000D01*
X75238778Y-72965000D01*
X74637847Y-73213914D01*
X74177914Y-73673847D01*
X73929000Y-74274778D01*
X53735000Y-74274778D01*
X53735000Y-70672532D01*
X74591073Y-70672532D01*
X74689736Y-70939387D01*
X75299461Y-71165908D01*
X75949460Y-71141856D01*
X76438264Y-70939387D01*
X76536927Y-70672532D01*
X75564000Y-69699605D01*
X74591073Y-70672532D01*
X53735000Y-70672532D01*
X53735000Y-69255461D01*
X73918092Y-69255461D01*
X73942144Y-69905460D01*
X74144613Y-70394264D01*
X74411468Y-70492927D01*
X75384395Y-69520000D01*
X75743605Y-69520000D01*
X76716532Y-70492927D01*
X76983387Y-70394264D01*
X77209908Y-69784539D01*
X77185856Y-69134540D01*
X76983387Y-68645736D01*
X76716532Y-68547073D01*
X75743605Y-69520000D01*
X75384395Y-69520000D01*
X74411468Y-68547073D01*
X74144613Y-68645736D01*
X73918092Y-69255461D01*
X53735000Y-69255461D01*
X53735000Y-68367468D01*
X74591073Y-68367468D01*
X75564000Y-69340395D01*
X76536927Y-68367468D01*
X76438264Y-68100613D01*
X75828539Y-67874092D01*
X75178540Y-67898144D01*
X74689736Y-68100613D01*
X74591073Y-68367468D01*
X53735000Y-68367468D01*
X53735000Y-64555431D01*
X57765000Y-64555431D01*
X57765000Y-65444569D01*
X58105259Y-66266026D01*
X58733974Y-66894741D01*
X59555431Y-67235000D01*
X60444569Y-67235000D01*
X61266026Y-66894741D01*
X61894741Y-66266026D01*
X62235000Y-65444569D01*
X62235000Y-64555431D01*
X62152393Y-64356000D01*
X87939000Y-64356000D01*
X87939000Y-74770000D01*
X87948667Y-74818601D01*
X87976197Y-74859803D01*
X88017399Y-74887333D01*
X88066000Y-74897000D01*
X98480000Y-74897000D01*
X98528601Y-74887333D01*
X98569803Y-74859803D01*
X98597333Y-74818601D01*
X98607000Y-74770000D01*
X98607000Y-70500734D01*
X188221000Y-70500734D01*
X188221000Y-70952266D01*
X188393793Y-71369426D01*
X188713074Y-71688707D01*
X189130234Y-71861500D01*
X189581766Y-71861500D01*
X189998926Y-71688707D01*
X190072133Y-71615500D01*
X193137130Y-71615500D01*
X196365000Y-74843371D01*
X196365000Y-74946901D01*
X196537793Y-75364061D01*
X196857074Y-75683342D01*
X197274234Y-75856135D01*
X197725766Y-75856135D01*
X198142926Y-75683342D01*
X198462207Y-75364061D01*
X198635000Y-74946901D01*
X198635000Y-74495369D01*
X198462207Y-74078209D01*
X198142926Y-73758928D01*
X197725766Y-73586135D01*
X197622236Y-73586135D01*
X194195896Y-70159796D01*
X194146298Y-70085567D01*
X193852235Y-69889081D01*
X193592921Y-69837500D01*
X193592920Y-69837500D01*
X193505365Y-69820084D01*
X193417810Y-69837500D01*
X190072133Y-69837500D01*
X189998926Y-69764293D01*
X189581766Y-69591500D01*
X189130234Y-69591500D01*
X188713074Y-69764293D01*
X188393793Y-70083574D01*
X188221000Y-70500734D01*
X98607000Y-70500734D01*
X98607000Y-69148532D01*
X162983073Y-69148532D01*
X163081736Y-69415387D01*
X163691461Y-69641908D01*
X164341460Y-69617856D01*
X164830264Y-69415387D01*
X164928927Y-69148532D01*
X163956000Y-68175605D01*
X162983073Y-69148532D01*
X98607000Y-69148532D01*
X98607000Y-67731461D01*
X162310092Y-67731461D01*
X162334144Y-68381460D01*
X162536613Y-68870264D01*
X162803468Y-68968927D01*
X163776395Y-67996000D01*
X164135605Y-67996000D01*
X165108532Y-68968927D01*
X165375387Y-68870264D01*
X165601908Y-68260539D01*
X165580085Y-67670778D01*
X166385000Y-67670778D01*
X166385000Y-68321222D01*
X166633914Y-68922153D01*
X167093847Y-69382086D01*
X167694778Y-69631000D01*
X168345222Y-69631000D01*
X168946153Y-69382086D01*
X169406086Y-68922153D01*
X169655000Y-68321222D01*
X169655000Y-67670778D01*
X170449000Y-67670778D01*
X170449000Y-68321222D01*
X170697914Y-68922153D01*
X171157847Y-69382086D01*
X171758778Y-69631000D01*
X172409222Y-69631000D01*
X173010153Y-69382086D01*
X173470086Y-68922153D01*
X173719000Y-68321222D01*
X173719000Y-67670778D01*
X173714444Y-67659778D01*
X174513000Y-67659778D01*
X174513000Y-68310222D01*
X174761914Y-68911153D01*
X175221847Y-69371086D01*
X175822778Y-69620000D01*
X176473222Y-69620000D01*
X177074153Y-69371086D01*
X177534086Y-68911153D01*
X177783000Y-68310222D01*
X177783000Y-67659778D01*
X177534086Y-67058847D01*
X177074153Y-66598914D01*
X176473222Y-66350000D01*
X175822778Y-66350000D01*
X175221847Y-66598914D01*
X174761914Y-67058847D01*
X174513000Y-67659778D01*
X173714444Y-67659778D01*
X173470086Y-67069847D01*
X173010153Y-66609914D01*
X172409222Y-66361000D01*
X171758778Y-66361000D01*
X171157847Y-66609914D01*
X170697914Y-67069847D01*
X170449000Y-67670778D01*
X169655000Y-67670778D01*
X169406086Y-67069847D01*
X168946153Y-66609914D01*
X168345222Y-66361000D01*
X167694778Y-66361000D01*
X167093847Y-66609914D01*
X166633914Y-67069847D01*
X166385000Y-67670778D01*
X165580085Y-67670778D01*
X165577856Y-67610540D01*
X165375387Y-67121736D01*
X165108532Y-67023073D01*
X164135605Y-67996000D01*
X163776395Y-67996000D01*
X162803468Y-67023073D01*
X162536613Y-67121736D01*
X162310092Y-67731461D01*
X98607000Y-67731461D01*
X98607000Y-66843468D01*
X162983073Y-66843468D01*
X163956000Y-67816395D01*
X164928927Y-66843468D01*
X164830264Y-66576613D01*
X164220539Y-66350092D01*
X163570540Y-66374144D01*
X163081736Y-66576613D01*
X162983073Y-66843468D01*
X98607000Y-66843468D01*
X98607000Y-64356000D01*
X98597333Y-64307399D01*
X98569803Y-64266197D01*
X98528601Y-64238667D01*
X98480000Y-64229000D01*
X88066000Y-64229000D01*
X88017399Y-64238667D01*
X87976197Y-64266197D01*
X87948667Y-64307399D01*
X87939000Y-64356000D01*
X62152393Y-64356000D01*
X61894741Y-63733974D01*
X61266026Y-63105259D01*
X60444569Y-62765000D01*
X59555431Y-62765000D01*
X58733974Y-63105259D01*
X58105259Y-63733974D01*
X57765000Y-64555431D01*
X53735000Y-64555431D01*
X53735000Y-57864234D01*
X139199000Y-57864234D01*
X139199000Y-58315766D01*
X139371793Y-58732926D01*
X139445000Y-58806133D01*
X139445000Y-58884661D01*
X139445001Y-58884666D01*
X139445000Y-64474867D01*
X139371793Y-64548074D01*
X139199000Y-64965234D01*
X139199000Y-65416766D01*
X139371793Y-65833926D01*
X139691074Y-66153207D01*
X140108234Y-66326000D01*
X140559766Y-66326000D01*
X140976926Y-66153207D01*
X141296207Y-65833926D01*
X141469000Y-65416766D01*
X141469000Y-64965234D01*
X141296207Y-64548074D01*
X141223000Y-64474867D01*
X141223000Y-63606778D01*
X166385000Y-63606778D01*
X166385000Y-64257222D01*
X166633914Y-64858153D01*
X167093847Y-65318086D01*
X167694778Y-65567000D01*
X168345222Y-65567000D01*
X168946153Y-65318086D01*
X169406086Y-64858153D01*
X169655000Y-64257222D01*
X169655000Y-63606778D01*
X170449000Y-63606778D01*
X170449000Y-64257222D01*
X170697914Y-64858153D01*
X171157847Y-65318086D01*
X171758778Y-65567000D01*
X172409222Y-65567000D01*
X173010153Y-65318086D01*
X173470086Y-64858153D01*
X173719000Y-64257222D01*
X173719000Y-63974234D01*
X177865000Y-63974234D01*
X177865000Y-64425766D01*
X178037793Y-64842926D01*
X178357074Y-65162207D01*
X178774234Y-65335000D01*
X179021448Y-65335000D01*
X179188386Y-65501938D01*
X179232316Y-65567684D01*
X179492772Y-65741715D01*
X179722448Y-65787400D01*
X179722449Y-65787400D01*
X179800000Y-65802826D01*
X179877551Y-65787400D01*
X188782267Y-65787400D01*
X188957074Y-65962207D01*
X189374234Y-66135000D01*
X189825766Y-66135000D01*
X190242926Y-65962207D01*
X190562207Y-65642926D01*
X190735000Y-65225766D01*
X190735000Y-64774234D01*
X190677425Y-64635234D01*
X201898000Y-64635234D01*
X201898000Y-65086766D01*
X202070793Y-65503926D01*
X202390074Y-65823207D01*
X202807234Y-65996000D01*
X203258766Y-65996000D01*
X203675926Y-65823207D01*
X203827233Y-65671900D01*
X207803267Y-65671900D01*
X207978074Y-65846707D01*
X208395234Y-66019500D01*
X208846766Y-66019500D01*
X209263926Y-65846707D01*
X209583207Y-65527426D01*
X209756000Y-65110266D01*
X209756000Y-64658734D01*
X209713211Y-64555431D01*
X233765000Y-64555431D01*
X233765000Y-65444569D01*
X234105259Y-66266026D01*
X234733974Y-66894741D01*
X235555431Y-67235000D01*
X236444569Y-67235000D01*
X237266026Y-66894741D01*
X237894741Y-66266026D01*
X238235000Y-65444569D01*
X238235000Y-64555431D01*
X237894741Y-63733974D01*
X237266026Y-63105259D01*
X236444569Y-62765000D01*
X235555431Y-62765000D01*
X234733974Y-63105259D01*
X234105259Y-63733974D01*
X233765000Y-64555431D01*
X209713211Y-64555431D01*
X209583207Y-64241574D01*
X209263926Y-63922293D01*
X208846766Y-63749500D01*
X208395234Y-63749500D01*
X207978074Y-63922293D01*
X207803267Y-64097100D01*
X203874233Y-64097100D01*
X203675926Y-63898793D01*
X203258766Y-63726000D01*
X202807234Y-63726000D01*
X202390074Y-63898793D01*
X202070793Y-64218074D01*
X201898000Y-64635234D01*
X190677425Y-64635234D01*
X190562207Y-64357074D01*
X190242926Y-64037793D01*
X189825766Y-63865000D01*
X189374234Y-63865000D01*
X188957074Y-64037793D01*
X188782267Y-64212600D01*
X180135000Y-64212600D01*
X180135000Y-63974234D01*
X180035285Y-63733501D01*
X180429161Y-63733501D01*
X180846321Y-63560708D01*
X181021128Y-63385901D01*
X187534883Y-63385901D01*
X187537793Y-63392926D01*
X187857074Y-63712207D01*
X188274234Y-63885000D01*
X188725766Y-63885000D01*
X189142926Y-63712207D01*
X189462207Y-63392926D01*
X189635000Y-62975766D01*
X189635000Y-62524234D01*
X189462207Y-62107074D01*
X189142926Y-61787793D01*
X188725766Y-61615000D01*
X188274234Y-61615000D01*
X187857074Y-61787793D01*
X187833766Y-61811101D01*
X181021128Y-61811101D01*
X180846321Y-61636294D01*
X180429161Y-61463501D01*
X179977629Y-61463501D01*
X179560469Y-61636294D01*
X179241188Y-61955575D01*
X179068395Y-62372735D01*
X179068395Y-62824267D01*
X179168110Y-63065000D01*
X178774234Y-63065000D01*
X178357074Y-63237793D01*
X178037793Y-63557074D01*
X177865000Y-63974234D01*
X173719000Y-63974234D01*
X173719000Y-63606778D01*
X173667887Y-63483380D01*
X173841715Y-63223228D01*
X173887400Y-62993552D01*
X173887400Y-62993551D01*
X173902826Y-62916000D01*
X173887400Y-62838449D01*
X173887400Y-60785234D01*
X212351000Y-60785234D01*
X212351000Y-61236766D01*
X212523793Y-61653926D01*
X212843074Y-61973207D01*
X213260234Y-62146000D01*
X213711766Y-62146000D01*
X214128926Y-61973207D01*
X214303733Y-61798400D01*
X216605267Y-61798400D01*
X216780074Y-61973207D01*
X217197234Y-62146000D01*
X217648766Y-62146000D01*
X218065926Y-61973207D01*
X218385207Y-61653926D01*
X218558000Y-61236766D01*
X218558000Y-60785234D01*
X218385207Y-60368074D01*
X218065926Y-60048793D01*
X217648766Y-59876000D01*
X217197234Y-59876000D01*
X216780074Y-60048793D01*
X216605267Y-60223600D01*
X214303733Y-60223600D01*
X214128926Y-60048793D01*
X213711766Y-59876000D01*
X213260234Y-59876000D01*
X212843074Y-60048793D01*
X212523793Y-60368074D01*
X212351000Y-60785234D01*
X173887400Y-60785234D01*
X173887400Y-58944295D01*
X174062207Y-58769488D01*
X174235000Y-58352328D01*
X174235000Y-57991234D01*
X196348992Y-57991234D01*
X196348992Y-58442766D01*
X196521785Y-58859926D01*
X196841066Y-59179207D01*
X197258226Y-59352000D01*
X197709758Y-59352000D01*
X198126918Y-59179207D01*
X198446199Y-58859926D01*
X198618992Y-58442766D01*
X198618992Y-57991234D01*
X198446199Y-57574074D01*
X198271400Y-57399275D01*
X198271400Y-55614234D01*
X219365004Y-55614234D01*
X219365004Y-56065766D01*
X219537797Y-56482926D01*
X219857078Y-56802207D01*
X220274238Y-56975000D01*
X220725770Y-56975000D01*
X221142930Y-56802207D01*
X221393937Y-56551200D01*
X223524905Y-56551200D01*
X223495108Y-56701000D01*
X223610361Y-57280418D01*
X223938575Y-57771625D01*
X224236961Y-57971000D01*
X223938575Y-58170375D01*
X223885000Y-58250556D01*
X223885000Y-58024210D01*
X223712207Y-57607050D01*
X223392926Y-57287769D01*
X222975766Y-57114976D01*
X222524234Y-57114976D01*
X222107074Y-57287769D01*
X221787793Y-57607050D01*
X221615000Y-58024210D01*
X221615000Y-58475742D01*
X221787793Y-58892902D01*
X222038800Y-59143909D01*
X222038801Y-59356078D01*
X221787793Y-59607086D01*
X221615000Y-60024246D01*
X221615000Y-60475778D01*
X221787793Y-60892938D01*
X222107074Y-61212219D01*
X222524234Y-61385012D01*
X222975766Y-61385012D01*
X223392926Y-61212219D01*
X223712207Y-60892938D01*
X223885000Y-60475778D01*
X223885000Y-60231444D01*
X223938575Y-60311625D01*
X224429782Y-60639839D01*
X224862944Y-60726000D01*
X225155456Y-60726000D01*
X225588618Y-60639839D01*
X226079825Y-60311625D01*
X226408039Y-59820418D01*
X226523292Y-59241000D01*
X226408039Y-58661582D01*
X226079825Y-58170375D01*
X225781439Y-57971000D01*
X226079825Y-57771625D01*
X226408039Y-57280418D01*
X226523292Y-56701000D01*
X226408039Y-56121582D01*
X226079825Y-55630375D01*
X226058167Y-55615904D01*
X226218898Y-55549327D01*
X226397527Y-55370699D01*
X226494200Y-55137310D01*
X226494200Y-54446750D01*
X226335450Y-54288000D01*
X225136200Y-54288000D01*
X225136200Y-54308000D01*
X224882200Y-54308000D01*
X224882200Y-54288000D01*
X223682950Y-54288000D01*
X223524200Y-54446750D01*
X223524200Y-55128800D01*
X221393937Y-55128800D01*
X221142930Y-54877793D01*
X220725770Y-54705000D01*
X220274238Y-54705000D01*
X219857078Y-54877793D01*
X219537797Y-55197074D01*
X219365004Y-55614234D01*
X198271400Y-55614234D01*
X198271400Y-53184690D01*
X223524200Y-53184690D01*
X223524200Y-53875250D01*
X223682950Y-54034000D01*
X224882200Y-54034000D01*
X224882200Y-52834750D01*
X225136200Y-52834750D01*
X225136200Y-54034000D01*
X226335450Y-54034000D01*
X226494200Y-53875250D01*
X226494200Y-53184690D01*
X226397527Y-52951301D01*
X226218898Y-52772673D01*
X225985509Y-52676000D01*
X225294950Y-52676000D01*
X225136200Y-52834750D01*
X224882200Y-52834750D01*
X224723450Y-52676000D01*
X224032891Y-52676000D01*
X223799502Y-52772673D01*
X223620873Y-52951301D01*
X223524200Y-53184690D01*
X198271400Y-53184690D01*
X198271400Y-50271733D01*
X198446207Y-50096926D01*
X198619000Y-49679766D01*
X198619000Y-49228234D01*
X198446207Y-48811074D01*
X198126926Y-48491793D01*
X197709766Y-48319000D01*
X197258234Y-48319000D01*
X196841074Y-48491793D01*
X196521793Y-48811074D01*
X196349000Y-49228234D01*
X196349000Y-49679766D01*
X196521793Y-50096926D01*
X196696600Y-50271733D01*
X196696601Y-57399258D01*
X196521785Y-57574074D01*
X196348992Y-57991234D01*
X174235000Y-57991234D01*
X174235000Y-57900796D01*
X174062207Y-57483636D01*
X173887400Y-57308829D01*
X173887400Y-47922233D01*
X174062207Y-47747426D01*
X174235000Y-47330266D01*
X174235000Y-46878734D01*
X174062207Y-46461574D01*
X173742926Y-46142293D01*
X173325766Y-45969500D01*
X172874234Y-45969500D01*
X172457074Y-46142293D01*
X172137793Y-46461574D01*
X171965000Y-46878734D01*
X171965000Y-47330266D01*
X172137793Y-47747426D01*
X172312600Y-47922233D01*
X172312601Y-57308828D01*
X172137793Y-57483636D01*
X171965000Y-57900796D01*
X171965000Y-58352328D01*
X172137793Y-58769488D01*
X172312601Y-58944296D01*
X172312600Y-62297000D01*
X171758778Y-62297000D01*
X171157847Y-62545914D01*
X170697914Y-63005847D01*
X170449000Y-63606778D01*
X169655000Y-63606778D01*
X169406086Y-63005847D01*
X168946153Y-62545914D01*
X168345222Y-62297000D01*
X167694778Y-62297000D01*
X167093847Y-62545914D01*
X166633914Y-63005847D01*
X166385000Y-63606778D01*
X141223000Y-63606778D01*
X141223000Y-60020462D01*
X141268343Y-60129930D01*
X141587624Y-60449211D01*
X142004784Y-60622004D01*
X142456316Y-60622004D01*
X142873476Y-60449211D01*
X143192757Y-60129930D01*
X143365550Y-59712770D01*
X143365550Y-59261238D01*
X143192757Y-58844078D01*
X142873476Y-58524797D01*
X142645400Y-58430325D01*
X142645400Y-47985733D01*
X142820207Y-47810926D01*
X142993000Y-47393766D01*
X142993000Y-46942234D01*
X142820207Y-46525074D01*
X142500926Y-46205793D01*
X142083766Y-46033000D01*
X141632234Y-46033000D01*
X141215074Y-46205793D01*
X140895793Y-46525074D01*
X140723000Y-46942234D01*
X140723000Y-47393766D01*
X140895793Y-47810926D01*
X141070600Y-47985733D01*
X141070601Y-57221468D01*
X140976926Y-57127793D01*
X140559766Y-56955000D01*
X140108234Y-56955000D01*
X139691074Y-57127793D01*
X139371793Y-57447074D01*
X139199000Y-57864234D01*
X53735000Y-57864234D01*
X53735000Y-55042702D01*
X53800594Y-54480082D01*
X53979191Y-53988056D01*
X54266192Y-53550308D01*
X54646190Y-53190332D01*
X55098821Y-52927424D01*
X55609416Y-52772780D01*
X56032732Y-52735000D01*
X60072388Y-52735000D01*
X60104661Y-52728580D01*
X60596592Y-52684677D01*
X60625865Y-52678588D01*
X60655726Y-52676971D01*
X60744307Y-52656031D01*
X61409300Y-52454624D01*
X61445825Y-52438743D01*
X61484024Y-52427500D01*
X61565412Y-52386745D01*
X62166236Y-52037759D01*
X62198126Y-52013902D01*
X62232718Y-51994171D01*
X62302546Y-51935785D01*
X62806970Y-51457940D01*
X62832512Y-51427392D01*
X62861641Y-51400229D01*
X62916165Y-51327345D01*
X63297133Y-50746273D01*
X63314966Y-50710661D01*
X63337061Y-50677531D01*
X63373356Y-50594059D01*
X63610430Y-49940931D01*
X63619591Y-49902178D01*
X63633474Y-49864848D01*
X63649592Y-49775265D01*
X63726637Y-49114431D01*
X63735000Y-49072388D01*
X63735000Y-44136000D01*
X101348560Y-44136000D01*
X101348560Y-46136000D01*
X101397843Y-46383765D01*
X101538191Y-46593809D01*
X101748235Y-46734157D01*
X101996000Y-46783440D01*
X103996000Y-46783440D01*
X104243765Y-46734157D01*
X104453809Y-46593809D01*
X104594157Y-46383765D01*
X104643440Y-46136000D01*
X104643440Y-45545234D01*
X145231500Y-45545234D01*
X145231500Y-45996766D01*
X145404293Y-46413926D01*
X145477500Y-46487133D01*
X145477501Y-50579366D01*
X145467793Y-50589074D01*
X145295000Y-51006234D01*
X145295000Y-51457766D01*
X145467793Y-51874926D01*
X145787074Y-52194207D01*
X146204234Y-52367000D01*
X146655766Y-52367000D01*
X147072926Y-52194207D01*
X147392207Y-51874926D01*
X147565000Y-51457766D01*
X147565000Y-51006234D01*
X147392207Y-50589074D01*
X147255500Y-50452367D01*
X147255500Y-47607740D01*
X150852494Y-47607740D01*
X150852494Y-48059272D01*
X151025287Y-48476432D01*
X151344568Y-48795713D01*
X151761728Y-48968506D01*
X152213260Y-48968506D01*
X152630420Y-48795713D01*
X152949701Y-48476432D01*
X153122494Y-48059272D01*
X153122494Y-47955741D01*
X153178022Y-47900213D01*
X154136001Y-46942234D01*
X169678944Y-46942234D01*
X169678944Y-47393766D01*
X169851737Y-47810926D01*
X170026544Y-47985733D01*
X170026545Y-58669314D01*
X169851793Y-58844066D01*
X169679000Y-59261226D01*
X169679000Y-59712758D01*
X169851793Y-60129918D01*
X170171074Y-60449199D01*
X170588234Y-60621992D01*
X171039766Y-60621992D01*
X171456926Y-60449199D01*
X171776207Y-60129918D01*
X171949000Y-59712758D01*
X171949000Y-59261226D01*
X171776207Y-58844066D01*
X171601344Y-58669203D01*
X171601344Y-47985733D01*
X171776151Y-47810926D01*
X171948944Y-47393766D01*
X171948944Y-46942234D01*
X171776151Y-46525074D01*
X171456870Y-46205793D01*
X171039710Y-46033000D01*
X170588178Y-46033000D01*
X170171018Y-46205793D01*
X169851737Y-46525074D01*
X169678944Y-46942234D01*
X154136001Y-46942234D01*
X156510236Y-44568000D01*
X163687867Y-44568000D01*
X163761074Y-44641207D01*
X164178234Y-44814000D01*
X164629766Y-44814000D01*
X165046926Y-44641207D01*
X165366207Y-44321926D01*
X165539000Y-43904766D01*
X165539000Y-43453234D01*
X165366207Y-43036074D01*
X165046926Y-42716793D01*
X164629766Y-42544000D01*
X164178234Y-42544000D01*
X163761074Y-42716793D01*
X163687867Y-42790000D01*
X156229550Y-42790000D01*
X156141999Y-42772585D01*
X156054448Y-42790000D01*
X156054444Y-42790000D01*
X155795130Y-42841581D01*
X155501067Y-43038067D01*
X155451471Y-43112293D01*
X151920787Y-46642978D01*
X151865259Y-46698506D01*
X151761728Y-46698506D01*
X151344568Y-46871299D01*
X151025287Y-47190580D01*
X150852494Y-47607740D01*
X147255500Y-47607740D01*
X147255500Y-46487133D01*
X147328707Y-46413926D01*
X147501500Y-45996766D01*
X147501500Y-45545234D01*
X147328707Y-45128074D01*
X147009426Y-44808793D01*
X146592266Y-44636000D01*
X146140734Y-44636000D01*
X145723574Y-44808793D01*
X145404293Y-45128074D01*
X145231500Y-45545234D01*
X104643440Y-45545234D01*
X104643440Y-44136000D01*
X104594157Y-43888235D01*
X104453809Y-43678191D01*
X104243765Y-43537843D01*
X103996000Y-43488560D01*
X101996000Y-43488560D01*
X101748235Y-43537843D01*
X101538191Y-43678191D01*
X101397843Y-43888235D01*
X101348560Y-44136000D01*
X63735000Y-44136000D01*
X63735000Y-39555431D01*
X65765000Y-39555431D01*
X65765000Y-40444569D01*
X66105259Y-41266026D01*
X66733974Y-41894741D01*
X67555431Y-42235000D01*
X68444569Y-42235000D01*
X69266026Y-41894741D01*
X69894741Y-41266026D01*
X70235000Y-40444569D01*
X70235000Y-39810778D01*
X101361000Y-39810778D01*
X101361000Y-40461222D01*
X101609914Y-41062153D01*
X102069847Y-41522086D01*
X102670778Y-41771000D01*
X103321222Y-41771000D01*
X103922153Y-41522086D01*
X104382086Y-41062153D01*
X104631000Y-40461222D01*
X104631000Y-39810778D01*
X104382086Y-39209847D01*
X104045239Y-38873000D01*
X142846336Y-38873000D01*
X142948007Y-39384136D01*
X143237543Y-39817457D01*
X143670864Y-40106993D01*
X144052978Y-40183000D01*
X144311022Y-40183000D01*
X144693136Y-40106993D01*
X145126457Y-39817457D01*
X145182000Y-39734331D01*
X145237543Y-39817457D01*
X145670864Y-40106993D01*
X146052978Y-40183000D01*
X146311022Y-40183000D01*
X146693136Y-40106993D01*
X147126457Y-39817457D01*
X147182000Y-39734331D01*
X147237543Y-39817457D01*
X147670864Y-40106993D01*
X148052978Y-40183000D01*
X148311022Y-40183000D01*
X148693136Y-40106993D01*
X149126457Y-39817457D01*
X149182000Y-39734331D01*
X149237543Y-39817457D01*
X149670864Y-40106993D01*
X150052978Y-40183000D01*
X150311022Y-40183000D01*
X150693136Y-40106993D01*
X151126457Y-39817457D01*
X151182000Y-39734331D01*
X151237543Y-39817457D01*
X151670864Y-40106993D01*
X152052978Y-40183000D01*
X152311022Y-40183000D01*
X152693136Y-40106993D01*
X153126457Y-39817457D01*
X153182000Y-39734331D01*
X153237543Y-39817457D01*
X153670864Y-40106993D01*
X154052978Y-40183000D01*
X154311022Y-40183000D01*
X154693136Y-40106993D01*
X155126457Y-39817457D01*
X155182000Y-39734331D01*
X155237543Y-39817457D01*
X155670864Y-40106993D01*
X156052978Y-40183000D01*
X156311022Y-40183000D01*
X156693136Y-40106993D01*
X157126457Y-39817457D01*
X157182000Y-39734331D01*
X157237543Y-39817457D01*
X157670864Y-40106993D01*
X158052978Y-40183000D01*
X158311022Y-40183000D01*
X158693136Y-40106993D01*
X159126457Y-39817457D01*
X159415993Y-39384136D01*
X159517664Y-38873000D01*
X159415993Y-38361864D01*
X159220286Y-38068968D01*
X159314809Y-38005809D01*
X159455157Y-37795765D01*
X159504440Y-37548000D01*
X159504440Y-36912750D01*
X172504000Y-36912750D01*
X172504000Y-37603309D01*
X172600673Y-37836698D01*
X172779301Y-38015327D01*
X173012690Y-38112000D01*
X173703250Y-38112000D01*
X173862000Y-37953250D01*
X173862000Y-36754000D01*
X172662750Y-36754000D01*
X172504000Y-36912750D01*
X159504440Y-36912750D01*
X159504440Y-36198000D01*
X159455157Y-35950235D01*
X159314809Y-35740191D01*
X159180864Y-35650691D01*
X172504000Y-35650691D01*
X172504000Y-36341250D01*
X172662750Y-36500000D01*
X173862000Y-36500000D01*
X173862000Y-35300750D01*
X173703250Y-35142000D01*
X173012690Y-35142000D01*
X172779301Y-35238673D01*
X172600673Y-35417302D01*
X172504000Y-35650691D01*
X159180864Y-35650691D01*
X159104765Y-35599843D01*
X158857000Y-35550560D01*
X157507000Y-35550560D01*
X157259235Y-35599843D01*
X157049191Y-35740191D01*
X156986032Y-35834714D01*
X156693136Y-35639007D01*
X156311022Y-35563000D01*
X156052978Y-35563000D01*
X155670864Y-35639007D01*
X155237543Y-35928543D01*
X155182000Y-36011669D01*
X155126457Y-35928543D01*
X154693136Y-35639007D01*
X154311022Y-35563000D01*
X154052978Y-35563000D01*
X153670864Y-35639007D01*
X153237543Y-35928543D01*
X153182000Y-36011669D01*
X153126457Y-35928543D01*
X152693136Y-35639007D01*
X152311022Y-35563000D01*
X152052978Y-35563000D01*
X151670864Y-35639007D01*
X151237543Y-35928543D01*
X151182000Y-36011669D01*
X151126457Y-35928543D01*
X150693136Y-35639007D01*
X150311022Y-35563000D01*
X150052978Y-35563000D01*
X149670864Y-35639007D01*
X149237543Y-35928543D01*
X149182000Y-36011669D01*
X149126457Y-35928543D01*
X148693136Y-35639007D01*
X148311022Y-35563000D01*
X148052978Y-35563000D01*
X147670864Y-35639007D01*
X147237543Y-35928543D01*
X147182000Y-36011669D01*
X147126457Y-35928543D01*
X146693136Y-35639007D01*
X146311022Y-35563000D01*
X146052978Y-35563000D01*
X145670864Y-35639007D01*
X145237543Y-35928543D01*
X145168844Y-36031358D01*
X144845633Y-35743522D01*
X144511400Y-35605090D01*
X144309000Y-35728776D01*
X144309000Y-36746000D01*
X144329000Y-36746000D01*
X144329000Y-37000000D01*
X144309000Y-37000000D01*
X144309000Y-37020000D01*
X144055000Y-37020000D01*
X144055000Y-37000000D01*
X143036910Y-37000000D01*
X142914080Y-37202402D01*
X143136651Y-37662540D01*
X143350554Y-37853032D01*
X143237543Y-37928543D01*
X142948007Y-38361864D01*
X142846336Y-38873000D01*
X104045239Y-38873000D01*
X103922153Y-38749914D01*
X103321222Y-38501000D01*
X102670778Y-38501000D01*
X102069847Y-38749914D01*
X101609914Y-39209847D01*
X101361000Y-39810778D01*
X70235000Y-39810778D01*
X70235000Y-39555431D01*
X69894741Y-38733974D01*
X69266026Y-38105259D01*
X68444569Y-37765000D01*
X67555431Y-37765000D01*
X66733974Y-38105259D01*
X66105259Y-38733974D01*
X65765000Y-39555431D01*
X63735000Y-39555431D01*
X63735000Y-36543598D01*
X142914080Y-36543598D01*
X143036910Y-36746000D01*
X144055000Y-36746000D01*
X144055000Y-35728776D01*
X143852600Y-35605090D01*
X143518367Y-35743522D01*
X143136651Y-36083460D01*
X142914080Y-36543598D01*
X63735000Y-36543598D01*
X63735000Y-35042702D01*
X63800594Y-34480082D01*
X63979191Y-33988056D01*
X64266192Y-33550308D01*
X64646190Y-33190332D01*
X65098821Y-32927424D01*
X65609416Y-32772780D01*
X66032732Y-32735000D01*
X188873000Y-32735000D01*
X188873000Y-37553765D01*
X188873000Y-37553765D01*
G37*
X188873000Y-37553765D02*
X188160477Y-36841242D01*
X188203092Y-36627000D01*
X188087839Y-36047582D01*
X187759625Y-35556375D01*
X187268418Y-35228161D01*
X186835256Y-35142000D01*
X186542744Y-35142000D01*
X186109582Y-35228161D01*
X185618375Y-35556375D01*
X185419000Y-35854761D01*
X185219625Y-35556375D01*
X184728418Y-35228161D01*
X184295256Y-35142000D01*
X184002744Y-35142000D01*
X183569582Y-35228161D01*
X183078375Y-35556375D01*
X182879000Y-35854761D01*
X182679625Y-35556375D01*
X182188418Y-35228161D01*
X181755256Y-35142000D01*
X181462744Y-35142000D01*
X181029582Y-35228161D01*
X180538375Y-35556375D01*
X180339000Y-35854761D01*
X180139625Y-35556375D01*
X179648418Y-35228161D01*
X179215256Y-35142000D01*
X178922744Y-35142000D01*
X178489582Y-35228161D01*
X177998375Y-35556375D01*
X177799000Y-35854761D01*
X177599625Y-35556375D01*
X177108418Y-35228161D01*
X176675256Y-35142000D01*
X176382744Y-35142000D01*
X175949582Y-35228161D01*
X175458375Y-35556375D01*
X175443904Y-35578033D01*
X175377327Y-35417302D01*
X175198699Y-35238673D01*
X174965310Y-35142000D01*
X174274750Y-35142000D01*
X174116000Y-35300750D01*
X174116000Y-36500000D01*
X174136000Y-36500000D01*
X174136000Y-36754000D01*
X174116000Y-36754000D01*
X174116000Y-37953250D01*
X174274750Y-38112000D01*
X174965310Y-38112000D01*
X175198699Y-38015327D01*
X175377327Y-37836698D01*
X175443904Y-37675967D01*
X175458375Y-37697625D01*
X175949582Y-38025839D01*
X176382744Y-38112000D01*
X176675256Y-38112000D01*
X177108418Y-38025839D01*
X177599625Y-37697625D01*
X177799000Y-37399239D01*
X177998375Y-37697625D01*
X178489582Y-38025839D01*
X178922744Y-38112000D01*
X179215256Y-38112000D01*
X179648418Y-38025839D01*
X180139625Y-37697625D01*
X180339000Y-37399239D01*
X180538375Y-37697625D01*
X181029582Y-38025839D01*
X181462744Y-38112000D01*
X181755256Y-38112000D01*
X182188418Y-38025839D01*
X182679625Y-37697625D01*
X182879000Y-37399239D01*
X183078375Y-37697625D01*
X183569582Y-38025839D01*
X184002744Y-38112000D01*
X184295256Y-38112000D01*
X184728418Y-38025839D01*
X185219625Y-37697625D01*
X185419000Y-37399239D01*
X185618375Y-37697625D01*
X186109582Y-38025839D01*
X186542744Y-38112000D01*
X186835256Y-38112000D01*
X186903242Y-38098477D01*
X190372001Y-41567237D01*
X190372000Y-42895867D01*
X190298793Y-42969074D01*
X190126000Y-43386234D01*
X190126000Y-43837766D01*
X190298793Y-44254926D01*
X190372001Y-44328134D01*
X190372000Y-47001547D01*
X190372001Y-47001551D01*
X190372001Y-47340866D01*
X190298793Y-47414074D01*
X190126000Y-47831234D01*
X190126000Y-48282766D01*
X190298793Y-48699926D01*
X190618074Y-49019207D01*
X191035234Y-49192000D01*
X191486766Y-49192000D01*
X191903926Y-49019207D01*
X192223207Y-48699926D01*
X192396000Y-48282766D01*
X192396000Y-47831234D01*
X192223207Y-47414074D01*
X192150000Y-47340867D01*
X192150000Y-46180240D01*
X192920000Y-46180240D01*
X192920000Y-46631772D01*
X193092793Y-47048932D01*
X193412074Y-47368213D01*
X193829234Y-47541006D01*
X194280766Y-47541006D01*
X194697926Y-47368213D01*
X195017207Y-47048932D01*
X195062577Y-46939400D01*
X202381267Y-46939400D01*
X202556074Y-47114207D01*
X202973234Y-47287000D01*
X203424766Y-47287000D01*
X203841926Y-47114207D01*
X204161207Y-46794926D01*
X204334000Y-46377766D01*
X204334000Y-45926234D01*
X204161207Y-45509074D01*
X203841926Y-45189793D01*
X203424766Y-45017000D01*
X202973234Y-45017000D01*
X202556074Y-45189793D01*
X202381267Y-45364600D01*
X194506722Y-45364600D01*
X194280766Y-45271006D01*
X193829234Y-45271006D01*
X193412074Y-45443799D01*
X193092793Y-45763080D01*
X192920000Y-46180240D01*
X192150000Y-46180240D01*
X192150000Y-44328133D01*
X192223207Y-44254926D01*
X192396000Y-43837766D01*
X192396000Y-43555431D01*
X225765000Y-43555431D01*
X225765000Y-44444569D01*
X226105259Y-45266026D01*
X226733974Y-45894741D01*
X227555431Y-46235000D01*
X228444569Y-46235000D01*
X229266026Y-45894741D01*
X229894741Y-45266026D01*
X230235000Y-44444569D01*
X230235000Y-43555431D01*
X229894741Y-42733974D01*
X229266026Y-42105259D01*
X228444569Y-41765000D01*
X227555431Y-41765000D01*
X226733974Y-42105259D01*
X226105259Y-42733974D01*
X225765000Y-43555431D01*
X192396000Y-43555431D01*
X192396000Y-43386234D01*
X192223207Y-42969074D01*
X192150000Y-42895867D01*
X192150000Y-41474236D01*
X210365000Y-41474236D01*
X210365000Y-41925768D01*
X210537793Y-42342928D01*
X210857074Y-42662209D01*
X211274234Y-42835002D01*
X211725766Y-42835002D01*
X212142926Y-42662209D01*
X212462207Y-42342928D01*
X212635000Y-41925768D01*
X212635000Y-41822237D01*
X212968238Y-41489000D01*
X221283867Y-41489000D01*
X221357074Y-41562207D01*
X221774234Y-41735000D01*
X222225766Y-41735000D01*
X222642926Y-41562207D01*
X222962207Y-41242926D01*
X223135000Y-40825766D01*
X223135000Y-40374234D01*
X222962207Y-39957074D01*
X222642926Y-39637793D01*
X222225766Y-39465000D01*
X221774234Y-39465000D01*
X221357074Y-39637793D01*
X221283867Y-39711000D01*
X212687557Y-39711000D01*
X212600002Y-39693584D01*
X212512447Y-39711000D01*
X212512446Y-39711000D01*
X212253132Y-39762581D01*
X211959069Y-39959067D01*
X211909473Y-40033294D01*
X211377765Y-40565002D01*
X211274234Y-40565002D01*
X210857074Y-40737795D01*
X210537793Y-41057076D01*
X210365000Y-41474236D01*
X192150000Y-41474236D01*
X192150000Y-41286550D01*
X192167415Y-41198999D01*
X192150000Y-41111448D01*
X192150000Y-41111444D01*
X192098419Y-40852130D01*
X191901933Y-40558067D01*
X191827707Y-40508471D01*
X190446236Y-39127000D01*
X232265000Y-39127000D01*
X232265001Y-49072388D01*
X232271419Y-49104652D01*
X232315323Y-49596592D01*
X232321412Y-49625865D01*
X232323029Y-49655726D01*
X232343969Y-49744307D01*
X232545376Y-50409300D01*
X232561257Y-50445825D01*
X232572500Y-50484024D01*
X232613255Y-50565412D01*
X232962241Y-51166236D01*
X232986098Y-51198126D01*
X233005829Y-51232718D01*
X233064215Y-51302546D01*
X233542060Y-51806970D01*
X233572608Y-51832512D01*
X233599771Y-51861641D01*
X233672655Y-51916165D01*
X234253727Y-52297133D01*
X234289339Y-52314966D01*
X234322469Y-52337061D01*
X234405941Y-52373356D01*
X235059069Y-52610430D01*
X235097822Y-52619591D01*
X235135152Y-52633474D01*
X235224735Y-52649592D01*
X235885569Y-52726637D01*
X235927612Y-52735000D01*
X239957298Y-52735000D01*
X240519918Y-52800594D01*
X241011944Y-52979191D01*
X241449692Y-53266192D01*
X241809668Y-53646190D01*
X242072576Y-54098821D01*
X242227220Y-54609416D01*
X242265001Y-55032743D01*
X242265001Y-71719323D01*
X204999741Y-71795412D01*
X204951160Y-71805179D01*
X204910014Y-71832793D01*
X204882568Y-71874051D01*
X204873000Y-71922412D01*
X204873000Y-83950524D01*
X61954221Y-83877572D01*
X61894741Y-83733974D01*
X61266026Y-83105259D01*
X60444569Y-82765000D01*
X59555431Y-82765000D01*
X58733974Y-83105259D01*
X58105259Y-83733974D01*
X58046605Y-83875577D01*
X53735000Y-83873376D01*
X53735000Y-78975050D01*
X107575000Y-78975050D01*
X107575000Y-79724950D01*
X107861974Y-80417767D01*
X108392233Y-80948026D01*
X109085050Y-81235000D01*
X109834950Y-81235000D01*
X110527767Y-80948026D01*
X111058026Y-80417767D01*
X111345000Y-79724950D01*
X111345000Y-78975050D01*
X115075000Y-78975050D01*
X115075000Y-79724950D01*
X115361974Y-80417767D01*
X115892233Y-80948026D01*
X116585050Y-81235000D01*
X117334950Y-81235000D01*
X118027767Y-80948026D01*
X118558026Y-80417767D01*
X118845000Y-79724950D01*
X118845000Y-78975050D01*
X124085000Y-78975050D01*
X124085000Y-79724950D01*
X124371974Y-80417767D01*
X124902233Y-80948026D01*
X125595050Y-81235000D01*
X126344950Y-81235000D01*
X127037767Y-80948026D01*
X127568026Y-80417767D01*
X127855000Y-79724950D01*
X127855000Y-78975050D01*
X131585000Y-78975050D01*
X131585000Y-79724950D01*
X131871974Y-80417767D01*
X132402233Y-80948026D01*
X133095050Y-81235000D01*
X133844950Y-81235000D01*
X134537767Y-80948026D01*
X135068026Y-80417767D01*
X135355000Y-79724950D01*
X135355000Y-78975050D01*
X140595000Y-78975050D01*
X140595000Y-79724950D01*
X140881974Y-80417767D01*
X141412233Y-80948026D01*
X142105050Y-81235000D01*
X142854950Y-81235000D01*
X143547767Y-80948026D01*
X144078026Y-80417767D01*
X144365000Y-79724950D01*
X144365000Y-78975050D01*
X148095000Y-78975050D01*
X148095000Y-79724950D01*
X148381974Y-80417767D01*
X148912233Y-80948026D01*
X149605050Y-81235000D01*
X150354950Y-81235000D01*
X151047767Y-80948026D01*
X151578026Y-80417767D01*
X151865000Y-79724950D01*
X151865000Y-78975050D01*
X157105000Y-78975050D01*
X157105000Y-79724950D01*
X157391974Y-80417767D01*
X157922233Y-80948026D01*
X158615050Y-81235000D01*
X159364950Y-81235000D01*
X160057767Y-80948026D01*
X160588026Y-80417767D01*
X160875000Y-79724950D01*
X160875000Y-78975050D01*
X164605000Y-78975050D01*
X164605000Y-79724950D01*
X164891974Y-80417767D01*
X165422233Y-80948026D01*
X166115050Y-81235000D01*
X166864950Y-81235000D01*
X167557767Y-80948026D01*
X168088026Y-80417767D01*
X168375000Y-79724950D01*
X168375000Y-78975050D01*
X173869000Y-78975050D01*
X173869000Y-79724950D01*
X174155974Y-80417767D01*
X174686233Y-80948026D01*
X175379050Y-81235000D01*
X176128950Y-81235000D01*
X176821767Y-80948026D01*
X177352026Y-80417767D01*
X177639000Y-79724950D01*
X177639000Y-78975050D01*
X181369000Y-78975050D01*
X181369000Y-79724950D01*
X181655974Y-80417767D01*
X182186233Y-80948026D01*
X182879050Y-81235000D01*
X183628950Y-81235000D01*
X184321767Y-80948026D01*
X184852026Y-80417767D01*
X185139000Y-79724950D01*
X185139000Y-78975050D01*
X190640000Y-78975050D01*
X190640000Y-79724950D01*
X190926974Y-80417767D01*
X191457233Y-80948026D01*
X192150050Y-81235000D01*
X192899950Y-81235000D01*
X193592767Y-80948026D01*
X194123026Y-80417767D01*
X194410000Y-79724950D01*
X194410000Y-78975050D01*
X198140000Y-78975050D01*
X198140000Y-79724950D01*
X198426974Y-80417767D01*
X198957233Y-80948026D01*
X199650050Y-81235000D01*
X200399950Y-81235000D01*
X201092767Y-80948026D01*
X201623026Y-80417767D01*
X201910000Y-79724950D01*
X201910000Y-78975050D01*
X201623026Y-78282233D01*
X201092767Y-77751974D01*
X200399950Y-77465000D01*
X199650050Y-77465000D01*
X198957233Y-77751974D01*
X198426974Y-78282233D01*
X198140000Y-78975050D01*
X194410000Y-78975050D01*
X194123026Y-78282233D01*
X193592767Y-77751974D01*
X192899950Y-77465000D01*
X192150050Y-77465000D01*
X191457233Y-77751974D01*
X190926974Y-78282233D01*
X190640000Y-78975050D01*
X185139000Y-78975050D01*
X184852026Y-78282233D01*
X184321767Y-77751974D01*
X183628950Y-77465000D01*
X182879050Y-77465000D01*
X182186233Y-77751974D01*
X181655974Y-78282233D01*
X181369000Y-78975050D01*
X177639000Y-78975050D01*
X177352026Y-78282233D01*
X176821767Y-77751974D01*
X176128950Y-77465000D01*
X175379050Y-77465000D01*
X174686233Y-77751974D01*
X174155974Y-78282233D01*
X173869000Y-78975050D01*
X168375000Y-78975050D01*
X168088026Y-78282233D01*
X167557767Y-77751974D01*
X166864950Y-77465000D01*
X166115050Y-77465000D01*
X165422233Y-77751974D01*
X164891974Y-78282233D01*
X164605000Y-78975050D01*
X160875000Y-78975050D01*
X160588026Y-78282233D01*
X160057767Y-77751974D01*
X159364950Y-77465000D01*
X158615050Y-77465000D01*
X157922233Y-77751974D01*
X157391974Y-78282233D01*
X157105000Y-78975050D01*
X151865000Y-78975050D01*
X151578026Y-78282233D01*
X151047767Y-77751974D01*
X150354950Y-77465000D01*
X149605050Y-77465000D01*
X148912233Y-77751974D01*
X148381974Y-78282233D01*
X148095000Y-78975050D01*
X144365000Y-78975050D01*
X144078026Y-78282233D01*
X143547767Y-77751974D01*
X142854950Y-77465000D01*
X142105050Y-77465000D01*
X141412233Y-77751974D01*
X140881974Y-78282233D01*
X140595000Y-78975050D01*
X135355000Y-78975050D01*
X135068026Y-78282233D01*
X134537767Y-77751974D01*
X133844950Y-77465000D01*
X133095050Y-77465000D01*
X132402233Y-77751974D01*
X131871974Y-78282233D01*
X131585000Y-78975050D01*
X127855000Y-78975050D01*
X127568026Y-78282233D01*
X127037767Y-77751974D01*
X126344950Y-77465000D01*
X125595050Y-77465000D01*
X124902233Y-77751974D01*
X124371974Y-78282233D01*
X124085000Y-78975050D01*
X118845000Y-78975050D01*
X118558026Y-78282233D01*
X118027767Y-77751974D01*
X117334950Y-77465000D01*
X116585050Y-77465000D01*
X115892233Y-77751974D01*
X115361974Y-78282233D01*
X115075000Y-78975050D01*
X111345000Y-78975050D01*
X111058026Y-78282233D01*
X110527767Y-77751974D01*
X109834950Y-77465000D01*
X109085050Y-77465000D01*
X108392233Y-77751974D01*
X107861974Y-78282233D01*
X107575000Y-78975050D01*
X53735000Y-78975050D01*
X53735000Y-74274778D01*
X73929000Y-74274778D01*
X73929000Y-74925222D01*
X74177914Y-75526153D01*
X74637847Y-75986086D01*
X75238778Y-76235000D01*
X75889222Y-76235000D01*
X76490153Y-75986086D01*
X76950086Y-75526153D01*
X77199000Y-74925222D01*
X77199000Y-74274778D01*
X76950086Y-73673847D01*
X76490153Y-73213914D01*
X75889222Y-72965000D01*
X75238778Y-72965000D01*
X74637847Y-73213914D01*
X74177914Y-73673847D01*
X73929000Y-74274778D01*
X53735000Y-74274778D01*
X53735000Y-70672532D01*
X74591073Y-70672532D01*
X74689736Y-70939387D01*
X75299461Y-71165908D01*
X75949460Y-71141856D01*
X76438264Y-70939387D01*
X76536927Y-70672532D01*
X75564000Y-69699605D01*
X74591073Y-70672532D01*
X53735000Y-70672532D01*
X53735000Y-69255461D01*
X73918092Y-69255461D01*
X73942144Y-69905460D01*
X74144613Y-70394264D01*
X74411468Y-70492927D01*
X75384395Y-69520000D01*
X75743605Y-69520000D01*
X76716532Y-70492927D01*
X76983387Y-70394264D01*
X77209908Y-69784539D01*
X77185856Y-69134540D01*
X76983387Y-68645736D01*
X76716532Y-68547073D01*
X75743605Y-69520000D01*
X75384395Y-69520000D01*
X74411468Y-68547073D01*
X74144613Y-68645736D01*
X73918092Y-69255461D01*
X53735000Y-69255461D01*
X53735000Y-68367468D01*
X74591073Y-68367468D01*
X75564000Y-69340395D01*
X76536927Y-68367468D01*
X76438264Y-68100613D01*
X75828539Y-67874092D01*
X75178540Y-67898144D01*
X74689736Y-68100613D01*
X74591073Y-68367468D01*
X53735000Y-68367468D01*
X53735000Y-64555431D01*
X57765000Y-64555431D01*
X57765000Y-65444569D01*
X58105259Y-66266026D01*
X58733974Y-66894741D01*
X59555431Y-67235000D01*
X60444569Y-67235000D01*
X61266026Y-66894741D01*
X61894741Y-66266026D01*
X62235000Y-65444569D01*
X62235000Y-64555431D01*
X62152393Y-64356000D01*
X87939000Y-64356000D01*
X87939000Y-74770000D01*
X87948667Y-74818601D01*
X87976197Y-74859803D01*
X88017399Y-74887333D01*
X88066000Y-74897000D01*
X98480000Y-74897000D01*
X98528601Y-74887333D01*
X98569803Y-74859803D01*
X98597333Y-74818601D01*
X98607000Y-74770000D01*
X98607000Y-70500734D01*
X188221000Y-70500734D01*
X188221000Y-70952266D01*
X188393793Y-71369426D01*
X188713074Y-71688707D01*
X189130234Y-71861500D01*
X189581766Y-71861500D01*
X189998926Y-71688707D01*
X190072133Y-71615500D01*
X193137130Y-71615500D01*
X196365000Y-74843371D01*
X196365000Y-74946901D01*
X196537793Y-75364061D01*
X196857074Y-75683342D01*
X197274234Y-75856135D01*
X197725766Y-75856135D01*
X198142926Y-75683342D01*
X198462207Y-75364061D01*
X198635000Y-74946901D01*
X198635000Y-74495369D01*
X198462207Y-74078209D01*
X198142926Y-73758928D01*
X197725766Y-73586135D01*
X197622236Y-73586135D01*
X194195896Y-70159796D01*
X194146298Y-70085567D01*
X193852235Y-69889081D01*
X193592921Y-69837500D01*
X193592920Y-69837500D01*
X193505365Y-69820084D01*
X193417810Y-69837500D01*
X190072133Y-69837500D01*
X189998926Y-69764293D01*
X189581766Y-69591500D01*
X189130234Y-69591500D01*
X188713074Y-69764293D01*
X188393793Y-70083574D01*
X188221000Y-70500734D01*
X98607000Y-70500734D01*
X98607000Y-69148532D01*
X162983073Y-69148532D01*
X163081736Y-69415387D01*
X163691461Y-69641908D01*
X164341460Y-69617856D01*
X164830264Y-69415387D01*
X164928927Y-69148532D01*
X163956000Y-68175605D01*
X162983073Y-69148532D01*
X98607000Y-69148532D01*
X98607000Y-67731461D01*
X162310092Y-67731461D01*
X162334144Y-68381460D01*
X162536613Y-68870264D01*
X162803468Y-68968927D01*
X163776395Y-67996000D01*
X164135605Y-67996000D01*
X165108532Y-68968927D01*
X165375387Y-68870264D01*
X165601908Y-68260539D01*
X165580085Y-67670778D01*
X166385000Y-67670778D01*
X166385000Y-68321222D01*
X166633914Y-68922153D01*
X167093847Y-69382086D01*
X167694778Y-69631000D01*
X168345222Y-69631000D01*
X168946153Y-69382086D01*
X169406086Y-68922153D01*
X169655000Y-68321222D01*
X169655000Y-67670778D01*
X170449000Y-67670778D01*
X170449000Y-68321222D01*
X170697914Y-68922153D01*
X171157847Y-69382086D01*
X171758778Y-69631000D01*
X172409222Y-69631000D01*
X173010153Y-69382086D01*
X173470086Y-68922153D01*
X173719000Y-68321222D01*
X173719000Y-67670778D01*
X173714444Y-67659778D01*
X174513000Y-67659778D01*
X174513000Y-68310222D01*
X174761914Y-68911153D01*
X175221847Y-69371086D01*
X175822778Y-69620000D01*
X176473222Y-69620000D01*
X177074153Y-69371086D01*
X177534086Y-68911153D01*
X177783000Y-68310222D01*
X177783000Y-67659778D01*
X177534086Y-67058847D01*
X177074153Y-66598914D01*
X176473222Y-66350000D01*
X175822778Y-66350000D01*
X175221847Y-66598914D01*
X174761914Y-67058847D01*
X174513000Y-67659778D01*
X173714444Y-67659778D01*
X173470086Y-67069847D01*
X173010153Y-66609914D01*
X172409222Y-66361000D01*
X171758778Y-66361000D01*
X171157847Y-66609914D01*
X170697914Y-67069847D01*
X170449000Y-67670778D01*
X169655000Y-67670778D01*
X169406086Y-67069847D01*
X168946153Y-66609914D01*
X168345222Y-66361000D01*
X167694778Y-66361000D01*
X167093847Y-66609914D01*
X166633914Y-67069847D01*
X166385000Y-67670778D01*
X165580085Y-67670778D01*
X165577856Y-67610540D01*
X165375387Y-67121736D01*
X165108532Y-67023073D01*
X164135605Y-67996000D01*
X163776395Y-67996000D01*
X162803468Y-67023073D01*
X162536613Y-67121736D01*
X162310092Y-67731461D01*
X98607000Y-67731461D01*
X98607000Y-66843468D01*
X162983073Y-66843468D01*
X163956000Y-67816395D01*
X164928927Y-66843468D01*
X164830264Y-66576613D01*
X164220539Y-66350092D01*
X163570540Y-66374144D01*
X163081736Y-66576613D01*
X162983073Y-66843468D01*
X98607000Y-66843468D01*
X98607000Y-64356000D01*
X98597333Y-64307399D01*
X98569803Y-64266197D01*
X98528601Y-64238667D01*
X98480000Y-64229000D01*
X88066000Y-64229000D01*
X88017399Y-64238667D01*
X87976197Y-64266197D01*
X87948667Y-64307399D01*
X87939000Y-64356000D01*
X62152393Y-64356000D01*
X61894741Y-63733974D01*
X61266026Y-63105259D01*
X60444569Y-62765000D01*
X59555431Y-62765000D01*
X58733974Y-63105259D01*
X58105259Y-63733974D01*
X57765000Y-64555431D01*
X53735000Y-64555431D01*
X53735000Y-57864234D01*
X139199000Y-57864234D01*
X139199000Y-58315766D01*
X139371793Y-58732926D01*
X139445000Y-58806133D01*
X139445000Y-58884661D01*
X139445001Y-58884666D01*
X139445000Y-64474867D01*
X139371793Y-64548074D01*
X139199000Y-64965234D01*
X139199000Y-65416766D01*
X139371793Y-65833926D01*
X139691074Y-66153207D01*
X140108234Y-66326000D01*
X140559766Y-66326000D01*
X140976926Y-66153207D01*
X141296207Y-65833926D01*
X141469000Y-65416766D01*
X141469000Y-64965234D01*
X141296207Y-64548074D01*
X141223000Y-64474867D01*
X141223000Y-63606778D01*
X166385000Y-63606778D01*
X166385000Y-64257222D01*
X166633914Y-64858153D01*
X167093847Y-65318086D01*
X167694778Y-65567000D01*
X168345222Y-65567000D01*
X168946153Y-65318086D01*
X169406086Y-64858153D01*
X169655000Y-64257222D01*
X169655000Y-63606778D01*
X170449000Y-63606778D01*
X170449000Y-64257222D01*
X170697914Y-64858153D01*
X171157847Y-65318086D01*
X171758778Y-65567000D01*
X172409222Y-65567000D01*
X173010153Y-65318086D01*
X173470086Y-64858153D01*
X173719000Y-64257222D01*
X173719000Y-63974234D01*
X177865000Y-63974234D01*
X177865000Y-64425766D01*
X178037793Y-64842926D01*
X178357074Y-65162207D01*
X178774234Y-65335000D01*
X179021448Y-65335000D01*
X179188386Y-65501938D01*
X179232316Y-65567684D01*
X179492772Y-65741715D01*
X179722448Y-65787400D01*
X179722449Y-65787400D01*
X179800000Y-65802826D01*
X179877551Y-65787400D01*
X188782267Y-65787400D01*
X188957074Y-65962207D01*
X189374234Y-66135000D01*
X189825766Y-66135000D01*
X190242926Y-65962207D01*
X190562207Y-65642926D01*
X190735000Y-65225766D01*
X190735000Y-64774234D01*
X190677425Y-64635234D01*
X201898000Y-64635234D01*
X201898000Y-65086766D01*
X202070793Y-65503926D01*
X202390074Y-65823207D01*
X202807234Y-65996000D01*
X203258766Y-65996000D01*
X203675926Y-65823207D01*
X203827233Y-65671900D01*
X207803267Y-65671900D01*
X207978074Y-65846707D01*
X208395234Y-66019500D01*
X208846766Y-66019500D01*
X209263926Y-65846707D01*
X209583207Y-65527426D01*
X209756000Y-65110266D01*
X209756000Y-64658734D01*
X209713211Y-64555431D01*
X233765000Y-64555431D01*
X233765000Y-65444569D01*
X234105259Y-66266026D01*
X234733974Y-66894741D01*
X235555431Y-67235000D01*
X236444569Y-67235000D01*
X237266026Y-66894741D01*
X237894741Y-66266026D01*
X238235000Y-65444569D01*
X238235000Y-64555431D01*
X237894741Y-63733974D01*
X237266026Y-63105259D01*
X236444569Y-62765000D01*
X235555431Y-62765000D01*
X234733974Y-63105259D01*
X234105259Y-63733974D01*
X233765000Y-64555431D01*
X209713211Y-64555431D01*
X209583207Y-64241574D01*
X209263926Y-63922293D01*
X208846766Y-63749500D01*
X208395234Y-63749500D01*
X207978074Y-63922293D01*
X207803267Y-64097100D01*
X203874233Y-64097100D01*
X203675926Y-63898793D01*
X203258766Y-63726000D01*
X202807234Y-63726000D01*
X202390074Y-63898793D01*
X202070793Y-64218074D01*
X201898000Y-64635234D01*
X190677425Y-64635234D01*
X190562207Y-64357074D01*
X190242926Y-64037793D01*
X189825766Y-63865000D01*
X189374234Y-63865000D01*
X188957074Y-64037793D01*
X188782267Y-64212600D01*
X180135000Y-64212600D01*
X180135000Y-63974234D01*
X180035285Y-63733501D01*
X180429161Y-63733501D01*
X180846321Y-63560708D01*
X181021128Y-63385901D01*
X187534883Y-63385901D01*
X187537793Y-63392926D01*
X187857074Y-63712207D01*
X188274234Y-63885000D01*
X188725766Y-63885000D01*
X189142926Y-63712207D01*
X189462207Y-63392926D01*
X189635000Y-62975766D01*
X189635000Y-62524234D01*
X189462207Y-62107074D01*
X189142926Y-61787793D01*
X188725766Y-61615000D01*
X188274234Y-61615000D01*
X187857074Y-61787793D01*
X187833766Y-61811101D01*
X181021128Y-61811101D01*
X180846321Y-61636294D01*
X180429161Y-61463501D01*
X179977629Y-61463501D01*
X179560469Y-61636294D01*
X179241188Y-61955575D01*
X179068395Y-62372735D01*
X179068395Y-62824267D01*
X179168110Y-63065000D01*
X178774234Y-63065000D01*
X178357074Y-63237793D01*
X178037793Y-63557074D01*
X177865000Y-63974234D01*
X173719000Y-63974234D01*
X173719000Y-63606778D01*
X173667887Y-63483380D01*
X173841715Y-63223228D01*
X173887400Y-62993552D01*
X173887400Y-62993551D01*
X173902826Y-62916000D01*
X173887400Y-62838449D01*
X173887400Y-60785234D01*
X212351000Y-60785234D01*
X212351000Y-61236766D01*
X212523793Y-61653926D01*
X212843074Y-61973207D01*
X213260234Y-62146000D01*
X213711766Y-62146000D01*
X214128926Y-61973207D01*
X214303733Y-61798400D01*
X216605267Y-61798400D01*
X216780074Y-61973207D01*
X217197234Y-62146000D01*
X217648766Y-62146000D01*
X218065926Y-61973207D01*
X218385207Y-61653926D01*
X218558000Y-61236766D01*
X218558000Y-60785234D01*
X218385207Y-60368074D01*
X218065926Y-60048793D01*
X217648766Y-59876000D01*
X217197234Y-59876000D01*
X216780074Y-60048793D01*
X216605267Y-60223600D01*
X214303733Y-60223600D01*
X214128926Y-60048793D01*
X213711766Y-59876000D01*
X213260234Y-59876000D01*
X212843074Y-60048793D01*
X212523793Y-60368074D01*
X212351000Y-60785234D01*
X173887400Y-60785234D01*
X173887400Y-58944295D01*
X174062207Y-58769488D01*
X174235000Y-58352328D01*
X174235000Y-57991234D01*
X196348992Y-57991234D01*
X196348992Y-58442766D01*
X196521785Y-58859926D01*
X196841066Y-59179207D01*
X197258226Y-59352000D01*
X197709758Y-59352000D01*
X198126918Y-59179207D01*
X198446199Y-58859926D01*
X198618992Y-58442766D01*
X198618992Y-57991234D01*
X198446199Y-57574074D01*
X198271400Y-57399275D01*
X198271400Y-55614234D01*
X219365004Y-55614234D01*
X219365004Y-56065766D01*
X219537797Y-56482926D01*
X219857078Y-56802207D01*
X220274238Y-56975000D01*
X220725770Y-56975000D01*
X221142930Y-56802207D01*
X221393937Y-56551200D01*
X223524905Y-56551200D01*
X223495108Y-56701000D01*
X223610361Y-57280418D01*
X223938575Y-57771625D01*
X224236961Y-57971000D01*
X223938575Y-58170375D01*
X223885000Y-58250556D01*
X223885000Y-58024210D01*
X223712207Y-57607050D01*
X223392926Y-57287769D01*
X222975766Y-57114976D01*
X222524234Y-57114976D01*
X222107074Y-57287769D01*
X221787793Y-57607050D01*
X221615000Y-58024210D01*
X221615000Y-58475742D01*
X221787793Y-58892902D01*
X222038800Y-59143909D01*
X222038801Y-59356078D01*
X221787793Y-59607086D01*
X221615000Y-60024246D01*
X221615000Y-60475778D01*
X221787793Y-60892938D01*
X222107074Y-61212219D01*
X222524234Y-61385012D01*
X222975766Y-61385012D01*
X223392926Y-61212219D01*
X223712207Y-60892938D01*
X223885000Y-60475778D01*
X223885000Y-60231444D01*
X223938575Y-60311625D01*
X224429782Y-60639839D01*
X224862944Y-60726000D01*
X225155456Y-60726000D01*
X225588618Y-60639839D01*
X226079825Y-60311625D01*
X226408039Y-59820418D01*
X226523292Y-59241000D01*
X226408039Y-58661582D01*
X226079825Y-58170375D01*
X225781439Y-57971000D01*
X226079825Y-57771625D01*
X226408039Y-57280418D01*
X226523292Y-56701000D01*
X226408039Y-56121582D01*
X226079825Y-55630375D01*
X226058167Y-55615904D01*
X226218898Y-55549327D01*
X226397527Y-55370699D01*
X226494200Y-55137310D01*
X226494200Y-54446750D01*
X226335450Y-54288000D01*
X225136200Y-54288000D01*
X225136200Y-54308000D01*
X224882200Y-54308000D01*
X224882200Y-54288000D01*
X223682950Y-54288000D01*
X223524200Y-54446750D01*
X223524200Y-55128800D01*
X221393937Y-55128800D01*
X221142930Y-54877793D01*
X220725770Y-54705000D01*
X220274238Y-54705000D01*
X219857078Y-54877793D01*
X219537797Y-55197074D01*
X219365004Y-55614234D01*
X198271400Y-55614234D01*
X198271400Y-53184690D01*
X223524200Y-53184690D01*
X223524200Y-53875250D01*
X223682950Y-54034000D01*
X224882200Y-54034000D01*
X224882200Y-52834750D01*
X225136200Y-52834750D01*
X225136200Y-54034000D01*
X226335450Y-54034000D01*
X226494200Y-53875250D01*
X226494200Y-53184690D01*
X226397527Y-52951301D01*
X226218898Y-52772673D01*
X225985509Y-52676000D01*
X225294950Y-52676000D01*
X225136200Y-52834750D01*
X224882200Y-52834750D01*
X224723450Y-52676000D01*
X224032891Y-52676000D01*
X223799502Y-52772673D01*
X223620873Y-52951301D01*
X223524200Y-53184690D01*
X198271400Y-53184690D01*
X198271400Y-50271733D01*
X198446207Y-50096926D01*
X198619000Y-49679766D01*
X198619000Y-49228234D01*
X198446207Y-48811074D01*
X198126926Y-48491793D01*
X197709766Y-48319000D01*
X197258234Y-48319000D01*
X196841074Y-48491793D01*
X196521793Y-48811074D01*
X196349000Y-49228234D01*
X196349000Y-49679766D01*
X196521793Y-50096926D01*
X196696600Y-50271733D01*
X196696601Y-57399258D01*
X196521785Y-57574074D01*
X196348992Y-57991234D01*
X174235000Y-57991234D01*
X174235000Y-57900796D01*
X174062207Y-57483636D01*
X173887400Y-57308829D01*
X173887400Y-47922233D01*
X174062207Y-47747426D01*
X174235000Y-47330266D01*
X174235000Y-46878734D01*
X174062207Y-46461574D01*
X173742926Y-46142293D01*
X173325766Y-45969500D01*
X172874234Y-45969500D01*
X172457074Y-46142293D01*
X172137793Y-46461574D01*
X171965000Y-46878734D01*
X171965000Y-47330266D01*
X172137793Y-47747426D01*
X172312600Y-47922233D01*
X172312601Y-57308828D01*
X172137793Y-57483636D01*
X171965000Y-57900796D01*
X171965000Y-58352328D01*
X172137793Y-58769488D01*
X172312601Y-58944296D01*
X172312600Y-62297000D01*
X171758778Y-62297000D01*
X171157847Y-62545914D01*
X170697914Y-63005847D01*
X170449000Y-63606778D01*
X169655000Y-63606778D01*
X169406086Y-63005847D01*
X168946153Y-62545914D01*
X168345222Y-62297000D01*
X167694778Y-62297000D01*
X167093847Y-62545914D01*
X166633914Y-63005847D01*
X166385000Y-63606778D01*
X141223000Y-63606778D01*
X141223000Y-60020462D01*
X141268343Y-60129930D01*
X141587624Y-60449211D01*
X142004784Y-60622004D01*
X142456316Y-60622004D01*
X142873476Y-60449211D01*
X143192757Y-60129930D01*
X143365550Y-59712770D01*
X143365550Y-59261238D01*
X143192757Y-58844078D01*
X142873476Y-58524797D01*
X142645400Y-58430325D01*
X142645400Y-47985733D01*
X142820207Y-47810926D01*
X142993000Y-47393766D01*
X142993000Y-46942234D01*
X142820207Y-46525074D01*
X142500926Y-46205793D01*
X142083766Y-46033000D01*
X141632234Y-46033000D01*
X141215074Y-46205793D01*
X140895793Y-46525074D01*
X140723000Y-46942234D01*
X140723000Y-47393766D01*
X140895793Y-47810926D01*
X141070600Y-47985733D01*
X141070601Y-57221468D01*
X140976926Y-57127793D01*
X140559766Y-56955000D01*
X140108234Y-56955000D01*
X139691074Y-57127793D01*
X139371793Y-57447074D01*
X139199000Y-57864234D01*
X53735000Y-57864234D01*
X53735000Y-55042702D01*
X53800594Y-54480082D01*
X53979191Y-53988056D01*
X54266192Y-53550308D01*
X54646190Y-53190332D01*
X55098821Y-52927424D01*
X55609416Y-52772780D01*
X56032732Y-52735000D01*
X60072388Y-52735000D01*
X60104661Y-52728580D01*
X60596592Y-52684677D01*
X60625865Y-52678588D01*
X60655726Y-52676971D01*
X60744307Y-52656031D01*
X61409300Y-52454624D01*
X61445825Y-52438743D01*
X61484024Y-52427500D01*
X61565412Y-52386745D01*
X62166236Y-52037759D01*
X62198126Y-52013902D01*
X62232718Y-51994171D01*
X62302546Y-51935785D01*
X62806970Y-51457940D01*
X62832512Y-51427392D01*
X62861641Y-51400229D01*
X62916165Y-51327345D01*
X63297133Y-50746273D01*
X63314966Y-50710661D01*
X63337061Y-50677531D01*
X63373356Y-50594059D01*
X63610430Y-49940931D01*
X63619591Y-49902178D01*
X63633474Y-49864848D01*
X63649592Y-49775265D01*
X63726637Y-49114431D01*
X63735000Y-49072388D01*
X63735000Y-44136000D01*
X101348560Y-44136000D01*
X101348560Y-46136000D01*
X101397843Y-46383765D01*
X101538191Y-46593809D01*
X101748235Y-46734157D01*
X101996000Y-46783440D01*
X103996000Y-46783440D01*
X104243765Y-46734157D01*
X104453809Y-46593809D01*
X104594157Y-46383765D01*
X104643440Y-46136000D01*
X104643440Y-45545234D01*
X145231500Y-45545234D01*
X145231500Y-45996766D01*
X145404293Y-46413926D01*
X145477500Y-46487133D01*
X145477501Y-50579366D01*
X145467793Y-50589074D01*
X145295000Y-51006234D01*
X145295000Y-51457766D01*
X145467793Y-51874926D01*
X145787074Y-52194207D01*
X146204234Y-52367000D01*
X146655766Y-52367000D01*
X147072926Y-52194207D01*
X147392207Y-51874926D01*
X147565000Y-51457766D01*
X147565000Y-51006234D01*
X147392207Y-50589074D01*
X147255500Y-50452367D01*
X147255500Y-47607740D01*
X150852494Y-47607740D01*
X150852494Y-48059272D01*
X151025287Y-48476432D01*
X151344568Y-48795713D01*
X151761728Y-48968506D01*
X152213260Y-48968506D01*
X152630420Y-48795713D01*
X152949701Y-48476432D01*
X153122494Y-48059272D01*
X153122494Y-47955741D01*
X153178022Y-47900213D01*
X154136001Y-46942234D01*
X169678944Y-46942234D01*
X169678944Y-47393766D01*
X169851737Y-47810926D01*
X170026544Y-47985733D01*
X170026545Y-58669314D01*
X169851793Y-58844066D01*
X169679000Y-59261226D01*
X169679000Y-59712758D01*
X169851793Y-60129918D01*
X170171074Y-60449199D01*
X170588234Y-60621992D01*
X171039766Y-60621992D01*
X171456926Y-60449199D01*
X171776207Y-60129918D01*
X171949000Y-59712758D01*
X171949000Y-59261226D01*
X171776207Y-58844066D01*
X171601344Y-58669203D01*
X171601344Y-47985733D01*
X171776151Y-47810926D01*
X171948944Y-47393766D01*
X171948944Y-46942234D01*
X171776151Y-46525074D01*
X171456870Y-46205793D01*
X171039710Y-46033000D01*
X170588178Y-46033000D01*
X170171018Y-46205793D01*
X169851737Y-46525074D01*
X169678944Y-46942234D01*
X154136001Y-46942234D01*
X156510236Y-44568000D01*
X163687867Y-44568000D01*
X163761074Y-44641207D01*
X164178234Y-44814000D01*
X164629766Y-44814000D01*
X165046926Y-44641207D01*
X165366207Y-44321926D01*
X165539000Y-43904766D01*
X165539000Y-43453234D01*
X165366207Y-43036074D01*
X165046926Y-42716793D01*
X164629766Y-42544000D01*
X164178234Y-42544000D01*
X163761074Y-42716793D01*
X163687867Y-42790000D01*
X156229550Y-42790000D01*
X156141999Y-42772585D01*
X156054448Y-42790000D01*
X156054444Y-42790000D01*
X155795130Y-42841581D01*
X155501067Y-43038067D01*
X155451471Y-43112293D01*
X151920787Y-46642978D01*
X151865259Y-46698506D01*
X151761728Y-46698506D01*
X151344568Y-46871299D01*
X151025287Y-47190580D01*
X150852494Y-47607740D01*
X147255500Y-47607740D01*
X147255500Y-46487133D01*
X147328707Y-46413926D01*
X147501500Y-45996766D01*
X147501500Y-45545234D01*
X147328707Y-45128074D01*
X147009426Y-44808793D01*
X146592266Y-44636000D01*
X146140734Y-44636000D01*
X145723574Y-44808793D01*
X145404293Y-45128074D01*
X145231500Y-45545234D01*
X104643440Y-45545234D01*
X104643440Y-44136000D01*
X104594157Y-43888235D01*
X104453809Y-43678191D01*
X104243765Y-43537843D01*
X103996000Y-43488560D01*
X101996000Y-43488560D01*
X101748235Y-43537843D01*
X101538191Y-43678191D01*
X101397843Y-43888235D01*
X101348560Y-44136000D01*
X63735000Y-44136000D01*
X63735000Y-39555431D01*
X65765000Y-39555431D01*
X65765000Y-40444569D01*
X66105259Y-41266026D01*
X66733974Y-41894741D01*
X67555431Y-42235000D01*
X68444569Y-42235000D01*
X69266026Y-41894741D01*
X69894741Y-41266026D01*
X70235000Y-40444569D01*
X70235000Y-39810778D01*
X101361000Y-39810778D01*
X101361000Y-40461222D01*
X101609914Y-41062153D01*
X102069847Y-41522086D01*
X102670778Y-41771000D01*
X103321222Y-41771000D01*
X103922153Y-41522086D01*
X104382086Y-41062153D01*
X104631000Y-40461222D01*
X104631000Y-39810778D01*
X104382086Y-39209847D01*
X104045239Y-38873000D01*
X142846336Y-38873000D01*
X142948007Y-39384136D01*
X143237543Y-39817457D01*
X143670864Y-40106993D01*
X144052978Y-40183000D01*
X144311022Y-40183000D01*
X144693136Y-40106993D01*
X145126457Y-39817457D01*
X145182000Y-39734331D01*
X145237543Y-39817457D01*
X145670864Y-40106993D01*
X146052978Y-40183000D01*
X146311022Y-40183000D01*
X146693136Y-40106993D01*
X147126457Y-39817457D01*
X147182000Y-39734331D01*
X147237543Y-39817457D01*
X147670864Y-40106993D01*
X148052978Y-40183000D01*
X148311022Y-40183000D01*
X148693136Y-40106993D01*
X149126457Y-39817457D01*
X149182000Y-39734331D01*
X149237543Y-39817457D01*
X149670864Y-40106993D01*
X150052978Y-40183000D01*
X150311022Y-40183000D01*
X150693136Y-40106993D01*
X151126457Y-39817457D01*
X151182000Y-39734331D01*
X151237543Y-39817457D01*
X151670864Y-40106993D01*
X152052978Y-40183000D01*
X152311022Y-40183000D01*
X152693136Y-40106993D01*
X153126457Y-39817457D01*
X153182000Y-39734331D01*
X153237543Y-39817457D01*
X153670864Y-40106993D01*
X154052978Y-40183000D01*
X154311022Y-40183000D01*
X154693136Y-40106993D01*
X155126457Y-39817457D01*
X155182000Y-39734331D01*
X155237543Y-39817457D01*
X155670864Y-40106993D01*
X156052978Y-40183000D01*
X156311022Y-40183000D01*
X156693136Y-40106993D01*
X157126457Y-39817457D01*
X157182000Y-39734331D01*
X157237543Y-39817457D01*
X157670864Y-40106993D01*
X158052978Y-40183000D01*
X158311022Y-40183000D01*
X158693136Y-40106993D01*
X159126457Y-39817457D01*
X159415993Y-39384136D01*
X159517664Y-38873000D01*
X159415993Y-38361864D01*
X159220286Y-38068968D01*
X159314809Y-38005809D01*
X159455157Y-37795765D01*
X159504440Y-37548000D01*
X159504440Y-36912750D01*
X172504000Y-36912750D01*
X172504000Y-37603309D01*
X172600673Y-37836698D01*
X172779301Y-38015327D01*
X173012690Y-38112000D01*
X173703250Y-38112000D01*
X173862000Y-37953250D01*
X173862000Y-36754000D01*
X172662750Y-36754000D01*
X172504000Y-36912750D01*
X159504440Y-36912750D01*
X159504440Y-36198000D01*
X159455157Y-35950235D01*
X159314809Y-35740191D01*
X159180864Y-35650691D01*
X172504000Y-35650691D01*
X172504000Y-36341250D01*
X172662750Y-36500000D01*
X173862000Y-36500000D01*
X173862000Y-35300750D01*
X173703250Y-35142000D01*
X173012690Y-35142000D01*
X172779301Y-35238673D01*
X172600673Y-35417302D01*
X172504000Y-35650691D01*
X159180864Y-35650691D01*
X159104765Y-35599843D01*
X158857000Y-35550560D01*
X157507000Y-35550560D01*
X157259235Y-35599843D01*
X157049191Y-35740191D01*
X156986032Y-35834714D01*
X156693136Y-35639007D01*
X156311022Y-35563000D01*
X156052978Y-35563000D01*
X155670864Y-35639007D01*
X155237543Y-35928543D01*
X155182000Y-36011669D01*
X155126457Y-35928543D01*
X154693136Y-35639007D01*
X154311022Y-35563000D01*
X154052978Y-35563000D01*
X153670864Y-35639007D01*
X153237543Y-35928543D01*
X153182000Y-36011669D01*
X153126457Y-35928543D01*
X152693136Y-35639007D01*
X152311022Y-35563000D01*
X152052978Y-35563000D01*
X151670864Y-35639007D01*
X151237543Y-35928543D01*
X151182000Y-36011669D01*
X151126457Y-35928543D01*
X150693136Y-35639007D01*
X150311022Y-35563000D01*
X150052978Y-35563000D01*
X149670864Y-35639007D01*
X149237543Y-35928543D01*
X149182000Y-36011669D01*
X149126457Y-35928543D01*
X148693136Y-35639007D01*
X148311022Y-35563000D01*
X148052978Y-35563000D01*
X147670864Y-35639007D01*
X147237543Y-35928543D01*
X147182000Y-36011669D01*
X147126457Y-35928543D01*
X146693136Y-35639007D01*
X146311022Y-35563000D01*
X146052978Y-35563000D01*
X145670864Y-35639007D01*
X145237543Y-35928543D01*
X145168844Y-36031358D01*
X144845633Y-35743522D01*
X144511400Y-35605090D01*
X144309000Y-35728776D01*
X144309000Y-36746000D01*
X144329000Y-36746000D01*
X144329000Y-37000000D01*
X144309000Y-37000000D01*
X144309000Y-37020000D01*
X144055000Y-37020000D01*
X144055000Y-37000000D01*
X143036910Y-37000000D01*
X142914080Y-37202402D01*
X143136651Y-37662540D01*
X143350554Y-37853032D01*
X143237543Y-37928543D01*
X142948007Y-38361864D01*
X142846336Y-38873000D01*
X104045239Y-38873000D01*
X103922153Y-38749914D01*
X103321222Y-38501000D01*
X102670778Y-38501000D01*
X102069847Y-38749914D01*
X101609914Y-39209847D01*
X101361000Y-39810778D01*
X70235000Y-39810778D01*
X70235000Y-39555431D01*
X69894741Y-38733974D01*
X69266026Y-38105259D01*
X68444569Y-37765000D01*
X67555431Y-37765000D01*
X66733974Y-38105259D01*
X66105259Y-38733974D01*
X65765000Y-39555431D01*
X63735000Y-39555431D01*
X63735000Y-36543598D01*
X142914080Y-36543598D01*
X143036910Y-36746000D01*
X144055000Y-36746000D01*
X144055000Y-35728776D01*
X143852600Y-35605090D01*
X143518367Y-35743522D01*
X143136651Y-36083460D01*
X142914080Y-36543598D01*
X63735000Y-36543598D01*
X63735000Y-35042702D01*
X63800594Y-34480082D01*
X63979191Y-33988056D01*
X64266192Y-33550308D01*
X64646190Y-33190332D01*
X65098821Y-32927424D01*
X65609416Y-32772780D01*
X66032732Y-32735000D01*
X188873000Y-32735000D01*
X188873000Y-37553765D01*
G04 #@! TD*
M02*
