%TF.GenerationSoftware,KiCad,Pcbnew,(5.0.0)*%
%TF.CreationDate,2018-09-13T00:45:38+01:00*%
%TF.ProjectId,AquaHub,417175614875622E6B696361645F7063,rev?*%
%TF.SameCoordinates,Original*%
%TF.FileFunction,Soldermask,Bot*%
%TF.FilePolarity,Negative*%
%FSLAX46Y46*%
G04 Gerber Fmt 4.6, Leading zero omitted, Abs format (unit mm)*
G04 Created by KiCad (PCBNEW (5.0.0)) date 09/13/18 00:45:38*
%MOMM*%
%LPD*%
G01*
G04 APERTURE LIST*
%ADD10C,0.200000*%
%ADD11O,1.470000X2.200000*%
%ADD12R,1.470000X2.200000*%
%ADD13O,2.127200X2.127200*%
%ADD14R,2.127200X2.127200*%
%ADD15C,2.200000*%
%ADD16C,2.400000*%
%ADD17R,2.400000X2.400000*%
%ADD18O,2.100000X2.100000*%
%ADD19R,2.100000X2.100000*%
%ADD20C,1.924000*%
%ADD21C,4.700000*%
%ADD22C,2.900000*%
%ADD23C,1.400000*%
%ADD24C,3.000000*%
%ADD25R,3.000000X3.000000*%
%ADD26C,3.200000*%
G04 APERTURE END LIST*
D10*
X55118000Y-106680000D02*
X48006000Y-106680000D01*
X55118000Y-109728000D02*
X55118000Y-106680000D01*
X51054000Y-109728000D02*
X55118000Y-109728000D01*
X146050000Y-115570000D02*
X146050000Y-118110000D01*
X140335000Y-78105000D02*
X140335000Y-75565000D01*
X148590000Y-75565000D02*
X148590000Y-78105000D01*
X148590000Y-78105000D02*
X208280000Y-78105000D01*
X208280000Y-75565000D02*
X148590000Y-75565000D01*
X208280000Y-52070000D02*
X208280000Y-75565000D01*
X38100000Y-52070000D02*
X208280000Y-52070000D01*
X38100000Y-75565000D02*
X38100000Y-52070000D01*
X140335000Y-75565000D02*
X38100000Y-75565000D01*
X48006000Y-118364000D02*
X48006000Y-106680000D01*
X146050000Y-118110000D02*
X48006000Y-118364000D01*
X51054000Y-115316000D02*
X146050000Y-115570000D01*
X51054000Y-109728000D02*
X51054000Y-115316000D01*
X38100000Y-153670000D02*
X208280000Y-153670000D01*
X38100000Y-78105000D02*
X38100000Y-153670000D01*
X140335000Y-78105000D02*
X38100000Y-78105000D01*
X208280000Y-78105000D02*
X208280000Y-153670000D01*
D11*
X120015000Y-59055000D03*
X118745000Y-59055000D03*
X117475000Y-59055000D03*
D12*
X116205000Y-59055000D03*
D13*
X144780000Y-84328000D03*
X144780000Y-81788000D03*
X147320000Y-84328000D03*
X147320000Y-81788000D03*
X149860000Y-84328000D03*
D14*
X149860000Y-81788000D03*
D15*
X49805000Y-104020000D03*
X52705000Y-96520000D03*
D14*
X153035000Y-60960000D03*
D13*
X150495000Y-60960000D03*
X153035000Y-63500000D03*
X150495000Y-63500000D03*
X153035000Y-66040000D03*
X150495000Y-66040000D03*
D16*
X115515000Y-65405000D03*
X120015000Y-65405000D03*
X115515000Y-71905000D03*
X120015000Y-71905000D03*
X69365000Y-71905000D03*
X64865000Y-71905000D03*
X69365000Y-65405000D03*
X64865000Y-65405000D03*
X89708344Y-88927320D03*
X89707344Y-96547320D03*
X61720000Y-88927320D03*
D17*
X61720000Y-104140000D03*
D18*
X202819000Y-117602000D03*
X202819000Y-115062000D03*
D19*
X202819000Y-112522000D03*
D20*
X60960000Y-113030000D03*
X60960000Y-120650000D03*
X60960000Y-125730000D03*
X60960000Y-130810000D03*
X53340000Y-130810000D03*
X53340000Y-125730000D03*
X53340000Y-120650000D03*
X53340000Y-113030000D03*
X77470000Y-113030000D03*
X77470000Y-120650000D03*
X77470000Y-125730000D03*
X77470000Y-130810000D03*
X69850000Y-130810000D03*
X69850000Y-125730000D03*
X69850000Y-120650000D03*
X69850000Y-113030000D03*
X93980000Y-113030000D03*
X93980000Y-120650000D03*
X93980000Y-125730000D03*
X93980000Y-130810000D03*
X86360000Y-130810000D03*
X86360000Y-125730000D03*
X86360000Y-120650000D03*
X86360000Y-113030000D03*
X110490000Y-112776000D03*
X110490000Y-120396000D03*
X110490000Y-125476000D03*
X110490000Y-130556000D03*
X102870000Y-130556000D03*
X102870000Y-125476000D03*
X102870000Y-120396000D03*
X102870000Y-112776000D03*
X127254000Y-112776000D03*
X127254000Y-120396000D03*
X127254000Y-125476000D03*
X127254000Y-130556000D03*
X119634000Y-130556000D03*
X119634000Y-125476000D03*
X119634000Y-120396000D03*
X119634000Y-112776000D03*
X144145000Y-112776000D03*
X144145000Y-120396000D03*
X144145000Y-125476000D03*
X144145000Y-130556000D03*
X136525000Y-130556000D03*
X136525000Y-125476000D03*
X136525000Y-120396000D03*
X136525000Y-112776000D03*
D21*
X43180000Y-83185000D03*
X43180000Y-148590000D03*
X203200000Y-83185000D03*
X203200000Y-148590000D03*
D18*
X202819000Y-98044000D03*
X202819000Y-95504000D03*
X202819000Y-92964000D03*
D19*
X202819000Y-90424000D03*
D11*
X107315000Y-59055000D03*
X106045000Y-59055000D03*
X104775000Y-59055000D03*
D12*
X103505000Y-59055000D03*
D11*
X94615000Y-59055000D03*
X93345000Y-59055000D03*
X92075000Y-59055000D03*
D12*
X90805000Y-59055000D03*
D11*
X81915000Y-59055000D03*
X80645000Y-59055000D03*
X79375000Y-59055000D03*
D12*
X78105000Y-59055000D03*
D11*
X69215000Y-59055000D03*
X67945000Y-59055000D03*
X66675000Y-59055000D03*
D12*
X65405000Y-59055000D03*
D11*
X56515000Y-59055000D03*
X55245000Y-59055000D03*
X53975000Y-59055000D03*
D12*
X52705000Y-59055000D03*
D22*
X204470000Y-64135000D03*
X41910000Y-64135000D03*
D16*
X102965000Y-65405000D03*
X107465000Y-65405000D03*
X102965000Y-71905000D03*
X107465000Y-71905000D03*
X94765000Y-71905000D03*
X90265000Y-71905000D03*
X94765000Y-65405000D03*
X90265000Y-65405000D03*
X77415000Y-65405000D03*
X81915000Y-65405000D03*
X77415000Y-71905000D03*
X81915000Y-71905000D03*
X57205000Y-71905000D03*
X52705000Y-71905000D03*
X57205000Y-65405000D03*
X52705000Y-65405000D03*
D23*
X147320000Y-76835000D03*
X145415000Y-76835000D03*
X143510000Y-76835000D03*
X141605000Y-76835000D03*
D24*
X92884000Y-140335000D03*
D25*
X87884000Y-140335000D03*
X104521000Y-140335000D03*
D24*
X109521000Y-140335000D03*
X126158000Y-140335000D03*
D25*
X121158000Y-140335000D03*
D24*
X59610000Y-140335000D03*
D25*
X54610000Y-140335000D03*
X178435000Y-140335000D03*
D24*
X183435000Y-140335000D03*
X188435000Y-140335000D03*
X76247000Y-140335000D03*
D25*
X71247000Y-140335000D03*
X137795000Y-140335000D03*
D24*
X142795000Y-140335000D03*
D25*
X155575000Y-140335000D03*
D24*
X160575000Y-140335000D03*
X165575000Y-140335000D03*
D19*
X202819000Y-106680000D03*
D18*
X202819000Y-104140000D03*
D26*
X123825000Y-95885000D03*
X123825000Y-91440000D03*
X123825000Y-86995000D03*
X123825000Y-100330000D03*
M02*
