G04 #@! TF.GenerationSoftware,KiCad,Pcbnew,(6.0.0-rc1-dev-904-g29e0e6921)*
G04 #@! TF.CreationDate,2018-10-15T14:12:22+01:00*
G04 #@! TF.ProjectId,AquaHub,417175614875622E6B696361645F7063,rev?*
G04 #@! TF.SameCoordinates,Original*
G04 #@! TF.FileFunction,Copper,L1,Top,Signal*
G04 #@! TF.FilePolarity,Positive*
%FSLAX46Y46*%
G04 Gerber Fmt 4.6, Leading zero omitted, Abs format (unit mm)*
G04 Created by KiCad (PCBNEW (6.0.0-rc1-dev-904-g29e0e6921)) date 15/10/2018 14:12:22*
%MOMM*%
%LPD*%
G01*
G04 APERTURE LIST*
G04 #@! TA.AperFunction,ComponentPad*
%ADD10O,1.727200X1.727200*%
G04 #@! TD*
G04 #@! TA.AperFunction,ComponentPad*
%ADD11R,1.727200X1.727200*%
G04 #@! TD*
G04 #@! TA.AperFunction,SMDPad,CuDef*
%ADD12R,1.500000X0.600000*%
G04 #@! TD*
G04 #@! TA.AperFunction,ComponentPad*
%ADD13C,1.800000*%
G04 #@! TD*
G04 #@! TA.AperFunction,ComponentPad*
%ADD14R,1.800000X1.800000*%
G04 #@! TD*
G04 #@! TA.AperFunction,SMDPad,CuDef*
%ADD15R,0.600000X1.500000*%
G04 #@! TD*
G04 #@! TA.AperFunction,ComponentPad*
%ADD16C,2.200000*%
G04 #@! TD*
G04 #@! TA.AperFunction,ComponentPad*
%ADD17O,1.700000X1.700000*%
G04 #@! TD*
G04 #@! TA.AperFunction,ComponentPad*
%ADD18R,1.700000X1.700000*%
G04 #@! TD*
G04 #@! TA.AperFunction,ComponentPad*
%ADD19C,2.500000*%
G04 #@! TD*
G04 #@! TA.AperFunction,ComponentPad*
%ADD20R,2.500000X2.500000*%
G04 #@! TD*
G04 #@! TA.AperFunction,ComponentPad*
%ADD21C,2.600000*%
G04 #@! TD*
G04 #@! TA.AperFunction,ComponentPad*
%ADD22R,2.600000X2.600000*%
G04 #@! TD*
G04 #@! TA.AperFunction,SMDPad,CuDef*
%ADD23R,1.600000X3.000000*%
G04 #@! TD*
G04 #@! TA.AperFunction,Conductor*
%ADD24C,0.100000*%
G04 #@! TD*
G04 #@! TA.AperFunction,SMDPad,CuDef*
%ADD25C,1.500000*%
G04 #@! TD*
G04 #@! TA.AperFunction,SMDPad,CuDef*
%ADD26R,6.400000X5.800000*%
G04 #@! TD*
G04 #@! TA.AperFunction,SMDPad,CuDef*
%ADD27R,2.200000X1.200000*%
G04 #@! TD*
G04 #@! TA.AperFunction,SMDPad,CuDef*
%ADD28R,0.600000X1.550000*%
G04 #@! TD*
G04 #@! TA.AperFunction,SMDPad,CuDef*
%ADD29C,1.150000*%
G04 #@! TD*
G04 #@! TA.AperFunction,SMDPad,CuDef*
%ADD30R,1.600000X3.500000*%
G04 #@! TD*
G04 #@! TA.AperFunction,ComponentPad*
%ADD31C,2.800000*%
G04 #@! TD*
G04 #@! TA.AperFunction,ComponentPad*
%ADD32C,2.780000*%
G04 #@! TD*
G04 #@! TA.AperFunction,SMDPad,CuDef*
%ADD33C,0.950000*%
G04 #@! TD*
G04 #@! TA.AperFunction,ComponentPad*
%ADD34C,2.000000*%
G04 #@! TD*
G04 #@! TA.AperFunction,ComponentPad*
%ADD35R,2.000000X2.000000*%
G04 #@! TD*
G04 #@! TA.AperFunction,ComponentPad*
%ADD36C,1.000000*%
G04 #@! TD*
G04 #@! TA.AperFunction,SMDPad,CuDef*
%ADD37R,4.000000X4.000000*%
G04 #@! TD*
G04 #@! TA.AperFunction,SMDPad,CuDef*
%ADD38R,5.000000X5.000000*%
G04 #@! TD*
G04 #@! TA.AperFunction,SMDPad,CuDef*
%ADD39R,0.800000X0.900000*%
G04 #@! TD*
G04 #@! TA.AperFunction,SMDPad,CuDef*
%ADD40O,2.500000X0.900000*%
G04 #@! TD*
G04 #@! TA.AperFunction,SMDPad,CuDef*
%ADD41O,0.900000X2.500000*%
G04 #@! TD*
G04 #@! TA.AperFunction,SMDPad,CuDef*
%ADD42R,6.000000X6.000000*%
G04 #@! TD*
G04 #@! TA.AperFunction,ViaPad*
%ADD43C,1.000000*%
G04 #@! TD*
G04 #@! TA.AperFunction,Conductor*
%ADD44C,0.152400*%
G04 #@! TD*
G04 #@! TA.AperFunction,Conductor*
%ADD45C,2.000000*%
G04 #@! TD*
G04 APERTURE END LIST*
D10*
G04 #@! TO.P,J7,10*
G04 #@! TO.N,+5V*
X176212500Y-82994500D03*
G04 #@! TO.P,J7,9*
G04 #@! TO.N,Power_Sense*
X176212500Y-80454500D03*
G04 #@! TO.P,J7,8*
G04 #@! TO.N,RE5*
X178752500Y-82994500D03*
G04 #@! TO.P,J7,7*
G04 #@! TO.N,RE6*
X178752500Y-80454500D03*
G04 #@! TO.P,J7,6*
G04 #@! TO.N,RE3*
X181292500Y-82994500D03*
G04 #@! TO.P,J7,5*
G04 #@! TO.N,RE4*
X181292500Y-80454500D03*
G04 #@! TO.P,J7,4*
G04 #@! TO.N,RE1*
X183832500Y-82994500D03*
G04 #@! TO.P,J7,3*
G04 #@! TO.N,RE2*
X183832500Y-80454500D03*
G04 #@! TO.P,J7,2*
G04 #@! TO.N,GND*
X186372500Y-82994500D03*
D11*
G04 #@! TO.P,J7,1*
G04 #@! TO.N,+12V*
X186372500Y-80454500D03*
G04 #@! TD*
D12*
G04 #@! TO.P,U8,1*
G04 #@! TO.N,+5V*
X167927000Y-53340000D03*
G04 #@! TO.P,U8,2*
G04 #@! TO.N,SDA*
X167927000Y-52070000D03*
G04 #@! TO.P,U8,3*
G04 #@! TO.N,Net-(D1-Pad1)*
X167927000Y-50800000D03*
G04 #@! TO.P,U8,4*
G04 #@! TO.N,Net-(D2-Pad1)*
X167927000Y-49530000D03*
G04 #@! TO.P,U8,5*
G04 #@! TO.N,Net-(D3-Pad1)*
X167927000Y-48260000D03*
G04 #@! TO.P,U8,6*
G04 #@! TO.N,Net-(D4-Pad1)*
X167927000Y-46990000D03*
G04 #@! TO.P,U8,7*
G04 #@! TO.N,GND*
X167927000Y-45720000D03*
G04 #@! TO.P,U8,8*
X167927000Y-44450000D03*
G04 #@! TO.P,U8,9*
X162527000Y-44450000D03*
G04 #@! TO.P,U8,10*
X162527000Y-45720000D03*
G04 #@! TO.P,U8,11*
G04 #@! TO.N,Net-(D5-Pad1)*
X162527000Y-46990000D03*
G04 #@! TO.P,U8,12*
G04 #@! TO.N,Net-(D6-Pad1)*
X162527000Y-48260000D03*
G04 #@! TO.P,U8,13*
G04 #@! TO.N,Net-(D7-Pad1)*
X162527000Y-49530000D03*
G04 #@! TO.P,U8,14*
G04 #@! TO.N,N/C*
X162527000Y-50800000D03*
G04 #@! TO.P,U8,15*
G04 #@! TO.N,SCL*
X162527000Y-52070000D03*
G04 #@! TO.P,U8,16*
G04 #@! TO.N,GND*
X162527000Y-53340000D03*
G04 #@! TD*
D13*
G04 #@! TO.P,D1,2*
G04 #@! TO.N,Net-(D1-Pad2)*
X195072000Y-40000000D03*
D14*
G04 #@! TO.P,D1,1*
G04 #@! TO.N,Net-(D1-Pad1)*
X195072000Y-42540000D03*
G04 #@! TD*
D15*
G04 #@! TO.P,U6,16*
G04 #@! TO.N,+5V*
X80645000Y-59650000D03*
G04 #@! TO.P,U6,15*
G04 #@! TO.N,SDA*
X79375000Y-59650000D03*
G04 #@! TO.P,U6,14*
G04 #@! TO.N,SCL*
X78105000Y-59650000D03*
G04 #@! TO.P,U6,13*
G04 #@! TO.N,Net-(R2-Pad2)*
X76835000Y-59650000D03*
G04 #@! TO.P,U6,12*
G04 #@! TO.N,N/C*
X75565000Y-59650000D03*
G04 #@! TO.P,U6,11*
X74295000Y-59650000D03*
G04 #@! TO.P,U6,10*
G04 #@! TO.N,Net-(SW2-Pad1)*
X73025000Y-59650000D03*
G04 #@! TO.P,U6,9*
G04 #@! TO.N,Net-(SW1-Pad1)*
X71755000Y-59650000D03*
G04 #@! TO.P,U6,8*
G04 #@! TO.N,GND*
X71755000Y-50350000D03*
G04 #@! TO.P,U6,7*
G04 #@! TO.N,Net-(SW6-Pad1)*
X73025000Y-50350000D03*
G04 #@! TO.P,U6,6*
G04 #@! TO.N,Net-(SW5-Pad1)*
X74295000Y-50350000D03*
G04 #@! TO.P,U6,5*
G04 #@! TO.N,Net-(SW4-Pad1)*
X75565000Y-50350000D03*
G04 #@! TO.P,U6,4*
G04 #@! TO.N,Net-(SW3-Pad1)*
X76835000Y-50350000D03*
G04 #@! TO.P,U6,3*
G04 #@! TO.N,GND*
X78105000Y-50350000D03*
G04 #@! TO.P,U6,2*
X79375000Y-50350000D03*
G04 #@! TO.P,U6,1*
X80645000Y-50350000D03*
G04 #@! TD*
D16*
G04 #@! TO.P,SW3,2*
G04 #@! TO.N,GND*
X152500000Y-52500000D03*
G04 #@! TO.P,SW3,1*
G04 #@! TO.N,Net-(SW3-Pad1)*
X157500000Y-52500000D03*
G04 #@! TO.P,SW3,4*
G04 #@! TO.N,GND*
X152500000Y-57500000D03*
G04 #@! TO.P,SW3,3*
G04 #@! TO.N,Net-(SW3-Pad1)*
X157500000Y-57500000D03*
G04 #@! TD*
D17*
G04 #@! TO.P,J14,3*
G04 #@! TO.N,+5V*
X198893000Y-36765000D03*
G04 #@! TO.P,J14,2*
G04 #@! TO.N,/Temp_Sense*
X201433000Y-36765000D03*
D18*
G04 #@! TO.P,J14,1*
G04 #@! TO.N,GND*
X203973000Y-36765000D03*
G04 #@! TD*
D19*
G04 #@! TO.P,K1,8*
G04 #@! TO.N,/NEUTRAL1*
X101460000Y-131350000D03*
G04 #@! TO.P,K1,7*
G04 #@! TO.N,/NEUTRAL*
X101460000Y-126350000D03*
G04 #@! TO.P,K1,5*
G04 #@! TO.N,+12V*
X101460000Y-106350000D03*
G04 #@! TO.P,K1,4*
G04 #@! TO.N,RE1*
X108960000Y-106350000D03*
G04 #@! TO.P,K1,2*
G04 #@! TO.N,/LIVE*
X108960000Y-126350000D03*
D20*
G04 #@! TO.P,K1,1*
G04 #@! TO.N,/LIVE1*
X108960000Y-131350000D03*
G04 #@! TD*
D16*
G04 #@! TO.P,SW2,2*
G04 #@! TO.N,GND*
X172500000Y-52500000D03*
G04 #@! TO.P,SW2,1*
G04 #@! TO.N,Net-(SW2-Pad1)*
X177500000Y-52500000D03*
G04 #@! TO.P,SW2,4*
G04 #@! TO.N,GND*
X172500000Y-57500000D03*
G04 #@! TO.P,SW2,3*
G04 #@! TO.N,Net-(SW2-Pad1)*
X177500000Y-57500000D03*
G04 #@! TD*
G04 #@! TO.P,SW4,2*
G04 #@! TO.N,GND*
X132500000Y-52500000D03*
G04 #@! TO.P,SW4,1*
G04 #@! TO.N,Net-(SW4-Pad1)*
X137500000Y-52500000D03*
G04 #@! TO.P,SW4,4*
G04 #@! TO.N,GND*
X132500000Y-57500000D03*
G04 #@! TO.P,SW4,3*
G04 #@! TO.N,Net-(SW4-Pad1)*
X137500000Y-57500000D03*
G04 #@! TD*
D19*
G04 #@! TO.P,K6,8*
G04 #@! TO.N,/NEUTRAL6*
X184525000Y-131350000D03*
G04 #@! TO.P,K6,7*
G04 #@! TO.N,/NEUTRAL*
X184525000Y-126350000D03*
G04 #@! TO.P,K6,5*
G04 #@! TO.N,+12V*
X184525000Y-106350000D03*
G04 #@! TO.P,K6,4*
G04 #@! TO.N,RE6*
X192025000Y-106350000D03*
G04 #@! TO.P,K6,2*
G04 #@! TO.N,/LIVE*
X192025000Y-126350000D03*
D20*
G04 #@! TO.P,K6,1*
G04 #@! TO.N,/LIVE6*
X192025000Y-131350000D03*
G04 #@! TD*
D21*
G04 #@! TO.P,J8,2*
G04 #@! TO.N,/UNFUSED_LIVE*
X219243000Y-138335000D03*
D22*
G04 #@! TO.P,J8,1*
G04 #@! TO.N,/NEUTRAL*
X214243000Y-138335000D03*
G04 #@! TD*
D21*
G04 #@! TO.P,J6,2*
G04 #@! TO.N,/LIVE6*
X190795000Y-138335000D03*
D22*
G04 #@! TO.P,J6,1*
G04 #@! TO.N,/NEUTRAL6*
X185795000Y-138335000D03*
G04 #@! TD*
D21*
G04 #@! TO.P,J2,2*
G04 #@! TO.N,/LIVE2*
X124247000Y-138335000D03*
D22*
G04 #@! TO.P,J2,1*
G04 #@! TO.N,/NEUTRAL2*
X119247000Y-138335000D03*
G04 #@! TD*
D21*
G04 #@! TO.P,J1,2*
G04 #@! TO.N,/LIVE1*
X107610000Y-138335000D03*
D22*
G04 #@! TO.P,J1,1*
G04 #@! TO.N,/NEUTRAL1*
X102610000Y-138335000D03*
G04 #@! TD*
D21*
G04 #@! TO.P,J5,2*
G04 #@! TO.N,/LIVE5*
X174158000Y-138335000D03*
D22*
G04 #@! TO.P,J5,1*
G04 #@! TO.N,/NEUTRAL5*
X169158000Y-138335000D03*
G04 #@! TD*
D21*
G04 #@! TO.P,J4,2*
G04 #@! TO.N,/LIVE4*
X157521000Y-138335000D03*
D22*
G04 #@! TO.P,J4,1*
G04 #@! TO.N,/NEUTRAL4*
X152521000Y-138335000D03*
G04 #@! TD*
D21*
G04 #@! TO.P,J3,2*
G04 #@! TO.N,/LIVE3*
X140884000Y-138335000D03*
D22*
G04 #@! TO.P,J3,1*
G04 #@! TO.N,/NEUTRAL3*
X135884000Y-138335000D03*
G04 #@! TD*
D17*
G04 #@! TO.P,J13,2*
G04 #@! TO.N,GND*
X192532000Y-60833000D03*
D18*
G04 #@! TO.P,J13,1*
G04 #@! TO.N,/IO0*
X192532000Y-63373000D03*
G04 #@! TD*
D23*
G04 #@! TO.P,C7,2*
G04 #@! TO.N,GND*
X127340000Y-72900000D03*
G04 #@! TO.P,C7,1*
G04 #@! TO.N,+5V*
X127340000Y-77300000D03*
G04 #@! TD*
D24*
G04 #@! TO.N,GND*
G04 #@! TO.C,C4*
G36*
X228025504Y-73979204D02*
X228049773Y-73982804D01*
X228073571Y-73988765D01*
X228096671Y-73997030D01*
X228118849Y-74007520D01*
X228139893Y-74020133D01*
X228159598Y-74034747D01*
X228177777Y-74051223D01*
X228194253Y-74069402D01*
X228208867Y-74089107D01*
X228221480Y-74110151D01*
X228231970Y-74132329D01*
X228240235Y-74155429D01*
X228246196Y-74179227D01*
X228249796Y-74203496D01*
X228251000Y-74228000D01*
X228251000Y-75228000D01*
X228249796Y-75252504D01*
X228246196Y-75276773D01*
X228240235Y-75300571D01*
X228231970Y-75323671D01*
X228221480Y-75345849D01*
X228208867Y-75366893D01*
X228194253Y-75386598D01*
X228177777Y-75404777D01*
X228159598Y-75421253D01*
X228139893Y-75435867D01*
X228118849Y-75448480D01*
X228096671Y-75458970D01*
X228073571Y-75467235D01*
X228049773Y-75473196D01*
X228025504Y-75476796D01*
X228001000Y-75478000D01*
X226151000Y-75478000D01*
X226126496Y-75476796D01*
X226102227Y-75473196D01*
X226078429Y-75467235D01*
X226055329Y-75458970D01*
X226033151Y-75448480D01*
X226012107Y-75435867D01*
X225992402Y-75421253D01*
X225974223Y-75404777D01*
X225957747Y-75386598D01*
X225943133Y-75366893D01*
X225930520Y-75345849D01*
X225920030Y-75323671D01*
X225911765Y-75300571D01*
X225905804Y-75276773D01*
X225902204Y-75252504D01*
X225901000Y-75228000D01*
X225901000Y-74228000D01*
X225902204Y-74203496D01*
X225905804Y-74179227D01*
X225911765Y-74155429D01*
X225920030Y-74132329D01*
X225930520Y-74110151D01*
X225943133Y-74089107D01*
X225957747Y-74069402D01*
X225974223Y-74051223D01*
X225992402Y-74034747D01*
X226012107Y-74020133D01*
X226033151Y-74007520D01*
X226055329Y-73997030D01*
X226078429Y-73988765D01*
X226102227Y-73982804D01*
X226126496Y-73979204D01*
X226151000Y-73978000D01*
X228001000Y-73978000D01*
X228025504Y-73979204D01*
X228025504Y-73979204D01*
G37*
D25*
G04 #@! TD*
G04 #@! TO.P,C4,2*
G04 #@! TO.N,GND*
X227076000Y-74728000D03*
D24*
G04 #@! TO.N,+3V3*
G04 #@! TO.C,C4*
G36*
X228025504Y-77229204D02*
X228049773Y-77232804D01*
X228073571Y-77238765D01*
X228096671Y-77247030D01*
X228118849Y-77257520D01*
X228139893Y-77270133D01*
X228159598Y-77284747D01*
X228177777Y-77301223D01*
X228194253Y-77319402D01*
X228208867Y-77339107D01*
X228221480Y-77360151D01*
X228231970Y-77382329D01*
X228240235Y-77405429D01*
X228246196Y-77429227D01*
X228249796Y-77453496D01*
X228251000Y-77478000D01*
X228251000Y-78478000D01*
X228249796Y-78502504D01*
X228246196Y-78526773D01*
X228240235Y-78550571D01*
X228231970Y-78573671D01*
X228221480Y-78595849D01*
X228208867Y-78616893D01*
X228194253Y-78636598D01*
X228177777Y-78654777D01*
X228159598Y-78671253D01*
X228139893Y-78685867D01*
X228118849Y-78698480D01*
X228096671Y-78708970D01*
X228073571Y-78717235D01*
X228049773Y-78723196D01*
X228025504Y-78726796D01*
X228001000Y-78728000D01*
X226151000Y-78728000D01*
X226126496Y-78726796D01*
X226102227Y-78723196D01*
X226078429Y-78717235D01*
X226055329Y-78708970D01*
X226033151Y-78698480D01*
X226012107Y-78685867D01*
X225992402Y-78671253D01*
X225974223Y-78654777D01*
X225957747Y-78636598D01*
X225943133Y-78616893D01*
X225930520Y-78595849D01*
X225920030Y-78573671D01*
X225911765Y-78550571D01*
X225905804Y-78526773D01*
X225902204Y-78502504D01*
X225901000Y-78478000D01*
X225901000Y-77478000D01*
X225902204Y-77453496D01*
X225905804Y-77429227D01*
X225911765Y-77405429D01*
X225920030Y-77382329D01*
X225930520Y-77360151D01*
X225943133Y-77339107D01*
X225957747Y-77319402D01*
X225974223Y-77301223D01*
X225992402Y-77284747D01*
X226012107Y-77270133D01*
X226033151Y-77257520D01*
X226055329Y-77247030D01*
X226078429Y-77238765D01*
X226102227Y-77232804D01*
X226126496Y-77229204D01*
X226151000Y-77228000D01*
X228001000Y-77228000D01*
X228025504Y-77229204D01*
X228025504Y-77229204D01*
G37*
D25*
G04 #@! TD*
G04 #@! TO.P,C4,1*
G04 #@! TO.N,+3V3*
X227076000Y-77978000D03*
D13*
G04 #@! TO.P,RV1,2*
G04 #@! TO.N,/NEUTRAL*
X93100000Y-128906000D03*
G04 #@! TO.P,RV1,1*
G04 #@! TO.N,/LIVE*
X96000000Y-121406000D03*
G04 #@! TD*
D26*
G04 #@! TO.P,U3,2*
G04 #@! TO.N,+3V3*
X150395000Y-75445000D03*
D27*
G04 #@! TO.P,U3,3*
G04 #@! TO.N,+12V*
X144095000Y-77725000D03*
G04 #@! TO.P,U3,2*
G04 #@! TO.N,+3V3*
X144095000Y-75445000D03*
G04 #@! TO.P,U3,1*
G04 #@! TO.N,GND*
X144095000Y-73165000D03*
G04 #@! TD*
D28*
G04 #@! TO.P,U2,8*
G04 #@! TO.N,+5V*
X201932979Y-115809195D03*
G04 #@! TO.P,U2,7*
G04 #@! TO.N,Power_Sense*
X203202979Y-115809195D03*
G04 #@! TO.P,U2,6*
G04 #@! TO.N,GND*
X204472979Y-115809195D03*
G04 #@! TO.P,U2,5*
X205742979Y-115809195D03*
G04 #@! TO.P,U2,4*
G04 #@! TO.N,/LIVE_IN*
X205742979Y-121209195D03*
G04 #@! TO.P,U2,3*
X204472979Y-121209195D03*
G04 #@! TO.P,U2,2*
G04 #@! TO.N,/LIVE*
X203202979Y-121209195D03*
G04 #@! TO.P,U2,1*
X201932979Y-121209195D03*
G04 #@! TD*
D15*
G04 #@! TO.P,U4,16*
G04 #@! TO.N,RE6*
X182054500Y-75018500D03*
G04 #@! TO.P,U4,15*
G04 #@! TO.N,RE5*
X180784500Y-75018500D03*
G04 #@! TO.P,U4,14*
G04 #@! TO.N,RE4*
X179514500Y-75018500D03*
G04 #@! TO.P,U4,13*
G04 #@! TO.N,RE3*
X178244500Y-75018500D03*
G04 #@! TO.P,U4,12*
G04 #@! TO.N,RE2*
X176974500Y-75018500D03*
G04 #@! TO.P,U4,11*
G04 #@! TO.N,RE1*
X175704500Y-75018500D03*
G04 #@! TO.P,U4,10*
G04 #@! TO.N,N/C*
X174434500Y-75018500D03*
G04 #@! TO.P,U4,9*
G04 #@! TO.N,+12V*
X173164500Y-75018500D03*
G04 #@! TO.P,U4,8*
G04 #@! TO.N,GND*
X173164500Y-69618500D03*
G04 #@! TO.P,U4,7*
G04 #@! TO.N,N/C*
X174434500Y-69618500D03*
G04 #@! TO.P,U4,6*
G04 #@! TO.N,/POW1*
X175704500Y-69618500D03*
G04 #@! TO.P,U4,5*
G04 #@! TO.N,/POW2*
X176974500Y-69618500D03*
G04 #@! TO.P,U4,4*
G04 #@! TO.N,/POW3*
X178244500Y-69618500D03*
G04 #@! TO.P,U4,3*
G04 #@! TO.N,/POW4*
X179514500Y-69618500D03*
G04 #@! TO.P,U4,2*
G04 #@! TO.N,/POW5*
X180784500Y-69618500D03*
G04 #@! TO.P,U4,1*
G04 #@! TO.N,/POW6*
X182054500Y-69618500D03*
G04 #@! TD*
D24*
G04 #@! TO.N,GND*
G04 #@! TO.C,C3*
G36*
X222470505Y-57574204D02*
X222494773Y-57577804D01*
X222518572Y-57583765D01*
X222541671Y-57592030D01*
X222563850Y-57602520D01*
X222584893Y-57615132D01*
X222604599Y-57629747D01*
X222622777Y-57646223D01*
X222639253Y-57664401D01*
X222653868Y-57684107D01*
X222666480Y-57705150D01*
X222676970Y-57727329D01*
X222685235Y-57750428D01*
X222691196Y-57774227D01*
X222694796Y-57798495D01*
X222696000Y-57822999D01*
X222696000Y-58473001D01*
X222694796Y-58497505D01*
X222691196Y-58521773D01*
X222685235Y-58545572D01*
X222676970Y-58568671D01*
X222666480Y-58590850D01*
X222653868Y-58611893D01*
X222639253Y-58631599D01*
X222622777Y-58649777D01*
X222604599Y-58666253D01*
X222584893Y-58680868D01*
X222563850Y-58693480D01*
X222541671Y-58703970D01*
X222518572Y-58712235D01*
X222494773Y-58718196D01*
X222470505Y-58721796D01*
X222446001Y-58723000D01*
X221545999Y-58723000D01*
X221521495Y-58721796D01*
X221497227Y-58718196D01*
X221473428Y-58712235D01*
X221450329Y-58703970D01*
X221428150Y-58693480D01*
X221407107Y-58680868D01*
X221387401Y-58666253D01*
X221369223Y-58649777D01*
X221352747Y-58631599D01*
X221338132Y-58611893D01*
X221325520Y-58590850D01*
X221315030Y-58568671D01*
X221306765Y-58545572D01*
X221300804Y-58521773D01*
X221297204Y-58497505D01*
X221296000Y-58473001D01*
X221296000Y-57822999D01*
X221297204Y-57798495D01*
X221300804Y-57774227D01*
X221306765Y-57750428D01*
X221315030Y-57727329D01*
X221325520Y-57705150D01*
X221338132Y-57684107D01*
X221352747Y-57664401D01*
X221369223Y-57646223D01*
X221387401Y-57629747D01*
X221407107Y-57615132D01*
X221428150Y-57602520D01*
X221450329Y-57592030D01*
X221473428Y-57583765D01*
X221497227Y-57577804D01*
X221521495Y-57574204D01*
X221545999Y-57573000D01*
X222446001Y-57573000D01*
X222470505Y-57574204D01*
X222470505Y-57574204D01*
G37*
D29*
G04 #@! TD*
G04 #@! TO.P,C3,2*
G04 #@! TO.N,GND*
X221996000Y-58148000D03*
D24*
G04 #@! TO.N,+3V3*
G04 #@! TO.C,C3*
G36*
X222470505Y-59624204D02*
X222494773Y-59627804D01*
X222518572Y-59633765D01*
X222541671Y-59642030D01*
X222563850Y-59652520D01*
X222584893Y-59665132D01*
X222604599Y-59679747D01*
X222622777Y-59696223D01*
X222639253Y-59714401D01*
X222653868Y-59734107D01*
X222666480Y-59755150D01*
X222676970Y-59777329D01*
X222685235Y-59800428D01*
X222691196Y-59824227D01*
X222694796Y-59848495D01*
X222696000Y-59872999D01*
X222696000Y-60523001D01*
X222694796Y-60547505D01*
X222691196Y-60571773D01*
X222685235Y-60595572D01*
X222676970Y-60618671D01*
X222666480Y-60640850D01*
X222653868Y-60661893D01*
X222639253Y-60681599D01*
X222622777Y-60699777D01*
X222604599Y-60716253D01*
X222584893Y-60730868D01*
X222563850Y-60743480D01*
X222541671Y-60753970D01*
X222518572Y-60762235D01*
X222494773Y-60768196D01*
X222470505Y-60771796D01*
X222446001Y-60773000D01*
X221545999Y-60773000D01*
X221521495Y-60771796D01*
X221497227Y-60768196D01*
X221473428Y-60762235D01*
X221450329Y-60753970D01*
X221428150Y-60743480D01*
X221407107Y-60730868D01*
X221387401Y-60716253D01*
X221369223Y-60699777D01*
X221352747Y-60681599D01*
X221338132Y-60661893D01*
X221325520Y-60640850D01*
X221315030Y-60618671D01*
X221306765Y-60595572D01*
X221300804Y-60571773D01*
X221297204Y-60547505D01*
X221296000Y-60523001D01*
X221296000Y-59872999D01*
X221297204Y-59848495D01*
X221300804Y-59824227D01*
X221306765Y-59800428D01*
X221315030Y-59777329D01*
X221325520Y-59755150D01*
X221338132Y-59734107D01*
X221352747Y-59714401D01*
X221369223Y-59696223D01*
X221387401Y-59679747D01*
X221407107Y-59665132D01*
X221428150Y-59652520D01*
X221450329Y-59642030D01*
X221473428Y-59633765D01*
X221497227Y-59627804D01*
X221521495Y-59624204D01*
X221545999Y-59623000D01*
X222446001Y-59623000D01*
X222470505Y-59624204D01*
X222470505Y-59624204D01*
G37*
D29*
G04 #@! TD*
G04 #@! TO.P,C3,1*
G04 #@! TO.N,+3V3*
X221996000Y-60198000D03*
D30*
G04 #@! TO.P,C5,2*
G04 #@! TO.N,GND*
X108360000Y-72555000D03*
G04 #@! TO.P,C5,1*
G04 #@! TO.N,+12V*
X108360000Y-77955000D03*
G04 #@! TD*
G04 #@! TO.P,C6,2*
G04 #@! TO.N,GND*
X138330000Y-72905000D03*
G04 #@! TO.P,C6,1*
G04 #@! TO.N,+12V*
X138330000Y-78305000D03*
G04 #@! TD*
D23*
G04 #@! TO.P,C8,2*
G04 #@! TO.N,GND*
X157380000Y-73585000D03*
G04 #@! TO.P,C8,1*
G04 #@! TO.N,+3V3*
X157380000Y-77985000D03*
G04 #@! TD*
D26*
G04 #@! TO.P,U5,2*
G04 #@! TO.N,+5V*
X120440000Y-75480000D03*
D27*
G04 #@! TO.P,U5,3*
G04 #@! TO.N,+12V*
X114140000Y-77760000D03*
G04 #@! TO.P,U5,2*
G04 #@! TO.N,+5V*
X114140000Y-75480000D03*
G04 #@! TO.P,U5,1*
G04 #@! TO.N,GND*
X114140000Y-73200000D03*
G04 #@! TD*
D31*
G04 #@! TO.P,TP1,1*
G04 #@! TO.N,+5V*
X132540000Y-77985000D03*
G04 #@! TD*
G04 #@! TO.P,TP2,1*
G04 #@! TO.N,+3V3*
X162702000Y-77985000D03*
G04 #@! TD*
G04 #@! TO.P,TP3,1*
G04 #@! TO.N,GND*
X162702000Y-73585000D03*
G04 #@! TD*
G04 #@! TO.P,TP4,1*
G04 #@! TO.N,+12V*
X102600000Y-77985000D03*
G04 #@! TD*
D17*
G04 #@! TO.P,J10,6*
G04 #@! TO.N,+3V3*
X227056000Y-70904000D03*
G04 #@! TO.P,J10,5*
G04 #@! TO.N,/TX*
X227056000Y-68364000D03*
G04 #@! TO.P,J10,4*
G04 #@! TO.N,/RX*
X227056000Y-65824000D03*
G04 #@! TO.P,J10,3*
G04 #@! TO.N,/EN*
X227056000Y-63284000D03*
G04 #@! TO.P,J10,2*
G04 #@! TO.N,/IO0*
X227056000Y-60744000D03*
D18*
G04 #@! TO.P,J10,1*
G04 #@! TO.N,GND*
X227056000Y-58204000D03*
G04 #@! TD*
D32*
G04 #@! TO.P,F1,2*
G04 #@! TO.N,/UNFUSED_LIVE*
X214780000Y-128175000D03*
X218180000Y-128175000D03*
G04 #@! TO.P,F1,1*
G04 #@! TO.N,/LIVE_IN*
X214780000Y-118255000D03*
X218180000Y-118255000D03*
G04 #@! TD*
D24*
G04 #@! TO.N,+5V*
G04 #@! TO.C,C1*
G36*
X202874779Y-106746144D02*
X202897834Y-106749563D01*
X202920443Y-106755227D01*
X202942387Y-106763079D01*
X202963457Y-106773044D01*
X202983448Y-106785026D01*
X203002168Y-106798910D01*
X203019438Y-106814562D01*
X203035090Y-106831832D01*
X203048974Y-106850552D01*
X203060956Y-106870543D01*
X203070921Y-106891613D01*
X203078773Y-106913557D01*
X203084437Y-106936166D01*
X203087856Y-106959221D01*
X203089000Y-106982500D01*
X203089000Y-107457500D01*
X203087856Y-107480779D01*
X203084437Y-107503834D01*
X203078773Y-107526443D01*
X203070921Y-107548387D01*
X203060956Y-107569457D01*
X203048974Y-107589448D01*
X203035090Y-107608168D01*
X203019438Y-107625438D01*
X203002168Y-107641090D01*
X202983448Y-107654974D01*
X202963457Y-107666956D01*
X202942387Y-107676921D01*
X202920443Y-107684773D01*
X202897834Y-107690437D01*
X202874779Y-107693856D01*
X202851500Y-107695000D01*
X202276500Y-107695000D01*
X202253221Y-107693856D01*
X202230166Y-107690437D01*
X202207557Y-107684773D01*
X202185613Y-107676921D01*
X202164543Y-107666956D01*
X202144552Y-107654974D01*
X202125832Y-107641090D01*
X202108562Y-107625438D01*
X202092910Y-107608168D01*
X202079026Y-107589448D01*
X202067044Y-107569457D01*
X202057079Y-107548387D01*
X202049227Y-107526443D01*
X202043563Y-107503834D01*
X202040144Y-107480779D01*
X202039000Y-107457500D01*
X202039000Y-106982500D01*
X202040144Y-106959221D01*
X202043563Y-106936166D01*
X202049227Y-106913557D01*
X202057079Y-106891613D01*
X202067044Y-106870543D01*
X202079026Y-106850552D01*
X202092910Y-106831832D01*
X202108562Y-106814562D01*
X202125832Y-106798910D01*
X202144552Y-106785026D01*
X202164543Y-106773044D01*
X202185613Y-106763079D01*
X202207557Y-106755227D01*
X202230166Y-106749563D01*
X202253221Y-106746144D01*
X202276500Y-106745000D01*
X202851500Y-106745000D01*
X202874779Y-106746144D01*
X202874779Y-106746144D01*
G37*
D33*
G04 #@! TD*
G04 #@! TO.P,C1,2*
G04 #@! TO.N,+5V*
X202564000Y-107220000D03*
D24*
G04 #@! TO.N,GND*
G04 #@! TO.C,C1*
G36*
X204624779Y-106746144D02*
X204647834Y-106749563D01*
X204670443Y-106755227D01*
X204692387Y-106763079D01*
X204713457Y-106773044D01*
X204733448Y-106785026D01*
X204752168Y-106798910D01*
X204769438Y-106814562D01*
X204785090Y-106831832D01*
X204798974Y-106850552D01*
X204810956Y-106870543D01*
X204820921Y-106891613D01*
X204828773Y-106913557D01*
X204834437Y-106936166D01*
X204837856Y-106959221D01*
X204839000Y-106982500D01*
X204839000Y-107457500D01*
X204837856Y-107480779D01*
X204834437Y-107503834D01*
X204828773Y-107526443D01*
X204820921Y-107548387D01*
X204810956Y-107569457D01*
X204798974Y-107589448D01*
X204785090Y-107608168D01*
X204769438Y-107625438D01*
X204752168Y-107641090D01*
X204733448Y-107654974D01*
X204713457Y-107666956D01*
X204692387Y-107676921D01*
X204670443Y-107684773D01*
X204647834Y-107690437D01*
X204624779Y-107693856D01*
X204601500Y-107695000D01*
X204026500Y-107695000D01*
X204003221Y-107693856D01*
X203980166Y-107690437D01*
X203957557Y-107684773D01*
X203935613Y-107676921D01*
X203914543Y-107666956D01*
X203894552Y-107654974D01*
X203875832Y-107641090D01*
X203858562Y-107625438D01*
X203842910Y-107608168D01*
X203829026Y-107589448D01*
X203817044Y-107569457D01*
X203807079Y-107548387D01*
X203799227Y-107526443D01*
X203793563Y-107503834D01*
X203790144Y-107480779D01*
X203789000Y-107457500D01*
X203789000Y-106982500D01*
X203790144Y-106959221D01*
X203793563Y-106936166D01*
X203799227Y-106913557D01*
X203807079Y-106891613D01*
X203817044Y-106870543D01*
X203829026Y-106850552D01*
X203842910Y-106831832D01*
X203858562Y-106814562D01*
X203875832Y-106798910D01*
X203894552Y-106785026D01*
X203914543Y-106773044D01*
X203935613Y-106763079D01*
X203957557Y-106755227D01*
X203980166Y-106749563D01*
X204003221Y-106746144D01*
X204026500Y-106745000D01*
X204601500Y-106745000D01*
X204624779Y-106746144D01*
X204624779Y-106746144D01*
G37*
D33*
G04 #@! TD*
G04 #@! TO.P,C1,1*
G04 #@! TO.N,GND*
X204314000Y-107220000D03*
D24*
G04 #@! TO.N,GND*
G04 #@! TO.C,C2*
G36*
X204624779Y-111826144D02*
X204647834Y-111829563D01*
X204670443Y-111835227D01*
X204692387Y-111843079D01*
X204713457Y-111853044D01*
X204733448Y-111865026D01*
X204752168Y-111878910D01*
X204769438Y-111894562D01*
X204785090Y-111911832D01*
X204798974Y-111930552D01*
X204810956Y-111950543D01*
X204820921Y-111971613D01*
X204828773Y-111993557D01*
X204834437Y-112016166D01*
X204837856Y-112039221D01*
X204839000Y-112062500D01*
X204839000Y-112537500D01*
X204837856Y-112560779D01*
X204834437Y-112583834D01*
X204828773Y-112606443D01*
X204820921Y-112628387D01*
X204810956Y-112649457D01*
X204798974Y-112669448D01*
X204785090Y-112688168D01*
X204769438Y-112705438D01*
X204752168Y-112721090D01*
X204733448Y-112734974D01*
X204713457Y-112746956D01*
X204692387Y-112756921D01*
X204670443Y-112764773D01*
X204647834Y-112770437D01*
X204624779Y-112773856D01*
X204601500Y-112775000D01*
X204026500Y-112775000D01*
X204003221Y-112773856D01*
X203980166Y-112770437D01*
X203957557Y-112764773D01*
X203935613Y-112756921D01*
X203914543Y-112746956D01*
X203894552Y-112734974D01*
X203875832Y-112721090D01*
X203858562Y-112705438D01*
X203842910Y-112688168D01*
X203829026Y-112669448D01*
X203817044Y-112649457D01*
X203807079Y-112628387D01*
X203799227Y-112606443D01*
X203793563Y-112583834D01*
X203790144Y-112560779D01*
X203789000Y-112537500D01*
X203789000Y-112062500D01*
X203790144Y-112039221D01*
X203793563Y-112016166D01*
X203799227Y-111993557D01*
X203807079Y-111971613D01*
X203817044Y-111950543D01*
X203829026Y-111930552D01*
X203842910Y-111911832D01*
X203858562Y-111894562D01*
X203875832Y-111878910D01*
X203894552Y-111865026D01*
X203914543Y-111853044D01*
X203935613Y-111843079D01*
X203957557Y-111835227D01*
X203980166Y-111829563D01*
X204003221Y-111826144D01*
X204026500Y-111825000D01*
X204601500Y-111825000D01*
X204624779Y-111826144D01*
X204624779Y-111826144D01*
G37*
D33*
G04 #@! TD*
G04 #@! TO.P,C2,2*
G04 #@! TO.N,GND*
X204314000Y-112300000D03*
D24*
G04 #@! TO.N,Power_Sense*
G04 #@! TO.C,C2*
G36*
X202874779Y-111826144D02*
X202897834Y-111829563D01*
X202920443Y-111835227D01*
X202942387Y-111843079D01*
X202963457Y-111853044D01*
X202983448Y-111865026D01*
X203002168Y-111878910D01*
X203019438Y-111894562D01*
X203035090Y-111911832D01*
X203048974Y-111930552D01*
X203060956Y-111950543D01*
X203070921Y-111971613D01*
X203078773Y-111993557D01*
X203084437Y-112016166D01*
X203087856Y-112039221D01*
X203089000Y-112062500D01*
X203089000Y-112537500D01*
X203087856Y-112560779D01*
X203084437Y-112583834D01*
X203078773Y-112606443D01*
X203070921Y-112628387D01*
X203060956Y-112649457D01*
X203048974Y-112669448D01*
X203035090Y-112688168D01*
X203019438Y-112705438D01*
X203002168Y-112721090D01*
X202983448Y-112734974D01*
X202963457Y-112746956D01*
X202942387Y-112756921D01*
X202920443Y-112764773D01*
X202897834Y-112770437D01*
X202874779Y-112773856D01*
X202851500Y-112775000D01*
X202276500Y-112775000D01*
X202253221Y-112773856D01*
X202230166Y-112770437D01*
X202207557Y-112764773D01*
X202185613Y-112756921D01*
X202164543Y-112746956D01*
X202144552Y-112734974D01*
X202125832Y-112721090D01*
X202108562Y-112705438D01*
X202092910Y-112688168D01*
X202079026Y-112669448D01*
X202067044Y-112649457D01*
X202057079Y-112628387D01*
X202049227Y-112606443D01*
X202043563Y-112583834D01*
X202040144Y-112560779D01*
X202039000Y-112537500D01*
X202039000Y-112062500D01*
X202040144Y-112039221D01*
X202043563Y-112016166D01*
X202049227Y-111993557D01*
X202057079Y-111971613D01*
X202067044Y-111950543D01*
X202079026Y-111930552D01*
X202092910Y-111911832D01*
X202108562Y-111894562D01*
X202125832Y-111878910D01*
X202144552Y-111865026D01*
X202164543Y-111853044D01*
X202185613Y-111843079D01*
X202207557Y-111835227D01*
X202230166Y-111829563D01*
X202253221Y-111826144D01*
X202276500Y-111825000D01*
X202851500Y-111825000D01*
X202874779Y-111826144D01*
X202874779Y-111826144D01*
G37*
D33*
G04 #@! TD*
G04 #@! TO.P,C2,1*
G04 #@! TO.N,Power_Sense*
X202564000Y-112300000D03*
D34*
G04 #@! TO.P,V1,5*
G04 #@! TO.N,+12V*
X67564000Y-101600000D03*
G04 #@! TO.P,V1,3*
G04 #@! TO.N,N/C*
X85344000Y-96520000D03*
G04 #@! TO.P,V1,4*
G04 #@! TO.N,GND*
X67564000Y-96520000D03*
G04 #@! TO.P,V1,2*
G04 #@! TO.N,/NEUTRAL*
X85344000Y-121920000D03*
D35*
G04 #@! TO.P,V1,1*
G04 #@! TO.N,/LIVE*
X85344000Y-127000000D03*
G04 #@! TD*
D24*
G04 #@! TO.N,/EN*
G04 #@! TO.C,R5*
G36*
X224669779Y-75831144D02*
X224692834Y-75834563D01*
X224715443Y-75840227D01*
X224737387Y-75848079D01*
X224758457Y-75858044D01*
X224778448Y-75870026D01*
X224797168Y-75883910D01*
X224814438Y-75899562D01*
X224830090Y-75916832D01*
X224843974Y-75935552D01*
X224855956Y-75955543D01*
X224865921Y-75976613D01*
X224873773Y-75998557D01*
X224879437Y-76021166D01*
X224882856Y-76044221D01*
X224884000Y-76067500D01*
X224884000Y-76642500D01*
X224882856Y-76665779D01*
X224879437Y-76688834D01*
X224873773Y-76711443D01*
X224865921Y-76733387D01*
X224855956Y-76754457D01*
X224843974Y-76774448D01*
X224830090Y-76793168D01*
X224814438Y-76810438D01*
X224797168Y-76826090D01*
X224778448Y-76839974D01*
X224758457Y-76851956D01*
X224737387Y-76861921D01*
X224715443Y-76869773D01*
X224692834Y-76875437D01*
X224669779Y-76878856D01*
X224646500Y-76880000D01*
X224171500Y-76880000D01*
X224148221Y-76878856D01*
X224125166Y-76875437D01*
X224102557Y-76869773D01*
X224080613Y-76861921D01*
X224059543Y-76851956D01*
X224039552Y-76839974D01*
X224020832Y-76826090D01*
X224003562Y-76810438D01*
X223987910Y-76793168D01*
X223974026Y-76774448D01*
X223962044Y-76754457D01*
X223952079Y-76733387D01*
X223944227Y-76711443D01*
X223938563Y-76688834D01*
X223935144Y-76665779D01*
X223934000Y-76642500D01*
X223934000Y-76067500D01*
X223935144Y-76044221D01*
X223938563Y-76021166D01*
X223944227Y-75998557D01*
X223952079Y-75976613D01*
X223962044Y-75955543D01*
X223974026Y-75935552D01*
X223987910Y-75916832D01*
X224003562Y-75899562D01*
X224020832Y-75883910D01*
X224039552Y-75870026D01*
X224059543Y-75858044D01*
X224080613Y-75848079D01*
X224102557Y-75840227D01*
X224125166Y-75834563D01*
X224148221Y-75831144D01*
X224171500Y-75830000D01*
X224646500Y-75830000D01*
X224669779Y-75831144D01*
X224669779Y-75831144D01*
G37*
D33*
G04 #@! TD*
G04 #@! TO.P,R5,2*
G04 #@! TO.N,/EN*
X224409000Y-76355000D03*
D24*
G04 #@! TO.N,+3V3*
G04 #@! TO.C,R5*
G36*
X224669779Y-77581144D02*
X224692834Y-77584563D01*
X224715443Y-77590227D01*
X224737387Y-77598079D01*
X224758457Y-77608044D01*
X224778448Y-77620026D01*
X224797168Y-77633910D01*
X224814438Y-77649562D01*
X224830090Y-77666832D01*
X224843974Y-77685552D01*
X224855956Y-77705543D01*
X224865921Y-77726613D01*
X224873773Y-77748557D01*
X224879437Y-77771166D01*
X224882856Y-77794221D01*
X224884000Y-77817500D01*
X224884000Y-78392500D01*
X224882856Y-78415779D01*
X224879437Y-78438834D01*
X224873773Y-78461443D01*
X224865921Y-78483387D01*
X224855956Y-78504457D01*
X224843974Y-78524448D01*
X224830090Y-78543168D01*
X224814438Y-78560438D01*
X224797168Y-78576090D01*
X224778448Y-78589974D01*
X224758457Y-78601956D01*
X224737387Y-78611921D01*
X224715443Y-78619773D01*
X224692834Y-78625437D01*
X224669779Y-78628856D01*
X224646500Y-78630000D01*
X224171500Y-78630000D01*
X224148221Y-78628856D01*
X224125166Y-78625437D01*
X224102557Y-78619773D01*
X224080613Y-78611921D01*
X224059543Y-78601956D01*
X224039552Y-78589974D01*
X224020832Y-78576090D01*
X224003562Y-78560438D01*
X223987910Y-78543168D01*
X223974026Y-78524448D01*
X223962044Y-78504457D01*
X223952079Y-78483387D01*
X223944227Y-78461443D01*
X223938563Y-78438834D01*
X223935144Y-78415779D01*
X223934000Y-78392500D01*
X223934000Y-77817500D01*
X223935144Y-77794221D01*
X223938563Y-77771166D01*
X223944227Y-77748557D01*
X223952079Y-77726613D01*
X223962044Y-77705543D01*
X223974026Y-77685552D01*
X223987910Y-77666832D01*
X224003562Y-77649562D01*
X224020832Y-77633910D01*
X224039552Y-77620026D01*
X224059543Y-77608044D01*
X224080613Y-77598079D01*
X224102557Y-77590227D01*
X224125166Y-77584563D01*
X224148221Y-77581144D01*
X224171500Y-77580000D01*
X224646500Y-77580000D01*
X224669779Y-77581144D01*
X224669779Y-77581144D01*
G37*
D33*
G04 #@! TD*
G04 #@! TO.P,R5,1*
G04 #@! TO.N,+3V3*
X224409000Y-78105000D03*
D24*
G04 #@! TO.N,GND*
G04 #@! TO.C,R1*
G36*
X204624779Y-109286144D02*
X204647834Y-109289563D01*
X204670443Y-109295227D01*
X204692387Y-109303079D01*
X204713457Y-109313044D01*
X204733448Y-109325026D01*
X204752168Y-109338910D01*
X204769438Y-109354562D01*
X204785090Y-109371832D01*
X204798974Y-109390552D01*
X204810956Y-109410543D01*
X204820921Y-109431613D01*
X204828773Y-109453557D01*
X204834437Y-109476166D01*
X204837856Y-109499221D01*
X204839000Y-109522500D01*
X204839000Y-109997500D01*
X204837856Y-110020779D01*
X204834437Y-110043834D01*
X204828773Y-110066443D01*
X204820921Y-110088387D01*
X204810956Y-110109457D01*
X204798974Y-110129448D01*
X204785090Y-110148168D01*
X204769438Y-110165438D01*
X204752168Y-110181090D01*
X204733448Y-110194974D01*
X204713457Y-110206956D01*
X204692387Y-110216921D01*
X204670443Y-110224773D01*
X204647834Y-110230437D01*
X204624779Y-110233856D01*
X204601500Y-110235000D01*
X204026500Y-110235000D01*
X204003221Y-110233856D01*
X203980166Y-110230437D01*
X203957557Y-110224773D01*
X203935613Y-110216921D01*
X203914543Y-110206956D01*
X203894552Y-110194974D01*
X203875832Y-110181090D01*
X203858562Y-110165438D01*
X203842910Y-110148168D01*
X203829026Y-110129448D01*
X203817044Y-110109457D01*
X203807079Y-110088387D01*
X203799227Y-110066443D01*
X203793563Y-110043834D01*
X203790144Y-110020779D01*
X203789000Y-109997500D01*
X203789000Y-109522500D01*
X203790144Y-109499221D01*
X203793563Y-109476166D01*
X203799227Y-109453557D01*
X203807079Y-109431613D01*
X203817044Y-109410543D01*
X203829026Y-109390552D01*
X203842910Y-109371832D01*
X203858562Y-109354562D01*
X203875832Y-109338910D01*
X203894552Y-109325026D01*
X203914543Y-109313044D01*
X203935613Y-109303079D01*
X203957557Y-109295227D01*
X203980166Y-109289563D01*
X204003221Y-109286144D01*
X204026500Y-109285000D01*
X204601500Y-109285000D01*
X204624779Y-109286144D01*
X204624779Y-109286144D01*
G37*
D33*
G04 #@! TD*
G04 #@! TO.P,R1,2*
G04 #@! TO.N,GND*
X204314000Y-109760000D03*
D24*
G04 #@! TO.N,Power_Sense*
G04 #@! TO.C,R1*
G36*
X202874779Y-109286144D02*
X202897834Y-109289563D01*
X202920443Y-109295227D01*
X202942387Y-109303079D01*
X202963457Y-109313044D01*
X202983448Y-109325026D01*
X203002168Y-109338910D01*
X203019438Y-109354562D01*
X203035090Y-109371832D01*
X203048974Y-109390552D01*
X203060956Y-109410543D01*
X203070921Y-109431613D01*
X203078773Y-109453557D01*
X203084437Y-109476166D01*
X203087856Y-109499221D01*
X203089000Y-109522500D01*
X203089000Y-109997500D01*
X203087856Y-110020779D01*
X203084437Y-110043834D01*
X203078773Y-110066443D01*
X203070921Y-110088387D01*
X203060956Y-110109457D01*
X203048974Y-110129448D01*
X203035090Y-110148168D01*
X203019438Y-110165438D01*
X203002168Y-110181090D01*
X202983448Y-110194974D01*
X202963457Y-110206956D01*
X202942387Y-110216921D01*
X202920443Y-110224773D01*
X202897834Y-110230437D01*
X202874779Y-110233856D01*
X202851500Y-110235000D01*
X202276500Y-110235000D01*
X202253221Y-110233856D01*
X202230166Y-110230437D01*
X202207557Y-110224773D01*
X202185613Y-110216921D01*
X202164543Y-110206956D01*
X202144552Y-110194974D01*
X202125832Y-110181090D01*
X202108562Y-110165438D01*
X202092910Y-110148168D01*
X202079026Y-110129448D01*
X202067044Y-110109457D01*
X202057079Y-110088387D01*
X202049227Y-110066443D01*
X202043563Y-110043834D01*
X202040144Y-110020779D01*
X202039000Y-109997500D01*
X202039000Y-109522500D01*
X202040144Y-109499221D01*
X202043563Y-109476166D01*
X202049227Y-109453557D01*
X202057079Y-109431613D01*
X202067044Y-109410543D01*
X202079026Y-109390552D01*
X202092910Y-109371832D01*
X202108562Y-109354562D01*
X202125832Y-109338910D01*
X202144552Y-109325026D01*
X202164543Y-109313044D01*
X202185613Y-109303079D01*
X202207557Y-109295227D01*
X202230166Y-109289563D01*
X202253221Y-109286144D01*
X202276500Y-109285000D01*
X202851500Y-109285000D01*
X202874779Y-109286144D01*
X202874779Y-109286144D01*
G37*
D33*
G04 #@! TD*
G04 #@! TO.P,R1,1*
G04 #@! TO.N,Power_Sense*
X202564000Y-109760000D03*
D19*
G04 #@! TO.P,K2,8*
G04 #@! TO.N,/NEUTRAL2*
X117970000Y-131350000D03*
G04 #@! TO.P,K2,7*
G04 #@! TO.N,/NEUTRAL*
X117970000Y-126350000D03*
G04 #@! TO.P,K2,5*
G04 #@! TO.N,+12V*
X117970000Y-106350000D03*
G04 #@! TO.P,K2,4*
G04 #@! TO.N,RE2*
X125470000Y-106350000D03*
G04 #@! TO.P,K2,2*
G04 #@! TO.N,/LIVE*
X125470000Y-126350000D03*
D20*
G04 #@! TO.P,K2,1*
G04 #@! TO.N,/LIVE2*
X125470000Y-131350000D03*
G04 #@! TD*
D19*
G04 #@! TO.P,K3,8*
G04 #@! TO.N,/NEUTRAL3*
X134480000Y-131350000D03*
G04 #@! TO.P,K3,7*
G04 #@! TO.N,/NEUTRAL*
X134480000Y-126350000D03*
G04 #@! TO.P,K3,5*
G04 #@! TO.N,+12V*
X134480000Y-106350000D03*
G04 #@! TO.P,K3,4*
G04 #@! TO.N,RE3*
X141980000Y-106350000D03*
G04 #@! TO.P,K3,2*
G04 #@! TO.N,/LIVE*
X141980000Y-126350000D03*
D20*
G04 #@! TO.P,K3,1*
G04 #@! TO.N,/LIVE3*
X141980000Y-131350000D03*
G04 #@! TD*
D19*
G04 #@! TO.P,K4,8*
G04 #@! TO.N,/NEUTRAL4*
X150990000Y-131350000D03*
G04 #@! TO.P,K4,7*
G04 #@! TO.N,/NEUTRAL*
X150990000Y-126350000D03*
G04 #@! TO.P,K4,5*
G04 #@! TO.N,+12V*
X150990000Y-106350000D03*
G04 #@! TO.P,K4,4*
G04 #@! TO.N,RE4*
X158490000Y-106350000D03*
G04 #@! TO.P,K4,2*
G04 #@! TO.N,/LIVE*
X158490000Y-126350000D03*
D20*
G04 #@! TO.P,K4,1*
G04 #@! TO.N,/LIVE4*
X158490000Y-131350000D03*
G04 #@! TD*
D19*
G04 #@! TO.P,K5,8*
G04 #@! TO.N,/NEUTRAL5*
X167754000Y-131350000D03*
G04 #@! TO.P,K5,7*
G04 #@! TO.N,/NEUTRAL*
X167754000Y-126350000D03*
G04 #@! TO.P,K5,5*
G04 #@! TO.N,+12V*
X167754000Y-106350000D03*
G04 #@! TO.P,K5,4*
G04 #@! TO.N,RE5*
X175254000Y-106350000D03*
G04 #@! TO.P,K5,2*
G04 #@! TO.N,/LIVE*
X175254000Y-126350000D03*
D20*
G04 #@! TO.P,K5,1*
G04 #@! TO.N,/LIVE5*
X175254000Y-131350000D03*
G04 #@! TD*
D16*
G04 #@! TO.P,SW1,2*
G04 #@! TO.N,GND*
X192500000Y-52500000D03*
G04 #@! TO.P,SW1,1*
G04 #@! TO.N,Net-(SW1-Pad1)*
X197500000Y-52500000D03*
G04 #@! TO.P,SW1,4*
G04 #@! TO.N,GND*
X192500000Y-57500000D03*
G04 #@! TO.P,SW1,3*
G04 #@! TO.N,Net-(SW1-Pad1)*
X197500000Y-57500000D03*
G04 #@! TD*
G04 #@! TO.P,SW5,2*
G04 #@! TO.N,GND*
X112500000Y-52500000D03*
G04 #@! TO.P,SW5,1*
G04 #@! TO.N,Net-(SW5-Pad1)*
X117500000Y-52500000D03*
G04 #@! TO.P,SW5,4*
G04 #@! TO.N,GND*
X112500000Y-57500000D03*
G04 #@! TO.P,SW5,3*
G04 #@! TO.N,Net-(SW5-Pad1)*
X117500000Y-57500000D03*
G04 #@! TD*
G04 #@! TO.P,SW6,2*
G04 #@! TO.N,GND*
X92500000Y-52500000D03*
G04 #@! TO.P,SW6,1*
G04 #@! TO.N,Net-(SW6-Pad1)*
X97500000Y-52500000D03*
G04 #@! TO.P,SW6,4*
G04 #@! TO.N,GND*
X92500000Y-57500000D03*
G04 #@! TO.P,SW6,3*
G04 #@! TO.N,Net-(SW6-Pad1)*
X97500000Y-57500000D03*
G04 #@! TD*
D24*
G04 #@! TO.N,Net-(Q2-Pad3)*
G04 #@! TO.C,R10*
G36*
X97260779Y-71926144D02*
X97283834Y-71929563D01*
X97306443Y-71935227D01*
X97328387Y-71943079D01*
X97349457Y-71953044D01*
X97369448Y-71965026D01*
X97388168Y-71978910D01*
X97405438Y-71994562D01*
X97421090Y-72011832D01*
X97434974Y-72030552D01*
X97446956Y-72050543D01*
X97456921Y-72071613D01*
X97464773Y-72093557D01*
X97470437Y-72116166D01*
X97473856Y-72139221D01*
X97475000Y-72162500D01*
X97475000Y-72737500D01*
X97473856Y-72760779D01*
X97470437Y-72783834D01*
X97464773Y-72806443D01*
X97456921Y-72828387D01*
X97446956Y-72849457D01*
X97434974Y-72869448D01*
X97421090Y-72888168D01*
X97405438Y-72905438D01*
X97388168Y-72921090D01*
X97369448Y-72934974D01*
X97349457Y-72946956D01*
X97328387Y-72956921D01*
X97306443Y-72964773D01*
X97283834Y-72970437D01*
X97260779Y-72973856D01*
X97237500Y-72975000D01*
X96762500Y-72975000D01*
X96739221Y-72973856D01*
X96716166Y-72970437D01*
X96693557Y-72964773D01*
X96671613Y-72956921D01*
X96650543Y-72946956D01*
X96630552Y-72934974D01*
X96611832Y-72921090D01*
X96594562Y-72905438D01*
X96578910Y-72888168D01*
X96565026Y-72869448D01*
X96553044Y-72849457D01*
X96543079Y-72828387D01*
X96535227Y-72806443D01*
X96529563Y-72783834D01*
X96526144Y-72760779D01*
X96525000Y-72737500D01*
X96525000Y-72162500D01*
X96526144Y-72139221D01*
X96529563Y-72116166D01*
X96535227Y-72093557D01*
X96543079Y-72071613D01*
X96553044Y-72050543D01*
X96565026Y-72030552D01*
X96578910Y-72011832D01*
X96594562Y-71994562D01*
X96611832Y-71978910D01*
X96630552Y-71965026D01*
X96650543Y-71953044D01*
X96671613Y-71943079D01*
X96693557Y-71935227D01*
X96716166Y-71929563D01*
X96739221Y-71926144D01*
X96762500Y-71925000D01*
X97237500Y-71925000D01*
X97260779Y-71926144D01*
X97260779Y-71926144D01*
G37*
D33*
G04 #@! TD*
G04 #@! TO.P,R10,2*
G04 #@! TO.N,Net-(Q2-Pad3)*
X97000000Y-72450000D03*
D24*
G04 #@! TO.N,/Sounder*
G04 #@! TO.C,R10*
G36*
X97260779Y-70176144D02*
X97283834Y-70179563D01*
X97306443Y-70185227D01*
X97328387Y-70193079D01*
X97349457Y-70203044D01*
X97369448Y-70215026D01*
X97388168Y-70228910D01*
X97405438Y-70244562D01*
X97421090Y-70261832D01*
X97434974Y-70280552D01*
X97446956Y-70300543D01*
X97456921Y-70321613D01*
X97464773Y-70343557D01*
X97470437Y-70366166D01*
X97473856Y-70389221D01*
X97475000Y-70412500D01*
X97475000Y-70987500D01*
X97473856Y-71010779D01*
X97470437Y-71033834D01*
X97464773Y-71056443D01*
X97456921Y-71078387D01*
X97446956Y-71099457D01*
X97434974Y-71119448D01*
X97421090Y-71138168D01*
X97405438Y-71155438D01*
X97388168Y-71171090D01*
X97369448Y-71184974D01*
X97349457Y-71196956D01*
X97328387Y-71206921D01*
X97306443Y-71214773D01*
X97283834Y-71220437D01*
X97260779Y-71223856D01*
X97237500Y-71225000D01*
X96762500Y-71225000D01*
X96739221Y-71223856D01*
X96716166Y-71220437D01*
X96693557Y-71214773D01*
X96671613Y-71206921D01*
X96650543Y-71196956D01*
X96630552Y-71184974D01*
X96611832Y-71171090D01*
X96594562Y-71155438D01*
X96578910Y-71138168D01*
X96565026Y-71119448D01*
X96553044Y-71099457D01*
X96543079Y-71078387D01*
X96535227Y-71056443D01*
X96529563Y-71033834D01*
X96526144Y-71010779D01*
X96525000Y-70987500D01*
X96525000Y-70412500D01*
X96526144Y-70389221D01*
X96529563Y-70366166D01*
X96535227Y-70343557D01*
X96543079Y-70321613D01*
X96553044Y-70300543D01*
X96565026Y-70280552D01*
X96578910Y-70261832D01*
X96594562Y-70244562D01*
X96611832Y-70228910D01*
X96630552Y-70215026D01*
X96650543Y-70203044D01*
X96671613Y-70193079D01*
X96693557Y-70185227D01*
X96716166Y-70179563D01*
X96739221Y-70176144D01*
X96762500Y-70175000D01*
X97237500Y-70175000D01*
X97260779Y-70176144D01*
X97260779Y-70176144D01*
G37*
D33*
G04 #@! TD*
G04 #@! TO.P,R10,1*
G04 #@! TO.N,/Sounder*
X97000000Y-70700000D03*
D24*
G04 #@! TO.N,+5V*
G04 #@! TO.C,R11*
G36*
X90960779Y-71826144D02*
X90983834Y-71829563D01*
X91006443Y-71835227D01*
X91028387Y-71843079D01*
X91049457Y-71853044D01*
X91069448Y-71865026D01*
X91088168Y-71878910D01*
X91105438Y-71894562D01*
X91121090Y-71911832D01*
X91134974Y-71930552D01*
X91146956Y-71950543D01*
X91156921Y-71971613D01*
X91164773Y-71993557D01*
X91170437Y-72016166D01*
X91173856Y-72039221D01*
X91175000Y-72062500D01*
X91175000Y-72637500D01*
X91173856Y-72660779D01*
X91170437Y-72683834D01*
X91164773Y-72706443D01*
X91156921Y-72728387D01*
X91146956Y-72749457D01*
X91134974Y-72769448D01*
X91121090Y-72788168D01*
X91105438Y-72805438D01*
X91088168Y-72821090D01*
X91069448Y-72834974D01*
X91049457Y-72846956D01*
X91028387Y-72856921D01*
X91006443Y-72864773D01*
X90983834Y-72870437D01*
X90960779Y-72873856D01*
X90937500Y-72875000D01*
X90462500Y-72875000D01*
X90439221Y-72873856D01*
X90416166Y-72870437D01*
X90393557Y-72864773D01*
X90371613Y-72856921D01*
X90350543Y-72846956D01*
X90330552Y-72834974D01*
X90311832Y-72821090D01*
X90294562Y-72805438D01*
X90278910Y-72788168D01*
X90265026Y-72769448D01*
X90253044Y-72749457D01*
X90243079Y-72728387D01*
X90235227Y-72706443D01*
X90229563Y-72683834D01*
X90226144Y-72660779D01*
X90225000Y-72637500D01*
X90225000Y-72062500D01*
X90226144Y-72039221D01*
X90229563Y-72016166D01*
X90235227Y-71993557D01*
X90243079Y-71971613D01*
X90253044Y-71950543D01*
X90265026Y-71930552D01*
X90278910Y-71911832D01*
X90294562Y-71894562D01*
X90311832Y-71878910D01*
X90330552Y-71865026D01*
X90350543Y-71853044D01*
X90371613Y-71843079D01*
X90393557Y-71835227D01*
X90416166Y-71829563D01*
X90439221Y-71826144D01*
X90462500Y-71825000D01*
X90937500Y-71825000D01*
X90960779Y-71826144D01*
X90960779Y-71826144D01*
G37*
D33*
G04 #@! TD*
G04 #@! TO.P,R11,2*
G04 #@! TO.N,+5V*
X90700000Y-72350000D03*
D24*
G04 #@! TO.N,Net-(LS1-Pad2)*
G04 #@! TO.C,R11*
G36*
X90960779Y-70076144D02*
X90983834Y-70079563D01*
X91006443Y-70085227D01*
X91028387Y-70093079D01*
X91049457Y-70103044D01*
X91069448Y-70115026D01*
X91088168Y-70128910D01*
X91105438Y-70144562D01*
X91121090Y-70161832D01*
X91134974Y-70180552D01*
X91146956Y-70200543D01*
X91156921Y-70221613D01*
X91164773Y-70243557D01*
X91170437Y-70266166D01*
X91173856Y-70289221D01*
X91175000Y-70312500D01*
X91175000Y-70887500D01*
X91173856Y-70910779D01*
X91170437Y-70933834D01*
X91164773Y-70956443D01*
X91156921Y-70978387D01*
X91146956Y-70999457D01*
X91134974Y-71019448D01*
X91121090Y-71038168D01*
X91105438Y-71055438D01*
X91088168Y-71071090D01*
X91069448Y-71084974D01*
X91049457Y-71096956D01*
X91028387Y-71106921D01*
X91006443Y-71114773D01*
X90983834Y-71120437D01*
X90960779Y-71123856D01*
X90937500Y-71125000D01*
X90462500Y-71125000D01*
X90439221Y-71123856D01*
X90416166Y-71120437D01*
X90393557Y-71114773D01*
X90371613Y-71106921D01*
X90350543Y-71096956D01*
X90330552Y-71084974D01*
X90311832Y-71071090D01*
X90294562Y-71055438D01*
X90278910Y-71038168D01*
X90265026Y-71019448D01*
X90253044Y-70999457D01*
X90243079Y-70978387D01*
X90235227Y-70956443D01*
X90229563Y-70933834D01*
X90226144Y-70910779D01*
X90225000Y-70887500D01*
X90225000Y-70312500D01*
X90226144Y-70289221D01*
X90229563Y-70266166D01*
X90235227Y-70243557D01*
X90243079Y-70221613D01*
X90253044Y-70200543D01*
X90265026Y-70180552D01*
X90278910Y-70161832D01*
X90294562Y-70144562D01*
X90311832Y-70128910D01*
X90330552Y-70115026D01*
X90350543Y-70103044D01*
X90371613Y-70093079D01*
X90393557Y-70085227D01*
X90416166Y-70079563D01*
X90439221Y-70076144D01*
X90462500Y-70075000D01*
X90937500Y-70075000D01*
X90960779Y-70076144D01*
X90960779Y-70076144D01*
G37*
D33*
G04 #@! TD*
G04 #@! TO.P,R11,1*
G04 #@! TO.N,Net-(LS1-Pad2)*
X90700000Y-70600000D03*
D34*
G04 #@! TO.P,LS1,2*
G04 #@! TO.N,Net-(LS1-Pad2)*
X83200000Y-73100000D03*
D35*
G04 #@! TO.P,LS1,1*
G04 #@! TO.N,+5V*
X83200000Y-78100000D03*
G04 #@! TD*
D24*
G04 #@! TO.N,+5V*
G04 #@! TO.C,R12*
G36*
X182240779Y-48916144D02*
X182263834Y-48919563D01*
X182286443Y-48925227D01*
X182308387Y-48933079D01*
X182329457Y-48943044D01*
X182349448Y-48955026D01*
X182368168Y-48968910D01*
X182385438Y-48984562D01*
X182401090Y-49001832D01*
X182414974Y-49020552D01*
X182426956Y-49040543D01*
X182436921Y-49061613D01*
X182444773Y-49083557D01*
X182450437Y-49106166D01*
X182453856Y-49129221D01*
X182455000Y-49152500D01*
X182455000Y-49727500D01*
X182453856Y-49750779D01*
X182450437Y-49773834D01*
X182444773Y-49796443D01*
X182436921Y-49818387D01*
X182426956Y-49839457D01*
X182414974Y-49859448D01*
X182401090Y-49878168D01*
X182385438Y-49895438D01*
X182368168Y-49911090D01*
X182349448Y-49924974D01*
X182329457Y-49936956D01*
X182308387Y-49946921D01*
X182286443Y-49954773D01*
X182263834Y-49960437D01*
X182240779Y-49963856D01*
X182217500Y-49965000D01*
X181742500Y-49965000D01*
X181719221Y-49963856D01*
X181696166Y-49960437D01*
X181673557Y-49954773D01*
X181651613Y-49946921D01*
X181630543Y-49936956D01*
X181610552Y-49924974D01*
X181591832Y-49911090D01*
X181574562Y-49895438D01*
X181558910Y-49878168D01*
X181545026Y-49859448D01*
X181533044Y-49839457D01*
X181523079Y-49818387D01*
X181515227Y-49796443D01*
X181509563Y-49773834D01*
X181506144Y-49750779D01*
X181505000Y-49727500D01*
X181505000Y-49152500D01*
X181506144Y-49129221D01*
X181509563Y-49106166D01*
X181515227Y-49083557D01*
X181523079Y-49061613D01*
X181533044Y-49040543D01*
X181545026Y-49020552D01*
X181558910Y-49001832D01*
X181574562Y-48984562D01*
X181591832Y-48968910D01*
X181610552Y-48955026D01*
X181630543Y-48943044D01*
X181651613Y-48933079D01*
X181673557Y-48925227D01*
X181696166Y-48919563D01*
X181719221Y-48916144D01*
X181742500Y-48915000D01*
X182217500Y-48915000D01*
X182240779Y-48916144D01*
X182240779Y-48916144D01*
G37*
D33*
G04 #@! TD*
G04 #@! TO.P,R12,2*
G04 #@! TO.N,+5V*
X181980000Y-49440000D03*
D24*
G04 #@! TO.N,SDA*
G04 #@! TO.C,R12*
G36*
X182240779Y-47166144D02*
X182263834Y-47169563D01*
X182286443Y-47175227D01*
X182308387Y-47183079D01*
X182329457Y-47193044D01*
X182349448Y-47205026D01*
X182368168Y-47218910D01*
X182385438Y-47234562D01*
X182401090Y-47251832D01*
X182414974Y-47270552D01*
X182426956Y-47290543D01*
X182436921Y-47311613D01*
X182444773Y-47333557D01*
X182450437Y-47356166D01*
X182453856Y-47379221D01*
X182455000Y-47402500D01*
X182455000Y-47977500D01*
X182453856Y-48000779D01*
X182450437Y-48023834D01*
X182444773Y-48046443D01*
X182436921Y-48068387D01*
X182426956Y-48089457D01*
X182414974Y-48109448D01*
X182401090Y-48128168D01*
X182385438Y-48145438D01*
X182368168Y-48161090D01*
X182349448Y-48174974D01*
X182329457Y-48186956D01*
X182308387Y-48196921D01*
X182286443Y-48204773D01*
X182263834Y-48210437D01*
X182240779Y-48213856D01*
X182217500Y-48215000D01*
X181742500Y-48215000D01*
X181719221Y-48213856D01*
X181696166Y-48210437D01*
X181673557Y-48204773D01*
X181651613Y-48196921D01*
X181630543Y-48186956D01*
X181610552Y-48174974D01*
X181591832Y-48161090D01*
X181574562Y-48145438D01*
X181558910Y-48128168D01*
X181545026Y-48109448D01*
X181533044Y-48089457D01*
X181523079Y-48068387D01*
X181515227Y-48046443D01*
X181509563Y-48023834D01*
X181506144Y-48000779D01*
X181505000Y-47977500D01*
X181505000Y-47402500D01*
X181506144Y-47379221D01*
X181509563Y-47356166D01*
X181515227Y-47333557D01*
X181523079Y-47311613D01*
X181533044Y-47290543D01*
X181545026Y-47270552D01*
X181558910Y-47251832D01*
X181574562Y-47234562D01*
X181591832Y-47218910D01*
X181610552Y-47205026D01*
X181630543Y-47193044D01*
X181651613Y-47183079D01*
X181673557Y-47175227D01*
X181696166Y-47169563D01*
X181719221Y-47166144D01*
X181742500Y-47165000D01*
X182217500Y-47165000D01*
X182240779Y-47166144D01*
X182240779Y-47166144D01*
G37*
D33*
G04 #@! TD*
G04 #@! TO.P,R12,1*
G04 #@! TO.N,SDA*
X181980000Y-47690000D03*
D24*
G04 #@! TO.N,+5V*
G04 #@! TO.C,R13*
G36*
X182240779Y-51258144D02*
X182263834Y-51261563D01*
X182286443Y-51267227D01*
X182308387Y-51275079D01*
X182329457Y-51285044D01*
X182349448Y-51297026D01*
X182368168Y-51310910D01*
X182385438Y-51326562D01*
X182401090Y-51343832D01*
X182414974Y-51362552D01*
X182426956Y-51382543D01*
X182436921Y-51403613D01*
X182444773Y-51425557D01*
X182450437Y-51448166D01*
X182453856Y-51471221D01*
X182455000Y-51494500D01*
X182455000Y-52069500D01*
X182453856Y-52092779D01*
X182450437Y-52115834D01*
X182444773Y-52138443D01*
X182436921Y-52160387D01*
X182426956Y-52181457D01*
X182414974Y-52201448D01*
X182401090Y-52220168D01*
X182385438Y-52237438D01*
X182368168Y-52253090D01*
X182349448Y-52266974D01*
X182329457Y-52278956D01*
X182308387Y-52288921D01*
X182286443Y-52296773D01*
X182263834Y-52302437D01*
X182240779Y-52305856D01*
X182217500Y-52307000D01*
X181742500Y-52307000D01*
X181719221Y-52305856D01*
X181696166Y-52302437D01*
X181673557Y-52296773D01*
X181651613Y-52288921D01*
X181630543Y-52278956D01*
X181610552Y-52266974D01*
X181591832Y-52253090D01*
X181574562Y-52237438D01*
X181558910Y-52220168D01*
X181545026Y-52201448D01*
X181533044Y-52181457D01*
X181523079Y-52160387D01*
X181515227Y-52138443D01*
X181509563Y-52115834D01*
X181506144Y-52092779D01*
X181505000Y-52069500D01*
X181505000Y-51494500D01*
X181506144Y-51471221D01*
X181509563Y-51448166D01*
X181515227Y-51425557D01*
X181523079Y-51403613D01*
X181533044Y-51382543D01*
X181545026Y-51362552D01*
X181558910Y-51343832D01*
X181574562Y-51326562D01*
X181591832Y-51310910D01*
X181610552Y-51297026D01*
X181630543Y-51285044D01*
X181651613Y-51275079D01*
X181673557Y-51267227D01*
X181696166Y-51261563D01*
X181719221Y-51258144D01*
X181742500Y-51257000D01*
X182217500Y-51257000D01*
X182240779Y-51258144D01*
X182240779Y-51258144D01*
G37*
D33*
G04 #@! TD*
G04 #@! TO.P,R13,2*
G04 #@! TO.N,+5V*
X181980000Y-51782000D03*
D24*
G04 #@! TO.N,SCL*
G04 #@! TO.C,R13*
G36*
X182240779Y-53008144D02*
X182263834Y-53011563D01*
X182286443Y-53017227D01*
X182308387Y-53025079D01*
X182329457Y-53035044D01*
X182349448Y-53047026D01*
X182368168Y-53060910D01*
X182385438Y-53076562D01*
X182401090Y-53093832D01*
X182414974Y-53112552D01*
X182426956Y-53132543D01*
X182436921Y-53153613D01*
X182444773Y-53175557D01*
X182450437Y-53198166D01*
X182453856Y-53221221D01*
X182455000Y-53244500D01*
X182455000Y-53819500D01*
X182453856Y-53842779D01*
X182450437Y-53865834D01*
X182444773Y-53888443D01*
X182436921Y-53910387D01*
X182426956Y-53931457D01*
X182414974Y-53951448D01*
X182401090Y-53970168D01*
X182385438Y-53987438D01*
X182368168Y-54003090D01*
X182349448Y-54016974D01*
X182329457Y-54028956D01*
X182308387Y-54038921D01*
X182286443Y-54046773D01*
X182263834Y-54052437D01*
X182240779Y-54055856D01*
X182217500Y-54057000D01*
X181742500Y-54057000D01*
X181719221Y-54055856D01*
X181696166Y-54052437D01*
X181673557Y-54046773D01*
X181651613Y-54038921D01*
X181630543Y-54028956D01*
X181610552Y-54016974D01*
X181591832Y-54003090D01*
X181574562Y-53987438D01*
X181558910Y-53970168D01*
X181545026Y-53951448D01*
X181533044Y-53931457D01*
X181523079Y-53910387D01*
X181515227Y-53888443D01*
X181509563Y-53865834D01*
X181506144Y-53842779D01*
X181505000Y-53819500D01*
X181505000Y-53244500D01*
X181506144Y-53221221D01*
X181509563Y-53198166D01*
X181515227Y-53175557D01*
X181523079Y-53153613D01*
X181533044Y-53132543D01*
X181545026Y-53112552D01*
X181558910Y-53093832D01*
X181574562Y-53076562D01*
X181591832Y-53060910D01*
X181610552Y-53047026D01*
X181630543Y-53035044D01*
X181651613Y-53025079D01*
X181673557Y-53017227D01*
X181696166Y-53011563D01*
X181719221Y-53008144D01*
X181742500Y-53007000D01*
X182217500Y-53007000D01*
X182240779Y-53008144D01*
X182240779Y-53008144D01*
G37*
D33*
G04 #@! TD*
G04 #@! TO.P,R13,1*
G04 #@! TO.N,SCL*
X181980000Y-53532000D03*
D36*
G04 #@! TO.P,Y1,2*
G04 #@! TO.N,Net-(U7-Pad2)*
X186557000Y-45531000D03*
G04 #@! TO.P,Y1,1*
G04 #@! TO.N,Net-(U7-Pad1)*
X188457000Y-45531000D03*
G04 #@! TD*
D37*
G04 #@! TO.P,BT1,2*
G04 #@! TO.N,GND*
X220874400Y-43484800D03*
D38*
G04 #@! TO.P,BT1,1*
G04 #@! TO.N,+BATT*
X233824400Y-43484800D03*
X207924400Y-43484800D03*
G04 #@! TD*
D39*
G04 #@! TO.P,Q2,3*
G04 #@! TO.N,Net-(Q2-Pad3)*
X93900000Y-72800000D03*
G04 #@! TO.P,Q2,2*
G04 #@! TO.N,Net-(LS1-Pad2)*
X92950000Y-70800000D03*
G04 #@! TO.P,Q2,1*
G04 #@! TO.N,GND*
X94850000Y-70800000D03*
G04 #@! TD*
D28*
G04 #@! TO.P,U7,8*
G04 #@! TO.N,+5V*
X188189000Y-53308600D03*
G04 #@! TO.P,U7,7*
G04 #@! TO.N,N/C*
X186919000Y-53308600D03*
G04 #@! TO.P,U7,6*
G04 #@! TO.N,SCL*
X185649000Y-53308600D03*
G04 #@! TO.P,U7,5*
G04 #@! TO.N,SDA*
X184379000Y-53308600D03*
G04 #@! TO.P,U7,4*
G04 #@! TO.N,GND*
X184379000Y-47908600D03*
G04 #@! TO.P,U7,3*
G04 #@! TO.N,+BATT*
X185649000Y-47908600D03*
G04 #@! TO.P,U7,2*
G04 #@! TO.N,Net-(U7-Pad2)*
X186919000Y-47908600D03*
G04 #@! TO.P,U7,1*
G04 #@! TO.N,Net-(U7-Pad1)*
X188189000Y-47908600D03*
G04 #@! TD*
D31*
G04 #@! TO.P,TP5,1*
G04 #@! TO.N,GND*
X102600000Y-73585000D03*
G04 #@! TD*
G04 #@! TO.P,TP6,1*
G04 #@! TO.N,GND*
X132540000Y-73585000D03*
G04 #@! TD*
D24*
G04 #@! TO.N,+5V*
G04 #@! TO.C,R4*
G36*
X199601779Y-43214144D02*
X199624834Y-43217563D01*
X199647443Y-43223227D01*
X199669387Y-43231079D01*
X199690457Y-43241044D01*
X199710448Y-43253026D01*
X199729168Y-43266910D01*
X199746438Y-43282562D01*
X199762090Y-43299832D01*
X199775974Y-43318552D01*
X199787956Y-43338543D01*
X199797921Y-43359613D01*
X199805773Y-43381557D01*
X199811437Y-43404166D01*
X199814856Y-43427221D01*
X199816000Y-43450500D01*
X199816000Y-43925500D01*
X199814856Y-43948779D01*
X199811437Y-43971834D01*
X199805773Y-43994443D01*
X199797921Y-44016387D01*
X199787956Y-44037457D01*
X199775974Y-44057448D01*
X199762090Y-44076168D01*
X199746438Y-44093438D01*
X199729168Y-44109090D01*
X199710448Y-44122974D01*
X199690457Y-44134956D01*
X199669387Y-44144921D01*
X199647443Y-44152773D01*
X199624834Y-44158437D01*
X199601779Y-44161856D01*
X199578500Y-44163000D01*
X199003500Y-44163000D01*
X198980221Y-44161856D01*
X198957166Y-44158437D01*
X198934557Y-44152773D01*
X198912613Y-44144921D01*
X198891543Y-44134956D01*
X198871552Y-44122974D01*
X198852832Y-44109090D01*
X198835562Y-44093438D01*
X198819910Y-44076168D01*
X198806026Y-44057448D01*
X198794044Y-44037457D01*
X198784079Y-44016387D01*
X198776227Y-43994443D01*
X198770563Y-43971834D01*
X198767144Y-43948779D01*
X198766000Y-43925500D01*
X198766000Y-43450500D01*
X198767144Y-43427221D01*
X198770563Y-43404166D01*
X198776227Y-43381557D01*
X198784079Y-43359613D01*
X198794044Y-43338543D01*
X198806026Y-43318552D01*
X198819910Y-43299832D01*
X198835562Y-43282562D01*
X198852832Y-43266910D01*
X198871552Y-43253026D01*
X198891543Y-43241044D01*
X198912613Y-43231079D01*
X198934557Y-43223227D01*
X198957166Y-43217563D01*
X198980221Y-43214144D01*
X199003500Y-43213000D01*
X199578500Y-43213000D01*
X199601779Y-43214144D01*
X199601779Y-43214144D01*
G37*
D33*
G04 #@! TD*
G04 #@! TO.P,R4,2*
G04 #@! TO.N,+5V*
X199291000Y-43688000D03*
D24*
G04 #@! TO.N,/Temp_Sense*
G04 #@! TO.C,R4*
G36*
X201351779Y-43214144D02*
X201374834Y-43217563D01*
X201397443Y-43223227D01*
X201419387Y-43231079D01*
X201440457Y-43241044D01*
X201460448Y-43253026D01*
X201479168Y-43266910D01*
X201496438Y-43282562D01*
X201512090Y-43299832D01*
X201525974Y-43318552D01*
X201537956Y-43338543D01*
X201547921Y-43359613D01*
X201555773Y-43381557D01*
X201561437Y-43404166D01*
X201564856Y-43427221D01*
X201566000Y-43450500D01*
X201566000Y-43925500D01*
X201564856Y-43948779D01*
X201561437Y-43971834D01*
X201555773Y-43994443D01*
X201547921Y-44016387D01*
X201537956Y-44037457D01*
X201525974Y-44057448D01*
X201512090Y-44076168D01*
X201496438Y-44093438D01*
X201479168Y-44109090D01*
X201460448Y-44122974D01*
X201440457Y-44134956D01*
X201419387Y-44144921D01*
X201397443Y-44152773D01*
X201374834Y-44158437D01*
X201351779Y-44161856D01*
X201328500Y-44163000D01*
X200753500Y-44163000D01*
X200730221Y-44161856D01*
X200707166Y-44158437D01*
X200684557Y-44152773D01*
X200662613Y-44144921D01*
X200641543Y-44134956D01*
X200621552Y-44122974D01*
X200602832Y-44109090D01*
X200585562Y-44093438D01*
X200569910Y-44076168D01*
X200556026Y-44057448D01*
X200544044Y-44037457D01*
X200534079Y-44016387D01*
X200526227Y-43994443D01*
X200520563Y-43971834D01*
X200517144Y-43948779D01*
X200516000Y-43925500D01*
X200516000Y-43450500D01*
X200517144Y-43427221D01*
X200520563Y-43404166D01*
X200526227Y-43381557D01*
X200534079Y-43359613D01*
X200544044Y-43338543D01*
X200556026Y-43318552D01*
X200569910Y-43299832D01*
X200585562Y-43282562D01*
X200602832Y-43266910D01*
X200621552Y-43253026D01*
X200641543Y-43241044D01*
X200662613Y-43231079D01*
X200684557Y-43223227D01*
X200707166Y-43217563D01*
X200730221Y-43214144D01*
X200753500Y-43213000D01*
X201328500Y-43213000D01*
X201351779Y-43214144D01*
X201351779Y-43214144D01*
G37*
D33*
G04 #@! TD*
G04 #@! TO.P,R4,1*
G04 #@! TO.N,/Temp_Sense*
X201041000Y-43688000D03*
D24*
G04 #@! TO.N,/IO0*
G04 #@! TO.C,R6*
G36*
X224288779Y-60182144D02*
X224311834Y-60185563D01*
X224334443Y-60191227D01*
X224356387Y-60199079D01*
X224377457Y-60209044D01*
X224397448Y-60221026D01*
X224416168Y-60234910D01*
X224433438Y-60250562D01*
X224449090Y-60267832D01*
X224462974Y-60286552D01*
X224474956Y-60306543D01*
X224484921Y-60327613D01*
X224492773Y-60349557D01*
X224498437Y-60372166D01*
X224501856Y-60395221D01*
X224503000Y-60418500D01*
X224503000Y-60993500D01*
X224501856Y-61016779D01*
X224498437Y-61039834D01*
X224492773Y-61062443D01*
X224484921Y-61084387D01*
X224474956Y-61105457D01*
X224462974Y-61125448D01*
X224449090Y-61144168D01*
X224433438Y-61161438D01*
X224416168Y-61177090D01*
X224397448Y-61190974D01*
X224377457Y-61202956D01*
X224356387Y-61212921D01*
X224334443Y-61220773D01*
X224311834Y-61226437D01*
X224288779Y-61229856D01*
X224265500Y-61231000D01*
X223790500Y-61231000D01*
X223767221Y-61229856D01*
X223744166Y-61226437D01*
X223721557Y-61220773D01*
X223699613Y-61212921D01*
X223678543Y-61202956D01*
X223658552Y-61190974D01*
X223639832Y-61177090D01*
X223622562Y-61161438D01*
X223606910Y-61144168D01*
X223593026Y-61125448D01*
X223581044Y-61105457D01*
X223571079Y-61084387D01*
X223563227Y-61062443D01*
X223557563Y-61039834D01*
X223554144Y-61016779D01*
X223553000Y-60993500D01*
X223553000Y-60418500D01*
X223554144Y-60395221D01*
X223557563Y-60372166D01*
X223563227Y-60349557D01*
X223571079Y-60327613D01*
X223581044Y-60306543D01*
X223593026Y-60286552D01*
X223606910Y-60267832D01*
X223622562Y-60250562D01*
X223639832Y-60234910D01*
X223658552Y-60221026D01*
X223678543Y-60209044D01*
X223699613Y-60199079D01*
X223721557Y-60191227D01*
X223744166Y-60185563D01*
X223767221Y-60182144D01*
X223790500Y-60181000D01*
X224265500Y-60181000D01*
X224288779Y-60182144D01*
X224288779Y-60182144D01*
G37*
D33*
G04 #@! TD*
G04 #@! TO.P,R6,2*
G04 #@! TO.N,/IO0*
X224028000Y-60706000D03*
D24*
G04 #@! TO.N,+3V3*
G04 #@! TO.C,R6*
G36*
X224288779Y-61932144D02*
X224311834Y-61935563D01*
X224334443Y-61941227D01*
X224356387Y-61949079D01*
X224377457Y-61959044D01*
X224397448Y-61971026D01*
X224416168Y-61984910D01*
X224433438Y-62000562D01*
X224449090Y-62017832D01*
X224462974Y-62036552D01*
X224474956Y-62056543D01*
X224484921Y-62077613D01*
X224492773Y-62099557D01*
X224498437Y-62122166D01*
X224501856Y-62145221D01*
X224503000Y-62168500D01*
X224503000Y-62743500D01*
X224501856Y-62766779D01*
X224498437Y-62789834D01*
X224492773Y-62812443D01*
X224484921Y-62834387D01*
X224474956Y-62855457D01*
X224462974Y-62875448D01*
X224449090Y-62894168D01*
X224433438Y-62911438D01*
X224416168Y-62927090D01*
X224397448Y-62940974D01*
X224377457Y-62952956D01*
X224356387Y-62962921D01*
X224334443Y-62970773D01*
X224311834Y-62976437D01*
X224288779Y-62979856D01*
X224265500Y-62981000D01*
X223790500Y-62981000D01*
X223767221Y-62979856D01*
X223744166Y-62976437D01*
X223721557Y-62970773D01*
X223699613Y-62962921D01*
X223678543Y-62952956D01*
X223658552Y-62940974D01*
X223639832Y-62927090D01*
X223622562Y-62911438D01*
X223606910Y-62894168D01*
X223593026Y-62875448D01*
X223581044Y-62855457D01*
X223571079Y-62834387D01*
X223563227Y-62812443D01*
X223557563Y-62789834D01*
X223554144Y-62766779D01*
X223553000Y-62743500D01*
X223553000Y-62168500D01*
X223554144Y-62145221D01*
X223557563Y-62122166D01*
X223563227Y-62099557D01*
X223571079Y-62077613D01*
X223581044Y-62056543D01*
X223593026Y-62036552D01*
X223606910Y-62017832D01*
X223622562Y-62000562D01*
X223639832Y-61984910D01*
X223658552Y-61971026D01*
X223678543Y-61959044D01*
X223699613Y-61949079D01*
X223721557Y-61941227D01*
X223744166Y-61935563D01*
X223767221Y-61932144D01*
X223790500Y-61931000D01*
X224265500Y-61931000D01*
X224288779Y-61932144D01*
X224288779Y-61932144D01*
G37*
D33*
G04 #@! TD*
G04 #@! TO.P,R6,1*
G04 #@! TO.N,+3V3*
X224028000Y-62456000D03*
D10*
G04 #@! TO.P,J11,10*
G04 #@! TO.N,+5V*
X186436000Y-94869000D03*
G04 #@! TO.P,J11,9*
G04 #@! TO.N,Power_Sense*
X186436000Y-92329000D03*
G04 #@! TO.P,J11,8*
G04 #@! TO.N,RE5*
X183896000Y-94869000D03*
G04 #@! TO.P,J11,7*
G04 #@! TO.N,RE6*
X183896000Y-92329000D03*
G04 #@! TO.P,J11,6*
G04 #@! TO.N,RE3*
X181356000Y-94869000D03*
G04 #@! TO.P,J11,5*
G04 #@! TO.N,RE4*
X181356000Y-92329000D03*
G04 #@! TO.P,J11,4*
G04 #@! TO.N,RE1*
X178816000Y-94869000D03*
G04 #@! TO.P,J11,3*
G04 #@! TO.N,RE2*
X178816000Y-92329000D03*
G04 #@! TO.P,J11,2*
G04 #@! TO.N,GND*
X176276000Y-94869000D03*
D11*
G04 #@! TO.P,J11,1*
G04 #@! TO.N,+12V*
X176276000Y-92329000D03*
G04 #@! TD*
D40*
G04 #@! TO.P,U1,38*
G04 #@! TO.N,GND*
X199691200Y-79277200D03*
G04 #@! TO.P,U1,37*
G04 #@! TO.N,/Sounder*
X199691200Y-78007200D03*
G04 #@! TO.P,U1,36*
G04 #@! TO.N,SCL*
X199691200Y-76737200D03*
G04 #@! TO.P,U1,35*
G04 #@! TO.N,/TX*
X199691200Y-75467200D03*
G04 #@! TO.P,U1,34*
G04 #@! TO.N,/RX*
X199691200Y-74197200D03*
G04 #@! TO.P,U1,33*
G04 #@! TO.N,SDA*
X199691200Y-72927200D03*
G04 #@! TO.P,U1,32*
G04 #@! TO.N,N/C*
X199691200Y-71657200D03*
G04 #@! TO.P,U1,31*
X199691200Y-70387200D03*
G04 #@! TO.P,U1,30*
X199691200Y-69117200D03*
G04 #@! TO.P,U1,29*
X199691200Y-67847200D03*
G04 #@! TO.P,U1,28*
G04 #@! TO.N,Power_Sense*
X199691200Y-66577200D03*
G04 #@! TO.P,U1,27*
G04 #@! TO.N,N/C*
X199691200Y-65307200D03*
G04 #@! TO.P,U1,26*
G04 #@! TO.N,/Temp_Sense*
X199691200Y-64037200D03*
G04 #@! TO.P,U1,25*
G04 #@! TO.N,/IO0*
X199691200Y-62767200D03*
D41*
G04 #@! TO.P,U1,24*
G04 #@! TO.N,N/C*
X202976200Y-61277200D03*
G04 #@! TO.P,U1,23*
X204246200Y-61277200D03*
G04 #@! TO.P,U1,22*
X205516200Y-61277200D03*
G04 #@! TO.P,U1,21*
X206786200Y-61277200D03*
G04 #@! TO.P,U1,20*
X208056200Y-61277200D03*
G04 #@! TO.P,U1,19*
X209326200Y-61277200D03*
G04 #@! TO.P,U1,18*
X210596200Y-61277200D03*
G04 #@! TO.P,U1,17*
X211866200Y-61277200D03*
G04 #@! TO.P,U1,16*
X213136200Y-61277200D03*
G04 #@! TO.P,U1,15*
G04 #@! TO.N,GND*
X214406200Y-61277200D03*
D40*
G04 #@! TO.P,U1,14*
G04 #@! TO.N,/POW6*
X217691200Y-62767200D03*
G04 #@! TO.P,U1,13*
G04 #@! TO.N,/POW5*
X217691200Y-64037200D03*
G04 #@! TO.P,U1,12*
G04 #@! TO.N,/POW4*
X217691200Y-65307200D03*
G04 #@! TO.P,U1,11*
G04 #@! TO.N,/POW3*
X217691200Y-66577200D03*
G04 #@! TO.P,U1,10*
G04 #@! TO.N,/POW2*
X217691200Y-67847200D03*
G04 #@! TO.P,U1,9*
G04 #@! TO.N,/POW1*
X217691200Y-69117200D03*
G04 #@! TO.P,U1,8*
G04 #@! TO.N,N/C*
X217691200Y-70387200D03*
G04 #@! TO.P,U1,7*
X217691200Y-71657200D03*
G04 #@! TO.P,U1,6*
X217691200Y-72927200D03*
G04 #@! TO.P,U1,5*
X217691200Y-74197200D03*
G04 #@! TO.P,U1,4*
X217691200Y-75467200D03*
G04 #@! TO.P,U1,3*
G04 #@! TO.N,/EN*
X217691200Y-76737200D03*
G04 #@! TO.P,U1,2*
G04 #@! TO.N,+3V3*
X217691200Y-78007200D03*
G04 #@! TO.P,U1,1*
G04 #@! TO.N,GND*
X217691200Y-79277200D03*
D42*
G04 #@! TO.P,U1,39*
X208991200Y-71577200D03*
G04 #@! TD*
D24*
G04 #@! TO.N,+5V*
G04 #@! TO.C,C10*
G36*
X168154779Y-54848144D02*
X168177834Y-54851563D01*
X168200443Y-54857227D01*
X168222387Y-54865079D01*
X168243457Y-54875044D01*
X168263448Y-54887026D01*
X168282168Y-54900910D01*
X168299438Y-54916562D01*
X168315090Y-54933832D01*
X168328974Y-54952552D01*
X168340956Y-54972543D01*
X168350921Y-54993613D01*
X168358773Y-55015557D01*
X168364437Y-55038166D01*
X168367856Y-55061221D01*
X168369000Y-55084500D01*
X168369000Y-55659500D01*
X168367856Y-55682779D01*
X168364437Y-55705834D01*
X168358773Y-55728443D01*
X168350921Y-55750387D01*
X168340956Y-55771457D01*
X168328974Y-55791448D01*
X168315090Y-55810168D01*
X168299438Y-55827438D01*
X168282168Y-55843090D01*
X168263448Y-55856974D01*
X168243457Y-55868956D01*
X168222387Y-55878921D01*
X168200443Y-55886773D01*
X168177834Y-55892437D01*
X168154779Y-55895856D01*
X168131500Y-55897000D01*
X167656500Y-55897000D01*
X167633221Y-55895856D01*
X167610166Y-55892437D01*
X167587557Y-55886773D01*
X167565613Y-55878921D01*
X167544543Y-55868956D01*
X167524552Y-55856974D01*
X167505832Y-55843090D01*
X167488562Y-55827438D01*
X167472910Y-55810168D01*
X167459026Y-55791448D01*
X167447044Y-55771457D01*
X167437079Y-55750387D01*
X167429227Y-55728443D01*
X167423563Y-55705834D01*
X167420144Y-55682779D01*
X167419000Y-55659500D01*
X167419000Y-55084500D01*
X167420144Y-55061221D01*
X167423563Y-55038166D01*
X167429227Y-55015557D01*
X167437079Y-54993613D01*
X167447044Y-54972543D01*
X167459026Y-54952552D01*
X167472910Y-54933832D01*
X167488562Y-54916562D01*
X167505832Y-54900910D01*
X167524552Y-54887026D01*
X167544543Y-54875044D01*
X167565613Y-54865079D01*
X167587557Y-54857227D01*
X167610166Y-54851563D01*
X167633221Y-54848144D01*
X167656500Y-54847000D01*
X168131500Y-54847000D01*
X168154779Y-54848144D01*
X168154779Y-54848144D01*
G37*
D33*
G04 #@! TD*
G04 #@! TO.P,C10,1*
G04 #@! TO.N,+5V*
X167894000Y-55372000D03*
D24*
G04 #@! TO.N,GND*
G04 #@! TO.C,C10*
G36*
X168154779Y-56598144D02*
X168177834Y-56601563D01*
X168200443Y-56607227D01*
X168222387Y-56615079D01*
X168243457Y-56625044D01*
X168263448Y-56637026D01*
X168282168Y-56650910D01*
X168299438Y-56666562D01*
X168315090Y-56683832D01*
X168328974Y-56702552D01*
X168340956Y-56722543D01*
X168350921Y-56743613D01*
X168358773Y-56765557D01*
X168364437Y-56788166D01*
X168367856Y-56811221D01*
X168369000Y-56834500D01*
X168369000Y-57409500D01*
X168367856Y-57432779D01*
X168364437Y-57455834D01*
X168358773Y-57478443D01*
X168350921Y-57500387D01*
X168340956Y-57521457D01*
X168328974Y-57541448D01*
X168315090Y-57560168D01*
X168299438Y-57577438D01*
X168282168Y-57593090D01*
X168263448Y-57606974D01*
X168243457Y-57618956D01*
X168222387Y-57628921D01*
X168200443Y-57636773D01*
X168177834Y-57642437D01*
X168154779Y-57645856D01*
X168131500Y-57647000D01*
X167656500Y-57647000D01*
X167633221Y-57645856D01*
X167610166Y-57642437D01*
X167587557Y-57636773D01*
X167565613Y-57628921D01*
X167544543Y-57618956D01*
X167524552Y-57606974D01*
X167505832Y-57593090D01*
X167488562Y-57577438D01*
X167472910Y-57560168D01*
X167459026Y-57541448D01*
X167447044Y-57521457D01*
X167437079Y-57500387D01*
X167429227Y-57478443D01*
X167423563Y-57455834D01*
X167420144Y-57432779D01*
X167419000Y-57409500D01*
X167419000Y-56834500D01*
X167420144Y-56811221D01*
X167423563Y-56788166D01*
X167429227Y-56765557D01*
X167437079Y-56743613D01*
X167447044Y-56722543D01*
X167459026Y-56702552D01*
X167472910Y-56683832D01*
X167488562Y-56666562D01*
X167505832Y-56650910D01*
X167524552Y-56637026D01*
X167544543Y-56625044D01*
X167565613Y-56615079D01*
X167587557Y-56607227D01*
X167610166Y-56601563D01*
X167633221Y-56598144D01*
X167656500Y-56597000D01*
X168131500Y-56597000D01*
X168154779Y-56598144D01*
X168154779Y-56598144D01*
G37*
D33*
G04 #@! TD*
G04 #@! TO.P,C10,2*
G04 #@! TO.N,GND*
X167894000Y-57122000D03*
D14*
G04 #@! TO.P,D2,1*
G04 #@! TO.N,Net-(D2-Pad1)*
X175000000Y-42540000D03*
D13*
G04 #@! TO.P,D2,2*
G04 #@! TO.N,Net-(D2-Pad2)*
X175000000Y-40000000D03*
G04 #@! TD*
G04 #@! TO.P,D3,2*
G04 #@! TO.N,Net-(D3-Pad2)*
X155000000Y-40000000D03*
D14*
G04 #@! TO.P,D3,1*
G04 #@! TO.N,Net-(D3-Pad1)*
X155000000Y-42540000D03*
G04 #@! TD*
G04 #@! TO.P,D4,1*
G04 #@! TO.N,Net-(D4-Pad1)*
X135000000Y-42540000D03*
D13*
G04 #@! TO.P,D4,2*
G04 #@! TO.N,Net-(D4-Pad2)*
X135000000Y-40000000D03*
G04 #@! TD*
G04 #@! TO.P,D5,2*
G04 #@! TO.N,Net-(D5-Pad2)*
X115000000Y-40000000D03*
D14*
G04 #@! TO.P,D5,1*
G04 #@! TO.N,Net-(D5-Pad1)*
X115000000Y-42540000D03*
G04 #@! TD*
G04 #@! TO.P,D6,1*
G04 #@! TO.N,Net-(D6-Pad1)*
X95000000Y-42540000D03*
D13*
G04 #@! TO.P,D6,2*
G04 #@! TO.N,Net-(D6-Pad2)*
X95000000Y-40000000D03*
G04 #@! TD*
D14*
G04 #@! TO.P,D7,1*
G04 #@! TO.N,Net-(D7-Pad1)*
X75000000Y-42540000D03*
D13*
G04 #@! TO.P,D7,2*
G04 #@! TO.N,Net-(D7-Pad2)*
X75000000Y-40000000D03*
G04 #@! TD*
D24*
G04 #@! TO.N,+5V*
G04 #@! TO.C,R2*
G36*
X78895779Y-62518144D02*
X78918834Y-62521563D01*
X78941443Y-62527227D01*
X78963387Y-62535079D01*
X78984457Y-62545044D01*
X79004448Y-62557026D01*
X79023168Y-62570910D01*
X79040438Y-62586562D01*
X79056090Y-62603832D01*
X79069974Y-62622552D01*
X79081956Y-62642543D01*
X79091921Y-62663613D01*
X79099773Y-62685557D01*
X79105437Y-62708166D01*
X79108856Y-62731221D01*
X79110000Y-62754500D01*
X79110000Y-63229500D01*
X79108856Y-63252779D01*
X79105437Y-63275834D01*
X79099773Y-63298443D01*
X79091921Y-63320387D01*
X79081956Y-63341457D01*
X79069974Y-63361448D01*
X79056090Y-63380168D01*
X79040438Y-63397438D01*
X79023168Y-63413090D01*
X79004448Y-63426974D01*
X78984457Y-63438956D01*
X78963387Y-63448921D01*
X78941443Y-63456773D01*
X78918834Y-63462437D01*
X78895779Y-63465856D01*
X78872500Y-63467000D01*
X78297500Y-63467000D01*
X78274221Y-63465856D01*
X78251166Y-63462437D01*
X78228557Y-63456773D01*
X78206613Y-63448921D01*
X78185543Y-63438956D01*
X78165552Y-63426974D01*
X78146832Y-63413090D01*
X78129562Y-63397438D01*
X78113910Y-63380168D01*
X78100026Y-63361448D01*
X78088044Y-63341457D01*
X78078079Y-63320387D01*
X78070227Y-63298443D01*
X78064563Y-63275834D01*
X78061144Y-63252779D01*
X78060000Y-63229500D01*
X78060000Y-62754500D01*
X78061144Y-62731221D01*
X78064563Y-62708166D01*
X78070227Y-62685557D01*
X78078079Y-62663613D01*
X78088044Y-62642543D01*
X78100026Y-62622552D01*
X78113910Y-62603832D01*
X78129562Y-62586562D01*
X78146832Y-62570910D01*
X78165552Y-62557026D01*
X78185543Y-62545044D01*
X78206613Y-62535079D01*
X78228557Y-62527227D01*
X78251166Y-62521563D01*
X78274221Y-62518144D01*
X78297500Y-62517000D01*
X78872500Y-62517000D01*
X78895779Y-62518144D01*
X78895779Y-62518144D01*
G37*
D33*
G04 #@! TD*
G04 #@! TO.P,R2,1*
G04 #@! TO.N,+5V*
X78585000Y-62992000D03*
D24*
G04 #@! TO.N,Net-(R2-Pad2)*
G04 #@! TO.C,R2*
G36*
X77145779Y-62518144D02*
X77168834Y-62521563D01*
X77191443Y-62527227D01*
X77213387Y-62535079D01*
X77234457Y-62545044D01*
X77254448Y-62557026D01*
X77273168Y-62570910D01*
X77290438Y-62586562D01*
X77306090Y-62603832D01*
X77319974Y-62622552D01*
X77331956Y-62642543D01*
X77341921Y-62663613D01*
X77349773Y-62685557D01*
X77355437Y-62708166D01*
X77358856Y-62731221D01*
X77360000Y-62754500D01*
X77360000Y-63229500D01*
X77358856Y-63252779D01*
X77355437Y-63275834D01*
X77349773Y-63298443D01*
X77341921Y-63320387D01*
X77331956Y-63341457D01*
X77319974Y-63361448D01*
X77306090Y-63380168D01*
X77290438Y-63397438D01*
X77273168Y-63413090D01*
X77254448Y-63426974D01*
X77234457Y-63438956D01*
X77213387Y-63448921D01*
X77191443Y-63456773D01*
X77168834Y-63462437D01*
X77145779Y-63465856D01*
X77122500Y-63467000D01*
X76547500Y-63467000D01*
X76524221Y-63465856D01*
X76501166Y-63462437D01*
X76478557Y-63456773D01*
X76456613Y-63448921D01*
X76435543Y-63438956D01*
X76415552Y-63426974D01*
X76396832Y-63413090D01*
X76379562Y-63397438D01*
X76363910Y-63380168D01*
X76350026Y-63361448D01*
X76338044Y-63341457D01*
X76328079Y-63320387D01*
X76320227Y-63298443D01*
X76314563Y-63275834D01*
X76311144Y-63252779D01*
X76310000Y-63229500D01*
X76310000Y-62754500D01*
X76311144Y-62731221D01*
X76314563Y-62708166D01*
X76320227Y-62685557D01*
X76328079Y-62663613D01*
X76338044Y-62642543D01*
X76350026Y-62622552D01*
X76363910Y-62603832D01*
X76379562Y-62586562D01*
X76396832Y-62570910D01*
X76415552Y-62557026D01*
X76435543Y-62545044D01*
X76456613Y-62535079D01*
X76478557Y-62527227D01*
X76501166Y-62521563D01*
X76524221Y-62518144D01*
X76547500Y-62517000D01*
X77122500Y-62517000D01*
X77145779Y-62518144D01*
X77145779Y-62518144D01*
G37*
D33*
G04 #@! TD*
G04 #@! TO.P,R2,2*
G04 #@! TO.N,Net-(R2-Pad2)*
X76835000Y-62992000D03*
D43*
G04 #@! TO.N,GND*
X206375000Y-108459000D03*
X171640500Y-69597498D03*
X93726000Y-68986400D03*
X170307000Y-45720000D03*
X165481000Y-53422401D03*
X165481000Y-45720000D03*
X165481000Y-44450000D03*
X89662000Y-50292010D03*
X228825410Y-72978590D03*
G04 #@! TO.N,+5V*
X146812000Y-36703000D03*
X175514000Y-50927000D03*
X179197000Y-49403000D03*
X167132000Y-79552799D03*
X169418000Y-60806156D03*
X169418000Y-63936433D03*
X167132000Y-77089000D03*
G04 #@! TO.N,+3V3*
X223012000Y-78119210D03*
X214249000Y-77977976D03*
G04 #@! TO.N,+12V*
X171005500Y-80329000D03*
X174688500Y-78994000D03*
G04 #@! TO.N,/TX*
X204470000Y-76200014D03*
G04 #@! TO.N,/RX*
X204470000Y-74802994D03*
G04 #@! TO.N,/Temp_Sense*
X201930000Y-58165980D03*
G04 #@! TO.N,/EN*
X219695800Y-76073000D03*
X223012000Y-76073000D03*
G04 #@! TO.N,/IO0*
X215519000Y-59055000D03*
X213106000Y-59055000D03*
G04 #@! TO.N,/Sounder*
X168402000Y-81105200D03*
X188214000Y-78486000D03*
X197104000Y-77978000D03*
X169289159Y-78761210D03*
G04 #@! TO.N,RE2*
X176974500Y-73344000D03*
G04 #@! TO.N,RE3*
X179716201Y-90783357D03*
X181941710Y-89536000D03*
G04 #@! TO.N,RE6*
X185102500Y-78422500D03*
G04 #@! TO.N,Power_Sense*
X189103000Y-77470000D03*
X193167000Y-66548000D03*
G04 #@! TO.N,SDA*
X182473600Y-63804800D03*
X183235600Y-53441600D03*
G04 #@! TO.N,SCL*
X82346800Y-61468000D03*
X78130400Y-61468000D03*
X180746400Y-64211200D03*
X181991000Y-55499008D03*
G04 #@! TD*
D44*
G04 #@! TO.N,GND*
X108365000Y-73195000D02*
X107725000Y-72555000D01*
X205742979Y-115809195D02*
X204472979Y-115809195D01*
X204472979Y-112308979D02*
X204464000Y-112300000D01*
X204472979Y-115809195D02*
X204472979Y-112308979D01*
X204464000Y-109760000D02*
X204464000Y-112300000D01*
X204464000Y-109760000D02*
X204464000Y-107220000D01*
X111270000Y-73195000D02*
X108365000Y-73195000D01*
X113260000Y-73195000D02*
X111270000Y-73195000D01*
X143840000Y-72900000D02*
X144040000Y-73100000D01*
X138340000Y-72900000D02*
X143840000Y-72900000D01*
X144540000Y-73200000D02*
X144140000Y-73200000D01*
X146240000Y-71500000D02*
X144540000Y-73200000D01*
X155940000Y-71500000D02*
X146240000Y-71500000D01*
X157380000Y-73585000D02*
X157380000Y-72940000D01*
X157380000Y-72940000D02*
X155940000Y-71500000D01*
X80645000Y-50350000D02*
X79375000Y-50350000D01*
X79375000Y-50350000D02*
X78105000Y-50350000D01*
X78105000Y-50350000D02*
X78105000Y-49205000D01*
X71755000Y-49345000D02*
X71755000Y-50350000D01*
X72200000Y-48900000D02*
X71755000Y-49345000D01*
X78105000Y-49205000D02*
X77800000Y-48900000D01*
X205136000Y-107220000D02*
X206375000Y-108459000D01*
X204314000Y-107220000D02*
X205136000Y-107220000D01*
X171661502Y-69618500D02*
X171640500Y-69597498D01*
X173164500Y-69618500D02*
X171661502Y-69618500D01*
X77800000Y-48900000D02*
X73761600Y-48900000D01*
X73761600Y-48900000D02*
X72200000Y-48900000D01*
X94850000Y-70110400D02*
X94850000Y-70800000D01*
X93726000Y-68986400D02*
X94850000Y-70110400D01*
X208991200Y-71577200D02*
X208991200Y-79277200D01*
X199691200Y-79277200D02*
X208991200Y-79277200D01*
X214406200Y-61277200D02*
X214406200Y-56519800D01*
X220827600Y-43531600D02*
X220874400Y-43484800D01*
X220827600Y-54195400D02*
X220827600Y-43531600D01*
X220167200Y-54855800D02*
X220827600Y-54195400D01*
X214406200Y-56519800D02*
X216070200Y-54855800D01*
X216070200Y-54855800D02*
X220167200Y-54855800D01*
X137650000Y-73585000D02*
X138330000Y-72905000D01*
X127340000Y-72900000D02*
X128025000Y-73585000D01*
X128025000Y-73585000D02*
X137650000Y-73585000D01*
X133939999Y-74990399D02*
X133939999Y-74984999D01*
X135255000Y-76305400D02*
X133939999Y-74990399D01*
X135255000Y-78994000D02*
X135255000Y-76305400D01*
X133949000Y-80300000D02*
X135255000Y-78994000D01*
X117040000Y-80300000D02*
X133949000Y-80300000D01*
X133939999Y-74984999D02*
X132540000Y-73585000D01*
X111270000Y-75680000D02*
X112170000Y-76580000D01*
X111270000Y-73195000D02*
X111270000Y-75680000D01*
X112170000Y-76580000D02*
X115470000Y-76580000D01*
X115470000Y-76580000D02*
X116070000Y-77180000D01*
X116070000Y-77180000D02*
X116070000Y-79330000D01*
X116070000Y-79330000D02*
X117040000Y-80300000D01*
X162702000Y-73585000D02*
X157380000Y-73585000D01*
X106388000Y-72555000D02*
X108360000Y-72555000D01*
X94850000Y-70097600D02*
X95351600Y-69596000D01*
X94850000Y-70800000D02*
X94850000Y-70097600D01*
X95351600Y-69596000D02*
X98653600Y-69596000D01*
X98653600Y-69596000D02*
X102590600Y-73533000D01*
X102590600Y-73533000D02*
X105410000Y-73533000D01*
X105410000Y-73533000D02*
X106388000Y-72555000D01*
X162527000Y-44450000D02*
X162527000Y-45720000D01*
X167927000Y-45720000D02*
X167927000Y-44450000D01*
X169599894Y-45720000D02*
X167927000Y-45720000D01*
X170307000Y-45720000D02*
X169599894Y-45720000D01*
X162527000Y-53340000D02*
X165398599Y-53340000D01*
X165398599Y-53340000D02*
X165481000Y-53422401D01*
X165481000Y-45720000D02*
X167927000Y-45720000D01*
X165481000Y-45720000D02*
X162527000Y-45720000D01*
X167927000Y-44450000D02*
X165481000Y-44450000D01*
X165481000Y-44450000D02*
X162527000Y-44450000D01*
X167894000Y-57122000D02*
X166723000Y-57122000D01*
X166723000Y-57122000D02*
X165481000Y-55880000D01*
X165481000Y-55880000D02*
X165481000Y-53422401D01*
X80645000Y-50350000D02*
X89604010Y-50350000D01*
X89604010Y-50350000D02*
X89662000Y-50292010D01*
X189784000Y-49784000D02*
X192500000Y-52500000D01*
X185039000Y-49784000D02*
X189784000Y-49784000D01*
X184379000Y-47908600D02*
X184379000Y-49124000D01*
X184379000Y-49124000D02*
X185039000Y-49784000D01*
X227018000Y-58166000D02*
X227056000Y-58204000D01*
X221996000Y-58148000D02*
X227018000Y-58166000D01*
X212877400Y-54991000D02*
X214406200Y-56519800D01*
X192500000Y-52500000D02*
X194991000Y-54991000D01*
X194991000Y-54991000D02*
X212877400Y-54991000D01*
X214406200Y-70593800D02*
X214406200Y-61277200D01*
X208991200Y-71577200D02*
X213422800Y-71577200D01*
X213422800Y-71577200D02*
X214406200Y-70593800D01*
X227076000Y-74728000D02*
X228825410Y-72978590D01*
X208991200Y-79277200D02*
X217691200Y-79277200D01*
G04 #@! TO.N,+5V*
X119560000Y-75475000D02*
X113260000Y-75475000D01*
X121385000Y-77300000D02*
X119560000Y-75475000D01*
X127410000Y-77635000D02*
X127075000Y-77300000D01*
X127075000Y-77300000D02*
X121385000Y-77300000D01*
X83200000Y-78100000D02*
X81198800Y-78100000D01*
X81198800Y-78100000D02*
X80645000Y-77546200D01*
X80645000Y-77546200D02*
X80645000Y-67767200D01*
X80645000Y-67767200D02*
X80645000Y-65227200D01*
X128025000Y-77985000D02*
X127340000Y-77300000D01*
X132540000Y-77985000D02*
X128025000Y-77985000D01*
X198043001Y-35915001D02*
X198893000Y-36765000D01*
X147599999Y-35915001D02*
X198043001Y-35915001D01*
X146812000Y-36703000D02*
X147599999Y-35915001D01*
X199291000Y-43688000D02*
X198893000Y-36765000D01*
X181980000Y-49440000D02*
X181980000Y-51782000D01*
X188189000Y-52172000D02*
X188189000Y-53308600D01*
X181980000Y-51782000D02*
X187799000Y-51782000D01*
X187799000Y-51782000D02*
X188189000Y-52172000D01*
X167927000Y-53340000D02*
X167894000Y-55372000D01*
X175514000Y-53340000D02*
X175514000Y-50927000D01*
X174244000Y-54610000D02*
X175514000Y-53340000D01*
X170180000Y-54610000D02*
X174244000Y-54610000D01*
X167894000Y-55372000D02*
X169418000Y-55372000D01*
X169418000Y-55372000D02*
X170180000Y-54610000D01*
X78585000Y-62992000D02*
X80645000Y-62992000D01*
X80645000Y-65227200D02*
X80645000Y-62992000D01*
X80645000Y-62992000D02*
X80645000Y-59650000D01*
X188087000Y-94869000D02*
X186436000Y-94869000D01*
X202564000Y-107220000D02*
X200438000Y-107220000D01*
X200438000Y-107220000D02*
X188087000Y-94869000D01*
X200438000Y-112935000D02*
X200438000Y-107220000D01*
X201932979Y-115809195D02*
X201932979Y-114429979D01*
X201932979Y-114429979D02*
X200438000Y-112935000D01*
X183007000Y-48413000D02*
X183007000Y-45466000D01*
X181980000Y-49440000D02*
X183007000Y-48413000D01*
X183007000Y-45466000D02*
X184023000Y-44450000D01*
X184023000Y-44450000D02*
X197104000Y-44450000D01*
X197866000Y-43688000D02*
X199291000Y-43688000D01*
X197104000Y-44450000D02*
X197866000Y-43688000D01*
X179234000Y-49440000D02*
X179197000Y-49403000D01*
X181980000Y-49440000D02*
X179234000Y-49440000D01*
X169418000Y-55372000D02*
X169418000Y-60806156D01*
X169418000Y-74803000D02*
X167132000Y-77089000D01*
X169418000Y-63936433D02*
X169418000Y-74803000D01*
X120440000Y-68751000D02*
X120440000Y-75480000D01*
X119507000Y-67818000D02*
X120440000Y-68751000D01*
X80645000Y-67767200D02*
X80695800Y-67818000D01*
X80695800Y-67818000D02*
X119507000Y-67818000D01*
X89794000Y-78100000D02*
X83200000Y-78100000D01*
X90700000Y-72350000D02*
X90700000Y-77194000D01*
X90700000Y-77194000D02*
X89794000Y-78100000D01*
X167839106Y-79552799D02*
X167132000Y-79552799D01*
X176212500Y-82994500D02*
X171373799Y-79552799D01*
X171373799Y-79552799D02*
X167839106Y-79552799D01*
G04 #@! TO.N,+3V3*
X143410000Y-75445000D02*
X149710000Y-75445000D01*
X152250000Y-77985000D02*
X149710000Y-75445000D01*
X157380000Y-77985000D02*
X152250000Y-77985000D01*
X162702000Y-77985000D02*
X157380000Y-77985000D01*
X162709000Y-77978000D02*
X162702000Y-77985000D01*
X224028000Y-62456000D02*
X224028000Y-70104000D01*
X224828000Y-70904000D02*
X227056000Y-70904000D01*
X224028000Y-70104000D02*
X224828000Y-70904000D01*
X223026210Y-78105000D02*
X223012000Y-78119210D01*
X224409000Y-78105000D02*
X223026210Y-78105000D01*
X222730000Y-62456000D02*
X224028000Y-62456000D01*
X221996000Y-60198000D02*
X221996000Y-61722000D01*
X221996000Y-61722000D02*
X222730000Y-62456000D01*
X226949000Y-78105000D02*
X227076000Y-77978000D01*
X224409000Y-78105000D02*
X226949000Y-78105000D01*
X217691200Y-78007200D02*
X214278224Y-78007200D01*
X214278224Y-78007200D02*
X214249000Y-77977976D01*
X164681898Y-77985000D02*
X162702000Y-77985000D01*
X169411000Y-77985000D02*
X164681898Y-77985000D01*
X170942000Y-76401308D02*
X170942000Y-76454000D01*
X170942000Y-76454000D02*
X169411000Y-77985000D01*
X218491200Y-78007200D02*
X217691200Y-78007200D01*
X219837000Y-79353000D02*
X218491200Y-78007200D01*
X219837000Y-79756000D02*
X219837000Y-79353000D01*
X185454911Y-69587007D02*
X196004903Y-80137000D01*
X185454911Y-67852911D02*
X185454911Y-69587007D01*
X196004903Y-80137000D02*
X219456000Y-80137000D01*
X175942550Y-66500450D02*
X184102450Y-66500450D01*
X170942000Y-71437500D02*
X171323000Y-71056500D01*
X170942000Y-76454000D02*
X170942000Y-71437500D01*
X171323000Y-71056500D02*
X173273662Y-71056500D01*
X184102450Y-66500450D02*
X185454911Y-67852911D01*
X173273662Y-71056500D02*
X173799500Y-70530662D01*
X219456000Y-80137000D02*
X219837000Y-79756000D01*
X173799500Y-70530662D02*
X173799500Y-68643500D01*
X173799500Y-68643500D02*
X175942550Y-66500450D01*
G04 #@! TO.N,+12V*
X103600000Y-108490000D02*
X101460000Y-106350000D01*
X117970000Y-106350000D02*
X115830000Y-108490000D01*
X115830000Y-108490000D02*
X103600000Y-108490000D01*
X120110000Y-108490000D02*
X117970000Y-106350000D01*
X132455000Y-108490000D02*
X120110000Y-108490000D01*
X134480000Y-106350000D02*
X134480000Y-106465000D01*
X134480000Y-106465000D02*
X132455000Y-108490000D01*
X136620000Y-108490000D02*
X134480000Y-106350000D01*
X148965000Y-108490000D02*
X136620000Y-108490000D01*
X150990000Y-106350000D02*
X150990000Y-106465000D01*
X150990000Y-106465000D02*
X148965000Y-108490000D01*
X153130000Y-108490000D02*
X150990000Y-106350000D01*
X165475000Y-108490000D02*
X153130000Y-108490000D01*
X167754000Y-106350000D02*
X167615000Y-106350000D01*
X167615000Y-106350000D02*
X165475000Y-108490000D01*
X169894000Y-108490000D02*
X167754000Y-106350000D01*
X182620000Y-108490000D02*
X169894000Y-108490000D01*
X184525000Y-106350000D02*
X184525000Y-106585000D01*
X184525000Y-106585000D02*
X182620000Y-108490000D01*
X138275000Y-77725000D02*
X144045000Y-77725000D01*
X144095000Y-77725000D02*
X145347400Y-77725000D01*
X145347400Y-77725000D02*
X147951400Y-80329000D01*
X76350000Y-106350000D02*
X101460000Y-106350000D01*
X67564000Y-101600000D02*
X71600000Y-101600000D01*
X71600000Y-101600000D02*
X76350000Y-106350000D01*
X138330000Y-80872000D02*
X138330000Y-78305000D01*
X137702000Y-81500000D02*
X138330000Y-80872000D01*
X109685000Y-81500000D02*
X137702000Y-81500000D01*
X108360000Y-80175000D02*
X109685000Y-81500000D01*
X113260000Y-77755000D02*
X108360000Y-77755000D01*
X108360000Y-77755000D02*
X108360000Y-80175000D01*
X147951400Y-80329000D02*
X171005500Y-80329000D01*
X102630000Y-77955000D02*
X102600000Y-77985000D01*
X108360000Y-77955000D02*
X102630000Y-77955000D01*
X171005500Y-81980000D02*
X171005500Y-80329000D01*
X176276000Y-92330000D02*
X176276000Y-91060500D01*
X179200000Y-88136500D02*
X179200000Y-86871000D01*
X176276000Y-91060500D02*
X179200000Y-88136500D01*
X178689000Y-86360000D02*
X175385500Y-86360000D01*
X179200000Y-86871000D02*
X178689000Y-86360000D01*
X175385500Y-86360000D02*
X171005500Y-81980000D01*
X173164500Y-73090000D02*
X173164500Y-75018500D01*
X173686701Y-72567799D02*
X173164500Y-73090000D01*
X182168799Y-72567799D02*
X173686701Y-72567799D01*
X186372500Y-80454500D02*
X186372500Y-76771500D01*
X186372500Y-76771500D02*
X182168799Y-72567799D01*
X173164500Y-76542500D02*
X173164500Y-75018500D01*
X174752000Y-78130000D02*
X173164500Y-76542500D01*
X174688500Y-78994000D02*
X174752000Y-78130000D01*
G04 #@! TO.N,/LIVE_IN*
X204476420Y-121190000D02*
X205734000Y-121190000D01*
D45*
X218180000Y-118255000D02*
X214780000Y-118255000D01*
X211845000Y-121190000D02*
X214780000Y-118255000D01*
X205099000Y-121190000D02*
X211845000Y-121190000D01*
D44*
G04 #@! TO.N,Net-(D1-Pad1)*
X192273000Y-42540000D02*
X191389000Y-41656000D01*
X195072000Y-42540000D02*
X192273000Y-42540000D01*
X191389000Y-37846000D02*
X189865000Y-36322000D01*
X191389000Y-41656000D02*
X191389000Y-37846000D01*
X189865000Y-36322000D02*
X184785000Y-36322000D01*
X184785000Y-36322000D02*
X170307000Y-50800000D01*
X170307000Y-50800000D02*
X167927000Y-50800000D01*
G04 #@! TO.N,Net-(D2-Pad1)*
X170307000Y-49530000D02*
X167927000Y-49530000D01*
X175000000Y-42540000D02*
X175000000Y-44837000D01*
X175000000Y-44837000D02*
X170307000Y-49530000D01*
G04 #@! TO.N,Net-(D3-Pad1)*
X167024600Y-48260000D02*
X167927000Y-48260000D01*
X166116000Y-48260000D02*
X167024600Y-48260000D01*
X164152201Y-46296201D02*
X166116000Y-48260000D01*
X160469201Y-46296201D02*
X164152201Y-46296201D01*
X155000000Y-42540000D02*
X156713000Y-42540000D01*
X156713000Y-42540000D02*
X160469201Y-46296201D01*
G04 #@! TO.N,Net-(D4-Pad1)*
X160020000Y-41275000D02*
X159766000Y-41275000D01*
X151257000Y-41275000D02*
X160020000Y-41275000D01*
X135000000Y-42540000D02*
X149992000Y-42540000D01*
X149992000Y-42540000D02*
X151257000Y-41275000D01*
X170688000Y-46990000D02*
X167927000Y-46990000D01*
X171196000Y-46482000D02*
X170688000Y-46990000D01*
X171196000Y-41910000D02*
X171196000Y-46482000D01*
X160020000Y-41275000D02*
X170561000Y-41275000D01*
X170561000Y-41275000D02*
X171196000Y-41910000D01*
G04 #@! TO.N,Net-(D5-Pad1)*
X124280000Y-43000000D02*
X126549179Y-45269179D01*
X156765566Y-45269180D02*
X158486386Y-46990000D01*
X126549179Y-45269179D02*
X156765566Y-45269180D01*
X115000000Y-43000000D02*
X124280000Y-43000000D01*
X158486386Y-46990000D02*
X162527000Y-46990000D01*
G04 #@! TO.N,Net-(SW1-Pad1)*
X194310000Y-62103000D02*
X197500000Y-57500000D01*
X91465400Y-62103000D02*
X194310000Y-62103000D01*
X85877400Y-56515000D02*
X91465400Y-62103000D01*
X72923400Y-56515000D02*
X85877400Y-56515000D01*
X71755000Y-59650000D02*
X71755000Y-57683400D01*
X71755000Y-57683400D02*
X72923400Y-56515000D01*
G04 #@! TO.N,Net-(SW2-Pad1)*
X177500000Y-57500000D02*
X177500000Y-52500000D01*
X70815200Y-58124816D02*
X74174427Y-54765589D01*
X70815200Y-60706000D02*
X70815200Y-58124816D01*
X176400001Y-58599999D02*
X177500000Y-57500000D01*
X71221600Y-61112400D02*
X70815200Y-60706000D01*
X72694800Y-61112400D02*
X71221600Y-61112400D01*
X74174427Y-54765589D02*
X84626374Y-54765590D01*
X73025000Y-59650000D02*
X73025000Y-60782200D01*
X91582784Y-61722000D02*
X173278000Y-61722000D01*
X73025000Y-60782200D02*
X72694800Y-61112400D01*
X84626374Y-54765590D02*
X91582784Y-61722000D01*
X173278000Y-61722000D02*
X176400001Y-58599999D01*
G04 #@! TO.N,Net-(SW3-Pad1)*
X157500000Y-57500000D02*
X157500000Y-52500000D01*
X154637980Y-49637980D02*
X157500000Y-52500000D01*
X76835000Y-51689000D02*
X78079600Y-52933600D01*
X88411234Y-52933600D02*
X91706854Y-49637980D01*
X76835000Y-50350000D02*
X76835000Y-51689000D01*
X78079600Y-52933600D02*
X88411234Y-52933600D01*
X91706854Y-49637980D02*
X154637980Y-49637980D01*
G04 #@! TO.N,Net-(SW4-Pad1)*
X137500000Y-57500000D02*
X137500000Y-52500000D01*
X134990391Y-49990391D02*
X137500000Y-52500000D01*
X75565000Y-50350000D02*
X75565000Y-51577784D01*
X77273227Y-53286011D02*
X88557208Y-53286010D01*
X88557208Y-53286010D02*
X91852827Y-49990391D01*
X75565000Y-51577784D02*
X77273227Y-53286011D01*
X91852827Y-49990391D02*
X134990391Y-49990391D01*
G04 #@! TO.N,Net-(SW5-Pad1)*
X117500000Y-57500000D02*
X117500000Y-52500000D01*
X115342802Y-50342802D02*
X117500000Y-52500000D01*
X74295000Y-51384200D02*
X76549220Y-53638420D01*
X74295000Y-50350000D02*
X74295000Y-51384200D01*
X76549220Y-53638420D02*
X88703182Y-53638420D01*
X88703182Y-53638420D02*
X91998800Y-50342802D01*
X91998800Y-50342802D02*
X115342802Y-50342802D01*
G04 #@! TO.N,Net-(SW6-Pad1)*
X97500000Y-57500000D02*
X97500000Y-52500000D01*
X96009169Y-53990831D02*
X97500000Y-52500000D01*
X75631631Y-53990831D02*
X96009169Y-53990831D01*
X73025000Y-50350000D02*
X73025000Y-51384200D01*
X73025000Y-51384200D02*
X75631631Y-53990831D01*
G04 #@! TO.N,/POW2*
X219093600Y-67847200D02*
X217691200Y-67847200D01*
X219739200Y-67847200D02*
X219093600Y-67847200D01*
X220824411Y-68932411D02*
X219739200Y-67847200D01*
X220824411Y-80155973D02*
X220824411Y-68932411D01*
X220138563Y-80841821D02*
X220824411Y-80155973D01*
X195712957Y-80841822D02*
X220138563Y-80841821D01*
X176974500Y-68643500D02*
X178412727Y-67205273D01*
X176974500Y-69618500D02*
X176974500Y-68643500D01*
X178412727Y-67205273D02*
X183810505Y-67205273D01*
X183810505Y-67205273D02*
X184750090Y-68144858D01*
X184750090Y-68144858D02*
X184750090Y-69878954D01*
X184750090Y-69878954D02*
X195712957Y-80841822D01*
G04 #@! TO.N,/POW1*
X175704500Y-68580000D02*
X175704500Y-69618500D01*
X183956478Y-66852862D02*
X177431638Y-66852862D01*
X185102500Y-67998884D02*
X183956478Y-66852862D01*
X185102500Y-69732980D02*
X185102500Y-67998884D01*
X218491200Y-69117200D02*
X220472000Y-71098000D01*
X217691200Y-69117200D02*
X218491200Y-69117200D01*
X220472000Y-71098000D02*
X220472000Y-80010000D01*
X220472000Y-80010000D02*
X219992589Y-80489411D01*
X219992589Y-80489411D02*
X195858929Y-80489410D01*
X177431638Y-66852862D02*
X175704500Y-68580000D01*
X195858929Y-80489410D02*
X185102500Y-69732980D01*
G04 #@! TO.N,/POW6*
X219739200Y-62767200D02*
X217691200Y-62767200D01*
X182496101Y-69618500D02*
X195129066Y-82251463D01*
X195129066Y-82251463D02*
X220722458Y-82251462D01*
X220722458Y-82251462D02*
X222234055Y-80739865D01*
X182054500Y-69618500D02*
X182496101Y-69618500D01*
X222234055Y-80739865D02*
X222234055Y-65262055D01*
X222234055Y-65262055D02*
X219739200Y-62767200D01*
G04 #@! TO.N,/POW5*
X219093600Y-64037200D02*
X217691200Y-64037200D01*
X221881644Y-80593892D02*
X221881644Y-66825244D01*
X195275038Y-81899053D02*
X220576485Y-81899051D01*
X221881644Y-66825244D02*
X219093600Y-64037200D01*
X180784500Y-68580000D02*
X181101993Y-68262507D01*
X180784500Y-69618500D02*
X180784500Y-68580000D01*
X181101993Y-68262507D02*
X183372587Y-68262507D01*
X220576485Y-81899051D02*
X221881644Y-80593892D01*
X183372587Y-68262507D02*
X183670590Y-68560510D01*
X183670590Y-68560510D02*
X183670590Y-70294605D01*
X183670590Y-70294605D02*
X195275038Y-81899053D01*
G04 #@! TO.N,/POW4*
X219093600Y-65307200D02*
X217691200Y-65307200D01*
X221529233Y-80447919D02*
X221529233Y-67097233D01*
X219739200Y-65307200D02*
X219093600Y-65307200D01*
X220430511Y-81546641D02*
X221529233Y-80447919D01*
X221529233Y-67097233D02*
X219739200Y-65307200D01*
X195421013Y-81546642D02*
X220430511Y-81546641D01*
X179514500Y-68580000D02*
X180184404Y-67910096D01*
X179514500Y-69618500D02*
X179514500Y-68580000D01*
X180184404Y-67910096D02*
X183518560Y-67910096D01*
X183518560Y-67910096D02*
X184023001Y-68414537D01*
X184023001Y-68414537D02*
X184023001Y-70148632D01*
X184023001Y-70148632D02*
X195421013Y-81546642D01*
G04 #@! TO.N,/POW3*
X219093600Y-66577200D02*
X217691200Y-66577200D01*
X221176821Y-68660421D02*
X219093600Y-66577200D01*
X221176822Y-80301946D02*
X221176821Y-68660421D01*
X220284537Y-81194231D02*
X221176822Y-80301946D01*
X195566985Y-81194232D02*
X220284537Y-81194231D01*
X178244500Y-68580000D02*
X179266815Y-67557685D01*
X179266815Y-67557685D02*
X183664533Y-67557685D01*
X183664533Y-67557685D02*
X184397679Y-68290831D01*
X184397679Y-68290831D02*
X184397680Y-70024928D01*
X178244500Y-69618500D02*
X178244500Y-68580000D01*
X184397680Y-70024928D02*
X195566985Y-81194232D01*
G04 #@! TO.N,/TX*
X203737186Y-75467200D02*
X204470000Y-76200014D01*
X199691200Y-75467200D02*
X203737186Y-75467200D01*
G04 #@! TO.N,/RX*
X199691200Y-74197200D02*
X203864206Y-74197200D01*
X203864206Y-74197200D02*
X204470000Y-74802994D01*
D45*
G04 #@! TO.N,/LIVE*
X199130000Y-121190000D02*
X199149195Y-121209195D01*
D44*
X201936420Y-121190000D02*
X203194000Y-121190000D01*
D45*
X125470000Y-121190000D02*
X108960000Y-121190000D01*
X141980000Y-121190000D02*
X125470000Y-121190000D01*
X175254000Y-121190000D02*
X158490000Y-121190000D01*
X158490000Y-121190000D02*
X141980000Y-121190000D01*
X192025000Y-121190000D02*
X175254000Y-121190000D01*
X192025000Y-126350000D02*
X192025000Y-121190000D01*
X202559000Y-121190000D02*
X192025000Y-121190000D01*
X175254000Y-126350000D02*
X175254000Y-121190000D01*
X158490000Y-126350000D02*
X158490000Y-121190000D01*
X125470000Y-126350000D02*
X125470000Y-121190000D01*
X108960000Y-126350000D02*
X108960000Y-121190000D01*
X141980000Y-126350000D02*
X141980000Y-121190000D01*
X96120000Y-121286000D02*
X96000000Y-121406000D01*
X108960000Y-121190000D02*
X108864000Y-121286000D01*
X108864000Y-121286000D02*
X96120000Y-121286000D01*
X96000000Y-121406000D02*
X95894000Y-121300000D01*
X88687429Y-127000000D02*
X85344000Y-127000000D01*
X96000000Y-121406000D02*
X94281429Y-121406000D01*
X94281429Y-121406000D02*
X88687429Y-127000000D01*
G04 #@! TO.N,/LIVE1*
X107610000Y-138335000D02*
X108960000Y-131350000D01*
G04 #@! TO.N,/LIVE2*
X124200000Y-138335000D02*
X125470000Y-131350000D01*
X124247000Y-138335000D02*
X124200000Y-138335000D01*
G04 #@! TO.N,/LIVE3*
X140837000Y-138335000D02*
X141980000Y-131350000D01*
X140884000Y-138335000D02*
X140837000Y-138335000D01*
G04 #@! TO.N,/NEUTRAL4*
X150997000Y-131350000D02*
X150870000Y-131350000D01*
G04 #@! TO.N,/LIVE4*
X157521000Y-138335000D02*
X158490000Y-131350000D01*
G04 #@! TO.N,/LIVE5*
X174158000Y-138335000D02*
X175254000Y-131350000D01*
G04 #@! TO.N,/NEUTRAL5*
X167888000Y-131477000D02*
X168015000Y-131350000D01*
G04 #@! TO.N,/LIVE6*
X190795000Y-138335000D02*
X192018000Y-131350000D01*
D44*
G04 #@! TO.N,/Temp_Sense*
X201041000Y-43688000D02*
X201433000Y-36765000D01*
X201930000Y-58873086D02*
X201930000Y-58165980D01*
X201930000Y-59635106D02*
X201930000Y-58873086D01*
X201930090Y-59635196D02*
X201930000Y-59635106D01*
X201930090Y-63626910D02*
X201930090Y-59635196D01*
X199691200Y-64037200D02*
X201519800Y-64037200D01*
X201519800Y-64037200D02*
X201930090Y-63626910D01*
D45*
G04 #@! TO.N,/UNFUSED_LIVE*
X214780000Y-128175000D02*
X218180000Y-128175000D01*
X218815000Y-128810000D02*
X218180000Y-128175000D01*
X219243000Y-138335000D02*
X219243000Y-129238000D01*
X219243000Y-129238000D02*
X218815000Y-128810000D01*
D44*
G04 #@! TO.N,/EN*
X219695800Y-76135000D02*
X219695800Y-76073000D01*
X217691200Y-76737200D02*
X219093600Y-76737200D01*
X219093600Y-76737200D02*
X219695800Y-76135000D01*
X224127000Y-76073000D02*
X224409000Y-76355000D01*
X223012000Y-76073000D02*
X224127000Y-76073000D01*
X227905999Y-64133999D02*
X227056000Y-63284000D01*
X228473000Y-64701000D02*
X227905999Y-64133999D01*
X228473000Y-71120000D02*
X228473000Y-64701000D01*
X224409000Y-76355000D02*
X224409000Y-75184000D01*
X224409000Y-75184000D02*
X228473000Y-71120000D01*
G04 #@! TO.N,/IO0*
X199691200Y-62767200D02*
X196693800Y-62767200D01*
X196088000Y-63373000D02*
X192532000Y-63373000D01*
X196693800Y-62767200D02*
X196088000Y-63373000D01*
X227018000Y-60706000D02*
X227056000Y-60744000D01*
X224028000Y-60706000D02*
X227018000Y-60706000D01*
X222372176Y-59055000D02*
X215519000Y-59055000D01*
X224028000Y-60706000D02*
X222377000Y-59055000D01*
X222377000Y-59055000D02*
X222372176Y-59055000D01*
X211313798Y-57262798D02*
X200420202Y-57262798D01*
X199691200Y-62164800D02*
X199691200Y-62767200D01*
X213106000Y-59055000D02*
X211313798Y-57262798D01*
X200420202Y-57262798D02*
X199691200Y-57991800D01*
X199691200Y-57991800D02*
X199691200Y-62164800D01*
G04 #@! TO.N,/Sounder*
X97575000Y-70700000D02*
X98933000Y-72058000D01*
X97000000Y-70700000D02*
X97575000Y-70700000D01*
X98933000Y-72058000D02*
X98933000Y-81026000D01*
X98933000Y-81026000D02*
X100076000Y-82169000D01*
X100076000Y-82169000D02*
X167338200Y-82169000D01*
X167338200Y-82169000D02*
X168402000Y-81105200D01*
X199662000Y-77978000D02*
X199691200Y-78007200D01*
X197104000Y-77978000D02*
X199662000Y-77978000D01*
X171566279Y-76488790D02*
X171566279Y-72464221D01*
X188214000Y-77606616D02*
X188214000Y-78486000D01*
X171566279Y-72464221D02*
X172245411Y-71785089D01*
X172245411Y-71785089D02*
X182392473Y-71785089D01*
X182392473Y-71785089D02*
X188214000Y-77606616D01*
X169735500Y-78314869D02*
X169289159Y-78761210D01*
X171566279Y-76488790D02*
X169735500Y-78314869D01*
G04 #@! TO.N,Net-(LS1-Pad2)*
X85700000Y-70600000D02*
X90700000Y-70600000D01*
X83200000Y-73100000D02*
X85700000Y-70600000D01*
X91752000Y-70600000D02*
X90700000Y-70600000D01*
X93014000Y-70764000D02*
X91916000Y-70764000D01*
X91916000Y-70764000D02*
X91752000Y-70600000D01*
G04 #@! TO.N,Net-(Q2-Pad3)*
X94246000Y-72796000D02*
X93900000Y-72450000D01*
X95472000Y-72796000D02*
X94246000Y-72796000D01*
X97000000Y-72450000D02*
X95818000Y-72450000D01*
X95818000Y-72450000D02*
X95472000Y-72796000D01*
G04 #@! TO.N,Net-(U7-Pad1)*
X188189000Y-45799000D02*
X188457000Y-45531000D01*
X188189000Y-47908600D02*
X188189000Y-45799000D01*
G04 #@! TO.N,Net-(U7-Pad2)*
X186919000Y-45893000D02*
X186557000Y-45531000D01*
X186919000Y-47908600D02*
X186919000Y-45893000D01*
G04 #@! TO.N,Net-(D6-Pad1)*
X111788589Y-45621589D02*
X156619592Y-45621590D01*
X108707000Y-42540000D02*
X111788589Y-45621589D01*
X95000000Y-42540000D02*
X108707000Y-42540000D01*
X156619592Y-45621590D02*
X159258002Y-48260000D01*
X159258002Y-48260000D02*
X162527000Y-48260000D01*
G04 #@! TO.N,+BATT*
X226872800Y-43484800D02*
X233824400Y-43484800D01*
X223672400Y-40284400D02*
X226872800Y-43484800D01*
X218160600Y-40284400D02*
X223672400Y-40284400D01*
X207924400Y-43484800D02*
X214960200Y-43484800D01*
X214960200Y-43484800D02*
X218160600Y-40284400D01*
X207924400Y-46964600D02*
X207924400Y-43484800D01*
X185649000Y-48836000D02*
X186139800Y-49326800D01*
X185649000Y-47908600D02*
X185649000Y-48836000D01*
X186139800Y-49326800D02*
X189941200Y-49326800D01*
X189941200Y-49326800D02*
X191770000Y-47498000D01*
X191770000Y-47498000D02*
X207391000Y-47498000D01*
X207391000Y-47498000D02*
X207924400Y-46964600D01*
G04 #@! TO.N,RE2*
X178700000Y-92463000D02*
X178816000Y-92347000D01*
X176974500Y-73344000D02*
X176974500Y-75018500D01*
X125470000Y-104426000D02*
X126105000Y-103791000D01*
X126105000Y-103791000D02*
X178531000Y-103791000D01*
X178816000Y-92499000D02*
X178740000Y-92423000D01*
X125470000Y-106350000D02*
X125470000Y-104426000D01*
X178531000Y-103791000D02*
X180086000Y-102236000D01*
X180086000Y-102236000D02*
X180086000Y-93769000D01*
X180086000Y-93769000D02*
X178816000Y-92499000D01*
X178816000Y-90534780D02*
X178816000Y-92330000D01*
X180322280Y-89028500D02*
X178816000Y-90534780D01*
X181546500Y-88584000D02*
X181102000Y-89028500D01*
X181102000Y-89028500D02*
X180322280Y-89028500D01*
X183959500Y-80518000D02*
X185102500Y-81661000D01*
X182626000Y-88584000D02*
X181546500Y-88584000D01*
X183832500Y-80518000D02*
X183959500Y-80518000D01*
X185102500Y-81661000D02*
X185102500Y-84655116D01*
X185102500Y-84655116D02*
X182816500Y-86941116D01*
X182816500Y-86941116D02*
X182816500Y-88393500D01*
X182816500Y-88393500D02*
X182626000Y-88584000D01*
G04 #@! TO.N,RE1*
X108960000Y-104426000D02*
X108960000Y-106350000D01*
X109976000Y-103410000D02*
X108960000Y-104426000D01*
X177642000Y-103410000D02*
X109976000Y-103410000D01*
X178816000Y-94869000D02*
X178816000Y-102236000D01*
X178816000Y-102236000D02*
X177642000Y-103410000D01*
X183832500Y-84520000D02*
X183832500Y-82994500D01*
X175704500Y-77979500D02*
X177482500Y-79757500D01*
X175704500Y-75018500D02*
X175704500Y-77979500D01*
X177482500Y-79757500D02*
X177482500Y-83756500D01*
X179324000Y-85598000D02*
X182754500Y-85598000D01*
X177482500Y-83756500D02*
X179324000Y-85598000D01*
X182754500Y-85598000D02*
X183832500Y-84520000D01*
X180975000Y-88402618D02*
X180975000Y-85598000D01*
X177952401Y-94005401D02*
X177951401Y-94005401D01*
X180730118Y-88647500D02*
X180975000Y-88402618D01*
X178816000Y-94869000D02*
X177952401Y-94005401D01*
X177951401Y-94005401D02*
X177546000Y-93600000D01*
X177546000Y-93600000D02*
X177546000Y-90678000D01*
X177546000Y-90678000D02*
X179576500Y-88647500D01*
X179576500Y-88647500D02*
X180730118Y-88647500D01*
G04 #@! TO.N,RE4*
X181300000Y-92463000D02*
X181356000Y-92407000D01*
X181356000Y-92499000D02*
X181280000Y-92423000D01*
X182626000Y-93769000D02*
X181356000Y-92499000D01*
X182626000Y-102236000D02*
X182626000Y-93769000D01*
X180309000Y-104553000D02*
X182626000Y-102236000D01*
X158490000Y-106350000D02*
X160287000Y-104553000D01*
X160287000Y-104553000D02*
X180309000Y-104553000D01*
X179514500Y-76392000D02*
X179514500Y-75018500D01*
X179514500Y-77470000D02*
X179514500Y-76392000D01*
X181292500Y-80454500D02*
X181292500Y-79248000D01*
X181292500Y-79248000D02*
X179514500Y-77470000D01*
G04 #@! TO.N,RE3*
X179391411Y-104200589D02*
X181356000Y-102236000D01*
X142713411Y-104200589D02*
X179391411Y-104200589D01*
X141980000Y-106350000D02*
X141980000Y-104934000D01*
X141980000Y-104934000D02*
X142713411Y-104200589D01*
X180963558Y-89536000D02*
X181941710Y-89536000D01*
X179716201Y-90783357D02*
X180963558Y-89536000D01*
X181356000Y-102236000D02*
X181356000Y-94870000D01*
X181205251Y-82907251D02*
X181292500Y-82994500D01*
X180022500Y-81724500D02*
X181205251Y-82907251D01*
X180022500Y-79757500D02*
X180022500Y-81724500D01*
X178244500Y-75018500D02*
X178244500Y-77979500D01*
X178244500Y-77979500D02*
X180022500Y-79757500D01*
G04 #@! TO.N,RE6*
X192018000Y-106343000D02*
X192025000Y-106350000D01*
X183896000Y-92521000D02*
X183896000Y-92499000D01*
X185166000Y-93791000D02*
X183896000Y-92521000D01*
X185166000Y-102236000D02*
X185166000Y-93791000D01*
X192025000Y-106350000D02*
X189280000Y-106350000D01*
X189280000Y-106350000D02*
X185166000Y-102236000D01*
X183896000Y-78422500D02*
X185102500Y-78422500D01*
X182054500Y-75018500D02*
X182054500Y-76581000D01*
X182054500Y-76581000D02*
X183896000Y-78422500D01*
G04 #@! TO.N,RE5*
X175254000Y-106350000D02*
X179782000Y-106350000D01*
X179782000Y-106350000D02*
X183896000Y-102236000D01*
X183896000Y-102236000D02*
X183896000Y-94870000D01*
X180784500Y-77979500D02*
X182562500Y-79757500D01*
X180784500Y-75018500D02*
X180784500Y-77979500D01*
X182562500Y-79757500D02*
X182562500Y-83947000D01*
X182562500Y-83947000D02*
X181927500Y-84582000D01*
X181927500Y-84582000D02*
X179070000Y-84582000D01*
X178752500Y-84264500D02*
X178752500Y-82994500D01*
X179070000Y-84582000D02*
X178752500Y-84264500D01*
G04 #@! TO.N,Power_Sense*
X202564000Y-112300000D02*
X202564000Y-109760000D01*
X203202979Y-114430979D02*
X203202979Y-115809195D01*
X202692000Y-113920000D02*
X203202979Y-114430979D01*
X202564000Y-112300000D02*
X202692000Y-112428000D01*
X202692000Y-112428000D02*
X202692000Y-113920000D01*
X189103000Y-81472000D02*
X189103000Y-77470000D01*
X199662000Y-66548000D02*
X199691200Y-66577200D01*
X193167000Y-66548000D02*
X199662000Y-66548000D01*
X203512790Y-108811210D02*
X202564000Y-109760000D01*
X203512790Y-106485790D02*
X203512790Y-108811210D01*
X189357000Y-92330000D02*
X203512790Y-106485790D01*
X186436000Y-92330000D02*
X189357000Y-92330000D01*
X183197500Y-89091500D02*
X186436000Y-92330000D01*
X183197500Y-87058500D02*
X183197500Y-89091500D01*
X184467500Y-85788500D02*
X183197500Y-87058500D01*
X184720000Y-85788500D02*
X184467500Y-85788500D01*
X189103000Y-81472000D02*
X189103000Y-84139000D01*
X189103000Y-84139000D02*
X187452000Y-85790000D01*
X187452000Y-85790000D02*
X184721500Y-85790000D01*
X184721500Y-85790000D02*
X184720000Y-85788500D01*
X186817000Y-76708000D02*
X186817000Y-78295500D01*
X174625000Y-80456000D02*
X172148500Y-77979500D01*
X176212500Y-80456000D02*
X174625000Y-80456000D01*
X172148500Y-77979500D02*
X172148500Y-72645500D01*
X172148500Y-72645500D02*
X172656500Y-72137500D01*
X189103000Y-80581500D02*
X189103000Y-81472000D01*
X172656500Y-72137500D02*
X182246500Y-72137500D01*
X186817000Y-78295500D02*
X189103000Y-80581500D01*
X182246500Y-72137500D02*
X186817000Y-76708000D01*
G04 #@! TO.N,Net-(D5-Pad2)*
X115000000Y-40460000D02*
X115201000Y-40259000D01*
G04 #@! TO.N,Net-(D7-Pad1)*
X87117000Y-42540000D02*
X90551000Y-45974000D01*
X90551000Y-45974000D02*
X156473618Y-45974000D01*
X75000000Y-42540000D02*
X87117000Y-42540000D01*
X156473618Y-45974000D02*
X160029618Y-49530000D01*
X160029618Y-49530000D02*
X162527000Y-49530000D01*
G04 #@! TO.N,Net-(R2-Pad2)*
X76835000Y-60552400D02*
X76835000Y-62992000D01*
X76835000Y-59650000D02*
X76835000Y-60552400D01*
X76835000Y-59650000D02*
X76835000Y-59200000D01*
G04 #@! TO.N,SDA*
X193678800Y-72927200D02*
X184556400Y-63804800D01*
X199691200Y-72927200D02*
X193678800Y-72927200D01*
X184556400Y-63804800D02*
X182473600Y-63804800D01*
X184246000Y-53441600D02*
X184379000Y-53308600D01*
X183235600Y-53441600D02*
X184246000Y-53441600D01*
X181909244Y-47619244D02*
X181980000Y-47690000D01*
X169535382Y-52070000D02*
X167927000Y-52070000D01*
X183235600Y-52832000D02*
X182986810Y-52583210D01*
X183235600Y-53441600D02*
X183235600Y-52832000D01*
X180980210Y-52583210D02*
X177927000Y-49530000D01*
X182986810Y-52583210D02*
X180980210Y-52583210D01*
X172075382Y-49530000D02*
X169535382Y-52070000D01*
X181980000Y-47690000D02*
X177100000Y-47690000D01*
X176276000Y-48514000D02*
X176276000Y-49530000D01*
X177100000Y-47690000D02*
X176276000Y-48514000D01*
X177927000Y-49530000D02*
X176276000Y-49530000D01*
X176276000Y-49530000D02*
X172075382Y-49530000D01*
X79375000Y-58420000D02*
X79375000Y-59650000D01*
X79883000Y-57912000D02*
X79375000Y-58420000D01*
X82178616Y-57912000D02*
X79883000Y-57912000D01*
X87074438Y-62807822D02*
X82178616Y-57912000D01*
X182473600Y-63804800D02*
X181476622Y-62807822D01*
X181476622Y-62807822D02*
X87074438Y-62807822D01*
G04 #@! TO.N,SCL*
X78130400Y-59675400D02*
X78105000Y-59650000D01*
X78130400Y-61468000D02*
X78130400Y-59675400D01*
X181457600Y-64922400D02*
X185175616Y-64922400D01*
X185175616Y-64922400D02*
X196990416Y-76737200D01*
X196990416Y-76737200D02*
X199691200Y-76737200D01*
X180746400Y-64211200D02*
X181457600Y-64922400D01*
X181980000Y-55488008D02*
X181991000Y-55499008D01*
X181980000Y-53532000D02*
X181980000Y-55488008D01*
X84039033Y-63160233D02*
X179695433Y-63160233D01*
X82346800Y-61468000D02*
X84039033Y-63160233D01*
X179695433Y-63160233D02*
X180746400Y-64211200D01*
X181167000Y-53532000D02*
X181980000Y-53532000D01*
X163429400Y-52070000D02*
X164005601Y-52646201D01*
X164005601Y-52646201D02*
X169603799Y-52646201D01*
X162527000Y-52070000D02*
X163429400Y-52070000D01*
X169603799Y-52646201D02*
X172212000Y-50038000D01*
X172212000Y-50038000D02*
X177673000Y-50038000D01*
X177673000Y-50038000D02*
X181167000Y-53532000D01*
X184911992Y-55499008D02*
X181991000Y-55499008D01*
X185649000Y-53308600D02*
X185649000Y-54762000D01*
X185649000Y-54762000D02*
X184911992Y-55499008D01*
G04 #@! TD*
M02*
