%TF.GenerationSoftware,KiCad,Pcbnew,(5.0.0)*%
%TF.CreationDate,2018-09-12T13:45:48+01:00*%
%TF.ProjectId,AquaHub,417175614875622E6B696361645F7063,rev?*%
%TF.SameCoordinates,Original*%
%TF.FileFunction,Soldermask,Bot*%
%TF.FilePolarity,Negative*%
%FSLAX46Y46*%
G04 Gerber Fmt 4.6, Leading zero omitted, Abs format (unit mm)*
G04 Created by KiCad (PCBNEW (5.0.0)) date 09/12/18 13:45:48*
%MOMM*%
%LPD*%
G01*
G04 APERTURE LIST*
%ADD10C,0.200000*%
%ADD11C,2.200000*%
%ADD12R,2.127200X2.127200*%
%ADD13O,2.127200X2.127200*%
%ADD14R,1.000000X1.900000*%
%ADD15O,1.470000X2.200000*%
%ADD16R,1.470000X2.200000*%
%ADD17C,2.400000*%
%ADD18R,2.400000X2.400000*%
%ADD19O,2.100000X2.100000*%
%ADD20R,2.100000X2.100000*%
%ADD21C,1.924000*%
%ADD22C,4.700000*%
%ADD23R,1.900000X1.000000*%
%ADD24C,0.150000*%
%ADD25C,1.550000*%
%ADD26C,1.900000*%
%ADD27C,2.900000*%
%ADD28C,1.400000*%
%ADD29C,3.000000*%
%ADD30R,3.000000X3.000000*%
%ADD31O,1.300000X2.900000*%
%ADD32O,2.900000X1.300000*%
%ADD33R,6.400000X6.400000*%
%ADD34R,1.250000X1.250000*%
%ADD35O,1.250000X1.250000*%
G04 APERTURE END LIST*
D10*
X55118000Y-106680000D02*
X48006000Y-106680000D01*
X55118000Y-109728000D02*
X55118000Y-106680000D01*
X51054000Y-109728000D02*
X55118000Y-109728000D01*
X146050000Y-115570000D02*
X146050000Y-118110000D01*
X140335000Y-63500000D02*
X140335000Y-60960000D01*
X148590000Y-60960000D02*
X148590000Y-63500000D01*
X148590000Y-63500000D02*
X208280000Y-63500000D01*
X208280000Y-60960000D02*
X148590000Y-60960000D01*
X208280000Y-37465000D02*
X208280000Y-60960000D01*
X38100000Y-37465000D02*
X208280000Y-37465000D01*
X38100000Y-60960000D02*
X38100000Y-37465000D01*
X140335000Y-60960000D02*
X38100000Y-60960000D01*
X48006000Y-118364000D02*
X48006000Y-106680000D01*
X146050000Y-118110000D02*
X48006000Y-118364000D01*
X51054000Y-115316000D02*
X146050000Y-115570000D01*
X51054000Y-109728000D02*
X51054000Y-115316000D01*
X38100000Y-153670000D02*
X208280000Y-153670000D01*
X38100000Y-63500000D02*
X38100000Y-153670000D01*
X140335000Y-63500000D02*
X38100000Y-63500000D01*
X208280000Y-63500000D02*
X208280000Y-153670000D01*
D11*
X41550000Y-100210000D03*
X44450000Y-92710000D03*
D12*
X153035000Y-46355000D03*
D13*
X150495000Y-46355000D03*
X153035000Y-48895000D03*
X150495000Y-48895000D03*
X153035000Y-51435000D03*
X150495000Y-51435000D03*
D14*
X142875000Y-54610000D03*
X141605000Y-54610000D03*
X140335000Y-54610000D03*
X139065000Y-54610000D03*
X137795000Y-54610000D03*
X136525000Y-54610000D03*
X135255000Y-54610000D03*
X133985000Y-54610000D03*
X133985000Y-45310000D03*
X135255000Y-45310000D03*
X136525000Y-45310000D03*
X137795000Y-45310000D03*
X139065000Y-45310000D03*
X140335000Y-45310000D03*
X141605000Y-45310000D03*
X142875000Y-45310000D03*
D13*
X161925000Y-77470000D03*
X161925000Y-74930000D03*
X164465000Y-77470000D03*
X164465000Y-74930000D03*
X167005000Y-77470000D03*
D12*
X167005000Y-74930000D03*
D15*
X120015000Y-44450000D03*
X118745000Y-44450000D03*
X117475000Y-44450000D03*
D16*
X116205000Y-44450000D03*
D17*
X115515000Y-50800000D03*
X120015000Y-50800000D03*
X115515000Y-57300000D03*
X120015000Y-57300000D03*
X69365000Y-57300000D03*
X64865000Y-57300000D03*
X69365000Y-50800000D03*
X64865000Y-50800000D03*
X81453344Y-88927320D03*
X81452344Y-96547320D03*
X53465000Y-88927320D03*
D18*
X53465000Y-104140000D03*
D19*
X142240000Y-74930000D03*
X144780000Y-74930000D03*
D20*
X147320000Y-74930000D03*
D21*
X60960000Y-113030000D03*
X60960000Y-120650000D03*
X60960000Y-125730000D03*
X60960000Y-130810000D03*
X53340000Y-130810000D03*
X53340000Y-125730000D03*
X53340000Y-120650000D03*
X53340000Y-113030000D03*
X77470000Y-113030000D03*
X77470000Y-120650000D03*
X77470000Y-125730000D03*
X77470000Y-130810000D03*
X69850000Y-130810000D03*
X69850000Y-125730000D03*
X69850000Y-120650000D03*
X69850000Y-113030000D03*
X93980000Y-113030000D03*
X93980000Y-120650000D03*
X93980000Y-125730000D03*
X93980000Y-130810000D03*
X86360000Y-130810000D03*
X86360000Y-125730000D03*
X86360000Y-120650000D03*
X86360000Y-113030000D03*
X110490000Y-112776000D03*
X110490000Y-120396000D03*
X110490000Y-125476000D03*
X110490000Y-130556000D03*
X102870000Y-130556000D03*
X102870000Y-125476000D03*
X102870000Y-120396000D03*
X102870000Y-112776000D03*
X127254000Y-112776000D03*
X127254000Y-120396000D03*
X127254000Y-125476000D03*
X127254000Y-130556000D03*
X119634000Y-130556000D03*
X119634000Y-125476000D03*
X119634000Y-120396000D03*
X119634000Y-112776000D03*
X144145000Y-112776000D03*
X144145000Y-120396000D03*
X144145000Y-125476000D03*
X144145000Y-130556000D03*
X136525000Y-130556000D03*
X136525000Y-125476000D03*
X136525000Y-120396000D03*
X136525000Y-112776000D03*
D22*
X43180000Y-68580000D03*
X43180000Y-149225000D03*
X202565000Y-68580000D03*
X203200000Y-148590000D03*
D23*
X138110000Y-100330000D03*
X138110000Y-101600000D03*
X138110000Y-102870000D03*
X138110000Y-104140000D03*
X138110000Y-105410000D03*
X138110000Y-106680000D03*
X138110000Y-107950000D03*
X138110000Y-109220000D03*
X143510000Y-109220000D03*
X143510000Y-107950000D03*
X143510000Y-106680000D03*
X143510000Y-105410000D03*
X143510000Y-104140000D03*
X143510000Y-102870000D03*
X143510000Y-101600000D03*
X143510000Y-100330000D03*
D19*
X186690000Y-74930000D03*
X189230000Y-74930000D03*
X191770000Y-74930000D03*
D20*
X194310000Y-74930000D03*
D24*
G36*
X198961071Y-107566623D02*
X198993781Y-107571475D01*
X199025857Y-107579509D01*
X199056991Y-107590649D01*
X199086884Y-107604787D01*
X199115247Y-107621787D01*
X199141807Y-107641485D01*
X199166308Y-107663692D01*
X199188515Y-107688193D01*
X199208213Y-107714753D01*
X199225213Y-107743116D01*
X199239351Y-107773009D01*
X199250491Y-107804143D01*
X199258525Y-107836219D01*
X199263377Y-107868929D01*
X199265000Y-107901956D01*
X199265000Y-108778044D01*
X199263377Y-108811071D01*
X199258525Y-108843781D01*
X199250491Y-108875857D01*
X199239351Y-108906991D01*
X199225213Y-108936884D01*
X199208213Y-108965247D01*
X199188515Y-108991807D01*
X199166308Y-109016308D01*
X199141807Y-109038515D01*
X199115247Y-109058213D01*
X199086884Y-109075213D01*
X199056991Y-109089351D01*
X199025857Y-109100491D01*
X198993781Y-109108525D01*
X198961071Y-109113377D01*
X198928044Y-109115000D01*
X197801956Y-109115000D01*
X197768929Y-109113377D01*
X197736219Y-109108525D01*
X197704143Y-109100491D01*
X197673009Y-109089351D01*
X197643116Y-109075213D01*
X197614753Y-109058213D01*
X197588193Y-109038515D01*
X197563692Y-109016308D01*
X197541485Y-108991807D01*
X197521787Y-108965247D01*
X197504787Y-108936884D01*
X197490649Y-108906991D01*
X197479509Y-108875857D01*
X197471475Y-108843781D01*
X197466623Y-108811071D01*
X197465000Y-108778044D01*
X197465000Y-107901956D01*
X197466623Y-107868929D01*
X197471475Y-107836219D01*
X197479509Y-107804143D01*
X197490649Y-107773009D01*
X197504787Y-107743116D01*
X197521787Y-107714753D01*
X197541485Y-107688193D01*
X197563692Y-107663692D01*
X197588193Y-107641485D01*
X197614753Y-107621787D01*
X197643116Y-107604787D01*
X197673009Y-107590649D01*
X197704143Y-107579509D01*
X197736219Y-107571475D01*
X197768929Y-107566623D01*
X197801956Y-107565000D01*
X198928044Y-107565000D01*
X198961071Y-107566623D01*
X198961071Y-107566623D01*
G37*
D25*
X198365000Y-108340000D03*
D24*
G36*
X198961071Y-105516623D02*
X198993781Y-105521475D01*
X199025857Y-105529509D01*
X199056991Y-105540649D01*
X199086884Y-105554787D01*
X199115247Y-105571787D01*
X199141807Y-105591485D01*
X199166308Y-105613692D01*
X199188515Y-105638193D01*
X199208213Y-105664753D01*
X199225213Y-105693116D01*
X199239351Y-105723009D01*
X199250491Y-105754143D01*
X199258525Y-105786219D01*
X199263377Y-105818929D01*
X199265000Y-105851956D01*
X199265000Y-106728044D01*
X199263377Y-106761071D01*
X199258525Y-106793781D01*
X199250491Y-106825857D01*
X199239351Y-106856991D01*
X199225213Y-106886884D01*
X199208213Y-106915247D01*
X199188515Y-106941807D01*
X199166308Y-106966308D01*
X199141807Y-106988515D01*
X199115247Y-107008213D01*
X199086884Y-107025213D01*
X199056991Y-107039351D01*
X199025857Y-107050491D01*
X198993781Y-107058525D01*
X198961071Y-107063377D01*
X198928044Y-107065000D01*
X197801956Y-107065000D01*
X197768929Y-107063377D01*
X197736219Y-107058525D01*
X197704143Y-107050491D01*
X197673009Y-107039351D01*
X197643116Y-107025213D01*
X197614753Y-107008213D01*
X197588193Y-106988515D01*
X197563692Y-106966308D01*
X197541485Y-106941807D01*
X197521787Y-106915247D01*
X197504787Y-106886884D01*
X197490649Y-106856991D01*
X197479509Y-106825857D01*
X197471475Y-106793781D01*
X197466623Y-106761071D01*
X197465000Y-106728044D01*
X197465000Y-105851956D01*
X197466623Y-105818929D01*
X197471475Y-105786219D01*
X197479509Y-105754143D01*
X197490649Y-105723009D01*
X197504787Y-105693116D01*
X197521787Y-105664753D01*
X197541485Y-105638193D01*
X197563692Y-105613692D01*
X197588193Y-105591485D01*
X197614753Y-105571787D01*
X197643116Y-105554787D01*
X197673009Y-105540649D01*
X197704143Y-105529509D01*
X197736219Y-105521475D01*
X197768929Y-105516623D01*
X197801956Y-105515000D01*
X198928044Y-105515000D01*
X198961071Y-105516623D01*
X198961071Y-105516623D01*
G37*
D25*
X198365000Y-106290000D03*
D24*
G36*
X194764372Y-108271525D02*
X194795112Y-108276085D01*
X194825257Y-108283636D01*
X194854516Y-108294105D01*
X194882609Y-108307392D01*
X194909264Y-108323368D01*
X194934224Y-108341880D01*
X194957250Y-108362750D01*
X194978120Y-108385776D01*
X194996632Y-108410736D01*
X195012608Y-108437391D01*
X195025895Y-108465484D01*
X195036364Y-108494743D01*
X195043915Y-108524888D01*
X195048475Y-108555628D01*
X195050000Y-108586667D01*
X195050000Y-109853333D01*
X195048475Y-109884372D01*
X195043915Y-109915112D01*
X195036364Y-109945257D01*
X195025895Y-109974516D01*
X195012608Y-110002609D01*
X194996632Y-110029264D01*
X194978120Y-110054224D01*
X194957250Y-110077250D01*
X194934224Y-110098120D01*
X194909264Y-110116632D01*
X194882609Y-110132608D01*
X194854516Y-110145895D01*
X194825257Y-110156364D01*
X194795112Y-110163915D01*
X194764372Y-110168475D01*
X194733333Y-110170000D01*
X192616667Y-110170000D01*
X192585628Y-110168475D01*
X192554888Y-110163915D01*
X192524743Y-110156364D01*
X192495484Y-110145895D01*
X192467391Y-110132608D01*
X192440736Y-110116632D01*
X192415776Y-110098120D01*
X192392750Y-110077250D01*
X192371880Y-110054224D01*
X192353368Y-110029264D01*
X192337392Y-110002609D01*
X192324105Y-109974516D01*
X192313636Y-109945257D01*
X192306085Y-109915112D01*
X192301525Y-109884372D01*
X192300000Y-109853333D01*
X192300000Y-108586667D01*
X192301525Y-108555628D01*
X192306085Y-108524888D01*
X192313636Y-108494743D01*
X192324105Y-108465484D01*
X192337392Y-108437391D01*
X192353368Y-108410736D01*
X192371880Y-108385776D01*
X192392750Y-108362750D01*
X192415776Y-108341880D01*
X192440736Y-108323368D01*
X192467391Y-108307392D01*
X192495484Y-108294105D01*
X192524743Y-108283636D01*
X192554888Y-108276085D01*
X192585628Y-108271525D01*
X192616667Y-108270000D01*
X194733333Y-108270000D01*
X194764372Y-108271525D01*
X194764372Y-108271525D01*
G37*
D26*
X193675000Y-109220000D03*
D24*
G36*
X194764372Y-105021525D02*
X194795112Y-105026085D01*
X194825257Y-105033636D01*
X194854516Y-105044105D01*
X194882609Y-105057392D01*
X194909264Y-105073368D01*
X194934224Y-105091880D01*
X194957250Y-105112750D01*
X194978120Y-105135776D01*
X194996632Y-105160736D01*
X195012608Y-105187391D01*
X195025895Y-105215484D01*
X195036364Y-105244743D01*
X195043915Y-105274888D01*
X195048475Y-105305628D01*
X195050000Y-105336667D01*
X195050000Y-106603333D01*
X195048475Y-106634372D01*
X195043915Y-106665112D01*
X195036364Y-106695257D01*
X195025895Y-106724516D01*
X195012608Y-106752609D01*
X194996632Y-106779264D01*
X194978120Y-106804224D01*
X194957250Y-106827250D01*
X194934224Y-106848120D01*
X194909264Y-106866632D01*
X194882609Y-106882608D01*
X194854516Y-106895895D01*
X194825257Y-106906364D01*
X194795112Y-106913915D01*
X194764372Y-106918475D01*
X194733333Y-106920000D01*
X192616667Y-106920000D01*
X192585628Y-106918475D01*
X192554888Y-106913915D01*
X192524743Y-106906364D01*
X192495484Y-106895895D01*
X192467391Y-106882608D01*
X192440736Y-106866632D01*
X192415776Y-106848120D01*
X192392750Y-106827250D01*
X192371880Y-106804224D01*
X192353368Y-106779264D01*
X192337392Y-106752609D01*
X192324105Y-106724516D01*
X192313636Y-106695257D01*
X192306085Y-106665112D01*
X192301525Y-106634372D01*
X192300000Y-106603333D01*
X192300000Y-105336667D01*
X192301525Y-105305628D01*
X192306085Y-105274888D01*
X192313636Y-105244743D01*
X192324105Y-105215484D01*
X192337392Y-105187391D01*
X192353368Y-105160736D01*
X192371880Y-105135776D01*
X192392750Y-105112750D01*
X192415776Y-105091880D01*
X192440736Y-105073368D01*
X192467391Y-105057392D01*
X192495484Y-105044105D01*
X192524743Y-105033636D01*
X192554888Y-105026085D01*
X192585628Y-105021525D01*
X192616667Y-105020000D01*
X194733333Y-105020000D01*
X194764372Y-105021525D01*
X194764372Y-105021525D01*
G37*
D26*
X193675000Y-105970000D03*
D15*
X107315000Y-44450000D03*
X106045000Y-44450000D03*
X104775000Y-44450000D03*
D16*
X103505000Y-44450000D03*
D15*
X94615000Y-44450000D03*
X93345000Y-44450000D03*
X92075000Y-44450000D03*
D16*
X90805000Y-44450000D03*
D15*
X81915000Y-44450000D03*
X80645000Y-44450000D03*
X79375000Y-44450000D03*
D16*
X78105000Y-44450000D03*
D15*
X69215000Y-44450000D03*
X67945000Y-44450000D03*
X66675000Y-44450000D03*
D16*
X65405000Y-44450000D03*
D15*
X56515000Y-44450000D03*
X55245000Y-44450000D03*
X53975000Y-44450000D03*
D16*
X52705000Y-44450000D03*
D27*
X204470000Y-49530000D03*
X41910000Y-49530000D03*
D17*
X102965000Y-50800000D03*
X107465000Y-50800000D03*
X102965000Y-57300000D03*
X107465000Y-57300000D03*
X94765000Y-57300000D03*
X90265000Y-57300000D03*
X94765000Y-50800000D03*
X90265000Y-50800000D03*
X77415000Y-50800000D03*
X81915000Y-50800000D03*
X77415000Y-57300000D03*
X81915000Y-57300000D03*
X57205000Y-57300000D03*
X52705000Y-57300000D03*
X57205000Y-50800000D03*
X52705000Y-50800000D03*
D28*
X147320000Y-62230000D03*
X145415000Y-62230000D03*
X143510000Y-62230000D03*
X141605000Y-62230000D03*
D29*
X92884000Y-140335000D03*
D30*
X87884000Y-140335000D03*
X104521000Y-140335000D03*
D29*
X109521000Y-140335000D03*
X126158000Y-140335000D03*
D30*
X121158000Y-140335000D03*
D29*
X59610000Y-140335000D03*
D30*
X54610000Y-140335000D03*
X178435000Y-140335000D03*
D29*
X183435000Y-140335000D03*
X188435000Y-140335000D03*
D31*
X200105000Y-82775000D03*
X198835000Y-82775000D03*
X197565000Y-82775000D03*
X196295000Y-82775000D03*
X195025000Y-82775000D03*
X193755000Y-82775000D03*
X192485000Y-82775000D03*
X191215000Y-82775000D03*
X189945000Y-82775000D03*
X188675000Y-82775000D03*
X187405000Y-82775000D03*
X186135000Y-82775000D03*
X184865000Y-82775000D03*
X183595000Y-82775000D03*
D32*
X182105000Y-86060000D03*
X182105000Y-87330000D03*
X182105000Y-88600000D03*
X182105000Y-89870000D03*
X182105000Y-91140000D03*
X182105000Y-92410000D03*
X182105000Y-93680000D03*
X182105000Y-94950000D03*
X182105000Y-96220000D03*
X182105000Y-97490000D03*
D31*
X183595000Y-100775000D03*
X184865000Y-100775000D03*
X186135000Y-100775000D03*
X187405000Y-100775000D03*
X188675000Y-100775000D03*
X189945000Y-100775000D03*
X191215000Y-100775000D03*
X192485000Y-100775000D03*
X193755000Y-100775000D03*
X195025000Y-100775000D03*
X196295000Y-100775000D03*
X197565000Y-100775000D03*
X198835000Y-100775000D03*
X200105000Y-100775000D03*
D33*
X192405000Y-92075000D03*
D29*
X76247000Y-140335000D03*
D30*
X71247000Y-140335000D03*
X137795000Y-140335000D03*
D29*
X142795000Y-140335000D03*
D30*
X155575000Y-140335000D03*
D29*
X160575000Y-140335000D03*
X165575000Y-140335000D03*
D34*
X183515000Y-72660000D03*
D35*
X183515000Y-71660000D03*
M02*
