G04 #@! TF.GenerationSoftware,KiCad,Pcbnew,(6.0.0-rc1-dev-904-g29e0e6921)*
G04 #@! TF.CreationDate,2018-10-15T14:12:22+01:00*
G04 #@! TF.ProjectId,AquaHub,417175614875622E6B696361645F7063,rev?*
G04 #@! TF.SameCoordinates,Original*
G04 #@! TF.FileFunction,Copper,L2,Bot,Signal*
G04 #@! TF.FilePolarity,Positive*
%FSLAX46Y46*%
G04 Gerber Fmt 4.6, Leading zero omitted, Abs format (unit mm)*
G04 Created by KiCad (PCBNEW (6.0.0-rc1-dev-904-g29e0e6921)) date 15/10/2018 14:12:22*
%MOMM*%
%LPD*%
G01*
G04 APERTURE LIST*
G04 #@! TA.AperFunction,ComponentPad*
%ADD10O,1.727200X1.727200*%
G04 #@! TD*
G04 #@! TA.AperFunction,ComponentPad*
%ADD11R,1.727200X1.727200*%
G04 #@! TD*
G04 #@! TA.AperFunction,SMDPad,CuDef*
%ADD12R,0.500000X1.000000*%
G04 #@! TD*
G04 #@! TA.AperFunction,SMDPad,CuDef*
%ADD13R,1.300000X0.500000*%
G04 #@! TD*
G04 #@! TA.AperFunction,ComponentPad*
%ADD14C,1.800000*%
G04 #@! TD*
G04 #@! TA.AperFunction,ComponentPad*
%ADD15R,1.800000X1.800000*%
G04 #@! TD*
G04 #@! TA.AperFunction,ComponentPad*
%ADD16C,2.200000*%
G04 #@! TD*
G04 #@! TA.AperFunction,ComponentPad*
%ADD17O,1.700000X1.700000*%
G04 #@! TD*
G04 #@! TA.AperFunction,ComponentPad*
%ADD18R,1.700000X1.700000*%
G04 #@! TD*
G04 #@! TA.AperFunction,ComponentPad*
%ADD19C,2.500000*%
G04 #@! TD*
G04 #@! TA.AperFunction,ComponentPad*
%ADD20R,2.500000X2.500000*%
G04 #@! TD*
G04 #@! TA.AperFunction,ComponentPad*
%ADD21C,2.600000*%
G04 #@! TD*
G04 #@! TA.AperFunction,ComponentPad*
%ADD22R,2.600000X2.600000*%
G04 #@! TD*
G04 #@! TA.AperFunction,ComponentPad*
%ADD23C,2.800000*%
G04 #@! TD*
G04 #@! TA.AperFunction,ComponentPad*
%ADD24C,2.780000*%
G04 #@! TD*
G04 #@! TA.AperFunction,ComponentPad*
%ADD25C,2.000000*%
G04 #@! TD*
G04 #@! TA.AperFunction,ComponentPad*
%ADD26R,2.000000X2.000000*%
G04 #@! TD*
G04 #@! TA.AperFunction,ComponentPad*
%ADD27C,1.000000*%
G04 #@! TD*
G04 #@! TA.AperFunction,ViaPad*
%ADD28C,1.000000*%
G04 #@! TD*
G04 #@! TA.AperFunction,Conductor*
%ADD29C,0.152400*%
G04 #@! TD*
G04 #@! TA.AperFunction,Conductor*
%ADD30C,2.000000*%
G04 #@! TD*
G04 #@! TA.AperFunction,Conductor*
%ADD31C,0.254000*%
G04 #@! TD*
G04 APERTURE END LIST*
D10*
G04 #@! TO.P,J7,10*
G04 #@! TO.N,+5V*
X176212500Y-82994500D03*
G04 #@! TO.P,J7,9*
G04 #@! TO.N,Power_Sense*
X176212500Y-80454500D03*
G04 #@! TO.P,J7,8*
G04 #@! TO.N,RE5*
X178752500Y-82994500D03*
G04 #@! TO.P,J7,7*
G04 #@! TO.N,RE6*
X178752500Y-80454500D03*
G04 #@! TO.P,J7,6*
G04 #@! TO.N,RE3*
X181292500Y-82994500D03*
G04 #@! TO.P,J7,5*
G04 #@! TO.N,RE4*
X181292500Y-80454500D03*
G04 #@! TO.P,J7,4*
G04 #@! TO.N,RE1*
X183832500Y-82994500D03*
G04 #@! TO.P,J7,3*
G04 #@! TO.N,RE2*
X183832500Y-80454500D03*
G04 #@! TO.P,J7,2*
G04 #@! TO.N,GND*
X186372500Y-82994500D03*
D11*
G04 #@! TO.P,J7,1*
G04 #@! TO.N,+12V*
X186372500Y-80454500D03*
G04 #@! TD*
D12*
G04 #@! TO.P,RN1,10*
G04 #@! TO.N,N/C*
X143975000Y-40805000D03*
G04 #@! TO.P,RN1,9*
X143975000Y-36905000D03*
D13*
G04 #@! TO.P,RN1,8*
G04 #@! TO.N,Net-(D7-Pad2)*
X142875000Y-37605000D03*
G04 #@! TO.P,RN1,7*
G04 #@! TO.N,Net-(D6-Pad2)*
X142875000Y-38405000D03*
G04 #@! TO.P,RN1,6*
G04 #@! TO.N,Net-(D5-Pad2)*
X142875000Y-39205000D03*
G04 #@! TO.P,RN1,5*
G04 #@! TO.N,Net-(D4-Pad2)*
X142875000Y-40005000D03*
G04 #@! TO.P,RN1,4*
G04 #@! TO.N,Net-(D3-Pad2)*
X145075000Y-40005000D03*
G04 #@! TO.P,RN1,3*
G04 #@! TO.N,Net-(D2-Pad2)*
X145075000Y-39205000D03*
G04 #@! TO.P,RN1,2*
G04 #@! TO.N,Net-(D1-Pad2)*
X145075000Y-38405000D03*
G04 #@! TO.P,RN1,1*
G04 #@! TO.N,+5V*
X145075000Y-37605000D03*
G04 #@! TD*
D14*
G04 #@! TO.P,D1,2*
G04 #@! TO.N,Net-(D1-Pad2)*
X195072000Y-40000000D03*
D15*
G04 #@! TO.P,D1,1*
G04 #@! TO.N,Net-(D1-Pad1)*
X195072000Y-42540000D03*
G04 #@! TD*
D16*
G04 #@! TO.P,SW3,2*
G04 #@! TO.N,GND*
X152500000Y-52500000D03*
G04 #@! TO.P,SW3,1*
G04 #@! TO.N,Net-(SW3-Pad1)*
X157500000Y-52500000D03*
G04 #@! TO.P,SW3,4*
G04 #@! TO.N,GND*
X152500000Y-57500000D03*
G04 #@! TO.P,SW3,3*
G04 #@! TO.N,Net-(SW3-Pad1)*
X157500000Y-57500000D03*
G04 #@! TD*
D17*
G04 #@! TO.P,J14,3*
G04 #@! TO.N,+5V*
X198893000Y-36765000D03*
G04 #@! TO.P,J14,2*
G04 #@! TO.N,/Temp_Sense*
X201433000Y-36765000D03*
D18*
G04 #@! TO.P,J14,1*
G04 #@! TO.N,GND*
X203973000Y-36765000D03*
G04 #@! TD*
D19*
G04 #@! TO.P,K1,8*
G04 #@! TO.N,/NEUTRAL1*
X101460000Y-131350000D03*
G04 #@! TO.P,K1,7*
G04 #@! TO.N,/NEUTRAL*
X101460000Y-126350000D03*
G04 #@! TO.P,K1,5*
G04 #@! TO.N,+12V*
X101460000Y-106350000D03*
G04 #@! TO.P,K1,4*
G04 #@! TO.N,RE1*
X108960000Y-106350000D03*
G04 #@! TO.P,K1,2*
G04 #@! TO.N,/LIVE*
X108960000Y-126350000D03*
D20*
G04 #@! TO.P,K1,1*
G04 #@! TO.N,/LIVE1*
X108960000Y-131350000D03*
G04 #@! TD*
D16*
G04 #@! TO.P,SW2,2*
G04 #@! TO.N,GND*
X172500000Y-52500000D03*
G04 #@! TO.P,SW2,1*
G04 #@! TO.N,Net-(SW2-Pad1)*
X177500000Y-52500000D03*
G04 #@! TO.P,SW2,4*
G04 #@! TO.N,GND*
X172500000Y-57500000D03*
G04 #@! TO.P,SW2,3*
G04 #@! TO.N,Net-(SW2-Pad1)*
X177500000Y-57500000D03*
G04 #@! TD*
G04 #@! TO.P,SW4,2*
G04 #@! TO.N,GND*
X132500000Y-52500000D03*
G04 #@! TO.P,SW4,1*
G04 #@! TO.N,Net-(SW4-Pad1)*
X137500000Y-52500000D03*
G04 #@! TO.P,SW4,4*
G04 #@! TO.N,GND*
X132500000Y-57500000D03*
G04 #@! TO.P,SW4,3*
G04 #@! TO.N,Net-(SW4-Pad1)*
X137500000Y-57500000D03*
G04 #@! TD*
D19*
G04 #@! TO.P,K6,8*
G04 #@! TO.N,/NEUTRAL6*
X184525000Y-131350000D03*
G04 #@! TO.P,K6,7*
G04 #@! TO.N,/NEUTRAL*
X184525000Y-126350000D03*
G04 #@! TO.P,K6,5*
G04 #@! TO.N,+12V*
X184525000Y-106350000D03*
G04 #@! TO.P,K6,4*
G04 #@! TO.N,RE6*
X192025000Y-106350000D03*
G04 #@! TO.P,K6,2*
G04 #@! TO.N,/LIVE*
X192025000Y-126350000D03*
D20*
G04 #@! TO.P,K6,1*
G04 #@! TO.N,/LIVE6*
X192025000Y-131350000D03*
G04 #@! TD*
D21*
G04 #@! TO.P,J8,2*
G04 #@! TO.N,/UNFUSED_LIVE*
X219243000Y-138335000D03*
D22*
G04 #@! TO.P,J8,1*
G04 #@! TO.N,/NEUTRAL*
X214243000Y-138335000D03*
G04 #@! TD*
D21*
G04 #@! TO.P,J6,2*
G04 #@! TO.N,/LIVE6*
X190795000Y-138335000D03*
D22*
G04 #@! TO.P,J6,1*
G04 #@! TO.N,/NEUTRAL6*
X185795000Y-138335000D03*
G04 #@! TD*
D21*
G04 #@! TO.P,J2,2*
G04 #@! TO.N,/LIVE2*
X124247000Y-138335000D03*
D22*
G04 #@! TO.P,J2,1*
G04 #@! TO.N,/NEUTRAL2*
X119247000Y-138335000D03*
G04 #@! TD*
D21*
G04 #@! TO.P,J1,2*
G04 #@! TO.N,/LIVE1*
X107610000Y-138335000D03*
D22*
G04 #@! TO.P,J1,1*
G04 #@! TO.N,/NEUTRAL1*
X102610000Y-138335000D03*
G04 #@! TD*
D21*
G04 #@! TO.P,J5,2*
G04 #@! TO.N,/LIVE5*
X174158000Y-138335000D03*
D22*
G04 #@! TO.P,J5,1*
G04 #@! TO.N,/NEUTRAL5*
X169158000Y-138335000D03*
G04 #@! TD*
D21*
G04 #@! TO.P,J4,2*
G04 #@! TO.N,/LIVE4*
X157521000Y-138335000D03*
D22*
G04 #@! TO.P,J4,1*
G04 #@! TO.N,/NEUTRAL4*
X152521000Y-138335000D03*
G04 #@! TD*
D21*
G04 #@! TO.P,J3,2*
G04 #@! TO.N,/LIVE3*
X140884000Y-138335000D03*
D22*
G04 #@! TO.P,J3,1*
G04 #@! TO.N,/NEUTRAL3*
X135884000Y-138335000D03*
G04 #@! TD*
D17*
G04 #@! TO.P,J13,2*
G04 #@! TO.N,GND*
X192532000Y-60833000D03*
D18*
G04 #@! TO.P,J13,1*
G04 #@! TO.N,/IO0*
X192532000Y-63373000D03*
G04 #@! TD*
D14*
G04 #@! TO.P,RV1,2*
G04 #@! TO.N,/NEUTRAL*
X93100000Y-128906000D03*
G04 #@! TO.P,RV1,1*
G04 #@! TO.N,/LIVE*
X96000000Y-121406000D03*
G04 #@! TD*
D23*
G04 #@! TO.P,TP1,1*
G04 #@! TO.N,+5V*
X132540000Y-77985000D03*
G04 #@! TD*
G04 #@! TO.P,TP2,1*
G04 #@! TO.N,+3V3*
X162702000Y-77985000D03*
G04 #@! TD*
G04 #@! TO.P,TP3,1*
G04 #@! TO.N,GND*
X162702000Y-73585000D03*
G04 #@! TD*
G04 #@! TO.P,TP4,1*
G04 #@! TO.N,+12V*
X102600000Y-77985000D03*
G04 #@! TD*
D17*
G04 #@! TO.P,J10,6*
G04 #@! TO.N,+3V3*
X227056000Y-70904000D03*
G04 #@! TO.P,J10,5*
G04 #@! TO.N,/TX*
X227056000Y-68364000D03*
G04 #@! TO.P,J10,4*
G04 #@! TO.N,/RX*
X227056000Y-65824000D03*
G04 #@! TO.P,J10,3*
G04 #@! TO.N,/EN*
X227056000Y-63284000D03*
G04 #@! TO.P,J10,2*
G04 #@! TO.N,/IO0*
X227056000Y-60744000D03*
D18*
G04 #@! TO.P,J10,1*
G04 #@! TO.N,GND*
X227056000Y-58204000D03*
G04 #@! TD*
D24*
G04 #@! TO.P,F1,2*
G04 #@! TO.N,/UNFUSED_LIVE*
X214780000Y-128175000D03*
X218180000Y-128175000D03*
G04 #@! TO.P,F1,1*
G04 #@! TO.N,/LIVE_IN*
X214780000Y-118255000D03*
X218180000Y-118255000D03*
G04 #@! TD*
D25*
G04 #@! TO.P,V1,5*
G04 #@! TO.N,+12V*
X67564000Y-101600000D03*
G04 #@! TO.P,V1,3*
G04 #@! TO.N,N/C*
X85344000Y-96520000D03*
G04 #@! TO.P,V1,4*
G04 #@! TO.N,GND*
X67564000Y-96520000D03*
G04 #@! TO.P,V1,2*
G04 #@! TO.N,/NEUTRAL*
X85344000Y-121920000D03*
D26*
G04 #@! TO.P,V1,1*
G04 #@! TO.N,/LIVE*
X85344000Y-127000000D03*
G04 #@! TD*
D19*
G04 #@! TO.P,K2,8*
G04 #@! TO.N,/NEUTRAL2*
X117970000Y-131350000D03*
G04 #@! TO.P,K2,7*
G04 #@! TO.N,/NEUTRAL*
X117970000Y-126350000D03*
G04 #@! TO.P,K2,5*
G04 #@! TO.N,+12V*
X117970000Y-106350000D03*
G04 #@! TO.P,K2,4*
G04 #@! TO.N,RE2*
X125470000Y-106350000D03*
G04 #@! TO.P,K2,2*
G04 #@! TO.N,/LIVE*
X125470000Y-126350000D03*
D20*
G04 #@! TO.P,K2,1*
G04 #@! TO.N,/LIVE2*
X125470000Y-131350000D03*
G04 #@! TD*
D19*
G04 #@! TO.P,K3,8*
G04 #@! TO.N,/NEUTRAL3*
X134480000Y-131350000D03*
G04 #@! TO.P,K3,7*
G04 #@! TO.N,/NEUTRAL*
X134480000Y-126350000D03*
G04 #@! TO.P,K3,5*
G04 #@! TO.N,+12V*
X134480000Y-106350000D03*
G04 #@! TO.P,K3,4*
G04 #@! TO.N,RE3*
X141980000Y-106350000D03*
G04 #@! TO.P,K3,2*
G04 #@! TO.N,/LIVE*
X141980000Y-126350000D03*
D20*
G04 #@! TO.P,K3,1*
G04 #@! TO.N,/LIVE3*
X141980000Y-131350000D03*
G04 #@! TD*
D19*
G04 #@! TO.P,K4,8*
G04 #@! TO.N,/NEUTRAL4*
X150990000Y-131350000D03*
G04 #@! TO.P,K4,7*
G04 #@! TO.N,/NEUTRAL*
X150990000Y-126350000D03*
G04 #@! TO.P,K4,5*
G04 #@! TO.N,+12V*
X150990000Y-106350000D03*
G04 #@! TO.P,K4,4*
G04 #@! TO.N,RE4*
X158490000Y-106350000D03*
G04 #@! TO.P,K4,2*
G04 #@! TO.N,/LIVE*
X158490000Y-126350000D03*
D20*
G04 #@! TO.P,K4,1*
G04 #@! TO.N,/LIVE4*
X158490000Y-131350000D03*
G04 #@! TD*
D19*
G04 #@! TO.P,K5,8*
G04 #@! TO.N,/NEUTRAL5*
X167754000Y-131350000D03*
G04 #@! TO.P,K5,7*
G04 #@! TO.N,/NEUTRAL*
X167754000Y-126350000D03*
G04 #@! TO.P,K5,5*
G04 #@! TO.N,+12V*
X167754000Y-106350000D03*
G04 #@! TO.P,K5,4*
G04 #@! TO.N,RE5*
X175254000Y-106350000D03*
G04 #@! TO.P,K5,2*
G04 #@! TO.N,/LIVE*
X175254000Y-126350000D03*
D20*
G04 #@! TO.P,K5,1*
G04 #@! TO.N,/LIVE5*
X175254000Y-131350000D03*
G04 #@! TD*
D16*
G04 #@! TO.P,SW1,2*
G04 #@! TO.N,GND*
X192500000Y-52500000D03*
G04 #@! TO.P,SW1,1*
G04 #@! TO.N,Net-(SW1-Pad1)*
X197500000Y-52500000D03*
G04 #@! TO.P,SW1,4*
G04 #@! TO.N,GND*
X192500000Y-57500000D03*
G04 #@! TO.P,SW1,3*
G04 #@! TO.N,Net-(SW1-Pad1)*
X197500000Y-57500000D03*
G04 #@! TD*
G04 #@! TO.P,SW5,2*
G04 #@! TO.N,GND*
X112500000Y-52500000D03*
G04 #@! TO.P,SW5,1*
G04 #@! TO.N,Net-(SW5-Pad1)*
X117500000Y-52500000D03*
G04 #@! TO.P,SW5,4*
G04 #@! TO.N,GND*
X112500000Y-57500000D03*
G04 #@! TO.P,SW5,3*
G04 #@! TO.N,Net-(SW5-Pad1)*
X117500000Y-57500000D03*
G04 #@! TD*
G04 #@! TO.P,SW6,2*
G04 #@! TO.N,GND*
X92500000Y-52500000D03*
G04 #@! TO.P,SW6,1*
G04 #@! TO.N,Net-(SW6-Pad1)*
X97500000Y-52500000D03*
G04 #@! TO.P,SW6,4*
G04 #@! TO.N,GND*
X92500000Y-57500000D03*
G04 #@! TO.P,SW6,3*
G04 #@! TO.N,Net-(SW6-Pad1)*
X97500000Y-57500000D03*
G04 #@! TD*
D25*
G04 #@! TO.P,LS1,2*
G04 #@! TO.N,Net-(LS1-Pad2)*
X83200000Y-73100000D03*
D26*
G04 #@! TO.P,LS1,1*
G04 #@! TO.N,+5V*
X83200000Y-78100000D03*
G04 #@! TD*
D27*
G04 #@! TO.P,Y1,2*
G04 #@! TO.N,Net-(U7-Pad2)*
X186557000Y-45531000D03*
G04 #@! TO.P,Y1,1*
G04 #@! TO.N,Net-(U7-Pad1)*
X188457000Y-45531000D03*
G04 #@! TD*
D23*
G04 #@! TO.P,TP5,1*
G04 #@! TO.N,GND*
X102600000Y-73585000D03*
G04 #@! TD*
G04 #@! TO.P,TP6,1*
G04 #@! TO.N,GND*
X132540000Y-73585000D03*
G04 #@! TD*
D10*
G04 #@! TO.P,J11,10*
G04 #@! TO.N,+5V*
X186436000Y-94869000D03*
G04 #@! TO.P,J11,9*
G04 #@! TO.N,Power_Sense*
X186436000Y-92329000D03*
G04 #@! TO.P,J11,8*
G04 #@! TO.N,RE5*
X183896000Y-94869000D03*
G04 #@! TO.P,J11,7*
G04 #@! TO.N,RE6*
X183896000Y-92329000D03*
G04 #@! TO.P,J11,6*
G04 #@! TO.N,RE3*
X181356000Y-94869000D03*
G04 #@! TO.P,J11,5*
G04 #@! TO.N,RE4*
X181356000Y-92329000D03*
G04 #@! TO.P,J11,4*
G04 #@! TO.N,RE1*
X178816000Y-94869000D03*
G04 #@! TO.P,J11,3*
G04 #@! TO.N,RE2*
X178816000Y-92329000D03*
G04 #@! TO.P,J11,2*
G04 #@! TO.N,GND*
X176276000Y-94869000D03*
D11*
G04 #@! TO.P,J11,1*
G04 #@! TO.N,+12V*
X176276000Y-92329000D03*
G04 #@! TD*
D15*
G04 #@! TO.P,D2,1*
G04 #@! TO.N,Net-(D2-Pad1)*
X175000000Y-42540000D03*
D14*
G04 #@! TO.P,D2,2*
G04 #@! TO.N,Net-(D2-Pad2)*
X175000000Y-40000000D03*
G04 #@! TD*
G04 #@! TO.P,D3,2*
G04 #@! TO.N,Net-(D3-Pad2)*
X155000000Y-40000000D03*
D15*
G04 #@! TO.P,D3,1*
G04 #@! TO.N,Net-(D3-Pad1)*
X155000000Y-42540000D03*
G04 #@! TD*
G04 #@! TO.P,D4,1*
G04 #@! TO.N,Net-(D4-Pad1)*
X135000000Y-42540000D03*
D14*
G04 #@! TO.P,D4,2*
G04 #@! TO.N,Net-(D4-Pad2)*
X135000000Y-40000000D03*
G04 #@! TD*
G04 #@! TO.P,D5,2*
G04 #@! TO.N,Net-(D5-Pad2)*
X115000000Y-40000000D03*
D15*
G04 #@! TO.P,D5,1*
G04 #@! TO.N,Net-(D5-Pad1)*
X115000000Y-42540000D03*
G04 #@! TD*
G04 #@! TO.P,D6,1*
G04 #@! TO.N,Net-(D6-Pad1)*
X95000000Y-42540000D03*
D14*
G04 #@! TO.P,D6,2*
G04 #@! TO.N,Net-(D6-Pad2)*
X95000000Y-40000000D03*
G04 #@! TD*
D15*
G04 #@! TO.P,D7,1*
G04 #@! TO.N,Net-(D7-Pad1)*
X75000000Y-42540000D03*
D14*
G04 #@! TO.P,D7,2*
G04 #@! TO.N,Net-(D7-Pad2)*
X75000000Y-40000000D03*
G04 #@! TD*
D28*
G04 #@! TO.N,GND*
X206375000Y-108459000D03*
X171640500Y-69597498D03*
X93726000Y-68986400D03*
X170307000Y-45720000D03*
X165481000Y-53422401D03*
X165481000Y-45720000D03*
X165481000Y-44450000D03*
X89662000Y-50292010D03*
X228825410Y-72978590D03*
G04 #@! TO.N,+5V*
X146812000Y-36703000D03*
X175514000Y-50927000D03*
X179197000Y-49403000D03*
X167132000Y-79552799D03*
X169418000Y-60806156D03*
X169418000Y-63936433D03*
X167132000Y-77089000D03*
G04 #@! TO.N,+3V3*
X223012000Y-78119210D03*
X214249000Y-77977976D03*
G04 #@! TO.N,+12V*
X171005500Y-80329000D03*
X174688500Y-78994000D03*
G04 #@! TO.N,/TX*
X204470000Y-76200014D03*
G04 #@! TO.N,/RX*
X204470000Y-74802994D03*
G04 #@! TO.N,/Temp_Sense*
X201930000Y-58165980D03*
G04 #@! TO.N,/EN*
X219695800Y-76073000D03*
X223012000Y-76073000D03*
G04 #@! TO.N,/IO0*
X215519000Y-59055000D03*
X213106000Y-59055000D03*
G04 #@! TO.N,/Sounder*
X168402000Y-81105200D03*
X188214000Y-78486000D03*
X197104000Y-77978000D03*
X169289159Y-78761210D03*
G04 #@! TO.N,RE2*
X176974500Y-73344000D03*
G04 #@! TO.N,RE3*
X179716201Y-90783357D03*
X181941710Y-89536000D03*
G04 #@! TO.N,RE6*
X185102500Y-78422500D03*
G04 #@! TO.N,Power_Sense*
X189103000Y-77470000D03*
X193167000Y-66548000D03*
G04 #@! TO.N,SDA*
X182473600Y-63804800D03*
X183235600Y-53441600D03*
G04 #@! TO.N,SCL*
X82346800Y-61468000D03*
X78130400Y-61468000D03*
X180746400Y-64211200D03*
X181991000Y-55499008D03*
G04 #@! TD*
D29*
G04 #@! TO.N,GND*
X172500000Y-57500000D02*
X172500000Y-52500000D01*
X152500000Y-52500000D02*
X152500000Y-57500000D01*
X112500000Y-52500000D02*
X112500000Y-57500000D01*
X92500000Y-52500000D02*
X92500000Y-57500000D01*
X132500000Y-52400000D02*
X132500000Y-57400000D01*
X192500000Y-57500000D02*
X192500000Y-52500000D01*
X165400000Y-107616000D02*
X165400000Y-101000000D01*
X166370000Y-108586000D02*
X165400000Y-107616000D01*
X206375000Y-108459000D02*
X206248000Y-108586000D01*
X206248000Y-108586000D02*
X166370000Y-108586000D01*
X112500000Y-52500000D02*
X112522000Y-52478000D01*
X132500000Y-52500000D02*
X132486400Y-52486400D01*
X92500000Y-57500000D02*
X92500000Y-67760400D01*
X92500000Y-67760400D02*
X93726000Y-68986400D01*
X192500000Y-60801000D02*
X192532000Y-60833000D01*
X192500000Y-57500000D02*
X192500000Y-60801000D01*
X172500000Y-52500000D02*
X172500000Y-47913000D01*
X172500000Y-47913000D02*
X170307000Y-45720000D01*
X171400001Y-53599999D02*
X172500000Y-52500000D01*
X171077600Y-53922400D02*
X171400001Y-53599999D01*
X165980999Y-53922400D02*
X171077600Y-53922400D01*
X165481000Y-53422401D02*
X165980999Y-53922400D01*
X165481000Y-53422401D02*
X165481000Y-45720000D01*
X165481000Y-45720000D02*
X165481000Y-44450000D01*
X92500000Y-52500000D02*
X90292010Y-50292010D01*
X90292010Y-50292010D02*
X89662000Y-50292010D01*
X111400001Y-58599999D02*
X112500000Y-57500000D01*
X111123799Y-58876201D02*
X111400001Y-58599999D01*
X93876201Y-58876201D02*
X111123799Y-58876201D01*
X92500000Y-57500000D02*
X93876201Y-58876201D01*
X131400001Y-58599999D02*
X132500000Y-57500000D01*
X131123799Y-58876201D02*
X131400001Y-58599999D01*
X113876201Y-58876201D02*
X131123799Y-58876201D01*
X112500000Y-57500000D02*
X113876201Y-58876201D01*
X151400001Y-58599999D02*
X152500000Y-57500000D01*
X151123799Y-58876201D02*
X151400001Y-58599999D01*
X133876201Y-58876201D02*
X151123799Y-58876201D01*
X132500000Y-57500000D02*
X133876201Y-58876201D01*
X171400001Y-58599999D02*
X172500000Y-57500000D01*
X170945000Y-59055000D02*
X171400001Y-58599999D01*
X154055000Y-59055000D02*
X170945000Y-59055000D01*
X152500000Y-57500000D02*
X154055000Y-59055000D01*
X228058400Y-58204000D02*
X227056000Y-58204000D01*
X228825410Y-58971010D02*
X228058400Y-58204000D01*
X228825410Y-72978590D02*
X228825410Y-72978590D01*
X228825410Y-72978590D02*
X228825410Y-58971010D01*
X176720500Y-86360000D02*
X174599600Y-86360000D01*
X177165000Y-86804500D02*
X176720500Y-86360000D01*
X174853600Y-91212400D02*
X177165000Y-88901000D01*
X174599600Y-86360000D02*
X170116500Y-81876900D01*
X177165000Y-88901000D02*
X177165000Y-86804500D01*
X174853600Y-93447600D02*
X174853600Y-91212400D01*
X71520000Y-96520000D02*
X75966000Y-100966000D01*
X67564000Y-96520000D02*
X71520000Y-96520000D01*
X170116500Y-71121498D02*
X171640500Y-69597498D01*
X75966000Y-100966000D02*
X175514000Y-100966000D01*
X175514000Y-100966000D02*
X176276000Y-100268000D01*
X176276000Y-100268000D02*
X176276000Y-94870000D01*
X170116500Y-81876900D02*
X170116500Y-71121498D01*
X176276000Y-94870000D02*
X174853600Y-93447600D01*
X162713500Y-73596500D02*
X170116500Y-73596500D01*
X162702000Y-73585000D02*
X162713500Y-73596500D01*
G04 #@! TO.N,+5V*
X145910000Y-37605000D02*
X146812000Y-36703000D01*
X145075000Y-37605000D02*
X145910000Y-37605000D01*
X178489894Y-49403000D02*
X179197000Y-49403000D01*
X177038000Y-49403000D02*
X178489894Y-49403000D01*
X175514000Y-50927000D02*
X177038000Y-49403000D01*
X166293799Y-80391000D02*
X167132000Y-79552799D01*
X132540000Y-77985000D02*
X134946000Y-80391000D01*
X134946000Y-80391000D02*
X166293799Y-80391000D01*
X169418000Y-60806156D02*
X169418000Y-63936433D01*
X167132000Y-77089000D02*
X167132000Y-79552799D01*
X185572401Y-95732599D02*
X186436000Y-94869000D01*
X184912000Y-96393000D02*
X185572401Y-95732599D01*
X180086000Y-95885000D02*
X180594000Y-96393000D01*
X180086000Y-94234000D02*
X180086000Y-95885000D01*
X179451000Y-93599000D02*
X180086000Y-94234000D01*
X180594000Y-96393000D02*
X184912000Y-96393000D01*
X177546000Y-90805000D02*
X177546000Y-92964000D01*
X176212500Y-82994500D02*
X178844589Y-85626589D01*
X178844589Y-85626589D02*
X178844589Y-89506411D01*
X178844589Y-89506411D02*
X177546000Y-90805000D01*
X177546000Y-92964000D02*
X178181000Y-93599000D01*
X178181000Y-93599000D02*
X179451000Y-93599000D01*
G04 #@! TO.N,+3V3*
X227056000Y-72106081D02*
X227056000Y-70904000D01*
X227056000Y-77109000D02*
X227056000Y-72106081D01*
X226045790Y-78119210D02*
X227056000Y-77109000D01*
X223012000Y-78119210D02*
X226045790Y-78119210D01*
X214278224Y-78007200D02*
X214249000Y-77977976D01*
X223012000Y-78119210D02*
X222899990Y-78007200D01*
X222899990Y-78007200D02*
X214278224Y-78007200D01*
G04 #@! TO.N,+12V*
X176911000Y-93134000D02*
X176200000Y-92423000D01*
X172200000Y-101904000D02*
X176608000Y-101904000D01*
X167754000Y-106350000D02*
X172200000Y-101904000D01*
X177546000Y-100903000D02*
X177546000Y-94172000D01*
X177546000Y-94172000D02*
X176911000Y-93537000D01*
X176608000Y-101904000D02*
X177546000Y-100903000D01*
X176911000Y-93537000D02*
X176911000Y-93134000D01*
X171005500Y-80329000D02*
X174688500Y-78994000D01*
G04 #@! TO.N,Net-(SW1-Pad1)*
X197500000Y-57500000D02*
X197500000Y-52500000D01*
G04 #@! TO.N,/TX*
X205177106Y-76200014D02*
X204470000Y-76200014D01*
X225408410Y-75454590D02*
X223520000Y-77343000D01*
X223520000Y-77343000D02*
X215241581Y-77343000D01*
X227056000Y-68364000D02*
X225408410Y-70011590D01*
X215241581Y-77343000D02*
X214098595Y-76200014D01*
X225408410Y-70011590D02*
X225408410Y-75454590D01*
X214098595Y-76200014D02*
X205177106Y-76200014D01*
G04 #@! TO.N,/RX*
X204491006Y-74824000D02*
X204470000Y-74802994D01*
X224388000Y-74824000D02*
X204491006Y-74824000D01*
X225056000Y-74156000D02*
X224388000Y-74824000D01*
X227056000Y-65824000D02*
X225056000Y-67824000D01*
X225056000Y-67824000D02*
X225056000Y-74156000D01*
D30*
G04 #@! TO.N,/NEUTRAL*
X184525000Y-121190000D02*
X167754000Y-121190000D01*
X214116000Y-138462000D02*
X214243000Y-138335000D01*
X205480000Y-138335000D02*
X214243000Y-138335000D01*
X199257000Y-132112000D02*
X205480000Y-138335000D01*
X199257000Y-125000000D02*
X199257000Y-132112000D01*
X195447000Y-121190000D02*
X199257000Y-125000000D01*
X117970000Y-126350000D02*
X117970000Y-121190000D01*
X134480000Y-121190000D02*
X117970000Y-121190000D01*
X134480000Y-126350000D02*
X134480000Y-121190000D01*
X150990000Y-121190000D02*
X134480000Y-121190000D01*
X150990000Y-126350000D02*
X150990000Y-121190000D01*
X150990000Y-121190000D02*
X167754000Y-121190000D01*
X167754000Y-126350000D02*
X167754000Y-121190000D01*
X184525000Y-126350000D02*
X184525000Y-121190000D01*
X184525000Y-121190000D02*
X195447000Y-121190000D01*
X103536000Y-121190000D02*
X117970000Y-121190000D01*
X103505000Y-121159000D02*
X103536000Y-121190000D01*
X101460000Y-126350000D02*
X101460000Y-123204000D01*
X101460000Y-123204000D02*
X103505000Y-121159000D01*
X88920000Y-121920000D02*
X85344000Y-121920000D01*
X93100000Y-128906000D02*
X93100000Y-126100000D01*
X93100000Y-126100000D02*
X88920000Y-121920000D01*
X93000000Y-128815000D02*
X93091000Y-128906000D01*
X93000000Y-127000000D02*
X93000000Y-128815000D01*
X93634000Y-126366000D02*
X93000000Y-127000000D01*
X101460000Y-126350000D02*
X101444000Y-126366000D01*
X101444000Y-126366000D02*
X93634000Y-126366000D01*
G04 #@! TO.N,/NEUTRAL1*
X102610000Y-138335000D02*
X101467000Y-131350000D01*
G04 #@! TO.N,/NEUTRAL2*
X119247000Y-138335000D02*
X117977000Y-131350000D01*
G04 #@! TO.N,/NEUTRAL3*
X135884000Y-138335000D02*
X134360000Y-131350000D01*
G04 #@! TO.N,/NEUTRAL4*
X152521000Y-138335000D02*
X150997000Y-131350000D01*
G04 #@! TO.N,/NEUTRAL5*
X169158000Y-138335000D02*
X167888000Y-131477000D01*
G04 #@! TO.N,/NEUTRAL6*
X185795000Y-138335000D02*
X184525000Y-131350000D01*
D29*
G04 #@! TO.N,/Temp_Sense*
X201433000Y-36765000D02*
X201433000Y-57668980D01*
X201433000Y-57668980D02*
X201930000Y-58165980D01*
G04 #@! TO.N,/EN*
X219695800Y-76073000D02*
X223012000Y-76073000D01*
G04 #@! TO.N,/IO0*
X215519000Y-59055000D02*
X213106000Y-59055000D01*
G04 #@! TO.N,/Sounder*
X188214000Y-78486000D02*
X196596000Y-78486000D01*
X196596000Y-78486000D02*
X197104000Y-77978000D01*
X168789160Y-79261209D02*
X169289159Y-78761210D01*
X168402000Y-81105200D02*
X168402000Y-79648369D01*
X168402000Y-79648369D02*
X168789160Y-79261209D01*
G04 #@! TO.N,RE2*
X181800500Y-78422500D02*
X183832500Y-80454500D01*
X181800500Y-77217500D02*
X181800500Y-78422500D01*
X180213000Y-75630000D02*
X181800500Y-77217500D01*
X180213000Y-74106000D02*
X180213000Y-75630000D01*
X176974500Y-73344000D02*
X179451000Y-73344000D01*
X179451000Y-73344000D02*
X180213000Y-74106000D01*
G04 #@! TO.N,RE4*
X179197000Y-89091500D02*
X179197000Y-85480616D01*
X179197000Y-85480616D02*
X177482500Y-83766116D01*
X177482500Y-79819500D02*
X178244500Y-79057500D01*
X180428901Y-79590901D02*
X181292500Y-80454500D01*
X179895500Y-79057500D02*
X180428901Y-79590901D01*
X180492401Y-90386901D02*
X179197000Y-89091500D01*
X180492401Y-91466401D02*
X180492401Y-90386901D01*
X181356000Y-92330000D02*
X180492401Y-91466401D01*
X178244500Y-79057500D02*
X179895500Y-79057500D01*
X177482500Y-83766116D02*
X177482500Y-79819500D01*
G04 #@! TO.N,RE3*
X180492401Y-94006401D02*
X181356000Y-94870000D01*
X180086000Y-93600000D02*
X180492401Y-94006401D01*
X179716201Y-90783357D02*
X180086000Y-91759000D01*
X180086000Y-91759000D02*
X180086000Y-93600000D01*
X181165500Y-88759790D02*
X181941710Y-89536000D01*
X181292500Y-82994500D02*
X181165500Y-83121500D01*
X181165500Y-83121500D02*
X181165500Y-88759790D01*
G04 #@! TO.N,RE6*
X179957500Y-81724500D02*
X182562500Y-81724500D01*
X178752500Y-80519500D02*
X179957500Y-81724500D01*
X185102500Y-79129606D02*
X185102500Y-78422500D01*
X185102500Y-81343500D02*
X185102500Y-79129606D01*
X182562500Y-81724500D02*
X184721500Y-81724500D01*
X184721500Y-81724500D02*
X185102500Y-81343500D01*
X182562500Y-86186938D02*
X182562500Y-81724500D01*
X183134000Y-86758438D02*
X182562500Y-86186938D01*
X183896000Y-92330000D02*
X183134000Y-91568000D01*
X183134000Y-91568000D02*
X183134000Y-86758438D01*
G04 #@! TO.N,RE5*
X183032401Y-94006401D02*
X183896000Y-94870000D01*
X182626000Y-93600000D02*
X183032401Y-94006401D01*
X182626000Y-91568000D02*
X182626000Y-93600000D01*
X181116201Y-90058201D02*
X182626000Y-91568000D01*
X180813089Y-89754089D02*
X181102000Y-90043000D01*
X180813089Y-86325089D02*
X180813089Y-89754089D01*
X178752500Y-82994500D02*
X178752500Y-84264500D01*
X178752500Y-84264500D02*
X180813089Y-86325089D01*
G04 #@! TO.N,Power_Sense*
X189103000Y-77470000D02*
X189103000Y-70612000D01*
X189103000Y-70612000D02*
X193167000Y-66548000D01*
G04 #@! TO.N,Net-(D1-Pad2)*
X191394000Y-36322000D02*
X195072000Y-40000000D01*
X149225000Y-36322000D02*
X191394000Y-36322000D01*
X147193000Y-38354000D02*
X149225000Y-36322000D01*
X145075000Y-38405000D02*
X145126000Y-38354000D01*
X145126000Y-38354000D02*
X147193000Y-38354000D01*
G04 #@! TO.N,Net-(D2-Pad2)*
X174100001Y-39100001D02*
X175000000Y-40000000D01*
X173823799Y-38823799D02*
X174100001Y-39100001D01*
X148374201Y-38823799D02*
X173823799Y-38823799D01*
X145075000Y-39205000D02*
X147993000Y-39205000D01*
X147993000Y-39205000D02*
X148374201Y-38823799D01*
G04 #@! TO.N,Net-(D3-Pad2)*
X154995000Y-40005000D02*
X155000000Y-40000000D01*
X145075000Y-40005000D02*
X154995000Y-40005000D01*
G04 #@! TO.N,Net-(D4-Pad2)*
X135005000Y-40005000D02*
X135000000Y-40000000D01*
X142875000Y-40005000D02*
X135005000Y-40005000D01*
G04 #@! TO.N,Net-(D5-Pad2)*
X115899999Y-39560001D02*
X115000000Y-40460000D01*
X116636201Y-38823799D02*
X115899999Y-39560001D01*
X139153799Y-38823799D02*
X116636201Y-38823799D01*
X142875000Y-39205000D02*
X139535000Y-39205000D01*
X139535000Y-39205000D02*
X139153799Y-38823799D01*
G04 #@! TO.N,Net-(D6-Pad2)*
X96595000Y-38405000D02*
X95000000Y-40000000D01*
X142875000Y-38405000D02*
X96595000Y-38405000D01*
G04 #@! TO.N,Net-(D7-Pad2)*
X77395000Y-37605000D02*
X75000000Y-40000000D01*
X142875000Y-37605000D02*
X77395000Y-37605000D01*
G04 #@! TO.N,SDA*
X183235600Y-63042800D02*
X183235600Y-53441600D01*
X182473600Y-63804800D02*
X183235600Y-63042800D01*
G04 #@! TO.N,SCL*
X82346800Y-61468000D02*
X78130400Y-61468000D01*
X180746400Y-64211200D02*
X181991000Y-62966600D01*
X181991000Y-62966600D02*
X181991000Y-55499008D01*
G04 #@! TD*
D31*
G04 #@! TO.N,GND*
G36*
X235873000Y-85873000D02*
X218127000Y-85873000D01*
X218127000Y-81000000D01*
X218117333Y-80951399D01*
X218089803Y-80910197D01*
X218048601Y-80882667D01*
X218000000Y-80873000D01*
X199000000Y-80873000D01*
X198951399Y-80882667D01*
X198910197Y-80910197D01*
X198882667Y-80951399D01*
X198873000Y-81000000D01*
X198873000Y-85873000D01*
X183273700Y-85873000D01*
X183273700Y-84411307D01*
X183684902Y-84493100D01*
X183980098Y-84493100D01*
X184417225Y-84406150D01*
X184912930Y-84074930D01*
X185114354Y-83773479D01*
X185165679Y-83882990D01*
X185597553Y-84277188D01*
X186013474Y-84449458D01*
X186245500Y-84328317D01*
X186245500Y-83121500D01*
X186499500Y-83121500D01*
X186499500Y-84328317D01*
X186731526Y-84449458D01*
X187147447Y-84277188D01*
X187579321Y-83882990D01*
X187827468Y-83353527D01*
X187706969Y-83121500D01*
X186499500Y-83121500D01*
X186245500Y-83121500D01*
X186225500Y-83121500D01*
X186225500Y-82867500D01*
X186245500Y-82867500D01*
X186245500Y-82847500D01*
X186499500Y-82847500D01*
X186499500Y-82867500D01*
X187706969Y-82867500D01*
X187827468Y-82635473D01*
X187579321Y-82106010D01*
X187391550Y-81934619D01*
X187483865Y-81916257D01*
X187693909Y-81775909D01*
X187834257Y-81565865D01*
X187883540Y-81318100D01*
X187883540Y-79590900D01*
X187880664Y-79576443D01*
X187988234Y-79621000D01*
X188439766Y-79621000D01*
X188856926Y-79448207D01*
X189107933Y-79197200D01*
X196525959Y-79197200D01*
X196596000Y-79211132D01*
X196666041Y-79197200D01*
X196666046Y-79197200D01*
X196873496Y-79155936D01*
X196937754Y-79113000D01*
X197329766Y-79113000D01*
X197746926Y-78940207D01*
X198066207Y-78620926D01*
X198239000Y-78203766D01*
X198239000Y-77752234D01*
X198066207Y-77335074D01*
X197746926Y-77015793D01*
X197329766Y-76843000D01*
X196878234Y-76843000D01*
X196461074Y-77015793D01*
X196141793Y-77335074D01*
X195969000Y-77752234D01*
X195969000Y-77774800D01*
X190205263Y-77774800D01*
X190238000Y-77695766D01*
X190238000Y-77244234D01*
X190065207Y-76827074D01*
X189814200Y-76576067D01*
X189814200Y-74577228D01*
X203335000Y-74577228D01*
X203335000Y-75028760D01*
X203507793Y-75445920D01*
X203563377Y-75501504D01*
X203507793Y-75557088D01*
X203335000Y-75974248D01*
X203335000Y-76425780D01*
X203507793Y-76842940D01*
X203827074Y-77162221D01*
X204244234Y-77335014D01*
X204695766Y-77335014D01*
X205112926Y-77162221D01*
X205363933Y-76911214D01*
X213804007Y-76911214D01*
X213819965Y-76927173D01*
X213606074Y-77015769D01*
X213286793Y-77335050D01*
X213114000Y-77752210D01*
X213114000Y-78203742D01*
X213286793Y-78620902D01*
X213606074Y-78940183D01*
X214023234Y-79112976D01*
X214474766Y-79112976D01*
X214891926Y-78940183D01*
X215113709Y-78718400D01*
X222031677Y-78718400D01*
X222049793Y-78762136D01*
X222369074Y-79081417D01*
X222786234Y-79254210D01*
X223237766Y-79254210D01*
X223654926Y-79081417D01*
X223905933Y-78830410D01*
X225975749Y-78830410D01*
X226045790Y-78844342D01*
X226115831Y-78830410D01*
X226115836Y-78830410D01*
X226323286Y-78789146D01*
X226558536Y-78631956D01*
X226598214Y-78572574D01*
X227509369Y-77661420D01*
X227568745Y-77621746D01*
X227608420Y-77562369D01*
X227608424Y-77562365D01*
X227725935Y-77386497D01*
X227725936Y-77386496D01*
X227767200Y-77179046D01*
X227767200Y-77179042D01*
X227781132Y-77109000D01*
X227767200Y-77038958D01*
X227767200Y-74555431D01*
X230765000Y-74555431D01*
X230765000Y-75444569D01*
X231105259Y-76266026D01*
X231733974Y-76894741D01*
X232555431Y-77235000D01*
X233444569Y-77235000D01*
X234266026Y-76894741D01*
X234894741Y-76266026D01*
X235235000Y-75444569D01*
X235235000Y-74555431D01*
X234894741Y-73733974D01*
X234266026Y-73105259D01*
X233444569Y-72765000D01*
X232555431Y-72765000D01*
X231733974Y-73105259D01*
X231105259Y-73733974D01*
X230765000Y-74555431D01*
X227767200Y-74555431D01*
X227767200Y-72214785D01*
X228126625Y-71974625D01*
X228454839Y-71483418D01*
X228570092Y-70904000D01*
X228454839Y-70324582D01*
X228126625Y-69833375D01*
X227828239Y-69634000D01*
X228126625Y-69434625D01*
X228454839Y-68943418D01*
X228570092Y-68364000D01*
X228454839Y-67784582D01*
X228126625Y-67293375D01*
X227828239Y-67094000D01*
X228126625Y-66894625D01*
X228454839Y-66403418D01*
X228570092Y-65824000D01*
X228454839Y-65244582D01*
X228126625Y-64753375D01*
X227828239Y-64554000D01*
X228126625Y-64354625D01*
X228454839Y-63863418D01*
X228570092Y-63284000D01*
X228454839Y-62704582D01*
X228126625Y-62213375D01*
X227828239Y-62014000D01*
X228126625Y-61814625D01*
X228454839Y-61323418D01*
X228570092Y-60744000D01*
X228454839Y-60164582D01*
X228126625Y-59673375D01*
X228104967Y-59658904D01*
X228265698Y-59592327D01*
X228444327Y-59413699D01*
X228541000Y-59180310D01*
X228541000Y-58489750D01*
X228382250Y-58331000D01*
X227183000Y-58331000D01*
X227183000Y-58351000D01*
X226929000Y-58351000D01*
X226929000Y-58331000D01*
X225729750Y-58331000D01*
X225571000Y-58489750D01*
X225571000Y-59180310D01*
X225667673Y-59413699D01*
X225846302Y-59592327D01*
X226007033Y-59658904D01*
X225985375Y-59673375D01*
X225657161Y-60164582D01*
X225541908Y-60744000D01*
X225657161Y-61323418D01*
X225985375Y-61814625D01*
X226283761Y-62014000D01*
X225985375Y-62213375D01*
X225657161Y-62704582D01*
X225541908Y-63284000D01*
X225657161Y-63863418D01*
X225985375Y-64354625D01*
X226283761Y-64554000D01*
X225985375Y-64753375D01*
X225657161Y-65244582D01*
X225541908Y-65824000D01*
X225626241Y-66247971D01*
X224602634Y-67271578D01*
X224543254Y-67311255D01*
X224503578Y-67370634D01*
X224503576Y-67370636D01*
X224426267Y-67486337D01*
X224386064Y-67546505D01*
X224344800Y-67753955D01*
X224344800Y-67753959D01*
X224330868Y-67824000D01*
X224344800Y-67894041D01*
X224344801Y-73861410D01*
X224093412Y-74112800D01*
X205384939Y-74112800D01*
X205112926Y-73840787D01*
X204695766Y-73667994D01*
X204244234Y-73667994D01*
X203827074Y-73840787D01*
X203507793Y-74160068D01*
X203335000Y-74577228D01*
X189814200Y-74577228D01*
X189814200Y-70906588D01*
X193037789Y-67683000D01*
X193392766Y-67683000D01*
X193809926Y-67510207D01*
X194129207Y-67190926D01*
X194302000Y-66773766D01*
X194302000Y-66322234D01*
X194129207Y-65905074D01*
X193809926Y-65585793D01*
X193392766Y-65413000D01*
X192941234Y-65413000D01*
X192524074Y-65585793D01*
X192204793Y-65905074D01*
X192032000Y-66322234D01*
X192032000Y-66677211D01*
X188649634Y-70059578D01*
X188590255Y-70099254D01*
X188550579Y-70158633D01*
X188550576Y-70158636D01*
X188433065Y-70334504D01*
X188377868Y-70612000D01*
X188391801Y-70682046D01*
X188391800Y-76576067D01*
X188140793Y-76827074D01*
X187968000Y-77244234D01*
X187968000Y-77359381D01*
X187571074Y-77523793D01*
X187251793Y-77843074D01*
X187079000Y-78260234D01*
X187079000Y-78711766D01*
X187174971Y-78943460D01*
X186115227Y-78943460D01*
X186237500Y-78648266D01*
X186237500Y-78196734D01*
X186064707Y-77779574D01*
X185745426Y-77460293D01*
X185328266Y-77287500D01*
X184876734Y-77287500D01*
X184459574Y-77460293D01*
X184140293Y-77779574D01*
X183967500Y-78196734D01*
X183967500Y-78648266D01*
X184105236Y-78980792D01*
X183980098Y-78955900D01*
X183684902Y-78955900D01*
X183396963Y-79013175D01*
X182511700Y-78127912D01*
X182511700Y-77287541D01*
X182525632Y-77217499D01*
X182511700Y-77147455D01*
X182511700Y-77147454D01*
X182470436Y-76940004D01*
X182436781Y-76889636D01*
X182352924Y-76764135D01*
X182352920Y-76764131D01*
X182313245Y-76704754D01*
X182253869Y-76665080D01*
X180924200Y-75335412D01*
X180924200Y-74176042D01*
X180938132Y-74106000D01*
X180924200Y-74035958D01*
X180924200Y-74035954D01*
X180882936Y-73828504D01*
X180840240Y-73764605D01*
X180765424Y-73652635D01*
X180765420Y-73652631D01*
X180725745Y-73593254D01*
X180666369Y-73553580D01*
X180003424Y-72890636D01*
X179963746Y-72831254D01*
X179728496Y-72674064D01*
X179521046Y-72632800D01*
X179521041Y-72632800D01*
X179451000Y-72618868D01*
X179380959Y-72632800D01*
X177868433Y-72632800D01*
X177617426Y-72381793D01*
X177200266Y-72209000D01*
X176748734Y-72209000D01*
X176331574Y-72381793D01*
X176012293Y-72701074D01*
X175839500Y-73118234D01*
X175839500Y-73569766D01*
X176012293Y-73986926D01*
X176331574Y-74306207D01*
X176748734Y-74479000D01*
X177200266Y-74479000D01*
X177617426Y-74306207D01*
X177868433Y-74055200D01*
X179156412Y-74055200D01*
X179501800Y-74400589D01*
X179501801Y-75559954D01*
X179487868Y-75630000D01*
X179543065Y-75907496D01*
X179660576Y-76083364D01*
X179660579Y-76083367D01*
X179700255Y-76142746D01*
X179759634Y-76182422D01*
X181089300Y-77512089D01*
X181089301Y-78352454D01*
X181075368Y-78422500D01*
X181130565Y-78699996D01*
X181248076Y-78875864D01*
X181248079Y-78875867D01*
X181287755Y-78935246D01*
X181318666Y-78955900D01*
X181144902Y-78955900D01*
X180856963Y-79013175D01*
X180447924Y-78604136D01*
X180408246Y-78544754D01*
X180172996Y-78387564D01*
X179965546Y-78346300D01*
X179965541Y-78346300D01*
X179895500Y-78332368D01*
X179825459Y-78346300D01*
X178314542Y-78346300D01*
X178244500Y-78332368D01*
X178174458Y-78346300D01*
X178174454Y-78346300D01*
X177967004Y-78387564D01*
X177914719Y-78422500D01*
X177791135Y-78505076D01*
X177791133Y-78505078D01*
X177731754Y-78544754D01*
X177692078Y-78604133D01*
X177070659Y-79225553D01*
X176797225Y-79042850D01*
X176360098Y-78955900D01*
X176064902Y-78955900D01*
X175823500Y-79003918D01*
X175823500Y-78768234D01*
X175650707Y-78351074D01*
X175331426Y-78031793D01*
X174914266Y-77859000D01*
X174462734Y-77859000D01*
X174045574Y-78031793D01*
X173726293Y-78351074D01*
X173611648Y-78627853D01*
X171613253Y-79352224D01*
X171231266Y-79194000D01*
X170779734Y-79194000D01*
X170362574Y-79366793D01*
X170043293Y-79686074D01*
X169870500Y-80103234D01*
X169870500Y-80554766D01*
X170043293Y-80971926D01*
X170362574Y-81291207D01*
X170779734Y-81464000D01*
X171231266Y-81464000D01*
X171648426Y-81291207D01*
X171967707Y-80971926D01*
X172082352Y-80695147D01*
X174080748Y-79970776D01*
X174462734Y-80129000D01*
X174749287Y-80129000D01*
X174684541Y-80454500D01*
X174800850Y-81039225D01*
X175132070Y-81534930D01*
X175415781Y-81724500D01*
X175132070Y-81914070D01*
X174800850Y-82409775D01*
X174684541Y-82994500D01*
X174800850Y-83579225D01*
X175132070Y-84074930D01*
X175627775Y-84406150D01*
X176064902Y-84493100D01*
X176360098Y-84493100D01*
X176648037Y-84435825D01*
X178085211Y-85873000D01*
X54127000Y-85873000D01*
X54127000Y-74555431D01*
X54765000Y-74555431D01*
X54765000Y-75444569D01*
X55105259Y-76266026D01*
X55733974Y-76894741D01*
X56555431Y-77235000D01*
X57444569Y-77235000D01*
X57770487Y-77100000D01*
X81552560Y-77100000D01*
X81552560Y-79100000D01*
X81601843Y-79347765D01*
X81742191Y-79557809D01*
X81952235Y-79698157D01*
X82200000Y-79747440D01*
X84200000Y-79747440D01*
X84447765Y-79698157D01*
X84657809Y-79557809D01*
X84798157Y-79347765D01*
X84847440Y-79100000D01*
X84847440Y-77580213D01*
X100565000Y-77580213D01*
X100565000Y-78389787D01*
X100874810Y-79137735D01*
X101447265Y-79710190D01*
X102195213Y-80020000D01*
X103004787Y-80020000D01*
X103752735Y-79710190D01*
X104325190Y-79137735D01*
X104635000Y-78389787D01*
X104635000Y-77580213D01*
X130505000Y-77580213D01*
X130505000Y-78389787D01*
X130814810Y-79137735D01*
X131387265Y-79710190D01*
X132135213Y-80020000D01*
X132944787Y-80020000D01*
X133386322Y-79837110D01*
X134393578Y-80844367D01*
X134433254Y-80903746D01*
X134492633Y-80943422D01*
X134492635Y-80943424D01*
X134576360Y-80999367D01*
X134668504Y-81060936D01*
X134875954Y-81102200D01*
X134875958Y-81102200D01*
X134946000Y-81116132D01*
X135016042Y-81102200D01*
X166223758Y-81102200D01*
X166293799Y-81116132D01*
X166363840Y-81102200D01*
X166363845Y-81102200D01*
X166571295Y-81060936D01*
X166806545Y-80903746D01*
X166846223Y-80844364D01*
X167002788Y-80687799D01*
X167346378Y-80687799D01*
X167267000Y-80879434D01*
X167267000Y-81330966D01*
X167439793Y-81748126D01*
X167759074Y-82067407D01*
X168176234Y-82240200D01*
X168627766Y-82240200D01*
X169044926Y-82067407D01*
X169364207Y-81748126D01*
X169537000Y-81330966D01*
X169537000Y-80879434D01*
X169364207Y-80462274D01*
X169113200Y-80211267D01*
X169113200Y-79942957D01*
X169159947Y-79896210D01*
X169514925Y-79896210D01*
X169932085Y-79723417D01*
X170251366Y-79404136D01*
X170424159Y-78986976D01*
X170424159Y-78535444D01*
X170251366Y-78118284D01*
X169932085Y-77799003D01*
X169514925Y-77626210D01*
X169063393Y-77626210D01*
X168646233Y-77799003D01*
X168326952Y-78118284D01*
X168154159Y-78535444D01*
X168154159Y-78890422D01*
X168106069Y-78938512D01*
X168094207Y-78909873D01*
X167843200Y-78658866D01*
X167843200Y-77982933D01*
X168094207Y-77731926D01*
X168267000Y-77314766D01*
X168267000Y-76863234D01*
X168094207Y-76446074D01*
X167774926Y-76126793D01*
X167357766Y-75954000D01*
X166906234Y-75954000D01*
X166489074Y-76126793D01*
X166169793Y-76446074D01*
X165997000Y-76863234D01*
X165997000Y-77314766D01*
X166169793Y-77731926D01*
X166420800Y-77982933D01*
X166420801Y-78658865D01*
X166169793Y-78909873D01*
X165997000Y-79327033D01*
X165997000Y-79679800D01*
X163885125Y-79679800D01*
X164427190Y-79137735D01*
X164737000Y-78389787D01*
X164737000Y-77580213D01*
X164427190Y-76832265D01*
X163854735Y-76259810D01*
X163106787Y-75950000D01*
X162297213Y-75950000D01*
X161549265Y-76259810D01*
X160976810Y-76832265D01*
X160667000Y-77580213D01*
X160667000Y-78389787D01*
X160976810Y-79137735D01*
X161518875Y-79679800D01*
X135240589Y-79679800D01*
X134392110Y-78831322D01*
X134575000Y-78389787D01*
X134575000Y-77580213D01*
X134265190Y-76832265D01*
X133692735Y-76259810D01*
X132944787Y-75950000D01*
X132135213Y-75950000D01*
X131387265Y-76259810D01*
X130814810Y-76832265D01*
X130505000Y-77580213D01*
X104635000Y-77580213D01*
X104325190Y-76832265D01*
X103752735Y-76259810D01*
X103004787Y-75950000D01*
X102195213Y-75950000D01*
X101447265Y-76259810D01*
X100874810Y-76832265D01*
X100565000Y-77580213D01*
X84847440Y-77580213D01*
X84847440Y-77100000D01*
X84798157Y-76852235D01*
X84657809Y-76642191D01*
X84447765Y-76501843D01*
X84200000Y-76452560D01*
X82200000Y-76452560D01*
X81952235Y-76501843D01*
X81742191Y-76642191D01*
X81601843Y-76852235D01*
X81552560Y-77100000D01*
X57770487Y-77100000D01*
X58266026Y-76894741D01*
X58894741Y-76266026D01*
X59235000Y-75444569D01*
X59235000Y-75026724D01*
X101337882Y-75026724D01*
X101485455Y-75335106D01*
X102240031Y-75628405D01*
X103049409Y-75610614D01*
X103714545Y-75335106D01*
X103862118Y-75026724D01*
X131277882Y-75026724D01*
X131425455Y-75335106D01*
X132180031Y-75628405D01*
X132989409Y-75610614D01*
X133654545Y-75335106D01*
X133802118Y-75026724D01*
X161439882Y-75026724D01*
X161587455Y-75335106D01*
X162342031Y-75628405D01*
X163151409Y-75610614D01*
X163816545Y-75335106D01*
X163964118Y-75026724D01*
X162702000Y-73764605D01*
X161439882Y-75026724D01*
X133802118Y-75026724D01*
X132540000Y-73764605D01*
X131277882Y-75026724D01*
X103862118Y-75026724D01*
X102600000Y-73764605D01*
X101337882Y-75026724D01*
X59235000Y-75026724D01*
X59235000Y-74555431D01*
X58894741Y-73733974D01*
X58266026Y-73105259D01*
X57468176Y-72774778D01*
X81565000Y-72774778D01*
X81565000Y-73425222D01*
X81813914Y-74026153D01*
X82273847Y-74486086D01*
X82874778Y-74735000D01*
X83525222Y-74735000D01*
X84126153Y-74486086D01*
X84586086Y-74026153D01*
X84835000Y-73425222D01*
X84835000Y-73225031D01*
X100556595Y-73225031D01*
X100574386Y-74034409D01*
X100849894Y-74699545D01*
X101158276Y-74847118D01*
X102420395Y-73585000D01*
X102779605Y-73585000D01*
X104041724Y-74847118D01*
X104350106Y-74699545D01*
X104643405Y-73944969D01*
X104627580Y-73225031D01*
X130496595Y-73225031D01*
X130514386Y-74034409D01*
X130789894Y-74699545D01*
X131098276Y-74847118D01*
X132360395Y-73585000D01*
X132719605Y-73585000D01*
X133981724Y-74847118D01*
X134290106Y-74699545D01*
X134583405Y-73944969D01*
X134567580Y-73225031D01*
X160658595Y-73225031D01*
X160676386Y-74034409D01*
X160951894Y-74699545D01*
X161260276Y-74847118D01*
X162522395Y-73585000D01*
X162881605Y-73585000D01*
X164143724Y-74847118D01*
X164452106Y-74699545D01*
X164745405Y-73944969D01*
X164727614Y-73135591D01*
X164452106Y-72470455D01*
X164143724Y-72322882D01*
X162881605Y-73585000D01*
X162522395Y-73585000D01*
X161260276Y-72322882D01*
X160951894Y-72470455D01*
X160658595Y-73225031D01*
X134567580Y-73225031D01*
X134565614Y-73135591D01*
X134290106Y-72470455D01*
X133981724Y-72322882D01*
X132719605Y-73585000D01*
X132360395Y-73585000D01*
X131098276Y-72322882D01*
X130789894Y-72470455D01*
X130496595Y-73225031D01*
X104627580Y-73225031D01*
X104625614Y-73135591D01*
X104350106Y-72470455D01*
X104041724Y-72322882D01*
X102779605Y-73585000D01*
X102420395Y-73585000D01*
X101158276Y-72322882D01*
X100849894Y-72470455D01*
X100556595Y-73225031D01*
X84835000Y-73225031D01*
X84835000Y-72774778D01*
X84586086Y-72173847D01*
X84555515Y-72143276D01*
X101337882Y-72143276D01*
X102600000Y-73405395D01*
X103862118Y-72143276D01*
X131277882Y-72143276D01*
X132540000Y-73405395D01*
X133802118Y-72143276D01*
X161439882Y-72143276D01*
X162702000Y-73405395D01*
X163964118Y-72143276D01*
X163816545Y-71834894D01*
X163061969Y-71541595D01*
X162252591Y-71559386D01*
X161587455Y-71834894D01*
X161439882Y-72143276D01*
X133802118Y-72143276D01*
X133654545Y-71834894D01*
X132899969Y-71541595D01*
X132090591Y-71559386D01*
X131425455Y-71834894D01*
X131277882Y-72143276D01*
X103862118Y-72143276D01*
X103714545Y-71834894D01*
X102959969Y-71541595D01*
X102150591Y-71559386D01*
X101485455Y-71834894D01*
X101337882Y-72143276D01*
X84555515Y-72143276D01*
X84126153Y-71713914D01*
X83525222Y-71465000D01*
X82874778Y-71465000D01*
X82273847Y-71713914D01*
X81813914Y-72173847D01*
X81565000Y-72774778D01*
X57468176Y-72774778D01*
X57444569Y-72765000D01*
X56555431Y-72765000D01*
X55733974Y-73105259D01*
X55105259Y-73733974D01*
X54765000Y-74555431D01*
X54127000Y-74555431D01*
X54127000Y-61242234D01*
X76995400Y-61242234D01*
X76995400Y-61693766D01*
X77168193Y-62110926D01*
X77487474Y-62430207D01*
X77904634Y-62603000D01*
X78356166Y-62603000D01*
X78773326Y-62430207D01*
X79024333Y-62179200D01*
X81452867Y-62179200D01*
X81703874Y-62430207D01*
X82121034Y-62603000D01*
X82572566Y-62603000D01*
X82989726Y-62430207D01*
X83309007Y-62110926D01*
X83481800Y-61693766D01*
X83481800Y-61242234D01*
X83309007Y-60825074D01*
X83064323Y-60580390D01*
X168283000Y-60580390D01*
X168283000Y-61031922D01*
X168455793Y-61449082D01*
X168706800Y-61700089D01*
X168706801Y-63042499D01*
X168455793Y-63293507D01*
X168283000Y-63710667D01*
X168283000Y-64162199D01*
X168455793Y-64579359D01*
X168775074Y-64898640D01*
X169192234Y-65071433D01*
X169643766Y-65071433D01*
X170060926Y-64898640D01*
X170380207Y-64579359D01*
X170553000Y-64162199D01*
X170553000Y-63985434D01*
X179611400Y-63985434D01*
X179611400Y-64436966D01*
X179784193Y-64854126D01*
X180103474Y-65173407D01*
X180520634Y-65346200D01*
X180972166Y-65346200D01*
X181389326Y-65173407D01*
X181708607Y-64854126D01*
X181769876Y-64706209D01*
X181830674Y-64767007D01*
X182247834Y-64939800D01*
X182699366Y-64939800D01*
X183116526Y-64767007D01*
X183435807Y-64447726D01*
X183608600Y-64030566D01*
X183608600Y-63675589D01*
X183688969Y-63595220D01*
X183748345Y-63555546D01*
X183788020Y-63496169D01*
X183788024Y-63496165D01*
X183905535Y-63320297D01*
X183905536Y-63320296D01*
X183946800Y-63112846D01*
X183946800Y-63112842D01*
X183960732Y-63042800D01*
X183946800Y-62972758D01*
X183946800Y-62523000D01*
X191034560Y-62523000D01*
X191034560Y-64223000D01*
X191083843Y-64470765D01*
X191224191Y-64680809D01*
X191434235Y-64821157D01*
X191682000Y-64870440D01*
X193382000Y-64870440D01*
X193629765Y-64821157D01*
X193839809Y-64680809D01*
X193980157Y-64470765D01*
X194029440Y-64223000D01*
X194029440Y-62523000D01*
X193980157Y-62275235D01*
X193839809Y-62065191D01*
X193629765Y-61924843D01*
X193526292Y-61904261D01*
X193803645Y-61599924D01*
X193973476Y-61189890D01*
X193852155Y-60960000D01*
X192659000Y-60960000D01*
X192659000Y-60980000D01*
X192405000Y-60980000D01*
X192405000Y-60960000D01*
X191211845Y-60960000D01*
X191090524Y-61189890D01*
X191260355Y-61599924D01*
X191537708Y-61904261D01*
X191434235Y-61924843D01*
X191224191Y-62065191D01*
X191083843Y-62275235D01*
X191034560Y-62523000D01*
X183946800Y-62523000D01*
X183946800Y-60476110D01*
X191090524Y-60476110D01*
X191211845Y-60706000D01*
X192405000Y-60706000D01*
X192405000Y-59512181D01*
X192659000Y-59512181D01*
X192659000Y-60706000D01*
X193852155Y-60706000D01*
X193973476Y-60476110D01*
X193803645Y-60066076D01*
X193413358Y-59637817D01*
X192888892Y-59391514D01*
X192659000Y-59512181D01*
X192405000Y-59512181D01*
X192175108Y-59391514D01*
X191650642Y-59637817D01*
X191260355Y-60066076D01*
X191090524Y-60476110D01*
X183946800Y-60476110D01*
X183946800Y-58724868D01*
X191454737Y-58724868D01*
X191565641Y-59002099D01*
X192211593Y-59245323D01*
X192901453Y-59222836D01*
X193434359Y-59002099D01*
X193545263Y-58724868D01*
X192500000Y-57679605D01*
X191454737Y-58724868D01*
X183946800Y-58724868D01*
X183946800Y-57211593D01*
X190754677Y-57211593D01*
X190777164Y-57901453D01*
X190997901Y-58434359D01*
X191275132Y-58545263D01*
X192320395Y-57500000D01*
X192679605Y-57500000D01*
X193724868Y-58545263D01*
X194002099Y-58434359D01*
X194245323Y-57788407D01*
X194222836Y-57098547D01*
X194002099Y-56565641D01*
X193724868Y-56454737D01*
X192679605Y-57500000D01*
X192320395Y-57500000D01*
X191275132Y-56454737D01*
X190997901Y-56565641D01*
X190754677Y-57211593D01*
X183946800Y-57211593D01*
X183946800Y-56275132D01*
X191454737Y-56275132D01*
X192500000Y-57320395D01*
X193545263Y-56275132D01*
X193434359Y-55997901D01*
X192788407Y-55754677D01*
X192098547Y-55777164D01*
X191565641Y-55997901D01*
X191454737Y-56275132D01*
X183946800Y-56275132D01*
X183946800Y-54335533D01*
X184197807Y-54084526D01*
X184346781Y-53724868D01*
X191454737Y-53724868D01*
X191565641Y-54002099D01*
X192211593Y-54245323D01*
X192901453Y-54222836D01*
X193434359Y-54002099D01*
X193545263Y-53724868D01*
X192500000Y-52679605D01*
X191454737Y-53724868D01*
X184346781Y-53724868D01*
X184370600Y-53667366D01*
X184370600Y-53215834D01*
X184197807Y-52798674D01*
X183878526Y-52479393D01*
X183461366Y-52306600D01*
X183009834Y-52306600D01*
X182592674Y-52479393D01*
X182273393Y-52798674D01*
X182100600Y-53215834D01*
X182100600Y-53667366D01*
X182273393Y-54084526D01*
X182524401Y-54335534D01*
X182524401Y-54491434D01*
X182216766Y-54364008D01*
X181765234Y-54364008D01*
X181348074Y-54536801D01*
X181028793Y-54856082D01*
X180856000Y-55273242D01*
X180856000Y-55724774D01*
X181028793Y-56141934D01*
X181279801Y-56392942D01*
X181279800Y-62672011D01*
X180875611Y-63076200D01*
X180520634Y-63076200D01*
X180103474Y-63248993D01*
X179784193Y-63568274D01*
X179611400Y-63985434D01*
X170553000Y-63985434D01*
X170553000Y-63710667D01*
X170380207Y-63293507D01*
X170129200Y-63042500D01*
X170129200Y-61700089D01*
X170380207Y-61449082D01*
X170553000Y-61031922D01*
X170553000Y-60580390D01*
X170380207Y-60163230D01*
X170060926Y-59843949D01*
X169643766Y-59671156D01*
X169192234Y-59671156D01*
X168775074Y-59843949D01*
X168455793Y-60163230D01*
X168283000Y-60580390D01*
X83064323Y-60580390D01*
X82989726Y-60505793D01*
X82572566Y-60333000D01*
X82121034Y-60333000D01*
X81703874Y-60505793D01*
X81452867Y-60756800D01*
X79024333Y-60756800D01*
X78773326Y-60505793D01*
X78356166Y-60333000D01*
X77904634Y-60333000D01*
X77487474Y-60505793D01*
X77168193Y-60825074D01*
X76995400Y-61242234D01*
X54127000Y-61242234D01*
X54127000Y-58724868D01*
X91454737Y-58724868D01*
X91565641Y-59002099D01*
X92211593Y-59245323D01*
X92901453Y-59222836D01*
X93434359Y-59002099D01*
X93545263Y-58724868D01*
X92500000Y-57679605D01*
X91454737Y-58724868D01*
X54127000Y-58724868D01*
X54127000Y-54555431D01*
X54765000Y-54555431D01*
X54765000Y-55444569D01*
X55105259Y-56266026D01*
X55733974Y-56894741D01*
X56555431Y-57235000D01*
X57444569Y-57235000D01*
X57501078Y-57211593D01*
X90754677Y-57211593D01*
X90777164Y-57901453D01*
X90997901Y-58434359D01*
X91275132Y-58545263D01*
X92320395Y-57500000D01*
X92679605Y-57500000D01*
X93724868Y-58545263D01*
X94002099Y-58434359D01*
X94245323Y-57788407D01*
X94224673Y-57154887D01*
X95765000Y-57154887D01*
X95765000Y-57845113D01*
X96029138Y-58482799D01*
X96517201Y-58970862D01*
X97154887Y-59235000D01*
X97845113Y-59235000D01*
X98482799Y-58970862D01*
X98728793Y-58724868D01*
X111454737Y-58724868D01*
X111565641Y-59002099D01*
X112211593Y-59245323D01*
X112901453Y-59222836D01*
X113434359Y-59002099D01*
X113545263Y-58724868D01*
X112500000Y-57679605D01*
X111454737Y-58724868D01*
X98728793Y-58724868D01*
X98970862Y-58482799D01*
X99235000Y-57845113D01*
X99235000Y-57211593D01*
X110754677Y-57211593D01*
X110777164Y-57901453D01*
X110997901Y-58434359D01*
X111275132Y-58545263D01*
X112320395Y-57500000D01*
X112679605Y-57500000D01*
X113724868Y-58545263D01*
X114002099Y-58434359D01*
X114245323Y-57788407D01*
X114224673Y-57154887D01*
X115765000Y-57154887D01*
X115765000Y-57845113D01*
X116029138Y-58482799D01*
X116517201Y-58970862D01*
X117154887Y-59235000D01*
X117845113Y-59235000D01*
X118482799Y-58970862D01*
X118728793Y-58724868D01*
X131454737Y-58724868D01*
X131565641Y-59002099D01*
X132211593Y-59245323D01*
X132901453Y-59222836D01*
X133434359Y-59002099D01*
X133545263Y-58724868D01*
X132500000Y-57679605D01*
X131454737Y-58724868D01*
X118728793Y-58724868D01*
X118970862Y-58482799D01*
X119235000Y-57845113D01*
X119235000Y-57211593D01*
X130754677Y-57211593D01*
X130777164Y-57901453D01*
X130997901Y-58434359D01*
X131275132Y-58545263D01*
X132320395Y-57500000D01*
X132679605Y-57500000D01*
X133724868Y-58545263D01*
X134002099Y-58434359D01*
X134245323Y-57788407D01*
X134224673Y-57154887D01*
X135765000Y-57154887D01*
X135765000Y-57845113D01*
X136029138Y-58482799D01*
X136517201Y-58970862D01*
X137154887Y-59235000D01*
X137845113Y-59235000D01*
X138482799Y-58970862D01*
X138728793Y-58724868D01*
X151454737Y-58724868D01*
X151565641Y-59002099D01*
X152211593Y-59245323D01*
X152901453Y-59222836D01*
X153434359Y-59002099D01*
X153545263Y-58724868D01*
X152500000Y-57679605D01*
X151454737Y-58724868D01*
X138728793Y-58724868D01*
X138970862Y-58482799D01*
X139235000Y-57845113D01*
X139235000Y-57211593D01*
X150754677Y-57211593D01*
X150777164Y-57901453D01*
X150997901Y-58434359D01*
X151275132Y-58545263D01*
X152320395Y-57500000D01*
X152679605Y-57500000D01*
X153724868Y-58545263D01*
X154002099Y-58434359D01*
X154245323Y-57788407D01*
X154224673Y-57154887D01*
X155765000Y-57154887D01*
X155765000Y-57845113D01*
X156029138Y-58482799D01*
X156517201Y-58970862D01*
X157154887Y-59235000D01*
X157845113Y-59235000D01*
X158482799Y-58970862D01*
X158728793Y-58724868D01*
X171454737Y-58724868D01*
X171565641Y-59002099D01*
X172211593Y-59245323D01*
X172901453Y-59222836D01*
X173434359Y-59002099D01*
X173545263Y-58724868D01*
X172500000Y-57679605D01*
X171454737Y-58724868D01*
X158728793Y-58724868D01*
X158970862Y-58482799D01*
X159235000Y-57845113D01*
X159235000Y-57211593D01*
X170754677Y-57211593D01*
X170777164Y-57901453D01*
X170997901Y-58434359D01*
X171275132Y-58545263D01*
X172320395Y-57500000D01*
X172679605Y-57500000D01*
X173724868Y-58545263D01*
X174002099Y-58434359D01*
X174245323Y-57788407D01*
X174224673Y-57154887D01*
X175765000Y-57154887D01*
X175765000Y-57845113D01*
X176029138Y-58482799D01*
X176517201Y-58970862D01*
X177154887Y-59235000D01*
X177845113Y-59235000D01*
X178482799Y-58970862D01*
X178970862Y-58482799D01*
X179235000Y-57845113D01*
X179235000Y-57154887D01*
X178970862Y-56517201D01*
X178482799Y-56029138D01*
X177845113Y-55765000D01*
X177154887Y-55765000D01*
X176517201Y-56029138D01*
X176029138Y-56517201D01*
X175765000Y-57154887D01*
X174224673Y-57154887D01*
X174222836Y-57098547D01*
X174002099Y-56565641D01*
X173724868Y-56454737D01*
X172679605Y-57500000D01*
X172320395Y-57500000D01*
X171275132Y-56454737D01*
X170997901Y-56565641D01*
X170754677Y-57211593D01*
X159235000Y-57211593D01*
X159235000Y-57154887D01*
X158970862Y-56517201D01*
X158728793Y-56275132D01*
X171454737Y-56275132D01*
X172500000Y-57320395D01*
X173545263Y-56275132D01*
X173434359Y-55997901D01*
X172788407Y-55754677D01*
X172098547Y-55777164D01*
X171565641Y-55997901D01*
X171454737Y-56275132D01*
X158728793Y-56275132D01*
X158482799Y-56029138D01*
X157845113Y-55765000D01*
X157154887Y-55765000D01*
X156517201Y-56029138D01*
X156029138Y-56517201D01*
X155765000Y-57154887D01*
X154224673Y-57154887D01*
X154222836Y-57098547D01*
X154002099Y-56565641D01*
X153724868Y-56454737D01*
X152679605Y-57500000D01*
X152320395Y-57500000D01*
X151275132Y-56454737D01*
X150997901Y-56565641D01*
X150754677Y-57211593D01*
X139235000Y-57211593D01*
X139235000Y-57154887D01*
X138970862Y-56517201D01*
X138728793Y-56275132D01*
X151454737Y-56275132D01*
X152500000Y-57320395D01*
X153545263Y-56275132D01*
X153434359Y-55997901D01*
X152788407Y-55754677D01*
X152098547Y-55777164D01*
X151565641Y-55997901D01*
X151454737Y-56275132D01*
X138728793Y-56275132D01*
X138482799Y-56029138D01*
X137845113Y-55765000D01*
X137154887Y-55765000D01*
X136517201Y-56029138D01*
X136029138Y-56517201D01*
X135765000Y-57154887D01*
X134224673Y-57154887D01*
X134222836Y-57098547D01*
X134002099Y-56565641D01*
X133724868Y-56454737D01*
X132679605Y-57500000D01*
X132320395Y-57500000D01*
X131275132Y-56454737D01*
X130997901Y-56565641D01*
X130754677Y-57211593D01*
X119235000Y-57211593D01*
X119235000Y-57154887D01*
X118970862Y-56517201D01*
X118728793Y-56275132D01*
X131454737Y-56275132D01*
X132500000Y-57320395D01*
X133545263Y-56275132D01*
X133434359Y-55997901D01*
X132788407Y-55754677D01*
X132098547Y-55777164D01*
X131565641Y-55997901D01*
X131454737Y-56275132D01*
X118728793Y-56275132D01*
X118482799Y-56029138D01*
X117845113Y-55765000D01*
X117154887Y-55765000D01*
X116517201Y-56029138D01*
X116029138Y-56517201D01*
X115765000Y-57154887D01*
X114224673Y-57154887D01*
X114222836Y-57098547D01*
X114002099Y-56565641D01*
X113724868Y-56454737D01*
X112679605Y-57500000D01*
X112320395Y-57500000D01*
X111275132Y-56454737D01*
X110997901Y-56565641D01*
X110754677Y-57211593D01*
X99235000Y-57211593D01*
X99235000Y-57154887D01*
X98970862Y-56517201D01*
X98728793Y-56275132D01*
X111454737Y-56275132D01*
X112500000Y-57320395D01*
X113545263Y-56275132D01*
X113434359Y-55997901D01*
X112788407Y-55754677D01*
X112098547Y-55777164D01*
X111565641Y-55997901D01*
X111454737Y-56275132D01*
X98728793Y-56275132D01*
X98482799Y-56029138D01*
X97845113Y-55765000D01*
X97154887Y-55765000D01*
X96517201Y-56029138D01*
X96029138Y-56517201D01*
X95765000Y-57154887D01*
X94224673Y-57154887D01*
X94222836Y-57098547D01*
X94002099Y-56565641D01*
X93724868Y-56454737D01*
X92679605Y-57500000D01*
X92320395Y-57500000D01*
X91275132Y-56454737D01*
X90997901Y-56565641D01*
X90754677Y-57211593D01*
X57501078Y-57211593D01*
X58266026Y-56894741D01*
X58885635Y-56275132D01*
X91454737Y-56275132D01*
X92500000Y-57320395D01*
X93545263Y-56275132D01*
X93434359Y-55997901D01*
X92788407Y-55754677D01*
X92098547Y-55777164D01*
X91565641Y-55997901D01*
X91454737Y-56275132D01*
X58885635Y-56275132D01*
X58894741Y-56266026D01*
X59235000Y-55444569D01*
X59235000Y-54555431D01*
X58894741Y-53733974D01*
X58885635Y-53724868D01*
X91454737Y-53724868D01*
X91565641Y-54002099D01*
X92211593Y-54245323D01*
X92901453Y-54222836D01*
X93434359Y-54002099D01*
X93545263Y-53724868D01*
X92500000Y-52679605D01*
X91454737Y-53724868D01*
X58885635Y-53724868D01*
X58266026Y-53105259D01*
X57444569Y-52765000D01*
X56555431Y-52765000D01*
X55733974Y-53105259D01*
X55105259Y-53733974D01*
X54765000Y-54555431D01*
X54127000Y-54555431D01*
X54127000Y-52211593D01*
X90754677Y-52211593D01*
X90777164Y-52901453D01*
X90997901Y-53434359D01*
X91275132Y-53545263D01*
X92320395Y-52500000D01*
X92679605Y-52500000D01*
X93724868Y-53545263D01*
X94002099Y-53434359D01*
X94245323Y-52788407D01*
X94224673Y-52154887D01*
X95765000Y-52154887D01*
X95765000Y-52845113D01*
X96029138Y-53482799D01*
X96517201Y-53970862D01*
X97154887Y-54235000D01*
X97845113Y-54235000D01*
X98482799Y-53970862D01*
X98728793Y-53724868D01*
X111454737Y-53724868D01*
X111565641Y-54002099D01*
X112211593Y-54245323D01*
X112901453Y-54222836D01*
X113434359Y-54002099D01*
X113545263Y-53724868D01*
X112500000Y-52679605D01*
X111454737Y-53724868D01*
X98728793Y-53724868D01*
X98970862Y-53482799D01*
X99235000Y-52845113D01*
X99235000Y-52211593D01*
X110754677Y-52211593D01*
X110777164Y-52901453D01*
X110997901Y-53434359D01*
X111275132Y-53545263D01*
X112320395Y-52500000D01*
X112679605Y-52500000D01*
X113724868Y-53545263D01*
X114002099Y-53434359D01*
X114245323Y-52788407D01*
X114224673Y-52154887D01*
X115765000Y-52154887D01*
X115765000Y-52845113D01*
X116029138Y-53482799D01*
X116517201Y-53970862D01*
X117154887Y-54235000D01*
X117845113Y-54235000D01*
X118482799Y-53970862D01*
X118728793Y-53724868D01*
X131454737Y-53724868D01*
X131565641Y-54002099D01*
X132211593Y-54245323D01*
X132901453Y-54222836D01*
X133434359Y-54002099D01*
X133545263Y-53724868D01*
X132500000Y-52679605D01*
X131454737Y-53724868D01*
X118728793Y-53724868D01*
X118970862Y-53482799D01*
X119235000Y-52845113D01*
X119235000Y-52211593D01*
X130754677Y-52211593D01*
X130777164Y-52901453D01*
X130997901Y-53434359D01*
X131275132Y-53545263D01*
X132320395Y-52500000D01*
X132679605Y-52500000D01*
X133724868Y-53545263D01*
X134002099Y-53434359D01*
X134245323Y-52788407D01*
X134224673Y-52154887D01*
X135765000Y-52154887D01*
X135765000Y-52845113D01*
X136029138Y-53482799D01*
X136517201Y-53970862D01*
X137154887Y-54235000D01*
X137845113Y-54235000D01*
X138482799Y-53970862D01*
X138728793Y-53724868D01*
X151454737Y-53724868D01*
X151565641Y-54002099D01*
X152211593Y-54245323D01*
X152901453Y-54222836D01*
X153434359Y-54002099D01*
X153545263Y-53724868D01*
X152500000Y-52679605D01*
X151454737Y-53724868D01*
X138728793Y-53724868D01*
X138970862Y-53482799D01*
X139235000Y-52845113D01*
X139235000Y-52211593D01*
X150754677Y-52211593D01*
X150777164Y-52901453D01*
X150997901Y-53434359D01*
X151275132Y-53545263D01*
X152320395Y-52500000D01*
X152679605Y-52500000D01*
X153724868Y-53545263D01*
X154002099Y-53434359D01*
X154245323Y-52788407D01*
X154224673Y-52154887D01*
X155765000Y-52154887D01*
X155765000Y-52845113D01*
X156029138Y-53482799D01*
X156517201Y-53970862D01*
X157154887Y-54235000D01*
X157845113Y-54235000D01*
X158482799Y-53970862D01*
X158728793Y-53724868D01*
X171454737Y-53724868D01*
X171565641Y-54002099D01*
X172211593Y-54245323D01*
X172901453Y-54222836D01*
X173434359Y-54002099D01*
X173545263Y-53724868D01*
X172500000Y-52679605D01*
X171454737Y-53724868D01*
X158728793Y-53724868D01*
X158970862Y-53482799D01*
X159235000Y-52845113D01*
X159235000Y-52211593D01*
X170754677Y-52211593D01*
X170777164Y-52901453D01*
X170997901Y-53434359D01*
X171275132Y-53545263D01*
X172320395Y-52500000D01*
X172679605Y-52500000D01*
X173724868Y-53545263D01*
X174002099Y-53434359D01*
X174245323Y-52788407D01*
X174222836Y-52098547D01*
X174002099Y-51565641D01*
X173724868Y-51454737D01*
X172679605Y-52500000D01*
X172320395Y-52500000D01*
X171275132Y-51454737D01*
X170997901Y-51565641D01*
X170754677Y-52211593D01*
X159235000Y-52211593D01*
X159235000Y-52154887D01*
X158970862Y-51517201D01*
X158728793Y-51275132D01*
X171454737Y-51275132D01*
X172500000Y-52320395D01*
X173545263Y-51275132D01*
X173434359Y-50997901D01*
X172788407Y-50754677D01*
X172098547Y-50777164D01*
X171565641Y-50997901D01*
X171454737Y-51275132D01*
X158728793Y-51275132D01*
X158482799Y-51029138D01*
X157845113Y-50765000D01*
X157154887Y-50765000D01*
X156517201Y-51029138D01*
X156029138Y-51517201D01*
X155765000Y-52154887D01*
X154224673Y-52154887D01*
X154222836Y-52098547D01*
X154002099Y-51565641D01*
X153724868Y-51454737D01*
X152679605Y-52500000D01*
X152320395Y-52500000D01*
X151275132Y-51454737D01*
X150997901Y-51565641D01*
X150754677Y-52211593D01*
X139235000Y-52211593D01*
X139235000Y-52154887D01*
X138970862Y-51517201D01*
X138728793Y-51275132D01*
X151454737Y-51275132D01*
X152500000Y-52320395D01*
X153545263Y-51275132D01*
X153434359Y-50997901D01*
X152788407Y-50754677D01*
X152098547Y-50777164D01*
X151565641Y-50997901D01*
X151454737Y-51275132D01*
X138728793Y-51275132D01*
X138482799Y-51029138D01*
X137845113Y-50765000D01*
X137154887Y-50765000D01*
X136517201Y-51029138D01*
X136029138Y-51517201D01*
X135765000Y-52154887D01*
X134224673Y-52154887D01*
X134222836Y-52098547D01*
X134002099Y-51565641D01*
X133724868Y-51454737D01*
X132679605Y-52500000D01*
X132320395Y-52500000D01*
X131275132Y-51454737D01*
X130997901Y-51565641D01*
X130754677Y-52211593D01*
X119235000Y-52211593D01*
X119235000Y-52154887D01*
X118970862Y-51517201D01*
X118728793Y-51275132D01*
X131454737Y-51275132D01*
X132500000Y-52320395D01*
X133545263Y-51275132D01*
X133434359Y-50997901D01*
X132788407Y-50754677D01*
X132098547Y-50777164D01*
X131565641Y-50997901D01*
X131454737Y-51275132D01*
X118728793Y-51275132D01*
X118482799Y-51029138D01*
X117845113Y-50765000D01*
X117154887Y-50765000D01*
X116517201Y-51029138D01*
X116029138Y-51517201D01*
X115765000Y-52154887D01*
X114224673Y-52154887D01*
X114222836Y-52098547D01*
X114002099Y-51565641D01*
X113724868Y-51454737D01*
X112679605Y-52500000D01*
X112320395Y-52500000D01*
X111275132Y-51454737D01*
X110997901Y-51565641D01*
X110754677Y-52211593D01*
X99235000Y-52211593D01*
X99235000Y-52154887D01*
X98970862Y-51517201D01*
X98728793Y-51275132D01*
X111454737Y-51275132D01*
X112500000Y-52320395D01*
X113545263Y-51275132D01*
X113434359Y-50997901D01*
X112788407Y-50754677D01*
X112098547Y-50777164D01*
X111565641Y-50997901D01*
X111454737Y-51275132D01*
X98728793Y-51275132D01*
X98482799Y-51029138D01*
X97845113Y-50765000D01*
X97154887Y-50765000D01*
X96517201Y-51029138D01*
X96029138Y-51517201D01*
X95765000Y-52154887D01*
X94224673Y-52154887D01*
X94222836Y-52098547D01*
X94002099Y-51565641D01*
X93724868Y-51454737D01*
X92679605Y-52500000D01*
X92320395Y-52500000D01*
X91275132Y-51454737D01*
X90997901Y-51565641D01*
X90754677Y-52211593D01*
X54127000Y-52211593D01*
X54127000Y-51275132D01*
X91454737Y-51275132D01*
X92500000Y-52320395D01*
X93545263Y-51275132D01*
X93434359Y-50997901D01*
X92788407Y-50754677D01*
X92098547Y-50777164D01*
X91565641Y-50997901D01*
X91454737Y-51275132D01*
X54127000Y-51275132D01*
X54127000Y-50701234D01*
X174379000Y-50701234D01*
X174379000Y-51152766D01*
X174551793Y-51569926D01*
X174871074Y-51889207D01*
X175288234Y-52062000D01*
X175739766Y-52062000D01*
X175816670Y-52030146D01*
X175765000Y-52154887D01*
X175765000Y-52845113D01*
X176029138Y-53482799D01*
X176517201Y-53970862D01*
X177154887Y-54235000D01*
X177845113Y-54235000D01*
X178482799Y-53970862D01*
X178970862Y-53482799D01*
X179235000Y-52845113D01*
X179235000Y-52211593D01*
X190754677Y-52211593D01*
X190777164Y-52901453D01*
X190997901Y-53434359D01*
X191275132Y-53545263D01*
X192320395Y-52500000D01*
X192679605Y-52500000D01*
X193724868Y-53545263D01*
X194002099Y-53434359D01*
X194245323Y-52788407D01*
X194224673Y-52154887D01*
X195765000Y-52154887D01*
X195765000Y-52845113D01*
X196029138Y-53482799D01*
X196517201Y-53970862D01*
X196788801Y-54083362D01*
X196788800Y-55916638D01*
X196517201Y-56029138D01*
X196029138Y-56517201D01*
X195765000Y-57154887D01*
X195765000Y-57845113D01*
X196029138Y-58482799D01*
X196517201Y-58970862D01*
X197154887Y-59235000D01*
X197845113Y-59235000D01*
X198482799Y-58970862D01*
X198970862Y-58482799D01*
X199235000Y-57845113D01*
X199235000Y-57154887D01*
X198970862Y-56517201D01*
X198482799Y-56029138D01*
X198211200Y-55916638D01*
X198211200Y-54083362D01*
X198482799Y-53970862D01*
X198970862Y-53482799D01*
X199235000Y-52845113D01*
X199235000Y-52154887D01*
X198970862Y-51517201D01*
X198482799Y-51029138D01*
X197845113Y-50765000D01*
X197154887Y-50765000D01*
X196517201Y-51029138D01*
X196029138Y-51517201D01*
X195765000Y-52154887D01*
X194224673Y-52154887D01*
X194222836Y-52098547D01*
X194002099Y-51565641D01*
X193724868Y-51454737D01*
X192679605Y-52500000D01*
X192320395Y-52500000D01*
X191275132Y-51454737D01*
X190997901Y-51565641D01*
X190754677Y-52211593D01*
X179235000Y-52211593D01*
X179235000Y-52154887D01*
X178970862Y-51517201D01*
X178728793Y-51275132D01*
X191454737Y-51275132D01*
X192500000Y-52320395D01*
X193545263Y-51275132D01*
X193434359Y-50997901D01*
X192788407Y-50754677D01*
X192098547Y-50777164D01*
X191565641Y-50997901D01*
X191454737Y-51275132D01*
X178728793Y-51275132D01*
X178482799Y-51029138D01*
X177845113Y-50765000D01*
X177154887Y-50765000D01*
X176649000Y-50974545D01*
X176649000Y-50797788D01*
X177332589Y-50114200D01*
X178303067Y-50114200D01*
X178554074Y-50365207D01*
X178971234Y-50538000D01*
X179422766Y-50538000D01*
X179839926Y-50365207D01*
X180159207Y-50045926D01*
X180332000Y-49628766D01*
X180332000Y-49177234D01*
X180159207Y-48760074D01*
X179839926Y-48440793D01*
X179422766Y-48268000D01*
X178971234Y-48268000D01*
X178554074Y-48440793D01*
X178303067Y-48691800D01*
X177108041Y-48691800D01*
X177037999Y-48677868D01*
X176967957Y-48691800D01*
X176967954Y-48691800D01*
X176760504Y-48733064D01*
X176760503Y-48733065D01*
X176760502Y-48733065D01*
X176584635Y-48850576D01*
X176584633Y-48850578D01*
X176525254Y-48890254D01*
X176485578Y-48949633D01*
X175643212Y-49792000D01*
X175288234Y-49792000D01*
X174871074Y-49964793D01*
X174551793Y-50284074D01*
X174379000Y-50701234D01*
X54127000Y-50701234D01*
X54127000Y-45305234D01*
X185422000Y-45305234D01*
X185422000Y-45756766D01*
X185594793Y-46173926D01*
X185914074Y-46493207D01*
X186331234Y-46666000D01*
X186782766Y-46666000D01*
X187199926Y-46493207D01*
X187507000Y-46186133D01*
X187814074Y-46493207D01*
X188231234Y-46666000D01*
X188682766Y-46666000D01*
X189099926Y-46493207D01*
X189419207Y-46173926D01*
X189592000Y-45756766D01*
X189592000Y-45305234D01*
X189419207Y-44888074D01*
X189099926Y-44568793D01*
X188682766Y-44396000D01*
X188231234Y-44396000D01*
X187814074Y-44568793D01*
X187507000Y-44875867D01*
X187199926Y-44568793D01*
X186782766Y-44396000D01*
X186331234Y-44396000D01*
X185914074Y-44568793D01*
X185594793Y-44888074D01*
X185422000Y-45305234D01*
X54127000Y-45305234D01*
X54127000Y-41640000D01*
X73452560Y-41640000D01*
X73452560Y-43440000D01*
X73501843Y-43687765D01*
X73642191Y-43897809D01*
X73852235Y-44038157D01*
X74100000Y-44087440D01*
X75900000Y-44087440D01*
X76147765Y-44038157D01*
X76357809Y-43897809D01*
X76498157Y-43687765D01*
X76547440Y-43440000D01*
X76547440Y-41640000D01*
X76498157Y-41392235D01*
X76357809Y-41182191D01*
X76147765Y-41041843D01*
X76132092Y-41038725D01*
X76301310Y-40869507D01*
X76535000Y-40305330D01*
X76535000Y-39694670D01*
X76469427Y-39536362D01*
X77689589Y-38316200D01*
X95678011Y-38316200D01*
X95463638Y-38530573D01*
X95305330Y-38465000D01*
X94694670Y-38465000D01*
X94130493Y-38698690D01*
X93698690Y-39130493D01*
X93465000Y-39694670D01*
X93465000Y-40305330D01*
X93698690Y-40869507D01*
X93867908Y-41038725D01*
X93852235Y-41041843D01*
X93642191Y-41182191D01*
X93501843Y-41392235D01*
X93452560Y-41640000D01*
X93452560Y-43440000D01*
X93501843Y-43687765D01*
X93642191Y-43897809D01*
X93852235Y-44038157D01*
X94100000Y-44087440D01*
X95900000Y-44087440D01*
X96147765Y-44038157D01*
X96357809Y-43897809D01*
X96498157Y-43687765D01*
X96547440Y-43440000D01*
X96547440Y-41640000D01*
X96498157Y-41392235D01*
X96357809Y-41182191D01*
X96147765Y-41041843D01*
X96132092Y-41038725D01*
X96301310Y-40869507D01*
X96535000Y-40305330D01*
X96535000Y-39694670D01*
X96469427Y-39536362D01*
X96889589Y-39116200D01*
X113712983Y-39116200D01*
X113698690Y-39130493D01*
X113465000Y-39694670D01*
X113465000Y-40305330D01*
X113698690Y-40869507D01*
X113867908Y-41038725D01*
X113852235Y-41041843D01*
X113642191Y-41182191D01*
X113501843Y-41392235D01*
X113452560Y-41640000D01*
X113452560Y-43440000D01*
X113501843Y-43687765D01*
X113642191Y-43897809D01*
X113852235Y-44038157D01*
X114100000Y-44087440D01*
X115900000Y-44087440D01*
X116147765Y-44038157D01*
X116357809Y-43897809D01*
X116498157Y-43687765D01*
X116547440Y-43440000D01*
X116547440Y-41640000D01*
X116498157Y-41392235D01*
X116357809Y-41182191D01*
X116147765Y-41041843D01*
X116132092Y-41038725D01*
X116301310Y-40869507D01*
X116535000Y-40305330D01*
X116535000Y-39930788D01*
X116930790Y-39534999D01*
X133531138Y-39534999D01*
X133465000Y-39694670D01*
X133465000Y-40305330D01*
X133698690Y-40869507D01*
X133867908Y-41038725D01*
X133852235Y-41041843D01*
X133642191Y-41182191D01*
X133501843Y-41392235D01*
X133452560Y-41640000D01*
X133452560Y-43440000D01*
X133501843Y-43687765D01*
X133642191Y-43897809D01*
X133852235Y-44038157D01*
X134100000Y-44087440D01*
X135900000Y-44087440D01*
X136147765Y-44038157D01*
X136357809Y-43897809D01*
X136498157Y-43687765D01*
X136547440Y-43440000D01*
X136547440Y-41640000D01*
X136498157Y-41392235D01*
X136357809Y-41182191D01*
X136147765Y-41041843D01*
X136132092Y-41038725D01*
X136301310Y-40869507D01*
X136364812Y-40716200D01*
X141772266Y-40716200D01*
X141977235Y-40853157D01*
X142225000Y-40902440D01*
X143077560Y-40902440D01*
X143077560Y-41305000D01*
X143126843Y-41552765D01*
X143267191Y-41762809D01*
X143477235Y-41903157D01*
X143725000Y-41952440D01*
X144225000Y-41952440D01*
X144472765Y-41903157D01*
X144682809Y-41762809D01*
X144823157Y-41552765D01*
X144872440Y-41305000D01*
X144872440Y-40902440D01*
X145725000Y-40902440D01*
X145972765Y-40853157D01*
X146177734Y-40716200D01*
X153635188Y-40716200D01*
X153698690Y-40869507D01*
X153867908Y-41038725D01*
X153852235Y-41041843D01*
X153642191Y-41182191D01*
X153501843Y-41392235D01*
X153452560Y-41640000D01*
X153452560Y-43440000D01*
X153501843Y-43687765D01*
X153642191Y-43897809D01*
X153852235Y-44038157D01*
X154100000Y-44087440D01*
X155900000Y-44087440D01*
X156147765Y-44038157D01*
X156357809Y-43897809D01*
X156498157Y-43687765D01*
X156547440Y-43440000D01*
X156547440Y-41640000D01*
X156498157Y-41392235D01*
X156357809Y-41182191D01*
X156147765Y-41041843D01*
X156132092Y-41038725D01*
X156301310Y-40869507D01*
X156535000Y-40305330D01*
X156535000Y-39694670D01*
X156468862Y-39534999D01*
X173529211Y-39534999D01*
X173530574Y-39536362D01*
X173465000Y-39694670D01*
X173465000Y-40305330D01*
X173698690Y-40869507D01*
X173867908Y-41038725D01*
X173852235Y-41041843D01*
X173642191Y-41182191D01*
X173501843Y-41392235D01*
X173452560Y-41640000D01*
X173452560Y-43440000D01*
X173501843Y-43687765D01*
X173642191Y-43897809D01*
X173852235Y-44038157D01*
X174100000Y-44087440D01*
X175900000Y-44087440D01*
X176147765Y-44038157D01*
X176357809Y-43897809D01*
X176498157Y-43687765D01*
X176547440Y-43440000D01*
X176547440Y-41640000D01*
X176498157Y-41392235D01*
X176357809Y-41182191D01*
X176147765Y-41041843D01*
X176132092Y-41038725D01*
X176301310Y-40869507D01*
X176535000Y-40305330D01*
X176535000Y-39694670D01*
X176301310Y-39130493D01*
X175869507Y-38698690D01*
X175305330Y-38465000D01*
X174694670Y-38465000D01*
X174536362Y-38530574D01*
X174376223Y-38370435D01*
X174336545Y-38311053D01*
X174101295Y-38153863D01*
X173893845Y-38112599D01*
X173893840Y-38112599D01*
X173823799Y-38098667D01*
X173753758Y-38112599D01*
X148444243Y-38112599D01*
X148440862Y-38111927D01*
X149519589Y-37033200D01*
X191099412Y-37033200D01*
X193602573Y-39536362D01*
X193537000Y-39694670D01*
X193537000Y-40305330D01*
X193770690Y-40869507D01*
X193939908Y-41038725D01*
X193924235Y-41041843D01*
X193714191Y-41182191D01*
X193573843Y-41392235D01*
X193524560Y-41640000D01*
X193524560Y-43440000D01*
X193573843Y-43687765D01*
X193714191Y-43897809D01*
X193924235Y-44038157D01*
X194172000Y-44087440D01*
X195972000Y-44087440D01*
X196219765Y-44038157D01*
X196429809Y-43897809D01*
X196570157Y-43687765D01*
X196619440Y-43440000D01*
X196619440Y-41640000D01*
X196570157Y-41392235D01*
X196429809Y-41182191D01*
X196219765Y-41041843D01*
X196204092Y-41038725D01*
X196373310Y-40869507D01*
X196607000Y-40305330D01*
X196607000Y-39694670D01*
X196373310Y-39130493D01*
X195941507Y-38698690D01*
X195377330Y-38465000D01*
X194766670Y-38465000D01*
X194608362Y-38530573D01*
X192842789Y-36765000D01*
X197378908Y-36765000D01*
X197494161Y-37344418D01*
X197822375Y-37835625D01*
X198313582Y-38163839D01*
X198746744Y-38250000D01*
X199039256Y-38250000D01*
X199472418Y-38163839D01*
X199963625Y-37835625D01*
X200163000Y-37537239D01*
X200362375Y-37835625D01*
X200721800Y-38075785D01*
X200721801Y-57598934D01*
X200707868Y-57668980D01*
X200763065Y-57946476D01*
X200795000Y-57994270D01*
X200795000Y-58391746D01*
X200967793Y-58808906D01*
X201287074Y-59128187D01*
X201704234Y-59300980D01*
X202155766Y-59300980D01*
X202572926Y-59128187D01*
X202871879Y-58829234D01*
X211971000Y-58829234D01*
X211971000Y-59280766D01*
X212143793Y-59697926D01*
X212463074Y-60017207D01*
X212880234Y-60190000D01*
X213331766Y-60190000D01*
X213748926Y-60017207D01*
X213999933Y-59766200D01*
X214625067Y-59766200D01*
X214876074Y-60017207D01*
X215293234Y-60190000D01*
X215744766Y-60190000D01*
X216161926Y-60017207D01*
X216481207Y-59697926D01*
X216654000Y-59280766D01*
X216654000Y-58829234D01*
X216481207Y-58412074D01*
X216161926Y-58092793D01*
X215744766Y-57920000D01*
X215293234Y-57920000D01*
X214876074Y-58092793D01*
X214625067Y-58343800D01*
X213999933Y-58343800D01*
X213748926Y-58092793D01*
X213331766Y-57920000D01*
X212880234Y-57920000D01*
X212463074Y-58092793D01*
X212143793Y-58412074D01*
X211971000Y-58829234D01*
X202871879Y-58829234D01*
X202892207Y-58808906D01*
X203065000Y-58391746D01*
X203065000Y-57940214D01*
X202892207Y-57523054D01*
X202596843Y-57227690D01*
X225571000Y-57227690D01*
X225571000Y-57918250D01*
X225729750Y-58077000D01*
X226929000Y-58077000D01*
X226929000Y-56877750D01*
X227183000Y-56877750D01*
X227183000Y-58077000D01*
X228382250Y-58077000D01*
X228541000Y-57918250D01*
X228541000Y-57227690D01*
X228444327Y-56994301D01*
X228265698Y-56815673D01*
X228032309Y-56719000D01*
X227341750Y-56719000D01*
X227183000Y-56877750D01*
X226929000Y-56877750D01*
X226770250Y-56719000D01*
X226079691Y-56719000D01*
X225846302Y-56815673D01*
X225667673Y-56994301D01*
X225571000Y-57227690D01*
X202596843Y-57227690D01*
X202572926Y-57203773D01*
X202155766Y-57030980D01*
X202144200Y-57030980D01*
X202144200Y-54555431D01*
X230765000Y-54555431D01*
X230765000Y-55444569D01*
X231105259Y-56266026D01*
X231733974Y-56894741D01*
X232555431Y-57235000D01*
X233444569Y-57235000D01*
X234266026Y-56894741D01*
X234894741Y-56266026D01*
X235235000Y-55444569D01*
X235235000Y-54555431D01*
X234894741Y-53733974D01*
X234266026Y-53105259D01*
X233444569Y-52765000D01*
X232555431Y-52765000D01*
X231733974Y-53105259D01*
X231105259Y-53733974D01*
X230765000Y-54555431D01*
X202144200Y-54555431D01*
X202144200Y-38075785D01*
X202503625Y-37835625D01*
X202518096Y-37813967D01*
X202584673Y-37974698D01*
X202763301Y-38153327D01*
X202996690Y-38250000D01*
X203687250Y-38250000D01*
X203846000Y-38091250D01*
X203846000Y-36892000D01*
X204100000Y-36892000D01*
X204100000Y-38091250D01*
X204258750Y-38250000D01*
X204949310Y-38250000D01*
X205182699Y-38153327D01*
X205361327Y-37974698D01*
X205458000Y-37741309D01*
X205458000Y-37050750D01*
X205299250Y-36892000D01*
X204100000Y-36892000D01*
X203846000Y-36892000D01*
X203826000Y-36892000D01*
X203826000Y-36638000D01*
X203846000Y-36638000D01*
X203846000Y-35438750D01*
X204100000Y-35438750D01*
X204100000Y-36638000D01*
X205299250Y-36638000D01*
X205458000Y-36479250D01*
X205458000Y-35788691D01*
X205361327Y-35555302D01*
X205182699Y-35376673D01*
X204949310Y-35280000D01*
X204258750Y-35280000D01*
X204100000Y-35438750D01*
X203846000Y-35438750D01*
X203687250Y-35280000D01*
X202996690Y-35280000D01*
X202763301Y-35376673D01*
X202584673Y-35555302D01*
X202518096Y-35716033D01*
X202503625Y-35694375D01*
X202012418Y-35366161D01*
X201579256Y-35280000D01*
X201286744Y-35280000D01*
X200853582Y-35366161D01*
X200362375Y-35694375D01*
X200163000Y-35992761D01*
X199963625Y-35694375D01*
X199472418Y-35366161D01*
X199039256Y-35280000D01*
X198746744Y-35280000D01*
X198313582Y-35366161D01*
X197822375Y-35694375D01*
X197494161Y-36185582D01*
X197378908Y-36765000D01*
X192842789Y-36765000D01*
X191946424Y-35868636D01*
X191906746Y-35809254D01*
X191671496Y-35652064D01*
X191464046Y-35610800D01*
X191464041Y-35610800D01*
X191394000Y-35596868D01*
X191323959Y-35610800D01*
X149295042Y-35610800D01*
X149225000Y-35596868D01*
X149154958Y-35610800D01*
X149154954Y-35610800D01*
X148947504Y-35652064D01*
X148947502Y-35652065D01*
X148947503Y-35652065D01*
X148771635Y-35769576D01*
X148771633Y-35769578D01*
X148712254Y-35809254D01*
X148672578Y-35868633D01*
X147947000Y-36594211D01*
X147947000Y-36477234D01*
X147774207Y-36060074D01*
X147454926Y-35740793D01*
X147037766Y-35568000D01*
X146586234Y-35568000D01*
X146169074Y-35740793D01*
X145849793Y-36060074D01*
X145677000Y-36477234D01*
X145677000Y-36707560D01*
X144872440Y-36707560D01*
X144872440Y-36405000D01*
X144823157Y-36157235D01*
X144682809Y-35947191D01*
X144472765Y-35806843D01*
X144225000Y-35757560D01*
X143725000Y-35757560D01*
X143477235Y-35806843D01*
X143267191Y-35947191D01*
X143126843Y-36157235D01*
X143077560Y-36405000D01*
X143077560Y-36707560D01*
X142225000Y-36707560D01*
X141977235Y-36756843D01*
X141772266Y-36893800D01*
X77465041Y-36893800D01*
X77394999Y-36879868D01*
X77324957Y-36893800D01*
X77324954Y-36893800D01*
X77117504Y-36935064D01*
X77117503Y-36935065D01*
X77117502Y-36935065D01*
X76941635Y-37052576D01*
X76941633Y-37052578D01*
X76882254Y-37092254D01*
X76842578Y-37151633D01*
X75463638Y-38530573D01*
X75305330Y-38465000D01*
X74694670Y-38465000D01*
X74130493Y-38698690D01*
X73698690Y-39130493D01*
X73465000Y-39694670D01*
X73465000Y-40305330D01*
X73698690Y-40869507D01*
X73867908Y-41038725D01*
X73852235Y-41041843D01*
X73642191Y-41182191D01*
X73501843Y-41392235D01*
X73452560Y-41640000D01*
X54127000Y-41640000D01*
X54127000Y-34127000D01*
X235873000Y-34127000D01*
X235873000Y-85873000D01*
X235873000Y-85873000D01*
G37*
X235873000Y-85873000D02*
X218127000Y-85873000D01*
X218127000Y-81000000D01*
X218117333Y-80951399D01*
X218089803Y-80910197D01*
X218048601Y-80882667D01*
X218000000Y-80873000D01*
X199000000Y-80873000D01*
X198951399Y-80882667D01*
X198910197Y-80910197D01*
X198882667Y-80951399D01*
X198873000Y-81000000D01*
X198873000Y-85873000D01*
X183273700Y-85873000D01*
X183273700Y-84411307D01*
X183684902Y-84493100D01*
X183980098Y-84493100D01*
X184417225Y-84406150D01*
X184912930Y-84074930D01*
X185114354Y-83773479D01*
X185165679Y-83882990D01*
X185597553Y-84277188D01*
X186013474Y-84449458D01*
X186245500Y-84328317D01*
X186245500Y-83121500D01*
X186499500Y-83121500D01*
X186499500Y-84328317D01*
X186731526Y-84449458D01*
X187147447Y-84277188D01*
X187579321Y-83882990D01*
X187827468Y-83353527D01*
X187706969Y-83121500D01*
X186499500Y-83121500D01*
X186245500Y-83121500D01*
X186225500Y-83121500D01*
X186225500Y-82867500D01*
X186245500Y-82867500D01*
X186245500Y-82847500D01*
X186499500Y-82847500D01*
X186499500Y-82867500D01*
X187706969Y-82867500D01*
X187827468Y-82635473D01*
X187579321Y-82106010D01*
X187391550Y-81934619D01*
X187483865Y-81916257D01*
X187693909Y-81775909D01*
X187834257Y-81565865D01*
X187883540Y-81318100D01*
X187883540Y-79590900D01*
X187880664Y-79576443D01*
X187988234Y-79621000D01*
X188439766Y-79621000D01*
X188856926Y-79448207D01*
X189107933Y-79197200D01*
X196525959Y-79197200D01*
X196596000Y-79211132D01*
X196666041Y-79197200D01*
X196666046Y-79197200D01*
X196873496Y-79155936D01*
X196937754Y-79113000D01*
X197329766Y-79113000D01*
X197746926Y-78940207D01*
X198066207Y-78620926D01*
X198239000Y-78203766D01*
X198239000Y-77752234D01*
X198066207Y-77335074D01*
X197746926Y-77015793D01*
X197329766Y-76843000D01*
X196878234Y-76843000D01*
X196461074Y-77015793D01*
X196141793Y-77335074D01*
X195969000Y-77752234D01*
X195969000Y-77774800D01*
X190205263Y-77774800D01*
X190238000Y-77695766D01*
X190238000Y-77244234D01*
X190065207Y-76827074D01*
X189814200Y-76576067D01*
X189814200Y-74577228D01*
X203335000Y-74577228D01*
X203335000Y-75028760D01*
X203507793Y-75445920D01*
X203563377Y-75501504D01*
X203507793Y-75557088D01*
X203335000Y-75974248D01*
X203335000Y-76425780D01*
X203507793Y-76842940D01*
X203827074Y-77162221D01*
X204244234Y-77335014D01*
X204695766Y-77335014D01*
X205112926Y-77162221D01*
X205363933Y-76911214D01*
X213804007Y-76911214D01*
X213819965Y-76927173D01*
X213606074Y-77015769D01*
X213286793Y-77335050D01*
X213114000Y-77752210D01*
X213114000Y-78203742D01*
X213286793Y-78620902D01*
X213606074Y-78940183D01*
X214023234Y-79112976D01*
X214474766Y-79112976D01*
X214891926Y-78940183D01*
X215113709Y-78718400D01*
X222031677Y-78718400D01*
X222049793Y-78762136D01*
X222369074Y-79081417D01*
X222786234Y-79254210D01*
X223237766Y-79254210D01*
X223654926Y-79081417D01*
X223905933Y-78830410D01*
X225975749Y-78830410D01*
X226045790Y-78844342D01*
X226115831Y-78830410D01*
X226115836Y-78830410D01*
X226323286Y-78789146D01*
X226558536Y-78631956D01*
X226598214Y-78572574D01*
X227509369Y-77661420D01*
X227568745Y-77621746D01*
X227608420Y-77562369D01*
X227608424Y-77562365D01*
X227725935Y-77386497D01*
X227725936Y-77386496D01*
X227767200Y-77179046D01*
X227767200Y-77179042D01*
X227781132Y-77109000D01*
X227767200Y-77038958D01*
X227767200Y-74555431D01*
X230765000Y-74555431D01*
X230765000Y-75444569D01*
X231105259Y-76266026D01*
X231733974Y-76894741D01*
X232555431Y-77235000D01*
X233444569Y-77235000D01*
X234266026Y-76894741D01*
X234894741Y-76266026D01*
X235235000Y-75444569D01*
X235235000Y-74555431D01*
X234894741Y-73733974D01*
X234266026Y-73105259D01*
X233444569Y-72765000D01*
X232555431Y-72765000D01*
X231733974Y-73105259D01*
X231105259Y-73733974D01*
X230765000Y-74555431D01*
X227767200Y-74555431D01*
X227767200Y-72214785D01*
X228126625Y-71974625D01*
X228454839Y-71483418D01*
X228570092Y-70904000D01*
X228454839Y-70324582D01*
X228126625Y-69833375D01*
X227828239Y-69634000D01*
X228126625Y-69434625D01*
X228454839Y-68943418D01*
X228570092Y-68364000D01*
X228454839Y-67784582D01*
X228126625Y-67293375D01*
X227828239Y-67094000D01*
X228126625Y-66894625D01*
X228454839Y-66403418D01*
X228570092Y-65824000D01*
X228454839Y-65244582D01*
X228126625Y-64753375D01*
X227828239Y-64554000D01*
X228126625Y-64354625D01*
X228454839Y-63863418D01*
X228570092Y-63284000D01*
X228454839Y-62704582D01*
X228126625Y-62213375D01*
X227828239Y-62014000D01*
X228126625Y-61814625D01*
X228454839Y-61323418D01*
X228570092Y-60744000D01*
X228454839Y-60164582D01*
X228126625Y-59673375D01*
X228104967Y-59658904D01*
X228265698Y-59592327D01*
X228444327Y-59413699D01*
X228541000Y-59180310D01*
X228541000Y-58489750D01*
X228382250Y-58331000D01*
X227183000Y-58331000D01*
X227183000Y-58351000D01*
X226929000Y-58351000D01*
X226929000Y-58331000D01*
X225729750Y-58331000D01*
X225571000Y-58489750D01*
X225571000Y-59180310D01*
X225667673Y-59413699D01*
X225846302Y-59592327D01*
X226007033Y-59658904D01*
X225985375Y-59673375D01*
X225657161Y-60164582D01*
X225541908Y-60744000D01*
X225657161Y-61323418D01*
X225985375Y-61814625D01*
X226283761Y-62014000D01*
X225985375Y-62213375D01*
X225657161Y-62704582D01*
X225541908Y-63284000D01*
X225657161Y-63863418D01*
X225985375Y-64354625D01*
X226283761Y-64554000D01*
X225985375Y-64753375D01*
X225657161Y-65244582D01*
X225541908Y-65824000D01*
X225626241Y-66247971D01*
X224602634Y-67271578D01*
X224543254Y-67311255D01*
X224503578Y-67370634D01*
X224503576Y-67370636D01*
X224426267Y-67486337D01*
X224386064Y-67546505D01*
X224344800Y-67753955D01*
X224344800Y-67753959D01*
X224330868Y-67824000D01*
X224344800Y-67894041D01*
X224344801Y-73861410D01*
X224093412Y-74112800D01*
X205384939Y-74112800D01*
X205112926Y-73840787D01*
X204695766Y-73667994D01*
X204244234Y-73667994D01*
X203827074Y-73840787D01*
X203507793Y-74160068D01*
X203335000Y-74577228D01*
X189814200Y-74577228D01*
X189814200Y-70906588D01*
X193037789Y-67683000D01*
X193392766Y-67683000D01*
X193809926Y-67510207D01*
X194129207Y-67190926D01*
X194302000Y-66773766D01*
X194302000Y-66322234D01*
X194129207Y-65905074D01*
X193809926Y-65585793D01*
X193392766Y-65413000D01*
X192941234Y-65413000D01*
X192524074Y-65585793D01*
X192204793Y-65905074D01*
X192032000Y-66322234D01*
X192032000Y-66677211D01*
X188649634Y-70059578D01*
X188590255Y-70099254D01*
X188550579Y-70158633D01*
X188550576Y-70158636D01*
X188433065Y-70334504D01*
X188377868Y-70612000D01*
X188391801Y-70682046D01*
X188391800Y-76576067D01*
X188140793Y-76827074D01*
X187968000Y-77244234D01*
X187968000Y-77359381D01*
X187571074Y-77523793D01*
X187251793Y-77843074D01*
X187079000Y-78260234D01*
X187079000Y-78711766D01*
X187174971Y-78943460D01*
X186115227Y-78943460D01*
X186237500Y-78648266D01*
X186237500Y-78196734D01*
X186064707Y-77779574D01*
X185745426Y-77460293D01*
X185328266Y-77287500D01*
X184876734Y-77287500D01*
X184459574Y-77460293D01*
X184140293Y-77779574D01*
X183967500Y-78196734D01*
X183967500Y-78648266D01*
X184105236Y-78980792D01*
X183980098Y-78955900D01*
X183684902Y-78955900D01*
X183396963Y-79013175D01*
X182511700Y-78127912D01*
X182511700Y-77287541D01*
X182525632Y-77217499D01*
X182511700Y-77147455D01*
X182511700Y-77147454D01*
X182470436Y-76940004D01*
X182436781Y-76889636D01*
X182352924Y-76764135D01*
X182352920Y-76764131D01*
X182313245Y-76704754D01*
X182253869Y-76665080D01*
X180924200Y-75335412D01*
X180924200Y-74176042D01*
X180938132Y-74106000D01*
X180924200Y-74035958D01*
X180924200Y-74035954D01*
X180882936Y-73828504D01*
X180840240Y-73764605D01*
X180765424Y-73652635D01*
X180765420Y-73652631D01*
X180725745Y-73593254D01*
X180666369Y-73553580D01*
X180003424Y-72890636D01*
X179963746Y-72831254D01*
X179728496Y-72674064D01*
X179521046Y-72632800D01*
X179521041Y-72632800D01*
X179451000Y-72618868D01*
X179380959Y-72632800D01*
X177868433Y-72632800D01*
X177617426Y-72381793D01*
X177200266Y-72209000D01*
X176748734Y-72209000D01*
X176331574Y-72381793D01*
X176012293Y-72701074D01*
X175839500Y-73118234D01*
X175839500Y-73569766D01*
X176012293Y-73986926D01*
X176331574Y-74306207D01*
X176748734Y-74479000D01*
X177200266Y-74479000D01*
X177617426Y-74306207D01*
X177868433Y-74055200D01*
X179156412Y-74055200D01*
X179501800Y-74400589D01*
X179501801Y-75559954D01*
X179487868Y-75630000D01*
X179543065Y-75907496D01*
X179660576Y-76083364D01*
X179660579Y-76083367D01*
X179700255Y-76142746D01*
X179759634Y-76182422D01*
X181089300Y-77512089D01*
X181089301Y-78352454D01*
X181075368Y-78422500D01*
X181130565Y-78699996D01*
X181248076Y-78875864D01*
X181248079Y-78875867D01*
X181287755Y-78935246D01*
X181318666Y-78955900D01*
X181144902Y-78955900D01*
X180856963Y-79013175D01*
X180447924Y-78604136D01*
X180408246Y-78544754D01*
X180172996Y-78387564D01*
X179965546Y-78346300D01*
X179965541Y-78346300D01*
X179895500Y-78332368D01*
X179825459Y-78346300D01*
X178314542Y-78346300D01*
X178244500Y-78332368D01*
X178174458Y-78346300D01*
X178174454Y-78346300D01*
X177967004Y-78387564D01*
X177914719Y-78422500D01*
X177791135Y-78505076D01*
X177791133Y-78505078D01*
X177731754Y-78544754D01*
X177692078Y-78604133D01*
X177070659Y-79225553D01*
X176797225Y-79042850D01*
X176360098Y-78955900D01*
X176064902Y-78955900D01*
X175823500Y-79003918D01*
X175823500Y-78768234D01*
X175650707Y-78351074D01*
X175331426Y-78031793D01*
X174914266Y-77859000D01*
X174462734Y-77859000D01*
X174045574Y-78031793D01*
X173726293Y-78351074D01*
X173611648Y-78627853D01*
X171613253Y-79352224D01*
X171231266Y-79194000D01*
X170779734Y-79194000D01*
X170362574Y-79366793D01*
X170043293Y-79686074D01*
X169870500Y-80103234D01*
X169870500Y-80554766D01*
X170043293Y-80971926D01*
X170362574Y-81291207D01*
X170779734Y-81464000D01*
X171231266Y-81464000D01*
X171648426Y-81291207D01*
X171967707Y-80971926D01*
X172082352Y-80695147D01*
X174080748Y-79970776D01*
X174462734Y-80129000D01*
X174749287Y-80129000D01*
X174684541Y-80454500D01*
X174800850Y-81039225D01*
X175132070Y-81534930D01*
X175415781Y-81724500D01*
X175132070Y-81914070D01*
X174800850Y-82409775D01*
X174684541Y-82994500D01*
X174800850Y-83579225D01*
X175132070Y-84074930D01*
X175627775Y-84406150D01*
X176064902Y-84493100D01*
X176360098Y-84493100D01*
X176648037Y-84435825D01*
X178085211Y-85873000D01*
X54127000Y-85873000D01*
X54127000Y-74555431D01*
X54765000Y-74555431D01*
X54765000Y-75444569D01*
X55105259Y-76266026D01*
X55733974Y-76894741D01*
X56555431Y-77235000D01*
X57444569Y-77235000D01*
X57770487Y-77100000D01*
X81552560Y-77100000D01*
X81552560Y-79100000D01*
X81601843Y-79347765D01*
X81742191Y-79557809D01*
X81952235Y-79698157D01*
X82200000Y-79747440D01*
X84200000Y-79747440D01*
X84447765Y-79698157D01*
X84657809Y-79557809D01*
X84798157Y-79347765D01*
X84847440Y-79100000D01*
X84847440Y-77580213D01*
X100565000Y-77580213D01*
X100565000Y-78389787D01*
X100874810Y-79137735D01*
X101447265Y-79710190D01*
X102195213Y-80020000D01*
X103004787Y-80020000D01*
X103752735Y-79710190D01*
X104325190Y-79137735D01*
X104635000Y-78389787D01*
X104635000Y-77580213D01*
X130505000Y-77580213D01*
X130505000Y-78389787D01*
X130814810Y-79137735D01*
X131387265Y-79710190D01*
X132135213Y-80020000D01*
X132944787Y-80020000D01*
X133386322Y-79837110D01*
X134393578Y-80844367D01*
X134433254Y-80903746D01*
X134492633Y-80943422D01*
X134492635Y-80943424D01*
X134576360Y-80999367D01*
X134668504Y-81060936D01*
X134875954Y-81102200D01*
X134875958Y-81102200D01*
X134946000Y-81116132D01*
X135016042Y-81102200D01*
X166223758Y-81102200D01*
X166293799Y-81116132D01*
X166363840Y-81102200D01*
X166363845Y-81102200D01*
X166571295Y-81060936D01*
X166806545Y-80903746D01*
X166846223Y-80844364D01*
X167002788Y-80687799D01*
X167346378Y-80687799D01*
X167267000Y-80879434D01*
X167267000Y-81330966D01*
X167439793Y-81748126D01*
X167759074Y-82067407D01*
X168176234Y-82240200D01*
X168627766Y-82240200D01*
X169044926Y-82067407D01*
X169364207Y-81748126D01*
X169537000Y-81330966D01*
X169537000Y-80879434D01*
X169364207Y-80462274D01*
X169113200Y-80211267D01*
X169113200Y-79942957D01*
X169159947Y-79896210D01*
X169514925Y-79896210D01*
X169932085Y-79723417D01*
X170251366Y-79404136D01*
X170424159Y-78986976D01*
X170424159Y-78535444D01*
X170251366Y-78118284D01*
X169932085Y-77799003D01*
X169514925Y-77626210D01*
X169063393Y-77626210D01*
X168646233Y-77799003D01*
X168326952Y-78118284D01*
X168154159Y-78535444D01*
X168154159Y-78890422D01*
X168106069Y-78938512D01*
X168094207Y-78909873D01*
X167843200Y-78658866D01*
X167843200Y-77982933D01*
X168094207Y-77731926D01*
X168267000Y-77314766D01*
X168267000Y-76863234D01*
X168094207Y-76446074D01*
X167774926Y-76126793D01*
X167357766Y-75954000D01*
X166906234Y-75954000D01*
X166489074Y-76126793D01*
X166169793Y-76446074D01*
X165997000Y-76863234D01*
X165997000Y-77314766D01*
X166169793Y-77731926D01*
X166420800Y-77982933D01*
X166420801Y-78658865D01*
X166169793Y-78909873D01*
X165997000Y-79327033D01*
X165997000Y-79679800D01*
X163885125Y-79679800D01*
X164427190Y-79137735D01*
X164737000Y-78389787D01*
X164737000Y-77580213D01*
X164427190Y-76832265D01*
X163854735Y-76259810D01*
X163106787Y-75950000D01*
X162297213Y-75950000D01*
X161549265Y-76259810D01*
X160976810Y-76832265D01*
X160667000Y-77580213D01*
X160667000Y-78389787D01*
X160976810Y-79137735D01*
X161518875Y-79679800D01*
X135240589Y-79679800D01*
X134392110Y-78831322D01*
X134575000Y-78389787D01*
X134575000Y-77580213D01*
X134265190Y-76832265D01*
X133692735Y-76259810D01*
X132944787Y-75950000D01*
X132135213Y-75950000D01*
X131387265Y-76259810D01*
X130814810Y-76832265D01*
X130505000Y-77580213D01*
X104635000Y-77580213D01*
X104325190Y-76832265D01*
X103752735Y-76259810D01*
X103004787Y-75950000D01*
X102195213Y-75950000D01*
X101447265Y-76259810D01*
X100874810Y-76832265D01*
X100565000Y-77580213D01*
X84847440Y-77580213D01*
X84847440Y-77100000D01*
X84798157Y-76852235D01*
X84657809Y-76642191D01*
X84447765Y-76501843D01*
X84200000Y-76452560D01*
X82200000Y-76452560D01*
X81952235Y-76501843D01*
X81742191Y-76642191D01*
X81601843Y-76852235D01*
X81552560Y-77100000D01*
X57770487Y-77100000D01*
X58266026Y-76894741D01*
X58894741Y-76266026D01*
X59235000Y-75444569D01*
X59235000Y-75026724D01*
X101337882Y-75026724D01*
X101485455Y-75335106D01*
X102240031Y-75628405D01*
X103049409Y-75610614D01*
X103714545Y-75335106D01*
X103862118Y-75026724D01*
X131277882Y-75026724D01*
X131425455Y-75335106D01*
X132180031Y-75628405D01*
X132989409Y-75610614D01*
X133654545Y-75335106D01*
X133802118Y-75026724D01*
X161439882Y-75026724D01*
X161587455Y-75335106D01*
X162342031Y-75628405D01*
X163151409Y-75610614D01*
X163816545Y-75335106D01*
X163964118Y-75026724D01*
X162702000Y-73764605D01*
X161439882Y-75026724D01*
X133802118Y-75026724D01*
X132540000Y-73764605D01*
X131277882Y-75026724D01*
X103862118Y-75026724D01*
X102600000Y-73764605D01*
X101337882Y-75026724D01*
X59235000Y-75026724D01*
X59235000Y-74555431D01*
X58894741Y-73733974D01*
X58266026Y-73105259D01*
X57468176Y-72774778D01*
X81565000Y-72774778D01*
X81565000Y-73425222D01*
X81813914Y-74026153D01*
X82273847Y-74486086D01*
X82874778Y-74735000D01*
X83525222Y-74735000D01*
X84126153Y-74486086D01*
X84586086Y-74026153D01*
X84835000Y-73425222D01*
X84835000Y-73225031D01*
X100556595Y-73225031D01*
X100574386Y-74034409D01*
X100849894Y-74699545D01*
X101158276Y-74847118D01*
X102420395Y-73585000D01*
X102779605Y-73585000D01*
X104041724Y-74847118D01*
X104350106Y-74699545D01*
X104643405Y-73944969D01*
X104627580Y-73225031D01*
X130496595Y-73225031D01*
X130514386Y-74034409D01*
X130789894Y-74699545D01*
X131098276Y-74847118D01*
X132360395Y-73585000D01*
X132719605Y-73585000D01*
X133981724Y-74847118D01*
X134290106Y-74699545D01*
X134583405Y-73944969D01*
X134567580Y-73225031D01*
X160658595Y-73225031D01*
X160676386Y-74034409D01*
X160951894Y-74699545D01*
X161260276Y-74847118D01*
X162522395Y-73585000D01*
X162881605Y-73585000D01*
X164143724Y-74847118D01*
X164452106Y-74699545D01*
X164745405Y-73944969D01*
X164727614Y-73135591D01*
X164452106Y-72470455D01*
X164143724Y-72322882D01*
X162881605Y-73585000D01*
X162522395Y-73585000D01*
X161260276Y-72322882D01*
X160951894Y-72470455D01*
X160658595Y-73225031D01*
X134567580Y-73225031D01*
X134565614Y-73135591D01*
X134290106Y-72470455D01*
X133981724Y-72322882D01*
X132719605Y-73585000D01*
X132360395Y-73585000D01*
X131098276Y-72322882D01*
X130789894Y-72470455D01*
X130496595Y-73225031D01*
X104627580Y-73225031D01*
X104625614Y-73135591D01*
X104350106Y-72470455D01*
X104041724Y-72322882D01*
X102779605Y-73585000D01*
X102420395Y-73585000D01*
X101158276Y-72322882D01*
X100849894Y-72470455D01*
X100556595Y-73225031D01*
X84835000Y-73225031D01*
X84835000Y-72774778D01*
X84586086Y-72173847D01*
X84555515Y-72143276D01*
X101337882Y-72143276D01*
X102600000Y-73405395D01*
X103862118Y-72143276D01*
X131277882Y-72143276D01*
X132540000Y-73405395D01*
X133802118Y-72143276D01*
X161439882Y-72143276D01*
X162702000Y-73405395D01*
X163964118Y-72143276D01*
X163816545Y-71834894D01*
X163061969Y-71541595D01*
X162252591Y-71559386D01*
X161587455Y-71834894D01*
X161439882Y-72143276D01*
X133802118Y-72143276D01*
X133654545Y-71834894D01*
X132899969Y-71541595D01*
X132090591Y-71559386D01*
X131425455Y-71834894D01*
X131277882Y-72143276D01*
X103862118Y-72143276D01*
X103714545Y-71834894D01*
X102959969Y-71541595D01*
X102150591Y-71559386D01*
X101485455Y-71834894D01*
X101337882Y-72143276D01*
X84555515Y-72143276D01*
X84126153Y-71713914D01*
X83525222Y-71465000D01*
X82874778Y-71465000D01*
X82273847Y-71713914D01*
X81813914Y-72173847D01*
X81565000Y-72774778D01*
X57468176Y-72774778D01*
X57444569Y-72765000D01*
X56555431Y-72765000D01*
X55733974Y-73105259D01*
X55105259Y-73733974D01*
X54765000Y-74555431D01*
X54127000Y-74555431D01*
X54127000Y-61242234D01*
X76995400Y-61242234D01*
X76995400Y-61693766D01*
X77168193Y-62110926D01*
X77487474Y-62430207D01*
X77904634Y-62603000D01*
X78356166Y-62603000D01*
X78773326Y-62430207D01*
X79024333Y-62179200D01*
X81452867Y-62179200D01*
X81703874Y-62430207D01*
X82121034Y-62603000D01*
X82572566Y-62603000D01*
X82989726Y-62430207D01*
X83309007Y-62110926D01*
X83481800Y-61693766D01*
X83481800Y-61242234D01*
X83309007Y-60825074D01*
X83064323Y-60580390D01*
X168283000Y-60580390D01*
X168283000Y-61031922D01*
X168455793Y-61449082D01*
X168706800Y-61700089D01*
X168706801Y-63042499D01*
X168455793Y-63293507D01*
X168283000Y-63710667D01*
X168283000Y-64162199D01*
X168455793Y-64579359D01*
X168775074Y-64898640D01*
X169192234Y-65071433D01*
X169643766Y-65071433D01*
X170060926Y-64898640D01*
X170380207Y-64579359D01*
X170553000Y-64162199D01*
X170553000Y-63985434D01*
X179611400Y-63985434D01*
X179611400Y-64436966D01*
X179784193Y-64854126D01*
X180103474Y-65173407D01*
X180520634Y-65346200D01*
X180972166Y-65346200D01*
X181389326Y-65173407D01*
X181708607Y-64854126D01*
X181769876Y-64706209D01*
X181830674Y-64767007D01*
X182247834Y-64939800D01*
X182699366Y-64939800D01*
X183116526Y-64767007D01*
X183435807Y-64447726D01*
X183608600Y-64030566D01*
X183608600Y-63675589D01*
X183688969Y-63595220D01*
X183748345Y-63555546D01*
X183788020Y-63496169D01*
X183788024Y-63496165D01*
X183905535Y-63320297D01*
X183905536Y-63320296D01*
X183946800Y-63112846D01*
X183946800Y-63112842D01*
X183960732Y-63042800D01*
X183946800Y-62972758D01*
X183946800Y-62523000D01*
X191034560Y-62523000D01*
X191034560Y-64223000D01*
X191083843Y-64470765D01*
X191224191Y-64680809D01*
X191434235Y-64821157D01*
X191682000Y-64870440D01*
X193382000Y-64870440D01*
X193629765Y-64821157D01*
X193839809Y-64680809D01*
X193980157Y-64470765D01*
X194029440Y-64223000D01*
X194029440Y-62523000D01*
X193980157Y-62275235D01*
X193839809Y-62065191D01*
X193629765Y-61924843D01*
X193526292Y-61904261D01*
X193803645Y-61599924D01*
X193973476Y-61189890D01*
X193852155Y-60960000D01*
X192659000Y-60960000D01*
X192659000Y-60980000D01*
X192405000Y-60980000D01*
X192405000Y-60960000D01*
X191211845Y-60960000D01*
X191090524Y-61189890D01*
X191260355Y-61599924D01*
X191537708Y-61904261D01*
X191434235Y-61924843D01*
X191224191Y-62065191D01*
X191083843Y-62275235D01*
X191034560Y-62523000D01*
X183946800Y-62523000D01*
X183946800Y-60476110D01*
X191090524Y-60476110D01*
X191211845Y-60706000D01*
X192405000Y-60706000D01*
X192405000Y-59512181D01*
X192659000Y-59512181D01*
X192659000Y-60706000D01*
X193852155Y-60706000D01*
X193973476Y-60476110D01*
X193803645Y-60066076D01*
X193413358Y-59637817D01*
X192888892Y-59391514D01*
X192659000Y-59512181D01*
X192405000Y-59512181D01*
X192175108Y-59391514D01*
X191650642Y-59637817D01*
X191260355Y-60066076D01*
X191090524Y-60476110D01*
X183946800Y-60476110D01*
X183946800Y-58724868D01*
X191454737Y-58724868D01*
X191565641Y-59002099D01*
X192211593Y-59245323D01*
X192901453Y-59222836D01*
X193434359Y-59002099D01*
X193545263Y-58724868D01*
X192500000Y-57679605D01*
X191454737Y-58724868D01*
X183946800Y-58724868D01*
X183946800Y-57211593D01*
X190754677Y-57211593D01*
X190777164Y-57901453D01*
X190997901Y-58434359D01*
X191275132Y-58545263D01*
X192320395Y-57500000D01*
X192679605Y-57500000D01*
X193724868Y-58545263D01*
X194002099Y-58434359D01*
X194245323Y-57788407D01*
X194222836Y-57098547D01*
X194002099Y-56565641D01*
X193724868Y-56454737D01*
X192679605Y-57500000D01*
X192320395Y-57500000D01*
X191275132Y-56454737D01*
X190997901Y-56565641D01*
X190754677Y-57211593D01*
X183946800Y-57211593D01*
X183946800Y-56275132D01*
X191454737Y-56275132D01*
X192500000Y-57320395D01*
X193545263Y-56275132D01*
X193434359Y-55997901D01*
X192788407Y-55754677D01*
X192098547Y-55777164D01*
X191565641Y-55997901D01*
X191454737Y-56275132D01*
X183946800Y-56275132D01*
X183946800Y-54335533D01*
X184197807Y-54084526D01*
X184346781Y-53724868D01*
X191454737Y-53724868D01*
X191565641Y-54002099D01*
X192211593Y-54245323D01*
X192901453Y-54222836D01*
X193434359Y-54002099D01*
X193545263Y-53724868D01*
X192500000Y-52679605D01*
X191454737Y-53724868D01*
X184346781Y-53724868D01*
X184370600Y-53667366D01*
X184370600Y-53215834D01*
X184197807Y-52798674D01*
X183878526Y-52479393D01*
X183461366Y-52306600D01*
X183009834Y-52306600D01*
X182592674Y-52479393D01*
X182273393Y-52798674D01*
X182100600Y-53215834D01*
X182100600Y-53667366D01*
X182273393Y-54084526D01*
X182524401Y-54335534D01*
X182524401Y-54491434D01*
X182216766Y-54364008D01*
X181765234Y-54364008D01*
X181348074Y-54536801D01*
X181028793Y-54856082D01*
X180856000Y-55273242D01*
X180856000Y-55724774D01*
X181028793Y-56141934D01*
X181279801Y-56392942D01*
X181279800Y-62672011D01*
X180875611Y-63076200D01*
X180520634Y-63076200D01*
X180103474Y-63248993D01*
X179784193Y-63568274D01*
X179611400Y-63985434D01*
X170553000Y-63985434D01*
X170553000Y-63710667D01*
X170380207Y-63293507D01*
X170129200Y-63042500D01*
X170129200Y-61700089D01*
X170380207Y-61449082D01*
X170553000Y-61031922D01*
X170553000Y-60580390D01*
X170380207Y-60163230D01*
X170060926Y-59843949D01*
X169643766Y-59671156D01*
X169192234Y-59671156D01*
X168775074Y-59843949D01*
X168455793Y-60163230D01*
X168283000Y-60580390D01*
X83064323Y-60580390D01*
X82989726Y-60505793D01*
X82572566Y-60333000D01*
X82121034Y-60333000D01*
X81703874Y-60505793D01*
X81452867Y-60756800D01*
X79024333Y-60756800D01*
X78773326Y-60505793D01*
X78356166Y-60333000D01*
X77904634Y-60333000D01*
X77487474Y-60505793D01*
X77168193Y-60825074D01*
X76995400Y-61242234D01*
X54127000Y-61242234D01*
X54127000Y-58724868D01*
X91454737Y-58724868D01*
X91565641Y-59002099D01*
X92211593Y-59245323D01*
X92901453Y-59222836D01*
X93434359Y-59002099D01*
X93545263Y-58724868D01*
X92500000Y-57679605D01*
X91454737Y-58724868D01*
X54127000Y-58724868D01*
X54127000Y-54555431D01*
X54765000Y-54555431D01*
X54765000Y-55444569D01*
X55105259Y-56266026D01*
X55733974Y-56894741D01*
X56555431Y-57235000D01*
X57444569Y-57235000D01*
X57501078Y-57211593D01*
X90754677Y-57211593D01*
X90777164Y-57901453D01*
X90997901Y-58434359D01*
X91275132Y-58545263D01*
X92320395Y-57500000D01*
X92679605Y-57500000D01*
X93724868Y-58545263D01*
X94002099Y-58434359D01*
X94245323Y-57788407D01*
X94224673Y-57154887D01*
X95765000Y-57154887D01*
X95765000Y-57845113D01*
X96029138Y-58482799D01*
X96517201Y-58970862D01*
X97154887Y-59235000D01*
X97845113Y-59235000D01*
X98482799Y-58970862D01*
X98728793Y-58724868D01*
X111454737Y-58724868D01*
X111565641Y-59002099D01*
X112211593Y-59245323D01*
X112901453Y-59222836D01*
X113434359Y-59002099D01*
X113545263Y-58724868D01*
X112500000Y-57679605D01*
X111454737Y-58724868D01*
X98728793Y-58724868D01*
X98970862Y-58482799D01*
X99235000Y-57845113D01*
X99235000Y-57211593D01*
X110754677Y-57211593D01*
X110777164Y-57901453D01*
X110997901Y-58434359D01*
X111275132Y-58545263D01*
X112320395Y-57500000D01*
X112679605Y-57500000D01*
X113724868Y-58545263D01*
X114002099Y-58434359D01*
X114245323Y-57788407D01*
X114224673Y-57154887D01*
X115765000Y-57154887D01*
X115765000Y-57845113D01*
X116029138Y-58482799D01*
X116517201Y-58970862D01*
X117154887Y-59235000D01*
X117845113Y-59235000D01*
X118482799Y-58970862D01*
X118728793Y-58724868D01*
X131454737Y-58724868D01*
X131565641Y-59002099D01*
X132211593Y-59245323D01*
X132901453Y-59222836D01*
X133434359Y-59002099D01*
X133545263Y-58724868D01*
X132500000Y-57679605D01*
X131454737Y-58724868D01*
X118728793Y-58724868D01*
X118970862Y-58482799D01*
X119235000Y-57845113D01*
X119235000Y-57211593D01*
X130754677Y-57211593D01*
X130777164Y-57901453D01*
X130997901Y-58434359D01*
X131275132Y-58545263D01*
X132320395Y-57500000D01*
X132679605Y-57500000D01*
X133724868Y-58545263D01*
X134002099Y-58434359D01*
X134245323Y-57788407D01*
X134224673Y-57154887D01*
X135765000Y-57154887D01*
X135765000Y-57845113D01*
X136029138Y-58482799D01*
X136517201Y-58970862D01*
X137154887Y-59235000D01*
X137845113Y-59235000D01*
X138482799Y-58970862D01*
X138728793Y-58724868D01*
X151454737Y-58724868D01*
X151565641Y-59002099D01*
X152211593Y-59245323D01*
X152901453Y-59222836D01*
X153434359Y-59002099D01*
X153545263Y-58724868D01*
X152500000Y-57679605D01*
X151454737Y-58724868D01*
X138728793Y-58724868D01*
X138970862Y-58482799D01*
X139235000Y-57845113D01*
X139235000Y-57211593D01*
X150754677Y-57211593D01*
X150777164Y-57901453D01*
X150997901Y-58434359D01*
X151275132Y-58545263D01*
X152320395Y-57500000D01*
X152679605Y-57500000D01*
X153724868Y-58545263D01*
X154002099Y-58434359D01*
X154245323Y-57788407D01*
X154224673Y-57154887D01*
X155765000Y-57154887D01*
X155765000Y-57845113D01*
X156029138Y-58482799D01*
X156517201Y-58970862D01*
X157154887Y-59235000D01*
X157845113Y-59235000D01*
X158482799Y-58970862D01*
X158728793Y-58724868D01*
X171454737Y-58724868D01*
X171565641Y-59002099D01*
X172211593Y-59245323D01*
X172901453Y-59222836D01*
X173434359Y-59002099D01*
X173545263Y-58724868D01*
X172500000Y-57679605D01*
X171454737Y-58724868D01*
X158728793Y-58724868D01*
X158970862Y-58482799D01*
X159235000Y-57845113D01*
X159235000Y-57211593D01*
X170754677Y-57211593D01*
X170777164Y-57901453D01*
X170997901Y-58434359D01*
X171275132Y-58545263D01*
X172320395Y-57500000D01*
X172679605Y-57500000D01*
X173724868Y-58545263D01*
X174002099Y-58434359D01*
X174245323Y-57788407D01*
X174224673Y-57154887D01*
X175765000Y-57154887D01*
X175765000Y-57845113D01*
X176029138Y-58482799D01*
X176517201Y-58970862D01*
X177154887Y-59235000D01*
X177845113Y-59235000D01*
X178482799Y-58970862D01*
X178970862Y-58482799D01*
X179235000Y-57845113D01*
X179235000Y-57154887D01*
X178970862Y-56517201D01*
X178482799Y-56029138D01*
X177845113Y-55765000D01*
X177154887Y-55765000D01*
X176517201Y-56029138D01*
X176029138Y-56517201D01*
X175765000Y-57154887D01*
X174224673Y-57154887D01*
X174222836Y-57098547D01*
X174002099Y-56565641D01*
X173724868Y-56454737D01*
X172679605Y-57500000D01*
X172320395Y-57500000D01*
X171275132Y-56454737D01*
X170997901Y-56565641D01*
X170754677Y-57211593D01*
X159235000Y-57211593D01*
X159235000Y-57154887D01*
X158970862Y-56517201D01*
X158728793Y-56275132D01*
X171454737Y-56275132D01*
X172500000Y-57320395D01*
X173545263Y-56275132D01*
X173434359Y-55997901D01*
X172788407Y-55754677D01*
X172098547Y-55777164D01*
X171565641Y-55997901D01*
X171454737Y-56275132D01*
X158728793Y-56275132D01*
X158482799Y-56029138D01*
X157845113Y-55765000D01*
X157154887Y-55765000D01*
X156517201Y-56029138D01*
X156029138Y-56517201D01*
X155765000Y-57154887D01*
X154224673Y-57154887D01*
X154222836Y-57098547D01*
X154002099Y-56565641D01*
X153724868Y-56454737D01*
X152679605Y-57500000D01*
X152320395Y-57500000D01*
X151275132Y-56454737D01*
X150997901Y-56565641D01*
X150754677Y-57211593D01*
X139235000Y-57211593D01*
X139235000Y-57154887D01*
X138970862Y-56517201D01*
X138728793Y-56275132D01*
X151454737Y-56275132D01*
X152500000Y-57320395D01*
X153545263Y-56275132D01*
X153434359Y-55997901D01*
X152788407Y-55754677D01*
X152098547Y-55777164D01*
X151565641Y-55997901D01*
X151454737Y-56275132D01*
X138728793Y-56275132D01*
X138482799Y-56029138D01*
X137845113Y-55765000D01*
X137154887Y-55765000D01*
X136517201Y-56029138D01*
X136029138Y-56517201D01*
X135765000Y-57154887D01*
X134224673Y-57154887D01*
X134222836Y-57098547D01*
X134002099Y-56565641D01*
X133724868Y-56454737D01*
X132679605Y-57500000D01*
X132320395Y-57500000D01*
X131275132Y-56454737D01*
X130997901Y-56565641D01*
X130754677Y-57211593D01*
X119235000Y-57211593D01*
X119235000Y-57154887D01*
X118970862Y-56517201D01*
X118728793Y-56275132D01*
X131454737Y-56275132D01*
X132500000Y-57320395D01*
X133545263Y-56275132D01*
X133434359Y-55997901D01*
X132788407Y-55754677D01*
X132098547Y-55777164D01*
X131565641Y-55997901D01*
X131454737Y-56275132D01*
X118728793Y-56275132D01*
X118482799Y-56029138D01*
X117845113Y-55765000D01*
X117154887Y-55765000D01*
X116517201Y-56029138D01*
X116029138Y-56517201D01*
X115765000Y-57154887D01*
X114224673Y-57154887D01*
X114222836Y-57098547D01*
X114002099Y-56565641D01*
X113724868Y-56454737D01*
X112679605Y-57500000D01*
X112320395Y-57500000D01*
X111275132Y-56454737D01*
X110997901Y-56565641D01*
X110754677Y-57211593D01*
X99235000Y-57211593D01*
X99235000Y-57154887D01*
X98970862Y-56517201D01*
X98728793Y-56275132D01*
X111454737Y-56275132D01*
X112500000Y-57320395D01*
X113545263Y-56275132D01*
X113434359Y-55997901D01*
X112788407Y-55754677D01*
X112098547Y-55777164D01*
X111565641Y-55997901D01*
X111454737Y-56275132D01*
X98728793Y-56275132D01*
X98482799Y-56029138D01*
X97845113Y-55765000D01*
X97154887Y-55765000D01*
X96517201Y-56029138D01*
X96029138Y-56517201D01*
X95765000Y-57154887D01*
X94224673Y-57154887D01*
X94222836Y-57098547D01*
X94002099Y-56565641D01*
X93724868Y-56454737D01*
X92679605Y-57500000D01*
X92320395Y-57500000D01*
X91275132Y-56454737D01*
X90997901Y-56565641D01*
X90754677Y-57211593D01*
X57501078Y-57211593D01*
X58266026Y-56894741D01*
X58885635Y-56275132D01*
X91454737Y-56275132D01*
X92500000Y-57320395D01*
X93545263Y-56275132D01*
X93434359Y-55997901D01*
X92788407Y-55754677D01*
X92098547Y-55777164D01*
X91565641Y-55997901D01*
X91454737Y-56275132D01*
X58885635Y-56275132D01*
X58894741Y-56266026D01*
X59235000Y-55444569D01*
X59235000Y-54555431D01*
X58894741Y-53733974D01*
X58885635Y-53724868D01*
X91454737Y-53724868D01*
X91565641Y-54002099D01*
X92211593Y-54245323D01*
X92901453Y-54222836D01*
X93434359Y-54002099D01*
X93545263Y-53724868D01*
X92500000Y-52679605D01*
X91454737Y-53724868D01*
X58885635Y-53724868D01*
X58266026Y-53105259D01*
X57444569Y-52765000D01*
X56555431Y-52765000D01*
X55733974Y-53105259D01*
X55105259Y-53733974D01*
X54765000Y-54555431D01*
X54127000Y-54555431D01*
X54127000Y-52211593D01*
X90754677Y-52211593D01*
X90777164Y-52901453D01*
X90997901Y-53434359D01*
X91275132Y-53545263D01*
X92320395Y-52500000D01*
X92679605Y-52500000D01*
X93724868Y-53545263D01*
X94002099Y-53434359D01*
X94245323Y-52788407D01*
X94224673Y-52154887D01*
X95765000Y-52154887D01*
X95765000Y-52845113D01*
X96029138Y-53482799D01*
X96517201Y-53970862D01*
X97154887Y-54235000D01*
X97845113Y-54235000D01*
X98482799Y-53970862D01*
X98728793Y-53724868D01*
X111454737Y-53724868D01*
X111565641Y-54002099D01*
X112211593Y-54245323D01*
X112901453Y-54222836D01*
X113434359Y-54002099D01*
X113545263Y-53724868D01*
X112500000Y-52679605D01*
X111454737Y-53724868D01*
X98728793Y-53724868D01*
X98970862Y-53482799D01*
X99235000Y-52845113D01*
X99235000Y-52211593D01*
X110754677Y-52211593D01*
X110777164Y-52901453D01*
X110997901Y-53434359D01*
X111275132Y-53545263D01*
X112320395Y-52500000D01*
X112679605Y-52500000D01*
X113724868Y-53545263D01*
X114002099Y-53434359D01*
X114245323Y-52788407D01*
X114224673Y-52154887D01*
X115765000Y-52154887D01*
X115765000Y-52845113D01*
X116029138Y-53482799D01*
X116517201Y-53970862D01*
X117154887Y-54235000D01*
X117845113Y-54235000D01*
X118482799Y-53970862D01*
X118728793Y-53724868D01*
X131454737Y-53724868D01*
X131565641Y-54002099D01*
X132211593Y-54245323D01*
X132901453Y-54222836D01*
X133434359Y-54002099D01*
X133545263Y-53724868D01*
X132500000Y-52679605D01*
X131454737Y-53724868D01*
X118728793Y-53724868D01*
X118970862Y-53482799D01*
X119235000Y-52845113D01*
X119235000Y-52211593D01*
X130754677Y-52211593D01*
X130777164Y-52901453D01*
X130997901Y-53434359D01*
X131275132Y-53545263D01*
X132320395Y-52500000D01*
X132679605Y-52500000D01*
X133724868Y-53545263D01*
X134002099Y-53434359D01*
X134245323Y-52788407D01*
X134224673Y-52154887D01*
X135765000Y-52154887D01*
X135765000Y-52845113D01*
X136029138Y-53482799D01*
X136517201Y-53970862D01*
X137154887Y-54235000D01*
X137845113Y-54235000D01*
X138482799Y-53970862D01*
X138728793Y-53724868D01*
X151454737Y-53724868D01*
X151565641Y-54002099D01*
X152211593Y-54245323D01*
X152901453Y-54222836D01*
X153434359Y-54002099D01*
X153545263Y-53724868D01*
X152500000Y-52679605D01*
X151454737Y-53724868D01*
X138728793Y-53724868D01*
X138970862Y-53482799D01*
X139235000Y-52845113D01*
X139235000Y-52211593D01*
X150754677Y-52211593D01*
X150777164Y-52901453D01*
X150997901Y-53434359D01*
X151275132Y-53545263D01*
X152320395Y-52500000D01*
X152679605Y-52500000D01*
X153724868Y-53545263D01*
X154002099Y-53434359D01*
X154245323Y-52788407D01*
X154224673Y-52154887D01*
X155765000Y-52154887D01*
X155765000Y-52845113D01*
X156029138Y-53482799D01*
X156517201Y-53970862D01*
X157154887Y-54235000D01*
X157845113Y-54235000D01*
X158482799Y-53970862D01*
X158728793Y-53724868D01*
X171454737Y-53724868D01*
X171565641Y-54002099D01*
X172211593Y-54245323D01*
X172901453Y-54222836D01*
X173434359Y-54002099D01*
X173545263Y-53724868D01*
X172500000Y-52679605D01*
X171454737Y-53724868D01*
X158728793Y-53724868D01*
X158970862Y-53482799D01*
X159235000Y-52845113D01*
X159235000Y-52211593D01*
X170754677Y-52211593D01*
X170777164Y-52901453D01*
X170997901Y-53434359D01*
X171275132Y-53545263D01*
X172320395Y-52500000D01*
X172679605Y-52500000D01*
X173724868Y-53545263D01*
X174002099Y-53434359D01*
X174245323Y-52788407D01*
X174222836Y-52098547D01*
X174002099Y-51565641D01*
X173724868Y-51454737D01*
X172679605Y-52500000D01*
X172320395Y-52500000D01*
X171275132Y-51454737D01*
X170997901Y-51565641D01*
X170754677Y-52211593D01*
X159235000Y-52211593D01*
X159235000Y-52154887D01*
X158970862Y-51517201D01*
X158728793Y-51275132D01*
X171454737Y-51275132D01*
X172500000Y-52320395D01*
X173545263Y-51275132D01*
X173434359Y-50997901D01*
X172788407Y-50754677D01*
X172098547Y-50777164D01*
X171565641Y-50997901D01*
X171454737Y-51275132D01*
X158728793Y-51275132D01*
X158482799Y-51029138D01*
X157845113Y-50765000D01*
X157154887Y-50765000D01*
X156517201Y-51029138D01*
X156029138Y-51517201D01*
X155765000Y-52154887D01*
X154224673Y-52154887D01*
X154222836Y-52098547D01*
X154002099Y-51565641D01*
X153724868Y-51454737D01*
X152679605Y-52500000D01*
X152320395Y-52500000D01*
X151275132Y-51454737D01*
X150997901Y-51565641D01*
X150754677Y-52211593D01*
X139235000Y-52211593D01*
X139235000Y-52154887D01*
X138970862Y-51517201D01*
X138728793Y-51275132D01*
X151454737Y-51275132D01*
X152500000Y-52320395D01*
X153545263Y-51275132D01*
X153434359Y-50997901D01*
X152788407Y-50754677D01*
X152098547Y-50777164D01*
X151565641Y-50997901D01*
X151454737Y-51275132D01*
X138728793Y-51275132D01*
X138482799Y-51029138D01*
X137845113Y-50765000D01*
X137154887Y-50765000D01*
X136517201Y-51029138D01*
X136029138Y-51517201D01*
X135765000Y-52154887D01*
X134224673Y-52154887D01*
X134222836Y-52098547D01*
X134002099Y-51565641D01*
X133724868Y-51454737D01*
X132679605Y-52500000D01*
X132320395Y-52500000D01*
X131275132Y-51454737D01*
X130997901Y-51565641D01*
X130754677Y-52211593D01*
X119235000Y-52211593D01*
X119235000Y-52154887D01*
X118970862Y-51517201D01*
X118728793Y-51275132D01*
X131454737Y-51275132D01*
X132500000Y-52320395D01*
X133545263Y-51275132D01*
X133434359Y-50997901D01*
X132788407Y-50754677D01*
X132098547Y-50777164D01*
X131565641Y-50997901D01*
X131454737Y-51275132D01*
X118728793Y-51275132D01*
X118482799Y-51029138D01*
X117845113Y-50765000D01*
X117154887Y-50765000D01*
X116517201Y-51029138D01*
X116029138Y-51517201D01*
X115765000Y-52154887D01*
X114224673Y-52154887D01*
X114222836Y-52098547D01*
X114002099Y-51565641D01*
X113724868Y-51454737D01*
X112679605Y-52500000D01*
X112320395Y-52500000D01*
X111275132Y-51454737D01*
X110997901Y-51565641D01*
X110754677Y-52211593D01*
X99235000Y-52211593D01*
X99235000Y-52154887D01*
X98970862Y-51517201D01*
X98728793Y-51275132D01*
X111454737Y-51275132D01*
X112500000Y-52320395D01*
X113545263Y-51275132D01*
X113434359Y-50997901D01*
X112788407Y-50754677D01*
X112098547Y-50777164D01*
X111565641Y-50997901D01*
X111454737Y-51275132D01*
X98728793Y-51275132D01*
X98482799Y-51029138D01*
X97845113Y-50765000D01*
X97154887Y-50765000D01*
X96517201Y-51029138D01*
X96029138Y-51517201D01*
X95765000Y-52154887D01*
X94224673Y-52154887D01*
X94222836Y-52098547D01*
X94002099Y-51565641D01*
X93724868Y-51454737D01*
X92679605Y-52500000D01*
X92320395Y-52500000D01*
X91275132Y-51454737D01*
X90997901Y-51565641D01*
X90754677Y-52211593D01*
X54127000Y-52211593D01*
X54127000Y-51275132D01*
X91454737Y-51275132D01*
X92500000Y-52320395D01*
X93545263Y-51275132D01*
X93434359Y-50997901D01*
X92788407Y-50754677D01*
X92098547Y-50777164D01*
X91565641Y-50997901D01*
X91454737Y-51275132D01*
X54127000Y-51275132D01*
X54127000Y-50701234D01*
X174379000Y-50701234D01*
X174379000Y-51152766D01*
X174551793Y-51569926D01*
X174871074Y-51889207D01*
X175288234Y-52062000D01*
X175739766Y-52062000D01*
X175816670Y-52030146D01*
X175765000Y-52154887D01*
X175765000Y-52845113D01*
X176029138Y-53482799D01*
X176517201Y-53970862D01*
X177154887Y-54235000D01*
X177845113Y-54235000D01*
X178482799Y-53970862D01*
X178970862Y-53482799D01*
X179235000Y-52845113D01*
X179235000Y-52211593D01*
X190754677Y-52211593D01*
X190777164Y-52901453D01*
X190997901Y-53434359D01*
X191275132Y-53545263D01*
X192320395Y-52500000D01*
X192679605Y-52500000D01*
X193724868Y-53545263D01*
X194002099Y-53434359D01*
X194245323Y-52788407D01*
X194224673Y-52154887D01*
X195765000Y-52154887D01*
X195765000Y-52845113D01*
X196029138Y-53482799D01*
X196517201Y-53970862D01*
X196788801Y-54083362D01*
X196788800Y-55916638D01*
X196517201Y-56029138D01*
X196029138Y-56517201D01*
X195765000Y-57154887D01*
X195765000Y-57845113D01*
X196029138Y-58482799D01*
X196517201Y-58970862D01*
X197154887Y-59235000D01*
X197845113Y-59235000D01*
X198482799Y-58970862D01*
X198970862Y-58482799D01*
X199235000Y-57845113D01*
X199235000Y-57154887D01*
X198970862Y-56517201D01*
X198482799Y-56029138D01*
X198211200Y-55916638D01*
X198211200Y-54083362D01*
X198482799Y-53970862D01*
X198970862Y-53482799D01*
X199235000Y-52845113D01*
X199235000Y-52154887D01*
X198970862Y-51517201D01*
X198482799Y-51029138D01*
X197845113Y-50765000D01*
X197154887Y-50765000D01*
X196517201Y-51029138D01*
X196029138Y-51517201D01*
X195765000Y-52154887D01*
X194224673Y-52154887D01*
X194222836Y-52098547D01*
X194002099Y-51565641D01*
X193724868Y-51454737D01*
X192679605Y-52500000D01*
X192320395Y-52500000D01*
X191275132Y-51454737D01*
X190997901Y-51565641D01*
X190754677Y-52211593D01*
X179235000Y-52211593D01*
X179235000Y-52154887D01*
X178970862Y-51517201D01*
X178728793Y-51275132D01*
X191454737Y-51275132D01*
X192500000Y-52320395D01*
X193545263Y-51275132D01*
X193434359Y-50997901D01*
X192788407Y-50754677D01*
X192098547Y-50777164D01*
X191565641Y-50997901D01*
X191454737Y-51275132D01*
X178728793Y-51275132D01*
X178482799Y-51029138D01*
X177845113Y-50765000D01*
X177154887Y-50765000D01*
X176649000Y-50974545D01*
X176649000Y-50797788D01*
X177332589Y-50114200D01*
X178303067Y-50114200D01*
X178554074Y-50365207D01*
X178971234Y-50538000D01*
X179422766Y-50538000D01*
X179839926Y-50365207D01*
X180159207Y-50045926D01*
X180332000Y-49628766D01*
X180332000Y-49177234D01*
X180159207Y-48760074D01*
X179839926Y-48440793D01*
X179422766Y-48268000D01*
X178971234Y-48268000D01*
X178554074Y-48440793D01*
X178303067Y-48691800D01*
X177108041Y-48691800D01*
X177037999Y-48677868D01*
X176967957Y-48691800D01*
X176967954Y-48691800D01*
X176760504Y-48733064D01*
X176760503Y-48733065D01*
X176760502Y-48733065D01*
X176584635Y-48850576D01*
X176584633Y-48850578D01*
X176525254Y-48890254D01*
X176485578Y-48949633D01*
X175643212Y-49792000D01*
X175288234Y-49792000D01*
X174871074Y-49964793D01*
X174551793Y-50284074D01*
X174379000Y-50701234D01*
X54127000Y-50701234D01*
X54127000Y-45305234D01*
X185422000Y-45305234D01*
X185422000Y-45756766D01*
X185594793Y-46173926D01*
X185914074Y-46493207D01*
X186331234Y-46666000D01*
X186782766Y-46666000D01*
X187199926Y-46493207D01*
X187507000Y-46186133D01*
X187814074Y-46493207D01*
X188231234Y-46666000D01*
X188682766Y-46666000D01*
X189099926Y-46493207D01*
X189419207Y-46173926D01*
X189592000Y-45756766D01*
X189592000Y-45305234D01*
X189419207Y-44888074D01*
X189099926Y-44568793D01*
X188682766Y-44396000D01*
X188231234Y-44396000D01*
X187814074Y-44568793D01*
X187507000Y-44875867D01*
X187199926Y-44568793D01*
X186782766Y-44396000D01*
X186331234Y-44396000D01*
X185914074Y-44568793D01*
X185594793Y-44888074D01*
X185422000Y-45305234D01*
X54127000Y-45305234D01*
X54127000Y-41640000D01*
X73452560Y-41640000D01*
X73452560Y-43440000D01*
X73501843Y-43687765D01*
X73642191Y-43897809D01*
X73852235Y-44038157D01*
X74100000Y-44087440D01*
X75900000Y-44087440D01*
X76147765Y-44038157D01*
X76357809Y-43897809D01*
X76498157Y-43687765D01*
X76547440Y-43440000D01*
X76547440Y-41640000D01*
X76498157Y-41392235D01*
X76357809Y-41182191D01*
X76147765Y-41041843D01*
X76132092Y-41038725D01*
X76301310Y-40869507D01*
X76535000Y-40305330D01*
X76535000Y-39694670D01*
X76469427Y-39536362D01*
X77689589Y-38316200D01*
X95678011Y-38316200D01*
X95463638Y-38530573D01*
X95305330Y-38465000D01*
X94694670Y-38465000D01*
X94130493Y-38698690D01*
X93698690Y-39130493D01*
X93465000Y-39694670D01*
X93465000Y-40305330D01*
X93698690Y-40869507D01*
X93867908Y-41038725D01*
X93852235Y-41041843D01*
X93642191Y-41182191D01*
X93501843Y-41392235D01*
X93452560Y-41640000D01*
X93452560Y-43440000D01*
X93501843Y-43687765D01*
X93642191Y-43897809D01*
X93852235Y-44038157D01*
X94100000Y-44087440D01*
X95900000Y-44087440D01*
X96147765Y-44038157D01*
X96357809Y-43897809D01*
X96498157Y-43687765D01*
X96547440Y-43440000D01*
X96547440Y-41640000D01*
X96498157Y-41392235D01*
X96357809Y-41182191D01*
X96147765Y-41041843D01*
X96132092Y-41038725D01*
X96301310Y-40869507D01*
X96535000Y-40305330D01*
X96535000Y-39694670D01*
X96469427Y-39536362D01*
X96889589Y-39116200D01*
X113712983Y-39116200D01*
X113698690Y-39130493D01*
X113465000Y-39694670D01*
X113465000Y-40305330D01*
X113698690Y-40869507D01*
X113867908Y-41038725D01*
X113852235Y-41041843D01*
X113642191Y-41182191D01*
X113501843Y-41392235D01*
X113452560Y-41640000D01*
X113452560Y-43440000D01*
X113501843Y-43687765D01*
X113642191Y-43897809D01*
X113852235Y-44038157D01*
X114100000Y-44087440D01*
X115900000Y-44087440D01*
X116147765Y-44038157D01*
X116357809Y-43897809D01*
X116498157Y-43687765D01*
X116547440Y-43440000D01*
X116547440Y-41640000D01*
X116498157Y-41392235D01*
X116357809Y-41182191D01*
X116147765Y-41041843D01*
X116132092Y-41038725D01*
X116301310Y-40869507D01*
X116535000Y-40305330D01*
X116535000Y-39930788D01*
X116930790Y-39534999D01*
X133531138Y-39534999D01*
X133465000Y-39694670D01*
X133465000Y-40305330D01*
X133698690Y-40869507D01*
X133867908Y-41038725D01*
X133852235Y-41041843D01*
X133642191Y-41182191D01*
X133501843Y-41392235D01*
X133452560Y-41640000D01*
X133452560Y-43440000D01*
X133501843Y-43687765D01*
X133642191Y-43897809D01*
X133852235Y-44038157D01*
X134100000Y-44087440D01*
X135900000Y-44087440D01*
X136147765Y-44038157D01*
X136357809Y-43897809D01*
X136498157Y-43687765D01*
X136547440Y-43440000D01*
X136547440Y-41640000D01*
X136498157Y-41392235D01*
X136357809Y-41182191D01*
X136147765Y-41041843D01*
X136132092Y-41038725D01*
X136301310Y-40869507D01*
X136364812Y-40716200D01*
X141772266Y-40716200D01*
X141977235Y-40853157D01*
X142225000Y-40902440D01*
X143077560Y-40902440D01*
X143077560Y-41305000D01*
X143126843Y-41552765D01*
X143267191Y-41762809D01*
X143477235Y-41903157D01*
X143725000Y-41952440D01*
X144225000Y-41952440D01*
X144472765Y-41903157D01*
X144682809Y-41762809D01*
X144823157Y-41552765D01*
X144872440Y-41305000D01*
X144872440Y-40902440D01*
X145725000Y-40902440D01*
X145972765Y-40853157D01*
X146177734Y-40716200D01*
X153635188Y-40716200D01*
X153698690Y-40869507D01*
X153867908Y-41038725D01*
X153852235Y-41041843D01*
X153642191Y-41182191D01*
X153501843Y-41392235D01*
X153452560Y-41640000D01*
X153452560Y-43440000D01*
X153501843Y-43687765D01*
X153642191Y-43897809D01*
X153852235Y-44038157D01*
X154100000Y-44087440D01*
X155900000Y-44087440D01*
X156147765Y-44038157D01*
X156357809Y-43897809D01*
X156498157Y-43687765D01*
X156547440Y-43440000D01*
X156547440Y-41640000D01*
X156498157Y-41392235D01*
X156357809Y-41182191D01*
X156147765Y-41041843D01*
X156132092Y-41038725D01*
X156301310Y-40869507D01*
X156535000Y-40305330D01*
X156535000Y-39694670D01*
X156468862Y-39534999D01*
X173529211Y-39534999D01*
X173530574Y-39536362D01*
X173465000Y-39694670D01*
X173465000Y-40305330D01*
X173698690Y-40869507D01*
X173867908Y-41038725D01*
X173852235Y-41041843D01*
X173642191Y-41182191D01*
X173501843Y-41392235D01*
X173452560Y-41640000D01*
X173452560Y-43440000D01*
X173501843Y-43687765D01*
X173642191Y-43897809D01*
X173852235Y-44038157D01*
X174100000Y-44087440D01*
X175900000Y-44087440D01*
X176147765Y-44038157D01*
X176357809Y-43897809D01*
X176498157Y-43687765D01*
X176547440Y-43440000D01*
X176547440Y-41640000D01*
X176498157Y-41392235D01*
X176357809Y-41182191D01*
X176147765Y-41041843D01*
X176132092Y-41038725D01*
X176301310Y-40869507D01*
X176535000Y-40305330D01*
X176535000Y-39694670D01*
X176301310Y-39130493D01*
X175869507Y-38698690D01*
X175305330Y-38465000D01*
X174694670Y-38465000D01*
X174536362Y-38530574D01*
X174376223Y-38370435D01*
X174336545Y-38311053D01*
X174101295Y-38153863D01*
X173893845Y-38112599D01*
X173893840Y-38112599D01*
X173823799Y-38098667D01*
X173753758Y-38112599D01*
X148444243Y-38112599D01*
X148440862Y-38111927D01*
X149519589Y-37033200D01*
X191099412Y-37033200D01*
X193602573Y-39536362D01*
X193537000Y-39694670D01*
X193537000Y-40305330D01*
X193770690Y-40869507D01*
X193939908Y-41038725D01*
X193924235Y-41041843D01*
X193714191Y-41182191D01*
X193573843Y-41392235D01*
X193524560Y-41640000D01*
X193524560Y-43440000D01*
X193573843Y-43687765D01*
X193714191Y-43897809D01*
X193924235Y-44038157D01*
X194172000Y-44087440D01*
X195972000Y-44087440D01*
X196219765Y-44038157D01*
X196429809Y-43897809D01*
X196570157Y-43687765D01*
X196619440Y-43440000D01*
X196619440Y-41640000D01*
X196570157Y-41392235D01*
X196429809Y-41182191D01*
X196219765Y-41041843D01*
X196204092Y-41038725D01*
X196373310Y-40869507D01*
X196607000Y-40305330D01*
X196607000Y-39694670D01*
X196373310Y-39130493D01*
X195941507Y-38698690D01*
X195377330Y-38465000D01*
X194766670Y-38465000D01*
X194608362Y-38530573D01*
X192842789Y-36765000D01*
X197378908Y-36765000D01*
X197494161Y-37344418D01*
X197822375Y-37835625D01*
X198313582Y-38163839D01*
X198746744Y-38250000D01*
X199039256Y-38250000D01*
X199472418Y-38163839D01*
X199963625Y-37835625D01*
X200163000Y-37537239D01*
X200362375Y-37835625D01*
X200721800Y-38075785D01*
X200721801Y-57598934D01*
X200707868Y-57668980D01*
X200763065Y-57946476D01*
X200795000Y-57994270D01*
X200795000Y-58391746D01*
X200967793Y-58808906D01*
X201287074Y-59128187D01*
X201704234Y-59300980D01*
X202155766Y-59300980D01*
X202572926Y-59128187D01*
X202871879Y-58829234D01*
X211971000Y-58829234D01*
X211971000Y-59280766D01*
X212143793Y-59697926D01*
X212463074Y-60017207D01*
X212880234Y-60190000D01*
X213331766Y-60190000D01*
X213748926Y-60017207D01*
X213999933Y-59766200D01*
X214625067Y-59766200D01*
X214876074Y-60017207D01*
X215293234Y-60190000D01*
X215744766Y-60190000D01*
X216161926Y-60017207D01*
X216481207Y-59697926D01*
X216654000Y-59280766D01*
X216654000Y-58829234D01*
X216481207Y-58412074D01*
X216161926Y-58092793D01*
X215744766Y-57920000D01*
X215293234Y-57920000D01*
X214876074Y-58092793D01*
X214625067Y-58343800D01*
X213999933Y-58343800D01*
X213748926Y-58092793D01*
X213331766Y-57920000D01*
X212880234Y-57920000D01*
X212463074Y-58092793D01*
X212143793Y-58412074D01*
X211971000Y-58829234D01*
X202871879Y-58829234D01*
X202892207Y-58808906D01*
X203065000Y-58391746D01*
X203065000Y-57940214D01*
X202892207Y-57523054D01*
X202596843Y-57227690D01*
X225571000Y-57227690D01*
X225571000Y-57918250D01*
X225729750Y-58077000D01*
X226929000Y-58077000D01*
X226929000Y-56877750D01*
X227183000Y-56877750D01*
X227183000Y-58077000D01*
X228382250Y-58077000D01*
X228541000Y-57918250D01*
X228541000Y-57227690D01*
X228444327Y-56994301D01*
X228265698Y-56815673D01*
X228032309Y-56719000D01*
X227341750Y-56719000D01*
X227183000Y-56877750D01*
X226929000Y-56877750D01*
X226770250Y-56719000D01*
X226079691Y-56719000D01*
X225846302Y-56815673D01*
X225667673Y-56994301D01*
X225571000Y-57227690D01*
X202596843Y-57227690D01*
X202572926Y-57203773D01*
X202155766Y-57030980D01*
X202144200Y-57030980D01*
X202144200Y-54555431D01*
X230765000Y-54555431D01*
X230765000Y-55444569D01*
X231105259Y-56266026D01*
X231733974Y-56894741D01*
X232555431Y-57235000D01*
X233444569Y-57235000D01*
X234266026Y-56894741D01*
X234894741Y-56266026D01*
X235235000Y-55444569D01*
X235235000Y-54555431D01*
X234894741Y-53733974D01*
X234266026Y-53105259D01*
X233444569Y-52765000D01*
X232555431Y-52765000D01*
X231733974Y-53105259D01*
X231105259Y-53733974D01*
X230765000Y-54555431D01*
X202144200Y-54555431D01*
X202144200Y-38075785D01*
X202503625Y-37835625D01*
X202518096Y-37813967D01*
X202584673Y-37974698D01*
X202763301Y-38153327D01*
X202996690Y-38250000D01*
X203687250Y-38250000D01*
X203846000Y-38091250D01*
X203846000Y-36892000D01*
X204100000Y-36892000D01*
X204100000Y-38091250D01*
X204258750Y-38250000D01*
X204949310Y-38250000D01*
X205182699Y-38153327D01*
X205361327Y-37974698D01*
X205458000Y-37741309D01*
X205458000Y-37050750D01*
X205299250Y-36892000D01*
X204100000Y-36892000D01*
X203846000Y-36892000D01*
X203826000Y-36892000D01*
X203826000Y-36638000D01*
X203846000Y-36638000D01*
X203846000Y-35438750D01*
X204100000Y-35438750D01*
X204100000Y-36638000D01*
X205299250Y-36638000D01*
X205458000Y-36479250D01*
X205458000Y-35788691D01*
X205361327Y-35555302D01*
X205182699Y-35376673D01*
X204949310Y-35280000D01*
X204258750Y-35280000D01*
X204100000Y-35438750D01*
X203846000Y-35438750D01*
X203687250Y-35280000D01*
X202996690Y-35280000D01*
X202763301Y-35376673D01*
X202584673Y-35555302D01*
X202518096Y-35716033D01*
X202503625Y-35694375D01*
X202012418Y-35366161D01*
X201579256Y-35280000D01*
X201286744Y-35280000D01*
X200853582Y-35366161D01*
X200362375Y-35694375D01*
X200163000Y-35992761D01*
X199963625Y-35694375D01*
X199472418Y-35366161D01*
X199039256Y-35280000D01*
X198746744Y-35280000D01*
X198313582Y-35366161D01*
X197822375Y-35694375D01*
X197494161Y-36185582D01*
X197378908Y-36765000D01*
X192842789Y-36765000D01*
X191946424Y-35868636D01*
X191906746Y-35809254D01*
X191671496Y-35652064D01*
X191464046Y-35610800D01*
X191464041Y-35610800D01*
X191394000Y-35596868D01*
X191323959Y-35610800D01*
X149295042Y-35610800D01*
X149225000Y-35596868D01*
X149154958Y-35610800D01*
X149154954Y-35610800D01*
X148947504Y-35652064D01*
X148947502Y-35652065D01*
X148947503Y-35652065D01*
X148771635Y-35769576D01*
X148771633Y-35769578D01*
X148712254Y-35809254D01*
X148672578Y-35868633D01*
X147947000Y-36594211D01*
X147947000Y-36477234D01*
X147774207Y-36060074D01*
X147454926Y-35740793D01*
X147037766Y-35568000D01*
X146586234Y-35568000D01*
X146169074Y-35740793D01*
X145849793Y-36060074D01*
X145677000Y-36477234D01*
X145677000Y-36707560D01*
X144872440Y-36707560D01*
X144872440Y-36405000D01*
X144823157Y-36157235D01*
X144682809Y-35947191D01*
X144472765Y-35806843D01*
X144225000Y-35757560D01*
X143725000Y-35757560D01*
X143477235Y-35806843D01*
X143267191Y-35947191D01*
X143126843Y-36157235D01*
X143077560Y-36405000D01*
X143077560Y-36707560D01*
X142225000Y-36707560D01*
X141977235Y-36756843D01*
X141772266Y-36893800D01*
X77465041Y-36893800D01*
X77394999Y-36879868D01*
X77324957Y-36893800D01*
X77324954Y-36893800D01*
X77117504Y-36935064D01*
X77117503Y-36935065D01*
X77117502Y-36935065D01*
X76941635Y-37052576D01*
X76941633Y-37052578D01*
X76882254Y-37092254D01*
X76842578Y-37151633D01*
X75463638Y-38530573D01*
X75305330Y-38465000D01*
X74694670Y-38465000D01*
X74130493Y-38698690D01*
X73698690Y-39130493D01*
X73465000Y-39694670D01*
X73465000Y-40305330D01*
X73698690Y-40869507D01*
X73867908Y-41038725D01*
X73852235Y-41041843D01*
X73642191Y-41182191D01*
X73501843Y-41392235D01*
X73452560Y-41640000D01*
X54127000Y-41640000D01*
X54127000Y-34127000D01*
X235873000Y-34127000D01*
X235873000Y-85873000D01*
G04 #@! TD*
M02*
