%TF.GenerationSoftware,KiCad,Pcbnew,(5.0.0)*%
%TF.CreationDate,2018-09-12T13:45:47+01:00*%
%TF.ProjectId,AquaHub,417175614875622E6B696361645F7063,rev?*%
%TF.SameCoordinates,Original*%
%TF.FileFunction,Copper,L1,Top,Signal*%
%TF.FilePolarity,Positive*%
%FSLAX46Y46*%
G04 Gerber Fmt 4.6, Leading zero omitted, Abs format (unit mm)*
G04 Created by KiCad (PCBNEW (5.0.0)) date 09/12/18 13:45:47*
%MOMM*%
%LPD*%
G01*
G04 APERTURE LIST*
%ADD10C,0.200000*%
%ADD11C,1.800000*%
%ADD12R,2.200000X1.200000*%
%ADD13R,6.400000X5.800000*%
%ADD14R,1.727200X1.727200*%
%ADD15O,1.727200X1.727200*%
%ADD16C,0.150000*%
%ADD17C,1.150000*%
%ADD18O,1.070000X1.800000*%
%ADD19R,1.070000X1.800000*%
%ADD20C,2.000000*%
%ADD21R,2.000000X2.000000*%
%ADD22O,1.700000X1.700000*%
%ADD23R,1.700000X1.700000*%
%ADD24C,1.524000*%
%ADD25R,0.600000X1.550000*%
%ADD26R,1.600000X3.500000*%
%ADD27R,1.600000X3.000000*%
%ADD28C,2.600000*%
%ADD29R,2.600000X2.600000*%
%ADD30R,0.850000X0.850000*%
%ADD31O,0.850000X0.850000*%
%ADD32C,1.000000*%
%ADD33C,0.152400*%
%ADD34C,2.000000*%
%ADD35C,0.254000*%
%ADD36C,0.350000*%
G04 APERTURE END LIST*
D10*
X55118000Y-106680000D02*
X48006000Y-106680000D01*
X55118000Y-109728000D02*
X55118000Y-106680000D01*
X51054000Y-109728000D02*
X55118000Y-109728000D01*
X146050000Y-115570000D02*
X146050000Y-118110000D01*
X140335000Y-63500000D02*
X140335000Y-60960000D01*
X148590000Y-60960000D02*
X148590000Y-63500000D01*
X148590000Y-63500000D02*
X208280000Y-63500000D01*
X208280000Y-60960000D02*
X148590000Y-60960000D01*
X208280000Y-37465000D02*
X208280000Y-60960000D01*
X38100000Y-37465000D02*
X208280000Y-37465000D01*
X38100000Y-60960000D02*
X38100000Y-37465000D01*
X140335000Y-60960000D02*
X38100000Y-60960000D01*
X48006000Y-118364000D02*
X48006000Y-106680000D01*
X146050000Y-118110000D02*
X48006000Y-118364000D01*
X51054000Y-115316000D02*
X146050000Y-115570000D01*
X51054000Y-109728000D02*
X51054000Y-115316000D01*
X38100000Y-153670000D02*
X208280000Y-153670000D01*
X38100000Y-63500000D02*
X38100000Y-153670000D01*
X140335000Y-63500000D02*
X38100000Y-63500000D01*
X208280000Y-63500000D02*
X208280000Y-153670000D01*
D11*
X41550000Y-100210000D03*
X44450000Y-92710000D03*
D12*
X94615000Y-97415000D03*
X94615000Y-99695000D03*
X94615000Y-101975000D03*
D13*
X100915000Y-99695000D03*
D14*
X153035000Y-46355000D03*
D15*
X150495000Y-46355000D03*
X153035000Y-48895000D03*
X150495000Y-48895000D03*
X153035000Y-51435000D03*
X150495000Y-51435000D03*
D16*
G36*
X149699505Y-80216204D02*
X149723773Y-80219804D01*
X149747572Y-80225765D01*
X149770671Y-80234030D01*
X149792850Y-80244520D01*
X149813893Y-80257132D01*
X149833599Y-80271747D01*
X149851777Y-80288223D01*
X149868253Y-80306401D01*
X149882868Y-80326107D01*
X149895480Y-80347150D01*
X149905970Y-80369329D01*
X149914235Y-80392428D01*
X149920196Y-80416227D01*
X149923796Y-80440495D01*
X149925000Y-80464999D01*
X149925000Y-81115001D01*
X149923796Y-81139505D01*
X149920196Y-81163773D01*
X149914235Y-81187572D01*
X149905970Y-81210671D01*
X149895480Y-81232850D01*
X149882868Y-81253893D01*
X149868253Y-81273599D01*
X149851777Y-81291777D01*
X149833599Y-81308253D01*
X149813893Y-81322868D01*
X149792850Y-81335480D01*
X149770671Y-81345970D01*
X149747572Y-81354235D01*
X149723773Y-81360196D01*
X149699505Y-81363796D01*
X149675001Y-81365000D01*
X148774999Y-81365000D01*
X148750495Y-81363796D01*
X148726227Y-81360196D01*
X148702428Y-81354235D01*
X148679329Y-81345970D01*
X148657150Y-81335480D01*
X148636107Y-81322868D01*
X148616401Y-81308253D01*
X148598223Y-81291777D01*
X148581747Y-81273599D01*
X148567132Y-81253893D01*
X148554520Y-81232850D01*
X148544030Y-81210671D01*
X148535765Y-81187572D01*
X148529804Y-81163773D01*
X148526204Y-81139505D01*
X148525000Y-81115001D01*
X148525000Y-80464999D01*
X148526204Y-80440495D01*
X148529804Y-80416227D01*
X148535765Y-80392428D01*
X148544030Y-80369329D01*
X148554520Y-80347150D01*
X148567132Y-80326107D01*
X148581747Y-80306401D01*
X148598223Y-80288223D01*
X148616401Y-80271747D01*
X148636107Y-80257132D01*
X148657150Y-80244520D01*
X148679329Y-80234030D01*
X148702428Y-80225765D01*
X148726227Y-80219804D01*
X148750495Y-80216204D01*
X148774999Y-80215000D01*
X149675001Y-80215000D01*
X149699505Y-80216204D01*
X149699505Y-80216204D01*
G37*
D17*
X149225000Y-80790000D03*
D16*
G36*
X149699505Y-78166204D02*
X149723773Y-78169804D01*
X149747572Y-78175765D01*
X149770671Y-78184030D01*
X149792850Y-78194520D01*
X149813893Y-78207132D01*
X149833599Y-78221747D01*
X149851777Y-78238223D01*
X149868253Y-78256401D01*
X149882868Y-78276107D01*
X149895480Y-78297150D01*
X149905970Y-78319329D01*
X149914235Y-78342428D01*
X149920196Y-78366227D01*
X149923796Y-78390495D01*
X149925000Y-78414999D01*
X149925000Y-79065001D01*
X149923796Y-79089505D01*
X149920196Y-79113773D01*
X149914235Y-79137572D01*
X149905970Y-79160671D01*
X149895480Y-79182850D01*
X149882868Y-79203893D01*
X149868253Y-79223599D01*
X149851777Y-79241777D01*
X149833599Y-79258253D01*
X149813893Y-79272868D01*
X149792850Y-79285480D01*
X149770671Y-79295970D01*
X149747572Y-79304235D01*
X149723773Y-79310196D01*
X149699505Y-79313796D01*
X149675001Y-79315000D01*
X148774999Y-79315000D01*
X148750495Y-79313796D01*
X148726227Y-79310196D01*
X148702428Y-79304235D01*
X148679329Y-79295970D01*
X148657150Y-79285480D01*
X148636107Y-79272868D01*
X148616401Y-79258253D01*
X148598223Y-79241777D01*
X148581747Y-79223599D01*
X148567132Y-79203893D01*
X148554520Y-79182850D01*
X148544030Y-79160671D01*
X148535765Y-79137572D01*
X148529804Y-79113773D01*
X148526204Y-79089505D01*
X148525000Y-79065001D01*
X148525000Y-78414999D01*
X148526204Y-78390495D01*
X148529804Y-78366227D01*
X148535765Y-78342428D01*
X148544030Y-78319329D01*
X148554520Y-78297150D01*
X148567132Y-78276107D01*
X148581747Y-78256401D01*
X148598223Y-78238223D01*
X148616401Y-78221747D01*
X148636107Y-78207132D01*
X148657150Y-78194520D01*
X148679329Y-78184030D01*
X148702428Y-78175765D01*
X148726227Y-78169804D01*
X148750495Y-78166204D01*
X148774999Y-78165000D01*
X149675001Y-78165000D01*
X149699505Y-78166204D01*
X149699505Y-78166204D01*
G37*
D17*
X149225000Y-78740000D03*
D15*
X161925000Y-77470000D03*
X161925000Y-74930000D03*
X164465000Y-77470000D03*
X164465000Y-74930000D03*
X167005000Y-77470000D03*
D14*
X167005000Y-74930000D03*
D18*
X120015000Y-44450000D03*
X118745000Y-44450000D03*
X117475000Y-44450000D03*
D19*
X116205000Y-44450000D03*
D20*
X115515000Y-50800000D03*
X120015000Y-50800000D03*
X115515000Y-57300000D03*
X120015000Y-57300000D03*
X69365000Y-57300000D03*
X64865000Y-57300000D03*
X69365000Y-50800000D03*
X64865000Y-50800000D03*
X81453344Y-88927320D03*
X81452344Y-96547320D03*
X53465000Y-88927320D03*
D21*
X53465000Y-104140000D03*
D22*
X142240000Y-74930000D03*
X144780000Y-74930000D03*
D23*
X147320000Y-74930000D03*
D24*
X60960000Y-113030000D03*
X60960000Y-120650000D03*
X60960000Y-125730000D03*
X60960000Y-130810000D03*
X53340000Y-130810000D03*
X53340000Y-125730000D03*
X53340000Y-120650000D03*
X53340000Y-113030000D03*
X77470000Y-113030000D03*
X77470000Y-120650000D03*
X77470000Y-125730000D03*
X77470000Y-130810000D03*
X69850000Y-130810000D03*
X69850000Y-125730000D03*
X69850000Y-120650000D03*
X69850000Y-113030000D03*
X93980000Y-113030000D03*
X93980000Y-120650000D03*
X93980000Y-125730000D03*
X93980000Y-130810000D03*
X86360000Y-130810000D03*
X86360000Y-125730000D03*
X86360000Y-120650000D03*
X86360000Y-113030000D03*
X110490000Y-112776000D03*
X110490000Y-120396000D03*
X110490000Y-125476000D03*
X110490000Y-130556000D03*
X102870000Y-130556000D03*
X102870000Y-125476000D03*
X102870000Y-120396000D03*
X102870000Y-112776000D03*
X127254000Y-112776000D03*
X127254000Y-120396000D03*
X127254000Y-125476000D03*
X127254000Y-130556000D03*
X119634000Y-130556000D03*
X119634000Y-125476000D03*
X119634000Y-120396000D03*
X119634000Y-112776000D03*
X144145000Y-112776000D03*
X144145000Y-120396000D03*
X144145000Y-125476000D03*
X144145000Y-130556000D03*
X136525000Y-130556000D03*
X136525000Y-125476000D03*
X136525000Y-120396000D03*
X136525000Y-112776000D03*
D25*
X162187979Y-117809195D03*
X163457979Y-117809195D03*
X164727979Y-117809195D03*
X165997979Y-117809195D03*
X165997979Y-123209195D03*
X164727979Y-123209195D03*
X163457979Y-123209195D03*
X162187979Y-123209195D03*
D22*
X186690000Y-74930000D03*
X189230000Y-74930000D03*
X191770000Y-74930000D03*
D23*
X194310000Y-74930000D03*
D16*
G36*
X165449505Y-111061204D02*
X165473773Y-111064804D01*
X165497572Y-111070765D01*
X165520671Y-111079030D01*
X165542850Y-111089520D01*
X165563893Y-111102132D01*
X165583599Y-111116747D01*
X165601777Y-111133223D01*
X165618253Y-111151401D01*
X165632868Y-111171107D01*
X165645480Y-111192150D01*
X165655970Y-111214329D01*
X165664235Y-111237428D01*
X165670196Y-111261227D01*
X165673796Y-111285495D01*
X165675000Y-111309999D01*
X165675000Y-112210001D01*
X165673796Y-112234505D01*
X165670196Y-112258773D01*
X165664235Y-112282572D01*
X165655970Y-112305671D01*
X165645480Y-112327850D01*
X165632868Y-112348893D01*
X165618253Y-112368599D01*
X165601777Y-112386777D01*
X165583599Y-112403253D01*
X165563893Y-112417868D01*
X165542850Y-112430480D01*
X165520671Y-112440970D01*
X165497572Y-112449235D01*
X165473773Y-112455196D01*
X165449505Y-112458796D01*
X165425001Y-112460000D01*
X164774999Y-112460000D01*
X164750495Y-112458796D01*
X164726227Y-112455196D01*
X164702428Y-112449235D01*
X164679329Y-112440970D01*
X164657150Y-112430480D01*
X164636107Y-112417868D01*
X164616401Y-112403253D01*
X164598223Y-112386777D01*
X164581747Y-112368599D01*
X164567132Y-112348893D01*
X164554520Y-112327850D01*
X164544030Y-112305671D01*
X164535765Y-112282572D01*
X164529804Y-112258773D01*
X164526204Y-112234505D01*
X164525000Y-112210001D01*
X164525000Y-111309999D01*
X164526204Y-111285495D01*
X164529804Y-111261227D01*
X164535765Y-111237428D01*
X164544030Y-111214329D01*
X164554520Y-111192150D01*
X164567132Y-111171107D01*
X164581747Y-111151401D01*
X164598223Y-111133223D01*
X164616401Y-111116747D01*
X164636107Y-111102132D01*
X164657150Y-111089520D01*
X164679329Y-111079030D01*
X164702428Y-111070765D01*
X164726227Y-111064804D01*
X164750495Y-111061204D01*
X164774999Y-111060000D01*
X165425001Y-111060000D01*
X165449505Y-111061204D01*
X165449505Y-111061204D01*
G37*
D17*
X165100000Y-111760000D03*
D16*
G36*
X163399505Y-111061204D02*
X163423773Y-111064804D01*
X163447572Y-111070765D01*
X163470671Y-111079030D01*
X163492850Y-111089520D01*
X163513893Y-111102132D01*
X163533599Y-111116747D01*
X163551777Y-111133223D01*
X163568253Y-111151401D01*
X163582868Y-111171107D01*
X163595480Y-111192150D01*
X163605970Y-111214329D01*
X163614235Y-111237428D01*
X163620196Y-111261227D01*
X163623796Y-111285495D01*
X163625000Y-111309999D01*
X163625000Y-112210001D01*
X163623796Y-112234505D01*
X163620196Y-112258773D01*
X163614235Y-112282572D01*
X163605970Y-112305671D01*
X163595480Y-112327850D01*
X163582868Y-112348893D01*
X163568253Y-112368599D01*
X163551777Y-112386777D01*
X163533599Y-112403253D01*
X163513893Y-112417868D01*
X163492850Y-112430480D01*
X163470671Y-112440970D01*
X163447572Y-112449235D01*
X163423773Y-112455196D01*
X163399505Y-112458796D01*
X163375001Y-112460000D01*
X162724999Y-112460000D01*
X162700495Y-112458796D01*
X162676227Y-112455196D01*
X162652428Y-112449235D01*
X162629329Y-112440970D01*
X162607150Y-112430480D01*
X162586107Y-112417868D01*
X162566401Y-112403253D01*
X162548223Y-112386777D01*
X162531747Y-112368599D01*
X162517132Y-112348893D01*
X162504520Y-112327850D01*
X162494030Y-112305671D01*
X162485765Y-112282572D01*
X162479804Y-112258773D01*
X162476204Y-112234505D01*
X162475000Y-112210001D01*
X162475000Y-111309999D01*
X162476204Y-111285495D01*
X162479804Y-111261227D01*
X162485765Y-111237428D01*
X162494030Y-111214329D01*
X162504520Y-111192150D01*
X162517132Y-111171107D01*
X162531747Y-111151401D01*
X162548223Y-111133223D01*
X162566401Y-111116747D01*
X162586107Y-111102132D01*
X162607150Y-111089520D01*
X162629329Y-111079030D01*
X162652428Y-111070765D01*
X162676227Y-111064804D01*
X162700495Y-111061204D01*
X162724999Y-111060000D01*
X163375001Y-111060000D01*
X163399505Y-111061204D01*
X163399505Y-111061204D01*
G37*
D17*
X163050000Y-111760000D03*
D16*
G36*
X158852484Y-115340399D02*
X158876752Y-115343999D01*
X158900551Y-115349960D01*
X158923650Y-115358225D01*
X158945829Y-115368715D01*
X158966872Y-115381327D01*
X158986578Y-115395942D01*
X159004756Y-115412418D01*
X159021232Y-115430596D01*
X159035847Y-115450302D01*
X159048459Y-115471345D01*
X159058949Y-115493524D01*
X159067214Y-115516623D01*
X159073175Y-115540422D01*
X159076775Y-115564690D01*
X159077979Y-115589194D01*
X159077979Y-116239196D01*
X159076775Y-116263700D01*
X159073175Y-116287968D01*
X159067214Y-116311767D01*
X159058949Y-116334866D01*
X159048459Y-116357045D01*
X159035847Y-116378088D01*
X159021232Y-116397794D01*
X159004756Y-116415972D01*
X158986578Y-116432448D01*
X158966872Y-116447063D01*
X158945829Y-116459675D01*
X158923650Y-116470165D01*
X158900551Y-116478430D01*
X158876752Y-116484391D01*
X158852484Y-116487991D01*
X158827980Y-116489195D01*
X157927978Y-116489195D01*
X157903474Y-116487991D01*
X157879206Y-116484391D01*
X157855407Y-116478430D01*
X157832308Y-116470165D01*
X157810129Y-116459675D01*
X157789086Y-116447063D01*
X157769380Y-116432448D01*
X157751202Y-116415972D01*
X157734726Y-116397794D01*
X157720111Y-116378088D01*
X157707499Y-116357045D01*
X157697009Y-116334866D01*
X157688744Y-116311767D01*
X157682783Y-116287968D01*
X157679183Y-116263700D01*
X157677979Y-116239196D01*
X157677979Y-115589194D01*
X157679183Y-115564690D01*
X157682783Y-115540422D01*
X157688744Y-115516623D01*
X157697009Y-115493524D01*
X157707499Y-115471345D01*
X157720111Y-115450302D01*
X157734726Y-115430596D01*
X157751202Y-115412418D01*
X157769380Y-115395942D01*
X157789086Y-115381327D01*
X157810129Y-115368715D01*
X157832308Y-115358225D01*
X157855407Y-115349960D01*
X157879206Y-115343999D01*
X157903474Y-115340399D01*
X157927978Y-115339195D01*
X158827980Y-115339195D01*
X158852484Y-115340399D01*
X158852484Y-115340399D01*
G37*
D17*
X158377979Y-115914195D03*
D16*
G36*
X158852484Y-117390399D02*
X158876752Y-117393999D01*
X158900551Y-117399960D01*
X158923650Y-117408225D01*
X158945829Y-117418715D01*
X158966872Y-117431327D01*
X158986578Y-117445942D01*
X159004756Y-117462418D01*
X159021232Y-117480596D01*
X159035847Y-117500302D01*
X159048459Y-117521345D01*
X159058949Y-117543524D01*
X159067214Y-117566623D01*
X159073175Y-117590422D01*
X159076775Y-117614690D01*
X159077979Y-117639194D01*
X159077979Y-118289196D01*
X159076775Y-118313700D01*
X159073175Y-118337968D01*
X159067214Y-118361767D01*
X159058949Y-118384866D01*
X159048459Y-118407045D01*
X159035847Y-118428088D01*
X159021232Y-118447794D01*
X159004756Y-118465972D01*
X158986578Y-118482448D01*
X158966872Y-118497063D01*
X158945829Y-118509675D01*
X158923650Y-118520165D01*
X158900551Y-118528430D01*
X158876752Y-118534391D01*
X158852484Y-118537991D01*
X158827980Y-118539195D01*
X157927978Y-118539195D01*
X157903474Y-118537991D01*
X157879206Y-118534391D01*
X157855407Y-118528430D01*
X157832308Y-118520165D01*
X157810129Y-118509675D01*
X157789086Y-118497063D01*
X157769380Y-118482448D01*
X157751202Y-118465972D01*
X157734726Y-118447794D01*
X157720111Y-118428088D01*
X157707499Y-118407045D01*
X157697009Y-118384866D01*
X157688744Y-118361767D01*
X157682783Y-118337968D01*
X157679183Y-118313700D01*
X157677979Y-118289196D01*
X157677979Y-117639194D01*
X157679183Y-117614690D01*
X157682783Y-117590422D01*
X157688744Y-117566623D01*
X157697009Y-117543524D01*
X157707499Y-117521345D01*
X157720111Y-117500302D01*
X157734726Y-117480596D01*
X157751202Y-117462418D01*
X157769380Y-117445942D01*
X157789086Y-117431327D01*
X157810129Y-117418715D01*
X157832308Y-117408225D01*
X157855407Y-117399960D01*
X157879206Y-117393999D01*
X157903474Y-117390399D01*
X157927978Y-117389195D01*
X158827980Y-117389195D01*
X158852484Y-117390399D01*
X158852484Y-117390399D01*
G37*
D17*
X158377979Y-117964195D03*
D16*
G36*
X165449505Y-113601204D02*
X165473773Y-113604804D01*
X165497572Y-113610765D01*
X165520671Y-113619030D01*
X165542850Y-113629520D01*
X165563893Y-113642132D01*
X165583599Y-113656747D01*
X165601777Y-113673223D01*
X165618253Y-113691401D01*
X165632868Y-113711107D01*
X165645480Y-113732150D01*
X165655970Y-113754329D01*
X165664235Y-113777428D01*
X165670196Y-113801227D01*
X165673796Y-113825495D01*
X165675000Y-113849999D01*
X165675000Y-114750001D01*
X165673796Y-114774505D01*
X165670196Y-114798773D01*
X165664235Y-114822572D01*
X165655970Y-114845671D01*
X165645480Y-114867850D01*
X165632868Y-114888893D01*
X165618253Y-114908599D01*
X165601777Y-114926777D01*
X165583599Y-114943253D01*
X165563893Y-114957868D01*
X165542850Y-114970480D01*
X165520671Y-114980970D01*
X165497572Y-114989235D01*
X165473773Y-114995196D01*
X165449505Y-114998796D01*
X165425001Y-115000000D01*
X164774999Y-115000000D01*
X164750495Y-114998796D01*
X164726227Y-114995196D01*
X164702428Y-114989235D01*
X164679329Y-114980970D01*
X164657150Y-114970480D01*
X164636107Y-114957868D01*
X164616401Y-114943253D01*
X164598223Y-114926777D01*
X164581747Y-114908599D01*
X164567132Y-114888893D01*
X164554520Y-114867850D01*
X164544030Y-114845671D01*
X164535765Y-114822572D01*
X164529804Y-114798773D01*
X164526204Y-114774505D01*
X164525000Y-114750001D01*
X164525000Y-113849999D01*
X164526204Y-113825495D01*
X164529804Y-113801227D01*
X164535765Y-113777428D01*
X164544030Y-113754329D01*
X164554520Y-113732150D01*
X164567132Y-113711107D01*
X164581747Y-113691401D01*
X164598223Y-113673223D01*
X164616401Y-113656747D01*
X164636107Y-113642132D01*
X164657150Y-113629520D01*
X164679329Y-113619030D01*
X164702428Y-113610765D01*
X164726227Y-113604804D01*
X164750495Y-113601204D01*
X164774999Y-113600000D01*
X165425001Y-113600000D01*
X165449505Y-113601204D01*
X165449505Y-113601204D01*
G37*
D17*
X165100000Y-114300000D03*
D16*
G36*
X163399505Y-113601204D02*
X163423773Y-113604804D01*
X163447572Y-113610765D01*
X163470671Y-113619030D01*
X163492850Y-113629520D01*
X163513893Y-113642132D01*
X163533599Y-113656747D01*
X163551777Y-113673223D01*
X163568253Y-113691401D01*
X163582868Y-113711107D01*
X163595480Y-113732150D01*
X163605970Y-113754329D01*
X163614235Y-113777428D01*
X163620196Y-113801227D01*
X163623796Y-113825495D01*
X163625000Y-113849999D01*
X163625000Y-114750001D01*
X163623796Y-114774505D01*
X163620196Y-114798773D01*
X163614235Y-114822572D01*
X163605970Y-114845671D01*
X163595480Y-114867850D01*
X163582868Y-114888893D01*
X163568253Y-114908599D01*
X163551777Y-114926777D01*
X163533599Y-114943253D01*
X163513893Y-114957868D01*
X163492850Y-114970480D01*
X163470671Y-114980970D01*
X163447572Y-114989235D01*
X163423773Y-114995196D01*
X163399505Y-114998796D01*
X163375001Y-115000000D01*
X162724999Y-115000000D01*
X162700495Y-114998796D01*
X162676227Y-114995196D01*
X162652428Y-114989235D01*
X162629329Y-114980970D01*
X162607150Y-114970480D01*
X162586107Y-114957868D01*
X162566401Y-114943253D01*
X162548223Y-114926777D01*
X162531747Y-114908599D01*
X162517132Y-114888893D01*
X162504520Y-114867850D01*
X162494030Y-114845671D01*
X162485765Y-114822572D01*
X162479804Y-114798773D01*
X162476204Y-114774505D01*
X162475000Y-114750001D01*
X162475000Y-113849999D01*
X162476204Y-113825495D01*
X162479804Y-113801227D01*
X162485765Y-113777428D01*
X162494030Y-113754329D01*
X162504520Y-113732150D01*
X162517132Y-113711107D01*
X162531747Y-113691401D01*
X162548223Y-113673223D01*
X162566401Y-113656747D01*
X162586107Y-113642132D01*
X162607150Y-113629520D01*
X162629329Y-113619030D01*
X162652428Y-113610765D01*
X162676227Y-113604804D01*
X162700495Y-113601204D01*
X162724999Y-113600000D01*
X163375001Y-113600000D01*
X163399505Y-113601204D01*
X163399505Y-113601204D01*
G37*
D17*
X163050000Y-114300000D03*
D16*
G36*
X143349505Y-78166204D02*
X143373773Y-78169804D01*
X143397572Y-78175765D01*
X143420671Y-78184030D01*
X143442850Y-78194520D01*
X143463893Y-78207132D01*
X143483599Y-78221747D01*
X143501777Y-78238223D01*
X143518253Y-78256401D01*
X143532868Y-78276107D01*
X143545480Y-78297150D01*
X143555970Y-78319329D01*
X143564235Y-78342428D01*
X143570196Y-78366227D01*
X143573796Y-78390495D01*
X143575000Y-78414999D01*
X143575000Y-79065001D01*
X143573796Y-79089505D01*
X143570196Y-79113773D01*
X143564235Y-79137572D01*
X143555970Y-79160671D01*
X143545480Y-79182850D01*
X143532868Y-79203893D01*
X143518253Y-79223599D01*
X143501777Y-79241777D01*
X143483599Y-79258253D01*
X143463893Y-79272868D01*
X143442850Y-79285480D01*
X143420671Y-79295970D01*
X143397572Y-79304235D01*
X143373773Y-79310196D01*
X143349505Y-79313796D01*
X143325001Y-79315000D01*
X142424999Y-79315000D01*
X142400495Y-79313796D01*
X142376227Y-79310196D01*
X142352428Y-79304235D01*
X142329329Y-79295970D01*
X142307150Y-79285480D01*
X142286107Y-79272868D01*
X142266401Y-79258253D01*
X142248223Y-79241777D01*
X142231747Y-79223599D01*
X142217132Y-79203893D01*
X142204520Y-79182850D01*
X142194030Y-79160671D01*
X142185765Y-79137572D01*
X142179804Y-79113773D01*
X142176204Y-79089505D01*
X142175000Y-79065001D01*
X142175000Y-78414999D01*
X142176204Y-78390495D01*
X142179804Y-78366227D01*
X142185765Y-78342428D01*
X142194030Y-78319329D01*
X142204520Y-78297150D01*
X142217132Y-78276107D01*
X142231747Y-78256401D01*
X142248223Y-78238223D01*
X142266401Y-78221747D01*
X142286107Y-78207132D01*
X142307150Y-78194520D01*
X142329329Y-78184030D01*
X142352428Y-78175765D01*
X142376227Y-78169804D01*
X142400495Y-78166204D01*
X142424999Y-78165000D01*
X143325001Y-78165000D01*
X143349505Y-78166204D01*
X143349505Y-78166204D01*
G37*
D17*
X142875000Y-78740000D03*
D16*
G36*
X143349505Y-80216204D02*
X143373773Y-80219804D01*
X143397572Y-80225765D01*
X143420671Y-80234030D01*
X143442850Y-80244520D01*
X143463893Y-80257132D01*
X143483599Y-80271747D01*
X143501777Y-80288223D01*
X143518253Y-80306401D01*
X143532868Y-80326107D01*
X143545480Y-80347150D01*
X143555970Y-80369329D01*
X143564235Y-80392428D01*
X143570196Y-80416227D01*
X143573796Y-80440495D01*
X143575000Y-80464999D01*
X143575000Y-81115001D01*
X143573796Y-81139505D01*
X143570196Y-81163773D01*
X143564235Y-81187572D01*
X143555970Y-81210671D01*
X143545480Y-81232850D01*
X143532868Y-81253893D01*
X143518253Y-81273599D01*
X143501777Y-81291777D01*
X143483599Y-81308253D01*
X143463893Y-81322868D01*
X143442850Y-81335480D01*
X143420671Y-81345970D01*
X143397572Y-81354235D01*
X143373773Y-81360196D01*
X143349505Y-81363796D01*
X143325001Y-81365000D01*
X142424999Y-81365000D01*
X142400495Y-81363796D01*
X142376227Y-81360196D01*
X142352428Y-81354235D01*
X142329329Y-81345970D01*
X142307150Y-81335480D01*
X142286107Y-81322868D01*
X142266401Y-81308253D01*
X142248223Y-81291777D01*
X142231747Y-81273599D01*
X142217132Y-81253893D01*
X142204520Y-81232850D01*
X142194030Y-81210671D01*
X142185765Y-81187572D01*
X142179804Y-81163773D01*
X142176204Y-81139505D01*
X142175000Y-81115001D01*
X142175000Y-80464999D01*
X142176204Y-80440495D01*
X142179804Y-80416227D01*
X142185765Y-80392428D01*
X142194030Y-80369329D01*
X142204520Y-80347150D01*
X142217132Y-80326107D01*
X142231747Y-80306401D01*
X142248223Y-80288223D01*
X142266401Y-80271747D01*
X142286107Y-80257132D01*
X142307150Y-80244520D01*
X142329329Y-80234030D01*
X142352428Y-80225765D01*
X142376227Y-80219804D01*
X142400495Y-80216204D01*
X142424999Y-80215000D01*
X143325001Y-80215000D01*
X143349505Y-80216204D01*
X143349505Y-80216204D01*
G37*
D17*
X142875000Y-80790000D03*
D18*
X107315000Y-44450000D03*
X106045000Y-44450000D03*
X104775000Y-44450000D03*
D19*
X103505000Y-44450000D03*
D18*
X94615000Y-44450000D03*
X93345000Y-44450000D03*
X92075000Y-44450000D03*
D19*
X90805000Y-44450000D03*
D18*
X81915000Y-44450000D03*
X80645000Y-44450000D03*
X79375000Y-44450000D03*
D19*
X78105000Y-44450000D03*
D18*
X69215000Y-44450000D03*
X67945000Y-44450000D03*
X66675000Y-44450000D03*
D19*
X65405000Y-44450000D03*
D18*
X56515000Y-44450000D03*
X55245000Y-44450000D03*
X53975000Y-44450000D03*
D19*
X52705000Y-44450000D03*
D20*
X102965000Y-50800000D03*
X107465000Y-50800000D03*
X102965000Y-57300000D03*
X107465000Y-57300000D03*
X94765000Y-57300000D03*
X90265000Y-57300000D03*
X94765000Y-50800000D03*
X90265000Y-50800000D03*
X77415000Y-50800000D03*
X81915000Y-50800000D03*
X77415000Y-57300000D03*
X81915000Y-57300000D03*
X57205000Y-57300000D03*
X52705000Y-57300000D03*
X57205000Y-50800000D03*
X52705000Y-50800000D03*
D26*
X88900000Y-85725000D03*
X88900000Y-91125000D03*
X88900000Y-102555000D03*
X88900000Y-97155000D03*
D27*
X108585000Y-86405000D03*
X108585000Y-90805000D03*
X108585000Y-102235000D03*
X108585000Y-97835000D03*
D13*
X100735000Y-88645000D03*
D12*
X94435000Y-90925000D03*
X94435000Y-88645000D03*
X94435000Y-86365000D03*
D28*
X92884000Y-140335000D03*
D29*
X87884000Y-140335000D03*
X104521000Y-140335000D03*
D28*
X109521000Y-140335000D03*
X126158000Y-140335000D03*
D29*
X121158000Y-140335000D03*
D28*
X59610000Y-140335000D03*
D29*
X54610000Y-140335000D03*
X178435000Y-140335000D03*
D28*
X183435000Y-140335000D03*
X188435000Y-140335000D03*
X76247000Y-140335000D03*
D29*
X71247000Y-140335000D03*
X137795000Y-140335000D03*
D28*
X142795000Y-140335000D03*
D29*
X155575000Y-140335000D03*
D28*
X160575000Y-140335000D03*
X165575000Y-140335000D03*
D30*
X183515000Y-72660000D03*
D31*
X183515000Y-71660000D03*
D32*
X142875000Y-56515000D03*
X191135000Y-109220000D03*
X180340000Y-102235000D03*
X146050000Y-109220000D03*
X130810000Y-48260000D03*
X144272000Y-55244998D03*
X143129000Y-47371000D03*
X115570000Y-90805000D03*
X167005000Y-106680000D03*
X167005000Y-102235000D03*
X173355006Y-81280000D03*
X161290000Y-111886992D03*
X111760000Y-102235000D03*
X113030000Y-107569010D03*
X113030000Y-110744000D03*
X86360000Y-94361006D03*
X132715000Y-46990004D03*
X146050000Y-46355000D03*
X156845000Y-72390016D03*
X156845000Y-69215000D03*
X158115000Y-72389986D03*
X158115000Y-69215000D03*
X148590000Y-52563800D03*
X170815000Y-78598800D03*
X149506444Y-54891444D03*
X166370000Y-69708790D03*
X152255000Y-80790000D03*
X170180000Y-102235000D03*
X170180000Y-106680000D03*
X164084000Y-110109000D03*
X183515000Y-80010000D03*
X183515000Y-75706200D03*
D33*
X79375000Y-43180000D02*
X79375000Y-44450000D01*
X116840000Y-42545000D02*
X105410000Y-42545000D01*
X54610000Y-42545000D02*
X53975000Y-43180000D01*
X104775000Y-43180000D02*
X104775000Y-44450000D01*
X79375000Y-43180000D02*
X78740000Y-42545000D01*
X67310000Y-42545000D02*
X66675000Y-43180000D01*
X80010000Y-42545000D02*
X79375000Y-43180000D01*
X66675000Y-43180000D02*
X66040000Y-42545000D01*
X105410000Y-42545000D02*
X104775000Y-43180000D01*
X53975000Y-43180000D02*
X53975000Y-44450000D01*
X92075000Y-43180000D02*
X91440000Y-42545000D01*
X91440000Y-42545000D02*
X80010000Y-42545000D01*
X92075000Y-43180000D02*
X92075000Y-44450000D01*
X117475000Y-43180000D02*
X116840000Y-42545000D01*
X66040000Y-42545000D02*
X54610000Y-42545000D01*
X104775000Y-43180000D02*
X104140000Y-42545000D01*
X66675000Y-43180000D02*
X66675000Y-44450000D01*
X78740000Y-42545000D02*
X67310000Y-42545000D01*
X92710000Y-42545000D02*
X92075000Y-43180000D01*
X117475000Y-44450000D02*
X117475000Y-43180000D01*
X104140000Y-42545000D02*
X92710000Y-42545000D01*
X77415000Y-57300000D02*
X77415000Y-50800000D01*
X90265000Y-57300000D02*
X90265000Y-50800000D01*
X102965000Y-57300000D02*
X102965000Y-50800000D01*
X115515000Y-57300000D02*
X115515000Y-50800000D01*
X117475000Y-48840000D02*
X117475000Y-44450000D01*
X115515000Y-50800000D02*
X117475000Y-48840000D01*
X53975000Y-49530000D02*
X53975000Y-44450000D01*
X52705000Y-50800000D02*
X53975000Y-49530000D01*
X52705000Y-57300000D02*
X52705000Y-50800000D01*
X64865000Y-57300000D02*
X64865000Y-50800000D01*
X66675000Y-48990000D02*
X66675000Y-44450000D01*
X64865000Y-50800000D02*
X66675000Y-48990000D01*
X79375000Y-48840000D02*
X79375000Y-44450000D01*
X77415000Y-50800000D02*
X79375000Y-48840000D01*
X92075000Y-48990000D02*
X92075000Y-44450000D01*
X90265000Y-50800000D02*
X92075000Y-48990000D01*
X104775000Y-48990000D02*
X104775000Y-44450000D01*
X102965000Y-50800000D02*
X104775000Y-48990000D01*
X165997979Y-118284195D02*
X165997979Y-117809195D01*
X164267174Y-120015000D02*
X165997979Y-118284195D01*
X156845000Y-116840000D02*
X156845000Y-118745000D01*
X158115000Y-120015000D02*
X164267174Y-120015000D01*
X156845000Y-118745000D02*
X158115000Y-120015000D01*
X158377979Y-116064195D02*
X158237174Y-116205000D01*
X158237174Y-116205000D02*
X157480000Y-116205000D01*
X157480000Y-116205000D02*
X156845000Y-116840000D01*
X82115664Y-88265000D02*
X81453344Y-88927320D01*
X147320000Y-76835000D02*
X149225000Y-78740000D01*
X147320000Y-74930000D02*
X147320000Y-76835000D01*
X121285000Y-41910000D02*
X121666000Y-41529000D01*
X118110000Y-41910000D02*
X121285000Y-41910000D01*
X117475000Y-44450000D02*
X117475000Y-42545000D01*
X117475000Y-42545000D02*
X118110000Y-41910000D01*
X167005000Y-73914000D02*
X165481000Y-72390000D01*
X167005000Y-74930000D02*
X167005000Y-73914000D01*
X154305000Y-78740000D02*
X149225000Y-78740000D01*
X160655000Y-72390000D02*
X154305000Y-78740000D01*
X165481000Y-72390000D02*
X160655000Y-72390000D01*
X148980616Y-56515000D02*
X142875000Y-56515000D01*
X152019000Y-46355000D02*
X151765000Y-46609000D01*
X151765000Y-53730616D02*
X148980616Y-56515000D01*
X151765000Y-46609000D02*
X151765000Y-53730616D01*
X153035000Y-46355000D02*
X152019000Y-46355000D01*
X147320000Y-70485000D02*
X147320000Y-74930000D01*
X142733799Y-65898799D02*
X147320000Y-70485000D01*
X142733799Y-57363307D02*
X142733799Y-65898799D01*
X142875000Y-56515000D02*
X142875000Y-57222106D01*
X142875000Y-57222106D02*
X142733799Y-57363307D01*
X164727979Y-115942021D02*
X164727979Y-117809195D01*
X165100000Y-115570000D02*
X164727979Y-115942021D01*
X89160000Y-97415000D02*
X88900000Y-97155000D01*
X94615000Y-97415000D02*
X89160000Y-97415000D01*
X89540000Y-86365000D02*
X88900000Y-85725000D01*
X94435000Y-86365000D02*
X89540000Y-86365000D01*
X84655664Y-85725000D02*
X88900000Y-85725000D01*
X81453344Y-88927320D02*
X84655664Y-85725000D01*
X94615000Y-96662600D02*
X96027600Y-95250000D01*
X94615000Y-97415000D02*
X94615000Y-96662600D01*
X108585000Y-96182600D02*
X107652400Y-95250000D01*
X108585000Y-97835000D02*
X108585000Y-96182600D01*
X107652400Y-95250000D02*
X96027600Y-95250000D01*
X94435000Y-85612600D02*
X94435000Y-86365000D01*
X96227600Y-83820000D02*
X94435000Y-85612600D01*
X105047600Y-83820000D02*
X96227600Y-83820000D01*
X108585000Y-86405000D02*
X107632600Y-86405000D01*
X107632600Y-86405000D02*
X105047600Y-83820000D01*
X165997979Y-117809195D02*
X164727979Y-117809195D01*
X182880000Y-109220000D02*
X180340000Y-106680000D01*
X191135000Y-109220000D02*
X182880000Y-109220000D01*
X180340000Y-106680000D02*
X180340000Y-102235000D01*
X151683784Y-109220000D02*
X146050000Y-109220000D01*
X158377979Y-115914195D02*
X151683784Y-109220000D01*
X194310000Y-73927600D02*
X194310000Y-74930000D01*
X185420000Y-71755000D02*
X192042400Y-71660000D01*
X192042400Y-71660000D02*
X194310000Y-73927600D01*
X185325000Y-71660000D02*
X183515000Y-71660000D01*
X185420000Y-71755000D02*
X185325000Y-71660000D01*
X165100000Y-115570000D02*
X165100000Y-114300000D01*
X165100000Y-114300000D02*
X165100000Y-111760000D01*
X166044784Y-117856000D02*
X165997979Y-117809195D01*
X180340000Y-106680000D02*
X169164000Y-117856000D01*
X169164000Y-117856000D02*
X166044784Y-117856000D01*
X145923000Y-53593998D02*
X144272000Y-55244998D01*
X145923000Y-52705000D02*
X145923000Y-53593998D01*
X147193000Y-51435000D02*
X145923000Y-52705000D01*
X147193000Y-51435000D02*
X143129000Y-47371000D01*
X130810000Y-48260000D02*
X142240000Y-48260000D01*
X142240000Y-48260000D02*
X143129000Y-47371000D01*
X150495000Y-51435000D02*
X147193000Y-51435000D01*
X94435000Y-88645000D02*
X100735000Y-88645000D01*
X102895000Y-90805000D02*
X100735000Y-88645000D01*
X108585000Y-90805000D02*
X102895000Y-90805000D01*
X108585000Y-90805000D02*
X115570000Y-90805000D01*
X167005000Y-102235000D02*
X167005000Y-106680000D01*
X186690000Y-74930000D02*
X179705006Y-74930000D01*
X179705006Y-74930000D02*
X173855005Y-80780001D01*
X161925000Y-77470000D02*
X165735000Y-81280000D01*
X172647900Y-81280000D02*
X173355006Y-81280000D01*
X165735000Y-81280000D02*
X172647900Y-81280000D01*
X173855005Y-80780001D02*
X173355006Y-81280000D01*
X163050000Y-111760000D02*
X162923000Y-111887000D01*
X162923000Y-111887000D02*
X161290000Y-111887000D01*
X161290000Y-117809195D02*
X162187979Y-117809195D01*
X161290000Y-111886992D02*
X161290000Y-117809195D01*
D34*
X165735000Y-140495000D02*
X165575000Y-140335000D01*
X165735000Y-142240000D02*
X165735000Y-140495000D01*
X168275000Y-144780000D02*
X165735000Y-142240000D01*
X180828477Y-144780000D02*
X168275000Y-144780000D01*
X183435000Y-140335000D02*
X183435000Y-142173477D01*
X183435000Y-142173477D02*
X180828477Y-144780000D01*
X46355000Y-88900000D02*
X53340000Y-88900000D01*
X44450000Y-92710000D02*
X44450000Y-90805000D01*
X44450000Y-90805000D02*
X46355000Y-88900000D01*
X44450000Y-96520000D02*
X44450000Y-92710000D01*
X46355000Y-98425000D02*
X44450000Y-96520000D01*
X46355000Y-122301000D02*
X46355000Y-98425000D01*
X50866509Y-123190000D02*
X47244000Y-123190000D01*
X47244000Y-123190000D02*
X46355000Y-122301000D01*
X151130000Y-123190000D02*
X151149195Y-123209195D01*
D33*
X162191420Y-123190000D02*
X163449000Y-123190000D01*
D34*
X60960000Y-120650000D02*
X60960000Y-123190000D01*
X60960000Y-123190000D02*
X50800000Y-123190000D01*
X77470000Y-120650000D02*
X77470000Y-123190000D01*
X77470000Y-123190000D02*
X60960000Y-123190000D01*
X93980000Y-120650000D02*
X93980000Y-123190000D01*
X93980000Y-123190000D02*
X77470000Y-123190000D01*
X110490000Y-120396000D02*
X110490000Y-123190000D01*
X127254000Y-123190000D02*
X110490000Y-123190000D01*
X110490000Y-123190000D02*
X93980000Y-123190000D01*
X127254000Y-120396000D02*
X127254000Y-123190000D01*
X144145000Y-120396000D02*
X144145000Y-123190000D01*
X144145000Y-123190000D02*
X127254000Y-123190000D01*
X155575000Y-140335000D02*
X155575000Y-123190000D01*
X162814000Y-123190000D02*
X155575000Y-123190000D01*
X155575000Y-123190000D02*
X144145000Y-123190000D01*
X59610000Y-132160000D02*
X60960000Y-130810000D01*
X59610000Y-140335000D02*
X59610000Y-132160000D01*
D33*
X144780000Y-76835000D02*
X142875000Y-78740000D01*
X144780000Y-74930000D02*
X144780000Y-76835000D01*
X94615000Y-99695000D02*
X100915000Y-99695000D01*
X103455000Y-102235000D02*
X100915000Y-99695000D01*
X108585000Y-102235000D02*
X103455000Y-102235000D01*
X111760000Y-102235000D02*
X108585000Y-102235000D01*
X89480000Y-101975000D02*
X88900000Y-102555000D01*
X94615000Y-101975000D02*
X89480000Y-101975000D01*
X89100000Y-90925000D02*
X88900000Y-91125000D01*
X94435000Y-90925000D02*
X89100000Y-90925000D01*
X113030000Y-107569010D02*
X113030000Y-110744000D01*
X88900000Y-100652600D02*
X86360000Y-98112600D01*
X86360000Y-98112600D02*
X86360000Y-95068112D01*
X88900000Y-91125000D02*
X88900000Y-92075000D01*
X86613994Y-94361006D02*
X86360000Y-94361006D01*
X88900000Y-92075000D02*
X86613994Y-94361006D01*
X86360000Y-95068112D02*
X86360000Y-94361006D01*
X88900000Y-102555000D02*
X88900000Y-100652600D01*
D34*
X54610000Y-132080000D02*
X53340000Y-130810000D01*
X54610000Y-140335000D02*
X54610000Y-132080000D01*
X76247000Y-132033000D02*
X77470000Y-130810000D01*
X76247000Y-140335000D02*
X76247000Y-132033000D01*
X71247000Y-132207000D02*
X69850000Y-130810000D01*
X71247000Y-140335000D02*
X71247000Y-132207000D01*
X92884000Y-131906000D02*
X93980000Y-130810000D01*
X92884000Y-140335000D02*
X92884000Y-131906000D01*
X87884000Y-132334000D02*
X86360000Y-130810000D01*
X87884000Y-140335000D02*
X87884000Y-132334000D01*
X109521000Y-131525000D02*
X110490000Y-130556000D01*
X109521000Y-140335000D02*
X109521000Y-131525000D01*
X104521000Y-132207000D02*
X102870000Y-130556000D01*
X104521000Y-140335000D02*
X104521000Y-132207000D01*
X126158000Y-131652000D02*
X127254000Y-130556000D01*
X126158000Y-140335000D02*
X126158000Y-131652000D01*
X121158000Y-132080000D02*
X119634000Y-130556000D01*
X121158000Y-140335000D02*
X121158000Y-132080000D01*
X142795000Y-131906000D02*
X144145000Y-130556000D01*
X142795000Y-140335000D02*
X142795000Y-131906000D01*
X137795000Y-131826000D02*
X136525000Y-130556000D01*
X137795000Y-140335000D02*
X137795000Y-131826000D01*
D33*
X164731420Y-123190000D02*
X165989000Y-123190000D01*
D34*
X175260000Y-123190000D02*
X165354000Y-123190000D01*
X178435000Y-140335000D02*
X178435000Y-126365000D01*
X178435000Y-126365000D02*
X175260000Y-123190000D01*
D33*
X167868599Y-76606401D02*
X167005000Y-77470000D01*
X146558000Y-60579000D02*
X146558000Y-61843222D01*
X154559000Y-52578000D02*
X146558000Y-60579000D01*
X154559000Y-45212000D02*
X154559000Y-52578000D01*
X154178000Y-44831000D02*
X154559000Y-45212000D01*
X162917182Y-68438799D02*
X168275000Y-73796617D01*
X156472415Y-68438799D02*
X156472422Y-68438792D01*
X150495000Y-46355000D02*
X152019000Y-44831000D01*
X157217578Y-68438792D02*
X157217585Y-68438799D01*
X152019000Y-44831000D02*
X154178000Y-44831000D01*
X156472422Y-68438792D02*
X157217578Y-68438792D01*
X146558000Y-61843222D02*
X146543799Y-61857423D01*
X146543799Y-61857423D02*
X146543799Y-67676799D01*
X146543799Y-67676799D02*
X147305799Y-68438799D01*
X157217585Y-68438799D02*
X162917182Y-68438799D01*
X147305799Y-68438799D02*
X156472415Y-68438799D01*
X168275000Y-76200000D02*
X167868599Y-76606401D01*
X168275000Y-73796617D02*
X168275000Y-76200000D01*
X133350004Y-46355000D02*
X146050000Y-46355000D01*
X132715000Y-46990004D02*
X133350004Y-46355000D01*
X156845000Y-72390016D02*
X156845000Y-69215000D01*
X120015000Y-57300000D02*
X120015000Y-50800000D01*
X107465000Y-57300000D02*
X107465000Y-50800000D01*
X94765000Y-57300000D02*
X94765000Y-50800000D01*
X81915000Y-57300000D02*
X81915000Y-50800000D01*
X69365000Y-57300000D02*
X69365000Y-50800000D01*
X57205000Y-57300000D02*
X57205000Y-50800000D01*
X158115000Y-72389986D02*
X158115000Y-69215000D01*
X148590000Y-53975000D02*
X149506444Y-54891444D01*
X148590000Y-52563800D02*
X148590000Y-53975000D01*
X170815000Y-78598800D02*
X170815000Y-74153790D01*
X170815000Y-74153790D02*
X166370000Y-69708790D01*
X142875000Y-80790000D02*
X149225000Y-80790000D01*
X149225000Y-80790000D02*
X152255000Y-80790000D01*
X159793784Y-119380000D02*
X158377979Y-117964195D01*
X163195000Y-119380000D02*
X159793784Y-119380000D01*
X163457979Y-117809195D02*
X163457979Y-119117021D01*
X163457979Y-119117021D02*
X163195000Y-119380000D01*
X170180000Y-102235000D02*
X170180000Y-106680000D01*
X163449000Y-117800216D02*
X163457979Y-117809195D01*
X163449000Y-116586000D02*
X163449000Y-117800216D01*
X163050000Y-114300000D02*
X163050000Y-116187000D01*
X163050000Y-116187000D02*
X163449000Y-116586000D01*
X164084000Y-113266000D02*
X164084000Y-110816106D01*
X164084000Y-110816106D02*
X164084000Y-110109000D01*
X163050000Y-114300000D02*
X164084000Y-113266000D01*
X183515000Y-80010000D02*
X183515000Y-75706200D01*
D35*
G36*
X145832600Y-67606753D02*
X145818667Y-67676799D01*
X145873864Y-67954295D01*
X145991375Y-68130163D01*
X145991378Y-68130166D01*
X146031054Y-68189545D01*
X146090433Y-68229221D01*
X146753377Y-68892166D01*
X146793053Y-68951545D01*
X146852432Y-68991221D01*
X146852434Y-68991223D01*
X146964142Y-69065864D01*
X147028303Y-69108735D01*
X147235753Y-69149999D01*
X147235757Y-69149999D01*
X147305799Y-69163931D01*
X147375841Y-69149999D01*
X155710000Y-69149999D01*
X155710000Y-69440766D01*
X155882793Y-69857926D01*
X156133801Y-70108934D01*
X156133800Y-71496083D01*
X155882793Y-71747090D01*
X155710000Y-72164250D01*
X155710000Y-72615782D01*
X155882793Y-73032942D01*
X156202074Y-73352223D01*
X156619234Y-73525016D01*
X157070766Y-73525016D01*
X157480036Y-73355491D01*
X157889234Y-73524986D01*
X158340766Y-73524986D01*
X158757926Y-73352193D01*
X159077207Y-73032912D01*
X159250000Y-72615752D01*
X159250000Y-72164220D01*
X159077207Y-71747060D01*
X158826200Y-71496053D01*
X158826200Y-70108933D01*
X159077207Y-69857926D01*
X159250000Y-69440766D01*
X159250000Y-69149999D01*
X162622594Y-69149999D01*
X166903994Y-73431400D01*
X166877998Y-73431400D01*
X166877998Y-73590148D01*
X166719250Y-73431400D01*
X166015090Y-73431400D01*
X165781701Y-73528073D01*
X165603073Y-73706702D01*
X165544228Y-73848767D01*
X165049725Y-73518350D01*
X164612598Y-73431400D01*
X164317402Y-73431400D01*
X163880275Y-73518350D01*
X163384570Y-73849570D01*
X163195000Y-74133281D01*
X163005430Y-73849570D01*
X162509725Y-73518350D01*
X162072598Y-73431400D01*
X161777402Y-73431400D01*
X161340275Y-73518350D01*
X160844570Y-73849570D01*
X160513350Y-74345275D01*
X160397041Y-74930000D01*
X160513350Y-75514725D01*
X160844570Y-76010430D01*
X161128281Y-76200000D01*
X160844570Y-76389570D01*
X160513350Y-76885275D01*
X160397041Y-77470000D01*
X160513350Y-78054725D01*
X160844570Y-78550430D01*
X161340275Y-78881650D01*
X161777402Y-78968600D01*
X162072598Y-78968600D01*
X162360537Y-78911325D01*
X165182578Y-81733367D01*
X165222254Y-81792746D01*
X165281633Y-81832422D01*
X165281635Y-81832424D01*
X165397336Y-81909733D01*
X165457504Y-81949936D01*
X165664954Y-81991200D01*
X165664958Y-81991200D01*
X165735000Y-82005132D01*
X165805042Y-81991200D01*
X172461073Y-81991200D01*
X172712080Y-82242207D01*
X173129240Y-82415000D01*
X173580772Y-82415000D01*
X173997932Y-82242207D01*
X174317213Y-81922926D01*
X174490006Y-81505766D01*
X174490006Y-81150788D01*
X179999595Y-75641200D01*
X182380000Y-75641200D01*
X182380000Y-75931966D01*
X182552793Y-76349126D01*
X182803801Y-76600134D01*
X182803800Y-79116067D01*
X182552793Y-79367074D01*
X182380000Y-79784234D01*
X182380000Y-80235766D01*
X182552793Y-80652926D01*
X182872074Y-80972207D01*
X183289234Y-81145000D01*
X183740766Y-81145000D01*
X184157926Y-80972207D01*
X184477207Y-80652926D01*
X184650000Y-80235766D01*
X184650000Y-79784234D01*
X184477207Y-79367074D01*
X184226200Y-79116067D01*
X184226200Y-76600133D01*
X184477207Y-76349126D01*
X184650000Y-75931966D01*
X184650000Y-75641200D01*
X185379215Y-75641200D01*
X185619375Y-76000625D01*
X186110582Y-76328839D01*
X186543744Y-76415000D01*
X186836256Y-76415000D01*
X187269418Y-76328839D01*
X187760625Y-76000625D01*
X187960000Y-75702239D01*
X188159375Y-76000625D01*
X188650582Y-76328839D01*
X189083744Y-76415000D01*
X189376256Y-76415000D01*
X189809418Y-76328839D01*
X190300625Y-76000625D01*
X190500000Y-75702239D01*
X190699375Y-76000625D01*
X191190582Y-76328839D01*
X191623744Y-76415000D01*
X191916256Y-76415000D01*
X192349418Y-76328839D01*
X192840625Y-76000625D01*
X192855096Y-75978967D01*
X192921673Y-76139698D01*
X193100301Y-76318327D01*
X193333690Y-76415000D01*
X194024250Y-76415000D01*
X194183000Y-76256250D01*
X194183000Y-75057000D01*
X194437000Y-75057000D01*
X194437000Y-76256250D01*
X194595750Y-76415000D01*
X195286310Y-76415000D01*
X195519699Y-76318327D01*
X195698327Y-76139698D01*
X195795000Y-75906309D01*
X195795000Y-75215750D01*
X195636250Y-75057000D01*
X194437000Y-75057000D01*
X194183000Y-75057000D01*
X194163000Y-75057000D01*
X194163000Y-74803000D01*
X194183000Y-74803000D01*
X194183000Y-73603750D01*
X194437000Y-73603750D01*
X194437000Y-74803000D01*
X195636250Y-74803000D01*
X195795000Y-74644250D01*
X195795000Y-73953691D01*
X195698327Y-73720302D01*
X195519699Y-73541673D01*
X195286310Y-73445000D01*
X194595750Y-73445000D01*
X194437000Y-73603750D01*
X194183000Y-73603750D01*
X194024250Y-73445000D01*
X193333690Y-73445000D01*
X193100301Y-73541673D01*
X192921673Y-73720302D01*
X192855096Y-73881033D01*
X192840625Y-73859375D01*
X192349418Y-73531161D01*
X191916256Y-73445000D01*
X191623744Y-73445000D01*
X191190582Y-73531161D01*
X190699375Y-73859375D01*
X190500000Y-74157761D01*
X190300625Y-73859375D01*
X189809418Y-73531161D01*
X189376256Y-73445000D01*
X189083744Y-73445000D01*
X188650582Y-73531161D01*
X188159375Y-73859375D01*
X187960000Y-74157761D01*
X187760625Y-73859375D01*
X187269418Y-73531161D01*
X186836256Y-73445000D01*
X186543744Y-73445000D01*
X186110582Y-73531161D01*
X185619375Y-73859375D01*
X185379215Y-74218800D01*
X179775048Y-74218800D01*
X179705006Y-74204868D01*
X179634964Y-74218800D01*
X179634960Y-74218800D01*
X179427510Y-74260064D01*
X179427508Y-74260065D01*
X179427509Y-74260065D01*
X179251641Y-74377576D01*
X179251639Y-74377578D01*
X179192260Y-74417254D01*
X179152584Y-74476633D01*
X173484218Y-80145000D01*
X173129240Y-80145000D01*
X172712080Y-80317793D01*
X172461073Y-80568800D01*
X166029589Y-80568800D01*
X164429389Y-78968600D01*
X164612598Y-78968600D01*
X165049725Y-78881650D01*
X165545430Y-78550430D01*
X165735000Y-78266719D01*
X165924570Y-78550430D01*
X166420275Y-78881650D01*
X166857402Y-78968600D01*
X167152598Y-78968600D01*
X167589725Y-78881650D01*
X168085430Y-78550430D01*
X168416650Y-78054725D01*
X168532959Y-77470000D01*
X168446325Y-77034463D01*
X168728364Y-76752424D01*
X168787746Y-76712746D01*
X168944936Y-76477496D01*
X168986200Y-76270046D01*
X168986200Y-76270042D01*
X169000132Y-76200000D01*
X168986200Y-76129958D01*
X168986200Y-73866659D01*
X169000132Y-73796617D01*
X168986200Y-73726575D01*
X168986200Y-73726571D01*
X168944936Y-73519121D01*
X168921371Y-73483854D01*
X168827424Y-73343252D01*
X168827420Y-73343248D01*
X168787745Y-73283871D01*
X168728369Y-73244197D01*
X166327962Y-70843790D01*
X166499212Y-70843790D01*
X170103801Y-74448380D01*
X170103800Y-77704867D01*
X169852793Y-77955874D01*
X169680000Y-78373034D01*
X169680000Y-78824566D01*
X169852793Y-79241726D01*
X170172074Y-79561007D01*
X170589234Y-79733800D01*
X171040766Y-79733800D01*
X171457926Y-79561007D01*
X171777207Y-79241726D01*
X171950000Y-78824566D01*
X171950000Y-78373034D01*
X171777207Y-77955874D01*
X171526200Y-77704867D01*
X171526200Y-74223831D01*
X171540132Y-74153789D01*
X171526200Y-74083747D01*
X171526200Y-74083744D01*
X171484936Y-73876294D01*
X171473631Y-73859375D01*
X171367424Y-73700425D01*
X171367422Y-73700423D01*
X171327746Y-73641044D01*
X171268367Y-73601368D01*
X169901999Y-72235000D01*
X182442560Y-72235000D01*
X182442560Y-73085000D01*
X182491843Y-73332765D01*
X182632191Y-73542809D01*
X182842235Y-73683157D01*
X183090000Y-73732440D01*
X183940000Y-73732440D01*
X184187765Y-73683157D01*
X184397809Y-73542809D01*
X184538157Y-73332765D01*
X184587440Y-73085000D01*
X184587440Y-72235000D01*
X184538157Y-71987235D01*
X184526420Y-71969669D01*
X184534540Y-71950062D01*
X184407257Y-71787000D01*
X184404363Y-71787000D01*
X184397809Y-71777191D01*
X184187765Y-71636843D01*
X183940000Y-71587560D01*
X183090000Y-71587560D01*
X182842235Y-71636843D01*
X182632191Y-71777191D01*
X182625637Y-71787000D01*
X182622743Y-71787000D01*
X182495460Y-71950062D01*
X182503580Y-71969669D01*
X182491843Y-71987235D01*
X182442560Y-72235000D01*
X169901999Y-72235000D01*
X169036937Y-71369938D01*
X182495460Y-71369938D01*
X182622743Y-71533000D01*
X183388000Y-71533000D01*
X183388000Y-70766372D01*
X183642000Y-70766372D01*
X183642000Y-71533000D01*
X184407257Y-71533000D01*
X184534540Y-71369938D01*
X184441041Y-71144174D01*
X184173152Y-70829058D01*
X183805065Y-70640446D01*
X183642000Y-70766372D01*
X183388000Y-70766372D01*
X183224935Y-70640446D01*
X182856848Y-70829058D01*
X182588959Y-71144174D01*
X182495460Y-71369938D01*
X169036937Y-71369938D01*
X167505000Y-69838002D01*
X167505000Y-69483024D01*
X167332207Y-69065864D01*
X167012926Y-68746583D01*
X166595766Y-68573790D01*
X166144234Y-68573790D01*
X165727074Y-68746583D01*
X165407793Y-69065864D01*
X165235000Y-69483024D01*
X165235000Y-69750829D01*
X163469605Y-67985434D01*
X163429928Y-67926053D01*
X163194678Y-67768863D01*
X162987228Y-67727599D01*
X162987223Y-67727599D01*
X162917182Y-67713667D01*
X162847141Y-67727599D01*
X157287659Y-67727599D01*
X157287624Y-67727592D01*
X157287619Y-67727592D01*
X157217578Y-67713660D01*
X157147537Y-67727592D01*
X156542464Y-67727592D01*
X156472422Y-67713660D01*
X156402381Y-67727592D01*
X156402376Y-67727592D01*
X156402341Y-67727599D01*
X147600388Y-67727599D01*
X147254999Y-67382211D01*
X147254999Y-64897000D01*
X201168000Y-64897000D01*
X201168000Y-66144194D01*
X200987424Y-66218991D01*
X200203991Y-67002424D01*
X199780000Y-68026029D01*
X199780000Y-69133971D01*
X200203991Y-70157576D01*
X200987424Y-70941009D01*
X201168000Y-71015806D01*
X201168000Y-115443002D01*
X166129353Y-115443673D01*
X166213327Y-115359699D01*
X166310000Y-115126310D01*
X166310000Y-114585750D01*
X166151250Y-114427000D01*
X165227000Y-114427000D01*
X165227000Y-114447000D01*
X164973000Y-114447000D01*
X164973000Y-114427000D01*
X164953000Y-114427000D01*
X164953000Y-114173000D01*
X164973000Y-114173000D01*
X164973000Y-113123750D01*
X164879250Y-113030000D01*
X164973000Y-112936250D01*
X164973000Y-111887000D01*
X165227000Y-111887000D01*
X165227000Y-112936250D01*
X165320750Y-113030000D01*
X165227000Y-113123750D01*
X165227000Y-114173000D01*
X166151250Y-114173000D01*
X166310000Y-114014250D01*
X166310000Y-113473690D01*
X166213327Y-113240301D01*
X166034698Y-113061673D01*
X165958233Y-113030000D01*
X166034698Y-112998327D01*
X166213327Y-112819699D01*
X166310000Y-112586310D01*
X166310000Y-112045750D01*
X166151250Y-111887000D01*
X165227000Y-111887000D01*
X164973000Y-111887000D01*
X164953000Y-111887000D01*
X164953000Y-111633000D01*
X164973000Y-111633000D01*
X164973000Y-111613000D01*
X165227000Y-111613000D01*
X165227000Y-111633000D01*
X166151250Y-111633000D01*
X166310000Y-111474250D01*
X166310000Y-110933690D01*
X166213327Y-110700301D01*
X166034698Y-110521673D01*
X165801309Y-110425000D01*
X165385750Y-110425000D01*
X165227002Y-110583748D01*
X165227002Y-110425000D01*
X165181624Y-110425000D01*
X165219000Y-110334766D01*
X165219000Y-109883234D01*
X165046207Y-109466074D01*
X164726926Y-109146793D01*
X164309766Y-108974000D01*
X163858234Y-108974000D01*
X163441074Y-109146793D01*
X163121793Y-109466074D01*
X162949000Y-109883234D01*
X162949000Y-110334766D01*
X162981223Y-110412560D01*
X162724999Y-110412560D01*
X162381564Y-110480873D01*
X162090414Y-110675414D01*
X161925770Y-110921821D01*
X161515766Y-110751992D01*
X161064234Y-110751992D01*
X160647074Y-110924785D01*
X160327793Y-111244066D01*
X160155000Y-111661226D01*
X160155000Y-112112758D01*
X160327793Y-112529918D01*
X160578800Y-112780925D01*
X160578801Y-115443779D01*
X159712979Y-115443795D01*
X159712979Y-115212886D01*
X159616306Y-114979497D01*
X159437678Y-114800868D01*
X159204289Y-114704195D01*
X158663729Y-114704195D01*
X158504979Y-114862945D01*
X158504979Y-115443818D01*
X158250979Y-115443823D01*
X158250979Y-114862945D01*
X158092229Y-114704195D01*
X157551669Y-114704195D01*
X157318280Y-114800868D01*
X157139652Y-114979497D01*
X157042979Y-115212886D01*
X157042979Y-115443846D01*
X146774344Y-115444043D01*
X146771047Y-115427467D01*
X146743118Y-115285070D01*
X146742554Y-115284220D01*
X146742354Y-115283217D01*
X146661593Y-115162350D01*
X146581320Y-115041514D01*
X146580473Y-115040945D01*
X146579905Y-115040095D01*
X146459107Y-114959381D01*
X146338633Y-114878416D01*
X146337632Y-114878214D01*
X146336782Y-114877646D01*
X146194091Y-114849263D01*
X146124353Y-114835197D01*
X146123365Y-114835194D01*
X146050000Y-114820601D01*
X145978581Y-114834807D01*
X68072000Y-114626501D01*
X68072000Y-112752119D01*
X68453000Y-112752119D01*
X68453000Y-113307881D01*
X68665680Y-113821337D01*
X69058663Y-114214320D01*
X69572119Y-114427000D01*
X70127881Y-114427000D01*
X70641337Y-114214320D01*
X71034320Y-113821337D01*
X71247000Y-113307881D01*
X71247000Y-112752119D01*
X76073000Y-112752119D01*
X76073000Y-113307881D01*
X76285680Y-113821337D01*
X76678663Y-114214320D01*
X77192119Y-114427000D01*
X77747881Y-114427000D01*
X78261337Y-114214320D01*
X78654320Y-113821337D01*
X78867000Y-113307881D01*
X78867000Y-112752119D01*
X84963000Y-112752119D01*
X84963000Y-113307881D01*
X85175680Y-113821337D01*
X85568663Y-114214320D01*
X86082119Y-114427000D01*
X86637881Y-114427000D01*
X87151337Y-114214320D01*
X87544320Y-113821337D01*
X87757000Y-113307881D01*
X87757000Y-112752119D01*
X92583000Y-112752119D01*
X92583000Y-113307881D01*
X92795680Y-113821337D01*
X93188663Y-114214320D01*
X93702119Y-114427000D01*
X94257881Y-114427000D01*
X94771337Y-114214320D01*
X95164320Y-113821337D01*
X95377000Y-113307881D01*
X95377000Y-112752119D01*
X95271790Y-112498119D01*
X101473000Y-112498119D01*
X101473000Y-113053881D01*
X101685680Y-113567337D01*
X102078663Y-113960320D01*
X102592119Y-114173000D01*
X103147881Y-114173000D01*
X103661337Y-113960320D01*
X104054320Y-113567337D01*
X104267000Y-113053881D01*
X104267000Y-112498119D01*
X109093000Y-112498119D01*
X109093000Y-113053881D01*
X109305680Y-113567337D01*
X109698663Y-113960320D01*
X110212119Y-114173000D01*
X110767881Y-114173000D01*
X111281337Y-113960320D01*
X111674320Y-113567337D01*
X111887000Y-113053881D01*
X111887000Y-112498119D01*
X118237000Y-112498119D01*
X118237000Y-113053881D01*
X118449680Y-113567337D01*
X118842663Y-113960320D01*
X119356119Y-114173000D01*
X119911881Y-114173000D01*
X120425337Y-113960320D01*
X120818320Y-113567337D01*
X121031000Y-113053881D01*
X121031000Y-112498119D01*
X125857000Y-112498119D01*
X125857000Y-113053881D01*
X126069680Y-113567337D01*
X126462663Y-113960320D01*
X126976119Y-114173000D01*
X127531881Y-114173000D01*
X128045337Y-113960320D01*
X128438320Y-113567337D01*
X128651000Y-113053881D01*
X128651000Y-112498119D01*
X135128000Y-112498119D01*
X135128000Y-113053881D01*
X135340680Y-113567337D01*
X135733663Y-113960320D01*
X136247119Y-114173000D01*
X136802881Y-114173000D01*
X137316337Y-113960320D01*
X137709320Y-113567337D01*
X137922000Y-113053881D01*
X137922000Y-112498119D01*
X142748000Y-112498119D01*
X142748000Y-113053881D01*
X142960680Y-113567337D01*
X143353663Y-113960320D01*
X143867119Y-114173000D01*
X144422881Y-114173000D01*
X144936337Y-113960320D01*
X145329320Y-113567337D01*
X145542000Y-113053881D01*
X145542000Y-112498119D01*
X145329320Y-111984663D01*
X144936337Y-111591680D01*
X144422881Y-111379000D01*
X143867119Y-111379000D01*
X143353663Y-111591680D01*
X142960680Y-111984663D01*
X142748000Y-112498119D01*
X137922000Y-112498119D01*
X137709320Y-111984663D01*
X137316337Y-111591680D01*
X136802881Y-111379000D01*
X136247119Y-111379000D01*
X135733663Y-111591680D01*
X135340680Y-111984663D01*
X135128000Y-112498119D01*
X128651000Y-112498119D01*
X128438320Y-111984663D01*
X128045337Y-111591680D01*
X127531881Y-111379000D01*
X126976119Y-111379000D01*
X126462663Y-111591680D01*
X126069680Y-111984663D01*
X125857000Y-112498119D01*
X121031000Y-112498119D01*
X120818320Y-111984663D01*
X120425337Y-111591680D01*
X119911881Y-111379000D01*
X119356119Y-111379000D01*
X118842663Y-111591680D01*
X118449680Y-111984663D01*
X118237000Y-112498119D01*
X111887000Y-112498119D01*
X111674320Y-111984663D01*
X111281337Y-111591680D01*
X110767881Y-111379000D01*
X110212119Y-111379000D01*
X109698663Y-111591680D01*
X109305680Y-111984663D01*
X109093000Y-112498119D01*
X104267000Y-112498119D01*
X104054320Y-111984663D01*
X103661337Y-111591680D01*
X103147881Y-111379000D01*
X102592119Y-111379000D01*
X102078663Y-111591680D01*
X101685680Y-111984663D01*
X101473000Y-112498119D01*
X95271790Y-112498119D01*
X95164320Y-112238663D01*
X94771337Y-111845680D01*
X94257881Y-111633000D01*
X93702119Y-111633000D01*
X93188663Y-111845680D01*
X92795680Y-112238663D01*
X92583000Y-112752119D01*
X87757000Y-112752119D01*
X87544320Y-112238663D01*
X87151337Y-111845680D01*
X86637881Y-111633000D01*
X86082119Y-111633000D01*
X85568663Y-111845680D01*
X85175680Y-112238663D01*
X84963000Y-112752119D01*
X78867000Y-112752119D01*
X78654320Y-112238663D01*
X78261337Y-111845680D01*
X77747881Y-111633000D01*
X77192119Y-111633000D01*
X76678663Y-111845680D01*
X76285680Y-112238663D01*
X76073000Y-112752119D01*
X71247000Y-112752119D01*
X71034320Y-112238663D01*
X70641337Y-111845680D01*
X70127881Y-111633000D01*
X69572119Y-111633000D01*
X69058663Y-111845680D01*
X68665680Y-112238663D01*
X68453000Y-112752119D01*
X68072000Y-112752119D01*
X68072000Y-107343244D01*
X111895000Y-107343244D01*
X111895000Y-107794776D01*
X112067793Y-108211936D01*
X112318800Y-108462943D01*
X112318801Y-109850066D01*
X112067793Y-110101074D01*
X111895000Y-110518234D01*
X111895000Y-110969766D01*
X112067793Y-111386926D01*
X112387074Y-111706207D01*
X112804234Y-111879000D01*
X113255766Y-111879000D01*
X113672926Y-111706207D01*
X113992207Y-111386926D01*
X114165000Y-110969766D01*
X114165000Y-110518234D01*
X113992207Y-110101074D01*
X113741200Y-109850067D01*
X113741200Y-108462943D01*
X113992207Y-108211936D01*
X114165000Y-107794776D01*
X114165000Y-107343244D01*
X113992207Y-106926084D01*
X113672926Y-106606803D01*
X113255766Y-106434010D01*
X112804234Y-106434010D01*
X112387074Y-106606803D01*
X112067793Y-106926084D01*
X111895000Y-107343244D01*
X68072000Y-107343244D01*
X68072000Y-96222098D01*
X79817344Y-96222098D01*
X79817344Y-96872542D01*
X80066258Y-97473473D01*
X80526191Y-97933406D01*
X81127122Y-98182320D01*
X81777566Y-98182320D01*
X82378497Y-97933406D01*
X82838430Y-97473473D01*
X83087344Y-96872542D01*
X83087344Y-96222098D01*
X82838430Y-95621167D01*
X82378497Y-95161234D01*
X81777566Y-94912320D01*
X81127122Y-94912320D01*
X80526191Y-95161234D01*
X80066258Y-95621167D01*
X79817344Y-96222098D01*
X68072000Y-96222098D01*
X68072000Y-94135240D01*
X85225000Y-94135240D01*
X85225000Y-94586772D01*
X85397793Y-95003932D01*
X85648801Y-95254940D01*
X85648800Y-98042558D01*
X85634868Y-98112600D01*
X85648800Y-98182641D01*
X85648800Y-98182645D01*
X85690064Y-98390095D01*
X85690065Y-98390096D01*
X85807576Y-98565964D01*
X85807578Y-98565966D01*
X85847254Y-98625345D01*
X85906634Y-98665022D01*
X87620806Y-100379195D01*
X87501843Y-100557235D01*
X87452560Y-100805000D01*
X87452560Y-104305000D01*
X87501843Y-104552765D01*
X87642191Y-104762809D01*
X87852235Y-104903157D01*
X88100000Y-104952440D01*
X89700000Y-104952440D01*
X89947765Y-104903157D01*
X90157809Y-104762809D01*
X90298157Y-104552765D01*
X90347440Y-104305000D01*
X90347440Y-102686200D01*
X92889679Y-102686200D01*
X92916843Y-102822765D01*
X93057191Y-103032809D01*
X93267235Y-103173157D01*
X93515000Y-103222440D01*
X95715000Y-103222440D01*
X95962765Y-103173157D01*
X96172809Y-103032809D01*
X96313157Y-102822765D01*
X96362440Y-102575000D01*
X96362440Y-101375000D01*
X96313157Y-101127235D01*
X96172809Y-100917191D01*
X96049802Y-100835000D01*
X96172809Y-100752809D01*
X96313157Y-100542765D01*
X96340321Y-100406200D01*
X97067560Y-100406200D01*
X97067560Y-102595000D01*
X97116843Y-102842765D01*
X97257191Y-103052809D01*
X97467235Y-103193157D01*
X97715000Y-103242440D01*
X104115000Y-103242440D01*
X104362765Y-103193157D01*
X104572809Y-103052809D01*
X104644043Y-102946200D01*
X107137560Y-102946200D01*
X107137560Y-103735000D01*
X107186843Y-103982765D01*
X107327191Y-104192809D01*
X107537235Y-104333157D01*
X107785000Y-104382440D01*
X109385000Y-104382440D01*
X109632765Y-104333157D01*
X109842809Y-104192809D01*
X109983157Y-103982765D01*
X110032440Y-103735000D01*
X110032440Y-102946200D01*
X110866067Y-102946200D01*
X111117074Y-103197207D01*
X111534234Y-103370000D01*
X111985766Y-103370000D01*
X112402926Y-103197207D01*
X112722207Y-102877926D01*
X112895000Y-102460766D01*
X112895000Y-102009234D01*
X165870000Y-102009234D01*
X165870000Y-102460766D01*
X166042793Y-102877926D01*
X166293800Y-103128933D01*
X166293801Y-105786066D01*
X166042793Y-106037074D01*
X165870000Y-106454234D01*
X165870000Y-106905766D01*
X166042793Y-107322926D01*
X166362074Y-107642207D01*
X166779234Y-107815000D01*
X167230766Y-107815000D01*
X167647926Y-107642207D01*
X167967207Y-107322926D01*
X168140000Y-106905766D01*
X168140000Y-106454234D01*
X167967207Y-106037074D01*
X167716200Y-105786067D01*
X167716200Y-103128933D01*
X167967207Y-102877926D01*
X168140000Y-102460766D01*
X168140000Y-102009234D01*
X169045000Y-102009234D01*
X169045000Y-102460766D01*
X169217793Y-102877926D01*
X169468800Y-103128933D01*
X169468801Y-105786066D01*
X169217793Y-106037074D01*
X169045000Y-106454234D01*
X169045000Y-106905766D01*
X169217793Y-107322926D01*
X169537074Y-107642207D01*
X169954234Y-107815000D01*
X170405766Y-107815000D01*
X170822926Y-107642207D01*
X171142207Y-107322926D01*
X171315000Y-106905766D01*
X171315000Y-106454234D01*
X171142207Y-106037074D01*
X170891200Y-105786067D01*
X170891200Y-103128933D01*
X171142207Y-102877926D01*
X171315000Y-102460766D01*
X171315000Y-102009234D01*
X171142207Y-101592074D01*
X170822926Y-101272793D01*
X170405766Y-101100000D01*
X169954234Y-101100000D01*
X169537074Y-101272793D01*
X169217793Y-101592074D01*
X169045000Y-102009234D01*
X168140000Y-102009234D01*
X167967207Y-101592074D01*
X167647926Y-101272793D01*
X167230766Y-101100000D01*
X166779234Y-101100000D01*
X166362074Y-101272793D01*
X166042793Y-101592074D01*
X165870000Y-102009234D01*
X112895000Y-102009234D01*
X112722207Y-101592074D01*
X112402926Y-101272793D01*
X111985766Y-101100000D01*
X111534234Y-101100000D01*
X111117074Y-101272793D01*
X110866067Y-101523800D01*
X110032440Y-101523800D01*
X110032440Y-100735000D01*
X109983157Y-100487235D01*
X109842809Y-100277191D01*
X109632765Y-100136843D01*
X109385000Y-100087560D01*
X107785000Y-100087560D01*
X107537235Y-100136843D01*
X107327191Y-100277191D01*
X107186843Y-100487235D01*
X107137560Y-100735000D01*
X107137560Y-101523800D01*
X104762440Y-101523800D01*
X104762440Y-98120750D01*
X107150000Y-98120750D01*
X107150000Y-99461309D01*
X107246673Y-99694698D01*
X107425301Y-99873327D01*
X107658690Y-99970000D01*
X108299250Y-99970000D01*
X108458000Y-99811250D01*
X108458000Y-97962000D01*
X108712000Y-97962000D01*
X108712000Y-99811250D01*
X108870750Y-99970000D01*
X109511310Y-99970000D01*
X109744699Y-99873327D01*
X109923327Y-99694698D01*
X110020000Y-99461309D01*
X110020000Y-98120750D01*
X109861250Y-97962000D01*
X108712000Y-97962000D01*
X108458000Y-97962000D01*
X107308750Y-97962000D01*
X107150000Y-98120750D01*
X104762440Y-98120750D01*
X104762440Y-96795000D01*
X104713157Y-96547235D01*
X104572809Y-96337191D01*
X104380497Y-96208691D01*
X107150000Y-96208691D01*
X107150000Y-97549250D01*
X107308750Y-97708000D01*
X108458000Y-97708000D01*
X108458000Y-95858750D01*
X108712000Y-95858750D01*
X108712000Y-97708000D01*
X109861250Y-97708000D01*
X110020000Y-97549250D01*
X110020000Y-96208691D01*
X109923327Y-95975302D01*
X109744699Y-95796673D01*
X109511310Y-95700000D01*
X108870750Y-95700000D01*
X108712000Y-95858750D01*
X108458000Y-95858750D01*
X108299250Y-95700000D01*
X107658690Y-95700000D01*
X107425301Y-95796673D01*
X107246673Y-95975302D01*
X107150000Y-96208691D01*
X104380497Y-96208691D01*
X104362765Y-96196843D01*
X104115000Y-96147560D01*
X97715000Y-96147560D01*
X97467235Y-96196843D01*
X97257191Y-96337191D01*
X97116843Y-96547235D01*
X97067560Y-96795000D01*
X97067560Y-98983800D01*
X96340321Y-98983800D01*
X96313157Y-98847235D01*
X96172809Y-98637191D01*
X96057784Y-98560333D01*
X96074698Y-98553327D01*
X96253327Y-98374699D01*
X96350000Y-98141310D01*
X96350000Y-97700750D01*
X96191250Y-97542000D01*
X94742000Y-97542000D01*
X94742000Y-97562000D01*
X94488000Y-97562000D01*
X94488000Y-97542000D01*
X93038750Y-97542000D01*
X92880000Y-97700750D01*
X92880000Y-98141310D01*
X92976673Y-98374699D01*
X93155302Y-98553327D01*
X93172216Y-98560333D01*
X93057191Y-98637191D01*
X92916843Y-98847235D01*
X92867560Y-99095000D01*
X92867560Y-100295000D01*
X92916843Y-100542765D01*
X93057191Y-100752809D01*
X93180198Y-100835000D01*
X93057191Y-100917191D01*
X92916843Y-101127235D01*
X92889679Y-101263800D01*
X90347440Y-101263800D01*
X90347440Y-100805000D01*
X90298157Y-100557235D01*
X90157809Y-100347191D01*
X89947765Y-100206843D01*
X89700000Y-100157560D01*
X89424577Y-100157560D01*
X89412746Y-100139854D01*
X89353367Y-100100178D01*
X88703719Y-99450531D01*
X88773000Y-99381250D01*
X88773000Y-97282000D01*
X89027000Y-97282000D01*
X89027000Y-99381250D01*
X89185750Y-99540000D01*
X89826310Y-99540000D01*
X90059699Y-99443327D01*
X90238327Y-99264698D01*
X90335000Y-99031309D01*
X90335000Y-97440750D01*
X90176250Y-97282000D01*
X89027000Y-97282000D01*
X88773000Y-97282000D01*
X87623750Y-97282000D01*
X87465000Y-97440750D01*
X87465000Y-98211812D01*
X87071200Y-97818012D01*
X87071200Y-95278691D01*
X87465000Y-95278691D01*
X87465000Y-96869250D01*
X87623750Y-97028000D01*
X88773000Y-97028000D01*
X88773000Y-94928750D01*
X89027000Y-94928750D01*
X89027000Y-97028000D01*
X90176250Y-97028000D01*
X90335000Y-96869250D01*
X90335000Y-96688690D01*
X92880000Y-96688690D01*
X92880000Y-97129250D01*
X93038750Y-97288000D01*
X94488000Y-97288000D01*
X94488000Y-96338750D01*
X94742000Y-96338750D01*
X94742000Y-97288000D01*
X96191250Y-97288000D01*
X96350000Y-97129250D01*
X96350000Y-96688690D01*
X96253327Y-96455301D01*
X96074698Y-96276673D01*
X95841309Y-96180000D01*
X94900750Y-96180000D01*
X94742000Y-96338750D01*
X94488000Y-96338750D01*
X94329250Y-96180000D01*
X93388691Y-96180000D01*
X93155302Y-96276673D01*
X92976673Y-96455301D01*
X92880000Y-96688690D01*
X90335000Y-96688690D01*
X90335000Y-95278691D01*
X90238327Y-95045302D01*
X90059699Y-94866673D01*
X89826310Y-94770000D01*
X89185750Y-94770000D01*
X89027000Y-94928750D01*
X88773000Y-94928750D01*
X88614250Y-94770000D01*
X87973690Y-94770000D01*
X87740301Y-94866673D01*
X87561673Y-95045302D01*
X87465000Y-95278691D01*
X87071200Y-95278691D01*
X87071200Y-95254939D01*
X87322207Y-95003932D01*
X87495000Y-94586772D01*
X87495000Y-94485788D01*
X88458349Y-93522440D01*
X89700000Y-93522440D01*
X89947765Y-93473157D01*
X90157809Y-93332809D01*
X90298157Y-93122765D01*
X90347440Y-92875000D01*
X90347440Y-91636200D01*
X92709679Y-91636200D01*
X92736843Y-91772765D01*
X92877191Y-91982809D01*
X93087235Y-92123157D01*
X93335000Y-92172440D01*
X95535000Y-92172440D01*
X95782765Y-92123157D01*
X95992809Y-91982809D01*
X96133157Y-91772765D01*
X96182440Y-91525000D01*
X96182440Y-90325000D01*
X96133157Y-90077235D01*
X95992809Y-89867191D01*
X95869802Y-89785000D01*
X95992809Y-89702809D01*
X96133157Y-89492765D01*
X96160321Y-89356200D01*
X96887560Y-89356200D01*
X96887560Y-91545000D01*
X96936843Y-91792765D01*
X97077191Y-92002809D01*
X97287235Y-92143157D01*
X97535000Y-92192440D01*
X103935000Y-92192440D01*
X104182765Y-92143157D01*
X104392809Y-92002809D01*
X104533157Y-91792765D01*
X104582440Y-91545000D01*
X104582440Y-91516200D01*
X107137560Y-91516200D01*
X107137560Y-92305000D01*
X107186843Y-92552765D01*
X107327191Y-92762809D01*
X107537235Y-92903157D01*
X107785000Y-92952440D01*
X109385000Y-92952440D01*
X109632765Y-92903157D01*
X109842809Y-92762809D01*
X109983157Y-92552765D01*
X110032440Y-92305000D01*
X110032440Y-91516200D01*
X114676067Y-91516200D01*
X114927074Y-91767207D01*
X115344234Y-91940000D01*
X115795766Y-91940000D01*
X116212926Y-91767207D01*
X116532207Y-91447926D01*
X116705000Y-91030766D01*
X116705000Y-90579234D01*
X116532207Y-90162074D01*
X116212926Y-89842793D01*
X115795766Y-89670000D01*
X115344234Y-89670000D01*
X114927074Y-89842793D01*
X114676067Y-90093800D01*
X110032440Y-90093800D01*
X110032440Y-89305000D01*
X109983157Y-89057235D01*
X109842809Y-88847191D01*
X109632765Y-88706843D01*
X109385000Y-88657560D01*
X107785000Y-88657560D01*
X107537235Y-88706843D01*
X107327191Y-88847191D01*
X107186843Y-89057235D01*
X107137560Y-89305000D01*
X107137560Y-90093800D01*
X104582440Y-90093800D01*
X104582440Y-86690750D01*
X107150000Y-86690750D01*
X107150000Y-88031309D01*
X107246673Y-88264698D01*
X107425301Y-88443327D01*
X107658690Y-88540000D01*
X108299250Y-88540000D01*
X108458000Y-88381250D01*
X108458000Y-86532000D01*
X108712000Y-86532000D01*
X108712000Y-88381250D01*
X108870750Y-88540000D01*
X109511310Y-88540000D01*
X109744699Y-88443327D01*
X109923327Y-88264698D01*
X110020000Y-88031309D01*
X110020000Y-86690750D01*
X109861250Y-86532000D01*
X108712000Y-86532000D01*
X108458000Y-86532000D01*
X107308750Y-86532000D01*
X107150000Y-86690750D01*
X104582440Y-86690750D01*
X104582440Y-85745000D01*
X104533157Y-85497235D01*
X104392809Y-85287191D01*
X104182765Y-85146843D01*
X103935000Y-85097560D01*
X97535000Y-85097560D01*
X97287235Y-85146843D01*
X97077191Y-85287191D01*
X96936843Y-85497235D01*
X96887560Y-85745000D01*
X96887560Y-87933800D01*
X96160321Y-87933800D01*
X96133157Y-87797235D01*
X95992809Y-87587191D01*
X95877784Y-87510333D01*
X95894698Y-87503327D01*
X96073327Y-87324699D01*
X96170000Y-87091310D01*
X96170000Y-86650750D01*
X96011250Y-86492000D01*
X94562000Y-86492000D01*
X94562000Y-86512000D01*
X94308000Y-86512000D01*
X94308000Y-86492000D01*
X92858750Y-86492000D01*
X92700000Y-86650750D01*
X92700000Y-87091310D01*
X92796673Y-87324699D01*
X92975302Y-87503327D01*
X92992216Y-87510333D01*
X92877191Y-87587191D01*
X92736843Y-87797235D01*
X92687560Y-88045000D01*
X92687560Y-89245000D01*
X92736843Y-89492765D01*
X92877191Y-89702809D01*
X93000198Y-89785000D01*
X92877191Y-89867191D01*
X92736843Y-90077235D01*
X92709679Y-90213800D01*
X90347440Y-90213800D01*
X90347440Y-89375000D01*
X90298157Y-89127235D01*
X90157809Y-88917191D01*
X89947765Y-88776843D01*
X89700000Y-88727560D01*
X88100000Y-88727560D01*
X87852235Y-88776843D01*
X87642191Y-88917191D01*
X87501843Y-89127235D01*
X87452560Y-89375000D01*
X87452560Y-92516651D01*
X86697093Y-93272119D01*
X86585766Y-93226006D01*
X86134234Y-93226006D01*
X85717074Y-93398799D01*
X85397793Y-93718080D01*
X85225000Y-94135240D01*
X68072000Y-94135240D01*
X68072000Y-90079852D01*
X80480417Y-90079852D01*
X80579080Y-90346707D01*
X81188805Y-90573228D01*
X81838804Y-90549176D01*
X82327608Y-90346707D01*
X82426271Y-90079852D01*
X81453344Y-89106925D01*
X80480417Y-90079852D01*
X68072000Y-90079852D01*
X68072000Y-88662781D01*
X79807436Y-88662781D01*
X79831488Y-89312780D01*
X80033957Y-89801584D01*
X80300812Y-89900247D01*
X81273739Y-88927320D01*
X81632949Y-88927320D01*
X82605876Y-89900247D01*
X82872731Y-89801584D01*
X83099252Y-89191859D01*
X83075200Y-88541860D01*
X82872731Y-88053056D01*
X82605876Y-87954393D01*
X81632949Y-88927320D01*
X81273739Y-88927320D01*
X80300812Y-87954393D01*
X80033957Y-88053056D01*
X79807436Y-88662781D01*
X68072000Y-88662781D01*
X68072000Y-87774788D01*
X80480417Y-87774788D01*
X81453344Y-88747715D01*
X82426271Y-87774788D01*
X82327608Y-87507933D01*
X81717883Y-87281412D01*
X81067884Y-87305464D01*
X80579080Y-87507933D01*
X80480417Y-87774788D01*
X68072000Y-87774788D01*
X68072000Y-86010750D01*
X87465000Y-86010750D01*
X87465000Y-87601309D01*
X87561673Y-87834698D01*
X87740301Y-88013327D01*
X87973690Y-88110000D01*
X88614250Y-88110000D01*
X88773000Y-87951250D01*
X88773000Y-85852000D01*
X89027000Y-85852000D01*
X89027000Y-87951250D01*
X89185750Y-88110000D01*
X89826310Y-88110000D01*
X90059699Y-88013327D01*
X90238327Y-87834698D01*
X90335000Y-87601309D01*
X90335000Y-86010750D01*
X90176250Y-85852000D01*
X89027000Y-85852000D01*
X88773000Y-85852000D01*
X87623750Y-85852000D01*
X87465000Y-86010750D01*
X68072000Y-86010750D01*
X68072000Y-85638690D01*
X92700000Y-85638690D01*
X92700000Y-86079250D01*
X92858750Y-86238000D01*
X94308000Y-86238000D01*
X94308000Y-85288750D01*
X94562000Y-85288750D01*
X94562000Y-86238000D01*
X96011250Y-86238000D01*
X96170000Y-86079250D01*
X96170000Y-85638690D01*
X96073327Y-85405301D01*
X95894698Y-85226673D01*
X95661309Y-85130000D01*
X94720750Y-85130000D01*
X94562000Y-85288750D01*
X94308000Y-85288750D01*
X94149250Y-85130000D01*
X93208691Y-85130000D01*
X92975302Y-85226673D01*
X92796673Y-85405301D01*
X92700000Y-85638690D01*
X68072000Y-85638690D01*
X68072000Y-83848691D01*
X87465000Y-83848691D01*
X87465000Y-85439250D01*
X87623750Y-85598000D01*
X88773000Y-85598000D01*
X88773000Y-83498750D01*
X89027000Y-83498750D01*
X89027000Y-85598000D01*
X90176250Y-85598000D01*
X90335000Y-85439250D01*
X90335000Y-84778691D01*
X107150000Y-84778691D01*
X107150000Y-86119250D01*
X107308750Y-86278000D01*
X108458000Y-86278000D01*
X108458000Y-84428750D01*
X108712000Y-84428750D01*
X108712000Y-86278000D01*
X109861250Y-86278000D01*
X110020000Y-86119250D01*
X110020000Y-84778691D01*
X109923327Y-84545302D01*
X109744699Y-84366673D01*
X109511310Y-84270000D01*
X108870750Y-84270000D01*
X108712000Y-84428750D01*
X108458000Y-84428750D01*
X108299250Y-84270000D01*
X107658690Y-84270000D01*
X107425301Y-84366673D01*
X107246673Y-84545302D01*
X107150000Y-84778691D01*
X90335000Y-84778691D01*
X90335000Y-83848691D01*
X90238327Y-83615302D01*
X90059699Y-83436673D01*
X89826310Y-83340000D01*
X89185750Y-83340000D01*
X89027000Y-83498750D01*
X88773000Y-83498750D01*
X88614250Y-83340000D01*
X87973690Y-83340000D01*
X87740301Y-83436673D01*
X87561673Y-83615302D01*
X87465000Y-83848691D01*
X68072000Y-83848691D01*
X68072000Y-74930000D01*
X140725908Y-74930000D01*
X140841161Y-75509418D01*
X141169375Y-76000625D01*
X141660582Y-76328839D01*
X142093744Y-76415000D01*
X142386256Y-76415000D01*
X142819418Y-76328839D01*
X143310625Y-76000625D01*
X143510000Y-75702239D01*
X143709375Y-76000625D01*
X144068801Y-76240786D01*
X144068801Y-76540410D01*
X143091652Y-77517560D01*
X142424999Y-77517560D01*
X142081564Y-77585873D01*
X141790414Y-77780414D01*
X141595873Y-78071564D01*
X141527560Y-78414999D01*
X141527560Y-79065001D01*
X141595873Y-79408436D01*
X141790414Y-79699586D01*
X141888313Y-79765000D01*
X141790414Y-79830414D01*
X141595873Y-80121564D01*
X141527560Y-80464999D01*
X141527560Y-81115001D01*
X141595873Y-81458436D01*
X141790414Y-81749586D01*
X142081564Y-81944127D01*
X142424999Y-82012440D01*
X143325001Y-82012440D01*
X143668436Y-81944127D01*
X143959586Y-81749586D01*
X144125553Y-81501200D01*
X147974447Y-81501200D01*
X148140414Y-81749586D01*
X148431564Y-81944127D01*
X148774999Y-82012440D01*
X149675001Y-82012440D01*
X150018436Y-81944127D01*
X150309586Y-81749586D01*
X150475553Y-81501200D01*
X151361067Y-81501200D01*
X151612074Y-81752207D01*
X152029234Y-81925000D01*
X152480766Y-81925000D01*
X152897926Y-81752207D01*
X153217207Y-81432926D01*
X153390000Y-81015766D01*
X153390000Y-80564234D01*
X153217207Y-80147074D01*
X152897926Y-79827793D01*
X152480766Y-79655000D01*
X152029234Y-79655000D01*
X151612074Y-79827793D01*
X151361067Y-80078800D01*
X150475553Y-80078800D01*
X150309586Y-79830414D01*
X150308403Y-79829623D01*
X150463327Y-79674698D01*
X150560000Y-79441309D01*
X150560000Y-79025750D01*
X150401250Y-78867000D01*
X149352000Y-78867000D01*
X149352000Y-78887000D01*
X149098000Y-78887000D01*
X149098000Y-78867000D01*
X148048750Y-78867000D01*
X147890000Y-79025750D01*
X147890000Y-79441309D01*
X147986673Y-79674698D01*
X148141597Y-79829623D01*
X148140414Y-79830414D01*
X147974447Y-80078800D01*
X144125553Y-80078800D01*
X143959586Y-79830414D01*
X143861687Y-79765000D01*
X143959586Y-79699586D01*
X144154127Y-79408436D01*
X144222440Y-79065001D01*
X144222440Y-78414999D01*
X144219678Y-78401111D01*
X144582098Y-78038691D01*
X147890000Y-78038691D01*
X147890000Y-78454250D01*
X148048750Y-78613000D01*
X149098000Y-78613000D01*
X149098000Y-77688750D01*
X149352000Y-77688750D01*
X149352000Y-78613000D01*
X150401250Y-78613000D01*
X150560000Y-78454250D01*
X150560000Y-78038691D01*
X150463327Y-77805302D01*
X150284699Y-77626673D01*
X150051310Y-77530000D01*
X149510750Y-77530000D01*
X149352000Y-77688750D01*
X149098000Y-77688750D01*
X148939250Y-77530000D01*
X148398690Y-77530000D01*
X148165301Y-77626673D01*
X147986673Y-77805302D01*
X147890000Y-78038691D01*
X144582098Y-78038691D01*
X145233367Y-77387422D01*
X145292746Y-77347746D01*
X145332422Y-77288367D01*
X145332424Y-77288365D01*
X145449935Y-77112497D01*
X145449936Y-77112496D01*
X145491200Y-76905046D01*
X145491200Y-76905042D01*
X145505132Y-76835000D01*
X145491200Y-76764958D01*
X145491200Y-76240785D01*
X145850625Y-76000625D01*
X145865096Y-75978967D01*
X145931673Y-76139698D01*
X146110301Y-76318327D01*
X146343690Y-76415000D01*
X147034250Y-76415000D01*
X147193000Y-76256250D01*
X147193000Y-75057000D01*
X147447000Y-75057000D01*
X147447000Y-76256250D01*
X147605750Y-76415000D01*
X148296310Y-76415000D01*
X148529699Y-76318327D01*
X148708327Y-76139698D01*
X148805000Y-75906309D01*
X148805000Y-75215750D01*
X148646250Y-75057000D01*
X147447000Y-75057000D01*
X147193000Y-75057000D01*
X147173000Y-75057000D01*
X147173000Y-74803000D01*
X147193000Y-74803000D01*
X147193000Y-73603750D01*
X147447000Y-73603750D01*
X147447000Y-74803000D01*
X148646250Y-74803000D01*
X148805000Y-74644250D01*
X148805000Y-73953691D01*
X148708327Y-73720302D01*
X148529699Y-73541673D01*
X148296310Y-73445000D01*
X147605750Y-73445000D01*
X147447000Y-73603750D01*
X147193000Y-73603750D01*
X147034250Y-73445000D01*
X146343690Y-73445000D01*
X146110301Y-73541673D01*
X145931673Y-73720302D01*
X145865096Y-73881033D01*
X145850625Y-73859375D01*
X145359418Y-73531161D01*
X144926256Y-73445000D01*
X144633744Y-73445000D01*
X144200582Y-73531161D01*
X143709375Y-73859375D01*
X143510000Y-74157761D01*
X143310625Y-73859375D01*
X142819418Y-73531161D01*
X142386256Y-73445000D01*
X142093744Y-73445000D01*
X141660582Y-73531161D01*
X141169375Y-73859375D01*
X140841161Y-74350582D01*
X140725908Y-74930000D01*
X68072000Y-74930000D01*
X68072000Y-64897000D01*
X145832600Y-64897000D01*
X145832600Y-67606753D01*
X145832600Y-67606753D01*
G37*
X145832600Y-67606753D02*
X145818667Y-67676799D01*
X145873864Y-67954295D01*
X145991375Y-68130163D01*
X145991378Y-68130166D01*
X146031054Y-68189545D01*
X146090433Y-68229221D01*
X146753377Y-68892166D01*
X146793053Y-68951545D01*
X146852432Y-68991221D01*
X146852434Y-68991223D01*
X146964142Y-69065864D01*
X147028303Y-69108735D01*
X147235753Y-69149999D01*
X147235757Y-69149999D01*
X147305799Y-69163931D01*
X147375841Y-69149999D01*
X155710000Y-69149999D01*
X155710000Y-69440766D01*
X155882793Y-69857926D01*
X156133801Y-70108934D01*
X156133800Y-71496083D01*
X155882793Y-71747090D01*
X155710000Y-72164250D01*
X155710000Y-72615782D01*
X155882793Y-73032942D01*
X156202074Y-73352223D01*
X156619234Y-73525016D01*
X157070766Y-73525016D01*
X157480036Y-73355491D01*
X157889234Y-73524986D01*
X158340766Y-73524986D01*
X158757926Y-73352193D01*
X159077207Y-73032912D01*
X159250000Y-72615752D01*
X159250000Y-72164220D01*
X159077207Y-71747060D01*
X158826200Y-71496053D01*
X158826200Y-70108933D01*
X159077207Y-69857926D01*
X159250000Y-69440766D01*
X159250000Y-69149999D01*
X162622594Y-69149999D01*
X166903994Y-73431400D01*
X166877998Y-73431400D01*
X166877998Y-73590148D01*
X166719250Y-73431400D01*
X166015090Y-73431400D01*
X165781701Y-73528073D01*
X165603073Y-73706702D01*
X165544228Y-73848767D01*
X165049725Y-73518350D01*
X164612598Y-73431400D01*
X164317402Y-73431400D01*
X163880275Y-73518350D01*
X163384570Y-73849570D01*
X163195000Y-74133281D01*
X163005430Y-73849570D01*
X162509725Y-73518350D01*
X162072598Y-73431400D01*
X161777402Y-73431400D01*
X161340275Y-73518350D01*
X160844570Y-73849570D01*
X160513350Y-74345275D01*
X160397041Y-74930000D01*
X160513350Y-75514725D01*
X160844570Y-76010430D01*
X161128281Y-76200000D01*
X160844570Y-76389570D01*
X160513350Y-76885275D01*
X160397041Y-77470000D01*
X160513350Y-78054725D01*
X160844570Y-78550430D01*
X161340275Y-78881650D01*
X161777402Y-78968600D01*
X162072598Y-78968600D01*
X162360537Y-78911325D01*
X165182578Y-81733367D01*
X165222254Y-81792746D01*
X165281633Y-81832422D01*
X165281635Y-81832424D01*
X165397336Y-81909733D01*
X165457504Y-81949936D01*
X165664954Y-81991200D01*
X165664958Y-81991200D01*
X165735000Y-82005132D01*
X165805042Y-81991200D01*
X172461073Y-81991200D01*
X172712080Y-82242207D01*
X173129240Y-82415000D01*
X173580772Y-82415000D01*
X173997932Y-82242207D01*
X174317213Y-81922926D01*
X174490006Y-81505766D01*
X174490006Y-81150788D01*
X179999595Y-75641200D01*
X182380000Y-75641200D01*
X182380000Y-75931966D01*
X182552793Y-76349126D01*
X182803801Y-76600134D01*
X182803800Y-79116067D01*
X182552793Y-79367074D01*
X182380000Y-79784234D01*
X182380000Y-80235766D01*
X182552793Y-80652926D01*
X182872074Y-80972207D01*
X183289234Y-81145000D01*
X183740766Y-81145000D01*
X184157926Y-80972207D01*
X184477207Y-80652926D01*
X184650000Y-80235766D01*
X184650000Y-79784234D01*
X184477207Y-79367074D01*
X184226200Y-79116067D01*
X184226200Y-76600133D01*
X184477207Y-76349126D01*
X184650000Y-75931966D01*
X184650000Y-75641200D01*
X185379215Y-75641200D01*
X185619375Y-76000625D01*
X186110582Y-76328839D01*
X186543744Y-76415000D01*
X186836256Y-76415000D01*
X187269418Y-76328839D01*
X187760625Y-76000625D01*
X187960000Y-75702239D01*
X188159375Y-76000625D01*
X188650582Y-76328839D01*
X189083744Y-76415000D01*
X189376256Y-76415000D01*
X189809418Y-76328839D01*
X190300625Y-76000625D01*
X190500000Y-75702239D01*
X190699375Y-76000625D01*
X191190582Y-76328839D01*
X191623744Y-76415000D01*
X191916256Y-76415000D01*
X192349418Y-76328839D01*
X192840625Y-76000625D01*
X192855096Y-75978967D01*
X192921673Y-76139698D01*
X193100301Y-76318327D01*
X193333690Y-76415000D01*
X194024250Y-76415000D01*
X194183000Y-76256250D01*
X194183000Y-75057000D01*
X194437000Y-75057000D01*
X194437000Y-76256250D01*
X194595750Y-76415000D01*
X195286310Y-76415000D01*
X195519699Y-76318327D01*
X195698327Y-76139698D01*
X195795000Y-75906309D01*
X195795000Y-75215750D01*
X195636250Y-75057000D01*
X194437000Y-75057000D01*
X194183000Y-75057000D01*
X194163000Y-75057000D01*
X194163000Y-74803000D01*
X194183000Y-74803000D01*
X194183000Y-73603750D01*
X194437000Y-73603750D01*
X194437000Y-74803000D01*
X195636250Y-74803000D01*
X195795000Y-74644250D01*
X195795000Y-73953691D01*
X195698327Y-73720302D01*
X195519699Y-73541673D01*
X195286310Y-73445000D01*
X194595750Y-73445000D01*
X194437000Y-73603750D01*
X194183000Y-73603750D01*
X194024250Y-73445000D01*
X193333690Y-73445000D01*
X193100301Y-73541673D01*
X192921673Y-73720302D01*
X192855096Y-73881033D01*
X192840625Y-73859375D01*
X192349418Y-73531161D01*
X191916256Y-73445000D01*
X191623744Y-73445000D01*
X191190582Y-73531161D01*
X190699375Y-73859375D01*
X190500000Y-74157761D01*
X190300625Y-73859375D01*
X189809418Y-73531161D01*
X189376256Y-73445000D01*
X189083744Y-73445000D01*
X188650582Y-73531161D01*
X188159375Y-73859375D01*
X187960000Y-74157761D01*
X187760625Y-73859375D01*
X187269418Y-73531161D01*
X186836256Y-73445000D01*
X186543744Y-73445000D01*
X186110582Y-73531161D01*
X185619375Y-73859375D01*
X185379215Y-74218800D01*
X179775048Y-74218800D01*
X179705006Y-74204868D01*
X179634964Y-74218800D01*
X179634960Y-74218800D01*
X179427510Y-74260064D01*
X179427508Y-74260065D01*
X179427509Y-74260065D01*
X179251641Y-74377576D01*
X179251639Y-74377578D01*
X179192260Y-74417254D01*
X179152584Y-74476633D01*
X173484218Y-80145000D01*
X173129240Y-80145000D01*
X172712080Y-80317793D01*
X172461073Y-80568800D01*
X166029589Y-80568800D01*
X164429389Y-78968600D01*
X164612598Y-78968600D01*
X165049725Y-78881650D01*
X165545430Y-78550430D01*
X165735000Y-78266719D01*
X165924570Y-78550430D01*
X166420275Y-78881650D01*
X166857402Y-78968600D01*
X167152598Y-78968600D01*
X167589725Y-78881650D01*
X168085430Y-78550430D01*
X168416650Y-78054725D01*
X168532959Y-77470000D01*
X168446325Y-77034463D01*
X168728364Y-76752424D01*
X168787746Y-76712746D01*
X168944936Y-76477496D01*
X168986200Y-76270046D01*
X168986200Y-76270042D01*
X169000132Y-76200000D01*
X168986200Y-76129958D01*
X168986200Y-73866659D01*
X169000132Y-73796617D01*
X168986200Y-73726575D01*
X168986200Y-73726571D01*
X168944936Y-73519121D01*
X168921371Y-73483854D01*
X168827424Y-73343252D01*
X168827420Y-73343248D01*
X168787745Y-73283871D01*
X168728369Y-73244197D01*
X166327962Y-70843790D01*
X166499212Y-70843790D01*
X170103801Y-74448380D01*
X170103800Y-77704867D01*
X169852793Y-77955874D01*
X169680000Y-78373034D01*
X169680000Y-78824566D01*
X169852793Y-79241726D01*
X170172074Y-79561007D01*
X170589234Y-79733800D01*
X171040766Y-79733800D01*
X171457926Y-79561007D01*
X171777207Y-79241726D01*
X171950000Y-78824566D01*
X171950000Y-78373034D01*
X171777207Y-77955874D01*
X171526200Y-77704867D01*
X171526200Y-74223831D01*
X171540132Y-74153789D01*
X171526200Y-74083747D01*
X171526200Y-74083744D01*
X171484936Y-73876294D01*
X171473631Y-73859375D01*
X171367424Y-73700425D01*
X171367422Y-73700423D01*
X171327746Y-73641044D01*
X171268367Y-73601368D01*
X169901999Y-72235000D01*
X182442560Y-72235000D01*
X182442560Y-73085000D01*
X182491843Y-73332765D01*
X182632191Y-73542809D01*
X182842235Y-73683157D01*
X183090000Y-73732440D01*
X183940000Y-73732440D01*
X184187765Y-73683157D01*
X184397809Y-73542809D01*
X184538157Y-73332765D01*
X184587440Y-73085000D01*
X184587440Y-72235000D01*
X184538157Y-71987235D01*
X184526420Y-71969669D01*
X184534540Y-71950062D01*
X184407257Y-71787000D01*
X184404363Y-71787000D01*
X184397809Y-71777191D01*
X184187765Y-71636843D01*
X183940000Y-71587560D01*
X183090000Y-71587560D01*
X182842235Y-71636843D01*
X182632191Y-71777191D01*
X182625637Y-71787000D01*
X182622743Y-71787000D01*
X182495460Y-71950062D01*
X182503580Y-71969669D01*
X182491843Y-71987235D01*
X182442560Y-72235000D01*
X169901999Y-72235000D01*
X169036937Y-71369938D01*
X182495460Y-71369938D01*
X182622743Y-71533000D01*
X183388000Y-71533000D01*
X183388000Y-70766372D01*
X183642000Y-70766372D01*
X183642000Y-71533000D01*
X184407257Y-71533000D01*
X184534540Y-71369938D01*
X184441041Y-71144174D01*
X184173152Y-70829058D01*
X183805065Y-70640446D01*
X183642000Y-70766372D01*
X183388000Y-70766372D01*
X183224935Y-70640446D01*
X182856848Y-70829058D01*
X182588959Y-71144174D01*
X182495460Y-71369938D01*
X169036937Y-71369938D01*
X167505000Y-69838002D01*
X167505000Y-69483024D01*
X167332207Y-69065864D01*
X167012926Y-68746583D01*
X166595766Y-68573790D01*
X166144234Y-68573790D01*
X165727074Y-68746583D01*
X165407793Y-69065864D01*
X165235000Y-69483024D01*
X165235000Y-69750829D01*
X163469605Y-67985434D01*
X163429928Y-67926053D01*
X163194678Y-67768863D01*
X162987228Y-67727599D01*
X162987223Y-67727599D01*
X162917182Y-67713667D01*
X162847141Y-67727599D01*
X157287659Y-67727599D01*
X157287624Y-67727592D01*
X157287619Y-67727592D01*
X157217578Y-67713660D01*
X157147537Y-67727592D01*
X156542464Y-67727592D01*
X156472422Y-67713660D01*
X156402381Y-67727592D01*
X156402376Y-67727592D01*
X156402341Y-67727599D01*
X147600388Y-67727599D01*
X147254999Y-67382211D01*
X147254999Y-64897000D01*
X201168000Y-64897000D01*
X201168000Y-66144194D01*
X200987424Y-66218991D01*
X200203991Y-67002424D01*
X199780000Y-68026029D01*
X199780000Y-69133971D01*
X200203991Y-70157576D01*
X200987424Y-70941009D01*
X201168000Y-71015806D01*
X201168000Y-115443002D01*
X166129353Y-115443673D01*
X166213327Y-115359699D01*
X166310000Y-115126310D01*
X166310000Y-114585750D01*
X166151250Y-114427000D01*
X165227000Y-114427000D01*
X165227000Y-114447000D01*
X164973000Y-114447000D01*
X164973000Y-114427000D01*
X164953000Y-114427000D01*
X164953000Y-114173000D01*
X164973000Y-114173000D01*
X164973000Y-113123750D01*
X164879250Y-113030000D01*
X164973000Y-112936250D01*
X164973000Y-111887000D01*
X165227000Y-111887000D01*
X165227000Y-112936250D01*
X165320750Y-113030000D01*
X165227000Y-113123750D01*
X165227000Y-114173000D01*
X166151250Y-114173000D01*
X166310000Y-114014250D01*
X166310000Y-113473690D01*
X166213327Y-113240301D01*
X166034698Y-113061673D01*
X165958233Y-113030000D01*
X166034698Y-112998327D01*
X166213327Y-112819699D01*
X166310000Y-112586310D01*
X166310000Y-112045750D01*
X166151250Y-111887000D01*
X165227000Y-111887000D01*
X164973000Y-111887000D01*
X164953000Y-111887000D01*
X164953000Y-111633000D01*
X164973000Y-111633000D01*
X164973000Y-111613000D01*
X165227000Y-111613000D01*
X165227000Y-111633000D01*
X166151250Y-111633000D01*
X166310000Y-111474250D01*
X166310000Y-110933690D01*
X166213327Y-110700301D01*
X166034698Y-110521673D01*
X165801309Y-110425000D01*
X165385750Y-110425000D01*
X165227002Y-110583748D01*
X165227002Y-110425000D01*
X165181624Y-110425000D01*
X165219000Y-110334766D01*
X165219000Y-109883234D01*
X165046207Y-109466074D01*
X164726926Y-109146793D01*
X164309766Y-108974000D01*
X163858234Y-108974000D01*
X163441074Y-109146793D01*
X163121793Y-109466074D01*
X162949000Y-109883234D01*
X162949000Y-110334766D01*
X162981223Y-110412560D01*
X162724999Y-110412560D01*
X162381564Y-110480873D01*
X162090414Y-110675414D01*
X161925770Y-110921821D01*
X161515766Y-110751992D01*
X161064234Y-110751992D01*
X160647074Y-110924785D01*
X160327793Y-111244066D01*
X160155000Y-111661226D01*
X160155000Y-112112758D01*
X160327793Y-112529918D01*
X160578800Y-112780925D01*
X160578801Y-115443779D01*
X159712979Y-115443795D01*
X159712979Y-115212886D01*
X159616306Y-114979497D01*
X159437678Y-114800868D01*
X159204289Y-114704195D01*
X158663729Y-114704195D01*
X158504979Y-114862945D01*
X158504979Y-115443818D01*
X158250979Y-115443823D01*
X158250979Y-114862945D01*
X158092229Y-114704195D01*
X157551669Y-114704195D01*
X157318280Y-114800868D01*
X157139652Y-114979497D01*
X157042979Y-115212886D01*
X157042979Y-115443846D01*
X146774344Y-115444043D01*
X146771047Y-115427467D01*
X146743118Y-115285070D01*
X146742554Y-115284220D01*
X146742354Y-115283217D01*
X146661593Y-115162350D01*
X146581320Y-115041514D01*
X146580473Y-115040945D01*
X146579905Y-115040095D01*
X146459107Y-114959381D01*
X146338633Y-114878416D01*
X146337632Y-114878214D01*
X146336782Y-114877646D01*
X146194091Y-114849263D01*
X146124353Y-114835197D01*
X146123365Y-114835194D01*
X146050000Y-114820601D01*
X145978581Y-114834807D01*
X68072000Y-114626501D01*
X68072000Y-112752119D01*
X68453000Y-112752119D01*
X68453000Y-113307881D01*
X68665680Y-113821337D01*
X69058663Y-114214320D01*
X69572119Y-114427000D01*
X70127881Y-114427000D01*
X70641337Y-114214320D01*
X71034320Y-113821337D01*
X71247000Y-113307881D01*
X71247000Y-112752119D01*
X76073000Y-112752119D01*
X76073000Y-113307881D01*
X76285680Y-113821337D01*
X76678663Y-114214320D01*
X77192119Y-114427000D01*
X77747881Y-114427000D01*
X78261337Y-114214320D01*
X78654320Y-113821337D01*
X78867000Y-113307881D01*
X78867000Y-112752119D01*
X84963000Y-112752119D01*
X84963000Y-113307881D01*
X85175680Y-113821337D01*
X85568663Y-114214320D01*
X86082119Y-114427000D01*
X86637881Y-114427000D01*
X87151337Y-114214320D01*
X87544320Y-113821337D01*
X87757000Y-113307881D01*
X87757000Y-112752119D01*
X92583000Y-112752119D01*
X92583000Y-113307881D01*
X92795680Y-113821337D01*
X93188663Y-114214320D01*
X93702119Y-114427000D01*
X94257881Y-114427000D01*
X94771337Y-114214320D01*
X95164320Y-113821337D01*
X95377000Y-113307881D01*
X95377000Y-112752119D01*
X95271790Y-112498119D01*
X101473000Y-112498119D01*
X101473000Y-113053881D01*
X101685680Y-113567337D01*
X102078663Y-113960320D01*
X102592119Y-114173000D01*
X103147881Y-114173000D01*
X103661337Y-113960320D01*
X104054320Y-113567337D01*
X104267000Y-113053881D01*
X104267000Y-112498119D01*
X109093000Y-112498119D01*
X109093000Y-113053881D01*
X109305680Y-113567337D01*
X109698663Y-113960320D01*
X110212119Y-114173000D01*
X110767881Y-114173000D01*
X111281337Y-113960320D01*
X111674320Y-113567337D01*
X111887000Y-113053881D01*
X111887000Y-112498119D01*
X118237000Y-112498119D01*
X118237000Y-113053881D01*
X118449680Y-113567337D01*
X118842663Y-113960320D01*
X119356119Y-114173000D01*
X119911881Y-114173000D01*
X120425337Y-113960320D01*
X120818320Y-113567337D01*
X121031000Y-113053881D01*
X121031000Y-112498119D01*
X125857000Y-112498119D01*
X125857000Y-113053881D01*
X126069680Y-113567337D01*
X126462663Y-113960320D01*
X126976119Y-114173000D01*
X127531881Y-114173000D01*
X128045337Y-113960320D01*
X128438320Y-113567337D01*
X128651000Y-113053881D01*
X128651000Y-112498119D01*
X135128000Y-112498119D01*
X135128000Y-113053881D01*
X135340680Y-113567337D01*
X135733663Y-113960320D01*
X136247119Y-114173000D01*
X136802881Y-114173000D01*
X137316337Y-113960320D01*
X137709320Y-113567337D01*
X137922000Y-113053881D01*
X137922000Y-112498119D01*
X142748000Y-112498119D01*
X142748000Y-113053881D01*
X142960680Y-113567337D01*
X143353663Y-113960320D01*
X143867119Y-114173000D01*
X144422881Y-114173000D01*
X144936337Y-113960320D01*
X145329320Y-113567337D01*
X145542000Y-113053881D01*
X145542000Y-112498119D01*
X145329320Y-111984663D01*
X144936337Y-111591680D01*
X144422881Y-111379000D01*
X143867119Y-111379000D01*
X143353663Y-111591680D01*
X142960680Y-111984663D01*
X142748000Y-112498119D01*
X137922000Y-112498119D01*
X137709320Y-111984663D01*
X137316337Y-111591680D01*
X136802881Y-111379000D01*
X136247119Y-111379000D01*
X135733663Y-111591680D01*
X135340680Y-111984663D01*
X135128000Y-112498119D01*
X128651000Y-112498119D01*
X128438320Y-111984663D01*
X128045337Y-111591680D01*
X127531881Y-111379000D01*
X126976119Y-111379000D01*
X126462663Y-111591680D01*
X126069680Y-111984663D01*
X125857000Y-112498119D01*
X121031000Y-112498119D01*
X120818320Y-111984663D01*
X120425337Y-111591680D01*
X119911881Y-111379000D01*
X119356119Y-111379000D01*
X118842663Y-111591680D01*
X118449680Y-111984663D01*
X118237000Y-112498119D01*
X111887000Y-112498119D01*
X111674320Y-111984663D01*
X111281337Y-111591680D01*
X110767881Y-111379000D01*
X110212119Y-111379000D01*
X109698663Y-111591680D01*
X109305680Y-111984663D01*
X109093000Y-112498119D01*
X104267000Y-112498119D01*
X104054320Y-111984663D01*
X103661337Y-111591680D01*
X103147881Y-111379000D01*
X102592119Y-111379000D01*
X102078663Y-111591680D01*
X101685680Y-111984663D01*
X101473000Y-112498119D01*
X95271790Y-112498119D01*
X95164320Y-112238663D01*
X94771337Y-111845680D01*
X94257881Y-111633000D01*
X93702119Y-111633000D01*
X93188663Y-111845680D01*
X92795680Y-112238663D01*
X92583000Y-112752119D01*
X87757000Y-112752119D01*
X87544320Y-112238663D01*
X87151337Y-111845680D01*
X86637881Y-111633000D01*
X86082119Y-111633000D01*
X85568663Y-111845680D01*
X85175680Y-112238663D01*
X84963000Y-112752119D01*
X78867000Y-112752119D01*
X78654320Y-112238663D01*
X78261337Y-111845680D01*
X77747881Y-111633000D01*
X77192119Y-111633000D01*
X76678663Y-111845680D01*
X76285680Y-112238663D01*
X76073000Y-112752119D01*
X71247000Y-112752119D01*
X71034320Y-112238663D01*
X70641337Y-111845680D01*
X70127881Y-111633000D01*
X69572119Y-111633000D01*
X69058663Y-111845680D01*
X68665680Y-112238663D01*
X68453000Y-112752119D01*
X68072000Y-112752119D01*
X68072000Y-107343244D01*
X111895000Y-107343244D01*
X111895000Y-107794776D01*
X112067793Y-108211936D01*
X112318800Y-108462943D01*
X112318801Y-109850066D01*
X112067793Y-110101074D01*
X111895000Y-110518234D01*
X111895000Y-110969766D01*
X112067793Y-111386926D01*
X112387074Y-111706207D01*
X112804234Y-111879000D01*
X113255766Y-111879000D01*
X113672926Y-111706207D01*
X113992207Y-111386926D01*
X114165000Y-110969766D01*
X114165000Y-110518234D01*
X113992207Y-110101074D01*
X113741200Y-109850067D01*
X113741200Y-108462943D01*
X113992207Y-108211936D01*
X114165000Y-107794776D01*
X114165000Y-107343244D01*
X113992207Y-106926084D01*
X113672926Y-106606803D01*
X113255766Y-106434010D01*
X112804234Y-106434010D01*
X112387074Y-106606803D01*
X112067793Y-106926084D01*
X111895000Y-107343244D01*
X68072000Y-107343244D01*
X68072000Y-96222098D01*
X79817344Y-96222098D01*
X79817344Y-96872542D01*
X80066258Y-97473473D01*
X80526191Y-97933406D01*
X81127122Y-98182320D01*
X81777566Y-98182320D01*
X82378497Y-97933406D01*
X82838430Y-97473473D01*
X83087344Y-96872542D01*
X83087344Y-96222098D01*
X82838430Y-95621167D01*
X82378497Y-95161234D01*
X81777566Y-94912320D01*
X81127122Y-94912320D01*
X80526191Y-95161234D01*
X80066258Y-95621167D01*
X79817344Y-96222098D01*
X68072000Y-96222098D01*
X68072000Y-94135240D01*
X85225000Y-94135240D01*
X85225000Y-94586772D01*
X85397793Y-95003932D01*
X85648801Y-95254940D01*
X85648800Y-98042558D01*
X85634868Y-98112600D01*
X85648800Y-98182641D01*
X85648800Y-98182645D01*
X85690064Y-98390095D01*
X85690065Y-98390096D01*
X85807576Y-98565964D01*
X85807578Y-98565966D01*
X85847254Y-98625345D01*
X85906634Y-98665022D01*
X87620806Y-100379195D01*
X87501843Y-100557235D01*
X87452560Y-100805000D01*
X87452560Y-104305000D01*
X87501843Y-104552765D01*
X87642191Y-104762809D01*
X87852235Y-104903157D01*
X88100000Y-104952440D01*
X89700000Y-104952440D01*
X89947765Y-104903157D01*
X90157809Y-104762809D01*
X90298157Y-104552765D01*
X90347440Y-104305000D01*
X90347440Y-102686200D01*
X92889679Y-102686200D01*
X92916843Y-102822765D01*
X93057191Y-103032809D01*
X93267235Y-103173157D01*
X93515000Y-103222440D01*
X95715000Y-103222440D01*
X95962765Y-103173157D01*
X96172809Y-103032809D01*
X96313157Y-102822765D01*
X96362440Y-102575000D01*
X96362440Y-101375000D01*
X96313157Y-101127235D01*
X96172809Y-100917191D01*
X96049802Y-100835000D01*
X96172809Y-100752809D01*
X96313157Y-100542765D01*
X96340321Y-100406200D01*
X97067560Y-100406200D01*
X97067560Y-102595000D01*
X97116843Y-102842765D01*
X97257191Y-103052809D01*
X97467235Y-103193157D01*
X97715000Y-103242440D01*
X104115000Y-103242440D01*
X104362765Y-103193157D01*
X104572809Y-103052809D01*
X104644043Y-102946200D01*
X107137560Y-102946200D01*
X107137560Y-103735000D01*
X107186843Y-103982765D01*
X107327191Y-104192809D01*
X107537235Y-104333157D01*
X107785000Y-104382440D01*
X109385000Y-104382440D01*
X109632765Y-104333157D01*
X109842809Y-104192809D01*
X109983157Y-103982765D01*
X110032440Y-103735000D01*
X110032440Y-102946200D01*
X110866067Y-102946200D01*
X111117074Y-103197207D01*
X111534234Y-103370000D01*
X111985766Y-103370000D01*
X112402926Y-103197207D01*
X112722207Y-102877926D01*
X112895000Y-102460766D01*
X112895000Y-102009234D01*
X165870000Y-102009234D01*
X165870000Y-102460766D01*
X166042793Y-102877926D01*
X166293800Y-103128933D01*
X166293801Y-105786066D01*
X166042793Y-106037074D01*
X165870000Y-106454234D01*
X165870000Y-106905766D01*
X166042793Y-107322926D01*
X166362074Y-107642207D01*
X166779234Y-107815000D01*
X167230766Y-107815000D01*
X167647926Y-107642207D01*
X167967207Y-107322926D01*
X168140000Y-106905766D01*
X168140000Y-106454234D01*
X167967207Y-106037074D01*
X167716200Y-105786067D01*
X167716200Y-103128933D01*
X167967207Y-102877926D01*
X168140000Y-102460766D01*
X168140000Y-102009234D01*
X169045000Y-102009234D01*
X169045000Y-102460766D01*
X169217793Y-102877926D01*
X169468800Y-103128933D01*
X169468801Y-105786066D01*
X169217793Y-106037074D01*
X169045000Y-106454234D01*
X169045000Y-106905766D01*
X169217793Y-107322926D01*
X169537074Y-107642207D01*
X169954234Y-107815000D01*
X170405766Y-107815000D01*
X170822926Y-107642207D01*
X171142207Y-107322926D01*
X171315000Y-106905766D01*
X171315000Y-106454234D01*
X171142207Y-106037074D01*
X170891200Y-105786067D01*
X170891200Y-103128933D01*
X171142207Y-102877926D01*
X171315000Y-102460766D01*
X171315000Y-102009234D01*
X171142207Y-101592074D01*
X170822926Y-101272793D01*
X170405766Y-101100000D01*
X169954234Y-101100000D01*
X169537074Y-101272793D01*
X169217793Y-101592074D01*
X169045000Y-102009234D01*
X168140000Y-102009234D01*
X167967207Y-101592074D01*
X167647926Y-101272793D01*
X167230766Y-101100000D01*
X166779234Y-101100000D01*
X166362074Y-101272793D01*
X166042793Y-101592074D01*
X165870000Y-102009234D01*
X112895000Y-102009234D01*
X112722207Y-101592074D01*
X112402926Y-101272793D01*
X111985766Y-101100000D01*
X111534234Y-101100000D01*
X111117074Y-101272793D01*
X110866067Y-101523800D01*
X110032440Y-101523800D01*
X110032440Y-100735000D01*
X109983157Y-100487235D01*
X109842809Y-100277191D01*
X109632765Y-100136843D01*
X109385000Y-100087560D01*
X107785000Y-100087560D01*
X107537235Y-100136843D01*
X107327191Y-100277191D01*
X107186843Y-100487235D01*
X107137560Y-100735000D01*
X107137560Y-101523800D01*
X104762440Y-101523800D01*
X104762440Y-98120750D01*
X107150000Y-98120750D01*
X107150000Y-99461309D01*
X107246673Y-99694698D01*
X107425301Y-99873327D01*
X107658690Y-99970000D01*
X108299250Y-99970000D01*
X108458000Y-99811250D01*
X108458000Y-97962000D01*
X108712000Y-97962000D01*
X108712000Y-99811250D01*
X108870750Y-99970000D01*
X109511310Y-99970000D01*
X109744699Y-99873327D01*
X109923327Y-99694698D01*
X110020000Y-99461309D01*
X110020000Y-98120750D01*
X109861250Y-97962000D01*
X108712000Y-97962000D01*
X108458000Y-97962000D01*
X107308750Y-97962000D01*
X107150000Y-98120750D01*
X104762440Y-98120750D01*
X104762440Y-96795000D01*
X104713157Y-96547235D01*
X104572809Y-96337191D01*
X104380497Y-96208691D01*
X107150000Y-96208691D01*
X107150000Y-97549250D01*
X107308750Y-97708000D01*
X108458000Y-97708000D01*
X108458000Y-95858750D01*
X108712000Y-95858750D01*
X108712000Y-97708000D01*
X109861250Y-97708000D01*
X110020000Y-97549250D01*
X110020000Y-96208691D01*
X109923327Y-95975302D01*
X109744699Y-95796673D01*
X109511310Y-95700000D01*
X108870750Y-95700000D01*
X108712000Y-95858750D01*
X108458000Y-95858750D01*
X108299250Y-95700000D01*
X107658690Y-95700000D01*
X107425301Y-95796673D01*
X107246673Y-95975302D01*
X107150000Y-96208691D01*
X104380497Y-96208691D01*
X104362765Y-96196843D01*
X104115000Y-96147560D01*
X97715000Y-96147560D01*
X97467235Y-96196843D01*
X97257191Y-96337191D01*
X97116843Y-96547235D01*
X97067560Y-96795000D01*
X97067560Y-98983800D01*
X96340321Y-98983800D01*
X96313157Y-98847235D01*
X96172809Y-98637191D01*
X96057784Y-98560333D01*
X96074698Y-98553327D01*
X96253327Y-98374699D01*
X96350000Y-98141310D01*
X96350000Y-97700750D01*
X96191250Y-97542000D01*
X94742000Y-97542000D01*
X94742000Y-97562000D01*
X94488000Y-97562000D01*
X94488000Y-97542000D01*
X93038750Y-97542000D01*
X92880000Y-97700750D01*
X92880000Y-98141310D01*
X92976673Y-98374699D01*
X93155302Y-98553327D01*
X93172216Y-98560333D01*
X93057191Y-98637191D01*
X92916843Y-98847235D01*
X92867560Y-99095000D01*
X92867560Y-100295000D01*
X92916843Y-100542765D01*
X93057191Y-100752809D01*
X93180198Y-100835000D01*
X93057191Y-100917191D01*
X92916843Y-101127235D01*
X92889679Y-101263800D01*
X90347440Y-101263800D01*
X90347440Y-100805000D01*
X90298157Y-100557235D01*
X90157809Y-100347191D01*
X89947765Y-100206843D01*
X89700000Y-100157560D01*
X89424577Y-100157560D01*
X89412746Y-100139854D01*
X89353367Y-100100178D01*
X88703719Y-99450531D01*
X88773000Y-99381250D01*
X88773000Y-97282000D01*
X89027000Y-97282000D01*
X89027000Y-99381250D01*
X89185750Y-99540000D01*
X89826310Y-99540000D01*
X90059699Y-99443327D01*
X90238327Y-99264698D01*
X90335000Y-99031309D01*
X90335000Y-97440750D01*
X90176250Y-97282000D01*
X89027000Y-97282000D01*
X88773000Y-97282000D01*
X87623750Y-97282000D01*
X87465000Y-97440750D01*
X87465000Y-98211812D01*
X87071200Y-97818012D01*
X87071200Y-95278691D01*
X87465000Y-95278691D01*
X87465000Y-96869250D01*
X87623750Y-97028000D01*
X88773000Y-97028000D01*
X88773000Y-94928750D01*
X89027000Y-94928750D01*
X89027000Y-97028000D01*
X90176250Y-97028000D01*
X90335000Y-96869250D01*
X90335000Y-96688690D01*
X92880000Y-96688690D01*
X92880000Y-97129250D01*
X93038750Y-97288000D01*
X94488000Y-97288000D01*
X94488000Y-96338750D01*
X94742000Y-96338750D01*
X94742000Y-97288000D01*
X96191250Y-97288000D01*
X96350000Y-97129250D01*
X96350000Y-96688690D01*
X96253327Y-96455301D01*
X96074698Y-96276673D01*
X95841309Y-96180000D01*
X94900750Y-96180000D01*
X94742000Y-96338750D01*
X94488000Y-96338750D01*
X94329250Y-96180000D01*
X93388691Y-96180000D01*
X93155302Y-96276673D01*
X92976673Y-96455301D01*
X92880000Y-96688690D01*
X90335000Y-96688690D01*
X90335000Y-95278691D01*
X90238327Y-95045302D01*
X90059699Y-94866673D01*
X89826310Y-94770000D01*
X89185750Y-94770000D01*
X89027000Y-94928750D01*
X88773000Y-94928750D01*
X88614250Y-94770000D01*
X87973690Y-94770000D01*
X87740301Y-94866673D01*
X87561673Y-95045302D01*
X87465000Y-95278691D01*
X87071200Y-95278691D01*
X87071200Y-95254939D01*
X87322207Y-95003932D01*
X87495000Y-94586772D01*
X87495000Y-94485788D01*
X88458349Y-93522440D01*
X89700000Y-93522440D01*
X89947765Y-93473157D01*
X90157809Y-93332809D01*
X90298157Y-93122765D01*
X90347440Y-92875000D01*
X90347440Y-91636200D01*
X92709679Y-91636200D01*
X92736843Y-91772765D01*
X92877191Y-91982809D01*
X93087235Y-92123157D01*
X93335000Y-92172440D01*
X95535000Y-92172440D01*
X95782765Y-92123157D01*
X95992809Y-91982809D01*
X96133157Y-91772765D01*
X96182440Y-91525000D01*
X96182440Y-90325000D01*
X96133157Y-90077235D01*
X95992809Y-89867191D01*
X95869802Y-89785000D01*
X95992809Y-89702809D01*
X96133157Y-89492765D01*
X96160321Y-89356200D01*
X96887560Y-89356200D01*
X96887560Y-91545000D01*
X96936843Y-91792765D01*
X97077191Y-92002809D01*
X97287235Y-92143157D01*
X97535000Y-92192440D01*
X103935000Y-92192440D01*
X104182765Y-92143157D01*
X104392809Y-92002809D01*
X104533157Y-91792765D01*
X104582440Y-91545000D01*
X104582440Y-91516200D01*
X107137560Y-91516200D01*
X107137560Y-92305000D01*
X107186843Y-92552765D01*
X107327191Y-92762809D01*
X107537235Y-92903157D01*
X107785000Y-92952440D01*
X109385000Y-92952440D01*
X109632765Y-92903157D01*
X109842809Y-92762809D01*
X109983157Y-92552765D01*
X110032440Y-92305000D01*
X110032440Y-91516200D01*
X114676067Y-91516200D01*
X114927074Y-91767207D01*
X115344234Y-91940000D01*
X115795766Y-91940000D01*
X116212926Y-91767207D01*
X116532207Y-91447926D01*
X116705000Y-91030766D01*
X116705000Y-90579234D01*
X116532207Y-90162074D01*
X116212926Y-89842793D01*
X115795766Y-89670000D01*
X115344234Y-89670000D01*
X114927074Y-89842793D01*
X114676067Y-90093800D01*
X110032440Y-90093800D01*
X110032440Y-89305000D01*
X109983157Y-89057235D01*
X109842809Y-88847191D01*
X109632765Y-88706843D01*
X109385000Y-88657560D01*
X107785000Y-88657560D01*
X107537235Y-88706843D01*
X107327191Y-88847191D01*
X107186843Y-89057235D01*
X107137560Y-89305000D01*
X107137560Y-90093800D01*
X104582440Y-90093800D01*
X104582440Y-86690750D01*
X107150000Y-86690750D01*
X107150000Y-88031309D01*
X107246673Y-88264698D01*
X107425301Y-88443327D01*
X107658690Y-88540000D01*
X108299250Y-88540000D01*
X108458000Y-88381250D01*
X108458000Y-86532000D01*
X108712000Y-86532000D01*
X108712000Y-88381250D01*
X108870750Y-88540000D01*
X109511310Y-88540000D01*
X109744699Y-88443327D01*
X109923327Y-88264698D01*
X110020000Y-88031309D01*
X110020000Y-86690750D01*
X109861250Y-86532000D01*
X108712000Y-86532000D01*
X108458000Y-86532000D01*
X107308750Y-86532000D01*
X107150000Y-86690750D01*
X104582440Y-86690750D01*
X104582440Y-85745000D01*
X104533157Y-85497235D01*
X104392809Y-85287191D01*
X104182765Y-85146843D01*
X103935000Y-85097560D01*
X97535000Y-85097560D01*
X97287235Y-85146843D01*
X97077191Y-85287191D01*
X96936843Y-85497235D01*
X96887560Y-85745000D01*
X96887560Y-87933800D01*
X96160321Y-87933800D01*
X96133157Y-87797235D01*
X95992809Y-87587191D01*
X95877784Y-87510333D01*
X95894698Y-87503327D01*
X96073327Y-87324699D01*
X96170000Y-87091310D01*
X96170000Y-86650750D01*
X96011250Y-86492000D01*
X94562000Y-86492000D01*
X94562000Y-86512000D01*
X94308000Y-86512000D01*
X94308000Y-86492000D01*
X92858750Y-86492000D01*
X92700000Y-86650750D01*
X92700000Y-87091310D01*
X92796673Y-87324699D01*
X92975302Y-87503327D01*
X92992216Y-87510333D01*
X92877191Y-87587191D01*
X92736843Y-87797235D01*
X92687560Y-88045000D01*
X92687560Y-89245000D01*
X92736843Y-89492765D01*
X92877191Y-89702809D01*
X93000198Y-89785000D01*
X92877191Y-89867191D01*
X92736843Y-90077235D01*
X92709679Y-90213800D01*
X90347440Y-90213800D01*
X90347440Y-89375000D01*
X90298157Y-89127235D01*
X90157809Y-88917191D01*
X89947765Y-88776843D01*
X89700000Y-88727560D01*
X88100000Y-88727560D01*
X87852235Y-88776843D01*
X87642191Y-88917191D01*
X87501843Y-89127235D01*
X87452560Y-89375000D01*
X87452560Y-92516651D01*
X86697093Y-93272119D01*
X86585766Y-93226006D01*
X86134234Y-93226006D01*
X85717074Y-93398799D01*
X85397793Y-93718080D01*
X85225000Y-94135240D01*
X68072000Y-94135240D01*
X68072000Y-90079852D01*
X80480417Y-90079852D01*
X80579080Y-90346707D01*
X81188805Y-90573228D01*
X81838804Y-90549176D01*
X82327608Y-90346707D01*
X82426271Y-90079852D01*
X81453344Y-89106925D01*
X80480417Y-90079852D01*
X68072000Y-90079852D01*
X68072000Y-88662781D01*
X79807436Y-88662781D01*
X79831488Y-89312780D01*
X80033957Y-89801584D01*
X80300812Y-89900247D01*
X81273739Y-88927320D01*
X81632949Y-88927320D01*
X82605876Y-89900247D01*
X82872731Y-89801584D01*
X83099252Y-89191859D01*
X83075200Y-88541860D01*
X82872731Y-88053056D01*
X82605876Y-87954393D01*
X81632949Y-88927320D01*
X81273739Y-88927320D01*
X80300812Y-87954393D01*
X80033957Y-88053056D01*
X79807436Y-88662781D01*
X68072000Y-88662781D01*
X68072000Y-87774788D01*
X80480417Y-87774788D01*
X81453344Y-88747715D01*
X82426271Y-87774788D01*
X82327608Y-87507933D01*
X81717883Y-87281412D01*
X81067884Y-87305464D01*
X80579080Y-87507933D01*
X80480417Y-87774788D01*
X68072000Y-87774788D01*
X68072000Y-86010750D01*
X87465000Y-86010750D01*
X87465000Y-87601309D01*
X87561673Y-87834698D01*
X87740301Y-88013327D01*
X87973690Y-88110000D01*
X88614250Y-88110000D01*
X88773000Y-87951250D01*
X88773000Y-85852000D01*
X89027000Y-85852000D01*
X89027000Y-87951250D01*
X89185750Y-88110000D01*
X89826310Y-88110000D01*
X90059699Y-88013327D01*
X90238327Y-87834698D01*
X90335000Y-87601309D01*
X90335000Y-86010750D01*
X90176250Y-85852000D01*
X89027000Y-85852000D01*
X88773000Y-85852000D01*
X87623750Y-85852000D01*
X87465000Y-86010750D01*
X68072000Y-86010750D01*
X68072000Y-85638690D01*
X92700000Y-85638690D01*
X92700000Y-86079250D01*
X92858750Y-86238000D01*
X94308000Y-86238000D01*
X94308000Y-85288750D01*
X94562000Y-85288750D01*
X94562000Y-86238000D01*
X96011250Y-86238000D01*
X96170000Y-86079250D01*
X96170000Y-85638690D01*
X96073327Y-85405301D01*
X95894698Y-85226673D01*
X95661309Y-85130000D01*
X94720750Y-85130000D01*
X94562000Y-85288750D01*
X94308000Y-85288750D01*
X94149250Y-85130000D01*
X93208691Y-85130000D01*
X92975302Y-85226673D01*
X92796673Y-85405301D01*
X92700000Y-85638690D01*
X68072000Y-85638690D01*
X68072000Y-83848691D01*
X87465000Y-83848691D01*
X87465000Y-85439250D01*
X87623750Y-85598000D01*
X88773000Y-85598000D01*
X88773000Y-83498750D01*
X89027000Y-83498750D01*
X89027000Y-85598000D01*
X90176250Y-85598000D01*
X90335000Y-85439250D01*
X90335000Y-84778691D01*
X107150000Y-84778691D01*
X107150000Y-86119250D01*
X107308750Y-86278000D01*
X108458000Y-86278000D01*
X108458000Y-84428750D01*
X108712000Y-84428750D01*
X108712000Y-86278000D01*
X109861250Y-86278000D01*
X110020000Y-86119250D01*
X110020000Y-84778691D01*
X109923327Y-84545302D01*
X109744699Y-84366673D01*
X109511310Y-84270000D01*
X108870750Y-84270000D01*
X108712000Y-84428750D01*
X108458000Y-84428750D01*
X108299250Y-84270000D01*
X107658690Y-84270000D01*
X107425301Y-84366673D01*
X107246673Y-84545302D01*
X107150000Y-84778691D01*
X90335000Y-84778691D01*
X90335000Y-83848691D01*
X90238327Y-83615302D01*
X90059699Y-83436673D01*
X89826310Y-83340000D01*
X89185750Y-83340000D01*
X89027000Y-83498750D01*
X88773000Y-83498750D01*
X88614250Y-83340000D01*
X87973690Y-83340000D01*
X87740301Y-83436673D01*
X87561673Y-83615302D01*
X87465000Y-83848691D01*
X68072000Y-83848691D01*
X68072000Y-74930000D01*
X140725908Y-74930000D01*
X140841161Y-75509418D01*
X141169375Y-76000625D01*
X141660582Y-76328839D01*
X142093744Y-76415000D01*
X142386256Y-76415000D01*
X142819418Y-76328839D01*
X143310625Y-76000625D01*
X143510000Y-75702239D01*
X143709375Y-76000625D01*
X144068801Y-76240786D01*
X144068801Y-76540410D01*
X143091652Y-77517560D01*
X142424999Y-77517560D01*
X142081564Y-77585873D01*
X141790414Y-77780414D01*
X141595873Y-78071564D01*
X141527560Y-78414999D01*
X141527560Y-79065001D01*
X141595873Y-79408436D01*
X141790414Y-79699586D01*
X141888313Y-79765000D01*
X141790414Y-79830414D01*
X141595873Y-80121564D01*
X141527560Y-80464999D01*
X141527560Y-81115001D01*
X141595873Y-81458436D01*
X141790414Y-81749586D01*
X142081564Y-81944127D01*
X142424999Y-82012440D01*
X143325001Y-82012440D01*
X143668436Y-81944127D01*
X143959586Y-81749586D01*
X144125553Y-81501200D01*
X147974447Y-81501200D01*
X148140414Y-81749586D01*
X148431564Y-81944127D01*
X148774999Y-82012440D01*
X149675001Y-82012440D01*
X150018436Y-81944127D01*
X150309586Y-81749586D01*
X150475553Y-81501200D01*
X151361067Y-81501200D01*
X151612074Y-81752207D01*
X152029234Y-81925000D01*
X152480766Y-81925000D01*
X152897926Y-81752207D01*
X153217207Y-81432926D01*
X153390000Y-81015766D01*
X153390000Y-80564234D01*
X153217207Y-80147074D01*
X152897926Y-79827793D01*
X152480766Y-79655000D01*
X152029234Y-79655000D01*
X151612074Y-79827793D01*
X151361067Y-80078800D01*
X150475553Y-80078800D01*
X150309586Y-79830414D01*
X150308403Y-79829623D01*
X150463327Y-79674698D01*
X150560000Y-79441309D01*
X150560000Y-79025750D01*
X150401250Y-78867000D01*
X149352000Y-78867000D01*
X149352000Y-78887000D01*
X149098000Y-78887000D01*
X149098000Y-78867000D01*
X148048750Y-78867000D01*
X147890000Y-79025750D01*
X147890000Y-79441309D01*
X147986673Y-79674698D01*
X148141597Y-79829623D01*
X148140414Y-79830414D01*
X147974447Y-80078800D01*
X144125553Y-80078800D01*
X143959586Y-79830414D01*
X143861687Y-79765000D01*
X143959586Y-79699586D01*
X144154127Y-79408436D01*
X144222440Y-79065001D01*
X144222440Y-78414999D01*
X144219678Y-78401111D01*
X144582098Y-78038691D01*
X147890000Y-78038691D01*
X147890000Y-78454250D01*
X148048750Y-78613000D01*
X149098000Y-78613000D01*
X149098000Y-77688750D01*
X149352000Y-77688750D01*
X149352000Y-78613000D01*
X150401250Y-78613000D01*
X150560000Y-78454250D01*
X150560000Y-78038691D01*
X150463327Y-77805302D01*
X150284699Y-77626673D01*
X150051310Y-77530000D01*
X149510750Y-77530000D01*
X149352000Y-77688750D01*
X149098000Y-77688750D01*
X148939250Y-77530000D01*
X148398690Y-77530000D01*
X148165301Y-77626673D01*
X147986673Y-77805302D01*
X147890000Y-78038691D01*
X144582098Y-78038691D01*
X145233367Y-77387422D01*
X145292746Y-77347746D01*
X145332422Y-77288367D01*
X145332424Y-77288365D01*
X145449935Y-77112497D01*
X145449936Y-77112496D01*
X145491200Y-76905046D01*
X145491200Y-76905042D01*
X145505132Y-76835000D01*
X145491200Y-76764958D01*
X145491200Y-76240785D01*
X145850625Y-76000625D01*
X145865096Y-75978967D01*
X145931673Y-76139698D01*
X146110301Y-76318327D01*
X146343690Y-76415000D01*
X147034250Y-76415000D01*
X147193000Y-76256250D01*
X147193000Y-75057000D01*
X147447000Y-75057000D01*
X147447000Y-76256250D01*
X147605750Y-76415000D01*
X148296310Y-76415000D01*
X148529699Y-76318327D01*
X148708327Y-76139698D01*
X148805000Y-75906309D01*
X148805000Y-75215750D01*
X148646250Y-75057000D01*
X147447000Y-75057000D01*
X147193000Y-75057000D01*
X147173000Y-75057000D01*
X147173000Y-74803000D01*
X147193000Y-74803000D01*
X147193000Y-73603750D01*
X147447000Y-73603750D01*
X147447000Y-74803000D01*
X148646250Y-74803000D01*
X148805000Y-74644250D01*
X148805000Y-73953691D01*
X148708327Y-73720302D01*
X148529699Y-73541673D01*
X148296310Y-73445000D01*
X147605750Y-73445000D01*
X147447000Y-73603750D01*
X147193000Y-73603750D01*
X147034250Y-73445000D01*
X146343690Y-73445000D01*
X146110301Y-73541673D01*
X145931673Y-73720302D01*
X145865096Y-73881033D01*
X145850625Y-73859375D01*
X145359418Y-73531161D01*
X144926256Y-73445000D01*
X144633744Y-73445000D01*
X144200582Y-73531161D01*
X143709375Y-73859375D01*
X143510000Y-74157761D01*
X143310625Y-73859375D01*
X142819418Y-73531161D01*
X142386256Y-73445000D01*
X142093744Y-73445000D01*
X141660582Y-73531161D01*
X141169375Y-73859375D01*
X140841161Y-74350582D01*
X140725908Y-74930000D01*
X68072000Y-74930000D01*
X68072000Y-64897000D01*
X145832600Y-64897000D01*
X145832600Y-67606753D01*
G36*
X167132000Y-74803000D02*
X167152000Y-74803000D01*
X167152000Y-75057000D01*
X167132000Y-75057000D01*
X167132000Y-75077000D01*
X166878000Y-75077000D01*
X166878000Y-75057000D01*
X166858000Y-75057000D01*
X166858000Y-74803000D01*
X166878000Y-74803000D01*
X166878000Y-74783000D01*
X167132000Y-74783000D01*
X167132000Y-74803000D01*
X167132000Y-74803000D01*
G37*
X167132000Y-74803000D02*
X167152000Y-74803000D01*
X167152000Y-75057000D01*
X167132000Y-75057000D01*
X167132000Y-75077000D01*
X166878000Y-75077000D01*
X166878000Y-75057000D01*
X166858000Y-75057000D01*
X166858000Y-74803000D01*
X166878000Y-74803000D01*
X166878000Y-74783000D01*
X167132000Y-74783000D01*
X167132000Y-74803000D01*
G36*
X206883000Y-59563000D02*
X148579788Y-59563000D01*
X155012367Y-53130422D01*
X155071746Y-53090746D01*
X155111422Y-53031367D01*
X155111424Y-53031365D01*
X155228935Y-52855497D01*
X155228936Y-52855496D01*
X155270200Y-52648046D01*
X155270200Y-52648042D01*
X155284132Y-52578000D01*
X155270200Y-52507958D01*
X155270200Y-49155050D01*
X202585000Y-49155050D01*
X202585000Y-49904950D01*
X202871974Y-50597767D01*
X203402233Y-51128026D01*
X204095050Y-51415000D01*
X204844950Y-51415000D01*
X205537767Y-51128026D01*
X206068026Y-50597767D01*
X206355000Y-49904950D01*
X206355000Y-49155050D01*
X206068026Y-48462233D01*
X205537767Y-47931974D01*
X204844950Y-47645000D01*
X204095050Y-47645000D01*
X203402233Y-47931974D01*
X202871974Y-48462233D01*
X202585000Y-49155050D01*
X155270200Y-49155050D01*
X155270200Y-45282041D01*
X155284132Y-45211999D01*
X155270200Y-45141955D01*
X155270200Y-45141954D01*
X155228936Y-44934504D01*
X155226081Y-44930231D01*
X155111424Y-44758636D01*
X155111422Y-44758634D01*
X155071745Y-44699254D01*
X155012366Y-44659578D01*
X154730424Y-44377636D01*
X154690746Y-44318254D01*
X154455496Y-44161064D01*
X154248046Y-44119800D01*
X154248041Y-44119800D01*
X154178000Y-44105868D01*
X154107959Y-44119800D01*
X152089041Y-44119800D01*
X152018999Y-44105868D01*
X151948957Y-44119800D01*
X151948954Y-44119800D01*
X151741504Y-44161064D01*
X151741503Y-44161065D01*
X151741502Y-44161065D01*
X151565635Y-44278576D01*
X151565633Y-44278578D01*
X151506254Y-44318254D01*
X151466578Y-44377633D01*
X150930537Y-44913675D01*
X150642598Y-44856400D01*
X150347402Y-44856400D01*
X149910275Y-44943350D01*
X149414570Y-45274570D01*
X149083350Y-45770275D01*
X148967041Y-46355000D01*
X149083350Y-46939725D01*
X149414570Y-47435430D01*
X149698281Y-47625000D01*
X149414570Y-47814570D01*
X149083350Y-48310275D01*
X148967041Y-48895000D01*
X149083350Y-49479725D01*
X149414570Y-49975430D01*
X149698281Y-50165000D01*
X149414570Y-50354570D01*
X149167858Y-50723800D01*
X147487589Y-50723800D01*
X144264000Y-47500212D01*
X144264000Y-47145234D01*
X144231263Y-47066200D01*
X145156067Y-47066200D01*
X145407074Y-47317207D01*
X145824234Y-47490000D01*
X146275766Y-47490000D01*
X146692926Y-47317207D01*
X147012207Y-46997926D01*
X147185000Y-46580766D01*
X147185000Y-46129234D01*
X147012207Y-45712074D01*
X146692926Y-45392793D01*
X146275766Y-45220000D01*
X145824234Y-45220000D01*
X145407074Y-45392793D01*
X145156067Y-45643800D01*
X133420045Y-45643800D01*
X133350003Y-45629868D01*
X133279961Y-45643800D01*
X133279958Y-45643800D01*
X133072508Y-45685064D01*
X133072507Y-45685065D01*
X133072506Y-45685065D01*
X132896639Y-45802576D01*
X132896637Y-45802578D01*
X132837258Y-45842254D01*
X132828739Y-45855004D01*
X132489234Y-45855004D01*
X132072074Y-46027797D01*
X131752793Y-46347078D01*
X131580000Y-46764238D01*
X131580000Y-47215770D01*
X131717945Y-47548800D01*
X131703933Y-47548800D01*
X131452926Y-47297793D01*
X131035766Y-47125000D01*
X130584234Y-47125000D01*
X130167074Y-47297793D01*
X129847793Y-47617074D01*
X129675000Y-48034234D01*
X129675000Y-48485766D01*
X129847793Y-48902926D01*
X130167074Y-49222207D01*
X130584234Y-49395000D01*
X131035766Y-49395000D01*
X131452926Y-49222207D01*
X131703933Y-48971200D01*
X142169959Y-48971200D01*
X142240000Y-48985132D01*
X142310041Y-48971200D01*
X142310046Y-48971200D01*
X142517496Y-48929936D01*
X142752746Y-48772746D01*
X142792424Y-48713364D01*
X142999788Y-48506000D01*
X143258212Y-48506000D01*
X146187211Y-51435000D01*
X145469634Y-52152578D01*
X145410254Y-52192255D01*
X145370578Y-52251634D01*
X145370576Y-52251636D01*
X145312847Y-52338034D01*
X145253064Y-52427505D01*
X145211800Y-52634955D01*
X145211800Y-52634959D01*
X145197868Y-52705000D01*
X145211800Y-52775042D01*
X145211801Y-53299409D01*
X144401212Y-54109998D01*
X144046234Y-54109998D01*
X143629074Y-54282791D01*
X143309793Y-54602072D01*
X143137000Y-55019232D01*
X143137000Y-55470764D01*
X143309793Y-55887924D01*
X143629074Y-56207205D01*
X144046234Y-56379998D01*
X144497766Y-56379998D01*
X144914926Y-56207205D01*
X145234207Y-55887924D01*
X145407000Y-55470764D01*
X145407000Y-55115786D01*
X146376367Y-54146420D01*
X146435746Y-54106744D01*
X146475422Y-54047365D01*
X146475424Y-54047363D01*
X146592935Y-53871495D01*
X146592936Y-53871494D01*
X146634200Y-53664044D01*
X146634200Y-53664040D01*
X146648132Y-53593998D01*
X146634200Y-53523956D01*
X146634200Y-52999588D01*
X147487589Y-52146200D01*
X147534460Y-52146200D01*
X147455000Y-52338034D01*
X147455000Y-52789566D01*
X147627793Y-53206726D01*
X147878801Y-53457734D01*
X147878801Y-53904954D01*
X147864868Y-53975000D01*
X147920065Y-54252496D01*
X148037576Y-54428364D01*
X148037579Y-54428367D01*
X148077255Y-54487746D01*
X148136634Y-54527422D01*
X148371444Y-54762232D01*
X148371444Y-55117210D01*
X148544237Y-55534370D01*
X148863518Y-55853651D01*
X149280678Y-56026444D01*
X149732210Y-56026444D01*
X150149370Y-55853651D01*
X150468651Y-55534370D01*
X150641444Y-55117210D01*
X150641444Y-54665678D01*
X150468651Y-54248518D01*
X150149370Y-53929237D01*
X149732210Y-53756444D01*
X149377232Y-53756444D01*
X149301200Y-53680412D01*
X149301200Y-53457733D01*
X149552207Y-53206726D01*
X149725000Y-52789566D01*
X149725000Y-52722853D01*
X149910275Y-52846650D01*
X150347402Y-52933600D01*
X150642598Y-52933600D01*
X151079725Y-52846650D01*
X151575430Y-52515430D01*
X151765000Y-52231719D01*
X151954570Y-52515430D01*
X152450275Y-52846650D01*
X152887402Y-52933600D01*
X153182598Y-52933600D01*
X153201339Y-52929872D01*
X146568212Y-59563000D01*
X39497000Y-59563000D01*
X39497000Y-58452532D01*
X51732073Y-58452532D01*
X51830736Y-58719387D01*
X52440461Y-58945908D01*
X53090460Y-58921856D01*
X53579264Y-58719387D01*
X53677927Y-58452532D01*
X52705000Y-57479605D01*
X51732073Y-58452532D01*
X39497000Y-58452532D01*
X39497000Y-57035461D01*
X51059092Y-57035461D01*
X51083144Y-57685460D01*
X51285613Y-58174264D01*
X51552468Y-58272927D01*
X52525395Y-57300000D01*
X52884605Y-57300000D01*
X53857532Y-58272927D01*
X54124387Y-58174264D01*
X54350908Y-57564539D01*
X54326856Y-56914540D01*
X54124387Y-56425736D01*
X53857532Y-56327073D01*
X52884605Y-57300000D01*
X52525395Y-57300000D01*
X51552468Y-56327073D01*
X51285613Y-56425736D01*
X51059092Y-57035461D01*
X39497000Y-57035461D01*
X39497000Y-56147468D01*
X51732073Y-56147468D01*
X52705000Y-57120395D01*
X53677927Y-56147468D01*
X53579264Y-55880613D01*
X52969539Y-55654092D01*
X52319540Y-55678144D01*
X51830736Y-55880613D01*
X51732073Y-56147468D01*
X39497000Y-56147468D01*
X39497000Y-51952532D01*
X51732073Y-51952532D01*
X51830736Y-52219387D01*
X52440461Y-52445908D01*
X53090460Y-52421856D01*
X53579264Y-52219387D01*
X53677927Y-51952532D01*
X52705000Y-50979605D01*
X51732073Y-51952532D01*
X39497000Y-51952532D01*
X39497000Y-49155050D01*
X40025000Y-49155050D01*
X40025000Y-49904950D01*
X40311974Y-50597767D01*
X40842233Y-51128026D01*
X41535050Y-51415000D01*
X42284950Y-51415000D01*
X42977767Y-51128026D01*
X43508026Y-50597767D01*
X43533833Y-50535461D01*
X51059092Y-50535461D01*
X51083144Y-51185460D01*
X51285613Y-51674264D01*
X51552468Y-51772927D01*
X52525395Y-50800000D01*
X52884605Y-50800000D01*
X53857532Y-51772927D01*
X54124387Y-51674264D01*
X54350908Y-51064539D01*
X54329085Y-50474778D01*
X55570000Y-50474778D01*
X55570000Y-51125222D01*
X55818914Y-51726153D01*
X56278847Y-52186086D01*
X56493801Y-52275123D01*
X56493800Y-55824877D01*
X56278847Y-55913914D01*
X55818914Y-56373847D01*
X55570000Y-56974778D01*
X55570000Y-57625222D01*
X55818914Y-58226153D01*
X56278847Y-58686086D01*
X56879778Y-58935000D01*
X57530222Y-58935000D01*
X58131153Y-58686086D01*
X58364707Y-58452532D01*
X63892073Y-58452532D01*
X63990736Y-58719387D01*
X64600461Y-58945908D01*
X65250460Y-58921856D01*
X65739264Y-58719387D01*
X65837927Y-58452532D01*
X64865000Y-57479605D01*
X63892073Y-58452532D01*
X58364707Y-58452532D01*
X58591086Y-58226153D01*
X58840000Y-57625222D01*
X58840000Y-57035461D01*
X63219092Y-57035461D01*
X63243144Y-57685460D01*
X63445613Y-58174264D01*
X63712468Y-58272927D01*
X64685395Y-57300000D01*
X65044605Y-57300000D01*
X66017532Y-58272927D01*
X66284387Y-58174264D01*
X66510908Y-57564539D01*
X66486856Y-56914540D01*
X66284387Y-56425736D01*
X66017532Y-56327073D01*
X65044605Y-57300000D01*
X64685395Y-57300000D01*
X63712468Y-56327073D01*
X63445613Y-56425736D01*
X63219092Y-57035461D01*
X58840000Y-57035461D01*
X58840000Y-56974778D01*
X58591086Y-56373847D01*
X58364707Y-56147468D01*
X63892073Y-56147468D01*
X64865000Y-57120395D01*
X65837927Y-56147468D01*
X65739264Y-55880613D01*
X65129539Y-55654092D01*
X64479540Y-55678144D01*
X63990736Y-55880613D01*
X63892073Y-56147468D01*
X58364707Y-56147468D01*
X58131153Y-55913914D01*
X57916200Y-55824877D01*
X57916200Y-52275123D01*
X58131153Y-52186086D01*
X58364707Y-51952532D01*
X63892073Y-51952532D01*
X63990736Y-52219387D01*
X64600461Y-52445908D01*
X65250460Y-52421856D01*
X65739264Y-52219387D01*
X65837927Y-51952532D01*
X64865000Y-50979605D01*
X63892073Y-51952532D01*
X58364707Y-51952532D01*
X58591086Y-51726153D01*
X58840000Y-51125222D01*
X58840000Y-50535461D01*
X63219092Y-50535461D01*
X63243144Y-51185460D01*
X63445613Y-51674264D01*
X63712468Y-51772927D01*
X64685395Y-50800000D01*
X65044605Y-50800000D01*
X66017532Y-51772927D01*
X66284387Y-51674264D01*
X66510908Y-51064539D01*
X66489085Y-50474778D01*
X67730000Y-50474778D01*
X67730000Y-51125222D01*
X67978914Y-51726153D01*
X68438847Y-52186086D01*
X68653801Y-52275123D01*
X68653800Y-55824877D01*
X68438847Y-55913914D01*
X67978914Y-56373847D01*
X67730000Y-56974778D01*
X67730000Y-57625222D01*
X67978914Y-58226153D01*
X68438847Y-58686086D01*
X69039778Y-58935000D01*
X69690222Y-58935000D01*
X70291153Y-58686086D01*
X70524707Y-58452532D01*
X76442073Y-58452532D01*
X76540736Y-58719387D01*
X77150461Y-58945908D01*
X77800460Y-58921856D01*
X78289264Y-58719387D01*
X78387927Y-58452532D01*
X77415000Y-57479605D01*
X76442073Y-58452532D01*
X70524707Y-58452532D01*
X70751086Y-58226153D01*
X71000000Y-57625222D01*
X71000000Y-57035461D01*
X75769092Y-57035461D01*
X75793144Y-57685460D01*
X75995613Y-58174264D01*
X76262468Y-58272927D01*
X77235395Y-57300000D01*
X77594605Y-57300000D01*
X78567532Y-58272927D01*
X78834387Y-58174264D01*
X79060908Y-57564539D01*
X79036856Y-56914540D01*
X78834387Y-56425736D01*
X78567532Y-56327073D01*
X77594605Y-57300000D01*
X77235395Y-57300000D01*
X76262468Y-56327073D01*
X75995613Y-56425736D01*
X75769092Y-57035461D01*
X71000000Y-57035461D01*
X71000000Y-56974778D01*
X70751086Y-56373847D01*
X70524707Y-56147468D01*
X76442073Y-56147468D01*
X77415000Y-57120395D01*
X78387927Y-56147468D01*
X78289264Y-55880613D01*
X77679539Y-55654092D01*
X77029540Y-55678144D01*
X76540736Y-55880613D01*
X76442073Y-56147468D01*
X70524707Y-56147468D01*
X70291153Y-55913914D01*
X70076200Y-55824877D01*
X70076200Y-52275123D01*
X70291153Y-52186086D01*
X70524707Y-51952532D01*
X76442073Y-51952532D01*
X76540736Y-52219387D01*
X77150461Y-52445908D01*
X77800460Y-52421856D01*
X78289264Y-52219387D01*
X78387927Y-51952532D01*
X77415000Y-50979605D01*
X76442073Y-51952532D01*
X70524707Y-51952532D01*
X70751086Y-51726153D01*
X71000000Y-51125222D01*
X71000000Y-50535461D01*
X75769092Y-50535461D01*
X75793144Y-51185460D01*
X75995613Y-51674264D01*
X76262468Y-51772927D01*
X77235395Y-50800000D01*
X77594605Y-50800000D01*
X78567532Y-51772927D01*
X78834387Y-51674264D01*
X79060908Y-51064539D01*
X79039085Y-50474778D01*
X80280000Y-50474778D01*
X80280000Y-51125222D01*
X80528914Y-51726153D01*
X80988847Y-52186086D01*
X81203801Y-52275123D01*
X81203800Y-55824877D01*
X80988847Y-55913914D01*
X80528914Y-56373847D01*
X80280000Y-56974778D01*
X80280000Y-57625222D01*
X80528914Y-58226153D01*
X80988847Y-58686086D01*
X81589778Y-58935000D01*
X82240222Y-58935000D01*
X82841153Y-58686086D01*
X83074707Y-58452532D01*
X89292073Y-58452532D01*
X89390736Y-58719387D01*
X90000461Y-58945908D01*
X90650460Y-58921856D01*
X91139264Y-58719387D01*
X91237927Y-58452532D01*
X90265000Y-57479605D01*
X89292073Y-58452532D01*
X83074707Y-58452532D01*
X83301086Y-58226153D01*
X83550000Y-57625222D01*
X83550000Y-57035461D01*
X88619092Y-57035461D01*
X88643144Y-57685460D01*
X88845613Y-58174264D01*
X89112468Y-58272927D01*
X90085395Y-57300000D01*
X90444605Y-57300000D01*
X91417532Y-58272927D01*
X91684387Y-58174264D01*
X91910908Y-57564539D01*
X91886856Y-56914540D01*
X91684387Y-56425736D01*
X91417532Y-56327073D01*
X90444605Y-57300000D01*
X90085395Y-57300000D01*
X89112468Y-56327073D01*
X88845613Y-56425736D01*
X88619092Y-57035461D01*
X83550000Y-57035461D01*
X83550000Y-56974778D01*
X83301086Y-56373847D01*
X83074707Y-56147468D01*
X89292073Y-56147468D01*
X90265000Y-57120395D01*
X91237927Y-56147468D01*
X91139264Y-55880613D01*
X90529539Y-55654092D01*
X89879540Y-55678144D01*
X89390736Y-55880613D01*
X89292073Y-56147468D01*
X83074707Y-56147468D01*
X82841153Y-55913914D01*
X82626200Y-55824877D01*
X82626200Y-52275123D01*
X82841153Y-52186086D01*
X83074707Y-51952532D01*
X89292073Y-51952532D01*
X89390736Y-52219387D01*
X90000461Y-52445908D01*
X90650460Y-52421856D01*
X91139264Y-52219387D01*
X91237927Y-51952532D01*
X90265000Y-50979605D01*
X89292073Y-51952532D01*
X83074707Y-51952532D01*
X83301086Y-51726153D01*
X83550000Y-51125222D01*
X83550000Y-50535461D01*
X88619092Y-50535461D01*
X88643144Y-51185460D01*
X88845613Y-51674264D01*
X89112468Y-51772927D01*
X90085395Y-50800000D01*
X90444605Y-50800000D01*
X91417532Y-51772927D01*
X91684387Y-51674264D01*
X91910908Y-51064539D01*
X91889085Y-50474778D01*
X93130000Y-50474778D01*
X93130000Y-51125222D01*
X93378914Y-51726153D01*
X93838847Y-52186086D01*
X94053801Y-52275123D01*
X94053800Y-55824877D01*
X93838847Y-55913914D01*
X93378914Y-56373847D01*
X93130000Y-56974778D01*
X93130000Y-57625222D01*
X93378914Y-58226153D01*
X93838847Y-58686086D01*
X94439778Y-58935000D01*
X95090222Y-58935000D01*
X95691153Y-58686086D01*
X95924707Y-58452532D01*
X101992073Y-58452532D01*
X102090736Y-58719387D01*
X102700461Y-58945908D01*
X103350460Y-58921856D01*
X103839264Y-58719387D01*
X103937927Y-58452532D01*
X102965000Y-57479605D01*
X101992073Y-58452532D01*
X95924707Y-58452532D01*
X96151086Y-58226153D01*
X96400000Y-57625222D01*
X96400000Y-57035461D01*
X101319092Y-57035461D01*
X101343144Y-57685460D01*
X101545613Y-58174264D01*
X101812468Y-58272927D01*
X102785395Y-57300000D01*
X103144605Y-57300000D01*
X104117532Y-58272927D01*
X104384387Y-58174264D01*
X104610908Y-57564539D01*
X104586856Y-56914540D01*
X104384387Y-56425736D01*
X104117532Y-56327073D01*
X103144605Y-57300000D01*
X102785395Y-57300000D01*
X101812468Y-56327073D01*
X101545613Y-56425736D01*
X101319092Y-57035461D01*
X96400000Y-57035461D01*
X96400000Y-56974778D01*
X96151086Y-56373847D01*
X95924707Y-56147468D01*
X101992073Y-56147468D01*
X102965000Y-57120395D01*
X103937927Y-56147468D01*
X103839264Y-55880613D01*
X103229539Y-55654092D01*
X102579540Y-55678144D01*
X102090736Y-55880613D01*
X101992073Y-56147468D01*
X95924707Y-56147468D01*
X95691153Y-55913914D01*
X95476200Y-55824877D01*
X95476200Y-52275123D01*
X95691153Y-52186086D01*
X95924707Y-51952532D01*
X101992073Y-51952532D01*
X102090736Y-52219387D01*
X102700461Y-52445908D01*
X103350460Y-52421856D01*
X103839264Y-52219387D01*
X103937927Y-51952532D01*
X102965000Y-50979605D01*
X101992073Y-51952532D01*
X95924707Y-51952532D01*
X96151086Y-51726153D01*
X96400000Y-51125222D01*
X96400000Y-50535461D01*
X101319092Y-50535461D01*
X101343144Y-51185460D01*
X101545613Y-51674264D01*
X101812468Y-51772927D01*
X102785395Y-50800000D01*
X103144605Y-50800000D01*
X104117532Y-51772927D01*
X104384387Y-51674264D01*
X104610908Y-51064539D01*
X104589085Y-50474778D01*
X105830000Y-50474778D01*
X105830000Y-51125222D01*
X106078914Y-51726153D01*
X106538847Y-52186086D01*
X106753801Y-52275123D01*
X106753800Y-55824877D01*
X106538847Y-55913914D01*
X106078914Y-56373847D01*
X105830000Y-56974778D01*
X105830000Y-57625222D01*
X106078914Y-58226153D01*
X106538847Y-58686086D01*
X107139778Y-58935000D01*
X107790222Y-58935000D01*
X108391153Y-58686086D01*
X108624707Y-58452532D01*
X114542073Y-58452532D01*
X114640736Y-58719387D01*
X115250461Y-58945908D01*
X115900460Y-58921856D01*
X116389264Y-58719387D01*
X116487927Y-58452532D01*
X115515000Y-57479605D01*
X114542073Y-58452532D01*
X108624707Y-58452532D01*
X108851086Y-58226153D01*
X109100000Y-57625222D01*
X109100000Y-57035461D01*
X113869092Y-57035461D01*
X113893144Y-57685460D01*
X114095613Y-58174264D01*
X114362468Y-58272927D01*
X115335395Y-57300000D01*
X115694605Y-57300000D01*
X116667532Y-58272927D01*
X116934387Y-58174264D01*
X117160908Y-57564539D01*
X117136856Y-56914540D01*
X116934387Y-56425736D01*
X116667532Y-56327073D01*
X115694605Y-57300000D01*
X115335395Y-57300000D01*
X114362468Y-56327073D01*
X114095613Y-56425736D01*
X113869092Y-57035461D01*
X109100000Y-57035461D01*
X109100000Y-56974778D01*
X108851086Y-56373847D01*
X108624707Y-56147468D01*
X114542073Y-56147468D01*
X115515000Y-57120395D01*
X116487927Y-56147468D01*
X116389264Y-55880613D01*
X115779539Y-55654092D01*
X115129540Y-55678144D01*
X114640736Y-55880613D01*
X114542073Y-56147468D01*
X108624707Y-56147468D01*
X108391153Y-55913914D01*
X108176200Y-55824877D01*
X108176200Y-52275123D01*
X108391153Y-52186086D01*
X108624707Y-51952532D01*
X114542073Y-51952532D01*
X114640736Y-52219387D01*
X115250461Y-52445908D01*
X115900460Y-52421856D01*
X116389264Y-52219387D01*
X116487927Y-51952532D01*
X115515000Y-50979605D01*
X114542073Y-51952532D01*
X108624707Y-51952532D01*
X108851086Y-51726153D01*
X109100000Y-51125222D01*
X109100000Y-50535461D01*
X113869092Y-50535461D01*
X113893144Y-51185460D01*
X114095613Y-51674264D01*
X114362468Y-51772927D01*
X115335395Y-50800000D01*
X115694605Y-50800000D01*
X116667532Y-51772927D01*
X116934387Y-51674264D01*
X117160908Y-51064539D01*
X117139085Y-50474778D01*
X118380000Y-50474778D01*
X118380000Y-51125222D01*
X118628914Y-51726153D01*
X119088847Y-52186086D01*
X119303801Y-52275123D01*
X119303800Y-55824877D01*
X119088847Y-55913914D01*
X118628914Y-56373847D01*
X118380000Y-56974778D01*
X118380000Y-57625222D01*
X118628914Y-58226153D01*
X119088847Y-58686086D01*
X119689778Y-58935000D01*
X120340222Y-58935000D01*
X120941153Y-58686086D01*
X121401086Y-58226153D01*
X121650000Y-57625222D01*
X121650000Y-56974778D01*
X121401086Y-56373847D01*
X120941153Y-55913914D01*
X120726200Y-55824877D01*
X120726200Y-52275123D01*
X120941153Y-52186086D01*
X121401086Y-51726153D01*
X121650000Y-51125222D01*
X121650000Y-50474778D01*
X121401086Y-49873847D01*
X120941153Y-49413914D01*
X120340222Y-49165000D01*
X119689778Y-49165000D01*
X119088847Y-49413914D01*
X118628914Y-49873847D01*
X118380000Y-50474778D01*
X117139085Y-50474778D01*
X117136856Y-50414540D01*
X116934387Y-49925736D01*
X116667532Y-49827073D01*
X115694605Y-50800000D01*
X115335395Y-50800000D01*
X114362468Y-49827073D01*
X114095613Y-49925736D01*
X113869092Y-50535461D01*
X109100000Y-50535461D01*
X109100000Y-50474778D01*
X108851086Y-49873847D01*
X108624707Y-49647468D01*
X114542073Y-49647468D01*
X115515000Y-50620395D01*
X116487927Y-49647468D01*
X116389264Y-49380613D01*
X115779539Y-49154092D01*
X115129540Y-49178144D01*
X114640736Y-49380613D01*
X114542073Y-49647468D01*
X108624707Y-49647468D01*
X108391153Y-49413914D01*
X107790222Y-49165000D01*
X107139778Y-49165000D01*
X106538847Y-49413914D01*
X106078914Y-49873847D01*
X105830000Y-50474778D01*
X104589085Y-50474778D01*
X104586856Y-50414540D01*
X104384387Y-49925736D01*
X104117532Y-49827073D01*
X103144605Y-50800000D01*
X102785395Y-50800000D01*
X101812468Y-49827073D01*
X101545613Y-49925736D01*
X101319092Y-50535461D01*
X96400000Y-50535461D01*
X96400000Y-50474778D01*
X96151086Y-49873847D01*
X95924707Y-49647468D01*
X101992073Y-49647468D01*
X102965000Y-50620395D01*
X103937927Y-49647468D01*
X103839264Y-49380613D01*
X103229539Y-49154092D01*
X102579540Y-49178144D01*
X102090736Y-49380613D01*
X101992073Y-49647468D01*
X95924707Y-49647468D01*
X95691153Y-49413914D01*
X95090222Y-49165000D01*
X94439778Y-49165000D01*
X93838847Y-49413914D01*
X93378914Y-49873847D01*
X93130000Y-50474778D01*
X91889085Y-50474778D01*
X91886856Y-50414540D01*
X91684387Y-49925736D01*
X91417532Y-49827073D01*
X90444605Y-50800000D01*
X90085395Y-50800000D01*
X89112468Y-49827073D01*
X88845613Y-49925736D01*
X88619092Y-50535461D01*
X83550000Y-50535461D01*
X83550000Y-50474778D01*
X83301086Y-49873847D01*
X83074707Y-49647468D01*
X89292073Y-49647468D01*
X90265000Y-50620395D01*
X91237927Y-49647468D01*
X91139264Y-49380613D01*
X90529539Y-49154092D01*
X89879540Y-49178144D01*
X89390736Y-49380613D01*
X89292073Y-49647468D01*
X83074707Y-49647468D01*
X82841153Y-49413914D01*
X82240222Y-49165000D01*
X81589778Y-49165000D01*
X80988847Y-49413914D01*
X80528914Y-49873847D01*
X80280000Y-50474778D01*
X79039085Y-50474778D01*
X79036856Y-50414540D01*
X78834387Y-49925736D01*
X78567532Y-49827073D01*
X77594605Y-50800000D01*
X77235395Y-50800000D01*
X76262468Y-49827073D01*
X75995613Y-49925736D01*
X75769092Y-50535461D01*
X71000000Y-50535461D01*
X71000000Y-50474778D01*
X70751086Y-49873847D01*
X70524707Y-49647468D01*
X76442073Y-49647468D01*
X77415000Y-50620395D01*
X78387927Y-49647468D01*
X78289264Y-49380613D01*
X77679539Y-49154092D01*
X77029540Y-49178144D01*
X76540736Y-49380613D01*
X76442073Y-49647468D01*
X70524707Y-49647468D01*
X70291153Y-49413914D01*
X69690222Y-49165000D01*
X69039778Y-49165000D01*
X68438847Y-49413914D01*
X67978914Y-49873847D01*
X67730000Y-50474778D01*
X66489085Y-50474778D01*
X66486856Y-50414540D01*
X66284387Y-49925736D01*
X66017532Y-49827073D01*
X65044605Y-50800000D01*
X64685395Y-50800000D01*
X63712468Y-49827073D01*
X63445613Y-49925736D01*
X63219092Y-50535461D01*
X58840000Y-50535461D01*
X58840000Y-50474778D01*
X58591086Y-49873847D01*
X58364707Y-49647468D01*
X63892073Y-49647468D01*
X64865000Y-50620395D01*
X65837927Y-49647468D01*
X65739264Y-49380613D01*
X65129539Y-49154092D01*
X64479540Y-49178144D01*
X63990736Y-49380613D01*
X63892073Y-49647468D01*
X58364707Y-49647468D01*
X58131153Y-49413914D01*
X57530222Y-49165000D01*
X56879778Y-49165000D01*
X56278847Y-49413914D01*
X55818914Y-49873847D01*
X55570000Y-50474778D01*
X54329085Y-50474778D01*
X54326856Y-50414540D01*
X54124387Y-49925736D01*
X53857532Y-49827073D01*
X52884605Y-50800000D01*
X52525395Y-50800000D01*
X51552468Y-49827073D01*
X51285613Y-49925736D01*
X51059092Y-50535461D01*
X43533833Y-50535461D01*
X43795000Y-49904950D01*
X43795000Y-49647468D01*
X51732073Y-49647468D01*
X52705000Y-50620395D01*
X53677927Y-49647468D01*
X53579264Y-49380613D01*
X52969539Y-49154092D01*
X52319540Y-49178144D01*
X51830736Y-49380613D01*
X51732073Y-49647468D01*
X43795000Y-49647468D01*
X43795000Y-49155050D01*
X43508026Y-48462233D01*
X42977767Y-47931974D01*
X42284950Y-47645000D01*
X41535050Y-47645000D01*
X40842233Y-47931974D01*
X40311974Y-48462233D01*
X40025000Y-49155050D01*
X39497000Y-49155050D01*
X39497000Y-43550000D01*
X51522560Y-43550000D01*
X51522560Y-45350000D01*
X51571843Y-45597765D01*
X51712191Y-45807809D01*
X51922235Y-45948157D01*
X52170000Y-45997440D01*
X53240000Y-45997440D01*
X53487765Y-45948157D01*
X53567736Y-45894722D01*
X53667617Y-45943900D01*
X53848000Y-45818244D01*
X53848000Y-45548280D01*
X53887440Y-45350000D01*
X53887440Y-43969770D01*
X54075000Y-43969770D01*
X54075000Y-44930231D01*
X54102000Y-45065969D01*
X54102000Y-45818244D01*
X54282383Y-45943900D01*
X54596850Y-45789066D01*
X54788490Y-45917115D01*
X55245000Y-46007921D01*
X55701511Y-45917115D01*
X55880001Y-45797853D01*
X56058490Y-45917115D01*
X56515000Y-46007921D01*
X56971511Y-45917115D01*
X57358523Y-45658523D01*
X57617115Y-45271511D01*
X57685000Y-44930230D01*
X57685000Y-43969769D01*
X57617115Y-43628489D01*
X57564671Y-43550000D01*
X64222560Y-43550000D01*
X64222560Y-45350000D01*
X64271843Y-45597765D01*
X64412191Y-45807809D01*
X64622235Y-45948157D01*
X64870000Y-45997440D01*
X65940000Y-45997440D01*
X66187765Y-45948157D01*
X66267736Y-45894722D01*
X66367617Y-45943900D01*
X66548000Y-45818244D01*
X66548000Y-45548280D01*
X66587440Y-45350000D01*
X66587440Y-43969770D01*
X66775000Y-43969770D01*
X66775000Y-44930231D01*
X66802000Y-45065969D01*
X66802000Y-45818244D01*
X66982383Y-45943900D01*
X67296850Y-45789066D01*
X67488490Y-45917115D01*
X67945000Y-46007921D01*
X68401511Y-45917115D01*
X68580001Y-45797853D01*
X68758490Y-45917115D01*
X69215000Y-46007921D01*
X69671511Y-45917115D01*
X70058523Y-45658523D01*
X70317115Y-45271511D01*
X70385000Y-44930230D01*
X70385000Y-43969769D01*
X70317115Y-43628489D01*
X70264671Y-43550000D01*
X76922560Y-43550000D01*
X76922560Y-45350000D01*
X76971843Y-45597765D01*
X77112191Y-45807809D01*
X77322235Y-45948157D01*
X77570000Y-45997440D01*
X78640000Y-45997440D01*
X78887765Y-45948157D01*
X78967736Y-45894722D01*
X79067617Y-45943900D01*
X79248000Y-45818244D01*
X79248000Y-45548280D01*
X79287440Y-45350000D01*
X79287440Y-43969770D01*
X79475000Y-43969770D01*
X79475000Y-44930231D01*
X79502000Y-45065969D01*
X79502000Y-45818244D01*
X79682383Y-45943900D01*
X79996850Y-45789066D01*
X80188490Y-45917115D01*
X80645000Y-46007921D01*
X81101511Y-45917115D01*
X81280001Y-45797853D01*
X81458490Y-45917115D01*
X81915000Y-46007921D01*
X82371511Y-45917115D01*
X82758523Y-45658523D01*
X83017115Y-45271511D01*
X83085000Y-44930230D01*
X83085000Y-43969769D01*
X83017115Y-43628489D01*
X82964671Y-43550000D01*
X89622560Y-43550000D01*
X89622560Y-45350000D01*
X89671843Y-45597765D01*
X89812191Y-45807809D01*
X90022235Y-45948157D01*
X90270000Y-45997440D01*
X91340000Y-45997440D01*
X91587765Y-45948157D01*
X91667736Y-45894722D01*
X91767617Y-45943900D01*
X91948000Y-45818244D01*
X91948000Y-45548280D01*
X91987440Y-45350000D01*
X91987440Y-43969770D01*
X92175000Y-43969770D01*
X92175000Y-44930231D01*
X92202000Y-45065969D01*
X92202000Y-45818244D01*
X92382383Y-45943900D01*
X92696850Y-45789066D01*
X92888490Y-45917115D01*
X93345000Y-46007921D01*
X93801511Y-45917115D01*
X93980001Y-45797853D01*
X94158490Y-45917115D01*
X94615000Y-46007921D01*
X95071511Y-45917115D01*
X95458523Y-45658523D01*
X95717115Y-45271511D01*
X95785000Y-44930230D01*
X95785000Y-43969769D01*
X95717115Y-43628489D01*
X95664671Y-43550000D01*
X102322560Y-43550000D01*
X102322560Y-45350000D01*
X102371843Y-45597765D01*
X102512191Y-45807809D01*
X102722235Y-45948157D01*
X102970000Y-45997440D01*
X104040000Y-45997440D01*
X104287765Y-45948157D01*
X104367736Y-45894722D01*
X104467617Y-45943900D01*
X104648000Y-45818244D01*
X104648000Y-45548280D01*
X104687440Y-45350000D01*
X104687440Y-43969770D01*
X104875000Y-43969770D01*
X104875000Y-44930231D01*
X104902000Y-45065969D01*
X104902000Y-45818244D01*
X105082383Y-45943900D01*
X105396850Y-45789066D01*
X105588490Y-45917115D01*
X106045000Y-46007921D01*
X106501511Y-45917115D01*
X106680001Y-45797853D01*
X106858490Y-45917115D01*
X107315000Y-46007921D01*
X107771511Y-45917115D01*
X108158523Y-45658523D01*
X108417115Y-45271511D01*
X108485000Y-44930230D01*
X108485000Y-43969769D01*
X108417115Y-43628489D01*
X108364671Y-43550000D01*
X115022560Y-43550000D01*
X115022560Y-45350000D01*
X115071843Y-45597765D01*
X115212191Y-45807809D01*
X115422235Y-45948157D01*
X115670000Y-45997440D01*
X116740000Y-45997440D01*
X116987765Y-45948157D01*
X117067736Y-45894722D01*
X117167617Y-45943900D01*
X117348000Y-45818244D01*
X117348000Y-45548280D01*
X117387440Y-45350000D01*
X117387440Y-43969770D01*
X117575000Y-43969770D01*
X117575000Y-44930231D01*
X117602000Y-45065969D01*
X117602000Y-45818244D01*
X117782383Y-45943900D01*
X118096850Y-45789066D01*
X118288490Y-45917115D01*
X118745000Y-46007921D01*
X119201511Y-45917115D01*
X119380001Y-45797853D01*
X119558490Y-45917115D01*
X120015000Y-46007921D01*
X120471511Y-45917115D01*
X120858523Y-45658523D01*
X121117115Y-45271511D01*
X121185000Y-44930230D01*
X121185000Y-43969769D01*
X121117115Y-43628489D01*
X120858523Y-43241477D01*
X120471510Y-42982885D01*
X120015000Y-42892079D01*
X119558489Y-42982885D01*
X119380000Y-43102147D01*
X119201510Y-42982885D01*
X118745000Y-42892079D01*
X118288489Y-42982885D01*
X118096849Y-43110934D01*
X117782383Y-42956100D01*
X117602000Y-43081756D01*
X117602000Y-43834032D01*
X117575000Y-43969770D01*
X117387440Y-43969770D01*
X117387440Y-43550000D01*
X117348000Y-43351720D01*
X117348000Y-43081756D01*
X117167617Y-42956100D01*
X117067736Y-43005278D01*
X116987765Y-42951843D01*
X116740000Y-42902560D01*
X115670000Y-42902560D01*
X115422235Y-42951843D01*
X115212191Y-43092191D01*
X115071843Y-43302235D01*
X115022560Y-43550000D01*
X108364671Y-43550000D01*
X108158523Y-43241477D01*
X107771510Y-42982885D01*
X107315000Y-42892079D01*
X106858489Y-42982885D01*
X106680000Y-43102147D01*
X106501510Y-42982885D01*
X106045000Y-42892079D01*
X105588489Y-42982885D01*
X105396849Y-43110934D01*
X105082383Y-42956100D01*
X104902000Y-43081756D01*
X104902000Y-43834032D01*
X104875000Y-43969770D01*
X104687440Y-43969770D01*
X104687440Y-43550000D01*
X104648000Y-43351720D01*
X104648000Y-43081756D01*
X104467617Y-42956100D01*
X104367736Y-43005278D01*
X104287765Y-42951843D01*
X104040000Y-42902560D01*
X102970000Y-42902560D01*
X102722235Y-42951843D01*
X102512191Y-43092191D01*
X102371843Y-43302235D01*
X102322560Y-43550000D01*
X95664671Y-43550000D01*
X95458523Y-43241477D01*
X95071510Y-42982885D01*
X94615000Y-42892079D01*
X94158489Y-42982885D01*
X93980000Y-43102147D01*
X93801510Y-42982885D01*
X93345000Y-42892079D01*
X92888489Y-42982885D01*
X92696849Y-43110934D01*
X92382383Y-42956100D01*
X92202000Y-43081756D01*
X92202000Y-43834032D01*
X92175000Y-43969770D01*
X91987440Y-43969770D01*
X91987440Y-43550000D01*
X91948000Y-43351720D01*
X91948000Y-43081756D01*
X91767617Y-42956100D01*
X91667736Y-43005278D01*
X91587765Y-42951843D01*
X91340000Y-42902560D01*
X90270000Y-42902560D01*
X90022235Y-42951843D01*
X89812191Y-43092191D01*
X89671843Y-43302235D01*
X89622560Y-43550000D01*
X82964671Y-43550000D01*
X82758523Y-43241477D01*
X82371510Y-42982885D01*
X81915000Y-42892079D01*
X81458489Y-42982885D01*
X81280000Y-43102147D01*
X81101510Y-42982885D01*
X80645000Y-42892079D01*
X80188489Y-42982885D01*
X79996849Y-43110934D01*
X79682383Y-42956100D01*
X79502000Y-43081756D01*
X79502000Y-43834032D01*
X79475000Y-43969770D01*
X79287440Y-43969770D01*
X79287440Y-43550000D01*
X79248000Y-43351720D01*
X79248000Y-43081756D01*
X79067617Y-42956100D01*
X78967736Y-43005278D01*
X78887765Y-42951843D01*
X78640000Y-42902560D01*
X77570000Y-42902560D01*
X77322235Y-42951843D01*
X77112191Y-43092191D01*
X76971843Y-43302235D01*
X76922560Y-43550000D01*
X70264671Y-43550000D01*
X70058523Y-43241477D01*
X69671510Y-42982885D01*
X69215000Y-42892079D01*
X68758489Y-42982885D01*
X68580000Y-43102147D01*
X68401510Y-42982885D01*
X67945000Y-42892079D01*
X67488489Y-42982885D01*
X67296849Y-43110934D01*
X66982383Y-42956100D01*
X66802000Y-43081756D01*
X66802000Y-43834032D01*
X66775000Y-43969770D01*
X66587440Y-43969770D01*
X66587440Y-43550000D01*
X66548000Y-43351720D01*
X66548000Y-43081756D01*
X66367617Y-42956100D01*
X66267736Y-43005278D01*
X66187765Y-42951843D01*
X65940000Y-42902560D01*
X64870000Y-42902560D01*
X64622235Y-42951843D01*
X64412191Y-43092191D01*
X64271843Y-43302235D01*
X64222560Y-43550000D01*
X57564671Y-43550000D01*
X57358523Y-43241477D01*
X56971510Y-42982885D01*
X56515000Y-42892079D01*
X56058489Y-42982885D01*
X55880000Y-43102147D01*
X55701510Y-42982885D01*
X55245000Y-42892079D01*
X54788489Y-42982885D01*
X54596849Y-43110934D01*
X54282383Y-42956100D01*
X54102000Y-43081756D01*
X54102000Y-43834032D01*
X54075000Y-43969770D01*
X53887440Y-43969770D01*
X53887440Y-43550000D01*
X53848000Y-43351720D01*
X53848000Y-43081756D01*
X53667617Y-42956100D01*
X53567736Y-43005278D01*
X53487765Y-42951843D01*
X53240000Y-42902560D01*
X52170000Y-42902560D01*
X51922235Y-42951843D01*
X51712191Y-43092191D01*
X51571843Y-43302235D01*
X51522560Y-43550000D01*
X39497000Y-43550000D01*
X39497000Y-38862000D01*
X206883000Y-38862000D01*
X206883000Y-59563000D01*
X206883000Y-59563000D01*
G37*
X206883000Y-59563000D02*
X148579788Y-59563000D01*
X155012367Y-53130422D01*
X155071746Y-53090746D01*
X155111422Y-53031367D01*
X155111424Y-53031365D01*
X155228935Y-52855497D01*
X155228936Y-52855496D01*
X155270200Y-52648046D01*
X155270200Y-52648042D01*
X155284132Y-52578000D01*
X155270200Y-52507958D01*
X155270200Y-49155050D01*
X202585000Y-49155050D01*
X202585000Y-49904950D01*
X202871974Y-50597767D01*
X203402233Y-51128026D01*
X204095050Y-51415000D01*
X204844950Y-51415000D01*
X205537767Y-51128026D01*
X206068026Y-50597767D01*
X206355000Y-49904950D01*
X206355000Y-49155050D01*
X206068026Y-48462233D01*
X205537767Y-47931974D01*
X204844950Y-47645000D01*
X204095050Y-47645000D01*
X203402233Y-47931974D01*
X202871974Y-48462233D01*
X202585000Y-49155050D01*
X155270200Y-49155050D01*
X155270200Y-45282041D01*
X155284132Y-45211999D01*
X155270200Y-45141955D01*
X155270200Y-45141954D01*
X155228936Y-44934504D01*
X155226081Y-44930231D01*
X155111424Y-44758636D01*
X155111422Y-44758634D01*
X155071745Y-44699254D01*
X155012366Y-44659578D01*
X154730424Y-44377636D01*
X154690746Y-44318254D01*
X154455496Y-44161064D01*
X154248046Y-44119800D01*
X154248041Y-44119800D01*
X154178000Y-44105868D01*
X154107959Y-44119800D01*
X152089041Y-44119800D01*
X152018999Y-44105868D01*
X151948957Y-44119800D01*
X151948954Y-44119800D01*
X151741504Y-44161064D01*
X151741503Y-44161065D01*
X151741502Y-44161065D01*
X151565635Y-44278576D01*
X151565633Y-44278578D01*
X151506254Y-44318254D01*
X151466578Y-44377633D01*
X150930537Y-44913675D01*
X150642598Y-44856400D01*
X150347402Y-44856400D01*
X149910275Y-44943350D01*
X149414570Y-45274570D01*
X149083350Y-45770275D01*
X148967041Y-46355000D01*
X149083350Y-46939725D01*
X149414570Y-47435430D01*
X149698281Y-47625000D01*
X149414570Y-47814570D01*
X149083350Y-48310275D01*
X148967041Y-48895000D01*
X149083350Y-49479725D01*
X149414570Y-49975430D01*
X149698281Y-50165000D01*
X149414570Y-50354570D01*
X149167858Y-50723800D01*
X147487589Y-50723800D01*
X144264000Y-47500212D01*
X144264000Y-47145234D01*
X144231263Y-47066200D01*
X145156067Y-47066200D01*
X145407074Y-47317207D01*
X145824234Y-47490000D01*
X146275766Y-47490000D01*
X146692926Y-47317207D01*
X147012207Y-46997926D01*
X147185000Y-46580766D01*
X147185000Y-46129234D01*
X147012207Y-45712074D01*
X146692926Y-45392793D01*
X146275766Y-45220000D01*
X145824234Y-45220000D01*
X145407074Y-45392793D01*
X145156067Y-45643800D01*
X133420045Y-45643800D01*
X133350003Y-45629868D01*
X133279961Y-45643800D01*
X133279958Y-45643800D01*
X133072508Y-45685064D01*
X133072507Y-45685065D01*
X133072506Y-45685065D01*
X132896639Y-45802576D01*
X132896637Y-45802578D01*
X132837258Y-45842254D01*
X132828739Y-45855004D01*
X132489234Y-45855004D01*
X132072074Y-46027797D01*
X131752793Y-46347078D01*
X131580000Y-46764238D01*
X131580000Y-47215770D01*
X131717945Y-47548800D01*
X131703933Y-47548800D01*
X131452926Y-47297793D01*
X131035766Y-47125000D01*
X130584234Y-47125000D01*
X130167074Y-47297793D01*
X129847793Y-47617074D01*
X129675000Y-48034234D01*
X129675000Y-48485766D01*
X129847793Y-48902926D01*
X130167074Y-49222207D01*
X130584234Y-49395000D01*
X131035766Y-49395000D01*
X131452926Y-49222207D01*
X131703933Y-48971200D01*
X142169959Y-48971200D01*
X142240000Y-48985132D01*
X142310041Y-48971200D01*
X142310046Y-48971200D01*
X142517496Y-48929936D01*
X142752746Y-48772746D01*
X142792424Y-48713364D01*
X142999788Y-48506000D01*
X143258212Y-48506000D01*
X146187211Y-51435000D01*
X145469634Y-52152578D01*
X145410254Y-52192255D01*
X145370578Y-52251634D01*
X145370576Y-52251636D01*
X145312847Y-52338034D01*
X145253064Y-52427505D01*
X145211800Y-52634955D01*
X145211800Y-52634959D01*
X145197868Y-52705000D01*
X145211800Y-52775042D01*
X145211801Y-53299409D01*
X144401212Y-54109998D01*
X144046234Y-54109998D01*
X143629074Y-54282791D01*
X143309793Y-54602072D01*
X143137000Y-55019232D01*
X143137000Y-55470764D01*
X143309793Y-55887924D01*
X143629074Y-56207205D01*
X144046234Y-56379998D01*
X144497766Y-56379998D01*
X144914926Y-56207205D01*
X145234207Y-55887924D01*
X145407000Y-55470764D01*
X145407000Y-55115786D01*
X146376367Y-54146420D01*
X146435746Y-54106744D01*
X146475422Y-54047365D01*
X146475424Y-54047363D01*
X146592935Y-53871495D01*
X146592936Y-53871494D01*
X146634200Y-53664044D01*
X146634200Y-53664040D01*
X146648132Y-53593998D01*
X146634200Y-53523956D01*
X146634200Y-52999588D01*
X147487589Y-52146200D01*
X147534460Y-52146200D01*
X147455000Y-52338034D01*
X147455000Y-52789566D01*
X147627793Y-53206726D01*
X147878801Y-53457734D01*
X147878801Y-53904954D01*
X147864868Y-53975000D01*
X147920065Y-54252496D01*
X148037576Y-54428364D01*
X148037579Y-54428367D01*
X148077255Y-54487746D01*
X148136634Y-54527422D01*
X148371444Y-54762232D01*
X148371444Y-55117210D01*
X148544237Y-55534370D01*
X148863518Y-55853651D01*
X149280678Y-56026444D01*
X149732210Y-56026444D01*
X150149370Y-55853651D01*
X150468651Y-55534370D01*
X150641444Y-55117210D01*
X150641444Y-54665678D01*
X150468651Y-54248518D01*
X150149370Y-53929237D01*
X149732210Y-53756444D01*
X149377232Y-53756444D01*
X149301200Y-53680412D01*
X149301200Y-53457733D01*
X149552207Y-53206726D01*
X149725000Y-52789566D01*
X149725000Y-52722853D01*
X149910275Y-52846650D01*
X150347402Y-52933600D01*
X150642598Y-52933600D01*
X151079725Y-52846650D01*
X151575430Y-52515430D01*
X151765000Y-52231719D01*
X151954570Y-52515430D01*
X152450275Y-52846650D01*
X152887402Y-52933600D01*
X153182598Y-52933600D01*
X153201339Y-52929872D01*
X146568212Y-59563000D01*
X39497000Y-59563000D01*
X39497000Y-58452532D01*
X51732073Y-58452532D01*
X51830736Y-58719387D01*
X52440461Y-58945908D01*
X53090460Y-58921856D01*
X53579264Y-58719387D01*
X53677927Y-58452532D01*
X52705000Y-57479605D01*
X51732073Y-58452532D01*
X39497000Y-58452532D01*
X39497000Y-57035461D01*
X51059092Y-57035461D01*
X51083144Y-57685460D01*
X51285613Y-58174264D01*
X51552468Y-58272927D01*
X52525395Y-57300000D01*
X52884605Y-57300000D01*
X53857532Y-58272927D01*
X54124387Y-58174264D01*
X54350908Y-57564539D01*
X54326856Y-56914540D01*
X54124387Y-56425736D01*
X53857532Y-56327073D01*
X52884605Y-57300000D01*
X52525395Y-57300000D01*
X51552468Y-56327073D01*
X51285613Y-56425736D01*
X51059092Y-57035461D01*
X39497000Y-57035461D01*
X39497000Y-56147468D01*
X51732073Y-56147468D01*
X52705000Y-57120395D01*
X53677927Y-56147468D01*
X53579264Y-55880613D01*
X52969539Y-55654092D01*
X52319540Y-55678144D01*
X51830736Y-55880613D01*
X51732073Y-56147468D01*
X39497000Y-56147468D01*
X39497000Y-51952532D01*
X51732073Y-51952532D01*
X51830736Y-52219387D01*
X52440461Y-52445908D01*
X53090460Y-52421856D01*
X53579264Y-52219387D01*
X53677927Y-51952532D01*
X52705000Y-50979605D01*
X51732073Y-51952532D01*
X39497000Y-51952532D01*
X39497000Y-49155050D01*
X40025000Y-49155050D01*
X40025000Y-49904950D01*
X40311974Y-50597767D01*
X40842233Y-51128026D01*
X41535050Y-51415000D01*
X42284950Y-51415000D01*
X42977767Y-51128026D01*
X43508026Y-50597767D01*
X43533833Y-50535461D01*
X51059092Y-50535461D01*
X51083144Y-51185460D01*
X51285613Y-51674264D01*
X51552468Y-51772927D01*
X52525395Y-50800000D01*
X52884605Y-50800000D01*
X53857532Y-51772927D01*
X54124387Y-51674264D01*
X54350908Y-51064539D01*
X54329085Y-50474778D01*
X55570000Y-50474778D01*
X55570000Y-51125222D01*
X55818914Y-51726153D01*
X56278847Y-52186086D01*
X56493801Y-52275123D01*
X56493800Y-55824877D01*
X56278847Y-55913914D01*
X55818914Y-56373847D01*
X55570000Y-56974778D01*
X55570000Y-57625222D01*
X55818914Y-58226153D01*
X56278847Y-58686086D01*
X56879778Y-58935000D01*
X57530222Y-58935000D01*
X58131153Y-58686086D01*
X58364707Y-58452532D01*
X63892073Y-58452532D01*
X63990736Y-58719387D01*
X64600461Y-58945908D01*
X65250460Y-58921856D01*
X65739264Y-58719387D01*
X65837927Y-58452532D01*
X64865000Y-57479605D01*
X63892073Y-58452532D01*
X58364707Y-58452532D01*
X58591086Y-58226153D01*
X58840000Y-57625222D01*
X58840000Y-57035461D01*
X63219092Y-57035461D01*
X63243144Y-57685460D01*
X63445613Y-58174264D01*
X63712468Y-58272927D01*
X64685395Y-57300000D01*
X65044605Y-57300000D01*
X66017532Y-58272927D01*
X66284387Y-58174264D01*
X66510908Y-57564539D01*
X66486856Y-56914540D01*
X66284387Y-56425736D01*
X66017532Y-56327073D01*
X65044605Y-57300000D01*
X64685395Y-57300000D01*
X63712468Y-56327073D01*
X63445613Y-56425736D01*
X63219092Y-57035461D01*
X58840000Y-57035461D01*
X58840000Y-56974778D01*
X58591086Y-56373847D01*
X58364707Y-56147468D01*
X63892073Y-56147468D01*
X64865000Y-57120395D01*
X65837927Y-56147468D01*
X65739264Y-55880613D01*
X65129539Y-55654092D01*
X64479540Y-55678144D01*
X63990736Y-55880613D01*
X63892073Y-56147468D01*
X58364707Y-56147468D01*
X58131153Y-55913914D01*
X57916200Y-55824877D01*
X57916200Y-52275123D01*
X58131153Y-52186086D01*
X58364707Y-51952532D01*
X63892073Y-51952532D01*
X63990736Y-52219387D01*
X64600461Y-52445908D01*
X65250460Y-52421856D01*
X65739264Y-52219387D01*
X65837927Y-51952532D01*
X64865000Y-50979605D01*
X63892073Y-51952532D01*
X58364707Y-51952532D01*
X58591086Y-51726153D01*
X58840000Y-51125222D01*
X58840000Y-50535461D01*
X63219092Y-50535461D01*
X63243144Y-51185460D01*
X63445613Y-51674264D01*
X63712468Y-51772927D01*
X64685395Y-50800000D01*
X65044605Y-50800000D01*
X66017532Y-51772927D01*
X66284387Y-51674264D01*
X66510908Y-51064539D01*
X66489085Y-50474778D01*
X67730000Y-50474778D01*
X67730000Y-51125222D01*
X67978914Y-51726153D01*
X68438847Y-52186086D01*
X68653801Y-52275123D01*
X68653800Y-55824877D01*
X68438847Y-55913914D01*
X67978914Y-56373847D01*
X67730000Y-56974778D01*
X67730000Y-57625222D01*
X67978914Y-58226153D01*
X68438847Y-58686086D01*
X69039778Y-58935000D01*
X69690222Y-58935000D01*
X70291153Y-58686086D01*
X70524707Y-58452532D01*
X76442073Y-58452532D01*
X76540736Y-58719387D01*
X77150461Y-58945908D01*
X77800460Y-58921856D01*
X78289264Y-58719387D01*
X78387927Y-58452532D01*
X77415000Y-57479605D01*
X76442073Y-58452532D01*
X70524707Y-58452532D01*
X70751086Y-58226153D01*
X71000000Y-57625222D01*
X71000000Y-57035461D01*
X75769092Y-57035461D01*
X75793144Y-57685460D01*
X75995613Y-58174264D01*
X76262468Y-58272927D01*
X77235395Y-57300000D01*
X77594605Y-57300000D01*
X78567532Y-58272927D01*
X78834387Y-58174264D01*
X79060908Y-57564539D01*
X79036856Y-56914540D01*
X78834387Y-56425736D01*
X78567532Y-56327073D01*
X77594605Y-57300000D01*
X77235395Y-57300000D01*
X76262468Y-56327073D01*
X75995613Y-56425736D01*
X75769092Y-57035461D01*
X71000000Y-57035461D01*
X71000000Y-56974778D01*
X70751086Y-56373847D01*
X70524707Y-56147468D01*
X76442073Y-56147468D01*
X77415000Y-57120395D01*
X78387927Y-56147468D01*
X78289264Y-55880613D01*
X77679539Y-55654092D01*
X77029540Y-55678144D01*
X76540736Y-55880613D01*
X76442073Y-56147468D01*
X70524707Y-56147468D01*
X70291153Y-55913914D01*
X70076200Y-55824877D01*
X70076200Y-52275123D01*
X70291153Y-52186086D01*
X70524707Y-51952532D01*
X76442073Y-51952532D01*
X76540736Y-52219387D01*
X77150461Y-52445908D01*
X77800460Y-52421856D01*
X78289264Y-52219387D01*
X78387927Y-51952532D01*
X77415000Y-50979605D01*
X76442073Y-51952532D01*
X70524707Y-51952532D01*
X70751086Y-51726153D01*
X71000000Y-51125222D01*
X71000000Y-50535461D01*
X75769092Y-50535461D01*
X75793144Y-51185460D01*
X75995613Y-51674264D01*
X76262468Y-51772927D01*
X77235395Y-50800000D01*
X77594605Y-50800000D01*
X78567532Y-51772927D01*
X78834387Y-51674264D01*
X79060908Y-51064539D01*
X79039085Y-50474778D01*
X80280000Y-50474778D01*
X80280000Y-51125222D01*
X80528914Y-51726153D01*
X80988847Y-52186086D01*
X81203801Y-52275123D01*
X81203800Y-55824877D01*
X80988847Y-55913914D01*
X80528914Y-56373847D01*
X80280000Y-56974778D01*
X80280000Y-57625222D01*
X80528914Y-58226153D01*
X80988847Y-58686086D01*
X81589778Y-58935000D01*
X82240222Y-58935000D01*
X82841153Y-58686086D01*
X83074707Y-58452532D01*
X89292073Y-58452532D01*
X89390736Y-58719387D01*
X90000461Y-58945908D01*
X90650460Y-58921856D01*
X91139264Y-58719387D01*
X91237927Y-58452532D01*
X90265000Y-57479605D01*
X89292073Y-58452532D01*
X83074707Y-58452532D01*
X83301086Y-58226153D01*
X83550000Y-57625222D01*
X83550000Y-57035461D01*
X88619092Y-57035461D01*
X88643144Y-57685460D01*
X88845613Y-58174264D01*
X89112468Y-58272927D01*
X90085395Y-57300000D01*
X90444605Y-57300000D01*
X91417532Y-58272927D01*
X91684387Y-58174264D01*
X91910908Y-57564539D01*
X91886856Y-56914540D01*
X91684387Y-56425736D01*
X91417532Y-56327073D01*
X90444605Y-57300000D01*
X90085395Y-57300000D01*
X89112468Y-56327073D01*
X88845613Y-56425736D01*
X88619092Y-57035461D01*
X83550000Y-57035461D01*
X83550000Y-56974778D01*
X83301086Y-56373847D01*
X83074707Y-56147468D01*
X89292073Y-56147468D01*
X90265000Y-57120395D01*
X91237927Y-56147468D01*
X91139264Y-55880613D01*
X90529539Y-55654092D01*
X89879540Y-55678144D01*
X89390736Y-55880613D01*
X89292073Y-56147468D01*
X83074707Y-56147468D01*
X82841153Y-55913914D01*
X82626200Y-55824877D01*
X82626200Y-52275123D01*
X82841153Y-52186086D01*
X83074707Y-51952532D01*
X89292073Y-51952532D01*
X89390736Y-52219387D01*
X90000461Y-52445908D01*
X90650460Y-52421856D01*
X91139264Y-52219387D01*
X91237927Y-51952532D01*
X90265000Y-50979605D01*
X89292073Y-51952532D01*
X83074707Y-51952532D01*
X83301086Y-51726153D01*
X83550000Y-51125222D01*
X83550000Y-50535461D01*
X88619092Y-50535461D01*
X88643144Y-51185460D01*
X88845613Y-51674264D01*
X89112468Y-51772927D01*
X90085395Y-50800000D01*
X90444605Y-50800000D01*
X91417532Y-51772927D01*
X91684387Y-51674264D01*
X91910908Y-51064539D01*
X91889085Y-50474778D01*
X93130000Y-50474778D01*
X93130000Y-51125222D01*
X93378914Y-51726153D01*
X93838847Y-52186086D01*
X94053801Y-52275123D01*
X94053800Y-55824877D01*
X93838847Y-55913914D01*
X93378914Y-56373847D01*
X93130000Y-56974778D01*
X93130000Y-57625222D01*
X93378914Y-58226153D01*
X93838847Y-58686086D01*
X94439778Y-58935000D01*
X95090222Y-58935000D01*
X95691153Y-58686086D01*
X95924707Y-58452532D01*
X101992073Y-58452532D01*
X102090736Y-58719387D01*
X102700461Y-58945908D01*
X103350460Y-58921856D01*
X103839264Y-58719387D01*
X103937927Y-58452532D01*
X102965000Y-57479605D01*
X101992073Y-58452532D01*
X95924707Y-58452532D01*
X96151086Y-58226153D01*
X96400000Y-57625222D01*
X96400000Y-57035461D01*
X101319092Y-57035461D01*
X101343144Y-57685460D01*
X101545613Y-58174264D01*
X101812468Y-58272927D01*
X102785395Y-57300000D01*
X103144605Y-57300000D01*
X104117532Y-58272927D01*
X104384387Y-58174264D01*
X104610908Y-57564539D01*
X104586856Y-56914540D01*
X104384387Y-56425736D01*
X104117532Y-56327073D01*
X103144605Y-57300000D01*
X102785395Y-57300000D01*
X101812468Y-56327073D01*
X101545613Y-56425736D01*
X101319092Y-57035461D01*
X96400000Y-57035461D01*
X96400000Y-56974778D01*
X96151086Y-56373847D01*
X95924707Y-56147468D01*
X101992073Y-56147468D01*
X102965000Y-57120395D01*
X103937927Y-56147468D01*
X103839264Y-55880613D01*
X103229539Y-55654092D01*
X102579540Y-55678144D01*
X102090736Y-55880613D01*
X101992073Y-56147468D01*
X95924707Y-56147468D01*
X95691153Y-55913914D01*
X95476200Y-55824877D01*
X95476200Y-52275123D01*
X95691153Y-52186086D01*
X95924707Y-51952532D01*
X101992073Y-51952532D01*
X102090736Y-52219387D01*
X102700461Y-52445908D01*
X103350460Y-52421856D01*
X103839264Y-52219387D01*
X103937927Y-51952532D01*
X102965000Y-50979605D01*
X101992073Y-51952532D01*
X95924707Y-51952532D01*
X96151086Y-51726153D01*
X96400000Y-51125222D01*
X96400000Y-50535461D01*
X101319092Y-50535461D01*
X101343144Y-51185460D01*
X101545613Y-51674264D01*
X101812468Y-51772927D01*
X102785395Y-50800000D01*
X103144605Y-50800000D01*
X104117532Y-51772927D01*
X104384387Y-51674264D01*
X104610908Y-51064539D01*
X104589085Y-50474778D01*
X105830000Y-50474778D01*
X105830000Y-51125222D01*
X106078914Y-51726153D01*
X106538847Y-52186086D01*
X106753801Y-52275123D01*
X106753800Y-55824877D01*
X106538847Y-55913914D01*
X106078914Y-56373847D01*
X105830000Y-56974778D01*
X105830000Y-57625222D01*
X106078914Y-58226153D01*
X106538847Y-58686086D01*
X107139778Y-58935000D01*
X107790222Y-58935000D01*
X108391153Y-58686086D01*
X108624707Y-58452532D01*
X114542073Y-58452532D01*
X114640736Y-58719387D01*
X115250461Y-58945908D01*
X115900460Y-58921856D01*
X116389264Y-58719387D01*
X116487927Y-58452532D01*
X115515000Y-57479605D01*
X114542073Y-58452532D01*
X108624707Y-58452532D01*
X108851086Y-58226153D01*
X109100000Y-57625222D01*
X109100000Y-57035461D01*
X113869092Y-57035461D01*
X113893144Y-57685460D01*
X114095613Y-58174264D01*
X114362468Y-58272927D01*
X115335395Y-57300000D01*
X115694605Y-57300000D01*
X116667532Y-58272927D01*
X116934387Y-58174264D01*
X117160908Y-57564539D01*
X117136856Y-56914540D01*
X116934387Y-56425736D01*
X116667532Y-56327073D01*
X115694605Y-57300000D01*
X115335395Y-57300000D01*
X114362468Y-56327073D01*
X114095613Y-56425736D01*
X113869092Y-57035461D01*
X109100000Y-57035461D01*
X109100000Y-56974778D01*
X108851086Y-56373847D01*
X108624707Y-56147468D01*
X114542073Y-56147468D01*
X115515000Y-57120395D01*
X116487927Y-56147468D01*
X116389264Y-55880613D01*
X115779539Y-55654092D01*
X115129540Y-55678144D01*
X114640736Y-55880613D01*
X114542073Y-56147468D01*
X108624707Y-56147468D01*
X108391153Y-55913914D01*
X108176200Y-55824877D01*
X108176200Y-52275123D01*
X108391153Y-52186086D01*
X108624707Y-51952532D01*
X114542073Y-51952532D01*
X114640736Y-52219387D01*
X115250461Y-52445908D01*
X115900460Y-52421856D01*
X116389264Y-52219387D01*
X116487927Y-51952532D01*
X115515000Y-50979605D01*
X114542073Y-51952532D01*
X108624707Y-51952532D01*
X108851086Y-51726153D01*
X109100000Y-51125222D01*
X109100000Y-50535461D01*
X113869092Y-50535461D01*
X113893144Y-51185460D01*
X114095613Y-51674264D01*
X114362468Y-51772927D01*
X115335395Y-50800000D01*
X115694605Y-50800000D01*
X116667532Y-51772927D01*
X116934387Y-51674264D01*
X117160908Y-51064539D01*
X117139085Y-50474778D01*
X118380000Y-50474778D01*
X118380000Y-51125222D01*
X118628914Y-51726153D01*
X119088847Y-52186086D01*
X119303801Y-52275123D01*
X119303800Y-55824877D01*
X119088847Y-55913914D01*
X118628914Y-56373847D01*
X118380000Y-56974778D01*
X118380000Y-57625222D01*
X118628914Y-58226153D01*
X119088847Y-58686086D01*
X119689778Y-58935000D01*
X120340222Y-58935000D01*
X120941153Y-58686086D01*
X121401086Y-58226153D01*
X121650000Y-57625222D01*
X121650000Y-56974778D01*
X121401086Y-56373847D01*
X120941153Y-55913914D01*
X120726200Y-55824877D01*
X120726200Y-52275123D01*
X120941153Y-52186086D01*
X121401086Y-51726153D01*
X121650000Y-51125222D01*
X121650000Y-50474778D01*
X121401086Y-49873847D01*
X120941153Y-49413914D01*
X120340222Y-49165000D01*
X119689778Y-49165000D01*
X119088847Y-49413914D01*
X118628914Y-49873847D01*
X118380000Y-50474778D01*
X117139085Y-50474778D01*
X117136856Y-50414540D01*
X116934387Y-49925736D01*
X116667532Y-49827073D01*
X115694605Y-50800000D01*
X115335395Y-50800000D01*
X114362468Y-49827073D01*
X114095613Y-49925736D01*
X113869092Y-50535461D01*
X109100000Y-50535461D01*
X109100000Y-50474778D01*
X108851086Y-49873847D01*
X108624707Y-49647468D01*
X114542073Y-49647468D01*
X115515000Y-50620395D01*
X116487927Y-49647468D01*
X116389264Y-49380613D01*
X115779539Y-49154092D01*
X115129540Y-49178144D01*
X114640736Y-49380613D01*
X114542073Y-49647468D01*
X108624707Y-49647468D01*
X108391153Y-49413914D01*
X107790222Y-49165000D01*
X107139778Y-49165000D01*
X106538847Y-49413914D01*
X106078914Y-49873847D01*
X105830000Y-50474778D01*
X104589085Y-50474778D01*
X104586856Y-50414540D01*
X104384387Y-49925736D01*
X104117532Y-49827073D01*
X103144605Y-50800000D01*
X102785395Y-50800000D01*
X101812468Y-49827073D01*
X101545613Y-49925736D01*
X101319092Y-50535461D01*
X96400000Y-50535461D01*
X96400000Y-50474778D01*
X96151086Y-49873847D01*
X95924707Y-49647468D01*
X101992073Y-49647468D01*
X102965000Y-50620395D01*
X103937927Y-49647468D01*
X103839264Y-49380613D01*
X103229539Y-49154092D01*
X102579540Y-49178144D01*
X102090736Y-49380613D01*
X101992073Y-49647468D01*
X95924707Y-49647468D01*
X95691153Y-49413914D01*
X95090222Y-49165000D01*
X94439778Y-49165000D01*
X93838847Y-49413914D01*
X93378914Y-49873847D01*
X93130000Y-50474778D01*
X91889085Y-50474778D01*
X91886856Y-50414540D01*
X91684387Y-49925736D01*
X91417532Y-49827073D01*
X90444605Y-50800000D01*
X90085395Y-50800000D01*
X89112468Y-49827073D01*
X88845613Y-49925736D01*
X88619092Y-50535461D01*
X83550000Y-50535461D01*
X83550000Y-50474778D01*
X83301086Y-49873847D01*
X83074707Y-49647468D01*
X89292073Y-49647468D01*
X90265000Y-50620395D01*
X91237927Y-49647468D01*
X91139264Y-49380613D01*
X90529539Y-49154092D01*
X89879540Y-49178144D01*
X89390736Y-49380613D01*
X89292073Y-49647468D01*
X83074707Y-49647468D01*
X82841153Y-49413914D01*
X82240222Y-49165000D01*
X81589778Y-49165000D01*
X80988847Y-49413914D01*
X80528914Y-49873847D01*
X80280000Y-50474778D01*
X79039085Y-50474778D01*
X79036856Y-50414540D01*
X78834387Y-49925736D01*
X78567532Y-49827073D01*
X77594605Y-50800000D01*
X77235395Y-50800000D01*
X76262468Y-49827073D01*
X75995613Y-49925736D01*
X75769092Y-50535461D01*
X71000000Y-50535461D01*
X71000000Y-50474778D01*
X70751086Y-49873847D01*
X70524707Y-49647468D01*
X76442073Y-49647468D01*
X77415000Y-50620395D01*
X78387927Y-49647468D01*
X78289264Y-49380613D01*
X77679539Y-49154092D01*
X77029540Y-49178144D01*
X76540736Y-49380613D01*
X76442073Y-49647468D01*
X70524707Y-49647468D01*
X70291153Y-49413914D01*
X69690222Y-49165000D01*
X69039778Y-49165000D01*
X68438847Y-49413914D01*
X67978914Y-49873847D01*
X67730000Y-50474778D01*
X66489085Y-50474778D01*
X66486856Y-50414540D01*
X66284387Y-49925736D01*
X66017532Y-49827073D01*
X65044605Y-50800000D01*
X64685395Y-50800000D01*
X63712468Y-49827073D01*
X63445613Y-49925736D01*
X63219092Y-50535461D01*
X58840000Y-50535461D01*
X58840000Y-50474778D01*
X58591086Y-49873847D01*
X58364707Y-49647468D01*
X63892073Y-49647468D01*
X64865000Y-50620395D01*
X65837927Y-49647468D01*
X65739264Y-49380613D01*
X65129539Y-49154092D01*
X64479540Y-49178144D01*
X63990736Y-49380613D01*
X63892073Y-49647468D01*
X58364707Y-49647468D01*
X58131153Y-49413914D01*
X57530222Y-49165000D01*
X56879778Y-49165000D01*
X56278847Y-49413914D01*
X55818914Y-49873847D01*
X55570000Y-50474778D01*
X54329085Y-50474778D01*
X54326856Y-50414540D01*
X54124387Y-49925736D01*
X53857532Y-49827073D01*
X52884605Y-50800000D01*
X52525395Y-50800000D01*
X51552468Y-49827073D01*
X51285613Y-49925736D01*
X51059092Y-50535461D01*
X43533833Y-50535461D01*
X43795000Y-49904950D01*
X43795000Y-49647468D01*
X51732073Y-49647468D01*
X52705000Y-50620395D01*
X53677927Y-49647468D01*
X53579264Y-49380613D01*
X52969539Y-49154092D01*
X52319540Y-49178144D01*
X51830736Y-49380613D01*
X51732073Y-49647468D01*
X43795000Y-49647468D01*
X43795000Y-49155050D01*
X43508026Y-48462233D01*
X42977767Y-47931974D01*
X42284950Y-47645000D01*
X41535050Y-47645000D01*
X40842233Y-47931974D01*
X40311974Y-48462233D01*
X40025000Y-49155050D01*
X39497000Y-49155050D01*
X39497000Y-43550000D01*
X51522560Y-43550000D01*
X51522560Y-45350000D01*
X51571843Y-45597765D01*
X51712191Y-45807809D01*
X51922235Y-45948157D01*
X52170000Y-45997440D01*
X53240000Y-45997440D01*
X53487765Y-45948157D01*
X53567736Y-45894722D01*
X53667617Y-45943900D01*
X53848000Y-45818244D01*
X53848000Y-45548280D01*
X53887440Y-45350000D01*
X53887440Y-43969770D01*
X54075000Y-43969770D01*
X54075000Y-44930231D01*
X54102000Y-45065969D01*
X54102000Y-45818244D01*
X54282383Y-45943900D01*
X54596850Y-45789066D01*
X54788490Y-45917115D01*
X55245000Y-46007921D01*
X55701511Y-45917115D01*
X55880001Y-45797853D01*
X56058490Y-45917115D01*
X56515000Y-46007921D01*
X56971511Y-45917115D01*
X57358523Y-45658523D01*
X57617115Y-45271511D01*
X57685000Y-44930230D01*
X57685000Y-43969769D01*
X57617115Y-43628489D01*
X57564671Y-43550000D01*
X64222560Y-43550000D01*
X64222560Y-45350000D01*
X64271843Y-45597765D01*
X64412191Y-45807809D01*
X64622235Y-45948157D01*
X64870000Y-45997440D01*
X65940000Y-45997440D01*
X66187765Y-45948157D01*
X66267736Y-45894722D01*
X66367617Y-45943900D01*
X66548000Y-45818244D01*
X66548000Y-45548280D01*
X66587440Y-45350000D01*
X66587440Y-43969770D01*
X66775000Y-43969770D01*
X66775000Y-44930231D01*
X66802000Y-45065969D01*
X66802000Y-45818244D01*
X66982383Y-45943900D01*
X67296850Y-45789066D01*
X67488490Y-45917115D01*
X67945000Y-46007921D01*
X68401511Y-45917115D01*
X68580001Y-45797853D01*
X68758490Y-45917115D01*
X69215000Y-46007921D01*
X69671511Y-45917115D01*
X70058523Y-45658523D01*
X70317115Y-45271511D01*
X70385000Y-44930230D01*
X70385000Y-43969769D01*
X70317115Y-43628489D01*
X70264671Y-43550000D01*
X76922560Y-43550000D01*
X76922560Y-45350000D01*
X76971843Y-45597765D01*
X77112191Y-45807809D01*
X77322235Y-45948157D01*
X77570000Y-45997440D01*
X78640000Y-45997440D01*
X78887765Y-45948157D01*
X78967736Y-45894722D01*
X79067617Y-45943900D01*
X79248000Y-45818244D01*
X79248000Y-45548280D01*
X79287440Y-45350000D01*
X79287440Y-43969770D01*
X79475000Y-43969770D01*
X79475000Y-44930231D01*
X79502000Y-45065969D01*
X79502000Y-45818244D01*
X79682383Y-45943900D01*
X79996850Y-45789066D01*
X80188490Y-45917115D01*
X80645000Y-46007921D01*
X81101511Y-45917115D01*
X81280001Y-45797853D01*
X81458490Y-45917115D01*
X81915000Y-46007921D01*
X82371511Y-45917115D01*
X82758523Y-45658523D01*
X83017115Y-45271511D01*
X83085000Y-44930230D01*
X83085000Y-43969769D01*
X83017115Y-43628489D01*
X82964671Y-43550000D01*
X89622560Y-43550000D01*
X89622560Y-45350000D01*
X89671843Y-45597765D01*
X89812191Y-45807809D01*
X90022235Y-45948157D01*
X90270000Y-45997440D01*
X91340000Y-45997440D01*
X91587765Y-45948157D01*
X91667736Y-45894722D01*
X91767617Y-45943900D01*
X91948000Y-45818244D01*
X91948000Y-45548280D01*
X91987440Y-45350000D01*
X91987440Y-43969770D01*
X92175000Y-43969770D01*
X92175000Y-44930231D01*
X92202000Y-45065969D01*
X92202000Y-45818244D01*
X92382383Y-45943900D01*
X92696850Y-45789066D01*
X92888490Y-45917115D01*
X93345000Y-46007921D01*
X93801511Y-45917115D01*
X93980001Y-45797853D01*
X94158490Y-45917115D01*
X94615000Y-46007921D01*
X95071511Y-45917115D01*
X95458523Y-45658523D01*
X95717115Y-45271511D01*
X95785000Y-44930230D01*
X95785000Y-43969769D01*
X95717115Y-43628489D01*
X95664671Y-43550000D01*
X102322560Y-43550000D01*
X102322560Y-45350000D01*
X102371843Y-45597765D01*
X102512191Y-45807809D01*
X102722235Y-45948157D01*
X102970000Y-45997440D01*
X104040000Y-45997440D01*
X104287765Y-45948157D01*
X104367736Y-45894722D01*
X104467617Y-45943900D01*
X104648000Y-45818244D01*
X104648000Y-45548280D01*
X104687440Y-45350000D01*
X104687440Y-43969770D01*
X104875000Y-43969770D01*
X104875000Y-44930231D01*
X104902000Y-45065969D01*
X104902000Y-45818244D01*
X105082383Y-45943900D01*
X105396850Y-45789066D01*
X105588490Y-45917115D01*
X106045000Y-46007921D01*
X106501511Y-45917115D01*
X106680001Y-45797853D01*
X106858490Y-45917115D01*
X107315000Y-46007921D01*
X107771511Y-45917115D01*
X108158523Y-45658523D01*
X108417115Y-45271511D01*
X108485000Y-44930230D01*
X108485000Y-43969769D01*
X108417115Y-43628489D01*
X108364671Y-43550000D01*
X115022560Y-43550000D01*
X115022560Y-45350000D01*
X115071843Y-45597765D01*
X115212191Y-45807809D01*
X115422235Y-45948157D01*
X115670000Y-45997440D01*
X116740000Y-45997440D01*
X116987765Y-45948157D01*
X117067736Y-45894722D01*
X117167617Y-45943900D01*
X117348000Y-45818244D01*
X117348000Y-45548280D01*
X117387440Y-45350000D01*
X117387440Y-43969770D01*
X117575000Y-43969770D01*
X117575000Y-44930231D01*
X117602000Y-45065969D01*
X117602000Y-45818244D01*
X117782383Y-45943900D01*
X118096850Y-45789066D01*
X118288490Y-45917115D01*
X118745000Y-46007921D01*
X119201511Y-45917115D01*
X119380001Y-45797853D01*
X119558490Y-45917115D01*
X120015000Y-46007921D01*
X120471511Y-45917115D01*
X120858523Y-45658523D01*
X121117115Y-45271511D01*
X121185000Y-44930230D01*
X121185000Y-43969769D01*
X121117115Y-43628489D01*
X120858523Y-43241477D01*
X120471510Y-42982885D01*
X120015000Y-42892079D01*
X119558489Y-42982885D01*
X119380000Y-43102147D01*
X119201510Y-42982885D01*
X118745000Y-42892079D01*
X118288489Y-42982885D01*
X118096849Y-43110934D01*
X117782383Y-42956100D01*
X117602000Y-43081756D01*
X117602000Y-43834032D01*
X117575000Y-43969770D01*
X117387440Y-43969770D01*
X117387440Y-43550000D01*
X117348000Y-43351720D01*
X117348000Y-43081756D01*
X117167617Y-42956100D01*
X117067736Y-43005278D01*
X116987765Y-42951843D01*
X116740000Y-42902560D01*
X115670000Y-42902560D01*
X115422235Y-42951843D01*
X115212191Y-43092191D01*
X115071843Y-43302235D01*
X115022560Y-43550000D01*
X108364671Y-43550000D01*
X108158523Y-43241477D01*
X107771510Y-42982885D01*
X107315000Y-42892079D01*
X106858489Y-42982885D01*
X106680000Y-43102147D01*
X106501510Y-42982885D01*
X106045000Y-42892079D01*
X105588489Y-42982885D01*
X105396849Y-43110934D01*
X105082383Y-42956100D01*
X104902000Y-43081756D01*
X104902000Y-43834032D01*
X104875000Y-43969770D01*
X104687440Y-43969770D01*
X104687440Y-43550000D01*
X104648000Y-43351720D01*
X104648000Y-43081756D01*
X104467617Y-42956100D01*
X104367736Y-43005278D01*
X104287765Y-42951843D01*
X104040000Y-42902560D01*
X102970000Y-42902560D01*
X102722235Y-42951843D01*
X102512191Y-43092191D01*
X102371843Y-43302235D01*
X102322560Y-43550000D01*
X95664671Y-43550000D01*
X95458523Y-43241477D01*
X95071510Y-42982885D01*
X94615000Y-42892079D01*
X94158489Y-42982885D01*
X93980000Y-43102147D01*
X93801510Y-42982885D01*
X93345000Y-42892079D01*
X92888489Y-42982885D01*
X92696849Y-43110934D01*
X92382383Y-42956100D01*
X92202000Y-43081756D01*
X92202000Y-43834032D01*
X92175000Y-43969770D01*
X91987440Y-43969770D01*
X91987440Y-43550000D01*
X91948000Y-43351720D01*
X91948000Y-43081756D01*
X91767617Y-42956100D01*
X91667736Y-43005278D01*
X91587765Y-42951843D01*
X91340000Y-42902560D01*
X90270000Y-42902560D01*
X90022235Y-42951843D01*
X89812191Y-43092191D01*
X89671843Y-43302235D01*
X89622560Y-43550000D01*
X82964671Y-43550000D01*
X82758523Y-43241477D01*
X82371510Y-42982885D01*
X81915000Y-42892079D01*
X81458489Y-42982885D01*
X81280000Y-43102147D01*
X81101510Y-42982885D01*
X80645000Y-42892079D01*
X80188489Y-42982885D01*
X79996849Y-43110934D01*
X79682383Y-42956100D01*
X79502000Y-43081756D01*
X79502000Y-43834032D01*
X79475000Y-43969770D01*
X79287440Y-43969770D01*
X79287440Y-43550000D01*
X79248000Y-43351720D01*
X79248000Y-43081756D01*
X79067617Y-42956100D01*
X78967736Y-43005278D01*
X78887765Y-42951843D01*
X78640000Y-42902560D01*
X77570000Y-42902560D01*
X77322235Y-42951843D01*
X77112191Y-43092191D01*
X76971843Y-43302235D01*
X76922560Y-43550000D01*
X70264671Y-43550000D01*
X70058523Y-43241477D01*
X69671510Y-42982885D01*
X69215000Y-42892079D01*
X68758489Y-42982885D01*
X68580000Y-43102147D01*
X68401510Y-42982885D01*
X67945000Y-42892079D01*
X67488489Y-42982885D01*
X67296849Y-43110934D01*
X66982383Y-42956100D01*
X66802000Y-43081756D01*
X66802000Y-43834032D01*
X66775000Y-43969770D01*
X66587440Y-43969770D01*
X66587440Y-43550000D01*
X66548000Y-43351720D01*
X66548000Y-43081756D01*
X66367617Y-42956100D01*
X66267736Y-43005278D01*
X66187765Y-42951843D01*
X65940000Y-42902560D01*
X64870000Y-42902560D01*
X64622235Y-42951843D01*
X64412191Y-43092191D01*
X64271843Y-43302235D01*
X64222560Y-43550000D01*
X57564671Y-43550000D01*
X57358523Y-43241477D01*
X56971510Y-42982885D01*
X56515000Y-42892079D01*
X56058489Y-42982885D01*
X55880000Y-43102147D01*
X55701510Y-42982885D01*
X55245000Y-42892079D01*
X54788489Y-42982885D01*
X54596849Y-43110934D01*
X54282383Y-42956100D01*
X54102000Y-43081756D01*
X54102000Y-43834032D01*
X54075000Y-43969770D01*
X53887440Y-43969770D01*
X53887440Y-43550000D01*
X53848000Y-43351720D01*
X53848000Y-43081756D01*
X53667617Y-42956100D01*
X53567736Y-43005278D01*
X53487765Y-42951843D01*
X53240000Y-42902560D01*
X52170000Y-42902560D01*
X51922235Y-42951843D01*
X51712191Y-43092191D01*
X51571843Y-43302235D01*
X51522560Y-43550000D01*
X39497000Y-43550000D01*
X39497000Y-38862000D01*
X206883000Y-38862000D01*
X206883000Y-59563000D01*
G36*
X153162000Y-46228000D02*
X153182000Y-46228000D01*
X153182000Y-46482000D01*
X153162000Y-46482000D01*
X153162000Y-46502000D01*
X152908000Y-46502000D01*
X152908000Y-46482000D01*
X152888000Y-46482000D01*
X152888000Y-46228000D01*
X152908000Y-46228000D01*
X152908000Y-46208000D01*
X153162000Y-46208000D01*
X153162000Y-46228000D01*
X153162000Y-46228000D01*
G37*
X153162000Y-46228000D02*
X153182000Y-46228000D01*
X153182000Y-46482000D01*
X153162000Y-46482000D01*
X153162000Y-46502000D01*
X152908000Y-46502000D01*
X152908000Y-46482000D01*
X152888000Y-46482000D01*
X152888000Y-46228000D01*
X152908000Y-46228000D01*
X152908000Y-46208000D01*
X153162000Y-46208000D01*
X153162000Y-46228000D01*
D36*
X142875000Y-56515000D03*
X191135000Y-109220000D03*
X180340000Y-102235000D03*
X146050000Y-109220000D03*
X130810000Y-48260000D03*
X144272000Y-55244998D03*
X143129000Y-47371000D03*
X115570000Y-90805000D03*
X167005000Y-106680000D03*
X167005000Y-102235000D03*
X173355006Y-81280000D03*
X161290000Y-111886992D03*
X111760000Y-102235000D03*
X113030000Y-107569010D03*
X113030000Y-110744000D03*
X86360000Y-94361006D03*
X132715000Y-46990004D03*
X146050000Y-46355000D03*
X156845000Y-72390016D03*
X156845000Y-69215000D03*
X158115000Y-72389986D03*
X158115000Y-69215000D03*
X148590000Y-52563800D03*
X170815000Y-78598800D03*
X149506444Y-54891444D03*
X166370000Y-69708790D03*
X152255000Y-80790000D03*
X170180000Y-102235000D03*
X170180000Y-106680000D03*
X164084000Y-110109000D03*
X183515000Y-80010000D03*
X183515000Y-75706200D03*
X41550000Y-100210000D03*
X44450000Y-92710000D03*
X153035000Y-46355000D03*
X150495000Y-46355000D03*
X153035000Y-48895000D03*
X150495000Y-48895000D03*
X153035000Y-51435000D03*
X150495000Y-51435000D03*
X161925000Y-77470000D03*
X161925000Y-74930000D03*
X164465000Y-77470000D03*
X164465000Y-74930000D03*
X167005000Y-77470000D03*
X167005000Y-74930000D03*
X120015000Y-44450000D03*
X118745000Y-44450000D03*
X117475000Y-44450000D03*
X116205000Y-44450000D03*
X115515000Y-50800000D03*
X120015000Y-50800000D03*
X115515000Y-57300000D03*
X120015000Y-57300000D03*
X69365000Y-57300000D03*
X64865000Y-57300000D03*
X69365000Y-50800000D03*
X64865000Y-50800000D03*
X81453344Y-88927320D03*
X81452344Y-96547320D03*
X53465000Y-88927320D03*
X53465000Y-104140000D03*
X142240000Y-74930000D03*
X144780000Y-74930000D03*
X147320000Y-74930000D03*
X60960000Y-113030000D03*
X60960000Y-120650000D03*
X60960000Y-125730000D03*
X60960000Y-130810000D03*
X53340000Y-130810000D03*
X53340000Y-125730000D03*
X53340000Y-120650000D03*
X53340000Y-113030000D03*
X77470000Y-113030000D03*
X77470000Y-120650000D03*
X77470000Y-125730000D03*
X77470000Y-130810000D03*
X69850000Y-130810000D03*
X69850000Y-125730000D03*
X69850000Y-120650000D03*
X69850000Y-113030000D03*
X93980000Y-113030000D03*
X93980000Y-120650000D03*
X93980000Y-125730000D03*
X93980000Y-130810000D03*
X86360000Y-130810000D03*
X86360000Y-125730000D03*
X86360000Y-120650000D03*
X86360000Y-113030000D03*
X110490000Y-112776000D03*
X110490000Y-120396000D03*
X110490000Y-125476000D03*
X110490000Y-130556000D03*
X102870000Y-130556000D03*
X102870000Y-125476000D03*
X102870000Y-120396000D03*
X102870000Y-112776000D03*
X127254000Y-112776000D03*
X127254000Y-120396000D03*
X127254000Y-125476000D03*
X127254000Y-130556000D03*
X119634000Y-130556000D03*
X119634000Y-125476000D03*
X119634000Y-120396000D03*
X119634000Y-112776000D03*
X144145000Y-112776000D03*
X144145000Y-120396000D03*
X144145000Y-125476000D03*
X144145000Y-130556000D03*
X136525000Y-130556000D03*
X136525000Y-125476000D03*
X136525000Y-120396000D03*
X136525000Y-112776000D03*
X43180000Y-68580000D03*
X43180000Y-149225000D03*
X202565000Y-68580000D03*
X203200000Y-148590000D03*
X186690000Y-74930000D03*
X189230000Y-74930000D03*
X191770000Y-74930000D03*
X194310000Y-74930000D03*
X107315000Y-44450000D03*
X106045000Y-44450000D03*
X104775000Y-44450000D03*
X103505000Y-44450000D03*
X94615000Y-44450000D03*
X93345000Y-44450000D03*
X92075000Y-44450000D03*
X90805000Y-44450000D03*
X81915000Y-44450000D03*
X80645000Y-44450000D03*
X79375000Y-44450000D03*
X78105000Y-44450000D03*
X69215000Y-44450000D03*
X67945000Y-44450000D03*
X66675000Y-44450000D03*
X65405000Y-44450000D03*
X56515000Y-44450000D03*
X55245000Y-44450000D03*
X53975000Y-44450000D03*
X52705000Y-44450000D03*
X204470000Y-49530000D03*
X41910000Y-49530000D03*
X102965000Y-50800000D03*
X107465000Y-50800000D03*
X102965000Y-57300000D03*
X107465000Y-57300000D03*
X94765000Y-57300000D03*
X90265000Y-57300000D03*
X94765000Y-50800000D03*
X90265000Y-50800000D03*
X77415000Y-50800000D03*
X81915000Y-50800000D03*
X77415000Y-57300000D03*
X81915000Y-57300000D03*
X57205000Y-57300000D03*
X52705000Y-57300000D03*
X57205000Y-50800000D03*
X52705000Y-50800000D03*
X147320000Y-62230000D03*
X145415000Y-62230000D03*
X143510000Y-62230000D03*
X141605000Y-62230000D03*
X92884000Y-140335000D03*
X87884000Y-140335000D03*
X104521000Y-140335000D03*
X109521000Y-140335000D03*
X126158000Y-140335000D03*
X121158000Y-140335000D03*
X59610000Y-140335000D03*
X54610000Y-140335000D03*
X178435000Y-140335000D03*
X183435000Y-140335000D03*
X188435000Y-140335000D03*
X76247000Y-140335000D03*
X71247000Y-140335000D03*
X137795000Y-140335000D03*
X142795000Y-140335000D03*
X155575000Y-140335000D03*
X160575000Y-140335000D03*
X165575000Y-140335000D03*
X183515000Y-72660000D03*
X183515000Y-71660000D03*
M02*
