G04 #@! TF.GenerationSoftware,KiCad,Pcbnew,(5.0.0)*
G04 #@! TF.CreationDate,2018-09-10T10:35:59+01:00*
G04 #@! TF.ProjectId,AquaHub,417175614875622E6B696361645F7063,rev?*
G04 #@! TF.SameCoordinates,Original*
G04 #@! TF.FileFunction,Copper,L2,Bot,Signal*
G04 #@! TF.FilePolarity,Positive*
%FSLAX46Y46*%
G04 Gerber Fmt 4.6, Leading zero omitted, Abs format (unit mm)*
G04 Created by KiCad (PCBNEW (5.0.0)) date 09/10/18 10:35:59*
%MOMM*%
%LPD*%
G01*
G04 APERTURE LIST*
G04 #@! TA.AperFunction,ComponentPad*
%ADD10R,1.727200X1.727200*%
G04 #@! TD*
G04 #@! TA.AperFunction,ComponentPad*
%ADD11O,1.727200X1.727200*%
G04 #@! TD*
G04 #@! TA.AperFunction,SMDPad,CuDef*
%ADD12R,0.600000X1.500000*%
G04 #@! TD*
G04 #@! TA.AperFunction,ComponentPad*
%ADD13O,1.070000X1.800000*%
G04 #@! TD*
G04 #@! TA.AperFunction,ComponentPad*
%ADD14R,1.070000X1.800000*%
G04 #@! TD*
G04 #@! TA.AperFunction,ComponentPad*
%ADD15C,2.000000*%
G04 #@! TD*
G04 #@! TA.AperFunction,ComponentPad*
%ADD16R,2.000000X2.000000*%
G04 #@! TD*
G04 #@! TA.AperFunction,ComponentPad*
%ADD17O,1.700000X1.700000*%
G04 #@! TD*
G04 #@! TA.AperFunction,ComponentPad*
%ADD18R,1.700000X1.700000*%
G04 #@! TD*
G04 #@! TA.AperFunction,ComponentPad*
%ADD19C,1.524000*%
G04 #@! TD*
G04 #@! TA.AperFunction,ComponentPad*
%ADD20O,2.500000X1.500000*%
G04 #@! TD*
G04 #@! TA.AperFunction,ComponentPad*
%ADD21R,2.500000X1.500000*%
G04 #@! TD*
G04 #@! TA.AperFunction,Conductor*
%ADD22C,0.100000*%
G04 #@! TD*
G04 #@! TA.AperFunction,SMDPad,CuDef*
%ADD23C,1.150000*%
G04 #@! TD*
G04 #@! TA.AperFunction,SMDPad,CuDef*
%ADD24C,1.500000*%
G04 #@! TD*
G04 #@! TA.AperFunction,ComponentPad*
%ADD25C,1.800000*%
G04 #@! TD*
G04 #@! TA.AperFunction,SMDPad,CuDef*
%ADD26R,5.000000X5.000000*%
G04 #@! TD*
G04 #@! TA.AperFunction,SMDPad,CuDef*
%ADD27R,0.900000X2.000000*%
G04 #@! TD*
G04 #@! TA.AperFunction,ComponentPad*
%ADD28C,3.000000*%
G04 #@! TD*
G04 #@! TA.AperFunction,ViaPad*
%ADD29C,1.000000*%
G04 #@! TD*
G04 #@! TA.AperFunction,Conductor*
%ADD30C,0.152400*%
G04 #@! TD*
G04 #@! TA.AperFunction,Conductor*
%ADD31C,2.000000*%
G04 #@! TD*
G04 APERTURE END LIST*
D10*
G04 #@! TO.P,J12,1*
G04 #@! TO.N,GND*
X153035000Y-46355000D03*
D11*
G04 #@! TO.P,J12,2*
G04 #@! TO.N,/Panel_LED*
X150495000Y-46355000D03*
G04 #@! TO.P,J12,3*
G04 #@! TO.N,/Panel_INT*
X153035000Y-48895000D03*
G04 #@! TO.P,J12,4*
G04 #@! TO.N,/Panel_SDA*
X150495000Y-48895000D03*
G04 #@! TO.P,J12,5*
G04 #@! TO.N,/Panel_SCL*
X153035000Y-51435000D03*
G04 #@! TO.P,J12,6*
G04 #@! TO.N,+5V*
X150495000Y-51435000D03*
G04 #@! TD*
D12*
G04 #@! TO.P,U6,1*
G04 #@! TO.N,GND*
X142875000Y-54610000D03*
G04 #@! TO.P,U6,2*
X141605000Y-54610000D03*
G04 #@! TO.P,U6,3*
X140335000Y-54610000D03*
G04 #@! TO.P,U6,4*
G04 #@! TO.N,Net-(SW3-Pad1)*
X139065000Y-54610000D03*
G04 #@! TO.P,U6,5*
G04 #@! TO.N,Net-(SW4-Pad1)*
X137795000Y-54610000D03*
G04 #@! TO.P,U6,6*
G04 #@! TO.N,Net-(SW5-Pad1)*
X136525000Y-54610000D03*
G04 #@! TO.P,U6,7*
G04 #@! TO.N,Net-(SW6-Pad1)*
X135255000Y-54610000D03*
G04 #@! TO.P,U6,8*
G04 #@! TO.N,GND*
X133985000Y-54610000D03*
G04 #@! TO.P,U6,9*
G04 #@! TO.N,Net-(SW1-Pad1)*
X133985000Y-45310000D03*
G04 #@! TO.P,U6,10*
G04 #@! TO.N,Net-(SW2-Pad1)*
X135255000Y-45310000D03*
G04 #@! TO.P,U6,11*
G04 #@! TO.N,N/C*
X136525000Y-45310000D03*
G04 #@! TO.P,U6,12*
X137795000Y-45310000D03*
G04 #@! TO.P,U6,13*
G04 #@! TO.N,/Panel_INT*
X139065000Y-45310000D03*
G04 #@! TO.P,U6,14*
G04 #@! TO.N,/Panel_SCL*
X140335000Y-45310000D03*
G04 #@! TO.P,U6,15*
G04 #@! TO.N,/Panel_SDA*
X141605000Y-45310000D03*
G04 #@! TO.P,U6,16*
G04 #@! TO.N,+5V*
X142875000Y-45310000D03*
G04 #@! TD*
D11*
G04 #@! TO.P,J11,6*
G04 #@! TO.N,+5V*
X161925000Y-77470000D03*
G04 #@! TO.P,J11,5*
G04 #@! TO.N,/Panel_SCL*
X161925000Y-74930000D03*
G04 #@! TO.P,J11,4*
G04 #@! TO.N,/Panel_SDA*
X164465000Y-77470000D03*
G04 #@! TO.P,J11,3*
G04 #@! TO.N,/Panel_INT*
X164465000Y-74930000D03*
G04 #@! TO.P,J11,2*
G04 #@! TO.N,/Panel_LED*
X167005000Y-77470000D03*
D10*
G04 #@! TO.P,J11,1*
G04 #@! TO.N,GND*
X167005000Y-74930000D03*
G04 #@! TD*
D13*
G04 #@! TO.P,D1,4*
G04 #@! TO.N,/Panel_LED*
X120015000Y-44450000D03*
G04 #@! TO.P,D1,3*
G04 #@! TO.N,+5V*
X118745000Y-44450000D03*
G04 #@! TO.P,D1,2*
G04 #@! TO.N,GND*
X117475000Y-44450000D03*
D14*
G04 #@! TO.P,D1,1*
G04 #@! TO.N,Net-(D1-Pad1)*
X116205000Y-44450000D03*
G04 #@! TD*
D15*
G04 #@! TO.P,SW1,2*
G04 #@! TO.N,GND*
X115515000Y-50800000D03*
G04 #@! TO.P,SW1,1*
G04 #@! TO.N,Net-(SW1-Pad1)*
X120015000Y-50800000D03*
G04 #@! TO.P,SW1,2*
G04 #@! TO.N,GND*
X115515000Y-57300000D03*
G04 #@! TO.P,SW1,1*
G04 #@! TO.N,Net-(SW1-Pad1)*
X120015000Y-57300000D03*
G04 #@! TD*
G04 #@! TO.P,SW5,1*
G04 #@! TO.N,Net-(SW5-Pad1)*
X69365000Y-57300000D03*
G04 #@! TO.P,SW5,2*
G04 #@! TO.N,GND*
X64865000Y-57300000D03*
G04 #@! TO.P,SW5,1*
G04 #@! TO.N,Net-(SW5-Pad1)*
X69365000Y-50800000D03*
G04 #@! TO.P,SW5,2*
G04 #@! TO.N,GND*
X64865000Y-50800000D03*
G04 #@! TD*
G04 #@! TO.P,V1,3*
G04 #@! TO.N,GND*
X81453344Y-88927320D03*
G04 #@! TO.P,V1,4*
G04 #@! TO.N,+12V*
X81452344Y-96547320D03*
G04 #@! TO.P,V1,2*
G04 #@! TO.N,LIVE*
X53465000Y-88927320D03*
D16*
G04 #@! TO.P,V1,1*
G04 #@! TO.N,NEUTRAL*
X53465000Y-104140000D03*
G04 #@! TD*
D17*
G04 #@! TO.P,J9,3*
G04 #@! TO.N,+5V*
X142240000Y-74930000D03*
G04 #@! TO.P,J9,2*
G04 #@! TO.N,Net-(J9-Pad2)*
X144780000Y-74930000D03*
D18*
G04 #@! TO.P,J9,1*
G04 #@! TO.N,GND*
X147320000Y-74930000D03*
G04 #@! TD*
D19*
G04 #@! TO.P,K1,16*
G04 #@! TO.N,+12V*
X60960000Y-112776000D03*
G04 #@! TO.P,K1,13*
G04 #@! TO.N,LIVE*
X60960000Y-120396000D03*
G04 #@! TO.P,K1,11*
G04 #@! TO.N,N/C*
X60960000Y-125476000D03*
G04 #@! TO.P,K1,9*
G04 #@! TO.N,LIVE1*
X60960000Y-130556000D03*
G04 #@! TO.P,K1,8*
G04 #@! TO.N,NEUTRAL1*
X53340000Y-130556000D03*
G04 #@! TO.P,K1,6*
G04 #@! TO.N,N/C*
X53340000Y-125476000D03*
G04 #@! TO.P,K1,4*
G04 #@! TO.N,NEUTRAL*
X53340000Y-120396000D03*
G04 #@! TO.P,K1,1*
G04 #@! TO.N,RE1*
X53340000Y-112776000D03*
G04 #@! TD*
G04 #@! TO.P,K2,16*
G04 #@! TO.N,+12V*
X76962000Y-112776000D03*
G04 #@! TO.P,K2,13*
G04 #@! TO.N,LIVE*
X76962000Y-120396000D03*
G04 #@! TO.P,K2,11*
G04 #@! TO.N,N/C*
X76962000Y-125476000D03*
G04 #@! TO.P,K2,9*
G04 #@! TO.N,LIVE2*
X76962000Y-130556000D03*
G04 #@! TO.P,K2,8*
G04 #@! TO.N,NEUTRAL2*
X69342000Y-130556000D03*
G04 #@! TO.P,K2,6*
G04 #@! TO.N,N/C*
X69342000Y-125476000D03*
G04 #@! TO.P,K2,4*
G04 #@! TO.N,NEUTRAL*
X69342000Y-120396000D03*
G04 #@! TO.P,K2,1*
G04 #@! TO.N,RE2*
X69342000Y-112776000D03*
G04 #@! TD*
G04 #@! TO.P,K3,16*
G04 #@! TO.N,+12V*
X94234000Y-112776000D03*
G04 #@! TO.P,K3,13*
G04 #@! TO.N,LIVE*
X94234000Y-120396000D03*
G04 #@! TO.P,K3,11*
G04 #@! TO.N,N/C*
X94234000Y-125476000D03*
G04 #@! TO.P,K3,9*
G04 #@! TO.N,LIVE3*
X94234000Y-130556000D03*
G04 #@! TO.P,K3,8*
G04 #@! TO.N,NEUTRAL3*
X86614000Y-130556000D03*
G04 #@! TO.P,K3,6*
G04 #@! TO.N,N/C*
X86614000Y-125476000D03*
G04 #@! TO.P,K3,4*
G04 #@! TO.N,NEUTRAL*
X86614000Y-120396000D03*
G04 #@! TO.P,K3,1*
G04 #@! TO.N,RE3*
X86614000Y-112776000D03*
G04 #@! TD*
G04 #@! TO.P,K4,16*
G04 #@! TO.N,+12V*
X109982000Y-112776000D03*
G04 #@! TO.P,K4,13*
G04 #@! TO.N,LIVE*
X109982000Y-120396000D03*
G04 #@! TO.P,K4,11*
G04 #@! TO.N,N/C*
X109982000Y-125476000D03*
G04 #@! TO.P,K4,9*
G04 #@! TO.N,LIVE4*
X109982000Y-130556000D03*
G04 #@! TO.P,K4,8*
G04 #@! TO.N,NEUTRAL4*
X102362000Y-130556000D03*
G04 #@! TO.P,K4,6*
G04 #@! TO.N,N/C*
X102362000Y-125476000D03*
G04 #@! TO.P,K4,4*
G04 #@! TO.N,NEUTRAL*
X102362000Y-120396000D03*
G04 #@! TO.P,K4,1*
G04 #@! TO.N,RE4*
X102362000Y-112776000D03*
G04 #@! TD*
G04 #@! TO.P,K5,16*
G04 #@! TO.N,+12V*
X127254000Y-112776000D03*
G04 #@! TO.P,K5,13*
G04 #@! TO.N,LIVE*
X127254000Y-120396000D03*
G04 #@! TO.P,K5,11*
G04 #@! TO.N,N/C*
X127254000Y-125476000D03*
G04 #@! TO.P,K5,9*
G04 #@! TO.N,LIVE5*
X127254000Y-130556000D03*
G04 #@! TO.P,K5,8*
G04 #@! TO.N,NEUTRAL5*
X119634000Y-130556000D03*
G04 #@! TO.P,K5,6*
G04 #@! TO.N,N/C*
X119634000Y-125476000D03*
G04 #@! TO.P,K5,4*
G04 #@! TO.N,NEUTRAL*
X119634000Y-120396000D03*
G04 #@! TO.P,K5,1*
G04 #@! TO.N,RE5*
X119634000Y-112776000D03*
G04 #@! TD*
G04 #@! TO.P,K6,16*
G04 #@! TO.N,+12V*
X143510000Y-112776000D03*
G04 #@! TO.P,K6,13*
G04 #@! TO.N,LIVE*
X143510000Y-120396000D03*
G04 #@! TO.P,K6,11*
G04 #@! TO.N,N/C*
X143510000Y-125476000D03*
G04 #@! TO.P,K6,9*
G04 #@! TO.N,LIVE6*
X143510000Y-130556000D03*
G04 #@! TO.P,K6,8*
G04 #@! TO.N,NEUTRAL6*
X135890000Y-130556000D03*
G04 #@! TO.P,K6,6*
G04 #@! TO.N,N/C*
X135890000Y-125476000D03*
G04 #@! TO.P,K6,4*
G04 #@! TO.N,NEUTRAL*
X135890000Y-120396000D03*
G04 #@! TO.P,K6,1*
G04 #@! TO.N,RE6*
X135890000Y-112776000D03*
G04 #@! TD*
D12*
G04 #@! TO.P,U4,16*
G04 #@! TO.N,RE6*
X170180000Y-89215000D03*
G04 #@! TO.P,U4,15*
G04 #@! TO.N,RE5*
X168910000Y-89215000D03*
G04 #@! TO.P,U4,14*
G04 #@! TO.N,RE4*
X167640000Y-89215000D03*
G04 #@! TO.P,U4,13*
G04 #@! TO.N,RE3*
X166370000Y-89215000D03*
G04 #@! TO.P,U4,12*
G04 #@! TO.N,RE2*
X165100000Y-89215000D03*
G04 #@! TO.P,U4,11*
G04 #@! TO.N,RE1*
X163830000Y-89215000D03*
G04 #@! TO.P,U4,10*
G04 #@! TO.N,N/C*
X162560000Y-89215000D03*
G04 #@! TO.P,U4,9*
G04 #@! TO.N,+12V*
X161290000Y-89215000D03*
G04 #@! TO.P,U4,8*
G04 #@! TO.N,GND*
X161290000Y-94615000D03*
G04 #@! TO.P,U4,7*
G04 #@! TO.N,N/C*
X162560000Y-94615000D03*
G04 #@! TO.P,U4,6*
G04 #@! TO.N,/POW6*
X163830000Y-94615000D03*
G04 #@! TO.P,U4,5*
G04 #@! TO.N,/POW5*
X165100000Y-94615000D03*
G04 #@! TO.P,U4,4*
G04 #@! TO.N,/POW4*
X166370000Y-94615000D03*
G04 #@! TO.P,U4,3*
G04 #@! TO.N,/POW3*
X167640000Y-94615000D03*
G04 #@! TO.P,U4,2*
G04 #@! TO.N,/POW2*
X168910000Y-94615000D03*
G04 #@! TO.P,U4,1*
G04 #@! TO.N,/POW1*
X170180000Y-94615000D03*
G04 #@! TD*
D20*
G04 #@! TO.P,U5,3*
G04 #@! TO.N,+5V*
X90170000Y-90805000D03*
G04 #@! TO.P,U5,2*
G04 #@! TO.N,GND*
X90170000Y-88265000D03*
D21*
G04 #@! TO.P,U5,1*
G04 #@! TO.N,+12V*
X90170000Y-85725000D03*
G04 #@! TD*
D17*
G04 #@! TO.P,J10,4*
G04 #@! TO.N,+5V*
X186690000Y-74930000D03*
G04 #@! TO.P,J10,3*
G04 #@! TO.N,RX*
X189230000Y-74930000D03*
G04 #@! TO.P,J10,2*
G04 #@! TO.N,TX*
X191770000Y-74930000D03*
D18*
G04 #@! TO.P,J10,1*
G04 #@! TO.N,GND*
X194310000Y-74930000D03*
G04 #@! TD*
D22*
G04 #@! TO.N,GND*
G04 #@! TO.C,C3*
G36*
X199739505Y-106616204D02*
X199763773Y-106619804D01*
X199787572Y-106625765D01*
X199810671Y-106634030D01*
X199832850Y-106644520D01*
X199853893Y-106657132D01*
X199873599Y-106671747D01*
X199891777Y-106688223D01*
X199908253Y-106706401D01*
X199922868Y-106726107D01*
X199935480Y-106747150D01*
X199945970Y-106769329D01*
X199954235Y-106792428D01*
X199960196Y-106816227D01*
X199963796Y-106840495D01*
X199965000Y-106864999D01*
X199965000Y-107765001D01*
X199963796Y-107789505D01*
X199960196Y-107813773D01*
X199954235Y-107837572D01*
X199945970Y-107860671D01*
X199935480Y-107882850D01*
X199922868Y-107903893D01*
X199908253Y-107923599D01*
X199891777Y-107941777D01*
X199873599Y-107958253D01*
X199853893Y-107972868D01*
X199832850Y-107985480D01*
X199810671Y-107995970D01*
X199787572Y-108004235D01*
X199763773Y-108010196D01*
X199739505Y-108013796D01*
X199715001Y-108015000D01*
X199064999Y-108015000D01*
X199040495Y-108013796D01*
X199016227Y-108010196D01*
X198992428Y-108004235D01*
X198969329Y-107995970D01*
X198947150Y-107985480D01*
X198926107Y-107972868D01*
X198906401Y-107958253D01*
X198888223Y-107941777D01*
X198871747Y-107923599D01*
X198857132Y-107903893D01*
X198844520Y-107882850D01*
X198834030Y-107860671D01*
X198825765Y-107837572D01*
X198819804Y-107813773D01*
X198816204Y-107789505D01*
X198815000Y-107765001D01*
X198815000Y-106864999D01*
X198816204Y-106840495D01*
X198819804Y-106816227D01*
X198825765Y-106792428D01*
X198834030Y-106769329D01*
X198844520Y-106747150D01*
X198857132Y-106726107D01*
X198871747Y-106706401D01*
X198888223Y-106688223D01*
X198906401Y-106671747D01*
X198926107Y-106657132D01*
X198947150Y-106644520D01*
X198969329Y-106634030D01*
X198992428Y-106625765D01*
X199016227Y-106619804D01*
X199040495Y-106616204D01*
X199064999Y-106615000D01*
X199715001Y-106615000D01*
X199739505Y-106616204D01*
X199739505Y-106616204D01*
G37*
D23*
G04 #@! TD*
G04 #@! TO.P,C3,2*
G04 #@! TO.N,GND*
X199390000Y-107315000D03*
D22*
G04 #@! TO.N,+3V3*
G04 #@! TO.C,C3*
G36*
X197689505Y-106616204D02*
X197713773Y-106619804D01*
X197737572Y-106625765D01*
X197760671Y-106634030D01*
X197782850Y-106644520D01*
X197803893Y-106657132D01*
X197823599Y-106671747D01*
X197841777Y-106688223D01*
X197858253Y-106706401D01*
X197872868Y-106726107D01*
X197885480Y-106747150D01*
X197895970Y-106769329D01*
X197904235Y-106792428D01*
X197910196Y-106816227D01*
X197913796Y-106840495D01*
X197915000Y-106864999D01*
X197915000Y-107765001D01*
X197913796Y-107789505D01*
X197910196Y-107813773D01*
X197904235Y-107837572D01*
X197895970Y-107860671D01*
X197885480Y-107882850D01*
X197872868Y-107903893D01*
X197858253Y-107923599D01*
X197841777Y-107941777D01*
X197823599Y-107958253D01*
X197803893Y-107972868D01*
X197782850Y-107985480D01*
X197760671Y-107995970D01*
X197737572Y-108004235D01*
X197713773Y-108010196D01*
X197689505Y-108013796D01*
X197665001Y-108015000D01*
X197014999Y-108015000D01*
X196990495Y-108013796D01*
X196966227Y-108010196D01*
X196942428Y-108004235D01*
X196919329Y-107995970D01*
X196897150Y-107985480D01*
X196876107Y-107972868D01*
X196856401Y-107958253D01*
X196838223Y-107941777D01*
X196821747Y-107923599D01*
X196807132Y-107903893D01*
X196794520Y-107882850D01*
X196784030Y-107860671D01*
X196775765Y-107837572D01*
X196769804Y-107813773D01*
X196766204Y-107789505D01*
X196765000Y-107765001D01*
X196765000Y-106864999D01*
X196766204Y-106840495D01*
X196769804Y-106816227D01*
X196775765Y-106792428D01*
X196784030Y-106769329D01*
X196794520Y-106747150D01*
X196807132Y-106726107D01*
X196821747Y-106706401D01*
X196838223Y-106688223D01*
X196856401Y-106671747D01*
X196876107Y-106657132D01*
X196897150Y-106644520D01*
X196919329Y-106634030D01*
X196942428Y-106625765D01*
X196966227Y-106619804D01*
X196990495Y-106616204D01*
X197014999Y-106615000D01*
X197665001Y-106615000D01*
X197689505Y-106616204D01*
X197689505Y-106616204D01*
G37*
D23*
G04 #@! TD*
G04 #@! TO.P,C3,1*
G04 #@! TO.N,+3V3*
X197340000Y-107315000D03*
D22*
G04 #@! TO.N,+3V3*
G04 #@! TO.C,R4*
G36*
X199739505Y-104076204D02*
X199763773Y-104079804D01*
X199787572Y-104085765D01*
X199810671Y-104094030D01*
X199832850Y-104104520D01*
X199853893Y-104117132D01*
X199873599Y-104131747D01*
X199891777Y-104148223D01*
X199908253Y-104166401D01*
X199922868Y-104186107D01*
X199935480Y-104207150D01*
X199945970Y-104229329D01*
X199954235Y-104252428D01*
X199960196Y-104276227D01*
X199963796Y-104300495D01*
X199965000Y-104324999D01*
X199965000Y-105225001D01*
X199963796Y-105249505D01*
X199960196Y-105273773D01*
X199954235Y-105297572D01*
X199945970Y-105320671D01*
X199935480Y-105342850D01*
X199922868Y-105363893D01*
X199908253Y-105383599D01*
X199891777Y-105401777D01*
X199873599Y-105418253D01*
X199853893Y-105432868D01*
X199832850Y-105445480D01*
X199810671Y-105455970D01*
X199787572Y-105464235D01*
X199763773Y-105470196D01*
X199739505Y-105473796D01*
X199715001Y-105475000D01*
X199064999Y-105475000D01*
X199040495Y-105473796D01*
X199016227Y-105470196D01*
X198992428Y-105464235D01*
X198969329Y-105455970D01*
X198947150Y-105445480D01*
X198926107Y-105432868D01*
X198906401Y-105418253D01*
X198888223Y-105401777D01*
X198871747Y-105383599D01*
X198857132Y-105363893D01*
X198844520Y-105342850D01*
X198834030Y-105320671D01*
X198825765Y-105297572D01*
X198819804Y-105273773D01*
X198816204Y-105249505D01*
X198815000Y-105225001D01*
X198815000Y-104324999D01*
X198816204Y-104300495D01*
X198819804Y-104276227D01*
X198825765Y-104252428D01*
X198834030Y-104229329D01*
X198844520Y-104207150D01*
X198857132Y-104186107D01*
X198871747Y-104166401D01*
X198888223Y-104148223D01*
X198906401Y-104131747D01*
X198926107Y-104117132D01*
X198947150Y-104104520D01*
X198969329Y-104094030D01*
X198992428Y-104085765D01*
X199016227Y-104079804D01*
X199040495Y-104076204D01*
X199064999Y-104075000D01*
X199715001Y-104075000D01*
X199739505Y-104076204D01*
X199739505Y-104076204D01*
G37*
D23*
G04 #@! TD*
G04 #@! TO.P,R4,2*
G04 #@! TO.N,+3V3*
X199390000Y-104775000D03*
D22*
G04 #@! TO.N,Net-(R4-Pad1)*
G04 #@! TO.C,R4*
G36*
X197689505Y-104076204D02*
X197713773Y-104079804D01*
X197737572Y-104085765D01*
X197760671Y-104094030D01*
X197782850Y-104104520D01*
X197803893Y-104117132D01*
X197823599Y-104131747D01*
X197841777Y-104148223D01*
X197858253Y-104166401D01*
X197872868Y-104186107D01*
X197885480Y-104207150D01*
X197895970Y-104229329D01*
X197904235Y-104252428D01*
X197910196Y-104276227D01*
X197913796Y-104300495D01*
X197915000Y-104324999D01*
X197915000Y-105225001D01*
X197913796Y-105249505D01*
X197910196Y-105273773D01*
X197904235Y-105297572D01*
X197895970Y-105320671D01*
X197885480Y-105342850D01*
X197872868Y-105363893D01*
X197858253Y-105383599D01*
X197841777Y-105401777D01*
X197823599Y-105418253D01*
X197803893Y-105432868D01*
X197782850Y-105445480D01*
X197760671Y-105455970D01*
X197737572Y-105464235D01*
X197713773Y-105470196D01*
X197689505Y-105473796D01*
X197665001Y-105475000D01*
X197014999Y-105475000D01*
X196990495Y-105473796D01*
X196966227Y-105470196D01*
X196942428Y-105464235D01*
X196919329Y-105455970D01*
X196897150Y-105445480D01*
X196876107Y-105432868D01*
X196856401Y-105418253D01*
X196838223Y-105401777D01*
X196821747Y-105383599D01*
X196807132Y-105363893D01*
X196794520Y-105342850D01*
X196784030Y-105320671D01*
X196775765Y-105297572D01*
X196769804Y-105273773D01*
X196766204Y-105249505D01*
X196765000Y-105225001D01*
X196765000Y-104324999D01*
X196766204Y-104300495D01*
X196769804Y-104276227D01*
X196775765Y-104252428D01*
X196784030Y-104229329D01*
X196794520Y-104207150D01*
X196807132Y-104186107D01*
X196821747Y-104166401D01*
X196838223Y-104148223D01*
X196856401Y-104131747D01*
X196876107Y-104117132D01*
X196897150Y-104104520D01*
X196919329Y-104094030D01*
X196942428Y-104085765D01*
X196966227Y-104079804D01*
X196990495Y-104076204D01*
X197014999Y-104075000D01*
X197665001Y-104075000D01*
X197689505Y-104076204D01*
X197689505Y-104076204D01*
G37*
D23*
G04 #@! TD*
G04 #@! TO.P,R4,1*
G04 #@! TO.N,Net-(R4-Pad1)*
X197340000Y-104775000D03*
D22*
G04 #@! TO.N,GND*
G04 #@! TO.C,C4*
G36*
X187774504Y-106141204D02*
X187798773Y-106144804D01*
X187822571Y-106150765D01*
X187845671Y-106159030D01*
X187867849Y-106169520D01*
X187888893Y-106182133D01*
X187908598Y-106196747D01*
X187926777Y-106213223D01*
X187943253Y-106231402D01*
X187957867Y-106251107D01*
X187970480Y-106272151D01*
X187980970Y-106294329D01*
X187989235Y-106317429D01*
X187995196Y-106341227D01*
X187998796Y-106365496D01*
X188000000Y-106390000D01*
X188000000Y-108240000D01*
X187998796Y-108264504D01*
X187995196Y-108288773D01*
X187989235Y-108312571D01*
X187980970Y-108335671D01*
X187970480Y-108357849D01*
X187957867Y-108378893D01*
X187943253Y-108398598D01*
X187926777Y-108416777D01*
X187908598Y-108433253D01*
X187888893Y-108447867D01*
X187867849Y-108460480D01*
X187845671Y-108470970D01*
X187822571Y-108479235D01*
X187798773Y-108485196D01*
X187774504Y-108488796D01*
X187750000Y-108490000D01*
X186750000Y-108490000D01*
X186725496Y-108488796D01*
X186701227Y-108485196D01*
X186677429Y-108479235D01*
X186654329Y-108470970D01*
X186632151Y-108460480D01*
X186611107Y-108447867D01*
X186591402Y-108433253D01*
X186573223Y-108416777D01*
X186556747Y-108398598D01*
X186542133Y-108378893D01*
X186529520Y-108357849D01*
X186519030Y-108335671D01*
X186510765Y-108312571D01*
X186504804Y-108288773D01*
X186501204Y-108264504D01*
X186500000Y-108240000D01*
X186500000Y-106390000D01*
X186501204Y-106365496D01*
X186504804Y-106341227D01*
X186510765Y-106317429D01*
X186519030Y-106294329D01*
X186529520Y-106272151D01*
X186542133Y-106251107D01*
X186556747Y-106231402D01*
X186573223Y-106213223D01*
X186591402Y-106196747D01*
X186611107Y-106182133D01*
X186632151Y-106169520D01*
X186654329Y-106159030D01*
X186677429Y-106150765D01*
X186701227Y-106144804D01*
X186725496Y-106141204D01*
X186750000Y-106140000D01*
X187750000Y-106140000D01*
X187774504Y-106141204D01*
X187774504Y-106141204D01*
G37*
D24*
G04 #@! TD*
G04 #@! TO.P,C4,2*
G04 #@! TO.N,GND*
X187250000Y-107315000D03*
D22*
G04 #@! TO.N,+3V3*
G04 #@! TO.C,C4*
G36*
X191024504Y-106141204D02*
X191048773Y-106144804D01*
X191072571Y-106150765D01*
X191095671Y-106159030D01*
X191117849Y-106169520D01*
X191138893Y-106182133D01*
X191158598Y-106196747D01*
X191176777Y-106213223D01*
X191193253Y-106231402D01*
X191207867Y-106251107D01*
X191220480Y-106272151D01*
X191230970Y-106294329D01*
X191239235Y-106317429D01*
X191245196Y-106341227D01*
X191248796Y-106365496D01*
X191250000Y-106390000D01*
X191250000Y-108240000D01*
X191248796Y-108264504D01*
X191245196Y-108288773D01*
X191239235Y-108312571D01*
X191230970Y-108335671D01*
X191220480Y-108357849D01*
X191207867Y-108378893D01*
X191193253Y-108398598D01*
X191176777Y-108416777D01*
X191158598Y-108433253D01*
X191138893Y-108447867D01*
X191117849Y-108460480D01*
X191095671Y-108470970D01*
X191072571Y-108479235D01*
X191048773Y-108485196D01*
X191024504Y-108488796D01*
X191000000Y-108490000D01*
X190000000Y-108490000D01*
X189975496Y-108488796D01*
X189951227Y-108485196D01*
X189927429Y-108479235D01*
X189904329Y-108470970D01*
X189882151Y-108460480D01*
X189861107Y-108447867D01*
X189841402Y-108433253D01*
X189823223Y-108416777D01*
X189806747Y-108398598D01*
X189792133Y-108378893D01*
X189779520Y-108357849D01*
X189769030Y-108335671D01*
X189760765Y-108312571D01*
X189754804Y-108288773D01*
X189751204Y-108264504D01*
X189750000Y-108240000D01*
X189750000Y-106390000D01*
X189751204Y-106365496D01*
X189754804Y-106341227D01*
X189760765Y-106317429D01*
X189769030Y-106294329D01*
X189779520Y-106272151D01*
X189792133Y-106251107D01*
X189806747Y-106231402D01*
X189823223Y-106213223D01*
X189841402Y-106196747D01*
X189861107Y-106182133D01*
X189882151Y-106169520D01*
X189904329Y-106159030D01*
X189927429Y-106150765D01*
X189951227Y-106144804D01*
X189975496Y-106141204D01*
X190000000Y-106140000D01*
X191000000Y-106140000D01*
X191024504Y-106141204D01*
X191024504Y-106141204D01*
G37*
D24*
G04 #@! TD*
G04 #@! TO.P,C4,1*
G04 #@! TO.N,+3V3*
X190500000Y-107315000D03*
D25*
G04 #@! TO.P,RV1,2*
G04 #@! TO.N,NEUTRAL*
X42450000Y-100210000D03*
G04 #@! TO.P,RV1,1*
G04 #@! TO.N,LIVE*
X44450000Y-92710000D03*
G04 #@! TD*
D13*
G04 #@! TO.P,D2,4*
G04 #@! TO.N,Net-(D1-Pad1)*
X107315000Y-44450000D03*
G04 #@! TO.P,D2,3*
G04 #@! TO.N,+5V*
X106045000Y-44450000D03*
G04 #@! TO.P,D2,2*
G04 #@! TO.N,GND*
X104775000Y-44450000D03*
D14*
G04 #@! TO.P,D2,1*
G04 #@! TO.N,Net-(D2-Pad1)*
X103505000Y-44450000D03*
G04 #@! TD*
D13*
G04 #@! TO.P,D3,4*
G04 #@! TO.N,Net-(D2-Pad1)*
X94615000Y-44450000D03*
G04 #@! TO.P,D3,3*
G04 #@! TO.N,+5V*
X93345000Y-44450000D03*
G04 #@! TO.P,D3,2*
G04 #@! TO.N,GND*
X92075000Y-44450000D03*
D14*
G04 #@! TO.P,D3,1*
G04 #@! TO.N,Net-(D3-Pad1)*
X90805000Y-44450000D03*
G04 #@! TD*
D13*
G04 #@! TO.P,D4,4*
G04 #@! TO.N,Net-(D3-Pad1)*
X81915000Y-44450000D03*
G04 #@! TO.P,D4,3*
G04 #@! TO.N,+5V*
X80645000Y-44450000D03*
G04 #@! TO.P,D4,2*
G04 #@! TO.N,GND*
X79375000Y-44450000D03*
D14*
G04 #@! TO.P,D4,1*
G04 #@! TO.N,Net-(D4-Pad1)*
X78105000Y-44450000D03*
G04 #@! TD*
D13*
G04 #@! TO.P,D5,4*
G04 #@! TO.N,Net-(D4-Pad1)*
X69215000Y-44450000D03*
G04 #@! TO.P,D5,3*
G04 #@! TO.N,+5V*
X67945000Y-44450000D03*
G04 #@! TO.P,D5,2*
G04 #@! TO.N,GND*
X66675000Y-44450000D03*
D14*
G04 #@! TO.P,D5,1*
G04 #@! TO.N,Net-(D5-Pad1)*
X65405000Y-44450000D03*
G04 #@! TD*
D13*
G04 #@! TO.P,D6,4*
G04 #@! TO.N,Net-(D5-Pad1)*
X56515000Y-44450000D03*
G04 #@! TO.P,D6,3*
G04 #@! TO.N,+5V*
X55245000Y-44450000D03*
G04 #@! TO.P,D6,2*
G04 #@! TO.N,GND*
X53975000Y-44450000D03*
D14*
G04 #@! TO.P,D6,1*
G04 #@! TO.N,N/C*
X52705000Y-44450000D03*
G04 #@! TD*
D26*
G04 #@! TO.P,U1,39*
G04 #@! TO.N,N/C*
X193160000Y-92685000D03*
D27*
G04 #@! TO.P,U1,38*
G04 #@! TO.N,GND*
X200660000Y-83185000D03*
G04 #@! TO.P,U1,37*
G04 #@! TO.N,N/C*
X199390000Y-83185000D03*
G04 #@! TO.P,U1,36*
G04 #@! TO.N,/POW2*
X198120000Y-83185000D03*
G04 #@! TO.P,U1,35*
G04 #@! TO.N,TX*
X196850000Y-83185000D03*
G04 #@! TO.P,U1,34*
G04 #@! TO.N,RX*
X195580000Y-83185000D03*
G04 #@! TO.P,U1,33*
G04 #@! TO.N,/POW1*
X194310000Y-83185000D03*
G04 #@! TO.P,U1,32*
G04 #@! TO.N,N/C*
X193040000Y-83185000D03*
G04 #@! TO.P,U1,31*
G04 #@! TO.N,/Panel_SCL*
X191770000Y-83185000D03*
G04 #@! TO.P,U1,30*
G04 #@! TO.N,N/C*
X190500000Y-83185000D03*
G04 #@! TO.P,U1,29*
G04 #@! TO.N,/Panel_LED*
X189230000Y-83185000D03*
G04 #@! TO.P,U1,28*
G04 #@! TO.N,N/C*
X187960000Y-83185000D03*
G04 #@! TO.P,U1,27*
X186690000Y-83185000D03*
G04 #@! TO.P,U1,26*
G04 #@! TO.N,/Panel_SDA*
X185420000Y-83185000D03*
G04 #@! TO.P,U1,25*
G04 #@! TO.N,N/C*
X184150000Y-83185000D03*
G04 #@! TO.P,U1,24*
G04 #@! TO.N,/Panel_INT*
X182880000Y-83185000D03*
G04 #@! TO.P,U1,23*
G04 #@! TO.N,/FLOW_SENSE*
X181610000Y-83185000D03*
G04 #@! TO.P,U1,22*
G04 #@! TO.N,N/C*
X180340000Y-83185000D03*
G04 #@! TO.P,U1,20*
X177800000Y-83185000D03*
G04 #@! TO.P,U1,21*
X179070000Y-83185000D03*
G04 #@! TO.P,U1,19*
X177800000Y-100185000D03*
G04 #@! TO.P,U1,18*
X179070000Y-100185000D03*
G04 #@! TO.P,U1,17*
X180340000Y-100185000D03*
G04 #@! TO.P,U1,16*
G04 #@! TO.N,POWER_SENSE*
X181610000Y-100185000D03*
G04 #@! TO.P,U1,15*
G04 #@! TO.N,GND*
X182880000Y-100185000D03*
G04 #@! TO.P,U1,14*
G04 #@! TO.N,N/C*
X184150000Y-100185000D03*
G04 #@! TO.P,U1,13*
X185420000Y-100185000D03*
G04 #@! TO.P,U1,12*
X186690000Y-100185000D03*
G04 #@! TO.P,U1,11*
G04 #@! TO.N,/POW6*
X187960000Y-100185000D03*
G04 #@! TO.P,U1,10*
G04 #@! TO.N,/POW5*
X189230000Y-100185000D03*
G04 #@! TO.P,U1,9*
G04 #@! TO.N,/POW4*
X190500000Y-100185000D03*
G04 #@! TO.P,U1,8*
G04 #@! TO.N,/POW3*
X191770000Y-100185000D03*
G04 #@! TO.P,U1,7*
G04 #@! TO.N,N/C*
X193040000Y-100185000D03*
G04 #@! TO.P,U1,6*
X194310000Y-100185000D03*
G04 #@! TO.P,U1,5*
X195580000Y-100185000D03*
G04 #@! TO.P,U1,4*
X196850000Y-100185000D03*
G04 #@! TO.P,U1,3*
G04 #@! TO.N,Net-(R4-Pad1)*
X198120000Y-100185000D03*
G04 #@! TO.P,U1,2*
G04 #@! TO.N,+3V3*
X199390000Y-100185000D03*
G04 #@! TO.P,U1,1*
G04 #@! TO.N,GND*
X200660000Y-100185000D03*
G04 #@! TD*
D15*
G04 #@! TO.P,SW2,2*
G04 #@! TO.N,GND*
X102965000Y-50800000D03*
G04 #@! TO.P,SW2,1*
G04 #@! TO.N,Net-(SW2-Pad1)*
X107465000Y-50800000D03*
G04 #@! TO.P,SW2,2*
G04 #@! TO.N,GND*
X102965000Y-57300000D03*
G04 #@! TO.P,SW2,1*
G04 #@! TO.N,Net-(SW2-Pad1)*
X107465000Y-57300000D03*
G04 #@! TD*
G04 #@! TO.P,SW3,1*
G04 #@! TO.N,Net-(SW3-Pad1)*
X94765000Y-57300000D03*
G04 #@! TO.P,SW3,2*
G04 #@! TO.N,GND*
X90265000Y-57300000D03*
G04 #@! TO.P,SW3,1*
G04 #@! TO.N,Net-(SW3-Pad1)*
X94765000Y-50800000D03*
G04 #@! TO.P,SW3,2*
G04 #@! TO.N,GND*
X90265000Y-50800000D03*
G04 #@! TD*
G04 #@! TO.P,SW4,2*
G04 #@! TO.N,GND*
X77415000Y-50800000D03*
G04 #@! TO.P,SW4,1*
G04 #@! TO.N,Net-(SW4-Pad1)*
X81915000Y-50800000D03*
G04 #@! TO.P,SW4,2*
G04 #@! TO.N,GND*
X77415000Y-57300000D03*
G04 #@! TO.P,SW4,1*
G04 #@! TO.N,Net-(SW4-Pad1)*
X81915000Y-57300000D03*
G04 #@! TD*
G04 #@! TO.P,SW6,1*
G04 #@! TO.N,Net-(SW6-Pad1)*
X57205000Y-57300000D03*
G04 #@! TO.P,SW6,2*
G04 #@! TO.N,GND*
X52705000Y-57300000D03*
G04 #@! TO.P,SW6,1*
G04 #@! TO.N,Net-(SW6-Pad1)*
X57205000Y-50800000D03*
G04 #@! TO.P,SW6,2*
G04 #@! TO.N,GND*
X52705000Y-50800000D03*
G04 #@! TD*
D28*
G04 #@! TO.P,J1,1*
G04 #@! TO.N,NEUTRAL1*
X52070000Y-144780000D03*
G04 #@! TO.P,J1,2*
G04 #@! TO.N,EARTH*
X57150000Y-144780000D03*
G04 #@! TO.P,J1,3*
G04 #@! TO.N,LIVE1*
X62230000Y-144780000D03*
G04 #@! TD*
G04 #@! TO.P,J2,1*
G04 #@! TO.N,NEUTRAL2*
X68580000Y-144780000D03*
G04 #@! TO.P,J2,2*
G04 #@! TO.N,EARTH*
X73660000Y-144780000D03*
G04 #@! TO.P,J2,3*
G04 #@! TO.N,LIVE2*
X78740000Y-144780000D03*
G04 #@! TD*
G04 #@! TO.P,J3,3*
G04 #@! TO.N,LIVE3*
X95250000Y-144780000D03*
G04 #@! TO.P,J3,2*
G04 #@! TO.N,EARTH*
X90170000Y-144780000D03*
G04 #@! TO.P,J3,1*
G04 #@! TO.N,NEUTRAL3*
X85090000Y-144780000D03*
G04 #@! TD*
G04 #@! TO.P,J4,1*
G04 #@! TO.N,NEUTRAL4*
X101600000Y-144780000D03*
G04 #@! TO.P,J4,2*
G04 #@! TO.N,EARTH*
X106680000Y-144780000D03*
G04 #@! TO.P,J4,3*
G04 #@! TO.N,LIVE4*
X111760000Y-144780000D03*
G04 #@! TD*
G04 #@! TO.P,J5,1*
G04 #@! TO.N,NEUTRAL5*
X118110000Y-144780000D03*
G04 #@! TO.P,J5,2*
G04 #@! TO.N,EARTH*
X123190000Y-144780000D03*
G04 #@! TO.P,J5,3*
G04 #@! TO.N,LIVE5*
X128270000Y-144780000D03*
G04 #@! TD*
G04 #@! TO.P,J6,3*
G04 #@! TO.N,LIVE6*
X144780000Y-144780000D03*
G04 #@! TO.P,J6,2*
G04 #@! TO.N,EARTH*
X139700000Y-144780000D03*
G04 #@! TO.P,J6,1*
G04 #@! TO.N,NEUTRAL6*
X134620000Y-144780000D03*
G04 #@! TD*
G04 #@! TO.P,J7,3*
G04 #@! TO.N,NEUTRAL*
X161290000Y-144780000D03*
G04 #@! TO.P,J7,2*
G04 #@! TO.N,EARTH*
X156210000Y-144780000D03*
G04 #@! TO.P,J7,1*
G04 #@! TO.N,LIVE*
X151130000Y-144780000D03*
G04 #@! TD*
G04 #@! TO.P,J8,3*
G04 #@! TO.N,NEUTRAL*
X194310000Y-144780000D03*
G04 #@! TO.P,J8,2*
G04 #@! TO.N,EARTH*
X189230000Y-144780000D03*
G04 #@! TO.P,J8,1*
G04 #@! TO.N,/LIVE_IN*
X184150000Y-144780000D03*
G04 #@! TD*
D29*
G04 #@! TO.N,GND*
X142875000Y-56515000D03*
X200660000Y-102870000D03*
X182880000Y-107315010D03*
X161290000Y-97790000D03*
G04 #@! TO.N,+5V*
X130810000Y-48260000D03*
X172720000Y-93345000D03*
X172720000Y-99695000D03*
X165100000Y-109855000D03*
X172720000Y-84455000D03*
X144272000Y-55244998D03*
X143129000Y-47371000D03*
G04 #@! TO.N,POWER_SENSE*
X163195000Y-115570000D03*
G04 #@! TO.N,+3V3*
X92710000Y-104140000D03*
X153034996Y-93472000D03*
X153035000Y-89789006D03*
G04 #@! TO.N,+12V*
X113030000Y-114300000D03*
X86360000Y-95250000D03*
X103505000Y-95250000D03*
X151765000Y-93472000D03*
X151765000Y-89281001D03*
G04 #@! TO.N,/Panel_LED*
X132715000Y-46990004D03*
X146050000Y-46355000D03*
G04 #@! TO.N,/Panel_INT*
X156845000Y-72390016D03*
X156845000Y-69215000D03*
G04 #@! TO.N,/Panel_SCL*
X158115000Y-72389986D03*
X158115000Y-69215000D03*
G04 #@! TO.N,/Panel_SDA*
X148590000Y-52563800D03*
X170815000Y-78598800D03*
X166370000Y-70343800D03*
X149506444Y-54891444D03*
G04 #@! TO.N,/FLOW_SENSE*
X152255000Y-80790000D03*
G04 #@! TD*
D30*
G04 #@! TO.N,GND*
X142875000Y-54610000D02*
X140335000Y-54610000D01*
X140335000Y-55880000D02*
X140335000Y-54610000D01*
X139700000Y-56515000D02*
X140335000Y-55880000D01*
X134620000Y-56515000D02*
X139700000Y-56515000D01*
X133985000Y-54610000D02*
X133985000Y-55880000D01*
X133985000Y-55880000D02*
X134620000Y-56515000D01*
X142875000Y-56515000D02*
X142875000Y-54610000D01*
X200660000Y-102870000D02*
X200660000Y-100185000D01*
X200660000Y-106045000D02*
X200660000Y-102870000D01*
X199390000Y-107315000D02*
X200660000Y-106045000D01*
X182880000Y-100185000D02*
X182880000Y-107315010D01*
X187249990Y-107315010D02*
X187250000Y-107315000D01*
X182880000Y-107315010D02*
X187249990Y-107315010D01*
X200660000Y-100185000D02*
X200660000Y-83185000D01*
X161290000Y-94615000D02*
X161290000Y-97790000D01*
X200660000Y-81280000D02*
X200660000Y-83185000D01*
X194310000Y-74930000D02*
X200660000Y-81280000D01*
G04 #@! TO.N,+5V*
X80010000Y-46355000D02*
X68580000Y-46355000D01*
X92590000Y-46355000D02*
X81280000Y-46355000D01*
X80645000Y-45720000D02*
X80645000Y-44450000D01*
X118110000Y-46355000D02*
X106680000Y-46355000D01*
X105410000Y-46355000D02*
X94100000Y-46355000D01*
X118745000Y-44085000D02*
X118745000Y-44450000D01*
X68580000Y-46355000D02*
X67945000Y-45720000D01*
X118745000Y-44450000D02*
X118745000Y-45720000D01*
X93345000Y-44450000D02*
X93345000Y-45600000D01*
X94100000Y-46355000D02*
X93345000Y-45600000D01*
X67310000Y-46355000D02*
X55880000Y-46355000D01*
X67945000Y-45720000D02*
X67945000Y-44450000D01*
X55245000Y-45720000D02*
X55245000Y-44450000D01*
X80645000Y-45720000D02*
X80010000Y-46355000D01*
X93345000Y-45600000D02*
X92590000Y-46355000D01*
X106045000Y-45720000D02*
X105410000Y-46355000D01*
X106680000Y-46355000D02*
X106045000Y-45720000D01*
X55880000Y-46355000D02*
X55245000Y-45720000D01*
X81280000Y-46355000D02*
X80645000Y-45720000D01*
X118745000Y-45720000D02*
X118110000Y-46355000D01*
X106045000Y-45720000D02*
X106045000Y-44450000D01*
X67945000Y-45720000D02*
X67310000Y-46355000D01*
X118745000Y-44450000D02*
X118745000Y-44815000D01*
X118745000Y-44815000D02*
X122825000Y-48895000D01*
X122825000Y-48895000D02*
X130175000Y-48895000D01*
X130175000Y-48895000D02*
X130810000Y-48260000D01*
X172720000Y-99695000D02*
X172720000Y-102235000D01*
X172720000Y-102235000D02*
X165100000Y-109855000D01*
X172720000Y-84455000D02*
X172720000Y-93345000D01*
X140979616Y-74930000D02*
X142240000Y-74930000D01*
X92334400Y-90043000D02*
X125866616Y-90043000D01*
X90170000Y-90805000D02*
X91572400Y-90805000D01*
X125866616Y-90043000D02*
X140979616Y-74930000D01*
X91572400Y-90805000D02*
X92334400Y-90043000D01*
X182880000Y-71120000D02*
X142875000Y-71120000D01*
X186690000Y-74930000D02*
X182880000Y-71120000D01*
X142240000Y-71755000D02*
X142240000Y-74930000D01*
X142875000Y-71120000D02*
X142240000Y-71755000D01*
X144286201Y-69708799D02*
X144286201Y-55966305D01*
X144286201Y-55966305D02*
X144272000Y-55952104D01*
X142875000Y-71120000D02*
X144286201Y-69708799D01*
X144272000Y-55952104D02*
X144272000Y-55244998D01*
X142875000Y-45310000D02*
X142875000Y-47117000D01*
X142875000Y-47117000D02*
X143129000Y-47371000D01*
G04 #@! TO.N,POWER_SENSE*
X173355000Y-105410000D02*
X163195000Y-115570000D01*
X179578000Y-105410000D02*
X173355000Y-105410000D01*
X181610000Y-100185000D02*
X181610000Y-103378000D01*
X181610000Y-103378000D02*
X179578000Y-105410000D01*
D31*
G04 #@! TO.N,NEUTRAL*
X135890000Y-120396000D02*
X135890000Y-123190000D01*
X53340000Y-120396000D02*
X53340000Y-123190000D01*
X69342000Y-120396000D02*
X69342000Y-123190000D01*
X69342000Y-123190000D02*
X53340000Y-123190000D01*
X86614000Y-120396000D02*
X86614000Y-123190000D01*
X86614000Y-123190000D02*
X69342000Y-123190000D01*
X102362000Y-120396000D02*
X102362000Y-123190000D01*
X102362000Y-123190000D02*
X86614000Y-123190000D01*
X119634000Y-120396000D02*
X119634000Y-123190000D01*
X135890000Y-123190000D02*
X119634000Y-123190000D01*
X119634000Y-123190000D02*
X102362000Y-123190000D01*
X161290000Y-140352238D02*
X161290000Y-144780000D01*
X144127762Y-123190000D02*
X161290000Y-140352238D01*
X135890000Y-123190000D02*
X144127762Y-123190000D01*
X46380000Y-104140000D02*
X53465000Y-104140000D01*
X46380000Y-104140000D02*
X42450000Y-100210000D01*
X46355000Y-104165000D02*
X46380000Y-104140000D01*
X46355000Y-122301000D02*
X46355000Y-104165000D01*
X53340000Y-123190000D02*
X47244000Y-123190000D01*
X47244000Y-123190000D02*
X46355000Y-122301000D01*
X192003558Y-140352238D02*
X161290000Y-140352238D01*
X194310000Y-142658680D02*
X192003558Y-140352238D01*
X194310000Y-144780000D02*
X194310000Y-142658680D01*
G04 #@! TO.N,EARTH*
X139700000Y-139065000D02*
X139700000Y-144780000D01*
X123190000Y-144780000D02*
X123190000Y-139065000D01*
X106680000Y-144780000D02*
X106680000Y-139065000D01*
X90170000Y-139065000D02*
X106680000Y-139065000D01*
X90170000Y-144780000D02*
X90170000Y-139065000D01*
X106680000Y-139065000D02*
X122695805Y-139065000D01*
X73660000Y-144780000D02*
X73660000Y-139065000D01*
X73660000Y-139065000D02*
X90170000Y-139065000D01*
X59055000Y-139065000D02*
X73660000Y-139065000D01*
X57230000Y-141280000D02*
X59055000Y-139065000D01*
X57150000Y-144780000D02*
X57230000Y-144700000D01*
X57230000Y-144700000D02*
X57230000Y-141280000D01*
X123684195Y-139065000D02*
X139700000Y-139065000D01*
X150495000Y-139065000D02*
X156210000Y-144780000D01*
X139700000Y-139065000D02*
X150495000Y-139065000D01*
X186309000Y-147701000D02*
X189230000Y-144780000D01*
X156210000Y-144780000D02*
X159131000Y-147701000D01*
X159131000Y-147701000D02*
X186309000Y-147701000D01*
D30*
G04 #@! TO.N,RX*
X195580000Y-81280000D02*
X189230000Y-74930000D01*
X195580000Y-83185000D02*
X195580000Y-81280000D01*
G04 #@! TO.N,TX*
X196850000Y-80010000D02*
X196850000Y-83185000D01*
X191770000Y-74930000D02*
X196850000Y-80010000D01*
G04 #@! TO.N,+3V3*
X199390000Y-100185000D02*
X199390000Y-104775000D01*
X197340000Y-106825000D02*
X197340000Y-107315000D01*
X199390000Y-104775000D02*
X197340000Y-106825000D01*
X190500000Y-107315000D02*
X197340000Y-107315000D01*
X153034996Y-106558774D02*
X153034996Y-93472000D01*
X162822423Y-116346201D02*
X153034996Y-106558774D01*
X181468799Y-116346201D02*
X162822423Y-116346201D01*
X190500000Y-107315000D02*
X181468799Y-116346201D01*
X152400006Y-90424000D02*
X153035000Y-89789006D01*
X112903000Y-90424000D02*
X152400006Y-90424000D01*
X99187000Y-104140000D02*
X112903000Y-90424000D01*
X92710000Y-104140000D02*
X99187000Y-104140000D01*
G04 #@! TO.N,+12V*
X60960000Y-113030000D02*
X62230000Y-114300000D01*
X141986000Y-114300000D02*
X143510000Y-112776000D01*
X127254000Y-112776000D02*
X127254000Y-114300000D01*
X113030000Y-114300000D02*
X127254000Y-114300000D01*
X127254000Y-114300000D02*
X141986000Y-114300000D01*
X109982000Y-112776000D02*
X109982000Y-114300000D01*
X94234000Y-112776000D02*
X94234000Y-114300000D01*
X62230000Y-114300000D02*
X94234000Y-114300000D01*
X94234000Y-114300000D02*
X113030000Y-114300000D01*
X76962000Y-112776000D02*
X76962000Y-114300000D01*
X86360000Y-89035000D02*
X89670000Y-85725000D01*
X86360000Y-95250000D02*
X86360000Y-89035000D01*
X86360000Y-95250000D02*
X103505000Y-95250000D01*
X143510000Y-112776000D02*
X151765000Y-104521000D01*
X151765000Y-104521000D02*
X151765000Y-93472000D01*
X160837600Y-88312600D02*
X152733401Y-88312600D01*
X152733401Y-88312600D02*
X151765000Y-89281001D01*
X161290000Y-88765000D02*
X160837600Y-88312600D01*
X161290000Y-89215000D02*
X161290000Y-88765000D01*
G04 #@! TO.N,RE1*
X163830000Y-89665000D02*
X163830000Y-89215000D01*
X162690000Y-90805000D02*
X163830000Y-89665000D01*
X113030000Y-90805000D02*
X162690000Y-90805000D01*
X94967411Y-108867589D02*
X113030000Y-90805000D01*
X53340000Y-112776000D02*
X57248411Y-108867589D01*
X57248411Y-108867589D02*
X94967411Y-108867589D01*
G04 #@! TO.N,RE2*
X69850000Y-112268000D02*
X69342000Y-112776000D01*
X95113385Y-109219999D02*
X113175973Y-91157411D01*
X165100000Y-89665000D02*
X165100000Y-89215000D01*
X163607589Y-91157411D02*
X165100000Y-89665000D01*
X72898000Y-109220000D02*
X95113385Y-109219999D01*
X113175973Y-91157411D02*
X163607589Y-91157411D01*
X69342000Y-112776000D02*
X72898000Y-109220000D01*
G04 #@! TO.N,RE3*
X166370000Y-90170000D02*
X166370000Y-89215000D01*
X165030178Y-91509822D02*
X166370000Y-90170000D01*
X113321946Y-91509822D02*
X165030178Y-91509822D01*
X92055768Y-112776000D02*
X113321946Y-91509822D01*
X86614000Y-112776000D02*
X92055768Y-112776000D01*
G04 #@! TO.N,RE4*
X165442767Y-91862233D02*
X113467919Y-91862233D01*
X113467919Y-91862233D02*
X102362000Y-102968152D01*
X167640000Y-89665000D02*
X165442767Y-91862233D01*
X102362000Y-102968152D02*
X102362000Y-112776000D01*
X167640000Y-89215000D02*
X167640000Y-89665000D01*
G04 #@! TO.N,RE5*
X120510356Y-92214644D02*
X119634000Y-93091000D01*
X119634000Y-93091000D02*
X119634000Y-112776000D01*
X166360356Y-92214644D02*
X120510356Y-92214644D01*
X168910000Y-89215000D02*
X168910000Y-89665000D01*
X168910000Y-89665000D02*
X166360356Y-92214644D01*
G04 #@! TO.N,RE6*
X170180000Y-89215000D02*
X170180000Y-89665000D01*
X170180000Y-89665000D02*
X167277945Y-92567055D01*
X167277945Y-92567055D02*
X136667945Y-92567055D01*
X136667945Y-92567055D02*
X135890000Y-93345000D01*
X135890000Y-93345000D02*
X135890000Y-112776000D01*
G04 #@! TO.N,Net-(R4-Pad1)*
X198120000Y-103995000D02*
X198120000Y-100185000D01*
X197340000Y-104775000D02*
X198120000Y-103995000D01*
G04 #@! TO.N,Net-(D1-Pad1)*
X116205000Y-44450000D02*
X107315000Y-44450000D01*
G04 #@! TO.N,Net-(D2-Pad1)*
X103505000Y-44450000D02*
X94615000Y-44450000D01*
G04 #@! TO.N,Net-(D3-Pad1)*
X90805000Y-44450000D02*
X81915000Y-44450000D01*
G04 #@! TO.N,Net-(D4-Pad1)*
X78105000Y-44450000D02*
X69215000Y-44450000D01*
G04 #@! TO.N,Net-(D5-Pad1)*
X65405000Y-44450000D02*
X56515000Y-44450000D01*
G04 #@! TO.N,/Panel_LED*
X150495000Y-46355000D02*
X146050000Y-46355000D01*
X132715000Y-45085000D02*
X132715000Y-46990004D01*
X120015000Y-44450000D02*
X132080000Y-44450000D01*
X132080000Y-44450000D02*
X132715000Y-45085000D01*
X120015000Y-44450000D02*
X121920000Y-44450000D01*
X188595000Y-77470000D02*
X189230000Y-78105000D01*
X167005000Y-77470000D02*
X188595000Y-77470000D01*
X189230000Y-78105000D02*
X189230000Y-83185000D01*
G04 #@! TO.N,/Panel_INT*
X163601401Y-75793599D02*
X164465000Y-74930000D01*
X182880000Y-83185000D02*
X182880000Y-80010000D01*
X182245000Y-79375000D02*
X164465000Y-79375000D01*
X182880000Y-80010000D02*
X182245000Y-79375000D01*
X163325199Y-78235199D02*
X163325199Y-76069801D01*
X164465000Y-79375000D02*
X163325199Y-78235199D01*
X163325199Y-76069801D02*
X163601401Y-75793599D01*
X139065000Y-42545000D02*
X139065000Y-45310000D01*
X139700000Y-41910000D02*
X139065000Y-42545000D01*
X151257000Y-41910000D02*
X139700000Y-41910000D01*
X154559000Y-45212000D02*
X151257000Y-41910000D01*
X153035000Y-48895000D02*
X154559000Y-47371000D01*
X154559000Y-47371000D02*
X154559000Y-45212000D01*
X163325199Y-76069801D02*
X160524785Y-76069801D01*
X160524785Y-76069801D02*
X156845000Y-72390016D01*
X146685000Y-69215000D02*
X156845000Y-69215000D01*
X146177000Y-62616778D02*
X146177000Y-68707000D01*
X146191201Y-62602577D02*
X146177000Y-62616778D01*
X154559000Y-50419000D02*
X154559000Y-52578000D01*
X154559000Y-52578000D02*
X153444590Y-53692410D01*
X153444590Y-53692410D02*
X149507590Y-53692410D01*
X149507590Y-53692410D02*
X146191201Y-57008799D01*
X146177000Y-68707000D02*
X146685000Y-69215000D01*
X153035000Y-48895000D02*
X154559000Y-50419000D01*
X146191201Y-57008799D02*
X146191201Y-62602577D01*
G04 #@! TO.N,Net-(SW1-Pad1)*
X133985000Y-48260000D02*
X133985000Y-45310000D01*
X130175000Y-52070000D02*
X133985000Y-48260000D01*
X120015000Y-50800000D02*
X121285000Y-52070000D01*
X121285000Y-52070000D02*
X130175000Y-52070000D01*
G04 #@! TO.N,Net-(SW2-Pad1)*
X135255000Y-47625000D02*
X135255000Y-45310000D01*
X130175000Y-52705000D02*
X135255000Y-47625000D01*
X107465000Y-50800000D02*
X109370000Y-52705000D01*
X109370000Y-52705000D02*
X130175000Y-52705000D01*
G04 #@! TO.N,Net-(SW3-Pad1)*
X139065000Y-55060000D02*
X139065000Y-54610000D01*
X139065000Y-53340000D02*
X139065000Y-54610000D01*
X136525000Y-50800000D02*
X139065000Y-53340000D01*
X132750466Y-50800000D02*
X136525000Y-50800000D01*
X130210466Y-53340000D02*
X132750466Y-50800000D01*
X94765000Y-50800000D02*
X97305000Y-53340000D01*
X97305000Y-53340000D02*
X130210466Y-53340000D01*
G04 #@! TO.N,Net-(SW4-Pad1)*
X137795000Y-55060000D02*
X137795000Y-54610000D01*
X137795000Y-53340000D02*
X137795000Y-54610000D01*
X135890000Y-51435000D02*
X137795000Y-53340000D01*
X132715000Y-51435000D02*
X135890000Y-51435000D01*
X130175000Y-53975000D02*
X132715000Y-51435000D01*
X81915000Y-50800000D02*
X85090000Y-53975000D01*
X85090000Y-53975000D02*
X130175000Y-53975000D01*
G04 #@! TO.N,Net-(SW5-Pad1)*
X136525000Y-53340000D02*
X136525000Y-54610000D01*
X135255000Y-52070000D02*
X136525000Y-53340000D01*
X132715000Y-52070000D02*
X135255000Y-52070000D01*
X130175000Y-54610000D02*
X132715000Y-52070000D01*
X69365000Y-50800000D02*
X73175000Y-54610000D01*
X73175000Y-54610000D02*
X130175000Y-54610000D01*
G04 #@! TO.N,Net-(SW6-Pad1)*
X135255000Y-53340000D02*
X135255000Y-54610000D01*
X134620000Y-52705000D02*
X135255000Y-53340000D01*
X132715000Y-52705000D02*
X134620000Y-52705000D01*
X130175000Y-55245000D02*
X132715000Y-52705000D01*
X57205000Y-50800000D02*
X61650000Y-55245000D01*
X61650000Y-55245000D02*
X130175000Y-55245000D01*
G04 #@! TO.N,/Panel_SCL*
X153035000Y-52070000D02*
X153035000Y-51435000D01*
X151765000Y-53340000D02*
X153035000Y-52070000D01*
X191770000Y-78740000D02*
X191770000Y-83185000D01*
X189865000Y-76835000D02*
X191770000Y-78740000D01*
X176530000Y-76835000D02*
X189865000Y-76835000D01*
X172720000Y-73025000D02*
X176530000Y-76835000D01*
X161925000Y-74930000D02*
X163830000Y-73025000D01*
X163830000Y-73025000D02*
X172720000Y-73025000D01*
X146685000Y-53340000D02*
X151765000Y-53340000D01*
X160655014Y-74930000D02*
X158115000Y-72389986D01*
X161925000Y-74930000D02*
X160655014Y-74930000D01*
X140335000Y-45310000D02*
X140335000Y-46990000D01*
X140335000Y-46990000D02*
X146685000Y-53340000D01*
X156980001Y-70349999D02*
X158115000Y-69215000D01*
X144638612Y-70343612D02*
X144644999Y-70349999D01*
X144638612Y-56910388D02*
X144638612Y-70343612D01*
X144644999Y-70349999D02*
X156980001Y-70349999D01*
X146685000Y-53340000D02*
X146685000Y-54864000D01*
X146685000Y-54864000D02*
X144638612Y-56910388D01*
G04 #@! TO.N,/Panel_SDA*
X185420000Y-79375000D02*
X185420000Y-83185000D01*
X184785000Y-78740000D02*
X185420000Y-79375000D01*
X164465000Y-77470000D02*
X165735000Y-78740000D01*
X143537632Y-48895000D02*
X150495000Y-48895000D01*
X143537632Y-48895000D02*
X144921200Y-48895000D01*
X144921200Y-48895000D02*
X148590000Y-52563800D01*
X170815000Y-78740000D02*
X170815000Y-78598800D01*
X170815000Y-78740000D02*
X184785000Y-78740000D01*
X165735000Y-78740000D02*
X170815000Y-78740000D01*
X146543799Y-57854089D02*
X149506444Y-54891444D01*
X146543799Y-65644799D02*
X146543799Y-57854089D01*
X147574000Y-66675000D02*
X146543799Y-65644799D01*
X166370000Y-70343800D02*
X162701200Y-66675000D01*
X162701200Y-66675000D02*
X147574000Y-66675000D01*
X141605000Y-45310000D02*
X141605000Y-47122780D01*
X141605000Y-47122780D02*
X143377220Y-48895000D01*
X143377220Y-48895000D02*
X143537632Y-48895000D01*
G04 #@! TO.N,/FLOW_SENSE*
X153035000Y-80010000D02*
X152255000Y-80790000D01*
X180975000Y-80010000D02*
X153035000Y-80010000D01*
X181610000Y-83185000D02*
X181610000Y-80645000D01*
X181610000Y-80645000D02*
X180975000Y-80010000D01*
G04 #@! TO.N,/POW2*
X198120000Y-84337400D02*
X198120000Y-83185000D01*
X168910000Y-96393000D02*
X169176792Y-96659792D01*
X168910000Y-94615000D02*
X168910000Y-96393000D01*
X169176792Y-96659792D02*
X183375206Y-96659792D01*
X183375206Y-96659792D02*
X195573798Y-84461201D01*
X195573798Y-84461201D02*
X197996199Y-84461201D01*
X197996199Y-84461201D02*
X198120000Y-84337400D01*
G04 #@! TO.N,/POW1*
X194310000Y-85090000D02*
X194310000Y-83185000D01*
X183261000Y-96139000D02*
X194310000Y-85090000D01*
X170561000Y-96139000D02*
X183261000Y-96139000D01*
X170180000Y-94615000D02*
X170180000Y-95758000D01*
X170180000Y-95758000D02*
X170561000Y-96139000D01*
G04 #@! TO.N,/POW6*
X187960000Y-98552000D02*
X187960000Y-100185000D01*
X187706000Y-98298000D02*
X187960000Y-98552000D01*
X164465000Y-98298000D02*
X187706000Y-98298000D01*
X163830000Y-94615000D02*
X163830000Y-97663000D01*
X163830000Y-97663000D02*
X164465000Y-98298000D01*
G04 #@! TO.N,/POW5*
X189230000Y-98171000D02*
X189230000Y-100185000D01*
X188918822Y-97859822D02*
X189230000Y-98171000D01*
X165550822Y-97859822D02*
X188918822Y-97859822D01*
X165100000Y-94615000D02*
X165100000Y-97409000D01*
X165100000Y-97409000D02*
X165550822Y-97859822D01*
G04 #@! TO.N,/POW4*
X190500000Y-97790000D02*
X190500000Y-100185000D01*
X190217411Y-97507411D02*
X190500000Y-97790000D01*
X166722411Y-97507411D02*
X190217411Y-97507411D01*
X166370000Y-94615000D02*
X166370000Y-97155000D01*
X166370000Y-97155000D02*
X166722411Y-97507411D01*
G04 #@! TO.N,/POW3*
X191770000Y-97536000D02*
X191770000Y-100185000D01*
X191389000Y-97155000D02*
X191770000Y-97536000D01*
X168021000Y-97155000D02*
X191389000Y-97155000D01*
X167640000Y-94615000D02*
X167640000Y-96774000D01*
X167640000Y-96774000D02*
X168021000Y-97155000D01*
G04 #@! TD*
M02*
