G04 #@! TF.GenerationSoftware,KiCad,Pcbnew,(6.0.0-rc1-dev-904-g29e0e6921)*
G04 #@! TF.CreationDate,2018-11-17T01:03:26+00:00*
G04 #@! TF.ProjectId,AquaHub,417175614875622E6B696361645F7063,2*
G04 #@! TF.SameCoordinates,Original*
G04 #@! TF.FileFunction,Soldermask,Bot*
G04 #@! TF.FilePolarity,Negative*
%FSLAX46Y46*%
G04 Gerber Fmt 4.6, Leading zero omitted, Abs format (unit mm)*
G04 Created by KiCad (PCBNEW (6.0.0-rc1-dev-904-g29e0e6921)) date 17/11/2018 01:03:26*
%MOMM*%
%LPD*%
G01*
G04 APERTURE LIST*
%ADD10C,0.100000*%
G04 APERTURE END LIST*
D10*
G36*
X219083935Y-109873429D02*
X219180534Y-109892644D01*
X219453517Y-110005717D01*
X219695920Y-110167687D01*
X219699197Y-110169876D01*
X219908124Y-110378803D01*
X220072284Y-110624485D01*
X220185356Y-110897467D01*
X220243000Y-111187261D01*
X220243000Y-111482739D01*
X220185356Y-111772533D01*
X220072284Y-112045515D01*
X219908124Y-112291197D01*
X219699197Y-112500124D01*
X219699194Y-112500126D01*
X219453517Y-112664283D01*
X219180534Y-112777356D01*
X219083935Y-112796571D01*
X218890739Y-112835000D01*
X218595261Y-112835000D01*
X218402065Y-112796571D01*
X218305466Y-112777356D01*
X218032483Y-112664283D01*
X217786806Y-112500126D01*
X217786803Y-112500124D01*
X217577876Y-112291197D01*
X217413716Y-112045515D01*
X217300644Y-111772533D01*
X217243000Y-111482739D01*
X217243000Y-111187261D01*
X217300644Y-110897467D01*
X217413716Y-110624485D01*
X217577876Y-110378803D01*
X217786803Y-110169876D01*
X217790080Y-110167687D01*
X218032483Y-110005717D01*
X218305466Y-109892644D01*
X218402065Y-109873429D01*
X218595261Y-109835000D01*
X218890739Y-109835000D01*
X219083935Y-109873429D01*
X219083935Y-109873429D01*
G37*
G36*
X215243000Y-112835000D02*
X212243000Y-112835000D01*
X212243000Y-109835000D01*
X215243000Y-109835000D01*
X215243000Y-112835000D01*
X215243000Y-112835000D01*
G37*
G36*
X145384000Y-112835000D02*
X142384000Y-112835000D01*
X142384000Y-109835000D01*
X145384000Y-109835000D01*
X145384000Y-112835000D01*
X145384000Y-112835000D01*
G37*
G36*
X149224935Y-109873429D02*
X149321534Y-109892644D01*
X149594517Y-110005717D01*
X149836920Y-110167687D01*
X149840197Y-110169876D01*
X150049124Y-110378803D01*
X150213284Y-110624485D01*
X150326356Y-110897467D01*
X150384000Y-111187261D01*
X150384000Y-111482739D01*
X150326356Y-111772533D01*
X150213284Y-112045515D01*
X150049124Y-112291197D01*
X149840197Y-112500124D01*
X149840194Y-112500126D01*
X149594517Y-112664283D01*
X149321534Y-112777356D01*
X149224935Y-112796571D01*
X149031739Y-112835000D01*
X148736261Y-112835000D01*
X148543065Y-112796571D01*
X148446466Y-112777356D01*
X148173483Y-112664283D01*
X147927806Y-112500126D01*
X147927803Y-112500124D01*
X147718876Y-112291197D01*
X147554716Y-112045515D01*
X147441644Y-111772533D01*
X147384000Y-111482739D01*
X147384000Y-111187261D01*
X147441644Y-110897467D01*
X147554716Y-110624485D01*
X147718876Y-110378803D01*
X147927803Y-110169876D01*
X147931080Y-110167687D01*
X148173483Y-110005717D01*
X148446466Y-109892644D01*
X148543065Y-109873429D01*
X148736261Y-109835000D01*
X149031739Y-109835000D01*
X149224935Y-109873429D01*
X149224935Y-109873429D01*
G37*
G36*
X162021000Y-112835000D02*
X159021000Y-112835000D01*
X159021000Y-109835000D01*
X162021000Y-109835000D01*
X162021000Y-112835000D01*
X162021000Y-112835000D01*
G37*
G36*
X165861935Y-109873429D02*
X165958534Y-109892644D01*
X166231517Y-110005717D01*
X166473920Y-110167687D01*
X166477197Y-110169876D01*
X166686124Y-110378803D01*
X166850284Y-110624485D01*
X166963356Y-110897467D01*
X167021000Y-111187261D01*
X167021000Y-111482739D01*
X166963356Y-111772533D01*
X166850284Y-112045515D01*
X166686124Y-112291197D01*
X166477197Y-112500124D01*
X166477194Y-112500126D01*
X166231517Y-112664283D01*
X165958534Y-112777356D01*
X165861935Y-112796571D01*
X165668739Y-112835000D01*
X165373261Y-112835000D01*
X165180065Y-112796571D01*
X165083466Y-112777356D01*
X164810483Y-112664283D01*
X164564806Y-112500126D01*
X164564803Y-112500124D01*
X164355876Y-112291197D01*
X164191716Y-112045515D01*
X164078644Y-111772533D01*
X164021000Y-111482739D01*
X164021000Y-111187261D01*
X164078644Y-110897467D01*
X164191716Y-110624485D01*
X164355876Y-110378803D01*
X164564803Y-110169876D01*
X164568080Y-110167687D01*
X164810483Y-110005717D01*
X165083466Y-109892644D01*
X165180065Y-109873429D01*
X165373261Y-109835000D01*
X165668739Y-109835000D01*
X165861935Y-109873429D01*
X165861935Y-109873429D01*
G37*
G36*
X178658000Y-112835000D02*
X175658000Y-112835000D01*
X175658000Y-109835000D01*
X178658000Y-109835000D01*
X178658000Y-112835000D01*
X178658000Y-112835000D01*
G37*
G36*
X182498935Y-109873429D02*
X182595534Y-109892644D01*
X182868517Y-110005717D01*
X183110920Y-110167687D01*
X183114197Y-110169876D01*
X183323124Y-110378803D01*
X183487284Y-110624485D01*
X183600356Y-110897467D01*
X183658000Y-111187261D01*
X183658000Y-111482739D01*
X183600356Y-111772533D01*
X183487284Y-112045515D01*
X183323124Y-112291197D01*
X183114197Y-112500124D01*
X183114194Y-112500126D01*
X182868517Y-112664283D01*
X182595534Y-112777356D01*
X182498935Y-112796571D01*
X182305739Y-112835000D01*
X182010261Y-112835000D01*
X181817065Y-112796571D01*
X181720466Y-112777356D01*
X181447483Y-112664283D01*
X181201806Y-112500126D01*
X181201803Y-112500124D01*
X180992876Y-112291197D01*
X180828716Y-112045515D01*
X180715644Y-111772533D01*
X180658000Y-111482739D01*
X180658000Y-111187261D01*
X180715644Y-110897467D01*
X180828716Y-110624485D01*
X180992876Y-110378803D01*
X181201803Y-110169876D01*
X181205080Y-110167687D01*
X181447483Y-110005717D01*
X181720466Y-109892644D01*
X181817065Y-109873429D01*
X182010261Y-109835000D01*
X182305739Y-109835000D01*
X182498935Y-109873429D01*
X182498935Y-109873429D01*
G37*
G36*
X112110000Y-112835000D02*
X109110000Y-112835000D01*
X109110000Y-109835000D01*
X112110000Y-109835000D01*
X112110000Y-112835000D01*
X112110000Y-112835000D01*
G37*
G36*
X115950935Y-109873429D02*
X116047534Y-109892644D01*
X116320517Y-110005717D01*
X116562920Y-110167687D01*
X116566197Y-110169876D01*
X116775124Y-110378803D01*
X116939284Y-110624485D01*
X117052356Y-110897467D01*
X117110000Y-111187261D01*
X117110000Y-111482739D01*
X117052356Y-111772533D01*
X116939284Y-112045515D01*
X116775124Y-112291197D01*
X116566197Y-112500124D01*
X116566194Y-112500126D01*
X116320517Y-112664283D01*
X116047534Y-112777356D01*
X115950935Y-112796571D01*
X115757739Y-112835000D01*
X115462261Y-112835000D01*
X115269065Y-112796571D01*
X115172466Y-112777356D01*
X114899483Y-112664283D01*
X114653806Y-112500126D01*
X114653803Y-112500124D01*
X114444876Y-112291197D01*
X114280716Y-112045515D01*
X114167644Y-111772533D01*
X114110000Y-111482739D01*
X114110000Y-111187261D01*
X114167644Y-110897467D01*
X114280716Y-110624485D01*
X114444876Y-110378803D01*
X114653803Y-110169876D01*
X114657080Y-110167687D01*
X114899483Y-110005717D01*
X115172466Y-109892644D01*
X115269065Y-109873429D01*
X115462261Y-109835000D01*
X115757739Y-109835000D01*
X115950935Y-109873429D01*
X115950935Y-109873429D01*
G37*
G36*
X128747000Y-112835000D02*
X125747000Y-112835000D01*
X125747000Y-109835000D01*
X128747000Y-109835000D01*
X128747000Y-112835000D01*
X128747000Y-112835000D01*
G37*
G36*
X132587935Y-109873429D02*
X132684534Y-109892644D01*
X132957517Y-110005717D01*
X133199920Y-110167687D01*
X133203197Y-110169876D01*
X133412124Y-110378803D01*
X133576284Y-110624485D01*
X133689356Y-110897467D01*
X133747000Y-111187261D01*
X133747000Y-111482739D01*
X133689356Y-111772533D01*
X133576284Y-112045515D01*
X133412124Y-112291197D01*
X133203197Y-112500124D01*
X133203194Y-112500126D01*
X132957517Y-112664283D01*
X132684534Y-112777356D01*
X132587935Y-112796571D01*
X132394739Y-112835000D01*
X132099261Y-112835000D01*
X131906065Y-112796571D01*
X131809466Y-112777356D01*
X131536483Y-112664283D01*
X131290806Y-112500126D01*
X131290803Y-112500124D01*
X131081876Y-112291197D01*
X130917716Y-112045515D01*
X130804644Y-111772533D01*
X130747000Y-111482739D01*
X130747000Y-111187261D01*
X130804644Y-110897467D01*
X130917716Y-110624485D01*
X131081876Y-110378803D01*
X131290803Y-110169876D01*
X131294080Y-110167687D01*
X131536483Y-110005717D01*
X131809466Y-109892644D01*
X131906065Y-109873429D01*
X132099261Y-109835000D01*
X132394739Y-109835000D01*
X132587935Y-109873429D01*
X132587935Y-109873429D01*
G37*
G36*
X195295000Y-112835000D02*
X192295000Y-112835000D01*
X192295000Y-109835000D01*
X195295000Y-109835000D01*
X195295000Y-112835000D01*
X195295000Y-112835000D01*
G37*
G36*
X199135935Y-109873429D02*
X199232534Y-109892644D01*
X199505517Y-110005717D01*
X199747920Y-110167687D01*
X199751197Y-110169876D01*
X199960124Y-110378803D01*
X200124284Y-110624485D01*
X200237356Y-110897467D01*
X200295000Y-111187261D01*
X200295000Y-111482739D01*
X200237356Y-111772533D01*
X200124284Y-112045515D01*
X199960124Y-112291197D01*
X199751197Y-112500124D01*
X199751194Y-112500126D01*
X199505517Y-112664283D01*
X199232534Y-112777356D01*
X199135935Y-112796571D01*
X198942739Y-112835000D01*
X198647261Y-112835000D01*
X198454065Y-112796571D01*
X198357466Y-112777356D01*
X198084483Y-112664283D01*
X197838806Y-112500126D01*
X197838803Y-112500124D01*
X197629876Y-112291197D01*
X197465716Y-112045515D01*
X197352644Y-111772533D01*
X197295000Y-111482739D01*
X197295000Y-111187261D01*
X197352644Y-110897467D01*
X197465716Y-110624485D01*
X197629876Y-110378803D01*
X197838803Y-110169876D01*
X197842080Y-110167687D01*
X198084483Y-110005717D01*
X198357466Y-109892644D01*
X198454065Y-109873429D01*
X198647261Y-109835000D01*
X198942739Y-109835000D01*
X199135935Y-109873429D01*
X199135935Y-109873429D01*
G37*
G36*
X60409122Y-103246115D02*
X60525041Y-103269173D01*
X60852620Y-103404861D01*
X60883776Y-103425679D01*
X61147436Y-103601851D01*
X61398149Y-103852564D01*
X61398151Y-103852567D01*
X61595139Y-104147380D01*
X61730827Y-104474959D01*
X61753885Y-104590878D01*
X61800000Y-104822714D01*
X61800000Y-105177286D01*
X61753885Y-105409122D01*
X61730827Y-105525041D01*
X61640016Y-105744277D01*
X61595140Y-105852618D01*
X61398149Y-106147436D01*
X61147436Y-106398149D01*
X61147433Y-106398151D01*
X60852620Y-106595139D01*
X60525041Y-106730827D01*
X60409122Y-106753885D01*
X60177286Y-106800000D01*
X59822714Y-106800000D01*
X59590878Y-106753885D01*
X59474959Y-106730827D01*
X59147380Y-106595139D01*
X58852567Y-106398151D01*
X58852564Y-106398149D01*
X58601851Y-106147436D01*
X58404860Y-105852618D01*
X58359984Y-105744277D01*
X58269173Y-105525041D01*
X58246115Y-105409122D01*
X58200000Y-105177286D01*
X58200000Y-104822714D01*
X58246115Y-104590878D01*
X58269173Y-104474959D01*
X58404861Y-104147380D01*
X58601849Y-103852567D01*
X58601851Y-103852564D01*
X58852564Y-103601851D01*
X59116224Y-103425679D01*
X59147380Y-103404861D01*
X59474959Y-103269173D01*
X59590878Y-103246115D01*
X59822714Y-103200000D01*
X60177286Y-103200000D01*
X60409122Y-103246115D01*
X60409122Y-103246115D01*
G37*
G36*
X236409122Y-103246115D02*
X236525041Y-103269173D01*
X236852620Y-103404861D01*
X236883776Y-103425679D01*
X237147436Y-103601851D01*
X237398149Y-103852564D01*
X237398151Y-103852567D01*
X237595139Y-104147380D01*
X237730827Y-104474959D01*
X237753885Y-104590878D01*
X237800000Y-104822714D01*
X237800000Y-105177286D01*
X237753885Y-105409122D01*
X237730827Y-105525041D01*
X237640016Y-105744277D01*
X237595140Y-105852618D01*
X237398149Y-106147436D01*
X237147436Y-106398149D01*
X237147433Y-106398151D01*
X236852620Y-106595139D01*
X236525041Y-106730827D01*
X236409122Y-106753885D01*
X236177286Y-106800000D01*
X235822714Y-106800000D01*
X235590878Y-106753885D01*
X235474959Y-106730827D01*
X235147380Y-106595139D01*
X234852567Y-106398151D01*
X234852564Y-106398149D01*
X234601851Y-106147436D01*
X234404860Y-105852618D01*
X234359984Y-105744277D01*
X234269173Y-105525041D01*
X234246115Y-105409122D01*
X234200000Y-105177286D01*
X234200000Y-104822714D01*
X234246115Y-104590878D01*
X234269173Y-104474959D01*
X234404861Y-104147380D01*
X234601849Y-103852567D01*
X234601851Y-103852564D01*
X234852564Y-103601851D01*
X235116224Y-103425679D01*
X235147380Y-103404861D01*
X235474959Y-103269173D01*
X235590878Y-103246115D01*
X235822714Y-103200000D01*
X236177286Y-103200000D01*
X236409122Y-103246115D01*
X236409122Y-103246115D01*
G37*
G36*
X228021159Y-102635399D02*
X228187658Y-102651798D01*
X228401292Y-102716603D01*
X228508110Y-102749006D01*
X228803441Y-102906864D01*
X229062298Y-103119302D01*
X229274736Y-103378159D01*
X229432594Y-103673490D01*
X229432594Y-103673491D01*
X229529802Y-103993942D01*
X229562625Y-104327200D01*
X229529802Y-104660458D01*
X229495678Y-104772949D01*
X229432594Y-104980910D01*
X229274736Y-105276241D01*
X229062298Y-105535098D01*
X228803441Y-105747536D01*
X228508110Y-105905394D01*
X228401292Y-105937797D01*
X228187658Y-106002602D01*
X228021159Y-106019001D01*
X227937911Y-106027200D01*
X226770889Y-106027200D01*
X226687641Y-106019001D01*
X226521142Y-106002602D01*
X226307508Y-105937797D01*
X226200690Y-105905394D01*
X225905359Y-105747536D01*
X225646502Y-105535098D01*
X225434064Y-105276241D01*
X225276206Y-104980910D01*
X225213122Y-104772949D01*
X225178998Y-104660458D01*
X225146175Y-104327200D01*
X225178998Y-103993942D01*
X225276206Y-103673491D01*
X225276206Y-103673490D01*
X225434064Y-103378159D01*
X225646502Y-103119302D01*
X225905359Y-102906864D01*
X226200690Y-102749006D01*
X226307508Y-102716603D01*
X226521142Y-102651798D01*
X226687641Y-102635399D01*
X226770889Y-102627200D01*
X227937911Y-102627200D01*
X228021159Y-102635399D01*
X228021159Y-102635399D01*
G37*
G36*
X109882947Y-102955722D02*
X110146833Y-103065027D01*
X110384324Y-103223713D01*
X110586287Y-103425676D01*
X110744973Y-103663167D01*
X110854278Y-103927053D01*
X110910000Y-104207186D01*
X110910000Y-104492814D01*
X110854278Y-104772947D01*
X110744973Y-105036833D01*
X110586287Y-105274324D01*
X110384324Y-105476287D01*
X110146833Y-105634973D01*
X109882947Y-105744278D01*
X109602814Y-105800000D01*
X109317186Y-105800000D01*
X109037053Y-105744278D01*
X108773167Y-105634973D01*
X108535676Y-105476287D01*
X108333713Y-105274324D01*
X108175027Y-105036833D01*
X108065722Y-104772947D01*
X108010000Y-104492814D01*
X108010000Y-104207186D01*
X108065722Y-103927053D01*
X108175027Y-103663167D01*
X108333713Y-103425676D01*
X108535676Y-103223713D01*
X108773167Y-103065027D01*
X109037053Y-102955722D01*
X109317186Y-102900000D01*
X109602814Y-102900000D01*
X109882947Y-102955722D01*
X109882947Y-102955722D01*
G37*
G36*
X151430000Y-105800000D02*
X148530000Y-105800000D01*
X148530000Y-102900000D01*
X151430000Y-102900000D01*
X151430000Y-105800000D01*
X151430000Y-105800000D01*
G37*
G36*
X142902947Y-102955722D02*
X143166833Y-103065027D01*
X143404324Y-103223713D01*
X143606287Y-103425676D01*
X143764973Y-103663167D01*
X143874278Y-103927053D01*
X143930000Y-104207186D01*
X143930000Y-104492814D01*
X143874278Y-104772947D01*
X143764973Y-105036833D01*
X143606287Y-105274324D01*
X143404324Y-105476287D01*
X143166833Y-105634973D01*
X142902947Y-105744278D01*
X142622814Y-105800000D01*
X142337186Y-105800000D01*
X142057053Y-105744278D01*
X141793167Y-105634973D01*
X141555676Y-105476287D01*
X141353713Y-105274324D01*
X141195027Y-105036833D01*
X141085722Y-104772947D01*
X141030000Y-104492814D01*
X141030000Y-104207186D01*
X141085722Y-103927053D01*
X141195027Y-103663167D01*
X141353713Y-103425676D01*
X141555676Y-103223713D01*
X141793167Y-103065027D01*
X142057053Y-102955722D01*
X142337186Y-102900000D01*
X142622814Y-102900000D01*
X142902947Y-102955722D01*
X142902947Y-102955722D01*
G37*
G36*
X118410000Y-105800000D02*
X115510000Y-105800000D01*
X115510000Y-102900000D01*
X118410000Y-102900000D01*
X118410000Y-105800000D01*
X118410000Y-105800000D01*
G37*
G36*
X126392947Y-102955722D02*
X126656833Y-103065027D01*
X126894324Y-103223713D01*
X127096287Y-103425676D01*
X127254973Y-103663167D01*
X127364278Y-103927053D01*
X127420000Y-104207186D01*
X127420000Y-104492814D01*
X127364278Y-104772947D01*
X127254973Y-105036833D01*
X127096287Y-105274324D01*
X126894324Y-105476287D01*
X126656833Y-105634973D01*
X126392947Y-105744278D01*
X126112814Y-105800000D01*
X125827186Y-105800000D01*
X125547053Y-105744278D01*
X125283167Y-105634973D01*
X125045676Y-105476287D01*
X124843713Y-105274324D01*
X124685027Y-105036833D01*
X124575722Y-104772947D01*
X124520000Y-104492814D01*
X124520000Y-104207186D01*
X124575722Y-103927053D01*
X124685027Y-103663167D01*
X124843713Y-103425676D01*
X125045676Y-103223713D01*
X125283167Y-103065027D01*
X125547053Y-102955722D01*
X125827186Y-102900000D01*
X126112814Y-102900000D01*
X126392947Y-102955722D01*
X126392947Y-102955722D01*
G37*
G36*
X201475000Y-105800000D02*
X198575000Y-105800000D01*
X198575000Y-102900000D01*
X201475000Y-102900000D01*
X201475000Y-105800000D01*
X201475000Y-105800000D01*
G37*
G36*
X184704000Y-105800000D02*
X181804000Y-105800000D01*
X181804000Y-102900000D01*
X184704000Y-102900000D01*
X184704000Y-105800000D01*
X184704000Y-105800000D01*
G37*
G36*
X176176947Y-102955722D02*
X176440833Y-103065027D01*
X176678324Y-103223713D01*
X176880287Y-103425676D01*
X177038973Y-103663167D01*
X177148278Y-103927053D01*
X177204000Y-104207186D01*
X177204000Y-104492814D01*
X177148278Y-104772947D01*
X177038973Y-105036833D01*
X176880287Y-105274324D01*
X176678324Y-105476287D01*
X176440833Y-105634973D01*
X176176947Y-105744278D01*
X175896814Y-105800000D01*
X175611186Y-105800000D01*
X175331053Y-105744278D01*
X175067167Y-105634973D01*
X174829676Y-105476287D01*
X174627713Y-105274324D01*
X174469027Y-105036833D01*
X174359722Y-104772947D01*
X174304000Y-104492814D01*
X174304000Y-104207186D01*
X174359722Y-103927053D01*
X174469027Y-103663167D01*
X174627713Y-103425676D01*
X174829676Y-103223713D01*
X175067167Y-103065027D01*
X175331053Y-102955722D01*
X175611186Y-102900000D01*
X175896814Y-102900000D01*
X176176947Y-102955722D01*
X176176947Y-102955722D01*
G37*
G36*
X167940000Y-105800000D02*
X165040000Y-105800000D01*
X165040000Y-102900000D01*
X167940000Y-102900000D01*
X167940000Y-105800000D01*
X167940000Y-105800000D01*
G37*
G36*
X159412947Y-102955722D02*
X159676833Y-103065027D01*
X159914324Y-103223713D01*
X160116287Y-103425676D01*
X160274973Y-103663167D01*
X160384278Y-103927053D01*
X160440000Y-104207186D01*
X160440000Y-104492814D01*
X160384278Y-104772947D01*
X160274973Y-105036833D01*
X160116287Y-105274324D01*
X159914324Y-105476287D01*
X159676833Y-105634973D01*
X159412947Y-105744278D01*
X159132814Y-105800000D01*
X158847186Y-105800000D01*
X158567053Y-105744278D01*
X158303167Y-105634973D01*
X158065676Y-105476287D01*
X157863713Y-105274324D01*
X157705027Y-105036833D01*
X157595722Y-104772947D01*
X157540000Y-104492814D01*
X157540000Y-104207186D01*
X157595722Y-103927053D01*
X157705027Y-103663167D01*
X157863713Y-103425676D01*
X158065676Y-103223713D01*
X158303167Y-103065027D01*
X158567053Y-102955722D01*
X158847186Y-102900000D01*
X159132814Y-102900000D01*
X159412947Y-102955722D01*
X159412947Y-102955722D01*
G37*
G36*
X134920000Y-105800000D02*
X132020000Y-105800000D01*
X132020000Y-102900000D01*
X134920000Y-102900000D01*
X134920000Y-105800000D01*
X134920000Y-105800000D01*
G37*
G36*
X192947947Y-102955722D02*
X193211833Y-103065027D01*
X193449324Y-103223713D01*
X193651287Y-103425676D01*
X193809973Y-103663167D01*
X193919278Y-103927053D01*
X193975000Y-104207186D01*
X193975000Y-104492814D01*
X193919278Y-104772947D01*
X193809973Y-105036833D01*
X193651287Y-105274324D01*
X193449324Y-105476287D01*
X193211833Y-105634973D01*
X192947947Y-105744278D01*
X192667814Y-105800000D01*
X192382186Y-105800000D01*
X192102053Y-105744278D01*
X191838167Y-105634973D01*
X191600676Y-105476287D01*
X191398713Y-105274324D01*
X191240027Y-105036833D01*
X191130722Y-104772947D01*
X191075000Y-104492814D01*
X191075000Y-104207186D01*
X191130722Y-103927053D01*
X191240027Y-103663167D01*
X191398713Y-103425676D01*
X191600676Y-103223713D01*
X191838167Y-103065027D01*
X192102053Y-102955722D01*
X192382186Y-102900000D01*
X192667814Y-102900000D01*
X192947947Y-102955722D01*
X192947947Y-102955722D01*
G37*
G36*
X101420857Y-100848272D02*
X101621042Y-100931191D01*
X101801213Y-101051578D01*
X101954422Y-101204787D01*
X102074809Y-101384958D01*
X102157728Y-101585143D01*
X102200000Y-101797658D01*
X102200000Y-102014342D01*
X102157728Y-102226857D01*
X102074809Y-102427042D01*
X101954422Y-102607213D01*
X101801213Y-102760422D01*
X101621042Y-102880809D01*
X101420857Y-102963728D01*
X101208342Y-103006000D01*
X100991658Y-103006000D01*
X100779143Y-102963728D01*
X100578958Y-102880809D01*
X100398787Y-102760422D01*
X100245578Y-102607213D01*
X100125191Y-102427042D01*
X100042272Y-102226857D01*
X100000000Y-102014342D01*
X100000000Y-101797658D01*
X100042272Y-101585143D01*
X100125191Y-101384958D01*
X100245578Y-101204787D01*
X100398787Y-101051578D01*
X100578958Y-100931191D01*
X100779143Y-100848272D01*
X100991658Y-100806000D01*
X101208342Y-100806000D01*
X101420857Y-100848272D01*
X101420857Y-100848272D01*
G37*
G36*
X94544000Y-101200000D02*
X92144000Y-101200000D01*
X92144000Y-98800000D01*
X94544000Y-98800000D01*
X94544000Y-101200000D01*
X94544000Y-101200000D01*
G37*
G36*
X142902947Y-97955722D02*
X143166833Y-98065027D01*
X143404324Y-98223713D01*
X143606287Y-98425676D01*
X143764973Y-98663167D01*
X143874278Y-98927053D01*
X143930000Y-99207186D01*
X143930000Y-99492814D01*
X143874278Y-99772947D01*
X143764973Y-100036833D01*
X143606287Y-100274324D01*
X143404324Y-100476287D01*
X143166833Y-100634973D01*
X142902947Y-100744278D01*
X142622814Y-100800000D01*
X142337186Y-100800000D01*
X142057053Y-100744278D01*
X141793167Y-100634973D01*
X141555676Y-100476287D01*
X141353713Y-100274324D01*
X141195027Y-100036833D01*
X141085722Y-99772947D01*
X141030000Y-99492814D01*
X141030000Y-99207186D01*
X141085722Y-98927053D01*
X141195027Y-98663167D01*
X141353713Y-98425676D01*
X141555676Y-98223713D01*
X141793167Y-98065027D01*
X142057053Y-97955722D01*
X142337186Y-97900000D01*
X142622814Y-97900000D01*
X142902947Y-97955722D01*
X142902947Y-97955722D01*
G37*
G36*
X126392947Y-97955722D02*
X126656833Y-98065027D01*
X126894324Y-98223713D01*
X127096287Y-98425676D01*
X127254973Y-98663167D01*
X127364278Y-98927053D01*
X127420000Y-99207186D01*
X127420000Y-99492814D01*
X127364278Y-99772947D01*
X127254973Y-100036833D01*
X127096287Y-100274324D01*
X126894324Y-100476287D01*
X126656833Y-100634973D01*
X126392947Y-100744278D01*
X126112814Y-100800000D01*
X125827186Y-100800000D01*
X125547053Y-100744278D01*
X125283167Y-100634973D01*
X125045676Y-100476287D01*
X124843713Y-100274324D01*
X124685027Y-100036833D01*
X124575722Y-99772947D01*
X124520000Y-99492814D01*
X124520000Y-99207186D01*
X124575722Y-98927053D01*
X124685027Y-98663167D01*
X124843713Y-98425676D01*
X125045676Y-98223713D01*
X125283167Y-98065027D01*
X125547053Y-97955722D01*
X125827186Y-97900000D01*
X126112814Y-97900000D01*
X126392947Y-97955722D01*
X126392947Y-97955722D01*
G37*
G36*
X133892947Y-97955722D02*
X134156833Y-98065027D01*
X134394324Y-98223713D01*
X134596287Y-98425676D01*
X134754973Y-98663167D01*
X134864278Y-98927053D01*
X134920000Y-99207186D01*
X134920000Y-99492814D01*
X134864278Y-99772947D01*
X134754973Y-100036833D01*
X134596287Y-100274324D01*
X134394324Y-100476287D01*
X134156833Y-100634973D01*
X133892947Y-100744278D01*
X133612814Y-100800000D01*
X133327186Y-100800000D01*
X133047053Y-100744278D01*
X132783167Y-100634973D01*
X132545676Y-100476287D01*
X132343713Y-100274324D01*
X132185027Y-100036833D01*
X132075722Y-99772947D01*
X132020000Y-99492814D01*
X132020000Y-99207186D01*
X132075722Y-98927053D01*
X132185027Y-98663167D01*
X132343713Y-98425676D01*
X132545676Y-98223713D01*
X132783167Y-98065027D01*
X133047053Y-97955722D01*
X133327186Y-97900000D01*
X133612814Y-97900000D01*
X133892947Y-97955722D01*
X133892947Y-97955722D01*
G37*
G36*
X200447947Y-97955722D02*
X200711833Y-98065027D01*
X200949324Y-98223713D01*
X201151287Y-98425676D01*
X201309973Y-98663167D01*
X201419278Y-98927053D01*
X201475000Y-99207186D01*
X201475000Y-99492814D01*
X201419278Y-99772947D01*
X201309973Y-100036833D01*
X201151287Y-100274324D01*
X200949324Y-100476287D01*
X200711833Y-100634973D01*
X200447947Y-100744278D01*
X200167814Y-100800000D01*
X199882186Y-100800000D01*
X199602053Y-100744278D01*
X199338167Y-100634973D01*
X199100676Y-100476287D01*
X198898713Y-100274324D01*
X198740027Y-100036833D01*
X198630722Y-99772947D01*
X198575000Y-99492814D01*
X198575000Y-99207186D01*
X198630722Y-98927053D01*
X198740027Y-98663167D01*
X198898713Y-98425676D01*
X199100676Y-98223713D01*
X199338167Y-98065027D01*
X199602053Y-97955722D01*
X199882186Y-97900000D01*
X200167814Y-97900000D01*
X200447947Y-97955722D01*
X200447947Y-97955722D01*
G37*
G36*
X150402947Y-97955722D02*
X150666833Y-98065027D01*
X150904324Y-98223713D01*
X151106287Y-98425676D01*
X151264973Y-98663167D01*
X151374278Y-98927053D01*
X151430000Y-99207186D01*
X151430000Y-99492814D01*
X151374278Y-99772947D01*
X151264973Y-100036833D01*
X151106287Y-100274324D01*
X150904324Y-100476287D01*
X150666833Y-100634973D01*
X150402947Y-100744278D01*
X150122814Y-100800000D01*
X149837186Y-100800000D01*
X149557053Y-100744278D01*
X149293167Y-100634973D01*
X149055676Y-100476287D01*
X148853713Y-100274324D01*
X148695027Y-100036833D01*
X148585722Y-99772947D01*
X148530000Y-99492814D01*
X148530000Y-99207186D01*
X148585722Y-98927053D01*
X148695027Y-98663167D01*
X148853713Y-98425676D01*
X149055676Y-98223713D01*
X149293167Y-98065027D01*
X149557053Y-97955722D01*
X149837186Y-97900000D01*
X150122814Y-97900000D01*
X150402947Y-97955722D01*
X150402947Y-97955722D01*
G37*
G36*
X159412947Y-97955722D02*
X159676833Y-98065027D01*
X159914324Y-98223713D01*
X160116287Y-98425676D01*
X160274973Y-98663167D01*
X160384278Y-98927053D01*
X160440000Y-99207186D01*
X160440000Y-99492814D01*
X160384278Y-99772947D01*
X160274973Y-100036833D01*
X160116287Y-100274324D01*
X159914324Y-100476287D01*
X159676833Y-100634973D01*
X159412947Y-100744278D01*
X159132814Y-100800000D01*
X158847186Y-100800000D01*
X158567053Y-100744278D01*
X158303167Y-100634973D01*
X158065676Y-100476287D01*
X157863713Y-100274324D01*
X157705027Y-100036833D01*
X157595722Y-99772947D01*
X157540000Y-99492814D01*
X157540000Y-99207186D01*
X157595722Y-98927053D01*
X157705027Y-98663167D01*
X157863713Y-98425676D01*
X158065676Y-98223713D01*
X158303167Y-98065027D01*
X158567053Y-97955722D01*
X158847186Y-97900000D01*
X159132814Y-97900000D01*
X159412947Y-97955722D01*
X159412947Y-97955722D01*
G37*
G36*
X109882947Y-97955722D02*
X110146833Y-98065027D01*
X110384324Y-98223713D01*
X110586287Y-98425676D01*
X110744973Y-98663167D01*
X110854278Y-98927053D01*
X110910000Y-99207186D01*
X110910000Y-99492814D01*
X110854278Y-99772947D01*
X110744973Y-100036833D01*
X110586287Y-100274324D01*
X110384324Y-100476287D01*
X110146833Y-100634973D01*
X109882947Y-100744278D01*
X109602814Y-100800000D01*
X109317186Y-100800000D01*
X109037053Y-100744278D01*
X108773167Y-100634973D01*
X108535676Y-100476287D01*
X108333713Y-100274324D01*
X108175027Y-100036833D01*
X108065722Y-99772947D01*
X108010000Y-99492814D01*
X108010000Y-99207186D01*
X108065722Y-98927053D01*
X108175027Y-98663167D01*
X108333713Y-98425676D01*
X108535676Y-98223713D01*
X108773167Y-98065027D01*
X109037053Y-97955722D01*
X109317186Y-97900000D01*
X109602814Y-97900000D01*
X109882947Y-97955722D01*
X109882947Y-97955722D01*
G37*
G36*
X192947947Y-97955722D02*
X193211833Y-98065027D01*
X193449324Y-98223713D01*
X193651287Y-98425676D01*
X193809973Y-98663167D01*
X193919278Y-98927053D01*
X193975000Y-99207186D01*
X193975000Y-99492814D01*
X193919278Y-99772947D01*
X193809973Y-100036833D01*
X193651287Y-100274324D01*
X193449324Y-100476287D01*
X193211833Y-100634973D01*
X192947947Y-100744278D01*
X192667814Y-100800000D01*
X192382186Y-100800000D01*
X192102053Y-100744278D01*
X191838167Y-100634973D01*
X191600676Y-100476287D01*
X191398713Y-100274324D01*
X191240027Y-100036833D01*
X191130722Y-99772947D01*
X191075000Y-99492814D01*
X191075000Y-99207186D01*
X191130722Y-98927053D01*
X191240027Y-98663167D01*
X191398713Y-98425676D01*
X191600676Y-98223713D01*
X191838167Y-98065027D01*
X192102053Y-97955722D01*
X192382186Y-97900000D01*
X192667814Y-97900000D01*
X192947947Y-97955722D01*
X192947947Y-97955722D01*
G37*
G36*
X117382947Y-97955722D02*
X117646833Y-98065027D01*
X117884324Y-98223713D01*
X118086287Y-98425676D01*
X118244973Y-98663167D01*
X118354278Y-98927053D01*
X118410000Y-99207186D01*
X118410000Y-99492814D01*
X118354278Y-99772947D01*
X118244973Y-100036833D01*
X118086287Y-100274324D01*
X117884324Y-100476287D01*
X117646833Y-100634973D01*
X117382947Y-100744278D01*
X117102814Y-100800000D01*
X116817186Y-100800000D01*
X116537053Y-100744278D01*
X116273167Y-100634973D01*
X116035676Y-100476287D01*
X115833713Y-100274324D01*
X115675027Y-100036833D01*
X115565722Y-99772947D01*
X115510000Y-99492814D01*
X115510000Y-99207186D01*
X115565722Y-98927053D01*
X115675027Y-98663167D01*
X115833713Y-98425676D01*
X116035676Y-98223713D01*
X116273167Y-98065027D01*
X116537053Y-97955722D01*
X116817186Y-97900000D01*
X117102814Y-97900000D01*
X117382947Y-97955722D01*
X117382947Y-97955722D01*
G37*
G36*
X176176947Y-97955722D02*
X176440833Y-98065027D01*
X176678324Y-98223713D01*
X176880287Y-98425676D01*
X177038973Y-98663167D01*
X177148278Y-98927053D01*
X177204000Y-99207186D01*
X177204000Y-99492814D01*
X177148278Y-99772947D01*
X177038973Y-100036833D01*
X176880287Y-100274324D01*
X176678324Y-100476287D01*
X176440833Y-100634973D01*
X176176947Y-100744278D01*
X175896814Y-100800000D01*
X175611186Y-100800000D01*
X175331053Y-100744278D01*
X175067167Y-100634973D01*
X174829676Y-100476287D01*
X174627713Y-100274324D01*
X174469027Y-100036833D01*
X174359722Y-99772947D01*
X174304000Y-99492814D01*
X174304000Y-99207186D01*
X174359722Y-98927053D01*
X174469027Y-98663167D01*
X174627713Y-98425676D01*
X174829676Y-98223713D01*
X175067167Y-98065027D01*
X175331053Y-97955722D01*
X175611186Y-97900000D01*
X175896814Y-97900000D01*
X176176947Y-97955722D01*
X176176947Y-97955722D01*
G37*
G36*
X183676947Y-97955722D02*
X183940833Y-98065027D01*
X184178324Y-98223713D01*
X184380287Y-98425676D01*
X184538973Y-98663167D01*
X184648278Y-98927053D01*
X184704000Y-99207186D01*
X184704000Y-99492814D01*
X184648278Y-99772947D01*
X184538973Y-100036833D01*
X184380287Y-100274324D01*
X184178324Y-100476287D01*
X183940833Y-100634973D01*
X183676947Y-100744278D01*
X183396814Y-100800000D01*
X183111186Y-100800000D01*
X182831053Y-100744278D01*
X182567167Y-100634973D01*
X182329676Y-100476287D01*
X182127713Y-100274324D01*
X181969027Y-100036833D01*
X181859722Y-99772947D01*
X181804000Y-99492814D01*
X181804000Y-99207186D01*
X181859722Y-98927053D01*
X181969027Y-98663167D01*
X182127713Y-98425676D01*
X182329676Y-98223713D01*
X182567167Y-98065027D01*
X182831053Y-97955722D01*
X183111186Y-97900000D01*
X183396814Y-97900000D01*
X183676947Y-97955722D01*
X183676947Y-97955722D01*
G37*
G36*
X166912947Y-97955722D02*
X167176833Y-98065027D01*
X167414324Y-98223713D01*
X167616287Y-98425676D01*
X167774973Y-98663167D01*
X167884278Y-98927053D01*
X167940000Y-99207186D01*
X167940000Y-99492814D01*
X167884278Y-99772947D01*
X167774973Y-100036833D01*
X167616287Y-100274324D01*
X167414324Y-100476287D01*
X167176833Y-100634973D01*
X166912947Y-100744278D01*
X166632814Y-100800000D01*
X166347186Y-100800000D01*
X166067053Y-100744278D01*
X165803167Y-100634973D01*
X165565676Y-100476287D01*
X165363713Y-100274324D01*
X165205027Y-100036833D01*
X165095722Y-99772947D01*
X165040000Y-99492814D01*
X165040000Y-99207186D01*
X165095722Y-98927053D01*
X165205027Y-98663167D01*
X165363713Y-98425676D01*
X165565676Y-98223713D01*
X165803167Y-98065027D01*
X166067053Y-97955722D01*
X166347186Y-97900000D01*
X166632814Y-97900000D01*
X166912947Y-97955722D01*
X166912947Y-97955722D01*
G37*
G36*
X228021159Y-95635399D02*
X228187658Y-95651798D01*
X228401292Y-95716603D01*
X228508110Y-95749006D01*
X228803441Y-95906864D01*
X229062298Y-96119302D01*
X229274736Y-96378159D01*
X229432594Y-96673490D01*
X229432594Y-96673491D01*
X229529802Y-96993942D01*
X229562625Y-97327200D01*
X229529802Y-97660458D01*
X229464997Y-97874092D01*
X229432594Y-97980910D01*
X229274736Y-98276241D01*
X229062298Y-98535098D01*
X228803441Y-98747536D01*
X228508110Y-98905394D01*
X228436716Y-98927051D01*
X228187658Y-99002602D01*
X228021159Y-99019001D01*
X227937911Y-99027200D01*
X226770889Y-99027200D01*
X226687641Y-99019001D01*
X226521142Y-99002602D01*
X226272084Y-98927051D01*
X226200690Y-98905394D01*
X225905359Y-98747536D01*
X225646502Y-98535098D01*
X225434064Y-98276241D01*
X225276206Y-97980910D01*
X225243803Y-97874092D01*
X225178998Y-97660458D01*
X225146175Y-97327200D01*
X225178998Y-96993942D01*
X225276206Y-96673491D01*
X225276206Y-96673490D01*
X225434064Y-96378159D01*
X225646502Y-96119302D01*
X225905359Y-95906864D01*
X226200690Y-95749006D01*
X226307508Y-95716603D01*
X226521142Y-95651798D01*
X226687641Y-95635399D01*
X226770889Y-95627200D01*
X227937911Y-95627200D01*
X228021159Y-95635399D01*
X228021159Y-95635399D01*
G37*
G36*
X93694026Y-93766115D02*
X93912412Y-93856573D01*
X94108958Y-93987901D01*
X94276099Y-94155042D01*
X94407427Y-94351588D01*
X94497885Y-94569974D01*
X94544000Y-94801809D01*
X94544000Y-95038191D01*
X94497885Y-95270026D01*
X94407427Y-95488412D01*
X94276099Y-95684958D01*
X94108958Y-95852099D01*
X93912412Y-95983427D01*
X93694026Y-96073885D01*
X93462191Y-96120000D01*
X93225809Y-96120000D01*
X92993974Y-96073885D01*
X92775588Y-95983427D01*
X92579042Y-95852099D01*
X92411901Y-95684958D01*
X92280573Y-95488412D01*
X92190115Y-95270026D01*
X92144000Y-95038191D01*
X92144000Y-94801809D01*
X92190115Y-94569974D01*
X92280573Y-94351588D01*
X92411901Y-94155042D01*
X92579042Y-93987901D01*
X92775588Y-93856573D01*
X92993974Y-93766115D01*
X93225809Y-93720000D01*
X93462191Y-93720000D01*
X93694026Y-93766115D01*
X93694026Y-93766115D01*
G37*
G36*
X104320857Y-93348272D02*
X104521042Y-93431191D01*
X104701213Y-93551578D01*
X104854422Y-93704787D01*
X104974809Y-93884958D01*
X105057728Y-94085143D01*
X105100000Y-94297658D01*
X105100000Y-94514342D01*
X105057728Y-94726857D01*
X104974809Y-94927042D01*
X104854422Y-95107213D01*
X104701213Y-95260422D01*
X104701210Y-95260424D01*
X104701209Y-95260425D01*
X104521045Y-95380807D01*
X104521042Y-95380809D01*
X104320857Y-95463728D01*
X104108342Y-95506000D01*
X103891658Y-95506000D01*
X103679143Y-95463728D01*
X103478958Y-95380809D01*
X103478955Y-95380807D01*
X103298791Y-95260425D01*
X103298790Y-95260424D01*
X103298787Y-95260422D01*
X103145578Y-95107213D01*
X103025191Y-94927042D01*
X102942272Y-94726857D01*
X102900000Y-94514342D01*
X102900000Y-94297658D01*
X102942272Y-94085143D01*
X103025191Y-93884958D01*
X103145578Y-93704787D01*
X103298787Y-93551578D01*
X103478958Y-93431191D01*
X103679143Y-93348272D01*
X103891658Y-93306000D01*
X104108342Y-93306000D01*
X104320857Y-93348272D01*
X104320857Y-93348272D01*
G37*
G36*
X228021159Y-86135399D02*
X228187658Y-86151798D01*
X228401292Y-86216603D01*
X228508110Y-86249006D01*
X228803441Y-86406864D01*
X229062298Y-86619302D01*
X229274736Y-86878159D01*
X229432594Y-87173490D01*
X229432594Y-87173491D01*
X229529802Y-87493942D01*
X229562625Y-87827200D01*
X229529802Y-88160458D01*
X229464997Y-88374092D01*
X229432594Y-88480910D01*
X229274736Y-88776241D01*
X229062298Y-89035098D01*
X228803441Y-89247536D01*
X228508110Y-89405394D01*
X228401292Y-89437797D01*
X228187658Y-89502602D01*
X228021159Y-89519001D01*
X227937911Y-89527200D01*
X226770889Y-89527200D01*
X226687641Y-89519001D01*
X226521142Y-89502602D01*
X226307508Y-89437797D01*
X226200690Y-89405394D01*
X225905359Y-89247536D01*
X225646502Y-89035098D01*
X225434064Y-88776241D01*
X225276206Y-88480910D01*
X225243803Y-88374092D01*
X225178998Y-88160458D01*
X225146175Y-87827200D01*
X225178998Y-87493942D01*
X225276206Y-87173491D01*
X225276206Y-87173490D01*
X225434064Y-86878159D01*
X225646502Y-86619302D01*
X225905359Y-86406864D01*
X226200690Y-86249006D01*
X226307508Y-86216603D01*
X226521142Y-86151798D01*
X226687641Y-86135399D01*
X226770889Y-86127200D01*
X227937911Y-86127200D01*
X228021159Y-86135399D01*
X228021159Y-86135399D01*
G37*
G36*
X60409122Y-83246115D02*
X60525041Y-83269173D01*
X60852620Y-83404861D01*
X61143511Y-83599228D01*
X61147436Y-83601851D01*
X61398149Y-83852564D01*
X61595140Y-84147382D01*
X61730827Y-84474960D01*
X61800000Y-84822714D01*
X61800000Y-85177286D01*
X61730827Y-85525040D01*
X61595140Y-85852618D01*
X61398149Y-86147436D01*
X61147436Y-86398149D01*
X61147433Y-86398151D01*
X60852620Y-86595139D01*
X60525041Y-86730827D01*
X60409122Y-86753885D01*
X60177286Y-86800000D01*
X59822714Y-86800000D01*
X59590878Y-86753885D01*
X59474959Y-86730827D01*
X59147380Y-86595139D01*
X58852567Y-86398151D01*
X58852564Y-86398149D01*
X58601851Y-86147436D01*
X58404860Y-85852618D01*
X58269173Y-85525040D01*
X58200000Y-85177286D01*
X58200000Y-84822714D01*
X58269173Y-84474960D01*
X58404860Y-84147382D01*
X58601851Y-83852564D01*
X58852564Y-83601851D01*
X58856489Y-83599228D01*
X59147380Y-83404861D01*
X59474959Y-83269173D01*
X59590878Y-83246115D01*
X59822714Y-83200000D01*
X60177286Y-83200000D01*
X60409122Y-83246115D01*
X60409122Y-83246115D01*
G37*
G36*
X236409122Y-83246115D02*
X236525041Y-83269173D01*
X236852620Y-83404861D01*
X237143511Y-83599228D01*
X237147436Y-83601851D01*
X237398149Y-83852564D01*
X237595140Y-84147382D01*
X237730827Y-84474960D01*
X237800000Y-84822714D01*
X237800000Y-85177286D01*
X237730827Y-85525040D01*
X237595140Y-85852618D01*
X237398149Y-86147436D01*
X237147436Y-86398149D01*
X237147433Y-86398151D01*
X236852620Y-86595139D01*
X236525041Y-86730827D01*
X236409122Y-86753885D01*
X236177286Y-86800000D01*
X235822714Y-86800000D01*
X235590878Y-86753885D01*
X235474959Y-86730827D01*
X235147380Y-86595139D01*
X234852567Y-86398151D01*
X234852564Y-86398149D01*
X234601851Y-86147436D01*
X234404860Y-85852618D01*
X234269173Y-85525040D01*
X234200000Y-85177286D01*
X234200000Y-84822714D01*
X234269173Y-84474960D01*
X234404860Y-84147382D01*
X234601851Y-83852564D01*
X234852564Y-83601851D01*
X234856489Y-83599228D01*
X235147380Y-83404861D01*
X235474959Y-83269173D01*
X235590878Y-83246115D01*
X235822714Y-83200000D01*
X236177286Y-83200000D01*
X236409122Y-83246115D01*
X236409122Y-83246115D01*
G37*
G36*
X228021159Y-79135399D02*
X228187658Y-79151798D01*
X228401292Y-79216603D01*
X228508110Y-79249006D01*
X228803441Y-79406864D01*
X229062298Y-79619302D01*
X229274736Y-79878159D01*
X229432594Y-80173490D01*
X229432594Y-80173491D01*
X229529802Y-80493942D01*
X229562625Y-80827200D01*
X229529802Y-81160458D01*
X229464997Y-81374092D01*
X229432594Y-81480910D01*
X229274736Y-81776241D01*
X229062298Y-82035098D01*
X228803441Y-82247536D01*
X228508110Y-82405394D01*
X228401292Y-82437797D01*
X228187658Y-82502602D01*
X228021159Y-82519001D01*
X227937911Y-82527200D01*
X226770889Y-82527200D01*
X226687641Y-82519001D01*
X226521142Y-82502602D01*
X226307508Y-82437797D01*
X226200690Y-82405394D01*
X225905359Y-82247536D01*
X225646502Y-82035098D01*
X225434064Y-81776241D01*
X225276206Y-81480910D01*
X225243803Y-81374092D01*
X225178998Y-81160458D01*
X225146175Y-80827200D01*
X225178998Y-80493942D01*
X225276206Y-80173491D01*
X225276206Y-80173490D01*
X225434064Y-79878159D01*
X225646502Y-79619302D01*
X225905359Y-79406864D01*
X226200690Y-79249006D01*
X226307508Y-79216603D01*
X226521142Y-79151798D01*
X226687641Y-79135399D01*
X226770889Y-79127200D01*
X227937911Y-79127200D01*
X228021159Y-79135399D01*
X228021159Y-79135399D01*
G37*
G36*
X126392947Y-77955722D02*
X126656833Y-78065027D01*
X126894324Y-78223713D01*
X127096287Y-78425676D01*
X127254973Y-78663167D01*
X127364278Y-78927053D01*
X127420000Y-79207186D01*
X127420000Y-79492814D01*
X127364278Y-79772947D01*
X127254973Y-80036833D01*
X127096287Y-80274324D01*
X126894324Y-80476287D01*
X126656833Y-80634973D01*
X126392947Y-80744278D01*
X126112814Y-80800000D01*
X125827186Y-80800000D01*
X125547053Y-80744278D01*
X125283167Y-80634973D01*
X125045676Y-80476287D01*
X124843713Y-80274324D01*
X124685027Y-80036833D01*
X124575722Y-79772947D01*
X124520000Y-79492814D01*
X124520000Y-79207186D01*
X124575722Y-78927053D01*
X124685027Y-78663167D01*
X124843713Y-78425676D01*
X125045676Y-78223713D01*
X125283167Y-78065027D01*
X125547053Y-77955722D01*
X125827186Y-77900000D01*
X126112814Y-77900000D01*
X126392947Y-77955722D01*
X126392947Y-77955722D01*
G37*
G36*
X176176947Y-77955722D02*
X176440833Y-78065027D01*
X176678324Y-78223713D01*
X176880287Y-78425676D01*
X177038973Y-78663167D01*
X177148278Y-78927053D01*
X177204000Y-79207186D01*
X177204000Y-79492814D01*
X177148278Y-79772947D01*
X177038973Y-80036833D01*
X176880287Y-80274324D01*
X176678324Y-80476287D01*
X176440833Y-80634973D01*
X176176947Y-80744278D01*
X175896814Y-80800000D01*
X175611186Y-80800000D01*
X175331053Y-80744278D01*
X175067167Y-80634973D01*
X174829676Y-80476287D01*
X174627713Y-80274324D01*
X174469027Y-80036833D01*
X174359722Y-79772947D01*
X174304000Y-79492814D01*
X174304000Y-79207186D01*
X174359722Y-78927053D01*
X174469027Y-78663167D01*
X174627713Y-78425676D01*
X174829676Y-78223713D01*
X175067167Y-78065027D01*
X175331053Y-77955722D01*
X175611186Y-77900000D01*
X175896814Y-77900000D01*
X176176947Y-77955722D01*
X176176947Y-77955722D01*
G37*
G36*
X133892947Y-77955722D02*
X134156833Y-78065027D01*
X134394324Y-78223713D01*
X134596287Y-78425676D01*
X134754973Y-78663167D01*
X134864278Y-78927053D01*
X134920000Y-79207186D01*
X134920000Y-79492814D01*
X134864278Y-79772947D01*
X134754973Y-80036833D01*
X134596287Y-80274324D01*
X134394324Y-80476287D01*
X134156833Y-80634973D01*
X133892947Y-80744278D01*
X133612814Y-80800000D01*
X133327186Y-80800000D01*
X133047053Y-80744278D01*
X132783167Y-80634973D01*
X132545676Y-80476287D01*
X132343713Y-80274324D01*
X132185027Y-80036833D01*
X132075722Y-79772947D01*
X132020000Y-79492814D01*
X132020000Y-79207186D01*
X132075722Y-78927053D01*
X132185027Y-78663167D01*
X132343713Y-78425676D01*
X132545676Y-78223713D01*
X132783167Y-78065027D01*
X133047053Y-77955722D01*
X133327186Y-77900000D01*
X133612814Y-77900000D01*
X133892947Y-77955722D01*
X133892947Y-77955722D01*
G37*
G36*
X142902947Y-77955722D02*
X143166833Y-78065027D01*
X143404324Y-78223713D01*
X143606287Y-78425676D01*
X143764973Y-78663167D01*
X143874278Y-78927053D01*
X143930000Y-79207186D01*
X143930000Y-79492814D01*
X143874278Y-79772947D01*
X143764973Y-80036833D01*
X143606287Y-80274324D01*
X143404324Y-80476287D01*
X143166833Y-80634973D01*
X142902947Y-80744278D01*
X142622814Y-80800000D01*
X142337186Y-80800000D01*
X142057053Y-80744278D01*
X141793167Y-80634973D01*
X141555676Y-80476287D01*
X141353713Y-80274324D01*
X141195027Y-80036833D01*
X141085722Y-79772947D01*
X141030000Y-79492814D01*
X141030000Y-79207186D01*
X141085722Y-78927053D01*
X141195027Y-78663167D01*
X141353713Y-78425676D01*
X141555676Y-78223713D01*
X141793167Y-78065027D01*
X142057053Y-77955722D01*
X142337186Y-77900000D01*
X142622814Y-77900000D01*
X142902947Y-77955722D01*
X142902947Y-77955722D01*
G37*
G36*
X150402947Y-77955722D02*
X150666833Y-78065027D01*
X150904324Y-78223713D01*
X151106287Y-78425676D01*
X151264973Y-78663167D01*
X151374278Y-78927053D01*
X151430000Y-79207186D01*
X151430000Y-79492814D01*
X151374278Y-79772947D01*
X151264973Y-80036833D01*
X151106287Y-80274324D01*
X150904324Y-80476287D01*
X150666833Y-80634973D01*
X150402947Y-80744278D01*
X150122814Y-80800000D01*
X149837186Y-80800000D01*
X149557053Y-80744278D01*
X149293167Y-80634973D01*
X149055676Y-80476287D01*
X148853713Y-80274324D01*
X148695027Y-80036833D01*
X148585722Y-79772947D01*
X148530000Y-79492814D01*
X148530000Y-79207186D01*
X148585722Y-78927053D01*
X148695027Y-78663167D01*
X148853713Y-78425676D01*
X149055676Y-78223713D01*
X149293167Y-78065027D01*
X149557053Y-77955722D01*
X149837186Y-77900000D01*
X150122814Y-77900000D01*
X150402947Y-77955722D01*
X150402947Y-77955722D01*
G37*
G36*
X159412947Y-77955722D02*
X159676833Y-78065027D01*
X159914324Y-78223713D01*
X160116287Y-78425676D01*
X160274973Y-78663167D01*
X160384278Y-78927053D01*
X160440000Y-79207186D01*
X160440000Y-79492814D01*
X160384278Y-79772947D01*
X160274973Y-80036833D01*
X160116287Y-80274324D01*
X159914324Y-80476287D01*
X159676833Y-80634973D01*
X159412947Y-80744278D01*
X159132814Y-80800000D01*
X158847186Y-80800000D01*
X158567053Y-80744278D01*
X158303167Y-80634973D01*
X158065676Y-80476287D01*
X157863713Y-80274324D01*
X157705027Y-80036833D01*
X157595722Y-79772947D01*
X157540000Y-79492814D01*
X157540000Y-79207186D01*
X157595722Y-78927053D01*
X157705027Y-78663167D01*
X157863713Y-78425676D01*
X158065676Y-78223713D01*
X158303167Y-78065027D01*
X158567053Y-77955722D01*
X158847186Y-77900000D01*
X159132814Y-77900000D01*
X159412947Y-77955722D01*
X159412947Y-77955722D01*
G37*
G36*
X117382947Y-77955722D02*
X117646833Y-78065027D01*
X117884324Y-78223713D01*
X118086287Y-78425676D01*
X118244973Y-78663167D01*
X118354278Y-78927053D01*
X118410000Y-79207186D01*
X118410000Y-79492814D01*
X118354278Y-79772947D01*
X118244973Y-80036833D01*
X118086287Y-80274324D01*
X117884324Y-80476287D01*
X117646833Y-80634973D01*
X117382947Y-80744278D01*
X117102814Y-80800000D01*
X116817186Y-80800000D01*
X116537053Y-80744278D01*
X116273167Y-80634973D01*
X116035676Y-80476287D01*
X115833713Y-80274324D01*
X115675027Y-80036833D01*
X115565722Y-79772947D01*
X115510000Y-79492814D01*
X115510000Y-79207186D01*
X115565722Y-78927053D01*
X115675027Y-78663167D01*
X115833713Y-78425676D01*
X116035676Y-78223713D01*
X116273167Y-78065027D01*
X116537053Y-77955722D01*
X116817186Y-77900000D01*
X117102814Y-77900000D01*
X117382947Y-77955722D01*
X117382947Y-77955722D01*
G37*
G36*
X109882947Y-77955722D02*
X110146833Y-78065027D01*
X110384324Y-78223713D01*
X110586287Y-78425676D01*
X110744973Y-78663167D01*
X110854278Y-78927053D01*
X110910000Y-79207186D01*
X110910000Y-79492814D01*
X110854278Y-79772947D01*
X110744973Y-80036833D01*
X110586287Y-80274324D01*
X110384324Y-80476287D01*
X110146833Y-80634973D01*
X109882947Y-80744278D01*
X109602814Y-80800000D01*
X109317186Y-80800000D01*
X109037053Y-80744278D01*
X108773167Y-80634973D01*
X108535676Y-80476287D01*
X108333713Y-80274324D01*
X108175027Y-80036833D01*
X108065722Y-79772947D01*
X108010000Y-79492814D01*
X108010000Y-79207186D01*
X108065722Y-78927053D01*
X108175027Y-78663167D01*
X108333713Y-78425676D01*
X108535676Y-78223713D01*
X108773167Y-78065027D01*
X109037053Y-77955722D01*
X109317186Y-77900000D01*
X109602814Y-77900000D01*
X109882947Y-77955722D01*
X109882947Y-77955722D01*
G37*
G36*
X183676947Y-77955722D02*
X183940833Y-78065027D01*
X184178324Y-78223713D01*
X184380287Y-78425676D01*
X184538973Y-78663167D01*
X184648278Y-78927053D01*
X184704000Y-79207186D01*
X184704000Y-79492814D01*
X184648278Y-79772947D01*
X184538973Y-80036833D01*
X184380287Y-80274324D01*
X184178324Y-80476287D01*
X183940833Y-80634973D01*
X183676947Y-80744278D01*
X183396814Y-80800000D01*
X183111186Y-80800000D01*
X182831053Y-80744278D01*
X182567167Y-80634973D01*
X182329676Y-80476287D01*
X182127713Y-80274324D01*
X181969027Y-80036833D01*
X181859722Y-79772947D01*
X181804000Y-79492814D01*
X181804000Y-79207186D01*
X181859722Y-78927053D01*
X181969027Y-78663167D01*
X182127713Y-78425676D01*
X182329676Y-78223713D01*
X182567167Y-78065027D01*
X182831053Y-77955722D01*
X183111186Y-77900000D01*
X183396814Y-77900000D01*
X183676947Y-77955722D01*
X183676947Y-77955722D01*
G37*
G36*
X192947947Y-77955722D02*
X193211833Y-78065027D01*
X193449324Y-78223713D01*
X193651287Y-78425676D01*
X193809973Y-78663167D01*
X193919278Y-78927053D01*
X193975000Y-79207186D01*
X193975000Y-79492814D01*
X193919278Y-79772947D01*
X193809973Y-80036833D01*
X193651287Y-80274324D01*
X193449324Y-80476287D01*
X193211833Y-80634973D01*
X192947947Y-80744278D01*
X192667814Y-80800000D01*
X192382186Y-80800000D01*
X192102053Y-80744278D01*
X191838167Y-80634973D01*
X191600676Y-80476287D01*
X191398713Y-80274324D01*
X191240027Y-80036833D01*
X191130722Y-79772947D01*
X191075000Y-79492814D01*
X191075000Y-79207186D01*
X191130722Y-78927053D01*
X191240027Y-78663167D01*
X191398713Y-78425676D01*
X191600676Y-78223713D01*
X191838167Y-78065027D01*
X192102053Y-77955722D01*
X192382186Y-77900000D01*
X192667814Y-77900000D01*
X192947947Y-77955722D01*
X192947947Y-77955722D01*
G37*
G36*
X200447947Y-77955722D02*
X200711833Y-78065027D01*
X200949324Y-78223713D01*
X201151287Y-78425676D01*
X201309973Y-78663167D01*
X201419278Y-78927053D01*
X201475000Y-79207186D01*
X201475000Y-79492814D01*
X201419278Y-79772947D01*
X201309973Y-80036833D01*
X201151287Y-80274324D01*
X200949324Y-80476287D01*
X200711833Y-80634973D01*
X200447947Y-80744278D01*
X200167814Y-80800000D01*
X199882186Y-80800000D01*
X199602053Y-80744278D01*
X199338167Y-80634973D01*
X199100676Y-80476287D01*
X198898713Y-80274324D01*
X198740027Y-80036833D01*
X198630722Y-79772947D01*
X198575000Y-79492814D01*
X198575000Y-79207186D01*
X198630722Y-78927053D01*
X198740027Y-78663167D01*
X198898713Y-78425676D01*
X199100676Y-78223713D01*
X199338167Y-78065027D01*
X199602053Y-77955722D01*
X199882186Y-77900000D01*
X200167814Y-77900000D01*
X200447947Y-77955722D01*
X200447947Y-77955722D01*
G37*
G36*
X166912947Y-77955722D02*
X167176833Y-78065027D01*
X167414324Y-78223713D01*
X167616287Y-78425676D01*
X167774973Y-78663167D01*
X167884278Y-78927053D01*
X167940000Y-79207186D01*
X167940000Y-79492814D01*
X167884278Y-79772947D01*
X167774973Y-80036833D01*
X167616287Y-80274324D01*
X167414324Y-80476287D01*
X167176833Y-80634973D01*
X166912947Y-80744278D01*
X166632814Y-80800000D01*
X166347186Y-80800000D01*
X166067053Y-80744278D01*
X165803167Y-80634973D01*
X165565676Y-80476287D01*
X165363713Y-80274324D01*
X165205027Y-80036833D01*
X165095722Y-79772947D01*
X165040000Y-79492814D01*
X165040000Y-79207186D01*
X165095722Y-78927053D01*
X165205027Y-78663167D01*
X165363713Y-78425676D01*
X165565676Y-78223713D01*
X165803167Y-78065027D01*
X166067053Y-77955722D01*
X166347186Y-77900000D01*
X166632814Y-77900000D01*
X166912947Y-77955722D01*
X166912947Y-77955722D01*
G37*
G36*
X75914026Y-73446115D02*
X76132412Y-73536573D01*
X76328958Y-73667901D01*
X76496099Y-73835042D01*
X76627427Y-74031588D01*
X76717885Y-74249974D01*
X76764000Y-74481809D01*
X76764000Y-74718191D01*
X76717885Y-74950026D01*
X76627427Y-75168412D01*
X76496099Y-75364958D01*
X76328958Y-75532099D01*
X76132412Y-75663427D01*
X75914026Y-75753885D01*
X75682191Y-75800000D01*
X75445809Y-75800000D01*
X75213974Y-75753885D01*
X74995588Y-75663427D01*
X74799042Y-75532099D01*
X74631901Y-75364958D01*
X74500573Y-75168412D01*
X74410115Y-74950026D01*
X74364000Y-74718191D01*
X74364000Y-74481809D01*
X74410115Y-74249974D01*
X74500573Y-74031588D01*
X74631901Y-73835042D01*
X74799042Y-73667901D01*
X74995588Y-73536573D01*
X75213974Y-73446115D01*
X75445809Y-73400000D01*
X75682191Y-73400000D01*
X75914026Y-73446115D01*
X75914026Y-73446115D01*
G37*
G36*
X93694026Y-68366115D02*
X93912412Y-68456573D01*
X94108958Y-68587901D01*
X94276099Y-68755042D01*
X94407427Y-68951588D01*
X94497885Y-69169974D01*
X94544000Y-69401809D01*
X94544000Y-69638191D01*
X94497885Y-69870026D01*
X94407427Y-70088412D01*
X94276099Y-70284958D01*
X94108958Y-70452099D01*
X93912412Y-70583427D01*
X93694026Y-70673885D01*
X93462191Y-70720000D01*
X93225809Y-70720000D01*
X92993974Y-70673885D01*
X92775588Y-70583427D01*
X92579042Y-70452099D01*
X92411901Y-70284958D01*
X92280573Y-70088412D01*
X92190115Y-69870026D01*
X92144000Y-69638191D01*
X92144000Y-69401809D01*
X92190115Y-69169974D01*
X92280573Y-68951588D01*
X92411901Y-68755042D01*
X92579042Y-68587901D01*
X92775588Y-68456573D01*
X92993974Y-68366115D01*
X93225809Y-68320000D01*
X93462191Y-68320000D01*
X93694026Y-68366115D01*
X93694026Y-68366115D01*
G37*
G36*
X75914026Y-68366115D02*
X76132412Y-68456573D01*
X76328958Y-68587901D01*
X76496099Y-68755042D01*
X76627427Y-68951588D01*
X76717885Y-69169974D01*
X76764000Y-69401809D01*
X76764000Y-69638191D01*
X76717885Y-69870026D01*
X76627427Y-70088412D01*
X76496099Y-70284958D01*
X76328958Y-70452099D01*
X76132412Y-70583427D01*
X75914026Y-70673885D01*
X75682191Y-70720000D01*
X75445809Y-70720000D01*
X75213974Y-70673885D01*
X74995588Y-70583427D01*
X74799042Y-70452099D01*
X74631901Y-70284958D01*
X74500573Y-70088412D01*
X74410115Y-69870026D01*
X74364000Y-69638191D01*
X74364000Y-69401809D01*
X74410115Y-69169974D01*
X74500573Y-68951588D01*
X74631901Y-68755042D01*
X74799042Y-68587901D01*
X74995588Y-68456573D01*
X75213974Y-68366115D01*
X75445809Y-68320000D01*
X75682191Y-68320000D01*
X75914026Y-68366115D01*
X75914026Y-68366115D01*
G37*
G36*
X168370026Y-66842115D02*
X168588412Y-66932573D01*
X168784958Y-67063901D01*
X168952099Y-67231042D01*
X169083427Y-67427588D01*
X169173885Y-67645974D01*
X169220000Y-67877809D01*
X169220000Y-68114191D01*
X169173885Y-68346026D01*
X169083427Y-68564412D01*
X168952099Y-68760958D01*
X168784958Y-68928099D01*
X168588412Y-69059427D01*
X168370026Y-69149885D01*
X168138191Y-69196000D01*
X167901809Y-69196000D01*
X167669974Y-69149885D01*
X167451588Y-69059427D01*
X167255042Y-68928099D01*
X167087901Y-68760958D01*
X166956573Y-68564412D01*
X166866115Y-68346026D01*
X166820000Y-68114191D01*
X166820000Y-67877809D01*
X166866115Y-67645974D01*
X166956573Y-67427588D01*
X167087901Y-67231042D01*
X167255042Y-67063901D01*
X167451588Y-66932573D01*
X167669974Y-66842115D01*
X167901809Y-66796000D01*
X168138191Y-66796000D01*
X168370026Y-66842115D01*
X168370026Y-66842115D01*
G37*
G36*
X172434026Y-66842115D02*
X172652412Y-66932573D01*
X172848958Y-67063901D01*
X173016099Y-67231042D01*
X173147427Y-67427588D01*
X173237885Y-67645974D01*
X173284000Y-67877809D01*
X173284000Y-68114191D01*
X173237885Y-68346026D01*
X173147427Y-68564412D01*
X173016099Y-68760958D01*
X172848958Y-68928099D01*
X172652412Y-69059427D01*
X172434026Y-69149885D01*
X172202191Y-69196000D01*
X171965809Y-69196000D01*
X171733974Y-69149885D01*
X171515588Y-69059427D01*
X171319042Y-68928099D01*
X171151901Y-68760958D01*
X171020573Y-68564412D01*
X170930115Y-68346026D01*
X170884000Y-68114191D01*
X170884000Y-67877809D01*
X170930115Y-67645974D01*
X171020573Y-67427588D01*
X171151901Y-67231042D01*
X171319042Y-67063901D01*
X171515588Y-66932573D01*
X171733974Y-66842115D01*
X171965809Y-66796000D01*
X172202191Y-66796000D01*
X172434026Y-66842115D01*
X172434026Y-66842115D01*
G37*
G36*
X164306026Y-66842115D02*
X164524412Y-66932573D01*
X164720958Y-67063901D01*
X164888099Y-67231042D01*
X165019427Y-67427588D01*
X165109885Y-67645974D01*
X165156000Y-67877809D01*
X165156000Y-68114191D01*
X165109885Y-68346026D01*
X165019427Y-68564412D01*
X164888099Y-68760958D01*
X164720958Y-68928099D01*
X164524412Y-69059427D01*
X164306026Y-69149885D01*
X164074191Y-69196000D01*
X163837809Y-69196000D01*
X163605974Y-69149885D01*
X163387588Y-69059427D01*
X163191042Y-68928099D01*
X163023901Y-68760958D01*
X162892573Y-68564412D01*
X162802115Y-68346026D01*
X162756000Y-68114191D01*
X162756000Y-67877809D01*
X162802115Y-67645974D01*
X162892573Y-67427588D01*
X163023901Y-67231042D01*
X163191042Y-67063901D01*
X163387588Y-66932573D01*
X163605974Y-66842115D01*
X163837809Y-66796000D01*
X164074191Y-66796000D01*
X164306026Y-66842115D01*
X164306026Y-66842115D01*
G37*
G36*
X176498026Y-66831115D02*
X176716412Y-66921573D01*
X176912958Y-67052901D01*
X177080099Y-67220042D01*
X177211427Y-67416588D01*
X177301885Y-67634974D01*
X177348000Y-67866809D01*
X177348000Y-68103191D01*
X177301885Y-68335026D01*
X177211427Y-68553412D01*
X177080099Y-68749958D01*
X176912958Y-68917099D01*
X176716412Y-69048427D01*
X176498026Y-69138885D01*
X176266191Y-69185000D01*
X176029809Y-69185000D01*
X175797974Y-69138885D01*
X175579588Y-69048427D01*
X175383042Y-68917099D01*
X175215901Y-68749958D01*
X175084573Y-68553412D01*
X174994115Y-68335026D01*
X174948000Y-68103191D01*
X174948000Y-67866809D01*
X174994115Y-67634974D01*
X175084573Y-67416588D01*
X175215901Y-67220042D01*
X175383042Y-67052901D01*
X175579588Y-66921573D01*
X175797974Y-66831115D01*
X176029809Y-66785000D01*
X176266191Y-66785000D01*
X176498026Y-66831115D01*
X176498026Y-66831115D01*
G37*
G36*
X236409122Y-63246115D02*
X236525041Y-63269173D01*
X236852620Y-63404861D01*
X237117688Y-63581974D01*
X237147436Y-63601851D01*
X237398149Y-63852564D01*
X237398151Y-63852567D01*
X237530199Y-64050190D01*
X237595140Y-64147382D01*
X237730827Y-64474960D01*
X237800000Y-64822714D01*
X237800000Y-65177286D01*
X237730827Y-65525040D01*
X237595140Y-65852618D01*
X237398149Y-66147436D01*
X237147436Y-66398149D01*
X237147433Y-66398151D01*
X236852620Y-66595139D01*
X236525041Y-66730827D01*
X236409122Y-66753885D01*
X236177286Y-66800000D01*
X235822714Y-66800000D01*
X235590878Y-66753885D01*
X235474959Y-66730827D01*
X235147380Y-66595139D01*
X234852567Y-66398151D01*
X234852564Y-66398149D01*
X234601851Y-66147436D01*
X234404860Y-65852618D01*
X234269173Y-65525040D01*
X234200000Y-65177286D01*
X234200000Y-64822714D01*
X234269173Y-64474960D01*
X234404860Y-64147382D01*
X234469802Y-64050190D01*
X234601849Y-63852567D01*
X234601851Y-63852564D01*
X234852564Y-63601851D01*
X234882312Y-63581974D01*
X235147380Y-63404861D01*
X235474959Y-63269173D01*
X235590878Y-63246115D01*
X235822714Y-63200000D01*
X236177286Y-63200000D01*
X236409122Y-63246115D01*
X236409122Y-63246115D01*
G37*
G36*
X60409122Y-63246115D02*
X60525041Y-63269173D01*
X60852620Y-63404861D01*
X61117688Y-63581974D01*
X61147436Y-63601851D01*
X61398149Y-63852564D01*
X61398151Y-63852567D01*
X61530199Y-64050190D01*
X61595140Y-64147382D01*
X61730827Y-64474960D01*
X61800000Y-64822714D01*
X61800000Y-65177286D01*
X61730827Y-65525040D01*
X61595140Y-65852618D01*
X61398149Y-66147436D01*
X61147436Y-66398149D01*
X61147433Y-66398151D01*
X60852620Y-66595139D01*
X60525041Y-66730827D01*
X60409122Y-66753885D01*
X60177286Y-66800000D01*
X59822714Y-66800000D01*
X59590878Y-66753885D01*
X59474959Y-66730827D01*
X59147380Y-66595139D01*
X58852567Y-66398151D01*
X58852564Y-66398149D01*
X58601851Y-66147436D01*
X58404860Y-65852618D01*
X58269173Y-65525040D01*
X58200000Y-65177286D01*
X58200000Y-64822714D01*
X58269173Y-64474960D01*
X58404860Y-64147382D01*
X58469802Y-64050190D01*
X58601849Y-63852567D01*
X58601851Y-63852564D01*
X58852564Y-63601851D01*
X58882312Y-63581974D01*
X59147380Y-63404861D01*
X59474959Y-63269173D01*
X59590878Y-63246115D01*
X59822714Y-63200000D01*
X60177286Y-63200000D01*
X60409122Y-63246115D01*
X60409122Y-63246115D01*
G37*
G36*
X168370026Y-62778115D02*
X168588412Y-62868573D01*
X168784958Y-62999901D01*
X168952099Y-63167042D01*
X169083427Y-63363588D01*
X169173885Y-63581974D01*
X169220000Y-63813809D01*
X169220000Y-64050191D01*
X169173885Y-64282026D01*
X169083427Y-64500412D01*
X168952099Y-64696958D01*
X168784958Y-64864099D01*
X168588412Y-64995427D01*
X168370026Y-65085885D01*
X168138191Y-65132000D01*
X167901809Y-65132000D01*
X167669974Y-65085885D01*
X167451588Y-64995427D01*
X167255042Y-64864099D01*
X167087901Y-64696958D01*
X166956573Y-64500412D01*
X166866115Y-64282026D01*
X166820000Y-64050191D01*
X166820000Y-63813809D01*
X166866115Y-63581974D01*
X166956573Y-63363588D01*
X167087901Y-63167042D01*
X167255042Y-62999901D01*
X167451588Y-62868573D01*
X167669974Y-62778115D01*
X167901809Y-62732000D01*
X168138191Y-62732000D01*
X168370026Y-62778115D01*
X168370026Y-62778115D01*
G37*
G36*
X172434026Y-62778115D02*
X172652412Y-62868573D01*
X172848958Y-62999901D01*
X173016099Y-63167042D01*
X173147427Y-63363588D01*
X173237885Y-63581974D01*
X173284000Y-63813809D01*
X173284000Y-64050191D01*
X173237885Y-64282026D01*
X173147427Y-64500412D01*
X173016099Y-64696958D01*
X172848958Y-64864099D01*
X172652412Y-64995427D01*
X172434026Y-65085885D01*
X172202191Y-65132000D01*
X171965809Y-65132000D01*
X171733974Y-65085885D01*
X171515588Y-64995427D01*
X171319042Y-64864099D01*
X171151901Y-64696958D01*
X171020573Y-64500412D01*
X170930115Y-64282026D01*
X170884000Y-64050191D01*
X170884000Y-63813809D01*
X170930115Y-63581974D01*
X171020573Y-63363588D01*
X171151901Y-63167042D01*
X171319042Y-62999901D01*
X171515588Y-62868573D01*
X171733974Y-62778115D01*
X171965809Y-62732000D01*
X172202191Y-62732000D01*
X172434026Y-62778115D01*
X172434026Y-62778115D01*
G37*
G36*
X225137907Y-58198597D02*
X225215036Y-58206193D01*
X225346987Y-58246220D01*
X225412963Y-58266233D01*
X225595372Y-58363733D01*
X225755254Y-58494946D01*
X225886467Y-58654828D01*
X225983967Y-58837237D01*
X225983967Y-58837238D01*
X226044007Y-59035164D01*
X226064280Y-59241000D01*
X226044007Y-59446836D01*
X226003980Y-59578787D01*
X225983967Y-59644763D01*
X225886467Y-59827172D01*
X225755254Y-59987054D01*
X225595372Y-60118267D01*
X225412963Y-60215767D01*
X225346987Y-60235780D01*
X225215036Y-60275807D01*
X225137907Y-60283403D01*
X225060780Y-60291000D01*
X224957620Y-60291000D01*
X224880493Y-60283403D01*
X224803364Y-60275807D01*
X224671413Y-60235780D01*
X224605437Y-60215767D01*
X224423028Y-60118267D01*
X224263146Y-59987054D01*
X224131933Y-59827172D01*
X224034433Y-59644763D01*
X224014420Y-59578787D01*
X223974393Y-59446836D01*
X223954120Y-59241000D01*
X223974393Y-59035164D01*
X224034433Y-58837238D01*
X224034433Y-58837237D01*
X224131933Y-58654828D01*
X224263146Y-58494946D01*
X224423028Y-58363733D01*
X224605437Y-58266233D01*
X224671413Y-58246220D01*
X224803364Y-58206193D01*
X224880493Y-58198597D01*
X224957620Y-58191000D01*
X225060780Y-58191000D01*
X225137907Y-58198597D01*
X225137907Y-58198597D01*
G37*
G36*
X225137907Y-55658596D02*
X225215036Y-55666193D01*
X225346987Y-55706220D01*
X225412963Y-55726233D01*
X225595372Y-55823733D01*
X225755254Y-55954946D01*
X225886467Y-56114828D01*
X225983967Y-56297237D01*
X225983967Y-56297238D01*
X226044007Y-56495164D01*
X226064280Y-56701000D01*
X226044007Y-56906836D01*
X226003980Y-57038787D01*
X225983967Y-57104763D01*
X225886467Y-57287172D01*
X225755254Y-57447054D01*
X225595372Y-57578267D01*
X225412963Y-57675767D01*
X225346987Y-57695780D01*
X225215036Y-57735807D01*
X225137907Y-57743403D01*
X225060780Y-57751000D01*
X224957620Y-57751000D01*
X224880493Y-57743403D01*
X224803364Y-57735807D01*
X224671413Y-57695780D01*
X224605437Y-57675767D01*
X224423028Y-57578267D01*
X224263146Y-57447054D01*
X224131933Y-57287172D01*
X224034433Y-57104763D01*
X224014420Y-57038787D01*
X223974393Y-56906836D01*
X223954120Y-56701000D01*
X223974393Y-56495164D01*
X224034433Y-56297238D01*
X224034433Y-56297237D01*
X224131933Y-56114828D01*
X224263146Y-55954946D01*
X224423028Y-55823733D01*
X224605437Y-55726233D01*
X224671413Y-55706220D01*
X224803364Y-55666193D01*
X224880493Y-55658596D01*
X224957620Y-55651000D01*
X225060780Y-55651000D01*
X225137907Y-55658596D01*
X225137907Y-55658596D01*
G37*
G36*
X226059200Y-55211000D02*
X223959200Y-55211000D01*
X223959200Y-53111000D01*
X226059200Y-53111000D01*
X226059200Y-55211000D01*
X226059200Y-55211000D01*
G37*
G36*
X104196000Y-46336000D02*
X101796000Y-46336000D01*
X101796000Y-43936000D01*
X104196000Y-43936000D01*
X104196000Y-46336000D01*
X104196000Y-46336000D01*
G37*
G36*
X228409122Y-42246115D02*
X228525041Y-42269173D01*
X228852620Y-42404861D01*
X229143511Y-42599228D01*
X229147436Y-42601851D01*
X229398149Y-42852564D01*
X229595140Y-43147382D01*
X229730827Y-43474960D01*
X229800000Y-43822714D01*
X229800000Y-44177286D01*
X229730827Y-44525040D01*
X229595140Y-44852618D01*
X229398149Y-45147436D01*
X229147436Y-45398149D01*
X229147433Y-45398151D01*
X228852620Y-45595139D01*
X228525041Y-45730827D01*
X228409122Y-45753885D01*
X228177286Y-45800000D01*
X227822714Y-45800000D01*
X227590878Y-45753885D01*
X227474959Y-45730827D01*
X227147380Y-45595139D01*
X226852567Y-45398151D01*
X226852564Y-45398149D01*
X226601851Y-45147436D01*
X226404860Y-44852618D01*
X226269173Y-44525040D01*
X226200000Y-44177286D01*
X226200000Y-43822714D01*
X226269173Y-43474960D01*
X226404860Y-43147382D01*
X226601851Y-42852564D01*
X226852564Y-42601851D01*
X226856489Y-42599228D01*
X227147380Y-42404861D01*
X227474959Y-42269173D01*
X227590878Y-42246115D01*
X227822714Y-42200000D01*
X228177286Y-42200000D01*
X228409122Y-42246115D01*
X228409122Y-42246115D01*
G37*
G36*
X68409122Y-38246115D02*
X68525041Y-38269173D01*
X68852620Y-38404861D01*
X69049678Y-38536531D01*
X69147436Y-38601851D01*
X69398149Y-38852564D01*
X69398151Y-38852567D01*
X69595139Y-39147380D01*
X69683821Y-39361476D01*
X69730827Y-39474960D01*
X69800000Y-39822714D01*
X69800000Y-40177286D01*
X69753885Y-40409122D01*
X69730827Y-40525041D01*
X69595139Y-40852620D01*
X69451160Y-41068099D01*
X69398149Y-41147436D01*
X69147436Y-41398149D01*
X69147433Y-41398151D01*
X68852620Y-41595139D01*
X68525041Y-41730827D01*
X68409122Y-41753885D01*
X68177286Y-41800000D01*
X67822714Y-41800000D01*
X67590878Y-41753885D01*
X67474959Y-41730827D01*
X67147380Y-41595139D01*
X66852567Y-41398151D01*
X66852564Y-41398149D01*
X66601851Y-41147436D01*
X66548840Y-41068099D01*
X66404861Y-40852620D01*
X66269173Y-40525041D01*
X66246115Y-40409122D01*
X66200000Y-40177286D01*
X66200000Y-39822714D01*
X66269173Y-39474960D01*
X66316180Y-39361476D01*
X66404861Y-39147380D01*
X66601849Y-38852567D01*
X66601851Y-38852564D01*
X66852564Y-38601851D01*
X66950322Y-38536531D01*
X67147380Y-38404861D01*
X67474959Y-38269173D01*
X67590878Y-38246115D01*
X67822714Y-38200000D01*
X68177286Y-38200000D01*
X68409122Y-38246115D01*
X68409122Y-38246115D01*
G37*
G36*
X103346026Y-38982115D02*
X103564412Y-39072573D01*
X103760958Y-39203901D01*
X103928099Y-39371042D01*
X104059427Y-39567588D01*
X104149885Y-39785974D01*
X104196000Y-40017809D01*
X104196000Y-40254191D01*
X104149885Y-40486026D01*
X104059427Y-40704412D01*
X103928099Y-40900958D01*
X103760958Y-41068099D01*
X103564412Y-41199427D01*
X103346026Y-41289885D01*
X103114191Y-41336000D01*
X102877809Y-41336000D01*
X102645974Y-41289885D01*
X102427588Y-41199427D01*
X102231042Y-41068099D01*
X102063901Y-40900958D01*
X101932573Y-40704412D01*
X101842115Y-40486026D01*
X101796000Y-40254191D01*
X101796000Y-40017809D01*
X101842115Y-39785974D01*
X101932573Y-39567588D01*
X102063901Y-39371042D01*
X102231042Y-39203901D01*
X102427588Y-39072573D01*
X102645974Y-38982115D01*
X102877809Y-38936000D01*
X103114191Y-38936000D01*
X103346026Y-38982115D01*
X103346026Y-38982115D01*
G37*
G36*
X146194835Y-37992618D02*
X146218868Y-37997398D01*
X146271664Y-38002598D01*
X146353530Y-38010661D01*
X146463489Y-38044017D01*
X146518469Y-38060695D01*
X146569137Y-38087778D01*
X146670476Y-38141944D01*
X146803712Y-38251288D01*
X146913056Y-38384524D01*
X146967222Y-38485863D01*
X146994305Y-38536531D01*
X146994305Y-38536532D01*
X147044339Y-38701470D01*
X147044339Y-38701472D01*
X147057602Y-38836132D01*
X147062383Y-38860166D01*
X147067699Y-38873000D01*
X147062382Y-38885835D01*
X147057602Y-38909868D01*
X147044339Y-39044530D01*
X147013139Y-39147380D01*
X146994305Y-39209469D01*
X146967222Y-39260137D01*
X146913056Y-39361476D01*
X146803712Y-39494712D01*
X146670476Y-39604056D01*
X146569137Y-39658222D01*
X146518469Y-39685305D01*
X146463489Y-39701983D01*
X146353530Y-39735339D01*
X146267829Y-39743780D01*
X146224980Y-39748000D01*
X146139020Y-39748000D01*
X146096171Y-39743780D01*
X146010470Y-39735339D01*
X145900511Y-39701983D01*
X145845531Y-39685305D01*
X145794863Y-39658222D01*
X145693524Y-39604056D01*
X145560288Y-39494712D01*
X145450944Y-39361476D01*
X145396778Y-39260137D01*
X145369695Y-39209469D01*
X145350861Y-39147380D01*
X145319661Y-39044530D01*
X145306398Y-38909868D01*
X145301617Y-38885834D01*
X145296301Y-38873000D01*
X145301618Y-38860165D01*
X145306398Y-38836132D01*
X145319661Y-38701472D01*
X145319661Y-38701470D01*
X145369695Y-38536532D01*
X145369695Y-38536531D01*
X145396778Y-38485863D01*
X145450944Y-38384524D01*
X145560288Y-38251288D01*
X145693524Y-38141944D01*
X145794863Y-38087778D01*
X145845531Y-38060695D01*
X145900511Y-38044017D01*
X146010470Y-38010661D01*
X146092336Y-38002598D01*
X146145132Y-37997398D01*
X146169166Y-37992617D01*
X146182000Y-37987301D01*
X146194835Y-37992618D01*
X146194835Y-37992618D01*
G37*
G36*
X144194835Y-37992618D02*
X144218868Y-37997398D01*
X144271664Y-38002598D01*
X144353530Y-38010661D01*
X144463489Y-38044017D01*
X144518469Y-38060695D01*
X144569137Y-38087778D01*
X144670476Y-38141944D01*
X144803712Y-38251288D01*
X144913056Y-38384524D01*
X144967222Y-38485863D01*
X144994305Y-38536531D01*
X144994305Y-38536532D01*
X145044339Y-38701470D01*
X145044339Y-38701472D01*
X145057602Y-38836132D01*
X145062383Y-38860166D01*
X145067699Y-38873000D01*
X145062382Y-38885835D01*
X145057602Y-38909868D01*
X145044339Y-39044530D01*
X145013139Y-39147380D01*
X144994305Y-39209469D01*
X144967222Y-39260137D01*
X144913056Y-39361476D01*
X144803712Y-39494712D01*
X144670476Y-39604056D01*
X144569137Y-39658222D01*
X144518469Y-39685305D01*
X144463489Y-39701983D01*
X144353530Y-39735339D01*
X144267829Y-39743780D01*
X144224980Y-39748000D01*
X144139020Y-39748000D01*
X144096171Y-39743780D01*
X144010470Y-39735339D01*
X143900511Y-39701983D01*
X143845531Y-39685305D01*
X143794863Y-39658222D01*
X143693524Y-39604056D01*
X143560288Y-39494712D01*
X143450944Y-39361476D01*
X143396778Y-39260137D01*
X143369695Y-39209469D01*
X143350861Y-39147380D01*
X143319661Y-39044530D01*
X143302767Y-38873000D01*
X143319661Y-38701470D01*
X143369695Y-38536532D01*
X143369695Y-38536531D01*
X143396778Y-38485863D01*
X143450944Y-38384524D01*
X143560288Y-38251288D01*
X143693524Y-38141944D01*
X143794863Y-38087778D01*
X143845531Y-38060695D01*
X143900511Y-38044017D01*
X144010470Y-38010661D01*
X144092336Y-38002598D01*
X144145132Y-37997398D01*
X144169166Y-37992617D01*
X144182000Y-37987301D01*
X144194835Y-37992618D01*
X144194835Y-37992618D01*
G37*
G36*
X156194835Y-37992618D02*
X156218868Y-37997398D01*
X156271664Y-38002598D01*
X156353530Y-38010661D01*
X156463489Y-38044017D01*
X156518469Y-38060695D01*
X156569137Y-38087778D01*
X156670476Y-38141944D01*
X156803712Y-38251288D01*
X156913056Y-38384524D01*
X156967222Y-38485863D01*
X156994305Y-38536531D01*
X156994305Y-38536532D01*
X157044339Y-38701470D01*
X157044339Y-38701472D01*
X157057602Y-38836132D01*
X157062383Y-38860166D01*
X157067699Y-38873000D01*
X157062382Y-38885835D01*
X157057602Y-38909868D01*
X157044339Y-39044530D01*
X157013139Y-39147380D01*
X156994305Y-39209469D01*
X156967222Y-39260137D01*
X156913056Y-39361476D01*
X156803712Y-39494712D01*
X156670476Y-39604056D01*
X156569137Y-39658222D01*
X156518469Y-39685305D01*
X156463489Y-39701983D01*
X156353530Y-39735339D01*
X156267829Y-39743780D01*
X156224980Y-39748000D01*
X156139020Y-39748000D01*
X156096171Y-39743780D01*
X156010470Y-39735339D01*
X155900511Y-39701983D01*
X155845531Y-39685305D01*
X155794863Y-39658222D01*
X155693524Y-39604056D01*
X155560288Y-39494712D01*
X155450944Y-39361476D01*
X155396778Y-39260137D01*
X155369695Y-39209469D01*
X155350861Y-39147380D01*
X155319661Y-39044530D01*
X155306398Y-38909868D01*
X155301617Y-38885834D01*
X155296301Y-38873000D01*
X155301618Y-38860165D01*
X155306398Y-38836132D01*
X155319661Y-38701472D01*
X155319661Y-38701470D01*
X155369695Y-38536532D01*
X155369695Y-38536531D01*
X155396778Y-38485863D01*
X155450944Y-38384524D01*
X155560288Y-38251288D01*
X155693524Y-38141944D01*
X155794863Y-38087778D01*
X155845531Y-38060695D01*
X155900511Y-38044017D01*
X156010470Y-38010661D01*
X156092336Y-38002598D01*
X156145132Y-37997398D01*
X156169166Y-37992617D01*
X156182000Y-37987301D01*
X156194835Y-37992618D01*
X156194835Y-37992618D01*
G37*
G36*
X154194835Y-37992618D02*
X154218868Y-37997398D01*
X154271664Y-38002598D01*
X154353530Y-38010661D01*
X154463489Y-38044017D01*
X154518469Y-38060695D01*
X154569137Y-38087778D01*
X154670476Y-38141944D01*
X154803712Y-38251288D01*
X154913056Y-38384524D01*
X154967222Y-38485863D01*
X154994305Y-38536531D01*
X154994305Y-38536532D01*
X155044339Y-38701470D01*
X155044339Y-38701472D01*
X155057602Y-38836132D01*
X155062383Y-38860166D01*
X155067699Y-38873000D01*
X155062382Y-38885835D01*
X155057602Y-38909868D01*
X155044339Y-39044530D01*
X155013139Y-39147380D01*
X154994305Y-39209469D01*
X154967222Y-39260137D01*
X154913056Y-39361476D01*
X154803712Y-39494712D01*
X154670476Y-39604056D01*
X154569137Y-39658222D01*
X154518469Y-39685305D01*
X154463489Y-39701983D01*
X154353530Y-39735339D01*
X154267829Y-39743780D01*
X154224980Y-39748000D01*
X154139020Y-39748000D01*
X154096171Y-39743780D01*
X154010470Y-39735339D01*
X153900511Y-39701983D01*
X153845531Y-39685305D01*
X153794863Y-39658222D01*
X153693524Y-39604056D01*
X153560288Y-39494712D01*
X153450944Y-39361476D01*
X153396778Y-39260137D01*
X153369695Y-39209469D01*
X153350861Y-39147380D01*
X153319661Y-39044530D01*
X153306398Y-38909868D01*
X153301617Y-38885834D01*
X153296301Y-38873000D01*
X153301618Y-38860165D01*
X153306398Y-38836132D01*
X153319661Y-38701472D01*
X153319661Y-38701470D01*
X153369695Y-38536532D01*
X153369695Y-38536531D01*
X153396778Y-38485863D01*
X153450944Y-38384524D01*
X153560288Y-38251288D01*
X153693524Y-38141944D01*
X153794863Y-38087778D01*
X153845531Y-38060695D01*
X153900511Y-38044017D01*
X154010470Y-38010661D01*
X154092336Y-38002598D01*
X154145132Y-37997398D01*
X154169166Y-37992617D01*
X154182000Y-37987301D01*
X154194835Y-37992618D01*
X154194835Y-37992618D01*
G37*
G36*
X152194835Y-37992618D02*
X152218868Y-37997398D01*
X152271664Y-38002598D01*
X152353530Y-38010661D01*
X152463489Y-38044017D01*
X152518469Y-38060695D01*
X152569137Y-38087778D01*
X152670476Y-38141944D01*
X152803712Y-38251288D01*
X152913056Y-38384524D01*
X152967222Y-38485863D01*
X152994305Y-38536531D01*
X152994305Y-38536532D01*
X153044339Y-38701470D01*
X153044339Y-38701472D01*
X153057602Y-38836132D01*
X153062383Y-38860166D01*
X153067699Y-38873000D01*
X153062382Y-38885835D01*
X153057602Y-38909868D01*
X153044339Y-39044530D01*
X153013139Y-39147380D01*
X152994305Y-39209469D01*
X152967222Y-39260137D01*
X152913056Y-39361476D01*
X152803712Y-39494712D01*
X152670476Y-39604056D01*
X152569137Y-39658222D01*
X152518469Y-39685305D01*
X152463489Y-39701983D01*
X152353530Y-39735339D01*
X152267829Y-39743780D01*
X152224980Y-39748000D01*
X152139020Y-39748000D01*
X152096171Y-39743780D01*
X152010470Y-39735339D01*
X151900511Y-39701983D01*
X151845531Y-39685305D01*
X151794863Y-39658222D01*
X151693524Y-39604056D01*
X151560288Y-39494712D01*
X151450944Y-39361476D01*
X151396778Y-39260137D01*
X151369695Y-39209469D01*
X151350861Y-39147380D01*
X151319661Y-39044530D01*
X151306398Y-38909868D01*
X151301617Y-38885834D01*
X151296301Y-38873000D01*
X151301618Y-38860165D01*
X151306398Y-38836132D01*
X151319661Y-38701472D01*
X151319661Y-38701470D01*
X151369695Y-38536532D01*
X151369695Y-38536531D01*
X151396778Y-38485863D01*
X151450944Y-38384524D01*
X151560288Y-38251288D01*
X151693524Y-38141944D01*
X151794863Y-38087778D01*
X151845531Y-38060695D01*
X151900511Y-38044017D01*
X152010470Y-38010661D01*
X152092336Y-38002598D01*
X152145132Y-37997398D01*
X152169166Y-37992617D01*
X152182000Y-37987301D01*
X152194835Y-37992618D01*
X152194835Y-37992618D01*
G37*
G36*
X150194835Y-37992618D02*
X150218868Y-37997398D01*
X150271664Y-38002598D01*
X150353530Y-38010661D01*
X150463489Y-38044017D01*
X150518469Y-38060695D01*
X150569137Y-38087778D01*
X150670476Y-38141944D01*
X150803712Y-38251288D01*
X150913056Y-38384524D01*
X150967222Y-38485863D01*
X150994305Y-38536531D01*
X150994305Y-38536532D01*
X151044339Y-38701470D01*
X151044339Y-38701472D01*
X151057602Y-38836132D01*
X151062383Y-38860166D01*
X151067699Y-38873000D01*
X151062382Y-38885835D01*
X151057602Y-38909868D01*
X151044339Y-39044530D01*
X151013139Y-39147380D01*
X150994305Y-39209469D01*
X150967222Y-39260137D01*
X150913056Y-39361476D01*
X150803712Y-39494712D01*
X150670476Y-39604056D01*
X150569137Y-39658222D01*
X150518469Y-39685305D01*
X150463489Y-39701983D01*
X150353530Y-39735339D01*
X150267829Y-39743780D01*
X150224980Y-39748000D01*
X150139020Y-39748000D01*
X150096171Y-39743780D01*
X150010470Y-39735339D01*
X149900511Y-39701983D01*
X149845531Y-39685305D01*
X149794863Y-39658222D01*
X149693524Y-39604056D01*
X149560288Y-39494712D01*
X149450944Y-39361476D01*
X149396778Y-39260137D01*
X149369695Y-39209469D01*
X149350861Y-39147380D01*
X149319661Y-39044530D01*
X149306398Y-38909868D01*
X149301617Y-38885834D01*
X149296301Y-38873000D01*
X149301618Y-38860165D01*
X149306398Y-38836132D01*
X149319661Y-38701472D01*
X149319661Y-38701470D01*
X149369695Y-38536532D01*
X149369695Y-38536531D01*
X149396778Y-38485863D01*
X149450944Y-38384524D01*
X149560288Y-38251288D01*
X149693524Y-38141944D01*
X149794863Y-38087778D01*
X149845531Y-38060695D01*
X149900511Y-38044017D01*
X150010470Y-38010661D01*
X150092336Y-38002598D01*
X150145132Y-37997398D01*
X150169166Y-37992617D01*
X150182000Y-37987301D01*
X150194835Y-37992618D01*
X150194835Y-37992618D01*
G37*
G36*
X158183285Y-37988485D02*
X158218868Y-37997398D01*
X158271664Y-38002598D01*
X158353530Y-38010661D01*
X158463489Y-38044017D01*
X158518469Y-38060695D01*
X158569137Y-38087778D01*
X158670476Y-38141944D01*
X158803712Y-38251288D01*
X158913056Y-38384524D01*
X158967222Y-38485863D01*
X158994305Y-38536531D01*
X158994305Y-38536532D01*
X159044339Y-38701470D01*
X159061233Y-38873000D01*
X159044339Y-39044530D01*
X159013139Y-39147380D01*
X158994305Y-39209469D01*
X158967222Y-39260137D01*
X158913056Y-39361476D01*
X158803712Y-39494712D01*
X158670476Y-39604056D01*
X158569137Y-39658222D01*
X158518469Y-39685305D01*
X158463489Y-39701983D01*
X158353530Y-39735339D01*
X158267829Y-39743780D01*
X158224980Y-39748000D01*
X158139020Y-39748000D01*
X158096171Y-39743780D01*
X158010470Y-39735339D01*
X157900511Y-39701983D01*
X157845531Y-39685305D01*
X157794863Y-39658222D01*
X157693524Y-39604056D01*
X157560288Y-39494712D01*
X157450944Y-39361476D01*
X157396778Y-39260137D01*
X157369695Y-39209469D01*
X157350861Y-39147380D01*
X157319661Y-39044530D01*
X157306398Y-38909868D01*
X157301617Y-38885834D01*
X157296301Y-38873000D01*
X157301618Y-38860165D01*
X157306398Y-38836132D01*
X157319661Y-38701472D01*
X157319661Y-38701470D01*
X157369695Y-38536532D01*
X157369695Y-38536531D01*
X157396778Y-38485863D01*
X157450944Y-38384524D01*
X157560288Y-38251288D01*
X157693524Y-38141944D01*
X157794863Y-38087778D01*
X157845531Y-38060695D01*
X157900511Y-38044017D01*
X158010470Y-38010661D01*
X158092336Y-38002598D01*
X158145132Y-37997398D01*
X158169166Y-37992617D01*
X158181476Y-37987518D01*
X158183285Y-37988485D01*
X158183285Y-37988485D01*
G37*
G36*
X148194835Y-37992618D02*
X148218868Y-37997398D01*
X148271664Y-38002598D01*
X148353530Y-38010661D01*
X148463489Y-38044017D01*
X148518469Y-38060695D01*
X148569137Y-38087778D01*
X148670476Y-38141944D01*
X148803712Y-38251288D01*
X148913056Y-38384524D01*
X148967222Y-38485863D01*
X148994305Y-38536531D01*
X148994305Y-38536532D01*
X149044339Y-38701470D01*
X149044339Y-38701472D01*
X149057602Y-38836132D01*
X149062383Y-38860166D01*
X149067699Y-38873000D01*
X149062382Y-38885835D01*
X149057602Y-38909868D01*
X149044339Y-39044530D01*
X149013139Y-39147380D01*
X148994305Y-39209469D01*
X148967222Y-39260137D01*
X148913056Y-39361476D01*
X148803712Y-39494712D01*
X148670476Y-39604056D01*
X148569137Y-39658222D01*
X148518469Y-39685305D01*
X148463489Y-39701983D01*
X148353530Y-39735339D01*
X148267829Y-39743780D01*
X148224980Y-39748000D01*
X148139020Y-39748000D01*
X148096171Y-39743780D01*
X148010470Y-39735339D01*
X147900511Y-39701983D01*
X147845531Y-39685305D01*
X147794863Y-39658222D01*
X147693524Y-39604056D01*
X147560288Y-39494712D01*
X147450944Y-39361476D01*
X147396778Y-39260137D01*
X147369695Y-39209469D01*
X147350861Y-39147380D01*
X147319661Y-39044530D01*
X147306398Y-38909868D01*
X147301617Y-38885834D01*
X147296301Y-38873000D01*
X147301618Y-38860165D01*
X147306398Y-38836132D01*
X147319661Y-38701472D01*
X147319661Y-38701470D01*
X147369695Y-38536532D01*
X147369695Y-38536531D01*
X147396778Y-38485863D01*
X147450944Y-38384524D01*
X147560288Y-38251288D01*
X147693524Y-38141944D01*
X147794863Y-38087778D01*
X147845531Y-38060695D01*
X147900511Y-38044017D01*
X148010470Y-38010661D01*
X148092336Y-38002598D01*
X148145132Y-37997398D01*
X148169166Y-37992617D01*
X148182000Y-37987301D01*
X148194835Y-37992618D01*
X148194835Y-37992618D01*
G37*
G36*
X150267829Y-36002220D02*
X150353530Y-36010661D01*
X150452976Y-36040828D01*
X150518469Y-36060695D01*
X150569137Y-36087778D01*
X150670476Y-36141944D01*
X150803712Y-36251288D01*
X150913056Y-36384524D01*
X150932640Y-36421164D01*
X150994305Y-36536531D01*
X150994305Y-36536532D01*
X151044339Y-36701470D01*
X151044339Y-36701472D01*
X151057602Y-36836132D01*
X151062383Y-36860166D01*
X151067699Y-36873000D01*
X151062382Y-36885835D01*
X151057602Y-36909868D01*
X151044339Y-37044530D01*
X151010983Y-37154489D01*
X150994305Y-37209469D01*
X150967222Y-37260137D01*
X150913056Y-37361476D01*
X150803712Y-37494712D01*
X150670476Y-37604056D01*
X150569137Y-37658222D01*
X150518469Y-37685305D01*
X150463489Y-37701983D01*
X150353530Y-37735339D01*
X150271664Y-37743402D01*
X150218868Y-37748602D01*
X150194834Y-37753383D01*
X150182000Y-37758699D01*
X150169165Y-37753382D01*
X150145132Y-37748602D01*
X150092336Y-37743402D01*
X150010470Y-37735339D01*
X149900511Y-37701983D01*
X149845531Y-37685305D01*
X149794863Y-37658222D01*
X149693524Y-37604056D01*
X149560288Y-37494712D01*
X149450944Y-37361476D01*
X149396778Y-37260137D01*
X149369695Y-37209469D01*
X149353017Y-37154489D01*
X149319661Y-37044530D01*
X149306398Y-36909868D01*
X149301617Y-36885834D01*
X149296301Y-36873000D01*
X149301618Y-36860165D01*
X149306398Y-36836132D01*
X149319661Y-36701472D01*
X149319661Y-36701470D01*
X149369695Y-36536532D01*
X149369695Y-36536531D01*
X149431360Y-36421164D01*
X149450944Y-36384524D01*
X149560288Y-36251288D01*
X149693524Y-36141944D01*
X149794863Y-36087778D01*
X149845531Y-36060695D01*
X149911024Y-36040828D01*
X150010470Y-36010661D01*
X150096171Y-36002220D01*
X150139020Y-35998000D01*
X150224980Y-35998000D01*
X150267829Y-36002220D01*
X150267829Y-36002220D01*
G37*
G36*
X154267829Y-36002220D02*
X154353530Y-36010661D01*
X154452976Y-36040828D01*
X154518469Y-36060695D01*
X154569137Y-36087778D01*
X154670476Y-36141944D01*
X154803712Y-36251288D01*
X154913056Y-36384524D01*
X154932640Y-36421164D01*
X154994305Y-36536531D01*
X154994305Y-36536532D01*
X155044339Y-36701470D01*
X155044339Y-36701472D01*
X155057602Y-36836132D01*
X155062383Y-36860166D01*
X155067699Y-36873000D01*
X155062382Y-36885835D01*
X155057602Y-36909868D01*
X155044339Y-37044530D01*
X155010983Y-37154489D01*
X154994305Y-37209469D01*
X154967222Y-37260137D01*
X154913056Y-37361476D01*
X154803712Y-37494712D01*
X154670476Y-37604056D01*
X154569137Y-37658222D01*
X154518469Y-37685305D01*
X154463489Y-37701983D01*
X154353530Y-37735339D01*
X154271664Y-37743402D01*
X154218868Y-37748602D01*
X154194834Y-37753383D01*
X154182000Y-37758699D01*
X154169165Y-37753382D01*
X154145132Y-37748602D01*
X154092336Y-37743402D01*
X154010470Y-37735339D01*
X153900511Y-37701983D01*
X153845531Y-37685305D01*
X153794863Y-37658222D01*
X153693524Y-37604056D01*
X153560288Y-37494712D01*
X153450944Y-37361476D01*
X153396778Y-37260137D01*
X153369695Y-37209469D01*
X153353017Y-37154489D01*
X153319661Y-37044530D01*
X153306398Y-36909868D01*
X153301617Y-36885834D01*
X153296301Y-36873000D01*
X153301618Y-36860165D01*
X153306398Y-36836132D01*
X153319661Y-36701472D01*
X153319661Y-36701470D01*
X153369695Y-36536532D01*
X153369695Y-36536531D01*
X153431360Y-36421164D01*
X153450944Y-36384524D01*
X153560288Y-36251288D01*
X153693524Y-36141944D01*
X153794863Y-36087778D01*
X153845531Y-36060695D01*
X153911024Y-36040828D01*
X154010470Y-36010661D01*
X154096171Y-36002220D01*
X154139020Y-35998000D01*
X154224980Y-35998000D01*
X154267829Y-36002220D01*
X154267829Y-36002220D01*
G37*
G36*
X156267829Y-36002220D02*
X156353530Y-36010661D01*
X156452976Y-36040828D01*
X156518469Y-36060695D01*
X156569137Y-36087778D01*
X156670476Y-36141944D01*
X156803712Y-36251288D01*
X156913056Y-36384524D01*
X156932640Y-36421164D01*
X156994305Y-36536531D01*
X156994305Y-36536532D01*
X157044339Y-36701470D01*
X157044339Y-36701472D01*
X157057602Y-36836132D01*
X157062383Y-36860166D01*
X157067482Y-36872476D01*
X157066515Y-36874285D01*
X157057602Y-36909868D01*
X157044339Y-37044530D01*
X157010983Y-37154489D01*
X156994305Y-37209469D01*
X156967222Y-37260137D01*
X156913056Y-37361476D01*
X156803712Y-37494712D01*
X156670476Y-37604056D01*
X156569137Y-37658222D01*
X156518469Y-37685305D01*
X156463489Y-37701983D01*
X156353530Y-37735339D01*
X156271664Y-37743402D01*
X156218868Y-37748602D01*
X156194834Y-37753383D01*
X156182000Y-37758699D01*
X156169165Y-37753382D01*
X156145132Y-37748602D01*
X156092336Y-37743402D01*
X156010470Y-37735339D01*
X155900511Y-37701983D01*
X155845531Y-37685305D01*
X155794863Y-37658222D01*
X155693524Y-37604056D01*
X155560288Y-37494712D01*
X155450944Y-37361476D01*
X155396778Y-37260137D01*
X155369695Y-37209469D01*
X155353017Y-37154489D01*
X155319661Y-37044530D01*
X155306398Y-36909868D01*
X155301617Y-36885834D01*
X155296301Y-36873000D01*
X155301618Y-36860165D01*
X155306398Y-36836132D01*
X155319661Y-36701472D01*
X155319661Y-36701470D01*
X155369695Y-36536532D01*
X155369695Y-36536531D01*
X155431360Y-36421164D01*
X155450944Y-36384524D01*
X155560288Y-36251288D01*
X155693524Y-36141944D01*
X155794863Y-36087778D01*
X155845531Y-36060695D01*
X155911024Y-36040828D01*
X156010470Y-36010661D01*
X156096171Y-36002220D01*
X156139020Y-35998000D01*
X156224980Y-35998000D01*
X156267829Y-36002220D01*
X156267829Y-36002220D01*
G37*
G36*
X152267829Y-36002220D02*
X152353530Y-36010661D01*
X152452976Y-36040828D01*
X152518469Y-36060695D01*
X152569137Y-36087778D01*
X152670476Y-36141944D01*
X152803712Y-36251288D01*
X152913056Y-36384524D01*
X152932640Y-36421164D01*
X152994305Y-36536531D01*
X152994305Y-36536532D01*
X153044339Y-36701470D01*
X153044339Y-36701472D01*
X153057602Y-36836132D01*
X153062383Y-36860166D01*
X153067699Y-36873000D01*
X153062382Y-36885835D01*
X153057602Y-36909868D01*
X153044339Y-37044530D01*
X153010983Y-37154489D01*
X152994305Y-37209469D01*
X152967222Y-37260137D01*
X152913056Y-37361476D01*
X152803712Y-37494712D01*
X152670476Y-37604056D01*
X152569137Y-37658222D01*
X152518469Y-37685305D01*
X152463489Y-37701983D01*
X152353530Y-37735339D01*
X152271664Y-37743402D01*
X152218868Y-37748602D01*
X152194834Y-37753383D01*
X152182000Y-37758699D01*
X152169165Y-37753382D01*
X152145132Y-37748602D01*
X152092336Y-37743402D01*
X152010470Y-37735339D01*
X151900511Y-37701983D01*
X151845531Y-37685305D01*
X151794863Y-37658222D01*
X151693524Y-37604056D01*
X151560288Y-37494712D01*
X151450944Y-37361476D01*
X151396778Y-37260137D01*
X151369695Y-37209469D01*
X151353017Y-37154489D01*
X151319661Y-37044530D01*
X151306398Y-36909868D01*
X151301617Y-36885834D01*
X151296301Y-36873000D01*
X151301618Y-36860165D01*
X151306398Y-36836132D01*
X151319661Y-36701472D01*
X151319661Y-36701470D01*
X151369695Y-36536532D01*
X151369695Y-36536531D01*
X151431360Y-36421164D01*
X151450944Y-36384524D01*
X151560288Y-36251288D01*
X151693524Y-36141944D01*
X151794863Y-36087778D01*
X151845531Y-36060695D01*
X151911024Y-36040828D01*
X152010470Y-36010661D01*
X152096171Y-36002220D01*
X152139020Y-35998000D01*
X152224980Y-35998000D01*
X152267829Y-36002220D01*
X152267829Y-36002220D01*
G37*
G36*
X148267829Y-36002220D02*
X148353530Y-36010661D01*
X148452976Y-36040828D01*
X148518469Y-36060695D01*
X148569137Y-36087778D01*
X148670476Y-36141944D01*
X148803712Y-36251288D01*
X148913056Y-36384524D01*
X148932640Y-36421164D01*
X148994305Y-36536531D01*
X148994305Y-36536532D01*
X149044339Y-36701470D01*
X149044339Y-36701472D01*
X149057602Y-36836132D01*
X149062383Y-36860166D01*
X149067699Y-36873000D01*
X149062382Y-36885835D01*
X149057602Y-36909868D01*
X149044339Y-37044530D01*
X149010983Y-37154489D01*
X148994305Y-37209469D01*
X148967222Y-37260137D01*
X148913056Y-37361476D01*
X148803712Y-37494712D01*
X148670476Y-37604056D01*
X148569137Y-37658222D01*
X148518469Y-37685305D01*
X148463489Y-37701983D01*
X148353530Y-37735339D01*
X148271664Y-37743402D01*
X148218868Y-37748602D01*
X148194834Y-37753383D01*
X148182000Y-37758699D01*
X148169165Y-37753382D01*
X148145132Y-37748602D01*
X148092336Y-37743402D01*
X148010470Y-37735339D01*
X147900511Y-37701983D01*
X147845531Y-37685305D01*
X147794863Y-37658222D01*
X147693524Y-37604056D01*
X147560288Y-37494712D01*
X147450944Y-37361476D01*
X147396778Y-37260137D01*
X147369695Y-37209469D01*
X147353017Y-37154489D01*
X147319661Y-37044530D01*
X147306398Y-36909868D01*
X147301617Y-36885834D01*
X147296301Y-36873000D01*
X147301618Y-36860165D01*
X147306398Y-36836132D01*
X147319661Y-36701472D01*
X147319661Y-36701470D01*
X147369695Y-36536532D01*
X147369695Y-36536531D01*
X147431360Y-36421164D01*
X147450944Y-36384524D01*
X147560288Y-36251288D01*
X147693524Y-36141944D01*
X147794863Y-36087778D01*
X147845531Y-36060695D01*
X147911024Y-36040828D01*
X148010470Y-36010661D01*
X148096171Y-36002220D01*
X148139020Y-35998000D01*
X148224980Y-35998000D01*
X148267829Y-36002220D01*
X148267829Y-36002220D01*
G37*
G36*
X146267829Y-36002220D02*
X146353530Y-36010661D01*
X146452976Y-36040828D01*
X146518469Y-36060695D01*
X146569137Y-36087778D01*
X146670476Y-36141944D01*
X146803712Y-36251288D01*
X146913056Y-36384524D01*
X146932640Y-36421164D01*
X146994305Y-36536531D01*
X146994305Y-36536532D01*
X147044339Y-36701470D01*
X147044339Y-36701472D01*
X147057602Y-36836132D01*
X147062383Y-36860166D01*
X147067699Y-36873000D01*
X147062382Y-36885835D01*
X147057602Y-36909868D01*
X147044339Y-37044530D01*
X147010983Y-37154489D01*
X146994305Y-37209469D01*
X146967222Y-37260137D01*
X146913056Y-37361476D01*
X146803712Y-37494712D01*
X146670476Y-37604056D01*
X146569137Y-37658222D01*
X146518469Y-37685305D01*
X146463489Y-37701983D01*
X146353530Y-37735339D01*
X146271664Y-37743402D01*
X146218868Y-37748602D01*
X146194834Y-37753383D01*
X146182000Y-37758699D01*
X146169165Y-37753382D01*
X146145132Y-37748602D01*
X146092336Y-37743402D01*
X146010470Y-37735339D01*
X145900511Y-37701983D01*
X145845531Y-37685305D01*
X145794863Y-37658222D01*
X145693524Y-37604056D01*
X145560288Y-37494712D01*
X145450944Y-37361476D01*
X145396778Y-37260137D01*
X145369695Y-37209469D01*
X145353017Y-37154489D01*
X145319661Y-37044530D01*
X145306398Y-36909868D01*
X145301617Y-36885834D01*
X145296301Y-36873000D01*
X145301618Y-36860165D01*
X145306398Y-36836132D01*
X145319661Y-36701472D01*
X145319661Y-36701470D01*
X145369695Y-36536532D01*
X145369695Y-36536531D01*
X145431360Y-36421164D01*
X145450944Y-36384524D01*
X145560288Y-36251288D01*
X145693524Y-36141944D01*
X145794863Y-36087778D01*
X145845531Y-36060695D01*
X145911024Y-36040828D01*
X146010470Y-36010661D01*
X146096171Y-36002220D01*
X146139020Y-35998000D01*
X146224980Y-35998000D01*
X146267829Y-36002220D01*
X146267829Y-36002220D01*
G37*
G36*
X144267829Y-36002220D02*
X144353530Y-36010661D01*
X144452976Y-36040828D01*
X144518469Y-36060695D01*
X144569137Y-36087778D01*
X144670476Y-36141944D01*
X144803712Y-36251288D01*
X144913056Y-36384524D01*
X144932640Y-36421164D01*
X144994305Y-36536531D01*
X144994305Y-36536532D01*
X145044339Y-36701470D01*
X145044339Y-36701472D01*
X145057602Y-36836132D01*
X145062383Y-36860166D01*
X145067699Y-36873000D01*
X145062382Y-36885835D01*
X145057602Y-36909868D01*
X145044339Y-37044530D01*
X145010983Y-37154489D01*
X144994305Y-37209469D01*
X144967222Y-37260137D01*
X144913056Y-37361476D01*
X144803712Y-37494712D01*
X144670476Y-37604056D01*
X144569137Y-37658222D01*
X144518469Y-37685305D01*
X144463489Y-37701983D01*
X144353530Y-37735339D01*
X144271664Y-37743402D01*
X144218868Y-37748602D01*
X144194834Y-37753383D01*
X144182000Y-37758699D01*
X144169165Y-37753382D01*
X144145132Y-37748602D01*
X144092336Y-37743402D01*
X144010470Y-37735339D01*
X143900511Y-37701983D01*
X143845531Y-37685305D01*
X143794863Y-37658222D01*
X143693524Y-37604056D01*
X143560288Y-37494712D01*
X143450944Y-37361476D01*
X143396778Y-37260137D01*
X143369695Y-37209469D01*
X143353017Y-37154489D01*
X143319661Y-37044530D01*
X143302767Y-36873000D01*
X143319661Y-36701470D01*
X143369695Y-36536532D01*
X143369695Y-36536531D01*
X143431360Y-36421164D01*
X143450944Y-36384524D01*
X143560288Y-36251288D01*
X143693524Y-36141944D01*
X143794863Y-36087778D01*
X143845531Y-36060695D01*
X143911024Y-36040828D01*
X144010470Y-36010661D01*
X144096171Y-36002220D01*
X144139020Y-35998000D01*
X144224980Y-35998000D01*
X144267829Y-36002220D01*
X144267829Y-36002220D01*
G37*
G36*
X159057000Y-37748000D02*
X158231120Y-37748000D01*
X158206734Y-37750402D01*
X158183285Y-37757515D01*
X158181476Y-37758482D01*
X158169165Y-37753382D01*
X158132880Y-37748000D01*
X157307000Y-37748000D01*
X157307000Y-36922120D01*
X157304598Y-36897734D01*
X157297485Y-36874285D01*
X157296518Y-36872476D01*
X157301618Y-36860165D01*
X157307000Y-36823880D01*
X157307000Y-35998000D01*
X159057000Y-35998000D01*
X159057000Y-37748000D01*
X159057000Y-37748000D01*
G37*
G36*
X176657707Y-35584597D02*
X176734836Y-35592193D01*
X176866787Y-35632220D01*
X176932763Y-35652233D01*
X177115172Y-35749733D01*
X177275054Y-35880946D01*
X177406267Y-36040828D01*
X177503767Y-36223237D01*
X177503767Y-36223238D01*
X177563807Y-36421164D01*
X177584080Y-36627000D01*
X177563807Y-36832836D01*
X177536723Y-36922120D01*
X177503767Y-37030763D01*
X177406267Y-37213172D01*
X177275054Y-37373054D01*
X177115172Y-37504267D01*
X176932763Y-37601767D01*
X176866787Y-37621780D01*
X176734836Y-37661807D01*
X176657707Y-37669404D01*
X176580580Y-37677000D01*
X176477420Y-37677000D01*
X176400293Y-37669403D01*
X176323164Y-37661807D01*
X176191213Y-37621780D01*
X176125237Y-37601767D01*
X175942828Y-37504267D01*
X175782946Y-37373054D01*
X175651733Y-37213172D01*
X175554233Y-37030763D01*
X175521277Y-36922120D01*
X175494193Y-36832836D01*
X175473920Y-36627000D01*
X175494193Y-36421164D01*
X175554233Y-36223238D01*
X175554233Y-36223237D01*
X175651733Y-36040828D01*
X175782946Y-35880946D01*
X175942828Y-35749733D01*
X176125237Y-35652233D01*
X176191213Y-35632220D01*
X176323164Y-35592193D01*
X176400293Y-35584596D01*
X176477420Y-35577000D01*
X176580580Y-35577000D01*
X176657707Y-35584597D01*
X176657707Y-35584597D01*
G37*
G36*
X186817707Y-35584597D02*
X186894836Y-35592193D01*
X187026787Y-35632220D01*
X187092763Y-35652233D01*
X187275172Y-35749733D01*
X187435054Y-35880946D01*
X187566267Y-36040828D01*
X187663767Y-36223237D01*
X187663767Y-36223238D01*
X187723807Y-36421164D01*
X187744080Y-36627000D01*
X187723807Y-36832836D01*
X187696723Y-36922120D01*
X187663767Y-37030763D01*
X187566267Y-37213172D01*
X187435054Y-37373054D01*
X187275172Y-37504267D01*
X187092763Y-37601767D01*
X187026787Y-37621780D01*
X186894836Y-37661807D01*
X186817707Y-37669404D01*
X186740580Y-37677000D01*
X186637420Y-37677000D01*
X186560293Y-37669403D01*
X186483164Y-37661807D01*
X186351213Y-37621780D01*
X186285237Y-37601767D01*
X186102828Y-37504267D01*
X185942946Y-37373054D01*
X185811733Y-37213172D01*
X185714233Y-37030763D01*
X185681277Y-36922120D01*
X185654193Y-36832836D01*
X185633920Y-36627000D01*
X185654193Y-36421164D01*
X185714233Y-36223238D01*
X185714233Y-36223237D01*
X185811733Y-36040828D01*
X185942946Y-35880946D01*
X186102828Y-35749733D01*
X186285237Y-35652233D01*
X186351213Y-35632220D01*
X186483164Y-35592193D01*
X186560293Y-35584596D01*
X186637420Y-35577000D01*
X186740580Y-35577000D01*
X186817707Y-35584597D01*
X186817707Y-35584597D01*
G37*
G36*
X184277707Y-35584597D02*
X184354836Y-35592193D01*
X184486787Y-35632220D01*
X184552763Y-35652233D01*
X184735172Y-35749733D01*
X184895054Y-35880946D01*
X185026267Y-36040828D01*
X185123767Y-36223237D01*
X185123767Y-36223238D01*
X185183807Y-36421164D01*
X185204080Y-36627000D01*
X185183807Y-36832836D01*
X185156723Y-36922120D01*
X185123767Y-37030763D01*
X185026267Y-37213172D01*
X184895054Y-37373054D01*
X184735172Y-37504267D01*
X184552763Y-37601767D01*
X184486787Y-37621780D01*
X184354836Y-37661807D01*
X184277707Y-37669404D01*
X184200580Y-37677000D01*
X184097420Y-37677000D01*
X184020293Y-37669403D01*
X183943164Y-37661807D01*
X183811213Y-37621780D01*
X183745237Y-37601767D01*
X183562828Y-37504267D01*
X183402946Y-37373054D01*
X183271733Y-37213172D01*
X183174233Y-37030763D01*
X183141277Y-36922120D01*
X183114193Y-36832836D01*
X183093920Y-36627000D01*
X183114193Y-36421164D01*
X183174233Y-36223238D01*
X183174233Y-36223237D01*
X183271733Y-36040828D01*
X183402946Y-35880946D01*
X183562828Y-35749733D01*
X183745237Y-35652233D01*
X183811213Y-35632220D01*
X183943164Y-35592193D01*
X184020293Y-35584596D01*
X184097420Y-35577000D01*
X184200580Y-35577000D01*
X184277707Y-35584597D01*
X184277707Y-35584597D01*
G37*
G36*
X181737707Y-35584597D02*
X181814836Y-35592193D01*
X181946787Y-35632220D01*
X182012763Y-35652233D01*
X182195172Y-35749733D01*
X182355054Y-35880946D01*
X182486267Y-36040828D01*
X182583767Y-36223237D01*
X182583767Y-36223238D01*
X182643807Y-36421164D01*
X182664080Y-36627000D01*
X182643807Y-36832836D01*
X182616723Y-36922120D01*
X182583767Y-37030763D01*
X182486267Y-37213172D01*
X182355054Y-37373054D01*
X182195172Y-37504267D01*
X182012763Y-37601767D01*
X181946787Y-37621780D01*
X181814836Y-37661807D01*
X181737707Y-37669404D01*
X181660580Y-37677000D01*
X181557420Y-37677000D01*
X181480293Y-37669403D01*
X181403164Y-37661807D01*
X181271213Y-37621780D01*
X181205237Y-37601767D01*
X181022828Y-37504267D01*
X180862946Y-37373054D01*
X180731733Y-37213172D01*
X180634233Y-37030763D01*
X180601277Y-36922120D01*
X180574193Y-36832836D01*
X180553920Y-36627000D01*
X180574193Y-36421164D01*
X180634233Y-36223238D01*
X180634233Y-36223237D01*
X180731733Y-36040828D01*
X180862946Y-35880946D01*
X181022828Y-35749733D01*
X181205237Y-35652233D01*
X181271213Y-35632220D01*
X181403164Y-35592193D01*
X181480293Y-35584596D01*
X181557420Y-35577000D01*
X181660580Y-35577000D01*
X181737707Y-35584597D01*
X181737707Y-35584597D01*
G37*
G36*
X179197707Y-35584597D02*
X179274836Y-35592193D01*
X179406787Y-35632220D01*
X179472763Y-35652233D01*
X179655172Y-35749733D01*
X179815054Y-35880946D01*
X179946267Y-36040828D01*
X180043767Y-36223237D01*
X180043767Y-36223238D01*
X180103807Y-36421164D01*
X180124080Y-36627000D01*
X180103807Y-36832836D01*
X180076723Y-36922120D01*
X180043767Y-37030763D01*
X179946267Y-37213172D01*
X179815054Y-37373054D01*
X179655172Y-37504267D01*
X179472763Y-37601767D01*
X179406787Y-37621780D01*
X179274836Y-37661807D01*
X179197707Y-37669404D01*
X179120580Y-37677000D01*
X179017420Y-37677000D01*
X178940293Y-37669403D01*
X178863164Y-37661807D01*
X178731213Y-37621780D01*
X178665237Y-37601767D01*
X178482828Y-37504267D01*
X178322946Y-37373054D01*
X178191733Y-37213172D01*
X178094233Y-37030763D01*
X178061277Y-36922120D01*
X178034193Y-36832836D01*
X178013920Y-36627000D01*
X178034193Y-36421164D01*
X178094233Y-36223238D01*
X178094233Y-36223237D01*
X178191733Y-36040828D01*
X178322946Y-35880946D01*
X178482828Y-35749733D01*
X178665237Y-35652233D01*
X178731213Y-35632220D01*
X178863164Y-35592193D01*
X178940293Y-35584596D01*
X179017420Y-35577000D01*
X179120580Y-35577000D01*
X179197707Y-35584597D01*
X179197707Y-35584597D01*
G37*
G36*
X175039000Y-37677000D02*
X172939000Y-37677000D01*
X172939000Y-35577000D01*
X175039000Y-35577000D01*
X175039000Y-37677000D01*
X175039000Y-37677000D01*
G37*
M02*
